<?xml version="1.0" encoding="UTF-8" standalone="no"?>
<!DOCTYPE svg PUBLIC "-//W3C//DTD SVG 1.1//EN"
 "http://www.w3.org/Graphics/SVG/1.1/DTD/svg11.dtd">
<!-- Generated by graphviz version 2.43.0 (0)
 -->
<!-- Title: src/libs/vpatterndb/variables/vmeasurement.h Pages: 1 -->
<svg width="5944pt" height="374pt"
 viewBox="0.00 0.00 5944.00 374.00" xmlns="http://www.w3.org/2000/svg" xmlns:xlink="http://www.w3.org/1999/xlink">
<g id="graph0" class="graph" transform="scale(1 1) rotate(0) translate(4 370)">
<title>src/libs/vpatterndb/variables/vmeasurement.h</title>
<polygon fill="white" stroke="transparent" points="-4,4 -4,-370 5940,-370 5940,4 -4,4"/>
<!-- Node1 -->
<g id="node1" class="node">
<title>Node1</title>
<g id="a_node1"><a xlink:title=" ">
<polygon fill="#bfbfbf" stroke="black" points="3747.5,-335.5 3747.5,-365.5 3898.5,-365.5 3898.5,-335.5 3747.5,-335.5"/>
<text text-anchor="start" x="3755.5" y="-353.5" font-family="Helvetica,sans-Serif" font-size="10.00">src/libs/vpatterndb</text>
<text text-anchor="middle" x="3823" y="-342.5" font-family="Helvetica,sans-Serif" font-size="10.00">/variables/vmeasurement.h</text>
</a>
</g>
</g>
<!-- Node2 -->
<g id="node2" class="node">
<title>Node2</title>
<g id="a_node2"><a xlink:href="../../de/db3/vmeasurements_8cpp.html" target="_top" xlink:title=" ">
<polygon fill="white" stroke="black" points="0,-73 0,-92 196,-92 196,-73 0,-73"/>
<text text-anchor="middle" x="98" y="-80" font-family="Helvetica,sans-Serif" font-size="10.00">src/libs/vformat/vmeasurements.cpp</text>
</a>
</g>
</g>
<!-- Node1&#45;&gt;Node2 -->
<g id="edge1" class="edge">
<title>Node1&#45;&gt;Node2</title>
<path fill="none" stroke="midnightblue" d="M3737.41,-346.88C3527.84,-340.31 2972.26,-322.01 2509,-299 1531.06,-250.42 1266.82,-372.88 310,-165 234.48,-148.59 150.33,-109.53 115.03,-92.13"/>
<polygon fill="midnightblue" stroke="midnightblue" points="3737.32,-350.38 3747.43,-347.19 3737.54,-343.38 3737.32,-350.38"/>
</g>
<!-- Node3 -->
<g id="node3" class="node">
<title>Node3</title>
<g id="a_node3"><a xlink:href="../../dd/d62/vmeasurement_8cpp.html" target="_top" xlink:title=" ">
<polygon fill="white" stroke="black" points="5774,-67.5 5774,-97.5 5936,-97.5 5936,-67.5 5774,-67.5"/>
<text text-anchor="start" x="5782" y="-85.5" font-family="Helvetica,sans-Serif" font-size="10.00">src/libs/vpatterndb</text>
<text text-anchor="middle" x="5855" y="-74.5" font-family="Helvetica,sans-Serif" font-size="10.00">/variables/vmeasurement.cpp</text>
</a>
</g>
</g>
<!-- Node1&#45;&gt;Node3 -->
<g id="edge2" class="edge">
<title>Node1&#45;&gt;Node3</title>
<path fill="none" stroke="midnightblue" d="M3908.49,-343.15C4021.55,-334.5 4226.96,-317.9 4402,-299 4825.94,-253.22 4930.88,-231.92 5352,-165 5500.75,-141.36 5674.11,-113.12 5773.57,-96.85"/>
<polygon fill="midnightblue" stroke="midnightblue" points="3908.21,-339.66 3898.51,-343.91 3908.74,-346.64 3908.21,-339.66"/>
</g>
<!-- Node4 -->
<g id="node4" class="node">
<title>Node4</title>
<g id="a_node4"><a xlink:href="../../de/dca/variables_8h.html" target="_top" xlink:title=" ">
<polygon fill="white" stroke="black" points="2517.5,-268.5 2517.5,-298.5 2624.5,-298.5 2624.5,-268.5 2517.5,-268.5"/>
<text text-anchor="start" x="2525.5" y="-286.5" font-family="Helvetica,sans-Serif" font-size="10.00">src/libs/vpatterndb</text>
<text text-anchor="middle" x="2571" y="-275.5" font-family="Helvetica,sans-Serif" font-size="10.00">/variables.h</text>
</a>
</g>
</g>
<!-- Node1&#45;&gt;Node4 -->
<g id="edge3" class="edge">
<title>Node1&#45;&gt;Node4</title>
<path fill="none" stroke="midnightblue" d="M3736.93,-345.03C3496.14,-332.53 2820.46,-297.45 2624.75,-287.29"/>
<polygon fill="midnightblue" stroke="midnightblue" points="3736.87,-348.53 3747.03,-345.56 3737.23,-341.54 3736.87,-348.53"/>
</g>
<!-- Node37 -->
<g id="node32" class="node">
<title>Node37</title>
<g id="a_node32"><a xlink:href="../../d6/d46/vcontainer_8cpp.html" target="_top" xlink:title=" ">
<polygon fill="white" stroke="black" points="5648.5,-67.5 5648.5,-97.5 5755.5,-97.5 5755.5,-67.5 5648.5,-67.5"/>
<text text-anchor="start" x="5656.5" y="-85.5" font-family="Helvetica,sans-Serif" font-size="10.00">src/libs/vpatterndb</text>
<text text-anchor="middle" x="5702" y="-74.5" font-family="Helvetica,sans-Serif" font-size="10.00">/vcontainer.cpp</text>
</a>
</g>
</g>
<!-- Node1&#45;&gt;Node37 -->
<g id="edge62" class="edge">
<title>Node1&#45;&gt;Node37</title>
<path fill="none" stroke="midnightblue" d="M3908.87,-340.46C4170.14,-312.36 4978.02,-220.95 5640,-98 5642.72,-97.5 5645.49,-96.95 5648.3,-96.38"/>
<polygon fill="midnightblue" stroke="midnightblue" points="3908.26,-337.01 3898.69,-341.56 3909.01,-343.97 3908.26,-337.01"/>
</g>
<!-- Node5 -->
<g id="node5" class="node">
<title>Node5</title>
<g id="a_node5"><a xlink:href="../../d3/df7/vcontainer_8h.html" target="_top" xlink:title=" ">
<polygon fill="white" stroke="black" points="1485.5,-201.5 1485.5,-231.5 1592.5,-231.5 1592.5,-201.5 1485.5,-201.5"/>
<text text-anchor="start" x="1493.5" y="-219.5" font-family="Helvetica,sans-Serif" font-size="10.00">src/libs/vpatterndb</text>
<text text-anchor="middle" x="1539" y="-208.5" font-family="Helvetica,sans-Serif" font-size="10.00">/vcontainer.h</text>
</a>
</g>
</g>
<!-- Node4&#45;&gt;Node5 -->
<g id="edge4" class="edge">
<title>Node4&#45;&gt;Node5</title>
<path fill="none" stroke="midnightblue" d="M2507.31,-278.49C2318.98,-266.63 1767.08,-231.87 1592.55,-220.87"/>
<polygon fill="midnightblue" stroke="midnightblue" points="2507.13,-281.98 2517.33,-279.12 2507.57,-275 2507.13,-281.98"/>
</g>
<!-- Node5&#45;&gt;Node2 -->
<g id="edge7" class="edge">
<title>Node5&#45;&gt;Node2</title>
<path fill="none" stroke="midnightblue" d="M1475.05,-216C1310.15,-216.5 857.28,-213.03 484,-165 350.85,-147.87 195.32,-109.2 129.73,-92.01"/>
<polygon fill="midnightblue" stroke="midnightblue" points="1475.5,-219.49 1485.49,-215.96 1475.48,-212.49 1475.5,-219.49"/>
</g>
<!-- Node6 -->
<g id="node6" class="node">
<title>Node6</title>
<g id="a_node6"><a xlink:href="../../d4/dd6/vmeasurements_8h.html" target="_top" xlink:title=" ">
<polygon fill="white" stroke="black" points="493.5,-140 493.5,-159 678.5,-159 678.5,-140 493.5,-140"/>
<text text-anchor="middle" x="586" y="-147" font-family="Helvetica,sans-Serif" font-size="10.00">src/libs/vformat/vmeasurements.h</text>
</a>
</g>
</g>
<!-- Node5&#45;&gt;Node6 -->
<g id="edge5" class="edge">
<title>Node5&#45;&gt;Node6</title>
<path fill="none" stroke="midnightblue" d="M1475.08,-212.23C1338.9,-205.1 1010.14,-187.02 735,-165 713.37,-163.27 689.99,-161.12 668.32,-159.02"/>
<polygon fill="midnightblue" stroke="midnightblue" points="1475.15,-215.74 1485.32,-212.77 1475.52,-208.75 1475.15,-215.74"/>
</g>
<!-- Node7 -->
<g id="node7" class="node">
<title>Node7</title>
<g id="a_node7"><a xlink:href="../../d6/de0/vlayoutpiece_8h.html" target="_top" xlink:title=" ">
<polygon fill="white" stroke="black" points="744,-140 744,-159 910,-159 910,-140 744,-140"/>
<text text-anchor="middle" x="827" y="-147" font-family="Helvetica,sans-Serif" font-size="10.00">src/libs/vlayout/vlayoutpiece.h</text>
</a>
</g>
</g>
<!-- Node5&#45;&gt;Node7 -->
<g id="edge8" class="edge">
<title>Node5&#45;&gt;Node7</title>
<path fill="none" stroke="midnightblue" d="M1475.32,-211.67C1363.51,-204.64 1124.72,-188.22 924,-165 909.54,-163.33 893.92,-161.15 879.52,-159"/>
<polygon fill="midnightblue" stroke="midnightblue" points="1475.21,-215.17 1485.41,-212.3 1475.65,-208.18 1475.21,-215.17"/>
</g>
<!-- Node17 -->
<g id="node16" class="node">
<title>Node17</title>
<g id="a_node16"><a xlink:href="../../d8/d70/vtextmanager_8cpp.html" target="_top" xlink:title=" ">
<polygon fill="white" stroke="black" points="1823,-73 1823,-92 2005,-92 2005,-73 1823,-73"/>
<text text-anchor="middle" x="1914" y="-80" font-family="Helvetica,sans-Serif" font-size="10.00">src/libs/vlayout/vtextmanager.cpp</text>
</a>
</g>
</g>
<!-- Node5&#45;&gt;Node17 -->
<g id="edge19" class="edge">
<title>Node5&#45;&gt;Node17</title>
<path fill="none" stroke="midnightblue" d="M1602.48,-204.08C1644.7,-195.55 1701.02,-182.37 1749,-165 1806.98,-144.01 1871.32,-108.35 1899.47,-92.06"/>
<polygon fill="midnightblue" stroke="midnightblue" points="1601.73,-200.66 1592.6,-206.04 1603.1,-207.52 1601.73,-200.66"/>
</g>
<!-- Node18 -->
<g id="node17" class="node">
<title>Node18</title>
<g id="a_node17"><a xlink:href="../../d5/d74/vabstractapplication_8h.html" target="_top" xlink:title=" ">
<polygon fill="white" stroke="red" points="3522.5,-140 3522.5,-159 3717.5,-159 3717.5,-140 3522.5,-140"/>
<text text-anchor="middle" x="3620" y="-147" font-family="Helvetica,sans-Serif" font-size="10.00">src/libs/vmisc/vabstractapplication.h</text>
</a>
</g>
</g>
<!-- Node5&#45;&gt;Node18 -->
<g id="edge20" class="edge">
<title>Node5&#45;&gt;Node18</title>
<path fill="none" stroke="midnightblue" d="M1602.74,-213.51C1901.09,-204.19 3160.39,-164.86 3522.33,-153.55"/>
<polygon fill="midnightblue" stroke="midnightblue" points="1602.42,-210.02 1592.53,-213.83 1602.64,-217.01 1602.42,-210.02"/>
</g>
<!-- Node36 -->
<g id="node31" class="node">
<title>Node36</title>
<g id="a_node31"><a xlink:href="../../db/d11/vformula_8cpp.html" target="_top" xlink:title=" ">
<polygon fill="white" stroke="black" points="1572.5,-67.5 1572.5,-97.5 1679.5,-97.5 1679.5,-67.5 1572.5,-67.5"/>
<text text-anchor="start" x="1580.5" y="-85.5" font-family="Helvetica,sans-Serif" font-size="10.00">src/libs/vpatterndb</text>
<text text-anchor="middle" x="1626" y="-74.5" font-family="Helvetica,sans-Serif" font-size="10.00">/vformula.cpp</text>
</a>
</g>
</g>
<!-- Node5&#45;&gt;Node36 -->
<g id="edge54" class="edge">
<title>Node5&#45;&gt;Node36</title>
<path fill="none" stroke="midnightblue" d="M1475.33,-216.13C1309.97,-216.71 884.56,-210.87 957,-134 1003.26,-84.91 1496.23,-107.6 1563,-98 1566.11,-97.55 1569.29,-97.03 1572.5,-96.45"/>
<polygon fill="midnightblue" stroke="midnightblue" points="1475.39,-219.63 1485.37,-216.09 1475.35,-212.63 1475.39,-219.63"/>
</g>
<!-- Node5&#45;&gt;Node37 -->
<g id="edge55" class="edge">
<title>Node5&#45;&gt;Node37</title>
<path fill="none" stroke="midnightblue" d="M1602.84,-214.48C1865.32,-210.17 2887.09,-192.48 3727,-165 4052.45,-154.35 4133.59,-145.85 4459,-134 4721.39,-124.45 5379.65,-132.07 5640,-98 5642.74,-97.64 5645.54,-97.21 5648.35,-96.74"/>
<polygon fill="midnightblue" stroke="midnightblue" points="1602.67,-210.98 1592.73,-214.64 1602.79,-217.98 1602.67,-210.98"/>
</g>
<!-- Node38 -->
<g id="node33" class="node">
<title>Node38</title>
<g id="a_node33"><a xlink:href="../../df/d7a/vpiece_8cpp.html" target="_top" xlink:title=" ">
<polygon fill="white" stroke="black" points="1697.5,-67.5 1697.5,-97.5 1804.5,-97.5 1804.5,-67.5 1697.5,-67.5"/>
<text text-anchor="start" x="1705.5" y="-85.5" font-family="Helvetica,sans-Serif" font-size="10.00">src/libs/vpatterndb</text>
<text text-anchor="middle" x="1751" y="-74.5" font-family="Helvetica,sans-Serif" font-size="10.00">/vpiece.cpp</text>
</a>
</g>
</g>
<!-- Node5&#45;&gt;Node38 -->
<g id="edge57" class="edge">
<title>Node5&#45;&gt;Node38</title>
<path fill="none" stroke="midnightblue" d="M1602.95,-213.73C1643.47,-209.27 1694.23,-196.99 1727,-165 1745.36,-147.07 1749.85,-115.86 1750.84,-97.71"/>
<polygon fill="midnightblue" stroke="midnightblue" points="1602.51,-210.26 1592.89,-214.71 1603.18,-217.23 1602.51,-210.26"/>
</g>
<!-- Node40 -->
<g id="node35" class="node">
<title>Node40</title>
<g id="a_node35"><a xlink:href="../../d8/dba/vpiecenode_8cpp.html" target="_top" xlink:title=" ">
<polygon fill="white" stroke="black" points="2431.5,-0.5 2431.5,-30.5 2538.5,-30.5 2538.5,-0.5 2431.5,-0.5"/>
<text text-anchor="start" x="2439.5" y="-18.5" font-family="Helvetica,sans-Serif" font-size="10.00">src/libs/vpatterndb</text>
<text text-anchor="middle" x="2485" y="-7.5" font-family="Helvetica,sans-Serif" font-size="10.00">/vpiecenode.cpp</text>
</a>
</g>
</g>
<!-- Node5&#45;&gt;Node40 -->
<g id="edge58" class="edge">
<title>Node5&#45;&gt;Node40</title>
<path fill="none" stroke="midnightblue" d="M1602.59,-204.82C1658.48,-192.78 1726.29,-170.05 1694,-134 1645.37,-79.71 1416.63,-152.29 1368,-98 1358.81,-87.74 1358.48,-76.96 1368,-67 1405.12,-28.17 2213.32,-18.73 2431.26,-16.89"/>
<polygon fill="midnightblue" stroke="midnightblue" points="1601.75,-201.42 1592.67,-206.87 1603.17,-208.27 1601.75,-201.42"/>
</g>
<!-- Node56 -->
<g id="node45" class="node">
<title>Node56</title>
<g id="a_node45"><a xlink:href="../../d1/de1/vincrement__p_8h.html" target="_top" xlink:title=" ">
<polygon fill="white" stroke="red" points="966.5,-134.5 966.5,-164.5 1109.5,-164.5 1109.5,-134.5 966.5,-134.5"/>
<text text-anchor="start" x="974.5" y="-152.5" font-family="Helvetica,sans-Serif" font-size="10.00">src/libs/vpatterndb</text>
<text text-anchor="middle" x="1038" y="-141.5" font-family="Helvetica,sans-Serif" font-size="10.00">/variables/vincrement_p.h</text>
</a>
</g>
</g>
<!-- Node5&#45;&gt;Node56 -->
<g id="edge51" class="edge">
<title>Node5&#45;&gt;Node56</title>
<path fill="none" stroke="midnightblue" d="M1475.38,-209.07C1392.8,-200.45 1244.31,-184 1118,-165 1115.35,-164.6 1112.65,-164.18 1109.92,-163.75"/>
<polygon fill="midnightblue" stroke="midnightblue" points="1475.05,-212.55 1485.36,-210.11 1475.78,-205.59 1475.05,-212.55"/>
</g>
<!-- Node58 -->
<g id="node46" class="node">
<title>Node58</title>
<g id="a_node46"><a xlink:href="../../d6/dc1/vmeasurement__p_8h.html" target="_top" xlink:title=" ">
<polygon fill="white" stroke="black" points="4468,-134.5 4468,-164.5 4630,-164.5 4630,-134.5 4468,-134.5"/>
<text text-anchor="start" x="4476" y="-152.5" font-family="Helvetica,sans-Serif" font-size="10.00">src/libs/vpatterndb</text>
<text text-anchor="middle" x="4549" y="-141.5" font-family="Helvetica,sans-Serif" font-size="10.00">/variables/vmeasurement_p.h</text>
</a>
</g>
</g>
<!-- Node5&#45;&gt;Node58 -->
<g id="edge52" class="edge">
<title>Node5&#45;&gt;Node58</title>
<path fill="none" stroke="midnightblue" d="M1603.04,-214.9C1900.4,-211.97 3176.21,-198.02 4222,-165 4305.78,-162.35 4401.57,-157.94 4467.72,-154.68"/>
<polygon fill="midnightblue" stroke="midnightblue" points="1602.84,-211.4 1592.88,-215 1602.91,-218.4 1602.84,-211.4"/>
</g>
<!-- Node59 -->
<g id="node47" class="node">
<title>Node59</title>
<g id="a_node47"><a xlink:href="../../d6/d91/vnodedetail_8cpp.html" target="_top" xlink:title=" ">
<polygon fill="white" stroke="black" points="1127.5,-134.5 1127.5,-164.5 1234.5,-164.5 1234.5,-134.5 1127.5,-134.5"/>
<text text-anchor="start" x="1135.5" y="-152.5" font-family="Helvetica,sans-Serif" font-size="10.00">src/libs/vpatterndb</text>
<text text-anchor="middle" x="1181" y="-141.5" font-family="Helvetica,sans-Serif" font-size="10.00">/vnodedetail.cpp</text>
</a>
</g>
</g>
<!-- Node5&#45;&gt;Node59 -->
<g id="edge56" class="edge">
<title>Node5&#45;&gt;Node59</title>
<path fill="none" stroke="midnightblue" d="M1475.25,-205.77C1415.16,-196.33 1322.7,-181.1 1243,-165 1240.29,-164.45 1237.52,-163.87 1234.72,-163.28"/>
<polygon fill="midnightblue" stroke="midnightblue" points="1474.92,-209.26 1485.35,-207.35 1476.01,-202.35 1474.92,-209.26"/>
</g>
<!-- Node60 -->
<g id="node48" class="node">
<title>Node60</title>
<g id="a_node48"><a xlink:href="../../da/de1/vpiecepath_8cpp.html" target="_top" xlink:title=" ">
<polygon fill="white" stroke="black" points="1252.5,-134.5 1252.5,-164.5 1359.5,-164.5 1359.5,-134.5 1252.5,-134.5"/>
<text text-anchor="start" x="1260.5" y="-152.5" font-family="Helvetica,sans-Serif" font-size="10.00">src/libs/vpatterndb</text>
<text text-anchor="middle" x="1306" y="-141.5" font-family="Helvetica,sans-Serif" font-size="10.00">/vpiecepath.cpp</text>
</a>
</g>
</g>
<!-- Node5&#45;&gt;Node60 -->
<g id="edge59" class="edge">
<title>Node5&#45;&gt;Node60</title>
<path fill="none" stroke="midnightblue" d="M1478.83,-198.71C1440.92,-188.14 1392.51,-174.63 1356.58,-164.61"/>
<polygon fill="midnightblue" stroke="midnightblue" points="1478.16,-202.16 1488.73,-201.48 1480.04,-195.42 1478.16,-202.16"/>
</g>
<!-- Node61 -->
<g id="node49" class="node">
<title>Node61</title>
<g id="a_node49"><a xlink:href="../../d1/d3a/abstracttest_8cpp.html" target="_top" xlink:title=" ">
<polygon fill="white" stroke="black" points="1377.5,-140 1377.5,-159 1538.5,-159 1538.5,-140 1377.5,-140"/>
<text text-anchor="middle" x="1458" y="-147" font-family="Helvetica,sans-Serif" font-size="10.00">src/libs/vtest/abstracttest.cpp</text>
</a>
</g>
</g>
<!-- Node5&#45;&gt;Node61 -->
<g id="edge60" class="edge">
<title>Node5&#45;&gt;Node61</title>
<path fill="none" stroke="midnightblue" d="M1513.46,-195.01C1498.43,-182.94 1480.19,-168.3 1468.83,-159.19"/>
<polygon fill="midnightblue" stroke="midnightblue" points="1511.43,-197.87 1521.42,-201.4 1515.82,-192.41 1511.43,-197.87"/>
</g>
<!-- Node62 -->
<g id="node50" class="node">
<title>Node62</title>
<g id="a_node50"><a xlink:href="../../da/db4/piece__tablewidgetitem_8cpp.html" target="_top" xlink:title=" ">
<polygon fill="white" stroke="black" points="1557,-134.5 1557,-164.5 1685,-164.5 1685,-134.5 1557,-134.5"/>
<text text-anchor="start" x="1565" y="-152.5" font-family="Helvetica,sans-Serif" font-size="10.00">src/libs/vwidgets/piece</text>
<text text-anchor="middle" x="1621" y="-141.5" font-family="Helvetica,sans-Serif" font-size="10.00">_tablewidgetitem.cpp</text>
</a>
</g>
</g>
<!-- Node5&#45;&gt;Node62 -->
<g id="edge61" class="edge">
<title>Node5&#45;&gt;Node62</title>
<path fill="none" stroke="midnightblue" d="M1564.65,-195.17C1577.19,-185.23 1591.97,-173.51 1603.24,-164.58"/>
<polygon fill="midnightblue" stroke="midnightblue" points="1562.46,-192.44 1556.79,-201.4 1566.8,-197.93 1562.46,-192.44"/>
</g>
<!-- Node6&#45;&gt;Node2 -->
<g id="edge6" class="edge">
<title>Node6&#45;&gt;Node2</title>
<path fill="none" stroke="midnightblue" d="M511.81,-138.62C416.42,-125.91 252.36,-104.06 162.13,-92.04"/>
<polygon fill="midnightblue" stroke="midnightblue" points="511.58,-142.12 521.95,-139.97 512.5,-135.18 511.58,-142.12"/>
</g>
<!-- Node8 -->
<g id="node8" class="node">
<title>Node8</title>
<g id="a_node8"><a xlink:href="../../dd/d66/vdxfengine_8cpp.html" target="_top" xlink:title=" ">
<polygon fill="white" stroke="black" points="1168,-73 1168,-92 1322,-92 1322,-73 1168,-73"/>
<text text-anchor="middle" x="1245" y="-80" font-family="Helvetica,sans-Serif" font-size="10.00">src/libs/vdxf/vdxfengine.cpp</text>
</a>
</g>
</g>
<!-- Node7&#45;&gt;Node8 -->
<g id="edge9" class="edge">
<title>Node7&#45;&gt;Node8</title>
<path fill="none" stroke="midnightblue" d="M893.7,-138.43C975.23,-126.11 1108.46,-105.91 1158,-98 1169.79,-96.12 1182.48,-94.04 1194.41,-92.05"/>
<polygon fill="midnightblue" stroke="midnightblue" points="892.9,-135.02 883.54,-139.97 893.95,-141.94 892.9,-135.02"/>
</g>
<!-- Node9 -->
<g id="node9" class="node">
<title>Node9</title>
<g id="a_node9"><a xlink:href="../../de/da8/vbank_8cpp.html" target="_top" xlink:title=" ">
<polygon fill="white" stroke="black" points="252,-73 252,-92 396,-92 396,-73 252,-73"/>
<text text-anchor="middle" x="324" y="-80" font-family="Helvetica,sans-Serif" font-size="10.00">src/libs/vlayout/vbank.cpp</text>
</a>
</g>
</g>
<!-- Node7&#45;&gt;Node9 -->
<g id="edge10" class="edge">
<title>Node7&#45;&gt;Node9</title>
<path fill="none" stroke="midnightblue" d="M733.98,-138.94C648.33,-129.76 517.85,-114.84 405,-98 393.27,-96.25 380.63,-94.11 368.91,-92.02"/>
<polygon fill="midnightblue" stroke="midnightblue" points="733.62,-142.42 743.93,-140 734.36,-135.46 733.62,-142.42"/>
</g>
<!-- Node10 -->
<g id="node10" class="node">
<title>Node10</title>
<g id="a_node10"><a xlink:href="../../df/d5d/vcontour_8cpp.html" target="_top" xlink:title=" ">
<polygon fill="white" stroke="black" points="414,-73 414,-92 570,-92 570,-73 414,-73"/>
<text text-anchor="middle" x="492" y="-80" font-family="Helvetica,sans-Serif" font-size="10.00">src/libs/vlayout/vcontour.cpp</text>
</a>
</g>
</g>
<!-- Node7&#45;&gt;Node10 -->
<g id="edge11" class="edge">
<title>Node7&#45;&gt;Node10</title>
<path fill="none" stroke="midnightblue" d="M772.67,-137.96C706.73,-125.16 596.85,-103.84 535.97,-92.03"/>
<polygon fill="midnightblue" stroke="midnightblue" points="772.38,-141.47 782.86,-139.94 773.71,-134.59 772.38,-141.47"/>
</g>
<!-- Node11 -->
<g id="node11" class="node">
<title>Node11</title>
<g id="a_node11"><a xlink:href="../../d2/d2d/vlayoutpaper__p_8h.html" target="_top" xlink:title=" ">
<polygon fill="white" stroke="black" points="588.5,-73 588.5,-92 767.5,-92 767.5,-73 588.5,-73"/>
<text text-anchor="middle" x="678" y="-80" font-family="Helvetica,sans-Serif" font-size="10.00">src/libs/vlayout/vlayoutpaper_p.h</text>
</a>
</g>
</g>
<!-- Node7&#45;&gt;Node11 -->
<g id="edge12" class="edge">
<title>Node7&#45;&gt;Node11</title>
<path fill="none" stroke="midnightblue" d="M797.84,-135.78C768.34,-122.91 723.51,-103.35 697.87,-92.17"/>
<polygon fill="midnightblue" stroke="midnightblue" points="796.65,-139.08 807.21,-139.87 799.45,-132.66 796.65,-139.08"/>
</g>
<!-- Node12 -->
<g id="node12" class="node">
<title>Node12</title>
<g id="a_node12"><a xlink:href="../../d1/dd1/vlayoutpaper_8cpp.html" target="_top" xlink:title=" ">
<polygon fill="white" stroke="black" points="589,-6 589,-25 767,-25 767,-6 589,-6"/>
<text text-anchor="middle" x="678" y="-13" font-family="Helvetica,sans-Serif" font-size="10.00">src/libs/vlayout/vlayoutpaper.cpp</text>
</a>
</g>
</g>
<!-- Node7&#45;&gt;Node12 -->
<g id="edge18" class="edge">
<title>Node7&#45;&gt;Node12</title>
<path fill="none" stroke="midnightblue" d="M737.47,-138.93C720.7,-137.22 703.32,-135.51 687,-134 637.71,-129.45 276.55,-134.39 243,-98 233.66,-87.87 233.84,-77.29 243,-67 265.58,-41.65 468.43,-27.09 588.99,-20.6"/>
<polygon fill="midnightblue" stroke="midnightblue" points="737.5,-142.45 747.81,-139.99 738.22,-135.49 737.5,-142.45"/>
</g>
<!-- Node13 -->
<g id="node13" class="node">
<title>Node13</title>
<g id="a_node13"><a xlink:href="../../d3/d39/vlayoutgenerator_8cpp.html" target="_top" xlink:title=" ">
<polygon fill="white" stroke="black" points="952.5,-73 952.5,-92 1149.5,-92 1149.5,-73 952.5,-73"/>
<text text-anchor="middle" x="1051" y="-80" font-family="Helvetica,sans-Serif" font-size="10.00">src/libs/vlayout/vlayoutgenerator.cpp</text>
</a>
</g>
</g>
<!-- Node7&#45;&gt;Node13 -->
<g id="edge14" class="edge">
<title>Node7&#45;&gt;Node13</title>
<path fill="none" stroke="midnightblue" d="M866.6,-137.01C910.93,-124.15 981.75,-103.59 1021.49,-92.06"/>
<polygon fill="midnightblue" stroke="midnightblue" points="865.37,-133.72 856.75,-139.87 867.32,-140.44 865.37,-133.72"/>
</g>
<!-- Node14 -->
<g id="node14" class="node">
<title>Node14</title>
<g id="a_node14"><a xlink:href="../../db/d5c/vposition_8h.html" target="_top" xlink:title=" ">
<polygon fill="white" stroke="red" points="786,-73 786,-92 934,-92 934,-73 786,-73"/>
<text text-anchor="middle" x="860" y="-80" font-family="Helvetica,sans-Serif" font-size="10.00">src/libs/vlayout/vposition.h</text>
</a>
</g>
</g>
<!-- Node7&#45;&gt;Node14 -->
<g id="edge15" class="edge">
<title>Node7&#45;&gt;Node14</title>
<path fill="none" stroke="midnightblue" d="M836.06,-130.66C842.42,-118.13 850.65,-101.91 855.62,-92.13"/>
<polygon fill="midnightblue" stroke="midnightblue" points="832.86,-129.23 831.45,-139.73 839.1,-132.4 832.86,-129.23"/>
</g>
<!-- Node16 -->
<g id="node15" class="node">
<title>Node16</title>
<g id="a_node15"><a xlink:href="../../dd/d70/vlayoutpiece_8cpp.html" target="_top" xlink:title=" ">
<polygon fill="white" stroke="black" points="1377.5,-73 1377.5,-92 1554.5,-92 1554.5,-73 1377.5,-73"/>
<text text-anchor="middle" x="1466" y="-80" font-family="Helvetica,sans-Serif" font-size="10.00">src/libs/vlayout/vlayoutpiece.cpp</text>
</a>
</g>
</g>
<!-- Node7&#45;&gt;Node16 -->
<g id="edge17" class="edge">
<title>Node7&#45;&gt;Node16</title>
<path fill="none" stroke="midnightblue" d="M890.22,-138.49C901.46,-136.87 913.06,-135.3 924,-134 1104.33,-112.57 1150.27,-115.7 1331,-98 1349.77,-96.16 1369.99,-94.06 1388.92,-92.03"/>
<polygon fill="midnightblue" stroke="midnightblue" points="889.42,-135.07 880.04,-139.98 890.44,-141.99 889.42,-135.07"/>
</g>
<!-- Node11&#45;&gt;Node12 -->
<g id="edge13" class="edge">
<title>Node11&#45;&gt;Node12</title>
<path fill="none" stroke="midnightblue" d="M678,-62.54C678,-50.17 678,-34.62 678,-25.13"/>
<polygon fill="midnightblue" stroke="midnightblue" points="674.5,-62.73 678,-72.73 681.5,-62.73 674.5,-62.73"/>
</g>
<!-- Node14&#45;&gt;Node12 -->
<g id="edge16" class="edge">
<title>Node14&#45;&gt;Node12</title>
<path fill="none" stroke="midnightblue" d="M826.22,-69.44C790.12,-56.54 733.79,-36.42 701.98,-25.06"/>
<polygon fill="midnightblue" stroke="midnightblue" points="825.24,-72.8 835.83,-72.87 827.59,-66.21 825.24,-72.8"/>
</g>
<!-- Node18&#45;&gt;Node16 -->
<g id="edge31" class="edge">
<title>Node18&#45;&gt;Node16</title>
<path fill="none" stroke="midnightblue" d="M3512.13,-147.62C3145.21,-144.34 1946.99,-131.29 1563,-98 1547.39,-96.65 1530.48,-94.39 1515.21,-92.06"/>
<polygon fill="midnightblue" stroke="midnightblue" points="3512.18,-151.12 3522.21,-147.71 3512.25,-144.12 3512.18,-151.12"/>
</g>
<!-- Node18&#45;&gt;Node17 -->
<g id="edge32" class="edge">
<title>Node18&#45;&gt;Node17</title>
<path fill="none" stroke="midnightblue" d="M3511.92,-149.24C3252.97,-150.1 2576.84,-147.02 2015,-98 1998.85,-96.59 1981.35,-94.34 1965.51,-92.02"/>
<polygon fill="midnightblue" stroke="midnightblue" points="3512.08,-152.74 3522.07,-149.2 3512.06,-145.74 3512.08,-152.74"/>
</g>
<!-- Node19 -->
<g id="node18" class="node">
<title>Node19</title>
<g id="a_node18"><a xlink:href="../../d4/d90/fvupdater_8cpp.html" target="_top" xlink:title=" ">
<polygon fill="white" stroke="black" points="2867.5,-73 2867.5,-92 3020.5,-92 3020.5,-73 2867.5,-73"/>
<text text-anchor="middle" x="2944" y="-80" font-family="Helvetica,sans-Serif" font-size="10.00">src/libs/fervor/fvupdater.cpp</text>
</a>
</g>
</g>
<!-- Node18&#45;&gt;Node19 -->
<g id="edge21" class="edge">
<title>Node18&#45;&gt;Node19</title>
<path fill="none" stroke="midnightblue" d="M3512.23,-141.93C3393.73,-134.08 3197.85,-119.3 3030,-98 3017.08,-96.36 3003.14,-94.19 2990.31,-92.02"/>
<polygon fill="midnightblue" stroke="midnightblue" points="3512.18,-145.43 3522.39,-142.6 3512.64,-138.45 3512.18,-145.43"/>
</g>
<!-- Node20 -->
<g id="node19" class="node">
<title>Node20</title>
<g id="a_node19"><a xlink:href="../../d9/dc8/dxiface_8cpp.html" target="_top" xlink:title=" ">
<polygon fill="white" stroke="black" points="3038.5,-73 3038.5,-92 3173.5,-92 3173.5,-73 3038.5,-73"/>
<text text-anchor="middle" x="3106" y="-80" font-family="Helvetica,sans-Serif" font-size="10.00">src/libs/vdxf/dxiface.cpp</text>
</a>
</g>
</g>
<!-- Node18&#45;&gt;Node20 -->
<g id="edge22" class="edge">
<title>Node18&#45;&gt;Node20</title>
<path fill="none" stroke="midnightblue" d="M3519.72,-138.96C3430.97,-130.03 3298.06,-115.46 3183,-98 3171.7,-96.29 3159.53,-94.14 3148.27,-92.02"/>
<polygon fill="midnightblue" stroke="midnightblue" points="3519.48,-142.45 3529.78,-139.97 3520.18,-135.49 3519.48,-142.45"/>
</g>
<!-- Node21 -->
<g id="node20" class="node">
<title>Node21</title>
<g id="a_node20"><a xlink:href="../../da/d75/vabstractarc__p_8h.html" target="_top" xlink:title=" ">
<polygon fill="white" stroke="red" points="3191.5,-67.5 3191.5,-97.5 3298.5,-97.5 3298.5,-67.5 3191.5,-67.5"/>
<text text-anchor="start" x="3199.5" y="-85.5" font-family="Helvetica,sans-Serif" font-size="10.00">src/libs/vgeometry</text>
<text text-anchor="middle" x="3245" y="-74.5" font-family="Helvetica,sans-Serif" font-size="10.00">/vabstractarc_p.h</text>
</a>
</g>
</g>
<!-- Node18&#45;&gt;Node21 -->
<g id="edge23" class="edge">
<title>Node18&#45;&gt;Node21</title>
<path fill="none" stroke="midnightblue" d="M3549.7,-138.47C3486.31,-129.11 3390.64,-114.18 3308,-98 3304.92,-97.4 3301.75,-96.75 3298.57,-96.08"/>
<polygon fill="midnightblue" stroke="midnightblue" points="3549.58,-141.99 3559.98,-139.98 3550.6,-135.06 3549.58,-141.99"/>
</g>
<!-- Node23 -->
<g id="node21" class="node">
<title>Node23</title>
<g id="a_node21"><a xlink:href="../../dc/da3/varc__p_8h.html" target="_top" xlink:title=" ">
<polygon fill="white" stroke="red" points="3316.5,-67.5 3316.5,-97.5 3423.5,-97.5 3423.5,-67.5 3316.5,-67.5"/>
<text text-anchor="start" x="3324.5" y="-85.5" font-family="Helvetica,sans-Serif" font-size="10.00">src/libs/vgeometry</text>
<text text-anchor="middle" x="3370" y="-74.5" font-family="Helvetica,sans-Serif" font-size="10.00">/varc_p.h</text>
</a>
</g>
</g>
<!-- Node18&#45;&gt;Node23 -->
<g id="edge24" class="edge">
<title>Node18&#45;&gt;Node23</title>
<path fill="none" stroke="midnightblue" d="M3577.31,-137.4C3534.83,-126.36 3469.54,-109.38 3423.6,-97.44"/>
<polygon fill="midnightblue" stroke="midnightblue" points="3576.5,-140.81 3587.06,-139.94 3578.26,-134.03 3576.5,-140.81"/>
</g>
<!-- Node25 -->
<g id="node22" class="node">
<title>Node25</title>
<g id="a_node22"><a xlink:href="../../d5/d8e/vcubicbezier__p_8h.html" target="_top" xlink:title=" ">
<polygon fill="white" stroke="red" points="3441.5,-67.5 3441.5,-97.5 3548.5,-97.5 3548.5,-67.5 3441.5,-67.5"/>
<text text-anchor="start" x="3449.5" y="-85.5" font-family="Helvetica,sans-Serif" font-size="10.00">src/libs/vgeometry</text>
<text text-anchor="middle" x="3495" y="-74.5" font-family="Helvetica,sans-Serif" font-size="10.00">/vcubicbezier_p.h</text>
</a>
</g>
</g>
<!-- Node18&#45;&gt;Node25 -->
<g id="edge25" class="edge">
<title>Node18&#45;&gt;Node25</title>
<path fill="none" stroke="midnightblue" d="M3594.41,-135.19C3573.39,-124.26 3543.67,-108.81 3522.21,-97.65"/>
<polygon fill="midnightblue" stroke="midnightblue" points="3592.91,-138.36 3603.4,-139.87 3596.14,-132.15 3592.91,-138.36"/>
</g>
<!-- Node27 -->
<g id="node23" class="node">
<title>Node27</title>
<g id="a_node23"><a xlink:href="../../df/dde/vellipticalarc__p_8h.html" target="_top" xlink:title=" ">
<polygon fill="white" stroke="black" points="4695.5,-67.5 4695.5,-97.5 4802.5,-97.5 4802.5,-67.5 4695.5,-67.5"/>
<text text-anchor="start" x="4703.5" y="-85.5" font-family="Helvetica,sans-Serif" font-size="10.00">src/libs/vgeometry</text>
<text text-anchor="middle" x="4749" y="-74.5" font-family="Helvetica,sans-Serif" font-size="10.00">/vellipticalarc_p.h</text>
</a>
</g>
</g>
<!-- Node18&#45;&gt;Node27 -->
<g id="edge26" class="edge">
<title>Node18&#45;&gt;Node27</title>
<path fill="none" stroke="midnightblue" d="M3727.81,-145.9C3960.64,-139.87 4504.21,-123.48 4687,-98 4689.74,-97.62 4692.53,-97.17 4695.34,-96.68"/>
<polygon fill="midnightblue" stroke="midnightblue" points="3727.54,-142.4 3717.64,-146.16 3727.72,-149.4 3727.54,-142.4"/>
</g>
<!-- Node28 -->
<g id="node24" class="node">
<title>Node28</title>
<g id="a_node24"><a xlink:href="../../d6/dfb/vellipticalarc_8cpp.html" target="_top" xlink:title=" ">
<polygon fill="white" stroke="black" points="4171.5,-0.5 4171.5,-30.5 4278.5,-30.5 4278.5,-0.5 4171.5,-0.5"/>
<text text-anchor="start" x="4179.5" y="-18.5" font-family="Helvetica,sans-Serif" font-size="10.00">src/libs/vgeometry</text>
<text text-anchor="middle" x="4225" y="-7.5" font-family="Helvetica,sans-Serif" font-size="10.00">/vellipticalarc.cpp</text>
</a>
</g>
</g>
<!-- Node18&#45;&gt;Node28 -->
<g id="edge28" class="edge">
<title>Node18&#45;&gt;Node28</title>
<path fill="none" stroke="midnightblue" d="M3638.73,-133.48C3668.01,-110.01 3721.39,-67.25 3722,-67 3802.36,-34.24 4058.71,-21.96 4171.21,-18.07"/>
<polygon fill="midnightblue" stroke="midnightblue" points="3636.45,-130.83 3630.83,-139.81 3640.82,-136.29 3636.45,-130.83"/>
</g>
<!-- Node29 -->
<g id="node25" class="node">
<title>Node29</title>
<g id="a_node25"><a xlink:href="../../d1/d76/vspline__p_8h.html" target="_top" xlink:title=" ">
<polygon fill="white" stroke="red" points="3730.5,-67.5 3730.5,-97.5 3837.5,-97.5 3837.5,-67.5 3730.5,-67.5"/>
<text text-anchor="start" x="3738.5" y="-85.5" font-family="Helvetica,sans-Serif" font-size="10.00">src/libs/vgeometry</text>
<text text-anchor="middle" x="3784" y="-74.5" font-family="Helvetica,sans-Serif" font-size="10.00">/vspline_p.h</text>
</a>
</g>
</g>
<!-- Node18&#45;&gt;Node29 -->
<g id="edge29" class="edge">
<title>Node18&#45;&gt;Node29</title>
<path fill="none" stroke="midnightblue" d="M3651.39,-136.06C3679.17,-125.05 3719.68,-108.99 3748.61,-97.53"/>
<polygon fill="midnightblue" stroke="midnightblue" points="3649.78,-132.93 3641.78,-139.87 3652.36,-139.44 3649.78,-132.93"/>
</g>
<!-- Node31 -->
<g id="node26" class="node">
<title>Node31</title>
<g id="a_node26"><a xlink:href="../../d9/d15/vabstractpiece_8cpp.html" target="_top" xlink:title=" ">
<polygon fill="white" stroke="black" points="3856,-73 3856,-92 4042,-92 4042,-73 3856,-73"/>
<text text-anchor="middle" x="3949" y="-80" font-family="Helvetica,sans-Serif" font-size="10.00">src/libs/vlayout/vabstractpiece.cpp</text>
</a>
</g>
</g>
<!-- Node18&#45;&gt;Node31 -->
<g id="edge30" class="edge">
<title>Node18&#45;&gt;Node31</title>
<path fill="none" stroke="midnightblue" d="M3673.36,-137.96C3738.11,-125.16 3846.03,-103.84 3905.82,-92.03"/>
<polygon fill="midnightblue" stroke="midnightblue" points="3672.48,-134.56 3663.35,-139.94 3673.84,-141.43 3672.48,-134.56"/>
</g>
<!-- Node32 -->
<g id="node27" class="node">
<title>Node32</title>
<g id="a_node27"><a xlink:href="../../db/d65/dialogexporttocsv_8cpp.html" target="_top" xlink:title=" ">
<polygon fill="white" stroke="black" points="4060.5,-67.5 4060.5,-97.5 4187.5,-97.5 4187.5,-67.5 4060.5,-67.5"/>
<text text-anchor="start" x="4068.5" y="-85.5" font-family="Helvetica,sans-Serif" font-size="10.00">src/libs/vmisc/dialogs</text>
<text text-anchor="middle" x="4124" y="-74.5" font-family="Helvetica,sans-Serif" font-size="10.00">/dialogexporttocsv.cpp</text>
</a>
</g>
</g>
<!-- Node18&#45;&gt;Node32 -->
<g id="edge33" class="edge">
<title>Node18&#45;&gt;Node32</title>
<path fill="none" stroke="midnightblue" d="M3720.87,-138.97C3808.42,-130.15 3938.43,-115.75 4051,-98 4054.06,-97.52 4057.19,-97 4060.35,-96.45"/>
<polygon fill="midnightblue" stroke="midnightblue" points="3720.28,-135.51 3710.68,-139.99 3720.98,-142.48 3720.28,-135.51"/>
</g>
<!-- Node33 -->
<g id="node28" class="node">
<title>Node33</title>
<g id="a_node28"><a xlink:href="../../d6/d0b/def_8cpp.html" target="_top" xlink:title=" ">
<polygon fill="white" stroke="black" points="4206,-73 4206,-92 4328,-92 4328,-73 4206,-73"/>
<text text-anchor="middle" x="4267" y="-80" font-family="Helvetica,sans-Serif" font-size="10.00">src/libs/vmisc/def.cpp</text>
</a>
</g>
</g>
<!-- Node18&#45;&gt;Node33 -->
<g id="edge34" class="edge">
<title>Node18&#45;&gt;Node33</title>
<path fill="none" stroke="midnightblue" d="M3727.97,-142.83C3844.22,-135.85 4034.39,-121.87 4197,-98 4207.68,-96.43 4219.19,-94.25 4229.73,-92.06"/>
<polygon fill="midnightblue" stroke="midnightblue" points="3727.42,-139.36 3717.65,-143.45 3727.84,-146.35 3727.42,-139.36"/>
</g>
<!-- Node34 -->
<g id="node29" class="node">
<title>Node34</title>
<g id="a_node29"><a xlink:href="../../d0/df6/vabstractapplication_8cpp.html" target="_top" xlink:title=" ">
<polygon fill="white" stroke="black" points="4346,-73 4346,-92 4552,-92 4552,-73 4346,-73"/>
<text text-anchor="middle" x="4449" y="-80" font-family="Helvetica,sans-Serif" font-size="10.00">src/libs/vmisc/vabstractapplication.cpp</text>
</a>
</g>
</g>
<!-- Node18&#45;&gt;Node34 -->
<g id="edge35" class="edge">
<title>Node18&#45;&gt;Node34</title>
<path fill="none" stroke="midnightblue" d="M3727.9,-142.87C3868.36,-135.09 4121.37,-119.53 4337,-98 4353.68,-96.33 4371.71,-94.16 4388.33,-92.01"/>
<polygon fill="midnightblue" stroke="midnightblue" points="3727.36,-139.39 3717.57,-143.44 3727.75,-146.38 3727.36,-139.39"/>
</g>
<!-- Node35 -->
<g id="node30" class="node">
<title>Node35</title>
<g id="a_node30"><a xlink:href="../../d4/d4f/pmsystems_8cpp.html" target="_top" xlink:title=" ">
<polygon fill="white" stroke="black" points="4570.5,-67.5 4570.5,-97.5 4677.5,-97.5 4677.5,-67.5 4570.5,-67.5"/>
<text text-anchor="start" x="4578.5" y="-85.5" font-family="Helvetica,sans-Serif" font-size="10.00">src/libs/vpatterndb</text>
<text text-anchor="middle" x="4624" y="-74.5" font-family="Helvetica,sans-Serif" font-size="10.00">/pmsystems.cpp</text>
</a>
</g>
</g>
<!-- Node18&#45;&gt;Node35 -->
<g id="edge36" class="edge">
<title>Node18&#45;&gt;Node35</title>
<path fill="none" stroke="midnightblue" d="M3727.74,-148.74C3903.21,-147.79 4261.24,-140.22 4561,-98 4564,-97.58 4567.07,-97.08 4570.16,-96.54"/>
<polygon fill="midnightblue" stroke="midnightblue" points="3727.71,-145.24 3717.73,-148.79 3727.75,-152.24 3727.71,-145.24"/>
</g>
<!-- Node18&#45;&gt;Node36 -->
<g id="edge37" class="edge">
<title>Node18&#45;&gt;Node36</title>
<path fill="none" stroke="midnightblue" d="M3512.09,-148.52C3159.82,-148.13 2045.72,-143.25 1689,-98 1685.99,-97.62 1682.92,-97.16 1679.83,-96.63"/>
<polygon fill="midnightblue" stroke="midnightblue" points="3512.28,-152.02 3522.29,-148.53 3512.29,-145.02 3512.28,-152.02"/>
</g>
<!-- Node18&#45;&gt;Node37 -->
<g id="edge38" class="edge">
<title>Node18&#45;&gt;Node37</title>
<path fill="none" stroke="midnightblue" d="M3728,-145.76C3843.38,-142.84 4031.61,-138.07 4194,-134 4515.33,-125.94 5321.17,-138.81 5640,-98 5642.74,-97.65 5645.54,-97.23 5648.35,-96.76"/>
<polygon fill="midnightblue" stroke="midnightblue" points="3727.66,-142.27 3717.75,-146.02 3727.84,-149.27 3727.66,-142.27"/>
</g>
<!-- Node18&#45;&gt;Node38 -->
<g id="edge39" class="edge">
<title>Node18&#45;&gt;Node38</title>
<path fill="none" stroke="midnightblue" d="M3512.21,-148.29C3175.38,-147.18 2145.33,-140.34 1814,-98 1810.99,-97.62 1807.92,-97.15 1804.83,-96.63"/>
<polygon fill="midnightblue" stroke="midnightblue" points="3512.45,-151.79 3522.46,-148.32 3512.47,-144.79 3512.45,-151.79"/>
</g>
<!-- Node39 -->
<g id="node34" class="node">
<title>Node39</title>
<g id="a_node34"><a xlink:href="../../df/dba/vpiecenode__p_8h.html" target="_top" xlink:title=" ">
<polygon fill="white" stroke="black" points="3566.5,-67.5 3566.5,-97.5 3673.5,-97.5 3673.5,-67.5 3566.5,-67.5"/>
<text text-anchor="start" x="3574.5" y="-85.5" font-family="Helvetica,sans-Serif" font-size="10.00">src/libs/vpatterndb</text>
<text text-anchor="middle" x="3620" y="-74.5" font-family="Helvetica,sans-Serif" font-size="10.00">/vpiecenode_p.h</text>
</a>
</g>
</g>
<!-- Node18&#45;&gt;Node39 -->
<g id="edge40" class="edge">
<title>Node18&#45;&gt;Node39</title>
<path fill="none" stroke="midnightblue" d="M3620,-129.41C3620,-119.22 3620,-106.9 3620,-97.59"/>
<polygon fill="midnightblue" stroke="midnightblue" points="3616.5,-129.73 3620,-139.73 3623.5,-129.73 3616.5,-129.73"/>
</g>
<!-- Node41 -->
<g id="node36" class="node">
<title>Node41</title>
<g id="a_node36"><a xlink:href="../../de/d3e/vtranslatevars_8cpp.html" target="_top" xlink:title=" ">
<polygon fill="white" stroke="black" points="4821,-67.5 4821,-97.5 4931,-97.5 4931,-67.5 4821,-67.5"/>
<text text-anchor="start" x="4829" y="-85.5" font-family="Helvetica,sans-Serif" font-size="10.00">src/libs/vpatterndb</text>
<text text-anchor="middle" x="4876" y="-74.5" font-family="Helvetica,sans-Serif" font-size="10.00">/vtranslatevars.cpp</text>
</a>
</g>
</g>
<!-- Node18&#45;&gt;Node41 -->
<g id="edge42" class="edge">
<title>Node18&#45;&gt;Node41</title>
<path fill="none" stroke="midnightblue" d="M3727.85,-146.42C3980.38,-141.16 4604.31,-125.7 4812,-98 4814.94,-97.61 4817.94,-97.15 4820.96,-96.63"/>
<polygon fill="midnightblue" stroke="midnightblue" points="3727.49,-142.93 3717.57,-146.64 3727.64,-149.93 3727.49,-142.93"/>
</g>
<!-- Node42 -->
<g id="node37" class="node">
<title>Node42</title>
<g id="a_node37"><a xlink:href="../../df/d40/export__format__combobox_8cpp.html" target="_top" xlink:title=" ">
<polygon fill="white" stroke="black" points="4949.5,-67.5 4949.5,-97.5 5082.5,-97.5 5082.5,-67.5 4949.5,-67.5"/>
<text text-anchor="start" x="4957.5" y="-85.5" font-family="Helvetica,sans-Serif" font-size="10.00">src/libs/vwidgets/export</text>
<text text-anchor="middle" x="5016" y="-74.5" font-family="Helvetica,sans-Serif" font-size="10.00">_format_combobox.cpp</text>
</a>
</g>
</g>
<!-- Node18&#45;&gt;Node42 -->
<g id="edge43" class="edge">
<title>Node18&#45;&gt;Node42</title>
<path fill="none" stroke="midnightblue" d="M3727.87,-145.31C4021.54,-136.48 4821.32,-111.51 4940,-98 4943.07,-97.65 4946.2,-97.25 4949.36,-96.8"/>
<polygon fill="midnightblue" stroke="midnightblue" points="3727.53,-141.81 3717.64,-145.61 3727.74,-148.81 3727.53,-141.81"/>
</g>
<!-- Node43 -->
<g id="node38" class="node">
<title>Node43</title>
<g id="a_node38"><a xlink:href="../../d3/d4f/mouse__coordinates_8cpp.html" target="_top" xlink:title=" ">
<polygon fill="white" stroke="black" points="5101,-67.5 5101,-97.5 5235,-97.5 5235,-67.5 5101,-67.5"/>
<text text-anchor="start" x="5109" y="-85.5" font-family="Helvetica,sans-Serif" font-size="10.00">src/libs/vwidgets/mouse</text>
<text text-anchor="middle" x="5168" y="-74.5" font-family="Helvetica,sans-Serif" font-size="10.00">_coordinates.cpp</text>
</a>
</g>
</g>
<!-- Node18&#45;&gt;Node43 -->
<g id="edge44" class="edge">
<title>Node18&#45;&gt;Node43</title>
<path fill="none" stroke="midnightblue" d="M3727.66,-145.77C4044.17,-137.6 4957.9,-113 5092,-98 5094.94,-97.67 5097.93,-97.29 5100.95,-96.87"/>
<polygon fill="midnightblue" stroke="midnightblue" points="3727.47,-142.27 3717.56,-146.03 3727.65,-149.27 3727.47,-142.27"/>
</g>
<!-- Node44 -->
<g id="node39" class="node">
<title>Node44</title>
<g id="a_node39"><a xlink:href="../../d8/d76/scene__rect_8cpp.html" target="_top" xlink:title=" ">
<polygon fill="white" stroke="black" points="5253,-67.5 5253,-97.5 5383,-97.5 5383,-67.5 5253,-67.5"/>
<text text-anchor="start" x="5261" y="-85.5" font-family="Helvetica,sans-Serif" font-size="10.00">src/libs/vwidgets/scene</text>
<text text-anchor="middle" x="5318" y="-74.5" font-family="Helvetica,sans-Serif" font-size="10.00">_rect.cpp</text>
</a>
</g>
</g>
<!-- Node18&#45;&gt;Node44 -->
<g id="edge45" class="edge">
<title>Node18&#45;&gt;Node44</title>
<path fill="none" stroke="midnightblue" d="M3727.92,-145.63C4078.76,-136.22 5168.82,-106.48 5244,-98 5246.86,-97.68 5249.78,-97.3 5252.72,-96.89"/>
<polygon fill="midnightblue" stroke="midnightblue" points="3727.66,-142.13 3717.76,-145.9 3727.85,-149.13 3727.66,-142.13"/>
</g>
<!-- Node45 -->
<g id="node40" class="node">
<title>Node45</title>
<g id="a_node40"><a xlink:href="../../dd/df6/vabstractmainwindow_8cpp.html" target="_top" xlink:title=" ">
<polygon fill="white" stroke="black" points="5401.5,-73 5401.5,-92 5630.5,-92 5630.5,-73 5401.5,-73"/>
<text text-anchor="middle" x="5516" y="-80" font-family="Helvetica,sans-Serif" font-size="10.00">src/libs/vwidgets/vabstractmainwindow.cpp</text>
</a>
</g>
</g>
<!-- Node18&#45;&gt;Node45 -->
<g id="edge46" class="edge">
<title>Node18&#45;&gt;Node45</title>
<path fill="none" stroke="midnightblue" d="M3727.75,-145.69C4099.31,-135.97 5308.94,-104.03 5392,-98 5411.67,-96.57 5433.03,-94.33 5452.38,-92.03"/>
<polygon fill="midnightblue" stroke="midnightblue" points="3727.44,-142.2 3717.53,-145.96 3727.62,-149.2 3727.44,-142.2"/>
</g>
<!-- Node46 -->
<g id="node41" class="node">
<title>Node46</title>
<g id="a_node41"><a xlink:href="../../d7/d1b/pen__toolbar_8cpp.html" target="_top" xlink:title=" ">
<polygon fill="white" stroke="black" points="2023.5,-67.5 2023.5,-97.5 2142.5,-97.5 2142.5,-67.5 2023.5,-67.5"/>
<text text-anchor="start" x="2031.5" y="-85.5" font-family="Helvetica,sans-Serif" font-size="10.00">src/libs/vwidgets/pen</text>
<text text-anchor="middle" x="2083" y="-74.5" font-family="Helvetica,sans-Serif" font-size="10.00">_toolbar.cpp</text>
</a>
</g>
</g>
<!-- Node18&#45;&gt;Node46 -->
<g id="edge47" class="edge">
<title>Node18&#45;&gt;Node46</title>
<path fill="none" stroke="midnightblue" d="M3512.17,-147.21C3219.62,-143.32 2415.24,-129.94 2152,-98 2148.96,-97.63 2145.86,-97.2 2142.73,-96.71"/>
<polygon fill="midnightblue" stroke="midnightblue" points="3512.32,-150.71 3522.36,-147.34 3512.41,-143.71 3512.32,-150.71"/>
</g>
<!-- Node47 -->
<g id="node42" class="node">
<title>Node47</title>
<g id="a_node42"><a xlink:href="../../d1/d90/vgrainlineitem_8cpp.html" target="_top" xlink:title=" ">
<polygon fill="white" stroke="black" points="2160.5,-73 2160.5,-92 2353.5,-92 2353.5,-73 2160.5,-73"/>
<text text-anchor="middle" x="2257" y="-80" font-family="Helvetica,sans-Serif" font-size="10.00">src/libs/vwidgets/vgrainlineitem.cpp</text>
</a>
</g>
</g>
<!-- Node18&#45;&gt;Node47 -->
<g id="edge48" class="edge">
<title>Node18&#45;&gt;Node47</title>
<path fill="none" stroke="midnightblue" d="M3512.26,-147.64C3294.66,-145.15 2787.3,-135.46 2363,-98 2346.35,-96.53 2328.3,-94.3 2311.9,-92.03"/>
<polygon fill="midnightblue" stroke="midnightblue" points="3512.37,-151.15 3522.4,-147.76 3512.44,-144.15 3512.37,-151.15"/>
</g>
<!-- Node48 -->
<g id="node43" class="node">
<title>Node48</title>
<g id="a_node43"><a xlink:href="../../de/dec/vgraphicssimpletextitem_8cpp.html" target="_top" xlink:title=" ">
<polygon fill="white" stroke="black" points="2372,-73 2372,-92 2616,-92 2616,-73 2372,-73"/>
<text text-anchor="middle" x="2494" y="-80" font-family="Helvetica,sans-Serif" font-size="10.00">src/libs/vwidgets/vgraphicssimpletextitem.cpp</text>
</a>
</g>
</g>
<!-- Node18&#45;&gt;Node48 -->
<g id="edge49" class="edge">
<title>Node18&#45;&gt;Node48</title>
<path fill="none" stroke="midnightblue" d="M3512.03,-145.09C3329.36,-138.86 2947.81,-123.83 2626,-98 2606.01,-96.4 2584.36,-94.21 2564.49,-92.02"/>
<polygon fill="midnightblue" stroke="midnightblue" points="3512.06,-148.59 3522.17,-145.43 3512.3,-141.6 3512.06,-148.59"/>
</g>
<!-- Node49 -->
<g id="node44" class="node">
<title>Node49</title>
<g id="a_node44"><a xlink:href="../../de/d45/vcontrolpointspline_8cpp.html" target="_top" xlink:title=" ">
<polygon fill="white" stroke="black" points="2634.5,-73 2634.5,-92 2849.5,-92 2849.5,-73 2634.5,-73"/>
<text text-anchor="middle" x="2742" y="-80" font-family="Helvetica,sans-Serif" font-size="10.00">src/libs/vwidgets/vcontrolpointspline.cpp</text>
</a>
</g>
</g>
<!-- Node18&#45;&gt;Node49 -->
<g id="edge50" class="edge">
<title>Node18&#45;&gt;Node49</title>
<path fill="none" stroke="midnightblue" d="M3511.84,-143.27C3364.14,-135.68 3091.19,-120.07 2859,-98 2841.58,-96.34 2822.74,-94.18 2805.38,-92.02"/>
<polygon fill="midnightblue" stroke="midnightblue" points="3512.09,-146.79 3522.25,-143.8 3512.44,-139.79 3512.09,-146.79"/>
</g>
<!-- Node27&#45;&gt;Node28 -->
<g id="edge27" class="edge">
<title>Node27&#45;&gt;Node28</title>
<path fill="none" stroke="midnightblue" d="M4685.29,-66.83C4532.78,-41.27 4363.21,-26.62 4278.65,-20.25"/>
<polygon fill="midnightblue" stroke="midnightblue" points="4684.87,-70.3 4695.31,-68.53 4686.04,-63.4 4684.87,-70.3"/>
</g>
<!-- Node39&#45;&gt;Node40 -->
<g id="edge41" class="edge">
<title>Node39&#45;&gt;Node40</title>
<path fill="none" stroke="midnightblue" d="M3556.26,-66.96C3338.23,-38.6 2724.47,-22.18 2538.82,-17.73"/>
<polygon fill="midnightblue" stroke="midnightblue" points="3555.97,-70.45 3566.34,-68.32 3556.9,-63.51 3555.97,-70.45"/>
</g>
<!-- Node58&#45;&gt;Node3 -->
<g id="edge53" class="edge">
<title>Node58&#45;&gt;Node3</title>
<path fill="none" stroke="midnightblue" d="M4640.36,-148.39C4843.22,-147.33 5346.36,-140.27 5765,-98 5767.83,-97.71 5770.72,-97.4 5773.62,-97.05"/>
<polygon fill="midnightblue" stroke="midnightblue" points="4640.33,-144.89 4630.35,-148.44 4640.37,-151.89 4640.33,-144.89"/>
</g>
</g>
</svg>
