<?xml version="1.0" encoding="UTF-8" standalone="no"?>
<!DOCTYPE svg PUBLIC "-//W3C//DTD SVG 1.1//EN"
 "http://www.w3.org/Graphics/SVG/1.1/DTD/svg11.dtd">
<!-- Generated by graphviz version 2.43.0 (0)
 -->
<!-- Title: src/app/seamly2d/dialogs/vabstractlayoutdialog.h Pages: 1 -->
<!--zoomable 307 -->
<svg id="main" version="1.1" xmlns="http://www.w3.org/2000/svg" xmlns:xlink="http://www.w3.org/1999/xlink" xml:space="preserve" onload="init(evt)">
<style type="text/css"><![CDATA[
.edge:hover path { stroke: red; }
.edge:hover polygon { stroke: red; fill: red; }
]]></style>
<script type="text/javascript"><![CDATA[
var edges = document.getElementsByTagName('g');
if (edges && edges.length) {
  for (var i=0;i<edges.length;i++) {
    if (edges[i].id.substr(0,4)=='edge') {
      edges[i].setAttribute('class','edge');
    }
  }
}
]]></script>
        <defs>
                <circle id="rim" cx="0" cy="0" r="7"/>
                <circle id="rim2" cx="0" cy="0" r="3.5"/>
                <g id="zoomPlus">
                        <use xlink:href="#rim" fill="#404040">
                                <set attributeName="fill" to="#808080" begin="zoomplus.mouseover" end="zoomplus.mouseout"/>
                        </use>
                        <path d="M-4,0h8M0,-4v8" fill="none" stroke="white" stroke-width="1.5" pointer-events="none"/>
                </g>
                <g id="zoomMin">
                        <use xlink:href="#rim" fill="#404040">
                                <set attributeName="fill" to="#808080" begin="zoomminus.mouseover" end="zoomminus.mouseout"/>
                        </use>
                        <path d="M-4,0h8" fill="none" stroke="white" stroke-width="1.5" pointer-events="none"/>
                </g>
                <g id="dirArrow">
                        <path fill="none" stroke="white" stroke-width="1.5" d="M0,-3.0v7 M-2.5,-0.5L0,-3.0L2.5,-0.5"/>
                </g>
               <g id="resetDef">
                       <use xlink:href="#rim2" fill="#404040">
                               <set attributeName="fill" to="#808080" begin="reset.mouseover" end="reset.mouseout"/>
                       </use>
               </g>
        </defs>

<script type="text/javascript">
var viewWidth = 4175;
var viewHeight = 307;
var sectionId = 'dynsection-1';
</script>
<script xlink:href="../../svgpan.js"/>
<svg id="graph" class="graph">
<g id="viewport">
<title>src/app/seamly2d/dialogs/vabstractlayoutdialog.h</title>
<polygon fill="white" stroke="transparent" points="-4,4 -4,-303 4170.5,-303 4170.5,4 -4,4"/>
<!-- Node1 -->
<g id="node1" class="node">
<title>Node1</title>
<g id="a_node1"><a xlink:title=" ">
<polygon fill="#bfbfbf" stroke="black" points="2022,-268.5 2022,-298.5 2163,-298.5 2163,-268.5 2022,-268.5"/>
<text text-anchor="start" x="2030" y="-286.5" font-family="Helvetica,sans-Serif" font-size="10.00">src/app/seamly2d/dialogs</text>
<text text-anchor="middle" x="2092.5" y="-275.5" font-family="Helvetica,sans-Serif" font-size="10.00">/vabstractlayoutdialog.h</text>
</a>
</g>
</g>
<!-- Node2 -->
<g id="node2" class="node">
<title>Node2</title>
<g id="a_node2"><a xlink:href="../../d2/d2b/dialoglayoutsettings_8h.html" target="_top" xlink:title=" ">
<polygon fill="white" stroke="black" points="2022,-201.5 2022,-231.5 2163,-231.5 2163,-201.5 2022,-201.5"/>
<text text-anchor="start" x="2030" y="-219.5" font-family="Helvetica,sans-Serif" font-size="10.00">src/app/seamly2d/dialogs</text>
<text text-anchor="middle" x="2092.5" y="-208.5" font-family="Helvetica,sans-Serif" font-size="10.00">/dialoglayoutsettings.h</text>
</a>
</g>
</g>
<!-- Node1&#45;&gt;Node2 -->
<g id="edge1" class="edge">
<title>Node1&#45;&gt;Node2</title>
<path fill="none" stroke="midnightblue" d="M2092.5,-258.11C2092.5,-249.15 2092.5,-239.32 2092.5,-231.58"/>
<polygon fill="midnightblue" stroke="midnightblue" points="2089,-258.4 2092.5,-268.4 2096,-258.4 2089,-258.4"/>
</g>
<!-- Node23 -->
<g id="node23" class="node">
<title>Node23</title>
<g id="a_node23"><a xlink:href="../../d5/de4/vabstractlayoutdialog_8cpp.html" target="_top" xlink:title=" ">
<polygon fill="white" stroke="black" points="4020.5,-0.5 4020.5,-30.5 4166.5,-30.5 4166.5,-0.5 4020.5,-0.5"/>
<text text-anchor="start" x="4028.5" y="-18.5" font-family="Helvetica,sans-Serif" font-size="10.00">src/app/seamly2d/dialogs</text>
<text text-anchor="middle" x="4093.5" y="-7.5" font-family="Helvetica,sans-Serif" font-size="10.00">/vabstractlayoutdialog.cpp</text>
</a>
</g>
</g>
<!-- Node1&#45;&gt;Node23 -->
<g id="edge41" class="edge">
<title>Node1&#45;&gt;Node23</title>
<path fill="none" stroke="midnightblue" d="M2173.52,-273.2C2438.19,-242.52 3301.16,-140.3 4011.5,-31 4014.36,-30.56 4017.27,-30.1 4020.21,-29.63"/>
<polygon fill="midnightblue" stroke="midnightblue" points="2172.77,-269.76 2163.23,-274.39 2173.57,-276.71 2172.77,-269.76"/>
</g>
<!-- Node30 -->
<g id="node30" class="node">
<title>Node30</title>
<g id="a_node30"><a xlink:href="../../d1/d8e/export__layout__dialog_8h.html" target="_top" xlink:title=" ">
<polygon fill="white" stroke="black" points="293,-201.5 293,-231.5 434,-231.5 434,-201.5 293,-201.5"/>
<text text-anchor="start" x="301" y="-219.5" font-family="Helvetica,sans-Serif" font-size="10.00">src/app/seamly2d/dialogs</text>
<text text-anchor="middle" x="363.5" y="-208.5" font-family="Helvetica,sans-Serif" font-size="10.00">/export_layout_dialog.h</text>
</a>
</g>
</g>
<!-- Node1&#45;&gt;Node30 -->
<g id="edge35" class="edge">
<title>Node1&#45;&gt;Node30</title>
<path fill="none" stroke="midnightblue" d="M2011.63,-279.46C1717.95,-268.42 710.63,-230.55 434.18,-220.16"/>
<polygon fill="midnightblue" stroke="midnightblue" points="2011.64,-282.96 2021.77,-279.84 2011.91,-275.97 2011.64,-282.96"/>
</g>
<!-- Node3 -->
<g id="node3" class="node">
<title>Node3</title>
<g id="a_node3"><a xlink:href="../../dd/d57/vcmdexport_8h.html" target="_top" xlink:title=" ">
<polygon fill="white" stroke="black" points="1970,-134.5 1970,-164.5 2097,-164.5 2097,-134.5 1970,-134.5"/>
<text text-anchor="start" x="1978" y="-152.5" font-family="Helvetica,sans-Serif" font-size="10.00">src/app/seamly2d/core</text>
<text text-anchor="middle" x="2033.5" y="-141.5" font-family="Helvetica,sans-Serif" font-size="10.00">/vcmdexport.h</text>
</a>
</g>
</g>
<!-- Node2&#45;&gt;Node3 -->
<g id="edge2" class="edge">
<title>Node2&#45;&gt;Node3</title>
<path fill="none" stroke="midnightblue" d="M2072.75,-193.74C2064.02,-184.12 2054,-173.09 2046.28,-164.58"/>
<polygon fill="midnightblue" stroke="midnightblue" points="2070.39,-196.34 2079.7,-201.4 2075.57,-191.64 2070.39,-196.34"/>
</g>
<!-- Node15 -->
<g id="node15" class="node">
<title>Node15</title>
<g id="a_node15"><a xlink:href="../../db/def/dialoglayoutsettings_8cpp.html" target="_top" xlink:title=" ">
<polygon fill="white" stroke="black" points="3861,-0.5 3861,-30.5 4002,-30.5 4002,-0.5 3861,-0.5"/>
<text text-anchor="start" x="3869" y="-18.5" font-family="Helvetica,sans-Serif" font-size="10.00">src/app/seamly2d/dialogs</text>
<text text-anchor="middle" x="3931.5" y="-7.5" font-family="Helvetica,sans-Serif" font-size="10.00">/dialoglayoutsettings.cpp</text>
</a>
</g>
</g>
<!-- Node2&#45;&gt;Node15 -->
<g id="edge33" class="edge">
<title>Node2&#45;&gt;Node15</title>
<path fill="none" stroke="midnightblue" d="M2173.2,-209.2C2423.23,-189.21 3206.9,-123.09 3851.5,-31 3854.57,-30.56 3857.71,-30.09 3860.88,-29.6"/>
<polygon fill="midnightblue" stroke="midnightblue" points="2172.8,-205.72 2163.11,-210 2173.36,-212.7 2172.8,-205.72"/>
</g>
<!-- Node25 -->
<g id="node25" class="node">
<title>Node25</title>
<g id="a_node25"><a xlink:href="../../d8/de8/mainwindowsnogui_8cpp.html" target="_top" xlink:title=" ">
<polygon fill="white" stroke="black" points="0,-6 0,-25 221,-25 221,-6 0,-6"/>
<text text-anchor="middle" x="110.5" y="-13" font-family="Helvetica,sans-Serif" font-size="10.00">src/app/seamly2d/mainwindowsnogui.cpp</text>
</a>
</g>
</g>
<!-- Node2&#45;&gt;Node25 -->
<g id="edge34" class="edge">
<title>Node2&#45;&gt;Node25</title>
<path fill="none" stroke="midnightblue" d="M2011.71,-211.89C1785.31,-201.19 1125.65,-166.08 581.5,-98 421.75,-78.01 233.64,-41.51 151.89,-25.01"/>
<polygon fill="midnightblue" stroke="midnightblue" points="2011.69,-215.39 2021.84,-212.36 2012.02,-208.4 2011.69,-215.39"/>
</g>
<!-- Node28 -->
<g id="node28" class="node">
<title>Node28</title>
<g id="a_node28"><a xlink:href="../../df/d9b/vcmdexport_8cpp.html" target="_top" xlink:title=" ">
<polygon fill="white" stroke="black" points="2101,-67.5 2101,-97.5 2228,-97.5 2228,-67.5 2101,-67.5"/>
<text text-anchor="start" x="2109" y="-85.5" font-family="Helvetica,sans-Serif" font-size="10.00">src/app/seamly2d/core</text>
<text text-anchor="middle" x="2164.5" y="-74.5" font-family="Helvetica,sans-Serif" font-size="10.00">/vcmdexport.cpp</text>
</a>
</g>
</g>
<!-- Node2&#45;&gt;Node28 -->
<g id="edge32" class="edge">
<title>Node2&#45;&gt;Node28</title>
<path fill="none" stroke="midnightblue" d="M2105.06,-192.48C2120.01,-165.07 2144.49,-120.19 2156.85,-97.52"/>
<polygon fill="midnightblue" stroke="midnightblue" points="2101.92,-190.92 2100.21,-201.37 2108.07,-194.27 2101.92,-190.92"/>
</g>
<!-- Node4 -->
<g id="node4" class="node">
<title>Node4</title>
<g id="a_node4"><a xlink:href="../../d9/d02/vapplication_8h.html" target="_top" xlink:title=" ">
<polygon fill="white" stroke="black" points="1956,-67.5 1956,-97.5 2083,-97.5 2083,-67.5 1956,-67.5"/>
<text text-anchor="start" x="1964" y="-85.5" font-family="Helvetica,sans-Serif" font-size="10.00">src/app/seamly2d/core</text>
<text text-anchor="middle" x="2019.5" y="-74.5" font-family="Helvetica,sans-Serif" font-size="10.00">/vapplication.h</text>
</a>
</g>
</g>
<!-- Node3&#45;&gt;Node4 -->
<g id="edge3" class="edge">
<title>Node3&#45;&gt;Node4</title>
<path fill="none" stroke="midnightblue" d="M2028.31,-124.4C2026.36,-115.37 2024.22,-105.41 2022.53,-97.58"/>
<polygon fill="midnightblue" stroke="midnightblue" points="2024.94,-125.36 2030.46,-134.4 2031.78,-123.88 2024.94,-125.36"/>
</g>
<!-- Node3&#45;&gt;Node28 -->
<g id="edge27" class="edge">
<title>Node3&#45;&gt;Node28</title>
<path fill="none" stroke="midnightblue" d="M2071.08,-129.85C2091.79,-119.58 2117.09,-107.03 2136.13,-97.58"/>
<polygon fill="midnightblue" stroke="midnightblue" points="2069.33,-126.82 2061.93,-134.4 2072.44,-133.09 2069.33,-126.82"/>
</g>
<!-- Node29 -->
<g id="node29" class="node">
<title>Node29</title>
<g id="a_node29"><a xlink:href="../../d9/d53/mainwindow_8h.html" target="_top" xlink:title=" ">
<polygon fill="white" stroke="black" points="590.5,-73 590.5,-92 766.5,-92 766.5,-73 590.5,-73"/>
<text text-anchor="middle" x="678.5" y="-80" font-family="Helvetica,sans-Serif" font-size="10.00">src/app/seamly2d/mainwindow.h</text>
</a>
</g>
</g>
<!-- Node3&#45;&gt;Node29 -->
<g id="edge28" class="edge">
<title>Node3&#45;&gt;Node29</title>
<path fill="none" stroke="midnightblue" d="M1959.63,-144.96C1728.12,-133.85 1017.23,-99.75 766.87,-87.74"/>
<polygon fill="midnightblue" stroke="midnightblue" points="1959.81,-148.47 1969.96,-145.45 1960.14,-141.48 1959.81,-148.47"/>
</g>
<!-- Node5 -->
<g id="node5" class="node">
<title>Node5</title>
<g id="a_node5"><a xlink:href="../../d3/dd8/vapplication_8cpp.html" target="_top" xlink:title=" ">
<polygon fill="white" stroke="black" points="776,-0.5 776,-30.5 903,-30.5 903,-0.5 776,-0.5"/>
<text text-anchor="start" x="784" y="-18.5" font-family="Helvetica,sans-Serif" font-size="10.00">src/app/seamly2d/core</text>
<text text-anchor="middle" x="839.5" y="-7.5" font-family="Helvetica,sans-Serif" font-size="10.00">/vapplication.cpp</text>
</a>
</g>
</g>
<!-- Node4&#45;&gt;Node5 -->
<g id="edge4" class="edge">
<title>Node4&#45;&gt;Node5</title>
<path fill="none" stroke="midnightblue" d="M1945.77,-82.03C1767.43,-82.46 1298.89,-78.55 911.5,-31 908.72,-30.66 905.88,-30.27 903.02,-29.84"/>
<polygon fill="midnightblue" stroke="midnightblue" points="1945.83,-85.53 1955.82,-82 1945.81,-78.53 1945.83,-85.53"/>
</g>
<!-- Node6 -->
<g id="node6" class="node">
<title>Node6</title>
<g id="a_node6"><a xlink:href="../../d7/dfa/calculator__dialog_8cpp.html" target="_top" xlink:title=" ">
<polygon fill="white" stroke="black" points="2818,-0.5 2818,-30.5 2959,-30.5 2959,-0.5 2818,-0.5"/>
<text text-anchor="start" x="2826" y="-18.5" font-family="Helvetica,sans-Serif" font-size="10.00">src/app/seamly2d/dialogs</text>
<text text-anchor="middle" x="2888.5" y="-7.5" font-family="Helvetica,sans-Serif" font-size="10.00">/calculator_dialog.cpp</text>
</a>
</g>
</g>
<!-- Node4&#45;&gt;Node6 -->
<g id="edge5" class="edge">
<title>Node4&#45;&gt;Node6</title>
<path fill="none" stroke="midnightblue" d="M2093.07,-67.08C2410.89,-28.63 2495.82,-67.5 2809.5,-31 2812.27,-30.68 2815.09,-30.32 2817.93,-29.93"/>
<polygon fill="midnightblue" stroke="midnightblue" points="2092.61,-63.61 2083.11,-68.3 2093.46,-70.55 2092.61,-63.61"/>
</g>
<!-- Node7 -->
<g id="node7" class="node">
<title>Node7</title>
<g id="a_node7"><a xlink:href="../../d2/d2d/preferencesconfigurationpage_8cpp.html" target="_top" xlink:title=" ">
<polygon fill="white" stroke="black" points="2977,-0.5 2977,-30.5 3224,-30.5 3224,-0.5 2977,-0.5"/>
<text text-anchor="start" x="2985" y="-18.5" font-family="Helvetica,sans-Serif" font-size="10.00">src/app/seamly2d/dialogs</text>
<text text-anchor="middle" x="3100.5" y="-7.5" font-family="Helvetica,sans-Serif" font-size="10.00">/configpages/preferencesconfigurationpage.cpp</text>
</a>
</g>
</g>
<!-- Node4&#45;&gt;Node7 -->
<g id="edge6" class="edge">
<title>Node4&#45;&gt;Node7</title>
<path fill="none" stroke="midnightblue" d="M2093.2,-67.07C2481.16,-21.57 2583.26,-60.04 2968.5,-31 2971.26,-30.79 2974.05,-30.57 2976.86,-30.34"/>
<polygon fill="midnightblue" stroke="midnightblue" points="2092.63,-63.61 2083.11,-68.26 2093.45,-70.56 2092.63,-63.61"/>
</g>
<!-- Node8 -->
<g id="node8" class="node">
<title>Node8</title>
<g id="a_node8"><a xlink:href="../../dc/d20/preferencespathpage_8cpp.html" target="_top" xlink:title=" ">
<polygon fill="white" stroke="black" points="3242,-0.5 3242,-30.5 3447,-30.5 3447,-0.5 3242,-0.5"/>
<text text-anchor="start" x="3250" y="-18.5" font-family="Helvetica,sans-Serif" font-size="10.00">src/app/seamly2d/dialogs</text>
<text text-anchor="middle" x="3344.5" y="-7.5" font-family="Helvetica,sans-Serif" font-size="10.00">/configpages/preferencespathpage.cpp</text>
</a>
</g>
</g>
<!-- Node4&#45;&gt;Node8 -->
<g id="edge7" class="edge">
<title>Node4&#45;&gt;Node8</title>
<path fill="none" stroke="midnightblue" d="M2093.21,-67.08C2598.33,-10.2 2731.12,-71.64 3233.5,-31 3236.21,-30.78 3238.96,-30.54 3241.73,-30.29"/>
<polygon fill="midnightblue" stroke="midnightblue" points="2092.65,-63.62 2083.1,-68.23 2093.44,-70.57 2092.65,-63.62"/>
</g>
<!-- Node9 -->
<g id="node9" class="node">
<title>Node9</title>
<g id="a_node9"><a xlink:href="../../dd/dc2/decimalchart__dialog_8cpp.html" target="_top" xlink:title=" ">
<polygon fill="white" stroke="black" points="3465,-0.5 3465,-30.5 3606,-30.5 3606,-0.5 3465,-0.5"/>
<text text-anchor="start" x="3473" y="-18.5" font-family="Helvetica,sans-Serif" font-size="10.00">src/app/seamly2d/dialogs</text>
<text text-anchor="middle" x="3535.5" y="-7.5" font-family="Helvetica,sans-Serif" font-size="10.00">/decimalchart_dialog.cpp</text>
</a>
</g>
</g>
<!-- Node4&#45;&gt;Node9 -->
<g id="edge8" class="edge">
<title>Node4&#45;&gt;Node9</title>
<path fill="none" stroke="midnightblue" d="M2093.37,-67.07C2696.98,-0.74 2856.73,-93.58 3456.5,-31 3459.27,-30.71 3462.1,-30.38 3464.94,-30.01"/>
<polygon fill="midnightblue" stroke="midnightblue" points="2092.66,-63.63 2083.1,-68.21 2093.43,-70.58 2092.66,-63.63"/>
</g>
<!-- Node10 -->
<g id="node10" class="node">
<title>Node10</title>
<g id="a_node10"><a xlink:href="../../dc/d63/preferencespatternpage_8cpp.html" target="_top" xlink:title=" ">
<polygon fill="white" stroke="black" points="3624.5,-0.5 3624.5,-30.5 3842.5,-30.5 3842.5,-0.5 3624.5,-0.5"/>
<text text-anchor="start" x="3632.5" y="-18.5" font-family="Helvetica,sans-Serif" font-size="10.00">src/app/seamly2d/dialogs</text>
<text text-anchor="middle" x="3733.5" y="-7.5" font-family="Helvetica,sans-Serif" font-size="10.00">/configpages/preferencespatternpage.cpp</text>
</a>
</g>
</g>
<!-- Node4&#45;&gt;Node10 -->
<g id="edge9" class="edge">
<title>Node4&#45;&gt;Node10</title>
<path fill="none" stroke="midnightblue" d="M2093.06,-67.1C2767.21,6.38 2943.52,-80.11 3615.5,-31 3618.38,-30.79 3621.3,-30.56 3624.25,-30.31"/>
<polygon fill="midnightblue" stroke="midnightblue" points="2092.66,-63.63 2083.1,-68.2 2093.42,-70.58 2092.66,-63.63"/>
</g>
<!-- Node11 -->
<g id="node11" class="node">
<title>Node11</title>
<g id="a_node11"><a xlink:href="../../dd/d64/dialogaboutapp_8cpp.html" target="_top" xlink:title=" ">
<polygon fill="white" stroke="black" points="921,-0.5 921,-30.5 1062,-30.5 1062,-0.5 921,-0.5"/>
<text text-anchor="start" x="929" y="-18.5" font-family="Helvetica,sans-Serif" font-size="10.00">src/app/seamly2d/dialogs</text>
<text text-anchor="middle" x="991.5" y="-7.5" font-family="Helvetica,sans-Serif" font-size="10.00">/dialogaboutapp.cpp</text>
</a>
</g>
</g>
<!-- Node4&#45;&gt;Node11 -->
<g id="edge10" class="edge">
<title>Node4&#45;&gt;Node11</title>
<path fill="none" stroke="midnightblue" d="M1945.55,-80.73C1785.58,-78.37 1395.68,-68.86 1071.5,-31 1068.42,-30.64 1065.27,-30.23 1062.1,-29.79"/>
<polygon fill="midnightblue" stroke="midnightblue" points="1945.7,-84.23 1955.75,-80.87 1945.8,-77.23 1945.7,-84.23"/>
</g>
<!-- Node12 -->
<g id="node12" class="node">
<title>Node12</title>
<g id="a_node12"><a xlink:href="../../d9/d70/preferencesgraphicsviewpage_8cpp.html" target="_top" xlink:title=" ">
<polygon fill="white" stroke="black" points="1080.5,-0.5 1080.5,-30.5 1328.5,-30.5 1328.5,-0.5 1080.5,-0.5"/>
<text text-anchor="start" x="1088.5" y="-18.5" font-family="Helvetica,sans-Serif" font-size="10.00">src/app/seamly2d/dialogs</text>
<text text-anchor="middle" x="1204.5" y="-7.5" font-family="Helvetica,sans-Serif" font-size="10.00">/configpages/preferencesgraphicsviewpage.cpp</text>
</a>
</g>
</g>
<!-- Node4&#45;&gt;Node12 -->
<g id="edge11" class="edge">
<title>Node4&#45;&gt;Node12</title>
<path fill="none" stroke="midnightblue" d="M1945.74,-76.88C1820.57,-68.85 1558.59,-51.23 1337.5,-31 1334.61,-30.74 1331.68,-30.46 1328.73,-30.18"/>
<polygon fill="midnightblue" stroke="midnightblue" points="1945.77,-80.39 1955.97,-77.53 1946.22,-73.4 1945.77,-80.39"/>
</g>
<!-- Node13 -->
<g id="node13" class="node">
<title>Node13</title>
<g id="a_node13"><a xlink:href="../../d6/d89/dialoglayoutprogress_8cpp.html" target="_top" xlink:title=" ">
<polygon fill="white" stroke="black" points="1347,-0.5 1347,-30.5 1490,-30.5 1490,-0.5 1347,-0.5"/>
<text text-anchor="start" x="1355" y="-18.5" font-family="Helvetica,sans-Serif" font-size="10.00">src/app/seamly2d/dialogs</text>
<text text-anchor="middle" x="1418.5" y="-7.5" font-family="Helvetica,sans-Serif" font-size="10.00">/dialoglayoutprogress.cpp</text>
</a>
</g>
</g>
<!-- Node4&#45;&gt;Node13 -->
<g id="edge12" class="edge">
<title>Node4&#45;&gt;Node13</title>
<path fill="none" stroke="midnightblue" d="M1945.57,-76.2C1844.54,-68.53 1657.82,-52.82 1499.5,-31 1496.39,-30.57 1493.21,-30.11 1490,-29.62"/>
<polygon fill="midnightblue" stroke="midnightblue" points="1945.43,-79.7 1955.67,-76.96 1945.96,-72.72 1945.43,-79.7"/>
</g>
<!-- Node14 -->
<g id="node14" class="node">
<title>Node14</title>
<g id="a_node14"><a xlink:href="../../d2/d00/vtooloptionspropertybrowser_8cpp.html" target="_top" xlink:title=" ">
<polygon fill="white" stroke="black" points="1508.5,-0.5 1508.5,-30.5 1688.5,-30.5 1688.5,-0.5 1508.5,-0.5"/>
<text text-anchor="start" x="1516.5" y="-18.5" font-family="Helvetica,sans-Serif" font-size="10.00">src/app/seamly2d/core</text>
<text text-anchor="middle" x="1598.5" y="-7.5" font-family="Helvetica,sans-Serif" font-size="10.00">/vtooloptionspropertybrowser.cpp</text>
</a>
</g>
</g>
<!-- Node4&#45;&gt;Node14 -->
<g id="edge13" class="edge">
<title>Node4&#45;&gt;Node14</title>
<path fill="none" stroke="midnightblue" d="M1945.28,-70.04C1873.75,-59 1765.38,-42.27 1688.86,-30.45"/>
<polygon fill="midnightblue" stroke="midnightblue" points="1945.14,-73.56 1955.56,-71.63 1946.21,-66.64 1945.14,-73.56"/>
</g>
<!-- Node4&#45;&gt;Node15 -->
<g id="edge14" class="edge">
<title>Node4&#45;&gt;Node15</title>
<path fill="none" stroke="midnightblue" d="M2093.15,-67.1C2871.61,16.42 3076.78,-108.64 3851.5,-31 3854.59,-30.69 3857.74,-30.33 3860.92,-29.92"/>
<polygon fill="midnightblue" stroke="midnightblue" points="2092.67,-63.63 2083.1,-68.18 2093.42,-70.59 2092.67,-63.63"/>
</g>
<!-- Node16 -->
<g id="node16" class="node">
<title>Node16</title>
<g id="a_node16"><a xlink:href="../../de/d87/dialognewpattern_8cpp.html" target="_top" xlink:title=" ">
<polygon fill="white" stroke="black" points="1707,-0.5 1707,-30.5 1848,-30.5 1848,-0.5 1707,-0.5"/>
<text text-anchor="start" x="1715" y="-18.5" font-family="Helvetica,sans-Serif" font-size="10.00">src/app/seamly2d/dialogs</text>
<text text-anchor="middle" x="1777.5" y="-7.5" font-family="Helvetica,sans-Serif" font-size="10.00">/dialognewpattern.cpp</text>
</a>
</g>
</g>
<!-- Node4&#45;&gt;Node16 -->
<g id="edge15" class="edge">
<title>Node4&#45;&gt;Node16</title>
<path fill="none" stroke="midnightblue" d="M1957.51,-64.85C1918.05,-54.25 1867.51,-40.68 1830.04,-30.61"/>
<polygon fill="midnightblue" stroke="midnightblue" points="1956.72,-68.26 1967.29,-67.48 1958.54,-61.5 1956.72,-68.26"/>
</g>
<!-- Node17 -->
<g id="node17" class="node">
<title>Node17</title>
<g id="a_node17"><a xlink:href="../../d5/dc5/dialogpreferences_8cpp.html" target="_top" xlink:title=" ">
<polygon fill="white" stroke="black" points="1866,-0.5 1866,-30.5 2007,-30.5 2007,-0.5 1866,-0.5"/>
<text text-anchor="start" x="1874" y="-18.5" font-family="Helvetica,sans-Serif" font-size="10.00">src/app/seamly2d/dialogs</text>
<text text-anchor="middle" x="1936.5" y="-7.5" font-family="Helvetica,sans-Serif" font-size="10.00">/dialogpreferences.cpp</text>
</a>
</g>
</g>
<!-- Node4&#45;&gt;Node17 -->
<g id="edge16" class="edge">
<title>Node4&#45;&gt;Node17</title>
<path fill="none" stroke="midnightblue" d="M1993.54,-61.17C1980.85,-51.23 1965.89,-39.51 1954.47,-30.58"/>
<polygon fill="midnightblue" stroke="midnightblue" points="1991.46,-63.99 2001.49,-67.4 1995.78,-58.47 1991.46,-63.99"/>
</g>
<!-- Node18 -->
<g id="node18" class="node">
<title>Node18</title>
<g id="a_node18"><a xlink:href="../../d5/d18/dialogpatternproperties_8cpp.html" target="_top" xlink:title=" ">
<polygon fill="white" stroke="black" points="2025,-0.5 2025,-30.5 2180,-30.5 2180,-0.5 2025,-0.5"/>
<text text-anchor="start" x="2033" y="-18.5" font-family="Helvetica,sans-Serif" font-size="10.00">src/app/seamly2d/dialogs</text>
<text text-anchor="middle" x="2102.5" y="-7.5" font-family="Helvetica,sans-Serif" font-size="10.00">/dialogpatternproperties.cpp</text>
</a>
</g>
</g>
<!-- Node4&#45;&gt;Node18 -->
<g id="edge17" class="edge">
<title>Node4&#45;&gt;Node18</title>
<path fill="none" stroke="midnightblue" d="M2045.46,-61.17C2058.15,-51.23 2073.11,-39.51 2084.53,-30.58"/>
<polygon fill="midnightblue" stroke="midnightblue" points="2043.22,-58.47 2037.51,-67.4 2047.54,-63.99 2043.22,-58.47"/>
</g>
<!-- Node19 -->
<g id="node19" class="node">
<title>Node19</title>
<g id="a_node19"><a xlink:href="../../dd/d54/export__layout__dialog_8cpp.html" target="_top" xlink:title=" ">
<polygon fill="white" stroke="black" points="239,-0.5 239,-30.5 382,-30.5 382,-0.5 239,-0.5"/>
<text text-anchor="start" x="247" y="-18.5" font-family="Helvetica,sans-Serif" font-size="10.00">src/app/seamly2d/dialogs</text>
<text text-anchor="middle" x="310.5" y="-7.5" font-family="Helvetica,sans-Serif" font-size="10.00">/export_layout_dialog.cpp</text>
</a>
</g>
</g>
<!-- Node4&#45;&gt;Node19 -->
<g id="edge18" class="edge">
<title>Node4&#45;&gt;Node19</title>
<path fill="none" stroke="midnightblue" d="M1945.38,-80.66C1668.94,-77.32 698.18,-63.47 390.5,-31 387.83,-30.72 385.12,-30.4 382.39,-30.05"/>
<polygon fill="midnightblue" stroke="midnightblue" points="1945.66,-84.17 1955.7,-80.79 1945.74,-77.17 1945.66,-84.17"/>
</g>
<!-- Node20 -->
<g id="node20" class="node">
<title>Node20</title>
<g id="a_node20"><a xlink:href="../../db/d5c/groups__widget_8cpp.html" target="_top" xlink:title=" ">
<polygon fill="white" stroke="black" points="2198,-0.5 2198,-30.5 2339,-30.5 2339,-0.5 2198,-0.5"/>
<text text-anchor="start" x="2206" y="-18.5" font-family="Helvetica,sans-Serif" font-size="10.00">src/app/seamly2d/dialogs</text>
<text text-anchor="middle" x="2268.5" y="-7.5" font-family="Helvetica,sans-Serif" font-size="10.00">/groups_widget.cpp</text>
</a>
</g>
</g>
<!-- Node4&#45;&gt;Node20 -->
<g id="edge19" class="edge">
<title>Node4&#45;&gt;Node20</title>
<path fill="none" stroke="midnightblue" d="M2083.03,-64.92C2123.66,-54.31 2175.8,-40.7 2214.44,-30.61"/>
<polygon fill="midnightblue" stroke="midnightblue" points="2082.01,-61.56 2073.22,-67.48 2083.78,-68.34 2082.01,-61.56"/>
</g>
<!-- Node21 -->
<g id="node21" class="node">
<title>Node21</title>
<g id="a_node21"><a xlink:href="../../dd/d84/shortcuts__dialog_8cpp.html" target="_top" xlink:title=" ">
<polygon fill="white" stroke="black" points="2357,-0.5 2357,-30.5 2498,-30.5 2498,-0.5 2357,-0.5"/>
<text text-anchor="start" x="2365" y="-18.5" font-family="Helvetica,sans-Serif" font-size="10.00">src/app/seamly2d/dialogs</text>
<text text-anchor="middle" x="2427.5" y="-7.5" font-family="Helvetica,sans-Serif" font-size="10.00">/shortcuts_dialog.cpp</text>
</a>
</g>
</g>
<!-- Node4&#45;&gt;Node21 -->
<g id="edge20" class="edge">
<title>Node4&#45;&gt;Node21</title>
<path fill="none" stroke="midnightblue" d="M2093.36,-66.92C2207.51,-47.87 2238.29,-48.85 2348.5,-31 2351.25,-30.55 2354.06,-30.09 2356.89,-29.61"/>
<polygon fill="midnightblue" stroke="midnightblue" points="2092.44,-63.52 2083.16,-68.64 2093.6,-70.43 2092.44,-63.52"/>
</g>
<!-- Node22 -->
<g id="node22" class="node">
<title>Node22</title>
<g id="a_node22"><a xlink:href="../../d2/df4/show__info__dialog_8cpp.html" target="_top" xlink:title=" ">
<polygon fill="white" stroke="black" points="2516,-0.5 2516,-30.5 2657,-30.5 2657,-0.5 2516,-0.5"/>
<text text-anchor="start" x="2524" y="-18.5" font-family="Helvetica,sans-Serif" font-size="10.00">src/app/seamly2d/dialogs</text>
<text text-anchor="middle" x="2586.5" y="-7.5" font-family="Helvetica,sans-Serif" font-size="10.00">/show_info_dialog.cpp</text>
</a>
</g>
</g>
<!-- Node4&#45;&gt;Node22 -->
<g id="edge21" class="edge">
<title>Node4&#45;&gt;Node22</title>
<path fill="none" stroke="midnightblue" d="M2093.16,-67.02C2277.53,-41.43 2327.25,-55.3 2507.5,-31 2510.26,-30.63 2513.08,-30.22 2515.92,-29.8"/>
<polygon fill="midnightblue" stroke="midnightblue" points="2092.55,-63.57 2083.13,-68.43 2093.52,-70.51 2092.55,-63.57"/>
</g>
<!-- Node4&#45;&gt;Node23 -->
<g id="edge22" class="edge">
<title>Node4&#45;&gt;Node23</title>
<path fill="none" stroke="midnightblue" d="M2093.12,-67.1C2942.36,23.38 3165.78,-113.2 4011.5,-31 4014.38,-30.72 4017.31,-30.4 4020.26,-30.04"/>
<polygon fill="midnightblue" stroke="midnightblue" points="2092.67,-63.63 2083.1,-68.18 2093.42,-70.59 2092.67,-63.63"/>
</g>
<!-- Node24 -->
<g id="node24" class="node">
<title>Node24</title>
<g id="a_node24"><a xlink:href="../../dc/d14/app_2seamly2d_2main_8cpp.html" target="_top" xlink:title=" ">
<polygon fill="white" stroke="black" points="400,-6 400,-25 551,-25 551,-6 400,-6"/>
<text text-anchor="middle" x="475.5" y="-13" font-family="Helvetica,sans-Serif" font-size="10.00">src/app/seamly2d/main.cpp</text>
</a>
</g>
</g>
<!-- Node4&#45;&gt;Node24 -->
<g id="edge23" class="edge">
<title>Node4&#45;&gt;Node24</title>
<path fill="none" stroke="midnightblue" d="M1945.5,-80.26C1688.22,-75.72 833.44,-58.88 560.5,-31 546.8,-29.6 531.97,-27.33 518.59,-25.01"/>
<polygon fill="midnightblue" stroke="midnightblue" points="1945.8,-83.76 1955.86,-80.44 1945.92,-76.76 1945.8,-83.76"/>
</g>
<!-- Node4&#45;&gt;Node25 -->
<g id="edge24" class="edge">
<title>Node4&#45;&gt;Node25</title>
<path fill="none" stroke="midnightblue" d="M1945.78,-81.87C1701.19,-82.59 894.25,-80.77 229.5,-31 210.51,-29.58 189.89,-27.32 171.24,-25.01"/>
<polygon fill="midnightblue" stroke="midnightblue" points="1945.99,-85.37 1955.97,-81.84 1945.96,-78.37 1945.99,-85.37"/>
</g>
<!-- Node26 -->
<g id="node26" class="node">
<title>Node26</title>
<g id="a_node26"><a xlink:href="../../d3/d49/vpattern_8cpp.html" target="_top" xlink:title=" ">
<polygon fill="white" stroke="black" points="2675,-0.5 2675,-30.5 2800,-30.5 2800,-0.5 2675,-0.5"/>
<text text-anchor="start" x="2683" y="-18.5" font-family="Helvetica,sans-Serif" font-size="10.00">src/app/seamly2d/xml</text>
<text text-anchor="middle" x="2737.5" y="-7.5" font-family="Helvetica,sans-Serif" font-size="10.00">/vpattern.cpp</text>
</a>
</g>
</g>
<!-- Node4&#45;&gt;Node26 -->
<g id="edge25" class="edge">
<title>Node4&#45;&gt;Node26</title>
<path fill="none" stroke="midnightblue" d="M2093.41,-67.02C2347.78,-34.82 2416.45,-64.21 2666.5,-31 2669.24,-30.64 2672.04,-30.23 2674.86,-29.78"/>
<polygon fill="midnightblue" stroke="midnightblue" points="2092.59,-63.6 2083.12,-68.34 2093.48,-70.54 2092.59,-63.6"/>
</g>
<!-- Node27 -->
<g id="node27" class="node">
<title>Node27</title>
<g id="a_node27"><a xlink:href="../../d8/dd9/mainwindow_8cpp.html" target="_top" xlink:title=" ">
<polygon fill="white" stroke="black" points="569.5,-6 569.5,-25 757.5,-25 757.5,-6 569.5,-6"/>
<text text-anchor="middle" x="663.5" y="-13" font-family="Helvetica,sans-Serif" font-size="10.00">src/app/seamly2d/mainwindow.cpp</text>
</a>
</g>
</g>
<!-- Node4&#45;&gt;Node27 -->
<g id="edge26" class="edge">
<title>Node4&#45;&gt;Node27</title>
<path fill="none" stroke="midnightblue" d="M1945.73,-81.09C1752.01,-79.45 1213.04,-71.33 766.5,-31 750.22,-29.53 732.58,-27.29 716.58,-25"/>
<polygon fill="midnightblue" stroke="midnightblue" points="1945.76,-84.59 1955.79,-81.17 1945.82,-77.59 1945.76,-84.59"/>
</g>
<!-- Node29&#45;&gt;Node5 -->
<g id="edge29" class="edge">
<title>Node29&#45;&gt;Node5</title>
<path fill="none" stroke="midnightblue" d="M709.32,-69.06C736.59,-58.05 776.36,-41.99 804.75,-30.53"/>
<polygon fill="midnightblue" stroke="midnightblue" points="707.84,-65.88 699.88,-72.87 710.46,-72.37 707.84,-65.88"/>
</g>
<!-- Node29&#45;&gt;Node24 -->
<g id="edge30" class="edge">
<title>Node29&#45;&gt;Node24</title>
<path fill="none" stroke="midnightblue" d="M641.85,-69.77C601.63,-56.89 538.03,-36.52 502.25,-25.06"/>
<polygon fill="midnightblue" stroke="midnightblue" points="640.95,-73.15 651.54,-72.87 643.09,-66.49 640.95,-73.15"/>
</g>
<!-- Node29&#45;&gt;Node27 -->
<g id="edge31" class="edge">
<title>Node29&#45;&gt;Node27</title>
<path fill="none" stroke="midnightblue" d="M674.21,-62.91C671.34,-50.49 667.7,-34.72 665.49,-25.13"/>
<polygon fill="midnightblue" stroke="midnightblue" points="670.82,-63.78 676.48,-72.73 677.64,-62.2 670.82,-63.78"/>
</g>
<!-- Node30&#45;&gt;Node19 -->
<g id="edge36" class="edge">
<title>Node30&#45;&gt;Node19</title>
<path fill="none" stroke="midnightblue" d="M336.84,-194.41C328.44,-186.21 320.15,-176.1 315.5,-165 296.26,-119.08 303.19,-58 307.76,-30.71"/>
<polygon fill="midnightblue" stroke="midnightblue" points="334.73,-197.23 344.48,-201.38 339.45,-192.05 334.73,-197.23"/>
</g>
<!-- Node30&#45;&gt;Node25 -->
<g id="edge40" class="edge">
<title>Node30&#45;&gt;Node25</title>
<path fill="none" stroke="midnightblue" d="M337.16,-194.78C282.55,-151.83 158.98,-54.64 121.49,-25.14"/>
<polygon fill="midnightblue" stroke="midnightblue" points="335.28,-197.76 345.3,-201.19 339.61,-192.26 335.28,-197.76"/>
</g>
<!-- Node31 -->
<g id="node31" class="node">
<title>Node31</title>
<g id="a_node31"><a xlink:href="../../d1/d82/mainwindowsnogui_8h.html" target="_top" xlink:title=" ">
<polygon fill="white" stroke="black" points="325,-140 325,-159 534,-159 534,-140 325,-140"/>
<text text-anchor="middle" x="429.5" y="-147" font-family="Helvetica,sans-Serif" font-size="10.00">src/app/seamly2d/mainwindowsnogui.h</text>
</a>
</g>
</g>
<!-- Node30&#45;&gt;Node31 -->
<g id="edge37" class="edge">
<title>Node30&#45;&gt;Node31</title>
<path fill="none" stroke="midnightblue" d="M384.99,-194.34C397.11,-182.4 411.59,-168.14 420.67,-159.19"/>
<polygon fill="midnightblue" stroke="midnightblue" points="382.49,-191.89 377.82,-201.4 387.4,-196.87 382.49,-191.89"/>
</g>
<!-- Node31&#45;&gt;Node25 -->
<g id="edge39" class="edge">
<title>Node31&#45;&gt;Node25</title>
<path fill="none" stroke="midnightblue" d="M398.97,-135.86C334.45,-109.17 185.7,-47.62 131.09,-25.02"/>
<polygon fill="midnightblue" stroke="midnightblue" points="397.99,-139.25 408.57,-139.84 400.67,-132.78 397.99,-139.25"/>
</g>
<!-- Node31&#45;&gt;Node29 -->
<g id="edge38" class="edge">
<title>Node31&#45;&gt;Node29</title>
<path fill="none" stroke="midnightblue" d="M472.01,-137.4C521.15,-124.58 600.98,-103.74 645.62,-92.08"/>
<polygon fill="midnightblue" stroke="midnightblue" points="471.1,-134.02 462.31,-139.94 472.87,-140.8 471.1,-134.02"/>
</g>
</g>
</svg>
        <g id="navigator" transform="translate(0 0)" fill="#404254">
                <rect fill="#f2f5e9" fill-opacity="0.5" stroke="#606060" stroke-width=".5" x="0" y="0" width="60" height="60"/>
                <use id="zoomplus" xlink:href="#zoomPlus" x="17" y="9" onmousedown="handleZoom(evt,'in')"/>
                <use id="zoomminus" xlink:href="#zoomMin" x="42" y="9" onmousedown="handleZoom(evt,'out')"/>
                <use id="reset" xlink:href="#resetDef" x="30" y="36" onmousedown="handleReset()"/>
                <g id="arrowUp" xlink:href="#dirArrow" transform="translate(30 24)" onmousedown="handlePan(0,-1)">
                  <use xlink:href="#rim" fill="#404040">
                        <set attributeName="fill" to="#808080" begin="arrowUp.mouseover" end="arrowUp.mouseout"/>
                  </use>
                  <path fill="none" stroke="white" stroke-width="1.5" d="M0,-3.0v7 M-2.5,-0.5L0,-3.0L2.5,-0.5"/>
                </g>
                <g id="arrowRight" xlink:href="#dirArrow" transform="rotate(90) translate(36 -43)" onmousedown="handlePan(1,0)">
                  <use xlink:href="#rim" fill="#404040">
                        <set attributeName="fill" to="#808080" begin="arrowRight.mouseover" end="arrowRight.mouseout"/>
                  </use>
                  <path fill="none" stroke="white" stroke-width="1.5" d="M0,-3.0v7 M-2.5,-0.5L0,-3.0L2.5,-0.5"/>
                </g>
                <g id="arrowDown" xlink:href="#dirArrow" transform="rotate(180) translate(-30 -48)" onmousedown="handlePan(0,1)">
                  <use xlink:href="#rim" fill="#404040">
                        <set attributeName="fill" to="#808080" begin="arrowDown.mouseover" end="arrowDown.mouseout"/>
                  </use>
                  <path fill="none" stroke="white" stroke-width="1.5" d="M0,-3.0v7 M-2.5,-0.5L0,-3.0L2.5,-0.5"/>
                </g>
                <g id="arrowLeft" xlink:href="#dirArrow" transform="rotate(270) translate(-36 17)" onmousedown="handlePan(-1,0)">
                  <use xlink:href="#rim" fill="#404040">
                        <set attributeName="fill" to="#808080" begin="arrowLeft.mouseover" end="arrowLeft.mouseout"/>
                  </use>
                  <path fill="none" stroke="white" stroke-width="1.5" d="M0,-3.0v7 M-2.5,-0.5L0,-3.0L2.5,-0.5"/>
                </g>
        </g>
        <svg viewBox="0 0 15 15" width="100%" height="30px" preserveAspectRatio="xMaxYMin meet">
         <g id="arrow_out" transform="scale(0.3 0.3)">
          <a xlink:href="vabstractlayoutdialog_8h__dep__incl_org.svg" target="_base">
           <rect id="button" ry="5" rx="5" y="6" x="6" height="38" width="38"
                fill="#f2f5e9" fill-opacity="0.5" stroke="#606060" stroke-width="1.0"/>
           <path id="arrow"
             d="M 11.500037,31.436501 C 11.940474,20.09759 22.043105,11.32322 32.158766,21.979434 L 37.068811,17.246167 C 37.068811,17.246167 37.088388,32 37.088388,32 L 22.160133,31.978069 C 22.160133,31.978069 26.997745,27.140456 26.997745,27.140456 C 18.528582,18.264221 13.291696,25.230495 11.500037,31.436501 z"
             style="fill:#404040;"/>
          </a>
         </g>
        </svg>
</svg>
