<?xml version="1.0" encoding="UTF-8" standalone="no"?>
<!DOCTYPE svg PUBLIC "-//W3C//DTD SVG 1.1//EN"
 "http://www.w3.org/Graphics/SVG/1.1/DTD/svg11.dtd">
<!-- Generated by graphviz version 2.43.0 (0)
 -->
<!-- Title: src/app/seamly2d/dialogs/vabstractlayoutdialog.h Pages: 1 -->
<!--zoomable 307 -->
<svg id="main" version="1.1" xmlns="http://www.w3.org/2000/svg" xmlns:xlink="http://www.w3.org/1999/xlink" xml:space="preserve" onload="init(evt)">
<style type="text/css"><![CDATA[
.edge:hover path { stroke: red; }
.edge:hover polygon { stroke: red; fill: red; }
]]></style>
<script type="text/javascript"><![CDATA[
var edges = document.getElementsByTagName('g');
if (edges && edges.length) {
  for (var i=0;i<edges.length;i++) {
    if (edges[i].id.substr(0,4)=='edge') {
      edges[i].setAttribute('class','edge');
    }
  }
}
]]></script>
        <defs>
                <circle id="rim" cx="0" cy="0" r="7"/>
                <circle id="rim2" cx="0" cy="0" r="3.5"/>
                <g id="zoomPlus">
                        <use xlink:href="#rim" fill="#404040">
                                <set attributeName="fill" to="#808080" begin="zoomplus.mouseover" end="zoomplus.mouseout"/>
                        </use>
                        <path d="M-4,0h8M0,-4v8" fill="none" stroke="white" stroke-width="1.5" pointer-events="none"/>
                </g>
                <g id="zoomMin">
                        <use xlink:href="#rim" fill="#404040">
                                <set attributeName="fill" to="#808080" begin="zoomminus.mouseover" end="zoomminus.mouseout"/>
                        </use>
                        <path d="M-4,0h8" fill="none" stroke="white" stroke-width="1.5" pointer-events="none"/>
                </g>
                <g id="dirArrow">
                        <path fill="none" stroke="white" stroke-width="1.5" d="M0,-3.0v7 M-2.5,-0.5L0,-3.0L2.5,-0.5"/>
                </g>
               <g id="resetDef">
                       <use xlink:href="#rim2" fill="#404040">
                               <set attributeName="fill" to="#808080" begin="reset.mouseover" end="reset.mouseout"/>
                       </use>
               </g>
        </defs>

<script type="text/javascript">
var viewWidth = 4175;
var viewHeight = 307;
var sectionId = 'dynsection-1';
</script>
<script xlink:href="../../svgpan.js"/>
<svg id="graph" class="graph">
<g id="viewport">
<title>src/app/seamly2d/dialogs/vabstractlayoutdialog.h</title>
<polygon fill="white" stroke="transparent" points="-4,4 -4,-303 4170.5,-303 4170.5,4 -4,4"/>
<!-- Node1 -->
<g id="node1" class="node">
<title>Node1</title>
<g id="a_node1"><a xlink:title=" ">
<polygon fill="#bfbfbf" stroke="black" points="2095,-268.5 2095,-298.5 2236,-298.5 2236,-268.5 2095,-268.5"/>
<text text-anchor="start" x="2103" y="-286.5" font-family="Helvetica,sans-Serif" font-size="10.00">src/app/seamly2d/dialogs</text>
<text text-anchor="middle" x="2165.5" y="-275.5" font-family="Helvetica,sans-Serif" font-size="10.00">/vabstractlayoutdialog.h</text>
</a>
</g>
</g>
<!-- Node2 -->
<g id="node2" class="node">
<title>Node2</title>
<g id="a_node2"><a xlink:href="../../d2/d2b/dialoglayoutsettings_8h.html" target="_top" xlink:title=" ">
<polygon fill="white" stroke="black" points="2095,-201.5 2095,-231.5 2236,-231.5 2236,-201.5 2095,-201.5"/>
<text text-anchor="start" x="2103" y="-219.5" font-family="Helvetica,sans-Serif" font-size="10.00">src/app/seamly2d/dialogs</text>
<text text-anchor="middle" x="2165.5" y="-208.5" font-family="Helvetica,sans-Serif" font-size="10.00">/dialoglayoutsettings.h</text>
</a>
</g>
</g>
<!-- Node1&#45;&gt;Node2 -->
<g id="edge1" class="edge">
<title>Node1&#45;&gt;Node2</title>
<path fill="none" stroke="midnightblue" d="M2165.5,-258.11C2165.5,-249.15 2165.5,-239.32 2165.5,-231.58"/>
<polygon fill="midnightblue" stroke="midnightblue" points="2162,-258.4 2165.5,-268.4 2169,-258.4 2162,-258.4"/>
</g>
<!-- Node21 -->
<g id="node21" class="node">
<title>Node21</title>
<g id="a_node21"><a xlink:href="../../d5/de4/vabstractlayoutdialog_8cpp.html" target="_top" xlink:title=" ">
<polygon fill="white" stroke="black" points="4020.5,-0.5 4020.5,-30.5 4166.5,-30.5 4166.5,-0.5 4020.5,-0.5"/>
<text text-anchor="start" x="4028.5" y="-18.5" font-family="Helvetica,sans-Serif" font-size="10.00">src/app/seamly2d/dialogs</text>
<text text-anchor="middle" x="4093.5" y="-7.5" font-family="Helvetica,sans-Serif" font-size="10.00">/vabstractlayoutdialog.cpp</text>
</a>
</g>
</g>
<!-- Node1&#45;&gt;Node21 -->
<g id="edge41" class="edge">
<title>Node1&#45;&gt;Node21</title>
<path fill="none" stroke="midnightblue" d="M2246.09,-272.68C2503.72,-241.03 3330.35,-137.58 4011.5,-31 4014.36,-30.55 4017.27,-30.09 4020.21,-29.61"/>
<polygon fill="midnightblue" stroke="midnightblue" points="2245.57,-269.22 2236.07,-273.91 2246.42,-276.16 2245.57,-269.22"/>
</g>
<!-- Node30 -->
<g id="node30" class="node">
<title>Node30</title>
<g id="a_node30"><a xlink:href="../../d1/d8e/export__layout__dialog_8h.html" target="_top" xlink:title=" ">
<polygon fill="white" stroke="black" points="293,-201.5 293,-231.5 434,-231.5 434,-201.5 293,-201.5"/>
<text text-anchor="start" x="301" y="-219.5" font-family="Helvetica,sans-Serif" font-size="10.00">src/app/seamly2d/dialogs</text>
<text text-anchor="middle" x="363.5" y="-208.5" font-family="Helvetica,sans-Serif" font-size="10.00">/export_layout_dialog.h</text>
</a>
</g>
</g>
<!-- Node1&#45;&gt;Node30 -->
<g id="edge35" class="edge">
<title>Node1&#45;&gt;Node30</title>
<path fill="none" stroke="midnightblue" d="M2084.85,-279.59C1782.5,-268.68 719,-230.32 434.14,-220.05"/>
<polygon fill="midnightblue" stroke="midnightblue" points="2084.74,-283.09 2094.86,-279.95 2084.99,-276.09 2084.74,-283.09"/>
</g>
<!-- Node3 -->
<g id="node3" class="node">
<title>Node3</title>
<g id="a_node3"><a xlink:href="../../dd/d57/vcmdexport_8h.html" target="_top" xlink:title=" ">
<polygon fill="white" stroke="black" points="2043,-134.5 2043,-164.5 2170,-164.5 2170,-134.5 2043,-134.5"/>
<text text-anchor="start" x="2051" y="-152.5" font-family="Helvetica,sans-Serif" font-size="10.00">src/app/seamly2d/core</text>
<text text-anchor="middle" x="2106.5" y="-141.5" font-family="Helvetica,sans-Serif" font-size="10.00">/vcmdexport.h</text>
</a>
</g>
</g>
<!-- Node2&#45;&gt;Node3 -->
<g id="edge2" class="edge">
<title>Node2&#45;&gt;Node3</title>
<path fill="none" stroke="midnightblue" d="M2145.75,-193.74C2137.02,-184.12 2127,-173.09 2119.28,-164.58"/>
<polygon fill="midnightblue" stroke="midnightblue" points="2143.39,-196.34 2152.7,-201.4 2148.57,-191.64 2143.39,-196.34"/>
</g>
<!-- Node15 -->
<g id="node15" class="node">
<title>Node15</title>
<g id="a_node15"><a xlink:href="../../db/def/dialoglayoutsettings_8cpp.html" target="_top" xlink:title=" ">
<polygon fill="white" stroke="black" points="3861,-0.5 3861,-30.5 4002,-30.5 4002,-0.5 3861,-0.5"/>
<text text-anchor="start" x="3869" y="-18.5" font-family="Helvetica,sans-Serif" font-size="10.00">src/app/seamly2d/dialogs</text>
<text text-anchor="middle" x="3931.5" y="-7.5" font-family="Helvetica,sans-Serif" font-size="10.00">/dialoglayoutsettings.cpp</text>
</a>
</g>
</g>
<!-- Node2&#45;&gt;Node15 -->
<g id="edge33" class="edge">
<title>Node2&#45;&gt;Node15</title>
<path fill="none" stroke="midnightblue" d="M2246.58,-208.67C2490.19,-187.7 3236.73,-120.24 3851.5,-31 3854.57,-30.55 3857.71,-30.08 3860.87,-29.58"/>
<polygon fill="midnightblue" stroke="midnightblue" points="2246.06,-205.2 2236.4,-209.54 2246.66,-212.17 2246.06,-205.2"/>
</g>
<!-- Node24 -->
<g id="node24" class="node">
<title>Node24</title>
<g id="a_node24"><a xlink:href="../../d8/de8/mainwindowsnogui_8cpp.html" target="_top" xlink:title=" ">
<polygon fill="white" stroke="black" points="0,-6 0,-25 221,-25 221,-6 0,-6"/>
<text text-anchor="middle" x="110.5" y="-13" font-family="Helvetica,sans-Serif" font-size="10.00">src/app/seamly2d/mainwindowsnogui.cpp</text>
</a>
</g>
</g>
<!-- Node2&#45;&gt;Node24 -->
<g id="edge34" class="edge">
<title>Node2&#45;&gt;Node24</title>
<path fill="none" stroke="midnightblue" d="M2084.9,-212.3C1851.5,-202.42 1155.23,-168.75 581.5,-98 421.72,-78.3 233.62,-41.65 151.88,-25.06"/>
<polygon fill="midnightblue" stroke="midnightblue" points="2084.86,-215.8 2095,-212.72 2085.16,-208.8 2084.86,-215.8"/>
</g>
<!-- Node28 -->
<g id="node28" class="node">
<title>Node28</title>
<g id="a_node28"><a xlink:href="../../df/d9b/vcmdexport_8cpp.html" target="_top" xlink:title=" ">
<polygon fill="white" stroke="black" points="2174,-67.5 2174,-97.5 2301,-97.5 2301,-67.5 2174,-67.5"/>
<text text-anchor="start" x="2182" y="-85.5" font-family="Helvetica,sans-Serif" font-size="10.00">src/app/seamly2d/core</text>
<text text-anchor="middle" x="2237.5" y="-74.5" font-family="Helvetica,sans-Serif" font-size="10.00">/vcmdexport.cpp</text>
</a>
</g>
</g>
<!-- Node2&#45;&gt;Node28 -->
<g id="edge32" class="edge">
<title>Node2&#45;&gt;Node28</title>
<path fill="none" stroke="midnightblue" d="M2178.06,-192.48C2193.01,-165.07 2217.49,-120.19 2229.85,-97.52"/>
<polygon fill="midnightblue" stroke="midnightblue" points="2174.92,-190.92 2173.21,-201.37 2181.07,-194.27 2174.92,-190.92"/>
</g>
<!-- Node4 -->
<g id="node4" class="node">
<title>Node4</title>
<g id="a_node4"><a xlink:href="../../d9/d02/vapplication_8h.html" target="_top" xlink:title=" ">
<polygon fill="white" stroke="black" points="2029,-67.5 2029,-97.5 2156,-97.5 2156,-67.5 2029,-67.5"/>
<text text-anchor="start" x="2037" y="-85.5" font-family="Helvetica,sans-Serif" font-size="10.00">src/app/seamly2d/core</text>
<text text-anchor="middle" x="2092.5" y="-74.5" font-family="Helvetica,sans-Serif" font-size="10.00">/vapplication.h</text>
</a>
</g>
</g>
<!-- Node3&#45;&gt;Node4 -->
<g id="edge3" class="edge">
<title>Node3&#45;&gt;Node4</title>
<path fill="none" stroke="midnightblue" d="M2101.31,-124.4C2099.36,-115.37 2097.22,-105.41 2095.53,-97.58"/>
<polygon fill="midnightblue" stroke="midnightblue" points="2097.94,-125.36 2103.46,-134.4 2104.78,-123.88 2097.94,-125.36"/>
</g>
<!-- Node3&#45;&gt;Node28 -->
<g id="edge27" class="edge">
<title>Node3&#45;&gt;Node28</title>
<path fill="none" stroke="midnightblue" d="M2144.08,-129.85C2164.79,-119.58 2190.09,-107.03 2209.13,-97.58"/>
<polygon fill="midnightblue" stroke="midnightblue" points="2142.33,-126.82 2134.93,-134.4 2145.44,-133.09 2142.33,-126.82"/>
</g>
<!-- Node29 -->
<g id="node29" class="node">
<title>Node29</title>
<g id="a_node29"><a xlink:href="../../d9/d53/mainwindow_8h.html" target="_top" xlink:title=" ">
<polygon fill="white" stroke="black" points="590.5,-73 590.5,-92 766.5,-92 766.5,-73 590.5,-73"/>
<text text-anchor="middle" x="678.5" y="-80" font-family="Helvetica,sans-Serif" font-size="10.00">src/app/seamly2d/mainwindow.h</text>
</a>
</g>
</g>
<!-- Node3&#45;&gt;Node29 -->
<g id="edge28" class="edge">
<title>Node3&#45;&gt;Node29</title>
<path fill="none" stroke="midnightblue" d="M2032.77,-145.14C1791.69,-134.17 1027.33,-99.38 766.62,-87.51"/>
<polygon fill="midnightblue" stroke="midnightblue" points="2032.68,-148.64 2042.83,-145.6 2033,-141.65 2032.68,-148.64"/>
</g>
<!-- Node5 -->
<g id="node5" class="node">
<title>Node5</title>
<g id="a_node5"><a xlink:href="../../d3/dd8/vapplication_8cpp.html" target="_top" xlink:title=" ">
<polygon fill="white" stroke="black" points="776,-0.5 776,-30.5 903,-30.5 903,-0.5 776,-0.5"/>
<text text-anchor="start" x="784" y="-18.5" font-family="Helvetica,sans-Serif" font-size="10.00">src/app/seamly2d/core</text>
<text text-anchor="middle" x="839.5" y="-7.5" font-family="Helvetica,sans-Serif" font-size="10.00">/vapplication.cpp</text>
</a>
</g>
</g>
<!-- Node4&#45;&gt;Node5 -->
<g id="edge4" class="edge">
<title>Node4&#45;&gt;Node5</title>
<path fill="none" stroke="midnightblue" d="M2018.61,-79.85C1794.94,-74.62 1127.34,-57.19 911.5,-31 908.72,-30.66 905.88,-30.28 903.02,-29.85"/>
<polygon fill="midnightblue" stroke="midnightblue" points="2018.84,-83.36 2028.92,-80.09 2019,-76.36 2018.84,-83.36"/>
</g>
<!-- Node6 -->
<g id="node6" class="node">
<title>Node6</title>
<g id="a_node6"><a xlink:href="../../d7/dfa/calculator__dialog_8cpp.html" target="_top" xlink:title=" ">
<polygon fill="white" stroke="black" points="2884,-0.5 2884,-30.5 3025,-30.5 3025,-0.5 2884,-0.5"/>
<text text-anchor="start" x="2892" y="-18.5" font-family="Helvetica,sans-Serif" font-size="10.00">src/app/seamly2d/dialogs</text>
<text text-anchor="middle" x="2954.5" y="-7.5" font-family="Helvetica,sans-Serif" font-size="10.00">/calculator_dialog.cpp</text>
</a>
</g>
</g>
<!-- Node4&#45;&gt;Node6 -->
<g id="edge5" class="edge">
<title>Node4&#45;&gt;Node6</title>
<path fill="none" stroke="midnightblue" d="M2166.44,-67.03C2480.86,-28.96 2565.04,-67.21 2875.5,-31 2878.27,-30.68 2881.09,-30.32 2883.93,-29.92"/>
<polygon fill="midnightblue" stroke="midnightblue" points="2165.61,-63.61 2156.11,-68.3 2166.46,-70.55 2165.61,-63.61"/>
</g>
<!-- Node7 -->
<g id="node7" class="node">
<title>Node7</title>
<g id="a_node7"><a xlink:href="../../dc/d20/preferencespathpage_8cpp.html" target="_top" xlink:title=" ">
<polygon fill="white" stroke="black" points="3043,-0.5 3043,-30.5 3248,-30.5 3248,-0.5 3043,-0.5"/>
<text text-anchor="start" x="3051" y="-18.5" font-family="Helvetica,sans-Serif" font-size="10.00">src/app/seamly2d/dialogs</text>
<text text-anchor="middle" x="3145.5" y="-7.5" font-family="Helvetica,sans-Serif" font-size="10.00">/configpages/preferencespathpage.cpp</text>
</a>
</g>
</g>
<!-- Node4&#45;&gt;Node7 -->
<g id="edge6" class="edge">
<title>Node4&#45;&gt;Node7</title>
<path fill="none" stroke="midnightblue" d="M2166.12,-67.08C2551.06,-21.94 2652.65,-63.78 3034.5,-31 3037.21,-30.77 3039.96,-30.52 3042.73,-30.25"/>
<polygon fill="midnightblue" stroke="midnightblue" points="2165.63,-63.61 2156.11,-68.26 2166.45,-70.56 2165.63,-63.61"/>
</g>
<!-- Node8 -->
<g id="node8" class="node">
<title>Node8</title>
<g id="a_node8"><a xlink:href="../../dc/d63/preferencespatternpage_8cpp.html" target="_top" xlink:title=" ">
<polygon fill="white" stroke="black" points="3266.5,-0.5 3266.5,-30.5 3484.5,-30.5 3484.5,-0.5 3266.5,-0.5"/>
<text text-anchor="start" x="3274.5" y="-18.5" font-family="Helvetica,sans-Serif" font-size="10.00">src/app/seamly2d/dialogs</text>
<text text-anchor="middle" x="3375.5" y="-7.5" font-family="Helvetica,sans-Serif" font-size="10.00">/configpages/preferencespatternpage.cpp</text>
</a>
</g>
</g>
<!-- Node4&#45;&gt;Node8 -->
<g id="edge7" class="edge">
<title>Node4&#45;&gt;Node8</title>
<path fill="none" stroke="midnightblue" d="M2166.14,-67.08C2649.65,-12.29 2776.67,-68.39 3257.5,-31 3260.38,-30.78 3263.3,-30.53 3266.24,-30.27"/>
<polygon fill="midnightblue" stroke="midnightblue" points="2165.64,-63.62 2156.1,-68.23 2166.44,-70.57 2165.64,-63.62"/>
</g>
<!-- Node9 -->
<g id="node9" class="node">
<title>Node9</title>
<g id="a_node9"><a xlink:href="../../dd/dc2/decimalchart__dialog_8cpp.html" target="_top" xlink:title=" ">
<polygon fill="white" stroke="black" points="3503,-0.5 3503,-30.5 3644,-30.5 3644,-0.5 3503,-0.5"/>
<text text-anchor="start" x="3511" y="-18.5" font-family="Helvetica,sans-Serif" font-size="10.00">src/app/seamly2d/dialogs</text>
<text text-anchor="middle" x="3573.5" y="-7.5" font-family="Helvetica,sans-Serif" font-size="10.00">/decimalchart_dialog.cpp</text>
</a>
</g>
</g>
<!-- Node4&#45;&gt;Node9 -->
<g id="edge8" class="edge">
<title>Node4&#45;&gt;Node9</title>
<path fill="none" stroke="midnightblue" d="M2166.1,-67.1C2754.01,-2.26 2909.5,-91.49 3493.5,-31 3496.59,-30.68 3499.74,-30.31 3502.91,-29.9"/>
<polygon fill="midnightblue" stroke="midnightblue" points="2165.65,-63.62 2156.1,-68.21 2166.43,-70.58 2165.65,-63.62"/>
</g>
<!-- Node10 -->
<g id="node10" class="node">
<title>Node10</title>
<g id="a_node10"><a xlink:href="../../d2/d00/vtooloptionspropertybrowser_8cpp.html" target="_top" xlink:title=" ">
<polygon fill="white" stroke="black" points="3662.5,-0.5 3662.5,-30.5 3842.5,-30.5 3842.5,-0.5 3662.5,-0.5"/>
<text text-anchor="start" x="3670.5" y="-18.5" font-family="Helvetica,sans-Serif" font-size="10.00">src/app/seamly2d/core</text>
<text text-anchor="middle" x="3752.5" y="-7.5" font-family="Helvetica,sans-Serif" font-size="10.00">/vtooloptionspropertybrowser.cpp</text>
</a>
</g>
</g>
<!-- Node4&#45;&gt;Node10 -->
<g id="edge9" class="edge">
<title>Node4&#45;&gt;Node10</title>
<path fill="none" stroke="midnightblue" d="M2166.32,-67.07C2824.79,4.76 2997.73,-86.75 3653.5,-31 3656.44,-30.75 3659.43,-30.47 3662.45,-30.16"/>
<polygon fill="midnightblue" stroke="midnightblue" points="2165.66,-63.63 2156.1,-68.2 2166.42,-70.58 2165.66,-63.63"/>
</g>
<!-- Node11 -->
<g id="node11" class="node">
<title>Node11</title>
<g id="a_node11"><a xlink:href="../../dd/d64/dialogaboutapp_8cpp.html" target="_top" xlink:title=" ">
<polygon fill="white" stroke="black" points="921,-0.5 921,-30.5 1062,-30.5 1062,-0.5 921,-0.5"/>
<text text-anchor="start" x="929" y="-18.5" font-family="Helvetica,sans-Serif" font-size="10.00">src/app/seamly2d/dialogs</text>
<text text-anchor="middle" x="991.5" y="-7.5" font-family="Helvetica,sans-Serif" font-size="10.00">/dialogaboutapp.cpp</text>
</a>
</g>
</g>
<!-- Node4&#45;&gt;Node11 -->
<g id="edge10" class="edge">
<title>Node4&#45;&gt;Node11</title>
<path fill="none" stroke="midnightblue" d="M2018.7,-81.13C1850.24,-79.57 1424.67,-71.57 1071.5,-31 1068.41,-30.65 1065.27,-30.25 1062.1,-29.81"/>
<polygon fill="midnightblue" stroke="midnightblue" points="2018.91,-84.63 2028.94,-81.22 2018.97,-77.63 2018.91,-84.63"/>
</g>
<!-- Node12 -->
<g id="node12" class="node">
<title>Node12</title>
<g id="a_node12"><a xlink:href="../../d9/d70/preferencesgraphicsviewpage_8cpp.html" target="_top" xlink:title=" ">
<polygon fill="white" stroke="black" points="1080.5,-0.5 1080.5,-30.5 1328.5,-30.5 1328.5,-0.5 1080.5,-0.5"/>
<text text-anchor="start" x="1088.5" y="-18.5" font-family="Helvetica,sans-Serif" font-size="10.00">src/app/seamly2d/dialogs</text>
<text text-anchor="middle" x="1204.5" y="-7.5" font-family="Helvetica,sans-Serif" font-size="10.00">/configpages/preferencesgraphicsviewpage.cpp</text>
</a>
</g>
</g>
<!-- Node4&#45;&gt;Node12 -->
<g id="edge11" class="edge">
<title>Node4&#45;&gt;Node12</title>
<path fill="none" stroke="midnightblue" d="M2018.55,-77.58C1883.26,-70.19 1586.84,-52.92 1337.5,-31 1334.61,-30.75 1331.68,-30.48 1328.73,-30.21"/>
<polygon fill="midnightblue" stroke="midnightblue" points="2018.62,-81.09 2028.8,-78.14 2019,-74.1 2018.62,-81.09"/>
</g>
<!-- Node13 -->
<g id="node13" class="node">
<title>Node13</title>
<g id="a_node13"><a xlink:href="../../d2/d2d/preferencesconfigurationpage_8cpp.html" target="_top" xlink:title=" ">
<polygon fill="white" stroke="black" points="1347,-0.5 1347,-30.5 1594,-30.5 1594,-0.5 1347,-0.5"/>
<text text-anchor="start" x="1355" y="-18.5" font-family="Helvetica,sans-Serif" font-size="10.00">src/app/seamly2d/dialogs</text>
<text text-anchor="middle" x="1470.5" y="-7.5" font-family="Helvetica,sans-Serif" font-size="10.00">/configpages/preferencesconfigurationpage.cpp</text>
</a>
</g>
</g>
<!-- Node4&#45;&gt;Node13 -->
<g id="edge12" class="edge">
<title>Node4&#45;&gt;Node13</title>
<path fill="none" stroke="midnightblue" d="M2018.49,-74.03C1922.53,-64.31 1749.98,-46.7 1602.5,-31 1599.75,-30.71 1596.97,-30.41 1594.16,-30.11"/>
<polygon fill="midnightblue" stroke="midnightblue" points="2018.36,-77.53 2028.67,-75.06 2019.07,-70.57 2018.36,-77.53"/>
</g>
<!-- Node14 -->
<g id="node14" class="node">
<title>Node14</title>
<g id="a_node14"><a xlink:href="../../d6/d89/dialoglayoutprogress_8cpp.html" target="_top" xlink:title=" ">
<polygon fill="white" stroke="black" points="1612,-0.5 1612,-30.5 1755,-30.5 1755,-0.5 1612,-0.5"/>
<text text-anchor="start" x="1620" y="-18.5" font-family="Helvetica,sans-Serif" font-size="10.00">src/app/seamly2d/dialogs</text>
<text text-anchor="middle" x="1683.5" y="-7.5" font-family="Helvetica,sans-Serif" font-size="10.00">/dialoglayoutprogress.cpp</text>
</a>
</g>
</g>
<!-- Node4&#45;&gt;Node14 -->
<g id="edge13" class="edge">
<title>Node4&#45;&gt;Node14</title>
<path fill="none" stroke="midnightblue" d="M2018.73,-70.76C1951.99,-60.9 1851.05,-45.65 1763.5,-31 1760.72,-30.53 1757.88,-30.05 1755.01,-29.56"/>
<polygon fill="midnightblue" stroke="midnightblue" points="2018.33,-74.24 2028.73,-72.23 2019.35,-67.31 2018.33,-74.24"/>
</g>
<!-- Node4&#45;&gt;Node15 -->
<g id="edge14" class="edge">
<title>Node4&#45;&gt;Node15</title>
<path fill="none" stroke="midnightblue" d="M2166.29,-67.08C2912.35,13.24 3109.13,-105.73 3851.5,-31 3854.59,-30.69 3857.74,-30.32 3860.92,-29.92"/>
<polygon fill="midnightblue" stroke="midnightblue" points="2165.66,-63.63 2156.1,-68.19 2166.42,-70.59 2165.66,-63.63"/>
</g>
<!-- Node16 -->
<g id="node16" class="node">
<title>Node16</title>
<g id="a_node16"><a xlink:href="../../de/d87/dialognewpattern_8cpp.html" target="_top" xlink:title=" ">
<polygon fill="white" stroke="black" points="1773,-0.5 1773,-30.5 1914,-30.5 1914,-0.5 1773,-0.5"/>
<text text-anchor="start" x="1781" y="-18.5" font-family="Helvetica,sans-Serif" font-size="10.00">src/app/seamly2d/dialogs</text>
<text text-anchor="middle" x="1843.5" y="-7.5" font-family="Helvetica,sans-Serif" font-size="10.00">/dialognewpattern.cpp</text>
</a>
</g>
</g>
<!-- Node4&#45;&gt;Node16 -->
<g id="edge15" class="edge">
<title>Node4&#45;&gt;Node16</title>
<path fill="none" stroke="midnightblue" d="M2028.97,-64.92C1988.34,-54.31 1936.2,-40.7 1897.56,-30.61"/>
<polygon fill="midnightblue" stroke="midnightblue" points="2028.22,-68.34 2038.78,-67.48 2029.99,-61.56 2028.22,-68.34"/>
</g>
<!-- Node17 -->
<g id="node17" class="node">
<title>Node17</title>
<g id="a_node17"><a xlink:href="../../d5/d18/dialogpatternproperties_8cpp.html" target="_top" xlink:title=" ">
<polygon fill="white" stroke="black" points="1932,-0.5 1932,-30.5 2087,-30.5 2087,-0.5 1932,-0.5"/>
<text text-anchor="start" x="1940" y="-18.5" font-family="Helvetica,sans-Serif" font-size="10.00">src/app/seamly2d/dialogs</text>
<text text-anchor="middle" x="2009.5" y="-7.5" font-family="Helvetica,sans-Serif" font-size="10.00">/dialogpatternproperties.cpp</text>
</a>
</g>
</g>
<!-- Node4&#45;&gt;Node17 -->
<g id="edge16" class="edge">
<title>Node4&#45;&gt;Node17</title>
<path fill="none" stroke="midnightblue" d="M2066.54,-61.17C2053.85,-51.23 2038.89,-39.51 2027.47,-30.58"/>
<polygon fill="midnightblue" stroke="midnightblue" points="2064.46,-63.99 2074.49,-67.4 2068.78,-58.47 2064.46,-63.99"/>
</g>
<!-- Node18 -->
<g id="node18" class="node">
<title>Node18</title>
<g id="a_node18"><a xlink:href="../../dd/d54/export__layout__dialog_8cpp.html" target="_top" xlink:title=" ">
<polygon fill="white" stroke="black" points="239,-0.5 239,-30.5 382,-30.5 382,-0.5 239,-0.5"/>
<text text-anchor="start" x="247" y="-18.5" font-family="Helvetica,sans-Serif" font-size="10.00">src/app/seamly2d/dialogs</text>
<text text-anchor="middle" x="310.5" y="-7.5" font-family="Helvetica,sans-Serif" font-size="10.00">/export_layout_dialog.cpp</text>
</a>
</g>
</g>
<!-- Node4&#45;&gt;Node18 -->
<g id="edge17" class="edge">
<title>Node4&#45;&gt;Node18</title>
<path fill="none" stroke="midnightblue" d="M2018.39,-80.78C1734.12,-77.78 713.22,-64.84 390.5,-31 387.83,-30.72 385.12,-30.4 382.39,-30.05"/>
<polygon fill="midnightblue" stroke="midnightblue" points="2018.55,-84.28 2028.59,-80.88 2018.63,-77.28 2018.55,-84.28"/>
</g>
<!-- Node19 -->
<g id="node19" class="node">
<title>Node19</title>
<g id="a_node19"><a xlink:href="../../d5/dc5/dialogpreferences_8cpp.html" target="_top" xlink:title=" ">
<polygon fill="white" stroke="black" points="2105,-0.5 2105,-30.5 2246,-30.5 2246,-0.5 2105,-0.5"/>
<text text-anchor="start" x="2113" y="-18.5" font-family="Helvetica,sans-Serif" font-size="10.00">src/app/seamly2d/dialogs</text>
<text text-anchor="middle" x="2175.5" y="-7.5" font-family="Helvetica,sans-Serif" font-size="10.00">/dialogpreferences.cpp</text>
</a>
</g>
</g>
<!-- Node4&#45;&gt;Node19 -->
<g id="edge18" class="edge">
<title>Node4&#45;&gt;Node19</title>
<path fill="none" stroke="midnightblue" d="M2118.46,-61.17C2131.15,-51.23 2146.11,-39.51 2157.53,-30.58"/>
<polygon fill="midnightblue" stroke="midnightblue" points="2116.22,-58.47 2110.51,-67.4 2120.54,-63.99 2116.22,-58.47"/>
</g>
<!-- Node20 -->
<g id="node20" class="node">
<title>Node20</title>
<g id="a_node20"><a xlink:href="../../dd/d84/shortcuts__dialog_8cpp.html" target="_top" xlink:title=" ">
<polygon fill="white" stroke="black" points="2264,-0.5 2264,-30.5 2405,-30.5 2405,-0.5 2264,-0.5"/>
<text text-anchor="start" x="2272" y="-18.5" font-family="Helvetica,sans-Serif" font-size="10.00">src/app/seamly2d/dialogs</text>
<text text-anchor="middle" x="2334.5" y="-7.5" font-family="Helvetica,sans-Serif" font-size="10.00">/shortcuts_dialog.cpp</text>
</a>
</g>
</g>
<!-- Node4&#45;&gt;Node20 -->
<g id="edge19" class="edge">
<title>Node4&#45;&gt;Node20</title>
<path fill="none" stroke="midnightblue" d="M2154.49,-64.85C2193.95,-54.25 2244.49,-40.68 2281.96,-30.61"/>
<polygon fill="midnightblue" stroke="midnightblue" points="2153.46,-61.5 2144.71,-67.48 2155.28,-68.26 2153.46,-61.5"/>
</g>
<!-- Node4&#45;&gt;Node21 -->
<g id="edge20" class="edge">
<title>Node4&#45;&gt;Node21</title>
<path fill="none" stroke="midnightblue" d="M2166.04,-67.11C2983.07,20.22 3198.07,-110.36 4011.5,-31 4014.38,-30.72 4017.31,-30.39 4020.26,-30.03"/>
<polygon fill="midnightblue" stroke="midnightblue" points="2165.67,-63.63 2156.1,-68.18 2166.42,-70.59 2165.67,-63.63"/>
</g>
<!-- Node22 -->
<g id="node22" class="node">
<title>Node22</title>
<g id="a_node22"><a xlink:href="../../d2/df4/show__info__dialog_8cpp.html" target="_top" xlink:title=" ">
<polygon fill="white" stroke="black" points="2423,-0.5 2423,-30.5 2564,-30.5 2564,-0.5 2423,-0.5"/>
<text text-anchor="start" x="2431" y="-18.5" font-family="Helvetica,sans-Serif" font-size="10.00">src/app/seamly2d/dialogs</text>
<text text-anchor="middle" x="2493.5" y="-7.5" font-family="Helvetica,sans-Serif" font-size="10.00">/show_info_dialog.cpp</text>
</a>
</g>
</g>
<!-- Node4&#45;&gt;Node22 -->
<g id="edge21" class="edge">
<title>Node4&#45;&gt;Node22</title>
<path fill="none" stroke="midnightblue" d="M2166.11,-66.95C2277.39,-48.14 2307.28,-48.58 2414.5,-31 2417.25,-30.55 2420.06,-30.08 2422.89,-29.6"/>
<polygon fill="midnightblue" stroke="midnightblue" points="2165.43,-63.52 2156.16,-68.65 2166.61,-70.42 2165.43,-63.52"/>
</g>
<!-- Node23 -->
<g id="node23" class="node">
<title>Node23</title>
<g id="a_node23"><a xlink:href="../../dc/d14/app_2seamly2d_2main_8cpp.html" target="_top" xlink:title=" ">
<polygon fill="white" stroke="black" points="400,-6 400,-25 551,-25 551,-6 400,-6"/>
<text text-anchor="middle" x="475.5" y="-13" font-family="Helvetica,sans-Serif" font-size="10.00">src/app/seamly2d/main.cpp</text>
</a>
</g>
</g>
<!-- Node4&#45;&gt;Node23 -->
<g id="edge22" class="edge">
<title>Node4&#45;&gt;Node23</title>
<path fill="none" stroke="midnightblue" d="M2018.4,-80.39C1752.7,-76.22 848.39,-60.16 560.5,-31 546.8,-29.61 531.97,-27.35 518.59,-25.02"/>
<polygon fill="midnightblue" stroke="midnightblue" points="2018.65,-83.9 2028.7,-80.56 2018.76,-76.9 2018.65,-83.9"/>
</g>
<!-- Node4&#45;&gt;Node24 -->
<g id="edge23" class="edge">
<title>Node4&#45;&gt;Node24</title>
<path fill="none" stroke="midnightblue" d="M2018.76,-81.99C1767.84,-83.13 924.09,-82.62 229.5,-31 210.51,-29.59 189.89,-27.33 171.24,-25.02"/>
<polygon fill="midnightblue" stroke="midnightblue" points="2018.87,-85.49 2028.86,-81.94 2018.84,-78.49 2018.87,-85.49"/>
</g>
<!-- Node25 -->
<g id="node25" class="node">
<title>Node25</title>
<g id="a_node25"><a xlink:href="../../db/d5c/groups__widget_8cpp.html" target="_top" xlink:title=" ">
<polygon fill="white" stroke="black" points="2582,-0.5 2582,-30.5 2723,-30.5 2723,-0.5 2582,-0.5"/>
<text text-anchor="start" x="2590" y="-18.5" font-family="Helvetica,sans-Serif" font-size="10.00">src/app/seamly2d/dialogs</text>
<text text-anchor="middle" x="2652.5" y="-7.5" font-family="Helvetica,sans-Serif" font-size="10.00">/groups_widget.cpp</text>
</a>
</g>
</g>
<!-- Node4&#45;&gt;Node25 -->
<g id="edge24" class="edge">
<title>Node4&#45;&gt;Node25</title>
<path fill="none" stroke="midnightblue" d="M2166.27,-67.01C2347.46,-41.73 2396.37,-55.02 2573.5,-31 2576.26,-30.63 2579.08,-30.22 2581.92,-29.79"/>
<polygon fill="midnightblue" stroke="midnightblue" points="2165.54,-63.57 2156.13,-68.44 2166.52,-70.5 2165.54,-63.57"/>
</g>
<!-- Node26 -->
<g id="node26" class="node">
<title>Node26</title>
<g id="a_node26"><a xlink:href="../../d3/d49/vpattern_8cpp.html" target="_top" xlink:title=" ">
<polygon fill="white" stroke="black" points="2741,-0.5 2741,-30.5 2866,-30.5 2866,-0.5 2741,-0.5"/>
<text text-anchor="start" x="2749" y="-18.5" font-family="Helvetica,sans-Serif" font-size="10.00">src/app/seamly2d/xml</text>
<text text-anchor="middle" x="2803.5" y="-7.5" font-family="Helvetica,sans-Serif" font-size="10.00">/vpattern.cpp</text>
</a>
</g>
</g>
<!-- Node4&#45;&gt;Node26 -->
<g id="edge25" class="edge">
<title>Node4&#45;&gt;Node26</title>
<path fill="none" stroke="midnightblue" d="M2166.29,-67.03C2417.67,-35.11 2485.5,-63.9 2732.5,-31 2735.24,-30.63 2738.04,-30.22 2740.86,-29.78"/>
<polygon fill="midnightblue" stroke="midnightblue" points="2165.59,-63.6 2156.12,-68.35 2166.48,-70.54 2165.59,-63.6"/>
</g>
<!-- Node27 -->
<g id="node27" class="node">
<title>Node27</title>
<g id="a_node27"><a xlink:href="../../d8/dd9/mainwindow_8cpp.html" target="_top" xlink:title=" ">
<polygon fill="white" stroke="black" points="569.5,-6 569.5,-25 757.5,-25 757.5,-6 569.5,-6"/>
<text text-anchor="middle" x="663.5" y="-13" font-family="Helvetica,sans-Serif" font-size="10.00">src/app/seamly2d/mainwindow.cpp</text>
</a>
</g>
</g>
<!-- Node4&#45;&gt;Node27 -->
<g id="edge26" class="edge">
<title>Node4&#45;&gt;Node27</title>
<path fill="none" stroke="midnightblue" d="M2018.71,-81.32C1817.49,-80.26 1242.4,-73.45 766.5,-31 750.22,-29.55 732.58,-27.31 716.57,-25.02"/>
<polygon fill="midnightblue" stroke="midnightblue" points="2018.85,-84.82 2028.87,-81.37 2018.89,-77.82 2018.85,-84.82"/>
</g>
<!-- Node29&#45;&gt;Node5 -->
<g id="edge29" class="edge">
<title>Node29&#45;&gt;Node5</title>
<path fill="none" stroke="midnightblue" d="M709.32,-69.06C736.59,-58.05 776.36,-41.99 804.75,-30.53"/>
<polygon fill="midnightblue" stroke="midnightblue" points="707.84,-65.88 699.88,-72.87 710.46,-72.37 707.84,-65.88"/>
</g>
<!-- Node29&#45;&gt;Node23 -->
<g id="edge30" class="edge">
<title>Node29&#45;&gt;Node23</title>
<path fill="none" stroke="midnightblue" d="M641.85,-69.77C601.63,-56.89 538.03,-36.52 502.25,-25.06"/>
<polygon fill="midnightblue" stroke="midnightblue" points="640.95,-73.15 651.54,-72.87 643.09,-66.49 640.95,-73.15"/>
</g>
<!-- Node29&#45;&gt;Node27 -->
<g id="edge31" class="edge">
<title>Node29&#45;&gt;Node27</title>
<path fill="none" stroke="midnightblue" d="M674.21,-62.91C671.34,-50.49 667.7,-34.72 665.49,-25.13"/>
<polygon fill="midnightblue" stroke="midnightblue" points="670.82,-63.78 676.48,-72.73 677.64,-62.2 670.82,-63.78"/>
</g>
<!-- Node30&#45;&gt;Node18 -->
<g id="edge36" class="edge">
<title>Node30&#45;&gt;Node18</title>
<path fill="none" stroke="midnightblue" d="M336.84,-194.41C328.44,-186.21 320.15,-176.1 315.5,-165 296.26,-119.08 303.19,-58 307.76,-30.71"/>
<polygon fill="midnightblue" stroke="midnightblue" points="334.73,-197.23 344.48,-201.38 339.45,-192.05 334.73,-197.23"/>
</g>
<!-- Node30&#45;&gt;Node24 -->
<g id="edge37" class="edge">
<title>Node30&#45;&gt;Node24</title>
<path fill="none" stroke="midnightblue" d="M337.16,-194.78C282.55,-151.83 158.98,-54.64 121.49,-25.14"/>
<polygon fill="midnightblue" stroke="midnightblue" points="335.28,-197.76 345.3,-201.19 339.61,-192.26 335.28,-197.76"/>
</g>
<!-- Node31 -->
<g id="node31" class="node">
<title>Node31</title>
<g id="a_node31"><a xlink:href="../../d1/d82/mainwindowsnogui_8h.html" target="_top" xlink:title=" ">
<polygon fill="white" stroke="black" points="325,-140 325,-159 534,-159 534,-140 325,-140"/>
<text text-anchor="middle" x="429.5" y="-147" font-family="Helvetica,sans-Serif" font-size="10.00">src/app/seamly2d/mainwindowsnogui.h</text>
</a>
</g>
</g>
<!-- Node30&#45;&gt;Node31 -->
<g id="edge38" class="edge">
<title>Node30&#45;&gt;Node31</title>
<path fill="none" stroke="midnightblue" d="M384.99,-194.34C397.11,-182.4 411.59,-168.14 420.67,-159.19"/>
<polygon fill="midnightblue" stroke="midnightblue" points="382.49,-191.89 377.82,-201.4 387.4,-196.87 382.49,-191.89"/>
</g>
<!-- Node31&#45;&gt;Node24 -->
<g id="edge40" class="edge">
<title>Node31&#45;&gt;Node24</title>
<path fill="none" stroke="midnightblue" d="M398.97,-135.86C334.45,-109.17 185.7,-47.62 131.09,-25.02"/>
<polygon fill="midnightblue" stroke="midnightblue" points="397.99,-139.25 408.57,-139.84 400.67,-132.78 397.99,-139.25"/>
</g>
<!-- Node31&#45;&gt;Node29 -->
<g id="edge39" class="edge">
<title>Node31&#45;&gt;Node29</title>
<path fill="none" stroke="midnightblue" d="M472.01,-137.4C521.15,-124.58 600.98,-103.74 645.62,-92.08"/>
<polygon fill="midnightblue" stroke="midnightblue" points="471.1,-134.02 462.31,-139.94 472.87,-140.8 471.1,-134.02"/>
</g>
</g>
</svg>
        <g id="navigator" transform="translate(0 0)" fill="#404254">
                <rect fill="#f2f5e9" fill-opacity="0.5" stroke="#606060" stroke-width=".5" x="0" y="0" width="60" height="60"/>
                <use id="zoomplus" xlink:href="#zoomPlus" x="17" y="9" onmousedown="handleZoom(evt,'in')"/>
                <use id="zoomminus" xlink:href="#zoomMin" x="42" y="9" onmousedown="handleZoom(evt,'out')"/>
                <use id="reset" xlink:href="#resetDef" x="30" y="36" onmousedown="handleReset()"/>
                <g id="arrowUp" xlink:href="#dirArrow" transform="translate(30 24)" onmousedown="handlePan(0,-1)">
                  <use xlink:href="#rim" fill="#404040">
                        <set attributeName="fill" to="#808080" begin="arrowUp.mouseover" end="arrowUp.mouseout"/>
                  </use>
                  <path fill="none" stroke="white" stroke-width="1.5" d="M0,-3.0v7 M-2.5,-0.5L0,-3.0L2.5,-0.5"/>
                </g>
                <g id="arrowRight" xlink:href="#dirArrow" transform="rotate(90) translate(36 -43)" onmousedown="handlePan(1,0)">
                  <use xlink:href="#rim" fill="#404040">
                        <set attributeName="fill" to="#808080" begin="arrowRight.mouseover" end="arrowRight.mouseout"/>
                  </use>
                  <path fill="none" stroke="white" stroke-width="1.5" d="M0,-3.0v7 M-2.5,-0.5L0,-3.0L2.5,-0.5"/>
                </g>
                <g id="arrowDown" xlink:href="#dirArrow" transform="rotate(180) translate(-30 -48)" onmousedown="handlePan(0,1)">
                  <use xlink:href="#rim" fill="#404040">
                        <set attributeName="fill" to="#808080" begin="arrowDown.mouseover" end="arrowDown.mouseout"/>
                  </use>
                  <path fill="none" stroke="white" stroke-width="1.5" d="M0,-3.0v7 M-2.5,-0.5L0,-3.0L2.5,-0.5"/>
                </g>
                <g id="arrowLeft" xlink:href="#dirArrow" transform="rotate(270) translate(-36 17)" onmousedown="handlePan(-1,0)">
                  <use xlink:href="#rim" fill="#404040">
                        <set attributeName="fill" to="#808080" begin="arrowLeft.mouseover" end="arrowLeft.mouseout"/>
                  </use>
                  <path fill="none" stroke="white" stroke-width="1.5" d="M0,-3.0v7 M-2.5,-0.5L0,-3.0L2.5,-0.5"/>
                </g>
        </g>
        <svg viewBox="0 0 15 15" width="100%" height="30px" preserveAspectRatio="xMaxYMin meet">
         <g id="arrow_out" transform="scale(0.3 0.3)">
          <a xlink:href="vabstractlayoutdialog_8h__dep__incl_org.svg" target="_base">
           <rect id="button" ry="5" rx="5" y="6" x="6" height="38" width="38"
                fill="#f2f5e9" fill-opacity="0.5" stroke="#606060" stroke-width="1.0"/>
           <path id="arrow"
             d="M 11.500037,31.436501 C 11.940474,20.09759 22.043105,11.32322 32.158766,21.979434 L 37.068811,17.246167 C 37.068811,17.246167 37.088388,32 37.088388,32 L 22.160133,31.978069 C 22.160133,31.978069 26.997745,27.140456 26.997745,27.140456 C 18.528582,18.264221 13.291696,25.230495 11.500037,31.436501 z"
             style="fill:#404040;"/>
          </a>
         </g>
        </svg>
</svg>
