<?xml version="1.0" encoding="UTF-8" standalone="no"?>
<!DOCTYPE svg PUBLIC "-//W3C//DTD SVG 1.1//EN"
 "http://www.w3.org/Graphics/SVG/1.1/DTD/svg11.dtd">
<!-- Generated by graphviz version 2.43.0 (0)
 -->
<!-- Title: src/app/seamly2d/dialogs/vabstractlayoutdialog.h Pages: 1 -->
<!--zoomable 307 -->
<svg id="main" version="1.1" xmlns="http://www.w3.org/2000/svg" xmlns:xlink="http://www.w3.org/1999/xlink" xml:space="preserve" onload="init(evt)">
<style type="text/css"><![CDATA[
.edge:hover path { stroke: red; }
.edge:hover polygon { stroke: red; fill: red; }
]]></style>
<script type="text/javascript"><![CDATA[
var edges = document.getElementsByTagName('g');
if (edges && edges.length) {
  for (var i=0;i<edges.length;i++) {
    if (edges[i].id.substr(0,4)=='edge') {
      edges[i].setAttribute('class','edge');
    }
  }
}
]]></script>
        <defs>
                <circle id="rim" cx="0" cy="0" r="7"/>
                <circle id="rim2" cx="0" cy="0" r="3.5"/>
                <g id="zoomPlus">
                        <use xlink:href="#rim" fill="#404040">
                                <set attributeName="fill" to="#808080" begin="zoomplus.mouseover" end="zoomplus.mouseout"/>
                        </use>
                        <path d="M-4,0h8M0,-4v8" fill="none" stroke="white" stroke-width="1.5" pointer-events="none"/>
                </g>
                <g id="zoomMin">
                        <use xlink:href="#rim" fill="#404040">
                                <set attributeName="fill" to="#808080" begin="zoomminus.mouseover" end="zoomminus.mouseout"/>
                        </use>
                        <path d="M-4,0h8" fill="none" stroke="white" stroke-width="1.5" pointer-events="none"/>
                </g>
                <g id="dirArrow">
                        <path fill="none" stroke="white" stroke-width="1.5" d="M0,-3.0v7 M-2.5,-0.5L0,-3.0L2.5,-0.5"/>
                </g>
               <g id="resetDef">
                       <use xlink:href="#rim2" fill="#404040">
                               <set attributeName="fill" to="#808080" begin="reset.mouseover" end="reset.mouseout"/>
                       </use>
               </g>
        </defs>

<script type="text/javascript">
var viewWidth = 4174;
var viewHeight = 307;
var sectionId = 'dynsection-1';
</script>
<script xlink:href="../../svgpan.js"/>
<svg id="graph" class="graph">
<g id="viewport">
<title>src/app/seamly2d/dialogs/vabstractlayoutdialog.h</title>
<polygon fill="white" stroke="transparent" points="-4,4 -4,-303 4169.5,-303 4169.5,4 -4,4"/>
<!-- Node1 -->
<g id="node1" class="node">
<title>Node1</title>
<g id="a_node1"><a xlink:title=" ">
<polygon fill="#bfbfbf" stroke="black" points="3720,-268.5 3720,-298.5 3861,-298.5 3861,-268.5 3720,-268.5"/>
<text text-anchor="start" x="3728" y="-286.5" font-family="Helvetica,sans-Serif" font-size="10.00">src/app/seamly2d/dialogs</text>
<text text-anchor="middle" x="3790.5" y="-275.5" font-family="Helvetica,sans-Serif" font-size="10.00">/vabstractlayoutdialog.h</text>
</a>
</g>
</g>
<!-- Node2 -->
<g id="node2" class="node">
<title>Node2</title>
<g id="a_node2"><a xlink:href="../../d2/d2b/dialoglayoutsettings_8h.html" target="_top" xlink:title=" ">
<polygon fill="white" stroke="black" points="2223,-201.5 2223,-231.5 2364,-231.5 2364,-201.5 2223,-201.5"/>
<text text-anchor="start" x="2231" y="-219.5" font-family="Helvetica,sans-Serif" font-size="10.00">src/app/seamly2d/dialogs</text>
<text text-anchor="middle" x="2293.5" y="-208.5" font-family="Helvetica,sans-Serif" font-size="10.00">/dialoglayoutsettings.h</text>
</a>
</g>
</g>
<!-- Node1&#45;&gt;Node2 -->
<g id="edge1" class="edge">
<title>Node1&#45;&gt;Node2</title>
<path fill="none" stroke="midnightblue" d="M3709.54,-278.98C3445.64,-267.53 2613.06,-231.38 2364.34,-220.58"/>
<polygon fill="midnightblue" stroke="midnightblue" points="3709.66,-282.49 3719.8,-279.43 3709.97,-275.5 3709.66,-282.49"/>
</g>
<!-- Node24 -->
<g id="node24" class="node">
<title>Node24</title>
<g id="a_node24"><a xlink:href="../../d5/de4/vabstractlayoutdialog_8cpp.html" target="_top" xlink:title=" ">
<polygon fill="white" stroke="black" points="4019.5,-0.5 4019.5,-30.5 4165.5,-30.5 4165.5,-0.5 4019.5,-0.5"/>
<text text-anchor="start" x="4027.5" y="-18.5" font-family="Helvetica,sans-Serif" font-size="10.00">src/app/seamly2d/dialogs</text>
<text text-anchor="middle" x="4092.5" y="-7.5" font-family="Helvetica,sans-Serif" font-size="10.00">/vabstractlayoutdialog.cpp</text>
</a>
</g>
</g>
<!-- Node1&#45;&gt;Node24 -->
<g id="edge41" class="edge">
<title>Node1&#45;&gt;Node24</title>
<path fill="none" stroke="midnightblue" d="M3823.87,-263.22C3838.35,-254.34 3855.22,-243.28 3869.5,-232 3956.11,-163.59 4047.01,-66.55 4079.79,-30.61"/>
<polygon fill="midnightblue" stroke="midnightblue" points="3821.96,-260.28 3815.21,-268.45 3825.57,-266.28 3821.96,-260.28"/>
</g>
<!-- Node30 -->
<g id="node30" class="node">
<title>Node30</title>
<g id="a_node30"><a xlink:href="../../d1/d8e/export__layout__dialog_8h.html" target="_top" xlink:title=" ">
<polygon fill="white" stroke="black" points="3720,-201.5 3720,-231.5 3861,-231.5 3861,-201.5 3720,-201.5"/>
<text text-anchor="start" x="3728" y="-219.5" font-family="Helvetica,sans-Serif" font-size="10.00">src/app/seamly2d/dialogs</text>
<text text-anchor="middle" x="3790.5" y="-208.5" font-family="Helvetica,sans-Serif" font-size="10.00">/export_layout_dialog.h</text>
</a>
</g>
</g>
<!-- Node1&#45;&gt;Node30 -->
<g id="edge35" class="edge">
<title>Node1&#45;&gt;Node30</title>
<path fill="none" stroke="midnightblue" d="M3790.5,-258.11C3790.5,-249.15 3790.5,-239.32 3790.5,-231.58"/>
<polygon fill="midnightblue" stroke="midnightblue" points="3787,-258.4 3790.5,-268.4 3794,-258.4 3787,-258.4"/>
</g>
<!-- Node3 -->
<g id="node3" class="node">
<title>Node3</title>
<g id="a_node3"><a xlink:href="../../df/d9b/vcmdexport_8cpp.html" target="_top" xlink:title=" ">
<polygon fill="white" stroke="black" points="2085,-67.5 2085,-97.5 2212,-97.5 2212,-67.5 2085,-67.5"/>
<text text-anchor="start" x="2093" y="-85.5" font-family="Helvetica,sans-Serif" font-size="10.00">src/app/seamly2d/core</text>
<text text-anchor="middle" x="2148.5" y="-74.5" font-family="Helvetica,sans-Serif" font-size="10.00">/vcmdexport.cpp</text>
</a>
</g>
</g>
<!-- Node2&#45;&gt;Node3 -->
<g id="edge2" class="edge">
<title>Node2&#45;&gt;Node3</title>
<path fill="none" stroke="midnightblue" d="M2261.69,-195.92C2248.41,-187.15 2233.17,-176.25 2220.5,-165 2196.5,-143.69 2172.63,-114.74 2159.29,-97.7"/>
<polygon fill="midnightblue" stroke="midnightblue" points="2259.79,-198.86 2270.08,-201.37 2263.6,-192.99 2259.79,-198.86"/>
</g>
<!-- Node4 -->
<g id="node4" class="node">
<title>Node4</title>
<g id="a_node4"><a xlink:href="../../dd/d57/vcmdexport_8h.html" target="_top" xlink:title=" ">
<polygon fill="white" stroke="black" points="2230,-134.5 2230,-164.5 2357,-164.5 2357,-134.5 2230,-134.5"/>
<text text-anchor="start" x="2238" y="-152.5" font-family="Helvetica,sans-Serif" font-size="10.00">src/app/seamly2d/core</text>
<text text-anchor="middle" x="2293.5" y="-141.5" font-family="Helvetica,sans-Serif" font-size="10.00">/vcmdexport.h</text>
</a>
</g>
</g>
<!-- Node2&#45;&gt;Node4 -->
<g id="edge3" class="edge">
<title>Node2&#45;&gt;Node4</title>
<path fill="none" stroke="midnightblue" d="M2293.5,-191.11C2293.5,-182.15 2293.5,-172.32 2293.5,-164.58"/>
<polygon fill="midnightblue" stroke="midnightblue" points="2290,-191.4 2293.5,-201.4 2297,-191.4 2290,-191.4"/>
</g>
<!-- Node16 -->
<g id="node16" class="node">
<title>Node16</title>
<g id="a_node16"><a xlink:href="../../db/def/dialoglayoutsettings_8cpp.html" target="_top" xlink:title=" ">
<polygon fill="white" stroke="black" points="0,-0.5 0,-30.5 141,-30.5 141,-0.5 0,-0.5"/>
<text text-anchor="start" x="8" y="-18.5" font-family="Helvetica,sans-Serif" font-size="10.00">src/app/seamly2d/dialogs</text>
<text text-anchor="middle" x="70.5" y="-7.5" font-family="Helvetica,sans-Serif" font-size="10.00">/dialoglayoutsettings.cpp</text>
</a>
</g>
</g>
<!-- Node2&#45;&gt;Node16 -->
<g id="edge33" class="edge">
<title>Node2&#45;&gt;Node16</title>
<path fill="none" stroke="midnightblue" d="M2212.69,-211.34C1928.73,-196.13 950.48,-138.72 149.5,-31 146.74,-30.63 143.92,-30.23 141.08,-29.8"/>
<polygon fill="midnightblue" stroke="midnightblue" points="2212.73,-214.85 2222.9,-211.89 2213.1,-207.86 2212.73,-214.85"/>
</g>
<!-- Node26 -->
<g id="node26" class="node">
<title>Node26</title>
<g id="a_node26"><a xlink:href="../../d8/de8/mainwindowsnogui_8cpp.html" target="_top" xlink:title=" ">
<polygon fill="white" stroke="black" points="3780,-6 3780,-25 4001,-25 4001,-6 3780,-6"/>
<text text-anchor="middle" x="3890.5" y="-13" font-family="Helvetica,sans-Serif" font-size="10.00">src/app/seamly2d/mainwindowsnogui.cpp</text>
</a>
</g>
</g>
<!-- Node2&#45;&gt;Node26 -->
<g id="edge34" class="edge">
<title>Node2&#45;&gt;Node26</title>
<path fill="none" stroke="midnightblue" d="M2374.33,-209.9C2564.98,-196.16 3057.42,-157.46 3465.5,-98 3609.17,-77.07 3778.12,-41.29 3852.31,-25.02"/>
<polygon fill="midnightblue" stroke="midnightblue" points="2373.84,-206.43 2364.11,-210.64 2374.34,-213.41 2373.84,-206.43"/>
</g>
<!-- Node4&#45;&gt;Node3 -->
<g id="edge28" class="edge">
<title>Node4&#45;&gt;Node3</title>
<path fill="none" stroke="midnightblue" d="M2252.83,-130.27C2229.74,-119.92 2201.26,-107.15 2179.9,-97.58"/>
<polygon fill="midnightblue" stroke="midnightblue" points="2251.48,-133.5 2262.04,-134.4 2254.34,-127.11 2251.48,-133.5"/>
</g>
<!-- Node5 -->
<g id="node5" class="node">
<title>Node5</title>
<g id="a_node5"><a xlink:href="../../d9/d02/vapplication_8h.html" target="_top" xlink:title=" ">
<polygon fill="white" stroke="black" points="2230,-67.5 2230,-97.5 2357,-97.5 2357,-67.5 2230,-67.5"/>
<text text-anchor="start" x="2238" y="-85.5" font-family="Helvetica,sans-Serif" font-size="10.00">src/app/seamly2d/core</text>
<text text-anchor="middle" x="2293.5" y="-74.5" font-family="Helvetica,sans-Serif" font-size="10.00">/vapplication.h</text>
</a>
</g>
</g>
<!-- Node4&#45;&gt;Node5 -->
<g id="edge4" class="edge">
<title>Node4&#45;&gt;Node5</title>
<path fill="none" stroke="midnightblue" d="M2293.5,-124.11C2293.5,-115.15 2293.5,-105.32 2293.5,-97.58"/>
<polygon fill="midnightblue" stroke="midnightblue" points="2290,-124.4 2293.5,-134.4 2297,-124.4 2290,-124.4"/>
</g>
<!-- Node29 -->
<g id="node29" class="node">
<title>Node29</title>
<g id="a_node29"><a xlink:href="../../d9/d53/mainwindow_8h.html" target="_top" xlink:title=" ">
<polygon fill="white" stroke="black" points="3280.5,-73 3280.5,-92 3456.5,-92 3456.5,-73 3280.5,-73"/>
<text text-anchor="middle" x="3368.5" y="-80" font-family="Helvetica,sans-Serif" font-size="10.00">src/app/seamly2d/mainwindow.h</text>
</a>
</g>
</g>
<!-- Node4&#45;&gt;Node29 -->
<g id="edge29" class="edge">
<title>Node4&#45;&gt;Node29</title>
<path fill="none" stroke="midnightblue" d="M2367.4,-144.03C2559.38,-132.42 3073.36,-101.35 3280.34,-88.83"/>
<polygon fill="midnightblue" stroke="midnightblue" points="2366.9,-140.56 2357.13,-144.65 2367.32,-147.54 2366.9,-140.56"/>
</g>
<!-- Node6 -->
<g id="node6" class="node">
<title>Node6</title>
<g id="a_node6"><a xlink:href="../../d3/dd8/vapplication_8cpp.html" target="_top" xlink:title=" ">
<polygon fill="white" stroke="black" points="3305,-0.5 3305,-30.5 3432,-30.5 3432,-0.5 3305,-0.5"/>
<text text-anchor="start" x="3313" y="-18.5" font-family="Helvetica,sans-Serif" font-size="10.00">src/app/seamly2d/core</text>
<text text-anchor="middle" x="3368.5" y="-7.5" font-family="Helvetica,sans-Serif" font-size="10.00">/vapplication.cpp</text>
</a>
</g>
</g>
<!-- Node5&#45;&gt;Node6 -->
<g id="edge5" class="edge">
<title>Node5&#45;&gt;Node6</title>
<path fill="none" stroke="midnightblue" d="M2367.19,-81.45C2533.44,-80.54 2950.1,-73.78 3295.5,-31 3298.58,-30.62 3301.72,-30.18 3304.89,-29.7"/>
<polygon fill="midnightblue" stroke="midnightblue" points="2367.07,-77.95 2357.08,-81.5 2367.1,-84.95 2367.07,-77.95"/>
</g>
<!-- Node7 -->
<g id="node7" class="node">
<title>Node7</title>
<g id="a_node7"><a xlink:href="../../d7/dfa/calculator__dialog_8cpp.html" target="_top" xlink:title=" ">
<polygon fill="white" stroke="black" points="1270,-0.5 1270,-30.5 1411,-30.5 1411,-0.5 1270,-0.5"/>
<text text-anchor="start" x="1278" y="-18.5" font-family="Helvetica,sans-Serif" font-size="10.00">src/app/seamly2d/dialogs</text>
<text text-anchor="middle" x="1340.5" y="-7.5" font-family="Helvetica,sans-Serif" font-size="10.00">/calculator_dialog.cpp</text>
</a>
</g>
</g>
<!-- Node5&#45;&gt;Node7 -->
<g id="edge6" class="edge">
<title>Node5&#45;&gt;Node7</title>
<path fill="none" stroke="midnightblue" d="M2219.85,-67.07C1864.97,-25.03 1770.29,-70.89 1419.5,-31 1416.73,-30.68 1413.91,-30.33 1411.06,-29.95"/>
<polygon fill="midnightblue" stroke="midnightblue" points="2219.54,-70.56 2229.89,-68.28 2220.38,-63.61 2219.54,-70.56"/>
</g>
<!-- Node8 -->
<g id="node8" class="node">
<title>Node8</title>
<g id="a_node8"><a xlink:href="../../d2/d2d/preferencesconfigurationpage_8cpp.html" target="_top" xlink:title=" ">
<polygon fill="white" stroke="black" points="1429,-0.5 1429,-30.5 1676,-30.5 1676,-0.5 1429,-0.5"/>
<text text-anchor="start" x="1437" y="-18.5" font-family="Helvetica,sans-Serif" font-size="10.00">src/app/seamly2d/dialogs</text>
<text text-anchor="middle" x="1552.5" y="-7.5" font-family="Helvetica,sans-Serif" font-size="10.00">/configpages/preferencesconfigurationpage.cpp</text>
</a>
</g>
</g>
<!-- Node5&#45;&gt;Node8 -->
<g id="edge7" class="edge">
<title>Node5&#45;&gt;Node8</title>
<path fill="none" stroke="midnightblue" d="M2219.91,-67.05C1982.54,-36.16 1919.65,-51.63 1685.5,-31 1682.38,-30.72 1679.21,-30.44 1676.02,-30.14"/>
<polygon fill="midnightblue" stroke="midnightblue" points="2219.51,-70.53 2229.88,-68.36 2220.42,-63.59 2219.51,-70.53"/>
</g>
<!-- Node9 -->
<g id="node9" class="node">
<title>Node9</title>
<g id="a_node9"><a xlink:href="../../d9/d70/preferencesgraphicsviewpage_8cpp.html" target="_top" xlink:title=" ">
<polygon fill="white" stroke="black" points="1694.5,-0.5 1694.5,-30.5 1942.5,-30.5 1942.5,-0.5 1694.5,-0.5"/>
<text text-anchor="start" x="1702.5" y="-18.5" font-family="Helvetica,sans-Serif" font-size="10.00">src/app/seamly2d/dialogs</text>
<text text-anchor="middle" x="1818.5" y="-7.5" font-family="Helvetica,sans-Serif" font-size="10.00">/configpages/preferencesgraphicsviewpage.cpp</text>
</a>
</g>
</g>
<!-- Node5&#45;&gt;Node9 -->
<g id="edge8" class="edge">
<title>Node5&#45;&gt;Node9</title>
<path fill="none" stroke="midnightblue" d="M2219.86,-66.99C2154.43,-56.82 2030.91,-41.66 1937.5,-30.5"/>
<polygon fill="midnightblue" stroke="midnightblue" points="2219.42,-70.47 2229.85,-68.58 2220.52,-63.55 2219.42,-70.47"/>
</g>
<!-- Node10 -->
<g id="node10" class="node">
<title>Node10</title>
<g id="a_node10"><a xlink:href="../../dc/d20/preferencespathpage_8cpp.html" target="_top" xlink:title=" ">
<polygon fill="white" stroke="black" points="1961,-0.5 1961,-30.5 2166,-30.5 2166,-0.5 1961,-0.5"/>
<text text-anchor="start" x="1969" y="-18.5" font-family="Helvetica,sans-Serif" font-size="10.00">src/app/seamly2d/dialogs</text>
<text text-anchor="middle" x="2063.5" y="-7.5" font-family="Helvetica,sans-Serif" font-size="10.00">/configpages/preferencespathpage.cpp</text>
</a>
</g>
</g>
<!-- Node5&#45;&gt;Node10 -->
<g id="edge9" class="edge">
<title>Node5&#45;&gt;Node10</title>
<path fill="none" stroke="midnightblue" d="M2234.11,-64.71C2196.68,-54.14 2148.9,-40.63 2113.43,-30.61"/>
<polygon fill="midnightblue" stroke="midnightblue" points="2233.3,-68.12 2243.88,-67.48 2235.21,-61.39 2233.3,-68.12"/>
</g>
<!-- Node11 -->
<g id="node11" class="node">
<title>Node11</title>
<g id="a_node11"><a xlink:href="../../dc/d63/preferencespatternpage_8cpp.html" target="_top" xlink:title=" ">
<polygon fill="white" stroke="black" points="2184.5,-0.5 2184.5,-30.5 2402.5,-30.5 2402.5,-0.5 2184.5,-0.5"/>
<text text-anchor="start" x="2192.5" y="-18.5" font-family="Helvetica,sans-Serif" font-size="10.00">src/app/seamly2d/dialogs</text>
<text text-anchor="middle" x="2293.5" y="-7.5" font-family="Helvetica,sans-Serif" font-size="10.00">/configpages/preferencespatternpage.cpp</text>
</a>
</g>
</g>
<!-- Node5&#45;&gt;Node11 -->
<g id="edge10" class="edge">
<title>Node5&#45;&gt;Node11</title>
<path fill="none" stroke="midnightblue" d="M2293.5,-57.11C2293.5,-48.15 2293.5,-38.32 2293.5,-30.58"/>
<polygon fill="midnightblue" stroke="midnightblue" points="2290,-57.4 2293.5,-67.4 2297,-57.4 2290,-57.4"/>
</g>
<!-- Node12 -->
<g id="node12" class="node">
<title>Node12</title>
<g id="a_node12"><a xlink:href="../../dd/dc2/decimalchart__dialog_8cpp.html" target="_top" xlink:title=" ">
<polygon fill="white" stroke="black" points="2421,-0.5 2421,-30.5 2562,-30.5 2562,-0.5 2421,-0.5"/>
<text text-anchor="start" x="2429" y="-18.5" font-family="Helvetica,sans-Serif" font-size="10.00">src/app/seamly2d/dialogs</text>
<text text-anchor="middle" x="2491.5" y="-7.5" font-family="Helvetica,sans-Serif" font-size="10.00">/decimalchart_dialog.cpp</text>
</a>
</g>
</g>
<!-- Node5&#45;&gt;Node12 -->
<g id="edge11" class="edge">
<title>Node5&#45;&gt;Node12</title>
<path fill="none" stroke="midnightblue" d="M2346.11,-64.23C2378.14,-53.71 2418.54,-40.45 2448.62,-30.58"/>
<polygon fill="midnightblue" stroke="midnightblue" points="2344.87,-60.95 2336.46,-67.4 2347.06,-67.6 2344.87,-60.95"/>
</g>
<!-- Node13 -->
<g id="node13" class="node">
<title>Node13</title>
<g id="a_node13"><a xlink:href="../../dd/d64/dialogaboutapp_8cpp.html" target="_top" xlink:title=" ">
<polygon fill="white" stroke="black" points="2580,-0.5 2580,-30.5 2721,-30.5 2721,-0.5 2580,-0.5"/>
<text text-anchor="start" x="2588" y="-18.5" font-family="Helvetica,sans-Serif" font-size="10.00">src/app/seamly2d/dialogs</text>
<text text-anchor="middle" x="2650.5" y="-7.5" font-family="Helvetica,sans-Serif" font-size="10.00">/dialogaboutapp.cpp</text>
</a>
</g>
</g>
<!-- Node5&#45;&gt;Node13 -->
<g id="edge12" class="edge">
<title>Node5&#45;&gt;Node13</title>
<path fill="none" stroke="midnightblue" d="M2367.49,-68.03C2429.85,-56.67 2518.5,-40.53 2579.89,-29.36"/>
<polygon fill="midnightblue" stroke="midnightblue" points="2366.54,-64.64 2357.32,-69.88 2367.79,-71.53 2366.54,-64.64"/>
</g>
<!-- Node14 -->
<g id="node14" class="node">
<title>Node14</title>
<g id="a_node14"><a xlink:href="../../d6/d89/dialoglayoutprogress_8cpp.html" target="_top" xlink:title=" ">
<polygon fill="white" stroke="black" points="2739,-0.5 2739,-30.5 2882,-30.5 2882,-0.5 2739,-0.5"/>
<text text-anchor="start" x="2747" y="-18.5" font-family="Helvetica,sans-Serif" font-size="10.00">src/app/seamly2d/dialogs</text>
<text text-anchor="middle" x="2810.5" y="-7.5" font-family="Helvetica,sans-Serif" font-size="10.00">/dialoglayoutprogress.cpp</text>
</a>
</g>
</g>
<!-- Node5&#45;&gt;Node14 -->
<g id="edge13" class="edge">
<title>Node5&#45;&gt;Node14</title>
<path fill="none" stroke="midnightblue" d="M2367.22,-74.37C2454.07,-65.64 2602.6,-49.69 2729.5,-31 2732.61,-30.54 2735.78,-30.06 2738.99,-29.55"/>
<polygon fill="midnightblue" stroke="midnightblue" points="2366.8,-70.89 2357.2,-75.37 2367.5,-77.85 2366.8,-70.89"/>
</g>
<!-- Node15 -->
<g id="node15" class="node">
<title>Node15</title>
<g id="a_node15"><a xlink:href="../../d2/d00/vtooloptionspropertybrowser_8cpp.html" target="_top" xlink:title=" ">
<polygon fill="white" stroke="black" points="2900.5,-0.5 2900.5,-30.5 3080.5,-30.5 3080.5,-0.5 2900.5,-0.5"/>
<text text-anchor="start" x="2908.5" y="-18.5" font-family="Helvetica,sans-Serif" font-size="10.00">src/app/seamly2d/core</text>
<text text-anchor="middle" x="2990.5" y="-7.5" font-family="Helvetica,sans-Serif" font-size="10.00">/vtooloptionspropertybrowser.cpp</text>
</a>
</g>
</g>
<!-- Node5&#45;&gt;Node15 -->
<g id="edge14" class="edge">
<title>Node5&#45;&gt;Node15</title>
<path fill="none" stroke="midnightblue" d="M2367.49,-76.67C2480.46,-68.96 2702.61,-52.55 2890.5,-31 2893.72,-30.63 2897,-30.24 2900.32,-29.83"/>
<polygon fill="midnightblue" stroke="midnightblue" points="2366.98,-73.19 2357.24,-77.36 2367.45,-80.18 2366.98,-73.19"/>
</g>
<!-- Node5&#45;&gt;Node16 -->
<g id="edge15" class="edge">
<title>Node5&#45;&gt;Node16</title>
<path fill="none" stroke="midnightblue" d="M2219.77,-67.09C1303.39,29.95 1062.18,-122.07 149.5,-31 146.72,-30.72 143.9,-30.4 141.05,-30.04"/>
<polygon fill="midnightblue" stroke="midnightblue" points="2219.59,-70.59 2229.9,-68.17 2220.33,-63.63 2219.59,-70.59"/>
</g>
<!-- Node17 -->
<g id="node17" class="node">
<title>Node17</title>
<g id="a_node17"><a xlink:href="../../de/d87/dialognewpattern_8cpp.html" target="_top" xlink:title=" ">
<polygon fill="white" stroke="black" points="159,-0.5 159,-30.5 300,-30.5 300,-0.5 159,-0.5"/>
<text text-anchor="start" x="167" y="-18.5" font-family="Helvetica,sans-Serif" font-size="10.00">src/app/seamly2d/dialogs</text>
<text text-anchor="middle" x="229.5" y="-7.5" font-family="Helvetica,sans-Serif" font-size="10.00">/dialognewpattern.cpp</text>
</a>
</g>
</g>
<!-- Node5&#45;&gt;Node17 -->
<g id="edge16" class="edge">
<title>Node5&#45;&gt;Node17</title>
<path fill="none" stroke="midnightblue" d="M2219.92,-67.11C1373.74,23.06 1150.86,-115.67 308.5,-31 305.73,-30.72 302.9,-30.4 300.05,-30.04"/>
<polygon fill="midnightblue" stroke="midnightblue" points="2219.58,-70.59 2229.9,-68.18 2220.33,-63.63 2219.58,-70.59"/>
</g>
<!-- Node18 -->
<g id="node18" class="node">
<title>Node18</title>
<g id="a_node18"><a xlink:href="../../d5/d18/dialogpatternproperties_8cpp.html" target="_top" xlink:title=" ">
<polygon fill="white" stroke="black" points="318,-0.5 318,-30.5 473,-30.5 473,-0.5 318,-0.5"/>
<text text-anchor="start" x="326" y="-18.5" font-family="Helvetica,sans-Serif" font-size="10.00">src/app/seamly2d/dialogs</text>
<text text-anchor="middle" x="395.5" y="-7.5" font-family="Helvetica,sans-Serif" font-size="10.00">/dialogpatternproperties.cpp</text>
</a>
</g>
</g>
<!-- Node5&#45;&gt;Node18 -->
<g id="edge17" class="edge">
<title>Node5&#45;&gt;Node18</title>
<path fill="none" stroke="midnightblue" d="M2219.68,-67.08C1450.21,15.57 1247.77,-103.14 481.5,-31 478.79,-30.74 476.03,-30.45 473.25,-30.13"/>
<polygon fill="midnightblue" stroke="midnightblue" points="2219.58,-70.59 2229.9,-68.18 2220.33,-63.63 2219.58,-70.59"/>
</g>
<!-- Node19 -->
<g id="node19" class="node">
<title>Node19</title>
<g id="a_node19"><a xlink:href="../../d5/dc5/dialogpreferences_8cpp.html" target="_top" xlink:title=" ">
<polygon fill="white" stroke="black" points="491,-0.5 491,-30.5 632,-30.5 632,-0.5 491,-0.5"/>
<text text-anchor="start" x="499" y="-18.5" font-family="Helvetica,sans-Serif" font-size="10.00">src/app/seamly2d/dialogs</text>
<text text-anchor="middle" x="561.5" y="-7.5" font-family="Helvetica,sans-Serif" font-size="10.00">/dialogpreferences.cpp</text>
</a>
</g>
</g>
<!-- Node5&#45;&gt;Node19 -->
<g id="edge18" class="edge">
<title>Node5&#45;&gt;Node19</title>
<path fill="none" stroke="midnightblue" d="M2219.83,-67.09C1520.54,8.64 1335.92,-102.29 640.5,-31 637.73,-30.72 634.9,-30.39 632.06,-30.02"/>
<polygon fill="midnightblue" stroke="midnightblue" points="2219.58,-70.59 2229.9,-68.19 2220.34,-63.63 2219.58,-70.59"/>
</g>
<!-- Node20 -->
<g id="node20" class="node">
<title>Node20</title>
<g id="a_node20"><a xlink:href="../../dd/d54/export__layout__dialog_8cpp.html" target="_top" xlink:title=" ">
<polygon fill="white" stroke="black" points="3619,-0.5 3619,-30.5 3762,-30.5 3762,-0.5 3619,-0.5"/>
<text text-anchor="start" x="3627" y="-18.5" font-family="Helvetica,sans-Serif" font-size="10.00">src/app/seamly2d/dialogs</text>
<text text-anchor="middle" x="3690.5" y="-7.5" font-family="Helvetica,sans-Serif" font-size="10.00">/export_layout_dialog.cpp</text>
</a>
</g>
</g>
<!-- Node5&#45;&gt;Node20 -->
<g id="edge19" class="edge">
<title>Node5&#45;&gt;Node20</title>
<path fill="none" stroke="midnightblue" d="M2367.18,-82.25C2567.45,-83.51 3138.34,-81.96 3609.5,-31 3612.48,-30.68 3615.52,-30.31 3618.59,-29.91"/>
<polygon fill="midnightblue" stroke="midnightblue" points="2367.09,-78.75 2357.07,-82.18 2367.05,-85.75 2367.09,-78.75"/>
</g>
<!-- Node21 -->
<g id="node21" class="node">
<title>Node21</title>
<g id="a_node21"><a xlink:href="../../db/d5c/groups__widget_8cpp.html" target="_top" xlink:title=" ">
<polygon fill="white" stroke="black" points="650,-0.5 650,-30.5 791,-30.5 791,-0.5 650,-0.5"/>
<text text-anchor="start" x="658" y="-18.5" font-family="Helvetica,sans-Serif" font-size="10.00">src/app/seamly2d/dialogs</text>
<text text-anchor="middle" x="720.5" y="-7.5" font-family="Helvetica,sans-Serif" font-size="10.00">/groups_widget.cpp</text>
</a>
</g>
</g>
<!-- Node5&#45;&gt;Node21 -->
<g id="edge20" class="edge">
<title>Node5&#45;&gt;Node21</title>
<path fill="none" stroke="midnightblue" d="M2219.67,-67.07C1590.83,1.74 1424.51,-95.87 799.5,-31 796.73,-30.71 793.9,-30.38 791.06,-30.01"/>
<polygon fill="midnightblue" stroke="midnightblue" points="2219.57,-70.58 2229.9,-68.2 2220.34,-63.63 2219.57,-70.58"/>
</g>
<!-- Node22 -->
<g id="node22" class="node">
<title>Node22</title>
<g id="a_node22"><a xlink:href="../../dd/d84/shortcuts__dialog_8cpp.html" target="_top" xlink:title=" ">
<polygon fill="white" stroke="black" points="809,-0.5 809,-30.5 950,-30.5 950,-0.5 809,-0.5"/>
<text text-anchor="start" x="817" y="-18.5" font-family="Helvetica,sans-Serif" font-size="10.00">src/app/seamly2d/dialogs</text>
<text text-anchor="middle" x="879.5" y="-7.5" font-family="Helvetica,sans-Serif" font-size="10.00">/shortcuts_dialog.cpp</text>
</a>
</g>
</g>
<!-- Node5&#45;&gt;Node22 -->
<g id="edge21" class="edge">
<title>Node5&#45;&gt;Node22</title>
<path fill="none" stroke="midnightblue" d="M2219.56,-67.06C1661.11,-5.16 1513.12,-89.46 958.5,-31 955.73,-30.71 952.9,-30.37 950.06,-30"/>
<polygon fill="midnightblue" stroke="midnightblue" points="2219.57,-70.58 2229.9,-68.21 2220.35,-63.62 2219.57,-70.58"/>
</g>
<!-- Node23 -->
<g id="node23" class="node">
<title>Node23</title>
<g id="a_node23"><a xlink:href="../../d2/df4/show__info__dialog_8cpp.html" target="_top" xlink:title=" ">
<polygon fill="white" stroke="black" points="968,-0.5 968,-30.5 1109,-30.5 1109,-0.5 968,-0.5"/>
<text text-anchor="start" x="976" y="-18.5" font-family="Helvetica,sans-Serif" font-size="10.00">src/app/seamly2d/dialogs</text>
<text text-anchor="middle" x="1038.5" y="-7.5" font-family="Helvetica,sans-Serif" font-size="10.00">/show_info_dialog.cpp</text>
</a>
</g>
</g>
<!-- Node5&#45;&gt;Node23 -->
<g id="edge22" class="edge">
<title>Node5&#45;&gt;Node23</title>
<path fill="none" stroke="midnightblue" d="M2219.76,-67.08C1731.45,-12.02 1601.84,-83.06 1117.5,-31 1114.73,-30.7 1111.91,-30.36 1109.06,-29.99"/>
<polygon fill="midnightblue" stroke="midnightblue" points="2219.56,-70.58 2229.9,-68.23 2220.36,-63.62 2219.56,-70.58"/>
</g>
<!-- Node5&#45;&gt;Node24 -->
<g id="edge23" class="edge">
<title>Node5&#45;&gt;Node24</title>
<path fill="none" stroke="midnightblue" d="M2367.25,-80.74C2652.48,-77.58 3683.65,-64.09 4009.5,-31 4012.7,-30.67 4015.97,-30.3 4019.26,-29.88"/>
<polygon fill="midnightblue" stroke="midnightblue" points="2366.98,-77.24 2357.02,-80.85 2367.06,-84.24 2366.98,-77.24"/>
</g>
<!-- Node25 -->
<g id="node25" class="node">
<title>Node25</title>
<g id="a_node25"><a xlink:href="../../dc/d14/app_2seamly2d_2main_8cpp.html" target="_top" xlink:title=" ">
<polygon fill="white" stroke="black" points="3450,-6 3450,-25 3601,-25 3601,-6 3450,-6"/>
<text text-anchor="middle" x="3525.5" y="-13" font-family="Helvetica,sans-Serif" font-size="10.00">src/app/seamly2d/main.cpp</text>
</a>
</g>
</g>
<!-- Node5&#45;&gt;Node25 -->
<g id="edge24" class="edge">
<title>Node5&#45;&gt;Node25</title>
<path fill="none" stroke="midnightblue" d="M2367.14,-81.44C2549.56,-80.6 3036.87,-74.14 3440.5,-31 3454.05,-29.55 3468.7,-27.3 3481.97,-25"/>
<polygon fill="midnightblue" stroke="midnightblue" points="2367.11,-77.94 2357.12,-81.48 2367.14,-84.94 2367.11,-77.94"/>
</g>
<!-- Node5&#45;&gt;Node26 -->
<g id="edge25" class="edge">
<title>Node5&#45;&gt;Node26</title>
<path fill="none" stroke="midnightblue" d="M2367.59,-81.22C2583.94,-79.91 3233.46,-72.55 3770.5,-31 3789.43,-29.54 3809.98,-27.29 3828.63,-25.01"/>
<polygon fill="midnightblue" stroke="midnightblue" points="2367.29,-77.72 2357.31,-81.28 2367.33,-84.72 2367.29,-77.72"/>
</g>
<!-- Node27 -->
<g id="node27" class="node">
<title>Node27</title>
<g id="a_node27"><a xlink:href="../../d8/dd9/mainwindow_8cpp.html" target="_top" xlink:title=" ">
<polygon fill="white" stroke="black" points="3098.5,-6 3098.5,-25 3286.5,-25 3286.5,-6 3098.5,-6"/>
<text text-anchor="middle" x="3192.5" y="-13" font-family="Helvetica,sans-Serif" font-size="10.00">src/app/seamly2d/mainwindow.cpp</text>
</a>
</g>
</g>
<!-- Node5&#45;&gt;Node27 -->
<g id="edge26" class="edge">
<title>Node5&#45;&gt;Node27</title>
<path fill="none" stroke="midnightblue" d="M2367.33,-78.7C2508.07,-72.96 2824.41,-58.03 3089.5,-31 3105.13,-29.41 3122.03,-27.22 3137.54,-25.03"/>
<polygon fill="midnightblue" stroke="midnightblue" points="2366.94,-75.22 2357.09,-79.12 2367.23,-82.21 2366.94,-75.22"/>
</g>
<!-- Node28 -->
<g id="node28" class="node">
<title>Node28</title>
<g id="a_node28"><a xlink:href="../../d3/d49/vpattern_8cpp.html" target="_top" xlink:title=" ">
<polygon fill="white" stroke="black" points="1127,-0.5 1127,-30.5 1252,-30.5 1252,-0.5 1127,-0.5"/>
<text text-anchor="start" x="1135" y="-18.5" font-family="Helvetica,sans-Serif" font-size="10.00">src/app/seamly2d/xml</text>
<text text-anchor="middle" x="1189.5" y="-7.5" font-family="Helvetica,sans-Serif" font-size="10.00">/vpattern.cpp</text>
</a>
</g>
</g>
<!-- Node5&#45;&gt;Node28 -->
<g id="edge27" class="edge">
<title>Node5&#45;&gt;Node28</title>
<path fill="none" stroke="midnightblue" d="M2219.79,-67.07C1794.67,-18.25 1681.11,-81.49 1260.5,-31 1257.75,-30.67 1254.95,-30.29 1252.13,-29.87"/>
<polygon fill="midnightblue" stroke="midnightblue" points="2219.56,-70.57 2229.89,-68.25 2220.36,-63.62 2219.56,-70.57"/>
</g>
<!-- Node29&#45;&gt;Node6 -->
<g id="edge30" class="edge">
<title>Node29&#45;&gt;Node6</title>
<path fill="none" stroke="midnightblue" d="M3368.5,-62.41C3368.5,-52.22 3368.5,-39.9 3368.5,-30.59"/>
<polygon fill="midnightblue" stroke="midnightblue" points="3365,-62.73 3368.5,-72.73 3372,-62.73 3365,-62.73"/>
</g>
<!-- Node29&#45;&gt;Node25 -->
<g id="edge31" class="edge">
<title>Node29&#45;&gt;Node25</title>
<path fill="none" stroke="midnightblue" d="M3398.82,-68.95C3429.9,-56.08 3477.43,-36.4 3504.57,-25.17"/>
<polygon fill="midnightblue" stroke="midnightblue" points="3397.25,-65.81 3389.35,-72.87 3399.93,-72.28 3397.25,-65.81"/>
</g>
<!-- Node29&#45;&gt;Node27 -->
<g id="edge32" class="edge">
<title>Node29&#45;&gt;Node27</title>
<path fill="none" stroke="midnightblue" d="M3335.39,-69.27C3300.46,-56.37 3246.32,-36.38 3215.69,-25.06"/>
<polygon fill="midnightblue" stroke="midnightblue" points="3334.54,-72.69 3345.13,-72.87 3336.96,-66.12 3334.54,-72.69"/>
</g>
<!-- Node30&#45;&gt;Node20 -->
<g id="edge36" class="edge">
<title>Node30&#45;&gt;Node20</title>
<path fill="none" stroke="midnightblue" d="M3716.48,-197.36C3700.71,-189.95 3685.97,-179.56 3676.5,-165 3648.96,-122.68 3671.5,-58.67 3683.8,-30.57"/>
<polygon fill="midnightblue" stroke="midnightblue" points="3715.28,-200.66 3725.85,-201.39 3718.05,-194.23 3715.28,-200.66"/>
</g>
<!-- Node30&#45;&gt;Node26 -->
<g id="edge37" class="edge">
<title>Node30&#45;&gt;Node26</title>
<path fill="none" stroke="midnightblue" d="M3863.4,-197.46C3879.21,-190.04 3894.02,-179.62 3903.5,-165 3932.93,-119.62 3905.64,-49.36 3894.63,-25.09"/>
<polygon fill="midnightblue" stroke="midnightblue" points="3861.81,-194.34 3854,-201.5 3864.57,-200.77 3861.81,-194.34"/>
</g>
<!-- Node31 -->
<g id="node31" class="node">
<title>Node31</title>
<g id="a_node31"><a xlink:href="../../d1/d82/mainwindowsnogui_8h.html" target="_top" xlink:title=" ">
<polygon fill="white" stroke="black" points="3686,-140 3686,-159 3895,-159 3895,-140 3686,-140"/>
<text text-anchor="middle" x="3790.5" y="-147" font-family="Helvetica,sans-Serif" font-size="10.00">src/app/seamly2d/mainwindowsnogui.h</text>
</a>
</g>
</g>
<!-- Node30&#45;&gt;Node31 -->
<g id="edge38" class="edge">
<title>Node30&#45;&gt;Node31</title>
<path fill="none" stroke="midnightblue" d="M3790.5,-191.25C3790.5,-180.02 3790.5,-167.38 3790.5,-159.19"/>
<polygon fill="midnightblue" stroke="midnightblue" points="3787,-191.4 3790.5,-201.4 3794,-191.4 3787,-191.4"/>
</g>
<!-- Node31&#45;&gt;Node26 -->
<g id="edge40" class="edge">
<title>Node31&#45;&gt;Node26</title>
<path fill="none" stroke="midnightblue" d="M3803.25,-131.66C3824.83,-103.18 3867.77,-46.5 3884.04,-25.02"/>
<polygon fill="midnightblue" stroke="midnightblue" points="3800.31,-129.75 3797.06,-139.84 3805.89,-133.98 3800.31,-129.75"/>
</g>
<!-- Node31&#45;&gt;Node29 -->
<g id="edge39" class="edge">
<title>Node31&#45;&gt;Node29</title>
<path fill="none" stroke="midnightblue" d="M3724.86,-138.39C3642.14,-125.65 3501.44,-103.98 3423.89,-92.03"/>
<polygon fill="midnightblue" stroke="midnightblue" points="3724.48,-141.87 3734.9,-139.94 3725.55,-134.95 3724.48,-141.87"/>
</g>
</g>
</svg>
        <g id="navigator" transform="translate(0 0)" fill="#404254">
                <rect fill="#f2f5e9" fill-opacity="0.5" stroke="#606060" stroke-width=".5" x="0" y="0" width="60" height="60"/>
                <use id="zoomplus" xlink:href="#zoomPlus" x="17" y="9" onmousedown="handleZoom(evt,'in')"/>
                <use id="zoomminus" xlink:href="#zoomMin" x="42" y="9" onmousedown="handleZoom(evt,'out')"/>
                <use id="reset" xlink:href="#resetDef" x="30" y="36" onmousedown="handleReset()"/>
                <g id="arrowUp" xlink:href="#dirArrow" transform="translate(30 24)" onmousedown="handlePan(0,-1)">
                  <use xlink:href="#rim" fill="#404040">
                        <set attributeName="fill" to="#808080" begin="arrowUp.mouseover" end="arrowUp.mouseout"/>
                  </use>
                  <path fill="none" stroke="white" stroke-width="1.5" d="M0,-3.0v7 M-2.5,-0.5L0,-3.0L2.5,-0.5"/>
                </g>
                <g id="arrowRight" xlink:href="#dirArrow" transform="rotate(90) translate(36 -43)" onmousedown="handlePan(1,0)">
                  <use xlink:href="#rim" fill="#404040">
                        <set attributeName="fill" to="#808080" begin="arrowRight.mouseover" end="arrowRight.mouseout"/>
                  </use>
                  <path fill="none" stroke="white" stroke-width="1.5" d="M0,-3.0v7 M-2.5,-0.5L0,-3.0L2.5,-0.5"/>
                </g>
                <g id="arrowDown" xlink:href="#dirArrow" transform="rotate(180) translate(-30 -48)" onmousedown="handlePan(0,1)">
                  <use xlink:href="#rim" fill="#404040">
                        <set attributeName="fill" to="#808080" begin="arrowDown.mouseover" end="arrowDown.mouseout"/>
                  </use>
                  <path fill="none" stroke="white" stroke-width="1.5" d="M0,-3.0v7 M-2.5,-0.5L0,-3.0L2.5,-0.5"/>
                </g>
                <g id="arrowLeft" xlink:href="#dirArrow" transform="rotate(270) translate(-36 17)" onmousedown="handlePan(-1,0)">
                  <use xlink:href="#rim" fill="#404040">
                        <set attributeName="fill" to="#808080" begin="arrowLeft.mouseover" end="arrowLeft.mouseout"/>
                  </use>
                  <path fill="none" stroke="white" stroke-width="1.5" d="M0,-3.0v7 M-2.5,-0.5L0,-3.0L2.5,-0.5"/>
                </g>
        </g>
        <svg viewBox="0 0 15 15" width="100%" height="30px" preserveAspectRatio="xMaxYMin meet">
         <g id="arrow_out" transform="scale(0.3 0.3)">
          <a xlink:href="vabstractlayoutdialog_8h__dep__incl_org.svg" target="_base">
           <rect id="button" ry="5" rx="5" y="6" x="6" height="38" width="38"
                fill="#f2f5e9" fill-opacity="0.5" stroke="#606060" stroke-width="1.0"/>
           <path id="arrow"
             d="M 11.500037,31.436501 C 11.940474,20.09759 22.043105,11.32322 32.158766,21.979434 L 37.068811,17.246167 C 37.068811,17.246167 37.088388,32 37.088388,32 L 22.160133,31.978069 C 22.160133,31.978069 26.997745,27.140456 26.997745,27.140456 C 18.528582,18.264221 13.291696,25.230495 11.500037,31.436501 z"
             style="fill:#404040;"/>
          </a>
         </g>
        </svg>
</svg>
