<?xml version="1.0" encoding="UTF-8" standalone="no"?>
<!DOCTYPE svg PUBLIC "-//W3C//DTD SVG 1.1//EN"
 "http://www.w3.org/Graphics/SVG/1.1/DTD/svg11.dtd">
<!-- Generated by graphviz version 2.43.0 (0)
 -->
<!-- Title: src/app/seamly2d/dialogs/vabstractlayoutdialog.h Pages: 1 -->
<!--zoomable 307 -->
<svg id="main" version="1.1" xmlns="http://www.w3.org/2000/svg" xmlns:xlink="http://www.w3.org/1999/xlink" xml:space="preserve" onload="init(evt)">
<style type="text/css"><![CDATA[
.edge:hover path { stroke: red; }
.edge:hover polygon { stroke: red; fill: red; }
]]></style>
<script type="text/javascript"><![CDATA[
var edges = document.getElementsByTagName('g');
if (edges && edges.length) {
  for (var i=0;i<edges.length;i++) {
    if (edges[i].id.substr(0,4)=='edge') {
      edges[i].setAttribute('class','edge');
    }
  }
}
]]></script>
        <defs>
                <circle id="rim" cx="0" cy="0" r="7"/>
                <circle id="rim2" cx="0" cy="0" r="3.5"/>
                <g id="zoomPlus">
                        <use xlink:href="#rim" fill="#404040">
                                <set attributeName="fill" to="#808080" begin="zoomplus.mouseover" end="zoomplus.mouseout"/>
                        </use>
                        <path d="M-4,0h8M0,-4v8" fill="none" stroke="white" stroke-width="1.5" pointer-events="none"/>
                </g>
                <g id="zoomMin">
                        <use xlink:href="#rim" fill="#404040">
                                <set attributeName="fill" to="#808080" begin="zoomminus.mouseover" end="zoomminus.mouseout"/>
                        </use>
                        <path d="M-4,0h8" fill="none" stroke="white" stroke-width="1.5" pointer-events="none"/>
                </g>
                <g id="dirArrow">
                        <path fill="none" stroke="white" stroke-width="1.5" d="M0,-3.0v7 M-2.5,-0.5L0,-3.0L2.5,-0.5"/>
                </g>
               <g id="resetDef">
                       <use xlink:href="#rim2" fill="#404040">
                               <set attributeName="fill" to="#808080" begin="reset.mouseover" end="reset.mouseout"/>
                       </use>
               </g>
        </defs>

<script type="text/javascript">
var viewWidth = 4175;
var viewHeight = 307;
var sectionId = 'dynsection-1';
</script>
<script xlink:href="../../svgpan.js"/>
<svg id="graph" class="graph">
<g id="viewport">
<title>src/app/seamly2d/dialogs/vabstractlayoutdialog.h</title>
<polygon fill="white" stroke="transparent" points="-4,4 -4,-303 4170.5,-303 4170.5,4 -4,4"/>
<!-- Node1 -->
<g id="node1" class="node">
<title>Node1</title>
<g id="a_node1"><a xlink:title=" ">
<polygon fill="#bfbfbf" stroke="black" points="3721,-268.5 3721,-298.5 3862,-298.5 3862,-268.5 3721,-268.5"/>
<text text-anchor="start" x="3729" y="-286.5" font-family="Helvetica,sans-Serif" font-size="10.00">src/app/seamly2d/dialogs</text>
<text text-anchor="middle" x="3791.5" y="-275.5" font-family="Helvetica,sans-Serif" font-size="10.00">/vabstractlayoutdialog.h</text>
</a>
</g>
</g>
<!-- Node2 -->
<g id="node2" class="node">
<title>Node2</title>
<g id="a_node2"><a xlink:href="../../d2/d2b/dialoglayoutsettings_8h.html" target="_top" xlink:title=" ">
<polygon fill="white" stroke="black" points="2157,-201.5 2157,-231.5 2298,-231.5 2298,-201.5 2157,-201.5"/>
<text text-anchor="start" x="2165" y="-219.5" font-family="Helvetica,sans-Serif" font-size="10.00">src/app/seamly2d/dialogs</text>
<text text-anchor="middle" x="2227.5" y="-208.5" font-family="Helvetica,sans-Serif" font-size="10.00">/dialoglayoutsettings.h</text>
</a>
</g>
</g>
<!-- Node1&#45;&gt;Node2 -->
<g id="edge1" class="edge">
<title>Node1&#45;&gt;Node2</title>
<path fill="none" stroke="midnightblue" d="M3710.53,-279.13C3437.8,-267.8 2555.39,-231.13 2298.36,-220.45"/>
<polygon fill="midnightblue" stroke="midnightblue" points="3710.61,-282.64 3720.75,-279.56 3710.9,-275.65 3710.61,-282.64"/>
</g>
<!-- Node24 -->
<g id="node24" class="node">
<title>Node24</title>
<g id="a_node24"><a xlink:href="../../d5/de4/vabstractlayoutdialog_8cpp.html" target="_top" xlink:title=" ">
<polygon fill="white" stroke="black" points="4020.5,-0.5 4020.5,-30.5 4166.5,-30.5 4166.5,-0.5 4020.5,-0.5"/>
<text text-anchor="start" x="4028.5" y="-18.5" font-family="Helvetica,sans-Serif" font-size="10.00">src/app/seamly2d/dialogs</text>
<text text-anchor="middle" x="4093.5" y="-7.5" font-family="Helvetica,sans-Serif" font-size="10.00">/vabstractlayoutdialog.cpp</text>
</a>
</g>
</g>
<!-- Node1&#45;&gt;Node24 -->
<g id="edge41" class="edge">
<title>Node1&#45;&gt;Node24</title>
<path fill="none" stroke="midnightblue" d="M3824.87,-263.22C3839.35,-254.34 3856.22,-243.28 3870.5,-232 3957.11,-163.59 4048.01,-66.55 4080.79,-30.61"/>
<polygon fill="midnightblue" stroke="midnightblue" points="3822.96,-260.28 3816.21,-268.45 3826.57,-266.28 3822.96,-260.28"/>
</g>
<!-- Node30 -->
<g id="node30" class="node">
<title>Node30</title>
<g id="a_node30"><a xlink:href="../../d1/d8e/export__layout__dialog_8h.html" target="_top" xlink:title=" ">
<polygon fill="white" stroke="black" points="3721,-201.5 3721,-231.5 3862,-231.5 3862,-201.5 3721,-201.5"/>
<text text-anchor="start" x="3729" y="-219.5" font-family="Helvetica,sans-Serif" font-size="10.00">src/app/seamly2d/dialogs</text>
<text text-anchor="middle" x="3791.5" y="-208.5" font-family="Helvetica,sans-Serif" font-size="10.00">/export_layout_dialog.h</text>
</a>
</g>
</g>
<!-- Node1&#45;&gt;Node30 -->
<g id="edge35" class="edge">
<title>Node1&#45;&gt;Node30</title>
<path fill="none" stroke="midnightblue" d="M3791.5,-258.11C3791.5,-249.15 3791.5,-239.32 3791.5,-231.58"/>
<polygon fill="midnightblue" stroke="midnightblue" points="3788,-258.4 3791.5,-268.4 3795,-258.4 3788,-258.4"/>
</g>
<!-- Node3 -->
<g id="node3" class="node">
<title>Node3</title>
<g id="a_node3"><a xlink:href="../../df/d9b/vcmdexport_8cpp.html" target="_top" xlink:title=" ">
<polygon fill="white" stroke="black" points="2019,-67.5 2019,-97.5 2146,-97.5 2146,-67.5 2019,-67.5"/>
<text text-anchor="start" x="2027" y="-85.5" font-family="Helvetica,sans-Serif" font-size="10.00">src/app/seamly2d/core</text>
<text text-anchor="middle" x="2082.5" y="-74.5" font-family="Helvetica,sans-Serif" font-size="10.00">/vcmdexport.cpp</text>
</a>
</g>
</g>
<!-- Node2&#45;&gt;Node3 -->
<g id="edge2" class="edge">
<title>Node2&#45;&gt;Node3</title>
<path fill="none" stroke="midnightblue" d="M2195.69,-195.92C2182.41,-187.15 2167.17,-176.25 2154.5,-165 2130.5,-143.69 2106.63,-114.74 2093.29,-97.7"/>
<polygon fill="midnightblue" stroke="midnightblue" points="2193.79,-198.86 2204.08,-201.37 2197.6,-192.99 2193.79,-198.86"/>
</g>
<!-- Node4 -->
<g id="node4" class="node">
<title>Node4</title>
<g id="a_node4"><a xlink:href="../../dd/d57/vcmdexport_8h.html" target="_top" xlink:title=" ">
<polygon fill="white" stroke="black" points="2164,-134.5 2164,-164.5 2291,-164.5 2291,-134.5 2164,-134.5"/>
<text text-anchor="start" x="2172" y="-152.5" font-family="Helvetica,sans-Serif" font-size="10.00">src/app/seamly2d/core</text>
<text text-anchor="middle" x="2227.5" y="-141.5" font-family="Helvetica,sans-Serif" font-size="10.00">/vcmdexport.h</text>
</a>
</g>
</g>
<!-- Node2&#45;&gt;Node4 -->
<g id="edge3" class="edge">
<title>Node2&#45;&gt;Node4</title>
<path fill="none" stroke="midnightblue" d="M2227.5,-191.11C2227.5,-182.15 2227.5,-172.32 2227.5,-164.58"/>
<polygon fill="midnightblue" stroke="midnightblue" points="2224,-191.4 2227.5,-201.4 2231,-191.4 2224,-191.4"/>
</g>
<!-- Node16 -->
<g id="node16" class="node">
<title>Node16</title>
<g id="a_node16"><a xlink:href="../../db/def/dialoglayoutsettings_8cpp.html" target="_top" xlink:title=" ">
<polygon fill="white" stroke="black" points="0,-0.5 0,-30.5 141,-30.5 141,-0.5 0,-0.5"/>
<text text-anchor="start" x="8" y="-18.5" font-family="Helvetica,sans-Serif" font-size="10.00">src/app/seamly2d/dialogs</text>
<text text-anchor="middle" x="70.5" y="-7.5" font-family="Helvetica,sans-Serif" font-size="10.00">/dialoglayoutsettings.cpp</text>
</a>
</g>
</g>
<!-- Node2&#45;&gt;Node16 -->
<g id="edge33" class="edge">
<title>Node2&#45;&gt;Node16</title>
<path fill="none" stroke="midnightblue" d="M2146.81,-211.04C1868.56,-195.1 923.65,-136.18 149.5,-31 146.74,-30.62 143.92,-30.22 141.08,-29.79"/>
<polygon fill="midnightblue" stroke="midnightblue" points="2146.64,-214.54 2156.82,-211.62 2147.04,-207.55 2146.64,-214.54"/>
</g>
<!-- Node26 -->
<g id="node26" class="node">
<title>Node26</title>
<g id="a_node26"><a xlink:href="../../d8/de8/mainwindowsnogui_8cpp.html" target="_top" xlink:title=" ">
<polygon fill="white" stroke="black" points="3781,-6 3781,-25 4002,-25 4002,-6 3781,-6"/>
<text text-anchor="middle" x="3891.5" y="-13" font-family="Helvetica,sans-Serif" font-size="10.00">src/app/seamly2d/mainwindowsnogui.cpp</text>
</a>
</g>
</g>
<!-- Node2&#45;&gt;Node26 -->
<g id="edge34" class="edge">
<title>Node2&#45;&gt;Node26</title>
<path fill="none" stroke="midnightblue" d="M2308.36,-210.5C2506.51,-197.67 3031.83,-160.14 3466.5,-98 3610.41,-77.42 3779.58,-41.39 3853.61,-25.02"/>
<polygon fill="midnightblue" stroke="midnightblue" points="2308.08,-207.01 2298.32,-211.15 2308.53,-214 2308.08,-207.01"/>
</g>
<!-- Node4&#45;&gt;Node3 -->
<g id="edge28" class="edge">
<title>Node4&#45;&gt;Node3</title>
<path fill="none" stroke="midnightblue" d="M2186.83,-130.27C2163.74,-119.92 2135.26,-107.15 2113.9,-97.58"/>
<polygon fill="midnightblue" stroke="midnightblue" points="2185.48,-133.5 2196.04,-134.4 2188.34,-127.11 2185.48,-133.5"/>
</g>
<!-- Node5 -->
<g id="node5" class="node">
<title>Node5</title>
<g id="a_node5"><a xlink:href="../../d9/d02/vapplication_8h.html" target="_top" xlink:title=" ">
<polygon fill="white" stroke="black" points="2164,-67.5 2164,-97.5 2291,-97.5 2291,-67.5 2164,-67.5"/>
<text text-anchor="start" x="2172" y="-85.5" font-family="Helvetica,sans-Serif" font-size="10.00">src/app/seamly2d/core</text>
<text text-anchor="middle" x="2227.5" y="-74.5" font-family="Helvetica,sans-Serif" font-size="10.00">/vapplication.h</text>
</a>
</g>
</g>
<!-- Node4&#45;&gt;Node5 -->
<g id="edge4" class="edge">
<title>Node4&#45;&gt;Node5</title>
<path fill="none" stroke="midnightblue" d="M2227.5,-124.11C2227.5,-115.15 2227.5,-105.32 2227.5,-97.58"/>
<polygon fill="midnightblue" stroke="midnightblue" points="2224,-124.4 2227.5,-134.4 2231,-124.4 2224,-124.4"/>
</g>
<!-- Node29 -->
<g id="node29" class="node">
<title>Node29</title>
<g id="a_node29"><a xlink:href="../../d9/d53/mainwindow_8h.html" target="_top" xlink:title=" ">
<polygon fill="white" stroke="black" points="3281.5,-73 3281.5,-92 3457.5,-92 3457.5,-73 3281.5,-73"/>
<text text-anchor="middle" x="3369.5" y="-80" font-family="Helvetica,sans-Serif" font-size="10.00">src/app/seamly2d/mainwindow.h</text>
</a>
</g>
</g>
<!-- Node4&#45;&gt;Node29 -->
<g id="edge29" class="edge">
<title>Node4&#45;&gt;Node29</title>
<path fill="none" stroke="midnightblue" d="M2301.55,-144.29C2503.5,-132.79 3063.23,-100.93 3281.11,-88.53"/>
<polygon fill="midnightblue" stroke="midnightblue" points="2301.13,-140.8 2291.35,-144.87 2301.53,-147.79 2301.13,-140.8"/>
</g>
<!-- Node6 -->
<g id="node6" class="node">
<title>Node6</title>
<g id="a_node6"><a xlink:href="../../d3/dd8/vapplication_8cpp.html" target="_top" xlink:title=" ">
<polygon fill="white" stroke="black" points="3306,-0.5 3306,-30.5 3433,-30.5 3433,-0.5 3306,-0.5"/>
<text text-anchor="start" x="3314" y="-18.5" font-family="Helvetica,sans-Serif" font-size="10.00">src/app/seamly2d/core</text>
<text text-anchor="middle" x="3369.5" y="-7.5" font-family="Helvetica,sans-Serif" font-size="10.00">/vapplication.cpp</text>
</a>
</g>
</g>
<!-- Node5&#45;&gt;Node6 -->
<g id="edge5" class="edge">
<title>Node5&#45;&gt;Node6</title>
<path fill="none" stroke="midnightblue" d="M2301.09,-81.79C2474.95,-81.64 2924.46,-76.48 3296.5,-31 3299.58,-30.62 3302.72,-30.19 3305.89,-29.71"/>
<polygon fill="midnightblue" stroke="midnightblue" points="2301.03,-78.29 2291.03,-81.79 2301.04,-85.29 2301.03,-78.29"/>
</g>
<!-- Node7 -->
<g id="node7" class="node">
<title>Node7</title>
<g id="a_node7"><a xlink:href="../../d2/d00/vtooloptionspropertybrowser_8cpp.html" target="_top" xlink:title=" ">
<polygon fill="white" stroke="black" points="1270.5,-0.5 1270.5,-30.5 1450.5,-30.5 1450.5,-0.5 1270.5,-0.5"/>
<text text-anchor="start" x="1278.5" y="-18.5" font-family="Helvetica,sans-Serif" font-size="10.00">src/app/seamly2d/core</text>
<text text-anchor="middle" x="1360.5" y="-7.5" font-family="Helvetica,sans-Serif" font-size="10.00">/vtooloptionspropertybrowser.cpp</text>
</a>
</g>
</g>
<!-- Node5&#45;&gt;Node7 -->
<g id="edge6" class="edge">
<title>Node5&#45;&gt;Node7</title>
<path fill="none" stroke="midnightblue" d="M2153.77,-67.05C1845.82,-29.47 1763.99,-61.12 1459.5,-31 1456.56,-30.71 1453.58,-30.39 1450.56,-30.06"/>
<polygon fill="midnightblue" stroke="midnightblue" points="2153.53,-70.55 2163.89,-68.3 2154.39,-63.6 2153.53,-70.55"/>
</g>
<!-- Node8 -->
<g id="node8" class="node">
<title>Node8</title>
<g id="a_node8"><a xlink:href="../../d7/dfa/calculator__dialog_8cpp.html" target="_top" xlink:title=" ">
<polygon fill="white" stroke="black" points="1469,-0.5 1469,-30.5 1610,-30.5 1610,-0.5 1469,-0.5"/>
<text text-anchor="start" x="1477" y="-18.5" font-family="Helvetica,sans-Serif" font-size="10.00">src/app/seamly2d/dialogs</text>
<text text-anchor="middle" x="1539.5" y="-7.5" font-family="Helvetica,sans-Serif" font-size="10.00">/calculator_dialog.cpp</text>
</a>
</g>
</g>
<!-- Node5&#45;&gt;Node8 -->
<g id="edge7" class="edge">
<title>Node5&#45;&gt;Node8</title>
<path fill="none" stroke="midnightblue" d="M2153.91,-67.05C1916.51,-36.38 1852.77,-59.9 1619.5,-31 1616.42,-30.62 1613.28,-30.2 1610.1,-29.74"/>
<polygon fill="midnightblue" stroke="midnightblue" points="2153.51,-70.53 2163.88,-68.36 2154.42,-63.59 2153.51,-70.53"/>
</g>
<!-- Node9 -->
<g id="node9" class="node">
<title>Node9</title>
<g id="a_node9"><a xlink:href="../../d9/d70/preferencesgraphicsviewpage_8cpp.html" target="_top" xlink:title=" ">
<polygon fill="white" stroke="black" points="1628.5,-0.5 1628.5,-30.5 1876.5,-30.5 1876.5,-0.5 1628.5,-0.5"/>
<text text-anchor="start" x="1636.5" y="-18.5" font-family="Helvetica,sans-Serif" font-size="10.00">src/app/seamly2d/dialogs</text>
<text text-anchor="middle" x="1752.5" y="-7.5" font-family="Helvetica,sans-Serif" font-size="10.00">/configpages/preferencesgraphicsviewpage.cpp</text>
</a>
</g>
</g>
<!-- Node5&#45;&gt;Node9 -->
<g id="edge8" class="edge">
<title>Node5&#45;&gt;Node9</title>
<path fill="none" stroke="midnightblue" d="M2153.86,-66.99C2088.43,-56.82 1964.91,-41.66 1871.5,-30.5"/>
<polygon fill="midnightblue" stroke="midnightblue" points="2153.42,-70.47 2163.85,-68.58 2154.52,-63.55 2153.42,-70.47"/>
</g>
<!-- Node10 -->
<g id="node10" class="node">
<title>Node10</title>
<g id="a_node10"><a xlink:href="../../dc/d20/preferencespathpage_8cpp.html" target="_top" xlink:title=" ">
<polygon fill="white" stroke="black" points="1895,-0.5 1895,-30.5 2100,-30.5 2100,-0.5 1895,-0.5"/>
<text text-anchor="start" x="1903" y="-18.5" font-family="Helvetica,sans-Serif" font-size="10.00">src/app/seamly2d/dialogs</text>
<text text-anchor="middle" x="1997.5" y="-7.5" font-family="Helvetica,sans-Serif" font-size="10.00">/configpages/preferencespathpage.cpp</text>
</a>
</g>
</g>
<!-- Node5&#45;&gt;Node10 -->
<g id="edge9" class="edge">
<title>Node5&#45;&gt;Node10</title>
<path fill="none" stroke="midnightblue" d="M2168.11,-64.71C2130.68,-54.14 2082.9,-40.63 2047.43,-30.61"/>
<polygon fill="midnightblue" stroke="midnightblue" points="2167.3,-68.12 2177.88,-67.48 2169.21,-61.39 2167.3,-68.12"/>
</g>
<!-- Node11 -->
<g id="node11" class="node">
<title>Node11</title>
<g id="a_node11"><a xlink:href="../../dc/d63/preferencespatternpage_8cpp.html" target="_top" xlink:title=" ">
<polygon fill="white" stroke="black" points="2118.5,-0.5 2118.5,-30.5 2336.5,-30.5 2336.5,-0.5 2118.5,-0.5"/>
<text text-anchor="start" x="2126.5" y="-18.5" font-family="Helvetica,sans-Serif" font-size="10.00">src/app/seamly2d/dialogs</text>
<text text-anchor="middle" x="2227.5" y="-7.5" font-family="Helvetica,sans-Serif" font-size="10.00">/configpages/preferencespatternpage.cpp</text>
</a>
</g>
</g>
<!-- Node5&#45;&gt;Node11 -->
<g id="edge10" class="edge">
<title>Node5&#45;&gt;Node11</title>
<path fill="none" stroke="midnightblue" d="M2227.5,-57.11C2227.5,-48.15 2227.5,-38.32 2227.5,-30.58"/>
<polygon fill="midnightblue" stroke="midnightblue" points="2224,-57.4 2227.5,-67.4 2231,-57.4 2224,-57.4"/>
</g>
<!-- Node12 -->
<g id="node12" class="node">
<title>Node12</title>
<g id="a_node12"><a xlink:href="../../d2/d2d/preferencesconfigurationpage_8cpp.html" target="_top" xlink:title=" ">
<polygon fill="white" stroke="black" points="2355,-0.5 2355,-30.5 2602,-30.5 2602,-0.5 2355,-0.5"/>
<text text-anchor="start" x="2363" y="-18.5" font-family="Helvetica,sans-Serif" font-size="10.00">src/app/seamly2d/dialogs</text>
<text text-anchor="middle" x="2478.5" y="-7.5" font-family="Helvetica,sans-Serif" font-size="10.00">/configpages/preferencesconfigurationpage.cpp</text>
</a>
</g>
</g>
<!-- Node5&#45;&gt;Node12 -->
<g id="edge11" class="edge">
<title>Node5&#45;&gt;Node12</title>
<path fill="none" stroke="midnightblue" d="M2291.54,-64.92C2332.5,-54.31 2385.06,-40.7 2424.01,-30.61"/>
<polygon fill="midnightblue" stroke="midnightblue" points="2290.46,-61.58 2281.65,-67.48 2292.21,-68.36 2290.46,-61.58"/>
</g>
<!-- Node13 -->
<g id="node13" class="node">
<title>Node13</title>
<g id="a_node13"><a xlink:href="../../dd/dc2/decimalchart__dialog_8cpp.html" target="_top" xlink:title=" ">
<polygon fill="white" stroke="black" points="2620,-0.5 2620,-30.5 2761,-30.5 2761,-0.5 2620,-0.5"/>
<text text-anchor="start" x="2628" y="-18.5" font-family="Helvetica,sans-Serif" font-size="10.00">src/app/seamly2d/dialogs</text>
<text text-anchor="middle" x="2690.5" y="-7.5" font-family="Helvetica,sans-Serif" font-size="10.00">/decimalchart_dialog.cpp</text>
</a>
</g>
</g>
<!-- Node5&#45;&gt;Node13 -->
<g id="edge12" class="edge">
<title>Node5&#45;&gt;Node13</title>
<path fill="none" stroke="midnightblue" d="M2301.45,-72.82C2378.7,-63.51 2503.33,-47.77 2610.5,-31 2613.57,-30.52 2616.7,-30.02 2619.86,-29.49"/>
<polygon fill="midnightblue" stroke="midnightblue" points="2300.85,-69.37 2291.34,-74.04 2301.68,-76.32 2300.85,-69.37"/>
</g>
<!-- Node14 -->
<g id="node14" class="node">
<title>Node14</title>
<g id="a_node14"><a xlink:href="../../dd/d64/dialogaboutapp_8cpp.html" target="_top" xlink:title=" ">
<polygon fill="white" stroke="black" points="2779,-0.5 2779,-30.5 2920,-30.5 2920,-0.5 2779,-0.5"/>
<text text-anchor="start" x="2787" y="-18.5" font-family="Helvetica,sans-Serif" font-size="10.00">src/app/seamly2d/dialogs</text>
<text text-anchor="middle" x="2849.5" y="-7.5" font-family="Helvetica,sans-Serif" font-size="10.00">/dialogaboutapp.cpp</text>
</a>
</g>
</g>
<!-- Node5&#45;&gt;Node14 -->
<g id="edge13" class="edge">
<title>Node5&#45;&gt;Node14</title>
<path fill="none" stroke="midnightblue" d="M2301.25,-76.66C2405.75,-69.34 2602.77,-53.83 2769.5,-31 2772.58,-30.58 2775.72,-30.12 2778.88,-29.64"/>
<polygon fill="midnightblue" stroke="midnightblue" points="2300.85,-73.18 2291.12,-77.36 2301.34,-80.16 2300.85,-73.18"/>
</g>
<!-- Node15 -->
<g id="node15" class="node">
<title>Node15</title>
<g id="a_node15"><a xlink:href="../../d6/d89/dialoglayoutprogress_8cpp.html" target="_top" xlink:title=" ">
<polygon fill="white" stroke="black" points="2938,-0.5 2938,-30.5 3081,-30.5 3081,-0.5 2938,-0.5"/>
<text text-anchor="start" x="2946" y="-18.5" font-family="Helvetica,sans-Serif" font-size="10.00">src/app/seamly2d/dialogs</text>
<text text-anchor="middle" x="3009.5" y="-7.5" font-family="Helvetica,sans-Serif" font-size="10.00">/dialoglayoutprogress.cpp</text>
</a>
</g>
</g>
<!-- Node5&#45;&gt;Node15 -->
<g id="edge14" class="edge">
<title>Node5&#45;&gt;Node15</title>
<path fill="none" stroke="midnightblue" d="M2301.11,-78.75C2429.08,-73.39 2700.7,-59.51 2928.5,-31 2931.48,-30.63 2934.51,-30.22 2937.57,-29.78"/>
<polygon fill="midnightblue" stroke="midnightblue" points="2300.88,-75.25 2291.03,-79.16 2301.17,-82.25 2300.88,-75.25"/>
</g>
<!-- Node5&#45;&gt;Node16 -->
<g id="edge15" class="edge">
<title>Node5&#45;&gt;Node16</title>
<path fill="none" stroke="midnightblue" d="M2153.76,-67.09C1266.58,27.08 1032.97,-119.41 149.5,-31 146.72,-30.72 143.9,-30.4 141.05,-30.04"/>
<polygon fill="midnightblue" stroke="midnightblue" points="2153.59,-70.59 2163.9,-68.17 2154.33,-63.63 2153.59,-70.59"/>
</g>
<!-- Node17 -->
<g id="node17" class="node">
<title>Node17</title>
<g id="a_node17"><a xlink:href="../../de/d87/dialognewpattern_8cpp.html" target="_top" xlink:title=" ">
<polygon fill="white" stroke="black" points="159,-0.5 159,-30.5 300,-30.5 300,-0.5 159,-0.5"/>
<text text-anchor="start" x="167" y="-18.5" font-family="Helvetica,sans-Serif" font-size="10.00">src/app/seamly2d/dialogs</text>
<text text-anchor="middle" x="229.5" y="-7.5" font-family="Helvetica,sans-Serif" font-size="10.00">/dialognewpattern.cpp</text>
</a>
</g>
</g>
<!-- Node5&#45;&gt;Node17 -->
<g id="edge16" class="edge">
<title>Node5&#45;&gt;Node17</title>
<path fill="none" stroke="midnightblue" d="M2153.96,-67.11C1336.93,20.2 1121.67,-113.01 308.5,-31 305.73,-30.72 302.9,-30.4 300.05,-30.03"/>
<polygon fill="midnightblue" stroke="midnightblue" points="2153.58,-70.59 2163.9,-68.18 2154.33,-63.63 2153.58,-70.59"/>
</g>
<!-- Node18 -->
<g id="node18" class="node">
<title>Node18</title>
<g id="a_node18"><a xlink:href="../../d5/d18/dialogpatternproperties_8cpp.html" target="_top" xlink:title=" ">
<polygon fill="white" stroke="black" points="318,-0.5 318,-30.5 473,-30.5 473,-0.5 318,-0.5"/>
<text text-anchor="start" x="326" y="-18.5" font-family="Helvetica,sans-Serif" font-size="10.00">src/app/seamly2d/dialogs</text>
<text text-anchor="middle" x="395.5" y="-7.5" font-family="Helvetica,sans-Serif" font-size="10.00">/dialogpatternproperties.cpp</text>
</a>
</g>
</g>
<!-- Node5&#45;&gt;Node18 -->
<g id="edge17" class="edge">
<title>Node5&#45;&gt;Node18</title>
<path fill="none" stroke="midnightblue" d="M2153.79,-67.09C1413.41,12.72 1218.58,-100.69 481.5,-31 478.79,-30.74 476.03,-30.45 473.25,-30.13"/>
<polygon fill="midnightblue" stroke="midnightblue" points="2153.58,-70.59 2163.9,-68.19 2154.34,-63.63 2153.58,-70.59"/>
</g>
<!-- Node19 -->
<g id="node19" class="node">
<title>Node19</title>
<g id="a_node19"><a xlink:href="../../d5/dc5/dialogpreferences_8cpp.html" target="_top" xlink:title=" ">
<polygon fill="white" stroke="black" points="491,-0.5 491,-30.5 632,-30.5 632,-0.5 491,-0.5"/>
<text text-anchor="start" x="499" y="-18.5" font-family="Helvetica,sans-Serif" font-size="10.00">src/app/seamly2d/dialogs</text>
<text text-anchor="middle" x="561.5" y="-7.5" font-family="Helvetica,sans-Serif" font-size="10.00">/dialogpreferences.cpp</text>
</a>
</g>
</g>
<!-- Node5&#45;&gt;Node19 -->
<g id="edge18" class="edge">
<title>Node5&#45;&gt;Node19</title>
<path fill="none" stroke="midnightblue" d="M2153.5,-67.06C1483.67,5.75 1306.6,-99.62 640.5,-31 637.73,-30.71 634.9,-30.38 632.06,-30.02"/>
<polygon fill="midnightblue" stroke="midnightblue" points="2153.58,-70.59 2163.9,-68.2 2154.34,-63.63 2153.58,-70.59"/>
</g>
<!-- Node20 -->
<g id="node20" class="node">
<title>Node20</title>
<g id="a_node20"><a xlink:href="../../dd/d54/export__layout__dialog_8cpp.html" target="_top" xlink:title=" ">
<polygon fill="white" stroke="black" points="3620,-0.5 3620,-30.5 3763,-30.5 3763,-0.5 3620,-0.5"/>
<text text-anchor="start" x="3628" y="-18.5" font-family="Helvetica,sans-Serif" font-size="10.00">src/app/seamly2d/dialogs</text>
<text text-anchor="middle" x="3691.5" y="-7.5" font-family="Helvetica,sans-Serif" font-size="10.00">/export_layout_dialog.cpp</text>
</a>
</g>
</g>
<!-- Node5&#45;&gt;Node20 -->
<g id="edge19" class="edge">
<title>Node5&#45;&gt;Node20</title>
<path fill="none" stroke="midnightblue" d="M2301.39,-80.17C2549.73,-75.5 3353.2,-58.59 3610.5,-31 3613.48,-30.68 3616.52,-30.32 3619.59,-29.91"/>
<polygon fill="midnightblue" stroke="midnightblue" points="2300.97,-76.68 2291.03,-80.37 2301.1,-83.68 2300.97,-76.68"/>
</g>
<!-- Node21 -->
<g id="node21" class="node">
<title>Node21</title>
<g id="a_node21"><a xlink:href="../../db/d5c/groups__widget_8cpp.html" target="_top" xlink:title=" ">
<polygon fill="white" stroke="black" points="650,-0.5 650,-30.5 791,-30.5 791,-0.5 650,-0.5"/>
<text text-anchor="start" x="658" y="-18.5" font-family="Helvetica,sans-Serif" font-size="10.00">src/app/seamly2d/dialogs</text>
<text text-anchor="middle" x="720.5" y="-7.5" font-family="Helvetica,sans-Serif" font-size="10.00">/groups_widget.cpp</text>
</a>
</g>
</g>
<!-- Node5&#45;&gt;Node21 -->
<g id="edge20" class="edge">
<title>Node5&#45;&gt;Node21</title>
<path fill="none" stroke="midnightblue" d="M2153.7,-67.07C1554.02,-1.12 1395.31,-93.21 799.5,-31 796.73,-30.71 793.9,-30.38 791.06,-30.01"/>
<polygon fill="midnightblue" stroke="midnightblue" points="2153.57,-70.58 2163.9,-68.21 2154.35,-63.63 2153.57,-70.58"/>
</g>
<!-- Node22 -->
<g id="node22" class="node">
<title>Node22</title>
<g id="a_node22"><a xlink:href="../../dd/d84/shortcuts__dialog_8cpp.html" target="_top" xlink:title=" ">
<polygon fill="white" stroke="black" points="809,-0.5 809,-30.5 950,-30.5 950,-0.5 809,-0.5"/>
<text text-anchor="start" x="817" y="-18.5" font-family="Helvetica,sans-Serif" font-size="10.00">src/app/seamly2d/dialogs</text>
<text text-anchor="middle" x="879.5" y="-7.5" font-family="Helvetica,sans-Serif" font-size="10.00">/shortcuts_dialog.cpp</text>
</a>
</g>
</g>
<!-- Node5&#45;&gt;Node22 -->
<g id="edge21" class="edge">
<title>Node5&#45;&gt;Node22</title>
<path fill="none" stroke="midnightblue" d="M2153.7,-67.07C1624.32,-8 1483.97,-86.81 958.5,-31 955.73,-30.71 952.9,-30.37 950.06,-30"/>
<polygon fill="midnightblue" stroke="midnightblue" points="2153.57,-70.58 2163.9,-68.22 2154.35,-63.62 2153.57,-70.58"/>
</g>
<!-- Node23 -->
<g id="node23" class="node">
<title>Node23</title>
<g id="a_node23"><a xlink:href="../../d2/df4/show__info__dialog_8cpp.html" target="_top" xlink:title=" ">
<polygon fill="white" stroke="black" points="968,-0.5 968,-30.5 1109,-30.5 1109,-0.5 968,-0.5"/>
<text text-anchor="start" x="976" y="-18.5" font-family="Helvetica,sans-Serif" font-size="10.00">src/app/seamly2d/dialogs</text>
<text text-anchor="middle" x="1038.5" y="-7.5" font-family="Helvetica,sans-Serif" font-size="10.00">/show_info_dialog.cpp</text>
</a>
</g>
</g>
<!-- Node5&#45;&gt;Node23 -->
<g id="edge22" class="edge">
<title>Node5&#45;&gt;Node23</title>
<path fill="none" stroke="midnightblue" d="M2153.68,-67.06C1694.62,-14.88 1572.62,-80.4 1117.5,-31 1114.73,-30.7 1111.91,-30.36 1109.06,-29.98"/>
<polygon fill="midnightblue" stroke="midnightblue" points="2153.56,-70.57 2163.89,-68.24 2154.36,-63.62 2153.56,-70.57"/>
</g>
<!-- Node5&#45;&gt;Node24 -->
<g id="edge23" class="edge">
<title>Node5&#45;&gt;Node24</title>
<path fill="none" stroke="midnightblue" d="M2301.21,-80.84C2593.41,-77.98 3670.8,-65.3 4010.5,-31 4013.7,-30.68 4016.97,-30.3 4020.26,-29.89"/>
<polygon fill="midnightblue" stroke="midnightblue" points="2301.12,-77.34 2291.15,-80.93 2301.19,-84.34 2301.12,-77.34"/>
</g>
<!-- Node25 -->
<g id="node25" class="node">
<title>Node25</title>
<g id="a_node25"><a xlink:href="../../dc/d14/app_2seamly2d_2main_8cpp.html" target="_top" xlink:title=" ">
<polygon fill="white" stroke="black" points="3451,-6 3451,-25 3602,-25 3602,-6 3451,-6"/>
<text text-anchor="middle" x="3526.5" y="-13" font-family="Helvetica,sans-Serif" font-size="10.00">src/app/seamly2d/main.cpp</text>
</a>
</g>
</g>
<!-- Node5&#45;&gt;Node25 -->
<g id="edge24" class="edge">
<title>Node5&#45;&gt;Node25</title>
<path fill="none" stroke="midnightblue" d="M2301.36,-81.7C2491.16,-81.49 3011.24,-76.46 3441.5,-31 3455.05,-29.57 3469.7,-27.32 3482.97,-25.02"/>
<polygon fill="midnightblue" stroke="midnightblue" points="2301.22,-78.2 2291.22,-81.7 2301.23,-85.2 2301.22,-78.2"/>
</g>
<!-- Node5&#45;&gt;Node26 -->
<g id="edge25" class="edge">
<title>Node5&#45;&gt;Node26</title>
<path fill="none" stroke="midnightblue" d="M2301.47,-81.38C2524.07,-80.51 3207.19,-74.24 3771.5,-31 3790.44,-29.55 3810.98,-27.31 3829.63,-25.03"/>
<polygon fill="midnightblue" stroke="midnightblue" points="2301.2,-77.88 2291.22,-81.41 2301.23,-84.88 2301.2,-77.88"/>
</g>
<!-- Node27 -->
<g id="node27" class="node">
<title>Node27</title>
<g id="a_node27"><a xlink:href="../../d8/dd9/mainwindow_8cpp.html" target="_top" xlink:title=" ">
<polygon fill="white" stroke="black" points="3099.5,-6 3099.5,-25 3287.5,-25 3287.5,-6 3099.5,-6"/>
<text text-anchor="middle" x="3193.5" y="-13" font-family="Helvetica,sans-Serif" font-size="10.00">src/app/seamly2d/mainwindow.cpp</text>
</a>
</g>
</g>
<!-- Node5&#45;&gt;Node27 -->
<g id="edge26" class="edge">
<title>Node5&#45;&gt;Node27</title>
<path fill="none" stroke="midnightblue" d="M2301.58,-79.16C2450.91,-74 2798.67,-59.75 3089.5,-31 3105.37,-29.43 3122.55,-27.24 3138.28,-25.04"/>
<polygon fill="midnightblue" stroke="midnightblue" points="2301.04,-75.67 2291.17,-79.51 2301.28,-82.67 2301.04,-75.67"/>
</g>
<!-- Node28 -->
<g id="node28" class="node">
<title>Node28</title>
<g id="a_node28"><a xlink:href="../../d3/d49/vpattern_8cpp.html" target="_top" xlink:title=" ">
<polygon fill="white" stroke="black" points="1127,-0.5 1127,-30.5 1252,-30.5 1252,-0.5 1127,-0.5"/>
<text text-anchor="start" x="1135" y="-18.5" font-family="Helvetica,sans-Serif" font-size="10.00">src/app/seamly2d/xml</text>
<text text-anchor="middle" x="1189.5" y="-7.5" font-family="Helvetica,sans-Serif" font-size="10.00">/vpattern.cpp</text>
</a>
</g>
</g>
<!-- Node5&#45;&gt;Node28 -->
<g id="edge27" class="edge">
<title>Node5&#45;&gt;Node28</title>
<path fill="none" stroke="midnightblue" d="M2153.9,-67.08C1758.31,-21.12 1652.6,-77.97 1261.5,-31 1258.46,-30.64 1255.36,-30.21 1252.23,-29.74"/>
<polygon fill="midnightblue" stroke="midnightblue" points="2153.55,-70.57 2163.89,-68.26 2154.37,-63.61 2153.55,-70.57"/>
</g>
<!-- Node29&#45;&gt;Node6 -->
<g id="edge30" class="edge">
<title>Node29&#45;&gt;Node6</title>
<path fill="none" stroke="midnightblue" d="M3369.5,-62.41C3369.5,-52.22 3369.5,-39.9 3369.5,-30.59"/>
<polygon fill="midnightblue" stroke="midnightblue" points="3366,-62.73 3369.5,-72.73 3373,-62.73 3366,-62.73"/>
</g>
<!-- Node29&#45;&gt;Node25 -->
<g id="edge31" class="edge">
<title>Node29&#45;&gt;Node25</title>
<path fill="none" stroke="midnightblue" d="M3399.82,-68.95C3430.9,-56.08 3478.43,-36.4 3505.57,-25.17"/>
<polygon fill="midnightblue" stroke="midnightblue" points="3398.25,-65.81 3390.35,-72.87 3400.93,-72.28 3398.25,-65.81"/>
</g>
<!-- Node29&#45;&gt;Node27 -->
<g id="edge32" class="edge">
<title>Node29&#45;&gt;Node27</title>
<path fill="none" stroke="midnightblue" d="M3336.39,-69.27C3301.46,-56.37 3247.32,-36.38 3216.69,-25.06"/>
<polygon fill="midnightblue" stroke="midnightblue" points="3335.54,-72.69 3346.13,-72.87 3337.96,-66.12 3335.54,-72.69"/>
</g>
<!-- Node30&#45;&gt;Node20 -->
<g id="edge36" class="edge">
<title>Node30&#45;&gt;Node20</title>
<path fill="none" stroke="midnightblue" d="M3717.48,-197.36C3701.71,-189.95 3686.97,-179.56 3677.5,-165 3649.96,-122.68 3672.5,-58.67 3684.8,-30.57"/>
<polygon fill="midnightblue" stroke="midnightblue" points="3716.28,-200.66 3726.85,-201.39 3719.05,-194.23 3716.28,-200.66"/>
</g>
<!-- Node30&#45;&gt;Node26 -->
<g id="edge37" class="edge">
<title>Node30&#45;&gt;Node26</title>
<path fill="none" stroke="midnightblue" d="M3864.4,-197.46C3880.21,-190.04 3895.02,-179.62 3904.5,-165 3933.93,-119.62 3906.64,-49.36 3895.63,-25.09"/>
<polygon fill="midnightblue" stroke="midnightblue" points="3862.81,-194.34 3855,-201.5 3865.57,-200.77 3862.81,-194.34"/>
</g>
<!-- Node31 -->
<g id="node31" class="node">
<title>Node31</title>
<g id="a_node31"><a xlink:href="../../d1/d82/mainwindowsnogui_8h.html" target="_top" xlink:title=" ">
<polygon fill="white" stroke="black" points="3687,-140 3687,-159 3896,-159 3896,-140 3687,-140"/>
<text text-anchor="middle" x="3791.5" y="-147" font-family="Helvetica,sans-Serif" font-size="10.00">src/app/seamly2d/mainwindowsnogui.h</text>
</a>
</g>
</g>
<!-- Node30&#45;&gt;Node31 -->
<g id="edge38" class="edge">
<title>Node30&#45;&gt;Node31</title>
<path fill="none" stroke="midnightblue" d="M3791.5,-191.25C3791.5,-180.02 3791.5,-167.38 3791.5,-159.19"/>
<polygon fill="midnightblue" stroke="midnightblue" points="3788,-191.4 3791.5,-201.4 3795,-191.4 3788,-191.4"/>
</g>
<!-- Node31&#45;&gt;Node26 -->
<g id="edge40" class="edge">
<title>Node31&#45;&gt;Node26</title>
<path fill="none" stroke="midnightblue" d="M3804.25,-131.66C3825.83,-103.18 3868.77,-46.5 3885.04,-25.02"/>
<polygon fill="midnightblue" stroke="midnightblue" points="3801.31,-129.75 3798.06,-139.84 3806.89,-133.98 3801.31,-129.75"/>
</g>
<!-- Node31&#45;&gt;Node29 -->
<g id="edge39" class="edge">
<title>Node31&#45;&gt;Node29</title>
<path fill="none" stroke="midnightblue" d="M3725.86,-138.39C3643.14,-125.65 3502.44,-103.98 3424.89,-92.03"/>
<polygon fill="midnightblue" stroke="midnightblue" points="3725.48,-141.87 3735.9,-139.94 3726.55,-134.95 3725.48,-141.87"/>
</g>
</g>
</svg>
        <g id="navigator" transform="translate(0 0)" fill="#404254">
                <rect fill="#f2f5e9" fill-opacity="0.5" stroke="#606060" stroke-width=".5" x="0" y="0" width="60" height="60"/>
                <use id="zoomplus" xlink:href="#zoomPlus" x="17" y="9" onmousedown="handleZoom(evt,'in')"/>
                <use id="zoomminus" xlink:href="#zoomMin" x="42" y="9" onmousedown="handleZoom(evt,'out')"/>
                <use id="reset" xlink:href="#resetDef" x="30" y="36" onmousedown="handleReset()"/>
                <g id="arrowUp" xlink:href="#dirArrow" transform="translate(30 24)" onmousedown="handlePan(0,-1)">
                  <use xlink:href="#rim" fill="#404040">
                        <set attributeName="fill" to="#808080" begin="arrowUp.mouseover" end="arrowUp.mouseout"/>
                  </use>
                  <path fill="none" stroke="white" stroke-width="1.5" d="M0,-3.0v7 M-2.5,-0.5L0,-3.0L2.5,-0.5"/>
                </g>
                <g id="arrowRight" xlink:href="#dirArrow" transform="rotate(90) translate(36 -43)" onmousedown="handlePan(1,0)">
                  <use xlink:href="#rim" fill="#404040">
                        <set attributeName="fill" to="#808080" begin="arrowRight.mouseover" end="arrowRight.mouseout"/>
                  </use>
                  <path fill="none" stroke="white" stroke-width="1.5" d="M0,-3.0v7 M-2.5,-0.5L0,-3.0L2.5,-0.5"/>
                </g>
                <g id="arrowDown" xlink:href="#dirArrow" transform="rotate(180) translate(-30 -48)" onmousedown="handlePan(0,1)">
                  <use xlink:href="#rim" fill="#404040">
                        <set attributeName="fill" to="#808080" begin="arrowDown.mouseover" end="arrowDown.mouseout"/>
                  </use>
                  <path fill="none" stroke="white" stroke-width="1.5" d="M0,-3.0v7 M-2.5,-0.5L0,-3.0L2.5,-0.5"/>
                </g>
                <g id="arrowLeft" xlink:href="#dirArrow" transform="rotate(270) translate(-36 17)" onmousedown="handlePan(-1,0)">
                  <use xlink:href="#rim" fill="#404040">
                        <set attributeName="fill" to="#808080" begin="arrowLeft.mouseover" end="arrowLeft.mouseout"/>
                  </use>
                  <path fill="none" stroke="white" stroke-width="1.5" d="M0,-3.0v7 M-2.5,-0.5L0,-3.0L2.5,-0.5"/>
                </g>
        </g>
        <svg viewBox="0 0 15 15" width="100%" height="30px" preserveAspectRatio="xMaxYMin meet">
         <g id="arrow_out" transform="scale(0.3 0.3)">
          <a xlink:href="vabstractlayoutdialog_8h__dep__incl_org.svg" target="_base">
           <rect id="button" ry="5" rx="5" y="6" x="6" height="38" width="38"
                fill="#f2f5e9" fill-opacity="0.5" stroke="#606060" stroke-width="1.0"/>
           <path id="arrow"
             d="M 11.500037,31.436501 C 11.940474,20.09759 22.043105,11.32322 32.158766,21.979434 L 37.068811,17.246167 C 37.068811,17.246167 37.088388,32 37.088388,32 L 22.160133,31.978069 C 22.160133,31.978069 26.997745,27.140456 26.997745,27.140456 C 18.528582,18.264221 13.291696,25.230495 11.500037,31.436501 z"
             style="fill:#404040;"/>
          </a>
         </g>
        </svg>
</svg>
