<?xml version="1.0" encoding="UTF-8" standalone="no"?>
<!DOCTYPE svg PUBLIC "-//W3C//DTD SVG 1.1//EN"
 "http://www.w3.org/Graphics/SVG/1.1/DTD/svg11.dtd">
<!-- Generated by graphviz version 2.43.0 (0)
 -->
<!-- Title: src/app/seamly2d/dialogs/abstractlayout_dialog.h Pages: 1 -->
<!--zoomable 307 -->
<svg id="main" version="1.1" xmlns="http://www.w3.org/2000/svg" xmlns:xlink="http://www.w3.org/1999/xlink" xml:space="preserve" onload="init(evt)">
<style type="text/css"><![CDATA[
.edge:hover path { stroke: red; }
.edge:hover polygon { stroke: red; fill: red; }
]]></style>
<script type="text/javascript"><![CDATA[
var edges = document.getElementsByTagName('g');
if (edges && edges.length) {
  for (var i=0;i<edges.length;i++) {
    if (edges[i].id.substr(0,4)=='edge') {
      edges[i].setAttribute('class','edge');
    }
  }
}
]]></script>
        <defs>
                <circle id="rim" cx="0" cy="0" r="7"/>
                <circle id="rim2" cx="0" cy="0" r="3.5"/>
                <g id="zoomPlus">
                        <use xlink:href="#rim" fill="#404040">
                                <set attributeName="fill" to="#808080" begin="zoomplus.mouseover" end="zoomplus.mouseout"/>
                        </use>
                        <path d="M-4,0h8M0,-4v8" fill="none" stroke="white" stroke-width="1.5" pointer-events="none"/>
                </g>
                <g id="zoomMin">
                        <use xlink:href="#rim" fill="#404040">
                                <set attributeName="fill" to="#808080" begin="zoomminus.mouseover" end="zoomminus.mouseout"/>
                        </use>
                        <path d="M-4,0h8" fill="none" stroke="white" stroke-width="1.5" pointer-events="none"/>
                </g>
                <g id="dirArrow">
                        <path fill="none" stroke="white" stroke-width="1.5" d="M0,-3.0v7 M-2.5,-0.5L0,-3.0L2.5,-0.5"/>
                </g>
               <g id="resetDef">
                       <use xlink:href="#rim2" fill="#404040">
                               <set attributeName="fill" to="#808080" begin="reset.mouseover" end="reset.mouseout"/>
                       </use>
               </g>
        </defs>

<script type="text/javascript">
var viewWidth = 4020;
var viewHeight = 307;
var sectionId = 'dynsection-1';
</script>
<script xlink:href="../../svgpan.js"/>
<svg id="graph" class="graph">
<g id="viewport">
<title>src/app/seamly2d/dialogs/abstractlayout_dialog.h</title>
<polygon fill="white" stroke="transparent" points="-4,4 -4,-303 4015.5,-303 4015.5,4 -4,4"/>
<!-- Node1 -->
<g id="node1" class="node">
<title>Node1</title>
<g id="a_node1"><a xlink:title=" ">
<polygon fill="#bfbfbf" stroke="black" points="276.5,-268.5 276.5,-298.5 417.5,-298.5 417.5,-268.5 276.5,-268.5"/>
<text text-anchor="start" x="284.5" y="-286.5" font-family="Helvetica,sans-Serif" font-size="10.00">src/app/seamly2d/dialogs</text>
<text text-anchor="middle" x="347" y="-275.5" font-family="Helvetica,sans-Serif" font-size="10.00">/abstractlayout_dialog.h</text>
</a>
</g>
</g>
<!-- Node2 -->
<g id="node2" class="node">
<title>Node2</title>
<g id="a_node2"><a xlink:href="../../dd/db4/abstractlayout__dialog_8cpp.html" target="_top" xlink:title=" ">
<polygon fill="white" stroke="black" points="0,-0.5 0,-30.5 146,-30.5 146,-0.5 0,-0.5"/>
<text text-anchor="start" x="8" y="-18.5" font-family="Helvetica,sans-Serif" font-size="10.00">src/app/seamly2d/dialogs</text>
<text text-anchor="middle" x="73" y="-7.5" font-family="Helvetica,sans-Serif" font-size="10.00">/abstractlayout_dialog.cpp</text>
</a>
</g>
</g>
<!-- Node1&#45;&gt;Node2 -->
<g id="edge1" class="edge">
<title>Node1&#45;&gt;Node2</title>
<path fill="none" stroke="midnightblue" d="M312.15,-263.36C297.57,-254.64 280.83,-243.66 267,-232 187.91,-165.32 110.79,-66.83 83.44,-30.56"/>
<polygon fill="midnightblue" stroke="midnightblue" points="310.51,-266.45 320.91,-268.48 314.05,-260.41 310.51,-266.45"/>
</g>
<!-- Node3 -->
<g id="node3" class="node">
<title>Node3</title>
<g id="a_node3"><a xlink:href="../../d1/d8e/export__layout__dialog_8h.html" target="_top" xlink:title=" ">
<polygon fill="white" stroke="black" points="276.5,-201.5 276.5,-231.5 417.5,-231.5 417.5,-201.5 276.5,-201.5"/>
<text text-anchor="start" x="284.5" y="-219.5" font-family="Helvetica,sans-Serif" font-size="10.00">src/app/seamly2d/dialogs</text>
<text text-anchor="middle" x="347" y="-208.5" font-family="Helvetica,sans-Serif" font-size="10.00">/export_layout_dialog.h</text>
</a>
</g>
</g>
<!-- Node1&#45;&gt;Node3 -->
<g id="edge2" class="edge">
<title>Node1&#45;&gt;Node3</title>
<path fill="none" stroke="midnightblue" d="M347,-258.11C347,-249.15 347,-239.32 347,-231.58"/>
<polygon fill="midnightblue" stroke="midnightblue" points="343.5,-258.4 347,-268.4 350.5,-258.4 343.5,-258.4"/>
</g>
<!-- Node11 -->
<g id="node11" class="node">
<title>Node11</title>
<g id="a_node11"><a xlink:href="../../d3/dd8/layoutsettings__dialog_8h.html" target="_top" xlink:title=" ">
<polygon fill="white" stroke="black" points="1725.5,-201.5 1725.5,-231.5 1866.5,-231.5 1866.5,-201.5 1725.5,-201.5"/>
<text text-anchor="start" x="1733.5" y="-219.5" font-family="Helvetica,sans-Serif" font-size="10.00">src/app/seamly2d/dialogs</text>
<text text-anchor="middle" x="1796" y="-208.5" font-family="Helvetica,sans-Serif" font-size="10.00">/layoutsettings_dialog.h</text>
</a>
</g>
</g>
<!-- Node1&#45;&gt;Node11 -->
<g id="edge11" class="edge">
<title>Node1&#45;&gt;Node11</title>
<path fill="none" stroke="midnightblue" d="M427.89,-278.87C685.3,-267.32 1482.69,-231.55 1725.27,-220.67"/>
<polygon fill="midnightblue" stroke="midnightblue" points="427.7,-275.38 417.87,-279.32 428.02,-282.37 427.7,-275.38"/>
</g>
<!-- Node4 -->
<g id="node4" class="node">
<title>Node4</title>
<g id="a_node4"><a xlink:href="../../dd/d54/export__layout__dialog_8cpp.html" target="_top" xlink:title=" ">
<polygon fill="white" stroke="black" points="403.5,-0.5 403.5,-30.5 546.5,-30.5 546.5,-0.5 403.5,-0.5"/>
<text text-anchor="start" x="411.5" y="-18.5" font-family="Helvetica,sans-Serif" font-size="10.00">src/app/seamly2d/dialogs</text>
<text text-anchor="middle" x="475" y="-7.5" font-family="Helvetica,sans-Serif" font-size="10.00">/export_layout_dialog.cpp</text>
</a>
</g>
</g>
<!-- Node3&#45;&gt;Node4 -->
<g id="edge3" class="edge">
<title>Node3&#45;&gt;Node4</title>
<path fill="none" stroke="midnightblue" d="M349.32,-191.33C351.7,-174.47 356.49,-151.89 366,-134 389.11,-90.51 432.37,-50.99 456.87,-30.74"/>
<polygon fill="midnightblue" stroke="midnightblue" points="345.82,-191.12 348.07,-201.47 352.76,-191.97 345.82,-191.12"/>
</g>
<!-- Node5 -->
<g id="node5" class="node">
<title>Node5</title>
<g id="a_node5"><a xlink:href="../../d8/de8/mainwindowsnogui_8cpp.html" target="_top" xlink:title=" ">
<polygon fill="white" stroke="black" points="164.5,-6 164.5,-25 385.5,-25 385.5,-6 164.5,-6"/>
<text text-anchor="middle" x="275" y="-13" font-family="Helvetica,sans-Serif" font-size="10.00">src/app/seamly2d/mainwindowsnogui.cpp</text>
</a>
</g>
</g>
<!-- Node3&#45;&gt;Node5 -->
<g id="edge4" class="edge">
<title>Node3&#45;&gt;Node5</title>
<path fill="none" stroke="midnightblue" d="M338.33,-191.53C322.29,-147.21 288.7,-54.38 278.21,-25.36"/>
<polygon fill="midnightblue" stroke="midnightblue" points="335.13,-192.98 341.82,-201.19 341.71,-190.59 335.13,-192.98"/>
</g>
<!-- Node6 -->
<g id="node6" class="node">
<title>Node6</title>
<g id="a_node6"><a xlink:href="../../d1/d82/mainwindowsnogui_8h.html" target="_top" xlink:title=" ">
<polygon fill="white" stroke="black" points="375.5,-140 375.5,-159 584.5,-159 584.5,-140 375.5,-140"/>
<text text-anchor="middle" x="480" y="-147" font-family="Helvetica,sans-Serif" font-size="10.00">src/app/seamly2d/mainwindowsnogui.h</text>
</a>
</g>
</g>
<!-- Node3&#45;&gt;Node6 -->
<g id="edge5" class="edge">
<title>Node3&#45;&gt;Node6</title>
<path fill="none" stroke="midnightblue" d="M384.92,-196.97C410.47,-184.48 442.97,-168.6 462.59,-159.01"/>
<polygon fill="midnightblue" stroke="midnightblue" points="383.31,-193.86 375.86,-201.4 386.38,-200.15 383.31,-193.86"/>
</g>
<!-- Node6&#45;&gt;Node5 -->
<g id="edge10" class="edge">
<title>Node6&#45;&gt;Node5</title>
<path fill="none" stroke="midnightblue" d="M458.02,-134.35C415.4,-106.9 322.68,-47.2 288.23,-25.02"/>
<polygon fill="midnightblue" stroke="midnightblue" points="456.25,-137.37 466.55,-139.84 460.04,-131.48 456.25,-137.37"/>
</g>
<!-- Node7 -->
<g id="node7" class="node">
<title>Node7</title>
<g id="a_node7"><a xlink:href="../../d9/d53/mainwindow_8h.html" target="_top" xlink:title=" ">
<polygon fill="white" stroke="black" points="697,-73 697,-92 873,-92 873,-73 697,-73"/>
<text text-anchor="middle" x="785" y="-80" font-family="Helvetica,sans-Serif" font-size="10.00">src/app/seamly2d/mainwindow.h</text>
</a>
</g>
</g>
<!-- Node6&#45;&gt;Node7 -->
<g id="edge6" class="edge">
<title>Node6&#45;&gt;Node7</title>
<path fill="none" stroke="midnightblue" d="M530.19,-137.8C590.21,-125.01 689.48,-103.86 744.72,-92.08"/>
<polygon fill="midnightblue" stroke="midnightblue" points="529.24,-134.43 520.19,-139.94 530.7,-141.27 529.24,-134.43"/>
</g>
<!-- Node8 -->
<g id="node8" class="node">
<title>Node8</title>
<g id="a_node8"><a xlink:href="../../d3/dd8/vapplication_8cpp.html" target="_top" xlink:title=" ">
<polygon fill="white" stroke="black" points="564.5,-0.5 564.5,-30.5 691.5,-30.5 691.5,-0.5 564.5,-0.5"/>
<text text-anchor="start" x="572.5" y="-18.5" font-family="Helvetica,sans-Serif" font-size="10.00">src/app/seamly2d/core</text>
<text text-anchor="middle" x="628" y="-7.5" font-family="Helvetica,sans-Serif" font-size="10.00">/vapplication.cpp</text>
</a>
</g>
</g>
<!-- Node7&#45;&gt;Node8 -->
<g id="edge7" class="edge">
<title>Node7&#45;&gt;Node8</title>
<path fill="none" stroke="midnightblue" d="M754.6,-68.91C728.01,-57.91 689.45,-41.94 661.88,-30.53"/>
<polygon fill="midnightblue" stroke="midnightblue" points="753.57,-72.28 764.15,-72.87 756.25,-65.81 753.57,-72.28"/>
</g>
<!-- Node9 -->
<g id="node9" class="node">
<title>Node9</title>
<g id="a_node9"><a xlink:href="../../dc/d14/app_2seamly2d_2main_8cpp.html" target="_top" xlink:title=" ">
<polygon fill="white" stroke="black" points="709.5,-6 709.5,-25 860.5,-25 860.5,-6 709.5,-6"/>
<text text-anchor="middle" x="785" y="-13" font-family="Helvetica,sans-Serif" font-size="10.00">src/app/seamly2d/main.cpp</text>
</a>
</g>
</g>
<!-- Node7&#45;&gt;Node9 -->
<g id="edge8" class="edge">
<title>Node7&#45;&gt;Node9</title>
<path fill="none" stroke="midnightblue" d="M785,-62.54C785,-50.17 785,-34.62 785,-25.13"/>
<polygon fill="midnightblue" stroke="midnightblue" points="781.5,-62.73 785,-72.73 788.5,-62.73 781.5,-62.73"/>
</g>
<!-- Node10 -->
<g id="node10" class="node">
<title>Node10</title>
<g id="a_node10"><a xlink:href="../../d8/dd9/mainwindow_8cpp.html" target="_top" xlink:title=" ">
<polygon fill="white" stroke="black" points="879,-6 879,-25 1067,-25 1067,-6 879,-6"/>
<text text-anchor="middle" x="973" y="-13" font-family="Helvetica,sans-Serif" font-size="10.00">src/app/seamly2d/mainwindow.cpp</text>
</a>
</g>
</g>
<!-- Node7&#45;&gt;Node10 -->
<g id="edge9" class="edge">
<title>Node7&#45;&gt;Node10</title>
<path fill="none" stroke="midnightblue" d="M819.89,-69.44C857.19,-56.54 915.37,-36.42 948.23,-25.06"/>
<polygon fill="midnightblue" stroke="midnightblue" points="818.27,-66.29 809.96,-72.87 820.56,-72.91 818.27,-66.29"/>
</g>
<!-- Node11&#45;&gt;Node5 -->
<g id="edge40" class="edge">
<title>Node11&#45;&gt;Node5</title>
<path fill="none" stroke="midnightblue" d="M1715.3,-209.42C1532.05,-195.09 1070.7,-155.93 688,-98 548.54,-76.89 384.62,-41.29 312.39,-25.04"/>
<polygon fill="midnightblue" stroke="midnightblue" points="1715.15,-212.92 1725.4,-210.21 1715.7,-205.94 1715.15,-212.92"/>
</g>
<!-- Node12 -->
<g id="node12" class="node">
<title>Node12</title>
<g id="a_node12"><a xlink:href="../../dd/d57/vcmdexport_8h.html" target="_top" xlink:title=" ">
<polygon fill="white" stroke="black" points="1732.5,-134.5 1732.5,-164.5 1859.5,-164.5 1859.5,-134.5 1732.5,-134.5"/>
<text text-anchor="start" x="1740.5" y="-152.5" font-family="Helvetica,sans-Serif" font-size="10.00">src/app/seamly2d/core</text>
<text text-anchor="middle" x="1796" y="-141.5" font-family="Helvetica,sans-Serif" font-size="10.00">/vcmdexport.h</text>
</a>
</g>
</g>
<!-- Node11&#45;&gt;Node12 -->
<g id="edge12" class="edge">
<title>Node11&#45;&gt;Node12</title>
<path fill="none" stroke="midnightblue" d="M1796,-191.11C1796,-182.15 1796,-172.32 1796,-164.58"/>
<polygon fill="midnightblue" stroke="midnightblue" points="1792.5,-191.4 1796,-201.4 1799.5,-191.4 1792.5,-191.4"/>
</g>
<!-- Node25 -->
<g id="node25" class="node">
<title>Node25</title>
<g id="a_node25"><a xlink:href="../../d0/dfa/layoutsettings__dialog_8cpp.html" target="_top" xlink:title=" ">
<polygon fill="white" stroke="black" points="3866.5,-0.5 3866.5,-30.5 4011.5,-30.5 4011.5,-0.5 3866.5,-0.5"/>
<text text-anchor="start" x="3874.5" y="-18.5" font-family="Helvetica,sans-Serif" font-size="10.00">src/app/seamly2d/dialogs</text>
<text text-anchor="middle" x="3939" y="-7.5" font-family="Helvetica,sans-Serif" font-size="10.00">/layoutsettings_dialog.cpp</text>
</a>
</g>
</g>
<!-- Node11&#45;&gt;Node25 -->
<g id="edge39" class="edge">
<title>Node11&#45;&gt;Node25</title>
<path fill="none" stroke="midnightblue" d="M1876.93,-210.83C2154.1,-194.27 3090.39,-133.84 3858,-31 3860.69,-30.64 3863.43,-30.25 3866.19,-29.85"/>
<polygon fill="midnightblue" stroke="midnightblue" points="1876.35,-207.35 1866.57,-211.44 1876.76,-214.34 1876.35,-207.35"/>
</g>
<!-- Node30 -->
<g id="node30" class="node">
<title>Node30</title>
<g id="a_node30"><a xlink:href="../../df/d9b/vcmdexport_8cpp.html" target="_top" xlink:title=" ">
<polygon fill="white" stroke="black" points="1877.5,-67.5 1877.5,-97.5 2004.5,-97.5 2004.5,-67.5 1877.5,-67.5"/>
<text text-anchor="start" x="1885.5" y="-85.5" font-family="Helvetica,sans-Serif" font-size="10.00">src/app/seamly2d/core</text>
<text text-anchor="middle" x="1941" y="-74.5" font-family="Helvetica,sans-Serif" font-size="10.00">/vcmdexport.cpp</text>
</a>
</g>
</g>
<!-- Node11&#45;&gt;Node30 -->
<g id="edge38" class="edge">
<title>Node11&#45;&gt;Node30</title>
<path fill="none" stroke="midnightblue" d="M1827.4,-195.76C1840.47,-186.98 1855.48,-176.12 1868,-165 1892.15,-143.56 1916.42,-114.66 1930,-97.65"/>
<polygon fill="midnightblue" stroke="midnightblue" points="1825.14,-193.06 1818.72,-201.49 1828.99,-198.91 1825.14,-193.06"/>
</g>
<!-- Node12&#45;&gt;Node7 -->
<g id="edge37" class="edge">
<title>Node12&#45;&gt;Node7</title>
<path fill="none" stroke="midnightblue" d="M1722.36,-143.77C1540.35,-132.06 1069.81,-101.81 873.28,-89.18"/>
<polygon fill="midnightblue" stroke="midnightblue" points="1722.17,-147.26 1732.37,-144.41 1722.62,-140.27 1722.17,-147.26"/>
</g>
<!-- Node13 -->
<g id="node13" class="node">
<title>Node13</title>
<g id="a_node13"><a xlink:href="../../d9/d02/vapplication_8h.html" target="_top" xlink:title=" ">
<polygon fill="white" stroke="black" points="1732.5,-67.5 1732.5,-97.5 1859.5,-97.5 1859.5,-67.5 1732.5,-67.5"/>
<text text-anchor="start" x="1740.5" y="-85.5" font-family="Helvetica,sans-Serif" font-size="10.00">src/app/seamly2d/core</text>
<text text-anchor="middle" x="1796" y="-74.5" font-family="Helvetica,sans-Serif" font-size="10.00">/vapplication.h</text>
</a>
</g>
</g>
<!-- Node12&#45;&gt;Node13 -->
<g id="edge13" class="edge">
<title>Node12&#45;&gt;Node13</title>
<path fill="none" stroke="midnightblue" d="M1796,-124.11C1796,-115.15 1796,-105.32 1796,-97.58"/>
<polygon fill="midnightblue" stroke="midnightblue" points="1792.5,-124.4 1796,-134.4 1799.5,-124.4 1792.5,-124.4"/>
</g>
<!-- Node12&#45;&gt;Node30 -->
<g id="edge36" class="edge">
<title>Node12&#45;&gt;Node30</title>
<path fill="none" stroke="midnightblue" d="M1836.67,-130.27C1859.76,-119.92 1888.24,-107.15 1909.6,-97.58"/>
<polygon fill="midnightblue" stroke="midnightblue" points="1835.16,-127.11 1827.46,-134.4 1838.02,-133.5 1835.16,-127.11"/>
</g>
<!-- Node13&#45;&gt;Node2 -->
<g id="edge15" class="edge">
<title>Node13&#45;&gt;Node2</title>
<path fill="none" stroke="midnightblue" d="M1721.81,-80.64C1443.98,-77.2 465.19,-63.03 155,-31 152.12,-30.7 149.2,-30.36 146.24,-29.99"/>
<polygon fill="midnightblue" stroke="midnightblue" points="1722.13,-84.14 1732.18,-80.77 1722.22,-77.14 1722.13,-84.14"/>
</g>
<!-- Node13&#45;&gt;Node4 -->
<g id="edge27" class="edge">
<title>Node13&#45;&gt;Node4</title>
<path fill="none" stroke="midnightblue" d="M1722.2,-82.06C1529.56,-82.74 995.9,-79.69 555,-31 552.33,-30.71 549.62,-30.38 546.89,-30.02"/>
<polygon fill="midnightblue" stroke="midnightblue" points="1722.5,-85.55 1732.48,-82.01 1722.47,-78.55 1722.5,-85.55"/>
</g>
<!-- Node13&#45;&gt;Node5 -->
<g id="edge32" class="edge">
<title>Node13&#45;&gt;Node5</title>
<path fill="none" stroke="midnightblue" d="M1722.08,-81.05C1513.19,-79.32 900.8,-70.93 394,-31 375.33,-29.53 355.07,-27.3 336.66,-25.03"/>
<polygon fill="midnightblue" stroke="midnightblue" points="1722.28,-84.56 1732.31,-81.14 1722.34,-77.56 1722.28,-84.56"/>
</g>
<!-- Node13&#45;&gt;Node8 -->
<g id="edge14" class="edge">
<title>Node13&#45;&gt;Node8</title>
<path fill="none" stroke="midnightblue" d="M1722.16,-81.98C1545.07,-82.27 1082.54,-78.05 700,-31 697.22,-30.66 694.38,-30.27 691.52,-29.84"/>
<polygon fill="midnightblue" stroke="midnightblue" points="1722.41,-85.48 1732.4,-81.95 1722.39,-78.48 1722.41,-85.48"/>
</g>
<!-- Node13&#45;&gt;Node9 -->
<g id="edge31" class="edge">
<title>Node13&#45;&gt;Node9</title>
<path fill="none" stroke="midnightblue" d="M1722.34,-80.34C1565.24,-77.25 1185.86,-66.44 870,-31 856.76,-29.51 842.45,-27.31 829.42,-25.06"/>
<polygon fill="midnightblue" stroke="midnightblue" points="1722.29,-83.84 1732.36,-80.54 1722.43,-76.84 1722.29,-83.84"/>
</g>
<!-- Node13&#45;&gt;Node10 -->
<g id="edge34" class="edge">
<title>Node13&#45;&gt;Node10</title>
<path fill="none" stroke="midnightblue" d="M1722.02,-78.02C1591.38,-71.49 1311.38,-55.79 1076,-31 1060.47,-29.36 1043.67,-27.18 1028.24,-25"/>
<polygon fill="midnightblue" stroke="midnightblue" points="1722.14,-81.53 1732.3,-78.53 1722.49,-74.54 1722.14,-81.53"/>
</g>
<!-- Node14 -->
<g id="node14" class="node">
<title>Node14</title>
<g id="a_node14"><a xlink:href="../../d7/dfa/calculator__dialog_8cpp.html" target="_top" xlink:title=" ">
<polygon fill="white" stroke="black" points="2594.5,-0.5 2594.5,-30.5 2735.5,-30.5 2735.5,-0.5 2594.5,-0.5"/>
<text text-anchor="start" x="2602.5" y="-18.5" font-family="Helvetica,sans-Serif" font-size="10.00">src/app/seamly2d/dialogs</text>
<text text-anchor="middle" x="2665" y="-7.5" font-family="Helvetica,sans-Serif" font-size="10.00">/calculator_dialog.cpp</text>
</a>
</g>
</g>
<!-- Node13&#45;&gt;Node14 -->
<g id="edge16" class="edge">
<title>Node13&#45;&gt;Node14</title>
<path fill="none" stroke="midnightblue" d="M1869.44,-66.95C2186.34,-28.21 2271.28,-67.15 2585,-31 2588.08,-30.64 2591.23,-30.24 2594.4,-29.81"/>
<polygon fill="midnightblue" stroke="midnightblue" points="1869.01,-63.47 1859.52,-68.18 1869.87,-70.42 1869.01,-63.47"/>
</g>
<!-- Node15 -->
<g id="node15" class="node">
<title>Node15</title>
<g id="a_node15"><a xlink:href="../../d2/d2d/preferencesconfigurationpage_8cpp.html" target="_top" xlink:title=" ">
<polygon fill="white" stroke="black" points="2753.5,-0.5 2753.5,-30.5 3000.5,-30.5 3000.5,-0.5 2753.5,-0.5"/>
<text text-anchor="start" x="2761.5" y="-18.5" font-family="Helvetica,sans-Serif" font-size="10.00">src/app/seamly2d/dialogs</text>
<text text-anchor="middle" x="2877" y="-7.5" font-family="Helvetica,sans-Serif" font-size="10.00">/configpages/preferencesconfigurationpage.cpp</text>
</a>
</g>
</g>
<!-- Node13&#45;&gt;Node15 -->
<g id="edge17" class="edge">
<title>Node13&#45;&gt;Node15</title>
<path fill="none" stroke="midnightblue" d="M1869.59,-66.94C2256.6,-21.06 2358.75,-59.88 2744,-31 2747.13,-30.77 2750.29,-30.52 2753.49,-30.25"/>
<polygon fill="midnightblue" stroke="midnightblue" points="1869.03,-63.48 1859.52,-68.14 1869.86,-70.43 1869.03,-63.48"/>
</g>
<!-- Node16 -->
<g id="node16" class="node">
<title>Node16</title>
<g id="a_node16"><a xlink:href="../../d9/d70/preferencesgraphicsviewpage_8cpp.html" target="_top" xlink:title=" ">
<polygon fill="white" stroke="black" points="3019,-0.5 3019,-30.5 3267,-30.5 3267,-0.5 3019,-0.5"/>
<text text-anchor="start" x="3027" y="-18.5" font-family="Helvetica,sans-Serif" font-size="10.00">src/app/seamly2d/dialogs</text>
<text text-anchor="middle" x="3143" y="-7.5" font-family="Helvetica,sans-Serif" font-size="10.00">/configpages/preferencesgraphicsviewpage.cpp</text>
</a>
</g>
</g>
<!-- Node13&#45;&gt;Node16 -->
<g id="edge18" class="edge">
<title>Node13&#45;&gt;Node16</title>
<path fill="none" stroke="midnightblue" d="M1869.61,-66.95C2374.19,-9.43 2506.78,-66.31 3010,-31 3012.9,-30.8 3015.83,-30.58 3018.78,-30.35"/>
<polygon fill="midnightblue" stroke="midnightblue" points="1869.05,-63.49 1859.51,-68.11 1869.85,-70.45 1869.05,-63.49"/>
</g>
<!-- Node17 -->
<g id="node17" class="node">
<title>Node17</title>
<g id="a_node17"><a xlink:href="../../dc/d20/preferencespathpage_8cpp.html" target="_top" xlink:title=" ">
<polygon fill="white" stroke="black" points="3285.5,-0.5 3285.5,-30.5 3490.5,-30.5 3490.5,-0.5 3285.5,-0.5"/>
<text text-anchor="start" x="3293.5" y="-18.5" font-family="Helvetica,sans-Serif" font-size="10.00">src/app/seamly2d/dialogs</text>
<text text-anchor="middle" x="3388" y="-7.5" font-family="Helvetica,sans-Serif" font-size="10.00">/configpages/preferencespathpage.cpp</text>
</a>
</g>
</g>
<!-- Node13&#45;&gt;Node17 -->
<g id="edge19" class="edge">
<title>Node13&#45;&gt;Node17</title>
<path fill="none" stroke="midnightblue" d="M1869.63,-66.96C2491.8,2.17 2655.23,-78.99 3276,-31 3279.03,-30.77 3282.1,-30.51 3285.2,-30.23"/>
<polygon fill="midnightblue" stroke="midnightblue" points="1869.06,-63.5 1859.51,-68.09 1869.84,-70.46 1869.06,-63.5"/>
</g>
<!-- Node18 -->
<g id="node18" class="node">
<title>Node18</title>
<g id="a_node18"><a xlink:href="../../d2/d00/vtooloptionspropertybrowser_8cpp.html" target="_top" xlink:title=" ">
<polygon fill="white" stroke="black" points="3509,-0.5 3509,-30.5 3689,-30.5 3689,-0.5 3509,-0.5"/>
<text text-anchor="start" x="3517" y="-18.5" font-family="Helvetica,sans-Serif" font-size="10.00">src/app/seamly2d/core</text>
<text text-anchor="middle" x="3599" y="-7.5" font-family="Helvetica,sans-Serif" font-size="10.00">/vtooloptionspropertybrowser.cpp</text>
</a>
</g>
</g>
<!-- Node13&#45;&gt;Node18 -->
<g id="edge20" class="edge">
<title>Node13&#45;&gt;Node18</title>
<path fill="none" stroke="midnightblue" d="M1869.63,-66.96C2590.85,11.96 2780.39,-91.4 3500,-31 3502.94,-30.75 3505.93,-30.47 3508.95,-30.17"/>
<polygon fill="midnightblue" stroke="midnightblue" points="1869.06,-63.5 1859.51,-68.08 1869.83,-70.46 1869.06,-63.5"/>
</g>
<!-- Node19 -->
<g id="node19" class="node">
<title>Node19</title>
<g id="a_node19"><a xlink:href="../../dd/dc2/decimalchart__dialog_8cpp.html" target="_top" xlink:title=" ">
<polygon fill="white" stroke="black" points="3707.5,-0.5 3707.5,-30.5 3848.5,-30.5 3848.5,-0.5 3707.5,-0.5"/>
<text text-anchor="start" x="3715.5" y="-18.5" font-family="Helvetica,sans-Serif" font-size="10.00">src/app/seamly2d/dialogs</text>
<text text-anchor="middle" x="3778" y="-7.5" font-family="Helvetica,sans-Serif" font-size="10.00">/decimalchart_dialog.cpp</text>
</a>
</g>
</g>
<!-- Node13&#45;&gt;Node19 -->
<g id="edge21" class="edge">
<title>Node13&#45;&gt;Node19</title>
<path fill="none" stroke="midnightblue" d="M1869.65,-66.96C2678.41,20.55 2891.89,-111.46 3698,-31 3701.09,-30.69 3704.24,-30.33 3707.42,-29.92"/>
<polygon fill="midnightblue" stroke="midnightblue" points="1869.07,-63.51 1859.51,-68.07 1869.83,-70.46 1869.07,-63.51"/>
</g>
<!-- Node20 -->
<g id="node20" class="node">
<title>Node20</title>
<g id="a_node20"><a xlink:href="../../dd/d64/dialogaboutapp_8cpp.html" target="_top" xlink:title=" ">
<polygon fill="white" stroke="black" points="1085.5,-0.5 1085.5,-30.5 1226.5,-30.5 1226.5,-0.5 1085.5,-0.5"/>
<text text-anchor="start" x="1093.5" y="-18.5" font-family="Helvetica,sans-Serif" font-size="10.00">src/app/seamly2d/dialogs</text>
<text text-anchor="middle" x="1156" y="-7.5" font-family="Helvetica,sans-Serif" font-size="10.00">/dialogaboutapp.cpp</text>
</a>
</g>
</g>
<!-- Node13&#45;&gt;Node20 -->
<g id="edge22" class="edge">
<title>Node13&#45;&gt;Node20</title>
<path fill="none" stroke="midnightblue" d="M1722.31,-76.96C1615.01,-69.88 1409.6,-54.51 1236,-31 1232.92,-30.58 1229.78,-30.13 1226.62,-29.65"/>
<polygon fill="midnightblue" stroke="midnightblue" points="1722.18,-80.46 1732.39,-77.62 1722.64,-73.48 1722.18,-80.46"/>
</g>
<!-- Node21 -->
<g id="node21" class="node">
<title>Node21</title>
<g id="a_node21"><a xlink:href="../../dc/d63/preferencespatternpage_8cpp.html" target="_top" xlink:title=" ">
<polygon fill="white" stroke="black" points="1245,-0.5 1245,-30.5 1463,-30.5 1463,-0.5 1245,-0.5"/>
<text text-anchor="start" x="1253" y="-18.5" font-family="Helvetica,sans-Serif" font-size="10.00">src/app/seamly2d/dialogs</text>
<text text-anchor="middle" x="1354" y="-7.5" font-family="Helvetica,sans-Serif" font-size="10.00">/configpages/preferencespatternpage.cpp</text>
</a>
</g>
</g>
<!-- Node13&#45;&gt;Node21 -->
<g id="edge23" class="edge">
<title>Node13&#45;&gt;Node21</title>
<path fill="none" stroke="midnightblue" d="M1721.93,-70.61C1647.11,-59.6 1531.24,-42.56 1449.55,-30.55"/>
<polygon fill="midnightblue" stroke="midnightblue" points="1721.8,-74.13 1732.2,-72.12 1722.82,-67.2 1721.8,-74.13"/>
</g>
<!-- Node22 -->
<g id="node22" class="node">
<title>Node22</title>
<g id="a_node22"><a xlink:href="../../d6/d89/dialoglayoutprogress_8cpp.html" target="_top" xlink:title=" ">
<polygon fill="white" stroke="black" points="1481.5,-0.5 1481.5,-30.5 1624.5,-30.5 1624.5,-0.5 1481.5,-0.5"/>
<text text-anchor="start" x="1489.5" y="-18.5" font-family="Helvetica,sans-Serif" font-size="10.00">src/app/seamly2d/dialogs</text>
<text text-anchor="middle" x="1553" y="-7.5" font-family="Helvetica,sans-Serif" font-size="10.00">/dialoglayoutprogress.cpp</text>
</a>
</g>
</g>
<!-- Node13&#45;&gt;Node22 -->
<g id="edge24" class="edge">
<title>Node13&#45;&gt;Node22</title>
<path fill="none" stroke="midnightblue" d="M1733.75,-64.85C1694.14,-54.25 1643.39,-40.68 1605.75,-30.61"/>
<polygon fill="midnightblue" stroke="midnightblue" points="1733.01,-68.27 1743.57,-67.48 1734.82,-61.51 1733.01,-68.27"/>
</g>
<!-- Node23 -->
<g id="node23" class="node">
<title>Node23</title>
<g id="a_node23"><a xlink:href="../../d5/dc5/dialogpreferences_8cpp.html" target="_top" xlink:title=" ">
<polygon fill="white" stroke="black" points="1642.5,-0.5 1642.5,-30.5 1783.5,-30.5 1783.5,-0.5 1642.5,-0.5"/>
<text text-anchor="start" x="1650.5" y="-18.5" font-family="Helvetica,sans-Serif" font-size="10.00">src/app/seamly2d/dialogs</text>
<text text-anchor="middle" x="1713" y="-7.5" font-family="Helvetica,sans-Serif" font-size="10.00">/dialogpreferences.cpp</text>
</a>
</g>
</g>
<!-- Node13&#45;&gt;Node23 -->
<g id="edge25" class="edge">
<title>Node13&#45;&gt;Node23</title>
<path fill="none" stroke="midnightblue" d="M1770.04,-61.17C1757.35,-51.23 1742.39,-39.51 1730.97,-30.58"/>
<polygon fill="midnightblue" stroke="midnightblue" points="1767.96,-63.99 1777.99,-67.4 1772.28,-58.47 1767.96,-63.99"/>
</g>
<!-- Node24 -->
<g id="node24" class="node">
<title>Node24</title>
<g id="a_node24"><a xlink:href="../../d5/d18/dialogpatternproperties_8cpp.html" target="_top" xlink:title=" ">
<polygon fill="white" stroke="black" points="1801.5,-0.5 1801.5,-30.5 1956.5,-30.5 1956.5,-0.5 1801.5,-0.5"/>
<text text-anchor="start" x="1809.5" y="-18.5" font-family="Helvetica,sans-Serif" font-size="10.00">src/app/seamly2d/dialogs</text>
<text text-anchor="middle" x="1879" y="-7.5" font-family="Helvetica,sans-Serif" font-size="10.00">/dialogpatternproperties.cpp</text>
</a>
</g>
</g>
<!-- Node13&#45;&gt;Node24 -->
<g id="edge26" class="edge">
<title>Node13&#45;&gt;Node24</title>
<path fill="none" stroke="midnightblue" d="M1821.96,-61.17C1834.65,-51.23 1849.61,-39.51 1861.03,-30.58"/>
<polygon fill="midnightblue" stroke="midnightblue" points="1819.72,-58.47 1814.01,-67.4 1824.04,-63.99 1819.72,-58.47"/>
</g>
<!-- Node13&#45;&gt;Node25 -->
<g id="edge28" class="edge">
<title>Node13&#45;&gt;Node25</title>
<path fill="none" stroke="midnightblue" d="M1869.56,-66.98C2749.15,27.61 2980.95,-116.88 3858,-31 3860.7,-30.74 3863.45,-30.43 3866.22,-30.09"/>
<polygon fill="midnightblue" stroke="midnightblue" points="1869.07,-63.51 1859.51,-68.06 1869.82,-70.47 1869.07,-63.51"/>
</g>
<!-- Node26 -->
<g id="node26" class="node">
<title>Node26</title>
<g id="a_node26"><a xlink:href="../../db/d5c/groups__widget_8cpp.html" target="_top" xlink:title=" ">
<polygon fill="white" stroke="black" points="1974.5,-0.5 1974.5,-30.5 2115.5,-30.5 2115.5,-0.5 1974.5,-0.5"/>
<text text-anchor="start" x="1982.5" y="-18.5" font-family="Helvetica,sans-Serif" font-size="10.00">src/app/seamly2d/dialogs</text>
<text text-anchor="middle" x="2045" y="-7.5" font-family="Helvetica,sans-Serif" font-size="10.00">/groups_widget.cpp</text>
</a>
</g>
</g>
<!-- Node13&#45;&gt;Node26 -->
<g id="edge29" class="edge">
<title>Node13&#45;&gt;Node26</title>
<path fill="none" stroke="midnightblue" d="M1859.53,-64.92C1900.16,-54.31 1952.3,-40.7 1990.94,-30.61"/>
<polygon fill="midnightblue" stroke="midnightblue" points="1858.51,-61.56 1849.72,-67.48 1860.28,-68.34 1858.51,-61.56"/>
</g>
<!-- Node27 -->
<g id="node27" class="node">
<title>Node27</title>
<g id="a_node27"><a xlink:href="../../d2/df4/show__info__dialog_8cpp.html" target="_top" xlink:title=" ">
<polygon fill="white" stroke="black" points="2133.5,-0.5 2133.5,-30.5 2274.5,-30.5 2274.5,-0.5 2133.5,-0.5"/>
<text text-anchor="start" x="2141.5" y="-18.5" font-family="Helvetica,sans-Serif" font-size="10.00">src/app/seamly2d/dialogs</text>
<text text-anchor="middle" x="2204" y="-7.5" font-family="Helvetica,sans-Serif" font-size="10.00">/show_info_dialog.cpp</text>
</a>
</g>
</g>
<!-- Node13&#45;&gt;Node27 -->
<g id="edge30" class="edge">
<title>Node13&#45;&gt;Node27</title>
<path fill="none" stroke="midnightblue" d="M1869.69,-66.77C1982.98,-47.72 2013.77,-48.73 2124,-31 2127.07,-30.51 2130.2,-29.99 2133.36,-29.46"/>
<polygon fill="midnightblue" stroke="midnightblue" points="1868.84,-63.36 1859.57,-68.49 1870.01,-70.26 1868.84,-63.36"/>
</g>
<!-- Node28 -->
<g id="node28" class="node">
<title>Node28</title>
<g id="a_node28"><a xlink:href="../../dd/d84/shortcuts__dialog_8cpp.html" target="_top" xlink:title=" ">
<polygon fill="white" stroke="black" points="2292.5,-0.5 2292.5,-30.5 2433.5,-30.5 2433.5,-0.5 2292.5,-0.5"/>
<text text-anchor="start" x="2300.5" y="-18.5" font-family="Helvetica,sans-Serif" font-size="10.00">src/app/seamly2d/dialogs</text>
<text text-anchor="middle" x="2363" y="-7.5" font-family="Helvetica,sans-Serif" font-size="10.00">/shortcuts_dialog.cpp</text>
</a>
</g>
</g>
<!-- Node13&#45;&gt;Node28 -->
<g id="edge33" class="edge">
<title>Node13&#45;&gt;Node28</title>
<path fill="none" stroke="midnightblue" d="M1869.52,-66.88C2052.99,-41.19 2102.72,-55.1 2283,-31 2286.08,-30.59 2289.22,-30.14 2292.39,-29.67"/>
<polygon fill="midnightblue" stroke="midnightblue" points="1868.94,-63.43 1859.54,-68.3 1869.93,-70.36 1868.94,-63.43"/>
</g>
<!-- Node29 -->
<g id="node29" class="node">
<title>Node29</title>
<g id="a_node29"><a xlink:href="../../d3/d49/vpattern_8cpp.html" target="_top" xlink:title=" ">
<polygon fill="white" stroke="black" points="2451.5,-0.5 2451.5,-30.5 2576.5,-30.5 2576.5,-0.5 2451.5,-0.5"/>
<text text-anchor="start" x="2459.5" y="-18.5" font-family="Helvetica,sans-Serif" font-size="10.00">src/app/seamly2d/xml</text>
<text text-anchor="middle" x="2514" y="-7.5" font-family="Helvetica,sans-Serif" font-size="10.00">/vpattern.cpp</text>
</a>
</g>
</g>
<!-- Node13&#45;&gt;Node29 -->
<g id="edge35" class="edge">
<title>Node13&#45;&gt;Node29</title>
<path fill="none" stroke="midnightblue" d="M1869.78,-66.89C2123.24,-34.49 2191.91,-63.87 2442,-31 2445.03,-30.6 2448.13,-30.15 2451.26,-29.66"/>
<polygon fill="midnightblue" stroke="midnightblue" points="1868.99,-63.46 1859.52,-68.22 1869.89,-70.4 1868.99,-63.46"/>
</g>
</g>
</svg>
        <g id="navigator" transform="translate(0 0)" fill="#404254">
                <rect fill="#f2f5e9" fill-opacity="0.5" stroke="#606060" stroke-width=".5" x="0" y="0" width="60" height="60"/>
                <use id="zoomplus" xlink:href="#zoomPlus" x="17" y="9" onmousedown="handleZoom(evt,'in')"/>
                <use id="zoomminus" xlink:href="#zoomMin" x="42" y="9" onmousedown="handleZoom(evt,'out')"/>
                <use id="reset" xlink:href="#resetDef" x="30" y="36" onmousedown="handleReset()"/>
                <g id="arrowUp" xlink:href="#dirArrow" transform="translate(30 24)" onmousedown="handlePan(0,-1)">
                  <use xlink:href="#rim" fill="#404040">
                        <set attributeName="fill" to="#808080" begin="arrowUp.mouseover" end="arrowUp.mouseout"/>
                  </use>
                  <path fill="none" stroke="white" stroke-width="1.5" d="M0,-3.0v7 M-2.5,-0.5L0,-3.0L2.5,-0.5"/>
                </g>
                <g id="arrowRight" xlink:href="#dirArrow" transform="rotate(90) translate(36 -43)" onmousedown="handlePan(1,0)">
                  <use xlink:href="#rim" fill="#404040">
                        <set attributeName="fill" to="#808080" begin="arrowRight.mouseover" end="arrowRight.mouseout"/>
                  </use>
                  <path fill="none" stroke="white" stroke-width="1.5" d="M0,-3.0v7 M-2.5,-0.5L0,-3.0L2.5,-0.5"/>
                </g>
                <g id="arrowDown" xlink:href="#dirArrow" transform="rotate(180) translate(-30 -48)" onmousedown="handlePan(0,1)">
                  <use xlink:href="#rim" fill="#404040">
                        <set attributeName="fill" to="#808080" begin="arrowDown.mouseover" end="arrowDown.mouseout"/>
                  </use>
                  <path fill="none" stroke="white" stroke-width="1.5" d="M0,-3.0v7 M-2.5,-0.5L0,-3.0L2.5,-0.5"/>
                </g>
                <g id="arrowLeft" xlink:href="#dirArrow" transform="rotate(270) translate(-36 17)" onmousedown="handlePan(-1,0)">
                  <use xlink:href="#rim" fill="#404040">
                        <set attributeName="fill" to="#808080" begin="arrowLeft.mouseover" end="arrowLeft.mouseout"/>
                  </use>
                  <path fill="none" stroke="white" stroke-width="1.5" d="M0,-3.0v7 M-2.5,-0.5L0,-3.0L2.5,-0.5"/>
                </g>
        </g>
        <svg viewBox="0 0 15 15" width="100%" height="30px" preserveAspectRatio="xMaxYMin meet">
         <g id="arrow_out" transform="scale(0.3 0.3)">
          <a xlink:href="abstractlayout__dialog_8h__dep__incl_org.svg" target="_base">
           <rect id="button" ry="5" rx="5" y="6" x="6" height="38" width="38"
                fill="#f2f5e9" fill-opacity="0.5" stroke="#606060" stroke-width="1.0"/>
           <path id="arrow"
             d="M 11.500037,31.436501 C 11.940474,20.09759 22.043105,11.32322 32.158766,21.979434 L 37.068811,17.246167 C 37.068811,17.246167 37.088388,32 37.088388,32 L 22.160133,31.978069 C 22.160133,31.978069 26.997745,27.140456 26.997745,27.140456 C 18.528582,18.264221 13.291696,25.230495 11.500037,31.436501 z"
             style="fill:#404040;"/>
          </a>
         </g>
        </svg>
</svg>
