<?xml version="1.0" encoding="UTF-8" standalone="no"?>
<!DOCTYPE svg PUBLIC "-//W3C//DTD SVG 1.1//EN"
 "http://www.w3.org/Graphics/SVG/1.1/DTD/svg11.dtd">
<!-- Generated by graphviz version 2.43.0 (0)
 -->
<!-- Title: src/app/seamly2d/dialogs/abstractlayout_dialog.h Pages: 1 -->
<svg width="4019pt" height="307pt"
 viewBox="0.00 0.00 4018.50 307.00" xmlns="http://www.w3.org/2000/svg" xmlns:xlink="http://www.w3.org/1999/xlink">
<g id="graph0" class="graph" transform="scale(1 1) rotate(0) translate(4 303)">
<title>src/app/seamly2d/dialogs/abstractlayout_dialog.h</title>
<polygon fill="white" stroke="transparent" points="-4,4 -4,-303 4014.5,-303 4014.5,4 -4,4"/>
<!-- Node1 -->
<g id="node1" class="node">
<title>Node1</title>
<g id="a_node1"><a xlink:title=" ">
<polygon fill="#bfbfbf" stroke="black" points="2255.5,-268.5 2255.5,-298.5 2396.5,-298.5 2396.5,-268.5 2255.5,-268.5"/>
<text text-anchor="start" x="2263.5" y="-286.5" font-family="Helvetica,sans-Serif" font-size="10.00">src/app/seamly2d/dialogs</text>
<text text-anchor="middle" x="2326" y="-275.5" font-family="Helvetica,sans-Serif" font-size="10.00">/abstractlayout_dialog.h</text>
</a>
</g>
</g>
<!-- Node2 -->
<g id="node2" class="node">
<title>Node2</title>
<g id="a_node2"><a xlink:href="../../dd/db4/abstractlayout__dialog_8cpp.html" target="_top" xlink:title=" ">
<polygon fill="white" stroke="black" points="0,-0.5 0,-30.5 146,-30.5 146,-0.5 0,-0.5"/>
<text text-anchor="start" x="8" y="-18.5" font-family="Helvetica,sans-Serif" font-size="10.00">src/app/seamly2d/dialogs</text>
<text text-anchor="middle" x="73" y="-7.5" font-family="Helvetica,sans-Serif" font-size="10.00">/abstractlayout_dialog.cpp</text>
</a>
</g>
</g>
<!-- Node1&#45;&gt;Node2 -->
<g id="edge1" class="edge">
<title>Node1&#45;&gt;Node2</title>
<path fill="none" stroke="midnightblue" d="M2245.06,-278.64C1984.5,-265.35 1144.67,-215.61 460,-98 343.44,-77.98 208.53,-48 132.73,-30.53"/>
<polygon fill="midnightblue" stroke="midnightblue" points="2245.02,-282.15 2255.19,-279.16 2245.38,-275.16 2245.02,-282.15"/>
</g>
<!-- Node3 -->
<g id="node3" class="node">
<title>Node3</title>
<g id="a_node3"><a xlink:href="../../d1/d8e/export__layout__dialog_8h.html" target="_top" xlink:title=" ">
<polygon fill="white" stroke="black" points="2255.5,-201.5 2255.5,-231.5 2396.5,-231.5 2396.5,-201.5 2255.5,-201.5"/>
<text text-anchor="start" x="2263.5" y="-219.5" font-family="Helvetica,sans-Serif" font-size="10.00">src/app/seamly2d/dialogs</text>
<text text-anchor="middle" x="2326" y="-208.5" font-family="Helvetica,sans-Serif" font-size="10.00">/export_layout_dialog.h</text>
</a>
</g>
</g>
<!-- Node1&#45;&gt;Node3 -->
<g id="edge2" class="edge">
<title>Node1&#45;&gt;Node3</title>
<path fill="none" stroke="midnightblue" d="M2326,-258.11C2326,-249.15 2326,-239.32 2326,-231.58"/>
<polygon fill="midnightblue" stroke="midnightblue" points="2322.5,-258.4 2326,-268.4 2329.5,-258.4 2322.5,-258.4"/>
</g>
<!-- Node11 -->
<g id="node11" class="node">
<title>Node11</title>
<g id="a_node11"><a xlink:href="../../d3/dd8/layoutsettings__dialog_8h.html" target="_top" xlink:title=" ">
<polygon fill="white" stroke="black" points="2414.5,-201.5 2414.5,-231.5 2555.5,-231.5 2555.5,-201.5 2414.5,-201.5"/>
<text text-anchor="start" x="2422.5" y="-219.5" font-family="Helvetica,sans-Serif" font-size="10.00">src/app/seamly2d/dialogs</text>
<text text-anchor="middle" x="2485" y="-208.5" font-family="Helvetica,sans-Serif" font-size="10.00">/layoutsettings_dialog.h</text>
</a>
</g>
</g>
<!-- Node1&#45;&gt;Node11 -->
<g id="edge11" class="edge">
<title>Node1&#45;&gt;Node11</title>
<path fill="none" stroke="midnightblue" d="M2369.92,-264.54C2395.37,-254.14 2426.93,-241.24 2450.57,-231.58"/>
<polygon fill="midnightblue" stroke="midnightblue" points="2368.43,-261.37 2360.5,-268.4 2371.08,-267.85 2368.43,-261.37"/>
</g>
<!-- Node4 -->
<g id="node4" class="node">
<title>Node4</title>
<g id="a_node4"><a xlink:href="../../dd/d54/export__layout__dialog_8cpp.html" target="_top" xlink:title=" ">
<polygon fill="white" stroke="black" points="164.5,-0.5 164.5,-30.5 307.5,-30.5 307.5,-0.5 164.5,-0.5"/>
<text text-anchor="start" x="172.5" y="-18.5" font-family="Helvetica,sans-Serif" font-size="10.00">src/app/seamly2d/dialogs</text>
<text text-anchor="middle" x="236" y="-7.5" font-family="Helvetica,sans-Serif" font-size="10.00">/export_layout_dialog.cpp</text>
</a>
</g>
</g>
<!-- Node3&#45;&gt;Node4 -->
<g id="edge3" class="edge">
<title>Node3&#45;&gt;Node4</title>
<path fill="none" stroke="midnightblue" d="M2245.07,-213.63C2001.12,-207.19 1251.84,-181.5 637,-98 513.28,-81.2 370.44,-49.05 293.04,-30.55"/>
<polygon fill="midnightblue" stroke="midnightblue" points="2245.18,-217.13 2255.27,-213.9 2245.37,-210.14 2245.18,-217.13"/>
</g>
<!-- Node5 -->
<g id="node5" class="node">
<title>Node5</title>
<g id="a_node5"><a xlink:href="../../d1/d82/mainwindowsnogui_8h.html" target="_top" xlink:title=" ">
<polygon fill="white" stroke="black" points="2228.5,-140 2228.5,-159 2437.5,-159 2437.5,-140 2228.5,-140"/>
<text text-anchor="middle" x="2333" y="-147" font-family="Helvetica,sans-Serif" font-size="10.00">src/app/seamly2d/mainwindowsnogui.h</text>
</a>
</g>
</g>
<!-- Node3&#45;&gt;Node5 -->
<g id="edge4" class="edge">
<title>Node3&#45;&gt;Node5</title>
<path fill="none" stroke="midnightblue" d="M2328.61,-191.25C2329.82,-180.02 2331.18,-167.38 2332.06,-159.19"/>
<polygon fill="midnightblue" stroke="midnightblue" points="2325.11,-191.08 2327.52,-201.4 2332.07,-191.83 2325.11,-191.08"/>
</g>
<!-- Node10 -->
<g id="node10" class="node">
<title>Node10</title>
<g id="a_node10"><a xlink:href="../../d8/de8/mainwindowsnogui_8cpp.html" target="_top" xlink:title=" ">
<polygon fill="white" stroke="black" points="3626.5,-6 3626.5,-25 3847.5,-25 3847.5,-6 3626.5,-6"/>
<text text-anchor="middle" x="3737" y="-13" font-family="Helvetica,sans-Serif" font-size="10.00">src/app/seamly2d/mainwindowsnogui.cpp</text>
</a>
</g>
</g>
<!-- Node3&#45;&gt;Node10 -->
<g id="edge10" class="edge">
<title>Node3&#45;&gt;Node10</title>
<path fill="none" stroke="midnightblue" d="M2406.67,-200.76C2894.68,-122.46 3471.04,-49.39 3667.51,-25.03"/>
<polygon fill="midnightblue" stroke="midnightblue" points="2405.93,-197.34 2396.61,-202.38 2407.04,-204.25 2405.93,-197.34"/>
</g>
<!-- Node6 -->
<g id="node6" class="node">
<title>Node6</title>
<g id="a_node6"><a xlink:href="../../d9/d53/mainwindow_8h.html" target="_top" xlink:title=" ">
<polygon fill="white" stroke="black" points="646,-73 646,-92 822,-92 822,-73 646,-73"/>
<text text-anchor="middle" x="734" y="-80" font-family="Helvetica,sans-Serif" font-size="10.00">src/app/seamly2d/mainwindow.h</text>
</a>
</g>
</g>
<!-- Node5&#45;&gt;Node6 -->
<g id="edge5" class="edge">
<title>Node5&#45;&gt;Node6</title>
<path fill="none" stroke="midnightblue" d="M2264.1,-138.69C2249.25,-136.87 2233.62,-135.18 2219,-134 1689.95,-91.45 1052.07,-84.68 822.04,-83.66"/>
<polygon fill="midnightblue" stroke="midnightblue" points="2263.87,-142.19 2274.23,-139.97 2264.75,-135.25 2263.87,-142.19"/>
</g>
<!-- Node5&#45;&gt;Node10 -->
<g id="edge9" class="edge">
<title>Node5&#45;&gt;Node10</title>
<path fill="none" stroke="midnightblue" d="M2401.07,-138.49C2519.78,-121.38 2772.47,-86.47 2987,-67 3266.31,-41.65 3337.64,-55.83 3617,-31 3635.19,-29.38 3654.87,-27.19 3672.93,-25"/>
<polygon fill="midnightblue" stroke="midnightblue" points="2400.44,-135.05 2391.04,-139.94 2401.44,-141.98 2400.44,-135.05"/>
</g>
<!-- Node7 -->
<g id="node7" class="node">
<title>Node7</title>
<g id="a_node7"><a xlink:href="../../d3/dd8/vapplication_8cpp.html" target="_top" xlink:title=" ">
<polygon fill="white" stroke="black" points="325.5,-0.5 325.5,-30.5 452.5,-30.5 452.5,-0.5 325.5,-0.5"/>
<text text-anchor="start" x="333.5" y="-18.5" font-family="Helvetica,sans-Serif" font-size="10.00">src/app/seamly2d/core</text>
<text text-anchor="middle" x="389" y="-7.5" font-family="Helvetica,sans-Serif" font-size="10.00">/vapplication.cpp</text>
</a>
</g>
</g>
<!-- Node6&#45;&gt;Node7 -->
<g id="edge6" class="edge">
<title>Node6&#45;&gt;Node7</title>
<path fill="none" stroke="midnightblue" d="M676.66,-71.16C621.38,-61.14 535.4,-45.37 461,-31 458.25,-30.47 455.43,-29.92 452.59,-29.36"/>
<polygon fill="midnightblue" stroke="midnightblue" points="676.15,-74.63 686.61,-72.97 677.4,-67.74 676.15,-74.63"/>
</g>
<!-- Node8 -->
<g id="node8" class="node">
<title>Node8</title>
<g id="a_node8"><a xlink:href="../../dc/d14/app_2seamly2d_2main_8cpp.html" target="_top" xlink:title=" ">
<polygon fill="white" stroke="black" points="470.5,-6 470.5,-25 621.5,-25 621.5,-6 470.5,-6"/>
<text text-anchor="middle" x="546" y="-13" font-family="Helvetica,sans-Serif" font-size="10.00">src/app/seamly2d/main.cpp</text>
</a>
</g>
</g>
<!-- Node6&#45;&gt;Node8 -->
<g id="edge7" class="edge">
<title>Node6&#45;&gt;Node8</title>
<path fill="none" stroke="midnightblue" d="M699.11,-69.44C661.81,-56.54 603.63,-36.42 570.77,-25.06"/>
<polygon fill="midnightblue" stroke="midnightblue" points="698.44,-72.91 709.04,-72.87 700.73,-66.29 698.44,-72.91"/>
</g>
<!-- Node9 -->
<g id="node9" class="node">
<title>Node9</title>
<g id="a_node9"><a xlink:href="../../d8/dd9/mainwindow_8cpp.html" target="_top" xlink:title=" ">
<polygon fill="white" stroke="black" points="640,-6 640,-25 828,-25 828,-6 640,-6"/>
<text text-anchor="middle" x="734" y="-13" font-family="Helvetica,sans-Serif" font-size="10.00">src/app/seamly2d/mainwindow.cpp</text>
</a>
</g>
</g>
<!-- Node6&#45;&gt;Node9 -->
<g id="edge8" class="edge">
<title>Node6&#45;&gt;Node9</title>
<path fill="none" stroke="midnightblue" d="M734,-62.54C734,-50.17 734,-34.62 734,-25.13"/>
<polygon fill="midnightblue" stroke="midnightblue" points="730.5,-62.73 734,-72.73 737.5,-62.73 730.5,-62.73"/>
</g>
<!-- Node11&#45;&gt;Node10 -->
<g id="edge40" class="edge">
<title>Node11&#45;&gt;Node10</title>
<path fill="none" stroke="midnightblue" d="M2565.72,-210.53C2669.92,-203.49 2856.65,-188.76 3015,-165 3281.71,-124.98 3598.61,-50.21 3702.3,-25.03"/>
<polygon fill="midnightblue" stroke="midnightblue" points="2565.34,-207.04 2555.59,-211.2 2565.81,-214.03 2565.34,-207.04"/>
</g>
<!-- Node12 -->
<g id="node12" class="node">
<title>Node12</title>
<g id="a_node12"><a xlink:href="../../dd/d57/vcmdexport_8h.html" target="_top" xlink:title=" ">
<polygon fill="white" stroke="black" points="2083.5,-134.5 2083.5,-164.5 2210.5,-164.5 2210.5,-134.5 2083.5,-134.5"/>
<text text-anchor="start" x="2091.5" y="-152.5" font-family="Helvetica,sans-Serif" font-size="10.00">src/app/seamly2d/core</text>
<text text-anchor="middle" x="2147" y="-141.5" font-family="Helvetica,sans-Serif" font-size="10.00">/vcmdexport.h</text>
</a>
</g>
</g>
<!-- Node11&#45;&gt;Node12 -->
<g id="edge12" class="edge">
<title>Node11&#45;&gt;Node12</title>
<path fill="none" stroke="midnightblue" d="M2404.42,-200.44C2351.65,-190.52 2281.19,-177.17 2219,-165 2216.25,-164.46 2213.44,-163.91 2210.6,-163.35"/>
<polygon fill="midnightblue" stroke="midnightblue" points="2403.92,-203.91 2414.39,-202.32 2405.21,-197.03 2403.92,-203.91"/>
</g>
<!-- Node25 -->
<g id="node25" class="node">
<title>Node25</title>
<g id="a_node25"><a xlink:href="../../d0/dfa/layoutsettings__dialog_8cpp.html" target="_top" xlink:title=" ">
<polygon fill="white" stroke="black" points="3865.5,-0.5 3865.5,-30.5 4010.5,-30.5 4010.5,-0.5 3865.5,-0.5"/>
<text text-anchor="start" x="3873.5" y="-18.5" font-family="Helvetica,sans-Serif" font-size="10.00">src/app/seamly2d/dialogs</text>
<text text-anchor="middle" x="3938" y="-7.5" font-family="Helvetica,sans-Serif" font-size="10.00">/layoutsettings_dialog.cpp</text>
</a>
</g>
</g>
<!-- Node11&#45;&gt;Node25 -->
<g id="edge39" class="edge">
<title>Node11&#45;&gt;Node25</title>
<path fill="none" stroke="midnightblue" d="M2565.84,-211.57C2685.98,-205.16 2918.61,-190.53 3115,-165 3399,-128.09 3733.95,-59.9 3872.73,-30.54"/>
<polygon fill="midnightblue" stroke="midnightblue" points="2565.43,-208.09 2555.63,-212.11 2565.8,-215.08 2565.43,-208.09"/>
</g>
<!-- Node30 -->
<g id="node30" class="node">
<title>Node30</title>
<g id="a_node30"><a xlink:href="../../df/d9b/vcmdexport_8cpp.html" target="_top" xlink:title=" ">
<polygon fill="white" stroke="black" points="2322.5,-67.5 2322.5,-97.5 2449.5,-97.5 2449.5,-67.5 2322.5,-67.5"/>
<text text-anchor="start" x="2330.5" y="-85.5" font-family="Helvetica,sans-Serif" font-size="10.00">src/app/seamly2d/core</text>
<text text-anchor="middle" x="2386" y="-74.5" font-family="Helvetica,sans-Serif" font-size="10.00">/vcmdexport.cpp</text>
</a>
</g>
</g>
<!-- Node11&#45;&gt;Node30 -->
<g id="edge38" class="edge">
<title>Node11&#45;&gt;Node30</title>
<path fill="none" stroke="midnightblue" d="M2476.63,-191.45C2469.96,-174.37 2459.52,-151.46 2446,-134 2435,-119.79 2419.39,-106.81 2406.85,-97.56"/>
<polygon fill="midnightblue" stroke="midnightblue" points="2473.5,-193.08 2480.28,-201.23 2480.06,-190.63 2473.5,-193.08"/>
</g>
<!-- Node12&#45;&gt;Node6 -->
<g id="edge37" class="edge">
<title>Node12&#45;&gt;Node6</title>
<path fill="none" stroke="midnightblue" d="M2072.74,-145.08C1833.11,-134.06 1081.05,-99.46 822.4,-87.57"/>
<polygon fill="midnightblue" stroke="midnightblue" points="2072.93,-148.6 2083.08,-145.56 2073.25,-141.6 2072.93,-148.6"/>
</g>
<!-- Node13 -->
<g id="node13" class="node">
<title>Node13</title>
<g id="a_node13"><a xlink:href="../../d9/d02/vapplication_8h.html" target="_top" xlink:title=" ">
<polygon fill="white" stroke="black" points="2083.5,-67.5 2083.5,-97.5 2210.5,-97.5 2210.5,-67.5 2083.5,-67.5"/>
<text text-anchor="start" x="2091.5" y="-85.5" font-family="Helvetica,sans-Serif" font-size="10.00">src/app/seamly2d/core</text>
<text text-anchor="middle" x="2147" y="-74.5" font-family="Helvetica,sans-Serif" font-size="10.00">/vapplication.h</text>
</a>
</g>
</g>
<!-- Node12&#45;&gt;Node13 -->
<g id="edge13" class="edge">
<title>Node12&#45;&gt;Node13</title>
<path fill="none" stroke="midnightblue" d="M2147,-124.11C2147,-115.15 2147,-105.32 2147,-97.58"/>
<polygon fill="midnightblue" stroke="midnightblue" points="2143.5,-124.4 2147,-134.4 2150.5,-124.4 2143.5,-124.4"/>
</g>
<!-- Node12&#45;&gt;Node30 -->
<g id="edge36" class="edge">
<title>Node12&#45;&gt;Node30</title>
<path fill="none" stroke="midnightblue" d="M2208.22,-131.85C2247.19,-121.25 2297.1,-107.68 2334.12,-97.61"/>
<polygon fill="midnightblue" stroke="midnightblue" points="2207.3,-128.47 2198.57,-134.48 2209.13,-135.23 2207.3,-128.47"/>
</g>
<!-- Node13&#45;&gt;Node2 -->
<g id="edge15" class="edge">
<title>Node13&#45;&gt;Node2</title>
<path fill="none" stroke="midnightblue" d="M2073.15,-81.11C1759.69,-79.22 537.89,-69.49 155,-31 152.12,-30.71 149.2,-30.38 146.24,-30.01"/>
<polygon fill="midnightblue" stroke="midnightblue" points="2073.46,-84.61 2083.48,-81.17 2073.5,-77.61 2073.46,-84.61"/>
</g>
<!-- Node13&#45;&gt;Node4 -->
<g id="edge27" class="edge">
<title>Node13&#45;&gt;Node4</title>
<path fill="none" stroke="midnightblue" d="M2072.8,-80.96C1774.93,-78.54 665.33,-67.26 316,-31 313.33,-30.72 310.62,-30.41 307.88,-30.06"/>
<polygon fill="midnightblue" stroke="midnightblue" points="2073.02,-84.46 2083.05,-81.04 2073.08,-77.46 2073.02,-84.46"/>
</g>
<!-- Node13&#45;&gt;Node7 -->
<g id="edge14" class="edge">
<title>Node13&#45;&gt;Node7</title>
<path fill="none" stroke="midnightblue" d="M2073.09,-80.95C1790.75,-78.57 780.17,-67.65 461,-31 458.21,-30.68 455.37,-30.31 452.51,-29.89"/>
<polygon fill="midnightblue" stroke="midnightblue" points="2073.19,-84.45 2083.22,-81.03 2073.25,-77.45 2073.19,-84.45"/>
</g>
<!-- Node13&#45;&gt;Node8 -->
<g id="edge32" class="edge">
<title>Node13&#45;&gt;Node8</title>
<path fill="none" stroke="midnightblue" d="M2073.22,-80.37C1809.74,-76.13 915.72,-59.89 631,-31 617.3,-29.61 602.47,-27.35 589.09,-25.02"/>
<polygon fill="midnightblue" stroke="midnightblue" points="2073.39,-83.87 2083.44,-80.53 2073.5,-76.87 2073.39,-83.87"/>
</g>
<!-- Node13&#45;&gt;Node9 -->
<g id="edge35" class="edge">
<title>Node13&#45;&gt;Node9</title>
<path fill="none" stroke="midnightblue" d="M2073.4,-81.27C1873.96,-80.09 1306.59,-73 837,-31 820.72,-29.54 803.08,-27.31 787.07,-25.02"/>
<polygon fill="midnightblue" stroke="midnightblue" points="2073.44,-84.77 2083.46,-81.33 2073.48,-77.77 2073.44,-84.77"/>
</g>
<!-- Node13&#45;&gt;Node10 -->
<g id="edge33" class="edge">
<title>Node13&#45;&gt;Node10</title>
<path fill="none" stroke="midnightblue" d="M2220.76,-74.11C2249.52,-71.48 2282.77,-68.74 2313,-67 2891.82,-33.76 3038.81,-73.82 3617,-31 3636.15,-29.58 3656.94,-27.33 3675.75,-25.01"/>
<polygon fill="midnightblue" stroke="midnightblue" points="2220.42,-70.63 2210.79,-75.03 2221.07,-77.6 2220.42,-70.63"/>
</g>
<!-- Node14 -->
<g id="node14" class="node">
<title>Node14</title>
<g id="a_node14"><a xlink:href="../../d2/d2d/preferencesconfigurationpage_8cpp.html" target="_top" xlink:title=" ">
<polygon fill="white" stroke="black" points="846.5,-0.5 846.5,-30.5 1093.5,-30.5 1093.5,-0.5 846.5,-0.5"/>
<text text-anchor="start" x="854.5" y="-18.5" font-family="Helvetica,sans-Serif" font-size="10.00">src/app/seamly2d/dialogs</text>
<text text-anchor="middle" x="970" y="-7.5" font-family="Helvetica,sans-Serif" font-size="10.00">/configpages/preferencesconfigurationpage.cpp</text>
</a>
</g>
</g>
<!-- Node13&#45;&gt;Node14 -->
<g id="edge16" class="edge">
<title>Node13&#45;&gt;Node14</title>
<path fill="none" stroke="midnightblue" d="M2073.23,-79.46C1902.38,-74.4 1466.43,-59.57 1103,-31 1099.87,-30.75 1096.71,-30.49 1093.51,-30.22"/>
<polygon fill="midnightblue" stroke="midnightblue" points="2073.26,-82.96 2083.36,-79.76 2073.47,-75.97 2073.26,-82.96"/>
</g>
<!-- Node15 -->
<g id="node15" class="node">
<title>Node15</title>
<g id="a_node15"><a xlink:href="../../d9/d70/preferencesgraphicsviewpage_8cpp.html" target="_top" xlink:title=" ">
<polygon fill="white" stroke="black" points="1112,-0.5 1112,-30.5 1360,-30.5 1360,-0.5 1112,-0.5"/>
<text text-anchor="start" x="1120" y="-18.5" font-family="Helvetica,sans-Serif" font-size="10.00">src/app/seamly2d/dialogs</text>
<text text-anchor="middle" x="1236" y="-7.5" font-family="Helvetica,sans-Serif" font-size="10.00">/configpages/preferencesgraphicsviewpage.cpp</text>
</a>
</g>
</g>
<!-- Node13&#45;&gt;Node15 -->
<g id="edge17" class="edge">
<title>Node13&#45;&gt;Node15</title>
<path fill="none" stroke="midnightblue" d="M2073.34,-77.8C1935.12,-70.61 1627.5,-53.47 1369,-31 1366.11,-30.75 1363.18,-30.49 1360.23,-30.22"/>
<polygon fill="midnightblue" stroke="midnightblue" points="2073.23,-81.29 2083.39,-78.32 2073.59,-74.3 2073.23,-81.29"/>
</g>
<!-- Node16 -->
<g id="node16" class="node">
<title>Node16</title>
<g id="a_node16"><a xlink:href="../../d2/d00/vtooloptionspropertybrowser_8cpp.html" target="_top" xlink:title=" ">
<polygon fill="white" stroke="black" points="1378,-0.5 1378,-30.5 1558,-30.5 1558,-0.5 1378,-0.5"/>
<text text-anchor="start" x="1386" y="-18.5" font-family="Helvetica,sans-Serif" font-size="10.00">src/app/seamly2d/core</text>
<text text-anchor="middle" x="1468" y="-7.5" font-family="Helvetica,sans-Serif" font-size="10.00">/vtooloptionspropertybrowser.cpp</text>
</a>
</g>
</g>
<!-- Node13&#45;&gt;Node16 -->
<g id="edge18" class="edge">
<title>Node13&#45;&gt;Node16</title>
<path fill="none" stroke="midnightblue" d="M2073.35,-76.48C1963.06,-68.64 1748.57,-52.18 1567,-31 1564.07,-30.66 1561.09,-30.3 1558.08,-29.92"/>
<polygon fill="midnightblue" stroke="midnightblue" points="2073.14,-79.97 2083.37,-77.18 2073.64,-72.99 2073.14,-79.97"/>
</g>
<!-- Node17 -->
<g id="node17" class="node">
<title>Node17</title>
<g id="a_node17"><a xlink:href="../../dc/d20/preferencespathpage_8cpp.html" target="_top" xlink:title=" ">
<polygon fill="white" stroke="black" points="1576.5,-0.5 1576.5,-30.5 1781.5,-30.5 1781.5,-0.5 1576.5,-0.5"/>
<text text-anchor="start" x="1584.5" y="-18.5" font-family="Helvetica,sans-Serif" font-size="10.00">src/app/seamly2d/dialogs</text>
<text text-anchor="middle" x="1679" y="-7.5" font-family="Helvetica,sans-Serif" font-size="10.00">/configpages/preferencespathpage.cpp</text>
</a>
</g>
</g>
<!-- Node13&#45;&gt;Node17 -->
<g id="edge19" class="edge">
<title>Node13&#45;&gt;Node17</title>
<path fill="none" stroke="midnightblue" d="M2073.05,-71.23C1994.06,-60.26 1868.35,-42.8 1780.22,-30.56"/>
<polygon fill="midnightblue" stroke="midnightblue" points="2073.01,-74.76 2083.4,-72.67 2073.97,-67.82 2073.01,-74.76"/>
</g>
<!-- Node18 -->
<g id="node18" class="node">
<title>Node18</title>
<g id="a_node18"><a xlink:href="../../dc/d63/preferencespatternpage_8cpp.html" target="_top" xlink:title=" ">
<polygon fill="white" stroke="black" points="1800,-0.5 1800,-30.5 2018,-30.5 2018,-0.5 1800,-0.5"/>
<text text-anchor="start" x="1808" y="-18.5" font-family="Helvetica,sans-Serif" font-size="10.00">src/app/seamly2d/dialogs</text>
<text text-anchor="middle" x="1909" y="-7.5" font-family="Helvetica,sans-Serif" font-size="10.00">/configpages/preferencespatternpage.cpp</text>
</a>
</g>
</g>
<!-- Node13&#45;&gt;Node18 -->
<g id="edge20" class="edge">
<title>Node13&#45;&gt;Node18</title>
<path fill="none" stroke="midnightblue" d="M2085.54,-64.71C2046.81,-54.14 1997.37,-40.63 1960.67,-30.61"/>
<polygon fill="midnightblue" stroke="midnightblue" points="2085.08,-68.22 2095.65,-67.48 2086.93,-61.46 2085.08,-68.22"/>
</g>
<!-- Node19 -->
<g id="node19" class="node">
<title>Node19</title>
<g id="a_node19"><a xlink:href="../../dd/dc2/decimalchart__dialog_8cpp.html" target="_top" xlink:title=" ">
<polygon fill="white" stroke="black" points="2036.5,-0.5 2036.5,-30.5 2177.5,-30.5 2177.5,-0.5 2036.5,-0.5"/>
<text text-anchor="start" x="2044.5" y="-18.5" font-family="Helvetica,sans-Serif" font-size="10.00">src/app/seamly2d/dialogs</text>
<text text-anchor="middle" x="2107" y="-7.5" font-family="Helvetica,sans-Serif" font-size="10.00">/decimalchart_dialog.cpp</text>
</a>
</g>
</g>
<!-- Node13&#45;&gt;Node19 -->
<g id="edge21" class="edge">
<title>Node13&#45;&gt;Node19</title>
<path fill="none" stroke="midnightblue" d="M2133.07,-58.87C2127.28,-49.46 2120.74,-38.83 2115.66,-30.58"/>
<polygon fill="midnightblue" stroke="midnightblue" points="2130.1,-60.71 2138.32,-67.4 2136.06,-57.05 2130.1,-60.71"/>
</g>
<!-- Node20 -->
<g id="node20" class="node">
<title>Node20</title>
<g id="a_node20"><a xlink:href="../../dd/d64/dialogaboutapp_8cpp.html" target="_top" xlink:title=" ">
<polygon fill="white" stroke="black" points="2195.5,-0.5 2195.5,-30.5 2336.5,-30.5 2336.5,-0.5 2195.5,-0.5"/>
<text text-anchor="start" x="2203.5" y="-18.5" font-family="Helvetica,sans-Serif" font-size="10.00">src/app/seamly2d/dialogs</text>
<text text-anchor="middle" x="2266" y="-7.5" font-family="Helvetica,sans-Serif" font-size="10.00">/dialogaboutapp.cpp</text>
</a>
</g>
</g>
<!-- Node13&#45;&gt;Node20 -->
<g id="edge22" class="edge">
<title>Node13&#45;&gt;Node20</title>
<path fill="none" stroke="midnightblue" d="M2181.65,-62.57C2200.37,-52.35 2223.09,-39.94 2240.23,-30.58"/>
<polygon fill="midnightblue" stroke="midnightblue" points="2179.92,-59.53 2172.82,-67.4 2183.28,-65.67 2179.92,-59.53"/>
</g>
<!-- Node21 -->
<g id="node21" class="node">
<title>Node21</title>
<g id="a_node21"><a xlink:href="../../d7/dfa/calculator__dialog_8cpp.html" target="_top" xlink:title=" ">
<polygon fill="white" stroke="black" points="2354.5,-0.5 2354.5,-30.5 2495.5,-30.5 2495.5,-0.5 2354.5,-0.5"/>
<text text-anchor="start" x="2362.5" y="-18.5" font-family="Helvetica,sans-Serif" font-size="10.00">src/app/seamly2d/dialogs</text>
<text text-anchor="middle" x="2425" y="-7.5" font-family="Helvetica,sans-Serif" font-size="10.00">/calculator_dialog.cpp</text>
</a>
</g>
</g>
<!-- Node13&#45;&gt;Node21 -->
<g id="edge23" class="edge">
<title>Node13&#45;&gt;Node21</title>
<path fill="none" stroke="midnightblue" d="M2216.78,-65.19C2262.3,-54.54 2321.14,-40.78 2364.65,-30.61"/>
<polygon fill="midnightblue" stroke="midnightblue" points="2215.92,-61.79 2206.98,-67.48 2217.51,-68.61 2215.92,-61.79"/>
</g>
<!-- Node22 -->
<g id="node22" class="node">
<title>Node22</title>
<g id="a_node22"><a xlink:href="../../d6/d89/dialoglayoutprogress_8cpp.html" target="_top" xlink:title=" ">
<polygon fill="white" stroke="black" points="2513.5,-0.5 2513.5,-30.5 2656.5,-30.5 2656.5,-0.5 2513.5,-0.5"/>
<text text-anchor="start" x="2521.5" y="-18.5" font-family="Helvetica,sans-Serif" font-size="10.00">src/app/seamly2d/dialogs</text>
<text text-anchor="middle" x="2585" y="-7.5" font-family="Helvetica,sans-Serif" font-size="10.00">/dialoglayoutprogress.cpp</text>
</a>
</g>
</g>
<!-- Node13&#45;&gt;Node22 -->
<g id="edge24" class="edge">
<title>Node13&#45;&gt;Node22</title>
<path fill="none" stroke="midnightblue" d="M2220.54,-71.9C2292.81,-62.27 2406.15,-46.67 2504,-31 2507.1,-30.5 2510.27,-29.98 2513.47,-29.45"/>
<polygon fill="midnightblue" stroke="midnightblue" points="2220.08,-68.43 2210.63,-73.21 2221,-75.37 2220.08,-68.43"/>
</g>
<!-- Node23 -->
<g id="node23" class="node">
<title>Node23</title>
<g id="a_node23"><a xlink:href="../../d5/d18/dialogpatternproperties_8cpp.html" target="_top" xlink:title=" ">
<polygon fill="white" stroke="black" points="2674.5,-0.5 2674.5,-30.5 2829.5,-30.5 2829.5,-0.5 2674.5,-0.5"/>
<text text-anchor="start" x="2682.5" y="-18.5" font-family="Helvetica,sans-Serif" font-size="10.00">src/app/seamly2d/dialogs</text>
<text text-anchor="middle" x="2752" y="-7.5" font-family="Helvetica,sans-Serif" font-size="10.00">/dialogpatternproperties.cpp</text>
</a>
</g>
</g>
<!-- Node13&#45;&gt;Node23 -->
<g id="edge25" class="edge">
<title>Node13&#45;&gt;Node23</title>
<path fill="none" stroke="midnightblue" d="M2220.89,-74.92C2342.85,-63.96 2581.14,-42.06 2665,-31 2668.04,-30.6 2671.13,-30.17 2674.25,-29.73"/>
<polygon fill="midnightblue" stroke="midnightblue" points="2220.53,-71.44 2210.89,-75.82 2221.16,-78.41 2220.53,-71.44"/>
</g>
<!-- Node24 -->
<g id="node24" class="node">
<title>Node24</title>
<g id="a_node24"><a xlink:href="../../d5/dc5/dialogpreferences_8cpp.html" target="_top" xlink:title=" ">
<polygon fill="white" stroke="black" points="2847.5,-0.5 2847.5,-30.5 2988.5,-30.5 2988.5,-0.5 2847.5,-0.5"/>
<text text-anchor="start" x="2855.5" y="-18.5" font-family="Helvetica,sans-Serif" font-size="10.00">src/app/seamly2d/dialogs</text>
<text text-anchor="middle" x="2918" y="-7.5" font-family="Helvetica,sans-Serif" font-size="10.00">/dialogpreferences.cpp</text>
</a>
</g>
</g>
<!-- Node13&#45;&gt;Node24 -->
<g id="edge26" class="edge">
<title>Node13&#45;&gt;Node24</title>
<path fill="none" stroke="midnightblue" d="M2220.8,-74.76C2249.56,-72.21 2282.81,-69.35 2313,-67 2546.17,-48.82 2605.91,-59.9 2838,-31 2841.08,-30.62 2844.22,-30.19 2847.39,-29.74"/>
<polygon fill="midnightblue" stroke="midnightblue" points="2220.48,-71.27 2210.83,-75.64 2221.1,-78.24 2220.48,-71.27"/>
</g>
<!-- Node13&#45;&gt;Node25 -->
<g id="edge28" class="edge">
<title>Node13&#45;&gt;Node25</title>
<path fill="none" stroke="midnightblue" d="M2220.75,-74.04C2249.51,-71.4 2282.77,-68.67 2313,-67 2998.36,-29.12 3174.04,-99.68 3857,-31 3859.7,-30.73 3862.45,-30.42 3865.22,-30.07"/>
<polygon fill="midnightblue" stroke="midnightblue" points="2220.41,-70.56 2210.78,-74.97 2221.06,-77.53 2220.41,-70.56"/>
</g>
<!-- Node26 -->
<g id="node26" class="node">
<title>Node26</title>
<g id="a_node26"><a xlink:href="../../db/d5c/groups__widget_8cpp.html" target="_top" xlink:title=" ">
<polygon fill="white" stroke="black" points="3006.5,-0.5 3006.5,-30.5 3147.5,-30.5 3147.5,-0.5 3006.5,-0.5"/>
<text text-anchor="start" x="3014.5" y="-18.5" font-family="Helvetica,sans-Serif" font-size="10.00">src/app/seamly2d/dialogs</text>
<text text-anchor="middle" x="3077" y="-7.5" font-family="Helvetica,sans-Serif" font-size="10.00">/groups_widget.cpp</text>
</a>
</g>
</g>
<!-- Node13&#45;&gt;Node26 -->
<g id="edge29" class="edge">
<title>Node13&#45;&gt;Node26</title>
<path fill="none" stroke="midnightblue" d="M2220.78,-74.5C2249.54,-71.92 2282.8,-69.11 2313,-67 2616.68,-45.75 2694.62,-66.22 2997,-31 3000.08,-30.64 3003.23,-30.24 3006.4,-29.8"/>
<polygon fill="midnightblue" stroke="midnightblue" points="2220.45,-71.02 2210.81,-75.41 2221.08,-77.99 2220.45,-71.02"/>
</g>
<!-- Node27 -->
<g id="node27" class="node">
<title>Node27</title>
<g id="a_node27"><a xlink:href="../../dd/d84/shortcuts__dialog_8cpp.html" target="_top" xlink:title=" ">
<polygon fill="white" stroke="black" points="3165.5,-0.5 3165.5,-30.5 3306.5,-30.5 3306.5,-0.5 3165.5,-0.5"/>
<text text-anchor="start" x="3173.5" y="-18.5" font-family="Helvetica,sans-Serif" font-size="10.00">src/app/seamly2d/dialogs</text>
<text text-anchor="middle" x="3236" y="-7.5" font-family="Helvetica,sans-Serif" font-size="10.00">/shortcuts_dialog.cpp</text>
</a>
</g>
</g>
<!-- Node13&#45;&gt;Node27 -->
<g id="edge30" class="edge">
<title>Node13&#45;&gt;Node27</title>
<path fill="none" stroke="midnightblue" d="M2220.77,-74.35C2249.53,-71.75 2282.79,-68.96 2313,-67 2687.22,-42.68 2783.3,-72.54 3156,-31 3159.09,-30.66 3162.23,-30.26 3165.41,-29.84"/>
<polygon fill="midnightblue" stroke="midnightblue" points="2220.44,-70.86 2210.8,-75.26 2221.08,-77.83 2220.44,-70.86"/>
</g>
<!-- Node28 -->
<g id="node28" class="node">
<title>Node28</title>
<g id="a_node28"><a xlink:href="../../d2/df4/show__info__dialog_8cpp.html" target="_top" xlink:title=" ">
<polygon fill="white" stroke="black" points="3324.5,-0.5 3324.5,-30.5 3465.5,-30.5 3465.5,-0.5 3324.5,-0.5"/>
<text text-anchor="start" x="3332.5" y="-18.5" font-family="Helvetica,sans-Serif" font-size="10.00">src/app/seamly2d/dialogs</text>
<text text-anchor="middle" x="3395" y="-7.5" font-family="Helvetica,sans-Serif" font-size="10.00">/show_info_dialog.cpp</text>
</a>
</g>
</g>
<!-- Node13&#45;&gt;Node28 -->
<g id="edge31" class="edge">
<title>Node13&#45;&gt;Node28</title>
<path fill="none" stroke="midnightblue" d="M2220.77,-74.24C2249.52,-71.62 2282.78,-68.86 2313,-67 2757.78,-39.6 2871.96,-78.86 3315,-31 3318.09,-30.67 3321.23,-30.28 3324.41,-29.86"/>
<polygon fill="midnightblue" stroke="midnightblue" points="2220.43,-70.76 2210.79,-75.16 2221.07,-77.73 2220.43,-70.76"/>
</g>
<!-- Node29 -->
<g id="node29" class="node">
<title>Node29</title>
<g id="a_node29"><a xlink:href="../../d3/d49/vpattern_8cpp.html" target="_top" xlink:title=" ">
<polygon fill="white" stroke="black" points="3483.5,-0.5 3483.5,-30.5 3608.5,-30.5 3608.5,-0.5 3483.5,-0.5"/>
<text text-anchor="start" x="3491.5" y="-18.5" font-family="Helvetica,sans-Serif" font-size="10.00">src/app/seamly2d/xml</text>
<text text-anchor="middle" x="3546" y="-7.5" font-family="Helvetica,sans-Serif" font-size="10.00">/vpattern.cpp</text>
</a>
</g>
</g>
<!-- Node13&#45;&gt;Node29 -->
<g id="edge34" class="edge">
<title>Node13&#45;&gt;Node29</title>
<path fill="none" stroke="midnightblue" d="M2220.76,-74.16C2249.52,-71.54 2282.78,-68.79 2313,-67 2828.35,-36.53 2961.15,-90.17 3474,-31 3477.04,-30.65 3480.14,-30.24 3483.27,-29.78"/>
<polygon fill="midnightblue" stroke="midnightblue" points="2220.42,-70.68 2210.79,-75.08 2221.07,-77.65 2220.42,-70.68"/>
</g>
</g>
</svg>
