<?xml version="1.0" encoding="UTF-8" standalone="no"?>
<!DOCTYPE svg PUBLIC "-//W3C//DTD SVG 1.1//EN"
 "http://www.w3.org/Graphics/SVG/1.1/DTD/svg11.dtd">
<!-- Generated by graphviz version 2.43.0 (0)
 -->
<!-- Title: src/app/seamly2d/dialogs/abstractlayout_dialog.h Pages: 1 -->
<!--zoomable 307 -->
<svg id="main" version="1.1" xmlns="http://www.w3.org/2000/svg" xmlns:xlink="http://www.w3.org/1999/xlink" xml:space="preserve" onload="init(evt)">
<style type="text/css"><![CDATA[
.edge:hover path { stroke: red; }
.edge:hover polygon { stroke: red; fill: red; }
]]></style>
<script type="text/javascript"><![CDATA[
var edges = document.getElementsByTagName('g');
if (edges && edges.length) {
  for (var i=0;i<edges.length;i++) {
    if (edges[i].id.substr(0,4)=='edge') {
      edges[i].setAttribute('class','edge');
    }
  }
}
]]></script>
        <defs>
                <circle id="rim" cx="0" cy="0" r="7"/>
                <circle id="rim2" cx="0" cy="0" r="3.5"/>
                <g id="zoomPlus">
                        <use xlink:href="#rim" fill="#404040">
                                <set attributeName="fill" to="#808080" begin="zoomplus.mouseover" end="zoomplus.mouseout"/>
                        </use>
                        <path d="M-4,0h8M0,-4v8" fill="none" stroke="white" stroke-width="1.5" pointer-events="none"/>
                </g>
                <g id="zoomMin">
                        <use xlink:href="#rim" fill="#404040">
                                <set attributeName="fill" to="#808080" begin="zoomminus.mouseover" end="zoomminus.mouseout"/>
                        </use>
                        <path d="M-4,0h8" fill="none" stroke="white" stroke-width="1.5" pointer-events="none"/>
                </g>
                <g id="dirArrow">
                        <path fill="none" stroke="white" stroke-width="1.5" d="M0,-3.0v7 M-2.5,-0.5L0,-3.0L2.5,-0.5"/>
                </g>
               <g id="resetDef">
                       <use xlink:href="#rim2" fill="#404040">
                               <set attributeName="fill" to="#808080" begin="reset.mouseover" end="reset.mouseout"/>
                       </use>
               </g>
        </defs>

<script type="text/javascript">
var viewWidth = 4020;
var viewHeight = 307;
var sectionId = 'dynsection-1';
</script>
<script xlink:href="../../svgpan.js"/>
<svg id="graph" class="graph">
<g id="viewport">
<title>src/app/seamly2d/dialogs/abstractlayout_dialog.h</title>
<polygon fill="white" stroke="transparent" points="-4,4 -4,-303 4015.5,-303 4015.5,4 -4,4"/>
<!-- Node1 -->
<g id="node1" class="node">
<title>Node1</title>
<g id="a_node1"><a xlink:title=" ">
<polygon fill="#bfbfbf" stroke="black" points="2116.5,-268.5 2116.5,-298.5 2257.5,-298.5 2257.5,-268.5 2116.5,-268.5"/>
<text text-anchor="start" x="2124.5" y="-286.5" font-family="Helvetica,sans-Serif" font-size="10.00">src/app/seamly2d/dialogs</text>
<text text-anchor="middle" x="2187" y="-275.5" font-family="Helvetica,sans-Serif" font-size="10.00">/abstractlayout_dialog.h</text>
</a>
</g>
</g>
<!-- Node2 -->
<g id="node2" class="node">
<title>Node2</title>
<g id="a_node2"><a xlink:href="../../dd/db4/abstractlayout__dialog_8cpp.html" target="_top" xlink:title=" ">
<polygon fill="white" stroke="black" points="0,-0.5 0,-30.5 146,-30.5 146,-0.5 0,-0.5"/>
<text text-anchor="start" x="8" y="-18.5" font-family="Helvetica,sans-Serif" font-size="10.00">src/app/seamly2d/dialogs</text>
<text text-anchor="middle" x="73" y="-7.5" font-family="Helvetica,sans-Serif" font-size="10.00">/abstractlayout_dialog.cpp</text>
</a>
</g>
</g>
<!-- Node1&#45;&gt;Node2 -->
<g id="edge1" class="edge">
<title>Node1&#45;&gt;Node2</title>
<path fill="none" stroke="midnightblue" d="M2106.2,-277.75C1858.54,-262.38 1088.69,-208.41 460,-98 343.85,-77.6 209.36,-47.89 133.42,-30.54"/>
<polygon fill="midnightblue" stroke="midnightblue" points="2106,-281.25 2116.2,-278.37 2106.43,-274.26 2106,-281.25"/>
</g>
<!-- Node3 -->
<g id="node3" class="node">
<title>Node3</title>
<g id="a_node3"><a xlink:href="../../d1/d8e/export__layout__dialog_8h.html" target="_top" xlink:title=" ">
<polygon fill="white" stroke="black" points="2116.5,-201.5 2116.5,-231.5 2257.5,-231.5 2257.5,-201.5 2116.5,-201.5"/>
<text text-anchor="start" x="2124.5" y="-219.5" font-family="Helvetica,sans-Serif" font-size="10.00">src/app/seamly2d/dialogs</text>
<text text-anchor="middle" x="2187" y="-208.5" font-family="Helvetica,sans-Serif" font-size="10.00">/export_layout_dialog.h</text>
</a>
</g>
</g>
<!-- Node1&#45;&gt;Node3 -->
<g id="edge2" class="edge">
<title>Node1&#45;&gt;Node3</title>
<path fill="none" stroke="midnightblue" d="M2187,-258.11C2187,-249.15 2187,-239.32 2187,-231.58"/>
<polygon fill="midnightblue" stroke="midnightblue" points="2183.5,-258.4 2187,-268.4 2190.5,-258.4 2183.5,-258.4"/>
</g>
<!-- Node11 -->
<g id="node11" class="node">
<title>Node11</title>
<g id="a_node11"><a xlink:href="../../d3/dd8/layoutsettings__dialog_8h.html" target="_top" xlink:title=" ">
<polygon fill="white" stroke="black" points="2275.5,-201.5 2275.5,-231.5 2416.5,-231.5 2416.5,-201.5 2275.5,-201.5"/>
<text text-anchor="start" x="2283.5" y="-219.5" font-family="Helvetica,sans-Serif" font-size="10.00">src/app/seamly2d/dialogs</text>
<text text-anchor="middle" x="2346" y="-208.5" font-family="Helvetica,sans-Serif" font-size="10.00">/layoutsettings_dialog.h</text>
</a>
</g>
</g>
<!-- Node1&#45;&gt;Node11 -->
<g id="edge11" class="edge">
<title>Node1&#45;&gt;Node11</title>
<path fill="none" stroke="midnightblue" d="M2230.92,-264.54C2256.37,-254.14 2287.93,-241.24 2311.57,-231.58"/>
<polygon fill="midnightblue" stroke="midnightblue" points="2229.43,-261.37 2221.5,-268.4 2232.08,-267.85 2229.43,-261.37"/>
</g>
<!-- Node4 -->
<g id="node4" class="node">
<title>Node4</title>
<g id="a_node4"><a xlink:href="../../dd/d54/export__layout__dialog_8cpp.html" target="_top" xlink:title=" ">
<polygon fill="white" stroke="black" points="164.5,-0.5 164.5,-30.5 307.5,-30.5 307.5,-0.5 164.5,-0.5"/>
<text text-anchor="start" x="172.5" y="-18.5" font-family="Helvetica,sans-Serif" font-size="10.00">src/app/seamly2d/dialogs</text>
<text text-anchor="middle" x="236" y="-7.5" font-family="Helvetica,sans-Serif" font-size="10.00">/export_layout_dialog.cpp</text>
</a>
</g>
</g>
<!-- Node3&#45;&gt;Node4 -->
<g id="edge3" class="edge">
<title>Node3&#45;&gt;Node4</title>
<path fill="none" stroke="midnightblue" d="M2106.06,-212.93C1875.48,-204.83 1195.76,-175.65 637,-98 513.51,-80.84 370.88,-48.9 293.38,-30.52"/>
<polygon fill="midnightblue" stroke="midnightblue" points="2106.26,-216.44 2116.37,-213.29 2106.5,-209.44 2106.26,-216.44"/>
</g>
<!-- Node5 -->
<g id="node5" class="node">
<title>Node5</title>
<g id="a_node5"><a xlink:href="../../d1/d82/mainwindowsnogui_8h.html" target="_top" xlink:title=" ">
<polygon fill="white" stroke="black" points="2089.5,-140 2089.5,-159 2298.5,-159 2298.5,-140 2089.5,-140"/>
<text text-anchor="middle" x="2194" y="-147" font-family="Helvetica,sans-Serif" font-size="10.00">src/app/seamly2d/mainwindowsnogui.h</text>
</a>
</g>
</g>
<!-- Node3&#45;&gt;Node5 -->
<g id="edge4" class="edge">
<title>Node3&#45;&gt;Node5</title>
<path fill="none" stroke="midnightblue" d="M2189.61,-191.25C2190.82,-180.02 2192.18,-167.38 2193.06,-159.19"/>
<polygon fill="midnightblue" stroke="midnightblue" points="2186.11,-191.08 2188.52,-201.4 2193.07,-191.83 2186.11,-191.08"/>
</g>
<!-- Node10 -->
<g id="node10" class="node">
<title>Node10</title>
<g id="a_node10"><a xlink:href="../../d8/de8/mainwindowsnogui_8cpp.html" target="_top" xlink:title=" ">
<polygon fill="white" stroke="black" points="3627.5,-6 3627.5,-25 3848.5,-25 3848.5,-6 3627.5,-6"/>
<text text-anchor="middle" x="3738" y="-13" font-family="Helvetica,sans-Serif" font-size="10.00">src/app/seamly2d/mainwindowsnogui.cpp</text>
</a>
</g>
</g>
<!-- Node3&#45;&gt;Node10 -->
<g id="edge10" class="edge">
<title>Node3&#45;&gt;Node10</title>
<path fill="none" stroke="midnightblue" d="M2267.52,-200.84C2445.45,-174.56 3400.2,-57.72 3668.1,-25.02"/>
<polygon fill="midnightblue" stroke="midnightblue" points="2266.97,-197.38 2257.6,-202.34 2268.01,-204.31 2266.97,-197.38"/>
</g>
<!-- Node6 -->
<g id="node6" class="node">
<title>Node6</title>
<g id="a_node6"><a xlink:href="../../d9/d53/mainwindow_8h.html" target="_top" xlink:title=" ">
<polygon fill="white" stroke="black" points="646,-73 646,-92 822,-92 822,-73 646,-73"/>
<text text-anchor="middle" x="734" y="-80" font-family="Helvetica,sans-Serif" font-size="10.00">src/app/seamly2d/mainwindow.h</text>
</a>
</g>
</g>
<!-- Node5&#45;&gt;Node6 -->
<g id="edge5" class="edge">
<title>Node5&#45;&gt;Node6</title>
<path fill="none" stroke="midnightblue" d="M2124.85,-138.7C2110.08,-136.89 2094.54,-135.2 2080,-134 1606.89,-95.11 1037.74,-86.14 822.35,-84.1"/>
<polygon fill="midnightblue" stroke="midnightblue" points="2124.58,-142.2 2134.94,-139.97 2125.45,-135.25 2124.58,-142.2"/>
</g>
<!-- Node5&#45;&gt;Node10 -->
<g id="edge9" class="edge">
<title>Node5&#45;&gt;Node10</title>
<path fill="none" stroke="midnightblue" d="M2266.45,-138.6C2394.44,-121.46 2669.09,-86.24 2902,-67 3219.54,-40.77 3300.53,-58.13 3618,-31 3636.4,-29.43 3656.33,-27.22 3674.56,-25.01"/>
<polygon fill="midnightblue" stroke="midnightblue" points="2265.82,-135.15 2256.37,-139.95 2266.75,-142.09 2265.82,-135.15"/>
</g>
<!-- Node7 -->
<g id="node7" class="node">
<title>Node7</title>
<g id="a_node7"><a xlink:href="../../d3/dd8/vapplication_8cpp.html" target="_top" xlink:title=" ">
<polygon fill="white" stroke="black" points="325.5,-0.5 325.5,-30.5 452.5,-30.5 452.5,-0.5 325.5,-0.5"/>
<text text-anchor="start" x="333.5" y="-18.5" font-family="Helvetica,sans-Serif" font-size="10.00">src/app/seamly2d/core</text>
<text text-anchor="middle" x="389" y="-7.5" font-family="Helvetica,sans-Serif" font-size="10.00">/vapplication.cpp</text>
</a>
</g>
</g>
<!-- Node6&#45;&gt;Node7 -->
<g id="edge6" class="edge">
<title>Node6&#45;&gt;Node7</title>
<path fill="none" stroke="midnightblue" d="M676.66,-71.16C621.38,-61.14 535.4,-45.37 461,-31 458.25,-30.47 455.43,-29.92 452.59,-29.36"/>
<polygon fill="midnightblue" stroke="midnightblue" points="676.15,-74.63 686.61,-72.97 677.4,-67.74 676.15,-74.63"/>
</g>
<!-- Node8 -->
<g id="node8" class="node">
<title>Node8</title>
<g id="a_node8"><a xlink:href="../../dc/d14/app_2seamly2d_2main_8cpp.html" target="_top" xlink:title=" ">
<polygon fill="white" stroke="black" points="470.5,-6 470.5,-25 621.5,-25 621.5,-6 470.5,-6"/>
<text text-anchor="middle" x="546" y="-13" font-family="Helvetica,sans-Serif" font-size="10.00">src/app/seamly2d/main.cpp</text>
</a>
</g>
</g>
<!-- Node6&#45;&gt;Node8 -->
<g id="edge7" class="edge">
<title>Node6&#45;&gt;Node8</title>
<path fill="none" stroke="midnightblue" d="M699.11,-69.44C661.81,-56.54 603.63,-36.42 570.77,-25.06"/>
<polygon fill="midnightblue" stroke="midnightblue" points="698.44,-72.91 709.04,-72.87 700.73,-66.29 698.44,-72.91"/>
</g>
<!-- Node9 -->
<g id="node9" class="node">
<title>Node9</title>
<g id="a_node9"><a xlink:href="../../d8/dd9/mainwindow_8cpp.html" target="_top" xlink:title=" ">
<polygon fill="white" stroke="black" points="640,-6 640,-25 828,-25 828,-6 640,-6"/>
<text text-anchor="middle" x="734" y="-13" font-family="Helvetica,sans-Serif" font-size="10.00">src/app/seamly2d/mainwindow.cpp</text>
</a>
</g>
</g>
<!-- Node6&#45;&gt;Node9 -->
<g id="edge8" class="edge">
<title>Node6&#45;&gt;Node9</title>
<path fill="none" stroke="midnightblue" d="M734,-62.54C734,-50.17 734,-34.62 734,-25.13"/>
<polygon fill="midnightblue" stroke="midnightblue" points="730.5,-62.73 734,-72.73 737.5,-62.73 730.5,-62.73"/>
</g>
<!-- Node11&#45;&gt;Node10 -->
<g id="edge40" class="edge">
<title>Node11&#45;&gt;Node10</title>
<path fill="none" stroke="midnightblue" d="M2427.1,-210.94C2540.13,-204.03 2751.27,-189.1 2930,-165 3227.89,-124.84 3582.91,-50.16 3699.11,-25.01"/>
<polygon fill="midnightblue" stroke="midnightblue" points="2426.58,-207.47 2416.81,-211.57 2427,-214.45 2426.58,-207.47"/>
</g>
<!-- Node12 -->
<g id="node12" class="node">
<title>Node12</title>
<g id="a_node12"><a xlink:href="../../dd/d57/vcmdexport_8h.html" target="_top" xlink:title=" ">
<polygon fill="white" stroke="black" points="1944.5,-134.5 1944.5,-164.5 2071.5,-164.5 2071.5,-134.5 1944.5,-134.5"/>
<text text-anchor="start" x="1952.5" y="-152.5" font-family="Helvetica,sans-Serif" font-size="10.00">src/app/seamly2d/core</text>
<text text-anchor="middle" x="2008" y="-141.5" font-family="Helvetica,sans-Serif" font-size="10.00">/vcmdexport.h</text>
</a>
</g>
</g>
<!-- Node11&#45;&gt;Node12 -->
<g id="edge12" class="edge">
<title>Node11&#45;&gt;Node12</title>
<path fill="none" stroke="midnightblue" d="M2265.42,-200.44C2212.65,-190.52 2142.19,-177.17 2080,-165 2077.25,-164.46 2074.44,-163.91 2071.6,-163.35"/>
<polygon fill="midnightblue" stroke="midnightblue" points="2264.92,-203.91 2275.39,-202.32 2266.21,-197.03 2264.92,-203.91"/>
</g>
<!-- Node26 -->
<g id="node26" class="node">
<title>Node26</title>
<g id="a_node26"><a xlink:href="../../d0/dfa/layoutsettings__dialog_8cpp.html" target="_top" xlink:title=" ">
<polygon fill="white" stroke="black" points="3866.5,-0.5 3866.5,-30.5 4011.5,-30.5 4011.5,-0.5 3866.5,-0.5"/>
<text text-anchor="start" x="3874.5" y="-18.5" font-family="Helvetica,sans-Serif" font-size="10.00">src/app/seamly2d/dialogs</text>
<text text-anchor="middle" x="3939" y="-7.5" font-family="Helvetica,sans-Serif" font-size="10.00">/layoutsettings_dialog.cpp</text>
</a>
</g>
</g>
<!-- Node11&#45;&gt;Node26 -->
<g id="edge39" class="edge">
<title>Node11&#45;&gt;Node26</title>
<path fill="none" stroke="midnightblue" d="M2426.88,-211.97C2556.57,-205.79 2818.94,-191.1 3040,-165 3405.86,-121.81 3494.89,-93.24 3858,-31 3860.68,-30.54 3863.4,-30.07 3866.15,-29.59"/>
<polygon fill="midnightblue" stroke="midnightblue" points="2426.46,-208.49 2416.63,-212.46 2426.79,-215.48 2426.46,-208.49"/>
</g>
<!-- Node30 -->
<g id="node30" class="node">
<title>Node30</title>
<g id="a_node30"><a xlink:href="../../df/d9b/vcmdexport_8cpp.html" target="_top" xlink:title=" ">
<polygon fill="white" stroke="black" points="2183.5,-67.5 2183.5,-97.5 2310.5,-97.5 2310.5,-67.5 2183.5,-67.5"/>
<text text-anchor="start" x="2191.5" y="-85.5" font-family="Helvetica,sans-Serif" font-size="10.00">src/app/seamly2d/core</text>
<text text-anchor="middle" x="2247" y="-74.5" font-family="Helvetica,sans-Serif" font-size="10.00">/vcmdexport.cpp</text>
</a>
</g>
</g>
<!-- Node11&#45;&gt;Node30 -->
<g id="edge38" class="edge">
<title>Node11&#45;&gt;Node30</title>
<path fill="none" stroke="midnightblue" d="M2337.63,-191.45C2330.96,-174.37 2320.52,-151.46 2307,-134 2296,-119.79 2280.39,-106.81 2267.85,-97.56"/>
<polygon fill="midnightblue" stroke="midnightblue" points="2334.5,-193.08 2341.28,-201.23 2341.06,-190.63 2334.5,-193.08"/>
</g>
<!-- Node12&#45;&gt;Node6 -->
<g id="edge37" class="edge">
<title>Node12&#45;&gt;Node6</title>
<path fill="none" stroke="midnightblue" d="M1934.22,-144.74C1713.78,-133.49 1060.63,-100.16 822.31,-88.01"/>
<polygon fill="midnightblue" stroke="midnightblue" points="1934.22,-148.24 1944.39,-145.25 1934.58,-141.25 1934.22,-148.24"/>
</g>
<!-- Node13 -->
<g id="node13" class="node">
<title>Node13</title>
<g id="a_node13"><a xlink:href="../../d9/d02/vapplication_8h.html" target="_top" xlink:title=" ">
<polygon fill="white" stroke="black" points="1944.5,-67.5 1944.5,-97.5 2071.5,-97.5 2071.5,-67.5 1944.5,-67.5"/>
<text text-anchor="start" x="1952.5" y="-85.5" font-family="Helvetica,sans-Serif" font-size="10.00">src/app/seamly2d/core</text>
<text text-anchor="middle" x="2008" y="-74.5" font-family="Helvetica,sans-Serif" font-size="10.00">/vapplication.h</text>
</a>
</g>
</g>
<!-- Node12&#45;&gt;Node13 -->
<g id="edge13" class="edge">
<title>Node12&#45;&gt;Node13</title>
<path fill="none" stroke="midnightblue" d="M2008,-124.11C2008,-115.15 2008,-105.32 2008,-97.58"/>
<polygon fill="midnightblue" stroke="midnightblue" points="2004.5,-124.4 2008,-134.4 2011.5,-124.4 2004.5,-124.4"/>
</g>
<!-- Node12&#45;&gt;Node30 -->
<g id="edge36" class="edge">
<title>Node12&#45;&gt;Node30</title>
<path fill="none" stroke="midnightblue" d="M2069.22,-131.85C2108.19,-121.25 2158.1,-107.68 2195.12,-97.61"/>
<polygon fill="midnightblue" stroke="midnightblue" points="2068.3,-128.47 2059.57,-134.48 2070.13,-135.23 2068.3,-128.47"/>
</g>
<!-- Node13&#45;&gt;Node2 -->
<g id="edge15" class="edge">
<title>Node13&#45;&gt;Node2</title>
<path fill="none" stroke="midnightblue" d="M1933.92,-80.94C1634,-78.47 509,-66.92 155,-31 152.12,-30.71 149.2,-30.37 146.24,-30"/>
<polygon fill="midnightblue" stroke="midnightblue" points="1934.21,-84.45 1944.24,-81.03 1934.27,-77.45 1934.21,-84.45"/>
</g>
<!-- Node13&#45;&gt;Node4 -->
<g id="edge27" class="edge">
<title>Node13&#45;&gt;Node4</title>
<path fill="none" stroke="midnightblue" d="M1934.33,-80.77C1651.72,-77.73 636.83,-64.67 316,-31 313.33,-30.72 310.62,-30.4 307.89,-30.05"/>
<polygon fill="midnightblue" stroke="midnightblue" points="1934.43,-84.27 1944.46,-80.88 1934.5,-77.27 1934.43,-84.27"/>
</g>
<!-- Node13&#45;&gt;Node7 -->
<g id="edge14" class="edge">
<title>Node13&#45;&gt;Node7</title>
<path fill="none" stroke="midnightblue" d="M1934.05,-80.71C1666.81,-77.62 751.57,-64.76 461,-31 458.21,-30.68 455.37,-30.3 452.51,-29.89"/>
<polygon fill="midnightblue" stroke="midnightblue" points="1934.37,-84.22 1944.41,-80.83 1934.45,-77.22 1934.37,-84.22"/>
</g>
<!-- Node13&#45;&gt;Node8 -->
<g id="edge30" class="edge">
<title>Node13&#45;&gt;Node8</title>
<path fill="none" stroke="midnightblue" d="M1934.19,-82.22C1727.71,-83.49 1126.81,-82.15 631,-31 617.45,-29.6 602.79,-27.37 589.53,-25.06"/>
<polygon fill="midnightblue" stroke="midnightblue" points="1934.33,-85.72 1944.31,-82.15 1934.29,-78.72 1934.33,-85.72"/>
</g>
<!-- Node13&#45;&gt;Node9 -->
<g id="edge35" class="edge">
<title>Node13&#45;&gt;Node9</title>
<path fill="none" stroke="midnightblue" d="M1934.23,-80.79C1749.22,-78.49 1250.66,-68.95 837,-31 820.82,-29.52 803.28,-27.28 787.34,-25.01"/>
<polygon fill="midnightblue" stroke="midnightblue" points="1934.35,-84.3 1944.39,-80.92 1934.43,-77.3 1934.35,-84.3"/>
</g>
<!-- Node13&#45;&gt;Node10 -->
<g id="edge33" class="edge">
<title>Node13&#45;&gt;Node10</title>
<path fill="none" stroke="midnightblue" d="M2081.76,-74.07C2110.51,-71.43 2143.77,-68.7 2174,-67 2814.97,-31.05 2977.71,-77.56 3618,-31 3637.26,-29.6 3658.17,-27.33 3677.06,-25"/>
<polygon fill="midnightblue" stroke="midnightblue" points="2081.42,-70.58 2071.78,-74.99 2082.07,-77.55 2081.42,-70.58"/>
</g>
<!-- Node14 -->
<g id="node14" class="node">
<title>Node14</title>
<g id="a_node14"><a xlink:href="../../d7/dfa/calculator__dialog_8cpp.html" target="_top" xlink:title=" ">
<polygon fill="white" stroke="black" points="846.5,-0.5 846.5,-30.5 987.5,-30.5 987.5,-0.5 846.5,-0.5"/>
<text text-anchor="start" x="854.5" y="-18.5" font-family="Helvetica,sans-Serif" font-size="10.00">src/app/seamly2d/dialogs</text>
<text text-anchor="middle" x="917" y="-7.5" font-family="Helvetica,sans-Serif" font-size="10.00">/calculator_dialog.cpp</text>
</a>
</g>
</g>
<!-- Node13&#45;&gt;Node14 -->
<g id="edge16" class="edge">
<title>Node13&#45;&gt;Node14</title>
<path fill="none" stroke="midnightblue" d="M1934.31,-81.08C1767.09,-79.41 1346.28,-71.21 997,-31 993.92,-30.64 990.77,-30.24 987.6,-29.81"/>
<polygon fill="midnightblue" stroke="midnightblue" points="1934.45,-84.58 1944.48,-81.18 1934.51,-77.58 1934.45,-84.58"/>
</g>
<!-- Node15 -->
<g id="node15" class="node">
<title>Node15</title>
<g id="a_node15"><a xlink:href="../../d9/d70/preferencesgraphicsviewpage_8cpp.html" target="_top" xlink:title=" ">
<polygon fill="white" stroke="black" points="1006,-0.5 1006,-30.5 1254,-30.5 1254,-0.5 1006,-0.5"/>
<text text-anchor="start" x="1014" y="-18.5" font-family="Helvetica,sans-Serif" font-size="10.00">src/app/seamly2d/dialogs</text>
<text text-anchor="middle" x="1130" y="-7.5" font-family="Helvetica,sans-Serif" font-size="10.00">/configpages/preferencesgraphicsviewpage.cpp</text>
</a>
</g>
</g>
<!-- Node13&#45;&gt;Node15 -->
<g id="edge17" class="edge">
<title>Node13&#45;&gt;Node15</title>
<path fill="none" stroke="midnightblue" d="M1934.01,-77.49C1800.04,-70.01 1508.42,-52.69 1263,-31 1260.11,-30.74 1257.18,-30.48 1254.23,-30.21"/>
<polygon fill="midnightblue" stroke="midnightblue" points="1933.97,-80.99 1944.15,-78.05 1934.36,-74 1933.97,-80.99"/>
</g>
<!-- Node16 -->
<g id="node16" class="node">
<title>Node16</title>
<g id="a_node16"><a xlink:href="../../dc/d20/preferencespathpage_8cpp.html" target="_top" xlink:title=" ">
<polygon fill="white" stroke="black" points="1272.5,-0.5 1272.5,-30.5 1477.5,-30.5 1477.5,-0.5 1272.5,-0.5"/>
<text text-anchor="start" x="1280.5" y="-18.5" font-family="Helvetica,sans-Serif" font-size="10.00">src/app/seamly2d/dialogs</text>
<text text-anchor="middle" x="1375" y="-7.5" font-family="Helvetica,sans-Serif" font-size="10.00">/configpages/preferencespathpage.cpp</text>
</a>
</g>
</g>
<!-- Node13&#45;&gt;Node16 -->
<g id="edge18" class="edge">
<title>Node13&#45;&gt;Node16</title>
<path fill="none" stroke="midnightblue" d="M1934.07,-75.09C1833,-66.15 1646.11,-49.01 1487,-31 1483.88,-30.65 1480.72,-30.28 1477.52,-29.91"/>
<polygon fill="midnightblue" stroke="midnightblue" points="1933.9,-78.59 1944.17,-75.98 1934.52,-71.61 1933.9,-78.59"/>
</g>
<!-- Node17 -->
<g id="node17" class="node">
<title>Node17</title>
<g id="a_node17"><a xlink:href="../../d2/d00/vtooloptionspropertybrowser_8cpp.html" target="_top" xlink:title=" ">
<polygon fill="white" stroke="black" points="1496,-0.5 1496,-30.5 1676,-30.5 1676,-0.5 1496,-0.5"/>
<text text-anchor="start" x="1504" y="-18.5" font-family="Helvetica,sans-Serif" font-size="10.00">src/app/seamly2d/core</text>
<text text-anchor="middle" x="1586" y="-7.5" font-family="Helvetica,sans-Serif" font-size="10.00">/vtooloptionspropertybrowser.cpp</text>
</a>
</g>
</g>
<!-- Node13&#45;&gt;Node17 -->
<g id="edge19" class="edge">
<title>Node13&#45;&gt;Node17</title>
<path fill="none" stroke="midnightblue" d="M1934.06,-70.11C1862.3,-59.06 1753.26,-42.26 1676.39,-30.42"/>
<polygon fill="midnightblue" stroke="midnightblue" points="1933.95,-73.64 1944.37,-71.7 1935.01,-66.72 1933.95,-73.64"/>
</g>
<!-- Node18 -->
<g id="node18" class="node">
<title>Node18</title>
<g id="a_node18"><a xlink:href="../../dd/dc2/decimalchart__dialog_8cpp.html" target="_top" xlink:title=" ">
<polygon fill="white" stroke="black" points="1694.5,-0.5 1694.5,-30.5 1835.5,-30.5 1835.5,-0.5 1694.5,-0.5"/>
<text text-anchor="start" x="1702.5" y="-18.5" font-family="Helvetica,sans-Serif" font-size="10.00">src/app/seamly2d/dialogs</text>
<text text-anchor="middle" x="1765" y="-7.5" font-family="Helvetica,sans-Serif" font-size="10.00">/decimalchart_dialog.cpp</text>
</a>
</g>
</g>
<!-- Node13&#45;&gt;Node18 -->
<g id="edge20" class="edge">
<title>Node13&#45;&gt;Node18</title>
<path fill="none" stroke="midnightblue" d="M1945.75,-64.85C1906.14,-54.25 1855.39,-40.68 1817.75,-30.61"/>
<polygon fill="midnightblue" stroke="midnightblue" points="1945.01,-68.27 1955.57,-67.48 1946.82,-61.51 1945.01,-68.27"/>
</g>
<!-- Node19 -->
<g id="node19" class="node">
<title>Node19</title>
<g id="a_node19"><a xlink:href="../../dc/d63/preferencespatternpage_8cpp.html" target="_top" xlink:title=" ">
<polygon fill="white" stroke="black" points="1854,-0.5 1854,-30.5 2072,-30.5 2072,-0.5 1854,-0.5"/>
<text text-anchor="start" x="1862" y="-18.5" font-family="Helvetica,sans-Serif" font-size="10.00">src/app/seamly2d/dialogs</text>
<text text-anchor="middle" x="1963" y="-7.5" font-family="Helvetica,sans-Serif" font-size="10.00">/configpages/preferencespatternpage.cpp</text>
</a>
</g>
</g>
<!-- Node13&#45;&gt;Node19 -->
<g id="edge21" class="edge">
<title>Node13&#45;&gt;Node19</title>
<path fill="none" stroke="midnightblue" d="M1992.53,-59.16C1985.97,-49.68 1978.52,-38.92 1972.75,-30.58"/>
<polygon fill="midnightblue" stroke="midnightblue" points="1989.67,-61.17 1998.24,-67.4 1995.42,-57.18 1989.67,-61.17"/>
</g>
<!-- Node20 -->
<g id="node20" class="node">
<title>Node20</title>
<g id="a_node20"><a xlink:href="../../dd/d64/dialogaboutapp_8cpp.html" target="_top" xlink:title=" ">
<polygon fill="white" stroke="black" points="2090.5,-0.5 2090.5,-30.5 2231.5,-30.5 2231.5,-0.5 2090.5,-0.5"/>
<text text-anchor="start" x="2098.5" y="-18.5" font-family="Helvetica,sans-Serif" font-size="10.00">src/app/seamly2d/dialogs</text>
<text text-anchor="middle" x="2161" y="-7.5" font-family="Helvetica,sans-Serif" font-size="10.00">/dialogaboutapp.cpp</text>
</a>
</g>
</g>
<!-- Node13&#45;&gt;Node20 -->
<g id="edge22" class="edge">
<title>Node13&#45;&gt;Node20</title>
<path fill="none" stroke="midnightblue" d="M2050.59,-63.41C2075.02,-53.03 2105.22,-40.2 2127.87,-30.58"/>
<polygon fill="midnightblue" stroke="midnightblue" points="2049.03,-60.26 2041.2,-67.4 2051.77,-66.71 2049.03,-60.26"/>
</g>
<!-- Node21 -->
<g id="node21" class="node">
<title>Node21</title>
<g id="a_node21"><a xlink:href="../../d2/d2d/preferencesconfigurationpage_8cpp.html" target="_top" xlink:title=" ">
<polygon fill="white" stroke="black" points="2249.5,-0.5 2249.5,-30.5 2496.5,-30.5 2496.5,-0.5 2249.5,-0.5"/>
<text text-anchor="start" x="2257.5" y="-18.5" font-family="Helvetica,sans-Serif" font-size="10.00">src/app/seamly2d/dialogs</text>
<text text-anchor="middle" x="2373" y="-7.5" font-family="Helvetica,sans-Serif" font-size="10.00">/configpages/preferencesconfigurationpage.cpp</text>
</a>
</g>
</g>
<!-- Node13&#45;&gt;Node21 -->
<g id="edge23" class="edge">
<title>Node13&#45;&gt;Node21</title>
<path fill="none" stroke="midnightblue" d="M2081.63,-68.39C2143.32,-57.4 2231.18,-41.76 2294.26,-30.52"/>
<polygon fill="midnightblue" stroke="midnightblue" points="2080.81,-64.98 2071.58,-70.18 2082.04,-71.87 2080.81,-64.98"/>
</g>
<!-- Node22 -->
<g id="node22" class="node">
<title>Node22</title>
<g id="a_node22"><a xlink:href="../../d5/d18/dialogpatternproperties_8cpp.html" target="_top" xlink:title=" ">
<polygon fill="white" stroke="black" points="2514.5,-0.5 2514.5,-30.5 2669.5,-30.5 2669.5,-0.5 2514.5,-0.5"/>
<text text-anchor="start" x="2522.5" y="-18.5" font-family="Helvetica,sans-Serif" font-size="10.00">src/app/seamly2d/dialogs</text>
<text text-anchor="middle" x="2592" y="-7.5" font-family="Helvetica,sans-Serif" font-size="10.00">/dialogpatternproperties.cpp</text>
</a>
</g>
</g>
<!-- Node13&#45;&gt;Node22 -->
<g id="edge24" class="edge">
<title>Node13&#45;&gt;Node22</title>
<path fill="none" stroke="midnightblue" d="M2081.54,-74.61C2199.32,-63.48 2425.13,-41.7 2505,-31 2508.04,-30.59 2511.13,-30.16 2514.25,-29.71"/>
<polygon fill="midnightblue" stroke="midnightblue" points="2081.15,-71.13 2071.52,-75.56 2081.81,-78.1 2081.15,-71.13"/>
</g>
<!-- Node23 -->
<g id="node23" class="node">
<title>Node23</title>
<g id="a_node23"><a xlink:href="../../d5/dc5/dialogpreferences_8cpp.html" target="_top" xlink:title=" ">
<polygon fill="white" stroke="black" points="2687.5,-0.5 2687.5,-30.5 2828.5,-30.5 2828.5,-0.5 2687.5,-0.5"/>
<text text-anchor="start" x="2695.5" y="-18.5" font-family="Helvetica,sans-Serif" font-size="10.00">src/app/seamly2d/dialogs</text>
<text text-anchor="middle" x="2758" y="-7.5" font-family="Helvetica,sans-Serif" font-size="10.00">/dialogpreferences.cpp</text>
</a>
</g>
</g>
<!-- Node13&#45;&gt;Node23 -->
<g id="edge25" class="edge">
<title>Node13&#45;&gt;Node23</title>
<path fill="none" stroke="midnightblue" d="M2081.81,-74.8C2110.57,-72.26 2143.82,-69.4 2174,-67 2397.87,-49.23 2455.19,-59.07 2678,-31 2681.08,-30.61 2684.22,-30.18 2687.39,-29.72"/>
<polygon fill="midnightblue" stroke="midnightblue" points="2081.48,-71.32 2071.83,-75.69 2082.1,-78.29 2081.48,-71.32"/>
</g>
<!-- Node24 -->
<g id="node24" class="node">
<title>Node24</title>
<g id="a_node24"><a xlink:href="../../d6/d89/dialoglayoutprogress_8cpp.html" target="_top" xlink:title=" ">
<polygon fill="white" stroke="black" points="2846.5,-0.5 2846.5,-30.5 2989.5,-30.5 2989.5,-0.5 2846.5,-0.5"/>
<text text-anchor="start" x="2854.5" y="-18.5" font-family="Helvetica,sans-Serif" font-size="10.00">src/app/seamly2d/dialogs</text>
<text text-anchor="middle" x="2918" y="-7.5" font-family="Helvetica,sans-Serif" font-size="10.00">/dialoglayoutprogress.cpp</text>
</a>
</g>
</g>
<!-- Node13&#45;&gt;Node24 -->
<g id="edge26" class="edge">
<title>Node13&#45;&gt;Node24</title>
<path fill="none" stroke="midnightblue" d="M2081.79,-74.53C2110.55,-71.95 2143.8,-69.14 2174,-67 2468.36,-46.16 2543.87,-65.06 2837,-31 2839.98,-30.65 2843.02,-30.27 2846.08,-29.85"/>
<polygon fill="midnightblue" stroke="midnightblue" points="2081.46,-71.05 2071.81,-75.43 2082.09,-78.02 2081.46,-71.05"/>
</g>
<!-- Node25 -->
<g id="node25" class="node">
<title>Node25</title>
<g id="a_node25"><a xlink:href="../../db/d5c/groups__widget_8cpp.html" target="_top" xlink:title=" ">
<polygon fill="white" stroke="black" points="3007.5,-0.5 3007.5,-30.5 3148.5,-30.5 3148.5,-0.5 3007.5,-0.5"/>
<text text-anchor="start" x="3015.5" y="-18.5" font-family="Helvetica,sans-Serif" font-size="10.00">src/app/seamly2d/dialogs</text>
<text text-anchor="middle" x="3078" y="-7.5" font-family="Helvetica,sans-Serif" font-size="10.00">/groups_widget.cpp</text>
</a>
</g>
</g>
<!-- Node13&#45;&gt;Node25 -->
<g id="edge28" class="edge">
<title>Node13&#45;&gt;Node25</title>
<path fill="none" stroke="midnightblue" d="M2081.77,-74.36C2110.53,-71.76 2143.79,-68.98 2174,-67 2539.79,-43.05 2633.7,-71.78 2998,-31 3001.09,-30.65 3004.23,-30.26 3007.41,-29.83"/>
<polygon fill="midnightblue" stroke="midnightblue" points="2081.44,-70.88 2071.8,-75.27 2082.08,-77.85 2081.44,-70.88"/>
</g>
<!-- Node13&#45;&gt;Node26 -->
<g id="edge29" class="edge">
<title>Node13&#45;&gt;Node26</title>
<path fill="none" stroke="midnightblue" d="M2081.75,-74.01C2110.51,-71.36 2143.77,-68.64 2174,-67 2921.51,-26.41 3113.07,-105.18 3858,-31 3860.7,-30.73 3863.45,-30.42 3866.22,-30.08"/>
<polygon fill="midnightblue" stroke="midnightblue" points="2081.41,-70.53 2071.78,-74.94 2082.06,-77.5 2081.41,-70.53"/>
</g>
<!-- Node27 -->
<g id="node27" class="node">
<title>Node27</title>
<g id="a_node27"><a xlink:href="../../dd/d84/shortcuts__dialog_8cpp.html" target="_top" xlink:title=" ">
<polygon fill="white" stroke="black" points="3166.5,-0.5 3166.5,-30.5 3307.5,-30.5 3307.5,-0.5 3166.5,-0.5"/>
<text text-anchor="start" x="3174.5" y="-18.5" font-family="Helvetica,sans-Serif" font-size="10.00">src/app/seamly2d/dialogs</text>
<text text-anchor="middle" x="3237" y="-7.5" font-family="Helvetica,sans-Serif" font-size="10.00">/shortcuts_dialog.cpp</text>
</a>
</g>
</g>
<!-- Node13&#45;&gt;Node27 -->
<g id="edge31" class="edge">
<title>Node13&#45;&gt;Node27</title>
<path fill="none" stroke="midnightblue" d="M2081.77,-74.25C2110.52,-71.64 2143.78,-68.87 2174,-67 2610.35,-39.97 2722.36,-78.1 3157,-31 3160.09,-30.67 3163.23,-30.28 3166.41,-29.86"/>
<polygon fill="midnightblue" stroke="midnightblue" points="2081.43,-70.77 2071.79,-75.17 2082.07,-77.74 2081.43,-70.77"/>
</g>
<!-- Node28 -->
<g id="node28" class="node">
<title>Node28</title>
<g id="a_node28"><a xlink:href="../../d2/df4/show__info__dialog_8cpp.html" target="_top" xlink:title=" ">
<polygon fill="white" stroke="black" points="3325.5,-0.5 3325.5,-30.5 3466.5,-30.5 3466.5,-0.5 3325.5,-0.5"/>
<text text-anchor="start" x="3333.5" y="-18.5" font-family="Helvetica,sans-Serif" font-size="10.00">src/app/seamly2d/dialogs</text>
<text text-anchor="middle" x="3396" y="-7.5" font-family="Helvetica,sans-Serif" font-size="10.00">/show_info_dialog.cpp</text>
</a>
</g>
</g>
<!-- Node13&#45;&gt;Node28 -->
<g id="edge32" class="edge">
<title>Node13&#45;&gt;Node28</title>
<path fill="none" stroke="midnightblue" d="M2081.76,-74.17C2110.52,-71.55 2143.78,-68.8 2174,-67 2680.91,-36.89 2811.01,-84.43 3316,-31 3319.09,-30.67 3322.24,-30.3 3325.41,-29.88"/>
<polygon fill="midnightblue" stroke="midnightblue" points="2081.43,-70.69 2071.79,-75.09 2082.07,-77.66 2081.43,-70.69"/>
</g>
<!-- Node29 -->
<g id="node29" class="node">
<title>Node29</title>
<g id="a_node29"><a xlink:href="../../d3/d49/vpattern_8cpp.html" target="_top" xlink:title=" ">
<polygon fill="white" stroke="black" points="3484.5,-0.5 3484.5,-30.5 3609.5,-30.5 3609.5,-0.5 3484.5,-0.5"/>
<text text-anchor="start" x="3492.5" y="-18.5" font-family="Helvetica,sans-Serif" font-size="10.00">src/app/seamly2d/xml</text>
<text text-anchor="middle" x="3547" y="-7.5" font-family="Helvetica,sans-Serif" font-size="10.00">/vpattern.cpp</text>
</a>
</g>
</g>
<!-- Node13&#45;&gt;Node29 -->
<g id="edge34" class="edge">
<title>Node13&#45;&gt;Node29</title>
<path fill="none" stroke="midnightblue" d="M2081.76,-74.11C2110.52,-71.48 2143.77,-68.74 2174,-67 2751.49,-33.82 2900.26,-96.34 3475,-31 3478.04,-30.65 3481.14,-30.25 3484.27,-29.79"/>
<polygon fill="midnightblue" stroke="midnightblue" points="2081.42,-70.63 2071.79,-75.03 2082.07,-77.6 2081.42,-70.63"/>
</g>
</g>
</svg>
        <g id="navigator" transform="translate(0 0)" fill="#404254">
                <rect fill="#f2f5e9" fill-opacity="0.5" stroke="#606060" stroke-width=".5" x="0" y="0" width="60" height="60"/>
                <use id="zoomplus" xlink:href="#zoomPlus" x="17" y="9" onmousedown="handleZoom(evt,'in')"/>
                <use id="zoomminus" xlink:href="#zoomMin" x="42" y="9" onmousedown="handleZoom(evt,'out')"/>
                <use id="reset" xlink:href="#resetDef" x="30" y="36" onmousedown="handleReset()"/>
                <g id="arrowUp" xlink:href="#dirArrow" transform="translate(30 24)" onmousedown="handlePan(0,-1)">
                  <use xlink:href="#rim" fill="#404040">
                        <set attributeName="fill" to="#808080" begin="arrowUp.mouseover" end="arrowUp.mouseout"/>
                  </use>
                  <path fill="none" stroke="white" stroke-width="1.5" d="M0,-3.0v7 M-2.5,-0.5L0,-3.0L2.5,-0.5"/>
                </g>
                <g id="arrowRight" xlink:href="#dirArrow" transform="rotate(90) translate(36 -43)" onmousedown="handlePan(1,0)">
                  <use xlink:href="#rim" fill="#404040">
                        <set attributeName="fill" to="#808080" begin="arrowRight.mouseover" end="arrowRight.mouseout"/>
                  </use>
                  <path fill="none" stroke="white" stroke-width="1.5" d="M0,-3.0v7 M-2.5,-0.5L0,-3.0L2.5,-0.5"/>
                </g>
                <g id="arrowDown" xlink:href="#dirArrow" transform="rotate(180) translate(-30 -48)" onmousedown="handlePan(0,1)">
                  <use xlink:href="#rim" fill="#404040">
                        <set attributeName="fill" to="#808080" begin="arrowDown.mouseover" end="arrowDown.mouseout"/>
                  </use>
                  <path fill="none" stroke="white" stroke-width="1.5" d="M0,-3.0v7 M-2.5,-0.5L0,-3.0L2.5,-0.5"/>
                </g>
                <g id="arrowLeft" xlink:href="#dirArrow" transform="rotate(270) translate(-36 17)" onmousedown="handlePan(-1,0)">
                  <use xlink:href="#rim" fill="#404040">
                        <set attributeName="fill" to="#808080" begin="arrowLeft.mouseover" end="arrowLeft.mouseout"/>
                  </use>
                  <path fill="none" stroke="white" stroke-width="1.5" d="M0,-3.0v7 M-2.5,-0.5L0,-3.0L2.5,-0.5"/>
                </g>
        </g>
        <svg viewBox="0 0 15 15" width="100%" height="30px" preserveAspectRatio="xMaxYMin meet">
         <g id="arrow_out" transform="scale(0.3 0.3)">
          <a xlink:href="abstractlayout__dialog_8h__dep__incl_org.svg" target="_base">
           <rect id="button" ry="5" rx="5" y="6" x="6" height="38" width="38"
                fill="#f2f5e9" fill-opacity="0.5" stroke="#606060" stroke-width="1.0"/>
           <path id="arrow"
             d="M 11.500037,31.436501 C 11.940474,20.09759 22.043105,11.32322 32.158766,21.979434 L 37.068811,17.246167 C 37.068811,17.246167 37.088388,32 37.088388,32 L 22.160133,31.978069 C 22.160133,31.978069 26.997745,27.140456 26.997745,27.140456 C 18.528582,18.264221 13.291696,25.230495 11.500037,31.436501 z"
             style="fill:#404040;"/>
          </a>
         </g>
        </svg>
</svg>
