<?xml version="1.0" encoding="UTF-8" standalone="no"?>
<!DOCTYPE svg PUBLIC "-//W3C//DTD SVG 1.1//EN"
 "http://www.w3.org/Graphics/SVG/1.1/DTD/svg11.dtd">
<!-- Generated by graphviz version 2.43.0 (0)
 -->
<!-- Title: src/app/seamly2d/dialogs/abstractlayout_dialog.h Pages: 1 -->
<svg width="4020pt" height="307pt"
 viewBox="0.00 0.00 4019.50 307.00" xmlns="http://www.w3.org/2000/svg" xmlns:xlink="http://www.w3.org/1999/xlink">
<g id="graph0" class="graph" transform="scale(1 1) rotate(0) translate(4 303)">
<title>src/app/seamly2d/dialogs/abstractlayout_dialog.h</title>
<polygon fill="white" stroke="transparent" points="-4,4 -4,-303 4015.5,-303 4015.5,4 -4,4"/>
<!-- Node1 -->
<g id="node1" class="node">
<title>Node1</title>
<g id="a_node1"><a xlink:title=" ">
<polygon fill="#bfbfbf" stroke="black" points="2129.5,-268.5 2129.5,-298.5 2270.5,-298.5 2270.5,-268.5 2129.5,-268.5"/>
<text text-anchor="start" x="2137.5" y="-286.5" font-family="Helvetica,sans-Serif" font-size="10.00">src/app/seamly2d/dialogs</text>
<text text-anchor="middle" x="2200" y="-275.5" font-family="Helvetica,sans-Serif" font-size="10.00">/abstractlayout_dialog.h</text>
</a>
</g>
</g>
<!-- Node2 -->
<g id="node2" class="node">
<title>Node2</title>
<g id="a_node2"><a xlink:href="../../dd/db4/abstractlayout__dialog_8cpp.html" target="_top" xlink:title=" ">
<polygon fill="white" stroke="black" points="0,-0.5 0,-30.5 146,-30.5 146,-0.5 0,-0.5"/>
<text text-anchor="start" x="8" y="-18.5" font-family="Helvetica,sans-Serif" font-size="10.00">src/app/seamly2d/dialogs</text>
<text text-anchor="middle" x="73" y="-7.5" font-family="Helvetica,sans-Serif" font-size="10.00">/abstractlayout_dialog.cpp</text>
</a>
</g>
</g>
<!-- Node1&#45;&gt;Node2 -->
<g id="edge1" class="edge">
<title>Node1&#45;&gt;Node2</title>
<path fill="none" stroke="midnightblue" d="M2119.46,-277.86C1870.87,-262.73 1094.14,-209.18 460,-98 343.85,-77.64 209.36,-47.91 133.42,-30.55"/>
<polygon fill="midnightblue" stroke="midnightblue" points="2119.3,-281.36 2129.49,-278.47 2119.72,-274.37 2119.3,-281.36"/>
</g>
<!-- Node3 -->
<g id="node3" class="node">
<title>Node3</title>
<g id="a_node3"><a xlink:href="../../d1/d8e/export__layout__dialog_8h.html" target="_top" xlink:title=" ">
<polygon fill="white" stroke="black" points="2129.5,-201.5 2129.5,-231.5 2270.5,-231.5 2270.5,-201.5 2129.5,-201.5"/>
<text text-anchor="start" x="2137.5" y="-219.5" font-family="Helvetica,sans-Serif" font-size="10.00">src/app/seamly2d/dialogs</text>
<text text-anchor="middle" x="2200" y="-208.5" font-family="Helvetica,sans-Serif" font-size="10.00">/export_layout_dialog.h</text>
</a>
</g>
</g>
<!-- Node1&#45;&gt;Node3 -->
<g id="edge2" class="edge">
<title>Node1&#45;&gt;Node3</title>
<path fill="none" stroke="midnightblue" d="M2200,-258.11C2200,-249.15 2200,-239.32 2200,-231.58"/>
<polygon fill="midnightblue" stroke="midnightblue" points="2196.5,-258.4 2200,-268.4 2203.5,-258.4 2196.5,-258.4"/>
</g>
<!-- Node11 -->
<g id="node11" class="node">
<title>Node11</title>
<g id="a_node11"><a xlink:href="../../d3/dd8/layoutsettings__dialog_8h.html" target="_top" xlink:title=" ">
<polygon fill="white" stroke="black" points="2288.5,-201.5 2288.5,-231.5 2429.5,-231.5 2429.5,-201.5 2288.5,-201.5"/>
<text text-anchor="start" x="2296.5" y="-219.5" font-family="Helvetica,sans-Serif" font-size="10.00">src/app/seamly2d/dialogs</text>
<text text-anchor="middle" x="2359" y="-208.5" font-family="Helvetica,sans-Serif" font-size="10.00">/layoutsettings_dialog.h</text>
</a>
</g>
</g>
<!-- Node1&#45;&gt;Node11 -->
<g id="edge11" class="edge">
<title>Node1&#45;&gt;Node11</title>
<path fill="none" stroke="midnightblue" d="M2243.92,-264.54C2269.37,-254.14 2300.93,-241.24 2324.57,-231.58"/>
<polygon fill="midnightblue" stroke="midnightblue" points="2242.43,-261.37 2234.5,-268.4 2245.08,-267.85 2242.43,-261.37"/>
</g>
<!-- Node4 -->
<g id="node4" class="node">
<title>Node4</title>
<g id="a_node4"><a xlink:href="../../dd/d54/export__layout__dialog_8cpp.html" target="_top" xlink:title=" ">
<polygon fill="white" stroke="black" points="164.5,-0.5 164.5,-30.5 307.5,-30.5 307.5,-0.5 164.5,-0.5"/>
<text text-anchor="start" x="172.5" y="-18.5" font-family="Helvetica,sans-Serif" font-size="10.00">src/app/seamly2d/dialogs</text>
<text text-anchor="middle" x="236" y="-7.5" font-family="Helvetica,sans-Serif" font-size="10.00">/export_layout_dialog.cpp</text>
</a>
</g>
</g>
<!-- Node3&#45;&gt;Node4 -->
<g id="edge3" class="edge">
<title>Node3&#45;&gt;Node4</title>
<path fill="none" stroke="midnightblue" d="M2119.14,-213C1887.35,-205.07 1201.05,-176.21 637,-98 513.5,-80.88 370.87,-48.93 293.38,-30.53"/>
<polygon fill="midnightblue" stroke="midnightblue" points="2119.06,-216.5 2129.17,-213.34 2119.3,-209.5 2119.06,-216.5"/>
</g>
<!-- Node5 -->
<g id="node5" class="node">
<title>Node5</title>
<g id="a_node5"><a xlink:href="../../d1/d82/mainwindowsnogui_8h.html" target="_top" xlink:title=" ">
<polygon fill="white" stroke="black" points="2102.5,-140 2102.5,-159 2311.5,-159 2311.5,-140 2102.5,-140"/>
<text text-anchor="middle" x="2207" y="-147" font-family="Helvetica,sans-Serif" font-size="10.00">src/app/seamly2d/mainwindowsnogui.h</text>
</a>
</g>
</g>
<!-- Node3&#45;&gt;Node5 -->
<g id="edge4" class="edge">
<title>Node3&#45;&gt;Node5</title>
<path fill="none" stroke="midnightblue" d="M2202.61,-191.25C2203.82,-180.02 2205.18,-167.38 2206.06,-159.19"/>
<polygon fill="midnightblue" stroke="midnightblue" points="2199.11,-191.08 2201.52,-201.4 2206.07,-191.83 2199.11,-191.08"/>
</g>
<!-- Node10 -->
<g id="node10" class="node">
<title>Node10</title>
<g id="a_node10"><a xlink:href="../../d8/de8/mainwindowsnogui_8cpp.html" target="_top" xlink:title=" ">
<polygon fill="white" stroke="black" points="3627.5,-6 3627.5,-25 3848.5,-25 3848.5,-6 3627.5,-6"/>
<text text-anchor="middle" x="3738" y="-13" font-family="Helvetica,sans-Serif" font-size="10.00">src/app/seamly2d/mainwindowsnogui.cpp</text>
</a>
</g>
</g>
<!-- Node3&#45;&gt;Node10 -->
<g id="edge10" class="edge">
<title>Node3&#45;&gt;Node10</title>
<path fill="none" stroke="midnightblue" d="M2280.7,-200.81C2457.82,-174.55 3403.32,-57.74 3668.72,-25.03"/>
<polygon fill="midnightblue" stroke="midnightblue" points="2279.97,-197.38 2270.6,-202.34 2281.01,-204.3 2279.97,-197.38"/>
</g>
<!-- Node6 -->
<g id="node6" class="node">
<title>Node6</title>
<g id="a_node6"><a xlink:href="../../d9/d53/mainwindow_8h.html" target="_top" xlink:title=" ">
<polygon fill="white" stroke="black" points="646,-73 646,-92 822,-92 822,-73 646,-73"/>
<text text-anchor="middle" x="734" y="-80" font-family="Helvetica,sans-Serif" font-size="10.00">src/app/seamly2d/mainwindow.h</text>
</a>
</g>
</g>
<!-- Node5&#45;&gt;Node6 -->
<g id="edge5" class="edge">
<title>Node5&#45;&gt;Node6</title>
<path fill="none" stroke="midnightblue" d="M2137.85,-138.7C2123.08,-136.89 2107.54,-135.19 2093,-134 1614.44,-94.75 1038.55,-85.99 822,-84.05"/>
<polygon fill="midnightblue" stroke="midnightblue" points="2137.58,-142.19 2147.94,-139.97 2138.45,-135.25 2137.58,-142.19"/>
</g>
<!-- Node5&#45;&gt;Node10 -->
<g id="edge9" class="edge">
<title>Node5&#45;&gt;Node10</title>
<path fill="none" stroke="midnightblue" d="M2278.93,-138.6C2406.02,-121.47 2678.73,-86.27 2910,-67 3223.99,-40.84 3304.08,-57.91 3618,-31 3636.29,-29.43 3656.1,-27.24 3674.25,-25.04"/>
<polygon fill="midnightblue" stroke="midnightblue" points="2278.37,-135.15 2268.93,-139.96 2279.31,-142.09 2278.37,-135.15"/>
</g>
<!-- Node7 -->
<g id="node7" class="node">
<title>Node7</title>
<g id="a_node7"><a xlink:href="../../d3/dd8/vapplication_8cpp.html" target="_top" xlink:title=" ">
<polygon fill="white" stroke="black" points="325.5,-0.5 325.5,-30.5 452.5,-30.5 452.5,-0.5 325.5,-0.5"/>
<text text-anchor="start" x="333.5" y="-18.5" font-family="Helvetica,sans-Serif" font-size="10.00">src/app/seamly2d/core</text>
<text text-anchor="middle" x="389" y="-7.5" font-family="Helvetica,sans-Serif" font-size="10.00">/vapplication.cpp</text>
</a>
</g>
</g>
<!-- Node6&#45;&gt;Node7 -->
<g id="edge6" class="edge">
<title>Node6&#45;&gt;Node7</title>
<path fill="none" stroke="midnightblue" d="M676.66,-71.16C621.38,-61.14 535.4,-45.37 461,-31 458.25,-30.47 455.43,-29.92 452.59,-29.36"/>
<polygon fill="midnightblue" stroke="midnightblue" points="676.15,-74.63 686.61,-72.97 677.4,-67.74 676.15,-74.63"/>
</g>
<!-- Node8 -->
<g id="node8" class="node">
<title>Node8</title>
<g id="a_node8"><a xlink:href="../../dc/d14/app_2seamly2d_2main_8cpp.html" target="_top" xlink:title=" ">
<polygon fill="white" stroke="black" points="470.5,-6 470.5,-25 621.5,-25 621.5,-6 470.5,-6"/>
<text text-anchor="middle" x="546" y="-13" font-family="Helvetica,sans-Serif" font-size="10.00">src/app/seamly2d/main.cpp</text>
</a>
</g>
</g>
<!-- Node6&#45;&gt;Node8 -->
<g id="edge7" class="edge">
<title>Node6&#45;&gt;Node8</title>
<path fill="none" stroke="midnightblue" d="M699.11,-69.44C661.81,-56.54 603.63,-36.42 570.77,-25.06"/>
<polygon fill="midnightblue" stroke="midnightblue" points="698.44,-72.91 709.04,-72.87 700.73,-66.29 698.44,-72.91"/>
</g>
<!-- Node9 -->
<g id="node9" class="node">
<title>Node9</title>
<g id="a_node9"><a xlink:href="../../d8/dd9/mainwindow_8cpp.html" target="_top" xlink:title=" ">
<polygon fill="white" stroke="black" points="640,-6 640,-25 828,-25 828,-6 640,-6"/>
<text text-anchor="middle" x="734" y="-13" font-family="Helvetica,sans-Serif" font-size="10.00">src/app/seamly2d/mainwindow.cpp</text>
</a>
</g>
</g>
<!-- Node6&#45;&gt;Node9 -->
<g id="edge8" class="edge">
<title>Node6&#45;&gt;Node9</title>
<path fill="none" stroke="midnightblue" d="M734,-62.54C734,-50.17 734,-34.62 734,-25.13"/>
<polygon fill="midnightblue" stroke="midnightblue" points="730.5,-62.73 734,-72.73 737.5,-62.73 730.5,-62.73"/>
</g>
<!-- Node11&#45;&gt;Node10 -->
<g id="edge40" class="edge">
<title>Node11&#45;&gt;Node10</title>
<path fill="none" stroke="midnightblue" d="M2439.87,-210.92C2552.05,-204 2761.06,-189.08 2938,-165 3232.99,-124.85 3584.47,-50.16 3699.5,-25.02"/>
<polygon fill="midnightblue" stroke="midnightblue" points="2439.42,-207.44 2429.65,-211.54 2439.85,-214.43 2439.42,-207.44"/>
</g>
<!-- Node12 -->
<g id="node12" class="node">
<title>Node12</title>
<g id="a_node12"><a xlink:href="../../dd/d57/vcmdexport_8h.html" target="_top" xlink:title=" ">
<polygon fill="white" stroke="black" points="1957.5,-134.5 1957.5,-164.5 2084.5,-164.5 2084.5,-134.5 1957.5,-134.5"/>
<text text-anchor="start" x="1965.5" y="-152.5" font-family="Helvetica,sans-Serif" font-size="10.00">src/app/seamly2d/core</text>
<text text-anchor="middle" x="2021" y="-141.5" font-family="Helvetica,sans-Serif" font-size="10.00">/vcmdexport.h</text>
</a>
</g>
</g>
<!-- Node11&#45;&gt;Node12 -->
<g id="edge12" class="edge">
<title>Node11&#45;&gt;Node12</title>
<path fill="none" stroke="midnightblue" d="M2278.42,-200.44C2225.65,-190.52 2155.19,-177.17 2093,-165 2090.25,-164.46 2087.44,-163.91 2084.6,-163.35"/>
<polygon fill="midnightblue" stroke="midnightblue" points="2277.92,-203.91 2288.39,-202.32 2279.21,-197.03 2277.92,-203.91"/>
</g>
<!-- Node25 -->
<g id="node25" class="node">
<title>Node25</title>
<g id="a_node25"><a xlink:href="../../d0/dfa/layoutsettings__dialog_8cpp.html" target="_top" xlink:title=" ">
<polygon fill="white" stroke="black" points="3866.5,-0.5 3866.5,-30.5 4011.5,-30.5 4011.5,-0.5 3866.5,-0.5"/>
<text text-anchor="start" x="3874.5" y="-18.5" font-family="Helvetica,sans-Serif" font-size="10.00">src/app/seamly2d/dialogs</text>
<text text-anchor="middle" x="3939" y="-7.5" font-family="Helvetica,sans-Serif" font-size="10.00">/layoutsettings_dialog.cpp</text>
</a>
</g>
</g>
<!-- Node11&#45;&gt;Node25 -->
<g id="edge39" class="edge">
<title>Node11&#45;&gt;Node25</title>
<path fill="none" stroke="midnightblue" d="M2439.69,-211.95C2568.44,-205.75 2828.16,-191.06 3047,-165 3409.77,-121.81 3497.96,-92.97 3858,-31 3860.68,-30.54 3863.4,-30.07 3866.15,-29.59"/>
<polygon fill="midnightblue" stroke="midnightblue" points="2439.34,-208.46 2429.52,-212.43 2439.68,-215.45 2439.34,-208.46"/>
</g>
<!-- Node30 -->
<g id="node30" class="node">
<title>Node30</title>
<g id="a_node30"><a xlink:href="../../df/d9b/vcmdexport_8cpp.html" target="_top" xlink:title=" ">
<polygon fill="white" stroke="black" points="2196.5,-67.5 2196.5,-97.5 2323.5,-97.5 2323.5,-67.5 2196.5,-67.5"/>
<text text-anchor="start" x="2204.5" y="-85.5" font-family="Helvetica,sans-Serif" font-size="10.00">src/app/seamly2d/core</text>
<text text-anchor="middle" x="2260" y="-74.5" font-family="Helvetica,sans-Serif" font-size="10.00">/vcmdexport.cpp</text>
</a>
</g>
</g>
<!-- Node11&#45;&gt;Node30 -->
<g id="edge38" class="edge">
<title>Node11&#45;&gt;Node30</title>
<path fill="none" stroke="midnightblue" d="M2350.63,-191.45C2343.96,-174.37 2333.52,-151.46 2320,-134 2309,-119.79 2293.39,-106.81 2280.85,-97.56"/>
<polygon fill="midnightblue" stroke="midnightblue" points="2347.5,-193.08 2354.28,-201.23 2354.06,-190.63 2347.5,-193.08"/>
</g>
<!-- Node12&#45;&gt;Node6 -->
<g id="edge37" class="edge">
<title>Node12&#45;&gt;Node6</title>
<path fill="none" stroke="midnightblue" d="M1946.92,-144.76C1724.43,-133.52 1062.69,-100.1 822.42,-87.97"/>
<polygon fill="midnightblue" stroke="midnightblue" points="1947.01,-148.27 1957.18,-145.28 1947.37,-141.28 1947.01,-148.27"/>
</g>
<!-- Node13 -->
<g id="node13" class="node">
<title>Node13</title>
<g id="a_node13"><a xlink:href="../../d9/d02/vapplication_8h.html" target="_top" xlink:title=" ">
<polygon fill="white" stroke="black" points="1957.5,-67.5 1957.5,-97.5 2084.5,-97.5 2084.5,-67.5 1957.5,-67.5"/>
<text text-anchor="start" x="1965.5" y="-85.5" font-family="Helvetica,sans-Serif" font-size="10.00">src/app/seamly2d/core</text>
<text text-anchor="middle" x="2021" y="-74.5" font-family="Helvetica,sans-Serif" font-size="10.00">/vapplication.h</text>
</a>
</g>
</g>
<!-- Node12&#45;&gt;Node13 -->
<g id="edge13" class="edge">
<title>Node12&#45;&gt;Node13</title>
<path fill="none" stroke="midnightblue" d="M2021,-124.11C2021,-115.15 2021,-105.32 2021,-97.58"/>
<polygon fill="midnightblue" stroke="midnightblue" points="2017.5,-124.4 2021,-134.4 2024.5,-124.4 2017.5,-124.4"/>
</g>
<!-- Node12&#45;&gt;Node30 -->
<g id="edge36" class="edge">
<title>Node12&#45;&gt;Node30</title>
<path fill="none" stroke="midnightblue" d="M2082.22,-131.85C2121.19,-121.25 2171.1,-107.68 2208.12,-97.61"/>
<polygon fill="midnightblue" stroke="midnightblue" points="2081.3,-128.47 2072.57,-134.48 2083.13,-135.23 2081.3,-128.47"/>
</g>
<!-- Node13&#45;&gt;Node2 -->
<g id="edge15" class="edge">
<title>Node13&#45;&gt;Node2</title>
<path fill="none" stroke="midnightblue" d="M1946.91,-80.96C1645.64,-78.54 511.68,-67.16 155,-31 152.12,-30.71 149.2,-30.37 146.24,-30"/>
<polygon fill="midnightblue" stroke="midnightblue" points="1947.24,-84.46 1957.27,-81.04 1947.3,-77.46 1947.24,-84.46"/>
</g>
<!-- Node13&#45;&gt;Node4 -->
<g id="edge27" class="edge">
<title>Node13&#45;&gt;Node4</title>
<path fill="none" stroke="midnightblue" d="M1947.24,-80.79C1663.14,-77.81 639.47,-64.91 316,-31 313.33,-30.72 310.62,-30.4 307.89,-30.05"/>
<polygon fill="midnightblue" stroke="midnightblue" points="1947.4,-84.29 1957.43,-80.89 1947.47,-77.29 1947.4,-84.29"/>
</g>
<!-- Node13&#45;&gt;Node7 -->
<g id="edge14" class="edge">
<title>Node13&#45;&gt;Node7</title>
<path fill="none" stroke="midnightblue" d="M1947.29,-80.74C1678.9,-77.72 754.32,-65.04 461,-31 458.21,-30.68 455.37,-30.3 452.51,-29.89"/>
<polygon fill="midnightblue" stroke="midnightblue" points="1947.27,-84.24 1957.31,-80.85 1947.35,-77.24 1947.27,-84.24"/>
</g>
<!-- Node13&#45;&gt;Node8 -->
<g id="edge30" class="edge">
<title>Node13&#45;&gt;Node8</title>
<path fill="none" stroke="midnightblue" d="M1947.12,-80.11C1697.97,-75.22 889.84,-57.66 631,-31 617.45,-29.6 602.79,-27.37 589.53,-25.07"/>
<polygon fill="midnightblue" stroke="midnightblue" points="1947.09,-83.61 1957.15,-80.31 1947.22,-76.61 1947.09,-83.61"/>
</g>
<!-- Node13&#45;&gt;Node9 -->
<g id="edge35" class="edge">
<title>Node13&#45;&gt;Node9</title>
<path fill="none" stroke="midnightblue" d="M1947.09,-80.84C1760.56,-78.64 1255.76,-69.31 837,-31 820.82,-29.52 803.28,-27.29 787.34,-25.02"/>
<polygon fill="midnightblue" stroke="midnightblue" points="1947.28,-84.34 1957.32,-80.96 1947.36,-77.34 1947.28,-84.34"/>
</g>
<!-- Node13&#45;&gt;Node10 -->
<g id="edge33" class="edge">
<title>Node13&#45;&gt;Node10</title>
<path fill="none" stroke="midnightblue" d="M2094.76,-74.07C2123.51,-71.43 2156.77,-68.7 2187,-67 2822.2,-31.3 2983.48,-77.21 3618,-31 3637.26,-29.6 3658.17,-27.33 3677.06,-25"/>
<polygon fill="midnightblue" stroke="midnightblue" points="2094.42,-70.59 2084.78,-75 2095.07,-77.56 2094.42,-70.59"/>
</g>
<!-- Node14 -->
<g id="node14" class="node">
<title>Node14</title>
<g id="a_node14"><a xlink:href="../../d7/dfa/calculator__dialog_8cpp.html" target="_top" xlink:title=" ">
<polygon fill="white" stroke="black" points="846.5,-0.5 846.5,-30.5 987.5,-30.5 987.5,-0.5 846.5,-0.5"/>
<text text-anchor="start" x="854.5" y="-18.5" font-family="Helvetica,sans-Serif" font-size="10.00">src/app/seamly2d/dialogs</text>
<text text-anchor="middle" x="917" y="-7.5" font-family="Helvetica,sans-Serif" font-size="10.00">/calculator_dialog.cpp</text>
</a>
</g>
</g>
<!-- Node13&#45;&gt;Node14 -->
<g id="edge16" class="edge">
<title>Node13&#45;&gt;Node14</title>
<path fill="none" stroke="midnightblue" d="M1947.24,-81.15C1778.46,-79.62 1351.38,-71.68 997,-31 993.91,-30.65 990.77,-30.25 987.6,-29.81"/>
<polygon fill="midnightblue" stroke="midnightblue" points="1947.22,-84.64 1957.25,-81.23 1947.28,-77.65 1947.22,-84.64"/>
</g>
<!-- Node15 -->
<g id="node15" class="node">
<title>Node15</title>
<g id="a_node15"><a xlink:href="../../d9/d70/preferencesgraphicsviewpage_8cpp.html" target="_top" xlink:title=" ">
<polygon fill="white" stroke="black" points="1006,-0.5 1006,-30.5 1254,-30.5 1254,-0.5 1006,-0.5"/>
<text text-anchor="start" x="1014" y="-18.5" font-family="Helvetica,sans-Serif" font-size="10.00">src/app/seamly2d/dialogs</text>
<text text-anchor="middle" x="1130" y="-7.5" font-family="Helvetica,sans-Serif" font-size="10.00">/configpages/preferencesgraphicsviewpage.cpp</text>
</a>
</g>
</g>
<!-- Node13&#45;&gt;Node15 -->
<g id="edge17" class="edge">
<title>Node13&#45;&gt;Node15</title>
<path fill="none" stroke="midnightblue" d="M1947.02,-77.61C1811.31,-70.24 1513.49,-52.99 1263,-31 1260.11,-30.75 1257.18,-30.48 1254.23,-30.21"/>
<polygon fill="midnightblue" stroke="midnightblue" points="1947.12,-81.12 1957.29,-78.16 1947.5,-74.13 1947.12,-81.12"/>
</g>
<!-- Node16 -->
<g id="node16" class="node">
<title>Node16</title>
<g id="a_node16"><a xlink:href="../../dc/d20/preferencespathpage_8cpp.html" target="_top" xlink:title=" ">
<polygon fill="white" stroke="black" points="1272.5,-0.5 1272.5,-30.5 1477.5,-30.5 1477.5,-0.5 1272.5,-0.5"/>
<text text-anchor="start" x="1280.5" y="-18.5" font-family="Helvetica,sans-Serif" font-size="10.00">src/app/seamly2d/dialogs</text>
<text text-anchor="middle" x="1375" y="-7.5" font-family="Helvetica,sans-Serif" font-size="10.00">/configpages/preferencespathpage.cpp</text>
</a>
</g>
</g>
<!-- Node13&#45;&gt;Node16 -->
<g id="edge18" class="edge">
<title>Node13&#45;&gt;Node16</title>
<path fill="none" stroke="midnightblue" d="M1947.23,-75.33C1844.12,-66.53 1651.12,-49.38 1487,-31 1483.88,-30.65 1480.72,-30.29 1477.52,-29.92"/>
<polygon fill="midnightblue" stroke="midnightblue" points="1946.96,-78.82 1957.22,-76.18 1947.56,-71.85 1946.96,-78.82"/>
</g>
<!-- Node17 -->
<g id="node17" class="node">
<title>Node17</title>
<g id="a_node17"><a xlink:href="../../d2/d00/vtooloptionspropertybrowser_8cpp.html" target="_top" xlink:title=" ">
<polygon fill="white" stroke="black" points="1496,-0.5 1496,-30.5 1676,-30.5 1676,-0.5 1496,-0.5"/>
<text text-anchor="start" x="1504" y="-18.5" font-family="Helvetica,sans-Serif" font-size="10.00">src/app/seamly2d/core</text>
<text text-anchor="middle" x="1586" y="-7.5" font-family="Helvetica,sans-Serif" font-size="10.00">/vtooloptionspropertybrowser.cpp</text>
</a>
</g>
</g>
<!-- Node13&#45;&gt;Node17 -->
<g id="edge19" class="edge">
<title>Node13&#45;&gt;Node17</title>
<path fill="none" stroke="midnightblue" d="M1947.01,-70.44C1872.22,-59.27 1756.55,-41.99 1676.39,-30.01"/>
<polygon fill="midnightblue" stroke="midnightblue" points="1946.87,-73.96 1957.28,-71.98 1947.91,-67.04 1946.87,-73.96"/>
</g>
<!-- Node18 -->
<g id="node18" class="node">
<title>Node18</title>
<g id="a_node18"><a xlink:href="../../dd/dc2/decimalchart__dialog_8cpp.html" target="_top" xlink:title=" ">
<polygon fill="white" stroke="black" points="1694.5,-0.5 1694.5,-30.5 1835.5,-30.5 1835.5,-0.5 1694.5,-0.5"/>
<text text-anchor="start" x="1702.5" y="-18.5" font-family="Helvetica,sans-Serif" font-size="10.00">src/app/seamly2d/dialogs</text>
<text text-anchor="middle" x="1765" y="-7.5" font-family="Helvetica,sans-Serif" font-size="10.00">/decimalchart_dialog.cpp</text>
</a>
</g>
</g>
<!-- Node13&#45;&gt;Node18 -->
<g id="edge20" class="edge">
<title>Node13&#45;&gt;Node18</title>
<path fill="none" stroke="midnightblue" d="M1955.95,-64.98C1914.14,-54.37 1860.39,-40.72 1820.58,-30.61"/>
<polygon fill="midnightblue" stroke="midnightblue" points="1955.21,-68.41 1965.77,-67.48 1956.94,-61.62 1955.21,-68.41"/>
</g>
<!-- Node19 -->
<g id="node19" class="node">
<title>Node19</title>
<g id="a_node19"><a xlink:href="../../d2/d2d/preferencesconfigurationpage_8cpp.html" target="_top" xlink:title=" ">
<polygon fill="white" stroke="black" points="1853.5,-0.5 1853.5,-30.5 2100.5,-30.5 2100.5,-0.5 1853.5,-0.5"/>
<text text-anchor="start" x="1861.5" y="-18.5" font-family="Helvetica,sans-Serif" font-size="10.00">src/app/seamly2d/dialogs</text>
<text text-anchor="middle" x="1977" y="-7.5" font-family="Helvetica,sans-Serif" font-size="10.00">/configpages/preferencesconfigurationpage.cpp</text>
</a>
</g>
</g>
<!-- Node13&#45;&gt;Node19 -->
<g id="edge21" class="edge">
<title>Node13&#45;&gt;Node19</title>
<path fill="none" stroke="midnightblue" d="M2005.68,-58.87C1999.31,-49.46 1992.12,-38.83 1986.53,-30.58"/>
<polygon fill="midnightblue" stroke="midnightblue" points="2002.95,-61.08 2011.45,-67.4 2008.75,-57.15 2002.95,-61.08"/>
</g>
<!-- Node20 -->
<g id="node20" class="node">
<title>Node20</title>
<g id="a_node20"><a xlink:href="../../dc/d63/preferencespatternpage_8cpp.html" target="_top" xlink:title=" ">
<polygon fill="white" stroke="black" points="2119,-0.5 2119,-30.5 2337,-30.5 2337,-0.5 2119,-0.5"/>
<text text-anchor="start" x="2127" y="-18.5" font-family="Helvetica,sans-Serif" font-size="10.00">src/app/seamly2d/dialogs</text>
<text text-anchor="middle" x="2228" y="-7.5" font-family="Helvetica,sans-Serif" font-size="10.00">/configpages/preferencespatternpage.cpp</text>
</a>
</g>
</g>
<!-- Node13&#45;&gt;Node20 -->
<g id="edge22" class="edge">
<title>Node13&#45;&gt;Node20</title>
<path fill="none" stroke="midnightblue" d="M2075.32,-64.44C2108.87,-53.91 2151.41,-40.55 2183.06,-30.61"/>
<polygon fill="midnightblue" stroke="midnightblue" points="2074.15,-61.14 2065.66,-67.48 2076.25,-67.82 2074.15,-61.14"/>
</g>
<!-- Node21 -->
<g id="node21" class="node">
<title>Node21</title>
<g id="a_node21"><a xlink:href="../../dd/d64/dialogaboutapp_8cpp.html" target="_top" xlink:title=" ">
<polygon fill="white" stroke="black" points="2355.5,-0.5 2355.5,-30.5 2496.5,-30.5 2496.5,-0.5 2355.5,-0.5"/>
<text text-anchor="start" x="2363.5" y="-18.5" font-family="Helvetica,sans-Serif" font-size="10.00">src/app/seamly2d/dialogs</text>
<text text-anchor="middle" x="2426" y="-7.5" font-family="Helvetica,sans-Serif" font-size="10.00">/dialogaboutapp.cpp</text>
</a>
</g>
</g>
<!-- Node13&#45;&gt;Node21 -->
<g id="edge23" class="edge">
<title>Node13&#45;&gt;Node21</title>
<path fill="none" stroke="midnightblue" d="M2094.89,-70.56C2160.81,-60.67 2259.95,-45.48 2346,-31 2349.06,-30.48 2352.19,-29.95 2355.35,-29.41"/>
<polygon fill="midnightblue" stroke="midnightblue" points="2093.97,-67.16 2084.6,-72.1 2095.01,-74.08 2093.97,-67.16"/>
</g>
<!-- Node22 -->
<g id="node22" class="node">
<title>Node22</title>
<g id="a_node22"><a xlink:href="../../d6/d89/dialoglayoutprogress_8cpp.html" target="_top" xlink:title=" ">
<polygon fill="white" stroke="black" points="2514.5,-0.5 2514.5,-30.5 2657.5,-30.5 2657.5,-0.5 2514.5,-0.5"/>
<text text-anchor="start" x="2522.5" y="-18.5" font-family="Helvetica,sans-Serif" font-size="10.00">src/app/seamly2d/dialogs</text>
<text text-anchor="middle" x="2586" y="-7.5" font-family="Helvetica,sans-Serif" font-size="10.00">/dialoglayoutprogress.cpp</text>
</a>
</g>
</g>
<!-- Node13&#45;&gt;Node22 -->
<g id="edge24" class="edge">
<title>Node13&#45;&gt;Node22</title>
<path fill="none" stroke="midnightblue" d="M2094.79,-74.47C2210.08,-63.37 2427.76,-41.93 2505,-31 2508.11,-30.56 2511.29,-30.09 2514.49,-29.59"/>
<polygon fill="midnightblue" stroke="midnightblue" points="2094.25,-71 2084.63,-75.45 2094.92,-77.97 2094.25,-71"/>
</g>
<!-- Node23 -->
<g id="node23" class="node">
<title>Node23</title>
<g id="a_node23"><a xlink:href="../../d5/dc5/dialogpreferences_8cpp.html" target="_top" xlink:title=" ">
<polygon fill="white" stroke="black" points="2675.5,-0.5 2675.5,-30.5 2816.5,-30.5 2816.5,-0.5 2675.5,-0.5"/>
<text text-anchor="start" x="2683.5" y="-18.5" font-family="Helvetica,sans-Serif" font-size="10.00">src/app/seamly2d/dialogs</text>
<text text-anchor="middle" x="2746" y="-7.5" font-family="Helvetica,sans-Serif" font-size="10.00">/dialogpreferences.cpp</text>
</a>
</g>
</g>
<!-- Node13&#45;&gt;Node23 -->
<g id="edge25" class="edge">
<title>Node13&#45;&gt;Node23</title>
<path fill="none" stroke="midnightblue" d="M2094.81,-74.86C2123.57,-72.32 2156.82,-69.45 2187,-67 2399.79,-49.71 2454.23,-58.07 2666,-31 2669.08,-30.61 2672.22,-30.17 2675.39,-29.71"/>
<polygon fill="midnightblue" stroke="midnightblue" points="2094.49,-71.37 2084.84,-75.74 2095.1,-78.35 2094.49,-71.37"/>
</g>
<!-- Node24 -->
<g id="node24" class="node">
<title>Node24</title>
<g id="a_node24"><a xlink:href="../../d5/d18/dialogpatternproperties_8cpp.html" target="_top" xlink:title=" ">
<polygon fill="white" stroke="black" points="2834.5,-0.5 2834.5,-30.5 2989.5,-30.5 2989.5,-0.5 2834.5,-0.5"/>
<text text-anchor="start" x="2842.5" y="-18.5" font-family="Helvetica,sans-Serif" font-size="10.00">src/app/seamly2d/dialogs</text>
<text text-anchor="middle" x="2912" y="-7.5" font-family="Helvetica,sans-Serif" font-size="10.00">/dialogpatternproperties.cpp</text>
</a>
</g>
</g>
<!-- Node13&#45;&gt;Node24 -->
<g id="edge26" class="edge">
<title>Node13&#45;&gt;Node24</title>
<path fill="none" stroke="midnightblue" d="M2094.79,-74.56C2123.55,-71.99 2156.8,-69.17 2187,-67 2470.28,-46.64 2542.73,-62.39 2825,-31 2828.04,-30.66 2831.14,-30.29 2834.27,-29.89"/>
<polygon fill="midnightblue" stroke="midnightblue" points="2094.46,-71.08 2084.81,-75.46 2095.09,-78.05 2094.46,-71.08"/>
</g>
<!-- Node13&#45;&gt;Node25 -->
<g id="edge28" class="edge">
<title>Node13&#45;&gt;Node25</title>
<path fill="none" stroke="midnightblue" d="M2094.75,-74.01C2123.51,-71.37 2156.77,-68.64 2187,-67 2928.74,-26.66 3118.82,-104.67 3858,-31 3860.7,-30.73 3863.45,-30.42 3866.22,-30.08"/>
<polygon fill="midnightblue" stroke="midnightblue" points="2094.41,-70.53 2084.78,-74.94 2095.06,-77.5 2094.41,-70.53"/>
</g>
<!-- Node26 -->
<g id="node26" class="node">
<title>Node26</title>
<g id="a_node26"><a xlink:href="../../db/d5c/groups__widget_8cpp.html" target="_top" xlink:title=" ">
<polygon fill="white" stroke="black" points="3007.5,-0.5 3007.5,-30.5 3148.5,-30.5 3148.5,-0.5 3007.5,-0.5"/>
<text text-anchor="start" x="3015.5" y="-18.5" font-family="Helvetica,sans-Serif" font-size="10.00">src/app/seamly2d/dialogs</text>
<text text-anchor="middle" x="3078" y="-7.5" font-family="Helvetica,sans-Serif" font-size="10.00">/groups_widget.cpp</text>
</a>
</g>
</g>
<!-- Node13&#45;&gt;Node26 -->
<g id="edge29" class="edge">
<title>Node13&#45;&gt;Node26</title>
<path fill="none" stroke="midnightblue" d="M2094.77,-74.37C2123.53,-71.78 2156.79,-68.99 2187,-67 2547.02,-43.3 2639.45,-71.26 2998,-31 3001.09,-30.65 3004.23,-30.26 3007.41,-29.83"/>
<polygon fill="midnightblue" stroke="midnightblue" points="2094.44,-70.89 2084.8,-75.28 2095.08,-77.86 2094.44,-70.89"/>
</g>
<!-- Node27 -->
<g id="node27" class="node">
<title>Node27</title>
<g id="a_node27"><a xlink:href="../../d2/df4/show__info__dialog_8cpp.html" target="_top" xlink:title=" ">
<polygon fill="white" stroke="black" points="3166.5,-0.5 3166.5,-30.5 3307.5,-30.5 3307.5,-0.5 3166.5,-0.5"/>
<text text-anchor="start" x="3174.5" y="-18.5" font-family="Helvetica,sans-Serif" font-size="10.00">src/app/seamly2d/dialogs</text>
<text text-anchor="middle" x="3237" y="-7.5" font-family="Helvetica,sans-Serif" font-size="10.00">/show_info_dialog.cpp</text>
</a>
</g>
</g>
<!-- Node13&#45;&gt;Node27 -->
<g id="edge31" class="edge">
<title>Node13&#45;&gt;Node27</title>
<path fill="none" stroke="midnightblue" d="M2094.77,-74.26C2123.53,-71.65 2156.78,-68.88 2187,-67 2617.58,-40.22 2728.11,-77.59 3157,-31 3160.09,-30.66 3163.23,-30.28 3166.41,-29.86"/>
<polygon fill="midnightblue" stroke="midnightblue" points="2094.43,-70.78 2084.79,-75.18 2095.07,-77.75 2094.43,-70.78"/>
</g>
<!-- Node28 -->
<g id="node28" class="node">
<title>Node28</title>
<g id="a_node28"><a xlink:href="../../dd/d84/shortcuts__dialog_8cpp.html" target="_top" xlink:title=" ">
<polygon fill="white" stroke="black" points="3325.5,-0.5 3325.5,-30.5 3466.5,-30.5 3466.5,-0.5 3325.5,-0.5"/>
<text text-anchor="start" x="3333.5" y="-18.5" font-family="Helvetica,sans-Serif" font-size="10.00">src/app/seamly2d/dialogs</text>
<text text-anchor="middle" x="3396" y="-7.5" font-family="Helvetica,sans-Serif" font-size="10.00">/shortcuts_dialog.cpp</text>
</a>
</g>
</g>
<!-- Node13&#45;&gt;Node28 -->
<g id="edge32" class="edge">
<title>Node13&#45;&gt;Node28</title>
<path fill="none" stroke="midnightblue" d="M2094.76,-74.18C2123.52,-71.55 2156.78,-68.8 2187,-67 2688.14,-37.15 2816.76,-83.91 3316,-31 3319.09,-30.67 3322.24,-30.29 3325.41,-29.88"/>
<polygon fill="midnightblue" stroke="midnightblue" points="2094.43,-70.69 2084.79,-75.1 2095.07,-77.66 2094.43,-70.69"/>
</g>
<!-- Node29 -->
<g id="node29" class="node">
<title>Node29</title>
<g id="a_node29"><a xlink:href="../../d3/d49/vpattern_8cpp.html" target="_top" xlink:title=" ">
<polygon fill="white" stroke="black" points="3484.5,-0.5 3484.5,-30.5 3609.5,-30.5 3609.5,-0.5 3484.5,-0.5"/>
<text text-anchor="start" x="3492.5" y="-18.5" font-family="Helvetica,sans-Serif" font-size="10.00">src/app/seamly2d/xml</text>
<text text-anchor="middle" x="3547" y="-7.5" font-family="Helvetica,sans-Serif" font-size="10.00">/vpattern.cpp</text>
</a>
</g>
</g>
<!-- Node13&#45;&gt;Node29 -->
<g id="edge34" class="edge">
<title>Node13&#45;&gt;Node29</title>
<path fill="none" stroke="midnightblue" d="M2094.76,-74.11C2123.52,-71.48 2156.77,-68.74 2187,-67 2758.72,-34.07 2906.01,-95.77 3475,-31 3478.04,-30.65 3481.14,-30.25 3484.27,-29.79"/>
<polygon fill="midnightblue" stroke="midnightblue" points="2094.42,-70.63 2084.79,-75.04 2095.07,-77.6 2094.42,-70.63"/>
</g>
</g>
</svg>
