<?xml version="1.0" encoding="UTF-8" standalone="no"?>
<!DOCTYPE svg PUBLIC "-//W3C//DTD SVG 1.1//EN"
 "http://www.w3.org/Graphics/SVG/1.1/DTD/svg11.dtd">
<!-- Generated by graphviz version 2.43.0 (0)
 -->
<!-- Title: src/app/seamly2d/dialogs/abstractlayout_dialog.h Pages: 1 -->
<svg width="4018pt" height="307pt"
 viewBox="0.00 0.00 4017.50 307.00" xmlns="http://www.w3.org/2000/svg" xmlns:xlink="http://www.w3.org/1999/xlink">
<g id="graph0" class="graph" transform="scale(1 1) rotate(0) translate(4 303)">
<title>src/app/seamly2d/dialogs/abstractlayout_dialog.h</title>
<polygon fill="white" stroke="transparent" points="-4,4 -4,-303 4013.5,-303 4013.5,4 -4,4"/>
<!-- Node1 -->
<g id="node1" class="node">
<title>Node1</title>
<g id="a_node1"><a xlink:title=" ">
<polygon fill="#bfbfbf" stroke="black" points="276.5,-268.5 276.5,-298.5 417.5,-298.5 417.5,-268.5 276.5,-268.5"/>
<text text-anchor="start" x="284.5" y="-286.5" font-family="Helvetica,sans-Serif" font-size="10.00">src/app/seamly2d/dialogs</text>
<text text-anchor="middle" x="347" y="-275.5" font-family="Helvetica,sans-Serif" font-size="10.00">/abstractlayout_dialog.h</text>
</a>
</g>
</g>
<!-- Node2 -->
<g id="node2" class="node">
<title>Node2</title>
<g id="a_node2"><a xlink:href="../../dd/db4/abstractlayout__dialog_8cpp.html" target="_top" xlink:title=" ">
<polygon fill="white" stroke="black" points="0,-0.5 0,-30.5 146,-30.5 146,-0.5 0,-0.5"/>
<text text-anchor="start" x="8" y="-18.5" font-family="Helvetica,sans-Serif" font-size="10.00">src/app/seamly2d/dialogs</text>
<text text-anchor="middle" x="73" y="-7.5" font-family="Helvetica,sans-Serif" font-size="10.00">/abstractlayout_dialog.cpp</text>
</a>
</g>
</g>
<!-- Node1&#45;&gt;Node2 -->
<g id="edge1" class="edge">
<title>Node1&#45;&gt;Node2</title>
<path fill="none" stroke="midnightblue" d="M312.15,-263.36C297.57,-254.64 280.83,-243.66 267,-232 187.91,-165.32 110.79,-66.83 83.44,-30.56"/>
<polygon fill="midnightblue" stroke="midnightblue" points="310.51,-266.45 320.91,-268.48 314.05,-260.41 310.51,-266.45"/>
</g>
<!-- Node3 -->
<g id="node3" class="node">
<title>Node3</title>
<g id="a_node3"><a xlink:href="../../d1/d8e/export__layout__dialog_8h.html" target="_top" xlink:title=" ">
<polygon fill="white" stroke="black" points="276.5,-201.5 276.5,-231.5 417.5,-231.5 417.5,-201.5 276.5,-201.5"/>
<text text-anchor="start" x="284.5" y="-219.5" font-family="Helvetica,sans-Serif" font-size="10.00">src/app/seamly2d/dialogs</text>
<text text-anchor="middle" x="347" y="-208.5" font-family="Helvetica,sans-Serif" font-size="10.00">/export_layout_dialog.h</text>
</a>
</g>
</g>
<!-- Node1&#45;&gt;Node3 -->
<g id="edge2" class="edge">
<title>Node1&#45;&gt;Node3</title>
<path fill="none" stroke="midnightblue" d="M347,-258.11C347,-249.15 347,-239.32 347,-231.58"/>
<polygon fill="midnightblue" stroke="midnightblue" points="343.5,-258.4 347,-268.4 350.5,-258.4 343.5,-258.4"/>
</g>
<!-- Node11 -->
<g id="node11" class="node">
<title>Node11</title>
<g id="a_node11"><a xlink:href="../../d3/dd8/layoutsettings__dialog_8h.html" target="_top" xlink:title=" ">
<polygon fill="white" stroke="black" points="1764.5,-201.5 1764.5,-231.5 1905.5,-231.5 1905.5,-201.5 1764.5,-201.5"/>
<text text-anchor="start" x="1772.5" y="-219.5" font-family="Helvetica,sans-Serif" font-size="10.00">src/app/seamly2d/dialogs</text>
<text text-anchor="middle" x="1835" y="-208.5" font-family="Helvetica,sans-Serif" font-size="10.00">/layoutsettings_dialog.h</text>
</a>
</g>
</g>
<!-- Node1&#45;&gt;Node11 -->
<g id="edge11" class="edge">
<title>Node1&#45;&gt;Node11</title>
<path fill="none" stroke="midnightblue" d="M427.99,-278.96C690.75,-267.48 1516.73,-231.4 1764.23,-220.59"/>
<polygon fill="midnightblue" stroke="midnightblue" points="427.61,-275.48 417.77,-279.41 427.91,-282.47 427.61,-275.48"/>
</g>
<!-- Node4 -->
<g id="node4" class="node">
<title>Node4</title>
<g id="a_node4"><a xlink:href="../../dd/d54/export__layout__dialog_8cpp.html" target="_top" xlink:title=" ">
<polygon fill="white" stroke="black" points="403.5,-0.5 403.5,-30.5 546.5,-30.5 546.5,-0.5 403.5,-0.5"/>
<text text-anchor="start" x="411.5" y="-18.5" font-family="Helvetica,sans-Serif" font-size="10.00">src/app/seamly2d/dialogs</text>
<text text-anchor="middle" x="475" y="-7.5" font-family="Helvetica,sans-Serif" font-size="10.00">/export_layout_dialog.cpp</text>
</a>
</g>
</g>
<!-- Node3&#45;&gt;Node4 -->
<g id="edge3" class="edge">
<title>Node3&#45;&gt;Node4</title>
<path fill="none" stroke="midnightblue" d="M349.32,-191.33C351.7,-174.47 356.49,-151.89 366,-134 389.11,-90.51 432.37,-50.99 456.87,-30.74"/>
<polygon fill="midnightblue" stroke="midnightblue" points="345.82,-191.12 348.07,-201.47 352.76,-191.97 345.82,-191.12"/>
</g>
<!-- Node5 -->
<g id="node5" class="node">
<title>Node5</title>
<g id="a_node5"><a xlink:href="../../d8/de8/mainwindowsnogui_8cpp.html" target="_top" xlink:title=" ">
<polygon fill="white" stroke="black" points="164.5,-6 164.5,-25 385.5,-25 385.5,-6 164.5,-6"/>
<text text-anchor="middle" x="275" y="-13" font-family="Helvetica,sans-Serif" font-size="10.00">src/app/seamly2d/mainwindowsnogui.cpp</text>
</a>
</g>
</g>
<!-- Node3&#45;&gt;Node5 -->
<g id="edge4" class="edge">
<title>Node3&#45;&gt;Node5</title>
<path fill="none" stroke="midnightblue" d="M338.33,-191.53C322.29,-147.21 288.7,-54.38 278.21,-25.36"/>
<polygon fill="midnightblue" stroke="midnightblue" points="335.13,-192.98 341.82,-201.19 341.71,-190.59 335.13,-192.98"/>
</g>
<!-- Node6 -->
<g id="node6" class="node">
<title>Node6</title>
<g id="a_node6"><a xlink:href="../../d1/d82/mainwindowsnogui_8h.html" target="_top" xlink:title=" ">
<polygon fill="white" stroke="black" points="375.5,-140 375.5,-159 584.5,-159 584.5,-140 375.5,-140"/>
<text text-anchor="middle" x="480" y="-147" font-family="Helvetica,sans-Serif" font-size="10.00">src/app/seamly2d/mainwindowsnogui.h</text>
</a>
</g>
</g>
<!-- Node3&#45;&gt;Node6 -->
<g id="edge5" class="edge">
<title>Node3&#45;&gt;Node6</title>
<path fill="none" stroke="midnightblue" d="M384.92,-196.97C410.47,-184.48 442.97,-168.6 462.59,-159.01"/>
<polygon fill="midnightblue" stroke="midnightblue" points="383.31,-193.86 375.86,-201.4 386.38,-200.15 383.31,-193.86"/>
</g>
<!-- Node6&#45;&gt;Node5 -->
<g id="edge10" class="edge">
<title>Node6&#45;&gt;Node5</title>
<path fill="none" stroke="midnightblue" d="M458.02,-134.35C415.4,-106.9 322.68,-47.2 288.23,-25.02"/>
<polygon fill="midnightblue" stroke="midnightblue" points="456.25,-137.37 466.55,-139.84 460.04,-131.48 456.25,-137.37"/>
</g>
<!-- Node7 -->
<g id="node7" class="node">
<title>Node7</title>
<g id="a_node7"><a xlink:href="../../d9/d53/mainwindow_8h.html" target="_top" xlink:title=" ">
<polygon fill="white" stroke="black" points="697,-73 697,-92 873,-92 873,-73 697,-73"/>
<text text-anchor="middle" x="785" y="-80" font-family="Helvetica,sans-Serif" font-size="10.00">src/app/seamly2d/mainwindow.h</text>
</a>
</g>
</g>
<!-- Node6&#45;&gt;Node7 -->
<g id="edge6" class="edge">
<title>Node6&#45;&gt;Node7</title>
<path fill="none" stroke="midnightblue" d="M530.19,-137.8C590.21,-125.01 689.48,-103.86 744.72,-92.08"/>
<polygon fill="midnightblue" stroke="midnightblue" points="529.24,-134.43 520.19,-139.94 530.7,-141.27 529.24,-134.43"/>
</g>
<!-- Node8 -->
<g id="node8" class="node">
<title>Node8</title>
<g id="a_node8"><a xlink:href="../../d3/dd8/vapplication_8cpp.html" target="_top" xlink:title=" ">
<polygon fill="white" stroke="black" points="564.5,-0.5 564.5,-30.5 691.5,-30.5 691.5,-0.5 564.5,-0.5"/>
<text text-anchor="start" x="572.5" y="-18.5" font-family="Helvetica,sans-Serif" font-size="10.00">src/app/seamly2d/core</text>
<text text-anchor="middle" x="628" y="-7.5" font-family="Helvetica,sans-Serif" font-size="10.00">/vapplication.cpp</text>
</a>
</g>
</g>
<!-- Node7&#45;&gt;Node8 -->
<g id="edge7" class="edge">
<title>Node7&#45;&gt;Node8</title>
<path fill="none" stroke="midnightblue" d="M754.6,-68.91C728.01,-57.91 689.45,-41.94 661.88,-30.53"/>
<polygon fill="midnightblue" stroke="midnightblue" points="753.57,-72.28 764.15,-72.87 756.25,-65.81 753.57,-72.28"/>
</g>
<!-- Node9 -->
<g id="node9" class="node">
<title>Node9</title>
<g id="a_node9"><a xlink:href="../../dc/d14/app_2seamly2d_2main_8cpp.html" target="_top" xlink:title=" ">
<polygon fill="white" stroke="black" points="709.5,-6 709.5,-25 860.5,-25 860.5,-6 709.5,-6"/>
<text text-anchor="middle" x="785" y="-13" font-family="Helvetica,sans-Serif" font-size="10.00">src/app/seamly2d/main.cpp</text>
</a>
</g>
</g>
<!-- Node7&#45;&gt;Node9 -->
<g id="edge8" class="edge">
<title>Node7&#45;&gt;Node9</title>
<path fill="none" stroke="midnightblue" d="M785,-62.54C785,-50.17 785,-34.62 785,-25.13"/>
<polygon fill="midnightblue" stroke="midnightblue" points="781.5,-62.73 785,-72.73 788.5,-62.73 781.5,-62.73"/>
</g>
<!-- Node10 -->
<g id="node10" class="node">
<title>Node10</title>
<g id="a_node10"><a xlink:href="../../d8/dd9/mainwindow_8cpp.html" target="_top" xlink:title=" ">
<polygon fill="white" stroke="black" points="879,-6 879,-25 1067,-25 1067,-6 879,-6"/>
<text text-anchor="middle" x="973" y="-13" font-family="Helvetica,sans-Serif" font-size="10.00">src/app/seamly2d/mainwindow.cpp</text>
</a>
</g>
</g>
<!-- Node7&#45;&gt;Node10 -->
<g id="edge9" class="edge">
<title>Node7&#45;&gt;Node10</title>
<path fill="none" stroke="midnightblue" d="M819.89,-69.44C857.19,-56.54 915.37,-36.42 948.23,-25.06"/>
<polygon fill="midnightblue" stroke="midnightblue" points="818.27,-66.29 809.96,-72.87 820.56,-72.91 818.27,-66.29"/>
</g>
<!-- Node11&#45;&gt;Node5 -->
<g id="edge40" class="edge">
<title>Node11&#45;&gt;Node5</title>
<path fill="none" stroke="midnightblue" d="M1754.16,-209.81C1566.32,-196.03 1086.02,-157.53 688,-98 548.32,-77.11 384.18,-41.32 312.1,-25.02"/>
<polygon fill="midnightblue" stroke="midnightblue" points="1754.01,-213.31 1764.23,-210.55 1754.52,-206.33 1754.01,-213.31"/>
</g>
<!-- Node12 -->
<g id="node12" class="node">
<title>Node12</title>
<g id="a_node12"><a xlink:href="../../dd/d57/vcmdexport_8h.html" target="_top" xlink:title=" ">
<polygon fill="white" stroke="black" points="1771.5,-134.5 1771.5,-164.5 1898.5,-164.5 1898.5,-134.5 1771.5,-134.5"/>
<text text-anchor="start" x="1779.5" y="-152.5" font-family="Helvetica,sans-Serif" font-size="10.00">src/app/seamly2d/core</text>
<text text-anchor="middle" x="1835" y="-141.5" font-family="Helvetica,sans-Serif" font-size="10.00">/vcmdexport.h</text>
</a>
</g>
</g>
<!-- Node11&#45;&gt;Node12 -->
<g id="edge12" class="edge">
<title>Node11&#45;&gt;Node12</title>
<path fill="none" stroke="midnightblue" d="M1835,-191.11C1835,-182.15 1835,-172.32 1835,-164.58"/>
<polygon fill="midnightblue" stroke="midnightblue" points="1831.5,-191.4 1835,-201.4 1838.5,-191.4 1831.5,-191.4"/>
</g>
<!-- Node26 -->
<g id="node26" class="node">
<title>Node26</title>
<g id="a_node26"><a xlink:href="../../d0/dfa/layoutsettings__dialog_8cpp.html" target="_top" xlink:title=" ">
<polygon fill="white" stroke="black" points="3864.5,-0.5 3864.5,-30.5 4009.5,-30.5 4009.5,-0.5 3864.5,-0.5"/>
<text text-anchor="start" x="3872.5" y="-18.5" font-family="Helvetica,sans-Serif" font-size="10.00">src/app/seamly2d/dialogs</text>
<text text-anchor="middle" x="3937" y="-7.5" font-family="Helvetica,sans-Serif" font-size="10.00">/layoutsettings_dialog.cpp</text>
</a>
</g>
</g>
<!-- Node11&#45;&gt;Node26 -->
<g id="edge39" class="edge">
<title>Node11&#45;&gt;Node26</title>
<path fill="none" stroke="midnightblue" d="M1915.73,-210.64C2189.12,-193.63 3104.92,-132.32 3856,-31 3858.69,-30.64 3861.43,-30.25 3864.19,-29.84"/>
<polygon fill="midnightblue" stroke="midnightblue" points="1915.27,-207.16 1905.5,-211.27 1915.7,-214.15 1915.27,-207.16"/>
</g>
<!-- Node30 -->
<g id="node30" class="node">
<title>Node30</title>
<g id="a_node30"><a xlink:href="../../df/d9b/vcmdexport_8cpp.html" target="_top" xlink:title=" ">
<polygon fill="white" stroke="black" points="1916.5,-67.5 1916.5,-97.5 2043.5,-97.5 2043.5,-67.5 1916.5,-67.5"/>
<text text-anchor="start" x="1924.5" y="-85.5" font-family="Helvetica,sans-Serif" font-size="10.00">src/app/seamly2d/core</text>
<text text-anchor="middle" x="1980" y="-74.5" font-family="Helvetica,sans-Serif" font-size="10.00">/vcmdexport.cpp</text>
</a>
</g>
</g>
<!-- Node11&#45;&gt;Node30 -->
<g id="edge38" class="edge">
<title>Node11&#45;&gt;Node30</title>
<path fill="none" stroke="midnightblue" d="M1866.4,-195.76C1879.47,-186.98 1894.48,-176.12 1907,-165 1931.15,-143.56 1955.42,-114.66 1969,-97.65"/>
<polygon fill="midnightblue" stroke="midnightblue" points="1864.14,-193.06 1857.72,-201.49 1867.99,-198.91 1864.14,-193.06"/>
</g>
<!-- Node12&#45;&gt;Node7 -->
<g id="edge37" class="edge">
<title>Node12&#45;&gt;Node7</title>
<path fill="none" stroke="midnightblue" d="M1761.22,-143.93C1573.06,-132.28 1075.85,-101.51 873.03,-88.95"/>
<polygon fill="midnightblue" stroke="midnightblue" points="1761.09,-147.43 1771.29,-144.56 1761.53,-140.44 1761.09,-147.43"/>
</g>
<!-- Node13 -->
<g id="node13" class="node">
<title>Node13</title>
<g id="a_node13"><a xlink:href="../../d9/d02/vapplication_8h.html" target="_top" xlink:title=" ">
<polygon fill="white" stroke="black" points="1771.5,-67.5 1771.5,-97.5 1898.5,-97.5 1898.5,-67.5 1771.5,-67.5"/>
<text text-anchor="start" x="1779.5" y="-85.5" font-family="Helvetica,sans-Serif" font-size="10.00">src/app/seamly2d/core</text>
<text text-anchor="middle" x="1835" y="-74.5" font-family="Helvetica,sans-Serif" font-size="10.00">/vapplication.h</text>
</a>
</g>
</g>
<!-- Node12&#45;&gt;Node13 -->
<g id="edge13" class="edge">
<title>Node12&#45;&gt;Node13</title>
<path fill="none" stroke="midnightblue" d="M1835,-124.11C1835,-115.15 1835,-105.32 1835,-97.58"/>
<polygon fill="midnightblue" stroke="midnightblue" points="1831.5,-124.4 1835,-134.4 1838.5,-124.4 1831.5,-124.4"/>
</g>
<!-- Node12&#45;&gt;Node30 -->
<g id="edge36" class="edge">
<title>Node12&#45;&gt;Node30</title>
<path fill="none" stroke="midnightblue" d="M1875.67,-130.27C1898.76,-119.92 1927.24,-107.15 1948.6,-97.58"/>
<polygon fill="midnightblue" stroke="midnightblue" points="1874.16,-127.11 1866.46,-134.4 1877.02,-133.5 1874.16,-127.11"/>
</g>
<!-- Node13&#45;&gt;Node2 -->
<g id="edge15" class="edge">
<title>Node13&#45;&gt;Node2</title>
<path fill="none" stroke="midnightblue" d="M1761.38,-80.71C1480.14,-77.46 473.44,-63.77 155,-31 152.12,-30.7 149.2,-30.37 146.24,-29.99"/>
<polygon fill="midnightblue" stroke="midnightblue" points="1761.43,-84.21 1771.47,-80.82 1761.51,-77.21 1761.43,-84.21"/>
</g>
<!-- Node13&#45;&gt;Node4 -->
<g id="edge27" class="edge">
<title>Node13&#45;&gt;Node4</title>
<path fill="none" stroke="midnightblue" d="M1760.94,-82.19C1564.03,-83.24 1011.35,-81.11 555,-31 552.33,-30.71 549.62,-30.38 546.89,-30.02"/>
<polygon fill="midnightblue" stroke="midnightblue" points="1761.19,-85.69 1771.17,-82.13 1761.15,-78.69 1761.19,-85.69"/>
</g>
<!-- Node13&#45;&gt;Node5 -->
<g id="edge33" class="edge">
<title>Node13&#45;&gt;Node5</title>
<path fill="none" stroke="midnightblue" d="M1761.22,-81.16C1548.66,-79.69 916.7,-71.93 394,-31 375.22,-29.53 354.85,-27.29 336.36,-25"/>
<polygon fill="midnightblue" stroke="midnightblue" points="1761.3,-84.66 1771.33,-81.22 1761.35,-77.66 1761.3,-84.66"/>
</g>
<!-- Node13&#45;&gt;Node8 -->
<g id="edge14" class="edge">
<title>Node13&#45;&gt;Node8</title>
<path fill="none" stroke="midnightblue" d="M1761.12,-82.14C1579.69,-82.87 1098.04,-79.64 700,-31 697.22,-30.66 694.38,-30.27 691.52,-29.84"/>
<polygon fill="midnightblue" stroke="midnightblue" points="1761.36,-85.64 1771.34,-82.1 1761.33,-78.64 1761.36,-85.64"/>
</g>
<!-- Node13&#45;&gt;Node9 -->
<g id="edge31" class="edge">
<title>Node13&#45;&gt;Node9</title>
<path fill="none" stroke="midnightblue" d="M1760.95,-80.57C1598.93,-77.88 1201,-67.77 870,-31 856.61,-29.51 842.13,-27.28 828.98,-25.01"/>
<polygon fill="midnightblue" stroke="midnightblue" points="1761.22,-84.07 1771.28,-80.73 1761.34,-77.07 1761.22,-84.07"/>
</g>
<!-- Node13&#45;&gt;Node10 -->
<g id="edge35" class="edge">
<title>Node13&#45;&gt;Node10</title>
<path fill="none" stroke="midnightblue" d="M1761.11,-78.39C1625.22,-72.26 1326.61,-56.94 1076,-31 1060.46,-29.39 1043.67,-27.21 1028.23,-25.04"/>
<polygon fill="midnightblue" stroke="midnightblue" points="1761.25,-81.9 1771.39,-78.85 1761.56,-74.9 1761.25,-81.9"/>
</g>
<!-- Node14 -->
<g id="node14" class="node">
<title>Node14</title>
<g id="a_node14"><a xlink:href="../../d7/dfa/calculator__dialog_8cpp.html" target="_top" xlink:title=" ">
<polygon fill="white" stroke="black" points="2633.5,-0.5 2633.5,-30.5 2774.5,-30.5 2774.5,-0.5 2633.5,-0.5"/>
<text text-anchor="start" x="2641.5" y="-18.5" font-family="Helvetica,sans-Serif" font-size="10.00">src/app/seamly2d/dialogs</text>
<text text-anchor="middle" x="2704" y="-7.5" font-family="Helvetica,sans-Serif" font-size="10.00">/calculator_dialog.cpp</text>
</a>
</g>
</g>
<!-- Node13&#45;&gt;Node14 -->
<g id="edge16" class="edge">
<title>Node13&#45;&gt;Node14</title>
<path fill="none" stroke="midnightblue" d="M1908.44,-66.95C2225.34,-28.21 2310.28,-67.15 2624,-31 2627.08,-30.64 2630.23,-30.24 2633.4,-29.81"/>
<polygon fill="midnightblue" stroke="midnightblue" points="1908.01,-63.47 1898.52,-68.18 1908.87,-70.42 1908.01,-63.47"/>
</g>
<!-- Node15 -->
<g id="node15" class="node">
<title>Node15</title>
<g id="a_node15"><a xlink:href="../../d2/d2d/preferencesconfigurationpage_8cpp.html" target="_top" xlink:title=" ">
<polygon fill="white" stroke="black" points="2792.5,-0.5 2792.5,-30.5 3039.5,-30.5 3039.5,-0.5 2792.5,-0.5"/>
<text text-anchor="start" x="2800.5" y="-18.5" font-family="Helvetica,sans-Serif" font-size="10.00">src/app/seamly2d/dialogs</text>
<text text-anchor="middle" x="2916" y="-7.5" font-family="Helvetica,sans-Serif" font-size="10.00">/configpages/preferencesconfigurationpage.cpp</text>
</a>
</g>
</g>
<!-- Node13&#45;&gt;Node15 -->
<g id="edge17" class="edge">
<title>Node13&#45;&gt;Node15</title>
<path fill="none" stroke="midnightblue" d="M1908.59,-66.94C2295.6,-21.06 2397.75,-59.88 2783,-31 2786.13,-30.77 2789.29,-30.52 2792.49,-30.25"/>
<polygon fill="midnightblue" stroke="midnightblue" points="1908.03,-63.48 1898.52,-68.14 1908.86,-70.43 1908.03,-63.48"/>
</g>
<!-- Node16 -->
<g id="node16" class="node">
<title>Node16</title>
<g id="a_node16"><a xlink:href="../../dc/d20/preferencespathpage_8cpp.html" target="_top" xlink:title=" ">
<polygon fill="white" stroke="black" points="3057.5,-0.5 3057.5,-30.5 3262.5,-30.5 3262.5,-0.5 3057.5,-0.5"/>
<text text-anchor="start" x="3065.5" y="-18.5" font-family="Helvetica,sans-Serif" font-size="10.00">src/app/seamly2d/dialogs</text>
<text text-anchor="middle" x="3160" y="-7.5" font-family="Helvetica,sans-Serif" font-size="10.00">/configpages/preferencespathpage.cpp</text>
</a>
</g>
</g>
<!-- Node13&#45;&gt;Node16 -->
<g id="edge18" class="edge">
<title>Node13&#45;&gt;Node16</title>
<path fill="none" stroke="midnightblue" d="M1908.61,-66.95C2413.19,-9.5 2546.18,-71.67 3049,-31 3051.71,-30.78 3054.46,-30.54 3057.23,-30.29"/>
<polygon fill="midnightblue" stroke="midnightblue" points="1908.05,-63.49 1898.51,-68.11 1908.85,-70.45 1908.05,-63.49"/>
</g>
<!-- Node17 -->
<g id="node17" class="node">
<title>Node17</title>
<g id="a_node17"><a xlink:href="../../d9/d70/preferencesgraphicsviewpage_8cpp.html" target="_top" xlink:title=" ">
<polygon fill="white" stroke="black" points="3280,-0.5 3280,-30.5 3528,-30.5 3528,-0.5 3280,-0.5"/>
<text text-anchor="start" x="3288" y="-18.5" font-family="Helvetica,sans-Serif" font-size="10.00">src/app/seamly2d/dialogs</text>
<text text-anchor="middle" x="3404" y="-7.5" font-family="Helvetica,sans-Serif" font-size="10.00">/configpages/preferencesgraphicsviewpage.cpp</text>
</a>
</g>
</g>
<!-- Node13&#45;&gt;Node17 -->
<g id="edge19" class="edge">
<title>Node13&#45;&gt;Node17</title>
<path fill="none" stroke="midnightblue" d="M1908.77,-66.94C2511.81,0.34 2669.92,-71.94 3272,-31 3274.53,-30.83 3277.09,-30.64 3279.66,-30.45"/>
<polygon fill="midnightblue" stroke="midnightblue" points="1908.06,-63.5 1898.51,-68.09 1908.84,-70.45 1908.06,-63.5"/>
</g>
<!-- Node18 -->
<g id="node18" class="node">
<title>Node18</title>
<g id="a_node18"><a xlink:href="../../dd/dc2/decimalchart__dialog_8cpp.html" target="_top" xlink:title=" ">
<polygon fill="white" stroke="black" points="3546.5,-0.5 3546.5,-30.5 3687.5,-30.5 3687.5,-0.5 3546.5,-0.5"/>
<text text-anchor="start" x="3554.5" y="-18.5" font-family="Helvetica,sans-Serif" font-size="10.00">src/app/seamly2d/dialogs</text>
<text text-anchor="middle" x="3617" y="-7.5" font-family="Helvetica,sans-Serif" font-size="10.00">/decimalchart_dialog.cpp</text>
</a>
</g>
</g>
<!-- Node13&#45;&gt;Node18 -->
<g id="edge20" class="edge">
<title>Node13&#45;&gt;Node18</title>
<path fill="none" stroke="midnightblue" d="M1908.61,-66.96C2628.97,11.76 2819.39,-103.5 3537,-31 3540.09,-30.69 3543.24,-30.32 3546.42,-29.91"/>
<polygon fill="midnightblue" stroke="midnightblue" points="1908.06,-63.5 1898.51,-68.08 1908.83,-70.46 1908.06,-63.5"/>
</g>
<!-- Node19 -->
<g id="node19" class="node">
<title>Node19</title>
<g id="a_node19"><a xlink:href="../../dd/d64/dialogaboutapp_8cpp.html" target="_top" xlink:title=" ">
<polygon fill="white" stroke="black" points="3705.5,-0.5 3705.5,-30.5 3846.5,-30.5 3846.5,-0.5 3705.5,-0.5"/>
<text text-anchor="start" x="3713.5" y="-18.5" font-family="Helvetica,sans-Serif" font-size="10.00">src/app/seamly2d/dialogs</text>
<text text-anchor="middle" x="3776" y="-7.5" font-family="Helvetica,sans-Serif" font-size="10.00">/dialogaboutapp.cpp</text>
</a>
</g>
</g>
<!-- Node13&#45;&gt;Node19 -->
<g id="edge21" class="edge">
<title>Node13&#45;&gt;Node19</title>
<path fill="none" stroke="midnightblue" d="M1908.72,-66.96C2699.74,18.78 2908.71,-110.74 3697,-31 3699.77,-30.72 3702.6,-30.39 3705.45,-30.03"/>
<polygon fill="midnightblue" stroke="midnightblue" points="1908.07,-63.51 1898.51,-68.07 1908.83,-70.46 1908.07,-63.51"/>
</g>
<!-- Node20 -->
<g id="node20" class="node">
<title>Node20</title>
<g id="a_node20"><a xlink:href="../../d6/d89/dialoglayoutprogress_8cpp.html" target="_top" xlink:title=" ">
<polygon fill="white" stroke="black" points="1085.5,-0.5 1085.5,-30.5 1228.5,-30.5 1228.5,-0.5 1085.5,-0.5"/>
<text text-anchor="start" x="1093.5" y="-18.5" font-family="Helvetica,sans-Serif" font-size="10.00">src/app/seamly2d/dialogs</text>
<text text-anchor="middle" x="1157" y="-7.5" font-family="Helvetica,sans-Serif" font-size="10.00">/dialoglayoutprogress.cpp</text>
</a>
</g>
</g>
<!-- Node13&#45;&gt;Node20 -->
<g id="edge22" class="edge">
<title>Node13&#45;&gt;Node20</title>
<path fill="none" stroke="midnightblue" d="M1760.91,-77.45C1647.82,-70.77 1425.51,-55.66 1238,-31 1235.03,-30.61 1231.99,-30.18 1228.93,-29.73"/>
<polygon fill="midnightblue" stroke="midnightblue" points="1760.99,-80.96 1771.18,-78.05 1761.4,-73.97 1760.99,-80.96"/>
</g>
<!-- Node21 -->
<g id="node21" class="node">
<title>Node21</title>
<g id="a_node21"><a xlink:href="../../dc/d63/preferencespatternpage_8cpp.html" target="_top" xlink:title=" ">
<polygon fill="white" stroke="black" points="1247,-0.5 1247,-30.5 1465,-30.5 1465,-0.5 1247,-0.5"/>
<text text-anchor="start" x="1255" y="-18.5" font-family="Helvetica,sans-Serif" font-size="10.00">src/app/seamly2d/dialogs</text>
<text text-anchor="middle" x="1356" y="-7.5" font-family="Helvetica,sans-Serif" font-size="10.00">/configpages/preferencespatternpage.cpp</text>
</a>
</g>
</g>
<!-- Node13&#45;&gt;Node21 -->
<g id="edge23" class="edge">
<title>Node13&#45;&gt;Node21</title>
<path fill="none" stroke="midnightblue" d="M1761.31,-71.5C1680.53,-60.54 1550.34,-42.87 1459.38,-30.53"/>
<polygon fill="midnightblue" stroke="midnightblue" points="1761.01,-74.99 1771.39,-72.87 1761.95,-68.06 1761.01,-74.99"/>
</g>
<!-- Node22 -->
<g id="node22" class="node">
<title>Node22</title>
<g id="a_node22"><a xlink:href="../../d2/d00/vtooloptionspropertybrowser_8cpp.html" target="_top" xlink:title=" ">
<polygon fill="white" stroke="black" points="1483,-0.5 1483,-30.5 1663,-30.5 1663,-0.5 1483,-0.5"/>
<text text-anchor="start" x="1491" y="-18.5" font-family="Helvetica,sans-Serif" font-size="10.00">src/app/seamly2d/core</text>
<text text-anchor="middle" x="1573" y="-7.5" font-family="Helvetica,sans-Serif" font-size="10.00">/vtooloptionspropertybrowser.cpp</text>
</a>
</g>
</g>
<!-- Node13&#45;&gt;Node22 -->
<g id="edge24" class="edge">
<title>Node13&#45;&gt;Node22</title>
<path fill="none" stroke="midnightblue" d="M1768.7,-65.05C1725.87,-54.43 1670.71,-40.74 1629.88,-30.61"/>
<polygon fill="midnightblue" stroke="midnightblue" points="1767.92,-68.47 1778.47,-67.48 1769.61,-61.67 1767.92,-68.47"/>
</g>
<!-- Node23 -->
<g id="node23" class="node">
<title>Node23</title>
<g id="a_node23"><a xlink:href="../../d5/dc5/dialogpreferences_8cpp.html" target="_top" xlink:title=" ">
<polygon fill="white" stroke="black" points="1681.5,-0.5 1681.5,-30.5 1822.5,-30.5 1822.5,-0.5 1681.5,-0.5"/>
<text text-anchor="start" x="1689.5" y="-18.5" font-family="Helvetica,sans-Serif" font-size="10.00">src/app/seamly2d/dialogs</text>
<text text-anchor="middle" x="1752" y="-7.5" font-family="Helvetica,sans-Serif" font-size="10.00">/dialogpreferences.cpp</text>
</a>
</g>
</g>
<!-- Node13&#45;&gt;Node23 -->
<g id="edge25" class="edge">
<title>Node13&#45;&gt;Node23</title>
<path fill="none" stroke="midnightblue" d="M1809.04,-61.17C1796.35,-51.23 1781.39,-39.51 1769.97,-30.58"/>
<polygon fill="midnightblue" stroke="midnightblue" points="1806.96,-63.99 1816.99,-67.4 1811.28,-58.47 1806.96,-63.99"/>
</g>
<!-- Node24 -->
<g id="node24" class="node">
<title>Node24</title>
<g id="a_node24"><a xlink:href="../../d5/d18/dialogpatternproperties_8cpp.html" target="_top" xlink:title=" ">
<polygon fill="white" stroke="black" points="1840.5,-0.5 1840.5,-30.5 1995.5,-30.5 1995.5,-0.5 1840.5,-0.5"/>
<text text-anchor="start" x="1848.5" y="-18.5" font-family="Helvetica,sans-Serif" font-size="10.00">src/app/seamly2d/dialogs</text>
<text text-anchor="middle" x="1918" y="-7.5" font-family="Helvetica,sans-Serif" font-size="10.00">/dialogpatternproperties.cpp</text>
</a>
</g>
</g>
<!-- Node13&#45;&gt;Node24 -->
<g id="edge26" class="edge">
<title>Node13&#45;&gt;Node24</title>
<path fill="none" stroke="midnightblue" d="M1860.96,-61.17C1873.65,-51.23 1888.61,-39.51 1900.03,-30.58"/>
<polygon fill="midnightblue" stroke="midnightblue" points="1858.72,-58.47 1853.01,-67.4 1863.04,-63.99 1858.72,-58.47"/>
</g>
<!-- Node25 -->
<g id="node25" class="node">
<title>Node25</title>
<g id="a_node25"><a xlink:href="../../db/d5c/groups__widget_8cpp.html" target="_top" xlink:title=" ">
<polygon fill="white" stroke="black" points="2013.5,-0.5 2013.5,-30.5 2154.5,-30.5 2154.5,-0.5 2013.5,-0.5"/>
<text text-anchor="start" x="2021.5" y="-18.5" font-family="Helvetica,sans-Serif" font-size="10.00">src/app/seamly2d/dialogs</text>
<text text-anchor="middle" x="2084" y="-7.5" font-family="Helvetica,sans-Serif" font-size="10.00">/groups_widget.cpp</text>
</a>
</g>
</g>
<!-- Node13&#45;&gt;Node25 -->
<g id="edge28" class="edge">
<title>Node13&#45;&gt;Node25</title>
<path fill="none" stroke="midnightblue" d="M1898.53,-64.92C1939.16,-54.31 1991.3,-40.7 2029.94,-30.61"/>
<polygon fill="midnightblue" stroke="midnightblue" points="1897.51,-61.56 1888.72,-67.48 1899.28,-68.34 1897.51,-61.56"/>
</g>
<!-- Node13&#45;&gt;Node26 -->
<g id="edge29" class="edge">
<title>Node13&#45;&gt;Node26</title>
<path fill="none" stroke="midnightblue" d="M1908.67,-66.96C2770.04,25.79 2997.14,-115.27 3856,-31 3858.7,-30.73 3861.45,-30.43 3864.22,-30.09"/>
<polygon fill="midnightblue" stroke="midnightblue" points="1908.07,-63.51 1898.51,-68.06 1908.83,-70.47 1908.07,-63.51"/>
</g>
<!-- Node27 -->
<g id="node27" class="node">
<title>Node27</title>
<g id="a_node27"><a xlink:href="../../d2/df4/show__info__dialog_8cpp.html" target="_top" xlink:title=" ">
<polygon fill="white" stroke="black" points="2172.5,-0.5 2172.5,-30.5 2313.5,-30.5 2313.5,-0.5 2172.5,-0.5"/>
<text text-anchor="start" x="2180.5" y="-18.5" font-family="Helvetica,sans-Serif" font-size="10.00">src/app/seamly2d/dialogs</text>
<text text-anchor="middle" x="2243" y="-7.5" font-family="Helvetica,sans-Serif" font-size="10.00">/show_info_dialog.cpp</text>
</a>
</g>
</g>
<!-- Node13&#45;&gt;Node27 -->
<g id="edge30" class="edge">
<title>Node13&#45;&gt;Node27</title>
<path fill="none" stroke="midnightblue" d="M1908.69,-66.77C2021.98,-47.72 2052.77,-48.73 2163,-31 2166.07,-30.51 2169.2,-29.99 2172.36,-29.46"/>
<polygon fill="midnightblue" stroke="midnightblue" points="1907.84,-63.36 1898.57,-68.49 1909.01,-70.26 1907.84,-63.36"/>
</g>
<!-- Node28 -->
<g id="node28" class="node">
<title>Node28</title>
<g id="a_node28"><a xlink:href="../../dd/d84/shortcuts__dialog_8cpp.html" target="_top" xlink:title=" ">
<polygon fill="white" stroke="black" points="2331.5,-0.5 2331.5,-30.5 2472.5,-30.5 2472.5,-0.5 2331.5,-0.5"/>
<text text-anchor="start" x="2339.5" y="-18.5" font-family="Helvetica,sans-Serif" font-size="10.00">src/app/seamly2d/dialogs</text>
<text text-anchor="middle" x="2402" y="-7.5" font-family="Helvetica,sans-Serif" font-size="10.00">/shortcuts_dialog.cpp</text>
</a>
</g>
</g>
<!-- Node13&#45;&gt;Node28 -->
<g id="edge32" class="edge">
<title>Node13&#45;&gt;Node28</title>
<path fill="none" stroke="midnightblue" d="M1908.52,-66.88C2091.99,-41.19 2141.72,-55.1 2322,-31 2325.08,-30.59 2328.22,-30.14 2331.39,-29.67"/>
<polygon fill="midnightblue" stroke="midnightblue" points="1907.94,-63.43 1898.54,-68.3 1908.93,-70.36 1907.94,-63.43"/>
</g>
<!-- Node29 -->
<g id="node29" class="node">
<title>Node29</title>
<g id="a_node29"><a xlink:href="../../d3/d49/vpattern_8cpp.html" target="_top" xlink:title=" ">
<polygon fill="white" stroke="black" points="2490.5,-0.5 2490.5,-30.5 2615.5,-30.5 2615.5,-0.5 2490.5,-0.5"/>
<text text-anchor="start" x="2498.5" y="-18.5" font-family="Helvetica,sans-Serif" font-size="10.00">src/app/seamly2d/xml</text>
<text text-anchor="middle" x="2553" y="-7.5" font-family="Helvetica,sans-Serif" font-size="10.00">/vpattern.cpp</text>
</a>
</g>
</g>
<!-- Node13&#45;&gt;Node29 -->
<g id="edge34" class="edge">
<title>Node13&#45;&gt;Node29</title>
<path fill="none" stroke="midnightblue" d="M1908.78,-66.89C2162.24,-34.49 2230.91,-63.87 2481,-31 2484.03,-30.6 2487.13,-30.15 2490.26,-29.66"/>
<polygon fill="midnightblue" stroke="midnightblue" points="1907.99,-63.46 1898.52,-68.22 1908.89,-70.4 1907.99,-63.46"/>
</g>
</g>
</svg>
