<?xml version="1.0" encoding="UTF-8" standalone="no"?>
<!DOCTYPE svg PUBLIC "-//W3C//DTD SVG 1.1//EN"
 "http://www.w3.org/Graphics/SVG/1.1/DTD/svg11.dtd">
<!-- Generated by graphviz version 2.43.0 (0)
 -->
<!-- Title: src/app/seamly2d/dialogs/abstractlayout_dialog.h Pages: 1 -->
<!--zoomable 307 -->
<svg id="main" version="1.1" xmlns="http://www.w3.org/2000/svg" xmlns:xlink="http://www.w3.org/1999/xlink" xml:space="preserve" onload="init(evt)">
<style type="text/css"><![CDATA[
.edge:hover path { stroke: red; }
.edge:hover polygon { stroke: red; fill: red; }
]]></style>
<script type="text/javascript"><![CDATA[
var edges = document.getElementsByTagName('g');
if (edges && edges.length) {
  for (var i=0;i<edges.length;i++) {
    if (edges[i].id.substr(0,4)=='edge') {
      edges[i].setAttribute('class','edge');
    }
  }
}
]]></script>
        <defs>
                <circle id="rim" cx="0" cy="0" r="7"/>
                <circle id="rim2" cx="0" cy="0" r="3.5"/>
                <g id="zoomPlus">
                        <use xlink:href="#rim" fill="#404040">
                                <set attributeName="fill" to="#808080" begin="zoomplus.mouseover" end="zoomplus.mouseout"/>
                        </use>
                        <path d="M-4,0h8M0,-4v8" fill="none" stroke="white" stroke-width="1.5" pointer-events="none"/>
                </g>
                <g id="zoomMin">
                        <use xlink:href="#rim" fill="#404040">
                                <set attributeName="fill" to="#808080" begin="zoomminus.mouseover" end="zoomminus.mouseout"/>
                        </use>
                        <path d="M-4,0h8" fill="none" stroke="white" stroke-width="1.5" pointer-events="none"/>
                </g>
                <g id="dirArrow">
                        <path fill="none" stroke="white" stroke-width="1.5" d="M0,-3.0v7 M-2.5,-0.5L0,-3.0L2.5,-0.5"/>
                </g>
               <g id="resetDef">
                       <use xlink:href="#rim2" fill="#404040">
                               <set attributeName="fill" to="#808080" begin="reset.mouseover" end="reset.mouseout"/>
                       </use>
               </g>
        </defs>

<script type="text/javascript">
var viewWidth = 4018;
var viewHeight = 307;
var sectionId = 'dynsection-1';
</script>
<script xlink:href="../../svgpan.js"/>
<svg id="graph" class="graph">
<g id="viewport">
<title>src/app/seamly2d/dialogs/abstractlayout_dialog.h</title>
<polygon fill="white" stroke="transparent" points="-4,4 -4,-303 4013.5,-303 4013.5,4 -4,4"/>
<!-- Node1 -->
<g id="node1" class="node">
<title>Node1</title>
<g id="a_node1"><a xlink:title=" ">
<polygon fill="#bfbfbf" stroke="black" points="2223.5,-268.5 2223.5,-298.5 2364.5,-298.5 2364.5,-268.5 2223.5,-268.5"/>
<text text-anchor="start" x="2231.5" y="-286.5" font-family="Helvetica,sans-Serif" font-size="10.00">src/app/seamly2d/dialogs</text>
<text text-anchor="middle" x="2294" y="-275.5" font-family="Helvetica,sans-Serif" font-size="10.00">/abstractlayout_dialog.h</text>
</a>
</g>
</g>
<!-- Node2 -->
<g id="node2" class="node">
<title>Node2</title>
<g id="a_node2"><a xlink:href="../../dd/db4/abstractlayout__dialog_8cpp.html" target="_top" xlink:title=" ">
<polygon fill="white" stroke="black" points="0,-0.5 0,-30.5 146,-30.5 146,-0.5 0,-0.5"/>
<text text-anchor="start" x="8" y="-18.5" font-family="Helvetica,sans-Serif" font-size="10.00">src/app/seamly2d/dialogs</text>
<text text-anchor="middle" x="73" y="-7.5" font-family="Helvetica,sans-Serif" font-size="10.00">/abstractlayout_dialog.cpp</text>
</a>
</g>
</g>
<!-- Node1&#45;&gt;Node2 -->
<g id="edge1" class="edge">
<title>Node1&#45;&gt;Node2</title>
<path fill="none" stroke="midnightblue" d="M2213.11,-278.45C1955.5,-264.68 1131.78,-213.95 460,-98 343.45,-77.88 208.54,-47.94 132.74,-30.5"/>
<polygon fill="midnightblue" stroke="midnightblue" points="2212.96,-281.95 2223.13,-278.98 2213.33,-274.96 2212.96,-281.95"/>
</g>
<!-- Node3 -->
<g id="node3" class="node">
<title>Node3</title>
<g id="a_node3"><a xlink:href="../../d1/d8e/export__layout__dialog_8h.html" target="_top" xlink:title=" ">
<polygon fill="white" stroke="black" points="2223.5,-201.5 2223.5,-231.5 2364.5,-231.5 2364.5,-201.5 2223.5,-201.5"/>
<text text-anchor="start" x="2231.5" y="-219.5" font-family="Helvetica,sans-Serif" font-size="10.00">src/app/seamly2d/dialogs</text>
<text text-anchor="middle" x="2294" y="-208.5" font-family="Helvetica,sans-Serif" font-size="10.00">/export_layout_dialog.h</text>
</a>
</g>
</g>
<!-- Node1&#45;&gt;Node3 -->
<g id="edge2" class="edge">
<title>Node1&#45;&gt;Node3</title>
<path fill="none" stroke="midnightblue" d="M2294,-258.11C2294,-249.15 2294,-239.32 2294,-231.58"/>
<polygon fill="midnightblue" stroke="midnightblue" points="2290.5,-258.4 2294,-268.4 2297.5,-258.4 2290.5,-258.4"/>
</g>
<!-- Node11 -->
<g id="node11" class="node">
<title>Node11</title>
<g id="a_node11"><a xlink:href="../../d3/dd8/layoutsettings__dialog_8h.html" target="_top" xlink:title=" ">
<polygon fill="white" stroke="black" points="2382.5,-201.5 2382.5,-231.5 2523.5,-231.5 2523.5,-201.5 2382.5,-201.5"/>
<text text-anchor="start" x="2390.5" y="-219.5" font-family="Helvetica,sans-Serif" font-size="10.00">src/app/seamly2d/dialogs</text>
<text text-anchor="middle" x="2453" y="-208.5" font-family="Helvetica,sans-Serif" font-size="10.00">/layoutsettings_dialog.h</text>
</a>
</g>
</g>
<!-- Node1&#45;&gt;Node11 -->
<g id="edge11" class="edge">
<title>Node1&#45;&gt;Node11</title>
<path fill="none" stroke="midnightblue" d="M2337.92,-264.54C2363.37,-254.14 2394.93,-241.24 2418.57,-231.58"/>
<polygon fill="midnightblue" stroke="midnightblue" points="2336.43,-261.37 2328.5,-268.4 2339.08,-267.85 2336.43,-261.37"/>
</g>
<!-- Node4 -->
<g id="node4" class="node">
<title>Node4</title>
<g id="a_node4"><a xlink:href="../../dd/d54/export__layout__dialog_8cpp.html" target="_top" xlink:title=" ">
<polygon fill="white" stroke="black" points="164.5,-0.5 164.5,-30.5 307.5,-30.5 307.5,-0.5 164.5,-0.5"/>
<text text-anchor="start" x="172.5" y="-18.5" font-family="Helvetica,sans-Serif" font-size="10.00">src/app/seamly2d/dialogs</text>
<text text-anchor="middle" x="236" y="-7.5" font-family="Helvetica,sans-Serif" font-size="10.00">/export_layout_dialog.cpp</text>
</a>
</g>
</g>
<!-- Node3&#45;&gt;Node4 -->
<g id="edge3" class="edge">
<title>Node3&#45;&gt;Node4</title>
<path fill="none" stroke="midnightblue" d="M2213.34,-213.49C1972.7,-206.68 1239.13,-180.19 637,-98 513.29,-81.12 370.44,-49 293.04,-30.53"/>
<polygon fill="midnightblue" stroke="midnightblue" points="2213.31,-216.99 2223.41,-213.77 2213.51,-209.99 2213.31,-216.99"/>
</g>
<!-- Node5 -->
<g id="node5" class="node">
<title>Node5</title>
<g id="a_node5"><a xlink:href="../../d1/d82/mainwindowsnogui_8h.html" target="_top" xlink:title=" ">
<polygon fill="white" stroke="black" points="2196.5,-140 2196.5,-159 2405.5,-159 2405.5,-140 2196.5,-140"/>
<text text-anchor="middle" x="2301" y="-147" font-family="Helvetica,sans-Serif" font-size="10.00">src/app/seamly2d/mainwindowsnogui.h</text>
</a>
</g>
</g>
<!-- Node3&#45;&gt;Node5 -->
<g id="edge4" class="edge">
<title>Node3&#45;&gt;Node5</title>
<path fill="none" stroke="midnightblue" d="M2296.61,-191.25C2297.82,-180.02 2299.18,-167.38 2300.06,-159.19"/>
<polygon fill="midnightblue" stroke="midnightblue" points="2293.11,-191.08 2295.52,-201.4 2300.07,-191.83 2293.11,-191.08"/>
</g>
<!-- Node10 -->
<g id="node10" class="node">
<title>Node10</title>
<g id="a_node10"><a xlink:href="../../d8/de8/mainwindowsnogui_8cpp.html" target="_top" xlink:title=" ">
<polygon fill="white" stroke="black" points="3625.5,-6 3625.5,-25 3846.5,-25 3846.5,-6 3625.5,-6"/>
<text text-anchor="middle" x="3736" y="-13" font-family="Helvetica,sans-Serif" font-size="10.00">src/app/seamly2d/mainwindowsnogui.cpp</text>
</a>
</g>
</g>
<!-- Node3&#45;&gt;Node10 -->
<g id="edge10" class="edge">
<title>Node3&#45;&gt;Node10</title>
<path fill="none" stroke="midnightblue" d="M2374.54,-200.8C2648.84,-157.61 3435.96,-55.28 3669.78,-25.04"/>
<polygon fill="midnightblue" stroke="midnightblue" points="2373.94,-197.35 2364.61,-202.37 2375.03,-204.26 2373.94,-197.35"/>
</g>
<!-- Node6 -->
<g id="node6" class="node">
<title>Node6</title>
<g id="a_node6"><a xlink:href="../../d9/d53/mainwindow_8h.html" target="_top" xlink:title=" ">
<polygon fill="white" stroke="black" points="646,-73 646,-92 822,-92 822,-73 646,-73"/>
<text text-anchor="middle" x="734" y="-80" font-family="Helvetica,sans-Serif" font-size="10.00">src/app/seamly2d/mainwindow.h</text>
</a>
</g>
</g>
<!-- Node5&#45;&gt;Node6 -->
<g id="edge5" class="edge">
<title>Node5&#45;&gt;Node6</title>
<path fill="none" stroke="midnightblue" d="M2232.1,-138.7C2217.25,-136.88 2201.62,-135.18 2187,-134 1670.93,-92.3 1049.01,-85 822.2,-83.75"/>
<polygon fill="midnightblue" stroke="midnightblue" points="2231.87,-142.2 2242.23,-139.98 2232.75,-135.26 2231.87,-142.2"/>
</g>
<!-- Node5&#45;&gt;Node10 -->
<g id="edge9" class="edge">
<title>Node5&#45;&gt;Node10</title>
<path fill="none" stroke="midnightblue" d="M2369.86,-138.54C2490.55,-121.43 2748.28,-86.43 2967,-67 3254.75,-41.44 3328.23,-56.34 3616,-31 3634.19,-29.4 3653.87,-27.21 3671.94,-25.02"/>
<polygon fill="midnightblue" stroke="midnightblue" points="2369.07,-135.12 2359.66,-139.99 2370.05,-142.05 2369.07,-135.12"/>
</g>
<!-- Node7 -->
<g id="node7" class="node">
<title>Node7</title>
<g id="a_node7"><a xlink:href="../../d3/dd8/vapplication_8cpp.html" target="_top" xlink:title=" ">
<polygon fill="white" stroke="black" points="325.5,-0.5 325.5,-30.5 452.5,-30.5 452.5,-0.5 325.5,-0.5"/>
<text text-anchor="start" x="333.5" y="-18.5" font-family="Helvetica,sans-Serif" font-size="10.00">src/app/seamly2d/core</text>
<text text-anchor="middle" x="389" y="-7.5" font-family="Helvetica,sans-Serif" font-size="10.00">/vapplication.cpp</text>
</a>
</g>
</g>
<!-- Node6&#45;&gt;Node7 -->
<g id="edge6" class="edge">
<title>Node6&#45;&gt;Node7</title>
<path fill="none" stroke="midnightblue" d="M676.66,-71.16C621.38,-61.14 535.4,-45.37 461,-31 458.25,-30.47 455.43,-29.92 452.59,-29.36"/>
<polygon fill="midnightblue" stroke="midnightblue" points="676.15,-74.63 686.61,-72.97 677.4,-67.74 676.15,-74.63"/>
</g>
<!-- Node8 -->
<g id="node8" class="node">
<title>Node8</title>
<g id="a_node8"><a xlink:href="../../dc/d14/app_2seamly2d_2main_8cpp.html" target="_top" xlink:title=" ">
<polygon fill="white" stroke="black" points="470.5,-6 470.5,-25 621.5,-25 621.5,-6 470.5,-6"/>
<text text-anchor="middle" x="546" y="-13" font-family="Helvetica,sans-Serif" font-size="10.00">src/app/seamly2d/main.cpp</text>
</a>
</g>
</g>
<!-- Node6&#45;&gt;Node8 -->
<g id="edge7" class="edge">
<title>Node6&#45;&gt;Node8</title>
<path fill="none" stroke="midnightblue" d="M699.11,-69.44C661.81,-56.54 603.63,-36.42 570.77,-25.06"/>
<polygon fill="midnightblue" stroke="midnightblue" points="698.44,-72.91 709.04,-72.87 700.73,-66.29 698.44,-72.91"/>
</g>
<!-- Node9 -->
<g id="node9" class="node">
<title>Node9</title>
<g id="a_node9"><a xlink:href="../../d8/dd9/mainwindow_8cpp.html" target="_top" xlink:title=" ">
<polygon fill="white" stroke="black" points="640,-6 640,-25 828,-25 828,-6 640,-6"/>
<text text-anchor="middle" x="734" y="-13" font-family="Helvetica,sans-Serif" font-size="10.00">src/app/seamly2d/mainwindow.cpp</text>
</a>
</g>
</g>
<!-- Node6&#45;&gt;Node9 -->
<g id="edge8" class="edge">
<title>Node6&#45;&gt;Node9</title>
<path fill="none" stroke="midnightblue" d="M734,-62.54C734,-50.17 734,-34.62 734,-25.13"/>
<polygon fill="midnightblue" stroke="midnightblue" points="730.5,-62.73 734,-72.73 737.5,-62.73 730.5,-62.73"/>
</g>
<!-- Node11&#45;&gt;Node10 -->
<g id="edge40" class="edge">
<title>Node11&#45;&gt;Node10</title>
<path fill="none" stroke="midnightblue" d="M2533.88,-210.62C2640.08,-203.61 2832.17,-188.83 2995,-165 3268.6,-124.95 3593.92,-50.2 3700.37,-25.02"/>
<polygon fill="midnightblue" stroke="midnightblue" points="2533.62,-207.13 2523.87,-211.28 2534.08,-214.12 2533.62,-207.13"/>
</g>
<!-- Node12 -->
<g id="node12" class="node">
<title>Node12</title>
<g id="a_node12"><a xlink:href="../../dd/d57/vcmdexport_8h.html" target="_top" xlink:title=" ">
<polygon fill="white" stroke="black" points="2051.5,-134.5 2051.5,-164.5 2178.5,-164.5 2178.5,-134.5 2051.5,-134.5"/>
<text text-anchor="start" x="2059.5" y="-152.5" font-family="Helvetica,sans-Serif" font-size="10.00">src/app/seamly2d/core</text>
<text text-anchor="middle" x="2115" y="-141.5" font-family="Helvetica,sans-Serif" font-size="10.00">/vcmdexport.h</text>
</a>
</g>
</g>
<!-- Node11&#45;&gt;Node12 -->
<g id="edge12" class="edge">
<title>Node11&#45;&gt;Node12</title>
<path fill="none" stroke="midnightblue" d="M2372.42,-200.44C2319.65,-190.52 2249.19,-177.17 2187,-165 2184.25,-164.46 2181.44,-163.91 2178.6,-163.35"/>
<polygon fill="midnightblue" stroke="midnightblue" points="2371.92,-203.91 2382.39,-202.32 2373.21,-197.03 2371.92,-203.91"/>
</g>
<!-- Node26 -->
<g id="node26" class="node">
<title>Node26</title>
<g id="a_node26"><a xlink:href="../../d0/dfa/layoutsettings__dialog_8cpp.html" target="_top" xlink:title=" ">
<polygon fill="white" stroke="black" points="3864.5,-0.5 3864.5,-30.5 4009.5,-30.5 4009.5,-0.5 3864.5,-0.5"/>
<text text-anchor="start" x="3872.5" y="-18.5" font-family="Helvetica,sans-Serif" font-size="10.00">src/app/seamly2d/dialogs</text>
<text text-anchor="middle" x="3937" y="-7.5" font-family="Helvetica,sans-Serif" font-size="10.00">/layoutsettings_dialog.cpp</text>
</a>
</g>
</g>
<!-- Node11&#45;&gt;Node26 -->
<g id="edge39" class="edge">
<title>Node11&#45;&gt;Node26</title>
<path fill="none" stroke="midnightblue" d="M2533.78,-211.67C2656.02,-205.32 2895.19,-190.67 3097,-165 3436.81,-121.78 3518.74,-90.96 3856,-31 3858.67,-30.52 3861.39,-30.04 3864.14,-29.55"/>
<polygon fill="midnightblue" stroke="midnightblue" points="2533.55,-208.18 2523.75,-212.19 2533.91,-215.17 2533.55,-208.18"/>
</g>
<!-- Node30 -->
<g id="node30" class="node">
<title>Node30</title>
<g id="a_node30"><a xlink:href="../../df/d9b/vcmdexport_8cpp.html" target="_top" xlink:title=" ">
<polygon fill="white" stroke="black" points="2290.5,-67.5 2290.5,-97.5 2417.5,-97.5 2417.5,-67.5 2290.5,-67.5"/>
<text text-anchor="start" x="2298.5" y="-85.5" font-family="Helvetica,sans-Serif" font-size="10.00">src/app/seamly2d/core</text>
<text text-anchor="middle" x="2354" y="-74.5" font-family="Helvetica,sans-Serif" font-size="10.00">/vcmdexport.cpp</text>
</a>
</g>
</g>
<!-- Node11&#45;&gt;Node30 -->
<g id="edge38" class="edge">
<title>Node11&#45;&gt;Node30</title>
<path fill="none" stroke="midnightblue" d="M2444.63,-191.45C2437.96,-174.37 2427.52,-151.46 2414,-134 2403,-119.79 2387.39,-106.81 2374.85,-97.56"/>
<polygon fill="midnightblue" stroke="midnightblue" points="2441.5,-193.08 2448.28,-201.23 2448.06,-190.63 2441.5,-193.08"/>
</g>
<!-- Node12&#45;&gt;Node6 -->
<g id="edge37" class="edge">
<title>Node12&#45;&gt;Node6</title>
<path fill="none" stroke="midnightblue" d="M2041.01,-145.02C1805.91,-133.95 1076.55,-99.62 822.41,-87.66"/>
<polygon fill="midnightblue" stroke="midnightblue" points="2041.01,-148.52 2051.16,-145.5 2041.34,-141.53 2041.01,-148.52"/>
</g>
<!-- Node13 -->
<g id="node13" class="node">
<title>Node13</title>
<g id="a_node13"><a xlink:href="../../d9/d02/vapplication_8h.html" target="_top" xlink:title=" ">
<polygon fill="white" stroke="black" points="2051.5,-67.5 2051.5,-97.5 2178.5,-97.5 2178.5,-67.5 2051.5,-67.5"/>
<text text-anchor="start" x="2059.5" y="-85.5" font-family="Helvetica,sans-Serif" font-size="10.00">src/app/seamly2d/core</text>
<text text-anchor="middle" x="2115" y="-74.5" font-family="Helvetica,sans-Serif" font-size="10.00">/vapplication.h</text>
</a>
</g>
</g>
<!-- Node12&#45;&gt;Node13 -->
<g id="edge13" class="edge">
<title>Node12&#45;&gt;Node13</title>
<path fill="none" stroke="midnightblue" d="M2115,-124.11C2115,-115.15 2115,-105.32 2115,-97.58"/>
<polygon fill="midnightblue" stroke="midnightblue" points="2111.5,-124.4 2115,-134.4 2118.5,-124.4 2111.5,-124.4"/>
</g>
<!-- Node12&#45;&gt;Node30 -->
<g id="edge36" class="edge">
<title>Node12&#45;&gt;Node30</title>
<path fill="none" stroke="midnightblue" d="M2176.22,-131.85C2215.19,-121.25 2265.1,-107.68 2302.12,-97.61"/>
<polygon fill="midnightblue" stroke="midnightblue" points="2175.3,-128.47 2166.57,-134.48 2177.13,-135.23 2175.3,-128.47"/>
</g>
<!-- Node13&#45;&gt;Node2 -->
<g id="edge15" class="edge">
<title>Node13&#45;&gt;Node2</title>
<path fill="none" stroke="midnightblue" d="M2040.79,-81.07C1729.91,-79.04 531.1,-68.88 155,-31 152.12,-30.71 149.2,-30.38 146.24,-30.01"/>
<polygon fill="midnightblue" stroke="midnightblue" points="2041.01,-84.57 2051.04,-81.14 2041.06,-77.57 2041.01,-84.57"/>
</g>
<!-- Node13&#45;&gt;Node4 -->
<g id="edge27" class="edge">
<title>Node13&#45;&gt;Node4</title>
<path fill="none" stroke="midnightblue" d="M2041.11,-80.92C1747,-78.37 658.83,-66.67 316,-31 313.33,-30.72 310.62,-30.41 307.88,-30.06"/>
<polygon fill="midnightblue" stroke="midnightblue" points="2041.21,-84.42 2051.24,-81 2041.27,-77.42 2041.21,-84.42"/>
</g>
<!-- Node13&#45;&gt;Node7 -->
<g id="edge14" class="edge">
<title>Node13&#45;&gt;Node7</title>
<path fill="none" stroke="midnightblue" d="M2041.08,-80.9C1762.17,-78.36 773.58,-66.99 461,-31 458.21,-30.68 455.37,-30.31 452.51,-29.89"/>
<polygon fill="midnightblue" stroke="midnightblue" points="2041.07,-84.4 2051.1,-80.99 2041.13,-77.4 2041.07,-84.4"/>
</g>
<!-- Node13&#45;&gt;Node8 -->
<g id="edge30" class="edge">
<title>Node13&#45;&gt;Node8</title>
<path fill="none" stroke="midnightblue" d="M2041.01,-80.31C1780.88,-75.9 909.07,-59.32 631,-31 617.3,-29.6 602.47,-27.34 589.09,-25.01"/>
<polygon fill="midnightblue" stroke="midnightblue" points="2041.05,-83.81 2051.11,-80.48 2041.17,-76.81 2041.05,-83.81"/>
</g>
<!-- Node13&#45;&gt;Node9 -->
<g id="edge35" class="edge">
<title>Node13&#45;&gt;Node9</title>
<path fill="none" stroke="midnightblue" d="M2041.16,-81.17C1844.8,-79.73 1293.54,-72.05 837,-31 820.72,-29.54 803.08,-27.3 787.08,-25.01"/>
<polygon fill="midnightblue" stroke="midnightblue" points="2041.33,-84.67 2051.36,-81.24 2041.38,-77.67 2041.33,-84.67"/>
</g>
<!-- Node13&#45;&gt;Node10 -->
<g id="edge33" class="edge">
<title>Node13&#45;&gt;Node10</title>
<path fill="none" stroke="midnightblue" d="M2188.76,-74.1C2217.51,-71.46 2250.77,-68.73 2281,-67 2873.58,-33.16 3024.06,-74.65 3616,-31 3635.15,-29.59 3655.94,-27.33 3674.75,-25.02"/>
<polygon fill="midnightblue" stroke="midnightblue" points="2188.42,-70.62 2178.79,-75.02 2189.07,-77.59 2188.42,-70.62"/>
</g>
<!-- Node14 -->
<g id="node14" class="node">
<title>Node14</title>
<g id="a_node14"><a xlink:href="../../d7/dfa/calculator__dialog_8cpp.html" target="_top" xlink:title=" ">
<polygon fill="white" stroke="black" points="846.5,-0.5 846.5,-30.5 987.5,-30.5 987.5,-0.5 846.5,-0.5"/>
<text text-anchor="start" x="854.5" y="-18.5" font-family="Helvetica,sans-Serif" font-size="10.00">src/app/seamly2d/dialogs</text>
<text text-anchor="middle" x="917" y="-7.5" font-family="Helvetica,sans-Serif" font-size="10.00">/calculator_dialog.cpp</text>
</a>
</g>
</g>
<!-- Node13&#45;&gt;Node14 -->
<g id="edge16" class="edge">
<title>Node13&#45;&gt;Node14</title>
<path fill="none" stroke="midnightblue" d="M2041.24,-81.64C1861.74,-81.23 1388.11,-75.62 996,-31 993.23,-30.68 990.41,-30.33 987.56,-29.94"/>
<polygon fill="midnightblue" stroke="midnightblue" points="2041.35,-85.14 2051.36,-81.66 2041.36,-78.14 2041.35,-85.14"/>
</g>
<!-- Node15 -->
<g id="node15" class="node">
<title>Node15</title>
<g id="a_node15"><a xlink:href="../../d2/d2d/preferencesconfigurationpage_8cpp.html" target="_top" xlink:title=" ">
<polygon fill="white" stroke="black" points="1005.5,-0.5 1005.5,-30.5 1252.5,-30.5 1252.5,-0.5 1005.5,-0.5"/>
<text text-anchor="start" x="1013.5" y="-18.5" font-family="Helvetica,sans-Serif" font-size="10.00">src/app/seamly2d/dialogs</text>
<text text-anchor="middle" x="1129" y="-7.5" font-family="Helvetica,sans-Serif" font-size="10.00">/configpages/preferencesconfigurationpage.cpp</text>
</a>
</g>
</g>
<!-- Node13&#45;&gt;Node15 -->
<g id="edge17" class="edge">
<title>Node13&#45;&gt;Node15</title>
<path fill="none" stroke="midnightblue" d="M2040.93,-78.35C1892.82,-71.78 1549.64,-55.18 1262,-31 1258.88,-30.74 1255.71,-30.46 1252.52,-30.18"/>
<polygon fill="midnightblue" stroke="midnightblue" points="2041.11,-81.86 2051.25,-78.81 2041.42,-74.87 2041.11,-81.86"/>
</g>
<!-- Node16 -->
<g id="node16" class="node">
<title>Node16</title>
<g id="a_node16"><a xlink:href="../../d9/d70/preferencesgraphicsviewpage_8cpp.html" target="_top" xlink:title=" ">
<polygon fill="white" stroke="black" points="1271,-0.5 1271,-30.5 1519,-30.5 1519,-0.5 1271,-0.5"/>
<text text-anchor="start" x="1279" y="-18.5" font-family="Helvetica,sans-Serif" font-size="10.00">src/app/seamly2d/dialogs</text>
<text text-anchor="middle" x="1395" y="-7.5" font-family="Helvetica,sans-Serif" font-size="10.00">/configpages/preferencesgraphicsviewpage.cpp</text>
</a>
</g>
</g>
<!-- Node13&#45;&gt;Node16 -->
<g id="edge18" class="edge">
<title>Node13&#45;&gt;Node16</title>
<path fill="none" stroke="midnightblue" d="M2041,-75.68C1929.64,-66.79 1712.36,-48.98 1528,-31 1525.11,-30.72 1522.19,-30.43 1519.24,-30.13"/>
<polygon fill="midnightblue" stroke="midnightblue" points="2040.87,-79.18 2051.11,-76.48 2041.42,-72.2 2040.87,-79.18"/>
</g>
<!-- Node17 -->
<g id="node17" class="node">
<title>Node17</title>
<g id="a_node17"><a xlink:href="../../d2/d00/vtooloptionspropertybrowser_8cpp.html" target="_top" xlink:title=" ">
<polygon fill="white" stroke="black" points="1537,-0.5 1537,-30.5 1717,-30.5 1717,-0.5 1537,-0.5"/>
<text text-anchor="start" x="1545" y="-18.5" font-family="Helvetica,sans-Serif" font-size="10.00">src/app/seamly2d/core</text>
<text text-anchor="middle" x="1627" y="-7.5" font-family="Helvetica,sans-Serif" font-size="10.00">/vtooloptionspropertybrowser.cpp</text>
</a>
</g>
</g>
<!-- Node13&#45;&gt;Node17 -->
<g id="edge19" class="edge">
<title>Node13&#45;&gt;Node17</title>
<path fill="none" stroke="midnightblue" d="M2041.04,-72.26C1962.75,-62.4 1835.59,-46.14 1726,-31 1723.07,-30.6 1720.1,-30.18 1717.1,-29.76"/>
<polygon fill="midnightblue" stroke="midnightblue" points="2040.92,-75.78 2051.28,-73.55 2041.8,-68.83 2040.92,-75.78"/>
</g>
<!-- Node18 -->
<g id="node18" class="node">
<title>Node18</title>
<g id="a_node18"><a xlink:href="../../dc/d63/preferencespatternpage_8cpp.html" target="_top" xlink:title=" ">
<polygon fill="white" stroke="black" points="1735,-0.5 1735,-30.5 1953,-30.5 1953,-0.5 1735,-0.5"/>
<text text-anchor="start" x="1743" y="-18.5" font-family="Helvetica,sans-Serif" font-size="10.00">src/app/seamly2d/dialogs</text>
<text text-anchor="middle" x="1844" y="-7.5" font-family="Helvetica,sans-Serif" font-size="10.00">/configpages/preferencespatternpage.cpp</text>
</a>
</g>
</g>
<!-- Node13&#45;&gt;Node18 -->
<g id="edge20" class="edge">
<title>Node13&#45;&gt;Node18</title>
<path fill="none" stroke="midnightblue" d="M2046.7,-65.12C2002.36,-54.48 1945.16,-40.76 1902.83,-30.61"/>
<polygon fill="midnightblue" stroke="midnightblue" points="2045.99,-68.55 2056.53,-67.48 2047.62,-61.74 2045.99,-68.55"/>
</g>
<!-- Node19 -->
<g id="node19" class="node">
<title>Node19</title>
<g id="a_node19"><a xlink:href="../../dc/d20/preferencespathpage_8cpp.html" target="_top" xlink:title=" ">
<polygon fill="white" stroke="black" points="1971.5,-0.5 1971.5,-30.5 2176.5,-30.5 2176.5,-0.5 1971.5,-0.5"/>
<text text-anchor="start" x="1979.5" y="-18.5" font-family="Helvetica,sans-Serif" font-size="10.00">src/app/seamly2d/dialogs</text>
<text text-anchor="middle" x="2074" y="-7.5" font-family="Helvetica,sans-Serif" font-size="10.00">/configpages/preferencespathpage.cpp</text>
</a>
</g>
</g>
<!-- Node13&#45;&gt;Node19 -->
<g id="edge21" class="edge">
<title>Node13&#45;&gt;Node19</title>
<path fill="none" stroke="midnightblue" d="M2100.72,-58.87C2094.79,-49.46 2088.09,-38.83 2082.88,-30.58"/>
<polygon fill="midnightblue" stroke="midnightblue" points="2097.81,-60.81 2106.1,-67.4 2103.73,-57.07 2097.81,-60.81"/>
</g>
<!-- Node20 -->
<g id="node20" class="node">
<title>Node20</title>
<g id="a_node20"><a xlink:href="../../dd/dc2/decimalchart__dialog_8cpp.html" target="_top" xlink:title=" ">
<polygon fill="white" stroke="black" points="2194.5,-0.5 2194.5,-30.5 2335.5,-30.5 2335.5,-0.5 2194.5,-0.5"/>
<text text-anchor="start" x="2202.5" y="-18.5" font-family="Helvetica,sans-Serif" font-size="10.00">src/app/seamly2d/dialogs</text>
<text text-anchor="middle" x="2265" y="-7.5" font-family="Helvetica,sans-Serif" font-size="10.00">/decimalchart_dialog.cpp</text>
</a>
</g>
</g>
<!-- Node13&#45;&gt;Node20 -->
<g id="edge22" class="edge">
<title>Node13&#45;&gt;Node20</title>
<path fill="none" stroke="midnightblue" d="M2156.75,-63.41C2180.7,-53.03 2210.32,-40.2 2232.52,-30.58"/>
<polygon fill="midnightblue" stroke="midnightblue" points="2155.33,-60.21 2147.55,-67.4 2158.11,-66.63 2155.33,-60.21"/>
</g>
<!-- Node21 -->
<g id="node21" class="node">
<title>Node21</title>
<g id="a_node21"><a xlink:href="../../dd/d64/dialogaboutapp_8cpp.html" target="_top" xlink:title=" ">
<polygon fill="white" stroke="black" points="2353.5,-0.5 2353.5,-30.5 2494.5,-30.5 2494.5,-0.5 2353.5,-0.5"/>
<text text-anchor="start" x="2361.5" y="-18.5" font-family="Helvetica,sans-Serif" font-size="10.00">src/app/seamly2d/dialogs</text>
<text text-anchor="middle" x="2424" y="-7.5" font-family="Helvetica,sans-Serif" font-size="10.00">/dialogaboutapp.cpp</text>
</a>
</g>
</g>
<!-- Node13&#45;&gt;Node21 -->
<g id="edge23" class="edge">
<title>Node13&#45;&gt;Node21</title>
<path fill="none" stroke="midnightblue" d="M2188.66,-66C2239.88,-55.23 2307.59,-40.99 2357.23,-30.55"/>
<polygon fill="midnightblue" stroke="midnightblue" points="2187.72,-62.63 2178.65,-68.11 2189.16,-69.48 2187.72,-62.63"/>
</g>
<!-- Node22 -->
<g id="node22" class="node">
<title>Node22</title>
<g id="a_node22"><a xlink:href="../../d5/d18/dialogpatternproperties_8cpp.html" target="_top" xlink:title=" ">
<polygon fill="white" stroke="black" points="2512.5,-0.5 2512.5,-30.5 2667.5,-30.5 2667.5,-0.5 2512.5,-0.5"/>
<text text-anchor="start" x="2520.5" y="-18.5" font-family="Helvetica,sans-Serif" font-size="10.00">src/app/seamly2d/dialogs</text>
<text text-anchor="middle" x="2590" y="-7.5" font-family="Helvetica,sans-Serif" font-size="10.00">/dialogpatternproperties.cpp</text>
</a>
</g>
</g>
<!-- Node13&#45;&gt;Node22 -->
<g id="edge24" class="edge">
<title>Node13&#45;&gt;Node22</title>
<path fill="none" stroke="midnightblue" d="M2188.83,-72.69C2266.97,-63.17 2393.84,-47.2 2503,-31 2506.03,-30.55 2509.12,-30.08 2512.23,-29.6"/>
<polygon fill="midnightblue" stroke="midnightblue" points="2188.11,-69.25 2178.61,-73.93 2188.96,-76.2 2188.11,-69.25"/>
</g>
<!-- Node23 -->
<g id="node23" class="node">
<title>Node23</title>
<g id="a_node23"><a xlink:href="../../d5/dc5/dialogpreferences_8cpp.html" target="_top" xlink:title=" ">
<polygon fill="white" stroke="black" points="2685.5,-0.5 2685.5,-30.5 2826.5,-30.5 2826.5,-0.5 2685.5,-0.5"/>
<text text-anchor="start" x="2693.5" y="-18.5" font-family="Helvetica,sans-Serif" font-size="10.00">src/app/seamly2d/dialogs</text>
<text text-anchor="middle" x="2756" y="-7.5" font-family="Helvetica,sans-Serif" font-size="10.00">/dialogpreferences.cpp</text>
</a>
</g>
</g>
<!-- Node13&#45;&gt;Node23 -->
<g id="edge25" class="edge">
<title>Node13&#45;&gt;Node23</title>
<path fill="none" stroke="midnightblue" d="M2188.99,-75.02C2335.88,-62.12 2652.25,-34.21 2676,-31 2679.08,-30.58 2682.22,-30.13 2685.38,-29.65"/>
<polygon fill="midnightblue" stroke="midnightblue" points="2188.37,-71.56 2178.71,-75.92 2188.98,-78.53 2188.37,-71.56"/>
</g>
<!-- Node24 -->
<g id="node24" class="node">
<title>Node24</title>
<g id="a_node24"><a xlink:href="../../d6/d89/dialoglayoutprogress_8cpp.html" target="_top" xlink:title=" ">
<polygon fill="white" stroke="black" points="2844.5,-0.5 2844.5,-30.5 2987.5,-30.5 2987.5,-0.5 2844.5,-0.5"/>
<text text-anchor="start" x="2852.5" y="-18.5" font-family="Helvetica,sans-Serif" font-size="10.00">src/app/seamly2d/dialogs</text>
<text text-anchor="middle" x="2916" y="-7.5" font-family="Helvetica,sans-Serif" font-size="10.00">/dialoglayoutprogress.cpp</text>
</a>
</g>
</g>
<!-- Node13&#45;&gt;Node24 -->
<g id="edge26" class="edge">
<title>Node13&#45;&gt;Node24</title>
<path fill="none" stroke="midnightblue" d="M2188.8,-74.7C2217.56,-72.14 2250.81,-69.3 2281,-67 2527.03,-48.26 2590.06,-60.79 2835,-31 2837.98,-30.64 2841.01,-30.24 2844.07,-29.81"/>
<polygon fill="midnightblue" stroke="midnightblue" points="2188.47,-71.21 2178.82,-75.59 2189.1,-78.19 2188.47,-71.21"/>
</g>
<!-- Node25 -->
<g id="node25" class="node">
<title>Node25</title>
<g id="a_node25"><a xlink:href="../../db/d5c/groups__widget_8cpp.html" target="_top" xlink:title=" ">
<polygon fill="white" stroke="black" points="3005.5,-0.5 3005.5,-30.5 3146.5,-30.5 3146.5,-0.5 3005.5,-0.5"/>
<text text-anchor="start" x="3013.5" y="-18.5" font-family="Helvetica,sans-Serif" font-size="10.00">src/app/seamly2d/dialogs</text>
<text text-anchor="middle" x="3076" y="-7.5" font-family="Helvetica,sans-Serif" font-size="10.00">/groups_widget.cpp</text>
</a>
</g>
</g>
<!-- Node13&#45;&gt;Node25 -->
<g id="edge28" class="edge">
<title>Node13&#45;&gt;Node25</title>
<path fill="none" stroke="midnightblue" d="M2188.78,-74.47C2217.54,-71.88 2250.79,-69.08 2281,-67 2598.43,-45.15 2679.91,-67.45 2996,-31 2999.08,-30.64 3002.23,-30.24 3005.4,-29.81"/>
<polygon fill="midnightblue" stroke="midnightblue" points="2188.45,-70.98 2178.81,-75.37 2189.08,-77.96 2188.45,-70.98"/>
</g>
<!-- Node13&#45;&gt;Node26 -->
<g id="edge29" class="edge">
<title>Node13&#45;&gt;Node26</title>
<path fill="none" stroke="midnightblue" d="M2188.75,-74.03C2217.51,-71.39 2250.77,-68.66 2281,-67 2980.12,-28.52 3159.31,-100.9 3856,-31 3858.7,-30.73 3861.45,-30.42 3864.22,-30.08"/>
<polygon fill="midnightblue" stroke="midnightblue" points="2188.41,-70.55 2178.78,-74.96 2189.06,-77.52 2188.41,-70.55"/>
</g>
<!-- Node27 -->
<g id="node27" class="node">
<title>Node27</title>
<g id="a_node27"><a xlink:href="../../d2/df4/show__info__dialog_8cpp.html" target="_top" xlink:title=" ">
<polygon fill="white" stroke="black" points="3164.5,-0.5 3164.5,-30.5 3305.5,-30.5 3305.5,-0.5 3164.5,-0.5"/>
<text text-anchor="start" x="3172.5" y="-18.5" font-family="Helvetica,sans-Serif" font-size="10.00">src/app/seamly2d/dialogs</text>
<text text-anchor="middle" x="3235" y="-7.5" font-family="Helvetica,sans-Serif" font-size="10.00">/show_info_dialog.cpp</text>
</a>
</g>
</g>
<!-- Node13&#45;&gt;Node27 -->
<g id="edge31" class="edge">
<title>Node13&#45;&gt;Node27</title>
<path fill="none" stroke="midnightblue" d="M2188.77,-74.32C2217.53,-71.72 2250.78,-68.94 2281,-67 2668.97,-42.08 2768.59,-73.77 3155,-31 3158.09,-30.66 3161.23,-30.27 3164.41,-29.84"/>
<polygon fill="midnightblue" stroke="midnightblue" points="2188.44,-70.84 2178.8,-75.24 2189.08,-77.81 2188.44,-70.84"/>
</g>
<!-- Node28 -->
<g id="node28" class="node">
<title>Node28</title>
<g id="a_node28"><a xlink:href="../../dd/d84/shortcuts__dialog_8cpp.html" target="_top" xlink:title=" ">
<polygon fill="white" stroke="black" points="3323.5,-0.5 3323.5,-30.5 3464.5,-30.5 3464.5,-0.5 3323.5,-0.5"/>
<text text-anchor="start" x="3331.5" y="-18.5" font-family="Helvetica,sans-Serif" font-size="10.00">src/app/seamly2d/dialogs</text>
<text text-anchor="middle" x="3394" y="-7.5" font-family="Helvetica,sans-Serif" font-size="10.00">/shortcuts_dialog.cpp</text>
</a>
</g>
</g>
<!-- Node13&#45;&gt;Node28 -->
<g id="edge32" class="edge">
<title>Node13&#45;&gt;Node28</title>
<path fill="none" stroke="midnightblue" d="M2188.76,-74.22C2217.52,-71.61 2250.78,-68.85 2281,-67 2739.54,-39 2857.24,-80.09 3314,-31 3317.09,-30.67 3320.24,-30.29 3323.41,-29.87"/>
<polygon fill="midnightblue" stroke="midnightblue" points="2188.43,-70.74 2178.79,-75.14 2189.07,-77.71 2188.43,-70.74"/>
</g>
<!-- Node29 -->
<g id="node29" class="node">
<title>Node29</title>
<g id="a_node29"><a xlink:href="../../d3/d49/vpattern_8cpp.html" target="_top" xlink:title=" ">
<polygon fill="white" stroke="black" points="3482.5,-0.5 3482.5,-30.5 3607.5,-30.5 3607.5,-0.5 3482.5,-0.5"/>
<text text-anchor="start" x="3490.5" y="-18.5" font-family="Helvetica,sans-Serif" font-size="10.00">src/app/seamly2d/xml</text>
<text text-anchor="middle" x="3545" y="-7.5" font-family="Helvetica,sans-Serif" font-size="10.00">/vpattern.cpp</text>
</a>
</g>
</g>
<!-- Node13&#45;&gt;Node29 -->
<g id="edge34" class="edge">
<title>Node13&#45;&gt;Node29</title>
<path fill="none" stroke="midnightblue" d="M2188.76,-74.15C2217.52,-71.52 2250.77,-68.78 2281,-67 2810.11,-35.93 2946.45,-91.53 3473,-31 3476.04,-30.65 3479.14,-30.24 3482.27,-29.78"/>
<polygon fill="midnightblue" stroke="midnightblue" points="2188.42,-70.67 2178.79,-75.07 2189.07,-77.64 2188.42,-70.67"/>
</g>
</g>
</svg>
        <g id="navigator" transform="translate(0 0)" fill="#404254">
                <rect fill="#f2f5e9" fill-opacity="0.5" stroke="#606060" stroke-width=".5" x="0" y="0" width="60" height="60"/>
                <use id="zoomplus" xlink:href="#zoomPlus" x="17" y="9" onmousedown="handleZoom(evt,'in')"/>
                <use id="zoomminus" xlink:href="#zoomMin" x="42" y="9" onmousedown="handleZoom(evt,'out')"/>
                <use id="reset" xlink:href="#resetDef" x="30" y="36" onmousedown="handleReset()"/>
                <g id="arrowUp" xlink:href="#dirArrow" transform="translate(30 24)" onmousedown="handlePan(0,-1)">
                  <use xlink:href="#rim" fill="#404040">
                        <set attributeName="fill" to="#808080" begin="arrowUp.mouseover" end="arrowUp.mouseout"/>
                  </use>
                  <path fill="none" stroke="white" stroke-width="1.5" d="M0,-3.0v7 M-2.5,-0.5L0,-3.0L2.5,-0.5"/>
                </g>
                <g id="arrowRight" xlink:href="#dirArrow" transform="rotate(90) translate(36 -43)" onmousedown="handlePan(1,0)">
                  <use xlink:href="#rim" fill="#404040">
                        <set attributeName="fill" to="#808080" begin="arrowRight.mouseover" end="arrowRight.mouseout"/>
                  </use>
                  <path fill="none" stroke="white" stroke-width="1.5" d="M0,-3.0v7 M-2.5,-0.5L0,-3.0L2.5,-0.5"/>
                </g>
                <g id="arrowDown" xlink:href="#dirArrow" transform="rotate(180) translate(-30 -48)" onmousedown="handlePan(0,1)">
                  <use xlink:href="#rim" fill="#404040">
                        <set attributeName="fill" to="#808080" begin="arrowDown.mouseover" end="arrowDown.mouseout"/>
                  </use>
                  <path fill="none" stroke="white" stroke-width="1.5" d="M0,-3.0v7 M-2.5,-0.5L0,-3.0L2.5,-0.5"/>
                </g>
                <g id="arrowLeft" xlink:href="#dirArrow" transform="rotate(270) translate(-36 17)" onmousedown="handlePan(-1,0)">
                  <use xlink:href="#rim" fill="#404040">
                        <set attributeName="fill" to="#808080" begin="arrowLeft.mouseover" end="arrowLeft.mouseout"/>
                  </use>
                  <path fill="none" stroke="white" stroke-width="1.5" d="M0,-3.0v7 M-2.5,-0.5L0,-3.0L2.5,-0.5"/>
                </g>
        </g>
        <svg viewBox="0 0 15 15" width="100%" height="30px" preserveAspectRatio="xMaxYMin meet">
         <g id="arrow_out" transform="scale(0.3 0.3)">
          <a xlink:href="abstractlayout__dialog_8h__dep__incl_org.svg" target="_base">
           <rect id="button" ry="5" rx="5" y="6" x="6" height="38" width="38"
                fill="#f2f5e9" fill-opacity="0.5" stroke="#606060" stroke-width="1.0"/>
           <path id="arrow"
             d="M 11.500037,31.436501 C 11.940474,20.09759 22.043105,11.32322 32.158766,21.979434 L 37.068811,17.246167 C 37.068811,17.246167 37.088388,32 37.088388,32 L 22.160133,31.978069 C 22.160133,31.978069 26.997745,27.140456 26.997745,27.140456 C 18.528582,18.264221 13.291696,25.230495 11.500037,31.436501 z"
             style="fill:#404040;"/>
          </a>
         </g>
        </svg>
</svg>
