<?xml version="1.0" encoding="UTF-8" standalone="no"?>
<!DOCTYPE svg PUBLIC "-//W3C//DTD SVG 1.1//EN"
 "http://www.w3.org/Graphics/SVG/1.1/DTD/svg11.dtd">
<!-- Generated by graphviz version 2.43.0 (0)
 -->
<!-- Title: src/app/seamly2d/dialogs/abstractlayout_dialog.h Pages: 1 -->
<svg width="4019pt" height="307pt"
 viewBox="0.00 0.00 4018.50 307.00" xmlns="http://www.w3.org/2000/svg" xmlns:xlink="http://www.w3.org/1999/xlink">
<g id="graph0" class="graph" transform="scale(1 1) rotate(0) translate(4 303)">
<title>src/app/seamly2d/dialogs/abstractlayout_dialog.h</title>
<polygon fill="white" stroke="transparent" points="-4,4 -4,-303 4014.5,-303 4014.5,4 -4,4"/>
<!-- Node1 -->
<g id="node1" class="node">
<title>Node1</title>
<g id="a_node1"><a xlink:title=" ">
<polygon fill="#bfbfbf" stroke="black" points="276.5,-268.5 276.5,-298.5 417.5,-298.5 417.5,-268.5 276.5,-268.5"/>
<text text-anchor="start" x="284.5" y="-286.5" font-family="Helvetica,sans-Serif" font-size="10.00">src/app/seamly2d/dialogs</text>
<text text-anchor="middle" x="347" y="-275.5" font-family="Helvetica,sans-Serif" font-size="10.00">/abstractlayout_dialog.h</text>
</a>
</g>
</g>
<!-- Node2 -->
<g id="node2" class="node">
<title>Node2</title>
<g id="a_node2"><a xlink:href="../../dd/db4/abstractlayout__dialog_8cpp.html" target="_top" xlink:title=" ">
<polygon fill="white" stroke="black" points="0,-0.5 0,-30.5 146,-30.5 146,-0.5 0,-0.5"/>
<text text-anchor="start" x="8" y="-18.5" font-family="Helvetica,sans-Serif" font-size="10.00">src/app/seamly2d/dialogs</text>
<text text-anchor="middle" x="73" y="-7.5" font-family="Helvetica,sans-Serif" font-size="10.00">/abstractlayout_dialog.cpp</text>
</a>
</g>
</g>
<!-- Node1&#45;&gt;Node2 -->
<g id="edge1" class="edge">
<title>Node1&#45;&gt;Node2</title>
<path fill="none" stroke="midnightblue" d="M312.15,-263.36C297.57,-254.64 280.83,-243.66 267,-232 187.91,-165.32 110.79,-66.83 83.44,-30.56"/>
<polygon fill="midnightblue" stroke="midnightblue" points="310.51,-266.45 320.91,-268.48 314.05,-260.41 310.51,-266.45"/>
</g>
<!-- Node3 -->
<g id="node3" class="node">
<title>Node3</title>
<g id="a_node3"><a xlink:href="../../d1/d8e/export__layout__dialog_8h.html" target="_top" xlink:title=" ">
<polygon fill="white" stroke="black" points="276.5,-201.5 276.5,-231.5 417.5,-231.5 417.5,-201.5 276.5,-201.5"/>
<text text-anchor="start" x="284.5" y="-219.5" font-family="Helvetica,sans-Serif" font-size="10.00">src/app/seamly2d/dialogs</text>
<text text-anchor="middle" x="347" y="-208.5" font-family="Helvetica,sans-Serif" font-size="10.00">/export_layout_dialog.h</text>
</a>
</g>
</g>
<!-- Node1&#45;&gt;Node3 -->
<g id="edge2" class="edge">
<title>Node1&#45;&gt;Node3</title>
<path fill="none" stroke="midnightblue" d="M347,-258.11C347,-249.15 347,-239.32 347,-231.58"/>
<polygon fill="midnightblue" stroke="midnightblue" points="343.5,-258.4 347,-268.4 350.5,-258.4 343.5,-258.4"/>
</g>
<!-- Node11 -->
<g id="node11" class="node">
<title>Node11</title>
<g id="a_node11"><a xlink:href="../../d3/dd8/layoutsettings__dialog_8h.html" target="_top" xlink:title=" ">
<polygon fill="white" stroke="black" points="1654.5,-201.5 1654.5,-231.5 1795.5,-231.5 1795.5,-201.5 1654.5,-201.5"/>
<text text-anchor="start" x="1662.5" y="-219.5" font-family="Helvetica,sans-Serif" font-size="10.00">src/app/seamly2d/dialogs</text>
<text text-anchor="middle" x="1725" y="-208.5" font-family="Helvetica,sans-Serif" font-size="10.00">/layoutsettings_dialog.h</text>
</a>
</g>
</g>
<!-- Node1&#45;&gt;Node11 -->
<g id="edge11" class="edge">
<title>Node1&#45;&gt;Node11</title>
<path fill="none" stroke="midnightblue" d="M427.71,-278.69C675.15,-267.02 1420.53,-231.86 1654.16,-220.84"/>
<polygon fill="midnightblue" stroke="midnightblue" points="427.53,-275.2 417.71,-279.16 427.86,-282.19 427.53,-275.2"/>
</g>
<!-- Node4 -->
<g id="node4" class="node">
<title>Node4</title>
<g id="a_node4"><a xlink:href="../../dd/d54/export__layout__dialog_8cpp.html" target="_top" xlink:title=" ">
<polygon fill="white" stroke="black" points="403.5,-0.5 403.5,-30.5 546.5,-30.5 546.5,-0.5 403.5,-0.5"/>
<text text-anchor="start" x="411.5" y="-18.5" font-family="Helvetica,sans-Serif" font-size="10.00">src/app/seamly2d/dialogs</text>
<text text-anchor="middle" x="475" y="-7.5" font-family="Helvetica,sans-Serif" font-size="10.00">/export_layout_dialog.cpp</text>
</a>
</g>
</g>
<!-- Node3&#45;&gt;Node4 -->
<g id="edge3" class="edge">
<title>Node3&#45;&gt;Node4</title>
<path fill="none" stroke="midnightblue" d="M349.32,-191.33C351.7,-174.47 356.49,-151.89 366,-134 389.11,-90.51 432.37,-50.99 456.87,-30.74"/>
<polygon fill="midnightblue" stroke="midnightblue" points="345.82,-191.12 348.07,-201.47 352.76,-191.97 345.82,-191.12"/>
</g>
<!-- Node5 -->
<g id="node5" class="node">
<title>Node5</title>
<g id="a_node5"><a xlink:href="../../d8/de8/mainwindowsnogui_8cpp.html" target="_top" xlink:title=" ">
<polygon fill="white" stroke="black" points="164.5,-6 164.5,-25 385.5,-25 385.5,-6 164.5,-6"/>
<text text-anchor="middle" x="275" y="-13" font-family="Helvetica,sans-Serif" font-size="10.00">src/app/seamly2d/mainwindowsnogui.cpp</text>
</a>
</g>
</g>
<!-- Node3&#45;&gt;Node5 -->
<g id="edge4" class="edge">
<title>Node3&#45;&gt;Node5</title>
<path fill="none" stroke="midnightblue" d="M338.33,-191.53C322.29,-147.21 288.7,-54.38 278.21,-25.36"/>
<polygon fill="midnightblue" stroke="midnightblue" points="335.13,-192.98 341.82,-201.19 341.71,-190.59 335.13,-192.98"/>
</g>
<!-- Node6 -->
<g id="node6" class="node">
<title>Node6</title>
<g id="a_node6"><a xlink:href="../../d1/d82/mainwindowsnogui_8h.html" target="_top" xlink:title=" ">
<polygon fill="white" stroke="black" points="375.5,-140 375.5,-159 584.5,-159 584.5,-140 375.5,-140"/>
<text text-anchor="middle" x="480" y="-147" font-family="Helvetica,sans-Serif" font-size="10.00">src/app/seamly2d/mainwindowsnogui.h</text>
</a>
</g>
</g>
<!-- Node3&#45;&gt;Node6 -->
<g id="edge5" class="edge">
<title>Node3&#45;&gt;Node6</title>
<path fill="none" stroke="midnightblue" d="M384.92,-196.97C410.47,-184.48 442.97,-168.6 462.59,-159.01"/>
<polygon fill="midnightblue" stroke="midnightblue" points="383.31,-193.86 375.86,-201.4 386.38,-200.15 383.31,-193.86"/>
</g>
<!-- Node6&#45;&gt;Node5 -->
<g id="edge10" class="edge">
<title>Node6&#45;&gt;Node5</title>
<path fill="none" stroke="midnightblue" d="M458.02,-134.35C415.4,-106.9 322.68,-47.2 288.23,-25.02"/>
<polygon fill="midnightblue" stroke="midnightblue" points="456.25,-137.37 466.55,-139.84 460.04,-131.48 456.25,-137.37"/>
</g>
<!-- Node7 -->
<g id="node7" class="node">
<title>Node7</title>
<g id="a_node7"><a xlink:href="../../d9/d53/mainwindow_8h.html" target="_top" xlink:title=" ">
<polygon fill="white" stroke="black" points="697,-73 697,-92 873,-92 873,-73 697,-73"/>
<text text-anchor="middle" x="785" y="-80" font-family="Helvetica,sans-Serif" font-size="10.00">src/app/seamly2d/mainwindow.h</text>
</a>
</g>
</g>
<!-- Node6&#45;&gt;Node7 -->
<g id="edge6" class="edge">
<title>Node6&#45;&gt;Node7</title>
<path fill="none" stroke="midnightblue" d="M530.19,-137.8C590.21,-125.01 689.48,-103.86 744.72,-92.08"/>
<polygon fill="midnightblue" stroke="midnightblue" points="529.24,-134.43 520.19,-139.94 530.7,-141.27 529.24,-134.43"/>
</g>
<!-- Node8 -->
<g id="node8" class="node">
<title>Node8</title>
<g id="a_node8"><a xlink:href="../../d3/dd8/vapplication_8cpp.html" target="_top" xlink:title=" ">
<polygon fill="white" stroke="black" points="564.5,-0.5 564.5,-30.5 691.5,-30.5 691.5,-0.5 564.5,-0.5"/>
<text text-anchor="start" x="572.5" y="-18.5" font-family="Helvetica,sans-Serif" font-size="10.00">src/app/seamly2d/core</text>
<text text-anchor="middle" x="628" y="-7.5" font-family="Helvetica,sans-Serif" font-size="10.00">/vapplication.cpp</text>
</a>
</g>
</g>
<!-- Node7&#45;&gt;Node8 -->
<g id="edge7" class="edge">
<title>Node7&#45;&gt;Node8</title>
<path fill="none" stroke="midnightblue" d="M754.6,-68.91C728.01,-57.91 689.45,-41.94 661.88,-30.53"/>
<polygon fill="midnightblue" stroke="midnightblue" points="753.57,-72.28 764.15,-72.87 756.25,-65.81 753.57,-72.28"/>
</g>
<!-- Node9 -->
<g id="node9" class="node">
<title>Node9</title>
<g id="a_node9"><a xlink:href="../../dc/d14/app_2seamly2d_2main_8cpp.html" target="_top" xlink:title=" ">
<polygon fill="white" stroke="black" points="709.5,-6 709.5,-25 860.5,-25 860.5,-6 709.5,-6"/>
<text text-anchor="middle" x="785" y="-13" font-family="Helvetica,sans-Serif" font-size="10.00">src/app/seamly2d/main.cpp</text>
</a>
</g>
</g>
<!-- Node7&#45;&gt;Node9 -->
<g id="edge8" class="edge">
<title>Node7&#45;&gt;Node9</title>
<path fill="none" stroke="midnightblue" d="M785,-62.54C785,-50.17 785,-34.62 785,-25.13"/>
<polygon fill="midnightblue" stroke="midnightblue" points="781.5,-62.73 785,-72.73 788.5,-62.73 781.5,-62.73"/>
</g>
<!-- Node10 -->
<g id="node10" class="node">
<title>Node10</title>
<g id="a_node10"><a xlink:href="../../d8/dd9/mainwindow_8cpp.html" target="_top" xlink:title=" ">
<polygon fill="white" stroke="black" points="879,-6 879,-25 1067,-25 1067,-6 879,-6"/>
<text text-anchor="middle" x="973" y="-13" font-family="Helvetica,sans-Serif" font-size="10.00">src/app/seamly2d/mainwindow.cpp</text>
</a>
</g>
</g>
<!-- Node7&#45;&gt;Node10 -->
<g id="edge9" class="edge">
<title>Node7&#45;&gt;Node10</title>
<path fill="none" stroke="midnightblue" d="M819.89,-69.44C857.19,-56.54 915.37,-36.42 948.23,-25.06"/>
<polygon fill="midnightblue" stroke="midnightblue" points="818.27,-66.29 809.96,-72.87 820.56,-72.91 818.27,-66.29"/>
</g>
<!-- Node11&#45;&gt;Node5 -->
<g id="edge40" class="edge">
<title>Node11&#45;&gt;Node5</title>
<path fill="none" stroke="midnightblue" d="M1644.17,-208.62C1469.21,-193.22 1042.61,-152.98 688,-98 548.79,-76.42 385.08,-41.13 312.68,-25.01"/>
<polygon fill="midnightblue" stroke="midnightblue" points="1644.05,-212.12 1654.32,-209.51 1644.66,-205.15 1644.05,-212.12"/>
</g>
<!-- Node12 -->
<g id="node12" class="node">
<title>Node12</title>
<g id="a_node12"><a xlink:href="../../dd/d57/vcmdexport_8h.html" target="_top" xlink:title=" ">
<polygon fill="white" stroke="black" points="1661.5,-134.5 1661.5,-164.5 1788.5,-164.5 1788.5,-134.5 1661.5,-134.5"/>
<text text-anchor="start" x="1669.5" y="-152.5" font-family="Helvetica,sans-Serif" font-size="10.00">src/app/seamly2d/core</text>
<text text-anchor="middle" x="1725" y="-141.5" font-family="Helvetica,sans-Serif" font-size="10.00">/vcmdexport.h</text>
</a>
</g>
</g>
<!-- Node11&#45;&gt;Node12 -->
<g id="edge12" class="edge">
<title>Node11&#45;&gt;Node12</title>
<path fill="none" stroke="midnightblue" d="M1725,-191.11C1725,-182.15 1725,-172.32 1725,-164.58"/>
<polygon fill="midnightblue" stroke="midnightblue" points="1721.5,-191.4 1725,-201.4 1728.5,-191.4 1721.5,-191.4"/>
</g>
<!-- Node25 -->
<g id="node25" class="node">
<title>Node25</title>
<g id="a_node25"><a xlink:href="../../d0/dfa/layoutsettings__dialog_8cpp.html" target="_top" xlink:title=" ">
<polygon fill="white" stroke="black" points="3865.5,-0.5 3865.5,-30.5 4010.5,-30.5 4010.5,-0.5 3865.5,-0.5"/>
<text text-anchor="start" x="3873.5" y="-18.5" font-family="Helvetica,sans-Serif" font-size="10.00">src/app/seamly2d/dialogs</text>
<text text-anchor="middle" x="3938" y="-7.5" font-family="Helvetica,sans-Serif" font-size="10.00">/layoutsettings_dialog.cpp</text>
</a>
</g>
</g>
<!-- Node11&#45;&gt;Node25 -->
<g id="edge39" class="edge">
<title>Node11&#45;&gt;Node25</title>
<path fill="none" stroke="midnightblue" d="M1805.77,-211.1C2088.56,-195.13 3059.98,-135.63 3856,-31 3859.01,-30.6 3862.08,-30.18 3865.17,-29.72"/>
<polygon fill="midnightblue" stroke="midnightblue" points="1805.39,-207.61 1795.61,-211.67 1805.79,-214.6 1805.39,-207.61"/>
</g>
<!-- Node30 -->
<g id="node30" class="node">
<title>Node30</title>
<g id="a_node30"><a xlink:href="../../df/d9b/vcmdexport_8cpp.html" target="_top" xlink:title=" ">
<polygon fill="white" stroke="black" points="1806.5,-67.5 1806.5,-97.5 1933.5,-97.5 1933.5,-67.5 1806.5,-67.5"/>
<text text-anchor="start" x="1814.5" y="-85.5" font-family="Helvetica,sans-Serif" font-size="10.00">src/app/seamly2d/core</text>
<text text-anchor="middle" x="1870" y="-74.5" font-family="Helvetica,sans-Serif" font-size="10.00">/vcmdexport.cpp</text>
</a>
</g>
</g>
<!-- Node11&#45;&gt;Node30 -->
<g id="edge38" class="edge">
<title>Node11&#45;&gt;Node30</title>
<path fill="none" stroke="midnightblue" d="M1756.4,-195.76C1769.47,-186.98 1784.48,-176.12 1797,-165 1821.15,-143.56 1845.42,-114.66 1859,-97.65"/>
<polygon fill="midnightblue" stroke="midnightblue" points="1754.14,-193.06 1747.72,-201.49 1757.99,-198.91 1754.14,-193.06"/>
</g>
<!-- Node12&#45;&gt;Node7 -->
<g id="edge37" class="edge">
<title>Node12&#45;&gt;Node7</title>
<path fill="none" stroke="midnightblue" d="M1651.34,-143.41C1480.37,-131.58 1057.2,-102.32 873.01,-89.59"/>
<polygon fill="midnightblue" stroke="midnightblue" points="1651.28,-146.91 1661.5,-144.11 1651.76,-139.93 1651.28,-146.91"/>
</g>
<!-- Node13 -->
<g id="node13" class="node">
<title>Node13</title>
<g id="a_node13"><a xlink:href="../../d9/d02/vapplication_8h.html" target="_top" xlink:title=" ">
<polygon fill="white" stroke="black" points="1661.5,-67.5 1661.5,-97.5 1788.5,-97.5 1788.5,-67.5 1661.5,-67.5"/>
<text text-anchor="start" x="1669.5" y="-85.5" font-family="Helvetica,sans-Serif" font-size="10.00">src/app/seamly2d/core</text>
<text text-anchor="middle" x="1725" y="-74.5" font-family="Helvetica,sans-Serif" font-size="10.00">/vapplication.h</text>
</a>
</g>
</g>
<!-- Node12&#45;&gt;Node13 -->
<g id="edge13" class="edge">
<title>Node12&#45;&gt;Node13</title>
<path fill="none" stroke="midnightblue" d="M1725,-124.11C1725,-115.15 1725,-105.32 1725,-97.58"/>
<polygon fill="midnightblue" stroke="midnightblue" points="1721.5,-124.4 1725,-134.4 1728.5,-124.4 1721.5,-124.4"/>
</g>
<!-- Node12&#45;&gt;Node30 -->
<g id="edge36" class="edge">
<title>Node12&#45;&gt;Node30</title>
<path fill="none" stroke="midnightblue" d="M1765.67,-130.27C1788.76,-119.92 1817.24,-107.15 1838.6,-97.58"/>
<polygon fill="midnightblue" stroke="midnightblue" points="1764.16,-127.11 1756.46,-134.4 1767.02,-133.5 1764.16,-127.11"/>
</g>
<!-- Node13&#45;&gt;Node2 -->
<g id="edge15" class="edge">
<title>Node13&#45;&gt;Node2</title>
<path fill="none" stroke="midnightblue" d="M1651.3,-80.53C1381.88,-76.76 450.76,-61.75 155,-31 152.12,-30.7 149.2,-30.36 146.24,-29.99"/>
<polygon fill="midnightblue" stroke="midnightblue" points="1651.31,-84.03 1661.36,-80.67 1651.41,-77.03 1651.31,-84.03"/>
</g>
<!-- Node13&#45;&gt;Node4 -->
<g id="edge27" class="edge">
<title>Node13&#45;&gt;Node4</title>
<path fill="none" stroke="midnightblue" d="M1651.19,-81.79C1466.1,-81.78 967.48,-77.07 555,-31 552.33,-30.7 549.62,-30.37 546.89,-30.01"/>
<polygon fill="midnightblue" stroke="midnightblue" points="1651.35,-85.29 1661.35,-81.79 1651.35,-78.29 1651.35,-85.29"/>
</g>
<!-- Node13&#45;&gt;Node5 -->
<g id="edge33" class="edge">
<title>Node13&#45;&gt;Node5</title>
<path fill="none" stroke="midnightblue" d="M1650.98,-80.85C1449.09,-78.62 872.07,-69.13 394,-31 375.33,-29.51 355.08,-27.28 336.66,-25.01"/>
<polygon fill="midnightblue" stroke="midnightblue" points="1651.13,-84.36 1661.16,-80.96 1651.2,-77.36 1651.13,-84.36"/>
</g>
<!-- Node13&#45;&gt;Node8 -->
<g id="edge14" class="edge">
<title>Node13&#45;&gt;Node8</title>
<path fill="none" stroke="midnightblue" d="M1651.42,-81.64C1482.57,-81.13 1054.53,-75.18 700,-31 697.22,-30.65 694.38,-30.26 691.52,-29.83"/>
<polygon fill="midnightblue" stroke="midnightblue" points="1651.43,-85.14 1661.44,-81.66 1651.45,-78.14 1651.43,-85.14"/>
</g>
<!-- Node13&#45;&gt;Node9 -->
<g id="edge31" class="edge">
<title>Node13&#45;&gt;Node9</title>
<path fill="none" stroke="midnightblue" d="M1650.89,-79.86C1502.32,-75.98 1157.64,-63.93 870,-31 856.76,-29.48 842.46,-27.27 829.42,-25.03"/>
<polygon fill="midnightblue" stroke="midnightblue" points="1651.16,-83.37 1661.24,-80.13 1651.34,-76.37 1651.16,-83.37"/>
</g>
<!-- Node13&#45;&gt;Node10 -->
<g id="edge35" class="edge">
<title>Node13&#45;&gt;Node10</title>
<path fill="none" stroke="midnightblue" d="M1651.09,-77.25C1530.5,-69.98 1283.96,-53.71 1076,-31 1060.74,-29.33 1044.26,-27.18 1029.05,-25.04"/>
<polygon fill="midnightblue" stroke="midnightblue" points="1651.12,-80.76 1661.31,-77.86 1651.54,-73.77 1651.12,-80.76"/>
</g>
<!-- Node14 -->
<g id="node14" class="node">
<title>Node14</title>
<g id="a_node14"><a xlink:href="../../d7/dfa/calculator__dialog_8cpp.html" target="_top" xlink:title=" ">
<polygon fill="white" stroke="black" points="2516.5,-0.5 2516.5,-30.5 2657.5,-30.5 2657.5,-0.5 2516.5,-0.5"/>
<text text-anchor="start" x="2524.5" y="-18.5" font-family="Helvetica,sans-Serif" font-size="10.00">src/app/seamly2d/dialogs</text>
<text text-anchor="middle" x="2587" y="-7.5" font-family="Helvetica,sans-Serif" font-size="10.00">/calculator_dialog.cpp</text>
</a>
</g>
</g>
<!-- Node13&#45;&gt;Node14 -->
<g id="edge16" class="edge">
<title>Node13&#45;&gt;Node14</title>
<path fill="none" stroke="midnightblue" d="M1798.81,-66.9C2112.31,-28.54 2196.5,-66.86 2507,-31 2510.08,-30.64 2513.23,-30.24 2516.4,-29.8"/>
<polygon fill="midnightblue" stroke="midnightblue" points="1798.01,-63.47 1788.52,-68.18 1798.87,-70.42 1798.01,-63.47"/>
</g>
<!-- Node15 -->
<g id="node15" class="node">
<title>Node15</title>
<g id="a_node15"><a xlink:href="../../d2/d2d/preferencesconfigurationpage_8cpp.html" target="_top" xlink:title=" ">
<polygon fill="white" stroke="black" points="2675.5,-0.5 2675.5,-30.5 2922.5,-30.5 2922.5,-0.5 2675.5,-0.5"/>
<text text-anchor="start" x="2683.5" y="-18.5" font-family="Helvetica,sans-Serif" font-size="10.00">src/app/seamly2d/dialogs</text>
<text text-anchor="middle" x="2799" y="-7.5" font-family="Helvetica,sans-Serif" font-size="10.00">/configpages/preferencesconfigurationpage.cpp</text>
</a>
</g>
</g>
<!-- Node13&#45;&gt;Node15 -->
<g id="edge17" class="edge">
<title>Node13&#45;&gt;Node15</title>
<path fill="none" stroke="midnightblue" d="M1798.51,-66.95C2182.5,-21.37 2283.83,-59.72 2666,-31 2669.13,-30.77 2672.29,-30.51 2675.49,-30.25"/>
<polygon fill="midnightblue" stroke="midnightblue" points="1798.03,-63.48 1788.52,-68.15 1798.86,-70.43 1798.03,-63.48"/>
</g>
<!-- Node16 -->
<g id="node16" class="node">
<title>Node16</title>
<g id="a_node16"><a xlink:href="../../d9/d70/preferencesgraphicsviewpage_8cpp.html" target="_top" xlink:title=" ">
<polygon fill="white" stroke="black" points="2941,-0.5 2941,-30.5 3189,-30.5 3189,-0.5 2941,-0.5"/>
<text text-anchor="start" x="2949" y="-18.5" font-family="Helvetica,sans-Serif" font-size="10.00">src/app/seamly2d/dialogs</text>
<text text-anchor="middle" x="3065" y="-7.5" font-family="Helvetica,sans-Serif" font-size="10.00">/configpages/preferencesgraphicsviewpage.cpp</text>
</a>
</g>
</g>
<!-- Node13&#45;&gt;Node16 -->
<g id="edge18" class="edge">
<title>Node13&#45;&gt;Node16</title>
<path fill="none" stroke="midnightblue" d="M1798.54,-66.96C2300.08,-9.73 2431.86,-66.14 2932,-31 2934.9,-30.8 2937.83,-30.58 2940.78,-30.35"/>
<polygon fill="midnightblue" stroke="midnightblue" points="1798.05,-63.49 1788.51,-68.11 1798.85,-70.45 1798.05,-63.49"/>
</g>
<!-- Node17 -->
<g id="node17" class="node">
<title>Node17</title>
<g id="a_node17"><a xlink:href="../../d2/d00/vtooloptionspropertybrowser_8cpp.html" target="_top" xlink:title=" ">
<polygon fill="white" stroke="black" points="3207,-0.5 3207,-30.5 3387,-30.5 3387,-0.5 3207,-0.5"/>
<text text-anchor="start" x="3215" y="-18.5" font-family="Helvetica,sans-Serif" font-size="10.00">src/app/seamly2d/core</text>
<text text-anchor="middle" x="3297" y="-7.5" font-family="Helvetica,sans-Serif" font-size="10.00">/vtooloptionspropertybrowser.cpp</text>
</a>
</g>
</g>
<!-- Node13&#45;&gt;Node17 -->
<g id="edge19" class="edge">
<title>Node13&#45;&gt;Node17</title>
<path fill="none" stroke="midnightblue" d="M1798.58,-66.96C2417.7,1.82 2580.74,-83.94 3198,-31 3200.94,-30.75 3203.93,-30.46 3206.95,-30.16"/>
<polygon fill="midnightblue" stroke="midnightblue" points="1798.06,-63.5 1788.51,-68.09 1798.84,-70.46 1798.06,-63.5"/>
</g>
<!-- Node18 -->
<g id="node18" class="node">
<title>Node18</title>
<g id="a_node18"><a xlink:href="../../dc/d20/preferencespathpage_8cpp.html" target="_top" xlink:title=" ">
<polygon fill="white" stroke="black" points="3405.5,-0.5 3405.5,-30.5 3610.5,-30.5 3610.5,-0.5 3405.5,-0.5"/>
<text text-anchor="start" x="3413.5" y="-18.5" font-family="Helvetica,sans-Serif" font-size="10.00">src/app/seamly2d/dialogs</text>
<text text-anchor="middle" x="3508" y="-7.5" font-family="Helvetica,sans-Serif" font-size="10.00">/configpages/preferencespathpage.cpp</text>
</a>
</g>
</g>
<!-- Node13&#45;&gt;Node18 -->
<g id="edge20" class="edge">
<title>Node13&#45;&gt;Node18</title>
<path fill="none" stroke="midnightblue" d="M1798.68,-66.95C2505.26,10.56 2690.56,-84.45 3396,-31 3399.03,-30.77 3402.1,-30.52 3405.21,-30.24"/>
<polygon fill="midnightblue" stroke="midnightblue" points="1798.06,-63.5 1788.51,-68.08 1798.83,-70.46 1798.06,-63.5"/>
</g>
<!-- Node19 -->
<g id="node19" class="node">
<title>Node19</title>
<g id="a_node19"><a xlink:href="../../dc/d63/preferencespatternpage_8cpp.html" target="_top" xlink:title=" ">
<polygon fill="white" stroke="black" points="3629,-0.5 3629,-30.5 3847,-30.5 3847,-0.5 3629,-0.5"/>
<text text-anchor="start" x="3637" y="-18.5" font-family="Helvetica,sans-Serif" font-size="10.00">src/app/seamly2d/dialogs</text>
<text text-anchor="middle" x="3738" y="-7.5" font-family="Helvetica,sans-Serif" font-size="10.00">/configpages/preferencespatternpage.cpp</text>
</a>
</g>
</g>
<!-- Node13&#45;&gt;Node19 -->
<g id="edge21" class="edge">
<title>Node13&#45;&gt;Node19</title>
<path fill="none" stroke="midnightblue" d="M1798.61,-66.97C2604.3,20.44 2815.02,-88.26 3620,-31 3622.88,-30.79 3625.8,-30.57 3628.75,-30.33"/>
<polygon fill="midnightblue" stroke="midnightblue" points="1798.07,-63.5 1788.51,-68.07 1798.83,-70.46 1798.07,-63.5"/>
</g>
<!-- Node20 -->
<g id="node20" class="node">
<title>Node20</title>
<g id="a_node20"><a xlink:href="../../dd/d64/dialogaboutapp_8cpp.html" target="_top" xlink:title=" ">
<polygon fill="white" stroke="black" points="1085.5,-0.5 1085.5,-30.5 1226.5,-30.5 1226.5,-0.5 1085.5,-0.5"/>
<text text-anchor="start" x="1093.5" y="-18.5" font-family="Helvetica,sans-Serif" font-size="10.00">src/app/seamly2d/dialogs</text>
<text text-anchor="middle" x="1156" y="-7.5" font-family="Helvetica,sans-Serif" font-size="10.00">/dialogaboutapp.cpp</text>
</a>
</g>
</g>
<!-- Node13&#45;&gt;Node20 -->
<g id="edge22" class="edge">
<title>Node13&#45;&gt;Node20</title>
<path fill="none" stroke="midnightblue" d="M1651.18,-75.72C1555.08,-67.77 1382.03,-52.04 1235,-31 1232.24,-30.61 1229.43,-30.18 1226.59,-29.74"/>
<polygon fill="midnightblue" stroke="midnightblue" points="1651.12,-79.22 1661.37,-76.55 1651.69,-72.25 1651.12,-79.22"/>
</g>
<!-- Node21 -->
<g id="node21" class="node">
<title>Node21</title>
<g id="a_node21"><a xlink:href="../../d6/d89/dialoglayoutprogress_8cpp.html" target="_top" xlink:title=" ">
<polygon fill="white" stroke="black" points="1244.5,-0.5 1244.5,-30.5 1387.5,-30.5 1387.5,-0.5 1244.5,-0.5"/>
<text text-anchor="start" x="1252.5" y="-18.5" font-family="Helvetica,sans-Serif" font-size="10.00">src/app/seamly2d/dialogs</text>
<text text-anchor="middle" x="1316" y="-7.5" font-family="Helvetica,sans-Serif" font-size="10.00">/dialoglayoutprogress.cpp</text>
</a>
</g>
</g>
<!-- Node13&#45;&gt;Node21 -->
<g id="edge23" class="edge">
<title>Node13&#45;&gt;Node21</title>
<path fill="none" stroke="midnightblue" d="M1651.23,-70.76C1584.49,-60.9 1483.55,-45.65 1396,-31 1393.22,-30.53 1390.38,-30.05 1387.51,-29.56"/>
<polygon fill="midnightblue" stroke="midnightblue" points="1650.83,-74.24 1661.23,-72.23 1651.85,-67.31 1650.83,-74.24"/>
</g>
<!-- Node22 -->
<g id="node22" class="node">
<title>Node22</title>
<g id="a_node22"><a xlink:href="../../dd/dc2/decimalchart__dialog_8cpp.html" target="_top" xlink:title=" ">
<polygon fill="white" stroke="black" points="1405.5,-0.5 1405.5,-30.5 1546.5,-30.5 1546.5,-0.5 1405.5,-0.5"/>
<text text-anchor="start" x="1413.5" y="-18.5" font-family="Helvetica,sans-Serif" font-size="10.00">src/app/seamly2d/dialogs</text>
<text text-anchor="middle" x="1476" y="-7.5" font-family="Helvetica,sans-Serif" font-size="10.00">/decimalchart_dialog.cpp</text>
</a>
</g>
</g>
<!-- Node13&#45;&gt;Node22 -->
<g id="edge24" class="edge">
<title>Node13&#45;&gt;Node22</title>
<path fill="none" stroke="midnightblue" d="M1661.47,-64.92C1620.84,-54.31 1568.7,-40.7 1530.06,-30.61"/>
<polygon fill="midnightblue" stroke="midnightblue" points="1660.72,-68.34 1671.28,-67.48 1662.49,-61.56 1660.72,-68.34"/>
</g>
<!-- Node23 -->
<g id="node23" class="node">
<title>Node23</title>
<g id="a_node23"><a xlink:href="../../d5/d18/dialogpatternproperties_8cpp.html" target="_top" xlink:title=" ">
<polygon fill="white" stroke="black" points="1564.5,-0.5 1564.5,-30.5 1719.5,-30.5 1719.5,-0.5 1564.5,-0.5"/>
<text text-anchor="start" x="1572.5" y="-18.5" font-family="Helvetica,sans-Serif" font-size="10.00">src/app/seamly2d/dialogs</text>
<text text-anchor="middle" x="1642" y="-7.5" font-family="Helvetica,sans-Serif" font-size="10.00">/dialogpatternproperties.cpp</text>
</a>
</g>
</g>
<!-- Node13&#45;&gt;Node23 -->
<g id="edge25" class="edge">
<title>Node13&#45;&gt;Node23</title>
<path fill="none" stroke="midnightblue" d="M1699.04,-61.17C1686.35,-51.23 1671.39,-39.51 1659.97,-30.58"/>
<polygon fill="midnightblue" stroke="midnightblue" points="1696.96,-63.99 1706.99,-67.4 1701.28,-58.47 1696.96,-63.99"/>
</g>
<!-- Node24 -->
<g id="node24" class="node">
<title>Node24</title>
<g id="a_node24"><a xlink:href="../../d5/dc5/dialogpreferences_8cpp.html" target="_top" xlink:title=" ">
<polygon fill="white" stroke="black" points="1737.5,-0.5 1737.5,-30.5 1878.5,-30.5 1878.5,-0.5 1737.5,-0.5"/>
<text text-anchor="start" x="1745.5" y="-18.5" font-family="Helvetica,sans-Serif" font-size="10.00">src/app/seamly2d/dialogs</text>
<text text-anchor="middle" x="1808" y="-7.5" font-family="Helvetica,sans-Serif" font-size="10.00">/dialogpreferences.cpp</text>
</a>
</g>
</g>
<!-- Node13&#45;&gt;Node24 -->
<g id="edge26" class="edge">
<title>Node13&#45;&gt;Node24</title>
<path fill="none" stroke="midnightblue" d="M1750.96,-61.17C1763.65,-51.23 1778.61,-39.51 1790.03,-30.58"/>
<polygon fill="midnightblue" stroke="midnightblue" points="1748.72,-58.47 1743.01,-67.4 1753.04,-63.99 1748.72,-58.47"/>
</g>
<!-- Node13&#45;&gt;Node25 -->
<g id="edge28" class="edge">
<title>Node13&#45;&gt;Node25</title>
<path fill="none" stroke="midnightblue" d="M1798.57,-66.97C2708.66,30.65 2948.32,-118.64 3856,-31 3859.02,-30.71 3862.1,-30.37 3865.2,-29.99"/>
<polygon fill="midnightblue" stroke="midnightblue" points="1798.07,-63.51 1788.51,-68.06 1798.82,-70.47 1798.07,-63.51"/>
</g>
<!-- Node26 -->
<g id="node26" class="node">
<title>Node26</title>
<g id="a_node26"><a xlink:href="../../d2/df4/show__info__dialog_8cpp.html" target="_top" xlink:title=" ">
<polygon fill="white" stroke="black" points="1896.5,-0.5 1896.5,-30.5 2037.5,-30.5 2037.5,-0.5 1896.5,-0.5"/>
<text text-anchor="start" x="1904.5" y="-18.5" font-family="Helvetica,sans-Serif" font-size="10.00">src/app/seamly2d/dialogs</text>
<text text-anchor="middle" x="1967" y="-7.5" font-family="Helvetica,sans-Serif" font-size="10.00">/show_info_dialog.cpp</text>
</a>
</g>
</g>
<!-- Node13&#45;&gt;Node26 -->
<g id="edge29" class="edge">
<title>Node13&#45;&gt;Node26</title>
<path fill="none" stroke="midnightblue" d="M1786.99,-64.85C1826.45,-54.25 1876.99,-40.68 1914.46,-30.61"/>
<polygon fill="midnightblue" stroke="midnightblue" points="1785.96,-61.5 1777.21,-67.48 1787.78,-68.26 1785.96,-61.5"/>
</g>
<!-- Node27 -->
<g id="node27" class="node">
<title>Node27</title>
<g id="a_node27"><a xlink:href="../../dd/d84/shortcuts__dialog_8cpp.html" target="_top" xlink:title=" ">
<polygon fill="white" stroke="black" points="2055.5,-0.5 2055.5,-30.5 2196.5,-30.5 2196.5,-0.5 2055.5,-0.5"/>
<text text-anchor="start" x="2063.5" y="-18.5" font-family="Helvetica,sans-Serif" font-size="10.00">src/app/seamly2d/dialogs</text>
<text text-anchor="middle" x="2126" y="-7.5" font-family="Helvetica,sans-Serif" font-size="10.00">/shortcuts_dialog.cpp</text>
</a>
</g>
</g>
<!-- Node13&#45;&gt;Node27 -->
<g id="edge30" class="edge">
<title>Node13&#45;&gt;Node27</title>
<path fill="none" stroke="midnightblue" d="M1798.43,-66.81C1908.86,-48 1938.76,-48.46 2046,-31 2049.06,-30.5 2052.19,-29.98 2055.35,-29.45"/>
<polygon fill="midnightblue" stroke="midnightblue" points="1797.83,-63.36 1788.57,-68.5 1799.02,-70.26 1797.83,-63.36"/>
</g>
<!-- Node28 -->
<g id="node28" class="node">
<title>Node28</title>
<g id="a_node28"><a xlink:href="../../db/d5c/groups__widget_8cpp.html" target="_top" xlink:title=" ">
<polygon fill="white" stroke="black" points="2214.5,-0.5 2214.5,-30.5 2355.5,-30.5 2355.5,-0.5 2214.5,-0.5"/>
<text text-anchor="start" x="2222.5" y="-18.5" font-family="Helvetica,sans-Serif" font-size="10.00">src/app/seamly2d/dialogs</text>
<text text-anchor="middle" x="2285" y="-7.5" font-family="Helvetica,sans-Serif" font-size="10.00">/groups_widget.cpp</text>
</a>
</g>
</g>
<!-- Node13&#45;&gt;Node28 -->
<g id="edge32" class="edge">
<title>Node13&#45;&gt;Node28</title>
<path fill="none" stroke="midnightblue" d="M1798.62,-66.87C1978.93,-41.49 2027.85,-54.82 2205,-31 2208.08,-30.59 2211.22,-30.14 2214.39,-29.66"/>
<polygon fill="midnightblue" stroke="midnightblue" points="1797.94,-63.43 1788.54,-68.31 1798.93,-70.36 1797.94,-63.43"/>
</g>
<!-- Node29 -->
<g id="node29" class="node">
<title>Node29</title>
<g id="a_node29"><a xlink:href="../../d3/d49/vpattern_8cpp.html" target="_top" xlink:title=" ">
<polygon fill="white" stroke="black" points="2373.5,-0.5 2373.5,-30.5 2498.5,-30.5 2498.5,-0.5 2373.5,-0.5"/>
<text text-anchor="start" x="2381.5" y="-18.5" font-family="Helvetica,sans-Serif" font-size="10.00">src/app/seamly2d/xml</text>
<text text-anchor="middle" x="2436" y="-7.5" font-family="Helvetica,sans-Serif" font-size="10.00">/vpattern.cpp</text>
</a>
</g>
</g>
<!-- Node13&#45;&gt;Node29 -->
<g id="edge34" class="edge">
<title>Node13&#45;&gt;Node29</title>
<path fill="none" stroke="midnightblue" d="M1798.66,-66.9C2049.12,-34.78 2116.96,-63.57 2364,-31 2367.03,-30.6 2370.13,-30.15 2373.26,-29.66"/>
<polygon fill="midnightblue" stroke="midnightblue" points="1797.99,-63.46 1788.53,-68.22 1798.89,-70.4 1797.99,-63.46"/>
</g>
</g>
</svg>
