<?xml version="1.0" encoding="UTF-8" standalone="no"?>
<!DOCTYPE svg PUBLIC "-//W3C//DTD SVG 1.1//EN"
 "http://www.w3.org/Graphics/SVG/1.1/DTD/svg11.dtd">
<!-- Generated by graphviz version 2.43.0 (0)
 -->
<!-- Title: src/libs/vpatterndb/floatItemData/vpiecelabeldata.h Pages: 1 -->
<!--zoomable 229 -->
<svg id="main" version="1.1" xmlns="http://www.w3.org/2000/svg" xmlns:xlink="http://www.w3.org/1999/xlink" xml:space="preserve" onload="init(evt)">
<style type="text/css"><![CDATA[
.edge:hover path { stroke: red; }
.edge:hover polygon { stroke: red; fill: red; }
]]></style>
<script type="text/javascript"><![CDATA[
var edges = document.getElementsByTagName('g');
if (edges && edges.length) {
  for (var i=0;i<edges.length;i++) {
    if (edges[i].id.substr(0,4)=='edge') {
      edges[i].setAttribute('class','edge');
    }
  }
}
]]></script>
        <defs>
                <circle id="rim" cx="0" cy="0" r="7"/>
                <circle id="rim2" cx="0" cy="0" r="3.5"/>
                <g id="zoomPlus">
                        <use xlink:href="#rim" fill="#404040">
                                <set attributeName="fill" to="#808080" begin="zoomplus.mouseover" end="zoomplus.mouseout"/>
                        </use>
                        <path d="M-4,0h8M0,-4v8" fill="none" stroke="white" stroke-width="1.5" pointer-events="none"/>
                </g>
                <g id="zoomMin">
                        <use xlink:href="#rim" fill="#404040">
                                <set attributeName="fill" to="#808080" begin="zoomminus.mouseover" end="zoomminus.mouseout"/>
                        </use>
                        <path d="M-4,0h8" fill="none" stroke="white" stroke-width="1.5" pointer-events="none"/>
                </g>
                <g id="dirArrow">
                        <path fill="none" stroke="white" stroke-width="1.5" d="M0,-3.0v7 M-2.5,-0.5L0,-3.0L2.5,-0.5"/>
                </g>
               <g id="resetDef">
                       <use xlink:href="#rim2" fill="#404040">
                               <set attributeName="fill" to="#808080" begin="reset.mouseover" end="reset.mouseout"/>
                       </use>
               </g>
        </defs>

<script type="text/javascript">
var viewWidth = 1437;
var viewHeight = 229;
var sectionId = 'dynsection-1';
</script>
<script xlink:href="../../svgpan.js"/>
<svg id="graph" class="graph">
<g id="viewport">
<title>src/libs/vpatterndb/floatItemData/vpiecelabeldata.h</title>
<polygon fill="white" stroke="transparent" points="-4,4 -4,-225 1433,-225 1433,4 -4,4"/>
<!-- Node1 -->
<g id="node1" class="node">
<title>Node1</title>
<g id="a_node1"><a xlink:title=" ">
<polygon fill="#bfbfbf" stroke="black" points="636,-190.5 636,-220.5 813,-220.5 813,-190.5 636,-190.5"/>
<text text-anchor="start" x="644" y="-208.5" font-family="Helvetica,sans-Serif" font-size="10.00">src/libs/vpatterndb</text>
<text text-anchor="middle" x="724.5" y="-197.5" font-family="Helvetica,sans-Serif" font-size="10.00">/floatItemData/vpiecelabeldata.h</text>
</a>
</g>
</g>
<!-- Node2 -->
<g id="node2" class="node">
<title>Node2</title>
<g id="a_node2"><a xlink:href="../../d6/d2f/vlayoutpiece__p_8h.html" target="_top" xlink:title=" ">
<polygon fill="white" stroke="black" points="79,-129 79,-148 256,-148 256,-129 79,-129"/>
<text text-anchor="middle" x="167.5" y="-136" font-family="Helvetica,sans-Serif" font-size="10.00">src/libs/vlayout/vlayoutpiece_p.h</text>
</a>
</g>
</g>
<!-- Node1&#45;&gt;Node2 -->
<g id="edge1" class="edge">
<title>Node1&#45;&gt;Node2</title>
<path fill="none" stroke="midnightblue" d="M625.79,-192.98C515.43,-180.1 339.28,-159.55 240.6,-148.03"/>
<polygon fill="midnightblue" stroke="midnightblue" points="625.6,-196.48 635.93,-194.16 626.41,-189.53 625.6,-196.48"/>
</g>
<!-- Node3 -->
<g id="node3" class="node">
<title>Node3</title>
<g id="a_node3"><a xlink:href="../../dd/d70/vlayoutpiece_8cpp.html" target="_top" xlink:title=" ">
<polygon fill="white" stroke="black" points="0,-62 0,-81 177,-81 177,-62 0,-62"/>
<text text-anchor="middle" x="88.5" y="-69" font-family="Helvetica,sans-Serif" font-size="10.00">src/libs/vlayout/vlayoutpiece.cpp</text>
</a>
</g>
</g>
<!-- Node1&#45;&gt;Node3 -->
<g id="edge15" class="edge">
<title>Node1&#45;&gt;Node3</title>
<path fill="none" stroke="midnightblue" d="M647.11,-188.44C511.19,-160.23 234.13,-102.73 129.63,-81.04"/>
<polygon fill="midnightblue" stroke="midnightblue" points="646.54,-191.89 657.04,-190.5 647.96,-185.04 646.54,-191.89"/>
</g>
<!-- Node4 -->
<g id="node4" class="node">
<title>Node4</title>
<g id="a_node4"><a xlink:href="../../d6/de0/vlayoutpiece_8h.html" target="_top" xlink:title=" ">
<polygon fill="white" stroke="black" points="545.5,-129 545.5,-148 711.5,-148 711.5,-129 545.5,-129"/>
<text text-anchor="middle" x="628.5" y="-136" font-family="Helvetica,sans-Serif" font-size="10.00">src/libs/vlayout/vlayoutpiece.h</text>
</a>
</g>
</g>
<!-- Node1&#45;&gt;Node4 -->
<g id="edge3" class="edge">
<title>Node1&#45;&gt;Node4</title>
<path fill="none" stroke="midnightblue" d="M695.17,-184.64C677.05,-172.37 654.73,-157.26 641.06,-148.01"/>
<polygon fill="midnightblue" stroke="midnightblue" points="693.43,-187.69 703.67,-190.4 697.35,-181.89 693.43,-187.69"/>
</g>
<!-- Node13 -->
<g id="node13" class="node">
<title>Node13</title>
<g id="a_node13"><a xlink:href="../../d8/d70/vtextmanager_8cpp.html" target="_top" xlink:title=" ">
<polygon fill="white" stroke="black" points="729.5,-129 729.5,-148 911.5,-148 911.5,-129 729.5,-129"/>
<text text-anchor="middle" x="820.5" y="-136" font-family="Helvetica,sans-Serif" font-size="10.00">src/libs/vlayout/vtextmanager.cpp</text>
</a>
</g>
</g>
<!-- Node1&#45;&gt;Node13 -->
<g id="edge16" class="edge">
<title>Node1&#45;&gt;Node13</title>
<path fill="none" stroke="midnightblue" d="M753.83,-184.64C771.95,-172.37 794.27,-157.26 807.94,-148.01"/>
<polygon fill="midnightblue" stroke="midnightblue" points="751.65,-181.89 745.33,-190.4 755.57,-187.69 751.65,-181.89"/>
</g>
<!-- Node14 -->
<g id="node14" class="node">
<title>Node14</title>
<g id="a_node14"><a xlink:href="../../de/d4a/vpiecelabeldata_8cpp.html" target="_top" xlink:title=" ">
<polygon fill="white" stroke="black" points="929.5,-123.5 929.5,-153.5 1117.5,-153.5 1117.5,-123.5 929.5,-123.5"/>
<text text-anchor="start" x="937.5" y="-141.5" font-family="Helvetica,sans-Serif" font-size="10.00">src/libs/vpatterndb</text>
<text text-anchor="middle" x="1023.5" y="-130.5" font-family="Helvetica,sans-Serif" font-size="10.00">/floatItemData/vpiecelabeldata.cpp</text>
</a>
</g>
</g>
<!-- Node1&#45;&gt;Node14 -->
<g id="edge17" class="edge">
<title>Node1&#45;&gt;Node14</title>
<path fill="none" stroke="midnightblue" d="M798.95,-188.32C848.09,-177.63 911.84,-163.77 958.85,-153.55"/>
<polygon fill="midnightblue" stroke="midnightblue" points="798.04,-184.93 789.01,-190.48 799.53,-191.77 798.04,-184.93"/>
</g>
<!-- Node15 -->
<g id="node15" class="node">
<title>Node15</title>
<g id="a_node15"><a xlink:href="../../d8/da5/vpiece__p_8h.html" target="_top" xlink:title=" ">
<polygon fill="white" stroke="black" points="1229,-123.5 1229,-153.5 1336,-153.5 1336,-123.5 1229,-123.5"/>
<text text-anchor="start" x="1237" y="-141.5" font-family="Helvetica,sans-Serif" font-size="10.00">src/libs/vpatterndb</text>
<text text-anchor="middle" x="1282.5" y="-130.5" font-family="Helvetica,sans-Serif" font-size="10.00">/vpiece_p.h</text>
</a>
</g>
</g>
<!-- Node1&#45;&gt;Node15 -->
<g id="edge18" class="edge">
<title>Node1&#45;&gt;Node15</title>
<path fill="none" stroke="midnightblue" d="M823.37,-192.98C941.6,-179.21 1135.23,-156.66 1228.69,-145.77"/>
<polygon fill="midnightblue" stroke="midnightblue" points="822.75,-189.53 813.23,-194.16 823.56,-196.48 822.75,-189.53"/>
</g>
<!-- Node2&#45;&gt;Node3 -->
<g id="edge2" class="edge">
<title>Node2&#45;&gt;Node3</title>
<path fill="none" stroke="midnightblue" d="M148.92,-122.21C133.36,-109.41 111.7,-91.59 98.99,-81.13"/>
<polygon fill="midnightblue" stroke="midnightblue" points="146.9,-125.08 156.85,-128.73 151.35,-119.68 146.9,-125.08"/>
</g>
<!-- Node4&#45;&gt;Node3 -->
<g id="edge11" class="edge">
<title>Node4&#45;&gt;Node3</title>
<path fill="none" stroke="midnightblue" d="M536.82,-127.92C447.35,-118.36 307.43,-102.85 186.5,-87 172.69,-85.19 157.8,-83.07 143.91,-81.03"/>
<polygon fill="midnightblue" stroke="midnightblue" points="536.62,-131.42 546.94,-129 537.36,-124.46 536.62,-131.42"/>
</g>
<!-- Node5 -->
<g id="node5" class="node">
<title>Node5</title>
<g id="a_node5"><a xlink:href="../../dd/d66/vdxfengine_8cpp.html" target="_top" xlink:title=" ">
<polygon fill="white" stroke="black" points="195.5,-62 195.5,-81 349.5,-81 349.5,-62 195.5,-62"/>
<text text-anchor="middle" x="272.5" y="-69" font-family="Helvetica,sans-Serif" font-size="10.00">src/libs/vdxf/vdxfengine.cpp</text>
</a>
</g>
</g>
<!-- Node4&#45;&gt;Node5 -->
<g id="edge4" class="edge">
<title>Node4&#45;&gt;Node5</title>
<path fill="none" stroke="midnightblue" d="M571.63,-127.12C501.66,-114.34 384.19,-92.89 319.23,-81.03"/>
<polygon fill="midnightblue" stroke="midnightblue" points="571.13,-130.58 581.59,-128.94 572.38,-123.7 571.13,-130.58"/>
</g>
<!-- Node6 -->
<g id="node6" class="node">
<title>Node6</title>
<g id="a_node6"><a xlink:href="../../de/da8/vbank_8cpp.html" target="_top" xlink:title=" ">
<polygon fill="white" stroke="black" points="367.5,-62 367.5,-81 511.5,-81 511.5,-62 367.5,-62"/>
<text text-anchor="middle" x="439.5" y="-69" font-family="Helvetica,sans-Serif" font-size="10.00">src/libs/vlayout/vbank.cpp</text>
</a>
</g>
</g>
<!-- Node4&#45;&gt;Node6 -->
<g id="edge5" class="edge">
<title>Node4&#45;&gt;Node6</title>
<path fill="none" stroke="midnightblue" d="M593.9,-125.6C556.43,-112.71 497.57,-92.47 464.4,-81.06"/>
<polygon fill="midnightblue" stroke="midnightblue" points="592.81,-128.93 603.4,-128.87 595.08,-122.31 592.81,-128.93"/>
</g>
<!-- Node7 -->
<g id="node7" class="node">
<title>Node7</title>
<g id="a_node7"><a xlink:href="../../d3/d39/vlayoutgenerator_8cpp.html" target="_top" xlink:title=" ">
<polygon fill="white" stroke="black" points="530,-62 530,-81 727,-81 727,-62 530,-62"/>
<text text-anchor="middle" x="628.5" y="-69" font-family="Helvetica,sans-Serif" font-size="10.00">src/libs/vlayout/vlayoutgenerator.cpp</text>
</a>
</g>
</g>
<!-- Node4&#45;&gt;Node7 -->
<g id="edge6" class="edge">
<title>Node4&#45;&gt;Node7</title>
<path fill="none" stroke="midnightblue" d="M628.5,-118.54C628.5,-106.17 628.5,-90.62 628.5,-81.13"/>
<polygon fill="midnightblue" stroke="midnightblue" points="625,-118.73 628.5,-128.73 632,-118.73 625,-118.73"/>
</g>
<!-- Node8 -->
<g id="node8" class="node">
<title>Node8</title>
<g id="a_node8"><a xlink:href="../../df/d5d/vcontour_8cpp.html" target="_top" xlink:title=" ">
<polygon fill="white" stroke="black" points="745.5,-62 745.5,-81 901.5,-81 901.5,-62 745.5,-62"/>
<text text-anchor="middle" x="823.5" y="-69" font-family="Helvetica,sans-Serif" font-size="10.00">src/libs/vlayout/vcontour.cpp</text>
</a>
</g>
</g>
<!-- Node4&#45;&gt;Node8 -->
<g id="edge7" class="edge">
<title>Node4&#45;&gt;Node8</title>
<path fill="none" stroke="midnightblue" d="M664.2,-125.6C702.86,-112.71 763.58,-92.47 797.81,-81.06"/>
<polygon fill="midnightblue" stroke="midnightblue" points="662.77,-122.39 654.39,-128.87 664.99,-129.03 662.77,-122.39"/>
</g>
<!-- Node9 -->
<g id="node9" class="node">
<title>Node9</title>
<g id="a_node9"><a xlink:href="../../d1/dd1/vlayoutpaper_8cpp.html" target="_top" xlink:title=" ">
<polygon fill="white" stroke="black" points="956.5,-0.5 956.5,-19.5 1134.5,-19.5 1134.5,-0.5 956.5,-0.5"/>
<text text-anchor="middle" x="1045.5" y="-7.5" font-family="Helvetica,sans-Serif" font-size="10.00">src/libs/vlayout/vlayoutpaper.cpp</text>
</a>
</g>
</g>
<!-- Node4&#45;&gt;Node9 -->
<g id="edge8" class="edge">
<title>Node4&#45;&gt;Node9</title>
<path fill="none" stroke="midnightblue" d="M690.05,-127.28C769.97,-113.9 900.52,-91.59 910.5,-87 930.3,-77.9 930.03,-67.57 948.5,-56 972.73,-40.83 1002.91,-27.63 1023.11,-19.51"/>
<polygon fill="midnightblue" stroke="midnightblue" points="689.37,-123.85 680.09,-128.95 690.53,-130.75 689.37,-123.85"/>
</g>
<!-- Node10 -->
<g id="node10" class="node">
<title>Node10</title>
<g id="a_node10"><a xlink:href="../../d2/d2d/vlayoutpaper__p_8h.html" target="_top" xlink:title=" ">
<polygon fill="white" stroke="black" points="958,-62 958,-81 1137,-81 1137,-62 958,-62"/>
<text text-anchor="middle" x="1047.5" y="-69" font-family="Helvetica,sans-Serif" font-size="10.00">src/libs/vlayout/vlayoutpaper_p.h</text>
</a>
</g>
</g>
<!-- Node4&#45;&gt;Node10 -->
<g id="edge9" class="edge">
<title>Node4&#45;&gt;Node10</title>
<path fill="none" stroke="midnightblue" d="M692.57,-127.38C701.93,-125.9 711.47,-124.41 720.5,-123 815.85,-108.12 926.88,-91.02 991.95,-81.03"/>
<polygon fill="midnightblue" stroke="midnightblue" points="691.83,-123.95 682.49,-128.96 692.92,-130.86 691.83,-123.95"/>
</g>
<!-- Node11 -->
<g id="node11" class="node">
<title>Node11</title>
<g id="a_node11"><a xlink:href="../../db/d5c/vposition_8h.html" target="_top" xlink:title=" ">
<polygon fill="white" stroke="black" points="1155.5,-62 1155.5,-81 1303.5,-81 1303.5,-62 1155.5,-62"/>
<text text-anchor="middle" x="1229.5" y="-69" font-family="Helvetica,sans-Serif" font-size="10.00">src/libs/vlayout/vposition.h</text>
</a>
</g>
</g>
<!-- Node4&#45;&gt;Node11 -->
<g id="edge12" class="edge">
<title>Node4&#45;&gt;Node11</title>
<path fill="none" stroke="midnightblue" d="M688.58,-127.39C699.2,-125.79 710.16,-124.25 720.5,-123 908.69,-100.23 957.48,-111.15 1145.5,-87 1158.12,-85.38 1171.75,-83.21 1184.27,-81.05"/>
<polygon fill="midnightblue" stroke="midnightblue" points="687.89,-123.96 678.54,-128.94 688.96,-130.88 687.89,-123.96"/>
</g>
<!-- Node10&#45;&gt;Node9 -->
<g id="edge10" class="edge">
<title>Node10&#45;&gt;Node9</title>
<path fill="none" stroke="midnightblue" d="M1046.87,-51.82C1046.51,-41 1046.07,-27.9 1045.79,-19.51"/>
<polygon fill="midnightblue" stroke="midnightblue" points="1043.38,-52.1 1047.21,-61.98 1050.38,-51.86 1043.38,-52.1"/>
</g>
<!-- Node11&#45;&gt;Node9 -->
<g id="edge13" class="edge">
<title>Node11&#45;&gt;Node9</title>
<path fill="none" stroke="midnightblue" d="M1193.57,-58.88C1157.8,-47.32 1103.76,-29.84 1071.81,-19.51"/>
<polygon fill="midnightblue" stroke="midnightblue" points="1192.55,-62.23 1203.14,-61.98 1194.7,-55.57 1192.55,-62.23"/>
</g>
<!-- Node12 -->
<g id="node12" class="node">
<title>Node12</title>
<g id="a_node12"><a xlink:href="../../df/d76/vposition_8cpp.html" target="_top" xlink:title=" ">
<polygon fill="white" stroke="black" points="1152,-0.5 1152,-19.5 1311,-19.5 1311,-0.5 1152,-0.5"/>
<text text-anchor="middle" x="1231.5" y="-7.5" font-family="Helvetica,sans-Serif" font-size="10.00">src/libs/vlayout/vposition.cpp</text>
</a>
</g>
</g>
<!-- Node11&#45;&gt;Node12 -->
<g id="edge14" class="edge">
<title>Node11&#45;&gt;Node12</title>
<path fill="none" stroke="midnightblue" d="M1230.13,-51.82C1230.49,-41 1230.93,-27.9 1231.21,-19.51"/>
<polygon fill="midnightblue" stroke="midnightblue" points="1226.62,-51.86 1229.79,-61.98 1233.62,-52.1 1226.62,-51.86"/>
</g>
<!-- Node16 -->
<g id="node16" class="node">
<title>Node16</title>
<g id="a_node16"><a xlink:href="../../df/d7a/vpiece_8cpp.html" target="_top" xlink:title=" ">
<polygon fill="white" stroke="black" points="1322,-56.5 1322,-86.5 1429,-86.5 1429,-56.5 1322,-56.5"/>
<text text-anchor="start" x="1330" y="-74.5" font-family="Helvetica,sans-Serif" font-size="10.00">src/libs/vpatterndb</text>
<text text-anchor="middle" x="1375.5" y="-63.5" font-family="Helvetica,sans-Serif" font-size="10.00">/vpiece.cpp</text>
</a>
</g>
</g>
<!-- Node15&#45;&gt;Node16 -->
<g id="edge19" class="edge">
<title>Node15&#45;&gt;Node16</title>
<path fill="none" stroke="midnightblue" d="M1311.19,-117.45C1325.49,-107.45 1342.45,-95.6 1355.36,-86.58"/>
<polygon fill="midnightblue" stroke="midnightblue" points="1308.87,-114.8 1302.68,-123.4 1312.88,-120.54 1308.87,-114.8"/>
</g>
</g>
</svg>
        <g id="navigator" transform="translate(0 0)" fill="#404254">
                <rect fill="#f2f5e9" fill-opacity="0.5" stroke="#606060" stroke-width=".5" x="0" y="0" width="60" height="60"/>
                <use id="zoomplus" xlink:href="#zoomPlus" x="17" y="9" onmousedown="handleZoom(evt,'in')"/>
                <use id="zoomminus" xlink:href="#zoomMin" x="42" y="9" onmousedown="handleZoom(evt,'out')"/>
                <use id="reset" xlink:href="#resetDef" x="30" y="36" onmousedown="handleReset()"/>
                <g id="arrowUp" xlink:href="#dirArrow" transform="translate(30 24)" onmousedown="handlePan(0,-1)">
                  <use xlink:href="#rim" fill="#404040">
                        <set attributeName="fill" to="#808080" begin="arrowUp.mouseover" end="arrowUp.mouseout"/>
                  </use>
                  <path fill="none" stroke="white" stroke-width="1.5" d="M0,-3.0v7 M-2.5,-0.5L0,-3.0L2.5,-0.5"/>
                </g>
                <g id="arrowRight" xlink:href="#dirArrow" transform="rotate(90) translate(36 -43)" onmousedown="handlePan(1,0)">
                  <use xlink:href="#rim" fill="#404040">
                        <set attributeName="fill" to="#808080" begin="arrowRight.mouseover" end="arrowRight.mouseout"/>
                  </use>
                  <path fill="none" stroke="white" stroke-width="1.5" d="M0,-3.0v7 M-2.5,-0.5L0,-3.0L2.5,-0.5"/>
                </g>
                <g id="arrowDown" xlink:href="#dirArrow" transform="rotate(180) translate(-30 -48)" onmousedown="handlePan(0,1)">
                  <use xlink:href="#rim" fill="#404040">
                        <set attributeName="fill" to="#808080" begin="arrowDown.mouseover" end="arrowDown.mouseout"/>
                  </use>
                  <path fill="none" stroke="white" stroke-width="1.5" d="M0,-3.0v7 M-2.5,-0.5L0,-3.0L2.5,-0.5"/>
                </g>
                <g id="arrowLeft" xlink:href="#dirArrow" transform="rotate(270) translate(-36 17)" onmousedown="handlePan(-1,0)">
                  <use xlink:href="#rim" fill="#404040">
                        <set attributeName="fill" to="#808080" begin="arrowLeft.mouseover" end="arrowLeft.mouseout"/>
                  </use>
                  <path fill="none" stroke="white" stroke-width="1.5" d="M0,-3.0v7 M-2.5,-0.5L0,-3.0L2.5,-0.5"/>
                </g>
        </g>
        <svg viewBox="0 0 15 15" width="100%" height="30px" preserveAspectRatio="xMaxYMin meet">
         <g id="arrow_out" transform="scale(0.3 0.3)">
          <a xlink:href="vpiecelabeldata_8h__dep__incl_org.svg" target="_base">
           <rect id="button" ry="5" rx="5" y="6" x="6" height="38" width="38"
                fill="#f2f5e9" fill-opacity="0.5" stroke="#606060" stroke-width="1.0"/>
           <path id="arrow"
             d="M 11.500037,31.436501 C 11.940474,20.09759 22.043105,11.32322 32.158766,21.979434 L 37.068811,17.246167 C 37.068811,17.246167 37.088388,32 37.088388,32 L 22.160133,31.978069 C 22.160133,31.978069 26.997745,27.140456 26.997745,27.140456 C 18.528582,18.264221 13.291696,25.230495 11.500037,31.436501 z"
             style="fill:#404040;"/>
          </a>
         </g>
        </svg>
</svg>
