<?xml version="1.0" encoding="UTF-8" standalone="no"?>
<!DOCTYPE svg PUBLIC "-//W3C//DTD SVG 1.1//EN"
 "http://www.w3.org/Graphics/SVG/1.1/DTD/svg11.dtd">
<!-- Generated by graphviz version 2.43.0 (0)
 -->
<!-- Title: src/libs/vmisc/vsettings.h Pages: 1 -->
<svg width="7559pt" height="229pt"
 viewBox="0.00 0.00 7558.50 229.00" xmlns="http://www.w3.org/2000/svg" xmlns:xlink="http://www.w3.org/1999/xlink">
<g id="graph0" class="graph" transform="scale(1 1) rotate(0) translate(4 225)">
<title>src/libs/vmisc/vsettings.h</title>
<polygon fill="white" stroke="transparent" points="-4,4 -4,-225 7554.5,-225 7554.5,4 -4,4"/>
<!-- Node1 -->
<g id="node1" class="node">
<title>Node1</title>
<g id="a_node1"><a xlink:title=" ">
<polygon fill="#bfbfbf" stroke="black" points="5585.5,-201.5 5585.5,-220.5 5725.5,-220.5 5725.5,-201.5 5585.5,-201.5"/>
<text text-anchor="middle" x="5655.5" y="-208.5" font-family="Helvetica,sans-Serif" font-size="10.00">src/libs/vmisc/vsettings.h</text>
</a>
</g>
</g>
<!-- Node2 -->
<g id="node2" class="node">
<title>Node2</title>
<g id="a_node2"><a xlink:href="../../d9/d02/vapplication_8h.html" target="_top" xlink:title=" ">
<polygon fill="white" stroke="black" points="2152,-134.5 2152,-164.5 2279,-164.5 2279,-134.5 2152,-134.5"/>
<text text-anchor="start" x="2160" y="-152.5" font-family="Helvetica,sans-Serif" font-size="10.00">src/app/seamly2d/core</text>
<text text-anchor="middle" x="2215.5" y="-141.5" font-family="Helvetica,sans-Serif" font-size="10.00">/vapplication.h</text>
</a>
</g>
</g>
<!-- Node1&#45;&gt;Node2 -->
<g id="edge1" class="edge">
<title>Node1&#45;&gt;Node2</title>
<path fill="none" stroke="midnightblue" d="M5575.1,-208.61C5103.38,-200.45 2701.52,-158.91 2279.01,-151.6"/>
<polygon fill="midnightblue" stroke="midnightblue" points="5575.17,-212.11 5585.23,-208.78 5575.29,-205.11 5575.17,-212.11"/>
</g>
<!-- Node25 -->
<g id="node25" class="node">
<title>Node25</title>
<g id="a_node25"><a xlink:href="../../db/d28/vsettings_8cpp.html" target="_top" xlink:title=" ">
<polygon fill="white" stroke="black" points="5483.5,-140 5483.5,-159 5635.5,-159 5635.5,-140 5483.5,-140"/>
<text text-anchor="middle" x="5559.5" y="-147" font-family="Helvetica,sans-Serif" font-size="10.00">src/libs/vmisc/vsettings.cpp</text>
</a>
</g>
</g>
<!-- Node1&#45;&gt;Node25 -->
<g id="edge24" class="edge">
<title>Node1&#45;&gt;Node25</title>
<path fill="none" stroke="midnightblue" d="M5633.05,-196.09C5614.53,-184.6 5588.83,-168.68 5573.23,-159.01"/>
<polygon fill="midnightblue" stroke="midnightblue" points="5631.4,-199.18 5641.75,-201.48 5635.09,-193.23 5631.4,-199.18"/>
</g>
<!-- Node26 -->
<g id="node26" class="node">
<title>Node26</title>
<g id="a_node26"><a xlink:href="../../d5/d74/vabstractapplication_8h.html" target="_top" xlink:title=" ">
<polygon fill="white" stroke="red" points="5654,-140 5654,-159 5849,-159 5849,-140 5654,-140"/>
<text text-anchor="middle" x="5751.5" y="-147" font-family="Helvetica,sans-Serif" font-size="10.00">src/libs/vmisc/vabstractapplication.h</text>
</a>
</g>
</g>
<!-- Node1&#45;&gt;Node26 -->
<g id="edge25" class="edge">
<title>Node1&#45;&gt;Node26</title>
<path fill="none" stroke="midnightblue" d="M5677.95,-196.09C5696.47,-184.6 5722.17,-168.68 5737.77,-159.01"/>
<polygon fill="midnightblue" stroke="midnightblue" points="5675.91,-193.23 5669.25,-201.48 5679.6,-199.18 5675.91,-193.23"/>
</g>
<!-- Node62 -->
<g id="node50" class="node">
<title>Node62</title>
<g id="a_node50"><a xlink:href="../../d2/d31/vmaingraphicsview_8cpp.html" target="_top" xlink:title=" ">
<polygon fill="white" stroke="black" points="7334.5,-73 7334.5,-92 7550.5,-92 7550.5,-73 7334.5,-73"/>
<text text-anchor="middle" x="7442.5" y="-80" font-family="Helvetica,sans-Serif" font-size="10.00">src/libs/vwidgets/vmaingraphicsview.cpp</text>
</a>
</g>
</g>
<!-- Node1&#45;&gt;Node62 -->
<g id="edge51" class="edge">
<title>Node1&#45;&gt;Node62</title>
<path fill="none" stroke="midnightblue" d="M5735.64,-206.2C5976.44,-194.43 6714.57,-155.9 7324.5,-98 7342.07,-96.33 7361.06,-94.16 7378.57,-92.01"/>
<polygon fill="midnightblue" stroke="midnightblue" points="5735.39,-202.7 5725.57,-206.69 5735.73,-209.7 5735.39,-202.7"/>
</g>
<!-- Node3 -->
<g id="node3" class="node">
<title>Node3</title>
<g id="a_node3"><a xlink:href="../../d3/dd8/vapplication_8cpp.html" target="_top" xlink:title=" ">
<polygon fill="white" stroke="black" points="0,-67.5 0,-97.5 127,-97.5 127,-67.5 0,-67.5"/>
<text text-anchor="start" x="8" y="-85.5" font-family="Helvetica,sans-Serif" font-size="10.00">src/app/seamly2d/core</text>
<text text-anchor="middle" x="63.5" y="-74.5" font-family="Helvetica,sans-Serif" font-size="10.00">/vapplication.cpp</text>
</a>
</g>
</g>
<!-- Node2&#45;&gt;Node3 -->
<g id="edge2" class="edge">
<title>Node2&#45;&gt;Node3</title>
<path fill="none" stroke="midnightblue" d="M2141.85,-148.41C1820.23,-147.74 537.1,-142.32 136.5,-98 133.42,-97.66 130.27,-97.25 127.1,-96.8"/>
<polygon fill="midnightblue" stroke="midnightblue" points="2141.98,-151.91 2151.99,-148.43 2142,-144.91 2141.98,-151.91"/>
</g>
<!-- Node4 -->
<g id="node4" class="node">
<title>Node4</title>
<g id="a_node4"><a xlink:href="../../dd/db4/abstractlayout__dialog_8cpp.html" target="_top" xlink:title=" ">
<polygon fill="white" stroke="black" points="145.5,-67.5 145.5,-97.5 291.5,-97.5 291.5,-67.5 145.5,-67.5"/>
<text text-anchor="start" x="153.5" y="-85.5" font-family="Helvetica,sans-Serif" font-size="10.00">src/app/seamly2d/dialogs</text>
<text text-anchor="middle" x="218.5" y="-74.5" font-family="Helvetica,sans-Serif" font-size="10.00">/abstractlayout_dialog.cpp</text>
</a>
</g>
</g>
<!-- Node2&#45;&gt;Node4 -->
<g id="edge3" class="edge">
<title>Node2&#45;&gt;Node4</title>
<path fill="none" stroke="midnightblue" d="M2141.46,-148.02C1835.34,-145.81 667.35,-135.06 300.5,-98 297.62,-97.71 294.7,-97.38 291.74,-97.01"/>
<polygon fill="midnightblue" stroke="midnightblue" points="2141.53,-151.52 2151.56,-148.09 2141.58,-144.52 2141.53,-151.52"/>
</g>
<!-- Node5 -->
<g id="node5" class="node">
<title>Node5</title>
<g id="a_node5"><a xlink:href="../../d7/dfa/calculator__dialog_8cpp.html" target="_top" xlink:title=" ">
<polygon fill="white" stroke="black" points="310,-67.5 310,-97.5 451,-97.5 451,-67.5 310,-67.5"/>
<text text-anchor="start" x="318" y="-85.5" font-family="Helvetica,sans-Serif" font-size="10.00">src/app/seamly2d/dialogs</text>
<text text-anchor="middle" x="380.5" y="-74.5" font-family="Helvetica,sans-Serif" font-size="10.00">/calculator_dialog.cpp</text>
</a>
</g>
</g>
<!-- Node2&#45;&gt;Node5 -->
<g id="edge4" class="edge">
<title>Node2&#45;&gt;Node5</title>
<path fill="none" stroke="midnightblue" d="M2141.49,-147.88C1851.67,-145.21 793.37,-133.23 459.5,-98 456.73,-97.71 453.9,-97.37 451.06,-97"/>
<polygon fill="midnightblue" stroke="midnightblue" points="2141.85,-151.38 2151.88,-147.97 2141.92,-144.38 2141.85,-151.38"/>
</g>
<!-- Node6 -->
<g id="node6" class="node">
<title>Node6</title>
<g id="a_node6"><a xlink:href="../../d2/d2d/preferencesconfigurationpage_8cpp.html" target="_top" xlink:title=" ">
<polygon fill="white" stroke="black" points="469,-67.5 469,-97.5 716,-97.5 716,-67.5 469,-67.5"/>
<text text-anchor="start" x="477" y="-85.5" font-family="Helvetica,sans-Serif" font-size="10.00">src/app/seamly2d/dialogs</text>
<text text-anchor="middle" x="592.5" y="-74.5" font-family="Helvetica,sans-Serif" font-size="10.00">/configpages/preferencesconfigurationpage.cpp</text>
</a>
</g>
</g>
<!-- Node2&#45;&gt;Node6 -->
<g id="edge5" class="edge">
<title>Node2&#45;&gt;Node6</title>
<path fill="none" stroke="midnightblue" d="M2141.87,-147.95C1924.77,-145.91 1268.4,-136.74 725.5,-98 722.37,-97.78 719.2,-97.54 716.01,-97.28"/>
<polygon fill="midnightblue" stroke="midnightblue" points="2141.84,-151.45 2151.87,-148.04 2141.91,-144.45 2141.84,-151.45"/>
</g>
<!-- Node7 -->
<g id="node7" class="node">
<title>Node7</title>
<g id="a_node7"><a xlink:href="../../d9/d70/preferencesgraphicsviewpage_8cpp.html" target="_top" xlink:title=" ">
<polygon fill="white" stroke="black" points="734.5,-67.5 734.5,-97.5 982.5,-97.5 982.5,-67.5 734.5,-67.5"/>
<text text-anchor="start" x="742.5" y="-85.5" font-family="Helvetica,sans-Serif" font-size="10.00">src/app/seamly2d/dialogs</text>
<text text-anchor="middle" x="858.5" y="-74.5" font-family="Helvetica,sans-Serif" font-size="10.00">/configpages/preferencesgraphicsviewpage.cpp</text>
</a>
</g>
</g>
<!-- Node2&#45;&gt;Node7 -->
<g id="edge6" class="edge">
<title>Node2&#45;&gt;Node7</title>
<path fill="none" stroke="midnightblue" d="M2141.51,-147.18C1950.76,-143.41 1426.75,-130.67 991.5,-98 988.6,-97.78 985.68,-97.55 982.72,-97.31"/>
<polygon fill="midnightblue" stroke="midnightblue" points="2141.63,-150.69 2151.7,-147.38 2141.77,-143.69 2141.63,-150.69"/>
</g>
<!-- Node8 -->
<g id="node8" class="node">
<title>Node8</title>
<g id="a_node8"><a xlink:href="../../d2/d00/vtooloptionspropertybrowser_8cpp.html" target="_top" xlink:title=" ">
<polygon fill="white" stroke="black" points="1000.5,-67.5 1000.5,-97.5 1180.5,-97.5 1180.5,-67.5 1000.5,-67.5"/>
<text text-anchor="start" x="1008.5" y="-85.5" font-family="Helvetica,sans-Serif" font-size="10.00">src/app/seamly2d/core</text>
<text text-anchor="middle" x="1090.5" y="-74.5" font-family="Helvetica,sans-Serif" font-size="10.00">/vtooloptionspropertybrowser.cpp</text>
</a>
</g>
</g>
<!-- Node2&#45;&gt;Node8 -->
<g id="edge7" class="edge">
<title>Node2&#45;&gt;Node8</title>
<path fill="none" stroke="midnightblue" d="M2141.68,-147.3C1972.76,-144.03 1545.21,-132.72 1189.5,-98 1186.56,-97.71 1183.58,-97.4 1180.56,-97.07"/>
<polygon fill="midnightblue" stroke="midnightblue" points="2141.64,-150.8 2151.71,-147.49 2141.78,-143.8 2141.64,-150.8"/>
</g>
<!-- Node9 -->
<g id="node9" class="node">
<title>Node9</title>
<g id="a_node9"><a xlink:href="../../dc/d20/preferencespathpage_8cpp.html" target="_top" xlink:title=" ">
<polygon fill="white" stroke="black" points="1199,-67.5 1199,-97.5 1404,-97.5 1404,-67.5 1199,-67.5"/>
<text text-anchor="start" x="1207" y="-85.5" font-family="Helvetica,sans-Serif" font-size="10.00">src/app/seamly2d/dialogs</text>
<text text-anchor="middle" x="1301.5" y="-74.5" font-family="Helvetica,sans-Serif" font-size="10.00">/configpages/preferencespathpage.cpp</text>
</a>
</g>
</g>
<!-- Node2&#45;&gt;Node9 -->
<g id="edge8" class="edge">
<title>Node2&#45;&gt;Node9</title>
<path fill="none" stroke="midnightblue" d="M2141.59,-145.51C1999.91,-139.42 1680.39,-123.89 1412.5,-98 1409.79,-97.74 1407.05,-97.46 1404.28,-97.17"/>
<polygon fill="midnightblue" stroke="midnightblue" points="2141.75,-149.02 2151.89,-145.95 2142.04,-142.03 2141.75,-149.02"/>
</g>
<!-- Node10 -->
<g id="node10" class="node">
<title>Node10</title>
<g id="a_node10"><a xlink:href="../../dd/dc2/decimalchart__dialog_8cpp.html" target="_top" xlink:title=" ">
<polygon fill="white" stroke="black" points="1422,-67.5 1422,-97.5 1563,-97.5 1563,-67.5 1422,-67.5"/>
<text text-anchor="start" x="1430" y="-85.5" font-family="Helvetica,sans-Serif" font-size="10.00">src/app/seamly2d/dialogs</text>
<text text-anchor="middle" x="1492.5" y="-74.5" font-family="Helvetica,sans-Serif" font-size="10.00">/decimalchart_dialog.cpp</text>
</a>
</g>
</g>
<!-- Node2&#45;&gt;Node10 -->
<g id="edge9" class="edge">
<title>Node2&#45;&gt;Node10</title>
<path fill="none" stroke="midnightblue" d="M2141.7,-145.13C2021.88,-139.11 1777.78,-124.6 1572.5,-98 1569.42,-97.6 1566.28,-97.16 1563.11,-96.7"/>
<polygon fill="midnightblue" stroke="midnightblue" points="2141.69,-148.63 2151.85,-145.63 2142.04,-141.64 2141.69,-148.63"/>
</g>
<!-- Node11 -->
<g id="node11" class="node">
<title>Node11</title>
<g id="a_node11"><a xlink:href="../../dc/d63/preferencespatternpage_8cpp.html" target="_top" xlink:title=" ">
<polygon fill="white" stroke="black" points="1581.5,-67.5 1581.5,-97.5 1799.5,-97.5 1799.5,-67.5 1581.5,-67.5"/>
<text text-anchor="start" x="1589.5" y="-85.5" font-family="Helvetica,sans-Serif" font-size="10.00">src/app/seamly2d/dialogs</text>
<text text-anchor="middle" x="1690.5" y="-74.5" font-family="Helvetica,sans-Serif" font-size="10.00">/configpages/preferencespatternpage.cpp</text>
</a>
</g>
</g>
<!-- Node2&#45;&gt;Node11 -->
<g id="edge10" class="edge">
<title>Node2&#45;&gt;Node11</title>
<path fill="none" stroke="midnightblue" d="M2141.9,-139.39C2052.87,-128.36 1902.2,-109.71 1799.64,-97.01"/>
<polygon fill="midnightblue" stroke="midnightblue" points="2141.56,-142.87 2151.91,-140.63 2142.42,-135.92 2141.56,-142.87"/>
</g>
<!-- Node12 -->
<g id="node12" class="node">
<title>Node12</title>
<g id="a_node12"><a xlink:href="../../dd/d64/dialogaboutapp_8cpp.html" target="_top" xlink:title=" ">
<polygon fill="white" stroke="black" points="1818,-67.5 1818,-97.5 1959,-97.5 1959,-67.5 1818,-67.5"/>
<text text-anchor="start" x="1826" y="-85.5" font-family="Helvetica,sans-Serif" font-size="10.00">src/app/seamly2d/dialogs</text>
<text text-anchor="middle" x="1888.5" y="-74.5" font-family="Helvetica,sans-Serif" font-size="10.00">/dialogaboutapp.cpp</text>
</a>
</g>
</g>
<!-- Node2&#45;&gt;Node12 -->
<g id="edge11" class="edge">
<title>Node2&#45;&gt;Node12</title>
<path fill="none" stroke="midnightblue" d="M2141.69,-133.83C2086.98,-122.95 2012.87,-108.22 1958.97,-97.51"/>
<polygon fill="midnightblue" stroke="midnightblue" points="2141.18,-137.3 2151.67,-135.81 2142.55,-130.43 2141.18,-137.3"/>
</g>
<!-- Node13 -->
<g id="node13" class="node">
<title>Node13</title>
<g id="a_node13"><a xlink:href="../../d6/d89/dialoglayoutprogress_8cpp.html" target="_top" xlink:title=" ">
<polygon fill="white" stroke="black" points="1977,-67.5 1977,-97.5 2120,-97.5 2120,-67.5 1977,-67.5"/>
<text text-anchor="start" x="1985" y="-85.5" font-family="Helvetica,sans-Serif" font-size="10.00">src/app/seamly2d/dialogs</text>
<text text-anchor="middle" x="2048.5" y="-74.5" font-family="Helvetica,sans-Serif" font-size="10.00">/dialoglayoutprogress.cpp</text>
</a>
</g>
</g>
<!-- Node2&#45;&gt;Node13 -->
<g id="edge12" class="edge">
<title>Node2&#45;&gt;Node13</title>
<path fill="none" stroke="midnightblue" d="M2169.72,-130.68C2142.94,-120.26 2109.6,-107.28 2084.67,-97.58"/>
<polygon fill="midnightblue" stroke="midnightblue" points="2168.67,-134.03 2179.26,-134.4 2171.21,-127.51 2168.67,-134.03"/>
</g>
<!-- Node14 -->
<g id="node14" class="node">
<title>Node14</title>
<g id="a_node14"><a xlink:href="../../d5/d18/dialogpatternproperties_8cpp.html" target="_top" xlink:title=" ">
<polygon fill="white" stroke="black" points="2138,-67.5 2138,-97.5 2293,-97.5 2293,-67.5 2138,-67.5"/>
<text text-anchor="start" x="2146" y="-85.5" font-family="Helvetica,sans-Serif" font-size="10.00">src/app/seamly2d/dialogs</text>
<text text-anchor="middle" x="2215.5" y="-74.5" font-family="Helvetica,sans-Serif" font-size="10.00">/dialogpatternproperties.cpp</text>
</a>
</g>
</g>
<!-- Node2&#45;&gt;Node14 -->
<g id="edge13" class="edge">
<title>Node2&#45;&gt;Node14</title>
<path fill="none" stroke="midnightblue" d="M2215.5,-124.11C2215.5,-115.15 2215.5,-105.32 2215.5,-97.58"/>
<polygon fill="midnightblue" stroke="midnightblue" points="2212,-124.4 2215.5,-134.4 2219,-124.4 2212,-124.4"/>
</g>
<!-- Node15 -->
<g id="node15" class="node">
<title>Node15</title>
<g id="a_node15"><a xlink:href="../../d5/dc5/dialogpreferences_8cpp.html" target="_top" xlink:title=" ">
<polygon fill="white" stroke="black" points="2311,-67.5 2311,-97.5 2452,-97.5 2452,-67.5 2311,-67.5"/>
<text text-anchor="start" x="2319" y="-85.5" font-family="Helvetica,sans-Serif" font-size="10.00">src/app/seamly2d/dialogs</text>
<text text-anchor="middle" x="2381.5" y="-74.5" font-family="Helvetica,sans-Serif" font-size="10.00">/dialogpreferences.cpp</text>
</a>
</g>
</g>
<!-- Node2&#45;&gt;Node15 -->
<g id="edge14" class="edge">
<title>Node2&#45;&gt;Node15</title>
<path fill="none" stroke="midnightblue" d="M2261.01,-130.68C2287.63,-120.26 2320.77,-107.28 2345.55,-97.58"/>
<polygon fill="midnightblue" stroke="midnightblue" points="2259.55,-127.49 2251.52,-134.4 2262.11,-134.01 2259.55,-127.49"/>
</g>
<!-- Node16 -->
<g id="node16" class="node">
<title>Node16</title>
<g id="a_node16"><a xlink:href="../../dd/d54/export__layout__dialog_8cpp.html" target="_top" xlink:title=" ">
<polygon fill="white" stroke="black" points="2470,-67.5 2470,-97.5 2613,-97.5 2613,-67.5 2470,-67.5"/>
<text text-anchor="start" x="2478" y="-85.5" font-family="Helvetica,sans-Serif" font-size="10.00">src/app/seamly2d/dialogs</text>
<text text-anchor="middle" x="2541.5" y="-74.5" font-family="Helvetica,sans-Serif" font-size="10.00">/export_layout_dialog.cpp</text>
</a>
</g>
</g>
<!-- Node2&#45;&gt;Node16 -->
<g id="edge15" class="edge">
<title>Node2&#45;&gt;Node16</title>
<path fill="none" stroke="midnightblue" d="M2289.08,-133.83C2343.62,-122.95 2417.51,-108.22 2471.25,-97.51"/>
<polygon fill="midnightblue" stroke="midnightblue" points="2288.25,-130.43 2279.13,-135.81 2289.62,-137.29 2288.25,-130.43"/>
</g>
<!-- Node17 -->
<g id="node17" class="node">
<title>Node17</title>
<g id="a_node17"><a xlink:href="../../db/d5c/groups__widget_8cpp.html" target="_top" xlink:title=" ">
<polygon fill="white" stroke="black" points="2631,-67.5 2631,-97.5 2772,-97.5 2772,-67.5 2631,-67.5"/>
<text text-anchor="start" x="2639" y="-85.5" font-family="Helvetica,sans-Serif" font-size="10.00">src/app/seamly2d/dialogs</text>
<text text-anchor="middle" x="2701.5" y="-74.5" font-family="Helvetica,sans-Serif" font-size="10.00">/groups_widget.cpp</text>
</a>
</g>
</g>
<!-- Node2&#45;&gt;Node17 -->
<g id="edge16" class="edge">
<title>Node2&#45;&gt;Node17</title>
<path fill="none" stroke="midnightblue" d="M2289.45,-140.55C2370.96,-131.5 2505.85,-115.66 2621.5,-98 2624.57,-97.53 2627.7,-97.04 2630.87,-96.52"/>
<polygon fill="midnightblue" stroke="midnightblue" points="2288.85,-137.1 2279.29,-141.67 2289.62,-144.05 2288.85,-137.1"/>
</g>
<!-- Node18 -->
<g id="node18" class="node">
<title>Node18</title>
<g id="a_node18"><a xlink:href="../../d0/dfa/layoutsettings__dialog_8cpp.html" target="_top" xlink:title=" ">
<polygon fill="white" stroke="black" points="2790,-67.5 2790,-97.5 2935,-97.5 2935,-67.5 2790,-67.5"/>
<text text-anchor="start" x="2798" y="-85.5" font-family="Helvetica,sans-Serif" font-size="10.00">src/app/seamly2d/dialogs</text>
<text text-anchor="middle" x="2862.5" y="-74.5" font-family="Helvetica,sans-Serif" font-size="10.00">/layoutsettings_dialog.cpp</text>
</a>
</g>
</g>
<!-- Node2&#45;&gt;Node18 -->
<g id="edge17" class="edge">
<title>Node2&#45;&gt;Node18</title>
<path fill="none" stroke="midnightblue" d="M2289.4,-143.93C2397.52,-136.78 2605.07,-121.31 2780.5,-98 2783.51,-97.6 2786.58,-97.17 2789.67,-96.71"/>
<polygon fill="midnightblue" stroke="midnightblue" points="2289,-140.45 2279.25,-144.59 2289.45,-147.43 2289,-140.45"/>
</g>
<!-- Node19 -->
<g id="node19" class="node">
<title>Node19</title>
<g id="a_node19"><a xlink:href="../../dd/d84/shortcuts__dialog_8cpp.html" target="_top" xlink:title=" ">
<polygon fill="white" stroke="black" points="2953,-67.5 2953,-97.5 3094,-97.5 3094,-67.5 2953,-67.5"/>
<text text-anchor="start" x="2961" y="-85.5" font-family="Helvetica,sans-Serif" font-size="10.00">src/app/seamly2d/dialogs</text>
<text text-anchor="middle" x="3023.5" y="-74.5" font-family="Helvetica,sans-Serif" font-size="10.00">/shortcuts_dialog.cpp</text>
</a>
</g>
</g>
<!-- Node2&#45;&gt;Node19 -->
<g id="edge18" class="edge">
<title>Node2&#45;&gt;Node19</title>
<path fill="none" stroke="midnightblue" d="M2289.39,-146.06C2421.21,-141.11 2705.43,-127.74 2943.5,-98 2946.58,-97.62 2949.72,-97.19 2952.89,-96.73"/>
<polygon fill="midnightblue" stroke="midnightblue" points="2288.89,-142.58 2279.02,-146.45 2289.14,-149.57 2288.89,-142.58"/>
</g>
<!-- Node20 -->
<g id="node20" class="node">
<title>Node20</title>
<g id="a_node20"><a xlink:href="../../dc/d14/app_2seamly2d_2main_8cpp.html" target="_top" xlink:title=" ">
<polygon fill="white" stroke="black" points="3112,-73 3112,-92 3263,-92 3263,-73 3112,-73"/>
<text text-anchor="middle" x="3187.5" y="-80" font-family="Helvetica,sans-Serif" font-size="10.00">src/app/seamly2d/main.cpp</text>
</a>
</g>
</g>
<!-- Node2&#45;&gt;Node20 -->
<g id="edge19" class="edge">
<title>Node2&#45;&gt;Node20</title>
<path fill="none" stroke="midnightblue" d="M2289.34,-147.09C2441.76,-143.57 2802.12,-132.06 3102.5,-98 3115.74,-96.5 3130.05,-94.29 3143.08,-92.04"/>
<polygon fill="midnightblue" stroke="midnightblue" points="2289.08,-143.6 2279.16,-147.32 2289.24,-150.59 2289.08,-143.6"/>
</g>
<!-- Node21 -->
<g id="node21" class="node">
<title>Node21</title>
<g id="a_node21"><a xlink:href="../../d2/df4/show__info__dialog_8cpp.html" target="_top" xlink:title=" ">
<polygon fill="white" stroke="black" points="3281,-67.5 3281,-97.5 3422,-97.5 3422,-67.5 3281,-67.5"/>
<text text-anchor="start" x="3289" y="-85.5" font-family="Helvetica,sans-Serif" font-size="10.00">src/app/seamly2d/dialogs</text>
<text text-anchor="middle" x="3351.5" y="-74.5" font-family="Helvetica,sans-Serif" font-size="10.00">/show_info_dialog.cpp</text>
</a>
</g>
</g>
<!-- Node2&#45;&gt;Node21 -->
<g id="edge20" class="edge">
<title>Node2&#45;&gt;Node21</title>
<path fill="none" stroke="midnightblue" d="M2289.35,-148.3C2461.85,-147.11 2904.47,-139.85 3271.5,-98 3274.59,-97.65 3277.73,-97.25 3280.9,-96.82"/>
<polygon fill="midnightblue" stroke="midnightblue" points="2289.09,-144.8 2279.12,-148.37 2289.14,-151.8 2289.09,-144.8"/>
</g>
<!-- Node22 -->
<g id="node22" class="node">
<title>Node22</title>
<g id="a_node22"><a xlink:href="../../d8/de8/mainwindowsnogui_8cpp.html" target="_top" xlink:title=" ">
<polygon fill="white" stroke="black" points="3440,-73 3440,-92 3661,-92 3661,-73 3440,-73"/>
<text text-anchor="middle" x="3550.5" y="-80" font-family="Helvetica,sans-Serif" font-size="10.00">src/app/seamly2d/mainwindowsnogui.cpp</text>
</a>
</g>
</g>
<!-- Node2&#45;&gt;Node22 -->
<g id="edge21" class="edge">
<title>Node2&#45;&gt;Node22</title>
<path fill="none" stroke="midnightblue" d="M2289.31,-147.45C2478.99,-144.33 2998.91,-132.99 3430.5,-98 3449.12,-96.49 3469.29,-94.28 3487.69,-92.03"/>
<polygon fill="midnightblue" stroke="midnightblue" points="2289.12,-143.96 2279.17,-147.62 2289.23,-150.96 2289.12,-143.96"/>
</g>
<!-- Node23 -->
<g id="node23" class="node">
<title>Node23</title>
<g id="a_node23"><a xlink:href="../../d3/d49/vpattern_8cpp.html" target="_top" xlink:title=" ">
<polygon fill="white" stroke="black" points="3679,-67.5 3679,-97.5 3804,-97.5 3804,-67.5 3679,-67.5"/>
<text text-anchor="start" x="3687" y="-85.5" font-family="Helvetica,sans-Serif" font-size="10.00">src/app/seamly2d/xml</text>
<text text-anchor="middle" x="3741.5" y="-74.5" font-family="Helvetica,sans-Serif" font-size="10.00">/vpattern.cpp</text>
</a>
</g>
</g>
<!-- Node2&#45;&gt;Node23 -->
<g id="edge22" class="edge">
<title>Node2&#45;&gt;Node23</title>
<path fill="none" stroke="midnightblue" d="M2289.71,-147.53C2546.76,-143.93 3398.1,-129.82 3669.5,-98 3672.54,-97.64 3675.64,-97.23 3678.77,-96.76"/>
<polygon fill="midnightblue" stroke="midnightblue" points="2289.32,-144.04 2279.37,-147.68 2289.42,-151.04 2289.32,-144.04"/>
</g>
<!-- Node24 -->
<g id="node24" class="node">
<title>Node24</title>
<g id="a_node24"><a xlink:href="../../d8/dd9/mainwindow_8cpp.html" target="_top" xlink:title=" ">
<polygon fill="white" stroke="black" points="3822.5,-73 3822.5,-92 4010.5,-92 4010.5,-73 3822.5,-73"/>
<text text-anchor="middle" x="3916.5" y="-80" font-family="Helvetica,sans-Serif" font-size="10.00">src/app/seamly2d/mainwindow.cpp</text>
</a>
</g>
</g>
<!-- Node2&#45;&gt;Node24 -->
<g id="edge23" class="edge">
<title>Node2&#45;&gt;Node24</title>
<path fill="none" stroke="midnightblue" d="M2289.31,-148.97C2516.75,-149.81 3226.91,-147.94 3812.5,-98 3829.12,-96.58 3847.15,-94.33 3863.45,-92.01"/>
<polygon fill="midnightblue" stroke="midnightblue" points="2289.18,-145.47 2279.16,-148.93 2289.15,-152.47 2289.18,-145.47"/>
</g>
<!-- Node27 -->
<g id="node27" class="node">
<title>Node27</title>
<g id="a_node27"><a xlink:href="../../d4/d90/fvupdater_8cpp.html" target="_top" xlink:title=" ">
<polygon fill="white" stroke="black" points="4029,-73 4029,-92 4182,-92 4182,-73 4029,-73"/>
<text text-anchor="middle" x="4105.5" y="-80" font-family="Helvetica,sans-Serif" font-size="10.00">src/libs/fervor/fvupdater.cpp</text>
</a>
</g>
</g>
<!-- Node26&#45;&gt;Node27 -->
<g id="edge26" class="edge">
<title>Node26&#45;&gt;Node27</title>
<path fill="none" stroke="midnightblue" d="M5687.14,-138.61C5673.11,-136.78 5658.33,-135.11 5644.5,-134 5000.13,-82.52 4833.89,-160.51 4190.5,-98 4176.64,-96.65 4161.64,-94.37 4148.14,-92.01"/>
<polygon fill="midnightblue" stroke="midnightblue" points="5686.81,-142.1 5697.19,-139.96 5687.75,-135.16 5686.81,-142.1"/>
</g>
<!-- Node28 -->
<g id="node28" class="node">
<title>Node28</title>
<g id="a_node28"><a xlink:href="../../d9/dc8/dxiface_8cpp.html" target="_top" xlink:title=" ">
<polygon fill="white" stroke="black" points="4200,-73 4200,-92 4335,-92 4335,-73 4200,-73"/>
<text text-anchor="middle" x="4267.5" y="-80" font-family="Helvetica,sans-Serif" font-size="10.00">src/libs/vdxf/dxiface.cpp</text>
</a>
</g>
</g>
<!-- Node26&#45;&gt;Node28 -->
<g id="edge27" class="edge">
<title>Node26&#45;&gt;Node28</title>
<path fill="none" stroke="midnightblue" d="M5687.14,-138.64C5673.11,-136.81 5658.33,-135.13 5644.5,-134 5067.96,-87.09 4918.57,-160.4 4343.5,-98 4331.08,-96.65 4317.65,-94.37 4305.59,-92.01"/>
<polygon fill="midnightblue" stroke="midnightblue" points="5686.81,-142.13 5697.19,-139.99 5687.74,-135.19 5686.81,-142.13"/>
</g>
<!-- Node29 -->
<g id="node29" class="node">
<title>Node29</title>
<g id="a_node29"><a xlink:href="../../da/d75/vabstractarc__p_8h.html" target="_top" xlink:title=" ">
<polygon fill="white" stroke="red" points="4353,-67.5 4353,-97.5 4460,-97.5 4460,-67.5 4353,-67.5"/>
<text text-anchor="start" x="4361" y="-85.5" font-family="Helvetica,sans-Serif" font-size="10.00">src/libs/vgeometry</text>
<text text-anchor="middle" x="4406.5" y="-74.5" font-family="Helvetica,sans-Serif" font-size="10.00">/vabstractarc_p.h</text>
</a>
</g>
</g>
<!-- Node26&#45;&gt;Node29 -->
<g id="edge28" class="edge">
<title>Node26&#45;&gt;Node29</title>
<path fill="none" stroke="midnightblue" d="M5686.9,-138.64C5672.95,-136.82 5658.26,-135.14 5644.5,-134 5123.37,-90.83 4986.99,-165.88 4468.5,-98 4465.76,-97.64 4462.96,-97.21 4460.15,-96.74"/>
<polygon fill="midnightblue" stroke="midnightblue" points="5686.53,-142.12 5696.91,-139.99 5687.47,-135.19 5686.53,-142.12"/>
</g>
<!-- Node31 -->
<g id="node30" class="node">
<title>Node31</title>
<g id="a_node30"><a xlink:href="../../dc/da3/varc__p_8h.html" target="_top" xlink:title=" ">
<polygon fill="white" stroke="red" points="4478,-67.5 4478,-97.5 4585,-97.5 4585,-67.5 4478,-67.5"/>
<text text-anchor="start" x="4486" y="-85.5" font-family="Helvetica,sans-Serif" font-size="10.00">src/libs/vgeometry</text>
<text text-anchor="middle" x="4531.5" y="-74.5" font-family="Helvetica,sans-Serif" font-size="10.00">/varc_p.h</text>
</a>
</g>
</g>
<!-- Node26&#45;&gt;Node31 -->
<g id="edge29" class="edge">
<title>Node26&#45;&gt;Node31</title>
<path fill="none" stroke="midnightblue" d="M5686.67,-138.65C5672.79,-136.84 5658.18,-135.16 5644.5,-134 5178.78,-94.57 5056.82,-159.51 4593.5,-98 4590.76,-97.64 4587.96,-97.21 4585.15,-96.72"/>
<polygon fill="midnightblue" stroke="midnightblue" points="5686.26,-142.13 5696.63,-139.99 5687.19,-135.19 5686.26,-142.13"/>
</g>
<!-- Node33 -->
<g id="node31" class="node">
<title>Node33</title>
<g id="a_node31"><a xlink:href="../../d5/d8e/vcubicbezier__p_8h.html" target="_top" xlink:title=" ">
<polygon fill="white" stroke="red" points="4603,-67.5 4603,-97.5 4710,-97.5 4710,-67.5 4603,-67.5"/>
<text text-anchor="start" x="4611" y="-85.5" font-family="Helvetica,sans-Serif" font-size="10.00">src/libs/vgeometry</text>
<text text-anchor="middle" x="4656.5" y="-74.5" font-family="Helvetica,sans-Serif" font-size="10.00">/vcubicbezier_p.h</text>
</a>
</g>
</g>
<!-- Node26&#45;&gt;Node33 -->
<g id="edge30" class="edge">
<title>Node26&#45;&gt;Node33</title>
<path fill="none" stroke="midnightblue" d="M5685.81,-138.59C5672.18,-136.82 5657.89,-135.17 5644.5,-134 5236.84,-98.48 5130.53,-148.85 4724.5,-98 4719.83,-97.41 4715,-96.67 4710.18,-95.83"/>
<polygon fill="midnightblue" stroke="midnightblue" points="5685.7,-142.11 5696.08,-139.96 5686.63,-135.17 5685.7,-142.11"/>
</g>
<!-- Node35 -->
<g id="node32" class="node">
<title>Node35</title>
<g id="a_node32"><a xlink:href="../../d6/dfb/vellipticalarc_8cpp.html" target="_top" xlink:title=" ">
<polygon fill="white" stroke="black" points="4726,-0.5 4726,-30.5 4833,-30.5 4833,-0.5 4726,-0.5"/>
<text text-anchor="start" x="4734" y="-18.5" font-family="Helvetica,sans-Serif" font-size="10.00">src/libs/vgeometry</text>
<text text-anchor="middle" x="4779.5" y="-7.5" font-family="Helvetica,sans-Serif" font-size="10.00">/vellipticalarc.cpp</text>
</a>
</g>
</g>
<!-- Node26&#45;&gt;Node35 -->
<g id="edge31" class="edge">
<title>Node26&#45;&gt;Node35</title>
<path fill="none" stroke="midnightblue" d="M5685.81,-138.61C5672.18,-136.83 5657.89,-135.18 5644.5,-134 5595.37,-129.68 4791.66,-133.57 4757.5,-98 4739.84,-79.61 4756.35,-48.57 4768.74,-30.57"/>
<polygon fill="midnightblue" stroke="midnightblue" points="5685.7,-142.12 5696.08,-139.98 5686.63,-135.18 5685.7,-142.12"/>
</g>
<!-- Node36 -->
<g id="node33" class="node">
<title>Node36</title>
<g id="a_node33"><a xlink:href="../../df/dde/vellipticalarc__p_8h.html" target="_top" xlink:title=" ">
<polygon fill="white" stroke="black" points="4767,-67.5 4767,-97.5 4874,-97.5 4874,-67.5 4767,-67.5"/>
<text text-anchor="start" x="4775" y="-85.5" font-family="Helvetica,sans-Serif" font-size="10.00">src/libs/vgeometry</text>
<text text-anchor="middle" x="4820.5" y="-74.5" font-family="Helvetica,sans-Serif" font-size="10.00">/vellipticalarc_p.h</text>
</a>
</g>
</g>
<!-- Node26&#45;&gt;Node36 -->
<g id="edge32" class="edge">
<title>Node26&#45;&gt;Node36</title>
<path fill="none" stroke="midnightblue" d="M5685.35,-138.62C5671.86,-136.86 5657.74,-135.21 5644.5,-134 5306.86,-103.21 5218.3,-144.8 4882.5,-98 4879.76,-97.62 4876.97,-97.17 4874.16,-96.68"/>
<polygon fill="midnightblue" stroke="midnightblue" points="5685.14,-142.12 5695.52,-139.97 5686.07,-135.18 5685.14,-142.12"/>
</g>
<!-- Node37 -->
<g id="node34" class="node">
<title>Node37</title>
<g id="a_node34"><a xlink:href="../../d1/d76/vspline__p_8h.html" target="_top" xlink:title=" ">
<polygon fill="white" stroke="red" points="4892,-67.5 4892,-97.5 4999,-97.5 4999,-67.5 4892,-67.5"/>
<text text-anchor="start" x="4900" y="-85.5" font-family="Helvetica,sans-Serif" font-size="10.00">src/libs/vgeometry</text>
<text text-anchor="middle" x="4945.5" y="-74.5" font-family="Helvetica,sans-Serif" font-size="10.00">/vspline_p.h</text>
</a>
</g>
</g>
<!-- Node26&#45;&gt;Node37 -->
<g id="edge34" class="edge">
<title>Node26&#45;&gt;Node37</title>
<path fill="none" stroke="midnightblue" d="M5684.88,-138.65C5671.53,-136.91 5657.59,-135.26 5644.5,-134 5362.67,-106.97 5288.79,-137.89 5008.5,-98 5005.39,-97.56 5002.2,-97.04 4999,-96.46"/>
<polygon fill="midnightblue" stroke="midnightblue" points="5684.58,-142.14 5694.95,-140 5685.51,-135.2 5684.58,-142.14"/>
</g>
<!-- Node39 -->
<g id="node35" class="node">
<title>Node39</title>
<g id="a_node35"><a xlink:href="../../d9/d15/vabstractpiece_8cpp.html" target="_top" xlink:title=" ">
<polygon fill="white" stroke="black" points="5017.5,-73 5017.5,-92 5203.5,-92 5203.5,-73 5017.5,-73"/>
<text text-anchor="middle" x="5110.5" y="-80" font-family="Helvetica,sans-Serif" font-size="10.00">src/libs/vlayout/vabstractpiece.cpp</text>
</a>
</g>
</g>
<!-- Node26&#45;&gt;Node39 -->
<g id="edge35" class="edge">
<title>Node26&#45;&gt;Node39</title>
<path fill="none" stroke="midnightblue" d="M5682.66,-138.64C5669.98,-136.97 5656.85,-135.35 5644.5,-134 5452.53,-113.03 5403.38,-119.73 5211.5,-98 5196.63,-96.32 5180.57,-94.16 5165.73,-92.04"/>
<polygon fill="midnightblue" stroke="midnightblue" points="5682.32,-142.12 5692.7,-139.98 5683.25,-135.18 5682.32,-142.12"/>
</g>
<!-- Node40 -->
<g id="node36" class="node">
<title>Node40</title>
<g id="a_node36"><a xlink:href="../../dd/d70/vlayoutpiece_8cpp.html" target="_top" xlink:title=" ">
<polygon fill="white" stroke="black" points="5221,-73 5221,-92 5398,-92 5398,-73 5221,-73"/>
<text text-anchor="middle" x="5309.5" y="-80" font-family="Helvetica,sans-Serif" font-size="10.00">src/libs/vlayout/vlayoutpiece.cpp</text>
</a>
</g>
</g>
<!-- Node26&#45;&gt;Node40 -->
<g id="edge36" class="edge">
<title>Node26&#45;&gt;Node40</title>
<path fill="none" stroke="midnightblue" d="M5683.44,-138.53C5614.04,-128.36 5503.26,-112.11 5407.5,-98 5394.4,-96.07 5380.31,-93.99 5367.02,-92.02"/>
<polygon fill="midnightblue" stroke="midnightblue" points="5682.97,-142 5693.37,-139.99 5683.98,-135.07 5682.97,-142"/>
</g>
<!-- Node41 -->
<g id="node37" class="node">
<title>Node41</title>
<g id="a_node37"><a xlink:href="../../d8/d70/vtextmanager_8cpp.html" target="_top" xlink:title=" ">
<polygon fill="white" stroke="black" points="5416.5,-73 5416.5,-92 5598.5,-92 5598.5,-73 5416.5,-73"/>
<text text-anchor="middle" x="5507.5" y="-80" font-family="Helvetica,sans-Serif" font-size="10.00">src/libs/vlayout/vtextmanager.cpp</text>
</a>
</g>
</g>
<!-- Node26&#45;&gt;Node41 -->
<g id="edge37" class="edge">
<title>Node26&#45;&gt;Node41</title>
<path fill="none" stroke="midnightblue" d="M5709.54,-137.32C5661.37,-124.49 5583.37,-103.71 5539.72,-92.08"/>
<polygon fill="midnightblue" stroke="midnightblue" points="5708.79,-140.74 5719.35,-139.94 5710.59,-133.98 5708.79,-140.74"/>
</g>
<!-- Node42 -->
<g id="node38" class="node">
<title>Node42</title>
<g id="a_node38"><a xlink:href="../../db/d65/dialogexporttocsv_8cpp.html" target="_top" xlink:title=" ">
<polygon fill="white" stroke="black" points="5617,-67.5 5617,-97.5 5744,-97.5 5744,-67.5 5617,-67.5"/>
<text text-anchor="start" x="5625" y="-85.5" font-family="Helvetica,sans-Serif" font-size="10.00">src/libs/vmisc/dialogs</text>
<text text-anchor="middle" x="5680.5" y="-74.5" font-family="Helvetica,sans-Serif" font-size="10.00">/dialogexporttocsv.cpp</text>
</a>
</g>
</g>
<!-- Node26&#45;&gt;Node42 -->
<g id="edge38" class="edge">
<title>Node26&#45;&gt;Node42</title>
<path fill="none" stroke="midnightblue" d="M5734.49,-132.93C5722.75,-122.18 5707.26,-108 5695.89,-97.59"/>
<polygon fill="midnightblue" stroke="midnightblue" points="5732.19,-135.56 5741.92,-139.73 5736.91,-130.4 5732.19,-135.56"/>
</g>
<!-- Node43 -->
<g id="node39" class="node">
<title>Node43</title>
<g id="a_node39"><a xlink:href="../../d6/d0b/def_8cpp.html" target="_top" xlink:title=" ">
<polygon fill="white" stroke="black" points="5762.5,-73 5762.5,-92 5884.5,-92 5884.5,-73 5762.5,-73"/>
<text text-anchor="middle" x="5823.5" y="-80" font-family="Helvetica,sans-Serif" font-size="10.00">src/libs/vmisc/def.cpp</text>
</a>
</g>
</g>
<!-- Node26&#45;&gt;Node43 -->
<g id="edge39" class="edge">
<title>Node26&#45;&gt;Node43</title>
<path fill="none" stroke="midnightblue" d="M5768.83,-132.86C5782.98,-120.08 5802.46,-102.49 5813.94,-92.13"/>
<polygon fill="midnightblue" stroke="midnightblue" points="5766.29,-130.43 5761.21,-139.73 5770.98,-135.63 5766.29,-130.43"/>
</g>
<!-- Node44 -->
<g id="node40" class="node">
<title>Node44</title>
<g id="a_node40"><a xlink:href="../../d0/df6/vabstractapplication_8cpp.html" target="_top" xlink:title=" ">
<polygon fill="white" stroke="black" points="5902.5,-73 5902.5,-92 6108.5,-92 6108.5,-73 5902.5,-73"/>
<text text-anchor="middle" x="6005.5" y="-80" font-family="Helvetica,sans-Serif" font-size="10.00">src/libs/vmisc/vabstractapplication.cpp</text>
</a>
</g>
</g>
<!-- Node26&#45;&gt;Node44 -->
<g id="edge40" class="edge">
<title>Node26&#45;&gt;Node44</title>
<path fill="none" stroke="midnightblue" d="M5794.86,-137.4C5844.99,-124.58 5926.42,-103.74 5971.96,-92.08"/>
<polygon fill="midnightblue" stroke="midnightblue" points="5793.79,-134.07 5784.97,-139.94 5795.52,-140.85 5793.79,-134.07"/>
</g>
<!-- Node45 -->
<g id="node41" class="node">
<title>Node45</title>
<g id="a_node41"><a xlink:href="../../d4/d4f/pmsystems_8cpp.html" target="_top" xlink:title=" ">
<polygon fill="white" stroke="black" points="6127,-67.5 6127,-97.5 6234,-97.5 6234,-67.5 6127,-67.5"/>
<text text-anchor="start" x="6135" y="-85.5" font-family="Helvetica,sans-Serif" font-size="10.00">src/libs/vpatterndb</text>
<text text-anchor="middle" x="6180.5" y="-74.5" font-family="Helvetica,sans-Serif" font-size="10.00">/pmsystems.cpp</text>
</a>
</g>
</g>
<!-- Node26&#45;&gt;Node45 -->
<g id="edge41" class="edge">
<title>Node26&#45;&gt;Node45</title>
<path fill="none" stroke="midnightblue" d="M5838.13,-138.75C5912.51,-129.86 6022.45,-115.46 6117.5,-98 6120.59,-97.43 6123.76,-96.82 6126.95,-96.17"/>
<polygon fill="midnightblue" stroke="midnightblue" points="5837.39,-135.32 5827.87,-139.97 5838.22,-142.27 5837.39,-135.32"/>
</g>
<!-- Node46 -->
<g id="node42" class="node">
<title>Node46</title>
<g id="a_node42"><a xlink:href="../../d6/d46/vcontainer_8cpp.html" target="_top" xlink:title=" ">
<polygon fill="white" stroke="black" points="6252,-67.5 6252,-97.5 6359,-97.5 6359,-67.5 6252,-67.5"/>
<text text-anchor="start" x="6260" y="-85.5" font-family="Helvetica,sans-Serif" font-size="10.00">src/libs/vpatterndb</text>
<text text-anchor="middle" x="6305.5" y="-74.5" font-family="Helvetica,sans-Serif" font-size="10.00">/vcontainer.cpp</text>
</a>
</g>
</g>
<!-- Node26&#45;&gt;Node46 -->
<g id="edge42" class="edge">
<title>Node26&#45;&gt;Node46</title>
<path fill="none" stroke="midnightblue" d="M5859.42,-141.26C5959.25,-133.65 6111.53,-119.72 6242.5,-98 6245.6,-97.49 6248.78,-96.91 6251.97,-96.29"/>
<polygon fill="midnightblue" stroke="midnightblue" points="5859.03,-137.78 5849.33,-142.02 5859.56,-144.76 5859.03,-137.78"/>
</g>
<!-- Node47 -->
<g id="node43" class="node">
<title>Node47</title>
<g id="a_node43"><a xlink:href="../../db/d11/vformula_8cpp.html" target="_top" xlink:title=" ">
<polygon fill="white" stroke="black" points="6377,-67.5 6377,-97.5 6484,-97.5 6484,-67.5 6377,-67.5"/>
<text text-anchor="start" x="6385" y="-85.5" font-family="Helvetica,sans-Serif" font-size="10.00">src/libs/vpatterndb</text>
<text text-anchor="middle" x="6430.5" y="-74.5" font-family="Helvetica,sans-Serif" font-size="10.00">/vformula.cpp</text>
</a>
</g>
</g>
<!-- Node26&#45;&gt;Node47 -->
<g id="edge43" class="edge">
<title>Node26&#45;&gt;Node47</title>
<path fill="none" stroke="midnightblue" d="M5859.3,-144.38C5982.71,-138.57 6190.63,-125.46 6367.5,-98 6370.61,-97.52 6373.79,-96.97 6376.99,-96.37"/>
<polygon fill="midnightblue" stroke="midnightblue" points="5858.93,-140.89 5849.1,-144.85 5859.25,-147.89 5858.93,-140.89"/>
</g>
<!-- Node48 -->
<g id="node44" class="node">
<title>Node48</title>
<g id="a_node44"><a xlink:href="../../df/d7a/vpiece_8cpp.html" target="_top" xlink:title=" ">
<polygon fill="white" stroke="black" points="6502,-67.5 6502,-97.5 6609,-97.5 6609,-67.5 6502,-67.5"/>
<text text-anchor="start" x="6510" y="-85.5" font-family="Helvetica,sans-Serif" font-size="10.00">src/libs/vpatterndb</text>
<text text-anchor="middle" x="6555.5" y="-74.5" font-family="Helvetica,sans-Serif" font-size="10.00">/vpiece.cpp</text>
</a>
</g>
</g>
<!-- Node26&#45;&gt;Node48 -->
<g id="edge44" class="edge">
<title>Node26&#45;&gt;Node48</title>
<path fill="none" stroke="midnightblue" d="M5859.34,-146.49C6004.09,-142.57 6268.91,-131.14 6492.5,-98 6495.61,-97.54 6498.79,-97.01 6501.99,-96.42"/>
<polygon fill="midnightblue" stroke="midnightblue" points="5859.03,-142.99 5849.13,-146.76 5859.22,-149.99 5859.03,-142.99"/>
</g>
<!-- Node49 -->
<g id="node45" class="node">
<title>Node49</title>
<g id="a_node45"><a xlink:href="../../df/dba/vpiecenode__p_8h.html" target="_top" xlink:title=" ">
<polygon fill="white" stroke="red" points="6627,-67.5 6627,-97.5 6734,-97.5 6734,-67.5 6627,-67.5"/>
<text text-anchor="start" x="6635" y="-85.5" font-family="Helvetica,sans-Serif" font-size="10.00">src/libs/vpatterndb</text>
<text text-anchor="middle" x="6680.5" y="-74.5" font-family="Helvetica,sans-Serif" font-size="10.00">/vpiecenode_p.h</text>
</a>
</g>
</g>
<!-- Node26&#45;&gt;Node49 -->
<g id="edge45" class="edge">
<title>Node26&#45;&gt;Node49</title>
<path fill="none" stroke="midnightblue" d="M5859.23,-148.01C6023.58,-145.97 6346.44,-136.82 6617.5,-98 6620.61,-97.55 6623.79,-97.03 6627,-96.46"/>
<polygon fill="midnightblue" stroke="midnightblue" points="5859.07,-144.52 5849.11,-148.13 5859.15,-151.52 5859.07,-144.52"/>
</g>
<!-- Node51 -->
<g id="node46" class="node">
<title>Node51</title>
<g id="a_node46"><a xlink:href="../../de/d3e/vtranslatevars_8cpp.html" target="_top" xlink:title=" ">
<polygon fill="white" stroke="black" points="6752.5,-67.5 6752.5,-97.5 6862.5,-97.5 6862.5,-67.5 6752.5,-67.5"/>
<text text-anchor="start" x="6760.5" y="-85.5" font-family="Helvetica,sans-Serif" font-size="10.00">src/libs/vpatterndb</text>
<text text-anchor="middle" x="6807.5" y="-74.5" font-family="Helvetica,sans-Serif" font-size="10.00">/vtranslatevars.cpp</text>
</a>
</g>
</g>
<!-- Node26&#45;&gt;Node51 -->
<g id="edge46" class="edge">
<title>Node26&#45;&gt;Node51</title>
<path fill="none" stroke="midnightblue" d="M5859.2,-148.93C6041.79,-148.35 6423.35,-141.41 6742.5,-98 6745.71,-97.56 6748.99,-97.05 6752.3,-96.48"/>
<polygon fill="midnightblue" stroke="midnightblue" points="5859.05,-145.43 5849.06,-148.96 5859.07,-152.43 5859.05,-145.43"/>
</g>
<!-- Node52 -->
<g id="node47" class="node">
<title>Node52</title>
<g id="a_node47"><a xlink:href="../../df/d40/export__format__combobox_8cpp.html" target="_top" xlink:title=" ">
<polygon fill="white" stroke="black" points="6881,-67.5 6881,-97.5 7014,-97.5 7014,-67.5 6881,-67.5"/>
<text text-anchor="start" x="6889" y="-85.5" font-family="Helvetica,sans-Serif" font-size="10.00">src/libs/vwidgets/export</text>
<text text-anchor="middle" x="6947.5" y="-74.5" font-family="Helvetica,sans-Serif" font-size="10.00">_format_combobox.cpp</text>
</a>
</g>
</g>
<!-- Node26&#45;&gt;Node52 -->
<g id="edge47" class="edge">
<title>Node26&#45;&gt;Node52</title>
<path fill="none" stroke="midnightblue" d="M5859.48,-148.77C6059.73,-148.12 6501.93,-141.36 6871.5,-98 6874.57,-97.64 6877.7,-97.23 6880.86,-96.78"/>
<polygon fill="midnightblue" stroke="midnightblue" points="5859.25,-145.27 5849.26,-148.79 5859.27,-152.27 5859.25,-145.27"/>
</g>
<!-- Node53 -->
<g id="node48" class="node">
<title>Node53</title>
<g id="a_node48"><a xlink:href="../../d3/d4f/mouse__coordinates_8cpp.html" target="_top" xlink:title=" ">
<polygon fill="white" stroke="black" points="7032.5,-67.5 7032.5,-97.5 7166.5,-97.5 7166.5,-67.5 7032.5,-67.5"/>
<text text-anchor="start" x="7040.5" y="-85.5" font-family="Helvetica,sans-Serif" font-size="10.00">src/libs/vwidgets/mouse</text>
<text text-anchor="middle" x="7099.5" y="-74.5" font-family="Helvetica,sans-Serif" font-size="10.00">_coordinates.cpp</text>
</a>
</g>
</g>
<!-- Node26&#45;&gt;Node53 -->
<g id="edge48" class="edge">
<title>Node26&#45;&gt;Node53</title>
<path fill="none" stroke="midnightblue" d="M5859.72,-146.24C6124.32,-140.38 6798.66,-123.38 7022.5,-98 7025.74,-97.63 7029.06,-97.21 7032.4,-96.74"/>
<polygon fill="midnightblue" stroke="midnightblue" points="5859.26,-142.75 5849.34,-146.47 5859.41,-149.75 5859.26,-142.75"/>
</g>
<!-- Node54 -->
<g id="node49" class="node">
<title>Node54</title>
<g id="a_node49"><a xlink:href="../../d2/d28/page__format__combobox_8cpp.html" target="_top" xlink:title=" ">
<polygon fill="white" stroke="black" points="7185,-67.5 7185,-97.5 7316,-97.5 7316,-67.5 7185,-67.5"/>
<text text-anchor="start" x="7193" y="-85.5" font-family="Helvetica,sans-Serif" font-size="10.00">src/libs/vwidgets/page</text>
<text text-anchor="middle" x="7250.5" y="-74.5" font-family="Helvetica,sans-Serif" font-size="10.00">_format_combobox.cpp</text>
</a>
</g>
</g>
<!-- Node26&#45;&gt;Node54 -->
<g id="edge49" class="edge">
<title>Node26&#45;&gt;Node54</title>
<path fill="none" stroke="midnightblue" d="M5859.8,-146.84C6146.57,-142.1 6921.02,-126.93 7175.5,-98 7178.53,-97.66 7181.62,-97.26 7184.74,-96.81"/>
<polygon fill="midnightblue" stroke="midnightblue" points="5859.34,-143.35 5849.4,-147.01 5859.45,-150.35 5859.34,-143.35"/>
</g>
<!-- Node26&#45;&gt;Node62 -->
<g id="edge50" class="edge">
<title>Node26&#45;&gt;Node62</title>
<path fill="none" stroke="midnightblue" d="M5859.23,-148.38C6114.25,-147.38 6774.75,-140.51 7324.5,-98 7343.23,-96.55 7363.55,-94.3 7381.97,-92"/>
<polygon fill="midnightblue" stroke="midnightblue" points="5859.22,-144.88 5849.23,-148.42 5859.24,-151.88 5859.22,-144.88"/>
</g>
<!-- Node36&#45;&gt;Node35 -->
<g id="edge33" class="edge">
<title>Node36&#45;&gt;Node35</title>
<path fill="none" stroke="midnightblue" d="M4806.22,-58.87C4800.29,-49.46 4793.59,-38.83 4788.38,-30.58"/>
<polygon fill="midnightblue" stroke="midnightblue" points="4803.31,-60.81 4811.6,-67.4 4809.23,-57.07 4803.31,-60.81"/>
</g>
</g>
</svg>
