<?xml version="1.0" encoding="UTF-8" standalone="no"?>
<!DOCTYPE svg PUBLIC "-//W3C//DTD SVG 1.1//EN"
 "http://www.w3.org/Graphics/SVG/1.1/DTD/svg11.dtd">
<!-- Generated by graphviz version 2.43.0 (0)
 -->
<!-- Title: src/libs/vmisc/vsettings.h Pages: 1 -->
<svg width="7548pt" height="229pt"
 viewBox="0.00 0.00 7547.50 229.00" xmlns="http://www.w3.org/2000/svg" xmlns:xlink="http://www.w3.org/1999/xlink">
<g id="graph0" class="graph" transform="scale(1 1) rotate(0) translate(4 225)">
<title>src/libs/vmisc/vsettings.h</title>
<polygon fill="white" stroke="transparent" points="-4,4 -4,-225 7543.5,-225 7543.5,4 -4,4"/>
<!-- Node1 -->
<g id="node1" class="node">
<title>Node1</title>
<g id="a_node1"><a xlink:title=" ">
<polygon fill="#bfbfbf" stroke="black" points="5744.5,-201.5 5744.5,-220.5 5884.5,-220.5 5884.5,-201.5 5744.5,-201.5"/>
<text text-anchor="middle" x="5814.5" y="-208.5" font-family="Helvetica,sans-Serif" font-size="10.00">src/libs/vmisc/vsettings.h</text>
</a>
</g>
</g>
<!-- Node2 -->
<g id="node2" class="node">
<title>Node2</title>
<g id="a_node2"><a xlink:href="../../d9/d02/vapplication_8h.html" target="_top" xlink:title=" ">
<polygon fill="white" stroke="black" points="2153,-134.5 2153,-164.5 2280,-164.5 2280,-134.5 2153,-134.5"/>
<text text-anchor="start" x="2161" y="-152.5" font-family="Helvetica,sans-Serif" font-size="10.00">src/app/seamly2d/core</text>
<text text-anchor="middle" x="2216.5" y="-141.5" font-family="Helvetica,sans-Serif" font-size="10.00">/vapplication.h</text>
</a>
</g>
</g>
<!-- Node1&#45;&gt;Node2 -->
<g id="edge1" class="edge">
<title>Node1&#45;&gt;Node2</title>
<path fill="none" stroke="midnightblue" d="M5734.17,-208.67C5248.89,-200.65 2714.77,-158.74 2280.01,-151.55"/>
<polygon fill="midnightblue" stroke="midnightblue" points="5734.19,-212.17 5744.24,-208.84 5734.3,-205.17 5734.19,-212.17"/>
</g>
<!-- Node25 -->
<g id="node25" class="node">
<title>Node25</title>
<g id="a_node25"><a xlink:href="../../d5/d74/vabstractapplication_8h.html" target="_top" xlink:title=" ">
<polygon fill="white" stroke="red" points="5655,-140 5655,-159 5850,-159 5850,-140 5655,-140"/>
<text text-anchor="middle" x="5752.5" y="-147" font-family="Helvetica,sans-Serif" font-size="10.00">src/libs/vmisc/vabstractapplication.h</text>
</a>
</g>
</g>
<!-- Node1&#45;&gt;Node25 -->
<g id="edge24" class="edge">
<title>Node1&#45;&gt;Node25</title>
<path fill="none" stroke="midnightblue" d="M5798.17,-194.32C5786.39,-183.02 5770.94,-168.19 5761.37,-159.01"/>
<polygon fill="midnightblue" stroke="midnightblue" points="5795.98,-197.08 5805.62,-201.48 5800.83,-192.03 5795.98,-197.08"/>
</g>
<!-- Node62 -->
<g id="node49" class="node">
<title>Node62</title>
<g id="a_node49"><a xlink:href="../../d2/d31/vmaingraphicsview_8cpp.html" target="_top" xlink:title=" ">
<polygon fill="white" stroke="black" points="7323.5,-73 7323.5,-92 7539.5,-92 7539.5,-73 7323.5,-73"/>
<text text-anchor="middle" x="7431.5" y="-80" font-family="Helvetica,sans-Serif" font-size="10.00">src/libs/vwidgets/vmaingraphicsview.cpp</text>
</a>
</g>
</g>
<!-- Node1&#45;&gt;Node62 -->
<g id="edge51" class="edge">
<title>Node1&#45;&gt;Node62</title>
<path fill="none" stroke="midnightblue" d="M5830.1,-194.4C5851.56,-173.13 5888.45,-137.27 5896.5,-134 6042.38,-74.64 7156.43,-109.62 7313.5,-98 7332.44,-96.6 7353,-94.33 7371.58,-92"/>
<polygon fill="midnightblue" stroke="midnightblue" points="5827.6,-191.96 5822.98,-201.49 5832.54,-196.92 5827.6,-191.96"/>
</g>
<!-- Node66 -->
<g id="node50" class="node">
<title>Node66</title>
<g id="a_node50"><a xlink:href="../../db/d28/vsettings_8cpp.html" target="_top" xlink:title=" ">
<polygon fill="white" stroke="black" points="5905.5,-140 5905.5,-159 6057.5,-159 6057.5,-140 5905.5,-140"/>
<text text-anchor="middle" x="5981.5" y="-147" font-family="Helvetica,sans-Serif" font-size="10.00">src/libs/vmisc/vsettings.cpp</text>
</a>
</g>
</g>
<!-- Node1&#45;&gt;Node66 -->
<g id="edge50" class="edge">
<title>Node1&#45;&gt;Node66</title>
<path fill="none" stroke="midnightblue" d="M5847.95,-198.08C5880.41,-186.52 5928.87,-169.25 5957.62,-159.01"/>
<polygon fill="midnightblue" stroke="midnightblue" points="5846.67,-194.82 5838.43,-201.48 5849.02,-201.42 5846.67,-194.82"/>
</g>
<!-- Node3 -->
<g id="node3" class="node">
<title>Node3</title>
<g id="a_node3"><a xlink:href="../../d3/dd8/vapplication_8cpp.html" target="_top" xlink:title=" ">
<polygon fill="white" stroke="black" points="0,-67.5 0,-97.5 127,-97.5 127,-67.5 0,-67.5"/>
<text text-anchor="start" x="8" y="-85.5" font-family="Helvetica,sans-Serif" font-size="10.00">src/app/seamly2d/core</text>
<text text-anchor="middle" x="63.5" y="-74.5" font-family="Helvetica,sans-Serif" font-size="10.00">/vapplication.cpp</text>
</a>
</g>
</g>
<!-- Node2&#45;&gt;Node3 -->
<g id="edge2" class="edge">
<title>Node2&#45;&gt;Node3</title>
<path fill="none" stroke="midnightblue" d="M2142.82,-148.41C1821.04,-147.75 537.29,-142.34 136.5,-98 133.42,-97.66 130.27,-97.25 127.1,-96.8"/>
<polygon fill="midnightblue" stroke="midnightblue" points="2142.95,-151.91 2152.96,-148.43 2142.97,-144.91 2142.95,-151.91"/>
</g>
<!-- Node4 -->
<g id="node4" class="node">
<title>Node4</title>
<g id="a_node4"><a xlink:href="../../dd/db4/abstractlayout__dialog_8cpp.html" target="_top" xlink:title=" ">
<polygon fill="white" stroke="black" points="145.5,-67.5 145.5,-97.5 291.5,-97.5 291.5,-67.5 145.5,-67.5"/>
<text text-anchor="start" x="153.5" y="-85.5" font-family="Helvetica,sans-Serif" font-size="10.00">src/app/seamly2d/dialogs</text>
<text text-anchor="middle" x="218.5" y="-74.5" font-family="Helvetica,sans-Serif" font-size="10.00">/abstractlayout_dialog.cpp</text>
</a>
</g>
</g>
<!-- Node2&#45;&gt;Node4 -->
<g id="edge3" class="edge">
<title>Node2&#45;&gt;Node4</title>
<path fill="none" stroke="midnightblue" d="M2142.43,-148.02C1836.14,-145.81 667.54,-135.08 300.5,-98 297.62,-97.71 294.7,-97.38 291.74,-97.01"/>
<polygon fill="midnightblue" stroke="midnightblue" points="2142.5,-151.52 2152.53,-148.09 2142.55,-144.52 2142.5,-151.52"/>
</g>
<!-- Node5 -->
<g id="node5" class="node">
<title>Node5</title>
<g id="a_node5"><a xlink:href="../../d7/dfa/calculator__dialog_8cpp.html" target="_top" xlink:title=" ">
<polygon fill="white" stroke="black" points="310,-67.5 310,-97.5 451,-97.5 451,-67.5 310,-67.5"/>
<text text-anchor="start" x="318" y="-85.5" font-family="Helvetica,sans-Serif" font-size="10.00">src/app/seamly2d/dialogs</text>
<text text-anchor="middle" x="380.5" y="-74.5" font-family="Helvetica,sans-Serif" font-size="10.00">/calculator_dialog.cpp</text>
</a>
</g>
</g>
<!-- Node2&#45;&gt;Node5 -->
<g id="edge4" class="edge">
<title>Node2&#45;&gt;Node5</title>
<path fill="none" stroke="midnightblue" d="M2142.5,-147.86C1852.68,-145.11 794.41,-132.86 460.5,-98 457.41,-97.68 454.26,-97.3 451.09,-96.89"/>
<polygon fill="midnightblue" stroke="midnightblue" points="2142.85,-151.36 2152.89,-147.95 2142.92,-144.36 2142.85,-151.36"/>
</g>
<!-- Node6 -->
<g id="node6" class="node">
<title>Node6</title>
<g id="a_node6"><a xlink:href="../../d9/d70/preferencesgraphicsviewpage_8cpp.html" target="_top" xlink:title=" ">
<polygon fill="white" stroke="black" points="469.5,-67.5 469.5,-97.5 717.5,-97.5 717.5,-67.5 469.5,-67.5"/>
<text text-anchor="start" x="477.5" y="-85.5" font-family="Helvetica,sans-Serif" font-size="10.00">src/app/seamly2d/dialogs</text>
<text text-anchor="middle" x="593.5" y="-74.5" font-family="Helvetica,sans-Serif" font-size="10.00">/configpages/preferencesgraphicsviewpage.cpp</text>
</a>
</g>
</g>
<!-- Node2&#45;&gt;Node6 -->
<g id="edge5" class="edge">
<title>Node2&#45;&gt;Node6</title>
<path fill="none" stroke="midnightblue" d="M2142.87,-147.95C1925.77,-145.91 1269.4,-136.74 726.5,-98 723.6,-97.79 720.67,-97.57 717.72,-97.34"/>
<polygon fill="midnightblue" stroke="midnightblue" points="2142.84,-151.45 2152.87,-148.04 2142.91,-144.45 2142.84,-151.45"/>
</g>
<!-- Node7 -->
<g id="node7" class="node">
<title>Node7</title>
<g id="a_node7"><a xlink:href="../../dc/d20/preferencespathpage_8cpp.html" target="_top" xlink:title=" ">
<polygon fill="white" stroke="black" points="736,-67.5 736,-97.5 941,-97.5 941,-67.5 736,-67.5"/>
<text text-anchor="start" x="744" y="-85.5" font-family="Helvetica,sans-Serif" font-size="10.00">src/app/seamly2d/dialogs</text>
<text text-anchor="middle" x="838.5" y="-74.5" font-family="Helvetica,sans-Serif" font-size="10.00">/configpages/preferencespathpage.cpp</text>
</a>
</g>
</g>
<!-- Node2&#45;&gt;Node7 -->
<g id="edge6" class="edge">
<title>Node2&#45;&gt;Node7</title>
<path fill="none" stroke="midnightblue" d="M2142.68,-147.85C1947.62,-145.62 1402.43,-136.19 950.5,-98 947.47,-97.74 944.4,-97.47 941.3,-97.17"/>
<polygon fill="midnightblue" stroke="midnightblue" points="2142.78,-151.35 2152.82,-147.96 2142.85,-144.35 2142.78,-151.35"/>
</g>
<!-- Node8 -->
<g id="node8" class="node">
<title>Node8</title>
<g id="a_node8"><a xlink:href="../../d2/d00/vtooloptionspropertybrowser_8cpp.html" target="_top" xlink:title=" ">
<polygon fill="white" stroke="black" points="959.5,-67.5 959.5,-97.5 1139.5,-97.5 1139.5,-67.5 959.5,-67.5"/>
<text text-anchor="start" x="967.5" y="-85.5" font-family="Helvetica,sans-Serif" font-size="10.00">src/app/seamly2d/core</text>
<text text-anchor="middle" x="1049.5" y="-74.5" font-family="Helvetica,sans-Serif" font-size="10.00">/vtooloptionspropertybrowser.cpp</text>
</a>
</g>
</g>
<!-- Node2&#45;&gt;Node8 -->
<g id="edge7" class="edge">
<title>Node2&#45;&gt;Node8</title>
<path fill="none" stroke="midnightblue" d="M2142.8,-147.5C1969.17,-144.62 1521,-134 1148.5,-98 1145.56,-97.72 1142.58,-97.41 1139.56,-97.07"/>
<polygon fill="midnightblue" stroke="midnightblue" points="2142.79,-151 2152.84,-147.67 2142.9,-144.01 2142.79,-151"/>
</g>
<!-- Node9 -->
<g id="node9" class="node">
<title>Node9</title>
<g id="a_node9"><a xlink:href="../../d2/d2d/preferencesconfigurationpage_8cpp.html" target="_top" xlink:title=" ">
<polygon fill="white" stroke="black" points="1158,-67.5 1158,-97.5 1405,-97.5 1405,-67.5 1158,-67.5"/>
<text text-anchor="start" x="1166" y="-85.5" font-family="Helvetica,sans-Serif" font-size="10.00">src/app/seamly2d/dialogs</text>
<text text-anchor="middle" x="1281.5" y="-74.5" font-family="Helvetica,sans-Serif" font-size="10.00">/configpages/preferencesconfigurationpage.cpp</text>
</a>
</g>
</g>
<!-- Node2&#45;&gt;Node9 -->
<g id="edge8" class="edge">
<title>Node2&#45;&gt;Node9</title>
<path fill="none" stroke="midnightblue" d="M2142.63,-145.01C2001.04,-138.06 1681.65,-121.15 1413.5,-98 1410.74,-97.76 1407.96,-97.51 1405.15,-97.26"/>
<polygon fill="midnightblue" stroke="midnightblue" points="2142.77,-148.52 2152.93,-145.51 2143.11,-141.53 2142.77,-148.52"/>
</g>
<!-- Node10 -->
<g id="node10" class="node">
<title>Node10</title>
<g id="a_node10"><a xlink:href="../../dd/dc2/decimalchart__dialog_8cpp.html" target="_top" xlink:title=" ">
<polygon fill="white" stroke="black" points="1423,-67.5 1423,-97.5 1564,-97.5 1564,-67.5 1423,-67.5"/>
<text text-anchor="start" x="1431" y="-85.5" font-family="Helvetica,sans-Serif" font-size="10.00">src/app/seamly2d/dialogs</text>
<text text-anchor="middle" x="1493.5" y="-74.5" font-family="Helvetica,sans-Serif" font-size="10.00">/decimalchart_dialog.cpp</text>
</a>
</g>
</g>
<!-- Node2&#45;&gt;Node10 -->
<g id="edge9" class="edge">
<title>Node2&#45;&gt;Node10</title>
<path fill="none" stroke="midnightblue" d="M2142.7,-145.13C2022.88,-139.11 1778.78,-124.6 1573.5,-98 1570.42,-97.6 1567.28,-97.16 1564.11,-96.7"/>
<polygon fill="midnightblue" stroke="midnightblue" points="2142.69,-148.63 2152.85,-145.63 2143.04,-141.64 2142.69,-148.63"/>
</g>
<!-- Node11 -->
<g id="node11" class="node">
<title>Node11</title>
<g id="a_node11"><a xlink:href="../../dc/d63/preferencespatternpage_8cpp.html" target="_top" xlink:title=" ">
<polygon fill="white" stroke="black" points="1582.5,-67.5 1582.5,-97.5 1800.5,-97.5 1800.5,-67.5 1582.5,-67.5"/>
<text text-anchor="start" x="1590.5" y="-85.5" font-family="Helvetica,sans-Serif" font-size="10.00">src/app/seamly2d/dialogs</text>
<text text-anchor="middle" x="1691.5" y="-74.5" font-family="Helvetica,sans-Serif" font-size="10.00">/configpages/preferencespatternpage.cpp</text>
</a>
</g>
</g>
<!-- Node2&#45;&gt;Node11 -->
<g id="edge10" class="edge">
<title>Node2&#45;&gt;Node11</title>
<path fill="none" stroke="midnightblue" d="M2142.9,-139.39C2053.87,-128.36 1903.2,-109.71 1800.64,-97.01"/>
<polygon fill="midnightblue" stroke="midnightblue" points="2142.56,-142.87 2152.91,-140.63 2143.42,-135.92 2142.56,-142.87"/>
</g>
<!-- Node12 -->
<g id="node12" class="node">
<title>Node12</title>
<g id="a_node12"><a xlink:href="../../d6/d89/dialoglayoutprogress_8cpp.html" target="_top" xlink:title=" ">
<polygon fill="white" stroke="black" points="1819,-67.5 1819,-97.5 1962,-97.5 1962,-67.5 1819,-67.5"/>
<text text-anchor="start" x="1827" y="-85.5" font-family="Helvetica,sans-Serif" font-size="10.00">src/app/seamly2d/dialogs</text>
<text text-anchor="middle" x="1890.5" y="-74.5" font-family="Helvetica,sans-Serif" font-size="10.00">/dialoglayoutprogress.cpp</text>
</a>
</g>
</g>
<!-- Node2&#45;&gt;Node12 -->
<g id="edge11" class="edge">
<title>Node2&#45;&gt;Node12</title>
<path fill="none" stroke="midnightblue" d="M2142.92,-133.83C2088.38,-122.95 2014.49,-108.22 1960.75,-97.51"/>
<polygon fill="midnightblue" stroke="midnightblue" points="2142.38,-137.29 2152.87,-135.81 2143.75,-130.43 2142.38,-137.29"/>
</g>
<!-- Node13 -->
<g id="node13" class="node">
<title>Node13</title>
<g id="a_node13"><a xlink:href="../../dd/d64/dialogaboutapp_8cpp.html" target="_top" xlink:title=" ">
<polygon fill="white" stroke="black" points="1980,-67.5 1980,-97.5 2121,-97.5 2121,-67.5 1980,-67.5"/>
<text text-anchor="start" x="1988" y="-85.5" font-family="Helvetica,sans-Serif" font-size="10.00">src/app/seamly2d/dialogs</text>
<text text-anchor="middle" x="2050.5" y="-74.5" font-family="Helvetica,sans-Serif" font-size="10.00">/dialogaboutapp.cpp</text>
</a>
</g>
</g>
<!-- Node2&#45;&gt;Node13 -->
<g id="edge12" class="edge">
<title>Node2&#45;&gt;Node13</title>
<path fill="none" stroke="midnightblue" d="M2170.99,-130.68C2144.37,-120.26 2111.23,-107.28 2086.45,-97.58"/>
<polygon fill="midnightblue" stroke="midnightblue" points="2169.89,-134.01 2180.48,-134.4 2172.45,-127.49 2169.89,-134.01"/>
</g>
<!-- Node14 -->
<g id="node14" class="node">
<title>Node14</title>
<g id="a_node14"><a xlink:href="../../d5/d18/dialogpatternproperties_8cpp.html" target="_top" xlink:title=" ">
<polygon fill="white" stroke="black" points="2139,-67.5 2139,-97.5 2294,-97.5 2294,-67.5 2139,-67.5"/>
<text text-anchor="start" x="2147" y="-85.5" font-family="Helvetica,sans-Serif" font-size="10.00">src/app/seamly2d/dialogs</text>
<text text-anchor="middle" x="2216.5" y="-74.5" font-family="Helvetica,sans-Serif" font-size="10.00">/dialogpatternproperties.cpp</text>
</a>
</g>
</g>
<!-- Node2&#45;&gt;Node14 -->
<g id="edge13" class="edge">
<title>Node2&#45;&gt;Node14</title>
<path fill="none" stroke="midnightblue" d="M2216.5,-124.11C2216.5,-115.15 2216.5,-105.32 2216.5,-97.58"/>
<polygon fill="midnightblue" stroke="midnightblue" points="2213,-124.4 2216.5,-134.4 2220,-124.4 2213,-124.4"/>
</g>
<!-- Node15 -->
<g id="node15" class="node">
<title>Node15</title>
<g id="a_node15"><a xlink:href="../../d5/dc5/dialogpreferences_8cpp.html" target="_top" xlink:title=" ">
<polygon fill="white" stroke="black" points="2312,-67.5 2312,-97.5 2453,-97.5 2453,-67.5 2312,-67.5"/>
<text text-anchor="start" x="2320" y="-85.5" font-family="Helvetica,sans-Serif" font-size="10.00">src/app/seamly2d/dialogs</text>
<text text-anchor="middle" x="2382.5" y="-74.5" font-family="Helvetica,sans-Serif" font-size="10.00">/dialogpreferences.cpp</text>
</a>
</g>
</g>
<!-- Node2&#45;&gt;Node15 -->
<g id="edge14" class="edge">
<title>Node2&#45;&gt;Node15</title>
<path fill="none" stroke="midnightblue" d="M2262.01,-130.68C2288.63,-120.26 2321.77,-107.28 2346.55,-97.58"/>
<polygon fill="midnightblue" stroke="midnightblue" points="2260.55,-127.49 2252.52,-134.4 2263.11,-134.01 2260.55,-127.49"/>
</g>
<!-- Node16 -->
<g id="node16" class="node">
<title>Node16</title>
<g id="a_node16"><a xlink:href="../../dd/d54/export__layout__dialog_8cpp.html" target="_top" xlink:title=" ">
<polygon fill="white" stroke="black" points="2471,-67.5 2471,-97.5 2614,-97.5 2614,-67.5 2471,-67.5"/>
<text text-anchor="start" x="2479" y="-85.5" font-family="Helvetica,sans-Serif" font-size="10.00">src/app/seamly2d/dialogs</text>
<text text-anchor="middle" x="2542.5" y="-74.5" font-family="Helvetica,sans-Serif" font-size="10.00">/export_layout_dialog.cpp</text>
</a>
</g>
</g>
<!-- Node2&#45;&gt;Node16 -->
<g id="edge15" class="edge">
<title>Node2&#45;&gt;Node16</title>
<path fill="none" stroke="midnightblue" d="M2290.08,-133.83C2344.62,-122.95 2418.51,-108.22 2472.25,-97.51"/>
<polygon fill="midnightblue" stroke="midnightblue" points="2289.25,-130.43 2280.13,-135.81 2290.62,-137.29 2289.25,-130.43"/>
</g>
<!-- Node17 -->
<g id="node17" class="node">
<title>Node17</title>
<g id="a_node17"><a xlink:href="../../d0/dfa/layoutsettings__dialog_8cpp.html" target="_top" xlink:title=" ">
<polygon fill="white" stroke="black" points="2632,-67.5 2632,-97.5 2777,-97.5 2777,-67.5 2632,-67.5"/>
<text text-anchor="start" x="2640" y="-85.5" font-family="Helvetica,sans-Serif" font-size="10.00">src/app/seamly2d/dialogs</text>
<text text-anchor="middle" x="2704.5" y="-74.5" font-family="Helvetica,sans-Serif" font-size="10.00">/layoutsettings_dialog.cpp</text>
</a>
</g>
</g>
<!-- Node2&#45;&gt;Node17 -->
<g id="edge16" class="edge">
<title>Node2&#45;&gt;Node17</title>
<path fill="none" stroke="midnightblue" d="M2290.44,-140.46C2371.93,-131.32 2506.81,-115.41 2622.5,-98 2625.5,-97.55 2628.56,-97.07 2631.65,-96.58"/>
<polygon fill="midnightblue" stroke="midnightblue" points="2289.83,-137 2280.28,-141.59 2290.61,-143.96 2289.83,-137"/>
</g>
<!-- Node18 -->
<g id="node18" class="node">
<title>Node18</title>
<g id="a_node18"><a xlink:href="../../db/d5c/groups__widget_8cpp.html" target="_top" xlink:title=" ">
<polygon fill="white" stroke="black" points="2795,-67.5 2795,-97.5 2936,-97.5 2936,-67.5 2795,-67.5"/>
<text text-anchor="start" x="2803" y="-85.5" font-family="Helvetica,sans-Serif" font-size="10.00">src/app/seamly2d/dialogs</text>
<text text-anchor="middle" x="2865.5" y="-74.5" font-family="Helvetica,sans-Serif" font-size="10.00">/groups_widget.cpp</text>
</a>
</g>
</g>
<!-- Node2&#45;&gt;Node18 -->
<g id="edge17" class="edge">
<title>Node2&#45;&gt;Node18</title>
<path fill="none" stroke="midnightblue" d="M2290.49,-144.09C2399.28,-137.11 2608.64,-121.83 2785.5,-98 2788.58,-97.59 2791.72,-97.13 2794.88,-96.66"/>
<polygon fill="midnightblue" stroke="midnightblue" points="2290.04,-140.61 2280.28,-144.73 2290.49,-147.59 2290.04,-140.61"/>
</g>
<!-- Node19 -->
<g id="node19" class="node">
<title>Node19</title>
<g id="a_node19"><a xlink:href="../../dd/d84/shortcuts__dialog_8cpp.html" target="_top" xlink:title=" ">
<polygon fill="white" stroke="black" points="2954,-67.5 2954,-97.5 3095,-97.5 3095,-67.5 2954,-67.5"/>
<text text-anchor="start" x="2962" y="-85.5" font-family="Helvetica,sans-Serif" font-size="10.00">src/app/seamly2d/dialogs</text>
<text text-anchor="middle" x="3024.5" y="-74.5" font-family="Helvetica,sans-Serif" font-size="10.00">/shortcuts_dialog.cpp</text>
</a>
</g>
</g>
<!-- Node2&#45;&gt;Node19 -->
<g id="edge18" class="edge">
<title>Node2&#45;&gt;Node19</title>
<path fill="none" stroke="midnightblue" d="M2290.39,-146.06C2422.21,-141.11 2706.43,-127.74 2944.5,-98 2947.58,-97.62 2950.72,-97.19 2953.89,-96.73"/>
<polygon fill="midnightblue" stroke="midnightblue" points="2289.89,-142.58 2280.02,-146.45 2290.14,-149.57 2289.89,-142.58"/>
</g>
<!-- Node20 -->
<g id="node20" class="node">
<title>Node20</title>
<g id="a_node20"><a xlink:href="../../d2/df4/show__info__dialog_8cpp.html" target="_top" xlink:title=" ">
<polygon fill="white" stroke="black" points="3113,-67.5 3113,-97.5 3254,-97.5 3254,-67.5 3113,-67.5"/>
<text text-anchor="start" x="3121" y="-85.5" font-family="Helvetica,sans-Serif" font-size="10.00">src/app/seamly2d/dialogs</text>
<text text-anchor="middle" x="3183.5" y="-74.5" font-family="Helvetica,sans-Serif" font-size="10.00">/show_info_dialog.cpp</text>
</a>
</g>
</g>
<!-- Node2&#45;&gt;Node20 -->
<g id="edge19" class="edge">
<title>Node2&#45;&gt;Node20</title>
<path fill="none" stroke="midnightblue" d="M2290.37,-147.35C2442.85,-144.3 2803.3,-133.62 3103.5,-98 3106.58,-97.63 3109.73,-97.22 3112.9,-96.78"/>
<polygon fill="midnightblue" stroke="midnightblue" points="2290.12,-143.85 2280.19,-147.55 2290.26,-150.85 2290.12,-143.85"/>
</g>
<!-- Node21 -->
<g id="node21" class="node">
<title>Node21</title>
<g id="a_node21"><a xlink:href="../../dc/d14/app_2seamly2d_2main_8cpp.html" target="_top" xlink:title=" ">
<polygon fill="white" stroke="black" points="3272,-73 3272,-92 3423,-92 3423,-73 3272,-73"/>
<text text-anchor="middle" x="3347.5" y="-80" font-family="Helvetica,sans-Serif" font-size="10.00">src/app/seamly2d/main.cpp</text>
</a>
</g>
</g>
<!-- Node2&#45;&gt;Node21 -->
<g id="edge20" class="edge">
<title>Node2&#45;&gt;Node21</title>
<path fill="none" stroke="midnightblue" d="M2290.25,-147.99C2461.49,-146.15 2899.18,-137.61 3262.5,-98 3275.89,-96.54 3290.38,-94.31 3303.53,-92.04"/>
<polygon fill="midnightblue" stroke="midnightblue" points="2290.05,-144.5 2280.09,-148.1 2290.12,-151.5 2290.05,-144.5"/>
</g>
<!-- Node22 -->
<g id="node22" class="node">
<title>Node22</title>
<g id="a_node22"><a xlink:href="../../d8/de8/mainwindowsnogui_8cpp.html" target="_top" xlink:title=" ">
<polygon fill="white" stroke="black" points="3441,-73 3441,-92 3662,-92 3662,-73 3441,-73"/>
<text text-anchor="middle" x="3551.5" y="-80" font-family="Helvetica,sans-Serif" font-size="10.00">src/app/seamly2d/mainwindowsnogui.cpp</text>
</a>
</g>
</g>
<!-- Node2&#45;&gt;Node22 -->
<g id="edge21" class="edge">
<title>Node2&#45;&gt;Node22</title>
<path fill="none" stroke="midnightblue" d="M2290.31,-147.45C2479.99,-144.33 2999.91,-132.99 3431.5,-98 3450.12,-96.49 3470.29,-94.28 3488.69,-92.03"/>
<polygon fill="midnightblue" stroke="midnightblue" points="2290.12,-143.96 2280.17,-147.62 2290.23,-150.96 2290.12,-143.96"/>
</g>
<!-- Node23 -->
<g id="node23" class="node">
<title>Node23</title>
<g id="a_node23"><a xlink:href="../../d3/d49/vpattern_8cpp.html" target="_top" xlink:title=" ">
<polygon fill="white" stroke="black" points="3680,-67.5 3680,-97.5 3805,-97.5 3805,-67.5 3680,-67.5"/>
<text text-anchor="start" x="3688" y="-85.5" font-family="Helvetica,sans-Serif" font-size="10.00">src/app/seamly2d/xml</text>
<text text-anchor="middle" x="3742.5" y="-74.5" font-family="Helvetica,sans-Serif" font-size="10.00">/vpattern.cpp</text>
</a>
</g>
</g>
<!-- Node2&#45;&gt;Node23 -->
<g id="edge22" class="edge">
<title>Node2&#45;&gt;Node23</title>
<path fill="none" stroke="midnightblue" d="M2290.71,-147.53C2547.76,-143.93 3399.1,-129.82 3670.5,-98 3673.54,-97.64 3676.64,-97.23 3679.77,-96.76"/>
<polygon fill="midnightblue" stroke="midnightblue" points="2290.32,-144.04 2280.37,-147.68 2290.42,-151.04 2290.32,-144.04"/>
</g>
<!-- Node24 -->
<g id="node24" class="node">
<title>Node24</title>
<g id="a_node24"><a xlink:href="../../d8/dd9/mainwindow_8cpp.html" target="_top" xlink:title=" ">
<polygon fill="white" stroke="black" points="3823.5,-73 3823.5,-92 4011.5,-92 4011.5,-73 3823.5,-73"/>
<text text-anchor="middle" x="3917.5" y="-80" font-family="Helvetica,sans-Serif" font-size="10.00">src/app/seamly2d/mainwindow.cpp</text>
</a>
</g>
</g>
<!-- Node2&#45;&gt;Node24 -->
<g id="edge23" class="edge">
<title>Node2&#45;&gt;Node24</title>
<path fill="none" stroke="midnightblue" d="M2290.31,-148.97C2517.75,-149.81 3227.91,-147.94 3813.5,-98 3830.12,-96.58 3848.15,-94.33 3864.45,-92.01"/>
<polygon fill="midnightblue" stroke="midnightblue" points="2290.18,-145.47 2280.16,-148.93 2290.15,-152.47 2290.18,-145.47"/>
</g>
<!-- Node26 -->
<g id="node26" class="node">
<title>Node26</title>
<g id="a_node26"><a xlink:href="../../d4/d90/fvupdater_8cpp.html" target="_top" xlink:title=" ">
<polygon fill="white" stroke="black" points="4030,-73 4030,-92 4183,-92 4183,-73 4030,-73"/>
<text text-anchor="middle" x="4106.5" y="-80" font-family="Helvetica,sans-Serif" font-size="10.00">src/libs/fervor/fvupdater.cpp</text>
</a>
</g>
</g>
<!-- Node25&#45;&gt;Node26 -->
<g id="edge25" class="edge">
<title>Node25&#45;&gt;Node26</title>
<path fill="none" stroke="midnightblue" d="M5644.65,-146.93C5339.54,-142.19 4474.08,-126.54 4191.5,-98 4177.8,-96.62 4162.97,-94.35 4149.59,-92.02"/>
<polygon fill="midnightblue" stroke="midnightblue" points="5644.78,-150.43 5654.83,-147.09 5644.89,-143.43 5644.78,-150.43"/>
</g>
<!-- Node27 -->
<g id="node27" class="node">
<title>Node27</title>
<g id="a_node27"><a xlink:href="../../d9/dc8/dxiface_8cpp.html" target="_top" xlink:title=" ">
<polygon fill="white" stroke="black" points="4201,-73 4201,-92 4336,-92 4336,-73 4201,-73"/>
<text text-anchor="middle" x="4268.5" y="-80" font-family="Helvetica,sans-Serif" font-size="10.00">src/libs/vdxf/dxiface.cpp</text>
</a>
</g>
</g>
<!-- Node25&#45;&gt;Node27 -->
<g id="edge26" class="edge">
<title>Node25&#45;&gt;Node27</title>
<path fill="none" stroke="midnightblue" d="M5644.4,-146.76C5360.05,-141.84 4595.85,-126.32 4344.5,-98 4332.22,-96.62 4318.95,-94.35 4306.99,-92.02"/>
<polygon fill="midnightblue" stroke="midnightblue" points="5644.66,-150.26 5654.72,-146.94 5644.78,-143.27 5644.66,-150.26"/>
</g>
<!-- Node28 -->
<g id="node28" class="node">
<title>Node28</title>
<g id="a_node28"><a xlink:href="../../da/d75/vabstractarc__p_8h.html" target="_top" xlink:title=" ">
<polygon fill="white" stroke="red" points="4354,-67.5 4354,-97.5 4461,-97.5 4461,-67.5 4354,-67.5"/>
<text text-anchor="start" x="4362" y="-85.5" font-family="Helvetica,sans-Serif" font-size="10.00">src/libs/vgeometry</text>
<text text-anchor="middle" x="4407.5" y="-74.5" font-family="Helvetica,sans-Serif" font-size="10.00">/vabstractarc_p.h</text>
</a>
</g>
</g>
<!-- Node25&#45;&gt;Node28 -->
<g id="edge27" class="edge">
<title>Node25&#45;&gt;Node28</title>
<path fill="none" stroke="midnightblue" d="M5644.54,-146.89C5378.24,-142.51 4695.23,-128.55 4469.5,-98 4466.76,-97.63 4463.97,-97.19 4461.15,-96.71"/>
<polygon fill="midnightblue" stroke="midnightblue" points="5644.55,-150.4 5654.61,-147.06 5644.67,-143.4 5644.55,-150.4"/>
</g>
<!-- Node30 -->
<g id="node29" class="node">
<title>Node30</title>
<g id="a_node29"><a xlink:href="../../dc/da3/varc__p_8h.html" target="_top" xlink:title=" ">
<polygon fill="white" stroke="red" points="4479,-67.5 4479,-97.5 4586,-97.5 4586,-67.5 4479,-67.5"/>
<text text-anchor="start" x="4487" y="-85.5" font-family="Helvetica,sans-Serif" font-size="10.00">src/libs/vgeometry</text>
<text text-anchor="middle" x="4532.5" y="-74.5" font-family="Helvetica,sans-Serif" font-size="10.00">/varc_p.h</text>
</a>
</g>
</g>
<!-- Node25&#45;&gt;Node30 -->
<g id="edge28" class="edge">
<title>Node25&#45;&gt;Node30</title>
<path fill="none" stroke="midnightblue" d="M5644.55,-146.36C5397.19,-141.04 4795.31,-125.62 4594.5,-98 4591.76,-97.62 4588.97,-97.18 4586.15,-96.69"/>
<polygon fill="midnightblue" stroke="midnightblue" points="5644.56,-149.86 5654.63,-146.58 5644.71,-142.86 5644.56,-149.86"/>
</g>
<!-- Node32 -->
<g id="node30" class="node">
<title>Node32</title>
<g id="a_node30"><a xlink:href="../../d5/d8e/vcubicbezier__p_8h.html" target="_top" xlink:title=" ">
<polygon fill="white" stroke="red" points="4604,-67.5 4604,-97.5 4711,-97.5 4711,-67.5 4604,-67.5"/>
<text text-anchor="start" x="4612" y="-85.5" font-family="Helvetica,sans-Serif" font-size="10.00">src/libs/vgeometry</text>
<text text-anchor="middle" x="4657.5" y="-74.5" font-family="Helvetica,sans-Serif" font-size="10.00">/vcubicbezier_p.h</text>
</a>
</g>
</g>
<!-- Node25&#45;&gt;Node32 -->
<g id="edge29" class="edge">
<title>Node25&#45;&gt;Node32</title>
<path fill="none" stroke="midnightblue" d="M5644.42,-145.69C5416.99,-139.39 4895.5,-122.68 4719.5,-98 4716.76,-97.62 4713.97,-97.17 4711.16,-96.67"/>
<polygon fill="midnightblue" stroke="midnightblue" points="5644.6,-149.2 5654.69,-145.98 5644.79,-142.2 5644.6,-149.2"/>
</g>
<!-- Node34 -->
<g id="node31" class="node">
<title>Node34</title>
<g id="a_node31"><a xlink:href="../../df/dde/vellipticalarc__p_8h.html" target="_top" xlink:title=" ">
<polygon fill="white" stroke="black" points="4729,-67.5 4729,-97.5 4836,-97.5 4836,-67.5 4729,-67.5"/>
<text text-anchor="start" x="4737" y="-85.5" font-family="Helvetica,sans-Serif" font-size="10.00">src/libs/vgeometry</text>
<text text-anchor="middle" x="4782.5" y="-74.5" font-family="Helvetica,sans-Serif" font-size="10.00">/vellipticalarc_p.h</text>
</a>
</g>
</g>
<!-- Node25&#45;&gt;Node34 -->
<g id="edge30" class="edge">
<title>Node25&#45;&gt;Node34</title>
<path fill="none" stroke="midnightblue" d="M5644.75,-147.82C5475.07,-145.55 5135.58,-136.14 4850.5,-98 4845.83,-97.38 4841.01,-96.61 4836.19,-95.75"/>
<polygon fill="midnightblue" stroke="midnightblue" points="5644.89,-151.32 5654.93,-147.95 5644.98,-144.32 5644.89,-151.32"/>
</g>
<!-- Node35 -->
<g id="node32" class="node">
<title>Node35</title>
<g id="a_node32"><a xlink:href="../../d6/dfb/vellipticalarc_8cpp.html" target="_top" xlink:title=" ">
<polygon fill="white" stroke="black" points="4770,-0.5 4770,-30.5 4877,-30.5 4877,-0.5 4770,-0.5"/>
<text text-anchor="start" x="4778" y="-18.5" font-family="Helvetica,sans-Serif" font-size="10.00">src/libs/vgeometry</text>
<text text-anchor="middle" x="4823.5" y="-7.5" font-family="Helvetica,sans-Serif" font-size="10.00">/vellipticalarc.cpp</text>
</a>
</g>
</g>
<!-- Node25&#45;&gt;Node35 -->
<g id="edge32" class="edge">
<title>Node25&#45;&gt;Node35</title>
<path fill="none" stroke="midnightblue" d="M5644.5,-147.33C5426.45,-144.22 4948.8,-133.43 4883.5,-98 4856.17,-83.17 4837.95,-49.89 4829.31,-30.76"/>
<polygon fill="midnightblue" stroke="midnightblue" points="5644.63,-150.83 5654.68,-147.47 5644.73,-143.83 5644.63,-150.83"/>
</g>
<!-- Node36 -->
<g id="node33" class="node">
<title>Node36</title>
<g id="a_node33"><a xlink:href="../../d1/d76/vspline__p_8h.html" target="_top" xlink:title=" ">
<polygon fill="white" stroke="red" points="4893,-67.5 4893,-97.5 5000,-97.5 5000,-67.5 4893,-67.5"/>
<text text-anchor="start" x="4901" y="-85.5" font-family="Helvetica,sans-Serif" font-size="10.00">src/libs/vgeometry</text>
<text text-anchor="middle" x="4946.5" y="-74.5" font-family="Helvetica,sans-Serif" font-size="10.00">/vspline_p.h</text>
</a>
</g>
</g>
<!-- Node25&#45;&gt;Node36 -->
<g id="edge33" class="edge">
<title>Node25&#45;&gt;Node36</title>
<path fill="none" stroke="midnightblue" d="M5644.67,-146.52C5499.6,-142.63 5233.85,-131.23 5009.5,-98 5006.39,-97.54 5003.21,-97.01 5000.01,-96.42"/>
<polygon fill="midnightblue" stroke="midnightblue" points="5644.82,-150.02 5654.91,-146.78 5645,-143.02 5644.82,-150.02"/>
</g>
<!-- Node38 -->
<g id="node34" class="node">
<title>Node38</title>
<g id="a_node34"><a xlink:href="../../d9/d15/vabstractpiece_8cpp.html" target="_top" xlink:title=" ">
<polygon fill="white" stroke="black" points="5018.5,-73 5018.5,-92 5204.5,-92 5204.5,-73 5018.5,-73"/>
<text text-anchor="middle" x="5111.5" y="-80" font-family="Helvetica,sans-Serif" font-size="10.00">src/libs/vlayout/vabstractpiece.cpp</text>
</a>
</g>
</g>
<!-- Node25&#45;&gt;Node38 -->
<g id="edge34" class="edge">
<title>Node25&#45;&gt;Node38</title>
<path fill="none" stroke="midnightblue" d="M5644.97,-139.95C5536.07,-130.93 5362.85,-115.6 5213.5,-98 5198.76,-96.26 5182.85,-94.13 5168.09,-92.04"/>
<polygon fill="midnightblue" stroke="midnightblue" points="5644.73,-143.44 5654.98,-140.77 5645.3,-136.46 5644.73,-143.44"/>
</g>
<!-- Node39 -->
<g id="node35" class="node">
<title>Node39</title>
<g id="a_node35"><a xlink:href="../../d8/d70/vtextmanager_8cpp.html" target="_top" xlink:title=" ">
<polygon fill="white" stroke="black" points="5222.5,-73 5222.5,-92 5404.5,-92 5404.5,-73 5222.5,-73"/>
<text text-anchor="middle" x="5313.5" y="-80" font-family="Helvetica,sans-Serif" font-size="10.00">src/libs/vlayout/vtextmanager.cpp</text>
</a>
</g>
</g>
<!-- Node25&#45;&gt;Node39 -->
<g id="edge35" class="edge">
<title>Node25&#45;&gt;Node39</title>
<path fill="none" stroke="midnightblue" d="M5684.74,-138.47C5598.76,-125.74 5451.96,-104 5371.12,-92.03"/>
<polygon fill="midnightblue" stroke="midnightblue" points="5684.25,-141.93 5694.66,-139.94 5685.28,-135.01 5684.25,-141.93"/>
</g>
<!-- Node40 -->
<g id="node36" class="node">
<title>Node40</title>
<g id="a_node36"><a xlink:href="../../dd/d70/vlayoutpiece_8cpp.html" target="_top" xlink:title=" ">
<polygon fill="white" stroke="black" points="5423,-73 5423,-92 5600,-92 5600,-73 5423,-73"/>
<text text-anchor="middle" x="5511.5" y="-80" font-family="Helvetica,sans-Serif" font-size="10.00">src/libs/vlayout/vlayoutpiece.cpp</text>
</a>
</g>
</g>
<!-- Node25&#45;&gt;Node40 -->
<g id="edge36" class="edge">
<title>Node25&#45;&gt;Node40</title>
<path fill="none" stroke="midnightblue" d="M5710.8,-137.25C5663.16,-124.41 5586.27,-103.67 5543.25,-92.06"/>
<polygon fill="midnightblue" stroke="midnightblue" points="5709.93,-140.64 5720.5,-139.87 5711.75,-133.89 5709.93,-140.64"/>
</g>
<!-- Node41 -->
<g id="node37" class="node">
<title>Node41</title>
<g id="a_node37"><a xlink:href="../../db/d65/dialogexporttocsv_8cpp.html" target="_top" xlink:title=" ">
<polygon fill="white" stroke="black" points="5618,-67.5 5618,-97.5 5745,-97.5 5745,-67.5 5618,-67.5"/>
<text text-anchor="start" x="5626" y="-85.5" font-family="Helvetica,sans-Serif" font-size="10.00">src/libs/vmisc/dialogs</text>
<text text-anchor="middle" x="5681.5" y="-74.5" font-family="Helvetica,sans-Serif" font-size="10.00">/dialogexporttocsv.cpp</text>
</a>
</g>
</g>
<!-- Node25&#45;&gt;Node41 -->
<g id="edge37" class="edge">
<title>Node25&#45;&gt;Node41</title>
<path fill="none" stroke="midnightblue" d="M5735.49,-132.93C5723.75,-122.18 5708.26,-108 5696.89,-97.59"/>
<polygon fill="midnightblue" stroke="midnightblue" points="5733.19,-135.56 5742.92,-139.73 5737.91,-130.4 5733.19,-135.56"/>
</g>
<!-- Node42 -->
<g id="node38" class="node">
<title>Node42</title>
<g id="a_node38"><a xlink:href="../../d6/d0b/def_8cpp.html" target="_top" xlink:title=" ">
<polygon fill="white" stroke="black" points="5763.5,-73 5763.5,-92 5885.5,-92 5885.5,-73 5763.5,-73"/>
<text text-anchor="middle" x="5824.5" y="-80" font-family="Helvetica,sans-Serif" font-size="10.00">src/libs/vmisc/def.cpp</text>
</a>
</g>
</g>
<!-- Node25&#45;&gt;Node42 -->
<g id="edge38" class="edge">
<title>Node25&#45;&gt;Node42</title>
<path fill="none" stroke="midnightblue" d="M5769.83,-132.86C5783.98,-120.08 5803.46,-102.49 5814.94,-92.13"/>
<polygon fill="midnightblue" stroke="midnightblue" points="5767.29,-130.43 5762.21,-139.73 5771.98,-135.63 5767.29,-130.43"/>
</g>
<!-- Node43 -->
<g id="node39" class="node">
<title>Node43</title>
<g id="a_node39"><a xlink:href="../../d0/df6/vabstractapplication_8cpp.html" target="_top" xlink:title=" ">
<polygon fill="white" stroke="black" points="5903.5,-73 5903.5,-92 6109.5,-92 6109.5,-73 5903.5,-73"/>
<text text-anchor="middle" x="6006.5" y="-80" font-family="Helvetica,sans-Serif" font-size="10.00">src/libs/vmisc/vabstractapplication.cpp</text>
</a>
</g>
</g>
<!-- Node25&#45;&gt;Node43 -->
<g id="edge39" class="edge">
<title>Node25&#45;&gt;Node43</title>
<path fill="none" stroke="midnightblue" d="M5795.86,-137.4C5845.99,-124.58 5927.42,-103.74 5972.96,-92.08"/>
<polygon fill="midnightblue" stroke="midnightblue" points="5794.79,-134.07 5785.97,-139.94 5796.52,-140.85 5794.79,-134.07"/>
</g>
<!-- Node44 -->
<g id="node40" class="node">
<title>Node44</title>
<g id="a_node40"><a xlink:href="../../d4/d4f/pmsystems_8cpp.html" target="_top" xlink:title=" ">
<polygon fill="white" stroke="black" points="6128,-67.5 6128,-97.5 6235,-97.5 6235,-67.5 6128,-67.5"/>
<text text-anchor="start" x="6136" y="-85.5" font-family="Helvetica,sans-Serif" font-size="10.00">src/libs/vpatterndb</text>
<text text-anchor="middle" x="6181.5" y="-74.5" font-family="Helvetica,sans-Serif" font-size="10.00">/pmsystems.cpp</text>
</a>
</g>
</g>
<!-- Node25&#45;&gt;Node44 -->
<g id="edge40" class="edge">
<title>Node25&#45;&gt;Node44</title>
<path fill="none" stroke="midnightblue" d="M5826.49,-138.65C5925.1,-125.47 6090.48,-103.15 6118.5,-98 6121.59,-97.43 6124.76,-96.82 6127.95,-96.17"/>
<polygon fill="midnightblue" stroke="midnightblue" points="5826.03,-135.18 5816.58,-139.98 5826.95,-142.12 5826.03,-135.18"/>
</g>
<!-- Node45 -->
<g id="node41" class="node">
<title>Node45</title>
<g id="a_node41"><a xlink:href="../../db/d11/vformula_8cpp.html" target="_top" xlink:title=" ">
<polygon fill="white" stroke="black" points="6253,-67.5 6253,-97.5 6360,-97.5 6360,-67.5 6253,-67.5"/>
<text text-anchor="start" x="6261" y="-85.5" font-family="Helvetica,sans-Serif" font-size="10.00">src/libs/vpatterndb</text>
<text text-anchor="middle" x="6306.5" y="-74.5" font-family="Helvetica,sans-Serif" font-size="10.00">/vformula.cpp</text>
</a>
</g>
</g>
<!-- Node25&#45;&gt;Node45 -->
<g id="edge41" class="edge">
<title>Node25&#45;&gt;Node45</title>
<path fill="none" stroke="midnightblue" d="M5824.88,-138.67C5837.73,-137.03 5851,-135.41 5863.5,-134 6032.08,-115.01 6076.03,-125.08 6243.5,-98 6246.6,-97.5 6249.78,-96.93 6252.98,-96.32"/>
<polygon fill="midnightblue" stroke="midnightblue" points="5824.15,-135.23 5814.68,-139.98 5825.05,-142.18 5824.15,-135.23"/>
</g>
<!-- Node46 -->
<g id="node42" class="node">
<title>Node46</title>
<g id="a_node42"><a xlink:href="../../d6/d46/vcontainer_8cpp.html" target="_top" xlink:title=" ">
<polygon fill="white" stroke="black" points="6378,-67.5 6378,-97.5 6485,-97.5 6485,-67.5 6378,-67.5"/>
<text text-anchor="start" x="6386" y="-85.5" font-family="Helvetica,sans-Serif" font-size="10.00">src/libs/vpatterndb</text>
<text text-anchor="middle" x="6431.5" y="-74.5" font-family="Helvetica,sans-Serif" font-size="10.00">/vcontainer.cpp</text>
</a>
</g>
</g>
<!-- Node25&#45;&gt;Node46 -->
<g id="edge42" class="edge">
<title>Node25&#45;&gt;Node46</title>
<path fill="none" stroke="midnightblue" d="M5822.81,-138.68C5836.3,-136.98 5850.33,-135.33 5863.5,-134 6087.38,-111.42 6145.97,-131.33 6368.5,-98 6371.61,-97.53 6374.79,-97 6377.99,-96.41"/>
<polygon fill="midnightblue" stroke="midnightblue" points="5822.1,-135.24 5812.63,-139.99 5822.99,-142.19 5822.1,-135.24"/>
</g>
<!-- Node47 -->
<g id="node43" class="node">
<title>Node47</title>
<g id="a_node43"><a xlink:href="../../df/d7a/vpiece_8cpp.html" target="_top" xlink:title=" ">
<polygon fill="white" stroke="black" points="6503,-67.5 6503,-97.5 6610,-97.5 6610,-67.5 6503,-67.5"/>
<text text-anchor="start" x="6511" y="-85.5" font-family="Helvetica,sans-Serif" font-size="10.00">src/libs/vpatterndb</text>
<text text-anchor="middle" x="6556.5" y="-74.5" font-family="Helvetica,sans-Serif" font-size="10.00">/vpiece.cpp</text>
</a>
</g>
</g>
<!-- Node25&#45;&gt;Node47 -->
<g id="edge43" class="edge">
<title>Node25&#45;&gt;Node47</title>
<path fill="none" stroke="midnightblue" d="M5821.45,-138.7C5835.35,-136.95 5849.88,-135.28 5863.5,-134 6142.73,-107.82 6215.85,-137.59 6493.5,-98 6496.61,-97.56 6499.8,-97.04 6503,-96.46"/>
<polygon fill="midnightblue" stroke="midnightblue" points="5820.93,-135.24 5811.46,-139.99 5821.82,-142.18 5820.93,-135.24"/>
</g>
<!-- Node48 -->
<g id="node44" class="node">
<title>Node48</title>
<g id="a_node44"><a xlink:href="../../df/dba/vpiecenode__p_8h.html" target="_top" xlink:title=" ">
<polygon fill="white" stroke="red" points="6628,-67.5 6628,-97.5 6735,-97.5 6735,-67.5 6628,-67.5"/>
<text text-anchor="start" x="6636" y="-85.5" font-family="Helvetica,sans-Serif" font-size="10.00">src/libs/vpatterndb</text>
<text text-anchor="middle" x="6681.5" y="-74.5" font-family="Helvetica,sans-Serif" font-size="10.00">/vpiecenode_p.h</text>
</a>
</g>
</g>
<!-- Node25&#45;&gt;Node48 -->
<g id="edge44" class="edge">
<title>Node25&#45;&gt;Node48</title>
<path fill="none" stroke="midnightblue" d="M5820.72,-138.69C5834.84,-136.91 5849.64,-135.23 5863.5,-134 6198.11,-104.22 6285.71,-143.86 6618.5,-98 6621.5,-97.59 6624.57,-97.1 6627.66,-96.56"/>
<polygon fill="midnightblue" stroke="midnightblue" points="5820.06,-135.25 5810.59,-140 5820.95,-142.19 5820.06,-135.25"/>
</g>
<!-- Node50 -->
<g id="node45" class="node">
<title>Node50</title>
<g id="a_node45"><a xlink:href="../../de/d3e/vtranslatevars_8cpp.html" target="_top" xlink:title=" ">
<polygon fill="white" stroke="black" points="6753.5,-67.5 6753.5,-97.5 6863.5,-97.5 6863.5,-67.5 6753.5,-67.5"/>
<text text-anchor="start" x="6761.5" y="-85.5" font-family="Helvetica,sans-Serif" font-size="10.00">src/libs/vpatterndb</text>
<text text-anchor="middle" x="6808.5" y="-74.5" font-family="Helvetica,sans-Serif" font-size="10.00">/vtranslatevars.cpp</text>
</a>
</g>
</g>
<!-- Node25&#45;&gt;Node50 -->
<g id="edge45" class="edge">
<title>Node25&#45;&gt;Node50</title>
<path fill="none" stroke="midnightblue" d="M5820.24,-138.68C5834.5,-136.88 5849.48,-135.2 5863.5,-134 6253.51,-100.62 6355.37,-148.82 6743.5,-98 6746.71,-97.58 6750,-97.08 6753.3,-96.52"/>
<polygon fill="midnightblue" stroke="midnightblue" points="5819.48,-135.25 5810.01,-140 5820.37,-142.19 5819.48,-135.25"/>
</g>
<!-- Node51 -->
<g id="node46" class="node">
<title>Node51</title>
<g id="a_node46"><a xlink:href="../../df/d40/export__format__combobox_8cpp.html" target="_top" xlink:title=" ">
<polygon fill="white" stroke="black" points="6882,-67.5 6882,-97.5 7015,-97.5 7015,-67.5 6882,-67.5"/>
<text text-anchor="start" x="6890" y="-85.5" font-family="Helvetica,sans-Serif" font-size="10.00">src/libs/vwidgets/export</text>
<text text-anchor="middle" x="6948.5" y="-74.5" font-family="Helvetica,sans-Serif" font-size="10.00">_format_combobox.cpp</text>
</a>
</g>
</g>
<!-- Node25&#45;&gt;Node51 -->
<g id="edge46" class="edge">
<title>Node25&#45;&gt;Node51</title>
<path fill="none" stroke="midnightblue" d="M5820,-138.65C5834.33,-136.85 5849.4,-135.17 5863.5,-134 6310.69,-96.9 6426.59,-148.19 6872.5,-98 6875.57,-97.65 6878.7,-97.25 6881.86,-96.81"/>
<polygon fill="midnightblue" stroke="midnightblue" points="5819.18,-135.23 5809.71,-139.98 5820.08,-142.17 5819.18,-135.23"/>
</g>
<!-- Node52 -->
<g id="node47" class="node">
<title>Node52</title>
<g id="a_node47"><a xlink:href="../../d3/d4f/mouse__coordinates_8cpp.html" target="_top" xlink:title=" ">
<polygon fill="white" stroke="black" points="7033.5,-67.5 7033.5,-97.5 7167.5,-97.5 7167.5,-67.5 7033.5,-67.5"/>
<text text-anchor="start" x="7041.5" y="-85.5" font-family="Helvetica,sans-Serif" font-size="10.00">src/libs/vwidgets/mouse</text>
<text text-anchor="middle" x="7100.5" y="-74.5" font-family="Helvetica,sans-Serif" font-size="10.00">_coordinates.cpp</text>
</a>
</g>
</g>
<!-- Node25&#45;&gt;Node52 -->
<g id="edge47" class="edge">
<title>Node25&#45;&gt;Node52</title>
<path fill="none" stroke="midnightblue" d="M5819.76,-138.63C5834.16,-136.82 5849.31,-135.14 5863.5,-134 6377.64,-92.54 6510.73,-153.9 7023.5,-98 7026.75,-97.65 7030.06,-97.23 7033.4,-96.77"/>
<polygon fill="midnightblue" stroke="midnightblue" points="5818.89,-135.21 5809.42,-139.97 5819.79,-142.15 5818.89,-135.21"/>
</g>
<!-- Node53 -->
<g id="node48" class="node">
<title>Node53</title>
<g id="a_node48"><a xlink:href="../../d7/d1b/pen__toolbar_8cpp.html" target="_top" xlink:title=" ">
<polygon fill="white" stroke="black" points="7186,-67.5 7186,-97.5 7305,-97.5 7305,-67.5 7186,-67.5"/>
<text text-anchor="start" x="7194" y="-85.5" font-family="Helvetica,sans-Serif" font-size="10.00">src/libs/vwidgets/pen</text>
<text text-anchor="middle" x="7245.5" y="-74.5" font-family="Helvetica,sans-Serif" font-size="10.00">_toolbar.cpp</text>
</a>
</g>
</g>
<!-- Node25&#45;&gt;Node53 -->
<g id="edge48" class="edge">
<title>Node25&#45;&gt;Node53</title>
<path fill="none" stroke="midnightblue" d="M5819.1,-138.67C5833.7,-136.83 5849.1,-135.14 5863.5,-134 6445.47,-88.13 6596.73,-166.3 7176.5,-98 7179.54,-97.64 7182.64,-97.22 7185.77,-96.74"/>
<polygon fill="midnightblue" stroke="midnightblue" points="5818.6,-135.21 5809.14,-139.96 5819.5,-142.15 5818.6,-135.21"/>
</g>
<!-- Node25&#45;&gt;Node62 -->
<g id="edge49" class="edge">
<title>Node25&#45;&gt;Node62</title>
<path fill="none" stroke="midnightblue" d="M5818.85,-138.68C5833.53,-136.83 5849.02,-135.12 5863.5,-134 6506.22,-84.18 6670.6,-145.37 7313.5,-98 7332.44,-96.6 7353,-94.34 7371.58,-92.01"/>
<polygon fill="midnightblue" stroke="midnightblue" points="5818.32,-135.22 5808.85,-139.97 5819.22,-142.16 5818.32,-135.22"/>
</g>
<!-- Node34&#45;&gt;Node35 -->
<g id="edge31" class="edge">
<title>Node34&#45;&gt;Node35</title>
<path fill="none" stroke="midnightblue" d="M4796.78,-58.87C4802.71,-49.46 4809.41,-38.83 4814.62,-30.58"/>
<polygon fill="midnightblue" stroke="midnightblue" points="4793.77,-57.07 4791.4,-67.4 4799.69,-60.81 4793.77,-57.07"/>
</g>
</g>
</svg>
