<?xml version="1.0" encoding="UTF-8" standalone="no"?>
<!DOCTYPE svg PUBLIC "-//W3C//DTD SVG 1.1//EN"
 "http://www.w3.org/Graphics/SVG/1.1/DTD/svg11.dtd">
<!-- Generated by graphviz version 2.43.0 (0)
 -->
<!-- Title: src/libs/vmisc/vsettings.h Pages: 1 -->
<svg width="7558pt" height="229pt"
 viewBox="0.00 0.00 7558.00 229.00" xmlns="http://www.w3.org/2000/svg" xmlns:xlink="http://www.w3.org/1999/xlink">
<g id="graph0" class="graph" transform="scale(1 1) rotate(0) translate(4 225)">
<title>src/libs/vmisc/vsettings.h</title>
<polygon fill="white" stroke="transparent" points="-4,4 -4,-225 7554,-225 7554,4 -4,4"/>
<!-- Node1 -->
<g id="node1" class="node">
<title>Node1</title>
<g id="a_node1"><a xlink:title=" ">
<polygon fill="#bfbfbf" stroke="black" points="5703,-201.5 5703,-220.5 5843,-220.5 5843,-201.5 5703,-201.5"/>
<text text-anchor="middle" x="5773" y="-208.5" font-family="Helvetica,sans-Serif" font-size="10.00">src/libs/vmisc/vsettings.h</text>
</a>
</g>
</g>
<!-- Node2 -->
<g id="node2" class="node">
<title>Node2</title>
<g id="a_node2"><a xlink:href="../../d9/d02/vapplication_8h.html" target="_top" xlink:title=" ">
<polygon fill="white" stroke="black" points="2151.5,-134.5 2151.5,-164.5 2278.5,-164.5 2278.5,-134.5 2151.5,-134.5"/>
<text text-anchor="start" x="2159.5" y="-152.5" font-family="Helvetica,sans-Serif" font-size="10.00">src/app/seamly2d/core</text>
<text text-anchor="middle" x="2215" y="-141.5" font-family="Helvetica,sans-Serif" font-size="10.00">/vapplication.h</text>
</a>
</g>
</g>
<!-- Node1&#45;&gt;Node2 -->
<g id="edge1" class="edge">
<title>Node1&#45;&gt;Node2</title>
<path fill="none" stroke="midnightblue" d="M5692.38,-208.65C5209.92,-200.58 2711.16,-158.8 2278.78,-151.57"/>
<polygon fill="midnightblue" stroke="midnightblue" points="5692.67,-212.16 5702.73,-208.82 5692.79,-205.16 5692.67,-212.16"/>
</g>
<!-- Node25 -->
<g id="node25" class="node">
<title>Node25</title>
<g id="a_node25"><a xlink:href="../../d5/d74/vabstractapplication_8h.html" target="_top" xlink:title=" ">
<polygon fill="white" stroke="red" points="5613.5,-140 5613.5,-159 5808.5,-159 5808.5,-140 5613.5,-140"/>
<text text-anchor="middle" x="5711" y="-147" font-family="Helvetica,sans-Serif" font-size="10.00">src/libs/vmisc/vabstractapplication.h</text>
</a>
</g>
</g>
<!-- Node1&#45;&gt;Node25 -->
<g id="edge24" class="edge">
<title>Node1&#45;&gt;Node25</title>
<path fill="none" stroke="midnightblue" d="M5756.67,-194.32C5744.89,-183.02 5729.44,-168.19 5719.87,-159.01"/>
<polygon fill="midnightblue" stroke="midnightblue" points="5754.48,-197.08 5764.12,-201.48 5759.33,-192.03 5754.48,-197.08"/>
</g>
<!-- Node61 -->
<g id="node49" class="node">
<title>Node61</title>
<g id="a_node49"><a xlink:href="../../d2/d31/vmaingraphicsview_8cpp.html" target="_top" xlink:title=" ">
<polygon fill="white" stroke="black" points="7334,-73 7334,-92 7550,-92 7550,-73 7334,-73"/>
<text text-anchor="middle" x="7442" y="-80" font-family="Helvetica,sans-Serif" font-size="10.00">src/libs/vwidgets/vmaingraphicsview.cpp</text>
</a>
</g>
</g>
<!-- Node1&#45;&gt;Node61 -->
<g id="edge51" class="edge">
<title>Node1&#45;&gt;Node61</title>
<path fill="none" stroke="midnightblue" d="M5788.6,-194.4C5810.06,-173.13 5846.95,-137.27 5855,-134 5930.63,-103.27 7242.58,-103.99 7324,-98 7342.94,-96.61 7363.5,-94.34 7382.08,-92.01"/>
<polygon fill="midnightblue" stroke="midnightblue" points="5786.1,-191.96 5781.48,-201.49 5791.03,-196.92 5786.1,-191.96"/>
</g>
<!-- Node66 -->
<g id="node50" class="node">
<title>Node66</title>
<g id="a_node50"><a xlink:href="../../db/d28/vsettings_8cpp.html" target="_top" xlink:title=" ">
<polygon fill="white" stroke="black" points="5864,-140 5864,-159 6016,-159 6016,-140 5864,-140"/>
<text text-anchor="middle" x="5940" y="-147" font-family="Helvetica,sans-Serif" font-size="10.00">src/libs/vmisc/vsettings.cpp</text>
</a>
</g>
</g>
<!-- Node1&#45;&gt;Node66 -->
<g id="edge50" class="edge">
<title>Node1&#45;&gt;Node66</title>
<path fill="none" stroke="midnightblue" d="M5806.45,-198.08C5838.91,-186.52 5887.37,-169.25 5916.12,-159.01"/>
<polygon fill="midnightblue" stroke="midnightblue" points="5805.17,-194.82 5796.93,-201.48 5807.52,-201.42 5805.17,-194.82"/>
</g>
<!-- Node3 -->
<g id="node3" class="node">
<title>Node3</title>
<g id="a_node3"><a xlink:href="../../dd/db4/abstractlayout__dialog_8cpp.html" target="_top" xlink:title=" ">
<polygon fill="white" stroke="black" points="0,-67.5 0,-97.5 146,-97.5 146,-67.5 0,-67.5"/>
<text text-anchor="start" x="8" y="-85.5" font-family="Helvetica,sans-Serif" font-size="10.00">src/app/seamly2d/dialogs</text>
<text text-anchor="middle" x="73" y="-74.5" font-family="Helvetica,sans-Serif" font-size="10.00">/abstractlayout_dialog.cpp</text>
</a>
</g>
</g>
<!-- Node2&#45;&gt;Node3 -->
<g id="edge2" class="edge">
<title>Node2&#45;&gt;Node3</title>
<path fill="none" stroke="midnightblue" d="M2141.25,-148.18C1821.35,-146.57 552.04,-137.74 155,-98 152.12,-97.71 149.2,-97.38 146.24,-97.01"/>
<polygon fill="midnightblue" stroke="midnightblue" points="2141.32,-151.68 2151.34,-148.23 2141.35,-144.68 2141.32,-151.68"/>
</g>
<!-- Node4 -->
<g id="node4" class="node">
<title>Node4</title>
<g id="a_node4"><a xlink:href="../../d7/dfa/calculator__dialog_8cpp.html" target="_top" xlink:title=" ">
<polygon fill="white" stroke="black" points="164.5,-67.5 164.5,-97.5 305.5,-97.5 305.5,-67.5 164.5,-67.5"/>
<text text-anchor="start" x="172.5" y="-85.5" font-family="Helvetica,sans-Serif" font-size="10.00">src/app/seamly2d/dialogs</text>
<text text-anchor="middle" x="235" y="-74.5" font-family="Helvetica,sans-Serif" font-size="10.00">/calculator_dialog.cpp</text>
</a>
</g>
</g>
<!-- Node2&#45;&gt;Node4 -->
<g id="edge3" class="edge">
<title>Node2&#45;&gt;Node4</title>
<path fill="none" stroke="midnightblue" d="M2140.99,-148.07C1836.29,-146.05 677.84,-135.99 314,-98 311.23,-97.71 308.4,-97.38 305.56,-97.01"/>
<polygon fill="midnightblue" stroke="midnightblue" points="2141.02,-151.57 2151.04,-148.13 2141.06,-144.57 2141.02,-151.57"/>
</g>
<!-- Node5 -->
<g id="node5" class="node">
<title>Node5</title>
<g id="a_node5"><a xlink:href="../../d2/d2d/preferencesconfigurationpage_8cpp.html" target="_top" xlink:title=" ">
<polygon fill="white" stroke="black" points="323.5,-67.5 323.5,-97.5 570.5,-97.5 570.5,-67.5 323.5,-67.5"/>
<text text-anchor="start" x="331.5" y="-85.5" font-family="Helvetica,sans-Serif" font-size="10.00">src/app/seamly2d/dialogs</text>
<text text-anchor="middle" x="447" y="-74.5" font-family="Helvetica,sans-Serif" font-size="10.00">/configpages/preferencesconfigurationpage.cpp</text>
</a>
</g>
</g>
<!-- Node2&#45;&gt;Node5 -->
<g id="edge4" class="edge">
<title>Node2&#45;&gt;Node5</title>
<path fill="none" stroke="midnightblue" d="M2141.11,-148.26C1910.2,-147.08 1181.62,-140.02 580,-98 576.87,-97.78 573.7,-97.55 570.51,-97.3"/>
<polygon fill="midnightblue" stroke="midnightblue" points="2141.39,-151.76 2151.41,-148.31 2141.42,-144.76 2141.39,-151.76"/>
</g>
<!-- Node6 -->
<g id="node6" class="node">
<title>Node6</title>
<g id="a_node6"><a xlink:href="../../d9/d70/preferencesgraphicsviewpage_8cpp.html" target="_top" xlink:title=" ">
<polygon fill="white" stroke="black" points="589,-67.5 589,-97.5 837,-97.5 837,-67.5 589,-67.5"/>
<text text-anchor="start" x="597" y="-85.5" font-family="Helvetica,sans-Serif" font-size="10.00">src/app/seamly2d/dialogs</text>
<text text-anchor="middle" x="713" y="-74.5" font-family="Helvetica,sans-Serif" font-size="10.00">/configpages/preferencesgraphicsviewpage.cpp</text>
</a>
</g>
</g>
<!-- Node2&#45;&gt;Node6 -->
<g id="edge5" class="edge">
<title>Node2&#45;&gt;Node6</title>
<path fill="none" stroke="midnightblue" d="M2141.39,-147.64C1936.12,-144.84 1339.95,-133.99 846,-98 843.1,-97.79 840.17,-97.56 837.22,-97.33"/>
<polygon fill="midnightblue" stroke="midnightblue" points="2141.41,-151.14 2151.45,-147.78 2141.5,-144.14 2141.41,-151.14"/>
</g>
<!-- Node7 -->
<g id="node7" class="node">
<title>Node7</title>
<g id="a_node7"><a xlink:href="../../d2/d00/vtooloptionspropertybrowser_8cpp.html" target="_top" xlink:title=" ">
<polygon fill="white" stroke="black" points="855,-67.5 855,-97.5 1035,-97.5 1035,-67.5 855,-67.5"/>
<text text-anchor="start" x="863" y="-85.5" font-family="Helvetica,sans-Serif" font-size="10.00">src/app/seamly2d/core</text>
<text text-anchor="middle" x="945" y="-74.5" font-family="Helvetica,sans-Serif" font-size="10.00">/vtooloptionspropertybrowser.cpp</text>
</a>
</g>
</g>
<!-- Node2&#45;&gt;Node7 -->
<g id="edge6" class="edge">
<title>Node2&#45;&gt;Node7</title>
<path fill="none" stroke="midnightblue" d="M2141.22,-147.94C1956.17,-145.95 1457.56,-137.1 1044,-98 1041.06,-97.72 1038.07,-97.42 1035.06,-97.09"/>
<polygon fill="midnightblue" stroke="midnightblue" points="2141.34,-151.44 2151.38,-148.04 2141.41,-144.44 2141.34,-151.44"/>
</g>
<!-- Node8 -->
<g id="node8" class="node">
<title>Node8</title>
<g id="a_node8"><a xlink:href="../../dc/d20/preferencespathpage_8cpp.html" target="_top" xlink:title=" ">
<polygon fill="white" stroke="black" points="1053.5,-67.5 1053.5,-97.5 1258.5,-97.5 1258.5,-67.5 1053.5,-67.5"/>
<text text-anchor="start" x="1061.5" y="-85.5" font-family="Helvetica,sans-Serif" font-size="10.00">src/app/seamly2d/dialogs</text>
<text text-anchor="middle" x="1156" y="-74.5" font-family="Helvetica,sans-Serif" font-size="10.00">/configpages/preferencespathpage.cpp</text>
</a>
</g>
</g>
<!-- Node2&#45;&gt;Node8 -->
<g id="edge7" class="edge">
<title>Node2&#45;&gt;Node8</title>
<path fill="none" stroke="midnightblue" d="M2141.17,-146.49C1981.46,-141.73 1592.01,-127.84 1267,-98 1264.29,-97.75 1261.55,-97.49 1258.78,-97.21"/>
<polygon fill="midnightblue" stroke="midnightblue" points="2141.26,-150 2151.36,-146.8 2141.47,-143 2141.26,-150"/>
</g>
<!-- Node9 -->
<g id="node9" class="node">
<title>Node9</title>
<g id="a_node9"><a xlink:href="../../d3/dd8/vapplication_8cpp.html" target="_top" xlink:title=" ">
<polygon fill="white" stroke="black" points="1276.5,-67.5 1276.5,-97.5 1403.5,-97.5 1403.5,-67.5 1276.5,-67.5"/>
<text text-anchor="start" x="1284.5" y="-85.5" font-family="Helvetica,sans-Serif" font-size="10.00">src/app/seamly2d/core</text>
<text text-anchor="middle" x="1340" y="-74.5" font-family="Helvetica,sans-Serif" font-size="10.00">/vapplication.cpp</text>
</a>
</g>
</g>
<!-- Node2&#45;&gt;Node9 -->
<g id="edge8" class="edge">
<title>Node2&#45;&gt;Node9</title>
<path fill="none" stroke="midnightblue" d="M2141,-147.13C1999.18,-143.78 1679.56,-132.71 1413,-98 1409.92,-97.6 1406.78,-97.15 1403.62,-96.66"/>
<polygon fill="midnightblue" stroke="midnightblue" points="2141.23,-150.64 2151.3,-147.37 2141.39,-143.64 2141.23,-150.64"/>
</g>
<!-- Node10 -->
<g id="node10" class="node">
<title>Node10</title>
<g id="a_node10"><a xlink:href="../../dc/d63/preferencespatternpage_8cpp.html" target="_top" xlink:title=" ">
<polygon fill="white" stroke="black" points="1422,-67.5 1422,-97.5 1640,-97.5 1640,-67.5 1422,-67.5"/>
<text text-anchor="start" x="1430" y="-85.5" font-family="Helvetica,sans-Serif" font-size="10.00">src/app/seamly2d/dialogs</text>
<text text-anchor="middle" x="1531" y="-74.5" font-family="Helvetica,sans-Serif" font-size="10.00">/configpages/preferencespatternpage.cpp</text>
</a>
</g>
</g>
<!-- Node2&#45;&gt;Node10 -->
<g id="edge9" class="edge">
<title>Node2&#45;&gt;Node10</title>
<path fill="none" stroke="midnightblue" d="M2141.12,-142.7C2032.98,-134.03 1825.3,-116.69 1649,-98 1646.13,-97.7 1643.21,-97.38 1640.28,-97.06"/>
<polygon fill="midnightblue" stroke="midnightblue" points="2141.02,-146.2 2151.27,-143.51 2141.58,-139.22 2141.02,-146.2"/>
</g>
<!-- Node11 -->
<g id="node11" class="node">
<title>Node11</title>
<g id="a_node11"><a xlink:href="../../dd/dc2/decimalchart__dialog_8cpp.html" target="_top" xlink:title=" ">
<polygon fill="white" stroke="black" points="1658.5,-67.5 1658.5,-97.5 1799.5,-97.5 1799.5,-67.5 1658.5,-67.5"/>
<text text-anchor="start" x="1666.5" y="-85.5" font-family="Helvetica,sans-Serif" font-size="10.00">src/app/seamly2d/dialogs</text>
<text text-anchor="middle" x="1729" y="-74.5" font-family="Helvetica,sans-Serif" font-size="10.00">/decimalchart_dialog.cpp</text>
</a>
</g>
</g>
<!-- Node2&#45;&gt;Node11 -->
<g id="edge10" class="edge">
<title>Node2&#45;&gt;Node11</title>
<path fill="none" stroke="midnightblue" d="M2141.22,-140.65C2059.54,-131.65 1924.08,-115.84 1808,-98 1805.24,-97.58 1802.44,-97.13 1799.6,-96.67"/>
<polygon fill="midnightblue" stroke="midnightblue" points="2141.07,-144.15 2151.39,-141.77 2141.84,-137.2 2141.07,-144.15"/>
</g>
<!-- Node12 -->
<g id="node12" class="node">
<title>Node12</title>
<g id="a_node12"><a xlink:href="../../dd/d64/dialogaboutapp_8cpp.html" target="_top" xlink:title=" ">
<polygon fill="white" stroke="black" points="1817.5,-67.5 1817.5,-97.5 1958.5,-97.5 1958.5,-67.5 1817.5,-67.5"/>
<text text-anchor="start" x="1825.5" y="-85.5" font-family="Helvetica,sans-Serif" font-size="10.00">src/app/seamly2d/dialogs</text>
<text text-anchor="middle" x="1888" y="-74.5" font-family="Helvetica,sans-Serif" font-size="10.00">/dialogaboutapp.cpp</text>
</a>
</g>
</g>
<!-- Node2&#45;&gt;Node12 -->
<g id="edge11" class="edge">
<title>Node2&#45;&gt;Node12</title>
<path fill="none" stroke="midnightblue" d="M2141.19,-133.83C2086.48,-122.95 2012.37,-108.22 1958.47,-97.51"/>
<polygon fill="midnightblue" stroke="midnightblue" points="2140.68,-137.3 2151.17,-135.81 2142.05,-130.43 2140.68,-137.3"/>
</g>
<!-- Node13 -->
<g id="node13" class="node">
<title>Node13</title>
<g id="a_node13"><a xlink:href="../../d6/d89/dialoglayoutprogress_8cpp.html" target="_top" xlink:title=" ">
<polygon fill="white" stroke="black" points="1976.5,-67.5 1976.5,-97.5 2119.5,-97.5 2119.5,-67.5 1976.5,-67.5"/>
<text text-anchor="start" x="1984.5" y="-85.5" font-family="Helvetica,sans-Serif" font-size="10.00">src/app/seamly2d/dialogs</text>
<text text-anchor="middle" x="2048" y="-74.5" font-family="Helvetica,sans-Serif" font-size="10.00">/dialoglayoutprogress.cpp</text>
</a>
</g>
</g>
<!-- Node2&#45;&gt;Node13 -->
<g id="edge12" class="edge">
<title>Node2&#45;&gt;Node13</title>
<path fill="none" stroke="midnightblue" d="M2169.22,-130.68C2142.44,-120.26 2109.1,-107.28 2084.17,-97.58"/>
<polygon fill="midnightblue" stroke="midnightblue" points="2168.17,-134.03 2178.76,-134.4 2170.71,-127.51 2168.17,-134.03"/>
</g>
<!-- Node14 -->
<g id="node14" class="node">
<title>Node14</title>
<g id="a_node14"><a xlink:href="../../d5/d18/dialogpatternproperties_8cpp.html" target="_top" xlink:title=" ">
<polygon fill="white" stroke="black" points="2137.5,-67.5 2137.5,-97.5 2292.5,-97.5 2292.5,-67.5 2137.5,-67.5"/>
<text text-anchor="start" x="2145.5" y="-85.5" font-family="Helvetica,sans-Serif" font-size="10.00">src/app/seamly2d/dialogs</text>
<text text-anchor="middle" x="2215" y="-74.5" font-family="Helvetica,sans-Serif" font-size="10.00">/dialogpatternproperties.cpp</text>
</a>
</g>
</g>
<!-- Node2&#45;&gt;Node14 -->
<g id="edge13" class="edge">
<title>Node2&#45;&gt;Node14</title>
<path fill="none" stroke="midnightblue" d="M2215,-124.11C2215,-115.15 2215,-105.32 2215,-97.58"/>
<polygon fill="midnightblue" stroke="midnightblue" points="2211.5,-124.4 2215,-134.4 2218.5,-124.4 2211.5,-124.4"/>
</g>
<!-- Node15 -->
<g id="node15" class="node">
<title>Node15</title>
<g id="a_node15"><a xlink:href="../../d5/dc5/dialogpreferences_8cpp.html" target="_top" xlink:title=" ">
<polygon fill="white" stroke="black" points="2310.5,-67.5 2310.5,-97.5 2451.5,-97.5 2451.5,-67.5 2310.5,-67.5"/>
<text text-anchor="start" x="2318.5" y="-85.5" font-family="Helvetica,sans-Serif" font-size="10.00">src/app/seamly2d/dialogs</text>
<text text-anchor="middle" x="2381" y="-74.5" font-family="Helvetica,sans-Serif" font-size="10.00">/dialogpreferences.cpp</text>
</a>
</g>
</g>
<!-- Node2&#45;&gt;Node15 -->
<g id="edge14" class="edge">
<title>Node2&#45;&gt;Node15</title>
<path fill="none" stroke="midnightblue" d="M2260.51,-130.68C2287.13,-120.26 2320.27,-107.28 2345.05,-97.58"/>
<polygon fill="midnightblue" stroke="midnightblue" points="2259.05,-127.49 2251.02,-134.4 2261.61,-134.01 2259.05,-127.49"/>
</g>
<!-- Node16 -->
<g id="node16" class="node">
<title>Node16</title>
<g id="a_node16"><a xlink:href="../../dd/d54/export__layout__dialog_8cpp.html" target="_top" xlink:title=" ">
<polygon fill="white" stroke="black" points="2469.5,-67.5 2469.5,-97.5 2612.5,-97.5 2612.5,-67.5 2469.5,-67.5"/>
<text text-anchor="start" x="2477.5" y="-85.5" font-family="Helvetica,sans-Serif" font-size="10.00">src/app/seamly2d/dialogs</text>
<text text-anchor="middle" x="2541" y="-74.5" font-family="Helvetica,sans-Serif" font-size="10.00">/export_layout_dialog.cpp</text>
</a>
</g>
</g>
<!-- Node2&#45;&gt;Node16 -->
<g id="edge15" class="edge">
<title>Node2&#45;&gt;Node16</title>
<path fill="none" stroke="midnightblue" d="M2288.58,-133.83C2343.12,-122.95 2417.01,-108.22 2470.75,-97.51"/>
<polygon fill="midnightblue" stroke="midnightblue" points="2287.75,-130.43 2278.63,-135.81 2289.12,-137.29 2287.75,-130.43"/>
</g>
<!-- Node17 -->
<g id="node17" class="node">
<title>Node17</title>
<g id="a_node17"><a xlink:href="../../db/d5c/groups__widget_8cpp.html" target="_top" xlink:title=" ">
<polygon fill="white" stroke="black" points="2630.5,-67.5 2630.5,-97.5 2771.5,-97.5 2771.5,-67.5 2630.5,-67.5"/>
<text text-anchor="start" x="2638.5" y="-85.5" font-family="Helvetica,sans-Serif" font-size="10.00">src/app/seamly2d/dialogs</text>
<text text-anchor="middle" x="2701" y="-74.5" font-family="Helvetica,sans-Serif" font-size="10.00">/groups_widget.cpp</text>
</a>
</g>
</g>
<!-- Node2&#45;&gt;Node17 -->
<g id="edge16" class="edge">
<title>Node2&#45;&gt;Node17</title>
<path fill="none" stroke="midnightblue" d="M2288.95,-140.55C2370.46,-131.5 2505.35,-115.66 2621,-98 2624.07,-97.53 2627.2,-97.04 2630.37,-96.52"/>
<polygon fill="midnightblue" stroke="midnightblue" points="2288.35,-137.1 2278.79,-141.67 2289.12,-144.05 2288.35,-137.1"/>
</g>
<!-- Node18 -->
<g id="node18" class="node">
<title>Node18</title>
<g id="a_node18"><a xlink:href="../../d0/dfa/layoutsettings__dialog_8cpp.html" target="_top" xlink:title=" ">
<polygon fill="white" stroke="black" points="2789.5,-67.5 2789.5,-97.5 2934.5,-97.5 2934.5,-67.5 2789.5,-67.5"/>
<text text-anchor="start" x="2797.5" y="-85.5" font-family="Helvetica,sans-Serif" font-size="10.00">src/app/seamly2d/dialogs</text>
<text text-anchor="middle" x="2862" y="-74.5" font-family="Helvetica,sans-Serif" font-size="10.00">/layoutsettings_dialog.cpp</text>
</a>
</g>
</g>
<!-- Node2&#45;&gt;Node18 -->
<g id="edge17" class="edge">
<title>Node2&#45;&gt;Node18</title>
<path fill="none" stroke="midnightblue" d="M2288.9,-143.93C2397.02,-136.78 2604.57,-121.31 2780,-98 2783.01,-97.6 2786.08,-97.17 2789.17,-96.71"/>
<polygon fill="midnightblue" stroke="midnightblue" points="2288.5,-140.45 2278.75,-144.59 2288.95,-147.43 2288.5,-140.45"/>
</g>
<!-- Node19 -->
<g id="node19" class="node">
<title>Node19</title>
<g id="a_node19"><a xlink:href="../../dc/d14/app_2seamly2d_2main_8cpp.html" target="_top" xlink:title=" ">
<polygon fill="white" stroke="black" points="2952.5,-73 2952.5,-92 3103.5,-92 3103.5,-73 2952.5,-73"/>
<text text-anchor="middle" x="3028" y="-80" font-family="Helvetica,sans-Serif" font-size="10.00">src/app/seamly2d/main.cpp</text>
</a>
</g>
</g>
<!-- Node2&#45;&gt;Node19 -->
<g id="edge18" class="edge">
<title>Node2&#45;&gt;Node19</title>
<path fill="none" stroke="midnightblue" d="M2289.37,-145.79C2421.36,-140.44 2705.09,-126.47 2943,-98 2956.08,-96.43 2970.21,-94.23 2983.13,-92.02"/>
<polygon fill="midnightblue" stroke="midnightblue" points="2288.84,-142.31 2278.99,-146.21 2289.12,-149.3 2288.84,-142.31"/>
</g>
<!-- Node20 -->
<g id="node20" class="node">
<title>Node20</title>
<g id="a_node20"><a xlink:href="../../dd/d84/shortcuts__dialog_8cpp.html" target="_top" xlink:title=" ">
<polygon fill="white" stroke="black" points="3121.5,-67.5 3121.5,-97.5 3262.5,-97.5 3262.5,-67.5 3121.5,-67.5"/>
<text text-anchor="start" x="3129.5" y="-85.5" font-family="Helvetica,sans-Serif" font-size="10.00">src/app/seamly2d/dialogs</text>
<text text-anchor="middle" x="3192" y="-74.5" font-family="Helvetica,sans-Serif" font-size="10.00">/shortcuts_dialog.cpp</text>
</a>
</g>
</g>
<!-- Node2&#45;&gt;Node20 -->
<g id="edge19" class="edge">
<title>Node2&#45;&gt;Node20</title>
<path fill="none" stroke="midnightblue" d="M2288.84,-147.41C2442.53,-144.48 2807.84,-133.99 3112,-98 3115.08,-97.64 3118.23,-97.23 3121.4,-96.78"/>
<polygon fill="midnightblue" stroke="midnightblue" points="2288.52,-143.92 2278.58,-147.6 2288.65,-150.92 2288.52,-143.92"/>
</g>
<!-- Node21 -->
<g id="node21" class="node">
<title>Node21</title>
<g id="a_node21"><a xlink:href="../../d2/df4/show__info__dialog_8cpp.html" target="_top" xlink:title=" ">
<polygon fill="white" stroke="black" points="3280.5,-67.5 3280.5,-97.5 3421.5,-97.5 3421.5,-67.5 3280.5,-67.5"/>
<text text-anchor="start" x="3288.5" y="-85.5" font-family="Helvetica,sans-Serif" font-size="10.00">src/app/seamly2d/dialogs</text>
<text text-anchor="middle" x="3351" y="-74.5" font-family="Helvetica,sans-Serif" font-size="10.00">/show_info_dialog.cpp</text>
</a>
</g>
</g>
<!-- Node2&#45;&gt;Node21 -->
<g id="edge20" class="edge">
<title>Node2&#45;&gt;Node21</title>
<path fill="none" stroke="midnightblue" d="M2288.85,-148.3C2461.35,-147.11 2903.97,-139.85 3271,-98 3274.09,-97.65 3277.23,-97.25 3280.4,-96.82"/>
<polygon fill="midnightblue" stroke="midnightblue" points="2288.59,-144.8 2278.62,-148.37 2288.64,-151.8 2288.59,-144.8"/>
</g>
<!-- Node22 -->
<g id="node22" class="node">
<title>Node22</title>
<g id="a_node22"><a xlink:href="../../d8/de8/mainwindowsnogui_8cpp.html" target="_top" xlink:title=" ">
<polygon fill="white" stroke="black" points="3439.5,-73 3439.5,-92 3660.5,-92 3660.5,-73 3439.5,-73"/>
<text text-anchor="middle" x="3550" y="-80" font-family="Helvetica,sans-Serif" font-size="10.00">src/app/seamly2d/mainwindowsnogui.cpp</text>
</a>
</g>
</g>
<!-- Node2&#45;&gt;Node22 -->
<g id="edge21" class="edge">
<title>Node2&#45;&gt;Node22</title>
<path fill="none" stroke="midnightblue" d="M2288.81,-147.45C2478.49,-144.33 2998.41,-132.99 3430,-98 3448.62,-96.49 3468.79,-94.28 3487.19,-92.03"/>
<polygon fill="midnightblue" stroke="midnightblue" points="2288.62,-143.96 2278.67,-147.62 2288.73,-150.96 2288.62,-143.96"/>
</g>
<!-- Node23 -->
<g id="node23" class="node">
<title>Node23</title>
<g id="a_node23"><a xlink:href="../../d3/d49/vpattern_8cpp.html" target="_top" xlink:title=" ">
<polygon fill="white" stroke="black" points="3678.5,-67.5 3678.5,-97.5 3803.5,-97.5 3803.5,-67.5 3678.5,-67.5"/>
<text text-anchor="start" x="3686.5" y="-85.5" font-family="Helvetica,sans-Serif" font-size="10.00">src/app/seamly2d/xml</text>
<text text-anchor="middle" x="3741" y="-74.5" font-family="Helvetica,sans-Serif" font-size="10.00">/vpattern.cpp</text>
</a>
</g>
</g>
<!-- Node2&#45;&gt;Node23 -->
<g id="edge22" class="edge">
<title>Node2&#45;&gt;Node23</title>
<path fill="none" stroke="midnightblue" d="M2289.21,-147.53C2546.26,-143.93 3397.6,-129.82 3669,-98 3672.04,-97.64 3675.14,-97.23 3678.27,-96.76"/>
<polygon fill="midnightblue" stroke="midnightblue" points="2288.82,-144.04 2278.87,-147.68 2288.92,-151.04 2288.82,-144.04"/>
</g>
<!-- Node24 -->
<g id="node24" class="node">
<title>Node24</title>
<g id="a_node24"><a xlink:href="../../d8/dd9/mainwindow_8cpp.html" target="_top" xlink:title=" ">
<polygon fill="white" stroke="black" points="3822,-73 3822,-92 4010,-92 4010,-73 3822,-73"/>
<text text-anchor="middle" x="3916" y="-80" font-family="Helvetica,sans-Serif" font-size="10.00">src/app/seamly2d/mainwindow.cpp</text>
</a>
</g>
</g>
<!-- Node2&#45;&gt;Node24 -->
<g id="edge23" class="edge">
<title>Node2&#45;&gt;Node24</title>
<path fill="none" stroke="midnightblue" d="M2288.81,-148.97C2516.25,-149.81 3226.41,-147.94 3812,-98 3828.62,-96.58 3846.65,-94.33 3862.95,-92.01"/>
<polygon fill="midnightblue" stroke="midnightblue" points="2288.68,-145.47 2278.66,-148.93 2288.65,-152.47 2288.68,-145.47"/>
</g>
<!-- Node26 -->
<g id="node26" class="node">
<title>Node26</title>
<g id="a_node26"><a xlink:href="../../d4/d90/fvupdater_8cpp.html" target="_top" xlink:title=" ">
<polygon fill="white" stroke="black" points="4028.5,-73 4028.5,-92 4181.5,-92 4181.5,-73 4028.5,-73"/>
<text text-anchor="middle" x="4105" y="-80" font-family="Helvetica,sans-Serif" font-size="10.00">src/libs/fervor/fvupdater.cpp</text>
</a>
</g>
</g>
<!-- Node25&#45;&gt;Node26 -->
<g id="edge25" class="edge">
<title>Node25&#45;&gt;Node26</title>
<path fill="none" stroke="midnightblue" d="M5603.27,-146.83C5303.65,-141.87 4464.53,-125.84 4190,-98 4176.3,-96.61 4161.47,-94.35 4148.09,-92.02"/>
<polygon fill="midnightblue" stroke="midnightblue" points="5603.21,-150.33 5613.27,-146.99 5603.33,-143.33 5603.21,-150.33"/>
</g>
<!-- Node27 -->
<g id="node27" class="node">
<title>Node27</title>
<g id="a_node27"><a xlink:href="../../d9/dc8/dxiface_8cpp.html" target="_top" xlink:title=" ">
<polygon fill="white" stroke="black" points="4199.5,-73 4199.5,-92 4334.5,-92 4334.5,-73 4199.5,-73"/>
<text text-anchor="middle" x="4267" y="-80" font-family="Helvetica,sans-Serif" font-size="10.00">src/libs/vdxf/dxiface.cpp</text>
</a>
</g>
</g>
<!-- Node25&#45;&gt;Node27 -->
<g id="edge26" class="edge">
<title>Node25&#45;&gt;Node27</title>
<path fill="none" stroke="midnightblue" d="M5602.98,-146.63C5324.39,-141.47 4586.33,-125.54 4343,-98 4330.72,-96.61 4317.45,-94.35 4305.49,-92.02"/>
<polygon fill="midnightblue" stroke="midnightblue" points="5603.04,-150.13 5613.1,-146.82 5603.17,-143.13 5603.04,-150.13"/>
</g>
<!-- Node28 -->
<g id="node28" class="node">
<title>Node28</title>
<g id="a_node28"><a xlink:href="../../da/d75/vabstractarc__p_8h.html" target="_top" xlink:title=" ">
<polygon fill="white" stroke="red" points="4352.5,-67.5 4352.5,-97.5 4459.5,-97.5 4459.5,-67.5 4352.5,-67.5"/>
<text text-anchor="start" x="4360.5" y="-85.5" font-family="Helvetica,sans-Serif" font-size="10.00">src/libs/vgeometry</text>
<text text-anchor="middle" x="4406" y="-74.5" font-family="Helvetica,sans-Serif" font-size="10.00">/vabstractarc_p.h</text>
</a>
</g>
</g>
<!-- Node25&#45;&gt;Node28 -->
<g id="edge27" class="edge">
<title>Node25&#45;&gt;Node28</title>
<path fill="none" stroke="midnightblue" d="M5603.2,-146.74C5342.96,-142.06 4685.78,-127.62 4468,-98 4465.26,-97.63 4462.47,-97.19 4459.65,-96.7"/>
<polygon fill="midnightblue" stroke="midnightblue" points="5603.36,-150.24 5613.42,-146.92 5603.48,-143.24 5603.36,-150.24"/>
</g>
<!-- Node30 -->
<g id="node29" class="node">
<title>Node30</title>
<g id="a_node29"><a xlink:href="../../dc/da3/varc__p_8h.html" target="_top" xlink:title=" ">
<polygon fill="white" stroke="red" points="4477.5,-67.5 4477.5,-97.5 4584.5,-97.5 4584.5,-67.5 4477.5,-67.5"/>
<text text-anchor="start" x="4485.5" y="-85.5" font-family="Helvetica,sans-Serif" font-size="10.00">src/libs/vgeometry</text>
<text text-anchor="middle" x="4531" y="-74.5" font-family="Helvetica,sans-Serif" font-size="10.00">/varc_p.h</text>
</a>
</g>
</g>
<!-- Node25&#45;&gt;Node30 -->
<g id="edge28" class="edge">
<title>Node25&#45;&gt;Node30</title>
<path fill="none" stroke="midnightblue" d="M5602.89,-146.16C5361.71,-140.53 4785.82,-124.67 4593,-98 4590.26,-97.62 4587.47,-97.18 4584.65,-96.69"/>
<polygon fill="midnightblue" stroke="midnightblue" points="5602.99,-149.66 5613.07,-146.4 5603.15,-142.67 5602.99,-149.66"/>
</g>
<!-- Node32 -->
<g id="node30" class="node">
<title>Node32</title>
<g id="a_node30"><a xlink:href="../../d5/d8e/vcubicbezier__p_8h.html" target="_top" xlink:title=" ">
<polygon fill="white" stroke="red" points="4602.5,-67.5 4602.5,-97.5 4709.5,-97.5 4709.5,-67.5 4602.5,-67.5"/>
<text text-anchor="start" x="4610.5" y="-85.5" font-family="Helvetica,sans-Serif" font-size="10.00">src/libs/vgeometry</text>
<text text-anchor="middle" x="4656" y="-74.5" font-family="Helvetica,sans-Serif" font-size="10.00">/vcubicbezier_p.h</text>
</a>
</g>
</g>
<!-- Node25&#45;&gt;Node32 -->
<g id="edge29" class="edge">
<title>Node25&#45;&gt;Node32</title>
<path fill="none" stroke="midnightblue" d="M5603.03,-149.31C5420.01,-149.27 5037.57,-143.12 4718,-98 4715.26,-97.61 4712.47,-97.16 4709.66,-96.67"/>
<polygon fill="midnightblue" stroke="midnightblue" points="5603.2,-152.81 5613.19,-149.3 5603.19,-145.81 5603.2,-152.81"/>
</g>
<!-- Node34 -->
<g id="node31" class="node">
<title>Node34</title>
<g id="a_node31"><a xlink:href="../../df/dde/vellipticalarc__p_8h.html" target="_top" xlink:title=" ">
<polygon fill="white" stroke="black" points="4727.5,-67.5 4727.5,-97.5 4834.5,-97.5 4834.5,-67.5 4727.5,-67.5"/>
<text text-anchor="start" x="4735.5" y="-85.5" font-family="Helvetica,sans-Serif" font-size="10.00">src/libs/vgeometry</text>
<text text-anchor="middle" x="4781" y="-74.5" font-family="Helvetica,sans-Serif" font-size="10.00">/vellipticalarc_p.h</text>
</a>
</g>
</g>
<!-- Node25&#45;&gt;Node34 -->
<g id="edge30" class="edge">
<title>Node25&#45;&gt;Node34</title>
<path fill="none" stroke="midnightblue" d="M5603.19,-147.42C5439.49,-144.6 5118.74,-134.45 4849,-98 4844.33,-97.37 4839.51,-96.59 4834.69,-95.73"/>
<polygon fill="midnightblue" stroke="midnightblue" points="5603.2,-150.92 5613.26,-147.59 5603.32,-143.92 5603.2,-150.92"/>
</g>
<!-- Node35 -->
<g id="node32" class="node">
<title>Node35</title>
<g id="a_node32"><a xlink:href="../../d6/dfb/vellipticalarc_8cpp.html" target="_top" xlink:title=" ">
<polygon fill="white" stroke="black" points="4768.5,-0.5 4768.5,-30.5 4875.5,-30.5 4875.5,-0.5 4768.5,-0.5"/>
<text text-anchor="start" x="4776.5" y="-18.5" font-family="Helvetica,sans-Serif" font-size="10.00">src/libs/vgeometry</text>
<text text-anchor="middle" x="4822" y="-7.5" font-family="Helvetica,sans-Serif" font-size="10.00">/vellipticalarc.cpp</text>
</a>
</g>
</g>
<!-- Node25&#45;&gt;Node35 -->
<g id="edge32" class="edge">
<title>Node25&#45;&gt;Node35</title>
<path fill="none" stroke="midnightblue" d="M5603.32,-147C5393.24,-143.34 4943.79,-131.64 4882,-98 4854.69,-83.13 4836.46,-49.86 4827.81,-30.75"/>
<polygon fill="midnightblue" stroke="midnightblue" points="5603.39,-150.5 5613.44,-147.17 5603.5,-143.5 5603.39,-150.5"/>
</g>
<!-- Node36 -->
<g id="node33" class="node">
<title>Node36</title>
<g id="a_node33"><a xlink:href="../../d9/d15/vabstractpiece_8cpp.html" target="_top" xlink:title=" ">
<polygon fill="white" stroke="black" points="4891,-73 4891,-92 5077,-92 5077,-73 4891,-73"/>
<text text-anchor="middle" x="4984" y="-80" font-family="Helvetica,sans-Serif" font-size="10.00">src/libs/vlayout/vabstractpiece.cpp</text>
</a>
</g>
</g>
<!-- Node25&#45;&gt;Node36 -->
<g id="edge33" class="edge">
<title>Node25&#45;&gt;Node36</title>
<path fill="none" stroke="midnightblue" d="M5602.9,-141.83C5477.97,-133.64 5266.28,-118.3 5085,-98 5070.04,-96.32 5053.87,-94.16 5038.96,-92.02"/>
<polygon fill="midnightblue" stroke="midnightblue" points="5603.03,-145.34 5613.23,-142.5 5603.48,-138.36 5603.03,-145.34"/>
</g>
<!-- Node37 -->
<g id="node34" class="node">
<title>Node37</title>
<g id="a_node34"><a xlink:href="../../d1/d76/vspline__p_8h.html" target="_top" xlink:title=" ">
<polygon fill="white" stroke="red" points="5094.5,-67.5 5094.5,-97.5 5201.5,-97.5 5201.5,-67.5 5094.5,-67.5"/>
<text text-anchor="start" x="5102.5" y="-85.5" font-family="Helvetica,sans-Serif" font-size="10.00">src/libs/vgeometry</text>
<text text-anchor="middle" x="5148" y="-74.5" font-family="Helvetica,sans-Serif" font-size="10.00">/vspline_p.h</text>
</a>
</g>
</g>
<!-- Node25&#45;&gt;Node37 -->
<g id="edge34" class="edge">
<title>Node25&#45;&gt;Node37</title>
<path fill="none" stroke="midnightblue" d="M5602.99,-141.53C5501.38,-134.04 5345.2,-120.13 5211,-98 5207.9,-97.49 5204.72,-96.92 5201.53,-96.3"/>
<polygon fill="midnightblue" stroke="midnightblue" points="5603.04,-145.04 5613.27,-142.27 5603.55,-138.06 5603.04,-145.04"/>
</g>
<!-- Node39 -->
<g id="node35" class="node">
<title>Node39</title>
<g id="a_node35"><a xlink:href="../../d8/d70/vtextmanager_8cpp.html" target="_top" xlink:title=" ">
<polygon fill="white" stroke="black" points="5220,-73 5220,-92 5402,-92 5402,-73 5220,-73"/>
<text text-anchor="middle" x="5311" y="-80" font-family="Helvetica,sans-Serif" font-size="10.00">src/libs/vlayout/vtextmanager.cpp</text>
</a>
</g>
</g>
<!-- Node25&#45;&gt;Node39 -->
<g id="edge35" class="edge">
<title>Node25&#45;&gt;Node39</title>
<path fill="none" stroke="midnightblue" d="M5648.06,-138.27C5569.56,-125.52 5436.79,-103.94 5363.5,-92.03"/>
<polygon fill="midnightblue" stroke="midnightblue" points="5647.86,-141.79 5658.3,-139.94 5648.99,-134.88 5647.86,-141.79"/>
</g>
<!-- Node40 -->
<g id="node36" class="node">
<title>Node40</title>
<g id="a_node36"><a xlink:href="../../db/d65/dialogexporttocsv_8cpp.html" target="_top" xlink:title=" ">
<polygon fill="white" stroke="black" points="5420.5,-67.5 5420.5,-97.5 5547.5,-97.5 5547.5,-67.5 5420.5,-67.5"/>
<text text-anchor="start" x="5428.5" y="-85.5" font-family="Helvetica,sans-Serif" font-size="10.00">src/libs/vmisc/dialogs</text>
<text text-anchor="middle" x="5484" y="-74.5" font-family="Helvetica,sans-Serif" font-size="10.00">/dialogexporttocsv.cpp</text>
</a>
</g>
</g>
<!-- Node25&#45;&gt;Node40 -->
<g id="edge36" class="edge">
<title>Node25&#45;&gt;Node40</title>
<path fill="none" stroke="midnightblue" d="M5671.04,-137.06C5632.55,-126.04 5574.26,-109.34 5532.99,-97.53"/>
<polygon fill="midnightblue" stroke="midnightblue" points="5670.28,-140.48 5680.86,-139.87 5672.21,-133.75 5670.28,-140.48"/>
</g>
<!-- Node41 -->
<g id="node37" class="node">
<title>Node41</title>
<g id="a_node37"><a xlink:href="../../d6/d0b/def_8cpp.html" target="_top" xlink:title=" ">
<polygon fill="white" stroke="black" points="5566,-73 5566,-92 5688,-92 5688,-73 5566,-73"/>
<text text-anchor="middle" x="5627" y="-80" font-family="Helvetica,sans-Serif" font-size="10.00">src/libs/vmisc/def.cpp</text>
</a>
</g>
</g>
<!-- Node25&#45;&gt;Node41 -->
<g id="edge37" class="edge">
<title>Node25&#45;&gt;Node41</title>
<path fill="none" stroke="midnightblue" d="M5691.7,-133.57C5675.12,-120.74 5651.79,-102.69 5638.15,-92.13"/>
<polygon fill="midnightblue" stroke="midnightblue" points="5689.62,-136.38 5699.67,-139.73 5693.9,-130.85 5689.62,-136.38"/>
</g>
<!-- Node42 -->
<g id="node38" class="node">
<title>Node42</title>
<g id="a_node38"><a xlink:href="../../dd/d70/vlayoutpiece_8cpp.html" target="_top" xlink:title=" ">
<polygon fill="white" stroke="black" points="5706.5,-73 5706.5,-92 5883.5,-92 5883.5,-73 5706.5,-73"/>
<text text-anchor="middle" x="5795" y="-80" font-family="Helvetica,sans-Serif" font-size="10.00">src/libs/vlayout/vlayoutpiece.cpp</text>
</a>
</g>
</g>
<!-- Node25&#45;&gt;Node42 -->
<g id="edge38" class="edge">
<title>Node25&#45;&gt;Node42</title>
<path fill="none" stroke="midnightblue" d="M5730.3,-133.57C5746.88,-120.74 5770.21,-102.69 5783.85,-92.13"/>
<polygon fill="midnightblue" stroke="midnightblue" points="5728.1,-130.85 5722.33,-139.73 5732.38,-136.38 5728.1,-130.85"/>
</g>
<!-- Node43 -->
<g id="node39" class="node">
<title>Node43</title>
<g id="a_node39"><a xlink:href="../../d0/df6/vabstractapplication_8cpp.html" target="_top" xlink:title=" ">
<polygon fill="white" stroke="black" points="5902,-73 5902,-92 6108,-92 6108,-73 5902,-73"/>
<text text-anchor="middle" x="6005" y="-80" font-family="Helvetica,sans-Serif" font-size="10.00">src/libs/vmisc/vabstractapplication.cpp</text>
</a>
</g>
</g>
<!-- Node25&#45;&gt;Node43 -->
<g id="edge39" class="edge">
<title>Node25&#45;&gt;Node43</title>
<path fill="none" stroke="midnightblue" d="M5759.74,-137.72C5817.63,-124.92 5913.03,-103.83 5966.18,-92.08"/>
<polygon fill="midnightblue" stroke="midnightblue" points="5758.75,-134.36 5749.74,-139.94 5760.26,-141.19 5758.75,-134.36"/>
</g>
<!-- Node44 -->
<g id="node40" class="node">
<title>Node44</title>
<g id="a_node40"><a xlink:href="../../d4/d4f/pmsystems_8cpp.html" target="_top" xlink:title=" ">
<polygon fill="white" stroke="black" points="6126.5,-67.5 6126.5,-97.5 6233.5,-97.5 6233.5,-67.5 6126.5,-67.5"/>
<text text-anchor="start" x="6134.5" y="-85.5" font-family="Helvetica,sans-Serif" font-size="10.00">src/libs/vpatterndb</text>
<text text-anchor="middle" x="6180" y="-74.5" font-family="Helvetica,sans-Serif" font-size="10.00">/pmsystems.cpp</text>
</a>
</g>
</g>
<!-- Node25&#45;&gt;Node44 -->
<g id="edge40" class="edge">
<title>Node25&#45;&gt;Node44</title>
<path fill="none" stroke="midnightblue" d="M5785.66,-138.66C5797.81,-137.08 5810.25,-135.48 5822,-134 5953.04,-117.45 5986.91,-120.84 6117,-98 6120.1,-97.46 6123.27,-96.86 6126.46,-96.22"/>
<polygon fill="midnightblue" stroke="midnightblue" points="5785.02,-135.21 5775.55,-139.97 5785.92,-142.15 5785.02,-135.21"/>
</g>
<!-- Node45 -->
<g id="node41" class="node">
<title>Node45</title>
<g id="a_node41"><a xlink:href="../../db/d11/vformula_8cpp.html" target="_top" xlink:title=" ">
<polygon fill="white" stroke="black" points="6251.5,-67.5 6251.5,-97.5 6358.5,-97.5 6358.5,-67.5 6251.5,-67.5"/>
<text text-anchor="start" x="6259.5" y="-85.5" font-family="Helvetica,sans-Serif" font-size="10.00">src/libs/vpatterndb</text>
<text text-anchor="middle" x="6305" y="-74.5" font-family="Helvetica,sans-Serif" font-size="10.00">/vformula.cpp</text>
</a>
</g>
</g>
<!-- Node25&#45;&gt;Node45 -->
<g id="edge41" class="edge">
<title>Node25&#45;&gt;Node45</title>
<path fill="none" stroke="midnightblue" d="M5782.28,-138.71C5795.47,-137.04 5809.14,-135.39 5822,-134 6008.27,-113.86 6056.92,-127.08 6242,-98 6245.1,-97.51 6248.28,-96.96 6251.48,-96.36"/>
<polygon fill="midnightblue" stroke="midnightblue" points="5781.77,-135.25 5772.3,-140 5782.66,-142.19 5781.77,-135.25"/>
</g>
<!-- Node46 -->
<g id="node42" class="node">
<title>Node46</title>
<g id="a_node42"><a xlink:href="../../d6/d46/vcontainer_8cpp.html" target="_top" xlink:title=" ">
<polygon fill="white" stroke="black" points="6376.5,-67.5 6376.5,-97.5 6483.5,-97.5 6483.5,-67.5 6376.5,-67.5"/>
<text text-anchor="start" x="6384.5" y="-85.5" font-family="Helvetica,sans-Serif" font-size="10.00">src/libs/vpatterndb</text>
<text text-anchor="middle" x="6430" y="-74.5" font-family="Helvetica,sans-Serif" font-size="10.00">/vcontainer.cpp</text>
</a>
</g>
</g>
<!-- Node25&#45;&gt;Node46 -->
<g id="edge42" class="edge">
<title>Node25&#45;&gt;Node46</title>
<path fill="none" stroke="midnightblue" d="M5781.07,-138.66C5794.63,-136.95 5808.75,-135.3 5822,-134 6063.59,-110.27 6126.84,-133.34 6367,-98 6370.11,-97.54 6373.29,-97.01 6376.49,-96.43"/>
<polygon fill="midnightblue" stroke="midnightblue" points="5780.3,-135.23 5770.83,-139.97 5781.2,-142.17 5780.3,-135.23"/>
</g>
<!-- Node47 -->
<g id="node43" class="node">
<title>Node47</title>
<g id="a_node43"><a xlink:href="../../df/d7a/vpiece_8cpp.html" target="_top" xlink:title=" ">
<polygon fill="white" stroke="black" points="6501.5,-67.5 6501.5,-97.5 6608.5,-97.5 6608.5,-67.5 6501.5,-67.5"/>
<text text-anchor="start" x="6509.5" y="-85.5" font-family="Helvetica,sans-Serif" font-size="10.00">src/libs/vpatterndb</text>
<text text-anchor="middle" x="6555" y="-74.5" font-family="Helvetica,sans-Serif" font-size="10.00">/vpiece.cpp</text>
</a>
</g>
</g>
<!-- Node25&#45;&gt;Node47 -->
<g id="edge43" class="edge">
<title>Node25&#45;&gt;Node47</title>
<path fill="none" stroke="midnightblue" d="M5779.71,-138.69C5793.68,-136.93 5808.3,-135.26 5822,-134 6118.95,-106.67 6196.71,-139.6 6492,-98 6495,-97.58 6498.07,-97.08 6501.16,-96.54"/>
<polygon fill="midnightblue" stroke="midnightblue" points="5779.14,-135.24 5769.67,-139.99 5780.03,-142.18 5779.14,-135.24"/>
</g>
<!-- Node48 -->
<g id="node44" class="node">
<title>Node48</title>
<g id="a_node44"><a xlink:href="../../df/dba/vpiecenode__p_8h.html" target="_top" xlink:title=" ">
<polygon fill="white" stroke="red" points="6626.5,-67.5 6626.5,-97.5 6733.5,-97.5 6733.5,-67.5 6626.5,-67.5"/>
<text text-anchor="start" x="6634.5" y="-85.5" font-family="Helvetica,sans-Serif" font-size="10.00">src/libs/vpatterndb</text>
<text text-anchor="middle" x="6680" y="-74.5" font-family="Helvetica,sans-Serif" font-size="10.00">/vpiecenode_p.h</text>
</a>
</g>
</g>
<!-- Node25&#45;&gt;Node48 -->
<g id="edge44" class="edge">
<title>Node25&#45;&gt;Node48</title>
<path fill="none" stroke="midnightblue" d="M5779.22,-138.66C5793.34,-136.89 5808.13,-135.22 5822,-134 6174.34,-103.07 6266.56,-145.86 6617,-98 6620,-97.59 6623.07,-97.11 6626.16,-96.57"/>
<polygon fill="midnightblue" stroke="midnightblue" points="5778.55,-135.22 5769.08,-139.97 5779.45,-142.16 5778.55,-135.22"/>
</g>
<!-- Node50 -->
<g id="node45" class="node">
<title>Node50</title>
<g id="a_node45"><a xlink:href="../../de/d3e/vtranslatevars_8cpp.html" target="_top" xlink:title=" ">
<polygon fill="white" stroke="black" points="6752,-67.5 6752,-97.5 6862,-97.5 6862,-67.5 6752,-67.5"/>
<text text-anchor="start" x="6760" y="-85.5" font-family="Helvetica,sans-Serif" font-size="10.00">src/libs/vpatterndb</text>
<text text-anchor="middle" x="6807" y="-74.5" font-family="Helvetica,sans-Serif" font-size="10.00">/vtranslatevars.cpp</text>
</a>
</g>
</g>
<!-- Node25&#45;&gt;Node50 -->
<g id="edge45" class="edge">
<title>Node25&#45;&gt;Node50</title>
<path fill="none" stroke="midnightblue" d="M5778.74,-138.66C5793,-136.86 5807.98,-135.19 5822,-134 6229.74,-99.46 6336.21,-150.76 6742,-98 6745.21,-97.58 6748.5,-97.08 6751.8,-96.52"/>
<polygon fill="midnightblue" stroke="midnightblue" points="5777.97,-135.23 5768.5,-139.98 5778.87,-142.17 5777.97,-135.23"/>
</g>
<!-- Node51 -->
<g id="node46" class="node">
<title>Node51</title>
<g id="a_node46"><a xlink:href="../../df/d40/export__format__combobox_8cpp.html" target="_top" xlink:title=" ">
<polygon fill="white" stroke="black" points="6880.5,-67.5 6880.5,-97.5 7013.5,-97.5 7013.5,-67.5 6880.5,-67.5"/>
<text text-anchor="start" x="6888.5" y="-85.5" font-family="Helvetica,sans-Serif" font-size="10.00">src/libs/vwidgets/export</text>
<text text-anchor="middle" x="6947" y="-74.5" font-family="Helvetica,sans-Serif" font-size="10.00">_format_combobox.cpp</text>
</a>
</g>
</g>
<!-- Node25&#45;&gt;Node51 -->
<g id="edge46" class="edge">
<title>Node25&#45;&gt;Node51</title>
<path fill="none" stroke="midnightblue" d="M5778.5,-138.64C5792.83,-136.83 5807.89,-135.16 5822,-134 6286.93,-95.74 6407.4,-149.87 6871,-98 6874.07,-97.66 6877.2,-97.26 6880.36,-96.82"/>
<polygon fill="midnightblue" stroke="midnightblue" points="5777.68,-135.21 5768.21,-139.96 5778.58,-142.15 5777.68,-135.21"/>
</g>
<!-- Node52 -->
<g id="node47" class="node">
<title>Node52</title>
<g id="a_node47"><a xlink:href="../../d3/d4f/mouse__coordinates_8cpp.html" target="_top" xlink:title=" ">
<polygon fill="white" stroke="black" points="7032,-67.5 7032,-97.5 7166,-97.5 7166,-67.5 7032,-67.5"/>
<text text-anchor="start" x="7040" y="-85.5" font-family="Helvetica,sans-Serif" font-size="10.00">src/libs/vwidgets/mouse</text>
<text text-anchor="middle" x="7099" y="-74.5" font-family="Helvetica,sans-Serif" font-size="10.00">_coordinates.cpp</text>
</a>
</g>
</g>
<!-- Node25&#45;&gt;Node52 -->
<g id="edge47" class="edge">
<title>Node25&#45;&gt;Node52</title>
<path fill="none" stroke="midnightblue" d="M5777.6,-138.7C5792.2,-136.86 5807.6,-135.15 5822,-134 6353.87,-91.39 6491.54,-155.55 7022,-98 7025.25,-97.65 7028.56,-97.23 7031.9,-96.77"/>
<polygon fill="midnightblue" stroke="midnightblue" points="5777.11,-135.24 5767.64,-139.99 5778.01,-142.18 5777.11,-135.24"/>
</g>
<!-- Node53 -->
<g id="node48" class="node">
<title>Node53</title>
<g id="a_node48"><a xlink:href="../../d2/d28/page__format__combobox_8cpp.html" target="_top" xlink:title=" ">
<polygon fill="white" stroke="black" points="7184.5,-67.5 7184.5,-97.5 7315.5,-97.5 7315.5,-67.5 7184.5,-67.5"/>
<text text-anchor="start" x="7192.5" y="-85.5" font-family="Helvetica,sans-Serif" font-size="10.00">src/libs/vwidgets/page</text>
<text text-anchor="middle" x="7250" y="-74.5" font-family="Helvetica,sans-Serif" font-size="10.00">_format_combobox.cpp</text>
</a>
</g>
</g>
<!-- Node25&#45;&gt;Node53 -->
<g id="edge48" class="edge">
<title>Node25&#45;&gt;Node53</title>
<path fill="none" stroke="midnightblue" d="M5777.36,-138.69C5792.03,-136.84 5807.52,-135.14 5822,-134 6421.71,-86.98 6577.01,-163.31 7175,-98 7178.03,-97.67 7181.12,-97.28 7184.24,-96.85"/>
<polygon fill="midnightblue" stroke="midnightblue" points="5776.82,-135.24 5767.35,-139.99 5777.72,-142.18 5776.82,-135.24"/>
</g>
<!-- Node25&#45;&gt;Node61 -->
<g id="edge49" class="edge">
<title>Node25&#45;&gt;Node61</title>
<path fill="none" stroke="midnightblue" d="M5777.35,-138.67C5792.03,-136.82 5807.52,-135.12 5822,-134 6487.77,-82.68 6658.04,-146.78 7324,-98 7342.94,-96.61 7363.5,-94.35 7382.08,-92.02"/>
<polygon fill="midnightblue" stroke="midnightblue" points="5776.81,-135.21 5767.35,-139.96 5777.72,-142.15 5776.81,-135.21"/>
</g>
<!-- Node34&#45;&gt;Node35 -->
<g id="edge31" class="edge">
<title>Node34&#45;&gt;Node35</title>
<path fill="none" stroke="midnightblue" d="M4795.28,-58.87C4801.21,-49.46 4807.91,-38.83 4813.12,-30.58"/>
<polygon fill="midnightblue" stroke="midnightblue" points="4792.27,-57.07 4789.9,-67.4 4798.19,-60.81 4792.27,-57.07"/>
</g>
</g>
</svg>
