<?xml version="1.0" encoding="UTF-8" standalone="no"?>
<!DOCTYPE svg PUBLIC "-//W3C//DTD SVG 1.1//EN"
 "http://www.w3.org/Graphics/SVG/1.1/DTD/svg11.dtd">
<!-- Generated by graphviz version 2.43.0 (0)
 -->
<!-- Title: src/libs/vgeometry/vpointf.h Pages: 1 -->
<svg width="3748pt" height="307pt"
 viewBox="0.00 0.00 3748.00 307.00" xmlns="http://www.w3.org/2000/svg" xmlns:xlink="http://www.w3.org/1999/xlink">
<g id="graph0" class="graph" transform="scale(1 1) rotate(0) translate(4 303)">
<title>src/libs/vgeometry/vpointf.h</title>
<polygon fill="white" stroke="transparent" points="-4,4 -4,-303 3744,-303 3744,4 -4,4"/>
<!-- Node1 -->
<g id="node1" class="node">
<title>Node1</title>
<g id="a_node1"><a xlink:title=" ">
<polygon fill="#bfbfbf" stroke="black" points="1438,-268.5 1438,-298.5 1545,-298.5 1545,-268.5 1438,-268.5"/>
<text text-anchor="start" x="1446" y="-286.5" font-family="Helvetica,sans-Serif" font-size="10.00">src/libs/vgeometry</text>
<text text-anchor="middle" x="1491.5" y="-275.5" font-family="Helvetica,sans-Serif" font-size="10.00">/vpointf.h</text>
</a>
</g>
</g>
<!-- Node2 -->
<g id="node2" class="node">
<title>Node2</title>
<g id="a_node2"><a xlink:href="../../da/d75/vabstractarc__p_8h.html" target="_top" xlink:title=" ">
<polygon fill="white" stroke="black" points="41,-196 41,-226 148,-226 148,-196 41,-196"/>
<text text-anchor="start" x="49" y="-214" font-family="Helvetica,sans-Serif" font-size="10.00">src/libs/vgeometry</text>
<text text-anchor="middle" x="94.5" y="-203" font-family="Helvetica,sans-Serif" font-size="10.00">/vabstractarc_p.h</text>
</a>
</g>
</g>
<!-- Node1&#45;&gt;Node2 -->
<g id="edge1" class="edge">
<title>Node1&#45;&gt;Node2</title>
<path fill="none" stroke="midnightblue" d="M1427.4,-282.36C1196.24,-281.48 405.97,-275.32 157.5,-232 149.47,-230.6 141.05,-228.44 133.08,-226.05"/>
<polygon fill="midnightblue" stroke="midnightblue" points="1427.65,-285.86 1437.66,-282.39 1427.67,-278.86 1427.65,-285.86"/>
</g>
<!-- Node3 -->
<g id="node3" class="node">
<title>Node3</title>
<g id="a_node3"><a xlink:href="../../d4/da1/vabstractarc_8cpp.html" target="_top" xlink:title=" ">
<polygon fill="white" stroke="black" points="0,-123.5 0,-153.5 107,-153.5 107,-123.5 0,-123.5"/>
<text text-anchor="start" x="8" y="-141.5" font-family="Helvetica,sans-Serif" font-size="10.00">src/libs/vgeometry</text>
<text text-anchor="middle" x="53.5" y="-130.5" font-family="Helvetica,sans-Serif" font-size="10.00">/vabstractarc.cpp</text>
</a>
</g>
</g>
<!-- Node1&#45;&gt;Node3 -->
<g id="edge3" class="edge">
<title>Node1&#45;&gt;Node3</title>
<path fill="none" stroke="midnightblue" d="M1427.45,-282.73C1152.09,-283.43 80.62,-282.85 31.5,-232 10.97,-210.75 29.91,-173.99 43.15,-153.8"/>
<polygon fill="midnightblue" stroke="midnightblue" points="1427.68,-286.23 1437.67,-282.71 1427.66,-279.23 1427.68,-286.23"/>
</g>
<!-- Node4 -->
<g id="node4" class="node">
<title>Node4</title>
<g id="a_node4"><a xlink:href="../../d5/d5a/vabstractcubicbezier_8cpp.html" target="_top" xlink:title=" ">
<polygon fill="white" stroke="black" points="166.5,-196 166.5,-226 306.5,-226 306.5,-196 166.5,-196"/>
<text text-anchor="start" x="174.5" y="-214" font-family="Helvetica,sans-Serif" font-size="10.00">src/libs/vgeometry</text>
<text text-anchor="middle" x="236.5" y="-203" font-family="Helvetica,sans-Serif" font-size="10.00">/vabstractcubicbezier.cpp</text>
</a>
</g>
</g>
<!-- Node1&#45;&gt;Node4 -->
<g id="edge4" class="edge">
<title>Node1&#45;&gt;Node4</title>
<path fill="none" stroke="midnightblue" d="M1427.7,-281.48C1215.25,-277.83 532.97,-263.85 315.5,-232 305.7,-230.56 295.35,-228.42 285.49,-226.06"/>
<polygon fill="midnightblue" stroke="midnightblue" points="1427.7,-284.98 1437.75,-281.66 1427.81,-277.99 1427.7,-284.98"/>
</g>
<!-- Node5 -->
<g id="node5" class="node">
<title>Node5</title>
<g id="a_node5"><a xlink:href="../../db/d0a/vabstractcubicbezierpath_8cpp.html" target="_top" xlink:title=" ">
<polygon fill="white" stroke="black" points="883,-123.5 883,-153.5 1046,-153.5 1046,-123.5 883,-123.5"/>
<text text-anchor="start" x="891" y="-141.5" font-family="Helvetica,sans-Serif" font-size="10.00">src/libs/vgeometry</text>
<text text-anchor="middle" x="964.5" y="-130.5" font-family="Helvetica,sans-Serif" font-size="10.00">/vabstractcubicbezierpath.cpp</text>
</a>
</g>
</g>
<!-- Node1&#45;&gt;Node5 -->
<g id="edge5" class="edge">
<title>Node1&#45;&gt;Node5</title>
<path fill="none" stroke="midnightblue" d="M1427.55,-281.24C1291.66,-277.89 983.95,-266.54 952.5,-232 932.98,-210.57 946.63,-173.88 956.6,-153.75"/>
<polygon fill="midnightblue" stroke="midnightblue" points="1427.73,-284.74 1437.81,-281.48 1427.9,-277.74 1427.73,-284.74"/>
</g>
<!-- Node6 -->
<g id="node6" class="node">
<title>Node6</title>
<g id="a_node6"><a xlink:href="../../d5/dd5/vcubicbezier_8h.html" target="_top" xlink:title=" ">
<polygon fill="white" stroke="black" points="1665,-196 1665,-226 1772,-226 1772,-196 1665,-196"/>
<text text-anchor="start" x="1673" y="-214" font-family="Helvetica,sans-Serif" font-size="10.00">src/libs/vgeometry</text>
<text text-anchor="middle" x="1718.5" y="-203" font-family="Helvetica,sans-Serif" font-size="10.00">/vcubicbezier.h</text>
</a>
</g>
</g>
<!-- Node1&#45;&gt;Node6 -->
<g id="edge6" class="edge">
<title>Node1&#45;&gt;Node6</title>
<path fill="none" stroke="midnightblue" d="M1546.2,-265.51C1585.02,-253.46 1636.52,-237.46 1673.08,-226.11"/>
<polygon fill="midnightblue" stroke="midnightblue" points="1545.13,-262.18 1536.62,-268.49 1547.21,-268.86 1545.13,-262.18"/>
</g>
<!-- Node8 -->
<g id="node8" class="node">
<title>Node8</title>
<g id="a_node8"><a xlink:href="../../d5/d8e/vcubicbezier__p_8h.html" target="_top" xlink:title=" ">
<polygon fill="white" stroke="black" points="1790,-196 1790,-226 1897,-226 1897,-196 1790,-196"/>
<text text-anchor="start" x="1798" y="-214" font-family="Helvetica,sans-Serif" font-size="10.00">src/libs/vgeometry</text>
<text text-anchor="middle" x="1843.5" y="-203" font-family="Helvetica,sans-Serif" font-size="10.00">/vcubicbezier_p.h</text>
</a>
</g>
</g>
<!-- Node1&#45;&gt;Node8 -->
<g id="edge8" class="edge">
<title>Node1&#45;&gt;Node8</title>
<path fill="none" stroke="midnightblue" d="M1555.11,-273.9C1614.01,-265.34 1703.8,-250.78 1780.5,-232 1787.52,-230.28 1794.9,-228.2 1802.04,-226.03"/>
<polygon fill="midnightblue" stroke="midnightblue" points="1554.61,-270.43 1545.21,-275.32 1555.61,-277.36 1554.61,-270.43"/>
</g>
<!-- Node9 -->
<g id="node9" class="node">
<title>Node9</title>
<g id="a_node9"><a xlink:href="../../d7/dbf/vcubicbezierpath__p_8h.html" target="_top" xlink:title=" ">
<polygon fill="white" stroke="black" points="325,-196 325,-226 448,-226 448,-196 325,-196"/>
<text text-anchor="start" x="333" y="-214" font-family="Helvetica,sans-Serif" font-size="10.00">src/libs/vgeometry</text>
<text text-anchor="middle" x="386.5" y="-203" font-family="Helvetica,sans-Serif" font-size="10.00">/vcubicbezierpath_p.h</text>
</a>
</g>
</g>
<!-- Node1&#45;&gt;Node9 -->
<g id="edge10" class="edge">
<title>Node1&#45;&gt;Node9</title>
<path fill="none" stroke="midnightblue" d="M1427.59,-281.27C1232.36,-277.2 645.71,-262.7 457.5,-232 448.65,-230.56 439.34,-228.41 430.47,-226.05"/>
<polygon fill="midnightblue" stroke="midnightblue" points="1427.62,-284.77 1437.69,-281.48 1427.76,-277.77 1427.62,-284.77"/>
</g>
<!-- Node11 -->
<g id="node11" class="node">
<title>Node11</title>
<g id="a_node11"><a xlink:href="../../dd/dbe/vcubicbezierpath_8h.html" target="_top" xlink:title=" ">
<polygon fill="white" stroke="black" points="466.5,-196 466.5,-226 578.5,-226 578.5,-196 466.5,-196"/>
<text text-anchor="start" x="474.5" y="-214" font-family="Helvetica,sans-Serif" font-size="10.00">src/libs/vgeometry</text>
<text text-anchor="middle" x="522.5" y="-203" font-family="Helvetica,sans-Serif" font-size="10.00">/vcubicbezierpath.h</text>
</a>
</g>
</g>
<!-- Node1&#45;&gt;Node11 -->
<g id="edge12" class="edge">
<title>Node1&#45;&gt;Node11</title>
<path fill="none" stroke="midnightblue" d="M1427.8,-280.95C1249.72,-276.3 749.24,-260.96 587.5,-232 579.36,-230.54 570.82,-228.39 562.69,-226.03"/>
<polygon fill="midnightblue" stroke="midnightblue" points="1427.71,-284.45 1437.8,-281.21 1427.89,-277.45 1427.71,-284.45"/>
</g>
<!-- Node12 -->
<g id="node12" class="node">
<title>Node12</title>
<g id="a_node12"><a xlink:href="../../de/d12/varc_8h.html" target="_top" xlink:title=" ">
<polygon fill="white" stroke="black" points="1212,-196 1212,-226 1319,-226 1319,-196 1212,-196"/>
<text text-anchor="start" x="1220" y="-214" font-family="Helvetica,sans-Serif" font-size="10.00">src/libs/vgeometry</text>
<text text-anchor="middle" x="1265.5" y="-203" font-family="Helvetica,sans-Serif" font-size="10.00">/varc.h</text>
</a>
</g>
</g>
<!-- Node1&#45;&gt;Node12 -->
<g id="edge14" class="edge">
<title>Node1&#45;&gt;Node12</title>
<path fill="none" stroke="midnightblue" d="M1436.55,-265.36C1397.96,-253.32 1346.96,-237.41 1310.72,-226.11"/>
<polygon fill="midnightblue" stroke="midnightblue" points="1435.99,-268.85 1446.58,-268.49 1438.08,-262.17 1435.99,-268.85"/>
</g>
<!-- Node14 -->
<g id="node14" class="node">
<title>Node14</title>
<g id="a_node14"><a xlink:href="../../d6/d46/vcontainer_8cpp.html" target="_top" xlink:title=" ">
<polygon fill="white" stroke="black" points="1353,-123.5 1353,-153.5 1460,-153.5 1460,-123.5 1353,-123.5"/>
<text text-anchor="start" x="1361" y="-141.5" font-family="Helvetica,sans-Serif" font-size="10.00">src/libs/vpatterndb</text>
<text text-anchor="middle" x="1406.5" y="-130.5" font-family="Helvetica,sans-Serif" font-size="10.00">/vcontainer.cpp</text>
</a>
</g>
</g>
<!-- Node1&#45;&gt;Node14 -->
<g id="edge50" class="edge">
<title>Node1&#45;&gt;Node14</title>
<path fill="none" stroke="midnightblue" d="M1427.83,-272.14C1404.53,-264.93 1380.47,-252.71 1366.5,-232 1349.38,-206.62 1374.36,-172.71 1391.88,-153.8"/>
<polygon fill="midnightblue" stroke="midnightblue" points="1427.16,-275.59 1437.73,-274.93 1429.06,-268.85 1427.16,-275.59"/>
</g>
<!-- Node15 -->
<g id="node15" class="node">
<title>Node15</title>
<g id="a_node15"><a xlink:href="../../df/d7a/vpiece_8cpp.html" target="_top" xlink:title=" ">
<polygon fill="white" stroke="black" points="1603,-123.5 1603,-153.5 1710,-153.5 1710,-123.5 1603,-123.5"/>
<text text-anchor="start" x="1611" y="-141.5" font-family="Helvetica,sans-Serif" font-size="10.00">src/libs/vpatterndb</text>
<text text-anchor="middle" x="1656.5" y="-130.5" font-family="Helvetica,sans-Serif" font-size="10.00">/vpiece.cpp</text>
</a>
</g>
</g>
<!-- Node1&#45;&gt;Node15 -->
<g id="edge52" class="edge">
<title>Node1&#45;&gt;Node15</title>
<path fill="none" stroke="midnightblue" d="M1554.57,-267.65C1576.34,-259.96 1599.5,-248.59 1616.5,-232 1638.91,-210.12 1649.54,-173.62 1653.9,-153.63"/>
<polygon fill="midnightblue" stroke="midnightblue" points="1553.4,-264.35 1545.02,-270.82 1555.61,-270.99 1553.4,-264.35"/>
</g>
<!-- Node16 -->
<g id="node16" class="node">
<title>Node16</title>
<g id="a_node16"><a xlink:href="../../da/ddf/vellipticalarc_8h.html" target="_top" xlink:title=" ">
<polygon fill="white" stroke="black" points="1376,-196 1376,-226 1483,-226 1483,-196 1376,-196"/>
<text text-anchor="start" x="1384" y="-214" font-family="Helvetica,sans-Serif" font-size="10.00">src/libs/vgeometry</text>
<text text-anchor="middle" x="1429.5" y="-203" font-family="Helvetica,sans-Serif" font-size="10.00">/vellipticalarc.h</text>
</a>
</g>
</g>
<!-- Node1&#45;&gt;Node16 -->
<g id="edge18" class="edge">
<title>Node1&#45;&gt;Node16</title>
<path fill="none" stroke="midnightblue" d="M1472.19,-260.54C1462.35,-249.36 1450.68,-236.08 1442.03,-226.25"/>
<polygon fill="midnightblue" stroke="midnightblue" points="1469.72,-263.04 1478.95,-268.23 1474.98,-258.41 1469.72,-263.04"/>
</g>
<!-- Node18 -->
<g id="node18" class="node">
<title>Node18</title>
<g id="a_node18"><a xlink:href="../../df/dde/vellipticalarc__p_8h.html" target="_top" xlink:title=" ">
<polygon fill="white" stroke="black" points="1501,-196 1501,-226 1608,-226 1608,-196 1501,-196"/>
<text text-anchor="start" x="1509" y="-214" font-family="Helvetica,sans-Serif" font-size="10.00">src/libs/vgeometry</text>
<text text-anchor="middle" x="1554.5" y="-203" font-family="Helvetica,sans-Serif" font-size="10.00">/vellipticalarc_p.h</text>
</a>
</g>
</g>
<!-- Node1&#45;&gt;Node18 -->
<g id="edge21" class="edge">
<title>Node1&#45;&gt;Node18</title>
<path fill="none" stroke="midnightblue" d="M1511.12,-260.54C1521.12,-249.36 1532.98,-236.08 1541.77,-226.25"/>
<polygon fill="midnightblue" stroke="midnightblue" points="1508.3,-258.44 1504.25,-268.23 1513.52,-263.11 1508.3,-258.44"/>
</g>
<!-- Node19 -->
<g id="node19" class="node">
<title>Node19</title>
<g id="a_node19"><a xlink:href="../../dd/da8/vpointf_8cpp.html" target="_top" xlink:title=" ">
<polygon fill="white" stroke="black" points="1915,-196 1915,-226 2022,-226 2022,-196 1915,-196"/>
<text text-anchor="start" x="1923" y="-214" font-family="Helvetica,sans-Serif" font-size="10.00">src/libs/vgeometry</text>
<text text-anchor="middle" x="1968.5" y="-203" font-family="Helvetica,sans-Serif" font-size="10.00">/vpointf.cpp</text>
</a>
</g>
</g>
<!-- Node1&#45;&gt;Node19 -->
<g id="edge23" class="edge">
<title>Node1&#45;&gt;Node19</title>
<path fill="none" stroke="midnightblue" d="M1555.27,-278.54C1637.3,-272.57 1783.8,-259 1906.5,-232 1913.79,-230.4 1921.44,-228.29 1928.79,-226.05"/>
<polygon fill="midnightblue" stroke="midnightblue" points="1554.84,-275.06 1545.11,-279.26 1555.33,-282.04 1554.84,-275.06"/>
</g>
<!-- Node20 -->
<g id="node20" class="node">
<title>Node20</title>
<g id="a_node20"><a xlink:href="../../d1/d76/vspline__p_8h.html" target="_top" xlink:title=" ">
<polygon fill="white" stroke="black" points="1087,-196 1087,-226 1194,-226 1194,-196 1087,-196"/>
<text text-anchor="start" x="1095" y="-214" font-family="Helvetica,sans-Serif" font-size="10.00">src/libs/vgeometry</text>
<text text-anchor="middle" x="1140.5" y="-203" font-family="Helvetica,sans-Serif" font-size="10.00">/vspline_p.h</text>
</a>
</g>
</g>
<!-- Node1&#45;&gt;Node20 -->
<g id="edge24" class="edge">
<title>Node1&#45;&gt;Node20</title>
<path fill="none" stroke="midnightblue" d="M1427.87,-273.98C1368.95,-265.48 1279.15,-250.96 1202.5,-232 1195.58,-230.29 1188.32,-228.21 1181.29,-226.04"/>
<polygon fill="midnightblue" stroke="midnightblue" points="1427.38,-277.44 1437.77,-275.39 1428.37,-270.52 1427.38,-277.44"/>
</g>
<!-- Node22 -->
<g id="node22" class="node">
<title>Node22</title>
<g id="a_node22"><a xlink:href="../../d8/dfd/vspline_8h.html" target="_top" xlink:title=" ">
<polygon fill="white" stroke="black" points="962,-196 962,-226 1069,-226 1069,-196 962,-196"/>
<text text-anchor="start" x="970" y="-214" font-family="Helvetica,sans-Serif" font-size="10.00">src/libs/vgeometry</text>
<text text-anchor="middle" x="1015.5" y="-203" font-family="Helvetica,sans-Serif" font-size="10.00">/vspline.h</text>
</a>
</g>
</g>
<!-- Node1&#45;&gt;Node22 -->
<g id="edge26" class="edge">
<title>Node1&#45;&gt;Node22</title>
<path fill="none" stroke="midnightblue" d="M1427.54,-278.5C1345.65,-272.51 1199.73,-258.91 1077.5,-232 1070.21,-230.39 1062.56,-228.29 1055.21,-226.05"/>
<polygon fill="midnightblue" stroke="midnightblue" points="1427.46,-282 1437.69,-279.22 1427.96,-275.02 1427.46,-282"/>
</g>
<!-- Node23 -->
<g id="node23" class="node">
<title>Node23</title>
<g id="a_node23"><a xlink:href="../../d0/d39/vsplinepath_8h.html" target="_top" xlink:title=" ">
<polygon fill="white" stroke="black" points="719,-123.5 719,-153.5 826,-153.5 826,-123.5 719,-123.5"/>
<text text-anchor="start" x="727" y="-141.5" font-family="Helvetica,sans-Serif" font-size="10.00">src/libs/vgeometry</text>
<text text-anchor="middle" x="772.5" y="-130.5" font-family="Helvetica,sans-Serif" font-size="10.00">/vsplinepath.h</text>
</a>
</g>
</g>
<!-- Node1&#45;&gt;Node23 -->
<g id="edge39" class="edge">
<title>Node1&#45;&gt;Node23</title>
<path fill="none" stroke="midnightblue" d="M1427.72,-282.55C1291.71,-281.79 977.74,-275.25 881.5,-232 856.84,-220.92 857.98,-207.65 837.5,-190 822.56,-177.13 804.84,-163.46 791.68,-153.59"/>
<polygon fill="midnightblue" stroke="midnightblue" points="1427.96,-286.05 1437.98,-282.59 1428,-279.05 1427.96,-286.05"/>
</g>
<!-- Node25 -->
<g id="node25" class="node">
<title>Node25</title>
<g id="a_node25"><a xlink:href="../../d1/d3a/abstracttest_8cpp.html" target="_top" xlink:title=" ">
<polygon fill="white" stroke="black" points="874,-62 874,-81 1035,-81 1035,-62 874,-62"/>
<text text-anchor="middle" x="954.5" y="-69" font-family="Helvetica,sans-Serif" font-size="10.00">src/libs/vtest/abstracttest.cpp</text>
</a>
</g>
</g>
<!-- Node1&#45;&gt;Node25 -->
<g id="edge54" class="edge">
<title>Node1&#45;&gt;Node25</title>
<path fill="none" stroke="midnightblue" d="M1427.57,-282.65C1300.87,-281.98 1022.94,-275.43 939.5,-232 889.26,-205.85 846.02,-172.52 873.5,-123 885.08,-102.13 909.26,-88.76 928.2,-81.06"/>
<polygon fill="midnightblue" stroke="midnightblue" points="1427.88,-286.15 1437.89,-282.69 1427.91,-279.15 1427.88,-286.15"/>
</g>
<!-- Node28 -->
<g id="node28" class="node">
<title>Node28</title>
<g id="a_node28"><a xlink:href="../../df/d4b/vsplinepoint_8h.html" target="_top" xlink:title=" ">
<polygon fill="white" stroke="black" points="597,-196 597,-226 704,-226 704,-196 597,-196"/>
<text text-anchor="start" x="605" y="-214" font-family="Helvetica,sans-Serif" font-size="10.00">src/libs/vgeometry</text>
<text text-anchor="middle" x="650.5" y="-203" font-family="Helvetica,sans-Serif" font-size="10.00">/vsplinepoint.h</text>
</a>
</g>
</g>
<!-- Node1&#45;&gt;Node28 -->
<g id="edge40" class="edge">
<title>Node1&#45;&gt;Node28</title>
<path fill="none" stroke="midnightblue" d="M1427.6,-280.39C1266.9,-274.77 849.04,-258.03 712.5,-232 704.83,-230.54 696.8,-228.41 689.14,-226.08"/>
<polygon fill="midnightblue" stroke="midnightblue" points="1427.69,-283.9 1437.81,-280.75 1427.94,-276.9 1427.69,-283.9"/>
</g>
<!-- Node31 -->
<g id="node31" class="node">
<title>Node31</title>
<g id="a_node31"><a xlink:href="../../da/db2/vsplinepoint__p_8h.html" target="_top" xlink:title=" ">
<polygon fill="white" stroke="black" points="722,-196 722,-226 829,-226 829,-196 722,-196"/>
<text text-anchor="start" x="730" y="-214" font-family="Helvetica,sans-Serif" font-size="10.00">src/libs/vgeometry</text>
<text text-anchor="middle" x="775.5" y="-203" font-family="Helvetica,sans-Serif" font-size="10.00">/vsplinepoint_p.h</text>
</a>
</g>
</g>
<!-- Node1&#45;&gt;Node31 -->
<g id="edge46" class="edge">
<title>Node1&#45;&gt;Node31</title>
<path fill="none" stroke="midnightblue" d="M1427.47,-281.91C1310.51,-279.86 1054.92,-270.89 843.5,-232 835.27,-230.49 826.61,-228.37 818.34,-226.07"/>
<polygon fill="midnightblue" stroke="midnightblue" points="1427.62,-285.41 1437.67,-282.08 1427.73,-278.42 1427.62,-285.41"/>
</g>
<!-- Node32 -->
<g id="node32" class="node">
<title>Node32</title>
<g id="a_node32"><a xlink:href="../../d9/d15/vabstractpiece_8cpp.html" target="_top" xlink:title=" ">
<polygon fill="white" stroke="black" points="2040.5,-201.5 2040.5,-220.5 2226.5,-220.5 2226.5,-201.5 2040.5,-201.5"/>
<text text-anchor="middle" x="2133.5" y="-208.5" font-family="Helvetica,sans-Serif" font-size="10.00">src/libs/vlayout/vabstractpiece.cpp</text>
</a>
</g>
</g>
<!-- Node1&#45;&gt;Node32 -->
<g id="edge48" class="edge">
<title>Node1&#45;&gt;Node32</title>
<path fill="none" stroke="midnightblue" d="M1555.44,-278.61C1656.77,-271.97 1860.31,-256.72 2031.5,-232 2052.58,-228.96 2075.89,-224.47 2094.91,-220.52"/>
<polygon fill="midnightblue" stroke="midnightblue" points="1555.12,-275.12 1545.36,-279.26 1555.57,-282.11 1555.12,-275.12"/>
</g>
<!-- Node33 -->
<g id="node33" class="node">
<title>Node33</title>
<g id="a_node33"><a xlink:href="../../dd/d70/vlayoutpiece_8cpp.html" target="_top" xlink:title=" ">
<polygon fill="white" stroke="black" points="2244,-201.5 2244,-220.5 2421,-220.5 2421,-201.5 2244,-201.5"/>
<text text-anchor="middle" x="2332.5" y="-208.5" font-family="Helvetica,sans-Serif" font-size="10.00">src/libs/vlayout/vlayoutpiece.cpp</text>
</a>
</g>
</g>
<!-- Node1&#45;&gt;Node33 -->
<g id="edge49" class="edge">
<title>Node1&#45;&gt;Node33</title>
<path fill="none" stroke="midnightblue" d="M1555.55,-281.07C1684.71,-277.56 1985.4,-266.11 2235.5,-232 2255.94,-229.21 2278.54,-224.64 2296.77,-220.58"/>
<polygon fill="midnightblue" stroke="midnightblue" points="1555.34,-277.58 1545.44,-281.34 1555.53,-284.58 1555.34,-277.58"/>
</g>
<!-- Node34 -->
<g id="node34" class="node">
<title>Node34</title>
<g id="a_node34"><a xlink:href="../../d6/d91/vnodedetail_8cpp.html" target="_top" xlink:title=" ">
<polygon fill="white" stroke="black" points="2439,-196 2439,-226 2546,-226 2546,-196 2439,-196"/>
<text text-anchor="start" x="2447" y="-214" font-family="Helvetica,sans-Serif" font-size="10.00">src/libs/vpatterndb</text>
<text text-anchor="middle" x="2492.5" y="-203" font-family="Helvetica,sans-Serif" font-size="10.00">/vnodedetail.cpp</text>
</a>
</g>
</g>
<!-- Node1&#45;&gt;Node34 -->
<g id="edge51" class="edge">
<title>Node1&#45;&gt;Node34</title>
<path fill="none" stroke="midnightblue" d="M1555.43,-281.21C1738.43,-277.18 2262,-263.16 2430.5,-232 2438.29,-230.56 2446.45,-228.41 2454.2,-226.05"/>
<polygon fill="midnightblue" stroke="midnightblue" points="1555.08,-277.72 1545.16,-281.43 1555.23,-284.71 1555.08,-277.72"/>
</g>
<!-- Node35 -->
<g id="node35" class="node">
<title>Node35</title>
<g id="a_node35"><a xlink:href="../../da/de1/vpiecepath_8cpp.html" target="_top" xlink:title=" ">
<polygon fill="white" stroke="black" points="2564,-196 2564,-226 2671,-226 2671,-196 2564,-196"/>
<text text-anchor="start" x="2572" y="-214" font-family="Helvetica,sans-Serif" font-size="10.00">src/libs/vpatterndb</text>
<text text-anchor="middle" x="2617.5" y="-203" font-family="Helvetica,sans-Serif" font-size="10.00">/vpiecepath.cpp</text>
</a>
</g>
</g>
<!-- Node1&#45;&gt;Node35 -->
<g id="edge53" class="edge">
<title>Node1&#45;&gt;Node35</title>
<path fill="none" stroke="midnightblue" d="M1555.29,-281.68C1754.26,-278.78 2361.79,-267.2 2555.5,-232 2563.29,-230.58 2571.45,-228.45 2579.21,-226.09"/>
<polygon fill="midnightblue" stroke="midnightblue" points="1555.23,-278.18 1545.28,-281.82 1555.33,-285.18 1555.23,-278.18"/>
</g>
<!-- Node36 -->
<g id="node36" class="node">
<title>Node36</title>
<g id="a_node36"><a xlink:href="../../d3/d22/insert__nodes__dialog_8cpp.html" target="_top" xlink:title=" ">
<polygon fill="white" stroke="black" points="2689.5,-196 2689.5,-226 2853.5,-226 2853.5,-196 2689.5,-196"/>
<text text-anchor="start" x="2697.5" y="-214" font-family="Helvetica,sans-Serif" font-size="10.00">src/libs/vtools/dialogs</text>
<text text-anchor="middle" x="2771.5" y="-203" font-family="Helvetica,sans-Serif" font-size="10.00">/tools/insert_nodes_dialog.cpp</text>
</a>
</g>
</g>
<!-- Node1&#45;&gt;Node36 -->
<g id="edge55" class="edge">
<title>Node1&#45;&gt;Node36</title>
<path fill="none" stroke="midnightblue" d="M1555.24,-281.26C1769.07,-276.85 2459.89,-260.71 2680.5,-232 2691.73,-230.54 2703.62,-228.38 2714.97,-226.02"/>
<polygon fill="midnightblue" stroke="midnightblue" points="1555.04,-277.76 1545.12,-281.46 1555.19,-284.76 1555.04,-277.76"/>
</g>
<!-- Node37 -->
<g id="node37" class="node">
<title>Node37</title>
<g id="a_node37"><a xlink:href="../../de/d46/pattern__piece__dialog_8cpp.html" target="_top" xlink:title=" ">
<polygon fill="white" stroke="black" points="2872,-190.5 2872,-231.5 3015,-231.5 3015,-190.5 2872,-190.5"/>
<text text-anchor="start" x="2880" y="-219.5" font-family="Helvetica,sans-Serif" font-size="10.00">src/libs/vtools/dialogs</text>
<text text-anchor="start" x="2880" y="-208.5" font-family="Helvetica,sans-Serif" font-size="10.00">/tools/piece/pattern_piece</text>
<text text-anchor="middle" x="2943.5" y="-197.5" font-family="Helvetica,sans-Serif" font-size="10.00">_dialog.cpp</text>
</a>
</g>
</g>
<!-- Node1&#45;&gt;Node37 -->
<g id="edge56" class="edge">
<title>Node1&#45;&gt;Node37</title>
<path fill="none" stroke="midnightblue" d="M1555.34,-281.89C1790.07,-279.36 2605.1,-268.13 2862.5,-232 2865.51,-231.58 2868.58,-231.09 2871.66,-230.55"/>
<polygon fill="midnightblue" stroke="midnightblue" points="1555.22,-278.39 1545.26,-281.99 1555.29,-285.39 1555.22,-278.39"/>
</g>
<!-- Node38 -->
<g id="node38" class="node">
<title>Node38</title>
<g id="a_node38"><a xlink:href="../../d4/d7b/vnodepoint_8cpp.html" target="_top" xlink:title=" ">
<polygon fill="white" stroke="black" points="3033.5,-196 3033.5,-226 3189.5,-226 3189.5,-196 3033.5,-196"/>
<text text-anchor="start" x="3041.5" y="-214" font-family="Helvetica,sans-Serif" font-size="10.00">src/libs/vtools/tools</text>
<text text-anchor="middle" x="3111.5" y="-203" font-family="Helvetica,sans-Serif" font-size="10.00">/nodeDetails/vnodepoint.cpp</text>
</a>
</g>
</g>
<!-- Node1&#45;&gt;Node38 -->
<g id="edge57" class="edge">
<title>Node1&#45;&gt;Node38</title>
<path fill="none" stroke="midnightblue" d="M1555.16,-282.04C1806.91,-279.97 2733.44,-269.89 3024.5,-232 3035.41,-230.58 3046.96,-228.41 3057.96,-226.01"/>
<polygon fill="midnightblue" stroke="midnightblue" points="1555.05,-278.54 1545.08,-282.12 1555.11,-285.54 1555.05,-278.54"/>
</g>
<!-- Node39 -->
<g id="node39" class="node">
<title>Node39</title>
<g id="a_node39"><a xlink:href="../../d8/d76/scene__rect_8cpp.html" target="_top" xlink:title=" ">
<polygon fill="white" stroke="black" points="3207.5,-196 3207.5,-226 3337.5,-226 3337.5,-196 3207.5,-196"/>
<text text-anchor="start" x="3215.5" y="-214" font-family="Helvetica,sans-Serif" font-size="10.00">src/libs/vwidgets/scene</text>
<text text-anchor="middle" x="3272.5" y="-203" font-family="Helvetica,sans-Serif" font-size="10.00">_rect.cpp</text>
</a>
</g>
</g>
<!-- Node1&#45;&gt;Node39 -->
<g id="edge58" class="edge">
<title>Node1&#45;&gt;Node39</title>
<path fill="none" stroke="midnightblue" d="M1555.18,-282.61C1824.66,-282.77 2872.37,-280.21 3198.5,-232 3207.85,-230.62 3217.7,-228.46 3227.06,-226.07"/>
<polygon fill="midnightblue" stroke="midnightblue" points="1555.17,-279.11 1545.17,-282.6 1555.17,-286.11 1555.17,-279.11"/>
</g>
<!-- Node40 -->
<g id="node40" class="node">
<title>Node40</title>
<g id="a_node40"><a xlink:href="../../d0/d5d/vscenepoint_8cpp.html" target="_top" xlink:title=" ">
<polygon fill="white" stroke="black" points="3356,-201.5 3356,-220.5 3537,-220.5 3537,-201.5 3356,-201.5"/>
<text text-anchor="middle" x="3446.5" y="-208.5" font-family="Helvetica,sans-Serif" font-size="10.00">src/libs/vwidgets/vscenepoint.cpp</text>
</a>
</g>
</g>
<!-- Node1&#45;&gt;Node40 -->
<g id="edge59" class="edge">
<title>Node1&#45;&gt;Node40</title>
<path fill="none" stroke="midnightblue" d="M1555.4,-282.22C1839.35,-280.75 2988.37,-272.39 3346.5,-232 3368.32,-229.54 3392.46,-224.77 3411.56,-220.51"/>
<polygon fill="midnightblue" stroke="midnightblue" points="1555.26,-278.72 1545.28,-282.27 1555.29,-285.72 1555.26,-278.72"/>
</g>
<!-- Node41 -->
<g id="node41" class="node">
<title>Node41</title>
<g id="a_node41"><a xlink:href="../../df/d38/vsimplepoint_8cpp.html" target="_top" xlink:title=" ">
<polygon fill="white" stroke="black" points="3555,-201.5 3555,-220.5 3740,-220.5 3740,-201.5 3555,-201.5"/>
<text text-anchor="middle" x="3647.5" y="-208.5" font-family="Helvetica,sans-Serif" font-size="10.00">src/libs/vwidgets/vsimplepoint.cpp</text>
</a>
</g>
</g>
<!-- Node1&#45;&gt;Node41 -->
<g id="edge60" class="edge">
<title>Node1&#45;&gt;Node41</title>
<path fill="none" stroke="midnightblue" d="M1555.72,-282.4C1858.66,-281.7 3146.86,-276.15 3546.5,-232 3568.53,-229.57 3592.92,-224.8 3612.21,-220.53"/>
<polygon fill="midnightblue" stroke="midnightblue" points="1555.35,-278.9 1545.36,-282.42 1555.37,-285.9 1555.35,-278.9"/>
</g>
<!-- Node2&#45;&gt;Node3 -->
<g id="edge2" class="edge">
<title>Node2&#45;&gt;Node3</title>
<path fill="none" stroke="midnightblue" d="M81.16,-187.06C74.78,-176.09 67.34,-163.3 61.78,-153.75"/>
<polygon fill="midnightblue" stroke="midnightblue" points="78.15,-188.85 86.2,-195.73 84.2,-185.33 78.15,-188.85"/>
</g>
<!-- Node7 -->
<g id="node7" class="node">
<title>Node7</title>
<g id="a_node7"><a xlink:href="../../d2/d26/vcubicbezier_8cpp.html" target="_top" xlink:title=" ">
<polygon fill="white" stroke="black" points="1760,-123.5 1760,-153.5 1867,-153.5 1867,-123.5 1760,-123.5"/>
<text text-anchor="start" x="1768" y="-141.5" font-family="Helvetica,sans-Serif" font-size="10.00">src/libs/vgeometry</text>
<text text-anchor="middle" x="1813.5" y="-130.5" font-family="Helvetica,sans-Serif" font-size="10.00">/vcubicbezier.cpp</text>
</a>
</g>
</g>
<!-- Node6&#45;&gt;Node7 -->
<g id="edge7" class="edge">
<title>Node6&#45;&gt;Node7</title>
<path fill="none" stroke="midnightblue" d="M1745.98,-189.61C1761.58,-178.03 1780.72,-163.83 1794.63,-153.5"/>
<polygon fill="midnightblue" stroke="midnightblue" points="1743.67,-186.96 1737.72,-195.73 1747.84,-192.58 1743.67,-186.96"/>
</g>
<!-- Node8&#45;&gt;Node7 -->
<g id="edge9" class="edge">
<title>Node8&#45;&gt;Node7</title>
<path fill="none" stroke="midnightblue" d="M1833.46,-186.4C1828.85,-175.58 1823.54,-163.11 1819.56,-153.75"/>
<polygon fill="midnightblue" stroke="midnightblue" points="1830.29,-187.9 1837.43,-195.73 1836.73,-185.16 1830.29,-187.9"/>
</g>
<!-- Node10 -->
<g id="node10" class="node">
<title>Node10</title>
<g id="a_node10"><a xlink:href="../../de/df0/vcubicbezierpath_8cpp.html" target="_top" xlink:title=" ">
<polygon fill="white" stroke="black" points="328,-123.5 328,-153.5 451,-153.5 451,-123.5 328,-123.5"/>
<text text-anchor="start" x="336" y="-141.5" font-family="Helvetica,sans-Serif" font-size="10.00">src/libs/vgeometry</text>
<text text-anchor="middle" x="389.5" y="-130.5" font-family="Helvetica,sans-Serif" font-size="10.00">/vcubicbezierpath.cpp</text>
</a>
</g>
</g>
<!-- Node9&#45;&gt;Node10 -->
<g id="edge11" class="edge">
<title>Node9&#45;&gt;Node10</title>
<path fill="none" stroke="midnightblue" d="M387.53,-185.73C387.99,-175.07 388.5,-162.91 388.89,-153.75"/>
<polygon fill="midnightblue" stroke="midnightblue" points="384.04,-185.59 387.11,-195.73 391.03,-185.89 384.04,-185.59"/>
</g>
<!-- Node11&#45;&gt;Node10 -->
<g id="edge13" class="edge">
<title>Node11&#45;&gt;Node10</title>
<path fill="none" stroke="midnightblue" d="M487.06,-191.22C464.75,-179.39 436.42,-164.37 416.05,-153.57"/>
<polygon fill="midnightblue" stroke="midnightblue" points="485.43,-194.31 495.91,-195.9 488.71,-188.13 485.43,-194.31"/>
</g>
<!-- Node13 -->
<g id="node13" class="node">
<title>Node13</title>
<g id="a_node13"><a xlink:href="../../d5/ded/varc_8cpp.html" target="_top" xlink:title=" ">
<polygon fill="white" stroke="black" points="1228,-123.5 1228,-153.5 1335,-153.5 1335,-123.5 1228,-123.5"/>
<text text-anchor="start" x="1236" y="-141.5" font-family="Helvetica,sans-Serif" font-size="10.00">src/libs/vgeometry</text>
<text text-anchor="middle" x="1281.5" y="-130.5" font-family="Helvetica,sans-Serif" font-size="10.00">/varc.cpp</text>
</a>
</g>
</g>
<!-- Node12&#45;&gt;Node13 -->
<g id="edge15" class="edge">
<title>Node12&#45;&gt;Node13</title>
<path fill="none" stroke="midnightblue" d="M1271.01,-185.73C1273.43,-175.07 1276.19,-162.91 1278.27,-153.75"/>
<polygon fill="midnightblue" stroke="midnightblue" points="1267.54,-185.21 1268.74,-195.73 1274.36,-186.76 1267.54,-185.21"/>
</g>
<!-- Node12&#45;&gt;Node14 -->
<g id="edge16" class="edge">
<title>Node12&#45;&gt;Node14</title>
<path fill="none" stroke="midnightblue" d="M1302.75,-191.37C1326.45,-179.52 1356.66,-164.42 1378.35,-153.57"/>
<polygon fill="midnightblue" stroke="midnightblue" points="1301.07,-188.3 1293.69,-195.9 1304.2,-194.56 1301.07,-188.3"/>
</g>
<!-- Node12&#45;&gt;Node15 -->
<g id="edge17" class="edge">
<title>Node12&#45;&gt;Node15</title>
<path fill="none" stroke="midnightblue" d="M1328.98,-197.04C1341.41,-194.62 1354.35,-192.17 1366.5,-190 1467.06,-172.08 1493.22,-173.47 1593.5,-154 1596.58,-153.4 1599.75,-152.76 1602.94,-152.09"/>
<polygon fill="midnightblue" stroke="midnightblue" points="1328.29,-193.61 1319.16,-198.98 1329.64,-200.48 1328.29,-193.61"/>
</g>
<!-- Node16&#45;&gt;Node14 -->
<g id="edge20" class="edge">
<title>Node16&#45;&gt;Node14</title>
<path fill="none" stroke="midnightblue" d="M1421.69,-186.06C1418.19,-175.32 1414.17,-163.01 1411.15,-153.75"/>
<polygon fill="midnightblue" stroke="midnightblue" points="1418.42,-187.31 1424.85,-195.73 1425.07,-185.14 1418.42,-187.31"/>
</g>
<!-- Node17 -->
<g id="node17" class="node">
<title>Node17</title>
<g id="a_node17"><a xlink:href="../../d6/dfb/vellipticalarc_8cpp.html" target="_top" xlink:title=" ">
<polygon fill="white" stroke="black" points="1478,-123.5 1478,-153.5 1585,-153.5 1585,-123.5 1478,-123.5"/>
<text text-anchor="start" x="1486" y="-141.5" font-family="Helvetica,sans-Serif" font-size="10.00">src/libs/vgeometry</text>
<text text-anchor="middle" x="1531.5" y="-130.5" font-family="Helvetica,sans-Serif" font-size="10.00">/vellipticalarc.cpp</text>
</a>
</g>
</g>
<!-- Node16&#45;&gt;Node17 -->
<g id="edge19" class="edge">
<title>Node16&#45;&gt;Node17</title>
<path fill="none" stroke="midnightblue" d="M1458.54,-189.93C1475.38,-178.29 1496.16,-163.92 1511.24,-153.5"/>
<polygon fill="midnightblue" stroke="midnightblue" points="1456.38,-187.17 1450.14,-195.73 1460.36,-192.93 1456.38,-187.17"/>
</g>
<!-- Node18&#45;&gt;Node17 -->
<g id="edge22" class="edge">
<title>Node18&#45;&gt;Node17</title>
<path fill="none" stroke="midnightblue" d="M1546.69,-186.06C1543.19,-175.32 1539.17,-163.01 1536.15,-153.75"/>
<polygon fill="midnightblue" stroke="midnightblue" points="1543.42,-187.31 1549.85,-195.73 1550.07,-185.14 1543.42,-187.31"/>
</g>
<!-- Node21 -->
<g id="node21" class="node">
<title>Node21</title>
<g id="a_node21"><a xlink:href="../../d5/dd2/vspline_8cpp.html" target="_top" xlink:title=" ">
<polygon fill="white" stroke="black" points="1103,-123.5 1103,-153.5 1210,-153.5 1210,-123.5 1103,-123.5"/>
<text text-anchor="start" x="1111" y="-141.5" font-family="Helvetica,sans-Serif" font-size="10.00">src/libs/vgeometry</text>
<text text-anchor="middle" x="1156.5" y="-130.5" font-family="Helvetica,sans-Serif" font-size="10.00">/vspline.cpp</text>
</a>
</g>
</g>
<!-- Node20&#45;&gt;Node21 -->
<g id="edge25" class="edge">
<title>Node20&#45;&gt;Node21</title>
<path fill="none" stroke="midnightblue" d="M1146.01,-185.73C1148.43,-175.07 1151.19,-162.91 1153.27,-153.75"/>
<polygon fill="midnightblue" stroke="midnightblue" points="1142.54,-185.21 1143.74,-195.73 1149.36,-186.76 1142.54,-185.21"/>
</g>
<!-- Node22&#45;&gt;Node5 -->
<g id="edge27" class="edge">
<title>Node22&#45;&gt;Node5</title>
<path fill="none" stroke="midnightblue" d="M999.14,-187.39C991.15,-176.34 981.78,-163.39 974.81,-153.75"/>
<polygon fill="midnightblue" stroke="midnightblue" points="996.48,-189.68 1005.18,-195.73 1002.15,-185.58 996.48,-189.68"/>
</g>
<!-- Node22&#45;&gt;Node10 -->
<g id="edge29" class="edge">
<title>Node22&#45;&gt;Node10</title>
<path fill="none" stroke="midnightblue" d="M951.55,-202.55C917.67,-198.67 875.34,-193.93 837.5,-190 669.64,-172.58 626.38,-179.15 459.5,-154 456.8,-153.59 454.05,-153.15 451.27,-152.68"/>
<polygon fill="midnightblue" stroke="midnightblue" points="951.45,-206.06 961.78,-203.72 952.24,-199.11 951.45,-206.06"/>
</g>
<!-- Node22&#45;&gt;Node13 -->
<g id="edge28" class="edge">
<title>Node22&#45;&gt;Node13</title>
<path fill="none" stroke="midnightblue" d="M1067.37,-192.97C1070.79,-191.94 1074.19,-190.94 1077.5,-190 1105.4,-182.06 1177.34,-164.5 1227.85,-152.34"/>
<polygon fill="midnightblue" stroke="midnightblue" points="1066.26,-189.65 1057.74,-195.94 1068.32,-196.34 1066.26,-189.65"/>
</g>
<!-- Node22&#45;&gt;Node14 -->
<g id="edge37" class="edge">
<title>Node22&#45;&gt;Node14</title>
<path fill="none" stroke="midnightblue" d="M1065.18,-193.13C1069.32,-191.98 1073.47,-190.92 1077.5,-190 1193.84,-163.58 1226.14,-175.4 1343.5,-154 1346.59,-153.44 1349.76,-152.82 1352.95,-152.18"/>
<polygon fill="midnightblue" stroke="midnightblue" points="1064.18,-189.77 1055.57,-195.93 1066.15,-196.49 1064.18,-189.77"/>
</g>
<!-- Node22&#45;&gt;Node17 -->
<g id="edge30" class="edge">
<title>Node22&#45;&gt;Node17</title>
<path fill="none" stroke="midnightblue" d="M1064.2,-193.19C1068.66,-191.98 1073.14,-190.89 1077.5,-190 1248.47,-155 1296.19,-181.63 1468.5,-154 1471.6,-153.5 1474.78,-152.94 1477.98,-152.33"/>
<polygon fill="midnightblue" stroke="midnightblue" points="1063.15,-189.85 1054.51,-195.98 1065.09,-196.57 1063.15,-189.85"/>
</g>
<!-- Node22&#45;&gt;Node21 -->
<g id="edge31" class="edge">
<title>Node22&#45;&gt;Node21</title>
<path fill="none" stroke="midnightblue" d="M1052.75,-191.37C1076.45,-179.52 1106.66,-164.42 1128.35,-153.57"/>
<polygon fill="midnightblue" stroke="midnightblue" points="1051.07,-188.3 1043.69,-195.9 1054.2,-194.56 1051.07,-188.3"/>
</g>
<!-- Node22&#45;&gt;Node23 -->
<g id="edge32" class="edge">
<title>Node22&#45;&gt;Node23</title>
<path fill="none" stroke="midnightblue" d="M957.47,-193.16C915.86,-181.09 860.42,-165.01 821.12,-153.61"/>
<polygon fill="midnightblue" stroke="midnightblue" points="956.62,-196.56 967.2,-195.99 958.57,-189.84 956.62,-196.56"/>
</g>
<!-- Node22&#45;&gt;Node25 -->
<g id="edge38" class="edge">
<title>Node22&#45;&gt;Node25</title>
<path fill="none" stroke="midnightblue" d="M1036.97,-188.17C1052.06,-170.09 1067.44,-144.03 1054.5,-123 1040.94,-100.97 1014.48,-88.2 992.18,-81.01"/>
<polygon fill="midnightblue" stroke="midnightblue" points="1034.16,-186.07 1030.16,-195.88 1039.41,-190.7 1034.16,-186.07"/>
</g>
<!-- Node24 -->
<g id="node24" class="node">
<title>Node24</title>
<g id="a_node24"><a xlink:href="../../db/d6a/vsplinepath_8cpp.html" target="_top" xlink:title=" ">
<polygon fill="white" stroke="black" points="507,-56.5 507,-86.5 614,-86.5 614,-56.5 507,-56.5"/>
<text text-anchor="start" x="515" y="-74.5" font-family="Helvetica,sans-Serif" font-size="10.00">src/libs/vgeometry</text>
<text text-anchor="middle" x="560.5" y="-63.5" font-family="Helvetica,sans-Serif" font-size="10.00">/vsplinepath.cpp</text>
</a>
</g>
</g>
<!-- Node23&#45;&gt;Node24 -->
<g id="edge33" class="edge">
<title>Node23&#45;&gt;Node24</title>
<path fill="none" stroke="midnightblue" d="M716.87,-120.44C682.51,-109.91 638.94,-96.55 606.52,-86.61"/>
<polygon fill="midnightblue" stroke="midnightblue" points="716.17,-123.89 726.76,-123.48 718.23,-117.2 716.17,-123.89"/>
</g>
<!-- Node23&#45;&gt;Node25 -->
<g id="edge34" class="edge">
<title>Node23&#45;&gt;Node25</title>
<path fill="none" stroke="midnightblue" d="M821.65,-119.95C857,-107.32 903.12,-90.85 930.68,-81.01"/>
<polygon fill="midnightblue" stroke="midnightblue" points="820.23,-116.74 811.99,-123.4 822.59,-123.33 820.23,-116.74"/>
</g>
<!-- Node26 -->
<g id="node26" class="node">
<title>Node26</title>
<g id="a_node26"><a xlink:href="../../d8/d13/vcontrolpointspline_8h.html" target="_top" xlink:title=" ">
<polygon fill="white" stroke="black" points="651.5,-62 651.5,-81 855.5,-81 855.5,-62 651.5,-62"/>
<text text-anchor="middle" x="753.5" y="-69" font-family="Helvetica,sans-Serif" font-size="10.00">src/libs/vwidgets/vcontrolpointspline.h</text>
</a>
</g>
</g>
<!-- Node23&#45;&gt;Node26 -->
<g id="edge35" class="edge">
<title>Node23&#45;&gt;Node26</title>
<path fill="none" stroke="midnightblue" d="M765.51,-113.6C762.2,-102.28 758.46,-89.46 756.04,-81.19"/>
<polygon fill="midnightblue" stroke="midnightblue" points="762.21,-114.78 768.38,-123.4 768.93,-112.82 762.21,-114.78"/>
</g>
<!-- Node27 -->
<g id="node27" class="node">
<title>Node27</title>
<g id="a_node27"><a xlink:href="../../de/d45/vcontrolpointspline_8cpp.html" target="_top" xlink:title=" ">
<polygon fill="white" stroke="black" points="646,-0.5 646,-19.5 861,-19.5 861,-0.5 646,-0.5"/>
<text text-anchor="middle" x="753.5" y="-7.5" font-family="Helvetica,sans-Serif" font-size="10.00">src/libs/vwidgets/vcontrolpointspline.cpp</text>
</a>
</g>
</g>
<!-- Node26&#45;&gt;Node27 -->
<g id="edge36" class="edge">
<title>Node26&#45;&gt;Node27</title>
<path fill="none" stroke="midnightblue" d="M753.5,-51.82C753.5,-41 753.5,-27.9 753.5,-19.51"/>
<polygon fill="midnightblue" stroke="midnightblue" points="750,-51.98 753.5,-61.98 757,-51.98 750,-51.98"/>
</g>
<!-- Node28&#45;&gt;Node10 -->
<g id="edge41" class="edge">
<title>Node28&#45;&gt;Node10</title>
<path fill="none" stroke="midnightblue" d="M597.6,-192.96C594.19,-191.94 590.8,-190.94 587.5,-190 540.94,-176.68 487.74,-163.21 448.22,-153.53"/>
<polygon fill="midnightblue" stroke="midnightblue" points="596.63,-196.33 607.22,-195.9 598.68,-189.63 596.63,-196.33"/>
</g>
<!-- Node28&#45;&gt;Node23 -->
<g id="edge42" class="edge">
<title>Node28&#45;&gt;Node23</title>
<path fill="none" stroke="midnightblue" d="M683.55,-190.9C703.93,-179.12 729.62,-164.28 748.15,-153.57"/>
<polygon fill="midnightblue" stroke="midnightblue" points="681.8,-187.87 674.9,-195.9 685.3,-193.93 681.8,-187.87"/>
</g>
<!-- Node29 -->
<g id="node29" class="node">
<title>Node29</title>
<g id="a_node29"><a xlink:href="../../d0/dd8/vsplinepath__p_8h.html" target="_top" xlink:title=" ">
<polygon fill="white" stroke="black" points="469,-123.5 469,-153.5 576,-153.5 576,-123.5 469,-123.5"/>
<text text-anchor="start" x="477" y="-141.5" font-family="Helvetica,sans-Serif" font-size="10.00">src/libs/vgeometry</text>
<text text-anchor="middle" x="522.5" y="-130.5" font-family="Helvetica,sans-Serif" font-size="10.00">/vsplinepath_p.h</text>
</a>
</g>
</g>
<!-- Node28&#45;&gt;Node29 -->
<g id="edge43" class="edge">
<title>Node28&#45;&gt;Node29</title>
<path fill="none" stroke="midnightblue" d="M616.11,-191.06C594.68,-179.26 567.57,-164.33 548.05,-153.57"/>
<polygon fill="midnightblue" stroke="midnightblue" points="614.46,-194.14 624.9,-195.9 617.83,-188.01 614.46,-194.14"/>
</g>
<!-- Node30 -->
<g id="node30" class="node">
<title>Node30</title>
<g id="a_node30"><a xlink:href="../../d5/d81/vsplinepoint_8cpp.html" target="_top" xlink:title=" ">
<polygon fill="white" stroke="black" points="594,-123.5 594,-153.5 701,-153.5 701,-123.5 594,-123.5"/>
<text text-anchor="start" x="602" y="-141.5" font-family="Helvetica,sans-Serif" font-size="10.00">src/libs/vgeometry</text>
<text text-anchor="middle" x="647.5" y="-130.5" font-family="Helvetica,sans-Serif" font-size="10.00">/vsplinepoint.cpp</text>
</a>
</g>
</g>
<!-- Node28&#45;&gt;Node30 -->
<g id="edge45" class="edge">
<title>Node28&#45;&gt;Node30</title>
<path fill="none" stroke="midnightblue" d="M649.47,-185.73C649.01,-175.07 648.5,-162.91 648.11,-153.75"/>
<polygon fill="midnightblue" stroke="midnightblue" points="645.97,-185.89 649.89,-195.73 652.96,-185.59 645.97,-185.89"/>
</g>
<!-- Node29&#45;&gt;Node24 -->
<g id="edge44" class="edge">
<title>Node29&#45;&gt;Node24</title>
<path fill="none" stroke="midnightblue" d="M535.9,-114.58C541.36,-105.24 547.49,-94.75 552.27,-86.58"/>
<polygon fill="midnightblue" stroke="midnightblue" points="532.77,-113 530.75,-123.4 538.81,-116.53 532.77,-113"/>
</g>
<!-- Node31&#45;&gt;Node30 -->
<g id="edge47" class="edge">
<title>Node31&#45;&gt;Node30</title>
<path fill="none" stroke="midnightblue" d="M741.11,-191.06C719.68,-179.26 692.57,-164.33 673.05,-153.57"/>
<polygon fill="midnightblue" stroke="midnightblue" points="739.46,-194.14 749.9,-195.9 742.83,-188.01 739.46,-194.14"/>
</g>
</g>
</svg>
