<?xml version="1.0" encoding="UTF-8" standalone="no"?>
<!DOCTYPE svg PUBLIC "-//W3C//DTD SVG 1.1//EN"
 "http://www.w3.org/Graphics/SVG/1.1/DTD/svg11.dtd">
<!-- Generated by graphviz version 2.43.0 (0)
 -->
<!-- Title: src/libs/vpatterndb/vcontainer.h Pages: 1 -->
<svg width="7169pt" height="240pt"
 viewBox="0.00 0.00 7169.00 240.00" xmlns="http://www.w3.org/2000/svg" xmlns:xlink="http://www.w3.org/1999/xlink">
<g id="graph0" class="graph" transform="scale(1 1) rotate(0) translate(4 236)">
<title>src/libs/vpatterndb/vcontainer.h</title>
<polygon fill="white" stroke="transparent" points="-4,4 -4,-236 7165,-236 7165,4 -4,4"/>
<!-- Node1 -->
<g id="node1" class="node">
<title>Node1</title>
<g id="a_node1"><a xlink:title=" ">
<polygon fill="#bfbfbf" stroke="black" points="6141.5,-201.5 6141.5,-231.5 6248.5,-231.5 6248.5,-201.5 6141.5,-201.5"/>
<text text-anchor="start" x="6149.5" y="-219.5" font-family="Helvetica,sans-Serif" font-size="10.00">src/libs/vpatterndb</text>
<text text-anchor="middle" x="6195" y="-208.5" font-family="Helvetica,sans-Serif" font-size="10.00">/vcontainer.h</text>
</a>
</g>
</g>
<!-- Node2 -->
<g id="node2" class="node">
<title>Node2</title>
<g id="a_node2"><a xlink:href="../../d4/dd6/vmeasurements_8h.html" target="_top" xlink:title=" ">
<polygon fill="white" stroke="black" points="138.5,-140 138.5,-159 323.5,-159 323.5,-140 138.5,-140"/>
<text text-anchor="middle" x="231" y="-147" font-family="Helvetica,sans-Serif" font-size="10.00">src/libs/vformat/vmeasurements.h</text>
</a>
</g>
</g>
<!-- Node1&#45;&gt;Node2 -->
<g id="edge1" class="edge">
<title>Node1&#45;&gt;Node2</title>
<path fill="none" stroke="midnightblue" d="M6130.89,-215.65C5675.09,-216.57 2877.52,-219.73 602,-165 507.11,-162.72 398.64,-158.26 323.6,-154.89"/>
<polygon fill="midnightblue" stroke="midnightblue" points="6131.23,-219.15 6141.22,-215.63 6131.21,-212.15 6131.23,-219.15"/>
</g>
<!-- Node3 -->
<g id="node3" class="node">
<title>Node3</title>
<g id="a_node3"><a xlink:href="../../de/db3/vmeasurements_8cpp.html" target="_top" xlink:title=" ">
<polygon fill="white" stroke="black" points="0,-73 0,-92 196,-92 196,-73 0,-73"/>
<text text-anchor="middle" x="98" y="-80" font-family="Helvetica,sans-Serif" font-size="10.00">src/libs/vformat/vmeasurements.cpp</text>
</a>
</g>
</g>
<!-- Node1&#45;&gt;Node3 -->
<g id="edge3" class="edge">
<title>Node1&#45;&gt;Node3</title>
<path fill="none" stroke="midnightblue" d="M6131.39,-215.33C5560.69,-213.75 1329.03,-200.89 768,-165 537.05,-150.23 263.67,-109.74 150.79,-92.01"/>
<polygon fill="midnightblue" stroke="midnightblue" points="6131.48,-218.83 6141.49,-215.36 6131.5,-211.83 6131.48,-218.83"/>
</g>
<!-- Node4 -->
<g id="node4" class="node">
<title>Node4</title>
<g id="a_node4"><a xlink:href="../../d6/de0/vlayoutpiece_8h.html" target="_top" xlink:title=" ">
<polygon fill="white" stroke="black" points="777,-140 777,-159 943,-159 943,-140 777,-140"/>
<text text-anchor="middle" x="860" y="-147" font-family="Helvetica,sans-Serif" font-size="10.00">src/libs/vlayout/vlayoutpiece.h</text>
</a>
</g>
</g>
<!-- Node1&#45;&gt;Node4 -->
<g id="edge4" class="edge">
<title>Node1&#45;&gt;Node4</title>
<path fill="none" stroke="midnightblue" d="M6131.11,-214.72C5575.81,-207.96 1572.85,-159.19 943.25,-151.51"/>
<polygon fill="midnightblue" stroke="midnightblue" points="6131.29,-218.22 6141.33,-214.85 6131.38,-211.22 6131.29,-218.22"/>
</g>
<!-- Node14 -->
<g id="node13" class="node">
<title>Node14</title>
<g id="a_node13"><a xlink:href="../../d8/d70/vtextmanager_8cpp.html" target="_top" xlink:title=" ">
<polygon fill="white" stroke="black" points="1536,-73 1536,-92 1718,-92 1718,-73 1536,-73"/>
<text text-anchor="middle" x="1627" y="-80" font-family="Helvetica,sans-Serif" font-size="10.00">src/libs/vlayout/vtextmanager.cpp</text>
</a>
</g>
</g>
<!-- Node1&#45;&gt;Node14 -->
<g id="edge15" class="edge">
<title>Node1&#45;&gt;Node14</title>
<path fill="none" stroke="midnightblue" d="M6131.17,-213.89C5885.24,-207.68 4975.39,-184.66 4226,-165 3115.32,-135.87 2834.02,-192.77 1727,-98 1710.92,-96.62 1693.48,-94.36 1677.74,-92.03"/>
<polygon fill="midnightblue" stroke="midnightblue" points="6131.27,-217.39 6141.36,-214.15 6131.45,-210.4 6131.27,-217.39"/>
</g>
<!-- Node15 -->
<g id="node14" class="node">
<title>Node15</title>
<g id="a_node14"><a xlink:href="../../d5/d74/vabstractapplication_8h.html" target="_top" xlink:title=" ">
<polygon fill="white" stroke="red" points="4235.5,-140 4235.5,-159 4430.5,-159 4430.5,-140 4235.5,-140"/>
<text text-anchor="middle" x="4333" y="-147" font-family="Helvetica,sans-Serif" font-size="10.00">src/libs/vmisc/vabstractapplication.h</text>
</a>
</g>
</g>
<!-- Node1&#45;&gt;Node15 -->
<g id="edge16" class="edge">
<title>Node1&#45;&gt;Node15</title>
<path fill="none" stroke="midnightblue" d="M6131.04,-213.27C5855,-203.63 4764.65,-165.57 4430.72,-153.91"/>
<polygon fill="midnightblue" stroke="midnightblue" points="6131.17,-216.77 6141.28,-213.62 6131.41,-209.78 6131.17,-216.77"/>
</g>
<!-- Node33 -->
<g id="node28" class="node">
<title>Node33</title>
<g id="a_node28"><a xlink:href="../../d6/d46/vcontainer_8cpp.html" target="_top" xlink:title=" ">
<polygon fill="white" stroke="black" points="6000.5,-67.5 6000.5,-97.5 6107.5,-97.5 6107.5,-67.5 6000.5,-67.5"/>
<text text-anchor="start" x="6008.5" y="-85.5" font-family="Helvetica,sans-Serif" font-size="10.00">src/libs/vpatterndb</text>
<text text-anchor="middle" x="6054" y="-74.5" font-family="Helvetica,sans-Serif" font-size="10.00">/vcontainer.cpp</text>
</a>
</g>
</g>
<!-- Node1&#45;&gt;Node33 -->
<g id="edge52" class="edge">
<title>Node1&#45;&gt;Node33</title>
<path fill="none" stroke="midnightblue" d="M6172.3,-194.25C6143.24,-167.04 6093.71,-120.68 6068.98,-97.52"/>
<polygon fill="midnightblue" stroke="midnightblue" points="6170.22,-197.09 6179.91,-201.37 6175,-191.98 6170.22,-197.09"/>
</g>
<!-- Node34 -->
<g id="node29" class="node">
<title>Node34</title>
<g id="a_node29"><a xlink:href="../../db/d11/vformula_8cpp.html" target="_top" xlink:title=" ">
<polygon fill="white" stroke="black" points="6125.5,-67.5 6125.5,-97.5 6232.5,-97.5 6232.5,-67.5 6125.5,-67.5"/>
<text text-anchor="start" x="6133.5" y="-85.5" font-family="Helvetica,sans-Serif" font-size="10.00">src/libs/vpatterndb</text>
<text text-anchor="middle" x="6179" y="-74.5" font-family="Helvetica,sans-Serif" font-size="10.00">/vformula.cpp</text>
</a>
</g>
</g>
<!-- Node1&#45;&gt;Node34 -->
<g id="edge53" class="edge">
<title>Node1&#45;&gt;Node34</title>
<path fill="none" stroke="midnightblue" d="M6187.01,-191.37C6184.62,-183.1 6182.3,-173.73 6181,-165 6177.53,-141.62 6177.73,-114.06 6178.3,-97.72"/>
<polygon fill="midnightblue" stroke="midnightblue" points="6183.72,-192.58 6189.99,-201.12 6190.41,-190.53 6183.72,-192.58"/>
</g>
<!-- Node35 -->
<g id="node30" class="node">
<title>Node35</title>
<g id="a_node30"><a xlink:href="../../df/d7a/vpiece_8cpp.html" target="_top" xlink:title=" ">
<polygon fill="white" stroke="black" points="6250.5,-67.5 6250.5,-97.5 6357.5,-97.5 6357.5,-67.5 6250.5,-67.5"/>
<text text-anchor="start" x="6258.5" y="-85.5" font-family="Helvetica,sans-Serif" font-size="10.00">src/libs/vpatterndb</text>
<text text-anchor="middle" x="6304" y="-74.5" font-family="Helvetica,sans-Serif" font-size="10.00">/vpiece.cpp</text>
</a>
</g>
</g>
<!-- Node1&#45;&gt;Node35 -->
<g id="edge55" class="edge">
<title>Node1&#45;&gt;Node35</title>
<path fill="none" stroke="midnightblue" d="M6197.37,-191.41C6200.13,-173.95 6206.11,-150.59 6219,-134 6231.53,-117.87 6250.78,-105.82 6267.79,-97.55"/>
<polygon fill="midnightblue" stroke="midnightblue" points="6193.89,-191.03 6196.03,-201.4 6200.83,-191.96 6193.89,-191.03"/>
</g>
<!-- Node37 -->
<g id="node32" class="node">
<title>Node37</title>
<g id="a_node32"><a xlink:href="../../d8/dba/vpiecenode_8cpp.html" target="_top" xlink:title=" ">
<polygon fill="white" stroke="black" points="5963.5,-0.5 5963.5,-30.5 6070.5,-30.5 6070.5,-0.5 5963.5,-0.5"/>
<text text-anchor="start" x="5971.5" y="-18.5" font-family="Helvetica,sans-Serif" font-size="10.00">src/libs/vpatterndb</text>
<text text-anchor="middle" x="6017" y="-7.5" font-family="Helvetica,sans-Serif" font-size="10.00">/vpiecenode.cpp</text>
</a>
</g>
</g>
<!-- Node1&#45;&gt;Node37 -->
<g id="edge57" class="edge">
<title>Node1&#45;&gt;Node37</title>
<path fill="none" stroke="midnightblue" d="M6205.97,-192.09C6215.66,-173.81 6231.45,-149.04 6252,-134 6295.21,-102.36 6335.29,-141.16 6367,-98 6375.16,-86.9 6376.02,-77.41 6367,-67 6329.32,-23.49 6159.08,-16.63 6070.67,-16.07"/>
<polygon fill="midnightblue" stroke="midnightblue" points="6202.73,-190.73 6201.34,-201.23 6208.98,-193.89 6202.73,-190.73"/>
</g>
<!-- Node53 -->
<g id="node45" class="node">
<title>Node53</title>
<g id="a_node45"><a xlink:href="../../d1/de1/vincrement__p_8h.html" target="_top" xlink:title=" ">
<polygon fill="white" stroke="red" points="6261.5,-134.5 6261.5,-164.5 6404.5,-164.5 6404.5,-134.5 6261.5,-134.5"/>
<text text-anchor="start" x="6269.5" y="-152.5" font-family="Helvetica,sans-Serif" font-size="10.00">src/libs/vpatterndb</text>
<text text-anchor="middle" x="6333" y="-141.5" font-family="Helvetica,sans-Serif" font-size="10.00">/variables/vincrement_p.h</text>
</a>
</g>
</g>
<!-- Node1&#45;&gt;Node53 -->
<g id="edge50" class="edge">
<title>Node1&#45;&gt;Node53</title>
<path fill="none" stroke="midnightblue" d="M6234,-197.13C6255.93,-186.8 6282.87,-174.11 6303.11,-164.58"/>
<polygon fill="midnightblue" stroke="midnightblue" points="6232.5,-193.97 6224.94,-201.4 6235.48,-200.3 6232.5,-193.97"/>
</g>
<!-- Node55 -->
<g id="node46" class="node">
<title>Node55</title>
<g id="a_node46"><a xlink:href="../../d6/dc1/vmeasurement__p_8h.html" target="_top" xlink:title=" ">
<polygon fill="white" stroke="red" points="6423,-134.5 6423,-164.5 6585,-164.5 6585,-134.5 6423,-134.5"/>
<text text-anchor="start" x="6431" y="-152.5" font-family="Helvetica,sans-Serif" font-size="10.00">src/libs/vpatterndb</text>
<text text-anchor="middle" x="6504" y="-141.5" font-family="Helvetica,sans-Serif" font-size="10.00">/variables/vmeasurement_p.h</text>
</a>
</g>
</g>
<!-- Node1&#45;&gt;Node55 -->
<g id="edge51" class="edge">
<title>Node1&#45;&gt;Node55</title>
<path fill="none" stroke="midnightblue" d="M6258.63,-202.12C6310.79,-191.14 6384.38,-175.66 6437.34,-164.52"/>
<polygon fill="midnightblue" stroke="midnightblue" points="6257.89,-198.69 6248.82,-204.18 6259.33,-205.54 6257.89,-198.69"/>
</g>
<!-- Node57 -->
<g id="node47" class="node">
<title>Node57</title>
<g id="a_node47"><a xlink:href="../../d6/d91/vnodedetail_8cpp.html" target="_top" xlink:title=" ">
<polygon fill="white" stroke="black" points="6603.5,-134.5 6603.5,-164.5 6710.5,-164.5 6710.5,-134.5 6603.5,-134.5"/>
<text text-anchor="start" x="6611.5" y="-152.5" font-family="Helvetica,sans-Serif" font-size="10.00">src/libs/vpatterndb</text>
<text text-anchor="middle" x="6657" y="-141.5" font-family="Helvetica,sans-Serif" font-size="10.00">/vnodedetail.cpp</text>
</a>
</g>
</g>
<!-- Node1&#45;&gt;Node57 -->
<g id="edge54" class="edge">
<title>Node1&#45;&gt;Node57</title>
<path fill="none" stroke="midnightblue" d="M6258.78,-209.42C6337.8,-201.43 6476.4,-185.92 6594,-165 6597.09,-164.45 6600.26,-163.85 6603.46,-163.21"/>
<polygon fill="midnightblue" stroke="midnightblue" points="6258.1,-205.97 6248.5,-210.45 6258.8,-212.94 6258.1,-205.97"/>
</g>
<!-- Node58 -->
<g id="node48" class="node">
<title>Node58</title>
<g id="a_node48"><a xlink:href="../../da/de1/vpiecepath_8cpp.html" target="_top" xlink:title=" ">
<polygon fill="white" stroke="black" points="6728.5,-134.5 6728.5,-164.5 6835.5,-164.5 6835.5,-134.5 6728.5,-134.5"/>
<text text-anchor="start" x="6736.5" y="-152.5" font-family="Helvetica,sans-Serif" font-size="10.00">src/libs/vpatterndb</text>
<text text-anchor="middle" x="6782" y="-141.5" font-family="Helvetica,sans-Serif" font-size="10.00">/vpiecepath.cpp</text>
</a>
</g>
</g>
<!-- Node1&#45;&gt;Node58 -->
<g id="edge56" class="edge">
<title>Node1&#45;&gt;Node58</title>
<path fill="none" stroke="midnightblue" d="M6258.74,-212.13C6357.89,-206.26 6554.85,-192.13 6720,-165 6722.73,-164.55 6725.51,-164.05 6728.32,-163.52"/>
<polygon fill="midnightblue" stroke="midnightblue" points="6258.37,-208.64 6248.59,-212.72 6258.78,-215.63 6258.37,-208.64"/>
</g>
<!-- Node59 -->
<g id="node49" class="node">
<title>Node59</title>
<g id="a_node49"><a xlink:href="../../d1/d3a/abstracttest_8cpp.html" target="_top" xlink:title=" ">
<polygon fill="white" stroke="black" points="6853.5,-140 6853.5,-159 7014.5,-159 7014.5,-140 6853.5,-140"/>
<text text-anchor="middle" x="6934" y="-147" font-family="Helvetica,sans-Serif" font-size="10.00">src/libs/vtest/abstracttest.cpp</text>
</a>
</g>
</g>
<!-- Node1&#45;&gt;Node59 -->
<g id="edge58" class="edge">
<title>Node1&#45;&gt;Node59</title>
<path fill="none" stroke="midnightblue" d="M6258.84,-212.32C6375.51,-206.12 6630.92,-190.71 6845,-165 6858.37,-163.39 6872.8,-161.23 6886.07,-159.07"/>
<polygon fill="midnightblue" stroke="midnightblue" points="6258.46,-208.84 6248.65,-212.86 6258.83,-215.83 6258.46,-208.84"/>
</g>
<!-- Node60 -->
<g id="node50" class="node">
<title>Node60</title>
<g id="a_node50"><a xlink:href="../../da/db4/piece__tablewidgetitem_8cpp.html" target="_top" xlink:title=" ">
<polygon fill="white" stroke="black" points="7033,-134.5 7033,-164.5 7161,-164.5 7161,-134.5 7033,-134.5"/>
<text text-anchor="start" x="7041" y="-152.5" font-family="Helvetica,sans-Serif" font-size="10.00">src/libs/vwidgets/piece</text>
<text text-anchor="middle" x="7097" y="-141.5" font-family="Helvetica,sans-Serif" font-size="10.00">_tablewidgetitem.cpp</text>
</a>
</g>
</g>
<!-- Node1&#45;&gt;Node60 -->
<g id="edge59" class="edge">
<title>Node1&#45;&gt;Node60</title>
<path fill="none" stroke="midnightblue" d="M6258.65,-214.55C6397.96,-211.84 6740.09,-201.67 7024,-165 7026.95,-164.62 7029.95,-164.19 7032.99,-163.72"/>
<polygon fill="midnightblue" stroke="midnightblue" points="6258.51,-211.05 6248.58,-214.74 6258.64,-218.05 6258.51,-211.05"/>
</g>
<!-- Node2&#45;&gt;Node3 -->
<g id="edge2" class="edge">
<title>Node2&#45;&gt;Node3</title>
<path fill="none" stroke="midnightblue" d="M204.28,-135.44C177.94,-122.57 138.43,-103.26 115.73,-92.17"/>
<polygon fill="midnightblue" stroke="midnightblue" points="202.82,-138.62 213.34,-139.87 205.89,-132.33 202.82,-138.62"/>
</g>
<!-- Node5 -->
<g id="node5" class="node">
<title>Node5</title>
<g id="a_node5"><a xlink:href="../../dd/d66/vdxfengine_8cpp.html" target="_top" xlink:title=" ">
<polygon fill="white" stroke="black" points="1168,-73 1168,-92 1322,-92 1322,-73 1168,-73"/>
<text text-anchor="middle" x="1245" y="-80" font-family="Helvetica,sans-Serif" font-size="10.00">src/libs/vdxf/vdxfengine.cpp</text>
</a>
</g>
</g>
<!-- Node4&#45;&gt;Node5 -->
<g id="edge5" class="edge">
<title>Node4&#45;&gt;Node5</title>
<path fill="none" stroke="midnightblue" d="M921.04,-138.19C996.65,-125.43 1124.07,-103.92 1194.47,-92.03"/>
<polygon fill="midnightblue" stroke="midnightblue" points="920.01,-134.82 910.73,-139.94 921.17,-141.72 920.01,-134.82"/>
</g>
<!-- Node6 -->
<g id="node6" class="node">
<title>Node6</title>
<g id="a_node6"><a xlink:href="../../de/da8/vbank_8cpp.html" target="_top" xlink:title=" ">
<polygon fill="white" stroke="black" points="214,-73 214,-92 358,-92 358,-73 214,-73"/>
<text text-anchor="middle" x="286" y="-80" font-family="Helvetica,sans-Serif" font-size="10.00">src/libs/vlayout/vbank.cpp</text>
</a>
</g>
</g>
<!-- Node4&#45;&gt;Node6 -->
<g id="edge6" class="edge">
<title>Node4&#45;&gt;Node6</title>
<path fill="none" stroke="midnightblue" d="M766.9,-141.06C667.58,-132.63 505.8,-117.5 367,-98 354.98,-96.31 342.01,-94.14 330.04,-92"/>
<polygon fill="midnightblue" stroke="midnightblue" points="766.64,-144.55 776.9,-141.9 767.23,-137.58 766.64,-144.55"/>
</g>
<!-- Node7 -->
<g id="node7" class="node">
<title>Node7</title>
<g id="a_node7"><a xlink:href="../../df/d5d/vcontour_8cpp.html" target="_top" xlink:title=" ">
<polygon fill="white" stroke="black" points="376,-73 376,-92 532,-92 532,-73 376,-73"/>
<text text-anchor="middle" x="454" y="-80" font-family="Helvetica,sans-Serif" font-size="10.00">src/libs/vlayout/vcontour.cpp</text>
</a>
</g>
</g>
<!-- Node4&#45;&gt;Node7 -->
<g id="edge7" class="edge">
<title>Node4&#45;&gt;Node7</title>
<path fill="none" stroke="midnightblue" d="M796.6,-138.35C716.99,-125.6 581.83,-103.96 507.29,-92.03"/>
<polygon fill="midnightblue" stroke="midnightblue" points="796.08,-141.81 806.51,-139.94 797.18,-134.9 796.08,-141.81"/>
</g>
<!-- Node8 -->
<g id="node8" class="node">
<title>Node8</title>
<g id="a_node8"><a xlink:href="../../d2/d2d/vlayoutpaper__p_8h.html" target="_top" xlink:title=" ">
<polygon fill="white" stroke="black" points="588.5,-73 588.5,-92 767.5,-92 767.5,-73 588.5,-73"/>
<text text-anchor="middle" x="678" y="-80" font-family="Helvetica,sans-Serif" font-size="10.00">src/libs/vlayout/vlayoutpaper_p.h</text>
</a>
</g>
</g>
<!-- Node4&#45;&gt;Node8 -->
<g id="edge8" class="edge">
<title>Node4&#45;&gt;Node8</title>
<path fill="none" stroke="midnightblue" d="M826.22,-136.44C790.12,-123.54 733.79,-103.42 701.98,-92.06"/>
<polygon fill="midnightblue" stroke="midnightblue" points="825.24,-139.8 835.83,-139.87 827.59,-133.21 825.24,-139.8"/>
</g>
<!-- Node9 -->
<g id="node9" class="node">
<title>Node9</title>
<g id="a_node9"><a xlink:href="../../d1/dd1/vlayoutpaper_8cpp.html" target="_top" xlink:title=" ">
<polygon fill="white" stroke="black" points="589,-6 589,-25 767,-25 767,-6 589,-6"/>
<text text-anchor="middle" x="678" y="-13" font-family="Helvetica,sans-Serif" font-size="10.00">src/libs/vlayout/vlayoutpaper.cpp</text>
</a>
</g>
</g>
<!-- Node4&#45;&gt;Node9 -->
<g id="edge11" class="edge">
<title>Node4&#45;&gt;Node9</title>
<path fill="none" stroke="midnightblue" d="M766.86,-144.31C694.57,-138.87 602.76,-126.42 579,-98 552.94,-66.83 614.35,-38.68 651.76,-25.09"/>
<polygon fill="midnightblue" stroke="midnightblue" points="766.7,-147.8 776.93,-145.03 767.2,-140.82 766.7,-147.8"/>
</g>
<!-- Node10 -->
<g id="node10" class="node">
<title>Node10</title>
<g id="a_node10"><a xlink:href="../../d3/d39/vlayoutgenerator_8cpp.html" target="_top" xlink:title=" ">
<polygon fill="white" stroke="black" points="952.5,-73 952.5,-92 1149.5,-92 1149.5,-73 952.5,-73"/>
<text text-anchor="middle" x="1051" y="-80" font-family="Helvetica,sans-Serif" font-size="10.00">src/libs/vlayout/vlayoutgenerator.cpp</text>
</a>
</g>
</g>
<!-- Node4&#45;&gt;Node10 -->
<g id="edge10" class="edge">
<title>Node4&#45;&gt;Node10</title>
<path fill="none" stroke="midnightblue" d="M894.96,-136.6C932.83,-123.71 992.31,-103.47 1025.84,-92.06"/>
<polygon fill="midnightblue" stroke="midnightblue" points="893.7,-133.33 885.36,-139.87 895.96,-139.96 893.7,-133.33"/>
</g>
<!-- Node11 -->
<g id="node11" class="node">
<title>Node11</title>
<g id="a_node11"><a xlink:href="../../dd/d70/vlayoutpiece_8cpp.html" target="_top" xlink:title=" ">
<polygon fill="white" stroke="black" points="1340.5,-73 1340.5,-92 1517.5,-92 1517.5,-73 1340.5,-73"/>
<text text-anchor="middle" x="1429" y="-80" font-family="Helvetica,sans-Serif" font-size="10.00">src/libs/vlayout/vlayoutpiece.cpp</text>
</a>
</g>
</g>
<!-- Node4&#45;&gt;Node11 -->
<g id="edge12" class="edge">
<title>Node4&#45;&gt;Node11</title>
<path fill="none" stroke="midnightblue" d="M953.24,-139.62C1048.35,-130.29 1200.14,-114.69 1331,-98 1344.99,-96.22 1360.07,-94.09 1374.11,-92.02"/>
<polygon fill="midnightblue" stroke="midnightblue" points="952.68,-136.15 943.07,-140.61 953.37,-143.12 952.68,-136.15"/>
</g>
<!-- Node12 -->
<g id="node12" class="node">
<title>Node12</title>
<g id="a_node12"><a xlink:href="../../db/d5c/vposition_8h.html" target="_top" xlink:title=" ">
<polygon fill="white" stroke="red" points="786,-73 786,-92 934,-92 934,-73 786,-73"/>
<text text-anchor="middle" x="860" y="-80" font-family="Helvetica,sans-Serif" font-size="10.00">src/libs/vlayout/vposition.h</text>
</a>
</g>
</g>
<!-- Node4&#45;&gt;Node12 -->
<g id="edge13" class="edge">
<title>Node4&#45;&gt;Node12</title>
<path fill="none" stroke="midnightblue" d="M860,-129.54C860,-117.17 860,-101.62 860,-92.13"/>
<polygon fill="midnightblue" stroke="midnightblue" points="856.5,-129.73 860,-139.73 863.5,-129.73 856.5,-129.73"/>
</g>
<!-- Node8&#45;&gt;Node9 -->
<g id="edge9" class="edge">
<title>Node8&#45;&gt;Node9</title>
<path fill="none" stroke="midnightblue" d="M678,-62.54C678,-50.17 678,-34.62 678,-25.13"/>
<polygon fill="midnightblue" stroke="midnightblue" points="674.5,-62.73 678,-72.73 681.5,-62.73 674.5,-62.73"/>
</g>
<!-- Node12&#45;&gt;Node9 -->
<g id="edge14" class="edge">
<title>Node12&#45;&gt;Node9</title>
<path fill="none" stroke="midnightblue" d="M826.22,-69.44C790.12,-56.54 733.79,-36.42 701.98,-25.06"/>
<polygon fill="midnightblue" stroke="midnightblue" points="825.24,-72.8 835.83,-72.87 827.59,-66.21 825.24,-72.8"/>
</g>
<!-- Node15&#45;&gt;Node11 -->
<g id="edge27" class="edge">
<title>Node15&#45;&gt;Node11</title>
<path fill="none" stroke="midnightblue" d="M4225.4,-148.42C3778.32,-147.8 2065.68,-142.51 1527,-98 1510.97,-96.68 1493.58,-94.38 1477.96,-92.01"/>
<polygon fill="midnightblue" stroke="midnightblue" points="4225.4,-151.92 4235.41,-148.43 4225.41,-144.92 4225.4,-151.92"/>
</g>
<!-- Node15&#45;&gt;Node14 -->
<g id="edge28" class="edge">
<title>Node15&#45;&gt;Node14</title>
<path fill="none" stroke="midnightblue" d="M4225.18,-147.21C3765.08,-141.57 1978.14,-118.56 1727,-98 1710.74,-96.67 1693.1,-94.39 1677.22,-92.03"/>
<polygon fill="midnightblue" stroke="midnightblue" points="4225.43,-150.71 4235.47,-147.33 4225.51,-143.71 4225.43,-150.71"/>
</g>
<!-- Node16 -->
<g id="node15" class="node">
<title>Node16</title>
<g id="a_node15"><a xlink:href="../../d4/d90/fvupdater_8cpp.html" target="_top" xlink:title=" ">
<polygon fill="white" stroke="black" points="3768.5,-73 3768.5,-92 3921.5,-92 3921.5,-73 3768.5,-73"/>
<text text-anchor="middle" x="3845" y="-80" font-family="Helvetica,sans-Serif" font-size="10.00">src/libs/fervor/fvupdater.cpp</text>
</a>
</g>
</g>
<!-- Node15&#45;&gt;Node16 -->
<g id="edge17" class="edge">
<title>Node15&#45;&gt;Node16</title>
<path fill="none" stroke="midnightblue" d="M4246.49,-138.78C4164.78,-129.34 4038.87,-114.1 3930,-98 3917.86,-96.2 3904.77,-94.07 3892.59,-92"/>
<polygon fill="midnightblue" stroke="midnightblue" points="4246.39,-142.29 4256.73,-139.96 4247.2,-135.34 4246.39,-142.29"/>
</g>
<!-- Node17 -->
<g id="node16" class="node">
<title>Node17</title>
<g id="a_node16"><a xlink:href="../../d9/dc8/dxiface_8cpp.html" target="_top" xlink:title=" ">
<polygon fill="white" stroke="black" points="3939.5,-73 3939.5,-92 4074.5,-92 4074.5,-73 3939.5,-73"/>
<text text-anchor="middle" x="4007" y="-80" font-family="Helvetica,sans-Serif" font-size="10.00">src/libs/vdxf/dxiface.cpp</text>
</a>
</g>
</g>
<!-- Node15&#45;&gt;Node17 -->
<g id="edge18" class="edge">
<title>Node15&#45;&gt;Node17</title>
<path fill="none" stroke="midnightblue" d="M4280.13,-137.96C4215.97,-125.16 4109.03,-103.84 4049.79,-92.03"/>
<polygon fill="midnightblue" stroke="midnightblue" points="4279.55,-141.41 4290.05,-139.94 4280.92,-134.55 4279.55,-141.41"/>
</g>
<!-- Node18 -->
<g id="node17" class="node">
<title>Node18</title>
<g id="a_node17"><a xlink:href="../../da/d75/vabstractarc__p_8h.html" target="_top" xlink:title=" ">
<polygon fill="white" stroke="red" points="4092.5,-67.5 4092.5,-97.5 4199.5,-97.5 4199.5,-67.5 4092.5,-67.5"/>
<text text-anchor="start" x="4100.5" y="-85.5" font-family="Helvetica,sans-Serif" font-size="10.00">src/libs/vgeometry</text>
<text text-anchor="middle" x="4146" y="-74.5" font-family="Helvetica,sans-Serif" font-size="10.00">/vabstractarc_p.h</text>
</a>
</g>
</g>
<!-- Node15&#45;&gt;Node18 -->
<g id="edge19" class="edge">
<title>Node15&#45;&gt;Node18</title>
<path fill="none" stroke="midnightblue" d="M4298.45,-136.49C4266.75,-125.47 4219.77,-109.14 4186.36,-97.53"/>
<polygon fill="midnightblue" stroke="midnightblue" points="4297.57,-139.89 4308.17,-139.87 4299.87,-133.28 4297.57,-139.89"/>
</g>
<!-- Node20 -->
<g id="node18" class="node">
<title>Node20</title>
<g id="a_node18"><a xlink:href="../../dc/da3/varc__p_8h.html" target="_top" xlink:title=" ">
<polygon fill="white" stroke="red" points="4217.5,-67.5 4217.5,-97.5 4324.5,-97.5 4324.5,-67.5 4217.5,-67.5"/>
<text text-anchor="start" x="4225.5" y="-85.5" font-family="Helvetica,sans-Serif" font-size="10.00">src/libs/vgeometry</text>
<text text-anchor="middle" x="4271" y="-74.5" font-family="Helvetica,sans-Serif" font-size="10.00">/varc_p.h</text>
</a>
</g>
</g>
<!-- Node15&#45;&gt;Node20 -->
<g id="edge20" class="edge">
<title>Node15&#45;&gt;Node20</title>
<path fill="none" stroke="midnightblue" d="M4317.55,-132.3C4307.37,-121.63 4294.18,-107.8 4284.44,-97.59"/>
<polygon fill="midnightblue" stroke="midnightblue" points="4315.2,-134.91 4324.64,-139.73 4320.27,-130.08 4315.2,-134.91"/>
</g>
<!-- Node22 -->
<g id="node19" class="node">
<title>Node22</title>
<g id="a_node19"><a xlink:href="../../d5/d8e/vcubicbezier__p_8h.html" target="_top" xlink:title=" ">
<polygon fill="white" stroke="red" points="4342.5,-67.5 4342.5,-97.5 4449.5,-97.5 4449.5,-67.5 4342.5,-67.5"/>
<text text-anchor="start" x="4350.5" y="-85.5" font-family="Helvetica,sans-Serif" font-size="10.00">src/libs/vgeometry</text>
<text text-anchor="middle" x="4396" y="-74.5" font-family="Helvetica,sans-Serif" font-size="10.00">/vcubicbezier_p.h</text>
</a>
</g>
</g>
<!-- Node15&#45;&gt;Node22 -->
<g id="edge21" class="edge">
<title>Node15&#45;&gt;Node22</title>
<path fill="none" stroke="midnightblue" d="M4348.7,-132.3C4359.04,-121.63 4372.45,-107.8 4382.34,-97.59"/>
<polygon fill="midnightblue" stroke="midnightblue" points="4345.94,-130.12 4341.5,-139.73 4350.97,-134.99 4345.94,-130.12"/>
</g>
<!-- Node24 -->
<g id="node20" class="node">
<title>Node24</title>
<g id="a_node20"><a xlink:href="../../df/dde/vellipticalarc__p_8h.html" target="_top" xlink:title=" ">
<polygon fill="white" stroke="black" points="4506.5,-67.5 4506.5,-97.5 4613.5,-97.5 4613.5,-67.5 4506.5,-67.5"/>
<text text-anchor="start" x="4514.5" y="-85.5" font-family="Helvetica,sans-Serif" font-size="10.00">src/libs/vgeometry</text>
<text text-anchor="middle" x="4560" y="-74.5" font-family="Helvetica,sans-Serif" font-size="10.00">/vellipticalarc_p.h</text>
</a>
</g>
</g>
<!-- Node15&#45;&gt;Node24 -->
<g id="edge22" class="edge">
<title>Node15&#45;&gt;Node24</title>
<path fill="none" stroke="midnightblue" d="M4372.96,-137.06C4411.45,-126.04 4469.74,-109.34 4511.01,-97.53"/>
<polygon fill="midnightblue" stroke="midnightblue" points="4371.79,-133.75 4363.14,-139.87 4373.72,-140.48 4371.79,-133.75"/>
</g>
<!-- Node25 -->
<g id="node21" class="node">
<title>Node25</title>
<g id="a_node21"><a xlink:href="../../d6/dfb/vellipticalarc_8cpp.html" target="_top" xlink:title=" ">
<polygon fill="white" stroke="black" points="4465.5,-0.5 4465.5,-30.5 4572.5,-30.5 4572.5,-0.5 4465.5,-0.5"/>
<text text-anchor="start" x="4473.5" y="-18.5" font-family="Helvetica,sans-Serif" font-size="10.00">src/libs/vgeometry</text>
<text text-anchor="middle" x="4519" y="-7.5" font-family="Helvetica,sans-Serif" font-size="10.00">/vellipticalarc.cpp</text>
</a>
</g>
</g>
<!-- Node15&#45;&gt;Node25 -->
<g id="edge24" class="edge">
<title>Node15&#45;&gt;Node25</title>
<path fill="none" stroke="midnightblue" d="M4377.69,-136.96C4403.01,-128.9 4434.26,-116.28 4458,-98 4482.23,-79.35 4501.57,-48.69 4511.56,-30.76"/>
<polygon fill="midnightblue" stroke="midnightblue" points="4376.5,-133.66 4367.96,-139.93 4378.54,-140.36 4376.5,-133.66"/>
</g>
<!-- Node26 -->
<g id="node22" class="node">
<title>Node26</title>
<g id="a_node22"><a xlink:href="../../d1/d76/vspline__p_8h.html" target="_top" xlink:title=" ">
<polygon fill="white" stroke="red" points="4631.5,-67.5 4631.5,-97.5 4738.5,-97.5 4738.5,-67.5 4631.5,-67.5"/>
<text text-anchor="start" x="4639.5" y="-85.5" font-family="Helvetica,sans-Serif" font-size="10.00">src/libs/vgeometry</text>
<text text-anchor="middle" x="4685" y="-74.5" font-family="Helvetica,sans-Serif" font-size="10.00">/vspline_p.h</text>
</a>
</g>
</g>
<!-- Node15&#45;&gt;Node26 -->
<g id="edge25" class="edge">
<title>Node15&#45;&gt;Node26</title>
<path fill="none" stroke="midnightblue" d="M4396.92,-138.33C4455.6,-128.76 4544.88,-113.6 4622,-98 4625.08,-97.38 4628.24,-96.72 4631.43,-96.03"/>
<polygon fill="midnightblue" stroke="midnightblue" points="4396,-134.94 4386.69,-140 4397.12,-141.85 4396,-134.94"/>
</g>
<!-- Node28 -->
<g id="node23" class="node">
<title>Node28</title>
<g id="a_node23"><a xlink:href="../../d9/d15/vabstractpiece_8cpp.html" target="_top" xlink:title=" ">
<polygon fill="white" stroke="black" points="4757,-73 4757,-92 4943,-92 4943,-73 4757,-73"/>
<text text-anchor="middle" x="4850" y="-80" font-family="Helvetica,sans-Serif" font-size="10.00">src/libs/vlayout/vabstractpiece.cpp</text>
</a>
</g>
</g>
<!-- Node15&#45;&gt;Node28 -->
<g id="edge26" class="edge">
<title>Node15&#45;&gt;Node28</title>
<path fill="none" stroke="midnightblue" d="M4416.29,-138.8C4499.94,-128.95 4632.48,-113.04 4747,-98 4761.23,-96.13 4776.56,-94.02 4790.93,-92.01"/>
<polygon fill="midnightblue" stroke="midnightblue" points="4415.86,-135.32 4406.34,-139.97 4416.68,-142.28 4415.86,-135.32"/>
</g>
<!-- Node29 -->
<g id="node24" class="node">
<title>Node29</title>
<g id="a_node24"><a xlink:href="../../d6/d0b/def_8cpp.html" target="_top" xlink:title=" ">
<polygon fill="white" stroke="black" points="4961,-73 4961,-92 5083,-92 5083,-73 4961,-73"/>
<text text-anchor="middle" x="5022" y="-80" font-family="Helvetica,sans-Serif" font-size="10.00">src/libs/vmisc/def.cpp</text>
</a>
</g>
</g>
<!-- Node15&#45;&gt;Node29 -->
<g id="edge29" class="edge">
<title>Node15&#45;&gt;Node29</title>
<path fill="none" stroke="midnightblue" d="M4440.95,-143.72C4564.83,-137.3 4773.84,-123.62 4952,-98 4962.81,-96.45 4974.46,-94.25 4985.09,-92.03"/>
<polygon fill="midnightblue" stroke="midnightblue" points="4440.52,-140.24 4430.71,-144.24 4440.87,-147.23 4440.52,-140.24"/>
</g>
<!-- Node30 -->
<g id="node25" class="node">
<title>Node30</title>
<g id="a_node25"><a xlink:href="../../d0/df6/vabstractapplication_8cpp.html" target="_top" xlink:title=" ">
<polygon fill="white" stroke="black" points="5101,-73 5101,-92 5307,-92 5307,-73 5101,-73"/>
<text text-anchor="middle" x="5204" y="-80" font-family="Helvetica,sans-Serif" font-size="10.00">src/libs/vmisc/vabstractapplication.cpp</text>
</a>
</g>
</g>
<!-- Node15&#45;&gt;Node30 -->
<g id="edge30" class="edge">
<title>Node15&#45;&gt;Node30</title>
<path fill="none" stroke="midnightblue" d="M4440.9,-143.44C4588.22,-136.05 4860.48,-120.67 5092,-98 5108.78,-96.36 5126.93,-94.18 5143.63,-92.02"/>
<polygon fill="midnightblue" stroke="midnightblue" points="4440.32,-139.97 4430.51,-143.96 4440.67,-146.96 4440.32,-139.97"/>
</g>
<!-- Node31 -->
<g id="node26" class="node">
<title>Node31</title>
<g id="a_node26"><a xlink:href="../../db/d65/dialogexporttocsv_8cpp.html" target="_top" xlink:title=" ">
<polygon fill="white" stroke="black" points="5325.5,-67.5 5325.5,-97.5 5452.5,-97.5 5452.5,-67.5 5325.5,-67.5"/>
<text text-anchor="start" x="5333.5" y="-85.5" font-family="Helvetica,sans-Serif" font-size="10.00">src/libs/vmisc/dialogs</text>
<text text-anchor="middle" x="5389" y="-74.5" font-family="Helvetica,sans-Serif" font-size="10.00">/dialogexporttocsv.cpp</text>
</a>
</g>
</g>
<!-- Node15&#45;&gt;Node31 -->
<g id="edge31" class="edge">
<title>Node15&#45;&gt;Node31</title>
<path fill="none" stroke="midnightblue" d="M4440.8,-148.05C4622.17,-146.16 4999.57,-137.34 5316,-98 5319.08,-97.62 5322.22,-97.18 5325.39,-96.7"/>
<polygon fill="midnightblue" stroke="midnightblue" points="4440.69,-144.55 4430.73,-148.15 4440.76,-151.55 4440.69,-144.55"/>
</g>
<!-- Node32 -->
<g id="node27" class="node">
<title>Node32</title>
<g id="a_node27"><a xlink:href="../../d4/d4f/pmsystems_8cpp.html" target="_top" xlink:title=" ">
<polygon fill="white" stroke="black" points="5470.5,-67.5 5470.5,-97.5 5577.5,-97.5 5577.5,-67.5 5470.5,-67.5"/>
<text text-anchor="start" x="5478.5" y="-85.5" font-family="Helvetica,sans-Serif" font-size="10.00">src/libs/vpatterndb</text>
<text text-anchor="middle" x="5524" y="-74.5" font-family="Helvetica,sans-Serif" font-size="10.00">/pmsystems.cpp</text>
</a>
</g>
</g>
<!-- Node15&#45;&gt;Node32 -->
<g id="edge32" class="edge">
<title>Node15&#45;&gt;Node32</title>
<path fill="none" stroke="midnightblue" d="M4441.18,-146.16C4683.96,-140.5 5266.17,-124.56 5461,-98 5464,-97.59 5467.07,-97.11 5470.16,-96.57"/>
<polygon fill="midnightblue" stroke="midnightblue" points="4440.84,-142.67 4430.93,-146.4 4441.01,-149.67 4440.84,-142.67"/>
</g>
<!-- Node15&#45;&gt;Node33 -->
<g id="edge33" class="edge">
<title>Node15&#45;&gt;Node33</title>
<path fill="none" stroke="midnightblue" d="M4440.65,-147.97C4758.54,-145.98 5689.65,-136.89 5991,-98 5994.01,-97.61 5997.08,-97.14 6000.17,-96.62"/>
<polygon fill="midnightblue" stroke="midnightblue" points="4440.5,-144.47 4430.52,-148.03 4440.54,-151.47 4440.5,-144.47"/>
</g>
<!-- Node15&#45;&gt;Node34 -->
<g id="edge34" class="edge">
<title>Node15&#45;&gt;Node34</title>
<path fill="none" stroke="midnightblue" d="M4440.87,-148.24C4774.91,-147 5789.37,-139.8 6116,-98 6119.01,-97.62 6122.08,-97.15 6125.17,-96.63"/>
<polygon fill="midnightblue" stroke="midnightblue" points="4440.69,-144.74 4430.71,-148.28 4440.72,-151.74 4440.69,-144.74"/>
</g>
<!-- Node15&#45;&gt;Node35 -->
<g id="edge35" class="edge">
<title>Node15&#45;&gt;Node35</title>
<path fill="none" stroke="midnightblue" d="M4440.84,-148.48C4790.24,-147.96 5888.94,-142.72 6241,-98 6244.01,-97.62 6247.08,-97.16 6250.17,-96.63"/>
<polygon fill="midnightblue" stroke="midnightblue" points="4440.71,-144.98 4430.72,-148.49 4440.72,-151.98 4440.71,-144.98"/>
</g>
<!-- Node36 -->
<g id="node31" class="node">
<title>Node36</title>
<g id="a_node31"><a xlink:href="../../df/dba/vpiecenode__p_8h.html" target="_top" xlink:title=" ">
<polygon fill="white" stroke="black" points="5595.5,-67.5 5595.5,-97.5 5702.5,-97.5 5702.5,-67.5 5595.5,-67.5"/>
<text text-anchor="start" x="5603.5" y="-85.5" font-family="Helvetica,sans-Serif" font-size="10.00">src/libs/vpatterndb</text>
<text text-anchor="middle" x="5649" y="-74.5" font-family="Helvetica,sans-Serif" font-size="10.00">/vpiecenode_p.h</text>
</a>
</g>
</g>
<!-- Node15&#45;&gt;Node36 -->
<g id="edge36" class="edge">
<title>Node15&#45;&gt;Node36</title>
<path fill="none" stroke="midnightblue" d="M4441.18,-146.72C4703.17,-142 5366.28,-127.45 5586,-98 5589,-97.6 5592.07,-97.12 5595.16,-96.58"/>
<polygon fill="midnightblue" stroke="midnightblue" points="4440.83,-143.23 4430.9,-146.91 4440.96,-150.23 4440.83,-143.23"/>
</g>
<!-- Node38 -->
<g id="node33" class="node">
<title>Node38</title>
<g id="a_node33"><a xlink:href="../../de/d3e/vtranslatevars_8cpp.html" target="_top" xlink:title=" ">
<polygon fill="white" stroke="black" points="5721,-67.5 5721,-97.5 5831,-97.5 5831,-67.5 5721,-67.5"/>
<text text-anchor="start" x="5729" y="-85.5" font-family="Helvetica,sans-Serif" font-size="10.00">src/libs/vpatterndb</text>
<text text-anchor="middle" x="5776" y="-74.5" font-family="Helvetica,sans-Serif" font-size="10.00">/vtranslatevars.cpp</text>
</a>
</g>
</g>
<!-- Node15&#45;&gt;Node38 -->
<g id="edge38" class="edge">
<title>Node15&#45;&gt;Node38</title>
<path fill="none" stroke="midnightblue" d="M4440.85,-147.1C4720.84,-143.04 5466.05,-129.54 5711,-98 5714.21,-97.59 5717.5,-97.09 5720.8,-96.53"/>
<polygon fill="midnightblue" stroke="midnightblue" points="4440.63,-143.6 4430.69,-147.24 4440.73,-150.6 4440.63,-143.6"/>
</g>
<!-- Node39 -->
<g id="node34" class="node">
<title>Node39</title>
<g id="a_node34"><a xlink:href="../../df/d40/export__format__combobox_8cpp.html" target="_top" xlink:title=" ">
<polygon fill="white" stroke="black" points="5849.5,-67.5 5849.5,-97.5 5982.5,-97.5 5982.5,-67.5 5849.5,-67.5"/>
<text text-anchor="start" x="5857.5" y="-85.5" font-family="Helvetica,sans-Serif" font-size="10.00">src/libs/vwidgets/export</text>
<text text-anchor="middle" x="5916" y="-74.5" font-family="Helvetica,sans-Serif" font-size="10.00">_format_combobox.cpp</text>
</a>
</g>
</g>
<!-- Node15&#45;&gt;Node39 -->
<g id="edge39" class="edge">
<title>Node15&#45;&gt;Node39</title>
<path fill="none" stroke="midnightblue" d="M4441,-147.06C4739,-142.73 5568.66,-128.25 5840,-98 5843.07,-97.66 5846.2,-97.26 5849.36,-96.82"/>
<polygon fill="midnightblue" stroke="midnightblue" points="4440.57,-143.56 4430.62,-147.21 4440.67,-150.56 4440.57,-143.56"/>
</g>
<!-- Node40 -->
<g id="node35" class="node">
<title>Node40</title>
<g id="a_node35"><a xlink:href="../../d3/d4f/mouse__coordinates_8cpp.html" target="_top" xlink:title=" ">
<polygon fill="white" stroke="black" points="1736,-67.5 1736,-97.5 1870,-97.5 1870,-67.5 1736,-67.5"/>
<text text-anchor="start" x="1744" y="-85.5" font-family="Helvetica,sans-Serif" font-size="10.00">src/libs/vwidgets/mouse</text>
<text text-anchor="middle" x="1803" y="-74.5" font-family="Helvetica,sans-Serif" font-size="10.00">_coordinates.cpp</text>
</a>
</g>
</g>
<!-- Node15&#45;&gt;Node40 -->
<g id="edge40" class="edge">
<title>Node15&#45;&gt;Node40</title>
<path fill="none" stroke="midnightblue" d="M4225.25,-147.35C3782.28,-142.48 2113.89,-122.65 1879,-98 1876.06,-97.69 1873.07,-97.33 1870.05,-96.92"/>
<polygon fill="midnightblue" stroke="midnightblue" points="4225.44,-150.85 4235.48,-147.46 4225.52,-143.85 4225.44,-150.85"/>
</g>
<!-- Node41 -->
<g id="node36" class="node">
<title>Node41</title>
<g id="a_node36"><a xlink:href="../../d7/d1b/pen__toolbar_8cpp.html" target="_top" xlink:title=" ">
<polygon fill="white" stroke="black" points="1888.5,-67.5 1888.5,-97.5 2007.5,-97.5 2007.5,-67.5 1888.5,-67.5"/>
<text text-anchor="start" x="1896.5" y="-85.5" font-family="Helvetica,sans-Serif" font-size="10.00">src/libs/vwidgets/pen</text>
<text text-anchor="middle" x="1948" y="-74.5" font-family="Helvetica,sans-Serif" font-size="10.00">_toolbar.cpp</text>
</a>
</g>
</g>
<!-- Node15&#45;&gt;Node41 -->
<g id="edge41" class="edge">
<title>Node15&#45;&gt;Node41</title>
<path fill="none" stroke="midnightblue" d="M4225.29,-147.33C3798.35,-142.51 2237.4,-123.34 2017,-98 2013.96,-97.65 2010.86,-97.23 2007.73,-96.76"/>
<polygon fill="midnightblue" stroke="midnightblue" points="4225.43,-150.83 4235.47,-147.44 4225.51,-143.83 4225.43,-150.83"/>
</g>
<!-- Node42 -->
<g id="node37" class="node">
<title>Node42</title>
<g id="a_node37"><a xlink:href="../../d8/d76/scene__rect_8cpp.html" target="_top" xlink:title=" ">
<polygon fill="white" stroke="black" points="2026,-67.5 2026,-97.5 2156,-97.5 2156,-67.5 2026,-67.5"/>
<text text-anchor="start" x="2034" y="-85.5" font-family="Helvetica,sans-Serif" font-size="10.00">src/libs/vwidgets/scene</text>
<text text-anchor="middle" x="2091" y="-74.5" font-family="Helvetica,sans-Serif" font-size="10.00">_rect.cpp</text>
</a>
</g>
</g>
<!-- Node15&#45;&gt;Node42 -->
<g id="edge42" class="edge">
<title>Node15&#45;&gt;Node42</title>
<path fill="none" stroke="midnightblue" d="M4225.12,-148.42C3845.29,-147.74 2570.9,-142.17 2165,-98 2162.14,-97.69 2159.22,-97.32 2156.28,-96.92"/>
<polygon fill="midnightblue" stroke="midnightblue" points="4225.28,-151.92 4235.28,-148.43 4225.29,-144.92 4225.28,-151.92"/>
</g>
<!-- Node43 -->
<g id="node38" class="node">
<title>Node43</title>
<g id="a_node38"><a xlink:href="../../dd/df6/vabstractmainwindow_8cpp.html" target="_top" xlink:title=" ">
<polygon fill="white" stroke="black" points="2174.5,-73 2174.5,-92 2403.5,-92 2403.5,-73 2174.5,-73"/>
<text text-anchor="middle" x="2289" y="-80" font-family="Helvetica,sans-Serif" font-size="10.00">src/libs/vwidgets/vabstractmainwindow.cpp</text>
</a>
</g>
</g>
<!-- Node15&#45;&gt;Node43 -->
<g id="edge43" class="edge">
<title>Node15&#45;&gt;Node43</title>
<path fill="none" stroke="midnightblue" d="M4225.23,-149.1C3933.04,-149.99 3101.38,-147.59 2412,-98 2392.38,-96.59 2371.07,-94.33 2351.78,-92.02"/>
<polygon fill="midnightblue" stroke="midnightblue" points="4225.4,-152.6 4235.39,-149.07 4225.38,-145.6 4225.4,-152.6"/>
</g>
<!-- Node44 -->
<g id="node39" class="node">
<title>Node44</title>
<g id="a_node39"><a xlink:href="../../de/d45/vcontrolpointspline_8cpp.html" target="_top" xlink:title=" ">
<polygon fill="white" stroke="black" points="2421.5,-73 2421.5,-92 2636.5,-92 2636.5,-73 2421.5,-73"/>
<text text-anchor="middle" x="2529" y="-80" font-family="Helvetica,sans-Serif" font-size="10.00">src/libs/vwidgets/vcontrolpointspline.cpp</text>
</a>
</g>
</g>
<!-- Node15&#45;&gt;Node44 -->
<g id="edge44" class="edge">
<title>Node15&#45;&gt;Node44</title>
<path fill="none" stroke="midnightblue" d="M4225.27,-148.76C3957.66,-148.64 3241.28,-143.7 2646,-98 2627.43,-96.57 2607.28,-94.33 2589.01,-92.03"/>
<polygon fill="midnightblue" stroke="midnightblue" points="4225.37,-152.26 4235.37,-148.76 4225.37,-145.26 4225.37,-152.26"/>
</g>
<!-- Node45 -->
<g id="node40" class="node">
<title>Node45</title>
<g id="a_node40"><a xlink:href="../../de/dec/vgraphicssimpletextitem_8cpp.html" target="_top" xlink:title=" ">
<polygon fill="white" stroke="black" points="2655,-73 2655,-92 2899,-92 2899,-73 2655,-73"/>
<text text-anchor="middle" x="2777" y="-80" font-family="Helvetica,sans-Serif" font-size="10.00">src/libs/vwidgets/vgraphicssimpletextitem.cpp</text>
</a>
</g>
</g>
<!-- Node15&#45;&gt;Node45 -->
<g id="edge45" class="edge">
<title>Node15&#45;&gt;Node45</title>
<path fill="none" stroke="midnightblue" d="M4225.21,-147.43C3987.23,-144.47 3399.06,-133.83 2908,-98 2887.57,-96.51 2865.42,-94.29 2845.24,-92.03"/>
<polygon fill="midnightblue" stroke="midnightblue" points="4225.21,-150.93 4235.25,-147.55 4225.29,-143.93 4225.21,-150.93"/>
</g>
<!-- Node46 -->
<g id="node41" class="node">
<title>Node46</title>
<g id="a_node41"><a xlink:href="../../d1/d90/vgrainlineitem_8cpp.html" target="_top" xlink:title=" ">
<polygon fill="white" stroke="black" points="2917.5,-73 2917.5,-92 3110.5,-92 3110.5,-73 2917.5,-73"/>
<text text-anchor="middle" x="3014" y="-80" font-family="Helvetica,sans-Serif" font-size="10.00">src/libs/vwidgets/vgrainlineitem.cpp</text>
</a>
</g>
</g>
<!-- Node15&#45;&gt;Node46 -->
<g id="edge46" class="edge">
<title>Node15&#45;&gt;Node46</title>
<path fill="none" stroke="midnightblue" d="M4225.02,-147.47C4012.73,-144.68 3526.23,-134.5 3119,-98 3102.5,-96.52 3084.63,-94.29 3068.38,-92.02"/>
<polygon fill="midnightblue" stroke="midnightblue" points="4225.19,-150.97 4235.23,-147.6 4225.28,-143.97 4225.19,-150.97"/>
</g>
<!-- Node47 -->
<g id="node42" class="node">
<title>Node47</title>
<g id="a_node42"><a xlink:href="../../d0/d5d/vscenepoint_8cpp.html" target="_top" xlink:title=" ">
<polygon fill="white" stroke="black" points="3128.5,-73 3128.5,-92 3309.5,-92 3309.5,-73 3128.5,-73"/>
<text text-anchor="middle" x="3219" y="-80" font-family="Helvetica,sans-Serif" font-size="10.00">src/libs/vwidgets/vscenepoint.cpp</text>
</a>
</g>
</g>
<!-- Node15&#45;&gt;Node47 -->
<g id="edge47" class="edge">
<title>Node15&#45;&gt;Node47</title>
<path fill="none" stroke="midnightblue" d="M4225.22,-146.47C4039.7,-142.22 3648.24,-130 3319,-98 3303.46,-96.49 3286.64,-94.28 3271.31,-92.03"/>
<polygon fill="midnightblue" stroke="midnightblue" points="4225.17,-149.97 4235.24,-146.69 4225.33,-142.97 4225.17,-149.97"/>
</g>
<!-- Node48 -->
<g id="node43" class="node">
<title>Node48</title>
<g id="a_node43"><a xlink:href="../../d2/d31/vmaingraphicsview_8cpp.html" target="_top" xlink:title=" ">
<polygon fill="white" stroke="black" points="3328,-73 3328,-92 3544,-92 3544,-73 3328,-73"/>
<text text-anchor="middle" x="3436" y="-80" font-family="Helvetica,sans-Serif" font-size="10.00">src/libs/vwidgets/vmaingraphicsview.cpp</text>
</a>
</g>
</g>
<!-- Node15&#45;&gt;Node48 -->
<g id="edge48" class="edge">
<title>Node15&#45;&gt;Node48</title>
<path fill="none" stroke="midnightblue" d="M4225.09,-143.52C4074.42,-136.1 3792.54,-120.58 3553,-98 3535.48,-96.35 3516.52,-94.17 3499.08,-92.01"/>
<polygon fill="midnightblue" stroke="midnightblue" points="4225.11,-147.02 4235.27,-144.02 4225.45,-140.03 4225.11,-147.02"/>
</g>
<!-- Node49 -->
<g id="node44" class="node">
<title>Node49</title>
<g id="a_node44"><a xlink:href="../../de/d22/vsimplecurve_8cpp.html" target="_top" xlink:title=" ">
<polygon fill="white" stroke="black" points="3562,-73 3562,-92 3750,-92 3750,-73 3562,-73"/>
<text text-anchor="middle" x="3656" y="-80" font-family="Helvetica,sans-Serif" font-size="10.00">src/libs/vwidgets/vsimplecurve.cpp</text>
</a>
</g>
</g>
<!-- Node15&#45;&gt;Node49 -->
<g id="edge49" class="edge">
<title>Node15&#45;&gt;Node49</title>
<path fill="none" stroke="midnightblue" d="M4225.09,-140.69C4109.59,-131.94 3921.08,-116.53 3759,-98 3743.93,-96.28 3727.66,-94.12 3712.6,-92.01"/>
<polygon fill="midnightblue" stroke="midnightblue" points="4225.11,-144.2 4235.34,-141.47 4225.64,-137.22 4225.11,-144.2"/>
</g>
<!-- Node24&#45;&gt;Node25 -->
<g id="edge23" class="edge">
<title>Node24&#45;&gt;Node25</title>
<path fill="none" stroke="midnightblue" d="M4545.72,-58.87C4539.79,-49.46 4533.09,-38.83 4527.88,-30.58"/>
<polygon fill="midnightblue" stroke="midnightblue" points="4542.81,-60.81 4551.1,-67.4 4548.73,-57.07 4542.81,-60.81"/>
</g>
<!-- Node36&#45;&gt;Node37 -->
<g id="edge37" class="edge">
<title>Node36&#45;&gt;Node37</title>
<path fill="none" stroke="midnightblue" d="M5712.54,-66.97C5806.64,-48.58 5904.4,-33.21 5963.37,-24.35"/>
<polygon fill="midnightblue" stroke="midnightblue" points="5711.7,-63.57 5702.57,-68.93 5713.06,-70.43 5711.7,-63.57"/>
</g>
</g>
</svg>
