<?xml version="1.0" encoding="UTF-8" standalone="no"?>
<!DOCTYPE svg PUBLIC "-//W3C//DTD SVG 1.1//EN"
 "http://www.w3.org/Graphics/SVG/1.1/DTD/svg11.dtd">
<!-- Generated by graphviz version 2.43.0 (0)
 -->
<!-- Title: src/libs/vpatterndb/vcontainer.h Pages: 1 -->
<svg width="7084pt" height="251pt"
 viewBox="0.00 0.00 7084.00 251.00" xmlns="http://www.w3.org/2000/svg" xmlns:xlink="http://www.w3.org/1999/xlink">
<g id="graph0" class="graph" transform="scale(1 1) rotate(0) translate(4 247)">
<title>src/libs/vpatterndb/vcontainer.h</title>
<polygon fill="white" stroke="transparent" points="-4,4 -4,-247 7080,-247 7080,4 -4,4"/>
<!-- Node1 -->
<g id="node1" class="node">
<title>Node1</title>
<g id="a_node1"><a xlink:title=" ">
<polygon fill="#bfbfbf" stroke="black" points="6083.5,-212.5 6083.5,-242.5 6190.5,-242.5 6190.5,-212.5 6083.5,-212.5"/>
<text text-anchor="start" x="6091.5" y="-230.5" font-family="Helvetica,sans-Serif" font-size="10.00">src/libs/vpatterndb</text>
<text text-anchor="middle" x="6137" y="-219.5" font-family="Helvetica,sans-Serif" font-size="10.00">/vcontainer.h</text>
</a>
</g>
</g>
<!-- Node2 -->
<g id="node2" class="node">
<title>Node2</title>
<g id="a_node2"><a xlink:href="../../dc/db7/measurements_8h.html" target="_top" xlink:title=" ">
<polygon fill="white" stroke="black" points="497.5,-145.5 497.5,-164.5 676.5,-164.5 676.5,-145.5 497.5,-145.5"/>
<text text-anchor="middle" x="587" y="-152.5" font-family="Helvetica,sans-Serif" font-size="10.00">src/libs/vformat/measurements.h</text>
</a>
</g>
</g>
<!-- Node1&#45;&gt;Node2 -->
<g id="edge1" class="edge">
<title>Node1&#45;&gt;Node2</title>
<path fill="none" stroke="midnightblue" d="M6073.43,-226.6C5547.32,-227.32 1906.02,-230.26 810,-176 761.67,-173.61 707.6,-168.81 664.81,-164.52"/>
<polygon fill="midnightblue" stroke="midnightblue" points="6073.49,-230.1 6083.49,-226.59 6073.48,-223.1 6073.49,-230.1"/>
</g>
<!-- Node3 -->
<g id="node3" class="node">
<title>Node3</title>
<g id="a_node3"><a xlink:href="../../d9/de3/measurements_8cpp.html" target="_top" xlink:title=" ">
<polygon fill="white" stroke="black" points="0,-73 0,-92 190,-92 190,-73 0,-73"/>
<text text-anchor="middle" x="95" y="-80" font-family="Helvetica,sans-Serif" font-size="10.00">src/libs/vformat/measurements.cpp</text>
</a>
</g>
</g>
<!-- Node1&#45;&gt;Node3 -->
<g id="edge3" class="edge">
<title>Node1&#45;&gt;Node3</title>
<path fill="none" stroke="midnightblue" d="M6072.98,-226.34C5468.43,-224.73 779.46,-211.16 488,-176 348.13,-159.13 185.63,-111.73 122.26,-92.14"/>
<polygon fill="midnightblue" stroke="midnightblue" points="6073.23,-229.84 6083.24,-226.36 6073.25,-222.84 6073.23,-229.84"/>
</g>
<!-- Node4 -->
<g id="node4" class="node">
<title>Node4</title>
<g id="a_node4"><a xlink:href="../../d6/de0/vlayoutpiece_8h.html" target="_top" xlink:title=" ">
<polygon fill="white" stroke="black" points="819,-145.5 819,-164.5 985,-164.5 985,-145.5 819,-145.5"/>
<text text-anchor="middle" x="902" y="-152.5" font-family="Helvetica,sans-Serif" font-size="10.00">src/libs/vlayout/vlayoutpiece.h</text>
</a>
</g>
</g>
<!-- Node1&#45;&gt;Node4 -->
<g id="edge4" class="edge">
<title>Node1&#45;&gt;Node4</title>
<path fill="none" stroke="midnightblue" d="M6073.4,-225.64C5525.45,-218.26 1607.07,-165.5 985.1,-157.12"/>
<polygon fill="midnightblue" stroke="midnightblue" points="6073.44,-229.14 6083.48,-225.78 6073.53,-222.14 6073.44,-229.14"/>
</g>
<!-- Node14 -->
<g id="node13" class="node">
<title>Node14</title>
<g id="a_node13"><a xlink:href="../../d8/d70/vtextmanager_8cpp.html" target="_top" xlink:title=" ">
<polygon fill="white" stroke="black" points="1529,-73 1529,-92 1711,-92 1711,-73 1529,-73"/>
<text text-anchor="middle" x="1620" y="-80" font-family="Helvetica,sans-Serif" font-size="10.00">src/libs/vlayout/vtextmanager.cpp</text>
</a>
</g>
</g>
<!-- Node1&#45;&gt;Node14 -->
<g id="edge15" class="edge">
<title>Node1&#45;&gt;Node14</title>
<path fill="none" stroke="midnightblue" d="M6073.14,-225.83C5780.66,-222.65 4539.62,-207.85 3522,-176 2720.75,-150.93 2518.13,-172.95 1720,-98 1704.28,-96.52 1687.25,-94.29 1671.78,-92.02"/>
<polygon fill="midnightblue" stroke="midnightblue" points="6073.11,-229.33 6083.14,-225.94 6073.18,-222.33 6073.11,-229.33"/>
</g>
<!-- Node15 -->
<g id="node14" class="node">
<title>Node15</title>
<g id="a_node14"><a xlink:href="../../d5/d74/vabstractapplication_8h.html" target="_top" xlink:title=" ">
<polygon fill="white" stroke="red" points="3531.5,-145.5 3531.5,-164.5 3726.5,-164.5 3726.5,-145.5 3531.5,-145.5"/>
<text text-anchor="middle" x="3629" y="-152.5" font-family="Helvetica,sans-Serif" font-size="10.00">src/libs/vmisc/vabstractapplication.h</text>
</a>
</g>
</g>
<!-- Node1&#45;&gt;Node15 -->
<g id="edge16" class="edge">
<title>Node1&#45;&gt;Node15</title>
<path fill="none" stroke="midnightblue" d="M6073.32,-224.71C5734.12,-215.17 4139.66,-170.35 3726.81,-158.75"/>
<polygon fill="midnightblue" stroke="midnightblue" points="6073.36,-228.21 6083.46,-224.99 6073.56,-221.22 6073.36,-228.21"/>
</g>
<!-- Node33 -->
<g id="node28" class="node">
<title>Node33</title>
<g id="a_node28"><a xlink:href="../../db/d11/vformula_8cpp.html" target="_top" xlink:title=" ">
<polygon fill="white" stroke="black" points="5942.5,-67.5 5942.5,-97.5 6049.5,-97.5 6049.5,-67.5 5942.5,-67.5"/>
<text text-anchor="start" x="5950.5" y="-85.5" font-family="Helvetica,sans-Serif" font-size="10.00">src/libs/vpatterndb</text>
<text text-anchor="middle" x="5996" y="-74.5" font-family="Helvetica,sans-Serif" font-size="10.00">/vformula.cpp</text>
</a>
</g>
</g>
<!-- Node1&#45;&gt;Node33 -->
<g id="edge52" class="edge">
<title>Node1&#45;&gt;Node33</title>
<path fill="none" stroke="midnightblue" d="M6115.7,-204.9C6086.48,-175.26 6034.75,-122.8 6009.98,-97.68"/>
<polygon fill="midnightblue" stroke="midnightblue" points="6113.45,-207.6 6122.96,-212.27 6118.44,-202.69 6113.45,-207.6"/>
</g>
<!-- Node34 -->
<g id="node29" class="node">
<title>Node34</title>
<g id="a_node29"><a xlink:href="../../d6/d46/vcontainer_8cpp.html" target="_top" xlink:title=" ">
<polygon fill="white" stroke="black" points="6067.5,-67.5 6067.5,-97.5 6174.5,-97.5 6174.5,-67.5 6067.5,-67.5"/>
<text text-anchor="start" x="6075.5" y="-85.5" font-family="Helvetica,sans-Serif" font-size="10.00">src/libs/vpatterndb</text>
<text text-anchor="middle" x="6121" y="-74.5" font-family="Helvetica,sans-Serif" font-size="10.00">/vcontainer.cpp</text>
</a>
</g>
</g>
<!-- Node1&#45;&gt;Node34 -->
<g id="edge53" class="edge">
<title>Node1&#45;&gt;Node34</title>
<path fill="none" stroke="midnightblue" d="M6129,-202.37C6126.61,-194.1 6124.28,-184.73 6123,-176 6118.96,-148.51 6119.46,-115.93 6120.22,-97.7"/>
<polygon fill="midnightblue" stroke="midnightblue" points="6125.71,-203.58 6131.98,-212.12 6132.4,-201.53 6125.71,-203.58"/>
</g>
<!-- Node35 -->
<g id="node30" class="node">
<title>Node35</title>
<g id="a_node30"><a xlink:href="../../df/d7a/vpiece_8cpp.html" target="_top" xlink:title=" ">
<polygon fill="white" stroke="black" points="6192.5,-67.5 6192.5,-97.5 6299.5,-97.5 6299.5,-67.5 6192.5,-67.5"/>
<text text-anchor="start" x="6200.5" y="-85.5" font-family="Helvetica,sans-Serif" font-size="10.00">src/libs/vpatterndb</text>
<text text-anchor="middle" x="6246" y="-74.5" font-family="Helvetica,sans-Serif" font-size="10.00">/vpiece.cpp</text>
</a>
</g>
</g>
<!-- Node1&#45;&gt;Node35 -->
<g id="edge55" class="edge">
<title>Node1&#45;&gt;Node35</title>
<path fill="none" stroke="midnightblue" d="M6138.28,-202.03C6140.43,-181.99 6146.12,-153.81 6161,-134 6173.17,-117.81 6192.18,-105.81 6209.14,-97.59"/>
<polygon fill="midnightblue" stroke="midnightblue" points="6134.77,-201.96 6137.41,-212.22 6141.74,-202.55 6134.77,-201.96"/>
</g>
<!-- Node38 -->
<g id="node33" class="node">
<title>Node38</title>
<g id="a_node33"><a xlink:href="../../d8/dba/vpiecenode_8cpp.html" target="_top" xlink:title=" ">
<polygon fill="white" stroke="black" points="4817.5,-0.5 4817.5,-30.5 4924.5,-30.5 4924.5,-0.5 4817.5,-0.5"/>
<text text-anchor="start" x="4825.5" y="-18.5" font-family="Helvetica,sans-Serif" font-size="10.00">src/libs/vpatterndb</text>
<text text-anchor="middle" x="4871" y="-7.5" font-family="Helvetica,sans-Serif" font-size="10.00">/vpiecenode.cpp</text>
</a>
</g>
</g>
<!-- Node1&#45;&gt;Node38 -->
<g id="edge56" class="edge">
<title>Node1&#45;&gt;Node38</title>
<path fill="none" stroke="midnightblue" d="M6148.81,-203.4C6161.57,-179.26 6181.71,-143.56 6194,-134 6236.28,-101.12 6277.29,-141.16 6309,-98 6317.16,-86.9 6318.57,-76.91 6309,-67 6260.06,-16.32 5180.39,-15.75 4924.86,-16.32"/>
<polygon fill="midnightblue" stroke="midnightblue" points="6145.68,-201.84 6144.16,-212.32 6151.89,-205.08 6145.68,-201.84"/>
</g>
<!-- Node54 -->
<g id="node45" class="node">
<title>Node54</title>
<g id="a_node45"><a xlink:href="../../d7/d8a/measurement__variable__p_8h.html" target="_top" xlink:title=" ">
<polygon fill="white" stroke="red" points="6203,-134.5 6203,-175.5 6339,-175.5 6339,-134.5 6203,-134.5"/>
<text text-anchor="start" x="6211" y="-163.5" font-family="Helvetica,sans-Serif" font-size="10.00">src/libs/vpatterndb</text>
<text text-anchor="start" x="6211" y="-152.5" font-family="Helvetica,sans-Serif" font-size="10.00">/variables/measurement</text>
<text text-anchor="middle" x="6271" y="-141.5" font-family="Helvetica,sans-Serif" font-size="10.00">_variable_p.h</text>
</a>
</g>
</g>
<!-- Node1&#45;&gt;Node54 -->
<g id="edge50" class="edge">
<title>Node1&#45;&gt;Node54</title>
<path fill="none" stroke="midnightblue" d="M6172.69,-207.72C6191.57,-197.79 6214.75,-185.6 6233.85,-175.55"/>
<polygon fill="midnightblue" stroke="midnightblue" points="6171.02,-204.65 6163.79,-212.4 6174.27,-210.84 6171.02,-204.65"/>
</g>
<!-- Node56 -->
<g id="node46" class="node">
<title>Node56</title>
<g id="a_node46"><a xlink:href="../../d1/de1/vincrement__p_8h.html" target="_top" xlink:title=" ">
<polygon fill="white" stroke="red" points="6357.5,-140 6357.5,-170 6500.5,-170 6500.5,-140 6357.5,-140"/>
<text text-anchor="start" x="6365.5" y="-158" font-family="Helvetica,sans-Serif" font-size="10.00">src/libs/vpatterndb</text>
<text text-anchor="middle" x="6429" y="-147" font-family="Helvetica,sans-Serif" font-size="10.00">/variables/vincrement_p.h</text>
</a>
</g>
</g>
<!-- Node1&#45;&gt;Node56 -->
<g id="edge51" class="edge">
<title>Node1&#45;&gt;Node56</title>
<path fill="none" stroke="midnightblue" d="M6200.59,-211.41C6242.48,-201.43 6298.53,-188.03 6348,-176 6355.88,-174.08 6364.19,-172.05 6372.36,-170.04"/>
<polygon fill="midnightblue" stroke="midnightblue" points="6199.71,-208.02 6190.79,-213.74 6201.33,-214.83 6199.71,-208.02"/>
</g>
<!-- Node58 -->
<g id="node47" class="node">
<title>Node58</title>
<g id="a_node47"><a xlink:href="../../d6/d91/vnodedetail_8cpp.html" target="_top" xlink:title=" ">
<polygon fill="white" stroke="black" points="6518.5,-140 6518.5,-170 6625.5,-170 6625.5,-140 6518.5,-140"/>
<text text-anchor="start" x="6526.5" y="-158" font-family="Helvetica,sans-Serif" font-size="10.00">src/libs/vpatterndb</text>
<text text-anchor="middle" x="6572" y="-147" font-family="Helvetica,sans-Serif" font-size="10.00">/vnodedetail.cpp</text>
</a>
</g>
</g>
<!-- Node1&#45;&gt;Node58 -->
<g id="edge54" class="edge">
<title>Node1&#45;&gt;Node58</title>
<path fill="none" stroke="midnightblue" d="M6200.85,-221.33C6275.62,-214.48 6402.88,-200.33 6510,-176 6517.17,-174.37 6524.69,-172.28 6531.93,-170.07"/>
<polygon fill="midnightblue" stroke="midnightblue" points="6200.3,-217.87 6190.65,-222.25 6200.93,-224.84 6200.3,-217.87"/>
</g>
<!-- Node59 -->
<g id="node48" class="node">
<title>Node59</title>
<g id="a_node48"><a xlink:href="../../da/de1/vpiecepath_8cpp.html" target="_top" xlink:title=" ">
<polygon fill="white" stroke="black" points="6643.5,-140 6643.5,-170 6750.5,-170 6750.5,-140 6643.5,-140"/>
<text text-anchor="start" x="6651.5" y="-158" font-family="Helvetica,sans-Serif" font-size="10.00">src/libs/vpatterndb</text>
<text text-anchor="middle" x="6697" y="-147" font-family="Helvetica,sans-Serif" font-size="10.00">/vpiecepath.cpp</text>
</a>
</g>
</g>
<!-- Node1&#45;&gt;Node59 -->
<g id="edge57" class="edge">
<title>Node1&#45;&gt;Node59</title>
<path fill="none" stroke="midnightblue" d="M6200.69,-224.34C6296.04,-220.13 6481.13,-208.24 6635,-176 6642.42,-174.45 6650.2,-172.34 6657.65,-170.07"/>
<polygon fill="midnightblue" stroke="midnightblue" points="6200.47,-220.84 6190.63,-224.77 6200.77,-227.84 6200.47,-220.84"/>
</g>
<!-- Node60 -->
<g id="node49" class="node">
<title>Node60</title>
<g id="a_node49"><a xlink:href="../../d1/d3a/abstracttest_8cpp.html" target="_top" xlink:title=" ">
<polygon fill="white" stroke="black" points="6768.5,-145.5 6768.5,-164.5 6929.5,-164.5 6929.5,-145.5 6768.5,-145.5"/>
<text text-anchor="middle" x="6849" y="-152.5" font-family="Helvetica,sans-Serif" font-size="10.00">src/libs/vtest/abstracttest.cpp</text>
</a>
</g>
</g>
<!-- Node1&#45;&gt;Node60 -->
<g id="edge58" class="edge">
<title>Node1&#45;&gt;Node60</title>
<path fill="none" stroke="midnightblue" d="M6200.84,-224.28C6314.05,-219.68 6557.14,-206.86 6760,-176 6778.79,-173.14 6799.52,-168.57 6816.24,-164.52"/>
<polygon fill="midnightblue" stroke="midnightblue" points="6200.48,-220.79 6190.63,-224.69 6200.76,-227.78 6200.48,-220.79"/>
</g>
<!-- Node61 -->
<g id="node50" class="node">
<title>Node61</title>
<g id="a_node50"><a xlink:href="../../da/db4/piece__tablewidgetitem_8cpp.html" target="_top" xlink:title=" ">
<polygon fill="white" stroke="black" points="6948,-140 6948,-170 7076,-170 7076,-140 6948,-140"/>
<text text-anchor="start" x="6956" y="-158" font-family="Helvetica,sans-Serif" font-size="10.00">src/libs/vwidgets/piece</text>
<text text-anchor="middle" x="7012" y="-147" font-family="Helvetica,sans-Serif" font-size="10.00">_tablewidgetitem.cpp</text>
</a>
</g>
</g>
<!-- Node1&#45;&gt;Node61 -->
<g id="edge59" class="edge">
<title>Node1&#45;&gt;Node61</title>
<path fill="none" stroke="midnightblue" d="M6201.22,-226.89C6337.92,-226.75 6667.41,-221.27 6939,-176 6947.94,-174.51 6957.37,-172.37 6966.37,-170.04"/>
<polygon fill="midnightblue" stroke="midnightblue" points="6200.93,-223.39 6190.93,-226.89 6200.93,-230.39 6200.93,-223.39"/>
</g>
<!-- Node2&#45;&gt;Node3 -->
<g id="edge2" class="edge">
<title>Node2&#45;&gt;Node3</title>
<path fill="none" stroke="midnightblue" d="M517.65,-144.06C420.63,-130.16 246.02,-105.14 154.56,-92.03"/>
<polygon fill="midnightblue" stroke="midnightblue" points="517.26,-147.54 527.65,-145.5 518.25,-140.61 517.26,-147.54"/>
</g>
<!-- Node5 -->
<g id="node5" class="node">
<title>Node5</title>
<g id="a_node5"><a xlink:href="../../dd/d66/vdxfengine_8cpp.html" target="_top" xlink:title=" ">
<polygon fill="white" stroke="black" points="825,-73 825,-92 979,-92 979,-73 825,-73"/>
<text text-anchor="middle" x="902" y="-80" font-family="Helvetica,sans-Serif" font-size="10.00">src/libs/vdxf/vdxfengine.cpp</text>
</a>
</g>
</g>
<!-- Node4&#45;&gt;Node5 -->
<g id="edge5" class="edge">
<title>Node4&#45;&gt;Node5</title>
<path fill="none" stroke="midnightblue" d="M902,-134.94C902,-121.03 902,-102.82 902,-92.22"/>
<polygon fill="midnightblue" stroke="midnightblue" points="898.5,-135.36 902,-145.36 905.5,-135.36 898.5,-135.36"/>
</g>
<!-- Node6 -->
<g id="node6" class="node">
<title>Node6</title>
<g id="a_node6"><a xlink:href="../../de/da8/vbank_8cpp.html" target="_top" xlink:title=" ">
<polygon fill="white" stroke="black" points="997,-73 997,-92 1141,-92 1141,-73 997,-73"/>
<text text-anchor="middle" x="1069" y="-80" font-family="Helvetica,sans-Serif" font-size="10.00">src/libs/vlayout/vbank.cpp</text>
</a>
</g>
</g>
<!-- Node4&#45;&gt;Node6 -->
<g id="edge6" class="edge">
<title>Node4&#45;&gt;Node6</title>
<path fill="none" stroke="midnightblue" d="M931.49,-141.55C965.21,-127.32 1019.53,-104.38 1048.78,-92.03"/>
<polygon fill="midnightblue" stroke="midnightblue" points="930,-138.38 922.14,-145.5 932.72,-144.83 930,-138.38"/>
</g>
<!-- Node7 -->
<g id="node7" class="node">
<title>Node7</title>
<g id="a_node7"><a xlink:href="../../df/d5d/vcontour_8cpp.html" target="_top" xlink:title=" ">
<polygon fill="white" stroke="black" points="1159,-73 1159,-92 1315,-92 1315,-73 1159,-73"/>
<text text-anchor="middle" x="1237" y="-80" font-family="Helvetica,sans-Serif" font-size="10.00">src/libs/vlayout/vcontour.cpp</text>
</a>
</g>
</g>
<!-- Node4&#45;&gt;Node7 -->
<g id="edge7" class="edge">
<title>Node4&#45;&gt;Node7</title>
<path fill="none" stroke="midnightblue" d="M952.26,-143.42C1018.88,-129.4 1135.12,-104.94 1196.45,-92.03"/>
<polygon fill="midnightblue" stroke="midnightblue" points="951.47,-140.01 942.41,-145.5 952.92,-146.86 951.47,-140.01"/>
</g>
<!-- Node8 -->
<g id="node8" class="node">
<title>Node8</title>
<g id="a_node8"><a xlink:href="../../d2/d2d/vlayoutpaper__p_8h.html" target="_top" xlink:title=" ">
<polygon fill="white" stroke="black" points="412.5,-73 412.5,-92 591.5,-92 591.5,-73 412.5,-73"/>
<text text-anchor="middle" x="502" y="-80" font-family="Helvetica,sans-Serif" font-size="10.00">src/libs/vlayout/vlayoutpaper_p.h</text>
</a>
</g>
</g>
<!-- Node4&#45;&gt;Node8 -->
<g id="edge8" class="edge">
<title>Node4&#45;&gt;Node8</title>
<path fill="none" stroke="midnightblue" d="M843.45,-143.68C764.16,-129.71 624.1,-105.02 550.42,-92.03"/>
<polygon fill="midnightblue" stroke="midnightblue" points="843.29,-147.21 853.75,-145.5 844.51,-140.31 843.29,-147.21"/>
</g>
<!-- Node9 -->
<g id="node9" class="node">
<title>Node9</title>
<g id="a_node9"><a xlink:href="../../d1/dd1/vlayoutpaper_8cpp.html" target="_top" xlink:title=" ">
<polygon fill="white" stroke="black" points="295,-6 295,-25 473,-25 473,-6 295,-6"/>
<text text-anchor="middle" x="384" y="-13" font-family="Helvetica,sans-Serif" font-size="10.00">src/libs/vlayout/vlayoutpaper.cpp</text>
</a>
</g>
</g>
<!-- Node4&#45;&gt;Node9 -->
<g id="edge11" class="edge">
<title>Node4&#45;&gt;Node9</title>
<path fill="none" stroke="midnightblue" d="M808.89,-144.91C666.58,-130.84 410.52,-104.68 403,-98 381.94,-79.27 381.89,-42.12 383.1,-25.23"/>
<polygon fill="midnightblue" stroke="midnightblue" points="808.64,-148.41 818.93,-145.91 809.33,-141.44 808.64,-148.41"/>
</g>
<!-- Node10 -->
<g id="node10" class="node">
<title>Node10</title>
<g id="a_node10"><a xlink:href="../../d3/d39/vlayoutgenerator_8cpp.html" target="_top" xlink:title=" ">
<polygon fill="white" stroke="black" points="609.5,-73 609.5,-92 806.5,-92 806.5,-73 609.5,-73"/>
<text text-anchor="middle" x="708" y="-80" font-family="Helvetica,sans-Serif" font-size="10.00">src/libs/vlayout/vlayoutgenerator.cpp</text>
</a>
</g>
</g>
<!-- Node4&#45;&gt;Node10 -->
<g id="edge10" class="edge">
<title>Node4&#45;&gt;Node10</title>
<path fill="none" stroke="midnightblue" d="M869,-142.01C829.93,-127.81 765.83,-104.52 731.48,-92.03"/>
<polygon fill="midnightblue" stroke="midnightblue" points="868,-145.37 878.6,-145.5 870.4,-138.79 868,-145.37"/>
</g>
<!-- Node11 -->
<g id="node11" class="node">
<title>Node11</title>
<g id="a_node11"><a xlink:href="../../db/d5c/vposition_8h.html" target="_top" xlink:title=" ">
<polygon fill="white" stroke="red" points="208,-73 208,-92 356,-92 356,-73 208,-73"/>
<text text-anchor="middle" x="282" y="-80" font-family="Helvetica,sans-Serif" font-size="10.00">src/libs/vlayout/vposition.h</text>
</a>
</g>
</g>
<!-- Node4&#45;&gt;Node11 -->
<g id="edge12" class="edge">
<title>Node4&#45;&gt;Node11</title>
<path fill="none" stroke="midnightblue" d="M808.45,-144.82C679.1,-132.01 452.27,-109.1 370,-98 357.26,-96.28 343.54,-94.15 330.8,-92.06"/>
<polygon fill="midnightblue" stroke="midnightblue" points="808.44,-148.33 818.74,-145.84 809.13,-141.37 808.44,-148.33"/>
</g>
<!-- Node13 -->
<g id="node12" class="node">
<title>Node13</title>
<g id="a_node12"><a xlink:href="../../dd/d70/vlayoutpiece_8cpp.html" target="_top" xlink:title=" ">
<polygon fill="white" stroke="black" points="1333.5,-73 1333.5,-92 1510.5,-92 1510.5,-73 1333.5,-73"/>
<text text-anchor="middle" x="1422" y="-80" font-family="Helvetica,sans-Serif" font-size="10.00">src/libs/vlayout/vlayoutpiece.cpp</text>
</a>
</g>
</g>
<!-- Node4&#45;&gt;Node13 -->
<g id="edge14" class="edge">
<title>Node4&#45;&gt;Node13</title>
<path fill="none" stroke="midnightblue" d="M978.59,-144.19C1063.18,-133.27 1203.38,-114.93 1324,-98 1337.46,-96.11 1351.94,-94.01 1365.53,-92"/>
<polygon fill="midnightblue" stroke="midnightblue" points="978.02,-140.73 968.55,-145.48 978.92,-147.67 978.02,-140.73"/>
</g>
<!-- Node8&#45;&gt;Node9 -->
<g id="edge9" class="edge">
<title>Node8&#45;&gt;Node9</title>
<path fill="none" stroke="midnightblue" d="M477.11,-67.79C453.72,-54.9 419.44,-36.02 399.66,-25.13"/>
<polygon fill="midnightblue" stroke="midnightblue" points="475.64,-70.97 486.09,-72.73 479.02,-64.84 475.64,-70.97"/>
</g>
<!-- Node11&#45;&gt;Node9 -->
<g id="edge13" class="edge">
<title>Node11&#45;&gt;Node9</title>
<path fill="none" stroke="midnightblue" d="M304.33,-67.27C324.52,-54.4 353.59,-35.88 370.46,-25.13"/>
<polygon fill="midnightblue" stroke="midnightblue" points="302.31,-64.41 295.76,-72.73 306.07,-70.31 302.31,-64.41"/>
</g>
<!-- Node15&#45;&gt;Node13 -->
<g id="edge28" class="edge">
<title>Node15&#45;&gt;Node13</title>
<path fill="none" stroke="midnightblue" d="M3520.98,-152.85C3147.85,-148.62 1914.61,-132.31 1520,-98 1504.15,-96.62 1486.96,-94.35 1471.47,-92"/>
<polygon fill="midnightblue" stroke="midnightblue" points="3521.19,-156.35 3531.23,-152.97 3521.27,-149.36 3521.19,-156.35"/>
</g>
<!-- Node15&#45;&gt;Node14 -->
<g id="edge27" class="edge">
<title>Node15&#45;&gt;Node14</title>
<path fill="none" stroke="midnightblue" d="M3521.23,-152.47C3172.02,-147.24 2073.77,-128.74 1720,-98 1703.92,-96.6 1686.48,-94.34 1670.74,-92.01"/>
<polygon fill="midnightblue" stroke="midnightblue" points="3521.29,-155.97 3531.34,-152.62 3521.4,-148.97 3521.29,-155.97"/>
</g>
<!-- Node16 -->
<g id="node15" class="node">
<title>Node16</title>
<g id="a_node15"><a xlink:href="../../d4/d90/fvupdater_8cpp.html" target="_top" xlink:title=" ">
<polygon fill="white" stroke="black" points="5618.5,-73 5618.5,-92 5771.5,-92 5771.5,-73 5618.5,-73"/>
<text text-anchor="middle" x="5695" y="-80" font-family="Helvetica,sans-Serif" font-size="10.00">src/libs/fervor/fvupdater.cpp</text>
</a>
</g>
</g>
<!-- Node15&#45;&gt;Node16 -->
<g id="edge17" class="edge">
<title>Node15&#45;&gt;Node16</title>
<path fill="none" stroke="midnightblue" d="M3736.8,-152.92C4094.63,-149.04 5241.09,-134.04 5609,-98 5622.86,-96.64 5637.87,-94.39 5651.41,-92.06"/>
<polygon fill="midnightblue" stroke="midnightblue" points="3736.67,-149.43 3726.7,-153.03 3736.74,-156.42 3736.67,-149.43"/>
</g>
<!-- Node17 -->
<g id="node16" class="node">
<title>Node17</title>
<g id="a_node16"><a xlink:href="../../d9/dc8/dxiface_8cpp.html" target="_top" xlink:title=" ">
<polygon fill="white" stroke="black" points="5789.5,-73 5789.5,-92 5924.5,-92 5924.5,-73 5789.5,-73"/>
<text text-anchor="middle" x="5857" y="-80" font-family="Helvetica,sans-Serif" font-size="10.00">src/libs/vdxf/dxiface.cpp</text>
</a>
</g>
</g>
<!-- Node15&#45;&gt;Node17 -->
<g id="edge18" class="edge">
<title>Node15&#45;&gt;Node17</title>
<path fill="none" stroke="midnightblue" d="M3736.67,-153.48C4114.3,-151.29 5377.38,-140.87 5780,-98 5792.58,-96.66 5806.18,-94.38 5818.4,-92.02"/>
<polygon fill="midnightblue" stroke="midnightblue" points="3736.55,-149.98 3726.57,-153.54 3736.59,-156.98 3736.55,-149.98"/>
</g>
<!-- Node18 -->
<g id="node17" class="node">
<title>Node18</title>
<g id="a_node17"><a xlink:href="../../da/d75/vabstractarc__p_8h.html" target="_top" xlink:title=" ">
<polygon fill="white" stroke="red" points="1729.5,-67.5 1729.5,-97.5 1836.5,-97.5 1836.5,-67.5 1729.5,-67.5"/>
<text text-anchor="start" x="1737.5" y="-85.5" font-family="Helvetica,sans-Serif" font-size="10.00">src/libs/vgeometry</text>
<text text-anchor="middle" x="1783" y="-74.5" font-family="Helvetica,sans-Serif" font-size="10.00">/vabstractarc_p.h</text>
</a>
</g>
</g>
<!-- Node15&#45;&gt;Node18 -->
<g id="edge19" class="edge">
<title>Node15&#45;&gt;Node18</title>
<path fill="none" stroke="midnightblue" d="M3521.25,-151.86C3160.8,-144.54 2010.47,-119.73 1845,-98 1842.26,-97.64 1839.46,-97.21 1836.65,-96.73"/>
<polygon fill="midnightblue" stroke="midnightblue" points="3521.35,-155.37 3531.42,-152.07 3521.5,-148.37 3521.35,-155.37"/>
</g>
<!-- Node20 -->
<g id="node18" class="node">
<title>Node20</title>
<g id="a_node18"><a xlink:href="../../dc/da3/varc__p_8h.html" target="_top" xlink:title=" ">
<polygon fill="white" stroke="red" points="1854.5,-67.5 1854.5,-97.5 1961.5,-97.5 1961.5,-67.5 1854.5,-67.5"/>
<text text-anchor="start" x="1862.5" y="-85.5" font-family="Helvetica,sans-Serif" font-size="10.00">src/libs/vgeometry</text>
<text text-anchor="middle" x="1908" y="-74.5" font-family="Helvetica,sans-Serif" font-size="10.00">/varc_p.h</text>
</a>
</g>
</g>
<!-- Node15&#45;&gt;Node20 -->
<g id="edge20" class="edge">
<title>Node15&#45;&gt;Node20</title>
<path fill="none" stroke="midnightblue" d="M3521.25,-151.59C3177.85,-143.74 2122.73,-118.24 1970,-98 1967.26,-97.64 1964.46,-97.21 1961.65,-96.73"/>
<polygon fill="midnightblue" stroke="midnightblue" points="3521.37,-155.09 3531.45,-151.82 3521.53,-148.1 3521.37,-155.09"/>
</g>
<!-- Node22 -->
<g id="node19" class="node">
<title>Node22</title>
<g id="a_node19"><a xlink:href="../../d5/d8e/vcubicbezier__p_8h.html" target="_top" xlink:title=" ">
<polygon fill="white" stroke="red" points="1979.5,-67.5 1979.5,-97.5 2086.5,-97.5 2086.5,-67.5 1979.5,-67.5"/>
<text text-anchor="start" x="1987.5" y="-85.5" font-family="Helvetica,sans-Serif" font-size="10.00">src/libs/vgeometry</text>
<text text-anchor="middle" x="2033" y="-74.5" font-family="Helvetica,sans-Serif" font-size="10.00">/vcubicbezier_p.h</text>
</a>
</g>
</g>
<!-- Node15&#45;&gt;Node22 -->
<g id="edge21" class="edge">
<title>Node15&#45;&gt;Node22</title>
<path fill="none" stroke="midnightblue" d="M3521.32,-152.77C3219.81,-148.91 2371.19,-134.98 2095,-98 2092.26,-97.63 2089.47,-97.2 2086.65,-96.72"/>
<polygon fill="midnightblue" stroke="midnightblue" points="3521.34,-156.28 3531.38,-152.9 3521.43,-149.28 3521.34,-156.28"/>
</g>
<!-- Node24 -->
<g id="node20" class="node">
<title>Node24</title>
<g id="a_node20"><a xlink:href="../../df/dde/vellipticalarc__p_8h.html" target="_top" xlink:title=" ">
<polygon fill="white" stroke="black" points="3236.5,-67.5 3236.5,-97.5 3343.5,-97.5 3343.5,-67.5 3236.5,-67.5"/>
<text text-anchor="start" x="3244.5" y="-85.5" font-family="Helvetica,sans-Serif" font-size="10.00">src/libs/vgeometry</text>
<text text-anchor="middle" x="3290" y="-74.5" font-family="Helvetica,sans-Serif" font-size="10.00">/vellipticalarc_p.h</text>
</a>
</g>
</g>
<!-- Node15&#45;&gt;Node24 -->
<g id="edge22" class="edge">
<title>Node15&#45;&gt;Node24</title>
<path fill="none" stroke="midnightblue" d="M3574.74,-143.53C3518.82,-132.63 3429.17,-114.82 3352,-98 3349.3,-97.41 3346.54,-96.8 3343.75,-96.17"/>
<polygon fill="midnightblue" stroke="midnightblue" points="3574.29,-147.01 3584.78,-145.49 3575.63,-140.14 3574.29,-147.01"/>
</g>
<!-- Node25 -->
<g id="node21" class="node">
<title>Node25</title>
<g id="a_node21"><a xlink:href="../../d6/dfb/vellipticalarc_8cpp.html" target="_top" xlink:title=" ">
<polygon fill="white" stroke="black" points="3195.5,-0.5 3195.5,-30.5 3302.5,-30.5 3302.5,-0.5 3195.5,-0.5"/>
<text text-anchor="start" x="3203.5" y="-18.5" font-family="Helvetica,sans-Serif" font-size="10.00">src/libs/vgeometry</text>
<text text-anchor="middle" x="3249" y="-7.5" font-family="Helvetica,sans-Serif" font-size="10.00">/vellipticalarc.cpp</text>
</a>
</g>
</g>
<!-- Node15&#45;&gt;Node25 -->
<g id="edge24" class="edge">
<title>Node15&#45;&gt;Node25</title>
<path fill="none" stroke="midnightblue" d="M3520.93,-154.3C3415.09,-152.01 3264.42,-141 3227,-98 3210.35,-78.87 3226.25,-48.38 3238.31,-30.61"/>
<polygon fill="midnightblue" stroke="midnightblue" points="3520.96,-157.8 3531.03,-154.49 3521.1,-150.8 3520.96,-157.8"/>
</g>
<!-- Node26 -->
<g id="node22" class="node">
<title>Node26</title>
<g id="a_node22"><a xlink:href="../../d1/d76/vspline__p_8h.html" target="_top" xlink:title=" ">
<polygon fill="white" stroke="red" points="2104.5,-67.5 2104.5,-97.5 2211.5,-97.5 2211.5,-67.5 2104.5,-67.5"/>
<text text-anchor="start" x="2112.5" y="-85.5" font-family="Helvetica,sans-Serif" font-size="10.00">src/libs/vgeometry</text>
<text text-anchor="middle" x="2158" y="-74.5" font-family="Helvetica,sans-Serif" font-size="10.00">/vspline_p.h</text>
</a>
</g>
</g>
<!-- Node15&#45;&gt;Node26 -->
<g id="edge25" class="edge">
<title>Node15&#45;&gt;Node26</title>
<path fill="none" stroke="midnightblue" d="M3520.83,-152.31C3236.32,-147.44 2471.75,-131.54 2221,-98 2218,-97.6 2214.93,-97.12 2211.84,-96.59"/>
<polygon fill="midnightblue" stroke="midnightblue" points="3521.1,-155.81 3531.16,-152.48 3521.22,-148.81 3521.1,-155.81"/>
</g>
<!-- Node28 -->
<g id="node23" class="node">
<title>Node28</title>
<g id="a_node23"><a xlink:href="../../d9/d15/vabstractpiece_8cpp.html" target="_top" xlink:title=" ">
<polygon fill="white" stroke="black" points="2230,-73 2230,-92 2416,-92 2416,-73 2230,-73"/>
<text text-anchor="middle" x="2323" y="-80" font-family="Helvetica,sans-Serif" font-size="10.00">src/libs/vlayout/vabstractpiece.cpp</text>
</a>
</g>
</g>
<!-- Node15&#45;&gt;Node28 -->
<g id="edge26" class="edge">
<title>Node15&#45;&gt;Node28</title>
<path fill="none" stroke="midnightblue" d="M3521.09,-152.41C3310.11,-148.53 2828.29,-135.96 2425,-98 2409.06,-96.5 2391.8,-94.28 2376.09,-92.02"/>
<polygon fill="midnightblue" stroke="midnightblue" points="3521.18,-155.91 3531.24,-152.59 3521.31,-148.91 3521.18,-155.91"/>
</g>
<!-- Node29 -->
<g id="node24" class="node">
<title>Node29</title>
<g id="a_node24"><a xlink:href="../../db/d65/dialogexporttocsv_8cpp.html" target="_top" xlink:title=" ">
<polygon fill="white" stroke="black" points="2434.5,-67.5 2434.5,-97.5 2561.5,-97.5 2561.5,-67.5 2434.5,-67.5"/>
<text text-anchor="start" x="2442.5" y="-85.5" font-family="Helvetica,sans-Serif" font-size="10.00">src/libs/vmisc/dialogs</text>
<text text-anchor="middle" x="2498" y="-74.5" font-family="Helvetica,sans-Serif" font-size="10.00">/dialogexporttocsv.cpp</text>
</a>
</g>
</g>
<!-- Node15&#45;&gt;Node29 -->
<g id="edge29" class="edge">
<title>Node15&#45;&gt;Node29</title>
<path fill="none" stroke="midnightblue" d="M3521.14,-153.38C3329.28,-151.14 2916.39,-141.22 2571,-98 2567.92,-97.61 2564.78,-97.17 2561.61,-96.69"/>
<polygon fill="midnightblue" stroke="midnightblue" points="3521.18,-156.88 3531.22,-153.49 3521.26,-149.88 3521.18,-156.88"/>
</g>
<!-- Node30 -->
<g id="node25" class="node">
<title>Node30</title>
<g id="a_node25"><a xlink:href="../../d6/d0b/def_8cpp.html" target="_top" xlink:title=" ">
<polygon fill="white" stroke="black" points="2580,-73 2580,-92 2702,-92 2702,-73 2580,-73"/>
<text text-anchor="middle" x="2641" y="-80" font-family="Helvetica,sans-Serif" font-size="10.00">src/libs/vmisc/def.cpp</text>
</a>
</g>
</g>
<!-- Node15&#45;&gt;Node30 -->
<g id="edge30" class="edge">
<title>Node15&#45;&gt;Node30</title>
<path fill="none" stroke="midnightblue" d="M3521.34,-152.42C3349.36,-148.79 3002.35,-136.86 2711,-98 2699.93,-96.52 2687.99,-94.29 2677.16,-92.02"/>
<polygon fill="midnightblue" stroke="midnightblue" points="3521.34,-155.93 3531.41,-152.63 3521.48,-148.93 3521.34,-155.93"/>
</g>
<!-- Node31 -->
<g id="node26" class="node">
<title>Node31</title>
<g id="a_node26"><a xlink:href="../../d0/df6/vabstractapplication_8cpp.html" target="_top" xlink:title=" ">
<polygon fill="white" stroke="black" points="2720,-73 2720,-92 2926,-92 2926,-73 2720,-73"/>
<text text-anchor="middle" x="2823" y="-80" font-family="Helvetica,sans-Serif" font-size="10.00">src/libs/vmisc/vabstractapplication.cpp</text>
</a>
</g>
</g>
<!-- Node15&#45;&gt;Node31 -->
<g id="edge31" class="edge">
<title>Node15&#45;&gt;Node31</title>
<path fill="none" stroke="midnightblue" d="M3521.41,-146.93C3384.86,-137.59 3142.15,-119.75 2935,-98 2918.62,-96.28 2900.93,-94.13 2884.56,-92.01"/>
<polygon fill="midnightblue" stroke="midnightblue" points="3521.24,-150.43 3531.46,-147.62 3521.72,-143.45 3521.24,-150.43"/>
</g>
<!-- Node32 -->
<g id="node27" class="node">
<title>Node32</title>
<g id="a_node27"><a xlink:href="../../d4/d4f/pmsystems_8cpp.html" target="_top" xlink:title=" ">
<polygon fill="white" stroke="black" points="2944.5,-67.5 2944.5,-97.5 3051.5,-97.5 3051.5,-67.5 2944.5,-67.5"/>
<text text-anchor="start" x="2952.5" y="-85.5" font-family="Helvetica,sans-Serif" font-size="10.00">src/libs/vpatterndb</text>
<text text-anchor="middle" x="2998" y="-74.5" font-family="Helvetica,sans-Serif" font-size="10.00">/pmsystems.cpp</text>
</a>
</g>
</g>
<!-- Node15&#45;&gt;Node32 -->
<g id="edge32" class="edge">
<title>Node15&#45;&gt;Node32</title>
<path fill="none" stroke="midnightblue" d="M3521.08,-147.49C3406.43,-139.6 3220.11,-124.04 3061,-98 3057.9,-97.49 3054.72,-96.92 3051.52,-96.31"/>
<polygon fill="midnightblue" stroke="midnightblue" points="3521.05,-150.99 3531.27,-148.18 3521.53,-144.01 3521.05,-150.99"/>
</g>
<!-- Node15&#45;&gt;Node33 -->
<g id="edge33" class="edge">
<title>Node15&#45;&gt;Node33</title>
<path fill="none" stroke="midnightblue" d="M3736.98,-154.32C4132.41,-155.02 5500.94,-153.3 5934,-98 5936.74,-97.65 5939.54,-97.23 5942.35,-96.76"/>
<polygon fill="midnightblue" stroke="midnightblue" points="3736.7,-150.82 3726.69,-154.3 3736.68,-157.82 3736.7,-150.82"/>
</g>
<!-- Node15&#45;&gt;Node34 -->
<g id="edge34" class="edge">
<title>Node15&#45;&gt;Node34</title>
<path fill="none" stroke="midnightblue" d="M3736.61,-154.47C4145.14,-155.82 5600.13,-156.31 6059,-98 6061.74,-97.65 6064.54,-97.23 6067.36,-96.76"/>
<polygon fill="midnightblue" stroke="midnightblue" points="3736.58,-150.97 3726.57,-154.44 3736.56,-157.97 3736.58,-150.97"/>
</g>
<!-- Node15&#45;&gt;Node35 -->
<g id="edge35" class="edge">
<title>Node15&#45;&gt;Node35</title>
<path fill="none" stroke="midnightblue" d="M3737.04,-152.96C4191.95,-148.39 5939.3,-128.95 6184,-98 6186.74,-97.65 6189.54,-97.24 6192.36,-96.76"/>
<polygon fill="midnightblue" stroke="midnightblue" points="3736.83,-149.46 3726.86,-153.06 3736.9,-156.46 3736.83,-149.46"/>
</g>
<!-- Node36 -->
<g id="node31" class="node">
<title>Node36</title>
<g id="a_node31"><a xlink:href="../../de/d3e/vtranslatevars_8cpp.html" target="_top" xlink:title=" ">
<polygon fill="white" stroke="black" points="3070,-67.5 3070,-97.5 3180,-97.5 3180,-67.5 3070,-67.5"/>
<text text-anchor="start" x="3078" y="-85.5" font-family="Helvetica,sans-Serif" font-size="10.00">src/libs/vpatterndb</text>
<text text-anchor="middle" x="3125" y="-74.5" font-family="Helvetica,sans-Serif" font-size="10.00">/vtranslatevars.cpp</text>
</a>
</g>
</g>
<!-- Node15&#45;&gt;Node36 -->
<g id="edge36" class="edge">
<title>Node15&#45;&gt;Node36</title>
<path fill="none" stroke="midnightblue" d="M3537.76,-144.38C3449.53,-134.58 3312.2,-118 3194,-98 3189.53,-97.24 3184.92,-96.4 3180.29,-95.52"/>
<polygon fill="midnightblue" stroke="midnightblue" points="3537.42,-147.86 3547.74,-145.48 3538.19,-140.91 3537.42,-147.86"/>
</g>
<!-- Node37 -->
<g id="node32" class="node">
<title>Node37</title>
<g id="a_node32"><a xlink:href="../../df/dba/vpiecenode__p_8h.html" target="_top" xlink:title=" ">
<polygon fill="white" stroke="black" points="3361.5,-67.5 3361.5,-97.5 3468.5,-97.5 3468.5,-67.5 3361.5,-67.5"/>
<text text-anchor="start" x="3369.5" y="-85.5" font-family="Helvetica,sans-Serif" font-size="10.00">src/libs/vpatterndb</text>
<text text-anchor="middle" x="3415" y="-74.5" font-family="Helvetica,sans-Serif" font-size="10.00">/vpiecenode_p.h</text>
</a>
</g>
</g>
<!-- Node15&#45;&gt;Node37 -->
<g id="edge37" class="edge">
<title>Node15&#45;&gt;Node37</title>
<path fill="none" stroke="midnightblue" d="M3593.24,-142.22C3555.87,-129.91 3497.24,-110.59 3457.51,-97.51"/>
<polygon fill="midnightblue" stroke="midnightblue" points="3592.59,-145.69 3603.19,-145.5 3594.78,-139.04 3592.59,-145.69"/>
</g>
<!-- Node39 -->
<g id="node34" class="node">
<title>Node39</title>
<g id="a_node34"><a xlink:href="../../df/d40/export__format__combobox_8cpp.html" target="_top" xlink:title=" ">
<polygon fill="white" stroke="black" points="3486.5,-67.5 3486.5,-97.5 3619.5,-97.5 3619.5,-67.5 3486.5,-67.5"/>
<text text-anchor="start" x="3494.5" y="-85.5" font-family="Helvetica,sans-Serif" font-size="10.00">src/libs/vwidgets/export</text>
<text text-anchor="middle" x="3553" y="-74.5" font-family="Helvetica,sans-Serif" font-size="10.00">_format_combobox.cpp</text>
</a>
</g>
</g>
<!-- Node15&#45;&gt;Node39 -->
<g id="edge39" class="edge">
<title>Node15&#45;&gt;Node39</title>
<path fill="none" stroke="midnightblue" d="M3612.23,-138.44C3599.07,-126.23 3580.91,-109.39 3568.17,-97.58"/>
<polygon fill="midnightblue" stroke="midnightblue" points="3609.97,-141.12 3619.68,-145.36 3614.73,-135.99 3609.97,-141.12"/>
</g>
<!-- Node40 -->
<g id="node35" class="node">
<title>Node40</title>
<g id="a_node35"><a xlink:href="../../d3/d4f/mouse__coordinates_8cpp.html" target="_top" xlink:title=" ">
<polygon fill="white" stroke="black" points="3638,-67.5 3638,-97.5 3772,-97.5 3772,-67.5 3638,-67.5"/>
<text text-anchor="start" x="3646" y="-85.5" font-family="Helvetica,sans-Serif" font-size="10.00">src/libs/vwidgets/mouse</text>
<text text-anchor="middle" x="3705" y="-74.5" font-family="Helvetica,sans-Serif" font-size="10.00">_coordinates.cpp</text>
</a>
</g>
</g>
<!-- Node15&#45;&gt;Node40 -->
<g id="edge40" class="edge">
<title>Node15&#45;&gt;Node40</title>
<path fill="none" stroke="midnightblue" d="M3645.77,-138.44C3658.93,-126.23 3677.09,-109.39 3689.83,-97.58"/>
<polygon fill="midnightblue" stroke="midnightblue" points="3643.27,-135.99 3638.32,-145.36 3648.03,-141.12 3643.27,-135.99"/>
</g>
<!-- Node41 -->
<g id="node36" class="node">
<title>Node41</title>
<g id="a_node36"><a xlink:href="../../d2/d28/page__format__combobox_8cpp.html" target="_top" xlink:title=" ">
<polygon fill="white" stroke="black" points="3790.5,-67.5 3790.5,-97.5 3921.5,-97.5 3921.5,-67.5 3790.5,-67.5"/>
<text text-anchor="start" x="3798.5" y="-85.5" font-family="Helvetica,sans-Serif" font-size="10.00">src/libs/vwidgets/page</text>
<text text-anchor="middle" x="3856" y="-74.5" font-family="Helvetica,sans-Serif" font-size="10.00">_format_combobox.cpp</text>
</a>
</g>
</g>
<!-- Node15&#45;&gt;Node41 -->
<g id="edge41" class="edge">
<title>Node15&#45;&gt;Node41</title>
<path fill="none" stroke="midnightblue" d="M3666.17,-142.46C3705.78,-130.15 3768.5,-110.68 3810.9,-97.51"/>
<polygon fill="midnightblue" stroke="midnightblue" points="3664.89,-139.19 3656.38,-145.5 3666.97,-145.87 3664.89,-139.19"/>
</g>
<!-- Node42 -->
<g id="node37" class="node">
<title>Node42</title>
<g id="a_node37"><a xlink:href="../../d7/d1b/pen__toolbar_8cpp.html" target="_top" xlink:title=" ">
<polygon fill="white" stroke="black" points="3939.5,-67.5 3939.5,-97.5 4058.5,-97.5 4058.5,-67.5 3939.5,-67.5"/>
<text text-anchor="start" x="3947.5" y="-85.5" font-family="Helvetica,sans-Serif" font-size="10.00">src/libs/vwidgets/pen</text>
<text text-anchor="middle" x="3999" y="-74.5" font-family="Helvetica,sans-Serif" font-size="10.00">_toolbar.cpp</text>
</a>
</g>
</g>
<!-- Node15&#45;&gt;Node42 -->
<g id="edge42" class="edge">
<title>Node15&#45;&gt;Node42</title>
<path fill="none" stroke="midnightblue" d="M3686.91,-143.64C3747.57,-132.69 3845.59,-114.72 3930,-98 3933,-97.41 3936.08,-96.79 3939.18,-96.16"/>
<polygon fill="midnightblue" stroke="midnightblue" points="3685.99,-140.25 3676.77,-145.47 3687.23,-147.14 3685.99,-140.25"/>
</g>
<!-- Node43 -->
<g id="node38" class="node">
<title>Node43</title>
<g id="a_node38"><a xlink:href="../../d8/d76/scene__rect_8cpp.html" target="_top" xlink:title=" ">
<polygon fill="white" stroke="black" points="4077,-67.5 4077,-97.5 4207,-97.5 4207,-67.5 4077,-67.5"/>
<text text-anchor="start" x="4085" y="-85.5" font-family="Helvetica,sans-Serif" font-size="10.00">src/libs/vwidgets/scene</text>
<text text-anchor="middle" x="4142" y="-74.5" font-family="Helvetica,sans-Serif" font-size="10.00">_rect.cpp</text>
</a>
</g>
</g>
<!-- Node15&#45;&gt;Node43 -->
<g id="edge43" class="edge">
<title>Node15&#45;&gt;Node43</title>
<path fill="none" stroke="midnightblue" d="M3717.56,-144.36C3806.2,-134.31 3946.38,-117.35 4067,-98 4070.14,-97.5 4073.36,-96.96 4076.6,-96.4"/>
<polygon fill="midnightblue" stroke="midnightblue" points="3717.09,-140.89 3707.55,-145.49 3717.88,-147.84 3717.09,-140.89"/>
</g>
<!-- Node44 -->
<g id="node39" class="node">
<title>Node44</title>
<g id="a_node39"><a xlink:href="../../dd/df6/vabstractmainwindow_8cpp.html" target="_top" xlink:title=" ">
<polygon fill="white" stroke="black" points="4225.5,-73 4225.5,-92 4454.5,-92 4454.5,-73 4225.5,-73"/>
<text text-anchor="middle" x="4340" y="-80" font-family="Helvetica,sans-Serif" font-size="10.00">src/libs/vwidgets/vabstractmainwindow.cpp</text>
</a>
</g>
</g>
<!-- Node15&#45;&gt;Node44 -->
<g id="edge44" class="edge">
<title>Node15&#45;&gt;Node44</title>
<path fill="none" stroke="midnightblue" d="M3734.97,-144.57C3852.58,-133.95 4047.96,-115.84 4216,-98 4233.35,-96.16 4252.05,-94.04 4269.54,-92"/>
<polygon fill="midnightblue" stroke="midnightblue" points="3734.54,-141.1 3724.89,-145.48 3735.17,-148.07 3734.54,-141.1"/>
</g>
<!-- Node45 -->
<g id="node40" class="node">
<title>Node45</title>
<g id="a_node40"><a xlink:href="../../de/d45/vcontrolpointspline_8cpp.html" target="_top" xlink:title=" ">
<polygon fill="white" stroke="black" points="4472.5,-73 4472.5,-92 4687.5,-92 4687.5,-73 4472.5,-73"/>
<text text-anchor="middle" x="4580" y="-80" font-family="Helvetica,sans-Serif" font-size="10.00">src/libs/vwidgets/vcontrolpointspline.cpp</text>
</a>
</g>
</g>
<!-- Node15&#45;&gt;Node45 -->
<g id="edge45" class="edge">
<title>Node15&#45;&gt;Node45</title>
<path fill="none" stroke="midnightblue" d="M3736.99,-148.69C3896.13,-140.43 4202.9,-122.83 4463,-98 4480.42,-96.34 4499.26,-94.17 4516.62,-92.02"/>
<polygon fill="midnightblue" stroke="midnightblue" points="3736.53,-145.21 3726.73,-149.22 3736.89,-152.2 3736.53,-145.21"/>
</g>
<!-- Node46 -->
<g id="node41" class="node">
<title>Node46</title>
<g id="a_node41"><a xlink:href="../../d1/d90/vgrainlineitem_8cpp.html" target="_top" xlink:title=" ">
<polygon fill="white" stroke="black" points="4705.5,-73 4705.5,-92 4898.5,-92 4898.5,-73 4705.5,-73"/>
<text text-anchor="middle" x="4802" y="-80" font-family="Helvetica,sans-Serif" font-size="10.00">src/libs/vwidgets/vgrainlineitem.cpp</text>
</a>
</g>
</g>
<!-- Node15&#45;&gt;Node46 -->
<g id="edge46" class="edge">
<title>Node15&#45;&gt;Node46</title>
<path fill="none" stroke="midnightblue" d="M3736.79,-151.32C3929.59,-145.86 4346.07,-131.06 4696,-98 4712.37,-96.45 4730.08,-94.24 4746.26,-92.01"/>
<polygon fill="midnightblue" stroke="midnightblue" points="3736.56,-147.82 3726.66,-151.6 3736.76,-154.82 3736.56,-147.82"/>
</g>
<!-- Node47 -->
<g id="node42" class="node">
<title>Node47</title>
<g id="a_node42"><a xlink:href="../../de/dec/vgraphicssimpletextitem_8cpp.html" target="_top" xlink:title=" ">
<polygon fill="white" stroke="black" points="4917,-73 4917,-92 5161,-92 5161,-73 4917,-73"/>
<text text-anchor="middle" x="5039" y="-80" font-family="Helvetica,sans-Serif" font-size="10.00">src/libs/vwidgets/vgraphicssimpletextitem.cpp</text>
</a>
</g>
</g>
<!-- Node15&#45;&gt;Node47 -->
<g id="edge47" class="edge">
<title>Node15&#45;&gt;Node47</title>
<path fill="none" stroke="midnightblue" d="M3736.79,-151.66C3956.95,-146.37 4474.04,-131.23 4907,-98 4927.23,-96.45 4949.15,-94.25 4969.2,-92.03"/>
<polygon fill="midnightblue" stroke="midnightblue" points="3736.44,-148.17 3726.53,-151.91 3736.61,-155.17 3736.44,-148.17"/>
</g>
<!-- Node48 -->
<g id="node43" class="node">
<title>Node48</title>
<g id="a_node43"><a xlink:href="../../d1/d88/vmaingraphicsscene_8cpp.html" target="_top" xlink:title=" ">
<polygon fill="white" stroke="black" points="5179,-73 5179,-92 5401,-92 5401,-73 5179,-73"/>
<text text-anchor="middle" x="5290" y="-80" font-family="Helvetica,sans-Serif" font-size="10.00">src/libs/vwidgets/vmaingraphicsscene.cpp</text>
</a>
</g>
</g>
<!-- Node15&#45;&gt;Node48 -->
<g id="edge48" class="edge">
<title>Node15&#45;&gt;Node48</title>
<path fill="none" stroke="midnightblue" d="M3736.75,-153.19C3988.16,-150.63 4632.99,-140.13 5170,-98 5188.83,-96.52 5209.25,-94.29 5227.82,-92.02"/>
<polygon fill="midnightblue" stroke="midnightblue" points="3736.49,-149.69 3726.52,-153.29 3736.56,-156.69 3736.49,-149.69"/>
</g>
<!-- Node49 -->
<g id="node44" class="node">
<title>Node49</title>
<g id="a_node44"><a xlink:href="../../d0/d5d/vscenepoint_8cpp.html" target="_top" xlink:title=" ">
<polygon fill="white" stroke="black" points="5419.5,-73 5419.5,-92 5600.5,-92 5600.5,-73 5419.5,-73"/>
<text text-anchor="middle" x="5510" y="-80" font-family="Helvetica,sans-Serif" font-size="10.00">src/libs/vwidgets/vscenepoint.cpp</text>
</a>
</g>
</g>
<!-- Node15&#45;&gt;Node49 -->
<g id="edge49" class="edge">
<title>Node15&#45;&gt;Node49</title>
<path fill="none" stroke="midnightblue" d="M3736.92,-152.2C4070.52,-146.39 5082.41,-126.81 5410,-98 5425.99,-96.59 5443.32,-94.34 5459,-92.03"/>
<polygon fill="midnightblue" stroke="midnightblue" points="3736.7,-148.7 3726.77,-152.38 3736.83,-155.7 3736.7,-148.7"/>
</g>
<!-- Node24&#45;&gt;Node25 -->
<g id="edge23" class="edge">
<title>Node24&#45;&gt;Node25</title>
<path fill="none" stroke="midnightblue" d="M3275.72,-58.87C3269.79,-49.46 3263.09,-38.83 3257.88,-30.58"/>
<polygon fill="midnightblue" stroke="midnightblue" points="3272.81,-60.81 3281.1,-67.4 3278.73,-57.07 3272.81,-60.81"/>
</g>
<!-- Node37&#45;&gt;Node38 -->
<g id="edge38" class="edge">
<title>Node37&#45;&gt;Node38</title>
<path fill="none" stroke="midnightblue" d="M3478.96,-66.94C3763.99,-31.09 4597.83,-19.54 4817.49,-17.05"/>
<polygon fill="midnightblue" stroke="midnightblue" points="3478.12,-63.52 3468.65,-68.28 3479.02,-70.46 3478.12,-63.52"/>
</g>
</g>
</svg>
