<?xml version="1.0" encoding="UTF-8" standalone="no"?>
<!DOCTYPE svg PUBLIC "-//W3C//DTD SVG 1.1//EN"
 "http://www.w3.org/Graphics/SVG/1.1/DTD/svg11.dtd">
<!-- Generated by graphviz version 2.43.0 (0)
 -->
<!-- Title: src/app/seamly2d/core/vcmdexport.h Pages: 1 -->
<svg width="4020pt" height="173pt"
 viewBox="0.00 0.00 4020.00 173.00" xmlns="http://www.w3.org/2000/svg" xmlns:xlink="http://www.w3.org/1999/xlink">
<g id="graph0" class="graph" transform="scale(1 1) rotate(0) translate(4 169)">
<title>src/app/seamly2d/core/vcmdexport.h</title>
<polygon fill="white" stroke="transparent" points="-4,4 -4,-169 4016,-169 4016,4 -4,4"/>
<!-- Node1 -->
<g id="node1" class="node">
<title>Node1</title>
<g id="a_node1"><a xlink:title=" ">
<polygon fill="#bfbfbf" stroke="black" points="1687,-134.5 1687,-164.5 1814,-164.5 1814,-134.5 1687,-134.5"/>
<text text-anchor="start" x="1695" y="-152.5" font-family="Helvetica,sans-Serif" font-size="10.00">src/app/seamly2d/core</text>
<text text-anchor="middle" x="1750.5" y="-141.5" font-family="Helvetica,sans-Serif" font-size="10.00">/vcmdexport.h</text>
</a>
</g>
</g>
<!-- Node2 -->
<g id="node2" class="node">
<title>Node2</title>
<g id="a_node2"><a xlink:href="../../d9/d02/vapplication_8h.html" target="_top" xlink:title=" ">
<polygon fill="white" stroke="black" points="1687,-67.5 1687,-97.5 1814,-97.5 1814,-67.5 1687,-67.5"/>
<text text-anchor="start" x="1695" y="-85.5" font-family="Helvetica,sans-Serif" font-size="10.00">src/app/seamly2d/core</text>
<text text-anchor="middle" x="1750.5" y="-74.5" font-family="Helvetica,sans-Serif" font-size="10.00">/vapplication.h</text>
</a>
</g>
</g>
<!-- Node1&#45;&gt;Node2 -->
<g id="edge1" class="edge">
<title>Node1&#45;&gt;Node2</title>
<path fill="none" stroke="midnightblue" d="M1750.5,-124.11C1750.5,-115.15 1750.5,-105.32 1750.5,-97.58"/>
<polygon fill="midnightblue" stroke="midnightblue" points="1747,-124.4 1750.5,-134.4 1754,-124.4 1747,-124.4"/>
</g>
<!-- Node25 -->
<g id="node25" class="node">
<title>Node25</title>
<g id="a_node25"><a xlink:href="../../df/d9b/vcmdexport_8cpp.html" target="_top" xlink:title=" ">
<polygon fill="white" stroke="black" points="1832,-67.5 1832,-97.5 1959,-97.5 1959,-67.5 1832,-67.5"/>
<text text-anchor="start" x="1840" y="-85.5" font-family="Helvetica,sans-Serif" font-size="10.00">src/app/seamly2d/core</text>
<text text-anchor="middle" x="1895.5" y="-74.5" font-family="Helvetica,sans-Serif" font-size="10.00">/vcmdexport.cpp</text>
</a>
</g>
</g>
<!-- Node1&#45;&gt;Node25 -->
<g id="edge24" class="edge">
<title>Node1&#45;&gt;Node25</title>
<path fill="none" stroke="midnightblue" d="M1791.17,-130.27C1814.26,-119.92 1842.74,-107.15 1864.1,-97.58"/>
<polygon fill="midnightblue" stroke="midnightblue" points="1789.66,-127.11 1781.96,-134.4 1792.52,-133.5 1789.66,-127.11"/>
</g>
<!-- Node26 -->
<g id="node26" class="node">
<title>Node26</title>
<g id="a_node26"><a xlink:href="../../d9/d53/mainwindow_8h.html" target="_top" xlink:title=" ">
<polygon fill="white" stroke="black" points="226.5,-73 226.5,-92 402.5,-92 402.5,-73 226.5,-73"/>
<text text-anchor="middle" x="314.5" y="-80" font-family="Helvetica,sans-Serif" font-size="10.00">src/app/seamly2d/mainwindow.h</text>
</a>
</g>
</g>
<!-- Node1&#45;&gt;Node26 -->
<g id="edge25" class="edge">
<title>Node1&#45;&gt;Node26</title>
<path fill="none" stroke="midnightblue" d="M1676.85,-145.17C1434.84,-134.21 664.72,-99.35 402.74,-87.49"/>
<polygon fill="midnightblue" stroke="midnightblue" points="1676.8,-148.67 1686.94,-145.62 1677.11,-141.67 1676.8,-148.67"/>
</g>
<!-- Node3 -->
<g id="node3" class="node">
<title>Node3</title>
<g id="a_node3"><a xlink:href="../../dd/db4/abstractlayout__dialog_8cpp.html" target="_top" xlink:title=" ">
<polygon fill="white" stroke="black" points="2221.5,-0.5 2221.5,-30.5 2367.5,-30.5 2367.5,-0.5 2221.5,-0.5"/>
<text text-anchor="start" x="2229.5" y="-18.5" font-family="Helvetica,sans-Serif" font-size="10.00">src/app/seamly2d/dialogs</text>
<text text-anchor="middle" x="2294.5" y="-7.5" font-family="Helvetica,sans-Serif" font-size="10.00">/abstractlayout_dialog.cpp</text>
</a>
</g>
</g>
<!-- Node2&#45;&gt;Node3 -->
<g id="edge2" class="edge">
<title>Node2&#45;&gt;Node3</title>
<path fill="none" stroke="midnightblue" d="M1824.08,-67.03C1997.04,-42.49 2043.61,-53.71 2212.5,-31 2215.37,-30.61 2218.28,-30.2 2221.23,-29.77"/>
<polygon fill="midnightblue" stroke="midnightblue" points="1823.53,-63.57 1814.13,-68.46 1824.53,-70.5 1823.53,-63.57"/>
</g>
<!-- Node4 -->
<g id="node4" class="node">
<title>Node4</title>
<g id="a_node4"><a xlink:href="../../d7/dfa/calculator__dialog_8cpp.html" target="_top" xlink:title=" ">
<polygon fill="white" stroke="black" points="2386,-0.5 2386,-30.5 2527,-30.5 2527,-0.5 2386,-0.5"/>
<text text-anchor="start" x="2394" y="-18.5" font-family="Helvetica,sans-Serif" font-size="10.00">src/app/seamly2d/dialogs</text>
<text text-anchor="middle" x="2456.5" y="-7.5" font-family="Helvetica,sans-Serif" font-size="10.00">/calculator_dialog.cpp</text>
</a>
</g>
</g>
<!-- Node2&#45;&gt;Node4 -->
<g id="edge3" class="edge">
<title>Node2&#45;&gt;Node4</title>
<path fill="none" stroke="midnightblue" d="M1824.05,-67.06C2069.43,-35.62 2135.26,-60.62 2376.5,-31 2379.58,-30.62 2382.73,-30.2 2385.9,-29.75"/>
<polygon fill="midnightblue" stroke="midnightblue" points="1823.59,-63.59 1814.12,-68.35 1824.49,-70.53 1823.59,-63.59"/>
</g>
<!-- Node5 -->
<g id="node5" class="node">
<title>Node5</title>
<g id="a_node5"><a xlink:href="../../d2/d2d/preferencesconfigurationpage_8cpp.html" target="_top" xlink:title=" ">
<polygon fill="white" stroke="black" points="2545,-0.5 2545,-30.5 2792,-30.5 2792,-0.5 2545,-0.5"/>
<text text-anchor="start" x="2553" y="-18.5" font-family="Helvetica,sans-Serif" font-size="10.00">src/app/seamly2d/dialogs</text>
<text text-anchor="middle" x="2668.5" y="-7.5" font-family="Helvetica,sans-Serif" font-size="10.00">/configpages/preferencesconfigurationpage.cpp</text>
</a>
</g>
</g>
<!-- Node2&#45;&gt;Node5 -->
<g id="edge4" class="edge">
<title>Node2&#45;&gt;Node5</title>
<path fill="none" stroke="midnightblue" d="M1824.48,-67.02C2140.17,-28.59 2223.62,-56.06 2536.5,-31 2539.26,-30.78 2542.05,-30.55 2544.86,-30.31"/>
<polygon fill="midnightblue" stroke="midnightblue" points="1823.61,-63.6 1814.11,-68.3 1824.47,-70.55 1823.61,-63.6"/>
</g>
<!-- Node6 -->
<g id="node6" class="node">
<title>Node6</title>
<g id="a_node6"><a xlink:href="../../d9/d70/preferencesgraphicsviewpage_8cpp.html" target="_top" xlink:title=" ">
<polygon fill="white" stroke="black" points="2810.5,-0.5 2810.5,-30.5 3058.5,-30.5 3058.5,-0.5 2810.5,-0.5"/>
<text text-anchor="start" x="2818.5" y="-18.5" font-family="Helvetica,sans-Serif" font-size="10.00">src/app/seamly2d/dialogs</text>
<text text-anchor="middle" x="2934.5" y="-7.5" font-family="Helvetica,sans-Serif" font-size="10.00">/configpages/preferencesgraphicsviewpage.cpp</text>
</a>
</g>
</g>
<!-- Node2&#45;&gt;Node6 -->
<g id="edge5" class="edge">
<title>Node2&#45;&gt;Node6</title>
<path fill="none" stroke="midnightblue" d="M1824.07,-67.09C2257.23,-17.16 2370.97,-62.35 2801.5,-31 2804.4,-30.79 2807.33,-30.56 2810.28,-30.33"/>
<polygon fill="midnightblue" stroke="midnightblue" points="1823.64,-63.61 1814.11,-68.25 1824.44,-70.57 1823.64,-63.61"/>
</g>
<!-- Node7 -->
<g id="node7" class="node">
<title>Node7</title>
<g id="a_node7"><a xlink:href="../../d3/dd8/vapplication_8cpp.html" target="_top" xlink:title=" ">
<polygon fill="white" stroke="black" points="0,-0.5 0,-30.5 127,-30.5 127,-0.5 0,-0.5"/>
<text text-anchor="start" x="8" y="-18.5" font-family="Helvetica,sans-Serif" font-size="10.00">src/app/seamly2d/core</text>
<text text-anchor="middle" x="63.5" y="-7.5" font-family="Helvetica,sans-Serif" font-size="10.00">/vapplication.cpp</text>
</a>
</g>
</g>
<!-- Node2&#45;&gt;Node7 -->
<g id="edge6" class="edge">
<title>Node2&#45;&gt;Node7</title>
<path fill="none" stroke="midnightblue" d="M1676.53,-80.83C1401.77,-78.1 440.03,-66.17 135.5,-31 132.71,-30.68 129.87,-30.3 127.01,-29.89"/>
<polygon fill="midnightblue" stroke="midnightblue" points="1676.75,-84.33 1686.79,-80.93 1676.82,-77.34 1676.75,-84.33"/>
</g>
<!-- Node8 -->
<g id="node8" class="node">
<title>Node8</title>
<g id="a_node8"><a xlink:href="../../dc/d20/preferencespathpage_8cpp.html" target="_top" xlink:title=" ">
<polygon fill="white" stroke="black" points="3077,-0.5 3077,-30.5 3282,-30.5 3282,-0.5 3077,-0.5"/>
<text text-anchor="start" x="3085" y="-18.5" font-family="Helvetica,sans-Serif" font-size="10.00">src/app/seamly2d/dialogs</text>
<text text-anchor="middle" x="3179.5" y="-7.5" font-family="Helvetica,sans-Serif" font-size="10.00">/configpages/preferencespathpage.cpp</text>
</a>
</g>
</g>
<!-- Node2&#45;&gt;Node8 -->
<g id="edge7" class="edge">
<title>Node2&#45;&gt;Node8</title>
<path fill="none" stroke="midnightblue" d="M1824.29,-67.07C2374.88,-5.75 2519.46,-74.3 3067.5,-31 3070.53,-30.76 3073.6,-30.5 3076.7,-30.21"/>
<polygon fill="midnightblue" stroke="midnightblue" points="1823.65,-63.62 1814.1,-68.22 1824.43,-70.58 1823.65,-63.62"/>
</g>
<!-- Node9 -->
<g id="node9" class="node">
<title>Node9</title>
<g id="a_node9"><a xlink:href="../../dc/d63/preferencespatternpage_8cpp.html" target="_top" xlink:title=" ">
<polygon fill="white" stroke="black" points="3300.5,-0.5 3300.5,-30.5 3518.5,-30.5 3518.5,-0.5 3300.5,-0.5"/>
<text text-anchor="start" x="3308.5" y="-18.5" font-family="Helvetica,sans-Serif" font-size="10.00">src/app/seamly2d/dialogs</text>
<text text-anchor="middle" x="3409.5" y="-7.5" font-family="Helvetica,sans-Serif" font-size="10.00">/configpages/preferencespatternpage.cpp</text>
</a>
</g>
</g>
<!-- Node2&#45;&gt;Node9 -->
<g id="edge8" class="edge">
<title>Node2&#45;&gt;Node9</title>
<path fill="none" stroke="midnightblue" d="M1824.18,-67.09C2473.91,3.98 2643.95,-78.61 3291.5,-31 3294.38,-30.79 3297.3,-30.56 3300.25,-30.31"/>
<polygon fill="midnightblue" stroke="midnightblue" points="1823.66,-63.63 1814.1,-68.2 1824.42,-70.58 1823.66,-63.63"/>
</g>
<!-- Node10 -->
<g id="node10" class="node">
<title>Node10</title>
<g id="a_node10"><a xlink:href="../../dd/dc2/decimalchart__dialog_8cpp.html" target="_top" xlink:title=" ">
<polygon fill="white" stroke="black" points="3537,-0.5 3537,-30.5 3678,-30.5 3678,-0.5 3537,-0.5"/>
<text text-anchor="start" x="3545" y="-18.5" font-family="Helvetica,sans-Serif" font-size="10.00">src/app/seamly2d/dialogs</text>
<text text-anchor="middle" x="3607.5" y="-7.5" font-family="Helvetica,sans-Serif" font-size="10.00">/decimalchart_dialog.cpp</text>
</a>
</g>
</g>
<!-- Node2&#45;&gt;Node10 -->
<g id="edge9" class="edge">
<title>Node2&#45;&gt;Node10</title>
<path fill="none" stroke="midnightblue" d="M1824.12,-67.1C2578.28,14.04 2777.11,-106.45 3527.5,-31 3530.59,-30.69 3533.74,-30.32 3536.92,-29.92"/>
<polygon fill="midnightblue" stroke="midnightblue" points="1823.66,-63.63 1814.1,-68.19 1824.42,-70.59 1823.66,-63.63"/>
</g>
<!-- Node11 -->
<g id="node11" class="node">
<title>Node11</title>
<g id="a_node11"><a xlink:href="../../d6/d89/dialoglayoutprogress_8cpp.html" target="_top" xlink:title=" ">
<polygon fill="white" stroke="black" points="3696,-0.5 3696,-30.5 3839,-30.5 3839,-0.5 3696,-0.5"/>
<text text-anchor="start" x="3704" y="-18.5" font-family="Helvetica,sans-Serif" font-size="10.00">src/app/seamly2d/dialogs</text>
<text text-anchor="middle" x="3767.5" y="-7.5" font-family="Helvetica,sans-Serif" font-size="10.00">/dialoglayoutprogress.cpp</text>
</a>
</g>
</g>
<!-- Node2&#45;&gt;Node11 -->
<g id="edge10" class="edge">
<title>Node2&#45;&gt;Node11</title>
<path fill="none" stroke="midnightblue" d="M1824.14,-67.1C2649.05,20.98 2866.3,-112.82 3687.5,-31 3690.17,-30.73 3692.88,-30.43 3695.62,-30.09"/>
<polygon fill="midnightblue" stroke="midnightblue" points="1823.67,-63.63 1814.1,-68.18 1824.42,-70.59 1823.67,-63.63"/>
</g>
<!-- Node12 -->
<g id="node12" class="node">
<title>Node12</title>
<g id="a_node12"><a xlink:href="../../d5/d18/dialogpatternproperties_8cpp.html" target="_top" xlink:title=" ">
<polygon fill="white" stroke="black" points="3857,-0.5 3857,-30.5 4012,-30.5 4012,-0.5 3857,-0.5"/>
<text text-anchor="start" x="3865" y="-18.5" font-family="Helvetica,sans-Serif" font-size="10.00">src/app/seamly2d/dialogs</text>
<text text-anchor="middle" x="3934.5" y="-7.5" font-family="Helvetica,sans-Serif" font-size="10.00">/dialogpatternproperties.cpp</text>
</a>
</g>
</g>
<!-- Node2&#45;&gt;Node12 -->
<g id="edge11" class="edge">
<title>Node2&#45;&gt;Node12</title>
<path fill="none" stroke="midnightblue" d="M1824.34,-67.08C2720.28,27.99 2955.59,-113.74 3848.5,-31 3851.21,-30.75 3853.97,-30.46 3856.75,-30.14"/>
<polygon fill="midnightblue" stroke="midnightblue" points="1823.67,-63.63 1814.1,-68.17 1824.41,-70.59 1823.67,-63.63"/>
</g>
<!-- Node13 -->
<g id="node13" class="node">
<title>Node13</title>
<g id="a_node13"><a xlink:href="../../d5/dc5/dialogpreferences_8cpp.html" target="_top" xlink:title=" ">
<polygon fill="white" stroke="black" points="521,-0.5 521,-30.5 662,-30.5 662,-0.5 521,-0.5"/>
<text text-anchor="start" x="529" y="-18.5" font-family="Helvetica,sans-Serif" font-size="10.00">src/app/seamly2d/dialogs</text>
<text text-anchor="middle" x="591.5" y="-7.5" font-family="Helvetica,sans-Serif" font-size="10.00">/dialogpreferences.cpp</text>
</a>
</g>
</g>
<!-- Node2&#45;&gt;Node13 -->
<g id="edge12" class="edge">
<title>Node2&#45;&gt;Node13</title>
<path fill="none" stroke="midnightblue" d="M1676.59,-81.41C1501.44,-80.46 1047.62,-73.7 671.5,-31 668.41,-30.65 665.27,-30.25 662.1,-29.82"/>
<polygon fill="midnightblue" stroke="midnightblue" points="1676.7,-84.91 1686.72,-81.46 1676.74,-77.91 1676.7,-84.91"/>
</g>
<!-- Node14 -->
<g id="node14" class="node">
<title>Node14</title>
<g id="a_node14"><a xlink:href="../../dd/d64/dialogaboutapp_8cpp.html" target="_top" xlink:title=" ">
<polygon fill="white" stroke="black" points="680,-0.5 680,-30.5 821,-30.5 821,-0.5 680,-0.5"/>
<text text-anchor="start" x="688" y="-18.5" font-family="Helvetica,sans-Serif" font-size="10.00">src/app/seamly2d/dialogs</text>
<text text-anchor="middle" x="750.5" y="-7.5" font-family="Helvetica,sans-Serif" font-size="10.00">/dialogaboutapp.cpp</text>
</a>
</g>
</g>
<!-- Node2&#45;&gt;Node14 -->
<g id="edge13" class="edge">
<title>Node2&#45;&gt;Node14</title>
<path fill="none" stroke="midnightblue" d="M1676.53,-80.56C1519.93,-77.88 1143.62,-67.83 830.5,-31 827.42,-30.64 824.27,-30.23 821.1,-29.79"/>
<polygon fill="midnightblue" stroke="midnightblue" points="1676.91,-84.07 1686.97,-80.73 1677.03,-77.07 1676.91,-84.07"/>
</g>
<!-- Node15 -->
<g id="node15" class="node">
<title>Node15</title>
<g id="a_node15"><a xlink:href="../../d2/d00/vtooloptionspropertybrowser_8cpp.html" target="_top" xlink:title=" ">
<polygon fill="white" stroke="black" points="839.5,-0.5 839.5,-30.5 1019.5,-30.5 1019.5,-0.5 839.5,-0.5"/>
<text text-anchor="start" x="847.5" y="-18.5" font-family="Helvetica,sans-Serif" font-size="10.00">src/app/seamly2d/core</text>
<text text-anchor="middle" x="929.5" y="-7.5" font-family="Helvetica,sans-Serif" font-size="10.00">/vtooloptionspropertybrowser.cpp</text>
</a>
</g>
</g>
<!-- Node2&#45;&gt;Node15 -->
<g id="edge14" class="edge">
<title>Node2&#45;&gt;Node15</title>
<path fill="none" stroke="midnightblue" d="M1676.41,-78.12C1545.57,-71.76 1265.16,-56.3 1029.5,-31 1026.27,-30.65 1022.99,-30.28 1019.68,-29.89"/>
<polygon fill="midnightblue" stroke="midnightblue" points="1676.55,-81.64 1686.7,-78.62 1676.88,-74.64 1676.55,-81.64"/>
</g>
<!-- Node16 -->
<g id="node16" class="node">
<title>Node16</title>
<g id="a_node16"><a xlink:href="../../dd/d54/export__layout__dialog_8cpp.html" target="_top" xlink:title=" ">
<polygon fill="white" stroke="black" points="1038,-0.5 1038,-30.5 1181,-30.5 1181,-0.5 1038,-0.5"/>
<text text-anchor="start" x="1046" y="-18.5" font-family="Helvetica,sans-Serif" font-size="10.00">src/app/seamly2d/dialogs</text>
<text text-anchor="middle" x="1109.5" y="-7.5" font-family="Helvetica,sans-Serif" font-size="10.00">/export_layout_dialog.cpp</text>
</a>
</g>
</g>
<!-- Node2&#45;&gt;Node16 -->
<g id="edge15" class="edge">
<title>Node2&#45;&gt;Node16</title>
<path fill="none" stroke="midnightblue" d="M1676.82,-76.91C1569.52,-69.76 1364.12,-54.32 1190.5,-31 1187.39,-30.58 1184.21,-30.13 1181,-29.65"/>
<polygon fill="midnightblue" stroke="midnightblue" points="1676.68,-80.41 1686.89,-77.58 1677.14,-73.43 1676.68,-80.41"/>
</g>
<!-- Node17 -->
<g id="node17" class="node">
<title>Node17</title>
<g id="a_node17"><a xlink:href="../../db/d5c/groups__widget_8cpp.html" target="_top" xlink:title=" ">
<polygon fill="white" stroke="black" points="1199,-0.5 1199,-30.5 1340,-30.5 1340,-0.5 1199,-0.5"/>
<text text-anchor="start" x="1207" y="-18.5" font-family="Helvetica,sans-Serif" font-size="10.00">src/app/seamly2d/dialogs</text>
<text text-anchor="middle" x="1269.5" y="-7.5" font-family="Helvetica,sans-Serif" font-size="10.00">/groups_widget.cpp</text>
</a>
</g>
</g>
<!-- Node2&#45;&gt;Node17 -->
<g id="edge16" class="edge">
<title>Node2&#45;&gt;Node17</title>
<path fill="none" stroke="midnightblue" d="M1676.76,-73.42C1596.19,-64.32 1463.4,-48.48 1349.5,-31 1346.43,-30.53 1343.3,-30.03 1340.14,-29.52"/>
<polygon fill="midnightblue" stroke="midnightblue" points="1676.48,-76.91 1686.8,-74.55 1677.26,-69.96 1676.48,-76.91"/>
</g>
<!-- Node18 -->
<g id="node18" class="node">
<title>Node18</title>
<g id="a_node18"><a xlink:href="../../d0/dfa/layoutsettings__dialog_8cpp.html" target="_top" xlink:title=" ">
<polygon fill="white" stroke="black" points="1358,-0.5 1358,-30.5 1503,-30.5 1503,-0.5 1358,-0.5"/>
<text text-anchor="start" x="1366" y="-18.5" font-family="Helvetica,sans-Serif" font-size="10.00">src/app/seamly2d/dialogs</text>
<text text-anchor="middle" x="1430.5" y="-7.5" font-family="Helvetica,sans-Serif" font-size="10.00">/layoutsettings_dialog.cpp</text>
</a>
</g>
</g>
<!-- Node2&#45;&gt;Node18 -->
<g id="edge17" class="edge">
<title>Node2&#45;&gt;Node18</title>
<path fill="none" stroke="midnightblue" d="M1676.81,-66.53C1623.44,-55.69 1551.79,-41.14 1499.53,-30.52"/>
<polygon fill="midnightblue" stroke="midnightblue" points="1676.4,-70.02 1686.9,-68.58 1677.79,-63.16 1676.4,-70.02"/>
</g>
<!-- Node19 -->
<g id="node19" class="node">
<title>Node19</title>
<g id="a_node19"><a xlink:href="../../d2/df4/show__info__dialog_8cpp.html" target="_top" xlink:title=" ">
<polygon fill="white" stroke="black" points="1521,-0.5 1521,-30.5 1662,-30.5 1662,-0.5 1521,-0.5"/>
<text text-anchor="start" x="1529" y="-18.5" font-family="Helvetica,sans-Serif" font-size="10.00">src/app/seamly2d/dialogs</text>
<text text-anchor="middle" x="1591.5" y="-7.5" font-family="Helvetica,sans-Serif" font-size="10.00">/show_info_dialog.cpp</text>
</a>
</g>
</g>
<!-- Node2&#45;&gt;Node19 -->
<g id="edge18" class="edge">
<title>Node2&#45;&gt;Node19</title>
<path fill="none" stroke="midnightblue" d="M1706.58,-63.54C1681.13,-53.14 1649.57,-40.24 1625.93,-30.58"/>
<polygon fill="midnightblue" stroke="midnightblue" points="1705.42,-66.85 1716,-67.4 1708.07,-60.37 1705.42,-66.85"/>
</g>
<!-- Node20 -->
<g id="node20" class="node">
<title>Node20</title>
<g id="a_node20"><a xlink:href="../../dc/d14/app_2seamly2d_2main_8cpp.html" target="_top" xlink:title=" ">
<polygon fill="white" stroke="black" points="145,-6 145,-25 296,-25 296,-6 145,-6"/>
<text text-anchor="middle" x="220.5" y="-13" font-family="Helvetica,sans-Serif" font-size="10.00">src/app/seamly2d/main.cpp</text>
</a>
</g>
</g>
<!-- Node2&#45;&gt;Node20 -->
<g id="edge19" class="edge">
<title>Node2&#45;&gt;Node20</title>
<path fill="none" stroke="midnightblue" d="M1676.34,-80.22C1420.47,-75.61 575.51,-58.62 305.5,-31 291.8,-29.6 276.97,-27.33 263.59,-25"/>
<polygon fill="midnightblue" stroke="midnightblue" points="1676.58,-83.73 1686.64,-80.41 1676.7,-76.73 1676.58,-83.73"/>
</g>
<!-- Node21 -->
<g id="node21" class="node">
<title>Node21</title>
<g id="a_node21"><a xlink:href="../../dd/d84/shortcuts__dialog_8cpp.html" target="_top" xlink:title=" ">
<polygon fill="white" stroke="black" points="1680,-0.5 1680,-30.5 1821,-30.5 1821,-0.5 1680,-0.5"/>
<text text-anchor="start" x="1688" y="-18.5" font-family="Helvetica,sans-Serif" font-size="10.00">src/app/seamly2d/dialogs</text>
<text text-anchor="middle" x="1750.5" y="-7.5" font-family="Helvetica,sans-Serif" font-size="10.00">/shortcuts_dialog.cpp</text>
</a>
</g>
</g>
<!-- Node2&#45;&gt;Node21 -->
<g id="edge20" class="edge">
<title>Node2&#45;&gt;Node21</title>
<path fill="none" stroke="midnightblue" d="M1750.5,-57.11C1750.5,-48.15 1750.5,-38.32 1750.5,-30.58"/>
<polygon fill="midnightblue" stroke="midnightblue" points="1747,-57.4 1750.5,-67.4 1754,-57.4 1747,-57.4"/>
</g>
<!-- Node22 -->
<g id="node22" class="node">
<title>Node22</title>
<g id="a_node22"><a xlink:href="../../d8/de8/mainwindowsnogui_8cpp.html" target="_top" xlink:title=" ">
<polygon fill="white" stroke="black" points="1839,-6 1839,-25 2060,-25 2060,-6 1839,-6"/>
<text text-anchor="middle" x="1949.5" y="-13" font-family="Helvetica,sans-Serif" font-size="10.00">src/app/seamly2d/mainwindowsnogui.cpp</text>
</a>
</g>
</g>
<!-- Node2&#45;&gt;Node22 -->
<g id="edge21" class="edge">
<title>Node2&#45;&gt;Node22</title>
<path fill="none" stroke="midnightblue" d="M1803.25,-64.27C1842.03,-51.6 1893.06,-34.93 1923.46,-25.01"/>
<polygon fill="midnightblue" stroke="midnightblue" points="1802.1,-60.96 1793.68,-67.4 1804.27,-67.62 1802.1,-60.96"/>
</g>
<!-- Node23 -->
<g id="node23" class="node">
<title>Node23</title>
<g id="a_node23"><a xlink:href="../../d3/d49/vpattern_8cpp.html" target="_top" xlink:title=" ">
<polygon fill="white" stroke="black" points="2078,-0.5 2078,-30.5 2203,-30.5 2203,-0.5 2078,-0.5"/>
<text text-anchor="start" x="2086" y="-18.5" font-family="Helvetica,sans-Serif" font-size="10.00">src/app/seamly2d/xml</text>
<text text-anchor="middle" x="2140.5" y="-7.5" font-family="Helvetica,sans-Serif" font-size="10.00">/vpattern.cpp</text>
</a>
</g>
</g>
<!-- Node2&#45;&gt;Node23 -->
<g id="edge22" class="edge">
<title>Node2&#45;&gt;Node23</title>
<path fill="none" stroke="midnightblue" d="M1824.33,-66.92C1934.12,-48.32 1963.85,-49.5 2069.5,-31 2072.23,-30.52 2075.01,-30.02 2077.82,-29.5"/>
<polygon fill="midnightblue" stroke="midnightblue" points="1823.43,-63.52 1814.17,-68.66 1824.61,-70.42 1823.43,-63.52"/>
</g>
<!-- Node24 -->
<g id="node24" class="node">
<title>Node24</title>
<g id="a_node24"><a xlink:href="../../d8/dd9/mainwindow_8cpp.html" target="_top" xlink:title=" ">
<polygon fill="white" stroke="black" points="314.5,-6 314.5,-25 502.5,-25 502.5,-6 314.5,-6"/>
<text text-anchor="middle" x="408.5" y="-13" font-family="Helvetica,sans-Serif" font-size="10.00">src/app/seamly2d/mainwindow.cpp</text>
</a>
</g>
</g>
<!-- Node2&#45;&gt;Node24 -->
<g id="edge23" class="edge">
<title>Node2&#45;&gt;Node24</title>
<path fill="none" stroke="midnightblue" d="M1676.64,-81C1484.42,-79.16 952.97,-70.59 512.5,-31 496.16,-29.53 478.45,-27.3 462.36,-25.03"/>
<polygon fill="midnightblue" stroke="midnightblue" points="1676.87,-84.5 1686.9,-81.1 1676.93,-77.51 1676.87,-84.5"/>
</g>
<!-- Node26&#45;&gt;Node7 -->
<g id="edge26" class="edge">
<title>Node26&#45;&gt;Node7</title>
<path fill="none" stroke="midnightblue" d="M271.67,-70.41C229.17,-59.4 163.9,-42.5 117.79,-30.56"/>
<polygon fill="midnightblue" stroke="midnightblue" points="270.87,-73.82 281.43,-72.94 272.62,-67.04 270.87,-73.82"/>
</g>
<!-- Node26&#45;&gt;Node20 -->
<g id="edge27" class="edge">
<title>Node26&#45;&gt;Node20</title>
<path fill="none" stroke="midnightblue" d="M293.41,-66.92C274.83,-54.07 248.38,-35.78 232.98,-25.13"/>
<polygon fill="midnightblue" stroke="midnightblue" points="291.61,-69.93 301.82,-72.73 295.59,-64.17 291.61,-69.93"/>
</g>
<!-- Node26&#45;&gt;Node24 -->
<g id="edge28" class="edge">
<title>Node26&#45;&gt;Node24</title>
<path fill="none" stroke="midnightblue" d="M335.59,-66.92C354.17,-54.07 380.62,-35.78 396.02,-25.13"/>
<polygon fill="midnightblue" stroke="midnightblue" points="333.41,-64.17 327.18,-72.73 337.39,-69.93 333.41,-64.17"/>
</g>
</g>
</svg>
