<?xml version="1.0" encoding="UTF-8" standalone="no"?>
<!DOCTYPE svg PUBLIC "-//W3C//DTD SVG 1.1//EN"
 "http://www.w3.org/Graphics/SVG/1.1/DTD/svg11.dtd">
<!-- Generated by graphviz version 2.43.0 (0)
 -->
<!-- Title: src/app/seamly2d/core/vcmdexport.h Pages: 1 -->
<svg width="4020pt" height="173pt"
 viewBox="0.00 0.00 4019.50 173.00" xmlns="http://www.w3.org/2000/svg" xmlns:xlink="http://www.w3.org/1999/xlink">
<g id="graph0" class="graph" transform="scale(1 1) rotate(0) translate(4 169)">
<title>src/app/seamly2d/core/vcmdexport.h</title>
<polygon fill="white" stroke="transparent" points="-4,4 -4,-169 4015.5,-169 4015.5,4 -4,4"/>
<!-- Node1 -->
<g id="node1" class="node">
<title>Node1</title>
<g id="a_node1"><a xlink:title=" ">
<polygon fill="#bfbfbf" stroke="black" points="1703,-134.5 1703,-164.5 1830,-164.5 1830,-134.5 1703,-134.5"/>
<text text-anchor="start" x="1711" y="-152.5" font-family="Helvetica,sans-Serif" font-size="10.00">src/app/seamly2d/core</text>
<text text-anchor="middle" x="1766.5" y="-141.5" font-family="Helvetica,sans-Serif" font-size="10.00">/vcmdexport.h</text>
</a>
</g>
</g>
<!-- Node2 -->
<g id="node2" class="node">
<title>Node2</title>
<g id="a_node2"><a xlink:href="../../d9/d02/vapplication_8h.html" target="_top" xlink:title=" ">
<polygon fill="white" stroke="black" points="1703,-67.5 1703,-97.5 1830,-97.5 1830,-67.5 1703,-67.5"/>
<text text-anchor="start" x="1711" y="-85.5" font-family="Helvetica,sans-Serif" font-size="10.00">src/app/seamly2d/core</text>
<text text-anchor="middle" x="1766.5" y="-74.5" font-family="Helvetica,sans-Serif" font-size="10.00">/vapplication.h</text>
</a>
</g>
</g>
<!-- Node1&#45;&gt;Node2 -->
<g id="edge1" class="edge">
<title>Node1&#45;&gt;Node2</title>
<path fill="none" stroke="midnightblue" d="M1766.5,-124.11C1766.5,-115.15 1766.5,-105.32 1766.5,-97.58"/>
<polygon fill="midnightblue" stroke="midnightblue" points="1763,-124.4 1766.5,-134.4 1770,-124.4 1763,-124.4"/>
</g>
<!-- Node25 -->
<g id="node25" class="node">
<title>Node25</title>
<g id="a_node25"><a xlink:href="../../df/d9b/vcmdexport_8cpp.html" target="_top" xlink:title=" ">
<polygon fill="white" stroke="black" points="1848,-67.5 1848,-97.5 1975,-97.5 1975,-67.5 1848,-67.5"/>
<text text-anchor="start" x="1856" y="-85.5" font-family="Helvetica,sans-Serif" font-size="10.00">src/app/seamly2d/core</text>
<text text-anchor="middle" x="1911.5" y="-74.5" font-family="Helvetica,sans-Serif" font-size="10.00">/vcmdexport.cpp</text>
</a>
</g>
</g>
<!-- Node1&#45;&gt;Node25 -->
<g id="edge24" class="edge">
<title>Node1&#45;&gt;Node25</title>
<path fill="none" stroke="midnightblue" d="M1807.17,-130.27C1830.26,-119.92 1858.74,-107.15 1880.1,-97.58"/>
<polygon fill="midnightblue" stroke="midnightblue" points="1805.66,-127.11 1797.96,-134.4 1808.52,-133.5 1805.66,-127.11"/>
</g>
<!-- Node26 -->
<g id="node26" class="node">
<title>Node26</title>
<g id="a_node26"><a xlink:href="../../d9/d53/mainwindow_8h.html" target="_top" xlink:title=" ">
<polygon fill="white" stroke="black" points="226.5,-73 226.5,-92 402.5,-92 402.5,-73 226.5,-73"/>
<text text-anchor="middle" x="314.5" y="-80" font-family="Helvetica,sans-Serif" font-size="10.00">src/app/seamly2d/mainwindow.h</text>
</a>
</g>
</g>
<!-- Node1&#45;&gt;Node26 -->
<g id="edge25" class="edge">
<title>Node1&#45;&gt;Node26</title>
<path fill="none" stroke="midnightblue" d="M1692.51,-145.19C1448.09,-134.25 667.12,-99.29 402.86,-87.46"/>
<polygon fill="midnightblue" stroke="midnightblue" points="1692.56,-148.69 1702.71,-145.64 1692.87,-141.7 1692.56,-148.69"/>
</g>
<!-- Node3 -->
<g id="node3" class="node">
<title>Node3</title>
<g id="a_node3"><a xlink:href="../../d3/dd8/vapplication_8cpp.html" target="_top" xlink:title=" ">
<polygon fill="white" stroke="black" points="0,-0.5 0,-30.5 127,-30.5 127,-0.5 0,-0.5"/>
<text text-anchor="start" x="8" y="-18.5" font-family="Helvetica,sans-Serif" font-size="10.00">src/app/seamly2d/core</text>
<text text-anchor="middle" x="63.5" y="-7.5" font-family="Helvetica,sans-Serif" font-size="10.00">/vapplication.cpp</text>
</a>
</g>
</g>
<!-- Node2&#45;&gt;Node3 -->
<g id="edge2" class="edge">
<title>Node2&#45;&gt;Node3</title>
<path fill="none" stroke="midnightblue" d="M1692.27,-80.86C1415.41,-78.2 443.23,-66.5 135.5,-31 132.71,-30.68 129.87,-30.31 127.01,-29.89"/>
<polygon fill="midnightblue" stroke="midnightblue" points="1692.57,-84.36 1702.6,-80.95 1692.63,-77.36 1692.57,-84.36"/>
</g>
<!-- Node4 -->
<g id="node4" class="node">
<title>Node4</title>
<g id="a_node4"><a xlink:href="../../dd/db4/abstractlayout__dialog_8cpp.html" target="_top" xlink:title=" ">
<polygon fill="white" stroke="black" points="2197.5,-0.5 2197.5,-30.5 2343.5,-30.5 2343.5,-0.5 2197.5,-0.5"/>
<text text-anchor="start" x="2205.5" y="-18.5" font-family="Helvetica,sans-Serif" font-size="10.00">src/app/seamly2d/dialogs</text>
<text text-anchor="middle" x="2270.5" y="-7.5" font-family="Helvetica,sans-Serif" font-size="10.00">/abstractlayout_dialog.cpp</text>
</a>
</g>
</g>
<!-- Node2&#45;&gt;Node4 -->
<g id="edge3" class="edge">
<title>Node2&#45;&gt;Node4</title>
<path fill="none" stroke="midnightblue" d="M1840.05,-67.02C1995.4,-44.13 2037.23,-52.15 2188.5,-31 2191.36,-30.6 2194.28,-30.17 2197.22,-29.73"/>
<polygon fill="midnightblue" stroke="midnightblue" points="1839.51,-63.56 1830.14,-68.5 1840.55,-70.48 1839.51,-63.56"/>
</g>
<!-- Node5 -->
<g id="node5" class="node">
<title>Node5</title>
<g id="a_node5"><a xlink:href="../../d7/dfa/calculator__dialog_8cpp.html" target="_top" xlink:title=" ">
<polygon fill="white" stroke="black" points="2362,-0.5 2362,-30.5 2503,-30.5 2503,-0.5 2362,-0.5"/>
<text text-anchor="start" x="2370" y="-18.5" font-family="Helvetica,sans-Serif" font-size="10.00">src/app/seamly2d/dialogs</text>
<text text-anchor="middle" x="2432.5" y="-7.5" font-family="Helvetica,sans-Serif" font-size="10.00">/calculator_dialog.cpp</text>
</a>
</g>
</g>
<!-- Node2&#45;&gt;Node5 -->
<g id="edge4" class="edge">
<title>Node2&#45;&gt;Node5</title>
<path fill="none" stroke="midnightblue" d="M1840.04,-67.06C2067.76,-37.31 2128.92,-59.02 2352.5,-31 2355.58,-30.61 2358.72,-30.19 2361.89,-29.73"/>
<polygon fill="midnightblue" stroke="midnightblue" points="1839.58,-63.59 1830.12,-68.37 1840.5,-70.53 1839.58,-63.59"/>
</g>
<!-- Node6 -->
<g id="node6" class="node">
<title>Node6</title>
<g id="a_node6"><a xlink:href="../../d2/d2d/preferencesconfigurationpage_8cpp.html" target="_top" xlink:title=" ">
<polygon fill="white" stroke="black" points="2521,-0.5 2521,-30.5 2768,-30.5 2768,-0.5 2521,-0.5"/>
<text text-anchor="start" x="2529" y="-18.5" font-family="Helvetica,sans-Serif" font-size="10.00">src/app/seamly2d/dialogs</text>
<text text-anchor="middle" x="2644.5" y="-7.5" font-family="Helvetica,sans-Serif" font-size="10.00">/configpages/preferencesconfigurationpage.cpp</text>
</a>
</g>
</g>
<!-- Node2&#45;&gt;Node6 -->
<g id="edge5" class="edge">
<title>Node2&#45;&gt;Node6</title>
<path fill="none" stroke="midnightblue" d="M1840.36,-67.03C2138.47,-30.3 2217.31,-55.09 2512.5,-31 2515.26,-30.77 2518.05,-30.54 2520.86,-30.29"/>
<polygon fill="midnightblue" stroke="midnightblue" points="1839.6,-63.6 1830.11,-68.31 1840.47,-70.55 1839.6,-63.6"/>
</g>
<!-- Node7 -->
<g id="node7" class="node">
<title>Node7</title>
<g id="a_node7"><a xlink:href="../../d9/d70/preferencesgraphicsviewpage_8cpp.html" target="_top" xlink:title=" ">
<polygon fill="white" stroke="black" points="2786.5,-0.5 2786.5,-30.5 3034.5,-30.5 3034.5,-0.5 2786.5,-0.5"/>
<text text-anchor="start" x="2794.5" y="-18.5" font-family="Helvetica,sans-Serif" font-size="10.00">src/app/seamly2d/dialogs</text>
<text text-anchor="middle" x="2910.5" y="-7.5" font-family="Helvetica,sans-Serif" font-size="10.00">/configpages/preferencesgraphicsviewpage.cpp</text>
</a>
</g>
</g>
<!-- Node2&#45;&gt;Node7 -->
<g id="edge6" class="edge">
<title>Node2&#45;&gt;Node7</title>
<path fill="none" stroke="midnightblue" d="M1840.29,-67.06C2255.59,-18.9 2364.78,-61.38 2777.5,-31 2780.4,-30.79 2783.33,-30.56 2786.28,-30.32"/>
<polygon fill="midnightblue" stroke="midnightblue" points="1839.63,-63.61 1830.11,-68.25 1840.45,-70.57 1839.63,-63.61"/>
</g>
<!-- Node8 -->
<g id="node8" class="node">
<title>Node8</title>
<g id="a_node8"><a xlink:href="../../dc/d20/preferencespathpage_8cpp.html" target="_top" xlink:title=" ">
<polygon fill="white" stroke="black" points="3053,-0.5 3053,-30.5 3258,-30.5 3258,-0.5 3053,-0.5"/>
<text text-anchor="start" x="3061" y="-18.5" font-family="Helvetica,sans-Serif" font-size="10.00">src/app/seamly2d/dialogs</text>
<text text-anchor="middle" x="3155.5" y="-7.5" font-family="Helvetica,sans-Serif" font-size="10.00">/configpages/preferencespathpage.cpp</text>
</a>
</g>
</g>
<!-- Node2&#45;&gt;Node8 -->
<g id="edge7" class="edge">
<title>Node2&#45;&gt;Node8</title>
<path fill="none" stroke="midnightblue" d="M1840.36,-67.06C2373.21,-7.49 2513.22,-73.15 3043.5,-31 3046.53,-30.76 3049.6,-30.49 3052.7,-30.21"/>
<polygon fill="midnightblue" stroke="midnightblue" points="1839.65,-63.62 1830.1,-68.22 1840.43,-70.58 1839.65,-63.62"/>
</g>
<!-- Node9 -->
<g id="node9" class="node">
<title>Node9</title>
<g id="a_node9"><a xlink:href="../../d2/d00/vtooloptionspropertybrowser_8cpp.html" target="_top" xlink:title=" ">
<polygon fill="white" stroke="black" points="3276.5,-0.5 3276.5,-30.5 3456.5,-30.5 3456.5,-0.5 3276.5,-0.5"/>
<text text-anchor="start" x="3284.5" y="-18.5" font-family="Helvetica,sans-Serif" font-size="10.00">src/app/seamly2d/core</text>
<text text-anchor="middle" x="3366.5" y="-7.5" font-family="Helvetica,sans-Serif" font-size="10.00">/vtooloptionspropertybrowser.cpp</text>
</a>
</g>
</g>
<!-- Node2&#45;&gt;Node9 -->
<g id="edge8" class="edge">
<title>Node2&#45;&gt;Node9</title>
<path fill="none" stroke="midnightblue" d="M1840.38,-67.07C2472.27,2.16 2638.34,-84.81 3267.5,-31 3270.44,-30.75 3273.43,-30.47 3276.45,-30.16"/>
<polygon fill="midnightblue" stroke="midnightblue" points="1839.66,-63.63 1830.1,-68.2 1840.43,-70.58 1839.66,-63.63"/>
</g>
<!-- Node10 -->
<g id="node10" class="node">
<title>Node10</title>
<g id="a_node10"><a xlink:href="../../dd/dc2/decimalchart__dialog_8cpp.html" target="_top" xlink:title=" ">
<polygon fill="white" stroke="black" points="3475,-0.5 3475,-30.5 3616,-30.5 3616,-0.5 3475,-0.5"/>
<text text-anchor="start" x="3483" y="-18.5" font-family="Helvetica,sans-Serif" font-size="10.00">src/app/seamly2d/dialogs</text>
<text text-anchor="middle" x="3545.5" y="-7.5" font-family="Helvetica,sans-Serif" font-size="10.00">/decimalchart_dialog.cpp</text>
</a>
</g>
</g>
<!-- Node2&#45;&gt;Node10 -->
<g id="edge9" class="edge">
<title>Node2&#45;&gt;Node10</title>
<path fill="none" stroke="midnightblue" d="M1840.2,-67.09C2559.8,10.64 2749.66,-103.34 3465.5,-31 3468.59,-30.69 3471.74,-30.32 3474.92,-29.91"/>
<polygon fill="midnightblue" stroke="midnightblue" points="1839.66,-63.63 1830.1,-68.19 1840.42,-70.59 1839.66,-63.63"/>
</g>
<!-- Node11 -->
<g id="node11" class="node">
<title>Node11</title>
<g id="a_node11"><a xlink:href="../../dd/d64/dialogaboutapp_8cpp.html" target="_top" xlink:title=" ">
<polygon fill="white" stroke="black" points="3634,-0.5 3634,-30.5 3775,-30.5 3775,-0.5 3634,-0.5"/>
<text text-anchor="start" x="3642" y="-18.5" font-family="Helvetica,sans-Serif" font-size="10.00">src/app/seamly2d/dialogs</text>
<text text-anchor="middle" x="3704.5" y="-7.5" font-family="Helvetica,sans-Serif" font-size="10.00">/dialogaboutapp.cpp</text>
</a>
</g>
</g>
<!-- Node2&#45;&gt;Node11 -->
<g id="edge10" class="edge">
<title>Node2&#45;&gt;Node11</title>
<path fill="none" stroke="midnightblue" d="M1840.3,-67.08C2630.58,17.57 2838.97,-110.58 3625.5,-31 3628.27,-30.72 3631.1,-30.39 3633.95,-30.03"/>
<polygon fill="midnightblue" stroke="midnightblue" points="1839.67,-63.63 1830.1,-68.18 1840.42,-70.59 1839.67,-63.63"/>
</g>
<!-- Node12 -->
<g id="node12" class="node">
<title>Node12</title>
<g id="a_node12"><a xlink:href="../../dc/d63/preferencespatternpage_8cpp.html" target="_top" xlink:title=" ">
<polygon fill="white" stroke="black" points="3793.5,-0.5 3793.5,-30.5 4011.5,-30.5 4011.5,-0.5 3793.5,-0.5"/>
<text text-anchor="start" x="3801.5" y="-18.5" font-family="Helvetica,sans-Serif" font-size="10.00">src/app/seamly2d/dialogs</text>
<text text-anchor="middle" x="3902.5" y="-7.5" font-family="Helvetica,sans-Serif" font-size="10.00">/configpages/preferencespatternpage.cpp</text>
</a>
</g>
</g>
<!-- Node2&#45;&gt;Node12 -->
<g id="edge11" class="edge">
<title>Node2&#45;&gt;Node12</title>
<path fill="none" stroke="midnightblue" d="M1840.18,-67.11C2285.68,-21.32 3356.54,-61.17 3784.5,-31 3787.38,-30.8 3790.3,-30.57 3793.25,-30.33"/>
<polygon fill="midnightblue" stroke="midnightblue" points="1839.68,-63.65 1830.1,-68.18 1840.41,-70.61 1839.68,-63.65"/>
</g>
<!-- Node13 -->
<g id="node13" class="node">
<title>Node13</title>
<g id="a_node13"><a xlink:href="../../d6/d89/dialoglayoutprogress_8cpp.html" target="_top" xlink:title=" ">
<polygon fill="white" stroke="black" points="521,-0.5 521,-30.5 664,-30.5 664,-0.5 521,-0.5"/>
<text text-anchor="start" x="529" y="-18.5" font-family="Helvetica,sans-Serif" font-size="10.00">src/app/seamly2d/dialogs</text>
<text text-anchor="middle" x="592.5" y="-7.5" font-family="Helvetica,sans-Serif" font-size="10.00">/dialoglayoutprogress.cpp</text>
</a>
</g>
</g>
<!-- Node2&#45;&gt;Node13 -->
<g id="edge12" class="edge">
<title>Node2&#45;&gt;Node13</title>
<path fill="none" stroke="midnightblue" d="M1692.6,-81.42C1515.91,-80.49 1055.25,-73.8 673.5,-31 670.52,-30.67 667.48,-30.29 664.42,-29.88"/>
<polygon fill="midnightblue" stroke="midnightblue" points="1692.8,-84.92 1702.82,-81.47 1692.84,-77.92 1692.8,-84.92"/>
</g>
<!-- Node14 -->
<g id="node14" class="node">
<title>Node14</title>
<g id="a_node14"><a xlink:href="../../d5/dc5/dialogpreferences_8cpp.html" target="_top" xlink:title=" ">
<polygon fill="white" stroke="black" points="682,-0.5 682,-30.5 823,-30.5 823,-0.5 682,-0.5"/>
<text text-anchor="start" x="690" y="-18.5" font-family="Helvetica,sans-Serif" font-size="10.00">src/app/seamly2d/dialogs</text>
<text text-anchor="middle" x="752.5" y="-7.5" font-family="Helvetica,sans-Serif" font-size="10.00">/dialogpreferences.cpp</text>
</a>
</g>
</g>
<!-- Node2&#45;&gt;Node14 -->
<g id="edge13" class="edge">
<title>Node2&#45;&gt;Node14</title>
<path fill="none" stroke="midnightblue" d="M1692.76,-80.65C1534.61,-78.13 1151.3,-68.36 832.5,-31 829.42,-30.64 826.27,-30.23 823.1,-29.79"/>
<polygon fill="midnightblue" stroke="midnightblue" points="1692.79,-84.15 1702.85,-80.8 1692.9,-77.15 1692.79,-84.15"/>
</g>
<!-- Node15 -->
<g id="node15" class="node">
<title>Node15</title>
<g id="a_node15"><a xlink:href="../../d5/d18/dialogpatternproperties_8cpp.html" target="_top" xlink:title=" ">
<polygon fill="white" stroke="black" points="841,-0.5 841,-30.5 996,-30.5 996,-0.5 841,-0.5"/>
<text text-anchor="start" x="849" y="-18.5" font-family="Helvetica,sans-Serif" font-size="10.00">src/app/seamly2d/dialogs</text>
<text text-anchor="middle" x="918.5" y="-7.5" font-family="Helvetica,sans-Serif" font-size="10.00">/dialogpatternproperties.cpp</text>
</a>
</g>
</g>
<!-- Node2&#45;&gt;Node15 -->
<g id="edge14" class="edge">
<title>Node2&#45;&gt;Node15</title>
<path fill="none" stroke="midnightblue" d="M1692.61,-79.03C1556.37,-73.92 1256.58,-60.18 1005.5,-31 1002.46,-30.65 999.36,-30.26 996.23,-29.85"/>
<polygon fill="midnightblue" stroke="midnightblue" points="1692.8,-82.53 1702.92,-79.41 1693.05,-75.54 1692.8,-82.53"/>
</g>
<!-- Node16 -->
<g id="node16" class="node">
<title>Node16</title>
<g id="a_node16"><a xlink:href="../../dd/d54/export__layout__dialog_8cpp.html" target="_top" xlink:title=" ">
<polygon fill="white" stroke="black" points="1014,-0.5 1014,-30.5 1157,-30.5 1157,-0.5 1014,-0.5"/>
<text text-anchor="start" x="1022" y="-18.5" font-family="Helvetica,sans-Serif" font-size="10.00">src/app/seamly2d/dialogs</text>
<text text-anchor="middle" x="1085.5" y="-7.5" font-family="Helvetica,sans-Serif" font-size="10.00">/export_layout_dialog.cpp</text>
</a>
</g>
</g>
<!-- Node2&#45;&gt;Node16 -->
<g id="edge15" class="edge">
<title>Node2&#45;&gt;Node16</title>
<path fill="none" stroke="midnightblue" d="M1692.49,-77.5C1578.98,-70.85 1355.2,-55.78 1166.5,-31 1163.53,-30.61 1160.49,-30.19 1157.43,-29.74"/>
<polygon fill="midnightblue" stroke="midnightblue" points="1692.61,-81.01 1702.79,-78.09 1693.01,-74.02 1692.61,-81.01"/>
</g>
<!-- Node17 -->
<g id="node17" class="node">
<title>Node17</title>
<g id="a_node17"><a xlink:href="../../d0/dfa/layoutsettings__dialog_8cpp.html" target="_top" xlink:title=" ">
<polygon fill="white" stroke="black" points="1175,-0.5 1175,-30.5 1320,-30.5 1320,-0.5 1175,-0.5"/>
<text text-anchor="start" x="1183" y="-18.5" font-family="Helvetica,sans-Serif" font-size="10.00">src/app/seamly2d/dialogs</text>
<text text-anchor="middle" x="1247.5" y="-7.5" font-family="Helvetica,sans-Serif" font-size="10.00">/layoutsettings_dialog.cpp</text>
</a>
</g>
</g>
<!-- Node2&#45;&gt;Node17 -->
<g id="edge16" class="edge">
<title>Node2&#45;&gt;Node17</title>
<path fill="none" stroke="midnightblue" d="M1692.61,-74.33C1605.58,-65.56 1456.71,-49.58 1329.5,-31 1326.5,-30.56 1323.43,-30.1 1320.34,-29.61"/>
<polygon fill="midnightblue" stroke="midnightblue" points="1692.36,-77.82 1702.66,-75.33 1693.06,-70.85 1692.36,-77.82"/>
</g>
<!-- Node18 -->
<g id="node18" class="node">
<title>Node18</title>
<g id="a_node18"><a xlink:href="../../db/d5c/groups__widget_8cpp.html" target="_top" xlink:title=" ">
<polygon fill="white" stroke="black" points="1338,-0.5 1338,-30.5 1479,-30.5 1479,-0.5 1338,-0.5"/>
<text text-anchor="start" x="1346" y="-18.5" font-family="Helvetica,sans-Serif" font-size="10.00">src/app/seamly2d/dialogs</text>
<text text-anchor="middle" x="1408.5" y="-7.5" font-family="Helvetica,sans-Serif" font-size="10.00">/groups_widget.cpp</text>
</a>
</g>
</g>
<!-- Node2&#45;&gt;Node18 -->
<g id="edge17" class="edge">
<title>Node2&#45;&gt;Node18</title>
<path fill="none" stroke="midnightblue" d="M1692.71,-68.1C1630.1,-56.73 1540.87,-40.53 1479.16,-29.33"/>
<polygon fill="midnightblue" stroke="midnightblue" points="1692.44,-71.61 1702.91,-69.95 1693.7,-64.72 1692.44,-71.61"/>
</g>
<!-- Node19 -->
<g id="node19" class="node">
<title>Node19</title>
<g id="a_node19"><a xlink:href="../../d2/df4/show__info__dialog_8cpp.html" target="_top" xlink:title=" ">
<polygon fill="white" stroke="black" points="1497,-0.5 1497,-30.5 1638,-30.5 1638,-0.5 1497,-0.5"/>
<text text-anchor="start" x="1505" y="-18.5" font-family="Helvetica,sans-Serif" font-size="10.00">src/app/seamly2d/dialogs</text>
<text text-anchor="middle" x="1567.5" y="-7.5" font-family="Helvetica,sans-Serif" font-size="10.00">/show_info_dialog.cpp</text>
</a>
</g>
</g>
<!-- Node2&#45;&gt;Node19 -->
<g id="edge18" class="edge">
<title>Node2&#45;&gt;Node19</title>
<path fill="none" stroke="midnightblue" d="M1713.62,-64.23C1681.43,-53.71 1640.83,-40.45 1610.6,-30.58"/>
<polygon fill="midnightblue" stroke="midnightblue" points="1712.73,-67.62 1723.32,-67.4 1714.9,-60.96 1712.73,-67.62"/>
</g>
<!-- Node20 -->
<g id="node20" class="node">
<title>Node20</title>
<g id="a_node20"><a xlink:href="../../dc/d14/app_2seamly2d_2main_8cpp.html" target="_top" xlink:title=" ">
<polygon fill="white" stroke="black" points="145,-6 145,-25 296,-25 296,-6 145,-6"/>
<text text-anchor="middle" x="220.5" y="-13" font-family="Helvetica,sans-Serif" font-size="10.00">src/app/seamly2d/main.cpp</text>
</a>
</g>
</g>
<!-- Node2&#45;&gt;Node20 -->
<g id="edge19" class="edge">
<title>Node2&#45;&gt;Node20</title>
<path fill="none" stroke="midnightblue" d="M1692.4,-80.26C1434.76,-75.73 578.81,-58.91 305.5,-31 291.8,-29.6 276.97,-27.33 263.59,-25.01"/>
<polygon fill="midnightblue" stroke="midnightblue" points="1692.71,-83.76 1702.77,-80.44 1692.83,-76.76 1692.71,-83.76"/>
</g>
<!-- Node21 -->
<g id="node21" class="node">
<title>Node21</title>
<g id="a_node21"><a xlink:href="../../d8/de8/mainwindowsnogui_8cpp.html" target="_top" xlink:title=" ">
<polygon fill="white" stroke="black" points="1656,-6 1656,-25 1877,-25 1877,-6 1656,-6"/>
<text text-anchor="middle" x="1766.5" y="-13" font-family="Helvetica,sans-Serif" font-size="10.00">src/app/seamly2d/mainwindowsnogui.cpp</text>
</a>
</g>
</g>
<!-- Node2&#45;&gt;Node21 -->
<g id="edge20" class="edge">
<title>Node2&#45;&gt;Node21</title>
<path fill="none" stroke="midnightblue" d="M1766.5,-57.25C1766.5,-46.02 1766.5,-33.38 1766.5,-25.19"/>
<polygon fill="midnightblue" stroke="midnightblue" points="1763,-57.4 1766.5,-67.4 1770,-57.4 1763,-57.4"/>
</g>
<!-- Node22 -->
<g id="node22" class="node">
<title>Node22</title>
<g id="a_node22"><a xlink:href="../../dd/d84/shortcuts__dialog_8cpp.html" target="_top" xlink:title=" ">
<polygon fill="white" stroke="black" points="1895,-0.5 1895,-30.5 2036,-30.5 2036,-0.5 1895,-0.5"/>
<text text-anchor="start" x="1903" y="-18.5" font-family="Helvetica,sans-Serif" font-size="10.00">src/app/seamly2d/dialogs</text>
<text text-anchor="middle" x="1965.5" y="-7.5" font-family="Helvetica,sans-Serif" font-size="10.00">/shortcuts_dialog.cpp</text>
</a>
</g>
</g>
<!-- Node2&#45;&gt;Node22 -->
<g id="edge21" class="edge">
<title>Node2&#45;&gt;Node22</title>
<path fill="none" stroke="midnightblue" d="M1819.38,-64.23C1851.57,-53.71 1892.17,-40.45 1922.4,-30.58"/>
<polygon fill="midnightblue" stroke="midnightblue" points="1818.1,-60.96 1809.68,-67.4 1820.27,-67.62 1818.1,-60.96"/>
</g>
<!-- Node23 -->
<g id="node23" class="node">
<title>Node23</title>
<g id="a_node23"><a xlink:href="../../d8/dd9/mainwindow_8cpp.html" target="_top" xlink:title=" ">
<polygon fill="white" stroke="black" points="314.5,-6 314.5,-25 502.5,-25 502.5,-6 314.5,-6"/>
<text text-anchor="middle" x="408.5" y="-13" font-family="Helvetica,sans-Serif" font-size="10.00">src/app/seamly2d/mainwindow.cpp</text>
</a>
</g>
</g>
<!-- Node2&#45;&gt;Node23 -->
<g id="edge22" class="edge">
<title>Node2&#45;&gt;Node23</title>
<path fill="none" stroke="midnightblue" d="M1692.67,-81.06C1498.81,-79.35 959.42,-71.06 512.5,-31 496.16,-29.54 478.45,-27.31 462.36,-25.04"/>
<polygon fill="midnightblue" stroke="midnightblue" points="1692.71,-84.56 1702.74,-81.14 1692.77,-77.56 1692.71,-84.56"/>
</g>
<!-- Node24 -->
<g id="node24" class="node">
<title>Node24</title>
<g id="a_node24"><a xlink:href="../../d3/d49/vpattern_8cpp.html" target="_top" xlink:title=" ">
<polygon fill="white" stroke="black" points="2054,-0.5 2054,-30.5 2179,-30.5 2179,-0.5 2054,-0.5"/>
<text text-anchor="start" x="2062" y="-18.5" font-family="Helvetica,sans-Serif" font-size="10.00">src/app/seamly2d/xml</text>
<text text-anchor="middle" x="2116.5" y="-7.5" font-family="Helvetica,sans-Serif" font-size="10.00">/vpattern.cpp</text>
</a>
</g>
</g>
<!-- Node2&#45;&gt;Node24 -->
<g id="edge23" class="edge">
<title>Node2&#45;&gt;Node24</title>
<path fill="none" stroke="midnightblue" d="M1840.24,-66.89C1932.54,-49.81 1957.3,-47.71 2045.5,-31 2048.22,-30.48 2051,-29.95 2053.8,-29.41"/>
<polygon fill="midnightblue" stroke="midnightblue" points="1839.38,-63.49 1830.18,-68.76 1840.66,-70.37 1839.38,-63.49"/>
</g>
<!-- Node26&#45;&gt;Node3 -->
<g id="edge26" class="edge">
<title>Node26&#45;&gt;Node3</title>
<path fill="none" stroke="midnightblue" d="M271.67,-70.41C229.17,-59.4 163.9,-42.5 117.79,-30.56"/>
<polygon fill="midnightblue" stroke="midnightblue" points="270.87,-73.82 281.43,-72.94 272.62,-67.04 270.87,-73.82"/>
</g>
<!-- Node26&#45;&gt;Node20 -->
<g id="edge27" class="edge">
<title>Node26&#45;&gt;Node20</title>
<path fill="none" stroke="midnightblue" d="M293.41,-66.92C274.83,-54.07 248.38,-35.78 232.98,-25.13"/>
<polygon fill="midnightblue" stroke="midnightblue" points="291.61,-69.93 301.82,-72.73 295.59,-64.17 291.61,-69.93"/>
</g>
<!-- Node26&#45;&gt;Node23 -->
<g id="edge28" class="edge">
<title>Node26&#45;&gt;Node23</title>
<path fill="none" stroke="midnightblue" d="M335.59,-66.92C354.17,-54.07 380.62,-35.78 396.02,-25.13"/>
<polygon fill="midnightblue" stroke="midnightblue" points="333.41,-64.17 327.18,-72.73 337.39,-69.93 333.41,-64.17"/>
</g>
</g>
</svg>
