<?xml version="1.0" encoding="UTF-8" standalone="no"?>
<!DOCTYPE svg PUBLIC "-//W3C//DTD SVG 1.1//EN"
 "http://www.w3.org/Graphics/SVG/1.1/DTD/svg11.dtd">
<!-- Generated by graphviz version 2.43.0 (0)
 -->
<!-- Title: src/libs/vpatterndb/variables/vcurveangle.h Pages: 1 -->
<svg width="5741pt" height="374pt"
 viewBox="0.00 0.00 5740.86 374.00" xmlns="http://www.w3.org/2000/svg" xmlns:xlink="http://www.w3.org/1999/xlink">
<g id="graph0" class="graph" transform="scale(1 1) rotate(0) translate(4 370)">
<title>src/libs/vpatterndb/variables/vcurveangle.h</title>
<polygon fill="white" stroke="transparent" points="-4,4 -4,-370 5736.86,-370 5736.86,4 -4,4"/>
<!-- Node1 -->
<g id="node1" class="node">
<title>Node1</title>
<g id="a_node1"><a xlink:title=" ">
<polygon fill="#bfbfbf" stroke="black" points="246.36,-335.5 246.36,-365.5 383.36,-365.5 383.36,-335.5 246.36,-335.5"/>
<text text-anchor="start" x="254.36" y="-353.5" font-family="Helvetica,sans-Serif" font-size="10.00">src/libs/vpatterndb</text>
<text text-anchor="middle" x="314.86" y="-342.5" font-family="Helvetica,sans-Serif" font-size="10.00">/variables/vcurveangle.h</text>
</a>
</g>
</g>
<!-- Node2 -->
<g id="node2" class="node">
<title>Node2</title>
<g id="a_node2"><a xlink:href="../../df/db3/vcurveangle_8cpp.html" target="_top" xlink:title=" ">
<polygon fill="white" stroke="black" points="138.86,-268.5 138.86,-298.5 286.86,-298.5 286.86,-268.5 138.86,-268.5"/>
<text text-anchor="start" x="146.86" y="-286.5" font-family="Helvetica,sans-Serif" font-size="10.00">src/libs/vpatterndb</text>
<text text-anchor="middle" x="212.86" y="-275.5" font-family="Helvetica,sans-Serif" font-size="10.00">/variables/vcurveangle.cpp</text>
</a>
</g>
</g>
<!-- Node1&#45;&gt;Node2 -->
<g id="edge1" class="edge">
<title>Node1&#45;&gt;Node2</title>
<path fill="none" stroke="midnightblue" d="M284.28,-330.02C268.41,-319.9 249.37,-307.77 234.95,-298.58"/>
<polygon fill="midnightblue" stroke="midnightblue" points="282.41,-332.97 292.72,-335.4 286.17,-327.07 282.41,-332.97"/>
</g>
<!-- Node3 -->
<g id="node3" class="node">
<title>Node3</title>
<g id="a_node3"><a xlink:href="../../de/dca/variables_8h.html" target="_top" xlink:title=" ">
<polygon fill="white" stroke="black" points="1629.36,-268.5 1629.36,-298.5 1736.36,-298.5 1736.36,-268.5 1629.36,-268.5"/>
<text text-anchor="start" x="1637.36" y="-286.5" font-family="Helvetica,sans-Serif" font-size="10.00">src/libs/vpatterndb</text>
<text text-anchor="middle" x="1682.86" y="-275.5" font-family="Helvetica,sans-Serif" font-size="10.00">/variables.h</text>
</a>
</g>
</g>
<!-- Node1&#45;&gt;Node3 -->
<g id="edge2" class="edge">
<title>Node1&#45;&gt;Node3</title>
<path fill="none" stroke="midnightblue" d="M393.75,-345.75C644.41,-333.84 1418.5,-297.06 1629.35,-287.04"/>
<polygon fill="midnightblue" stroke="midnightblue" points="393.46,-342.26 383.63,-346.23 393.79,-349.25 393.46,-342.26"/>
</g>
<!-- Node37 -->
<g id="node32" class="node">
<title>Node37</title>
<g id="a_node32"><a xlink:href="../../d6/d46/vcontainer_8cpp.html" target="_top" xlink:title=" ">
<polygon fill="white" stroke="black" points="16.36,-67.5 16.36,-97.5 123.36,-97.5 123.36,-67.5 16.36,-67.5"/>
<text text-anchor="start" x="24.36" y="-85.5" font-family="Helvetica,sans-Serif" font-size="10.00">src/libs/vpatterndb</text>
<text text-anchor="middle" x="69.86" y="-74.5" font-family="Helvetica,sans-Serif" font-size="10.00">/vcontainer.cpp</text>
</a>
</g>
</g>
<!-- Node1&#45;&gt;Node37 -->
<g id="edge60" class="edge">
<title>Node1&#45;&gt;Node37</title>
<path fill="none" stroke="midnightblue" d="M313.33,-325.19C311.31,-308.1 306.64,-285.29 295.86,-268 244.93,-186.34 145.11,-124.26 97.02,-97.68"/>
<polygon fill="midnightblue" stroke="midnightblue" points="309.88,-325.86 314.31,-335.48 316.85,-325.2 309.88,-325.86"/>
</g>
<!-- Node4 -->
<g id="node4" class="node">
<title>Node4</title>
<g id="a_node4"><a xlink:href="../../d3/df7/vcontainer_8h.html" target="_top" xlink:title=" ">
<polygon fill="white" stroke="black" points="3001.36,-201.5 3001.36,-231.5 3108.36,-231.5 3108.36,-201.5 3001.36,-201.5"/>
<text text-anchor="start" x="3009.36" y="-219.5" font-family="Helvetica,sans-Serif" font-size="10.00">src/libs/vpatterndb</text>
<text text-anchor="middle" x="3054.86" y="-208.5" font-family="Helvetica,sans-Serif" font-size="10.00">/vcontainer.h</text>
</a>
</g>
</g>
<!-- Node3&#45;&gt;Node4 -->
<g id="edge3" class="edge">
<title>Node3&#45;&gt;Node4</title>
<path fill="none" stroke="midnightblue" d="M1746.67,-279.48C1980.06,-268.42 2784.93,-230.29 3001.07,-220.05"/>
<polygon fill="midnightblue" stroke="midnightblue" points="1746.46,-275.98 1736.64,-279.95 1746.8,-282.97 1746.46,-275.98"/>
</g>
<!-- Node5 -->
<g id="node5" class="node">
<title>Node5</title>
<g id="a_node5"><a xlink:href="../../d4/dd6/vmeasurements_8h.html" target="_top" xlink:title=" ">
<polygon fill="white" stroke="black" points="3936.36,-140 3936.36,-159 4121.36,-159 4121.36,-140 3936.36,-140"/>
<text text-anchor="middle" x="4028.86" y="-147" font-family="Helvetica,sans-Serif" font-size="10.00">src/libs/vformat/vmeasurements.h</text>
</a>
</g>
</g>
<!-- Node4&#45;&gt;Node5 -->
<g id="edge4" class="edge">
<title>Node4&#45;&gt;Node5</title>
<path fill="none" stroke="midnightblue" d="M3118.77,-211.23C3286.54,-200.04 3740.06,-169.77 3936.29,-156.68"/>
<polygon fill="midnightblue" stroke="midnightblue" points="3118.36,-207.75 3108.61,-211.91 3118.82,-214.74 3118.36,-207.75"/>
</g>
<!-- Node6 -->
<g id="node6" class="node">
<title>Node6</title>
<g id="a_node6"><a xlink:href="../../de/db3/vmeasurements_8cpp.html" target="_top" xlink:title=" ">
<polygon fill="white" stroke="black" points="4410.86,-73 4410.86,-92 4606.86,-92 4606.86,-73 4410.86,-73"/>
<text text-anchor="middle" x="4508.86" y="-80" font-family="Helvetica,sans-Serif" font-size="10.00">src/libs/vformat/vmeasurements.cpp</text>
</a>
</g>
</g>
<!-- Node4&#45;&gt;Node6 -->
<g id="edge6" class="edge">
<title>Node4&#45;&gt;Node6</title>
<path fill="none" stroke="midnightblue" d="M3118.69,-216.17C3285.73,-217.15 3749.19,-214.75 4130.86,-165 4261.33,-147.99 4413.59,-109.25 4477.8,-92.03"/>
<polygon fill="midnightblue" stroke="midnightblue" points="3118.62,-212.67 3108.59,-216.11 3118.57,-219.67 3118.62,-212.67"/>
</g>
<!-- Node7 -->
<g id="node7" class="node">
<title>Node7</title>
<g id="a_node7"><a xlink:href="../../d8/d70/vtextmanager_8cpp.html" target="_top" xlink:title=" ">
<polygon fill="white" stroke="black" points="141.86,-73 141.86,-92 323.86,-92 323.86,-73 141.86,-73"/>
<text text-anchor="middle" x="232.86" y="-80" font-family="Helvetica,sans-Serif" font-size="10.00">src/libs/vlayout/vtextmanager.cpp</text>
</a>
</g>
</g>
<!-- Node4&#45;&gt;Node7 -->
<g id="edge7" class="edge">
<title>Node4&#45;&gt;Node7</title>
<path fill="none" stroke="midnightblue" d="M2991.02,-212.18C2765.83,-200.52 1987.58,-160.75 1344.86,-134 895.18,-115.29 781.11,-138.35 332.86,-98 316.96,-96.57 299.73,-94.32 284.12,-92.02"/>
<polygon fill="midnightblue" stroke="midnightblue" points="2991.15,-215.69 3001.32,-212.71 2991.51,-208.7 2991.15,-215.69"/>
</g>
<!-- Node8 -->
<g id="node8" class="node">
<title>Node8</title>
<g id="a_node8"><a xlink:href="../../d6/de0/vlayoutpiece_8h.html" target="_top" xlink:title=" ">
<polygon fill="white" stroke="black" points="4953.86,-140 4953.86,-159 5119.86,-159 5119.86,-140 4953.86,-140"/>
<text text-anchor="middle" x="5036.86" y="-147" font-family="Helvetica,sans-Serif" font-size="10.00">src/libs/vlayout/vlayoutpiece.h</text>
</a>
</g>
</g>
<!-- Node4&#45;&gt;Node8 -->
<g id="edge8" class="edge">
<title>Node4&#45;&gt;Node8</title>
<path fill="none" stroke="midnightblue" d="M3118.38,-213.42C3410.37,-203.84 4623.49,-164.06 4953.61,-153.23"/>
<polygon fill="midnightblue" stroke="midnightblue" points="3118.26,-209.92 3108.38,-213.74 3118.49,-216.91 3118.26,-209.92"/>
</g>
<!-- Node18 -->
<g id="node17" class="node">
<title>Node18</title>
<g id="a_node17"><a xlink:href="../../d5/d74/vabstractapplication_8h.html" target="_top" xlink:title=" ">
<polygon fill="white" stroke="red" points="2129.36,-140 2129.36,-159 2324.36,-159 2324.36,-140 2129.36,-140"/>
<text text-anchor="middle" x="2226.86" y="-147" font-family="Helvetica,sans-Serif" font-size="10.00">src/libs/vmisc/vabstractapplication.h</text>
</a>
</g>
</g>
<!-- Node4&#45;&gt;Node18 -->
<g id="edge19" class="edge">
<title>Node4&#45;&gt;Node18</title>
<path fill="none" stroke="midnightblue" d="M2991.17,-210.5C2847.22,-199.2 2496.03,-171.63 2324.44,-158.16"/>
<polygon fill="midnightblue" stroke="midnightblue" points="2990.92,-213.99 3001.17,-211.29 2991.47,-207.01 2990.92,-213.99"/>
</g>
<!-- Node36 -->
<g id="node31" class="node">
<title>Node36</title>
<g id="a_node31"><a xlink:href="../../db/d11/vformula_8cpp.html" target="_top" xlink:title=" ">
<polygon fill="white" stroke="black" points="3966.36,-67.5 3966.36,-97.5 4073.36,-97.5 4073.36,-67.5 3966.36,-67.5"/>
<text text-anchor="start" x="3974.36" y="-85.5" font-family="Helvetica,sans-Serif" font-size="10.00">src/libs/vpatterndb</text>
<text text-anchor="middle" x="4019.86" y="-74.5" font-family="Helvetica,sans-Serif" font-size="10.00">/vformula.cpp</text>
</a>
</g>
</g>
<!-- Node4&#45;&gt;Node36 -->
<g id="edge52" class="edge">
<title>Node4&#45;&gt;Node36</title>
<path fill="none" stroke="midnightblue" d="M2991.03,-209.93C2917.15,-201.22 2811.03,-180.31 2855.86,-134 2898.46,-89.98 3897.13,-106.01 3957.86,-98 3960.6,-97.64 3963.39,-97.21 3966.21,-96.73"/>
<polygon fill="midnightblue" stroke="midnightblue" points="2990.89,-213.44 3001.22,-211.08 2991.67,-206.48 2990.89,-213.44"/>
</g>
<!-- Node4&#45;&gt;Node37 -->
<g id="edge53" class="edge">
<title>Node4&#45;&gt;Node37</title>
<path fill="none" stroke="midnightblue" d="M2990.98,-214.21C2765.69,-209.51 1987.11,-192.23 1344.86,-165 805.85,-142.15 667.01,-173.67 132.86,-98 129.86,-97.57 126.79,-97.08 123.7,-96.53"/>
<polygon fill="midnightblue" stroke="midnightblue" points="2991.22,-217.71 3001.29,-214.42 2991.37,-210.71 2991.22,-217.71"/>
</g>
<!-- Node38 -->
<g id="node33" class="node">
<title>Node38</title>
<g id="a_node33"><a xlink:href="../../df/d7a/vpiece_8cpp.html" target="_top" xlink:title=" ">
<polygon fill="white" stroke="black" points="4091.36,-67.5 4091.36,-97.5 4198.36,-97.5 4198.36,-67.5 4091.36,-67.5"/>
<text text-anchor="start" x="4099.36" y="-85.5" font-family="Helvetica,sans-Serif" font-size="10.00">src/libs/vpatterndb</text>
<text text-anchor="middle" x="4144.86" y="-74.5" font-family="Helvetica,sans-Serif" font-size="10.00">/vpiece.cpp</text>
</a>
</g>
</g>
<!-- Node4&#45;&gt;Node38 -->
<g id="edge55" class="edge">
<title>Node4&#45;&gt;Node38</title>
<path fill="none" stroke="midnightblue" d="M2991.18,-205.88C2930.56,-194.24 2853.55,-171.41 2889.86,-134 2936.03,-86.41 4017.11,-106.59 4082.86,-98 4085.6,-97.64 4088.39,-97.22 4091.21,-96.74"/>
<polygon fill="midnightblue" stroke="midnightblue" points="2990.66,-209.34 3001.13,-207.72 2991.93,-202.46 2990.66,-209.34"/>
</g>
<!-- Node40 -->
<g id="node35" class="node">
<title>Node40</title>
<g id="a_node35"><a xlink:href="../../d8/dba/vpiecenode_8cpp.html" target="_top" xlink:title=" ">
<polygon fill="white" stroke="black" points="495.36,-0.5 495.36,-30.5 602.36,-30.5 602.36,-0.5 495.36,-0.5"/>
<text text-anchor="start" x="503.36" y="-18.5" font-family="Helvetica,sans-Serif" font-size="10.00">src/libs/vpatterndb</text>
<text text-anchor="middle" x="548.86" y="-7.5" font-family="Helvetica,sans-Serif" font-size="10.00">/vpiecenode.cpp</text>
</a>
</g>
</g>
<!-- Node4&#45;&gt;Node40 -->
<g id="edge56" class="edge">
<title>Node4&#45;&gt;Node40</title>
<path fill="none" stroke="midnightblue" d="M2991.09,-215.46C2641.2,-215.06 951.49,-210.74 431.86,-165 241.37,-148.23 131.1,-243.36 6.86,-98 -2.09,-87.53 -2.42,-77.18 6.86,-67 39.36,-31.33 365.02,-20.43 495.35,-17.48"/>
<polygon fill="midnightblue" stroke="midnightblue" points="2991.28,-218.96 3001.29,-215.47 2991.29,-211.96 2991.28,-218.96"/>
</g>
<!-- Node56 -->
<g id="node45" class="node">
<title>Node56</title>
<g id="a_node45"><a xlink:href="../../d1/de1/vincrement__p_8h.html" target="_top" xlink:title=" ">
<polygon fill="white" stroke="red" points="2898.36,-134.5 2898.36,-164.5 3041.36,-164.5 3041.36,-134.5 2898.36,-134.5"/>
<text text-anchor="start" x="2906.36" y="-152.5" font-family="Helvetica,sans-Serif" font-size="10.00">src/libs/vpatterndb</text>
<text text-anchor="middle" x="2969.86" y="-141.5" font-family="Helvetica,sans-Serif" font-size="10.00">/variables/vincrement_p.h</text>
</a>
</g>
</g>
<!-- Node4&#45;&gt;Node56 -->
<g id="edge50" class="edge">
<title>Node4&#45;&gt;Node56</title>
<path fill="none" stroke="midnightblue" d="M3028.27,-195.17C3015.27,-185.23 2999.95,-173.51 2988.26,-164.58"/>
<polygon fill="midnightblue" stroke="midnightblue" points="3026.34,-198.1 3036.41,-201.4 3030.6,-192.54 3026.34,-198.1"/>
</g>
<!-- Node58 -->
<g id="node46" class="node">
<title>Node58</title>
<g id="a_node46"><a xlink:href="../../d6/dc1/vmeasurement__p_8h.html" target="_top" xlink:title=" ">
<polygon fill="white" stroke="red" points="3059.86,-134.5 3059.86,-164.5 3221.86,-164.5 3221.86,-134.5 3059.86,-134.5"/>
<text text-anchor="start" x="3067.86" y="-152.5" font-family="Helvetica,sans-Serif" font-size="10.00">src/libs/vpatterndb</text>
<text text-anchor="middle" x="3140.86" y="-141.5" font-family="Helvetica,sans-Serif" font-size="10.00">/variables/vmeasurement_p.h</text>
</a>
</g>
</g>
<!-- Node4&#45;&gt;Node58 -->
<g id="edge51" class="edge">
<title>Node4&#45;&gt;Node58</title>
<path fill="none" stroke="midnightblue" d="M3081.76,-195.17C3094.91,-185.23 3110.41,-173.51 3122.23,-164.58"/>
<polygon fill="midnightblue" stroke="midnightblue" points="3079.39,-192.57 3073.52,-201.4 3083.61,-198.16 3079.39,-192.57"/>
</g>
<!-- Node60 -->
<g id="node47" class="node">
<title>Node60</title>
<g id="a_node47"><a xlink:href="../../d6/d91/vnodedetail_8cpp.html" target="_top" xlink:title=" ">
<polygon fill="white" stroke="black" points="3240.36,-134.5 3240.36,-164.5 3347.36,-164.5 3347.36,-134.5 3240.36,-134.5"/>
<text text-anchor="start" x="3248.36" y="-152.5" font-family="Helvetica,sans-Serif" font-size="10.00">src/libs/vpatterndb</text>
<text text-anchor="middle" x="3293.86" y="-141.5" font-family="Helvetica,sans-Serif" font-size="10.00">/vnodedetail.cpp</text>
</a>
</g>
</g>
<!-- Node4&#45;&gt;Node60 -->
<g id="edge54" class="edge">
<title>Node4&#45;&gt;Node60</title>
<path fill="none" stroke="midnightblue" d="M3116.08,-198.85C3155.04,-188.25 3204.96,-174.68 3241.97,-164.61"/>
<polygon fill="midnightblue" stroke="midnightblue" points="3115.15,-195.47 3106.42,-201.48 3116.99,-202.23 3115.15,-195.47"/>
</g>
<!-- Node61 -->
<g id="node48" class="node">
<title>Node61</title>
<g id="a_node48"><a xlink:href="../../da/de1/vpiecepath_8cpp.html" target="_top" xlink:title=" ">
<polygon fill="white" stroke="black" points="3365.36,-134.5 3365.36,-164.5 3472.36,-164.5 3472.36,-134.5 3365.36,-134.5"/>
<text text-anchor="start" x="3373.36" y="-152.5" font-family="Helvetica,sans-Serif" font-size="10.00">src/libs/vpatterndb</text>
<text text-anchor="middle" x="3418.86" y="-141.5" font-family="Helvetica,sans-Serif" font-size="10.00">/vpiecepath.cpp</text>
</a>
</g>
</g>
<!-- Node4&#45;&gt;Node61 -->
<g id="edge57" class="edge">
<title>Node4&#45;&gt;Node61</title>
<path fill="none" stroke="midnightblue" d="M3118.42,-206.08C3179.68,-196.72 3274.9,-181.42 3356.86,-165 3359.57,-164.46 3362.34,-163.88 3365.13,-163.29"/>
<polygon fill="midnightblue" stroke="midnightblue" points="3117.87,-202.63 3108.51,-207.59 3118.92,-209.55 3117.87,-202.63"/>
</g>
<!-- Node62 -->
<g id="node49" class="node">
<title>Node62</title>
<g id="a_node49"><a xlink:href="../../d1/d3a/abstracttest_8cpp.html" target="_top" xlink:title=" ">
<polygon fill="white" stroke="black" points="3490.36,-140 3490.36,-159 3651.36,-159 3651.36,-140 3490.36,-140"/>
<text text-anchor="middle" x="3570.86" y="-147" font-family="Helvetica,sans-Serif" font-size="10.00">src/libs/vtest/abstracttest.cpp</text>
</a>
</g>
</g>
<!-- Node4&#45;&gt;Node62 -->
<g id="edge58" class="edge">
<title>Node4&#45;&gt;Node62</title>
<path fill="none" stroke="midnightblue" d="M3118.64,-208.84C3202.21,-199.91 3353.24,-183.07 3481.86,-165 3494.57,-163.21 3508.27,-161.08 3521.02,-159.01"/>
<polygon fill="midnightblue" stroke="midnightblue" points="3118.12,-205.37 3108.54,-209.91 3118.86,-212.33 3118.12,-205.37"/>
</g>
<!-- Node63 -->
<g id="node50" class="node">
<title>Node63</title>
<g id="a_node50"><a xlink:href="../../da/db4/piece__tablewidgetitem_8cpp.html" target="_top" xlink:title=" ">
<polygon fill="white" stroke="black" points="3669.86,-134.5 3669.86,-164.5 3797.86,-164.5 3797.86,-134.5 3669.86,-134.5"/>
<text text-anchor="start" x="3677.86" y="-152.5" font-family="Helvetica,sans-Serif" font-size="10.00">src/libs/vwidgets/piece</text>
<text text-anchor="middle" x="3733.86" y="-141.5" font-family="Helvetica,sans-Serif" font-size="10.00">_tablewidgetitem.cpp</text>
</a>
</g>
</g>
<!-- Node4&#45;&gt;Node63 -->
<g id="edge59" class="edge">
<title>Node4&#45;&gt;Node63</title>
<path fill="none" stroke="midnightblue" d="M3118.59,-212.56C3229.31,-206.93 3464.18,-192.64 3660.86,-165 3663.8,-164.59 3666.8,-164.13 3669.83,-163.64"/>
<polygon fill="midnightblue" stroke="midnightblue" points="3118.4,-209.07 3108.59,-213.06 3118.75,-216.06 3118.4,-209.07"/>
</g>
<!-- Node5&#45;&gt;Node6 -->
<g id="edge5" class="edge">
<title>Node5&#45;&gt;Node6</title>
<path fill="none" stroke="midnightblue" d="M4102.73,-138.56C4178.18,-128.41 4298.69,-112.16 4402.86,-98 4417.03,-96.07 4432.27,-93.99 4446.64,-92.03"/>
<polygon fill="midnightblue" stroke="midnightblue" points="4101.83,-135.15 4092.39,-139.96 4102.77,-142.09 4101.83,-135.15"/>
</g>
<!-- Node9 -->
<g id="node9" class="node">
<title>Node9</title>
<g id="a_node9"><a xlink:href="../../dd/d66/vdxfengine_8cpp.html" target="_top" xlink:title=" ">
<polygon fill="white" stroke="black" points="4624.86,-73 4624.86,-92 4778.86,-92 4778.86,-73 4624.86,-73"/>
<text text-anchor="middle" x="4701.86" y="-80" font-family="Helvetica,sans-Serif" font-size="10.00">src/libs/vdxf/vdxfengine.cpp</text>
</a>
</g>
</g>
<!-- Node8&#45;&gt;Node9 -->
<g id="edge9" class="edge">
<title>Node8&#45;&gt;Node9</title>
<path fill="none" stroke="midnightblue" d="M4982.53,-137.96C4916.59,-125.16 4806.7,-103.84 4745.83,-92.03"/>
<polygon fill="midnightblue" stroke="midnightblue" points="4982.23,-141.47 4992.72,-139.94 4983.57,-134.59 4982.23,-141.47"/>
</g>
<!-- Node10 -->
<g id="node10" class="node">
<title>Node10</title>
<g id="a_node10"><a xlink:href="../../de/da8/vbank_8cpp.html" target="_top" xlink:title=" ">
<polygon fill="white" stroke="black" points="4796.86,-73 4796.86,-92 4940.86,-92 4940.86,-73 4796.86,-73"/>
<text text-anchor="middle" x="4868.86" y="-80" font-family="Helvetica,sans-Serif" font-size="10.00">src/libs/vlayout/vbank.cpp</text>
</a>
</g>
</g>
<!-- Node8&#45;&gt;Node10 -->
<g id="edge10" class="edge">
<title>Node8&#45;&gt;Node10</title>
<path fill="none" stroke="midnightblue" d="M5004.82,-136.1C4971.46,-123.2 4920.1,-103.33 4890.99,-92.06"/>
<polygon fill="midnightblue" stroke="midnightblue" points="5003.96,-139.52 5014.55,-139.87 5006.48,-133 5003.96,-139.52"/>
</g>
<!-- Node11 -->
<g id="node11" class="node">
<title>Node11</title>
<g id="a_node11"><a xlink:href="../../df/d5d/vcontour_8cpp.html" target="_top" xlink:title=" ">
<polygon fill="white" stroke="black" points="4958.86,-73 4958.86,-92 5114.86,-92 5114.86,-73 4958.86,-73"/>
<text text-anchor="middle" x="5036.86" y="-80" font-family="Helvetica,sans-Serif" font-size="10.00">src/libs/vlayout/vcontour.cpp</text>
</a>
</g>
</g>
<!-- Node8&#45;&gt;Node11 -->
<g id="edge11" class="edge">
<title>Node8&#45;&gt;Node11</title>
<path fill="none" stroke="midnightblue" d="M5036.86,-129.54C5036.86,-117.17 5036.86,-101.62 5036.86,-92.13"/>
<polygon fill="midnightblue" stroke="midnightblue" points="5033.36,-129.73 5036.86,-139.73 5040.36,-129.73 5033.36,-129.73"/>
</g>
<!-- Node12 -->
<g id="node12" class="node">
<title>Node12</title>
<g id="a_node12"><a xlink:href="../../d3/d39/vlayoutgenerator_8cpp.html" target="_top" xlink:title=" ">
<polygon fill="white" stroke="black" points="5133.36,-73 5133.36,-92 5330.36,-92 5330.36,-73 5133.36,-73"/>
<text text-anchor="middle" x="5231.86" y="-80" font-family="Helvetica,sans-Serif" font-size="10.00">src/libs/vlayout/vlayoutgenerator.cpp</text>
</a>
</g>
</g>
<!-- Node8&#45;&gt;Node12 -->
<g id="edge12" class="edge">
<title>Node8&#45;&gt;Node12</title>
<path fill="none" stroke="midnightblue" d="M5072.55,-136.6C5111.22,-123.71 5171.94,-103.47 5206.17,-92.06"/>
<polygon fill="midnightblue" stroke="midnightblue" points="5071.13,-133.39 5062.75,-139.87 5073.35,-140.03 5071.13,-133.39"/>
</g>
<!-- Node13 -->
<g id="node13" class="node">
<title>Node13</title>
<g id="a_node13"><a xlink:href="../../d2/d2d/vlayoutpaper__p_8h.html" target="_top" xlink:title=" ">
<polygon fill="white" stroke="black" points="5387.36,-73 5387.36,-92 5566.36,-92 5566.36,-73 5387.36,-73"/>
<text text-anchor="middle" x="5476.86" y="-80" font-family="Helvetica,sans-Serif" font-size="10.00">src/libs/vlayout/vlayoutpaper_p.h</text>
</a>
</g>
</g>
<!-- Node8&#45;&gt;Node13 -->
<g id="edge13" class="edge">
<title>Node8&#45;&gt;Node13</title>
<path fill="none" stroke="midnightblue" d="M5104.77,-138.47C5190.95,-125.74 5338.08,-104 5419.1,-92.03"/>
<polygon fill="midnightblue" stroke="midnightblue" points="5104.21,-135.01 5094.83,-139.94 5105.24,-141.94 5104.21,-135.01"/>
</g>
<!-- Node14 -->
<g id="node14" class="node">
<title>Node14</title>
<g id="a_node14"><a xlink:href="../../d1/dd1/vlayoutpaper_8cpp.html" target="_top" xlink:title=" ">
<polygon fill="white" stroke="black" points="5387.86,-6 5387.86,-25 5565.86,-25 5565.86,-6 5387.86,-6"/>
<text text-anchor="middle" x="5476.86" y="-13" font-family="Helvetica,sans-Serif" font-size="10.00">src/libs/vlayout/vlayoutpaper.cpp</text>
</a>
</g>
</g>
<!-- Node8&#45;&gt;Node14 -->
<g id="edge15" class="edge">
<title>Node8&#45;&gt;Node14</title>
<path fill="none" stroke="midnightblue" d="M5130.26,-145.06C5192.01,-139.91 5273.5,-127.5 5339.86,-98 5360.09,-89 5360.26,-79.02 5378.86,-67 5404.9,-50.17 5437.23,-34.42 5457.46,-25.12"/>
<polygon fill="midnightblue" stroke="midnightblue" points="5129.83,-141.58 5120.13,-145.85 5130.38,-148.56 5129.83,-141.58"/>
</g>
<!-- Node15 -->
<g id="node15" class="node">
<title>Node15</title>
<g id="a_node15"><a xlink:href="../../db/d5c/vposition_8h.html" target="_top" xlink:title=" ">
<polygon fill="white" stroke="red" points="5584.86,-73 5584.86,-92 5732.86,-92 5732.86,-73 5584.86,-73"/>
<text text-anchor="middle" x="5658.86" y="-80" font-family="Helvetica,sans-Serif" font-size="10.00">src/libs/vlayout/vposition.h</text>
</a>
</g>
</g>
<!-- Node8&#45;&gt;Node15 -->
<g id="edge16" class="edge">
<title>Node8&#45;&gt;Node15</title>
<path fill="none" stroke="midnightblue" d="M5130.38,-142.01C5238.08,-134 5420.19,-118.86 5575.86,-98 5588.18,-96.35 5601.47,-94.2 5613.73,-92.06"/>
<polygon fill="midnightblue" stroke="midnightblue" points="5129.91,-138.53 5120.19,-142.76 5130.42,-145.51 5129.91,-138.53"/>
</g>
<!-- Node17 -->
<g id="node16" class="node">
<title>Node17</title>
<g id="a_node16"><a xlink:href="../../dd/d70/vlayoutpiece_8cpp.html" target="_top" xlink:title=" ">
<polygon fill="white" stroke="black" points="4216.36,-73 4216.36,-92 4393.36,-92 4393.36,-73 4216.36,-73"/>
<text text-anchor="middle" x="4304.86" y="-80" font-family="Helvetica,sans-Serif" font-size="10.00">src/libs/vlayout/vlayoutpiece.cpp</text>
</a>
</g>
</g>
<!-- Node8&#45;&gt;Node17 -->
<g id="edge18" class="edge">
<title>Node8&#45;&gt;Node17</title>
<path fill="none" stroke="midnightblue" d="M4943.51,-143.1C4819.53,-135.46 4593.82,-119.95 4401.86,-98 4387.39,-96.35 4371.77,-94.18 4357.38,-92.03"/>
<polygon fill="midnightblue" stroke="midnightblue" points="4943.53,-146.61 4953.72,-143.72 4943.96,-139.62 4943.53,-146.61"/>
</g>
<!-- Node13&#45;&gt;Node14 -->
<g id="edge14" class="edge">
<title>Node13&#45;&gt;Node14</title>
<path fill="none" stroke="midnightblue" d="M5476.86,-62.54C5476.86,-50.17 5476.86,-34.62 5476.86,-25.13"/>
<polygon fill="midnightblue" stroke="midnightblue" points="5473.36,-62.73 5476.86,-72.73 5480.36,-62.73 5473.36,-62.73"/>
</g>
<!-- Node15&#45;&gt;Node14 -->
<g id="edge17" class="edge">
<title>Node15&#45;&gt;Node14</title>
<path fill="none" stroke="midnightblue" d="M5625.08,-69.44C5588.97,-56.54 5532.65,-36.42 5500.84,-25.06"/>
<polygon fill="midnightblue" stroke="midnightblue" points="5624.09,-72.8 5634.69,-72.87 5626.45,-66.21 5624.09,-72.8"/>
</g>
<!-- Node18&#45;&gt;Node7 -->
<g id="edge31" class="edge">
<title>Node18&#45;&gt;Node7</title>
<path fill="none" stroke="midnightblue" d="M2119.1,-143.61C2048.74,-140.54 1954.86,-136.67 1871.86,-134 1188.02,-112.04 1014.65,-155.19 332.86,-98 316.69,-96.64 299.15,-94.37 283.34,-92.03"/>
<polygon fill="midnightblue" stroke="midnightblue" points="2119.17,-147.12 2129.31,-144.06 2119.47,-140.12 2119.17,-147.12"/>
</g>
<!-- Node18&#45;&gt;Node17 -->
<g id="edge30" class="edge">
<title>Node18&#45;&gt;Node17</title>
<path fill="none" stroke="midnightblue" d="M2334.58,-146.12C2734.27,-137.25 4114.14,-106.17 4207.86,-98 4223.46,-96.64 4240.38,-94.38 4255.65,-92.05"/>
<polygon fill="midnightblue" stroke="midnightblue" points="2334.39,-142.62 2324.47,-146.35 2334.54,-149.62 2334.39,-142.62"/>
</g>
<!-- Node19 -->
<g id="node18" class="node">
<title>Node19</title>
<g id="a_node18"><a xlink:href="../../d4/d90/fvupdater_8cpp.html" target="_top" xlink:title=" ">
<polygon fill="white" stroke="black" points="3017.36,-73 3017.36,-92 3170.36,-92 3170.36,-73 3017.36,-73"/>
<text text-anchor="middle" x="3093.86" y="-80" font-family="Helvetica,sans-Serif" font-size="10.00">src/libs/fervor/fvupdater.cpp</text>
</a>
</g>
</g>
<!-- Node18&#45;&gt;Node19 -->
<g id="edge20" class="edge">
<title>Node18&#45;&gt;Node19</title>
<path fill="none" stroke="midnightblue" d="M2334.75,-145.02C2485.72,-139.36 2768.4,-125.85 3007.86,-98 3021.09,-96.46 3035.39,-94.27 3048.46,-92.05"/>
<polygon fill="midnightblue" stroke="midnightblue" points="2334.42,-141.53 2324.55,-145.4 2334.67,-148.53 2334.42,-141.53"/>
</g>
<!-- Node20 -->
<g id="node19" class="node">
<title>Node20</title>
<g id="a_node19"><a xlink:href="../../d9/dc8/dxiface_8cpp.html" target="_top" xlink:title=" ">
<polygon fill="white" stroke="black" points="3188.36,-73 3188.36,-92 3323.36,-92 3323.36,-73 3188.36,-73"/>
<text text-anchor="middle" x="3255.86" y="-80" font-family="Helvetica,sans-Serif" font-size="10.00">src/libs/vdxf/dxiface.cpp</text>
</a>
</g>
</g>
<!-- Node18&#45;&gt;Node20 -->
<g id="edge21" class="edge">
<title>Node18&#45;&gt;Node20</title>
<path fill="none" stroke="midnightblue" d="M2334.74,-147.54C2511.82,-144.89 2874.91,-135 3179.86,-98 3191.86,-96.54 3204.81,-94.32 3216.57,-92.05"/>
<polygon fill="midnightblue" stroke="midnightblue" points="2334.59,-144.04 2324.64,-147.68 2334.69,-151.04 2334.59,-144.04"/>
</g>
<!-- Node21 -->
<g id="node20" class="node">
<title>Node21</title>
<g id="a_node20"><a xlink:href="../../da/d75/vabstractarc__p_8h.html" target="_top" xlink:title=" ">
<polygon fill="white" stroke="red" points="3341.36,-67.5 3341.36,-97.5 3448.36,-97.5 3448.36,-67.5 3341.36,-67.5"/>
<text text-anchor="start" x="3349.36" y="-85.5" font-family="Helvetica,sans-Serif" font-size="10.00">src/libs/vgeometry</text>
<text text-anchor="middle" x="3394.86" y="-74.5" font-family="Helvetica,sans-Serif" font-size="10.00">/vabstractarc_p.h</text>
</a>
</g>
</g>
<!-- Node18&#45;&gt;Node21 -->
<g id="edge22" class="edge">
<title>Node18&#45;&gt;Node21</title>
<path fill="none" stroke="midnightblue" d="M2334.69,-146.11C2573.8,-140.38 3142.34,-124.4 3332.86,-98 3335.59,-97.62 3338.39,-97.18 3341.2,-96.69"/>
<polygon fill="midnightblue" stroke="midnightblue" points="2334.51,-142.61 2324.6,-146.35 2334.68,-149.61 2334.51,-142.61"/>
</g>
<!-- Node23 -->
<g id="node21" class="node">
<title>Node23</title>
<g id="a_node21"><a xlink:href="../../dc/da3/varc__p_8h.html" target="_top" xlink:title=" ">
<polygon fill="white" stroke="red" points="3466.36,-67.5 3466.36,-97.5 3573.36,-97.5 3573.36,-67.5 3466.36,-67.5"/>
<text text-anchor="start" x="3474.36" y="-85.5" font-family="Helvetica,sans-Serif" font-size="10.00">src/libs/vgeometry</text>
<text text-anchor="middle" x="3519.86" y="-74.5" font-family="Helvetica,sans-Serif" font-size="10.00">/varc_p.h</text>
</a>
</g>
</g>
<!-- Node18&#45;&gt;Node23 -->
<g id="edge23" class="edge">
<title>Node18&#45;&gt;Node23</title>
<path fill="none" stroke="midnightblue" d="M2334.57,-145.25C2614.06,-136.64 3348.41,-112.91 3457.86,-98 3460.6,-97.63 3463.39,-97.19 3466.2,-96.7"/>
<polygon fill="midnightblue" stroke="midnightblue" points="2334.3,-141.75 2324.42,-145.56 2334.52,-148.75 2334.3,-141.75"/>
</g>
<!-- Node25 -->
<g id="node22" class="node">
<title>Node25</title>
<g id="a_node22"><a xlink:href="../../d5/d8e/vcubicbezier__p_8h.html" target="_top" xlink:title=" ">
<polygon fill="white" stroke="red" points="3591.36,-67.5 3591.36,-97.5 3698.36,-97.5 3698.36,-67.5 3591.36,-67.5"/>
<text text-anchor="start" x="3599.36" y="-85.5" font-family="Helvetica,sans-Serif" font-size="10.00">src/libs/vgeometry</text>
<text text-anchor="middle" x="3644.86" y="-74.5" font-family="Helvetica,sans-Serif" font-size="10.00">/vcubicbezier_p.h</text>
</a>
</g>
</g>
<!-- Node18&#45;&gt;Node25 -->
<g id="edge24" class="edge">
<title>Node18&#45;&gt;Node25</title>
<path fill="none" stroke="midnightblue" d="M2335.03,-145.67C2634.58,-137.67 3460.89,-114.38 3582.86,-98 3585.6,-97.63 3588.39,-97.2 3591.21,-96.71"/>
<polygon fill="midnightblue" stroke="midnightblue" points="2334.5,-142.18 2324.6,-145.95 2334.69,-149.18 2334.5,-142.18"/>
</g>
<!-- Node27 -->
<g id="node23" class="node">
<title>Node27</title>
<g id="a_node23"><a xlink:href="../../df/dde/vellipticalarc__p_8h.html" target="_top" xlink:title=" ">
<polygon fill="white" stroke="black" points="3716.36,-67.5 3716.36,-97.5 3823.36,-97.5 3823.36,-67.5 3716.36,-67.5"/>
<text text-anchor="start" x="3724.36" y="-85.5" font-family="Helvetica,sans-Serif" font-size="10.00">src/libs/vgeometry</text>
<text text-anchor="middle" x="3769.86" y="-74.5" font-family="Helvetica,sans-Serif" font-size="10.00">/vellipticalarc_p.h</text>
</a>
</g>
</g>
<!-- Node18&#45;&gt;Node27 -->
<g id="edge25" class="edge">
<title>Node18&#45;&gt;Node27</title>
<path fill="none" stroke="midnightblue" d="M2334.65,-146.04C2652.66,-138.63 3573.2,-115.87 3707.86,-98 3710.6,-97.64 3713.39,-97.21 3716.21,-96.72"/>
<polygon fill="midnightblue" stroke="midnightblue" points="2334.42,-142.55 2324.5,-146.28 2334.58,-149.55 2334.42,-142.55"/>
</g>
<!-- Node28 -->
<g id="node24" class="node">
<title>Node28</title>
<g id="a_node24"><a xlink:href="../../d6/dfb/vellipticalarc_8cpp.html" target="_top" xlink:title=" ">
<polygon fill="white" stroke="black" points="2898.36,-0.5 2898.36,-30.5 3005.36,-30.5 3005.36,-0.5 2898.36,-0.5"/>
<text text-anchor="start" x="2906.36" y="-18.5" font-family="Helvetica,sans-Serif" font-size="10.00">src/libs/vgeometry</text>
<text text-anchor="middle" x="2951.86" y="-7.5" font-family="Helvetica,sans-Serif" font-size="10.00">/vellipticalarc.cpp</text>
</a>
</g>
</g>
<!-- Node18&#45;&gt;Node28 -->
<g id="edge27" class="edge">
<title>Node18&#45;&gt;Node28</title>
<path fill="none" stroke="midnightblue" d="M2199.7,-135C2170.38,-118.74 2130.67,-90.64 2152.86,-67 2178.39,-39.8 2723.34,-22.7 2898.3,-17.89"/>
<polygon fill="midnightblue" stroke="midnightblue" points="2198.29,-138.22 2208.76,-139.85 2201.59,-132.05 2198.29,-138.22"/>
</g>
<!-- Node29 -->
<g id="node25" class="node">
<title>Node29</title>
<g id="a_node25"><a xlink:href="../../d1/d76/vspline__p_8h.html" target="_top" xlink:title=" ">
<polygon fill="white" stroke="red" points="3841.36,-67.5 3841.36,-97.5 3948.36,-97.5 3948.36,-67.5 3841.36,-67.5"/>
<text text-anchor="start" x="3849.36" y="-85.5" font-family="Helvetica,sans-Serif" font-size="10.00">src/libs/vgeometry</text>
<text text-anchor="middle" x="3894.86" y="-74.5" font-family="Helvetica,sans-Serif" font-size="10.00">/vspline_p.h</text>
</a>
</g>
</g>
<!-- Node18&#45;&gt;Node29 -->
<g id="edge28" class="edge">
<title>Node18&#45;&gt;Node29</title>
<path fill="none" stroke="midnightblue" d="M2334.5,-145.7C2682.45,-136.58 3758.74,-107.73 3832.86,-98 3835.6,-97.64 3838.39,-97.21 3841.21,-96.73"/>
<polygon fill="midnightblue" stroke="midnightblue" points="2334.32,-142.21 2324.42,-145.97 2334.51,-149.2 2334.32,-142.21"/>
</g>
<!-- Node31 -->
<g id="node26" class="node">
<title>Node31</title>
<g id="a_node26"><a xlink:href="../../d9/d15/vabstractpiece_8cpp.html" target="_top" xlink:title=" ">
<polygon fill="white" stroke="black" points="341.86,-73 341.86,-92 527.86,-92 527.86,-73 341.86,-73"/>
<text text-anchor="middle" x="434.86" y="-80" font-family="Helvetica,sans-Serif" font-size="10.00">src/libs/vlayout/vabstractpiece.cpp</text>
</a>
</g>
</g>
<!-- Node18&#45;&gt;Node31 -->
<g id="edge29" class="edge">
<title>Node18&#45;&gt;Node31</title>
<path fill="none" stroke="midnightblue" d="M2119.1,-143.71C2048.74,-140.68 1954.85,-136.81 1871.86,-134 1279.09,-113.9 1128.9,-147.42 537.86,-98 521.3,-96.62 503.34,-94.35 487.13,-92.02"/>
<polygon fill="midnightblue" stroke="midnightblue" points="2119.17,-147.22 2129.31,-144.15 2119.47,-140.22 2119.17,-147.22"/>
</g>
<!-- Node32 -->
<g id="node27" class="node">
<title>Node32</title>
<g id="a_node27"><a xlink:href="../../db/d65/dialogexporttocsv_8cpp.html" target="_top" xlink:title=" ">
<polygon fill="white" stroke="black" points="546.36,-67.5 546.36,-97.5 673.36,-97.5 673.36,-67.5 546.36,-67.5"/>
<text text-anchor="start" x="554.36" y="-85.5" font-family="Helvetica,sans-Serif" font-size="10.00">src/libs/vmisc/dialogs</text>
<text text-anchor="middle" x="609.86" y="-74.5" font-family="Helvetica,sans-Serif" font-size="10.00">/dialogexporttocsv.cpp</text>
</a>
</g>
</g>
<!-- Node18&#45;&gt;Node32 -->
<g id="edge32" class="edge">
<title>Node18&#45;&gt;Node32</title>
<path fill="none" stroke="midnightblue" d="M2119.1,-143.8C2048.73,-140.81 1954.85,-136.95 1871.86,-134 1343.5,-115.21 1208.16,-157.71 682.86,-98 679.78,-97.65 676.63,-97.24 673.46,-96.78"/>
<polygon fill="midnightblue" stroke="midnightblue" points="2119.16,-147.31 2129.3,-144.24 2119.46,-140.32 2119.16,-147.31"/>
</g>
<!-- Node33 -->
<g id="node28" class="node">
<title>Node33</title>
<g id="a_node28"><a xlink:href="../../d6/d0b/def_8cpp.html" target="_top" xlink:title=" ">
<polygon fill="white" stroke="black" points="691.86,-73 691.86,-92 813.86,-92 813.86,-73 691.86,-73"/>
<text text-anchor="middle" x="752.86" y="-80" font-family="Helvetica,sans-Serif" font-size="10.00">src/libs/vmisc/def.cpp</text>
</a>
</g>
</g>
<!-- Node18&#45;&gt;Node33 -->
<g id="edge33" class="edge">
<title>Node18&#45;&gt;Node33</title>
<path fill="none" stroke="midnightblue" d="M2119.09,-143.92C2048.72,-140.97 1954.84,-137.12 1871.86,-134 1405.69,-116.48 1286.04,-153.51 822.86,-98 811.52,-96.64 799.29,-94.39 788.28,-92.06"/>
<polygon fill="midnightblue" stroke="midnightblue" points="2119.16,-147.42 2129.3,-144.34 2119.46,-140.43 2119.16,-147.42"/>
</g>
<!-- Node34 -->
<g id="node29" class="node">
<title>Node34</title>
<g id="a_node29"><a xlink:href="../../d0/df6/vabstractapplication_8cpp.html" target="_top" xlink:title=" ">
<polygon fill="white" stroke="black" points="831.86,-73 831.86,-92 1037.86,-92 1037.86,-73 831.86,-73"/>
<text text-anchor="middle" x="934.86" y="-80" font-family="Helvetica,sans-Serif" font-size="10.00">src/libs/vmisc/vabstractapplication.cpp</text>
</a>
</g>
</g>
<!-- Node18&#45;&gt;Node34 -->
<g id="edge34" class="edge">
<title>Node18&#45;&gt;Node34</title>
<path fill="none" stroke="midnightblue" d="M2118.53,-143.98C1832.01,-132.02 1074.32,-100.26 1047.86,-98 1030.22,-96.49 1011.1,-94.27 993.7,-92.01"/>
<polygon fill="midnightblue" stroke="midnightblue" points="2118.79,-147.5 2128.93,-144.42 2119.09,-140.5 2118.79,-147.5"/>
</g>
<!-- Node35 -->
<g id="node30" class="node">
<title>Node35</title>
<g id="a_node30"><a xlink:href="../../d4/d4f/pmsystems_8cpp.html" target="_top" xlink:title=" ">
<polygon fill="white" stroke="black" points="1181.36,-67.5 1181.36,-97.5 1288.36,-97.5 1288.36,-67.5 1181.36,-67.5"/>
<text text-anchor="start" x="1189.36" y="-85.5" font-family="Helvetica,sans-Serif" font-size="10.00">src/libs/vpatterndb</text>
<text text-anchor="middle" x="1234.86" y="-74.5" font-family="Helvetica,sans-Serif" font-size="10.00">/pmsystems.cpp</text>
</a>
</g>
</g>
<!-- Node18&#45;&gt;Node35 -->
<g id="edge35" class="edge">
<title>Node18&#45;&gt;Node35</title>
<path fill="none" stroke="midnightblue" d="M2118.73,-143.67C1891.16,-133.35 1377.16,-109.2 1297.86,-98 1294.86,-97.58 1291.79,-97.08 1288.7,-96.53"/>
<polygon fill="midnightblue" stroke="midnightblue" points="2118.86,-147.18 2129.01,-144.14 2119.18,-140.19 2118.86,-147.18"/>
</g>
<!-- Node18&#45;&gt;Node36 -->
<g id="edge36" class="edge">
<title>Node18&#45;&gt;Node36</title>
<path fill="none" stroke="midnightblue" d="M2334.71,-145.64C2706.98,-135.75 3917.51,-103.25 3957.86,-98 3960.6,-97.64 3963.39,-97.22 3966.21,-96.74"/>
<polygon fill="midnightblue" stroke="midnightblue" points="2334.38,-142.15 2324.48,-145.92 2334.56,-149.15 2334.38,-142.15"/>
</g>
<!-- Node18&#45;&gt;Node37 -->
<g id="edge37" class="edge">
<title>Node18&#45;&gt;Node37</title>
<path fill="none" stroke="midnightblue" d="M2118.95,-146.5C1704.36,-138.75 231.98,-110.47 132.86,-98 129.85,-97.62 126.78,-97.16 123.69,-96.64"/>
<polygon fill="midnightblue" stroke="midnightblue" points="2119.07,-150.01 2129.14,-146.69 2119.2,-143.01 2119.07,-150.01"/>
</g>
<!-- Node18&#45;&gt;Node38 -->
<g id="edge38" class="edge">
<title>Node18&#45;&gt;Node38</title>
<path fill="none" stroke="midnightblue" d="M2334.83,-145.86C2724.73,-136.27 4039.31,-103.63 4082.86,-98 4085.6,-97.65 4088.39,-97.22 4091.21,-96.75"/>
<polygon fill="midnightblue" stroke="midnightblue" points="2334.59,-142.36 2324.68,-146.11 2334.76,-149.36 2334.59,-142.36"/>
</g>
<!-- Node39 -->
<g id="node34" class="node">
<title>Node39</title>
<g id="a_node34"><a xlink:href="../../df/dba/vpiecenode__p_8h.html" target="_top" xlink:title=" ">
<polygon fill="white" stroke="black" points="1056.36,-67.5 1056.36,-97.5 1163.36,-97.5 1163.36,-67.5 1056.36,-67.5"/>
<text text-anchor="start" x="1064.36" y="-85.5" font-family="Helvetica,sans-Serif" font-size="10.00">src/libs/vpatterndb</text>
<text text-anchor="middle" x="1109.86" y="-74.5" font-family="Helvetica,sans-Serif" font-size="10.00">/vpiecenode_p.h</text>
</a>
</g>
</g>
<!-- Node18&#45;&gt;Node39 -->
<g id="edge39" class="edge">
<title>Node18&#45;&gt;Node39</title>
<path fill="none" stroke="midnightblue" d="M2118.94,-143.85C1859.56,-132.6 1219.08,-104.38 1172.86,-98 1169.86,-97.59 1166.79,-97.1 1163.7,-96.56"/>
<polygon fill="midnightblue" stroke="midnightblue" points="2118.99,-147.35 2129.13,-144.29 2119.29,-140.36 2118.99,-147.35"/>
</g>
<!-- Node41 -->
<g id="node36" class="node">
<title>Node41</title>
<g id="a_node36"><a xlink:href="../../de/d3e/vtranslatevars_8cpp.html" target="_top" xlink:title=" ">
<polygon fill="white" stroke="black" points="1306.86,-67.5 1306.86,-97.5 1416.86,-97.5 1416.86,-67.5 1306.86,-67.5"/>
<text text-anchor="start" x="1314.86" y="-85.5" font-family="Helvetica,sans-Serif" font-size="10.00">src/libs/vpatterndb</text>
<text text-anchor="middle" x="1361.86" y="-74.5" font-family="Helvetica,sans-Serif" font-size="10.00">/vtranslatevars.cpp</text>
</a>
</g>
</g>
<!-- Node18&#45;&gt;Node41 -->
<g id="edge41" class="edge">
<title>Node18&#45;&gt;Node41</title>
<path fill="none" stroke="midnightblue" d="M2119.06,-143.79C1932.6,-135.29 1557.33,-116.55 1426.86,-98 1423.65,-97.54 1420.37,-97.01 1417.07,-96.43"/>
<polygon fill="midnightblue" stroke="midnightblue" points="2119.01,-147.29 2129.16,-144.25 2119.33,-140.3 2119.01,-147.29"/>
</g>
<!-- Node42 -->
<g id="node37" class="node">
<title>Node42</title>
<g id="a_node37"><a xlink:href="../../df/d40/export__format__combobox_8cpp.html" target="_top" xlink:title=" ">
<polygon fill="white" stroke="black" points="1435.36,-67.5 1435.36,-97.5 1568.36,-97.5 1568.36,-67.5 1435.36,-67.5"/>
<text text-anchor="start" x="1443.36" y="-85.5" font-family="Helvetica,sans-Serif" font-size="10.00">src/libs/vwidgets/export</text>
<text text-anchor="middle" x="1501.86" y="-74.5" font-family="Helvetica,sans-Serif" font-size="10.00">_format_combobox.cpp</text>
</a>
</g>
</g>
<!-- Node18&#45;&gt;Node42 -->
<g id="edge42" class="edge">
<title>Node18&#45;&gt;Node42</title>
<path fill="none" stroke="midnightblue" d="M2118.91,-143.77C1989.81,-137.26 1767.35,-123.37 1577.86,-98 1574.8,-97.59 1571.67,-97.14 1568.52,-96.65"/>
<polygon fill="midnightblue" stroke="midnightblue" points="2119.03,-147.28 2129.2,-144.28 2119.38,-140.29 2119.03,-147.28"/>
</g>
<!-- Node43 -->
<g id="node38" class="node">
<title>Node43</title>
<g id="a_node38"><a xlink:href="../../d3/d4f/mouse__coordinates_8cpp.html" target="_top" xlink:title=" ">
<polygon fill="white" stroke="black" points="1586.86,-67.5 1586.86,-97.5 1720.86,-97.5 1720.86,-67.5 1586.86,-67.5"/>
<text text-anchor="start" x="1594.86" y="-85.5" font-family="Helvetica,sans-Serif" font-size="10.00">src/libs/vwidgets/mouse</text>
<text text-anchor="middle" x="1653.86" y="-74.5" font-family="Helvetica,sans-Serif" font-size="10.00">_coordinates.cpp</text>
</a>
</g>
</g>
<!-- Node18&#45;&gt;Node43 -->
<g id="edge43" class="edge">
<title>Node18&#45;&gt;Node43</title>
<path fill="none" stroke="midnightblue" d="M2118.97,-140.17C2018.28,-131.76 1863.99,-117.28 1730.86,-98 1727.63,-97.53 1724.32,-97.02 1720.99,-96.49"/>
<polygon fill="midnightblue" stroke="midnightblue" points="2118.89,-143.67 2129.15,-141.01 2119.47,-136.7 2118.89,-143.67"/>
</g>
<!-- Node44 -->
<g id="node39" class="node">
<title>Node44</title>
<g id="a_node39"><a xlink:href="../../d7/d1b/pen__toolbar_8cpp.html" target="_top" xlink:title=" ">
<polygon fill="white" stroke="black" points="1739.36,-67.5 1739.36,-97.5 1858.36,-97.5 1858.36,-67.5 1739.36,-67.5"/>
<text text-anchor="start" x="1747.36" y="-85.5" font-family="Helvetica,sans-Serif" font-size="10.00">src/libs/vwidgets/pen</text>
<text text-anchor="middle" x="1798.86" y="-74.5" font-family="Helvetica,sans-Serif" font-size="10.00">_toolbar.cpp</text>
</a>
</g>
</g>
<!-- Node18&#45;&gt;Node44 -->
<g id="edge44" class="edge">
<title>Node18&#45;&gt;Node44</title>
<path fill="none" stroke="midnightblue" d="M2146.1,-138.72C2073.18,-129.51 1963.04,-114.68 1867.86,-98 1864.84,-97.47 1861.76,-96.91 1858.65,-96.32"/>
<polygon fill="midnightblue" stroke="midnightblue" points="2145.77,-142.21 2156.13,-139.98 2146.65,-135.26 2145.77,-142.21"/>
</g>
<!-- Node45 -->
<g id="node40" class="node">
<title>Node45</title>
<g id="a_node40"><a xlink:href="../../dd/df6/vabstractmainwindow_8cpp.html" target="_top" xlink:title=" ">
<polygon fill="white" stroke="black" points="1876.36,-73 1876.36,-92 2105.36,-92 2105.36,-73 1876.36,-73"/>
<text text-anchor="middle" x="1990.86" y="-80" font-family="Helvetica,sans-Serif" font-size="10.00">src/libs/vwidgets/vabstractmainwindow.cpp</text>
</a>
</g>
</g>
<!-- Node18&#45;&gt;Node45 -->
<g id="edge45" class="edge">
<title>Node18&#45;&gt;Node45</title>
<path fill="none" stroke="midnightblue" d="M2185.73,-137.17C2139.06,-124.32 2063.99,-103.64 2021.95,-92.06"/>
<polygon fill="midnightblue" stroke="midnightblue" points="2184.95,-140.59 2195.52,-139.87 2186.81,-133.84 2184.95,-140.59"/>
</g>
<!-- Node46 -->
<g id="node41" class="node">
<title>Node46</title>
<g id="a_node41"><a xlink:href="../../d8/d76/scene__rect_8cpp.html" target="_top" xlink:title=" ">
<polygon fill="white" stroke="black" points="2161.86,-67.5 2161.86,-97.5 2291.86,-97.5 2291.86,-67.5 2161.86,-67.5"/>
<text text-anchor="start" x="2169.86" y="-85.5" font-family="Helvetica,sans-Serif" font-size="10.00">src/libs/vwidgets/scene</text>
<text text-anchor="middle" x="2226.86" y="-74.5" font-family="Helvetica,sans-Serif" font-size="10.00">_rect.cpp</text>
</a>
</g>
</g>
<!-- Node18&#45;&gt;Node46 -->
<g id="edge46" class="edge">
<title>Node18&#45;&gt;Node46</title>
<path fill="none" stroke="midnightblue" d="M2226.86,-129.41C2226.86,-119.22 2226.86,-106.9 2226.86,-97.59"/>
<polygon fill="midnightblue" stroke="midnightblue" points="2223.36,-129.73 2226.86,-139.73 2230.36,-129.73 2223.36,-129.73"/>
</g>
<!-- Node47 -->
<g id="node42" class="node">
<title>Node47</title>
<g id="a_node42"><a xlink:href="../../de/d45/vcontrolpointspline_8cpp.html" target="_top" xlink:title=" ">
<polygon fill="white" stroke="black" points="2310.36,-73 2310.36,-92 2525.36,-92 2525.36,-73 2310.36,-73"/>
<text text-anchor="middle" x="2417.86" y="-80" font-family="Helvetica,sans-Serif" font-size="10.00">src/libs/vwidgets/vcontrolpointspline.cpp</text>
</a>
</g>
</g>
<!-- Node18&#45;&gt;Node47 -->
<g id="edge47" class="edge">
<title>Node18&#45;&gt;Node47</title>
<path fill="none" stroke="midnightblue" d="M2261.82,-136.6C2299.69,-123.71 2359.17,-103.47 2392.69,-92.06"/>
<polygon fill="midnightblue" stroke="midnightblue" points="2260.56,-133.33 2252.22,-139.87 2262.81,-139.96 2260.56,-133.33"/>
</g>
<!-- Node48 -->
<g id="node43" class="node">
<title>Node48</title>
<g id="a_node43"><a xlink:href="../../d1/d90/vgrainlineitem_8cpp.html" target="_top" xlink:title=" ">
<polygon fill="white" stroke="black" points="2543.36,-73 2543.36,-92 2736.36,-92 2736.36,-73 2543.36,-73"/>
<text text-anchor="middle" x="2639.86" y="-80" font-family="Helvetica,sans-Serif" font-size="10.00">src/libs/vwidgets/vgrainlineitem.cpp</text>
</a>
</g>
</g>
<!-- Node18&#45;&gt;Node48 -->
<g id="edge48" class="edge">
<title>Node18&#45;&gt;Node48</title>
<path fill="none" stroke="midnightblue" d="M2291.35,-138.35C2372.33,-125.6 2509.83,-103.96 2585.65,-92.03"/>
<polygon fill="midnightblue" stroke="midnightblue" points="2290.61,-134.92 2281.27,-139.94 2291.7,-141.84 2290.61,-134.92"/>
</g>
<!-- Node49 -->
<g id="node44" class="node">
<title>Node49</title>
<g id="a_node44"><a xlink:href="../../de/dec/vgraphicssimpletextitem_8cpp.html" target="_top" xlink:title=" ">
<polygon fill="white" stroke="black" points="2754.86,-73 2754.86,-92 2998.86,-92 2998.86,-73 2754.86,-73"/>
<text text-anchor="middle" x="2876.86" y="-80" font-family="Helvetica,sans-Serif" font-size="10.00">src/libs/vwidgets/vgraphicssimpletextitem.cpp</text>
</a>
</g>
</g>
<!-- Node18&#45;&gt;Node49 -->
<g id="edge49" class="edge">
<title>Node18&#45;&gt;Node49</title>
<path fill="none" stroke="midnightblue" d="M2328.54,-139.01C2433.21,-129.14 2600.98,-113.07 2745.86,-98 2763.84,-96.13 2783.19,-94.03 2801.37,-92.03"/>
<polygon fill="midnightblue" stroke="midnightblue" points="2327.93,-135.55 2318.3,-139.97 2328.59,-142.52 2327.93,-135.55"/>
</g>
<!-- Node27&#45;&gt;Node28 -->
<g id="edge26" class="edge">
<title>Node27&#45;&gt;Node28</title>
<path fill="none" stroke="midnightblue" d="M3705.91,-66.86C3438.68,-27.78 3128.65,-19.09 3005.8,-17.09"/>
<polygon fill="midnightblue" stroke="midnightblue" points="3705.79,-70.38 3716.19,-68.38 3706.81,-63.46 3705.79,-70.38"/>
</g>
<!-- Node39&#45;&gt;Node40 -->
<g id="edge40" class="edge">
<title>Node39&#45;&gt;Node40</title>
<path fill="none" stroke="midnightblue" d="M1046.34,-67.06C878.84,-39.92 692.4,-25.63 602.58,-19.73"/>
<polygon fill="midnightblue" stroke="midnightblue" points="1045.9,-70.54 1056.33,-68.7 1047.03,-63.63 1045.9,-70.54"/>
</g>
</g>
</svg>
