<?xml version="1.0" encoding="UTF-8" standalone="no"?>
<!DOCTYPE svg PUBLIC "-//W3C//DTD SVG 1.1//EN"
 "http://www.w3.org/Graphics/SVG/1.1/DTD/svg11.dtd">
<!-- Generated by graphviz version 2.43.0 (0)
 -->
<!-- Title: src/libs/vpatterndb/variables/vcurveangle.h Pages: 1 -->
<svg width="5620pt" height="385pt"
 viewBox="0.00 0.00 5620.28 385.00" xmlns="http://www.w3.org/2000/svg" xmlns:xlink="http://www.w3.org/1999/xlink">
<g id="graph0" class="graph" transform="scale(1 1) rotate(0) translate(4 381)">
<title>src/libs/vpatterndb/variables/vcurveangle.h</title>
<polygon fill="white" stroke="transparent" points="-4,4 -4,-381 5616.28,-381 5616.28,4 -4,4"/>
<!-- Node1 -->
<g id="node1" class="node">
<title>Node1</title>
<g id="a_node1"><a xlink:title=" ">
<polygon fill="#bfbfbf" stroke="black" points="222,-346.5 222,-376.5 359,-376.5 359,-346.5 222,-346.5"/>
<text text-anchor="start" x="230" y="-364.5" font-family="Helvetica,sans-Serif" font-size="10.00">src/libs/vpatterndb</text>
<text text-anchor="middle" x="290.5" y="-353.5" font-family="Helvetica,sans-Serif" font-size="10.00">/variables/vcurveangle.h</text>
</a>
</g>
</g>
<!-- Node2 -->
<g id="node2" class="node">
<title>Node2</title>
<g id="a_node2"><a xlink:href="../../df/db3/vcurveangle_8cpp.html" target="_top" xlink:title=" ">
<polygon fill="white" stroke="black" points="114.5,-279.5 114.5,-309.5 262.5,-309.5 262.5,-279.5 114.5,-279.5"/>
<text text-anchor="start" x="122.5" y="-297.5" font-family="Helvetica,sans-Serif" font-size="10.00">src/libs/vpatterndb</text>
<text text-anchor="middle" x="188.5" y="-286.5" font-family="Helvetica,sans-Serif" font-size="10.00">/variables/vcurveangle.cpp</text>
</a>
</g>
</g>
<!-- Node1&#45;&gt;Node2 -->
<g id="edge1" class="edge">
<title>Node1&#45;&gt;Node2</title>
<path fill="none" stroke="midnightblue" d="M259.92,-341.02C244.05,-330.9 225.02,-318.77 210.59,-309.58"/>
<polygon fill="midnightblue" stroke="midnightblue" points="258.05,-343.97 268.37,-346.4 261.82,-338.07 258.05,-343.97"/>
</g>
<!-- Node3 -->
<g id="node3" class="node">
<title>Node3</title>
<g id="a_node3"><a xlink:href="../../d6/d46/vcontainer_8cpp.html" target="_top" xlink:title=" ">
<polygon fill="white" stroke="black" points="0,-67.5 0,-97.5 107,-97.5 107,-67.5 0,-67.5"/>
<text text-anchor="start" x="8" y="-85.5" font-family="Helvetica,sans-Serif" font-size="10.00">src/libs/vpatterndb</text>
<text text-anchor="middle" x="53.5" y="-74.5" font-family="Helvetica,sans-Serif" font-size="10.00">/vcontainer.cpp</text>
</a>
</g>
</g>
<!-- Node1&#45;&gt;Node3 -->
<g id="edge2" class="edge">
<title>Node1&#45;&gt;Node3</title>
<path fill="none" stroke="midnightblue" d="M288.69,-336.05C286.53,-319.06 281.82,-296.44 271.5,-279 221.4,-194.35 122.49,-125.97 77.18,-97.63"/>
<polygon fill="midnightblue" stroke="midnightblue" points="285.24,-336.71 289.77,-346.28 292.2,-335.97 285.24,-336.71"/>
</g>
<!-- Node4 -->
<g id="node4" class="node">
<title>Node4</title>
<g id="a_node4"><a xlink:href="../../de/dca/variables_8h.html" target="_top" xlink:title=" ">
<polygon fill="white" stroke="black" points="2012,-279.5 2012,-309.5 2119,-309.5 2119,-279.5 2012,-279.5"/>
<text text-anchor="start" x="2020" y="-297.5" font-family="Helvetica,sans-Serif" font-size="10.00">src/libs/vpatterndb</text>
<text text-anchor="middle" x="2065.5" y="-286.5" font-family="Helvetica,sans-Serif" font-size="10.00">/variables.h</text>
</a>
</g>
</g>
<!-- Node1&#45;&gt;Node4 -->
<g id="edge3" class="edge">
<title>Node1&#45;&gt;Node4</title>
<path fill="none" stroke="midnightblue" d="M369.28,-357.62C672.11,-346.53 1757.07,-306.79 2011.73,-297.47"/>
<polygon fill="midnightblue" stroke="midnightblue" points="369.13,-354.12 359.27,-357.98 369.39,-361.11 369.13,-354.12"/>
</g>
<!-- Node5 -->
<g id="node5" class="node">
<title>Node5</title>
<g id="a_node5"><a xlink:href="../../d3/df7/vcontainer_8h.html" target="_top" xlink:title=" ">
<polygon fill="white" stroke="black" points="3633,-212.5 3633,-242.5 3740,-242.5 3740,-212.5 3633,-212.5"/>
<text text-anchor="start" x="3641" y="-230.5" font-family="Helvetica,sans-Serif" font-size="10.00">src/libs/vpatterndb</text>
<text text-anchor="middle" x="3686.5" y="-219.5" font-family="Helvetica,sans-Serif" font-size="10.00">/vcontainer.h</text>
</a>
</g>
</g>
<!-- Node4&#45;&gt;Node5 -->
<g id="edge4" class="edge">
<title>Node4&#45;&gt;Node5</title>
<path fill="none" stroke="midnightblue" d="M2129.59,-290.93C2393,-280.37 3389.67,-240.4 3632.78,-230.65"/>
<polygon fill="midnightblue" stroke="midnightblue" points="2129.29,-287.44 2119.43,-291.34 2129.57,-294.43 2129.29,-287.44"/>
</g>
<!-- Node5&#45;&gt;Node3 -->
<g id="edge54" class="edge">
<title>Node5&#45;&gt;Node3</title>
<path fill="none" stroke="midnightblue" d="M3622.61,-226.22C3345,-224.76 2215.83,-216.54 1289.5,-176 767.51,-153.16 633.4,-174.17 116.5,-98 113.39,-97.54 110.21,-97.01 107.01,-96.43"/>
<polygon fill="midnightblue" stroke="midnightblue" points="3622.88,-229.72 3632.9,-226.27 3622.92,-222.72 3622.88,-229.72"/>
</g>
<!-- Node6 -->
<g id="node6" class="node">
<title>Node6</title>
<g id="a_node6"><a xlink:href="../../dc/db7/measurements_8h.html" target="_top" xlink:title=" ">
<polygon fill="white" stroke="black" points="4357,-145.5 4357,-164.5 4536,-164.5 4536,-145.5 4357,-145.5"/>
<text text-anchor="middle" x="4446.5" y="-152.5" font-family="Helvetica,sans-Serif" font-size="10.00">src/libs/vformat/measurements.h</text>
</a>
</g>
</g>
<!-- Node5&#45;&gt;Node6 -->
<g id="edge5" class="edge">
<title>Node5&#45;&gt;Node6</title>
<path fill="none" stroke="midnightblue" d="M3750.55,-223.98C3868.22,-218.81 4126.56,-204.98 4342.5,-176 4364.19,-173.09 4388.18,-168.56 4407.66,-164.55"/>
<polygon fill="midnightblue" stroke="midnightblue" points="3750.13,-220.49 3740.29,-224.42 3750.43,-227.49 3750.13,-220.49"/>
</g>
<!-- Node7 -->
<g id="node7" class="node">
<title>Node7</title>
<g id="a_node7"><a xlink:href="../../d9/de3/measurements_8cpp.html" target="_top" xlink:title=" ">
<polygon fill="white" stroke="black" points="4318.5,-73 4318.5,-92 4508.5,-92 4508.5,-73 4318.5,-73"/>
<text text-anchor="middle" x="4413.5" y="-80" font-family="Helvetica,sans-Serif" font-size="10.00">src/libs/vformat/measurements.cpp</text>
</a>
</g>
</g>
<!-- Node5&#45;&gt;Node7 -->
<g id="edge7" class="edge">
<title>Node5&#45;&gt;Node7</title>
<path fill="none" stroke="midnightblue" d="M3750.61,-226.63C3888.13,-226.03 4206.87,-219.82 4304.5,-176 4329.16,-164.93 4328.02,-151.65 4348.5,-134 4366.47,-118.51 4388.47,-101.88 4401.71,-92.09"/>
<polygon fill="midnightblue" stroke="midnightblue" points="3750.23,-223.13 3740.24,-226.66 3750.25,-230.13 3750.23,-223.13"/>
</g>
<!-- Node8 -->
<g id="node8" class="node">
<title>Node8</title>
<g id="a_node8"><a xlink:href="../../d6/de0/vlayoutpiece_8h.html" target="_top" xlink:title=" ">
<polygon fill="white" stroke="black" points="4903.5,-145.5 4903.5,-164.5 5069.5,-164.5 5069.5,-145.5 4903.5,-145.5"/>
<text text-anchor="middle" x="4986.5" y="-152.5" font-family="Helvetica,sans-Serif" font-size="10.00">src/libs/vlayout/vlayoutpiece.h</text>
</a>
</g>
</g>
<!-- Node5&#45;&gt;Node8 -->
<g id="edge8" class="edge">
<title>Node5&#45;&gt;Node8</title>
<path fill="none" stroke="midnightblue" d="M3750.46,-223.03C3965.44,-211.37 4661.93,-173.6 4903.26,-160.51"/>
<polygon fill="midnightblue" stroke="midnightblue" points="3750.09,-219.55 3740.29,-223.58 3750.47,-226.54 3750.09,-219.55"/>
</g>
<!-- Node18 -->
<g id="node17" class="node">
<title>Node18</title>
<g id="a_node17"><a xlink:href="../../d8/d70/vtextmanager_8cpp.html" target="_top" xlink:title=" ">
<polygon fill="white" stroke="black" points="125.5,-73 125.5,-92 307.5,-92 307.5,-73 125.5,-73"/>
<text text-anchor="middle" x="216.5" y="-80" font-family="Helvetica,sans-Serif" font-size="10.00">src/libs/vlayout/vtextmanager.cpp</text>
</a>
</g>
</g>
<!-- Node5&#45;&gt;Node18 -->
<g id="edge19" class="edge">
<title>Node5&#45;&gt;Node18</title>
<path fill="none" stroke="midnightblue" d="M3622.86,-225.12C3403.39,-220.23 2657.86,-202.61 2042.5,-176 1707.63,-161.52 1624.32,-149.71 1289.5,-134 869.21,-114.28 763.04,-129.89 343.5,-98 323.7,-96.49 302.22,-94.27 282.65,-92.01"/>
<polygon fill="midnightblue" stroke="midnightblue" points="3622.83,-228.62 3632.91,-225.34 3622.99,-221.62 3622.83,-228.62"/>
</g>
<!-- Node19 -->
<g id="node18" class="node">
<title>Node19</title>
<g id="a_node18"><a xlink:href="../../d5/d74/vabstractapplication_8h.html" target="_top" xlink:title=" ">
<polygon fill="white" stroke="red" points="2052,-145.5 2052,-164.5 2247,-164.5 2247,-145.5 2052,-145.5"/>
<text text-anchor="middle" x="2149.5" y="-152.5" font-family="Helvetica,sans-Serif" font-size="10.00">src/libs/vmisc/vabstractapplication.h</text>
</a>
</g>
</g>
<!-- Node5&#45;&gt;Node19 -->
<g id="edge20" class="edge">
<title>Node5&#45;&gt;Node19</title>
<path fill="none" stroke="midnightblue" d="M3622.4,-223.56C3382.47,-212.55 2536.36,-173.74 2247.21,-160.48"/>
<polygon fill="midnightblue" stroke="midnightblue" points="3622.55,-227.07 3632.7,-224.03 3622.87,-220.08 3622.55,-227.07"/>
</g>
<!-- Node37 -->
<g id="node32" class="node">
<title>Node37</title>
<g id="a_node32"><a xlink:href="../../db/d11/vformula_8cpp.html" target="_top" xlink:title=" ">
<polygon fill="white" stroke="black" points="3836,-67.5 3836,-97.5 3943,-97.5 3943,-67.5 3836,-67.5"/>
<text text-anchor="start" x="3844" y="-85.5" font-family="Helvetica,sans-Serif" font-size="10.00">src/libs/vpatterndb</text>
<text text-anchor="middle" x="3889.5" y="-74.5" font-family="Helvetica,sans-Serif" font-size="10.00">/vformula.cpp</text>
</a>
</g>
</g>
<!-- Node5&#45;&gt;Node37 -->
<g id="edge53" class="edge">
<title>Node5&#45;&gt;Node37</title>
<path fill="none" stroke="midnightblue" d="M3622.61,-226.49C3534.42,-224.97 3382.3,-216.37 3347.5,-176 3335.31,-161.86 3334.8,-147.68 3347.5,-134 3383.88,-94.79 3774.64,-106.11 3827.5,-98 3830.23,-97.58 3833.02,-97.11 3835.83,-96.59"/>
<polygon fill="midnightblue" stroke="midnightblue" points="3622.72,-230 3632.77,-226.64 3622.83,-223 3622.72,-230"/>
</g>
<!-- Node38 -->
<g id="node33" class="node">
<title>Node38</title>
<g id="a_node33"><a xlink:href="../../df/d7a/vpiece_8cpp.html" target="_top" xlink:title=" ">
<polygon fill="white" stroke="black" points="3961,-67.5 3961,-97.5 4068,-97.5 4068,-67.5 3961,-67.5"/>
<text text-anchor="start" x="3969" y="-85.5" font-family="Helvetica,sans-Serif" font-size="10.00">src/libs/vpatterndb</text>
<text text-anchor="middle" x="4014.5" y="-74.5" font-family="Helvetica,sans-Serif" font-size="10.00">/vpiece.cpp</text>
</a>
</g>
</g>
<!-- Node5&#45;&gt;Node38 -->
<g id="edge56" class="edge">
<title>Node5&#45;&gt;Node38</title>
<path fill="none" stroke="midnightblue" d="M3622.62,-226.57C3513.13,-224.67 3308.09,-211.11 3380.5,-134 3424.09,-87.58 3889.5,-107.28 3952.5,-98 3955.23,-97.6 3958.03,-97.13 3960.84,-96.63"/>
<polygon fill="midnightblue" stroke="midnightblue" points="3622.85,-230.08 3632.9,-226.72 3622.95,-223.08 3622.85,-230.08"/>
</g>
<!-- Node40 -->
<g id="node35" class="node">
<title>Node40</title>
<g id="a_node35"><a xlink:href="../../d8/dba/vpiecenode_8cpp.html" target="_top" xlink:title=" ">
<polygon fill="white" stroke="black" points="2934,-0.5 2934,-30.5 3041,-30.5 3041,-0.5 2934,-0.5"/>
<text text-anchor="start" x="2942" y="-18.5" font-family="Helvetica,sans-Serif" font-size="10.00">src/libs/vpatterndb</text>
<text text-anchor="middle" x="2987.5" y="-7.5" font-family="Helvetica,sans-Serif" font-size="10.00">/vpiecenode.cpp</text>
</a>
</g>
</g>
<!-- Node5&#45;&gt;Node40 -->
<g id="edge57" class="edge">
<title>Node5&#45;&gt;Node40</title>
<path fill="none" stroke="midnightblue" d="M3750.18,-225.72C3894.47,-223.3 4236.56,-213.6 4271.5,-176 4304.48,-140.51 4306.08,-101.92 4272.5,-67 4229.2,-21.96 3278.9,-17.08 3041.08,-16.56"/>
<polygon fill="midnightblue" stroke="midnightblue" points="3750.08,-222.22 3740.14,-225.88 3750.19,-229.22 3750.08,-222.22"/>
</g>
<!-- Node57 -->
<g id="node45" class="node">
<title>Node57</title>
<g id="a_node45"><a xlink:href="../../d7/d8a/measurement__variable__p_8h.html" target="_top" xlink:title=" ">
<polygon fill="white" stroke="red" points="3389.5,-134.5 3389.5,-175.5 3525.5,-175.5 3525.5,-134.5 3389.5,-134.5"/>
<text text-anchor="start" x="3397.5" y="-163.5" font-family="Helvetica,sans-Serif" font-size="10.00">src/libs/vpatterndb</text>
<text text-anchor="start" x="3397.5" y="-152.5" font-family="Helvetica,sans-Serif" font-size="10.00">/variables/measurement</text>
<text text-anchor="middle" x="3457.5" y="-141.5" font-family="Helvetica,sans-Serif" font-size="10.00">_variable_p.h</text>
</a>
</g>
</g>
<!-- Node5&#45;&gt;Node57 -->
<g id="edge51" class="edge">
<title>Node5&#45;&gt;Node57</title>
<path fill="none" stroke="midnightblue" d="M3631.01,-209.42C3597.86,-199.21 3555.63,-186.21 3521.14,-175.59"/>
<polygon fill="midnightblue" stroke="midnightblue" points="3630.4,-212.89 3640.98,-212.49 3632.46,-206.2 3630.4,-212.89"/>
</g>
<!-- Node59 -->
<g id="node46" class="node">
<title>Node59</title>
<g id="a_node46"><a xlink:href="../../d1/de1/vincrement__p_8h.html" target="_top" xlink:title=" ">
<polygon fill="white" stroke="red" points="3544,-140 3544,-170 3687,-170 3687,-140 3544,-140"/>
<text text-anchor="start" x="3552" y="-158" font-family="Helvetica,sans-Serif" font-size="10.00">src/libs/vpatterndb</text>
<text text-anchor="middle" x="3615.5" y="-147" font-family="Helvetica,sans-Serif" font-size="10.00">/variables/vincrement_p.h</text>
</a>
</g>
</g>
<!-- Node5&#45;&gt;Node59 -->
<g id="edge52" class="edge">
<title>Node5&#45;&gt;Node59</title>
<path fill="none" stroke="midnightblue" d="M3664.71,-204.86C3653.38,-193.61 3639.85,-180.18 3629.85,-170.25"/>
<polygon fill="midnightblue" stroke="midnightblue" points="3662.57,-207.67 3672.13,-212.23 3667.5,-202.7 3662.57,-207.67"/>
</g>
<!-- Node61 -->
<g id="node47" class="node">
<title>Node61</title>
<g id="a_node47"><a xlink:href="../../d6/d91/vnodedetail_8cpp.html" target="_top" xlink:title=" ">
<polygon fill="white" stroke="black" points="3705,-140 3705,-170 3812,-170 3812,-140 3705,-140"/>
<text text-anchor="start" x="3713" y="-158" font-family="Helvetica,sans-Serif" font-size="10.00">src/libs/vpatterndb</text>
<text text-anchor="middle" x="3758.5" y="-147" font-family="Helvetica,sans-Serif" font-size="10.00">/vnodedetail.cpp</text>
</a>
</g>
</g>
<!-- Node5&#45;&gt;Node61 -->
<g id="edge55" class="edge">
<title>Node5&#45;&gt;Node61</title>
<path fill="none" stroke="midnightblue" d="M3708.27,-205.19C3719.82,-193.87 3733.71,-180.27 3743.95,-170.25"/>
<polygon fill="midnightblue" stroke="midnightblue" points="3705.77,-202.74 3701.07,-212.23 3710.66,-207.74 3705.77,-202.74"/>
</g>
<!-- Node62 -->
<g id="node48" class="node">
<title>Node62</title>
<g id="a_node48"><a xlink:href="../../da/de1/vpiecepath_8cpp.html" target="_top" xlink:title=" ">
<polygon fill="white" stroke="black" points="3830,-140 3830,-170 3937,-170 3937,-140 3830,-140"/>
<text text-anchor="start" x="3838" y="-158" font-family="Helvetica,sans-Serif" font-size="10.00">src/libs/vpatterndb</text>
<text text-anchor="middle" x="3883.5" y="-147" font-family="Helvetica,sans-Serif" font-size="10.00">/vpiecepath.cpp</text>
</a>
</g>
</g>
<!-- Node5&#45;&gt;Node62 -->
<g id="edge58" class="edge">
<title>Node5&#45;&gt;Node62</title>
<path fill="none" stroke="midnightblue" d="M3735.5,-208.96C3769.04,-196.96 3812.92,-181.26 3844.18,-170.07"/>
<polygon fill="midnightblue" stroke="midnightblue" points="3734.13,-205.74 3725.89,-212.4 3736.49,-212.33 3734.13,-205.74"/>
</g>
<!-- Node63 -->
<g id="node49" class="node">
<title>Node63</title>
<g id="a_node49"><a xlink:href="../../d1/d3a/abstracttest_8cpp.html" target="_top" xlink:title=" ">
<polygon fill="white" stroke="black" points="3955,-145.5 3955,-164.5 4116,-164.5 4116,-145.5 3955,-145.5"/>
<text text-anchor="middle" x="4035.5" y="-152.5" font-family="Helvetica,sans-Serif" font-size="10.00">src/libs/vtest/abstracttest.cpp</text>
</a>
</g>
</g>
<!-- Node5&#45;&gt;Node63 -->
<g id="edge59" class="edge">
<title>Node5&#45;&gt;Node63</title>
<path fill="none" stroke="midnightblue" d="M3750.25,-214.66C3802.95,-204.73 3879.7,-189.99 3946.5,-176 3963.71,-172.4 3982.72,-168.16 3998.75,-164.51"/>
<polygon fill="midnightblue" stroke="midnightblue" points="3749.55,-211.23 3740.37,-216.51 3750.85,-218.1 3749.55,-211.23"/>
</g>
<!-- Node64 -->
<g id="node50" class="node">
<title>Node64</title>
<g id="a_node50"><a xlink:href="../../da/db4/piece__tablewidgetitem_8cpp.html" target="_top" xlink:title=" ">
<polygon fill="white" stroke="black" points="4134.5,-140 4134.5,-170 4262.5,-170 4262.5,-140 4134.5,-140"/>
<text text-anchor="start" x="4142.5" y="-158" font-family="Helvetica,sans-Serif" font-size="10.00">src/libs/vwidgets/piece</text>
<text text-anchor="middle" x="4198.5" y="-147" font-family="Helvetica,sans-Serif" font-size="10.00">_tablewidgetitem.cpp</text>
</a>
</g>
</g>
<!-- Node5&#45;&gt;Node64 -->
<g id="edge60" class="edge">
<title>Node5&#45;&gt;Node64</title>
<path fill="none" stroke="midnightblue" d="M3750.4,-222.23C3836.28,-215.79 3993.4,-201.54 4125.5,-176 4133.89,-174.38 4142.72,-172.29 4151.23,-170.08"/>
<polygon fill="midnightblue" stroke="midnightblue" points="3750,-218.75 3740.29,-222.97 3750.52,-225.73 3750,-218.75"/>
</g>
<!-- Node6&#45;&gt;Node7 -->
<g id="edge6" class="edge">
<title>Node6&#45;&gt;Node7</title>
<path fill="none" stroke="midnightblue" d="M4438.16,-136.18C4431.58,-122.13 4422.69,-103.14 4417.58,-92.22"/>
<polygon fill="midnightblue" stroke="midnightblue" points="4435.04,-137.78 4442.45,-145.36 4441.38,-134.81 4435.04,-137.78"/>
</g>
<!-- Node9 -->
<g id="node9" class="node">
<title>Node9</title>
<g id="a_node9"><a xlink:href="../../dd/d66/vdxfengine_8cpp.html" target="_top" xlink:title=" ">
<polygon fill="white" stroke="black" points="4742.5,-73 4742.5,-92 4896.5,-92 4896.5,-73 4742.5,-73"/>
<text text-anchor="middle" x="4819.5" y="-80" font-family="Helvetica,sans-Serif" font-size="10.00">src/libs/vdxf/vdxfengine.cpp</text>
</a>
</g>
</g>
<!-- Node8&#45;&gt;Node9 -->
<g id="edge9" class="edge">
<title>Node8&#45;&gt;Node9</title>
<path fill="none" stroke="midnightblue" d="M4957.01,-141.55C4923.29,-127.32 4868.97,-104.38 4839.72,-92.03"/>
<polygon fill="midnightblue" stroke="midnightblue" points="4955.78,-144.83 4966.36,-145.5 4958.5,-138.38 4955.78,-144.83"/>
</g>
<!-- Node10 -->
<g id="node10" class="node">
<title>Node10</title>
<g id="a_node10"><a xlink:href="../../de/da8/vbank_8cpp.html" target="_top" xlink:title=" ">
<polygon fill="white" stroke="black" points="4914.5,-73 4914.5,-92 5058.5,-92 5058.5,-73 4914.5,-73"/>
<text text-anchor="middle" x="4986.5" y="-80" font-family="Helvetica,sans-Serif" font-size="10.00">src/libs/vlayout/vbank.cpp</text>
</a>
</g>
</g>
<!-- Node8&#45;&gt;Node10 -->
<g id="edge10" class="edge">
<title>Node8&#45;&gt;Node10</title>
<path fill="none" stroke="midnightblue" d="M4986.5,-134.94C4986.5,-121.03 4986.5,-102.82 4986.5,-92.22"/>
<polygon fill="midnightblue" stroke="midnightblue" points="4983,-135.36 4986.5,-145.36 4990,-135.36 4983,-135.36"/>
</g>
<!-- Node11 -->
<g id="node11" class="node">
<title>Node11</title>
<g id="a_node11"><a xlink:href="../../df/d5d/vcontour_8cpp.html" target="_top" xlink:title=" ">
<polygon fill="white" stroke="black" points="5076.5,-73 5076.5,-92 5232.5,-92 5232.5,-73 5076.5,-73"/>
<text text-anchor="middle" x="5154.5" y="-80" font-family="Helvetica,sans-Serif" font-size="10.00">src/libs/vlayout/vcontour.cpp</text>
</a>
</g>
</g>
<!-- Node8&#45;&gt;Node11 -->
<g id="edge11" class="edge">
<title>Node8&#45;&gt;Node11</title>
<path fill="none" stroke="midnightblue" d="M5016.16,-141.55C5050.09,-127.32 5104.73,-104.38 5134.16,-92.03"/>
<polygon fill="midnightblue" stroke="midnightblue" points="5014.63,-138.4 5006.76,-145.5 5017.34,-144.85 5014.63,-138.4"/>
</g>
<!-- Node12 -->
<g id="node12" class="node">
<title>Node12</title>
<g id="a_node12"><a xlink:href="../../d2/d2d/vlayoutpaper__p_8h.html" target="_top" xlink:title=" ">
<polygon fill="white" stroke="black" points="5251,-73 5251,-92 5430,-92 5430,-73 5251,-73"/>
<text text-anchor="middle" x="5340.5" y="-80" font-family="Helvetica,sans-Serif" font-size="10.00">src/libs/vlayout/vlayoutpaper_p.h</text>
</a>
</g>
</g>
<!-- Node8&#45;&gt;Node12 -->
<g id="edge12" class="edge">
<title>Node8&#45;&gt;Node12</title>
<path fill="none" stroke="midnightblue" d="M5039.18,-143.51C5109.5,-129.5 5232.71,-104.97 5297.65,-92.03"/>
<polygon fill="midnightblue" stroke="midnightblue" points="5038.32,-140.11 5029.2,-145.5 5039.69,-146.98 5038.32,-140.11"/>
</g>
<!-- Node13 -->
<g id="node13" class="node">
<title>Node13</title>
<g id="a_node13"><a xlink:href="../../d1/dd1/vlayoutpaper_8cpp.html" target="_top" xlink:title=" ">
<polygon fill="white" stroke="black" points="5433.5,-6 5433.5,-25 5611.5,-25 5611.5,-6 5433.5,-6"/>
<text text-anchor="middle" x="5522.5" y="-13" font-family="Helvetica,sans-Serif" font-size="10.00">src/libs/vlayout/vlayoutpaper.cpp</text>
</a>
</g>
</g>
<!-- Node8&#45;&gt;Node13 -->
<g id="edge15" class="edge">
<title>Node8&#45;&gt;Node13</title>
<path fill="none" stroke="midnightblue" d="M5079.86,-152.34C5244.12,-148.46 5570.79,-135.99 5605.5,-98 5630.9,-70.19 5575.24,-39.65 5543.15,-25.11"/>
<polygon fill="midnightblue" stroke="midnightblue" points="5079.68,-148.85 5069.76,-152.58 5079.84,-155.85 5079.68,-148.85"/>
</g>
<!-- Node14 -->
<g id="node14" class="node">
<title>Node14</title>
<g id="a_node14"><a xlink:href="../../d3/d39/vlayoutgenerator_8cpp.html" target="_top" xlink:title=" ">
<polygon fill="white" stroke="black" points="4527,-73 4527,-92 4724,-92 4724,-73 4527,-73"/>
<text text-anchor="middle" x="4625.5" y="-80" font-family="Helvetica,sans-Serif" font-size="10.00">src/libs/vlayout/vlayoutgenerator.cpp</text>
</a>
</g>
</g>
<!-- Node8&#45;&gt;Node14 -->
<g id="edge14" class="edge">
<title>Node8&#45;&gt;Node14</title>
<path fill="none" stroke="midnightblue" d="M4932.78,-143.51C4861.07,-129.5 4735.43,-104.97 4669.2,-92.03"/>
<polygon fill="midnightblue" stroke="midnightblue" points="4932.47,-147.01 4942.95,-145.5 4933.81,-140.14 4932.47,-147.01"/>
</g>
<!-- Node15 -->
<g id="node15" class="node">
<title>Node15</title>
<g id="a_node15"><a xlink:href="../../db/d5c/vposition_8h.html" target="_top" xlink:title=" ">
<polygon fill="white" stroke="red" points="5448.5,-73 5448.5,-92 5596.5,-92 5596.5,-73 5448.5,-73"/>
<text text-anchor="middle" x="5522.5" y="-80" font-family="Helvetica,sans-Serif" font-size="10.00">src/libs/vlayout/vposition.h</text>
</a>
</g>
</g>
<!-- Node8&#45;&gt;Node15 -->
<g id="edge16" class="edge">
<title>Node8&#45;&gt;Node15</title>
<path fill="none" stroke="midnightblue" d="M5075.27,-144.35C5166.73,-134.1 5313.34,-116.81 5439.5,-98 5451.36,-96.23 5464.14,-94.11 5476.03,-92.04"/>
<polygon fill="midnightblue" stroke="midnightblue" points="5074.77,-140.89 5065.23,-145.48 5075.55,-147.84 5074.77,-140.89"/>
</g>
<!-- Node17 -->
<g id="node16" class="node">
<title>Node17</title>
<g id="a_node16"><a xlink:href="../../dd/d70/vlayoutpiece_8cpp.html" target="_top" xlink:title=" ">
<polygon fill="white" stroke="black" points="4086,-73 4086,-92 4263,-92 4263,-73 4086,-73"/>
<text text-anchor="middle" x="4174.5" y="-80" font-family="Helvetica,sans-Serif" font-size="10.00">src/libs/vlayout/vlayoutpiece.cpp</text>
</a>
</g>
</g>
<!-- Node8&#45;&gt;Node17 -->
<g id="edge18" class="edge">
<title>Node8&#45;&gt;Node17</title>
<path fill="none" stroke="midnightblue" d="M4892.96,-146.99C4762.28,-137.03 4517.69,-117.79 4309.5,-98 4290.49,-96.19 4270,-94.08 4250.86,-92.03"/>
<polygon fill="midnightblue" stroke="midnightblue" points="4893.09,-150.51 4903.33,-147.78 4893.62,-143.53 4893.09,-150.51"/>
</g>
<!-- Node12&#45;&gt;Node13 -->
<g id="edge13" class="edge">
<title>Node12&#45;&gt;Node13</title>
<path fill="none" stroke="midnightblue" d="M5374.28,-69.44C5410.38,-56.54 5466.71,-36.42 5498.52,-25.06"/>
<polygon fill="midnightblue" stroke="midnightblue" points="5372.91,-66.21 5364.67,-72.87 5375.26,-72.8 5372.91,-66.21"/>
</g>
<!-- Node15&#45;&gt;Node13 -->
<g id="edge17" class="edge">
<title>Node15&#45;&gt;Node13</title>
<path fill="none" stroke="midnightblue" d="M5522.5,-62.54C5522.5,-50.17 5522.5,-34.62 5522.5,-25.13"/>
<polygon fill="midnightblue" stroke="midnightblue" points="5519,-62.73 5522.5,-72.73 5526,-62.73 5519,-62.73"/>
</g>
<!-- Node19&#45;&gt;Node3 -->
<g id="edge38" class="edge">
<title>Node19&#45;&gt;Node3</title>
<path fill="none" stroke="midnightblue" d="M2041.5,-151.31C1627.78,-140.99 164.6,-104.14 116.5,-98 113.49,-97.62 110.42,-97.15 107.33,-96.63"/>
<polygon fill="midnightblue" stroke="midnightblue" points="2041.58,-154.82 2051.66,-151.57 2041.75,-147.82 2041.58,-154.82"/>
</g>
<!-- Node19&#45;&gt;Node17 -->
<g id="edge34" class="edge">
<title>Node19&#45;&gt;Node17</title>
<path fill="none" stroke="midnightblue" d="M2257.43,-152.56C2609.13,-147.61 3719.96,-129.8 4077.5,-98 4093.1,-96.61 4110.02,-94.35 4125.29,-92.02"/>
<polygon fill="midnightblue" stroke="midnightblue" points="2257.2,-149.07 2247.25,-152.71 2257.3,-156.06 2257.2,-149.07"/>
</g>
<!-- Node19&#45;&gt;Node18 -->
<g id="edge31" class="edge">
<title>Node19&#45;&gt;Node18</title>
<path fill="none" stroke="midnightblue" d="M2041.27,-146.86C1972.61,-142.55 1881.87,-137.29 1801.5,-134 1144.08,-107.12 977.33,-151.09 321.5,-98 304.53,-96.63 286.12,-94.35 269.52,-92.01"/>
<polygon fill="midnightblue" stroke="midnightblue" points="2041.47,-150.37 2051.67,-147.51 2041.91,-143.39 2041.47,-150.37"/>
</g>
<!-- Node20 -->
<g id="node19" class="node">
<title>Node20</title>
<g id="a_node19"><a xlink:href="../../d4/d90/fvupdater_8cpp.html" target="_top" xlink:title=" ">
<polygon fill="white" stroke="black" points="808,-73 808,-92 961,-92 961,-73 808,-73"/>
<text text-anchor="middle" x="884.5" y="-80" font-family="Helvetica,sans-Serif" font-size="10.00">src/libs/fervor/fvupdater.cpp</text>
</a>
</g>
</g>
<!-- Node19&#45;&gt;Node20 -->
<g id="edge21" class="edge">
<title>Node19&#45;&gt;Node20</title>
<path fill="none" stroke="midnightblue" d="M2041.25,-147.38C1972.57,-143.28 1881.84,-138.05 1801.5,-134 1431.84,-115.38 1337.54,-137.2 969.5,-98 955.95,-96.56 941.3,-94.31 928.03,-92.01"/>
<polygon fill="midnightblue" stroke="midnightblue" points="2041.45,-150.9 2051.64,-148 2041.87,-143.91 2041.45,-150.9"/>
</g>
<!-- Node21 -->
<g id="node20" class="node">
<title>Node21</title>
<g id="a_node20"><a xlink:href="../../d9/dc8/dxiface_8cpp.html" target="_top" xlink:title=" ">
<polygon fill="white" stroke="black" points="979,-73 979,-92 1114,-92 1114,-73 979,-73"/>
<text text-anchor="middle" x="1046.5" y="-80" font-family="Helvetica,sans-Serif" font-size="10.00">src/libs/vdxf/dxiface.cpp</text>
</a>
</g>
</g>
<!-- Node19&#45;&gt;Node21 -->
<g id="edge22" class="edge">
<title>Node19&#45;&gt;Node21</title>
<path fill="none" stroke="midnightblue" d="M2041.23,-147.65C1972.55,-143.66 1881.82,-138.44 1801.5,-134 1499.76,-117.33 1422.5,-134.4 1122.5,-98 1110.5,-96.54 1097.54,-94.32 1085.79,-92.05"/>
<polygon fill="midnightblue" stroke="midnightblue" points="2041.44,-151.17 2051.63,-148.26 2041.85,-144.18 2041.44,-151.17"/>
</g>
<!-- Node22 -->
<g id="node21" class="node">
<title>Node22</title>
<g id="a_node21"><a xlink:href="../../da/d75/vabstractarc__p_8h.html" target="_top" xlink:title=" ">
<polygon fill="white" stroke="red" points="1132,-67.5 1132,-97.5 1239,-97.5 1239,-67.5 1132,-67.5"/>
<text text-anchor="start" x="1140" y="-85.5" font-family="Helvetica,sans-Serif" font-size="10.00">src/libs/vgeometry</text>
<text text-anchor="middle" x="1185.5" y="-74.5" font-family="Helvetica,sans-Serif" font-size="10.00">/vabstractarc_p.h</text>
</a>
</g>
</g>
<!-- Node19&#45;&gt;Node22 -->
<g id="edge23" class="edge">
<title>Node19&#45;&gt;Node22</title>
<path fill="none" stroke="midnightblue" d="M2041.58,-147.78C1810.61,-134.42 1286.15,-103.68 1247.5,-98 1244.77,-97.6 1241.97,-97.14 1239.16,-96.63"/>
<polygon fill="midnightblue" stroke="midnightblue" points="2041.49,-151.29 2051.68,-148.37 2041.9,-144.3 2041.49,-151.29"/>
</g>
<!-- Node24 -->
<g id="node22" class="node">
<title>Node24</title>
<g id="a_node22"><a xlink:href="../../dc/da3/varc__p_8h.html" target="_top" xlink:title=" ">
<polygon fill="white" stroke="red" points="1382,-67.5 1382,-97.5 1489,-97.5 1489,-67.5 1382,-67.5"/>
<text text-anchor="start" x="1390" y="-85.5" font-family="Helvetica,sans-Serif" font-size="10.00">src/libs/vgeometry</text>
<text text-anchor="middle" x="1435.5" y="-74.5" font-family="Helvetica,sans-Serif" font-size="10.00">/varc_p.h</text>
</a>
</g>
</g>
<!-- Node19&#45;&gt;Node24 -->
<g id="edge24" class="edge">
<title>Node19&#45;&gt;Node24</title>
<path fill="none" stroke="midnightblue" d="M2041.42,-149.49C1911.62,-142.97 1687.58,-128.23 1497.5,-98 1494.77,-97.57 1491.98,-97.08 1489.17,-96.55"/>
<polygon fill="midnightblue" stroke="midnightblue" points="2041.6,-153 2051.76,-150 2041.95,-146.01 2041.6,-153"/>
</g>
<!-- Node26 -->
<g id="node23" class="node">
<title>Node26</title>
<g id="a_node23"><a xlink:href="../../d5/d8e/vcubicbezier__p_8h.html" target="_top" xlink:title=" ">
<polygon fill="white" stroke="red" points="1507,-67.5 1507,-97.5 1614,-97.5 1614,-67.5 1507,-67.5"/>
<text text-anchor="start" x="1515" y="-85.5" font-family="Helvetica,sans-Serif" font-size="10.00">src/libs/vgeometry</text>
<text text-anchor="middle" x="1560.5" y="-74.5" font-family="Helvetica,sans-Serif" font-size="10.00">/vcubicbezier_p.h</text>
</a>
</g>
</g>
<!-- Node19&#45;&gt;Node26 -->
<g id="edge25" class="edge">
<title>Node19&#45;&gt;Node26</title>
<path fill="none" stroke="midnightblue" d="M2041.73,-146.48C1934.83,-138.09 1766.62,-122.41 1622.5,-98 1619.78,-97.54 1616.99,-97.03 1614.19,-96.48"/>
<polygon fill="midnightblue" stroke="midnightblue" points="2041.63,-149.98 2051.88,-147.27 2042.18,-143 2041.63,-149.98"/>
</g>
<!-- Node28 -->
<g id="node24" class="node">
<title>Node28</title>
<g id="a_node24"><a xlink:href="../../df/dde/vellipticalarc__p_8h.html" target="_top" xlink:title=" ">
<polygon fill="white" stroke="black" points="1257,-67.5 1257,-97.5 1364,-97.5 1364,-67.5 1257,-67.5"/>
<text text-anchor="start" x="1265" y="-85.5" font-family="Helvetica,sans-Serif" font-size="10.00">src/libs/vgeometry</text>
<text text-anchor="middle" x="1310.5" y="-74.5" font-family="Helvetica,sans-Serif" font-size="10.00">/vellipticalarc_p.h</text>
</a>
</g>
</g>
<!-- Node19&#45;&gt;Node28 -->
<g id="edge26" class="edge">
<title>Node19&#45;&gt;Node28</title>
<path fill="none" stroke="midnightblue" d="M2041.76,-147.18C1843.88,-134.52 1436.86,-107.78 1372.5,-98 1369.77,-97.58 1366.98,-97.11 1364.17,-96.6"/>
<polygon fill="midnightblue" stroke="midnightblue" points="2041.68,-150.69 2051.89,-147.83 2042.13,-143.7 2041.68,-150.69"/>
</g>
<!-- Node29 -->
<g id="node25" class="node">
<title>Node29</title>
<g id="a_node25"><a xlink:href="../../d6/dfb/vellipticalarc_8cpp.html" target="_top" xlink:title=" ">
<polygon fill="white" stroke="black" points="770,-0.5 770,-30.5 877,-30.5 877,-0.5 770,-0.5"/>
<text text-anchor="start" x="778" y="-18.5" font-family="Helvetica,sans-Serif" font-size="10.00">src/libs/vgeometry</text>
<text text-anchor="middle" x="823.5" y="-7.5" font-family="Helvetica,sans-Serif" font-size="10.00">/vellipticalarc.cpp</text>
</a>
</g>
</g>
<!-- Node19&#45;&gt;Node29 -->
<g id="edge28" class="edge">
<title>Node19&#45;&gt;Node29</title>
<path fill="none" stroke="midnightblue" d="M2041.27,-146.87C1972.61,-142.57 1881.87,-137.31 1801.5,-134 1761.33,-132.35 382.57,-126.78 354.5,-98 344.88,-88.14 345.29,-77.25 354.5,-67 381.86,-36.54 652.73,-22.85 769.92,-18.32"/>
<polygon fill="midnightblue" stroke="midnightblue" points="2041.47,-150.39 2051.67,-147.52 2041.9,-143.4 2041.47,-150.39"/>
</g>
<!-- Node30 -->
<g id="node26" class="node">
<title>Node30</title>
<g id="a_node26"><a xlink:href="../../d9/d15/vabstractpiece_8cpp.html" target="_top" xlink:title=" ">
<polygon fill="white" stroke="black" points="1757.5,-73 1757.5,-92 1943.5,-92 1943.5,-73 1757.5,-73"/>
<text text-anchor="middle" x="1850.5" y="-80" font-family="Helvetica,sans-Serif" font-size="10.00">src/libs/vlayout/vabstractpiece.cpp</text>
</a>
</g>
</g>
<!-- Node19&#45;&gt;Node30 -->
<g id="edge29" class="edge">
<title>Node19&#45;&gt;Node30</title>
<path fill="none" stroke="midnightblue" d="M2103.54,-143.16C2043.91,-129.1 1941.1,-104.86 1886.69,-92.03"/>
<polygon fill="midnightblue" stroke="midnightblue" points="2102.9,-146.61 2113.43,-145.5 2104.5,-139.79 2102.9,-146.61"/>
</g>
<!-- Node31 -->
<g id="node27" class="node">
<title>Node31</title>
<g id="a_node27"><a xlink:href="../../d1/d76/vspline__p_8h.html" target="_top" xlink:title=" ">
<polygon fill="white" stroke="red" points="1961,-67.5 1961,-97.5 2068,-97.5 2068,-67.5 1961,-67.5"/>
<text text-anchor="start" x="1969" y="-85.5" font-family="Helvetica,sans-Serif" font-size="10.00">src/libs/vgeometry</text>
<text text-anchor="middle" x="2014.5" y="-74.5" font-family="Helvetica,sans-Serif" font-size="10.00">/vspline_p.h</text>
</a>
</g>
</g>
<!-- Node19&#45;&gt;Node31 -->
<g id="edge30" class="edge">
<title>Node19&#45;&gt;Node31</title>
<path fill="none" stroke="midnightblue" d="M2124.16,-140.77C2100.54,-128.43 2065.41,-110.09 2041.32,-97.51"/>
<polygon fill="midnightblue" stroke="midnightblue" points="2122.73,-143.97 2133.22,-145.5 2125.97,-137.76 2122.73,-143.97"/>
</g>
<!-- Node33 -->
<g id="node28" class="node">
<title>Node33</title>
<g id="a_node28"><a xlink:href="../../db/d65/dialogexporttocsv_8cpp.html" target="_top" xlink:title=" ">
<polygon fill="white" stroke="black" points="2086,-67.5 2086,-97.5 2213,-97.5 2213,-67.5 2086,-67.5"/>
<text text-anchor="start" x="2094" y="-85.5" font-family="Helvetica,sans-Serif" font-size="10.00">src/libs/vmisc/dialogs</text>
<text text-anchor="middle" x="2149.5" y="-74.5" font-family="Helvetica,sans-Serif" font-size="10.00">/dialogexporttocsv.cpp</text>
</a>
</g>
</g>
<!-- Node19&#45;&gt;Node33 -->
<g id="edge32" class="edge">
<title>Node19&#45;&gt;Node33</title>
<path fill="none" stroke="midnightblue" d="M2149.5,-135.24C2149.5,-123.41 2149.5,-108.38 2149.5,-97.58"/>
<polygon fill="midnightblue" stroke="midnightblue" points="2146,-135.36 2149.5,-145.36 2153,-135.36 2146,-135.36"/>
</g>
<!-- Node34 -->
<g id="node29" class="node">
<title>Node34</title>
<g id="a_node29"><a xlink:href="../../d6/d0b/def_8cpp.html" target="_top" xlink:title=" ">
<polygon fill="white" stroke="black" points="2231.5,-73 2231.5,-92 2353.5,-92 2353.5,-73 2231.5,-73"/>
<text text-anchor="middle" x="2292.5" y="-80" font-family="Helvetica,sans-Serif" font-size="10.00">src/libs/vmisc/def.cpp</text>
</a>
</g>
</g>
<!-- Node19&#45;&gt;Node34 -->
<g id="edge33" class="edge">
<title>Node19&#45;&gt;Node34</title>
<path fill="none" stroke="midnightblue" d="M2175.87,-141C2204.82,-126.73 2250.46,-104.23 2275.19,-92.03"/>
<polygon fill="midnightblue" stroke="midnightblue" points="2174.17,-137.93 2166.75,-145.5 2177.27,-144.21 2174.17,-137.93"/>
</g>
<!-- Node35 -->
<g id="node30" class="node">
<title>Node35</title>
<g id="a_node30"><a xlink:href="../../d0/df6/vabstractapplication_8cpp.html" target="_top" xlink:title=" ">
<polygon fill="white" stroke="black" points="2371.5,-73 2371.5,-92 2577.5,-92 2577.5,-73 2371.5,-73"/>
<text text-anchor="middle" x="2474.5" y="-80" font-family="Helvetica,sans-Serif" font-size="10.00">src/libs/vmisc/vabstractapplication.cpp</text>
</a>
</g>
</g>
<!-- Node19&#45;&gt;Node35 -->
<g id="edge35" class="edge">
<title>Node19&#45;&gt;Node35</title>
<path fill="none" stroke="midnightblue" d="M2198.66,-143.34C2263.35,-129.3 2375.78,-104.91 2435.16,-92.03"/>
<polygon fill="midnightblue" stroke="midnightblue" points="2197.73,-139.96 2188.7,-145.5 2199.22,-146.8 2197.73,-139.96"/>
</g>
<!-- Node36 -->
<g id="node31" class="node">
<title>Node36</title>
<g id="a_node31"><a xlink:href="../../d4/d4f/pmsystems_8cpp.html" target="_top" xlink:title=" ">
<polygon fill="white" stroke="black" points="2596,-67.5 2596,-97.5 2703,-97.5 2703,-67.5 2596,-67.5"/>
<text text-anchor="start" x="2604" y="-85.5" font-family="Helvetica,sans-Serif" font-size="10.00">src/libs/vpatterndb</text>
<text text-anchor="middle" x="2649.5" y="-74.5" font-family="Helvetica,sans-Serif" font-size="10.00">/pmsystems.cpp</text>
</a>
</g>
</g>
<!-- Node19&#45;&gt;Node36 -->
<g id="edge36" class="edge">
<title>Node19&#45;&gt;Node36</title>
<path fill="none" stroke="midnightblue" d="M2245.76,-144.43C2334.59,-134.94 2469.95,-118.83 2586.5,-98 2589.59,-97.45 2592.76,-96.84 2595.96,-96.2"/>
<polygon fill="midnightblue" stroke="midnightblue" points="2245.28,-140.96 2235.7,-145.49 2246.02,-147.92 2245.28,-140.96"/>
</g>
<!-- Node19&#45;&gt;Node37 -->
<g id="edge37" class="edge">
<title>Node19&#45;&gt;Node37</title>
<path fill="none" stroke="midnightblue" d="M2257.33,-153.17C2578,-150.25 3522.26,-138.39 3827.5,-98 3830.24,-97.64 3833.04,-97.21 3835.85,-96.73"/>
<polygon fill="midnightblue" stroke="midnightblue" points="2257.08,-149.67 2247.11,-153.26 2257.14,-156.67 2257.08,-149.67"/>
</g>
<!-- Node19&#45;&gt;Node38 -->
<g id="edge39" class="edge">
<title>Node19&#45;&gt;Node38</title>
<path fill="none" stroke="midnightblue" d="M2257.46,-151.9C2620.68,-144.65 3785.12,-119.95 3952.5,-98 3955.24,-97.64 3958.04,-97.21 3960.85,-96.73"/>
<polygon fill="midnightblue" stroke="midnightblue" points="2257.13,-148.4 2247.21,-152.1 2257.27,-155.4 2257.13,-148.4"/>
</g>
<!-- Node39 -->
<g id="node34" class="node">
<title>Node39</title>
<g id="a_node34"><a xlink:href="../../df/dba/vpiecenode__p_8h.html" target="_top" xlink:title=" ">
<polygon fill="white" stroke="black" points="1632,-67.5 1632,-97.5 1739,-97.5 1739,-67.5 1632,-67.5"/>
<text text-anchor="start" x="1640" y="-85.5" font-family="Helvetica,sans-Serif" font-size="10.00">src/libs/vpatterndb</text>
<text text-anchor="middle" x="1685.5" y="-74.5" font-family="Helvetica,sans-Serif" font-size="10.00">/vpiecenode_p.h</text>
</a>
</g>
</g>
<!-- Node19&#45;&gt;Node39 -->
<g id="edge40" class="edge">
<title>Node19&#45;&gt;Node39</title>
<path fill="none" stroke="midnightblue" d="M2063.97,-144.25C1982.54,-134.46 1856.72,-117.97 1748.5,-98 1745.41,-97.43 1742.24,-96.81 1739.05,-96.16"/>
<polygon fill="midnightblue" stroke="midnightblue" points="2063.82,-147.76 2074.17,-145.47 2064.66,-140.81 2063.82,-147.76"/>
</g>
<!-- Node41 -->
<g id="node36" class="node">
<title>Node41</title>
<g id="a_node36"><a xlink:href="../../de/d3e/vtranslatevars_8cpp.html" target="_top" xlink:title=" ">
<polygon fill="white" stroke="black" points="2721.5,-67.5 2721.5,-97.5 2831.5,-97.5 2831.5,-67.5 2721.5,-67.5"/>
<text text-anchor="start" x="2729.5" y="-85.5" font-family="Helvetica,sans-Serif" font-size="10.00">src/libs/vpatterndb</text>
<text text-anchor="middle" x="2776.5" y="-74.5" font-family="Helvetica,sans-Serif" font-size="10.00">/vtranslatevars.cpp</text>
</a>
</g>
</g>
<!-- Node19&#45;&gt;Node41 -->
<g id="edge42" class="edge">
<title>Node19&#45;&gt;Node41</title>
<path fill="none" stroke="midnightblue" d="M2257.26,-147.13C2370.76,-138.99 2554.45,-123.25 2711.5,-98 2714.7,-97.49 2717.97,-96.91 2721.27,-96.29"/>
<polygon fill="midnightblue" stroke="midnightblue" points="2256.9,-143.64 2247.17,-147.84 2257.4,-150.63 2256.9,-143.64"/>
</g>
<!-- Node42 -->
<g id="node37" class="node">
<title>Node42</title>
<g id="a_node37"><a xlink:href="../../df/d40/export__format__combobox_8cpp.html" target="_top" xlink:title=" ">
<polygon fill="white" stroke="black" points="2850,-67.5 2850,-97.5 2983,-97.5 2983,-67.5 2850,-67.5"/>
<text text-anchor="start" x="2858" y="-85.5" font-family="Helvetica,sans-Serif" font-size="10.00">src/libs/vwidgets/export</text>
<text text-anchor="middle" x="2916.5" y="-74.5" font-family="Helvetica,sans-Serif" font-size="10.00">_format_combobox.cpp</text>
</a>
</g>
</g>
<!-- Node19&#45;&gt;Node42 -->
<g id="edge43" class="edge">
<title>Node19&#45;&gt;Node42</title>
<path fill="none" stroke="midnightblue" d="M2257.15,-148.87C2393.41,-141.56 2635.13,-125.83 2840.5,-98 2843.56,-97.59 2846.69,-97.13 2849.84,-96.64"/>
<polygon fill="midnightblue" stroke="midnightblue" points="2256.93,-145.38 2247.13,-149.41 2257.3,-152.37 2256.93,-145.38"/>
</g>
<!-- Node43 -->
<g id="node38" class="node">
<title>Node43</title>
<g id="a_node38"><a xlink:href="../../d3/d4f/mouse__coordinates_8cpp.html" target="_top" xlink:title=" ">
<polygon fill="white" stroke="black" points="3001.5,-67.5 3001.5,-97.5 3135.5,-97.5 3135.5,-67.5 3001.5,-67.5"/>
<text text-anchor="start" x="3009.5" y="-85.5" font-family="Helvetica,sans-Serif" font-size="10.00">src/libs/vwidgets/mouse</text>
<text text-anchor="middle" x="3068.5" y="-74.5" font-family="Helvetica,sans-Serif" font-size="10.00">_coordinates.cpp</text>
</a>
</g>
</g>
<!-- Node19&#45;&gt;Node43 -->
<g id="edge44" class="edge">
<title>Node19&#45;&gt;Node43</title>
<path fill="none" stroke="midnightblue" d="M2257.46,-150.95C2418.05,-145.49 2729.11,-131.31 2991.5,-98 2994.74,-97.59 2998.05,-97.13 3001.38,-96.63"/>
<polygon fill="midnightblue" stroke="midnightblue" points="2256.98,-147.47 2247.1,-151.3 2257.22,-154.46 2256.98,-147.47"/>
</g>
<!-- Node44 -->
<g id="node39" class="node">
<title>Node44</title>
<g id="a_node39"><a xlink:href="../../d2/d28/page__format__combobox_8cpp.html" target="_top" xlink:title=" ">
<polygon fill="white" stroke="black" points="3154,-67.5 3154,-97.5 3285,-97.5 3285,-67.5 3154,-67.5"/>
<text text-anchor="start" x="3162" y="-85.5" font-family="Helvetica,sans-Serif" font-size="10.00">src/libs/vwidgets/page</text>
<text text-anchor="middle" x="3219.5" y="-74.5" font-family="Helvetica,sans-Serif" font-size="10.00">_format_combobox.cpp</text>
</a>
</g>
</g>
<!-- Node19&#45;&gt;Node44 -->
<g id="edge45" class="edge">
<title>Node19&#45;&gt;Node44</title>
<path fill="none" stroke="midnightblue" d="M2257.51,-152.68C2440.65,-149.38 2823.49,-137.88 3144.5,-98 3147.53,-97.62 3150.62,-97.2 3153.73,-96.74"/>
<polygon fill="midnightblue" stroke="midnightblue" points="2257.28,-149.18 2247.34,-152.86 2257.4,-156.18 2257.28,-149.18"/>
</g>
<!-- Node45 -->
<g id="node40" class="node">
<title>Node45</title>
<g id="a_node40"><a xlink:href="../../d7/d1b/pen__toolbar_8cpp.html" target="_top" xlink:title=" ">
<polygon fill="white" stroke="black" points="3303,-67.5 3303,-97.5 3422,-97.5 3422,-67.5 3303,-67.5"/>
<text text-anchor="start" x="3311" y="-85.5" font-family="Helvetica,sans-Serif" font-size="10.00">src/libs/vwidgets/pen</text>
<text text-anchor="middle" x="3362.5" y="-74.5" font-family="Helvetica,sans-Serif" font-size="10.00">_toolbar.cpp</text>
</a>
</g>
</g>
<!-- Node19&#45;&gt;Node45 -->
<g id="edge46" class="edge">
<title>Node19&#45;&gt;Node45</title>
<path fill="none" stroke="midnightblue" d="M2257.33,-154.5C2460.93,-154.17 2915.56,-147.34 3294.5,-98 3297.25,-97.64 3300.06,-97.23 3302.89,-96.78"/>
<polygon fill="midnightblue" stroke="midnightblue" points="2257.23,-151 2247.24,-154.51 2257.24,-158 2257.23,-151"/>
</g>
<!-- Node46 -->
<g id="node41" class="node">
<title>Node46</title>
<g id="a_node41"><a xlink:href="../../d8/d76/scene__rect_8cpp.html" target="_top" xlink:title=" ">
<polygon fill="white" stroke="black" points="3440.5,-67.5 3440.5,-97.5 3570.5,-97.5 3570.5,-67.5 3440.5,-67.5"/>
<text text-anchor="start" x="3448.5" y="-85.5" font-family="Helvetica,sans-Serif" font-size="10.00">src/libs/vwidgets/scene</text>
<text text-anchor="middle" x="3505.5" y="-74.5" font-family="Helvetica,sans-Serif" font-size="10.00">_rect.cpp</text>
</a>
</g>
</g>
<!-- Node19&#45;&gt;Node46 -->
<g id="edge47" class="edge">
<title>Node19&#45;&gt;Node46</title>
<path fill="none" stroke="midnightblue" d="M2257.51,-154.73C2478.66,-155.02 2998.7,-149.56 3431.5,-98 3434.36,-97.66 3437.27,-97.27 3440.21,-96.84"/>
<polygon fill="midnightblue" stroke="midnightblue" points="2257.21,-151.23 2247.2,-154.71 2257.2,-158.23 2257.21,-151.23"/>
</g>
<!-- Node47 -->
<g id="node42" class="node">
<title>Node47</title>
<g id="a_node42"><a xlink:href="../../dd/df6/vabstractmainwindow_8cpp.html" target="_top" xlink:title=" ">
<polygon fill="white" stroke="black" points="3589,-73 3589,-92 3818,-92 3818,-73 3589,-73"/>
<text text-anchor="middle" x="3703.5" y="-80" font-family="Helvetica,sans-Serif" font-size="10.00">src/libs/vwidgets/vabstractmainwindow.cpp</text>
</a>
</g>
</g>
<!-- Node19&#45;&gt;Node47 -->
<g id="edge48" class="edge">
<title>Node19&#45;&gt;Node47</title>
<path fill="none" stroke="midnightblue" d="M2257.24,-152.62C2495.8,-148.95 3086.53,-136.42 3579.5,-98 3598.84,-96.49 3619.81,-94.27 3638.91,-92.01"/>
<polygon fill="midnightblue" stroke="midnightblue" points="2257.12,-149.12 2247.18,-152.77 2257.23,-156.12 2257.12,-149.12"/>
</g>
<!-- Node48 -->
<g id="node43" class="node">
<title>Node48</title>
<g id="a_node43"><a xlink:href="../../de/d45/vcontrolpointspline_8cpp.html" target="_top" xlink:title=" ">
<polygon fill="white" stroke="black" points="364,-73 364,-92 579,-92 579,-73 364,-73"/>
<text text-anchor="middle" x="471.5" y="-80" font-family="Helvetica,sans-Serif" font-size="10.00">src/libs/vwidgets/vcontrolpointspline.cpp</text>
</a>
</g>
</g>
<!-- Node19&#45;&gt;Node48 -->
<g id="edge49" class="edge">
<title>Node19&#45;&gt;Node48</title>
<path fill="none" stroke="midnightblue" d="M2041.26,-147C1972.6,-142.76 1881.87,-137.5 1801.5,-134 1262.22,-110.51 1125.69,-139.52 587.5,-98 569.09,-96.58 549.11,-94.34 531,-92.04"/>
<polygon fill="midnightblue" stroke="midnightblue" points="2041.46,-150.52 2051.66,-147.65 2041.9,-143.54 2041.46,-150.52"/>
</g>
<!-- Node49 -->
<g id="node44" class="node">
<title>Node49</title>
<g id="a_node44"><a xlink:href="../../d1/d90/vgrainlineitem_8cpp.html" target="_top" xlink:title=" ">
<polygon fill="white" stroke="black" points="597,-73 597,-92 790,-92 790,-73 597,-73"/>
<text text-anchor="middle" x="693.5" y="-80" font-family="Helvetica,sans-Serif" font-size="10.00">src/libs/vwidgets/vgrainlineitem.cpp</text>
</a>
</g>
</g>
<!-- Node19&#45;&gt;Node49 -->
<g id="edge50" class="edge">
<title>Node19&#45;&gt;Node49</title>
<path fill="none" stroke="midnightblue" d="M2041.26,-147.18C1972.59,-143 1881.85,-137.75 1801.5,-134 1355.92,-113.2 1242.9,-136.56 798.5,-98 781.82,-96.55 763.73,-94.3 747.34,-92"/>
<polygon fill="midnightblue" stroke="midnightblue" points="2041.46,-150.7 2051.65,-147.81 2041.88,-143.71 2041.46,-150.7"/>
</g>
<!-- Node28&#45;&gt;Node29 -->
<g id="edge27" class="edge">
<title>Node28&#45;&gt;Node29</title>
<path fill="none" stroke="midnightblue" d="M1246.98,-67.04C1107.98,-43.25 956.2,-28.1 877.32,-21.04"/>
<polygon fill="midnightblue" stroke="midnightblue" points="1246.51,-70.51 1256.96,-68.77 1247.71,-63.61 1246.51,-70.51"/>
</g>
<!-- Node39&#45;&gt;Node40 -->
<g id="edge41" class="edge">
<title>Node39&#45;&gt;Node40</title>
<path fill="none" stroke="midnightblue" d="M1749.6,-67.08C2003.05,-35.14 2729.83,-20.84 2933.76,-17.36"/>
<polygon fill="midnightblue" stroke="midnightblue" points="1748.8,-63.65 1739.34,-68.42 1749.7,-70.6 1748.8,-63.65"/>
</g>
</g>
</svg>
