<?xml version="1.0" encoding="UTF-8" standalone="no"?>
<!DOCTYPE svg PUBLIC "-//W3C//DTD SVG 1.1//EN"
 "http://www.w3.org/Graphics/SVG/1.1/DTD/svg11.dtd">
<!-- Generated by graphviz version 2.43.0 (0)
 -->
<!-- Title: src/libs/vpatterndb/variables/vcurveangle.h Pages: 1 -->
<svg width="6354pt" height="385pt"
 viewBox="0.00 0.00 6354.07 385.00" xmlns="http://www.w3.org/2000/svg" xmlns:xlink="http://www.w3.org/1999/xlink">
<g id="graph0" class="graph" transform="scale(1 1) rotate(0) translate(4 381)">
<title>src/libs/vpatterndb/variables/vcurveangle.h</title>
<polygon fill="white" stroke="transparent" points="-4,4 -4,-381 6350.07,-381 6350.07,4 -4,4"/>
<!-- Node1 -->
<g id="node1" class="node">
<title>Node1</title>
<g id="a_node1"><a xlink:title=" ">
<polygon fill="#bfbfbf" stroke="black" points="5754.5,-346.5 5754.5,-376.5 5891.5,-376.5 5891.5,-346.5 5754.5,-346.5"/>
<text text-anchor="start" x="5762.5" y="-364.5" font-family="Helvetica,sans-Serif" font-size="10.00">src/libs/vpatterndb</text>
<text text-anchor="middle" x="5823" y="-353.5" font-family="Helvetica,sans-Serif" font-size="10.00">/variables/vcurveangle.h</text>
</a>
</g>
</g>
<!-- Node2 -->
<g id="node2" class="node">
<title>Node2</title>
<g id="a_node2"><a xlink:href="../../df/db3/vcurveangle_8cpp.html" target="_top" xlink:title=" ">
<polygon fill="white" stroke="black" points="5603,-279.5 5603,-309.5 5751,-309.5 5751,-279.5 5603,-279.5"/>
<text text-anchor="start" x="5611" y="-297.5" font-family="Helvetica,sans-Serif" font-size="10.00">src/libs/vpatterndb</text>
<text text-anchor="middle" x="5677" y="-286.5" font-family="Helvetica,sans-Serif" font-size="10.00">/variables/vcurveangle.cpp</text>
</a>
</g>
</g>
<!-- Node1&#45;&gt;Node2 -->
<g id="edge1" class="edge">
<title>Node1&#45;&gt;Node2</title>
<path fill="none" stroke="midnightblue" d="M5782.05,-342.27C5758.8,-331.92 5730.13,-319.15 5708.62,-309.58"/>
<polygon fill="midnightblue" stroke="midnightblue" points="5780.76,-345.53 5791.32,-346.4 5783.61,-339.13 5780.76,-345.53"/>
</g>
<!-- Node3 -->
<g id="node3" class="node">
<title>Node3</title>
<g id="a_node3"><a xlink:href="../../de/dca/variables_8h.html" target="_top" xlink:title=" ">
<polygon fill="white" stroke="black" points="5769.5,-279.5 5769.5,-309.5 5876.5,-309.5 5876.5,-279.5 5769.5,-279.5"/>
<text text-anchor="start" x="5777.5" y="-297.5" font-family="Helvetica,sans-Serif" font-size="10.00">src/libs/vpatterndb</text>
<text text-anchor="middle" x="5823" y="-286.5" font-family="Helvetica,sans-Serif" font-size="10.00">/variables.h</text>
</a>
</g>
</g>
<!-- Node1&#45;&gt;Node3 -->
<g id="edge2" class="edge">
<title>Node1&#45;&gt;Node3</title>
<path fill="none" stroke="midnightblue" d="M5823,-336.11C5823,-327.15 5823,-317.32 5823,-309.58"/>
<polygon fill="midnightblue" stroke="midnightblue" points="5819.5,-336.4 5823,-346.4 5826.5,-336.4 5819.5,-336.4"/>
</g>
<!-- Node40 -->
<g id="node35" class="node">
<title>Node40</title>
<g id="a_node35"><a xlink:href="../../d6/d46/vcontainer_8cpp.html" target="_top" xlink:title=" ">
<polygon fill="white" stroke="black" points="5530.5,-67.5 5530.5,-97.5 5637.5,-97.5 5637.5,-67.5 5530.5,-67.5"/>
<text text-anchor="start" x="5538.5" y="-85.5" font-family="Helvetica,sans-Serif" font-size="10.00">src/libs/vpatterndb</text>
<text text-anchor="middle" x="5584" y="-74.5" font-family="Helvetica,sans-Serif" font-size="10.00">/vcontainer.cpp</text>
</a>
</g>
</g>
<!-- Node1&#45;&gt;Node40 -->
<g id="edge60" class="edge">
<title>Node1&#45;&gt;Node40</title>
<path fill="none" stroke="midnightblue" d="M5901.96,-352.64C6072.19,-332.89 6448.31,-272.5 6319,-134 6272.74,-84.45 5799.04,-82.33 5637.57,-83.07"/>
<polygon fill="midnightblue" stroke="midnightblue" points="5901.33,-349.19 5891.79,-353.8 5902.12,-356.14 5901.33,-349.19"/>
</g>
<!-- Node4 -->
<g id="node4" class="node">
<title>Node4</title>
<g id="a_node4"><a xlink:href="../../d3/df7/vcontainer_8h.html" target="_top" xlink:title=" ">
<polygon fill="white" stroke="black" points="5336.5,-212.5 5336.5,-242.5 5443.5,-242.5 5443.5,-212.5 5336.5,-212.5"/>
<text text-anchor="start" x="5344.5" y="-230.5" font-family="Helvetica,sans-Serif" font-size="10.00">src/libs/vpatterndb</text>
<text text-anchor="middle" x="5390" y="-219.5" font-family="Helvetica,sans-Serif" font-size="10.00">/vcontainer.h</text>
</a>
</g>
</g>
<!-- Node3&#45;&gt;Node4 -->
<g id="edge3" class="edge">
<title>Node3&#45;&gt;Node4</title>
<path fill="none" stroke="midnightblue" d="M5759.47,-279.01C5640.88,-257.65 5513.75,-242.17 5443.55,-234.27"/>
<polygon fill="midnightblue" stroke="midnightblue" points="5758.99,-282.48 5769.45,-280.83 5760.24,-275.59 5758.99,-282.48"/>
</g>
<!-- Node5 -->
<g id="node5" class="node">
<title>Node5</title>
<g id="a_node5"><a xlink:href="../../dc/db7/measurements_8h.html" target="_top" xlink:title=" ">
<polygon fill="white" stroke="black" points="527.5,-145.5 527.5,-164.5 706.5,-164.5 706.5,-145.5 527.5,-145.5"/>
<text text-anchor="middle" x="617" y="-152.5" font-family="Helvetica,sans-Serif" font-size="10.00">src/libs/vformat/measurements.h</text>
</a>
</g>
</g>
<!-- Node4&#45;&gt;Node5 -->
<g id="edge4" class="edge">
<title>Node4&#45;&gt;Node5</title>
<path fill="none" stroke="midnightblue" d="M5326,-226.44C4844.03,-225.93 1777.61,-220.91 850,-176 799.61,-173.56 743.25,-168.78 698.58,-164.5"/>
<polygon fill="midnightblue" stroke="midnightblue" points="5326.24,-229.94 5336.24,-226.46 5326.25,-222.94 5326.24,-229.94"/>
</g>
<!-- Node6 -->
<g id="node6" class="node">
<title>Node6</title>
<g id="a_node6"><a xlink:href="../../d9/de3/measurements_8cpp.html" target="_top" xlink:title=" ">
<polygon fill="white" stroke="black" points="0,-73 0,-92 190,-92 190,-73 0,-73"/>
<text text-anchor="middle" x="95" y="-80" font-family="Helvetica,sans-Serif" font-size="10.00">src/libs/vformat/measurements.cpp</text>
</a>
</g>
</g>
<!-- Node4&#45;&gt;Node6 -->
<g id="edge6" class="edge">
<title>Node4&#45;&gt;Node6</title>
<path fill="none" stroke="midnightblue" d="M5325.92,-226.63C4786.93,-227.63 1017.28,-232.57 518,-176 367.68,-158.97 192.29,-111.55 124.14,-92.05"/>
<polygon fill="midnightblue" stroke="midnightblue" points="5326.23,-230.13 5336.22,-226.61 5326.22,-223.13 5326.23,-230.13"/>
</g>
<!-- Node7 -->
<g id="node7" class="node">
<title>Node7</title>
<g id="a_node7"><a xlink:href="../../d6/de0/vlayoutpiece_8h.html" target="_top" xlink:title=" ">
<polygon fill="white" stroke="black" points="859,-145.5 859,-164.5 1025,-164.5 1025,-145.5 859,-145.5"/>
<text text-anchor="middle" x="942" y="-152.5" font-family="Helvetica,sans-Serif" font-size="10.00">src/libs/vlayout/vlayoutpiece.h</text>
</a>
</g>
</g>
<!-- Node4&#45;&gt;Node7 -->
<g id="edge7" class="edge">
<title>Node4&#45;&gt;Node7</title>
<path fill="none" stroke="midnightblue" d="M5325.94,-225.48C4828.6,-217.6 1588.45,-166.25 1025.36,-157.32"/>
<polygon fill="midnightblue" stroke="midnightblue" points="5326.11,-228.99 5336.16,-225.65 5326.22,-221.99 5326.11,-228.99"/>
</g>
<!-- Node17 -->
<g id="node16" class="node">
<title>Node17</title>
<g id="a_node16"><a xlink:href="../../d8/d70/vtextmanager_8cpp.html" target="_top" xlink:title=" ">
<polygon fill="white" stroke="black" points="1529,-73 1529,-92 1711,-92 1711,-73 1529,-73"/>
<text text-anchor="middle" x="1620" y="-80" font-family="Helvetica,sans-Serif" font-size="10.00">src/libs/vlayout/vtextmanager.cpp</text>
</a>
</g>
</g>
<!-- Node4&#45;&gt;Node17 -->
<g id="edge18" class="edge">
<title>Node4&#45;&gt;Node17</title>
<path fill="none" stroke="midnightblue" d="M5326,-225.32C4899.24,-217.3 2460.3,-168.91 1720,-98 1704.37,-96.5 1687.45,-94.28 1672.04,-92.02"/>
<polygon fill="midnightblue" stroke="midnightblue" points="5326.22,-228.83 5336.29,-225.51 5326.36,-221.83 5326.22,-228.83"/>
</g>
<!-- Node18 -->
<g id="node17" class="node">
<title>Node18</title>
<g id="a_node17"><a xlink:href="../../d5/d74/vabstractapplication_8h.html" target="_top" xlink:title=" ">
<polygon fill="white" stroke="red" points="3388.5,-145.5 3388.5,-164.5 3583.5,-164.5 3583.5,-145.5 3388.5,-145.5"/>
<text text-anchor="middle" x="3486" y="-152.5" font-family="Helvetica,sans-Serif" font-size="10.00">src/libs/vmisc/vabstractapplication.h</text>
</a>
</g>
</g>
<!-- Node4&#45;&gt;Node18 -->
<g id="edge19" class="edge">
<title>Node4&#45;&gt;Node18</title>
<path fill="none" stroke="midnightblue" d="M5325.93,-224.13C5045.27,-213.74 3923.25,-172.19 3583.79,-159.62"/>
<polygon fill="midnightblue" stroke="midnightblue" points="5326.21,-227.64 5336.34,-224.51 5326.47,-220.65 5326.21,-227.64"/>
</g>
<!-- Node36 -->
<g id="node31" class="node">
<title>Node36</title>
<g id="a_node31"><a xlink:href="../../db/d11/vformula_8cpp.html" target="_top" xlink:title=" ">
<polygon fill="white" stroke="black" points="5241.5,-67.5 5241.5,-97.5 5348.5,-97.5 5348.5,-67.5 5241.5,-67.5"/>
<text text-anchor="start" x="5249.5" y="-85.5" font-family="Helvetica,sans-Serif" font-size="10.00">src/libs/vpatterndb</text>
<text text-anchor="middle" x="5295" y="-74.5" font-family="Helvetica,sans-Serif" font-size="10.00">/vformula.cpp</text>
</a>
</g>
</g>
<!-- Node4&#45;&gt;Node36 -->
<g id="edge52" class="edge">
<title>Node4&#45;&gt;Node36</title>
<path fill="none" stroke="midnightblue" d="M5369.56,-204.39C5362.08,-195.82 5353.79,-185.74 5347,-176 5328.67,-149.7 5311.23,-116.42 5301.95,-97.8"/>
<polygon fill="midnightblue" stroke="midnightblue" points="5367.15,-206.94 5376.42,-212.08 5372.38,-202.29 5367.15,-206.94"/>
</g>
<!-- Node37 -->
<g id="node32" class="node">
<title>Node37</title>
<g id="a_node32"><a xlink:href="../../df/d7a/vpiece_8cpp.html" target="_top" xlink:title=" ">
<polygon fill="white" stroke="black" points="5366.5,-67.5 5366.5,-97.5 5473.5,-97.5 5473.5,-67.5 5366.5,-67.5"/>
<text text-anchor="start" x="5374.5" y="-85.5" font-family="Helvetica,sans-Serif" font-size="10.00">src/libs/vpatterndb</text>
<text text-anchor="middle" x="5420" y="-74.5" font-family="Helvetica,sans-Serif" font-size="10.00">/vpiece.cpp</text>
</a>
</g>
</g>
<!-- Node4&#45;&gt;Node37 -->
<g id="edge55" class="edge">
<title>Node4&#45;&gt;Node37</title>
<path fill="none" stroke="midnightblue" d="M5371.41,-204.14C5365.62,-195.83 5359.97,-185.98 5357,-176 5351.67,-158.11 5348.92,-150.83 5357,-134 5364.46,-118.46 5379.3,-106.19 5392.7,-97.64"/>
<polygon fill="midnightblue" stroke="midnightblue" points="5368.61,-206.25 5377.39,-212.19 5374.23,-202.07 5368.61,-206.25"/>
</g>
<!-- Node39 -->
<g id="node34" class="node">
<title>Node39</title>
<g id="a_node34"><a xlink:href="../../d8/dba/vpiecenode_8cpp.html" target="_top" xlink:title=" ">
<polygon fill="white" stroke="black" points="4502.5,-0.5 4502.5,-30.5 4609.5,-30.5 4609.5,-0.5 4502.5,-0.5"/>
<text text-anchor="start" x="4510.5" y="-18.5" font-family="Helvetica,sans-Serif" font-size="10.00">src/libs/vpatterndb</text>
<text text-anchor="middle" x="4556" y="-7.5" font-family="Helvetica,sans-Serif" font-size="10.00">/vpiecenode.cpp</text>
</a>
</g>
</g>
<!-- Node4&#45;&gt;Node39 -->
<g id="edge54" class="edge">
<title>Node4&#45;&gt;Node39</title>
<path fill="none" stroke="midnightblue" d="M5385.71,-202.47C5383.48,-182.29 5383.71,-153.68 5398,-134 5422.11,-100.81 5460.34,-132.2 5483,-98 5490.61,-86.51 5492.47,-77 5483,-67 5452.82,-35.13 4802.56,-20.93 4609.55,-17.41"/>
<polygon fill="midnightblue" stroke="midnightblue" points="5382.25,-203.01 5387.08,-212.44 5389.18,-202.05 5382.25,-203.01"/>
</g>
<!-- Node4&#45;&gt;Node40 -->
<g id="edge57" class="edge">
<title>Node4&#45;&gt;Node40</title>
<path fill="none" stroke="midnightblue" d="M5394.01,-202.51C5398.71,-181.67 5408.47,-152.08 5428,-134 5443.19,-119.93 5491.51,-105.54 5530.39,-95.74"/>
<polygon fill="midnightblue" stroke="midnightblue" points="5390.55,-202 5392,-212.5 5397.41,-203.39 5390.55,-202"/>
</g>
<!-- Node57 -->
<g id="node45" class="node">
<title>Node57</title>
<g id="a_node45"><a xlink:href="../../d7/d8a/measurement__variable__p_8h.html" target="_top" xlink:title=" ">
<polygon fill="white" stroke="red" points="5437,-134.5 5437,-175.5 5573,-175.5 5573,-134.5 5437,-134.5"/>
<text text-anchor="start" x="5445" y="-163.5" font-family="Helvetica,sans-Serif" font-size="10.00">src/libs/vpatterndb</text>
<text text-anchor="start" x="5445" y="-152.5" font-family="Helvetica,sans-Serif" font-size="10.00">/variables/measurement</text>
<text text-anchor="middle" x="5505" y="-141.5" font-family="Helvetica,sans-Serif" font-size="10.00">_variable_p.h</text>
</a>
</g>
</g>
<!-- Node4&#45;&gt;Node57 -->
<g id="edge50" class="edge">
<title>Node4&#45;&gt;Node57</title>
<path fill="none" stroke="midnightblue" d="M5421.92,-206.93C5437.82,-197.19 5456.98,-185.44 5472.9,-175.68"/>
<polygon fill="midnightblue" stroke="midnightblue" points="5419.69,-204.19 5413,-212.4 5423.35,-210.16 5419.69,-204.19"/>
</g>
<!-- Node59 -->
<g id="node46" class="node">
<title>Node59</title>
<g id="a_node46"><a xlink:href="../../d1/de1/vincrement__p_8h.html" target="_top" xlink:title=" ">
<polygon fill="white" stroke="red" points="5591.5,-140 5591.5,-170 5734.5,-170 5734.5,-140 5591.5,-140"/>
<text text-anchor="start" x="5599.5" y="-158" font-family="Helvetica,sans-Serif" font-size="10.00">src/libs/vpatterndb</text>
<text text-anchor="middle" x="5663" y="-147" font-family="Helvetica,sans-Serif" font-size="10.00">/variables/vincrement_p.h</text>
</a>
</g>
</g>
<!-- Node4&#45;&gt;Node59 -->
<g id="edge51" class="edge">
<title>Node4&#45;&gt;Node59</title>
<path fill="none" stroke="midnightblue" d="M5453.38,-210.13C5500.4,-197.99 5563.84,-181.61 5608.58,-170.05"/>
<polygon fill="midnightblue" stroke="midnightblue" points="5452.42,-206.77 5443.61,-212.66 5454.17,-213.54 5452.42,-206.77"/>
</g>
<!-- Node61 -->
<g id="node47" class="node">
<title>Node61</title>
<g id="a_node47"><a xlink:href="../../d6/d91/vnodedetail_8cpp.html" target="_top" xlink:title=" ">
<polygon fill="white" stroke="black" points="5752.5,-140 5752.5,-170 5859.5,-170 5859.5,-140 5752.5,-140"/>
<text text-anchor="start" x="5760.5" y="-158" font-family="Helvetica,sans-Serif" font-size="10.00">src/libs/vpatterndb</text>
<text text-anchor="middle" x="5806" y="-147" font-family="Helvetica,sans-Serif" font-size="10.00">/vnodedetail.cpp</text>
</a>
</g>
</g>
<!-- Node4&#45;&gt;Node61 -->
<g id="edge53" class="edge">
<title>Node4&#45;&gt;Node61</title>
<path fill="none" stroke="midnightblue" d="M5453.77,-220.71C5525.12,-213.46 5643.83,-199.12 5744,-176 5751.16,-174.35 5758.69,-172.24 5765.92,-170.03"/>
<polygon fill="midnightblue" stroke="midnightblue" points="5453.2,-217.25 5443.6,-221.72 5453.9,-224.21 5453.2,-217.25"/>
</g>
<!-- Node62 -->
<g id="node48" class="node">
<title>Node62</title>
<g id="a_node48"><a xlink:href="../../da/de1/vpiecepath_8cpp.html" target="_top" xlink:title=" ">
<polygon fill="white" stroke="black" points="5877.5,-140 5877.5,-170 5984.5,-170 5984.5,-140 5877.5,-140"/>
<text text-anchor="start" x="5885.5" y="-158" font-family="Helvetica,sans-Serif" font-size="10.00">src/libs/vpatterndb</text>
<text text-anchor="middle" x="5931" y="-147" font-family="Helvetica,sans-Serif" font-size="10.00">/vpiecepath.cpp</text>
</a>
</g>
</g>
<!-- Node4&#45;&gt;Node62 -->
<g id="edge56" class="edge">
<title>Node4&#45;&gt;Node62</title>
<path fill="none" stroke="midnightblue" d="M5453.76,-223.97C5546.17,-219.37 5722.33,-207.04 5869,-176 5876.41,-174.43 5884.19,-172.31 5891.64,-170.04"/>
<polygon fill="midnightblue" stroke="midnightblue" points="5453.54,-220.48 5443.72,-224.46 5453.88,-227.47 5453.54,-220.48"/>
</g>
<!-- Node63 -->
<g id="node49" class="node">
<title>Node63</title>
<g id="a_node49"><a xlink:href="../../d1/d3a/abstracttest_8cpp.html" target="_top" xlink:title=" ">
<polygon fill="white" stroke="black" points="6002.5,-145.5 6002.5,-164.5 6163.5,-164.5 6163.5,-145.5 6002.5,-145.5"/>
<text text-anchor="middle" x="6083" y="-152.5" font-family="Helvetica,sans-Serif" font-size="10.00">src/libs/vtest/abstracttest.cpp</text>
</a>
</g>
</g>
<!-- Node4&#45;&gt;Node63 -->
<g id="edge58" class="edge">
<title>Node4&#45;&gt;Node63</title>
<path fill="none" stroke="midnightblue" d="M5453.93,-224.05C5564.53,-219.16 5798.53,-205.99 5994,-176 6012.63,-173.14 6033.17,-168.62 6049.82,-164.6"/>
<polygon fill="midnightblue" stroke="midnightblue" points="5453.46,-220.57 5443.62,-224.5 5453.76,-227.56 5453.46,-220.57"/>
</g>
<!-- Node64 -->
<g id="node50" class="node">
<title>Node64</title>
<g id="a_node50"><a xlink:href="../../da/db4/piece__tablewidgetitem_8cpp.html" target="_top" xlink:title=" ">
<polygon fill="white" stroke="black" points="6182,-140 6182,-170 6310,-170 6310,-140 6182,-140"/>
<text text-anchor="start" x="6190" y="-158" font-family="Helvetica,sans-Serif" font-size="10.00">src/libs/vwidgets/piece</text>
<text text-anchor="middle" x="6246" y="-147" font-family="Helvetica,sans-Serif" font-size="10.00">_tablewidgetitem.cpp</text>
</a>
</g>
</g>
<!-- Node4&#45;&gt;Node64 -->
<g id="edge59" class="edge">
<title>Node4&#45;&gt;Node64</title>
<path fill="none" stroke="midnightblue" d="M5453.69,-226.75C5587.75,-226.33 5908.5,-220.29 6173,-176 6181.94,-174.5 6191.37,-172.36 6200.37,-170.03"/>
<polygon fill="midnightblue" stroke="midnightblue" points="5453.59,-223.25 5443.59,-226.77 5453.6,-230.25 5453.59,-223.25"/>
</g>
<!-- Node5&#45;&gt;Node6 -->
<g id="edge5" class="edge">
<title>Node5&#45;&gt;Node6</title>
<path fill="none" stroke="midnightblue" d="M542.37,-144.12C458.74,-133.03 319.13,-114.42 199,-98 185,-96.09 169.95,-94 155.76,-92.03"/>
<polygon fill="midnightblue" stroke="midnightblue" points="542.17,-147.63 552.54,-145.47 543.09,-140.69 542.17,-147.63"/>
</g>
<!-- Node8 -->
<g id="node8" class="node">
<title>Node8</title>
<g id="a_node8"><a xlink:href="../../dd/d66/vdxfengine_8cpp.html" target="_top" xlink:title=" ">
<polygon fill="white" stroke="black" points="208,-73 208,-92 362,-92 362,-73 208,-73"/>
<text text-anchor="middle" x="285" y="-80" font-family="Helvetica,sans-Serif" font-size="10.00">src/libs/vdxf/vdxfengine.cpp</text>
</a>
</g>
</g>
<!-- Node7&#45;&gt;Node8 -->
<g id="edge8" class="edge">
<title>Node7&#45;&gt;Node8</title>
<path fill="none" stroke="midnightblue" d="M848.85,-145.66C711.4,-133.21 460.82,-109.96 371,-98 358.39,-96.32 344.8,-94.18 332.23,-92.07"/>
<polygon fill="midnightblue" stroke="midnightblue" points="848.68,-149.15 858.95,-146.57 849.31,-142.18 848.68,-149.15"/>
</g>
<!-- Node9 -->
<g id="node9" class="node">
<title>Node9</title>
<g id="a_node9"><a xlink:href="../../de/da8/vbank_8cpp.html" target="_top" xlink:title=" ">
<polygon fill="white" stroke="black" points="380,-73 380,-92 524,-92 524,-73 380,-73"/>
<text text-anchor="middle" x="452" y="-80" font-family="Helvetica,sans-Serif" font-size="10.00">src/libs/vlayout/vbank.cpp</text>
</a>
</g>
</g>
<!-- Node7&#45;&gt;Node9 -->
<g id="edge9" class="edge">
<title>Node7&#45;&gt;Node9</title>
<path fill="none" stroke="midnightblue" d="M863.44,-144.22C780.99,-133.72 647.68,-116.11 533,-98 521.57,-96.2 509.26,-94.08 497.78,-92.03"/>
<polygon fill="midnightblue" stroke="midnightblue" points="863.13,-147.7 873.49,-145.49 864.01,-140.76 863.13,-147.7"/>
</g>
<!-- Node10 -->
<g id="node10" class="node">
<title>Node10</title>
<g id="a_node10"><a xlink:href="../../df/d5d/vcontour_8cpp.html" target="_top" xlink:title=" ">
<polygon fill="white" stroke="black" points="542,-73 542,-92 698,-92 698,-73 542,-73"/>
<text text-anchor="middle" x="620" y="-80" font-family="Helvetica,sans-Serif" font-size="10.00">src/libs/vlayout/vcontour.cpp</text>
</a>
</g>
</g>
<!-- Node7&#45;&gt;Node10 -->
<g id="edge10" class="edge">
<title>Node7&#45;&gt;Node10</title>
<path fill="none" stroke="midnightblue" d="M893.29,-143.34C829.2,-129.3 717.81,-104.91 658.98,-92.03"/>
<polygon fill="midnightblue" stroke="midnightblue" points="892.64,-146.78 903.16,-145.5 894.14,-139.94 892.64,-146.78"/>
</g>
<!-- Node11 -->
<g id="node11" class="node">
<title>Node11</title>
<g id="a_node11"><a xlink:href="../../d3/d39/vlayoutgenerator_8cpp.html" target="_top" xlink:title=" ">
<polygon fill="white" stroke="black" points="716.5,-73 716.5,-92 913.5,-92 913.5,-73 716.5,-73"/>
<text text-anchor="middle" x="815" y="-80" font-family="Helvetica,sans-Serif" font-size="10.00">src/libs/vlayout/vlayoutgenerator.cpp</text>
</a>
</g>
</g>
<!-- Node7&#45;&gt;Node11 -->
<g id="edge11" class="edge">
<title>Node7&#45;&gt;Node11</title>
<path fill="none" stroke="midnightblue" d="M917.68,-140.5C892.06,-126.28 852.48,-104.3 830.7,-92.22"/>
<polygon fill="midnightblue" stroke="midnightblue" points="915.99,-143.56 926.43,-145.36 919.38,-137.44 915.99,-143.56"/>
</g>
<!-- Node12 -->
<g id="node12" class="node">
<title>Node12</title>
<g id="a_node12"><a xlink:href="../../d1/dd1/vlayoutpaper_8cpp.html" target="_top" xlink:title=" ">
<polygon fill="white" stroke="black" points="955,-6 955,-25 1133,-25 1133,-6 955,-6"/>
<text text-anchor="middle" x="1044" y="-13" font-family="Helvetica,sans-Serif" font-size="10.00">src/libs/vlayout/vlayoutpaper.cpp</text>
</a>
</g>
</g>
<!-- Node7&#45;&gt;Node12 -->
<g id="edge12" class="edge">
<title>Node7&#45;&gt;Node12</title>
<path fill="none" stroke="midnightblue" d="M941.94,-135.2C942.77,-116.33 946.58,-87.22 961,-67 975.5,-46.68 1000.97,-32.97 1019.89,-25.03"/>
<polygon fill="midnightblue" stroke="midnightblue" points="938.44,-135.39 941.74,-145.46 945.44,-135.53 938.44,-135.39"/>
</g>
<!-- Node13 -->
<g id="node13" class="node">
<title>Node13</title>
<g id="a_node13"><a xlink:href="../../db/d5c/vposition_8h.html" target="_top" xlink:title=" ">
<polygon fill="white" stroke="red" points="970,-73 970,-92 1118,-92 1118,-73 970,-73"/>
<text text-anchor="middle" x="1044" y="-80" font-family="Helvetica,sans-Serif" font-size="10.00">src/libs/vlayout/vposition.h</text>
</a>
</g>
</g>
<!-- Node7&#45;&gt;Node13 -->
<g id="edge13" class="edge">
<title>Node7&#45;&gt;Node13</title>
<path fill="none" stroke="midnightblue" d="M962.9,-139.55C983.5,-125.32 1014.28,-104.04 1031.39,-92.22"/>
<polygon fill="midnightblue" stroke="midnightblue" points="960.74,-136.79 954.51,-145.36 964.72,-142.55 960.74,-136.79"/>
</g>
<!-- Node15 -->
<g id="node14" class="node">
<title>Node15</title>
<g id="a_node14"><a xlink:href="../../dd/d70/vlayoutpiece_8cpp.html" target="_top" xlink:title=" ">
<polygon fill="white" stroke="black" points="1333.5,-73 1333.5,-92 1510.5,-92 1510.5,-73 1333.5,-73"/>
<text text-anchor="middle" x="1422" y="-80" font-family="Helvetica,sans-Serif" font-size="10.00">src/libs/vlayout/vlayoutpiece.cpp</text>
</a>
</g>
</g>
<!-- Node7&#45;&gt;Node15 -->
<g id="edge15" class="edge">
<title>Node7&#45;&gt;Node15</title>
<path fill="none" stroke="midnightblue" d="M1010.23,-144.03C1086.65,-132.85 1214.21,-114.17 1324,-98 1337.1,-96.07 1351.19,-93.99 1364.48,-92.02"/>
<polygon fill="midnightblue" stroke="midnightblue" points="1009.64,-140.58 1000.25,-145.49 1010.65,-147.5 1009.64,-140.58"/>
</g>
<!-- Node16 -->
<g id="node15" class="node">
<title>Node16</title>
<g id="a_node15"><a xlink:href="../../d2/d2d/vlayoutpaper__p_8h.html" target="_top" xlink:title=" ">
<polygon fill="white" stroke="black" points="1136.5,-73 1136.5,-92 1315.5,-92 1315.5,-73 1136.5,-73"/>
<text text-anchor="middle" x="1226" y="-80" font-family="Helvetica,sans-Serif" font-size="10.00">src/libs/vlayout/vlayoutpaper_p.h</text>
</a>
</g>
</g>
<!-- Node7&#45;&gt;Node16 -->
<g id="edge16" class="edge">
<title>Node7&#45;&gt;Node16</title>
<path fill="none" stroke="midnightblue" d="M986.01,-143.08C1042.7,-129 1140.06,-104.83 1191.62,-92.03"/>
<polygon fill="midnightblue" stroke="midnightblue" points="985.12,-139.69 976.26,-145.5 986.81,-146.48 985.12,-139.69"/>
</g>
<!-- Node13&#45;&gt;Node12 -->
<g id="edge14" class="edge">
<title>Node13&#45;&gt;Node12</title>
<path fill="none" stroke="midnightblue" d="M1044,-62.54C1044,-50.17 1044,-34.62 1044,-25.13"/>
<polygon fill="midnightblue" stroke="midnightblue" points="1040.5,-62.73 1044,-72.73 1047.5,-62.73 1040.5,-62.73"/>
</g>
<!-- Node16&#45;&gt;Node12 -->
<g id="edge17" class="edge">
<title>Node16&#45;&gt;Node12</title>
<path fill="none" stroke="midnightblue" d="M1192.22,-69.44C1156.12,-56.54 1099.79,-36.42 1067.98,-25.06"/>
<polygon fill="midnightblue" stroke="midnightblue" points="1191.24,-72.8 1201.83,-72.87 1193.59,-66.21 1191.24,-72.8"/>
</g>
<!-- Node18&#45;&gt;Node15 -->
<g id="edge30" class="edge">
<title>Node18&#45;&gt;Node15</title>
<path fill="none" stroke="midnightblue" d="M3378.37,-152.62C3022.46,-147.77 1885.44,-130.13 1520,-98 1504.24,-96.61 1487.15,-94.35 1471.72,-92.02"/>
<polygon fill="midnightblue" stroke="midnightblue" points="3378.37,-156.12 3388.42,-152.75 3378.47,-149.12 3378.37,-156.12"/>
</g>
<!-- Node18&#45;&gt;Node17 -->
<g id="edge31" class="edge">
<title>Node18&#45;&gt;Node17</title>
<path fill="none" stroke="midnightblue" d="M3378.42,-152.17C3047.03,-146.3 2044.65,-126.59 1720,-98 1704.01,-96.59 1686.68,-94.34 1671,-92.02"/>
<polygon fill="midnightblue" stroke="midnightblue" points="3378.44,-155.68 3388.5,-152.35 3378.56,-148.68 3378.44,-155.68"/>
</g>
<!-- Node19 -->
<g id="node18" class="node">
<title>Node19</title>
<g id="a_node18"><a xlink:href="../../d4/d90/fvupdater_8cpp.html" target="_top" xlink:title=" ">
<polygon fill="white" stroke="black" points="1729.5,-73 1729.5,-92 1882.5,-92 1882.5,-73 1729.5,-73"/>
<text text-anchor="middle" x="1806" y="-80" font-family="Helvetica,sans-Serif" font-size="10.00">src/libs/fervor/fvupdater.cpp</text>
</a>
</g>
</g>
<!-- Node18&#45;&gt;Node19 -->
<g id="edge20" class="edge">
<title>Node18&#45;&gt;Node19</title>
<path fill="none" stroke="midnightblue" d="M3378,-152.09C3068.22,-146.33 2180.41,-127.63 1891,-98 1877.3,-96.6 1862.47,-94.33 1849.09,-92"/>
<polygon fill="midnightblue" stroke="midnightblue" points="3378.27,-155.6 3388.33,-152.29 3378.4,-148.6 3378.27,-155.6"/>
</g>
<!-- Node20 -->
<g id="node19" class="node">
<title>Node20</title>
<g id="a_node19"><a xlink:href="../../d9/dc8/dxiface_8cpp.html" target="_top" xlink:title=" ">
<polygon fill="white" stroke="black" points="1900.5,-73 1900.5,-92 2035.5,-92 2035.5,-73 1900.5,-73"/>
<text text-anchor="middle" x="1968" y="-80" font-family="Helvetica,sans-Serif" font-size="10.00">src/libs/vdxf/dxiface.cpp</text>
</a>
</g>
</g>
<!-- Node18&#45;&gt;Node20 -->
<g id="edge21" class="edge">
<title>Node18&#45;&gt;Node20</title>
<path fill="none" stroke="midnightblue" d="M3378.31,-151.91C3089.52,-145.97 2302.3,-127.49 2044,-98 2031.72,-96.6 2018.45,-94.33 2006.49,-92"/>
<polygon fill="midnightblue" stroke="midnightblue" points="3378.3,-155.41 3388.37,-152.12 3378.45,-148.41 3378.3,-155.41"/>
</g>
<!-- Node21 -->
<g id="node20" class="node">
<title>Node21</title>
<g id="a_node20"><a xlink:href="../../da/d75/vabstractarc__p_8h.html" target="_top" xlink:title=" ">
<polygon fill="white" stroke="red" points="2053.5,-67.5 2053.5,-97.5 2160.5,-97.5 2160.5,-67.5 2053.5,-67.5"/>
<text text-anchor="start" x="2061.5" y="-85.5" font-family="Helvetica,sans-Serif" font-size="10.00">src/libs/vgeometry</text>
<text text-anchor="middle" x="2107" y="-74.5" font-family="Helvetica,sans-Serif" font-size="10.00">/vabstractarc_p.h</text>
</a>
</g>
</g>
<!-- Node18&#45;&gt;Node21 -->
<g id="edge22" class="edge">
<title>Node18&#45;&gt;Node21</title>
<path fill="none" stroke="midnightblue" d="M3378.14,-152.02C3106.9,-146.61 2401.53,-129.85 2169,-98 2166.26,-97.62 2163.47,-97.18 2160.65,-96.7"/>
<polygon fill="midnightblue" stroke="midnightblue" points="3378.31,-155.52 3388.38,-152.22 3378.45,-148.52 3378.31,-155.52"/>
</g>
<!-- Node23 -->
<g id="node21" class="node">
<title>Node23</title>
<g id="a_node21"><a xlink:href="../../dc/da3/varc__p_8h.html" target="_top" xlink:title=" ">
<polygon fill="white" stroke="red" points="2178.5,-67.5 2178.5,-97.5 2285.5,-97.5 2285.5,-67.5 2178.5,-67.5"/>
<text text-anchor="start" x="2186.5" y="-85.5" font-family="Helvetica,sans-Serif" font-size="10.00">src/libs/vgeometry</text>
<text text-anchor="middle" x="2232" y="-74.5" font-family="Helvetica,sans-Serif" font-size="10.00">/varc_p.h</text>
</a>
</g>
</g>
<!-- Node18&#45;&gt;Node23 -->
<g id="edge23" class="edge">
<title>Node18&#45;&gt;Node23</title>
<path fill="none" stroke="midnightblue" d="M3378.13,-151.46C3125.57,-145.1 2501.57,-126.9 2294,-98 2291.26,-97.62 2288.47,-97.17 2285.66,-96.68"/>
<polygon fill="midnightblue" stroke="midnightblue" points="3378.33,-154.96 3388.42,-151.72 3378.51,-147.97 3378.33,-154.96"/>
</g>
<!-- Node25 -->
<g id="node22" class="node">
<title>Node25</title>
<g id="a_node22"><a xlink:href="../../d5/d8e/vcubicbezier__p_8h.html" target="_top" xlink:title=" ">
<polygon fill="white" stroke="red" points="2303.5,-67.5 2303.5,-97.5 2410.5,-97.5 2410.5,-67.5 2303.5,-67.5"/>
<text text-anchor="start" x="2311.5" y="-85.5" font-family="Helvetica,sans-Serif" font-size="10.00">src/libs/vgeometry</text>
<text text-anchor="middle" x="2357" y="-74.5" font-family="Helvetica,sans-Serif" font-size="10.00">/vcubicbezier_p.h</text>
</a>
</g>
</g>
<!-- Node18&#45;&gt;Node25 -->
<g id="edge24" class="edge">
<title>Node18&#45;&gt;Node25</title>
<path fill="none" stroke="midnightblue" d="M3378.14,-153.9C3185.8,-152.47 2771.28,-143.77 2425,-98 2420.33,-97.38 2415.51,-96.62 2410.69,-95.76"/>
<polygon fill="midnightblue" stroke="midnightblue" points="3378.23,-157.4 3388.25,-153.97 3378.28,-150.4 3378.23,-157.4"/>
</g>
<!-- Node27 -->
<g id="node23" class="node">
<title>Node27</title>
<g id="a_node23"><a xlink:href="../../df/dde/vellipticalarc__p_8h.html" target="_top" xlink:title=" ">
<polygon fill="white" stroke="black" points="2467.5,-67.5 2467.5,-97.5 2574.5,-97.5 2574.5,-67.5 2467.5,-67.5"/>
<text text-anchor="start" x="2475.5" y="-85.5" font-family="Helvetica,sans-Serif" font-size="10.00">src/libs/vgeometry</text>
<text text-anchor="middle" x="2521" y="-74.5" font-family="Helvetica,sans-Serif" font-size="10.00">/vellipticalarc_p.h</text>
</a>
</g>
</g>
<!-- Node18&#45;&gt;Node27 -->
<g id="edge25" class="edge">
<title>Node18&#45;&gt;Node27</title>
<path fill="none" stroke="midnightblue" d="M3378.03,-153.14C3208.03,-150.48 2867.98,-139.86 2583,-98 2580.27,-97.6 2577.47,-97.14 2574.66,-96.63"/>
<polygon fill="midnightblue" stroke="midnightblue" points="3378.18,-156.65 3388.23,-153.3 3378.28,-149.65 3378.18,-156.65"/>
</g>
<!-- Node28 -->
<g id="node24" class="node">
<title>Node28</title>
<g id="a_node24"><a xlink:href="../../d6/dfb/vellipticalarc_8cpp.html" target="_top" xlink:title=" ">
<polygon fill="white" stroke="black" points="2426.5,-0.5 2426.5,-30.5 2533.5,-30.5 2533.5,-0.5 2426.5,-0.5"/>
<text text-anchor="start" x="2434.5" y="-18.5" font-family="Helvetica,sans-Serif" font-size="10.00">src/libs/vgeometry</text>
<text text-anchor="middle" x="2480" y="-7.5" font-family="Helvetica,sans-Serif" font-size="10.00">/vellipticalarc.cpp</text>
</a>
</g>
</g>
<!-- Node18&#45;&gt;Node28 -->
<g id="edge27" class="edge">
<title>Node18&#45;&gt;Node28</title>
<path fill="none" stroke="midnightblue" d="M3378.09,-152.07C3120.61,-146.93 2489.27,-131.02 2458,-98 2440.47,-79.48 2456.93,-48.49 2469.28,-30.53"/>
<polygon fill="midnightblue" stroke="midnightblue" points="3378.14,-155.57 3388.21,-152.27 3378.28,-148.57 3378.14,-155.57"/>
</g>
<!-- Node29 -->
<g id="node25" class="node">
<title>Node29</title>
<g id="a_node25"><a xlink:href="../../d1/d76/vspline__p_8h.html" target="_top" xlink:title=" ">
<polygon fill="white" stroke="red" points="2592.5,-67.5 2592.5,-97.5 2699.5,-97.5 2699.5,-67.5 2592.5,-67.5"/>
<text text-anchor="start" x="2600.5" y="-85.5" font-family="Helvetica,sans-Serif" font-size="10.00">src/libs/vgeometry</text>
<text text-anchor="middle" x="2646" y="-74.5" font-family="Helvetica,sans-Serif" font-size="10.00">/vspline_p.h</text>
</a>
</g>
</g>
<!-- Node18&#45;&gt;Node29 -->
<g id="edge28" class="edge">
<title>Node18&#45;&gt;Node29</title>
<path fill="none" stroke="midnightblue" d="M3378.09,-151.47C3227.5,-146.76 2946.13,-133.62 2709,-98 2705.89,-97.53 2702.71,-97 2699.51,-96.41"/>
<polygon fill="midnightblue" stroke="midnightblue" points="3378.15,-154.98 3388.26,-151.79 3378.37,-147.98 3378.15,-154.98"/>
</g>
<!-- Node31 -->
<g id="node26" class="node">
<title>Node31</title>
<g id="a_node26"><a xlink:href="../../d9/d15/vabstractpiece_8cpp.html" target="_top" xlink:title=" ">
<polygon fill="white" stroke="black" points="2718,-73 2718,-92 2904,-92 2904,-73 2718,-73"/>
<text text-anchor="middle" x="2811" y="-80" font-family="Helvetica,sans-Serif" font-size="10.00">src/libs/vlayout/vabstractpiece.cpp</text>
</a>
</g>
</g>
<!-- Node18&#45;&gt;Node31 -->
<g id="edge29" class="edge">
<title>Node18&#45;&gt;Node31</title>
<path fill="none" stroke="midnightblue" d="M3378.04,-144.87C3262.73,-134.78 3074.72,-117.39 2913,-98 2898.35,-96.24 2882.55,-94.11 2867.86,-92.03"/>
<polygon fill="midnightblue" stroke="midnightblue" points="3378.01,-148.38 3388.27,-145.76 3378.62,-141.41 3378.01,-148.38"/>
</g>
<!-- Node32 -->
<g id="node27" class="node">
<title>Node32</title>
<g id="a_node27"><a xlink:href="../../db/d65/dialogexporttocsv_8cpp.html" target="_top" xlink:title=" ">
<polygon fill="white" stroke="black" points="2922.5,-67.5 2922.5,-97.5 3049.5,-97.5 3049.5,-67.5 2922.5,-67.5"/>
<text text-anchor="start" x="2930.5" y="-85.5" font-family="Helvetica,sans-Serif" font-size="10.00">src/libs/vmisc/dialogs</text>
<text text-anchor="middle" x="2986" y="-74.5" font-family="Helvetica,sans-Serif" font-size="10.00">/dialogexporttocsv.cpp</text>
</a>
</g>
</g>
<!-- Node18&#45;&gt;Node32 -->
<g id="edge32" class="edge">
<title>Node18&#45;&gt;Node32</title>
<path fill="none" stroke="midnightblue" d="M3399.39,-144.33C3312.95,-134.29 3176.44,-117.34 3059,-98 3055.94,-97.5 3052.81,-96.96 3049.66,-96.4"/>
<polygon fill="midnightblue" stroke="midnightblue" points="3399.08,-147.82 3409.41,-145.49 3399.88,-140.87 3399.08,-147.82"/>
</g>
<!-- Node33 -->
<g id="node28" class="node">
<title>Node33</title>
<g id="a_node28"><a xlink:href="../../d6/d0b/def_8cpp.html" target="_top" xlink:title=" ">
<polygon fill="white" stroke="black" points="3068,-73 3068,-92 3190,-92 3190,-73 3068,-73"/>
<text text-anchor="middle" x="3129" y="-80" font-family="Helvetica,sans-Serif" font-size="10.00">src/libs/vmisc/def.cpp</text>
</a>
</g>
</g>
<!-- Node18&#45;&gt;Node33 -->
<g id="edge33" class="edge">
<title>Node18&#45;&gt;Node33</title>
<path fill="none" stroke="midnightblue" d="M3431.22,-143.51C3373.44,-132.39 3279.75,-114.24 3199,-98 3189.51,-96.09 3179.3,-94 3169.7,-92.01"/>
<polygon fill="midnightblue" stroke="midnightblue" points="3430.75,-146.98 3441.23,-145.43 3432.07,-140.11 3430.75,-146.98"/>
</g>
<!-- Node34 -->
<g id="node29" class="node">
<title>Node34</title>
<g id="a_node29"><a xlink:href="../../d0/df6/vabstractapplication_8cpp.html" target="_top" xlink:title=" ">
<polygon fill="white" stroke="black" points="3208,-73 3208,-92 3414,-92 3414,-73 3208,-73"/>
<text text-anchor="middle" x="3311" y="-80" font-family="Helvetica,sans-Serif" font-size="10.00">src/libs/vmisc/vabstractapplication.cpp</text>
</a>
</g>
</g>
<!-- Node18&#45;&gt;Node34 -->
<g id="edge34" class="edge">
<title>Node18&#45;&gt;Node34</title>
<path fill="none" stroke="midnightblue" d="M3455.56,-141.74C3420.25,-127.51 3362.97,-104.44 3332.18,-92.03"/>
<polygon fill="midnightblue" stroke="midnightblue" points="3454.31,-145.01 3464.89,-145.5 3456.92,-138.51 3454.31,-145.01"/>
</g>
<!-- Node35 -->
<g id="node30" class="node">
<title>Node35</title>
<g id="a_node30"><a xlink:href="../../d4/d4f/pmsystems_8cpp.html" target="_top" xlink:title=" ">
<polygon fill="white" stroke="black" points="3432.5,-67.5 3432.5,-97.5 3539.5,-97.5 3539.5,-67.5 3432.5,-67.5"/>
<text text-anchor="start" x="3440.5" y="-85.5" font-family="Helvetica,sans-Serif" font-size="10.00">src/libs/vpatterndb</text>
<text text-anchor="middle" x="3486" y="-74.5" font-family="Helvetica,sans-Serif" font-size="10.00">/pmsystems.cpp</text>
</a>
</g>
</g>
<!-- Node18&#45;&gt;Node35 -->
<g id="edge35" class="edge">
<title>Node18&#45;&gt;Node35</title>
<path fill="none" stroke="midnightblue" d="M3486,-135.24C3486,-123.41 3486,-108.38 3486,-97.58"/>
<polygon fill="midnightblue" stroke="midnightblue" points="3482.5,-135.36 3486,-145.36 3489.5,-135.36 3482.5,-135.36"/>
</g>
<!-- Node18&#45;&gt;Node36 -->
<g id="edge36" class="edge">
<title>Node18&#45;&gt;Node36</title>
<path fill="none" stroke="midnightblue" d="M3593.71,-153.33C3923.07,-150.86 4913.73,-140.03 5233,-98 5235.74,-97.64 5238.54,-97.21 5241.35,-96.73"/>
<polygon fill="midnightblue" stroke="midnightblue" points="3593.66,-149.83 3583.69,-153.41 3593.71,-156.83 3593.66,-149.83"/>
</g>
<!-- Node18&#45;&gt;Node37 -->
<g id="edge37" class="edge">
<title>Node18&#45;&gt;Node37</title>
<path fill="none" stroke="midnightblue" d="M3593.86,-153.6C3938.92,-151.89 5013.38,-142.99 5358,-98 5360.74,-97.64 5363.54,-97.22 5366.35,-96.74"/>
<polygon fill="midnightblue" stroke="midnightblue" points="3593.6,-150.11 3583.61,-153.65 3593.63,-157.11 3593.6,-150.11"/>
</g>
<!-- Node38 -->
<g id="node33" class="node">
<title>Node38</title>
<g id="a_node33"><a xlink:href="../../df/dba/vpiecenode__p_8h.html" target="_top" xlink:title=" ">
<polygon fill="white" stroke="black" points="3557.5,-67.5 3557.5,-97.5 3664.5,-97.5 3664.5,-67.5 3557.5,-67.5"/>
<text text-anchor="start" x="3565.5" y="-85.5" font-family="Helvetica,sans-Serif" font-size="10.00">src/libs/vpatterndb</text>
<text text-anchor="middle" x="3611" y="-74.5" font-family="Helvetica,sans-Serif" font-size="10.00">/vpiecenode_p.h</text>
</a>
</g>
</g>
<!-- Node18&#45;&gt;Node38 -->
<g id="edge38" class="edge">
<title>Node18&#45;&gt;Node38</title>
<path fill="none" stroke="midnightblue" d="M3510.29,-140.3C3532.11,-127.99 3564.02,-110 3586.04,-97.58"/>
<polygon fill="midnightblue" stroke="midnightblue" points="3508.32,-137.39 3501.33,-145.36 3511.76,-143.49 3508.32,-137.39"/>
</g>
<!-- Node18&#45;&gt;Node40 -->
<g id="edge40" class="edge">
<title>Node18&#45;&gt;Node40</title>
<path fill="none" stroke="midnightblue" d="M3593.76,-152.61C3953.49,-147.71 5111.19,-129.8 5483,-98 5498.44,-96.68 5515.13,-94.57 5530.4,-92.36"/>
<polygon fill="midnightblue" stroke="midnightblue" points="3593.56,-149.11 3583.61,-152.75 3593.66,-156.11 3593.56,-149.11"/>
</g>
<!-- Node41 -->
<g id="node36" class="node">
<title>Node41</title>
<g id="a_node36"><a xlink:href="../../de/d3e/vtranslatevars_8cpp.html" target="_top" xlink:title=" ">
<polygon fill="white" stroke="black" points="3683,-67.5 3683,-97.5 3793,-97.5 3793,-67.5 3683,-67.5"/>
<text text-anchor="start" x="3691" y="-85.5" font-family="Helvetica,sans-Serif" font-size="10.00">src/libs/vpatterndb</text>
<text text-anchor="middle" x="3738" y="-74.5" font-family="Helvetica,sans-Serif" font-size="10.00">/vtranslatevars.cpp</text>
</a>
</g>
</g>
<!-- Node18&#45;&gt;Node41 -->
<g id="edge41" class="edge">
<title>Node18&#45;&gt;Node41</title>
<path fill="none" stroke="midnightblue" d="M3526.15,-142.77C3570.05,-130.49 3640.46,-110.79 3687.94,-97.51"/>
<polygon fill="midnightblue" stroke="midnightblue" points="3525.08,-139.43 3516.4,-145.5 3526.97,-146.17 3525.08,-139.43"/>
</g>
<!-- Node42 -->
<g id="node37" class="node">
<title>Node42</title>
<g id="a_node37"><a xlink:href="../../df/d40/export__format__combobox_8cpp.html" target="_top" xlink:title=" ">
<polygon fill="white" stroke="black" points="3811.5,-67.5 3811.5,-97.5 3944.5,-97.5 3944.5,-67.5 3811.5,-67.5"/>
<text text-anchor="start" x="3819.5" y="-85.5" font-family="Helvetica,sans-Serif" font-size="10.00">src/libs/vwidgets/export</text>
<text text-anchor="middle" x="3878" y="-74.5" font-family="Helvetica,sans-Serif" font-size="10.00">_format_combobox.cpp</text>
</a>
</g>
</g>
<!-- Node18&#45;&gt;Node42 -->
<g id="edge42" class="edge">
<title>Node18&#45;&gt;Node42</title>
<path fill="none" stroke="midnightblue" d="M3545.53,-143.69C3609.08,-132.63 3712.72,-114.43 3802,-98 3805.04,-97.44 3808.14,-96.87 3811.28,-96.28"/>
<polygon fill="midnightblue" stroke="midnightblue" points="3544.55,-140.31 3535.3,-145.47 3545.75,-147.2 3544.55,-140.31"/>
</g>
<!-- Node43 -->
<g id="node38" class="node">
<title>Node43</title>
<g id="a_node38"><a xlink:href="../../d3/d4f/mouse__coordinates_8cpp.html" target="_top" xlink:title=" ">
<polygon fill="white" stroke="black" points="3963,-67.5 3963,-97.5 4097,-97.5 4097,-67.5 3963,-67.5"/>
<text text-anchor="start" x="3971" y="-85.5" font-family="Helvetica,sans-Serif" font-size="10.00">src/libs/vwidgets/mouse</text>
<text text-anchor="middle" x="4030" y="-74.5" font-family="Helvetica,sans-Serif" font-size="10.00">_coordinates.cpp</text>
</a>
</g>
</g>
<!-- Node18&#45;&gt;Node43 -->
<g id="edge43" class="edge">
<title>Node18&#45;&gt;Node43</title>
<path fill="none" stroke="midnightblue" d="M3581.57,-144.43C3676.14,-134.51 3824.91,-117.72 3953,-98 3956.23,-97.5 3959.53,-96.97 3962.85,-96.42"/>
<polygon fill="midnightblue" stroke="midnightblue" points="3581.03,-140.96 3571.45,-145.48 3581.76,-147.93 3581.03,-140.96"/>
</g>
<!-- Node44 -->
<g id="node39" class="node">
<title>Node44</title>
<g id="a_node39"><a xlink:href="../../d2/d28/page__format__combobox_8cpp.html" target="_top" xlink:title=" ">
<polygon fill="white" stroke="black" points="4115.5,-67.5 4115.5,-97.5 4246.5,-97.5 4246.5,-67.5 4115.5,-67.5"/>
<text text-anchor="start" x="4123.5" y="-85.5" font-family="Helvetica,sans-Serif" font-size="10.00">src/libs/vwidgets/page</text>
<text text-anchor="middle" x="4181" y="-74.5" font-family="Helvetica,sans-Serif" font-size="10.00">_format_combobox.cpp</text>
</a>
</g>
</g>
<!-- Node18&#45;&gt;Node44 -->
<g id="edge44" class="edge">
<title>Node18&#45;&gt;Node44</title>
<path fill="none" stroke="midnightblue" d="M3593.79,-147.58C3717.76,-139.42 3927.23,-123.29 4106,-98 4109.02,-97.57 4112.1,-97.11 4115.21,-96.61"/>
<polygon fill="midnightblue" stroke="midnightblue" points="3593.29,-144.1 3583.54,-148.24 3593.74,-151.09 3593.29,-144.1"/>
</g>
<!-- Node45 -->
<g id="node40" class="node">
<title>Node45</title>
<g id="a_node40"><a xlink:href="../../d7/d1b/pen__toolbar_8cpp.html" target="_top" xlink:title=" ">
<polygon fill="white" stroke="black" points="4264.5,-67.5 4264.5,-97.5 4383.5,-97.5 4383.5,-67.5 4264.5,-67.5"/>
<text text-anchor="start" x="4272.5" y="-85.5" font-family="Helvetica,sans-Serif" font-size="10.00">src/libs/vwidgets/pen</text>
<text text-anchor="middle" x="4324" y="-74.5" font-family="Helvetica,sans-Serif" font-size="10.00">_toolbar.cpp</text>
</a>
</g>
</g>
<!-- Node18&#45;&gt;Node45 -->
<g id="edge45" class="edge">
<title>Node18&#45;&gt;Node45</title>
<path fill="none" stroke="midnightblue" d="M3593.64,-150.73C3742.79,-145.15 4020.47,-131.03 4255,-98 4258.03,-97.57 4261.13,-97.09 4264.25,-96.57"/>
<polygon fill="midnightblue" stroke="midnightblue" points="3593.42,-147.23 3583.56,-151.1 3593.68,-154.23 3593.42,-147.23"/>
</g>
<!-- Node46 -->
<g id="node41" class="node">
<title>Node46</title>
<g id="a_node41"><a xlink:href="../../d8/d76/scene__rect_8cpp.html" target="_top" xlink:title=" ">
<polygon fill="white" stroke="black" points="4402,-67.5 4402,-97.5 4532,-97.5 4532,-67.5 4402,-67.5"/>
<text text-anchor="start" x="4410" y="-85.5" font-family="Helvetica,sans-Serif" font-size="10.00">src/libs/vwidgets/scene</text>
<text text-anchor="middle" x="4467" y="-74.5" font-family="Helvetica,sans-Serif" font-size="10.00">_rect.cpp</text>
</a>
</g>
</g>
<!-- Node18&#45;&gt;Node46 -->
<g id="edge46" class="edge">
<title>Node18&#45;&gt;Node46</title>
<path fill="none" stroke="midnightblue" d="M3593.81,-151.84C3764.01,-147.41 4105.12,-134.44 4392,-98 4395.16,-97.6 4398.38,-97.15 4401.63,-96.65"/>
<polygon fill="midnightblue" stroke="midnightblue" points="3593.5,-148.34 3583.59,-152.1 3593.68,-155.34 3593.5,-148.34"/>
</g>
<!-- Node47 -->
<g id="node42" class="node">
<title>Node47</title>
<g id="a_node42"><a xlink:href="../../dd/df6/vabstractmainwindow_8cpp.html" target="_top" xlink:title=" ">
<polygon fill="white" stroke="black" points="4550.5,-73 4550.5,-92 4779.5,-92 4779.5,-73 4550.5,-73"/>
<text text-anchor="middle" x="4665" y="-80" font-family="Helvetica,sans-Serif" font-size="10.00">src/libs/vwidgets/vabstractmainwindow.cpp</text>
</a>
</g>
</g>
<!-- Node18&#45;&gt;Node47 -->
<g id="edge47" class="edge">
<title>Node18&#45;&gt;Node47</title>
<path fill="none" stroke="midnightblue" d="M3593.63,-150.54C3784.65,-143.9 4195.37,-127.35 4541,-98 4559.79,-96.4 4580.13,-94.22 4598.8,-92.03"/>
<polygon fill="midnightblue" stroke="midnightblue" points="3593.47,-147.04 3583.59,-150.89 3593.71,-154.04 3593.47,-147.04"/>
</g>
<!-- Node48 -->
<g id="node43" class="node">
<title>Node48</title>
<g id="a_node43"><a xlink:href="../../de/d45/vcontrolpointspline_8cpp.html" target="_top" xlink:title=" ">
<polygon fill="white" stroke="black" points="4797.5,-73 4797.5,-92 5012.5,-92 5012.5,-73 4797.5,-73"/>
<text text-anchor="middle" x="4905" y="-80" font-family="Helvetica,sans-Serif" font-size="10.00">src/libs/vwidgets/vcontrolpointspline.cpp</text>
</a>
</g>
</g>
<!-- Node18&#45;&gt;Node48 -->
<g id="edge48" class="edge">
<title>Node18&#45;&gt;Node48</title>
<path fill="none" stroke="midnightblue" d="M3593.92,-152.33C3817.31,-148.22 4346.51,-135.1 4789,-98 4807,-96.49 4826.5,-94.28 4844.29,-92.03"/>
<polygon fill="midnightblue" stroke="midnightblue" points="3593.77,-148.83 3583.84,-152.51 3593.9,-155.83 3593.77,-148.83"/>
</g>
<!-- Node49 -->
<g id="node44" class="node">
<title>Node49</title>
<g id="a_node44"><a xlink:href="../../d1/d90/vgrainlineitem_8cpp.html" target="_top" xlink:title=" ">
<polygon fill="white" stroke="black" points="5030.5,-73 5030.5,-92 5223.5,-92 5223.5,-73 5030.5,-73"/>
<text text-anchor="middle" x="5127" y="-80" font-family="Helvetica,sans-Serif" font-size="10.00">src/libs/vwidgets/vgrainlineitem.cpp</text>
</a>
</g>
</g>
<!-- Node18&#45;&gt;Node49 -->
<g id="edge49" class="edge">
<title>Node18&#45;&gt;Node49</title>
<path fill="none" stroke="midnightblue" d="M3593.91,-153.8C3844.94,-152.52 4487.43,-144.54 5022,-98 5038.59,-96.56 5056.57,-94.32 5072.89,-92.03"/>
<polygon fill="midnightblue" stroke="midnightblue" points="3593.68,-150.3 3583.7,-153.85 3593.72,-157.3 3593.68,-150.3"/>
</g>
<!-- Node27&#45;&gt;Node28 -->
<g id="edge26" class="edge">
<title>Node27&#45;&gt;Node28</title>
<path fill="none" stroke="midnightblue" d="M2506.72,-58.87C2500.79,-49.46 2494.09,-38.83 2488.88,-30.58"/>
<polygon fill="midnightblue" stroke="midnightblue" points="2503.81,-60.81 2512.1,-67.4 2509.73,-57.07 2503.81,-60.81"/>
</g>
<!-- Node38&#45;&gt;Node39 -->
<g id="edge39" class="edge">
<title>Node38&#45;&gt;Node39</title>
<path fill="none" stroke="midnightblue" d="M3674.87,-67.07C3993.76,-22.42 4366.01,-16.9 4502.5,-16.43"/>
<polygon fill="midnightblue" stroke="midnightblue" points="3673.91,-63.67 3664.5,-68.54 3674.89,-70.6 3673.91,-63.67"/>
</g>
</g>
</svg>
