<?xml version="1.0" encoding="UTF-8" standalone="no"?>
<!DOCTYPE svg PUBLIC "-//W3C//DTD SVG 1.1//EN"
 "http://www.w3.org/Graphics/SVG/1.1/DTD/svg11.dtd">
<!-- Generated by graphviz version 2.43.0 (0)
 -->
<!-- Title: src/app/seamly2d/core/vapplication.h Pages: 1 -->
<svg width="4019pt" height="106pt"
 viewBox="0.00 0.00 4019.00 106.00" xmlns="http://www.w3.org/2000/svg" xmlns:xlink="http://www.w3.org/1999/xlink">
<g id="graph0" class="graph" transform="scale(1 1) rotate(0) translate(4 102)">
<title>src/app/seamly2d/core/vapplication.h</title>
<polygon fill="white" stroke="transparent" points="-4,4 -4,-102 4015,-102 4015,4 -4,4"/>
<!-- Node1 -->
<g id="node1" class="node">
<title>Node1</title>
<g id="a_node1"><a xlink:title=" ">
<polygon fill="#bfbfbf" stroke="black" points="2065,-67.5 2065,-97.5 2192,-97.5 2192,-67.5 2065,-67.5"/>
<text text-anchor="start" x="2073" y="-85.5" font-family="Helvetica,sans-Serif" font-size="10.00">src/app/seamly2d/core</text>
<text text-anchor="middle" x="2128.5" y="-74.5" font-family="Helvetica,sans-Serif" font-size="10.00">/vapplication.h</text>
</a>
</g>
</g>
<!-- Node2 -->
<g id="node2" class="node">
<title>Node2</title>
<g id="a_node2"><a xlink:href="../../d3/dd8/vapplication_8cpp.html" target="_top" xlink:title=" ">
<polygon fill="white" stroke="black" points="0,-0.5 0,-30.5 127,-30.5 127,-0.5 0,-0.5"/>
<text text-anchor="start" x="8" y="-18.5" font-family="Helvetica,sans-Serif" font-size="10.00">src/app/seamly2d/core</text>
<text text-anchor="middle" x="63.5" y="-7.5" font-family="Helvetica,sans-Serif" font-size="10.00">/vapplication.cpp</text>
</a>
</g>
</g>
<!-- Node1&#45;&gt;Node2 -->
<g id="edge1" class="edge">
<title>Node1&#45;&gt;Node2</title>
<path fill="none" stroke="midnightblue" d="M2054.63,-81.32C1741.08,-80.28 518.96,-73.52 136.5,-31 133.42,-30.66 130.27,-30.25 127.1,-29.8"/>
<polygon fill="midnightblue" stroke="midnightblue" points="2054.95,-84.82 2064.96,-81.35 2054.97,-77.82 2054.95,-84.82"/>
</g>
<!-- Node3 -->
<g id="node3" class="node">
<title>Node3</title>
<g id="a_node3"><a xlink:href="../../dd/db4/abstractlayout__dialog_8cpp.html" target="_top" xlink:title=" ">
<polygon fill="white" stroke="black" points="145.5,-0.5 145.5,-30.5 291.5,-30.5 291.5,-0.5 145.5,-0.5"/>
<text text-anchor="start" x="153.5" y="-18.5" font-family="Helvetica,sans-Serif" font-size="10.00">src/app/seamly2d/dialogs</text>
<text text-anchor="middle" x="218.5" y="-7.5" font-family="Helvetica,sans-Serif" font-size="10.00">/abstractlayout_dialog.cpp</text>
</a>
</g>
</g>
<!-- Node1&#45;&gt;Node3 -->
<g id="edge2" class="edge">
<title>Node1&#45;&gt;Node3</title>
<path fill="none" stroke="midnightblue" d="M2054.43,-80.91C1757.06,-78.33 649.33,-66.46 300.5,-31 297.62,-30.71 294.7,-30.37 291.74,-30"/>
<polygon fill="midnightblue" stroke="midnightblue" points="2054.63,-84.41 2064.66,-81 2054.69,-77.41 2054.63,-84.41"/>
</g>
<!-- Node4 -->
<g id="node4" class="node">
<title>Node4</title>
<g id="a_node4"><a xlink:href="../../d2/d2d/preferencesconfigurationpage_8cpp.html" target="_top" xlink:title=" ">
<polygon fill="white" stroke="black" points="310,-0.5 310,-30.5 557,-30.5 557,-0.5 310,-0.5"/>
<text text-anchor="start" x="318" y="-18.5" font-family="Helvetica,sans-Serif" font-size="10.00">src/app/seamly2d/dialogs</text>
<text text-anchor="middle" x="433.5" y="-7.5" font-family="Helvetica,sans-Serif" font-size="10.00">/configpages/preferencesconfigurationpage.cpp</text>
</a>
</g>
</g>
<!-- Node1&#45;&gt;Node4 -->
<g id="edge3" class="edge">
<title>Node1&#45;&gt;Node4</title>
<path fill="none" stroke="midnightblue" d="M2054.48,-81.11C1830.17,-79.5 1138.3,-71.35 566.5,-31 563.37,-30.78 560.2,-30.54 557.01,-30.29"/>
<polygon fill="midnightblue" stroke="midnightblue" points="2054.78,-84.61 2064.8,-81.18 2054.83,-77.61 2054.78,-84.61"/>
</g>
<!-- Node5 -->
<g id="node5" class="node">
<title>Node5</title>
<g id="a_node5"><a xlink:href="../../d9/d70/preferencesgraphicsviewpage_8cpp.html" target="_top" xlink:title=" ">
<polygon fill="white" stroke="black" points="575.5,-0.5 575.5,-30.5 823.5,-30.5 823.5,-0.5 575.5,-0.5"/>
<text text-anchor="start" x="583.5" y="-18.5" font-family="Helvetica,sans-Serif" font-size="10.00">src/app/seamly2d/dialogs</text>
<text text-anchor="middle" x="699.5" y="-7.5" font-family="Helvetica,sans-Serif" font-size="10.00">/configpages/preferencesgraphicsviewpage.cpp</text>
</a>
</g>
</g>
<!-- Node1&#45;&gt;Node5 -->
<g id="edge4" class="edge">
<title>Node1&#45;&gt;Node5</title>
<path fill="none" stroke="midnightblue" d="M2054.69,-80.42C1856.61,-77.14 1296.84,-65.32 832.5,-31 829.6,-30.79 826.67,-30.56 823.72,-30.32"/>
<polygon fill="midnightblue" stroke="midnightblue" points="2054.64,-83.92 2064.69,-80.59 2054.75,-76.92 2054.64,-83.92"/>
</g>
<!-- Node6 -->
<g id="node6" class="node">
<title>Node6</title>
<g id="a_node6"><a xlink:href="../../d2/d00/vtooloptionspropertybrowser_8cpp.html" target="_top" xlink:title=" ">
<polygon fill="white" stroke="black" points="841.5,-0.5 841.5,-30.5 1021.5,-30.5 1021.5,-0.5 841.5,-0.5"/>
<text text-anchor="start" x="849.5" y="-18.5" font-family="Helvetica,sans-Serif" font-size="10.00">src/app/seamly2d/core</text>
<text text-anchor="middle" x="931.5" y="-7.5" font-family="Helvetica,sans-Serif" font-size="10.00">/vtooloptionspropertybrowser.cpp</text>
</a>
</g>
</g>
<!-- Node1&#45;&gt;Node6 -->
<g id="edge5" class="edge">
<title>Node1&#45;&gt;Node6</title>
<path fill="none" stroke="midnightblue" d="M2054.67,-80.64C1877.59,-78.02 1414.86,-67.89 1030.5,-31 1027.56,-30.72 1024.57,-30.41 1021.56,-30.08"/>
<polygon fill="midnightblue" stroke="midnightblue" points="2054.86,-84.14 2064.91,-80.78 2054.96,-77.14 2054.86,-84.14"/>
</g>
<!-- Node7 -->
<g id="node7" class="node">
<title>Node7</title>
<g id="a_node7"><a xlink:href="../../dc/d20/preferencespathpage_8cpp.html" target="_top" xlink:title=" ">
<polygon fill="white" stroke="black" points="1040,-0.5 1040,-30.5 1245,-30.5 1245,-0.5 1040,-0.5"/>
<text text-anchor="start" x="1048" y="-18.5" font-family="Helvetica,sans-Serif" font-size="10.00">src/app/seamly2d/dialogs</text>
<text text-anchor="middle" x="1142.5" y="-7.5" font-family="Helvetica,sans-Serif" font-size="10.00">/configpages/preferencespathpage.cpp</text>
</a>
</g>
</g>
<!-- Node1&#45;&gt;Node7 -->
<g id="edge6" class="edge">
<title>Node1&#45;&gt;Node7</title>
<path fill="none" stroke="midnightblue" d="M2054.72,-79.01C1904.08,-73.53 1550.36,-58.66 1254.5,-31 1251.38,-30.71 1248.21,-30.4 1245.01,-30.07"/>
<polygon fill="midnightblue" stroke="midnightblue" points="2054.66,-82.51 2064.78,-79.37 2054.91,-75.51 2054.66,-82.51"/>
</g>
<!-- Node8 -->
<g id="node8" class="node">
<title>Node8</title>
<g id="a_node8"><a xlink:href="../../dc/d63/preferencespatternpage_8cpp.html" target="_top" xlink:title=" ">
<polygon fill="white" stroke="black" points="1263.5,-0.5 1263.5,-30.5 1481.5,-30.5 1481.5,-0.5 1263.5,-0.5"/>
<text text-anchor="start" x="1271.5" y="-18.5" font-family="Helvetica,sans-Serif" font-size="10.00">src/app/seamly2d/dialogs</text>
<text text-anchor="middle" x="1372.5" y="-7.5" font-family="Helvetica,sans-Serif" font-size="10.00">/configpages/preferencespatternpage.cpp</text>
</a>
</g>
</g>
<!-- Node1&#45;&gt;Node8 -->
<g id="edge7" class="edge">
<title>Node1&#45;&gt;Node8</title>
<path fill="none" stroke="midnightblue" d="M2054.49,-76.69C1935.49,-68.71 1694.32,-51.58 1490.5,-31 1487.62,-30.71 1484.71,-30.41 1481.77,-30.1"/>
<polygon fill="midnightblue" stroke="midnightblue" points="2054.37,-80.19 2064.58,-77.36 2054.83,-73.2 2054.37,-80.19"/>
</g>
<!-- Node9 -->
<g id="node9" class="node">
<title>Node9</title>
<g id="a_node9"><a xlink:href="../../dd/dc2/decimalchart__dialog_8cpp.html" target="_top" xlink:title=" ">
<polygon fill="white" stroke="black" points="1500,-0.5 1500,-30.5 1641,-30.5 1641,-0.5 1500,-0.5"/>
<text text-anchor="start" x="1508" y="-18.5" font-family="Helvetica,sans-Serif" font-size="10.00">src/app/seamly2d/dialogs</text>
<text text-anchor="middle" x="1570.5" y="-7.5" font-family="Helvetica,sans-Serif" font-size="10.00">/decimalchart_dialog.cpp</text>
</a>
</g>
</g>
<!-- Node1&#45;&gt;Node9 -->
<g id="edge8" class="edge">
<title>Node1&#45;&gt;Node9</title>
<path fill="none" stroke="midnightblue" d="M2054.77,-75.49C1960.52,-67.4 1792.44,-51.62 1649.5,-31 1646.74,-30.6 1643.93,-30.18 1641.09,-29.73"/>
<polygon fill="midnightblue" stroke="midnightblue" points="2054.51,-78.98 2064.77,-76.34 2055.11,-72.01 2054.51,-78.98"/>
</g>
<!-- Node10 -->
<g id="node10" class="node">
<title>Node10</title>
<g id="a_node10"><a xlink:href="../../dd/d64/dialogaboutapp_8cpp.html" target="_top" xlink:title=" ">
<polygon fill="white" stroke="black" points="1659,-0.5 1659,-30.5 1800,-30.5 1800,-0.5 1659,-0.5"/>
<text text-anchor="start" x="1667" y="-18.5" font-family="Helvetica,sans-Serif" font-size="10.00">src/app/seamly2d/dialogs</text>
<text text-anchor="middle" x="1729.5" y="-7.5" font-family="Helvetica,sans-Serif" font-size="10.00">/dialogaboutapp.cpp</text>
</a>
</g>
</g>
<!-- Node1&#45;&gt;Node10 -->
<g id="edge9" class="edge">
<title>Node1&#45;&gt;Node10</title>
<path fill="none" stroke="midnightblue" d="M2054.84,-70.41C1989.93,-60.51 1892.83,-45.39 1808.5,-31 1805.75,-30.53 1802.95,-30.05 1800.12,-29.55"/>
<polygon fill="midnightblue" stroke="midnightblue" points="2054.56,-73.91 2064.98,-71.95 2055.62,-66.99 2054.56,-73.91"/>
</g>
<!-- Node11 -->
<g id="node11" class="node">
<title>Node11</title>
<g id="a_node11"><a xlink:href="../../d7/dfa/calculator__dialog_8cpp.html" target="_top" xlink:title=" ">
<polygon fill="white" stroke="black" points="1818,-0.5 1818,-30.5 1959,-30.5 1959,-0.5 1818,-0.5"/>
<text text-anchor="start" x="1826" y="-18.5" font-family="Helvetica,sans-Serif" font-size="10.00">src/app/seamly2d/dialogs</text>
<text text-anchor="middle" x="1888.5" y="-7.5" font-family="Helvetica,sans-Serif" font-size="10.00">/calculator_dialog.cpp</text>
</a>
</g>
</g>
<!-- Node1&#45;&gt;Node11 -->
<g id="edge10" class="edge">
<title>Node1&#45;&gt;Node11</title>
<path fill="none" stroke="midnightblue" d="M2067.02,-64.85C2027.89,-54.25 1977.77,-40.68 1940.6,-30.61"/>
<polygon fill="midnightblue" stroke="midnightblue" points="2066.15,-68.24 2076.72,-67.48 2067.98,-61.48 2066.15,-68.24"/>
</g>
<!-- Node12 -->
<g id="node12" class="node">
<title>Node12</title>
<g id="a_node12"><a xlink:href="../../d6/d89/dialoglayoutprogress_8cpp.html" target="_top" xlink:title=" ">
<polygon fill="white" stroke="black" points="1977,-0.5 1977,-30.5 2120,-30.5 2120,-0.5 1977,-0.5"/>
<text text-anchor="start" x="1985" y="-18.5" font-family="Helvetica,sans-Serif" font-size="10.00">src/app/seamly2d/dialogs</text>
<text text-anchor="middle" x="2048.5" y="-7.5" font-family="Helvetica,sans-Serif" font-size="10.00">/dialoglayoutprogress.cpp</text>
</a>
</g>
</g>
<!-- Node1&#45;&gt;Node12 -->
<g id="edge11" class="edge">
<title>Node1&#45;&gt;Node12</title>
<path fill="none" stroke="midnightblue" d="M2103.13,-60.88C2090.97,-51.01 2076.72,-39.43 2065.82,-30.58"/>
<polygon fill="midnightblue" stroke="midnightblue" points="2101.17,-63.81 2111.14,-67.4 2105.59,-58.37 2101.17,-63.81"/>
</g>
<!-- Node13 -->
<g id="node13" class="node">
<title>Node13</title>
<g id="a_node13"><a xlink:href="../../d5/dc5/dialogpreferences_8cpp.html" target="_top" xlink:title=" ">
<polygon fill="white" stroke="black" points="2138,-0.5 2138,-30.5 2279,-30.5 2279,-0.5 2138,-0.5"/>
<text text-anchor="start" x="2146" y="-18.5" font-family="Helvetica,sans-Serif" font-size="10.00">src/app/seamly2d/dialogs</text>
<text text-anchor="middle" x="2208.5" y="-7.5" font-family="Helvetica,sans-Serif" font-size="10.00">/dialogpreferences.cpp</text>
</a>
</g>
</g>
<!-- Node1&#45;&gt;Node13 -->
<g id="edge12" class="edge">
<title>Node1&#45;&gt;Node13</title>
<path fill="none" stroke="midnightblue" d="M2153.87,-60.88C2166.03,-51.01 2180.28,-39.43 2191.18,-30.58"/>
<polygon fill="midnightblue" stroke="midnightblue" points="2151.41,-58.37 2145.86,-67.4 2155.83,-63.81 2151.41,-58.37"/>
</g>
<!-- Node14 -->
<g id="node14" class="node">
<title>Node14</title>
<g id="a_node14"><a xlink:href="../../d5/d18/dialogpatternproperties_8cpp.html" target="_top" xlink:title=" ">
<polygon fill="white" stroke="black" points="2297,-0.5 2297,-30.5 2452,-30.5 2452,-0.5 2297,-0.5"/>
<text text-anchor="start" x="2305" y="-18.5" font-family="Helvetica,sans-Serif" font-size="10.00">src/app/seamly2d/dialogs</text>
<text text-anchor="middle" x="2374.5" y="-7.5" font-family="Helvetica,sans-Serif" font-size="10.00">/dialogpatternproperties.cpp</text>
</a>
</g>
</g>
<!-- Node1&#45;&gt;Node14 -->
<g id="edge13" class="edge">
<title>Node1&#45;&gt;Node14</title>
<path fill="none" stroke="midnightblue" d="M2191.26,-64.92C2231.4,-54.31 2282.92,-40.7 2321.1,-30.61"/>
<polygon fill="midnightblue" stroke="midnightblue" points="2190.35,-61.54 2181.58,-67.48 2192.14,-68.31 2190.35,-61.54"/>
</g>
<!-- Node15 -->
<g id="node15" class="node">
<title>Node15</title>
<g id="a_node15"><a xlink:href="../../dd/d54/export__layout__dialog_8cpp.html" target="_top" xlink:title=" ">
<polygon fill="white" stroke="black" points="2470,-0.5 2470,-30.5 2613,-30.5 2613,-0.5 2470,-0.5"/>
<text text-anchor="start" x="2478" y="-18.5" font-family="Helvetica,sans-Serif" font-size="10.00">src/app/seamly2d/dialogs</text>
<text text-anchor="middle" x="2541.5" y="-7.5" font-family="Helvetica,sans-Serif" font-size="10.00">/export_layout_dialog.cpp</text>
</a>
</g>
</g>
<!-- Node1&#45;&gt;Node15 -->
<g id="edge14" class="edge">
<title>Node1&#45;&gt;Node15</title>
<path fill="none" stroke="midnightblue" d="M2202.23,-70.94C2269.77,-61.12 2372.48,-45.81 2461.5,-31 2464.28,-30.54 2467.12,-30.06 2469.99,-29.57"/>
<polygon fill="midnightblue" stroke="midnightblue" points="2201.51,-67.51 2192.11,-72.41 2202.51,-74.44 2201.51,-67.51"/>
</g>
<!-- Node16 -->
<g id="node16" class="node">
<title>Node16</title>
<g id="a_node16"><a xlink:href="../../db/d5c/groups__widget_8cpp.html" target="_top" xlink:title=" ">
<polygon fill="white" stroke="black" points="2631,-0.5 2631,-30.5 2772,-30.5 2772,-0.5 2631,-0.5"/>
<text text-anchor="start" x="2639" y="-18.5" font-family="Helvetica,sans-Serif" font-size="10.00">src/app/seamly2d/dialogs</text>
<text text-anchor="middle" x="2701.5" y="-7.5" font-family="Helvetica,sans-Serif" font-size="10.00">/groups_widget.cpp</text>
</a>
</g>
</g>
<!-- Node1&#45;&gt;Node16 -->
<g id="edge15" class="edge">
<title>Node1&#45;&gt;Node16</title>
<path fill="none" stroke="midnightblue" d="M2202.23,-75.81C2298.97,-67.92 2473.92,-52.2 2622.5,-31 2625.26,-30.61 2628.07,-30.19 2630.91,-29.74"/>
<polygon fill="midnightblue" stroke="midnightblue" points="2201.94,-72.32 2192.25,-76.62 2202.5,-79.3 2201.94,-72.32"/>
</g>
<!-- Node17 -->
<g id="node17" class="node">
<title>Node17</title>
<g id="a_node17"><a xlink:href="../../d0/dfa/layoutsettings__dialog_8cpp.html" target="_top" xlink:title=" ">
<polygon fill="white" stroke="black" points="2790,-0.5 2790,-30.5 2935,-30.5 2935,-0.5 2790,-0.5"/>
<text text-anchor="start" x="2798" y="-18.5" font-family="Helvetica,sans-Serif" font-size="10.00">src/app/seamly2d/dialogs</text>
<text text-anchor="middle" x="2862.5" y="-7.5" font-family="Helvetica,sans-Serif" font-size="10.00">/layoutsettings_dialog.cpp</text>
</a>
</g>
</g>
<!-- Node1&#45;&gt;Node17 -->
<g id="edge16" class="edge">
<title>Node1&#45;&gt;Node17</title>
<path fill="none" stroke="midnightblue" d="M2202.49,-78.19C2323.81,-72.22 2572.45,-57.73 2781.5,-31 2784.19,-30.66 2786.93,-30.28 2789.7,-29.89"/>
<polygon fill="midnightblue" stroke="midnightblue" points="2202.03,-74.71 2192.21,-78.69 2202.37,-81.7 2202.03,-74.71"/>
</g>
<!-- Node18 -->
<g id="node18" class="node">
<title>Node18</title>
<g id="a_node18"><a xlink:href="../../dc/d14/app_2seamly2d_2main_8cpp.html" target="_top" xlink:title=" ">
<polygon fill="white" stroke="black" points="2953,-6 2953,-25 3104,-25 3104,-6 2953,-6"/>
<text text-anchor="middle" x="3028.5" y="-13" font-family="Helvetica,sans-Serif" font-size="10.00">src/app/seamly2d/main.cpp</text>
</a>
</g>
</g>
<!-- Node1&#45;&gt;Node18 -->
<g id="edge17" class="edge">
<title>Node1&#45;&gt;Node18</title>
<path fill="none" stroke="midnightblue" d="M2202.2,-79.63C2345.58,-75.4 2671.91,-62.87 2944.5,-31 2957.58,-29.47 2971.72,-27.25 2984.6,-25.01"/>
<polygon fill="midnightblue" stroke="midnightblue" points="2202.09,-76.13 2192.19,-79.92 2202.29,-83.13 2202.09,-76.13"/>
</g>
<!-- Node19 -->
<g id="node19" class="node">
<title>Node19</title>
<g id="a_node19"><a xlink:href="../../d2/df4/show__info__dialog_8cpp.html" target="_top" xlink:title=" ">
<polygon fill="white" stroke="black" points="3122,-0.5 3122,-30.5 3263,-30.5 3263,-0.5 3122,-0.5"/>
<text text-anchor="start" x="3130" y="-18.5" font-family="Helvetica,sans-Serif" font-size="10.00">src/app/seamly2d/dialogs</text>
<text text-anchor="middle" x="3192.5" y="-7.5" font-family="Helvetica,sans-Serif" font-size="10.00">/show_info_dialog.cpp</text>
</a>
</g>
</g>
<!-- Node1&#45;&gt;Node19 -->
<g id="edge18" class="edge">
<title>Node1&#45;&gt;Node19</title>
<path fill="none" stroke="midnightblue" d="M2202.6,-80.99C2367.06,-79.15 2774.84,-70.59 3113.5,-31 3116.27,-30.68 3119.09,-30.31 3121.93,-29.92"/>
<polygon fill="midnightblue" stroke="midnightblue" points="2202.08,-77.5 2192.12,-81.1 2202.16,-84.5 2202.08,-77.5"/>
</g>
<!-- Node20 -->
<g id="node20" class="node">
<title>Node20</title>
<g id="a_node20"><a xlink:href="../../dd/d84/shortcuts__dialog_8cpp.html" target="_top" xlink:title=" ">
<polygon fill="white" stroke="black" points="3281,-0.5 3281,-30.5 3422,-30.5 3422,-0.5 3281,-0.5"/>
<text text-anchor="start" x="3289" y="-18.5" font-family="Helvetica,sans-Serif" font-size="10.00">src/app/seamly2d/dialogs</text>
<text text-anchor="middle" x="3351.5" y="-7.5" font-family="Helvetica,sans-Serif" font-size="10.00">/shortcuts_dialog.cpp</text>
</a>
</g>
</g>
<!-- Node1&#45;&gt;Node20 -->
<g id="edge19" class="edge">
<title>Node1&#45;&gt;Node20</title>
<path fill="none" stroke="midnightblue" d="M2202.31,-81.75C2384.59,-81.59 2870.45,-76.55 3272.5,-31 3275.27,-30.69 3278.09,-30.33 3280.94,-29.95"/>
<polygon fill="midnightblue" stroke="midnightblue" points="2202.3,-78.25 2192.3,-81.75 2202.3,-85.25 2202.3,-78.25"/>
</g>
<!-- Node21 -->
<g id="node21" class="node">
<title>Node21</title>
<g id="a_node21"><a xlink:href="../../d8/de8/mainwindowsnogui_8cpp.html" target="_top" xlink:title=" ">
<polygon fill="white" stroke="black" points="3440,-6 3440,-25 3661,-25 3661,-6 3440,-6"/>
<text text-anchor="middle" x="3550.5" y="-13" font-family="Helvetica,sans-Serif" font-size="10.00">src/app/seamly2d/mainwindowsnogui.cpp</text>
</a>
</g>
</g>
<!-- Node1&#45;&gt;Node21 -->
<g id="edge20" class="edge">
<title>Node1&#45;&gt;Node21</title>
<path fill="none" stroke="midnightblue" d="M2202.38,-80.77C2401.28,-78.34 2964.6,-68.43 3431.5,-31 3450.07,-29.51 3470.2,-27.29 3488.53,-25.03"/>
<polygon fill="midnightblue" stroke="midnightblue" points="2202.29,-77.27 2192.34,-80.89 2202.38,-84.27 2202.29,-77.27"/>
</g>
<!-- Node22 -->
<g id="node22" class="node">
<title>Node22</title>
<g id="a_node22"><a xlink:href="../../d8/dd9/mainwindow_8cpp.html" target="_top" xlink:title=" ">
<polygon fill="white" stroke="black" points="3679.5,-6 3679.5,-25 3867.5,-25 3867.5,-6 3679.5,-6"/>
<text text-anchor="middle" x="3773.5" y="-13" font-family="Helvetica,sans-Serif" font-size="10.00">src/app/seamly2d/mainwindow.cpp</text>
</a>
</g>
</g>
<!-- Node1&#45;&gt;Node22 -->
<g id="edge21" class="edge">
<title>Node1&#45;&gt;Node22</title>
<path fill="none" stroke="midnightblue" d="M2202.41,-81.88C2424.85,-82.43 3107.37,-79.72 3670.5,-31 3686.96,-29.58 3704.81,-27.32 3720.96,-25"/>
<polygon fill="midnightblue" stroke="midnightblue" points="2202.18,-78.38 2192.17,-81.85 2202.16,-85.38 2202.18,-78.38"/>
</g>
<!-- Node23 -->
<g id="node23" class="node">
<title>Node23</title>
<g id="a_node23"><a xlink:href="../../d3/d49/vpattern_8cpp.html" target="_top" xlink:title=" ">
<polygon fill="white" stroke="black" points="3886,-0.5 3886,-30.5 4011,-30.5 4011,-0.5 3886,-0.5"/>
<text text-anchor="start" x="3894" y="-18.5" font-family="Helvetica,sans-Serif" font-size="10.00">src/app/seamly2d/xml</text>
<text text-anchor="middle" x="3948.5" y="-7.5" font-family="Helvetica,sans-Serif" font-size="10.00">/vpattern.cpp</text>
</a>
</g>
</g>
<!-- Node1&#45;&gt;Node23 -->
<g id="edge22" class="edge">
<title>Node1&#45;&gt;Node23</title>
<path fill="none" stroke="midnightblue" d="M2202.67,-81.04C2491.94,-78.96 3544.66,-68.93 3876.5,-31 3879.54,-30.65 3882.64,-30.24 3885.77,-29.79"/>
<polygon fill="midnightblue" stroke="midnightblue" points="2202.28,-77.54 2192.3,-81.11 2202.33,-84.54 2202.28,-77.54"/>
</g>
</g>
</svg>
