<?xml version="1.0" encoding="UTF-8" standalone="no"?>
<!DOCTYPE svg PUBLIC "-//W3C//DTD SVG 1.1//EN"
 "http://www.w3.org/Graphics/SVG/1.1/DTD/svg11.dtd">
<!-- Generated by graphviz version 2.43.0 (0)
 -->
<!-- Title: src/app/seamly2d/core/vapplication.h Pages: 1 -->
<svg width="4019pt" height="106pt"
 viewBox="0.00 0.00 4019.00 106.00" xmlns="http://www.w3.org/2000/svg" xmlns:xlink="http://www.w3.org/1999/xlink">
<g id="graph0" class="graph" transform="scale(1 1) rotate(0) translate(4 102)">
<title>src/app/seamly2d/core/vapplication.h</title>
<polygon fill="white" stroke="transparent" points="-4,4 -4,-102 4015,-102 4015,4 -4,4"/>
<!-- Node1 -->
<g id="node1" class="node">
<title>Node1</title>
<g id="a_node1"><a xlink:title=" ">
<polygon fill="#bfbfbf" stroke="black" points="2055.5,-67.5 2055.5,-97.5 2182.5,-97.5 2182.5,-67.5 2055.5,-67.5"/>
<text text-anchor="start" x="2063.5" y="-85.5" font-family="Helvetica,sans-Serif" font-size="10.00">src/app/seamly2d/core</text>
<text text-anchor="middle" x="2119" y="-74.5" font-family="Helvetica,sans-Serif" font-size="10.00">/vapplication.h</text>
</a>
</g>
</g>
<!-- Node2 -->
<g id="node2" class="node">
<title>Node2</title>
<g id="a_node2"><a xlink:href="../../dd/db4/abstractlayout__dialog_8cpp.html" target="_top" xlink:title=" ">
<polygon fill="white" stroke="black" points="0,-0.5 0,-30.5 146,-30.5 146,-0.5 0,-0.5"/>
<text text-anchor="start" x="8" y="-18.5" font-family="Helvetica,sans-Serif" font-size="10.00">src/app/seamly2d/dialogs</text>
<text text-anchor="middle" x="73" y="-7.5" font-family="Helvetica,sans-Serif" font-size="10.00">/abstractlayout_dialog.cpp</text>
</a>
</g>
</g>
<!-- Node1&#45;&gt;Node2 -->
<g id="edge1" class="edge">
<title>Node1&#45;&gt;Node2</title>
<path fill="none" stroke="midnightblue" d="M2045.16,-81.08C1734.46,-79.07 532.08,-68.97 155,-31 152.12,-30.71 149.2,-30.38 146.24,-30.01"/>
<polygon fill="midnightblue" stroke="midnightblue" points="2045.37,-84.58 2055.4,-81.14 2045.42,-77.58 2045.37,-84.58"/>
</g>
<!-- Node3 -->
<g id="node3" class="node">
<title>Node3</title>
<g id="a_node3"><a xlink:href="../../d7/dfa/calculator__dialog_8cpp.html" target="_top" xlink:title=" ">
<polygon fill="white" stroke="black" points="164.5,-0.5 164.5,-30.5 305.5,-30.5 305.5,-0.5 164.5,-0.5"/>
<text text-anchor="start" x="172.5" y="-18.5" font-family="Helvetica,sans-Serif" font-size="10.00">src/app/seamly2d/dialogs</text>
<text text-anchor="middle" x="235" y="-7.5" font-family="Helvetica,sans-Serif" font-size="10.00">/calculator_dialog.cpp</text>
</a>
</g>
</g>
<!-- Node1&#45;&gt;Node3 -->
<g id="edge2" class="edge">
<title>Node1&#45;&gt;Node3</title>
<path fill="none" stroke="midnightblue" d="M2045.36,-80.95C1750.98,-78.51 658.13,-67.18 314,-31 311.23,-30.71 308.4,-30.37 305.56,-30"/>
<polygon fill="midnightblue" stroke="midnightblue" points="2045.46,-84.45 2055.49,-81.03 2045.52,-77.45 2045.46,-84.45"/>
</g>
<!-- Node4 -->
<g id="node4" class="node">
<title>Node4</title>
<g id="a_node4"><a xlink:href="../../d2/d2d/preferencesconfigurationpage_8cpp.html" target="_top" xlink:title=" ">
<polygon fill="white" stroke="black" points="323.5,-0.5 323.5,-30.5 570.5,-30.5 570.5,-0.5 323.5,-0.5"/>
<text text-anchor="start" x="331.5" y="-18.5" font-family="Helvetica,sans-Serif" font-size="10.00">src/app/seamly2d/dialogs</text>
<text text-anchor="middle" x="447" y="-7.5" font-family="Helvetica,sans-Serif" font-size="10.00">/configpages/preferencesconfigurationpage.cpp</text>
</a>
</g>
</g>
<!-- Node1&#45;&gt;Node4 -->
<g id="edge3" class="edge">
<title>Node1&#45;&gt;Node4</title>
<path fill="none" stroke="midnightblue" d="M2044.91,-81.06C1822.68,-79.31 1142.4,-70.83 580,-31 576.87,-30.78 573.7,-30.54 570.51,-30.29"/>
<polygon fill="midnightblue" stroke="midnightblue" points="2045.11,-84.56 2055.14,-81.14 2045.17,-77.56 2045.11,-84.56"/>
</g>
<!-- Node5 -->
<g id="node5" class="node">
<title>Node5</title>
<g id="a_node5"><a xlink:href="../../d9/d70/preferencesgraphicsviewpage_8cpp.html" target="_top" xlink:title=" ">
<polygon fill="white" stroke="black" points="589,-0.5 589,-30.5 837,-30.5 837,-0.5 589,-0.5"/>
<text text-anchor="start" x="597" y="-18.5" font-family="Helvetica,sans-Serif" font-size="10.00">src/app/seamly2d/dialogs</text>
<text text-anchor="middle" x="713" y="-7.5" font-family="Helvetica,sans-Serif" font-size="10.00">/configpages/preferencesgraphicsviewpage.cpp</text>
</a>
</g>
</g>
<!-- Node1&#45;&gt;Node5 -->
<g id="edge4" class="edge">
<title>Node1&#45;&gt;Node5</title>
<path fill="none" stroke="midnightblue" d="M2045.17,-80.35C1849.43,-76.92 1301.06,-64.79 846,-31 843.1,-30.78 840.17,-30.56 837.22,-30.32"/>
<polygon fill="midnightblue" stroke="midnightblue" points="2045.27,-83.85 2055.33,-80.53 2045.39,-76.85 2045.27,-83.85"/>
</g>
<!-- Node6 -->
<g id="node6" class="node">
<title>Node6</title>
<g id="a_node6"><a xlink:href="../../dc/d20/preferencespathpage_8cpp.html" target="_top" xlink:title=" ">
<polygon fill="white" stroke="black" points="855.5,-0.5 855.5,-30.5 1060.5,-30.5 1060.5,-0.5 855.5,-0.5"/>
<text text-anchor="start" x="863.5" y="-18.5" font-family="Helvetica,sans-Serif" font-size="10.00">src/app/seamly2d/dialogs</text>
<text text-anchor="middle" x="958" y="-7.5" font-family="Helvetica,sans-Serif" font-size="10.00">/configpages/preferencespathpage.cpp</text>
</a>
</g>
</g>
<!-- Node1&#45;&gt;Node6 -->
<g id="edge5" class="edge">
<title>Node1&#45;&gt;Node6</title>
<path fill="none" stroke="midnightblue" d="M2045.07,-80.02C1873.37,-76.14 1434.41,-63.6 1069,-31 1066.29,-30.76 1063.54,-30.5 1060.78,-30.23"/>
<polygon fill="midnightblue" stroke="midnightblue" points="2045.18,-83.53 2055.26,-80.25 2045.34,-76.53 2045.18,-83.53"/>
</g>
<!-- Node7 -->
<g id="node7" class="node">
<title>Node7</title>
<g id="a_node7"><a xlink:href="../../dd/dc2/decimalchart__dialog_8cpp.html" target="_top" xlink:title=" ">
<polygon fill="white" stroke="black" points="1078.5,-0.5 1078.5,-30.5 1219.5,-30.5 1219.5,-0.5 1078.5,-0.5"/>
<text text-anchor="start" x="1086.5" y="-18.5" font-family="Helvetica,sans-Serif" font-size="10.00">src/app/seamly2d/dialogs</text>
<text text-anchor="middle" x="1149" y="-7.5" font-family="Helvetica,sans-Serif" font-size="10.00">/decimalchart_dialog.cpp</text>
</a>
</g>
</g>
<!-- Node1&#45;&gt;Node7 -->
<g id="edge6" class="edge">
<title>Node1&#45;&gt;Node7</title>
<path fill="none" stroke="midnightblue" d="M2045.17,-80.37C1892.34,-77.35 1530.41,-66.73 1229,-31 1225.92,-30.63 1222.77,-30.22 1219.6,-29.78"/>
<polygon fill="midnightblue" stroke="midnightblue" points="2045.3,-83.87 2055.37,-80.56 2045.44,-76.87 2045.3,-83.87"/>
</g>
<!-- Node8 -->
<g id="node8" class="node">
<title>Node8</title>
<g id="a_node8"><a xlink:href="../../dc/d63/preferencespatternpage_8cpp.html" target="_top" xlink:title=" ">
<polygon fill="white" stroke="black" points="1238,-0.5 1238,-30.5 1456,-30.5 1456,-0.5 1238,-0.5"/>
<text text-anchor="start" x="1246" y="-18.5" font-family="Helvetica,sans-Serif" font-size="10.00">src/app/seamly2d/dialogs</text>
<text text-anchor="middle" x="1347" y="-7.5" font-family="Helvetica,sans-Serif" font-size="10.00">/configpages/preferencespatternpage.cpp</text>
</a>
</g>
</g>
<!-- Node1&#45;&gt;Node8 -->
<g id="edge7" class="edge">
<title>Node1&#45;&gt;Node8</title>
<path fill="none" stroke="midnightblue" d="M2045.05,-76.88C1923.75,-69.06 1675.03,-52 1465,-31 1462.12,-30.71 1459.21,-30.41 1456.27,-30.1"/>
<polygon fill="midnightblue" stroke="midnightblue" points="2045.12,-80.39 2055.32,-77.54 2045.57,-73.41 2045.12,-80.39"/>
</g>
<!-- Node9 -->
<g id="node9" class="node">
<title>Node9</title>
<g id="a_node9"><a xlink:href="../../d3/dd8/vapplication_8cpp.html" target="_top" xlink:title=" ">
<polygon fill="white" stroke="black" points="1474.5,-0.5 1474.5,-30.5 1601.5,-30.5 1601.5,-0.5 1474.5,-0.5"/>
<text text-anchor="start" x="1482.5" y="-18.5" font-family="Helvetica,sans-Serif" font-size="10.00">src/app/seamly2d/core</text>
<text text-anchor="middle" x="1538" y="-7.5" font-family="Helvetica,sans-Serif" font-size="10.00">/vapplication.cpp</text>
</a>
</g>
</g>
<!-- Node1&#45;&gt;Node9 -->
<g id="edge8" class="edge">
<title>Node1&#45;&gt;Node9</title>
<path fill="none" stroke="midnightblue" d="M2045.04,-76.49C1945.72,-69.23 1763.95,-54.08 1610,-31 1607.23,-30.58 1604.4,-30.13 1601.54,-29.65"/>
<polygon fill="midnightblue" stroke="midnightblue" points="2045.04,-80 2055.27,-77.23 2045.54,-73.02 2045.04,-80"/>
</g>
<!-- Node10 -->
<g id="node10" class="node">
<title>Node10</title>
<g id="a_node10"><a xlink:href="../../dd/d64/dialogaboutapp_8cpp.html" target="_top" xlink:title=" ">
<polygon fill="white" stroke="black" points="1619.5,-0.5 1619.5,-30.5 1760.5,-30.5 1760.5,-0.5 1619.5,-0.5"/>
<text text-anchor="start" x="1627.5" y="-18.5" font-family="Helvetica,sans-Serif" font-size="10.00">src/app/seamly2d/dialogs</text>
<text text-anchor="middle" x="1690" y="-7.5" font-family="Helvetica,sans-Serif" font-size="10.00">/dialogaboutapp.cpp</text>
</a>
</g>
</g>
<!-- Node1&#45;&gt;Node10 -->
<g id="edge9" class="edge">
<title>Node1&#45;&gt;Node10</title>
<path fill="none" stroke="midnightblue" d="M2045.17,-71.68C1974.25,-62.05 1864.14,-46.59 1769,-31 1766.25,-30.55 1763.44,-30.08 1760.61,-29.6"/>
<polygon fill="midnightblue" stroke="midnightblue" points="2044.96,-75.19 2055.34,-73.06 2045.9,-68.25 2044.96,-75.19"/>
</g>
<!-- Node11 -->
<g id="node11" class="node">
<title>Node11</title>
<g id="a_node11"><a xlink:href="../../d6/d89/dialoglayoutprogress_8cpp.html" target="_top" xlink:title=" ">
<polygon fill="white" stroke="black" points="1778.5,-0.5 1778.5,-30.5 1921.5,-30.5 1921.5,-0.5 1778.5,-0.5"/>
<text text-anchor="start" x="1786.5" y="-18.5" font-family="Helvetica,sans-Serif" font-size="10.00">src/app/seamly2d/dialogs</text>
<text text-anchor="middle" x="1850" y="-7.5" font-family="Helvetica,sans-Serif" font-size="10.00">/dialoglayoutprogress.cpp</text>
</a>
</g>
</g>
<!-- Node1&#45;&gt;Node11 -->
<g id="edge10" class="edge">
<title>Node1&#45;&gt;Node11</title>
<path fill="none" stroke="midnightblue" d="M2051.21,-65.12C2007.19,-54.48 1950.41,-40.76 1908.4,-30.61"/>
<polygon fill="midnightblue" stroke="midnightblue" points="2050.42,-68.53 2060.96,-67.48 2052.06,-61.73 2050.42,-68.53"/>
</g>
<!-- Node12 -->
<g id="node12" class="node">
<title>Node12</title>
<g id="a_node12"><a xlink:href="../../d2/d00/vtooloptionspropertybrowser_8cpp.html" target="_top" xlink:title=" ">
<polygon fill="white" stroke="black" points="1940,-0.5 1940,-30.5 2120,-30.5 2120,-0.5 1940,-0.5"/>
<text text-anchor="start" x="1948" y="-18.5" font-family="Helvetica,sans-Serif" font-size="10.00">src/app/seamly2d/core</text>
<text text-anchor="middle" x="2030" y="-7.5" font-family="Helvetica,sans-Serif" font-size="10.00">/vtooloptionspropertybrowser.cpp</text>
</a>
</g>
</g>
<!-- Node1&#45;&gt;Node12 -->
<g id="edge11" class="edge">
<title>Node1&#45;&gt;Node12</title>
<path fill="none" stroke="midnightblue" d="M2091.55,-61.45C2077.86,-51.45 2061.63,-39.6 2049.27,-30.58"/>
<polygon fill="midnightblue" stroke="midnightblue" points="2089.55,-64.32 2099.69,-67.4 2093.68,-58.67 2089.55,-64.32"/>
</g>
<!-- Node13 -->
<g id="node13" class="node">
<title>Node13</title>
<g id="a_node13"><a xlink:href="../../d5/dc5/dialogpreferences_8cpp.html" target="_top" xlink:title=" ">
<polygon fill="white" stroke="black" points="2138.5,-0.5 2138.5,-30.5 2279.5,-30.5 2279.5,-0.5 2138.5,-0.5"/>
<text text-anchor="start" x="2146.5" y="-18.5" font-family="Helvetica,sans-Serif" font-size="10.00">src/app/seamly2d/dialogs</text>
<text text-anchor="middle" x="2209" y="-7.5" font-family="Helvetica,sans-Serif" font-size="10.00">/dialogpreferences.cpp</text>
</a>
</g>
</g>
<!-- Node1&#45;&gt;Node13 -->
<g id="edge12" class="edge">
<title>Node1&#45;&gt;Node13</title>
<path fill="none" stroke="midnightblue" d="M2146.76,-61.45C2160.61,-51.45 2177.02,-39.6 2189.51,-30.58"/>
<polygon fill="midnightblue" stroke="midnightblue" points="2144.59,-58.7 2138.53,-67.4 2148.68,-64.38 2144.59,-58.7"/>
</g>
<!-- Node14 -->
<g id="node14" class="node">
<title>Node14</title>
<g id="a_node14"><a xlink:href="../../d5/d18/dialogpatternproperties_8cpp.html" target="_top" xlink:title=" ">
<polygon fill="white" stroke="black" points="2297.5,-0.5 2297.5,-30.5 2452.5,-30.5 2452.5,-0.5 2297.5,-0.5"/>
<text text-anchor="start" x="2305.5" y="-18.5" font-family="Helvetica,sans-Serif" font-size="10.00">src/app/seamly2d/dialogs</text>
<text text-anchor="middle" x="2375" y="-7.5" font-family="Helvetica,sans-Serif" font-size="10.00">/dialogpatternproperties.cpp</text>
</a>
</g>
</g>
<!-- Node1&#45;&gt;Node14 -->
<g id="edge13" class="edge">
<title>Node1&#45;&gt;Node14</title>
<path fill="none" stroke="midnightblue" d="M2184.05,-64.98C2225.86,-54.37 2279.61,-40.72 2319.42,-30.61"/>
<polygon fill="midnightblue" stroke="midnightblue" points="2183.06,-61.62 2174.23,-67.48 2184.79,-68.41 2183.06,-61.62"/>
</g>
<!-- Node15 -->
<g id="node15" class="node">
<title>Node15</title>
<g id="a_node15"><a xlink:href="../../dd/d54/export__layout__dialog_8cpp.html" target="_top" xlink:title=" ">
<polygon fill="white" stroke="black" points="2470.5,-0.5 2470.5,-30.5 2613.5,-30.5 2613.5,-0.5 2470.5,-0.5"/>
<text text-anchor="start" x="2478.5" y="-18.5" font-family="Helvetica,sans-Serif" font-size="10.00">src/app/seamly2d/dialogs</text>
<text text-anchor="middle" x="2542" y="-7.5" font-family="Helvetica,sans-Serif" font-size="10.00">/export_layout_dialog.cpp</text>
</a>
</g>
</g>
<!-- Node1&#45;&gt;Node15 -->
<g id="edge14" class="edge">
<title>Node1&#45;&gt;Node15</title>
<path fill="none" stroke="midnightblue" d="M2192.61,-71.38C2262.14,-61.65 2369.3,-46.22 2462,-31 2464.79,-30.54 2467.62,-30.07 2470.49,-29.58"/>
<polygon fill="midnightblue" stroke="midnightblue" points="2192.05,-67.93 2182.63,-72.77 2193.02,-74.86 2192.05,-67.93"/>
</g>
<!-- Node16 -->
<g id="node16" class="node">
<title>Node16</title>
<g id="a_node16"><a xlink:href="../../d0/dfa/layoutsettings__dialog_8cpp.html" target="_top" xlink:title=" ">
<polygon fill="white" stroke="black" points="2631.5,-0.5 2631.5,-30.5 2776.5,-30.5 2776.5,-0.5 2631.5,-0.5"/>
<text text-anchor="start" x="2639.5" y="-18.5" font-family="Helvetica,sans-Serif" font-size="10.00">src/app/seamly2d/dialogs</text>
<text text-anchor="middle" x="2704" y="-7.5" font-family="Helvetica,sans-Serif" font-size="10.00">/layoutsettings_dialog.cpp</text>
</a>
</g>
</g>
<!-- Node1&#45;&gt;Node16 -->
<g id="edge15" class="edge">
<title>Node1&#45;&gt;Node16</title>
<path fill="none" stroke="midnightblue" d="M2192.98,-75.89C2291.41,-68.01 2470.74,-52.22 2623,-31 2625.69,-30.63 2628.42,-30.23 2631.18,-29.81"/>
<polygon fill="midnightblue" stroke="midnightblue" points="2192.53,-72.41 2182.84,-76.69 2193.08,-79.39 2192.53,-72.41"/>
</g>
<!-- Node17 -->
<g id="node17" class="node">
<title>Node17</title>
<g id="a_node17"><a xlink:href="../../db/d5c/groups__widget_8cpp.html" target="_top" xlink:title=" ">
<polygon fill="white" stroke="black" points="2794.5,-0.5 2794.5,-30.5 2935.5,-30.5 2935.5,-0.5 2794.5,-0.5"/>
<text text-anchor="start" x="2802.5" y="-18.5" font-family="Helvetica,sans-Serif" font-size="10.00">src/app/seamly2d/dialogs</text>
<text text-anchor="middle" x="2865" y="-7.5" font-family="Helvetica,sans-Serif" font-size="10.00">/groups_widget.cpp</text>
</a>
</g>
</g>
<!-- Node1&#45;&gt;Node17 -->
<g id="edge16" class="edge">
<title>Node1&#45;&gt;Node17</title>
<path fill="none" stroke="midnightblue" d="M2192.76,-78.47C2316.02,-72.84 2571.48,-58.73 2786,-31 2788.77,-30.64 2791.58,-30.25 2794.42,-29.84"/>
<polygon fill="midnightblue" stroke="midnightblue" points="2192.52,-74.98 2182.69,-78.93 2192.83,-81.97 2192.52,-74.98"/>
</g>
<!-- Node18 -->
<g id="node18" class="node">
<title>Node18</title>
<g id="a_node18"><a xlink:href="../../dd/d84/shortcuts__dialog_8cpp.html" target="_top" xlink:title=" ">
<polygon fill="white" stroke="black" points="2953.5,-0.5 2953.5,-30.5 3094.5,-30.5 3094.5,-0.5 2953.5,-0.5"/>
<text text-anchor="start" x="2961.5" y="-18.5" font-family="Helvetica,sans-Serif" font-size="10.00">src/app/seamly2d/dialogs</text>
<text text-anchor="middle" x="3024" y="-7.5" font-family="Helvetica,sans-Serif" font-size="10.00">/shortcuts_dialog.cpp</text>
</a>
</g>
</g>
<!-- Node1&#45;&gt;Node18 -->
<g id="edge17" class="edge">
<title>Node1&#45;&gt;Node18</title>
<path fill="none" stroke="midnightblue" d="M2192.81,-79.97C2337.57,-76.3 2668.72,-64.68 2945,-31 2947.77,-30.66 2950.59,-30.29 2953.43,-29.89"/>
<polygon fill="midnightblue" stroke="midnightblue" points="2192.62,-76.47 2182.71,-80.22 2192.79,-83.47 2192.62,-76.47"/>
</g>
<!-- Node19 -->
<g id="node19" class="node">
<title>Node19</title>
<g id="a_node19"><a xlink:href="../../dc/d14/app_2seamly2d_2main_8cpp.html" target="_top" xlink:title=" ">
<polygon fill="white" stroke="black" points="3112.5,-6 3112.5,-25 3263.5,-25 3263.5,-6 3112.5,-6"/>
<text text-anchor="middle" x="3188" y="-13" font-family="Helvetica,sans-Serif" font-size="10.00">src/app/seamly2d/main.cpp</text>
</a>
</g>
</g>
<!-- Node1&#45;&gt;Node19 -->
<g id="edge18" class="edge">
<title>Node1&#45;&gt;Node19</title>
<path fill="none" stroke="midnightblue" d="M2193.07,-80.73C2357.47,-78.35 2765.13,-68.8 3104,-31 3117.24,-29.52 3131.55,-27.29 3144.54,-25.02"/>
<polygon fill="midnightblue" stroke="midnightblue" points="2192.54,-77.23 2182.59,-80.87 2192.64,-84.23 2192.54,-77.23"/>
</g>
<!-- Node20 -->
<g id="node20" class="node">
<title>Node20</title>
<g id="a_node20"><a xlink:href="../../d2/df4/show__info__dialog_8cpp.html" target="_top" xlink:title=" ">
<polygon fill="white" stroke="black" points="3281.5,-0.5 3281.5,-30.5 3422.5,-30.5 3422.5,-0.5 3281.5,-0.5"/>
<text text-anchor="start" x="3289.5" y="-18.5" font-family="Helvetica,sans-Serif" font-size="10.00">src/app/seamly2d/dialogs</text>
<text text-anchor="middle" x="3352" y="-7.5" font-family="Helvetica,sans-Serif" font-size="10.00">/show_info_dialog.cpp</text>
</a>
</g>
</g>
<!-- Node1&#45;&gt;Node20 -->
<g id="edge19" class="edge">
<title>Node1&#45;&gt;Node20</title>
<path fill="none" stroke="midnightblue" d="M2192.79,-81.79C2376.15,-81.74 2866.95,-76.93 3273,-31 3275.77,-30.69 3278.59,-30.33 3281.44,-29.95"/>
<polygon fill="midnightblue" stroke="midnightblue" points="2192.73,-78.29 2182.73,-81.78 2192.73,-85.29 2192.73,-78.29"/>
</g>
<!-- Node21 -->
<g id="node21" class="node">
<title>Node21</title>
<g id="a_node21"><a xlink:href="../../d8/de8/mainwindowsnogui_8cpp.html" target="_top" xlink:title=" ">
<polygon fill="white" stroke="black" points="3440.5,-6 3440.5,-25 3661.5,-25 3661.5,-6 3440.5,-6"/>
<text text-anchor="middle" x="3551" y="-13" font-family="Helvetica,sans-Serif" font-size="10.00">src/app/seamly2d/mainwindowsnogui.cpp</text>
</a>
</g>
</g>
<!-- Node1&#45;&gt;Node21 -->
<g id="edge20" class="edge">
<title>Node1&#45;&gt;Node21</title>
<path fill="none" stroke="midnightblue" d="M2192.73,-80.8C2392.52,-78.45 2960.96,-68.69 3432,-31 3450.57,-29.51 3470.7,-27.3 3489.03,-25.04"/>
<polygon fill="midnightblue" stroke="midnightblue" points="2192.61,-77.3 2182.65,-80.92 2192.69,-84.3 2192.61,-77.3"/>
</g>
<!-- Node22 -->
<g id="node22" class="node">
<title>Node22</title>
<g id="a_node22"><a xlink:href="../../d3/d49/vpattern_8cpp.html" target="_top" xlink:title=" ">
<polygon fill="white" stroke="black" points="3679.5,-0.5 3679.5,-30.5 3804.5,-30.5 3804.5,-0.5 3679.5,-0.5"/>
<text text-anchor="start" x="3687.5" y="-18.5" font-family="Helvetica,sans-Serif" font-size="10.00">src/app/seamly2d/xml</text>
<text text-anchor="middle" x="3742" y="-7.5" font-family="Helvetica,sans-Serif" font-size="10.00">/vpattern.cpp</text>
</a>
</g>
</g>
<!-- Node1&#45;&gt;Node22 -->
<g id="edge21" class="edge">
<title>Node1&#45;&gt;Node22</title>
<path fill="none" stroke="midnightblue" d="M2193.19,-80.75C2461.31,-77.77 3379.54,-65.25 3671,-31 3673.75,-30.68 3676.55,-30.3 3679.37,-29.89"/>
<polygon fill="midnightblue" stroke="midnightblue" points="2192.76,-77.25 2182.8,-80.86 2192.83,-84.25 2192.76,-77.25"/>
</g>
<!-- Node23 -->
<g id="node23" class="node">
<title>Node23</title>
<g id="a_node23"><a xlink:href="../../d8/dd9/mainwindow_8cpp.html" target="_top" xlink:title=" ">
<polygon fill="white" stroke="black" points="3823,-6 3823,-25 4011,-25 4011,-6 3823,-6"/>
<text text-anchor="middle" x="3917" y="-13" font-family="Helvetica,sans-Serif" font-size="10.00">src/app/seamly2d/mainwindow.cpp</text>
</a>
</g>
</g>
<!-- Node1&#45;&gt;Node23 -->
<g id="edge22" class="edge">
<title>Node1&#45;&gt;Node23</title>
<path fill="none" stroke="midnightblue" d="M2192.77,-80.38C2475.74,-75.94 3492,-58.38 3814,-31 3830.46,-29.6 3848.32,-27.35 3864.46,-25.03"/>
<polygon fill="midnightblue" stroke="midnightblue" points="2192.56,-76.89 2182.62,-80.54 2192.67,-83.89 2192.56,-76.89"/>
</g>
</g>
</svg>
