<?xml version="1.0" encoding="UTF-8" standalone="no"?>
<!DOCTYPE svg PUBLIC "-//W3C//DTD SVG 1.1//EN"
 "http://www.w3.org/Graphics/SVG/1.1/DTD/svg11.dtd">
<!-- Generated by graphviz version 2.43.0 (0)
 -->
<!-- Title: src/app/seamly2d/core/vapplication.h Pages: 1 -->
<!--zoomable 106 -->
<svg id="main" version="1.1" xmlns="http://www.w3.org/2000/svg" xmlns:xlink="http://www.w3.org/1999/xlink" xml:space="preserve" onload="init(evt)">
<style type="text/css"><![CDATA[
.edge:hover path { stroke: red; }
.edge:hover polygon { stroke: red; fill: red; }
]]></style>
<script type="text/javascript"><![CDATA[
var edges = document.getElementsByTagName('g');
if (edges && edges.length) {
  for (var i=0;i<edges.length;i++) {
    if (edges[i].id.substr(0,4)=='edge') {
      edges[i].setAttribute('class','edge');
    }
  }
}
]]></script>
        <defs>
                <circle id="rim" cx="0" cy="0" r="7"/>
                <circle id="rim2" cx="0" cy="0" r="3.5"/>
                <g id="zoomPlus">
                        <use xlink:href="#rim" fill="#404040">
                                <set attributeName="fill" to="#808080" begin="zoomplus.mouseover" end="zoomplus.mouseout"/>
                        </use>
                        <path d="M-4,0h8M0,-4v8" fill="none" stroke="white" stroke-width="1.5" pointer-events="none"/>
                </g>
                <g id="zoomMin">
                        <use xlink:href="#rim" fill="#404040">
                                <set attributeName="fill" to="#808080" begin="zoomminus.mouseover" end="zoomminus.mouseout"/>
                        </use>
                        <path d="M-4,0h8" fill="none" stroke="white" stroke-width="1.5" pointer-events="none"/>
                </g>
                <g id="dirArrow">
                        <path fill="none" stroke="white" stroke-width="1.5" d="M0,-3.0v7 M-2.5,-0.5L0,-3.0L2.5,-0.5"/>
                </g>
               <g id="resetDef">
                       <use xlink:href="#rim2" fill="#404040">
                               <set attributeName="fill" to="#808080" begin="reset.mouseover" end="reset.mouseout"/>
                       </use>
               </g>
        </defs>

<script type="text/javascript">
var viewWidth = 4020;
var viewHeight = 106;
var sectionId = 'dynsection-1';
</script>
<script xlink:href="../../svgpan.js"/>
<svg id="graph" class="graph">
<g id="viewport">
<title>src/app/seamly2d/core/vapplication.h</title>
<polygon fill="white" stroke="transparent" points="-4,4 -4,-102 4015.5,-102 4015.5,4 -4,4"/>
<!-- Node1 -->
<g id="node1" class="node">
<title>Node1</title>
<g id="a_node1"><a xlink:title=" ">
<polygon fill="#bfbfbf" stroke="black" points="1992,-67.5 1992,-97.5 2119,-97.5 2119,-67.5 1992,-67.5"/>
<text text-anchor="start" x="2000" y="-85.5" font-family="Helvetica,sans-Serif" font-size="10.00">src/app/seamly2d/core</text>
<text text-anchor="middle" x="2055.5" y="-74.5" font-family="Helvetica,sans-Serif" font-size="10.00">/vapplication.h</text>
</a>
</g>
</g>
<!-- Node2 -->
<g id="node2" class="node">
<title>Node2</title>
<g id="a_node2"><a xlink:href="../../d3/dd8/vapplication_8cpp.html" target="_top" xlink:title=" ">
<polygon fill="white" stroke="black" points="0,-0.5 0,-30.5 127,-30.5 127,-0.5 0,-0.5"/>
<text text-anchor="start" x="8" y="-18.5" font-family="Helvetica,sans-Serif" font-size="10.00">src/app/seamly2d/core</text>
<text text-anchor="middle" x="63.5" y="-7.5" font-family="Helvetica,sans-Serif" font-size="10.00">/vapplication.cpp</text>
</a>
</g>
</g>
<!-- Node1&#45;&gt;Node2 -->
<g id="edge1" class="edge">
<title>Node1&#45;&gt;Node2</title>
<path fill="none" stroke="midnightblue" d="M1981.8,-81.23C1675.74,-79.87 503.91,-72.02 136.5,-31 133.42,-30.66 130.27,-30.25 127.1,-29.79"/>
<polygon fill="midnightblue" stroke="midnightblue" points="1981.88,-84.73 1991.89,-81.28 1981.91,-77.73 1981.88,-84.73"/>
</g>
<!-- Node3 -->
<g id="node3" class="node">
<title>Node3</title>
<g id="a_node3"><a xlink:href="../../dd/db4/abstractlayout__dialog_8cpp.html" target="_top" xlink:title=" ">
<polygon fill="white" stroke="black" points="145.5,-0.5 145.5,-30.5 291.5,-30.5 291.5,-0.5 145.5,-0.5"/>
<text text-anchor="start" x="153.5" y="-18.5" font-family="Helvetica,sans-Serif" font-size="10.00">src/app/seamly2d/dialogs</text>
<text text-anchor="middle" x="218.5" y="-7.5" font-family="Helvetica,sans-Serif" font-size="10.00">/abstractlayout_dialog.cpp</text>
</a>
</g>
</g>
<!-- Node1&#45;&gt;Node3 -->
<g id="edge2" class="edge">
<title>Node1&#45;&gt;Node3</title>
<path fill="none" stroke="midnightblue" d="M1981.54,-80.81C1691.91,-77.91 634.29,-65.13 300.5,-31 297.62,-30.71 294.7,-30.37 291.74,-30"/>
<polygon fill="midnightblue" stroke="midnightblue" points="1981.89,-84.32 1991.93,-80.92 1981.96,-77.32 1981.89,-84.32"/>
</g>
<!-- Node4 -->
<g id="node4" class="node">
<title>Node4</title>
<g id="a_node4"><a xlink:href="../../d7/dfa/calculator__dialog_8cpp.html" target="_top" xlink:title=" ">
<polygon fill="white" stroke="black" points="310,-0.5 310,-30.5 451,-30.5 451,-0.5 310,-0.5"/>
<text text-anchor="start" x="318" y="-18.5" font-family="Helvetica,sans-Serif" font-size="10.00">src/app/seamly2d/dialogs</text>
<text text-anchor="middle" x="380.5" y="-7.5" font-family="Helvetica,sans-Serif" font-size="10.00">/calculator_dialog.cpp</text>
</a>
</g>
</g>
<!-- Node1&#45;&gt;Node4 -->
<g id="edge3" class="edge">
<title>Node1&#45;&gt;Node4</title>
<path fill="none" stroke="midnightblue" d="M1981.5,-80.63C1708.81,-77.2 760.4,-63.19 459.5,-31 456.73,-30.7 453.91,-30.36 451.06,-29.99"/>
<polygon fill="midnightblue" stroke="midnightblue" points="1981.64,-84.13 1991.68,-80.76 1981.72,-77.13 1981.64,-84.13"/>
</g>
<!-- Node5 -->
<g id="node5" class="node">
<title>Node5</title>
<g id="a_node5"><a xlink:href="../../d2/d2d/preferencesconfigurationpage_8cpp.html" target="_top" xlink:title=" ">
<polygon fill="white" stroke="black" points="469,-0.5 469,-30.5 716,-30.5 716,-0.5 469,-0.5"/>
<text text-anchor="start" x="477" y="-18.5" font-family="Helvetica,sans-Serif" font-size="10.00">src/app/seamly2d/dialogs</text>
<text text-anchor="middle" x="592.5" y="-7.5" font-family="Helvetica,sans-Serif" font-size="10.00">/configpages/preferencesconfigurationpage.cpp</text>
</a>
</g>
</g>
<!-- Node1&#45;&gt;Node5 -->
<g id="edge4" class="edge">
<title>Node1&#45;&gt;Node5</title>
<path fill="none" stroke="midnightblue" d="M1981.56,-80.52C1779.89,-77.47 1203.44,-66.08 725.5,-31 722.37,-30.77 719.21,-30.52 716.01,-30.27"/>
<polygon fill="midnightblue" stroke="midnightblue" points="1981.68,-84.03 1991.73,-80.68 1981.79,-77.03 1981.68,-84.03"/>
</g>
<!-- Node6 -->
<g id="node6" class="node">
<title>Node6</title>
<g id="a_node6"><a xlink:href="../../d9/d70/preferencesgraphicsviewpage_8cpp.html" target="_top" xlink:title=" ">
<polygon fill="white" stroke="black" points="734.5,-0.5 734.5,-30.5 982.5,-30.5 982.5,-0.5 734.5,-0.5"/>
<text text-anchor="start" x="742.5" y="-18.5" font-family="Helvetica,sans-Serif" font-size="10.00">src/app/seamly2d/dialogs</text>
<text text-anchor="middle" x="858.5" y="-7.5" font-family="Helvetica,sans-Serif" font-size="10.00">/configpages/preferencesgraphicsviewpage.cpp</text>
</a>
</g>
</g>
<!-- Node1&#45;&gt;Node6 -->
<g id="edge5" class="edge">
<title>Node1&#45;&gt;Node6</title>
<path fill="none" stroke="midnightblue" d="M1981.84,-79.56C1808.81,-74.65 1362.98,-60.04 991.5,-31 988.61,-30.77 985.68,-30.53 982.72,-30.29"/>
<polygon fill="midnightblue" stroke="midnightblue" points="1981.76,-83.05 1991.85,-79.84 1981.96,-76.06 1981.76,-83.05"/>
</g>
<!-- Node7 -->
<g id="node7" class="node">
<title>Node7</title>
<g id="a_node7"><a xlink:href="../../dc/d20/preferencespathpage_8cpp.html" target="_top" xlink:title=" ">
<polygon fill="white" stroke="black" points="1001,-0.5 1001,-30.5 1206,-30.5 1206,-0.5 1001,-0.5"/>
<text text-anchor="start" x="1009" y="-18.5" font-family="Helvetica,sans-Serif" font-size="10.00">src/app/seamly2d/dialogs</text>
<text text-anchor="middle" x="1103.5" y="-7.5" font-family="Helvetica,sans-Serif" font-size="10.00">/configpages/preferencespathpage.cpp</text>
</a>
</g>
</g>
<!-- Node1&#45;&gt;Node7 -->
<g id="edge6" class="edge">
<title>Node1&#45;&gt;Node7</title>
<path fill="none" stroke="midnightblue" d="M1981.69,-78.77C1835.31,-72.97 1497.98,-57.74 1215.5,-31 1212.38,-30.7 1209.21,-30.39 1206.01,-30.06"/>
<polygon fill="midnightblue" stroke="midnightblue" points="1981.77,-82.27 1991.9,-79.17 1982.04,-75.28 1981.77,-82.27"/>
</g>
<!-- Node8 -->
<g id="node8" class="node">
<title>Node8</title>
<g id="a_node8"><a xlink:href="../../d2/d00/vtooloptionspropertybrowser_8cpp.html" target="_top" xlink:title=" ">
<polygon fill="white" stroke="black" points="1224.5,-0.5 1224.5,-30.5 1404.5,-30.5 1404.5,-0.5 1224.5,-0.5"/>
<text text-anchor="start" x="1232.5" y="-18.5" font-family="Helvetica,sans-Serif" font-size="10.00">src/app/seamly2d/core</text>
<text text-anchor="middle" x="1314.5" y="-7.5" font-family="Helvetica,sans-Serif" font-size="10.00">/vtooloptionspropertybrowser.cpp</text>
</a>
</g>
</g>
<!-- Node1&#45;&gt;Node8 -->
<g id="edge7" class="edge">
<title>Node1&#45;&gt;Node8</title>
<path fill="none" stroke="midnightblue" d="M1981.44,-77.29C1861.78,-70.13 1618.62,-54.06 1413.5,-31 1410.57,-30.67 1407.58,-30.32 1404.58,-29.95"/>
<polygon fill="midnightblue" stroke="midnightblue" points="1981.39,-80.79 1991.58,-77.89 1981.81,-73.81 1981.39,-80.79"/>
</g>
<!-- Node9 -->
<g id="node9" class="node">
<title>Node9</title>
<g id="a_node9"><a xlink:href="../../dd/dc2/decimalchart__dialog_8cpp.html" target="_top" xlink:title=" ">
<polygon fill="white" stroke="black" points="1423,-0.5 1423,-30.5 1564,-30.5 1564,-0.5 1423,-0.5"/>
<text text-anchor="start" x="1431" y="-18.5" font-family="Helvetica,sans-Serif" font-size="10.00">src/app/seamly2d/dialogs</text>
<text text-anchor="middle" x="1493.5" y="-7.5" font-family="Helvetica,sans-Serif" font-size="10.00">/decimalchart_dialog.cpp</text>
</a>
</g>
</g>
<!-- Node1&#45;&gt;Node9 -->
<g id="edge8" class="edge">
<title>Node1&#45;&gt;Node9</title>
<path fill="none" stroke="midnightblue" d="M1981.55,-75.56C1886.59,-67.52 1716.83,-51.76 1572.5,-31 1569.74,-30.6 1566.93,-30.18 1564.09,-29.74"/>
<polygon fill="midnightblue" stroke="midnightblue" points="1981.37,-79.06 1991.63,-76.41 1981.96,-72.08 1981.37,-79.06"/>
</g>
<!-- Node10 -->
<g id="node10" class="node">
<title>Node10</title>
<g id="a_node10"><a xlink:href="../../dd/d64/dialogaboutapp_8cpp.html" target="_top" xlink:title=" ">
<polygon fill="white" stroke="black" points="1582,-0.5 1582,-30.5 1723,-30.5 1723,-0.5 1582,-0.5"/>
<text text-anchor="start" x="1590" y="-18.5" font-family="Helvetica,sans-Serif" font-size="10.00">src/app/seamly2d/dialogs</text>
<text text-anchor="middle" x="1652.5" y="-7.5" font-family="Helvetica,sans-Serif" font-size="10.00">/dialogaboutapp.cpp</text>
</a>
</g>
</g>
<!-- Node1&#45;&gt;Node10 -->
<g id="edge9" class="edge">
<title>Node1&#45;&gt;Node10</title>
<path fill="none" stroke="midnightblue" d="M1981.53,-70.55C1915.8,-60.68 1817.14,-45.53 1731.5,-31 1728.75,-30.53 1725.95,-30.05 1723.12,-29.56"/>
<polygon fill="midnightblue" stroke="midnightblue" points="1981.38,-74.07 1991.79,-72.09 1982.42,-67.14 1981.38,-74.07"/>
</g>
<!-- Node11 -->
<g id="node11" class="node">
<title>Node11</title>
<g id="a_node11"><a xlink:href="../../d6/d89/dialoglayoutprogress_8cpp.html" target="_top" xlink:title=" ">
<polygon fill="white" stroke="black" points="1741,-0.5 1741,-30.5 1884,-30.5 1884,-0.5 1741,-0.5"/>
<text text-anchor="start" x="1749" y="-18.5" font-family="Helvetica,sans-Serif" font-size="10.00">src/app/seamly2d/dialogs</text>
<text text-anchor="middle" x="1812.5" y="-7.5" font-family="Helvetica,sans-Serif" font-size="10.00">/dialoglayoutprogress.cpp</text>
</a>
</g>
</g>
<!-- Node1&#45;&gt;Node11 -->
<g id="edge10" class="edge">
<title>Node1&#45;&gt;Node11</title>
<path fill="none" stroke="midnightblue" d="M1993.25,-64.85C1953.64,-54.25 1902.89,-40.68 1865.25,-30.61"/>
<polygon fill="midnightblue" stroke="midnightblue" points="1992.51,-68.27 2003.07,-67.48 1994.32,-61.51 1992.51,-68.27"/>
</g>
<!-- Node12 -->
<g id="node12" class="node">
<title>Node12</title>
<g id="a_node12"><a xlink:href="../../d5/dc5/dialogpreferences_8cpp.html" target="_top" xlink:title=" ">
<polygon fill="white" stroke="black" points="1902,-0.5 1902,-30.5 2043,-30.5 2043,-0.5 1902,-0.5"/>
<text text-anchor="start" x="1910" y="-18.5" font-family="Helvetica,sans-Serif" font-size="10.00">src/app/seamly2d/dialogs</text>
<text text-anchor="middle" x="1972.5" y="-7.5" font-family="Helvetica,sans-Serif" font-size="10.00">/dialogpreferences.cpp</text>
</a>
</g>
</g>
<!-- Node1&#45;&gt;Node12 -->
<g id="edge11" class="edge">
<title>Node1&#45;&gt;Node12</title>
<path fill="none" stroke="midnightblue" d="M2029.54,-61.17C2016.85,-51.23 2001.89,-39.51 1990.47,-30.58"/>
<polygon fill="midnightblue" stroke="midnightblue" points="2027.46,-63.99 2037.49,-67.4 2031.78,-58.47 2027.46,-63.99"/>
</g>
<!-- Node13 -->
<g id="node13" class="node">
<title>Node13</title>
<g id="a_node13"><a xlink:href="../../d5/d18/dialogpatternproperties_8cpp.html" target="_top" xlink:title=" ">
<polygon fill="white" stroke="black" points="2061,-0.5 2061,-30.5 2216,-30.5 2216,-0.5 2061,-0.5"/>
<text text-anchor="start" x="2069" y="-18.5" font-family="Helvetica,sans-Serif" font-size="10.00">src/app/seamly2d/dialogs</text>
<text text-anchor="middle" x="2138.5" y="-7.5" font-family="Helvetica,sans-Serif" font-size="10.00">/dialogpatternproperties.cpp</text>
</a>
</g>
</g>
<!-- Node1&#45;&gt;Node13 -->
<g id="edge12" class="edge">
<title>Node1&#45;&gt;Node13</title>
<path fill="none" stroke="midnightblue" d="M2081.46,-61.17C2094.15,-51.23 2109.11,-39.51 2120.53,-30.58"/>
<polygon fill="midnightblue" stroke="midnightblue" points="2079.22,-58.47 2073.51,-67.4 2083.54,-63.99 2079.22,-58.47"/>
</g>
<!-- Node14 -->
<g id="node14" class="node">
<title>Node14</title>
<g id="a_node14"><a xlink:href="../../dc/d63/preferencespatternpage_8cpp.html" target="_top" xlink:title=" ">
<polygon fill="white" stroke="black" points="2234.5,-0.5 2234.5,-30.5 2452.5,-30.5 2452.5,-0.5 2234.5,-0.5"/>
<text text-anchor="start" x="2242.5" y="-18.5" font-family="Helvetica,sans-Serif" font-size="10.00">src/app/seamly2d/dialogs</text>
<text text-anchor="middle" x="2343.5" y="-7.5" font-family="Helvetica,sans-Serif" font-size="10.00">/configpages/preferencespatternpage.cpp</text>
</a>
</g>
</g>
<!-- Node1&#45;&gt;Node14 -->
<g id="edge13" class="edge">
<title>Node1&#45;&gt;Node14</title>
<path fill="none" stroke="midnightblue" d="M2127.49,-65.25C2174.7,-54.6 2235.81,-40.81 2280.98,-30.61"/>
<polygon fill="midnightblue" stroke="midnightblue" points="2126.62,-61.86 2117.64,-67.48 2128.16,-68.69 2126.62,-61.86"/>
</g>
<!-- Node15 -->
<g id="node15" class="node">
<title>Node15</title>
<g id="a_node15"><a xlink:href="../../dd/d54/export__layout__dialog_8cpp.html" target="_top" xlink:title=" ">
<polygon fill="white" stroke="black" points="2471,-0.5 2471,-30.5 2614,-30.5 2614,-0.5 2471,-0.5"/>
<text text-anchor="start" x="2479" y="-18.5" font-family="Helvetica,sans-Serif" font-size="10.00">src/app/seamly2d/dialogs</text>
<text text-anchor="middle" x="2542.5" y="-7.5" font-family="Helvetica,sans-Serif" font-size="10.00">/export_layout_dialog.cpp</text>
</a>
</g>
</g>
<!-- Node1&#45;&gt;Node15 -->
<g id="edge14" class="edge">
<title>Node1&#45;&gt;Node15</title>
<path fill="none" stroke="midnightblue" d="M2129.44,-73.5C2210.94,-64.41 2345.83,-48.53 2461.5,-31 2464.61,-30.53 2467.78,-30.03 2470.98,-29.52"/>
<polygon fill="midnightblue" stroke="midnightblue" points="2128.84,-70.05 2119.29,-74.63 2129.61,-77.01 2128.84,-70.05"/>
</g>
<!-- Node16 -->
<g id="node16" class="node">
<title>Node16</title>
<g id="a_node16"><a xlink:href="../../db/d5c/groups__widget_8cpp.html" target="_top" xlink:title=" ">
<polygon fill="white" stroke="black" points="2632,-0.5 2632,-30.5 2773,-30.5 2773,-0.5 2632,-0.5"/>
<text text-anchor="start" x="2640" y="-18.5" font-family="Helvetica,sans-Serif" font-size="10.00">src/app/seamly2d/dialogs</text>
<text text-anchor="middle" x="2702.5" y="-7.5" font-family="Helvetica,sans-Serif" font-size="10.00">/groups_widget.cpp</text>
</a>
</g>
</g>
<!-- Node1&#45;&gt;Node16 -->
<g id="edge15" class="edge">
<title>Node1&#45;&gt;Node16</title>
<path fill="none" stroke="midnightblue" d="M2129.37,-77.13C2237.97,-70.21 2446.98,-54.99 2623.5,-31 2626.26,-30.62 2629.08,-30.22 2631.92,-29.79"/>
<polygon fill="midnightblue" stroke="midnightblue" points="2128.94,-73.65 2119.18,-77.77 2129.38,-80.64 2128.94,-73.65"/>
</g>
<!-- Node17 -->
<g id="node17" class="node">
<title>Node17</title>
<g id="a_node17"><a xlink:href="../../d0/dfa/layoutsettings__dialog_8cpp.html" target="_top" xlink:title=" ">
<polygon fill="white" stroke="black" points="2791,-0.5 2791,-30.5 2936,-30.5 2936,-0.5 2791,-0.5"/>
<text text-anchor="start" x="2799" y="-18.5" font-family="Helvetica,sans-Serif" font-size="10.00">src/app/seamly2d/dialogs</text>
<text text-anchor="middle" x="2863.5" y="-7.5" font-family="Helvetica,sans-Serif" font-size="10.00">/layoutsettings_dialog.cpp</text>
</a>
</g>
</g>
<!-- Node1&#45;&gt;Node17 -->
<g id="edge16" class="edge">
<title>Node1&#45;&gt;Node17</title>
<path fill="none" stroke="midnightblue" d="M2129.79,-78.98C2261.64,-73.93 2545.03,-60.42 2782.5,-31 2785.19,-30.67 2787.93,-30.3 2790.7,-29.91"/>
<polygon fill="midnightblue" stroke="midnightblue" points="2129.28,-75.5 2119.42,-79.38 2129.54,-82.5 2129.28,-75.5"/>
</g>
<!-- Node18 -->
<g id="node18" class="node">
<title>Node18</title>
<g id="a_node18"><a xlink:href="../../d2/df4/show__info__dialog_8cpp.html" target="_top" xlink:title=" ">
<polygon fill="white" stroke="black" points="2954,-0.5 2954,-30.5 3095,-30.5 3095,-0.5 2954,-0.5"/>
<text text-anchor="start" x="2962" y="-18.5" font-family="Helvetica,sans-Serif" font-size="10.00">src/app/seamly2d/dialogs</text>
<text text-anchor="middle" x="3024.5" y="-7.5" font-family="Helvetica,sans-Serif" font-size="10.00">/show_info_dialog.cpp</text>
</a>
</g>
</g>
<!-- Node1&#45;&gt;Node18 -->
<g id="edge17" class="edge">
<title>Node1&#45;&gt;Node18</title>
<path fill="none" stroke="midnightblue" d="M2129.34,-80.42C2282.18,-77.51 2644.13,-67.06 2945.5,-31 2948.27,-30.67 2951.09,-30.3 2953.93,-29.9"/>
<polygon fill="midnightblue" stroke="midnightblue" points="2129.07,-76.93 2119.14,-80.61 2129.2,-83.93 2129.07,-76.93"/>
</g>
<!-- Node19 -->
<g id="node19" class="node">
<title>Node19</title>
<g id="a_node19"><a xlink:href="../../dc/d14/app_2seamly2d_2main_8cpp.html" target="_top" xlink:title=" ">
<polygon fill="white" stroke="black" points="3113,-6 3113,-25 3264,-25 3264,-6 3113,-6"/>
<text text-anchor="middle" x="3188.5" y="-13" font-family="Helvetica,sans-Serif" font-size="10.00">src/app/seamly2d/main.cpp</text>
</a>
</g>
</g>
<!-- Node1&#45;&gt;Node19 -->
<g id="edge18" class="edge">
<title>Node1&#45;&gt;Node19</title>
<path fill="none" stroke="midnightblue" d="M2129.46,-81.06C2301.21,-79.35 2740.18,-71.06 3104.5,-31 3117.74,-29.54 3132.05,-27.32 3145.05,-25.05"/>
<polygon fill="midnightblue" stroke="midnightblue" points="2129.24,-77.56 2119.27,-81.15 2129.31,-84.56 2129.24,-77.56"/>
</g>
<!-- Node20 -->
<g id="node20" class="node">
<title>Node20</title>
<g id="a_node20"><a xlink:href="../../dd/d84/shortcuts__dialog_8cpp.html" target="_top" xlink:title=" ">
<polygon fill="white" stroke="black" points="3282,-0.5 3282,-30.5 3423,-30.5 3423,-0.5 3282,-0.5"/>
<text text-anchor="start" x="3290" y="-18.5" font-family="Helvetica,sans-Serif" font-size="10.00">src/app/seamly2d/dialogs</text>
<text text-anchor="middle" x="3352.5" y="-7.5" font-family="Helvetica,sans-Serif" font-size="10.00">/shortcuts_dialog.cpp</text>
</a>
</g>
</g>
<!-- Node1&#45;&gt;Node20 -->
<g id="edge19" class="edge">
<title>Node1&#45;&gt;Node20</title>
<path fill="none" stroke="midnightblue" d="M2129.3,-82.03C2319.52,-82.62 2841.86,-79.32 3273.5,-31 3276.27,-30.69 3279.09,-30.34 3281.94,-29.96"/>
<polygon fill="midnightblue" stroke="midnightblue" points="2129.15,-78.53 2119.14,-81.99 2129.13,-85.53 2129.15,-78.53"/>
</g>
<!-- Node21 -->
<g id="node21" class="node">
<title>Node21</title>
<g id="a_node21"><a xlink:href="../../d8/de8/mainwindowsnogui_8cpp.html" target="_top" xlink:title=" ">
<polygon fill="white" stroke="black" points="3441,-6 3441,-25 3662,-25 3662,-6 3441,-6"/>
<text text-anchor="middle" x="3551.5" y="-13" font-family="Helvetica,sans-Serif" font-size="10.00">src/app/seamly2d/mainwindowsnogui.cpp</text>
</a>
</g>
</g>
<!-- Node1&#45;&gt;Node21 -->
<g id="edge20" class="edge">
<title>Node1&#45;&gt;Node21</title>
<path fill="none" stroke="midnightblue" d="M2129.2,-80.99C2335.39,-79.09 2935.61,-70.31 3432.5,-31 3451.17,-29.52 3471.42,-27.29 3489.84,-25.02"/>
<polygon fill="midnightblue" stroke="midnightblue" points="2129.06,-77.49 2119.09,-81.08 2129.12,-84.49 2129.06,-77.49"/>
</g>
<!-- Node22 -->
<g id="node22" class="node">
<title>Node22</title>
<g id="a_node22"><a xlink:href="../../d3/d49/vpattern_8cpp.html" target="_top" xlink:title=" ">
<polygon fill="white" stroke="black" points="3680,-0.5 3680,-30.5 3805,-30.5 3805,-0.5 3680,-0.5"/>
<text text-anchor="start" x="3688" y="-18.5" font-family="Helvetica,sans-Serif" font-size="10.00">src/app/seamly2d/xml</text>
<text text-anchor="middle" x="3742.5" y="-7.5" font-family="Helvetica,sans-Serif" font-size="10.00">/vpattern.cpp</text>
</a>
</g>
</g>
<!-- Node1&#45;&gt;Node22 -->
<g id="edge21" class="edge">
<title>Node1&#45;&gt;Node22</title>
<path fill="none" stroke="midnightblue" d="M2129.52,-80.86C2404.46,-78.22 3366.83,-66.61 3671.5,-31 3674.25,-30.68 3677.05,-30.31 3679.87,-29.89"/>
<polygon fill="midnightblue" stroke="midnightblue" points="2129.22,-77.36 2119.25,-80.96 2129.29,-84.36 2129.22,-77.36"/>
</g>
<!-- Node23 -->
<g id="node23" class="node">
<title>Node23</title>
<g id="a_node23"><a xlink:href="../../d8/dd9/mainwindow_8cpp.html" target="_top" xlink:title=" ">
<polygon fill="white" stroke="black" points="3823.5,-6 3823.5,-25 4011.5,-25 4011.5,-6 3823.5,-6"/>
<text text-anchor="middle" x="3917.5" y="-13" font-family="Helvetica,sans-Serif" font-size="10.00">src/app/seamly2d/mainwindow.cpp</text>
</a>
</g>
</g>
<!-- Node1&#45;&gt;Node23 -->
<g id="edge22" class="edge">
<title>Node1&#45;&gt;Node23</title>
<path fill="none" stroke="midnightblue" d="M2129.59,-80.47C2419.77,-76.28 3479.4,-59.31 3814.5,-31 3831.05,-29.6 3849.01,-27.34 3865.23,-25.01"/>
<polygon fill="midnightblue" stroke="midnightblue" points="2129.14,-76.98 2119.19,-80.62 2129.24,-83.98 2129.14,-76.98"/>
</g>
</g>
</svg>
        <g id="navigator" transform="translate(0 0)" fill="#404254">
                <rect fill="#f2f5e9" fill-opacity="0.5" stroke="#606060" stroke-width=".5" x="0" y="0" width="60" height="60"/>
                <use id="zoomplus" xlink:href="#zoomPlus" x="17" y="9" onmousedown="handleZoom(evt,'in')"/>
                <use id="zoomminus" xlink:href="#zoomMin" x="42" y="9" onmousedown="handleZoom(evt,'out')"/>
                <use id="reset" xlink:href="#resetDef" x="30" y="36" onmousedown="handleReset()"/>
                <g id="arrowUp" xlink:href="#dirArrow" transform="translate(30 24)" onmousedown="handlePan(0,-1)">
                  <use xlink:href="#rim" fill="#404040">
                        <set attributeName="fill" to="#808080" begin="arrowUp.mouseover" end="arrowUp.mouseout"/>
                  </use>
                  <path fill="none" stroke="white" stroke-width="1.5" d="M0,-3.0v7 M-2.5,-0.5L0,-3.0L2.5,-0.5"/>
                </g>
                <g id="arrowRight" xlink:href="#dirArrow" transform="rotate(90) translate(36 -43)" onmousedown="handlePan(1,0)">
                  <use xlink:href="#rim" fill="#404040">
                        <set attributeName="fill" to="#808080" begin="arrowRight.mouseover" end="arrowRight.mouseout"/>
                  </use>
                  <path fill="none" stroke="white" stroke-width="1.5" d="M0,-3.0v7 M-2.5,-0.5L0,-3.0L2.5,-0.5"/>
                </g>
                <g id="arrowDown" xlink:href="#dirArrow" transform="rotate(180) translate(-30 -48)" onmousedown="handlePan(0,1)">
                  <use xlink:href="#rim" fill="#404040">
                        <set attributeName="fill" to="#808080" begin="arrowDown.mouseover" end="arrowDown.mouseout"/>
                  </use>
                  <path fill="none" stroke="white" stroke-width="1.5" d="M0,-3.0v7 M-2.5,-0.5L0,-3.0L2.5,-0.5"/>
                </g>
                <g id="arrowLeft" xlink:href="#dirArrow" transform="rotate(270) translate(-36 17)" onmousedown="handlePan(-1,0)">
                  <use xlink:href="#rim" fill="#404040">
                        <set attributeName="fill" to="#808080" begin="arrowLeft.mouseover" end="arrowLeft.mouseout"/>
                  </use>
                  <path fill="none" stroke="white" stroke-width="1.5" d="M0,-3.0v7 M-2.5,-0.5L0,-3.0L2.5,-0.5"/>
                </g>
        </g>
        <svg viewBox="0 0 15 15" width="100%" height="30px" preserveAspectRatio="xMaxYMin meet">
         <g id="arrow_out" transform="scale(0.3 0.3)">
          <a xlink:href="vapplication_8h__dep__incl_org.svg" target="_base">
           <rect id="button" ry="5" rx="5" y="6" x="6" height="38" width="38"
                fill="#f2f5e9" fill-opacity="0.5" stroke="#606060" stroke-width="1.0"/>
           <path id="arrow"
             d="M 11.500037,31.436501 C 11.940474,20.09759 22.043105,11.32322 32.158766,21.979434 L 37.068811,17.246167 C 37.068811,17.246167 37.088388,32 37.088388,32 L 22.160133,31.978069 C 22.160133,31.978069 26.997745,27.140456 26.997745,27.140456 C 18.528582,18.264221 13.291696,25.230495 11.500037,31.436501 z"
             style="fill:#404040;"/>
          </a>
         </g>
        </svg>
</svg>
