<?xml version="1.0" encoding="UTF-8" standalone="no"?>
<!DOCTYPE svg PUBLIC "-//W3C//DTD SVG 1.1//EN"
 "http://www.w3.org/Graphics/SVG/1.1/DTD/svg11.dtd">
<!-- Generated by graphviz version 2.43.0 (0)
 -->
<!-- Title: src/app/seamly2d/core/vapplication.h Pages: 1 -->
<svg width="4019pt" height="106pt"
 viewBox="0.00 0.00 4018.50 106.00" xmlns="http://www.w3.org/2000/svg" xmlns:xlink="http://www.w3.org/1999/xlink">
<g id="graph0" class="graph" transform="scale(1 1) rotate(0) translate(4 102)">
<title>src/app/seamly2d/core/vapplication.h</title>
<polygon fill="white" stroke="transparent" points="-4,4 -4,-102 4014.5,-102 4014.5,4 -4,4"/>
<!-- Node1 -->
<g id="node1" class="node">
<title>Node1</title>
<g id="a_node1"><a xlink:title=" ">
<polygon fill="#bfbfbf" stroke="black" points="2046,-67.5 2046,-97.5 2173,-97.5 2173,-67.5 2046,-67.5"/>
<text text-anchor="start" x="2054" y="-85.5" font-family="Helvetica,sans-Serif" font-size="10.00">src/app/seamly2d/core</text>
<text text-anchor="middle" x="2109.5" y="-74.5" font-family="Helvetica,sans-Serif" font-size="10.00">/vapplication.h</text>
</a>
</g>
</g>
<!-- Node2 -->
<g id="node2" class="node">
<title>Node2</title>
<g id="a_node2"><a xlink:href="../../d3/dd8/vapplication_8cpp.html" target="_top" xlink:title=" ">
<polygon fill="white" stroke="black" points="0,-0.5 0,-30.5 127,-30.5 127,-0.5 0,-0.5"/>
<text text-anchor="start" x="8" y="-18.5" font-family="Helvetica,sans-Serif" font-size="10.00">src/app/seamly2d/core</text>
<text text-anchor="middle" x="63.5" y="-7.5" font-family="Helvetica,sans-Serif" font-size="10.00">/vapplication.cpp</text>
</a>
</g>
</g>
<!-- Node1&#45;&gt;Node2 -->
<g id="edge1" class="edge">
<title>Node1&#45;&gt;Node2</title>
<path fill="none" stroke="midnightblue" d="M2035.3,-81.29C1723.09,-80.17 514.89,-73.11 136.5,-31 133.42,-30.66 130.27,-30.25 127.1,-29.8"/>
<polygon fill="midnightblue" stroke="midnightblue" points="2035.57,-84.79 2045.59,-81.33 2035.6,-77.79 2035.57,-84.79"/>
</g>
<!-- Node3 -->
<g id="node3" class="node">
<title>Node3</title>
<g id="a_node3"><a xlink:href="../../dd/db4/abstractlayout__dialog_8cpp.html" target="_top" xlink:title=" ">
<polygon fill="white" stroke="black" points="145.5,-0.5 145.5,-30.5 291.5,-30.5 291.5,-0.5 145.5,-0.5"/>
<text text-anchor="start" x="153.5" y="-18.5" font-family="Helvetica,sans-Serif" font-size="10.00">src/app/seamly2d/dialogs</text>
<text text-anchor="middle" x="218.5" y="-7.5" font-family="Helvetica,sans-Serif" font-size="10.00">/abstractlayout_dialog.cpp</text>
</a>
</g>
</g>
<!-- Node1&#45;&gt;Node3 -->
<g id="edge2" class="edge">
<title>Node1&#45;&gt;Node3</title>
<path fill="none" stroke="midnightblue" d="M2035.7,-80.89C1740.7,-78.22 645.51,-66.13 300.5,-31 297.62,-30.71 294.7,-30.37 291.74,-30"/>
<polygon fill="midnightblue" stroke="midnightblue" points="2035.83,-84.39 2045.86,-80.98 2035.89,-77.39 2035.83,-84.39"/>
</g>
<!-- Node4 -->
<g id="node4" class="node">
<title>Node4</title>
<g id="a_node4"><a xlink:href="../../d7/dfa/calculator__dialog_8cpp.html" target="_top" xlink:title=" ">
<polygon fill="white" stroke="black" points="310,-0.5 310,-30.5 451,-30.5 451,-0.5 310,-0.5"/>
<text text-anchor="start" x="318" y="-18.5" font-family="Helvetica,sans-Serif" font-size="10.00">src/app/seamly2d/dialogs</text>
<text text-anchor="middle" x="380.5" y="-7.5" font-family="Helvetica,sans-Serif" font-size="10.00">/calculator_dialog.cpp</text>
</a>
</g>
</g>
<!-- Node1&#45;&gt;Node4 -->
<g id="edge3" class="edge">
<title>Node1&#45;&gt;Node4</title>
<path fill="none" stroke="midnightblue" d="M2035.37,-80.72C1756.63,-77.55 771.46,-64.21 459.5,-31 456.73,-30.7 453.9,-30.37 451.06,-30"/>
<polygon fill="midnightblue" stroke="midnightblue" points="2035.73,-84.22 2045.77,-80.84 2035.81,-77.22 2035.73,-84.22"/>
</g>
<!-- Node5 -->
<g id="node5" class="node">
<title>Node5</title>
<g id="a_node5"><a xlink:href="../../d2/d2d/preferencesconfigurationpage_8cpp.html" target="_top" xlink:title=" ">
<polygon fill="white" stroke="black" points="469,-0.5 469,-30.5 716,-30.5 716,-0.5 469,-0.5"/>
<text text-anchor="start" x="477" y="-18.5" font-family="Helvetica,sans-Serif" font-size="10.00">src/app/seamly2d/dialogs</text>
<text text-anchor="middle" x="592.5" y="-7.5" font-family="Helvetica,sans-Serif" font-size="10.00">/configpages/preferencesconfigurationpage.cpp</text>
</a>
</g>
</g>
<!-- Node1&#45;&gt;Node5 -->
<g id="edge4" class="edge">
<title>Node1&#45;&gt;Node5</title>
<path fill="none" stroke="midnightblue" d="M2035.82,-80.68C1828.99,-77.98 1225.45,-67.33 725.5,-31 722.37,-30.77 719.21,-30.53 716.01,-30.27"/>
<polygon fill="midnightblue" stroke="midnightblue" points="2035.91,-84.18 2045.95,-80.81 2036,-77.18 2035.91,-84.18"/>
</g>
<!-- Node6 -->
<g id="node6" class="node">
<title>Node6</title>
<g id="a_node6"><a xlink:href="../../d2/d00/vtooloptionspropertybrowser_8cpp.html" target="_top" xlink:title=" ">
<polygon fill="white" stroke="black" points="734.5,-0.5 734.5,-30.5 914.5,-30.5 914.5,-0.5 734.5,-0.5"/>
<text text-anchor="start" x="742.5" y="-18.5" font-family="Helvetica,sans-Serif" font-size="10.00">src/app/seamly2d/core</text>
<text text-anchor="middle" x="824.5" y="-7.5" font-family="Helvetica,sans-Serif" font-size="10.00">/vtooloptionspropertybrowser.cpp</text>
</a>
</g>
</g>
<!-- Node1&#45;&gt;Node6 -->
<g id="edge5" class="edge">
<title>Node1&#45;&gt;Node6</title>
<path fill="none" stroke="midnightblue" d="M2035.45,-80.99C1848.57,-79.13 1342.86,-70.53 923.5,-31 920.56,-30.72 917.57,-30.42 914.56,-30.09"/>
<polygon fill="midnightblue" stroke="midnightblue" points="2035.67,-84.49 2045.7,-81.09 2035.74,-77.49 2035.67,-84.49"/>
</g>
<!-- Node7 -->
<g id="node7" class="node">
<title>Node7</title>
<g id="a_node7"><a xlink:href="../../dc/d20/preferencespathpage_8cpp.html" target="_top" xlink:title=" ">
<polygon fill="white" stroke="black" points="933,-0.5 933,-30.5 1138,-30.5 1138,-0.5 933,-0.5"/>
<text text-anchor="start" x="941" y="-18.5" font-family="Helvetica,sans-Serif" font-size="10.00">src/app/seamly2d/dialogs</text>
<text text-anchor="middle" x="1035.5" y="-7.5" font-family="Helvetica,sans-Serif" font-size="10.00">/configpages/preferencespathpage.cpp</text>
</a>
</g>
</g>
<!-- Node1&#45;&gt;Node7 -->
<g id="edge6" class="edge">
<title>Node1&#45;&gt;Node7</title>
<path fill="none" stroke="midnightblue" d="M2035.7,-79.58C1874.22,-74.95 1477.47,-61.25 1146.5,-31 1143.79,-30.75 1141.05,-30.49 1138.28,-30.21"/>
<polygon fill="midnightblue" stroke="midnightblue" points="2035.9,-83.09 2046,-79.87 2036.1,-76.09 2035.9,-83.09"/>
</g>
<!-- Node8 -->
<g id="node8" class="node">
<title>Node8</title>
<g id="a_node8"><a xlink:href="../../d9/d70/preferencesgraphicsviewpage_8cpp.html" target="_top" xlink:title=" ">
<polygon fill="white" stroke="black" points="1155.5,-0.5 1155.5,-30.5 1403.5,-30.5 1403.5,-0.5 1155.5,-0.5"/>
<text text-anchor="start" x="1163.5" y="-18.5" font-family="Helvetica,sans-Serif" font-size="10.00">src/app/seamly2d/dialogs</text>
<text text-anchor="middle" x="1279.5" y="-7.5" font-family="Helvetica,sans-Serif" font-size="10.00">/configpages/preferencesgraphicsviewpage.cpp</text>
</a>
</g>
</g>
<!-- Node1&#45;&gt;Node8 -->
<g id="edge7" class="edge">
<title>Node1&#45;&gt;Node8</title>
<path fill="none" stroke="midnightblue" d="M2035.5,-77.02C1908.12,-69.12 1639.26,-51.57 1412.5,-31 1409.61,-30.74 1406.68,-30.47 1403.73,-30.19"/>
<polygon fill="midnightblue" stroke="midnightblue" points="2035.34,-80.52 2045.53,-77.64 2035.77,-73.53 2035.34,-80.52"/>
</g>
<!-- Node9 -->
<g id="node9" class="node">
<title>Node9</title>
<g id="a_node9"><a xlink:href="../../dd/dc2/decimalchart__dialog_8cpp.html" target="_top" xlink:title=" ">
<polygon fill="white" stroke="black" points="1422,-0.5 1422,-30.5 1563,-30.5 1563,-0.5 1422,-0.5"/>
<text text-anchor="start" x="1430" y="-18.5" font-family="Helvetica,sans-Serif" font-size="10.00">src/app/seamly2d/dialogs</text>
<text text-anchor="middle" x="1492.5" y="-7.5" font-family="Helvetica,sans-Serif" font-size="10.00">/decimalchart_dialog.cpp</text>
</a>
</g>
</g>
<!-- Node1&#45;&gt;Node9 -->
<g id="edge8" class="edge">
<title>Node1&#45;&gt;Node9</title>
<path fill="none" stroke="midnightblue" d="M2035.87,-76.65C1932.02,-69.34 1736.75,-53.88 1571.5,-31 1568.74,-30.62 1565.92,-30.21 1563.09,-29.77"/>
<polygon fill="midnightblue" stroke="midnightblue" points="2035.71,-80.15 2045.93,-77.35 2036.2,-73.16 2035.71,-80.15"/>
</g>
<!-- Node10 -->
<g id="node10" class="node">
<title>Node10</title>
<g id="a_node10"><a xlink:href="../../dd/d64/dialogaboutapp_8cpp.html" target="_top" xlink:title=" ">
<polygon fill="white" stroke="black" points="1581,-0.5 1581,-30.5 1722,-30.5 1722,-0.5 1581,-0.5"/>
<text text-anchor="start" x="1589" y="-18.5" font-family="Helvetica,sans-Serif" font-size="10.00">src/app/seamly2d/dialogs</text>
<text text-anchor="middle" x="1651.5" y="-7.5" font-family="Helvetica,sans-Serif" font-size="10.00">/dialogaboutapp.cpp</text>
</a>
</g>
</g>
<!-- Node1&#45;&gt;Node10 -->
<g id="edge9" class="edge">
<title>Node1&#45;&gt;Node10</title>
<path fill="none" stroke="midnightblue" d="M2035.98,-72.79C1959.51,-63.47 1836.38,-47.76 1730.5,-31 1727.75,-30.56 1724.94,-30.11 1722.11,-29.64"/>
<polygon fill="midnightblue" stroke="midnightblue" points="2035.64,-76.27 2045.99,-74 2036.49,-69.32 2035.64,-76.27"/>
</g>
<!-- Node11 -->
<g id="node11" class="node">
<title>Node11</title>
<g id="a_node11"><a xlink:href="../../d6/d89/dialoglayoutprogress_8cpp.html" target="_top" xlink:title=" ">
<polygon fill="white" stroke="black" points="1740,-0.5 1740,-30.5 1883,-30.5 1883,-0.5 1740,-0.5"/>
<text text-anchor="start" x="1748" y="-18.5" font-family="Helvetica,sans-Serif" font-size="10.00">src/app/seamly2d/dialogs</text>
<text text-anchor="middle" x="1811.5" y="-7.5" font-family="Helvetica,sans-Serif" font-size="10.00">/dialoglayoutprogress.cpp</text>
</a>
</g>
</g>
<!-- Node1&#45;&gt;Node11 -->
<g id="edge10" class="edge">
<title>Node1&#45;&gt;Node11</title>
<path fill="none" stroke="midnightblue" d="M2036,-65.47C1986.86,-54.75 1922.83,-40.78 1875.74,-30.51"/>
<polygon fill="midnightblue" stroke="midnightblue" points="2035.42,-68.92 2045.94,-67.64 2036.91,-62.08 2035.42,-68.92"/>
</g>
<!-- Node12 -->
<g id="node12" class="node">
<title>Node12</title>
<g id="a_node12"><a xlink:href="../../dc/d63/preferencespatternpage_8cpp.html" target="_top" xlink:title=" ">
<polygon fill="white" stroke="black" points="1901.5,-0.5 1901.5,-30.5 2119.5,-30.5 2119.5,-0.5 1901.5,-0.5"/>
<text text-anchor="start" x="1909.5" y="-18.5" font-family="Helvetica,sans-Serif" font-size="10.00">src/app/seamly2d/dialogs</text>
<text text-anchor="middle" x="2010.5" y="-7.5" font-family="Helvetica,sans-Serif" font-size="10.00">/configpages/preferencespatternpage.cpp</text>
</a>
</g>
</g>
<!-- Node1&#45;&gt;Node12 -->
<g id="edge11" class="edge">
<title>Node1&#45;&gt;Node12</title>
<path fill="none" stroke="midnightblue" d="M2079.39,-61.73C2064.08,-51.68 2045.81,-39.68 2031.94,-30.58"/>
<polygon fill="midnightblue" stroke="midnightblue" points="2077.74,-64.83 2088.02,-67.4 2081.58,-58.98 2077.74,-64.83"/>
</g>
<!-- Node13 -->
<g id="node13" class="node">
<title>Node13</title>
<g id="a_node13"><a xlink:href="../../d5/dc5/dialogpreferences_8cpp.html" target="_top" xlink:title=" ">
<polygon fill="white" stroke="black" points="2138,-0.5 2138,-30.5 2279,-30.5 2279,-0.5 2138,-0.5"/>
<text text-anchor="start" x="2146" y="-18.5" font-family="Helvetica,sans-Serif" font-size="10.00">src/app/seamly2d/dialogs</text>
<text text-anchor="middle" x="2208.5" y="-7.5" font-family="Helvetica,sans-Serif" font-size="10.00">/dialogpreferences.cpp</text>
</a>
</g>
</g>
<!-- Node1&#45;&gt;Node13 -->
<g id="edge12" class="edge">
<title>Node1&#45;&gt;Node13</title>
<path fill="none" stroke="midnightblue" d="M2139.61,-61.73C2154.92,-51.68 2173.19,-39.68 2187.06,-30.58"/>
<polygon fill="midnightblue" stroke="midnightblue" points="2137.42,-58.98 2130.98,-67.4 2141.26,-64.83 2137.42,-58.98"/>
</g>
<!-- Node14 -->
<g id="node14" class="node">
<title>Node14</title>
<g id="a_node14"><a xlink:href="../../d5/d18/dialogpatternproperties_8cpp.html" target="_top" xlink:title=" ">
<polygon fill="white" stroke="black" points="2297,-0.5 2297,-30.5 2452,-30.5 2452,-0.5 2297,-0.5"/>
<text text-anchor="start" x="2305" y="-18.5" font-family="Helvetica,sans-Serif" font-size="10.00">src/app/seamly2d/dialogs</text>
<text text-anchor="middle" x="2374.5" y="-7.5" font-family="Helvetica,sans-Serif" font-size="10.00">/dialogpatternproperties.cpp</text>
</a>
</g>
</g>
<!-- Node1&#45;&gt;Node14 -->
<g id="edge13" class="edge">
<title>Node1&#45;&gt;Node14</title>
<path fill="none" stroke="midnightblue" d="M2176.56,-65.05C2219.88,-54.43 2275.67,-40.74 2316.97,-30.61"/>
<polygon fill="midnightblue" stroke="midnightblue" points="2175.55,-61.69 2166.67,-67.48 2177.22,-68.49 2175.55,-61.69"/>
</g>
<!-- Node15 -->
<g id="node15" class="node">
<title>Node15</title>
<g id="a_node15"><a xlink:href="../../dd/d54/export__layout__dialog_8cpp.html" target="_top" xlink:title=" ">
<polygon fill="white" stroke="black" points="2470,-0.5 2470,-30.5 2613,-30.5 2613,-0.5 2470,-0.5"/>
<text text-anchor="start" x="2478" y="-18.5" font-family="Helvetica,sans-Serif" font-size="10.00">src/app/seamly2d/dialogs</text>
<text text-anchor="middle" x="2541.5" y="-7.5" font-family="Helvetica,sans-Serif" font-size="10.00">/export_layout_dialog.cpp</text>
</a>
</g>
</g>
<!-- Node1&#45;&gt;Node15 -->
<g id="edge14" class="edge">
<title>Node1&#45;&gt;Node15</title>
<path fill="none" stroke="midnightblue" d="M2183.42,-71.7C2254.73,-62.06 2365.66,-46.55 2461.5,-31 2464.29,-30.55 2467.13,-30.08 2469.99,-29.6"/>
<polygon fill="midnightblue" stroke="midnightblue" points="2182.64,-68.27 2173.2,-73.08 2183.58,-75.21 2182.64,-68.27"/>
</g>
<!-- Node16 -->
<g id="node16" class="node">
<title>Node16</title>
<g id="a_node16"><a xlink:href="../../d0/dfa/layoutsettings__dialog_8cpp.html" target="_top" xlink:title=" ">
<polygon fill="white" stroke="black" points="2631,-0.5 2631,-30.5 2776,-30.5 2776,-0.5 2631,-0.5"/>
<text text-anchor="start" x="2639" y="-18.5" font-family="Helvetica,sans-Serif" font-size="10.00">src/app/seamly2d/dialogs</text>
<text text-anchor="middle" x="2703.5" y="-7.5" font-family="Helvetica,sans-Serif" font-size="10.00">/layoutsettings_dialog.cpp</text>
</a>
</g>
</g>
<!-- Node1&#45;&gt;Node16 -->
<g id="edge15" class="edge">
<title>Node1&#45;&gt;Node16</title>
<path fill="none" stroke="midnightblue" d="M2183.26,-76.08C2283.11,-68.32 2466.73,-52.57 2622.5,-31 2625.19,-30.63 2627.92,-30.23 2630.69,-29.81"/>
<polygon fill="midnightblue" stroke="midnightblue" points="2182.97,-72.59 2173.27,-76.85 2183.51,-79.57 2182.97,-72.59"/>
</g>
<!-- Node17 -->
<g id="node17" class="node">
<title>Node17</title>
<g id="a_node17"><a xlink:href="../../db/d5c/groups__widget_8cpp.html" target="_top" xlink:title=" ">
<polygon fill="white" stroke="black" points="2794,-0.5 2794,-30.5 2935,-30.5 2935,-0.5 2794,-0.5"/>
<text text-anchor="start" x="2802" y="-18.5" font-family="Helvetica,sans-Serif" font-size="10.00">src/app/seamly2d/dialogs</text>
<text text-anchor="middle" x="2864.5" y="-7.5" font-family="Helvetica,sans-Serif" font-size="10.00">/groups_widget.cpp</text>
</a>
</g>
</g>
<!-- Node1&#45;&gt;Node17 -->
<g id="edge16" class="edge">
<title>Node1&#45;&gt;Node17</title>
<path fill="none" stroke="midnightblue" d="M2183.28,-78.57C2307.83,-73.06 2567.52,-59.07 2785.5,-31 2788.27,-30.64 2791.08,-30.25 2793.92,-29.84"/>
<polygon fill="midnightblue" stroke="midnightblue" points="2182.94,-75.09 2173.1,-79.02 2183.25,-82.08 2182.94,-75.09"/>
</g>
<!-- Node18 -->
<g id="node18" class="node">
<title>Node18</title>
<g id="a_node18"><a xlink:href="../../dd/d84/shortcuts__dialog_8cpp.html" target="_top" xlink:title=" ">
<polygon fill="white" stroke="black" points="2953,-0.5 2953,-30.5 3094,-30.5 3094,-0.5 2953,-0.5"/>
<text text-anchor="start" x="2961" y="-18.5" font-family="Helvetica,sans-Serif" font-size="10.00">src/app/seamly2d/dialogs</text>
<text text-anchor="middle" x="3023.5" y="-7.5" font-family="Helvetica,sans-Serif" font-size="10.00">/shortcuts_dialog.cpp</text>
</a>
</g>
</g>
<!-- Node1&#45;&gt;Node18 -->
<g id="edge17" class="edge">
<title>Node1&#45;&gt;Node18</title>
<path fill="none" stroke="midnightblue" d="M2183.28,-80.04C2329.19,-76.48 2664.68,-65.01 2944.5,-31 2947.27,-30.66 2950.09,-30.29 2952.93,-29.89"/>
<polygon fill="midnightblue" stroke="midnightblue" points="2183.02,-76.54 2173.11,-80.28 2183.19,-83.54 2183.02,-76.54"/>
</g>
<!-- Node19 -->
<g id="node19" class="node">
<title>Node19</title>
<g id="a_node19"><a xlink:href="../../d2/df4/show__info__dialog_8cpp.html" target="_top" xlink:title=" ">
<polygon fill="white" stroke="black" points="3112,-0.5 3112,-30.5 3253,-30.5 3253,-0.5 3112,-0.5"/>
<text text-anchor="start" x="3120" y="-18.5" font-family="Helvetica,sans-Serif" font-size="10.00">src/app/seamly2d/dialogs</text>
<text text-anchor="middle" x="3182.5" y="-7.5" font-family="Helvetica,sans-Serif" font-size="10.00">/show_info_dialog.cpp</text>
</a>
</g>
</g>
<!-- Node1&#45;&gt;Node19 -->
<g id="edge18" class="edge">
<title>Node1&#45;&gt;Node19</title>
<path fill="none" stroke="midnightblue" d="M2183.17,-81.05C2348.41,-79.31 2760.98,-70.96 3103.5,-31 3106.27,-30.68 3109.09,-30.32 3111.93,-29.92"/>
<polygon fill="midnightblue" stroke="midnightblue" points="2183.08,-77.55 2173.12,-81.15 2183.15,-84.55 2183.08,-77.55"/>
</g>
<!-- Node20 -->
<g id="node20" class="node">
<title>Node20</title>
<g id="a_node20"><a xlink:href="../../dc/d14/app_2seamly2d_2main_8cpp.html" target="_top" xlink:title=" ">
<polygon fill="white" stroke="black" points="3271,-6 3271,-25 3422,-25 3422,-6 3271,-6"/>
<text text-anchor="middle" x="3346.5" y="-13" font-family="Helvetica,sans-Serif" font-size="10.00">src/app/seamly2d/main.cpp</text>
</a>
</g>
</g>
<!-- Node1&#45;&gt;Node20 -->
<g id="edge19" class="edge">
<title>Node1&#45;&gt;Node20</title>
<path fill="none" stroke="midnightblue" d="M2183.2,-81.51C2366.33,-80.85 2856.56,-74.75 3262.5,-31 3275.89,-29.56 3290.37,-27.31 3303.48,-25.01"/>
<polygon fill="midnightblue" stroke="midnightblue" points="2183.13,-78.01 2173.15,-81.55 2183.16,-85.01 2183.13,-78.01"/>
</g>
<!-- Node21 -->
<g id="node21" class="node">
<title>Node21</title>
<g id="a_node21"><a xlink:href="../../d8/de8/mainwindowsnogui_8cpp.html" target="_top" xlink:title=" ">
<polygon fill="white" stroke="black" points="3440,-6 3440,-25 3661,-25 3661,-6 3440,-6"/>
<text text-anchor="middle" x="3550.5" y="-13" font-family="Helvetica,sans-Serif" font-size="10.00">src/app/seamly2d/mainwindowsnogui.cpp</text>
</a>
</g>
</g>
<!-- Node1&#45;&gt;Node21 -->
<g id="edge20" class="edge">
<title>Node1&#45;&gt;Node21</title>
<path fill="none" stroke="midnightblue" d="M2183.38,-80.83C2384.22,-78.54 2956.95,-68.91 3431.5,-31 3450.17,-29.51 3470.42,-27.27 3488.84,-25"/>
<polygon fill="midnightblue" stroke="midnightblue" points="2183.2,-77.33 2173.24,-80.94 2183.28,-84.33 2183.2,-77.33"/>
</g>
<!-- Node22 -->
<g id="node22" class="node">
<title>Node22</title>
<g id="a_node22"><a xlink:href="../../d3/d49/vpattern_8cpp.html" target="_top" xlink:title=" ">
<polygon fill="white" stroke="black" points="3679,-0.5 3679,-30.5 3804,-30.5 3804,-0.5 3679,-0.5"/>
<text text-anchor="start" x="3687" y="-18.5" font-family="Helvetica,sans-Serif" font-size="10.00">src/app/seamly2d/xml</text>
<text text-anchor="middle" x="3741.5" y="-7.5" font-family="Helvetica,sans-Serif" font-size="10.00">/vpattern.cpp</text>
</a>
</g>
</g>
<!-- Node1&#45;&gt;Node22 -->
<g id="edge21" class="edge">
<title>Node1&#45;&gt;Node22</title>
<path fill="none" stroke="midnightblue" d="M2183.26,-80.77C2451.83,-77.85 3377.04,-65.46 3670.5,-31 3673.25,-30.68 3676.05,-30.3 3678.87,-29.89"/>
<polygon fill="midnightblue" stroke="midnightblue" points="2183.19,-77.27 2173.23,-80.88 2183.27,-84.27 2183.19,-77.27"/>
</g>
<!-- Node23 -->
<g id="node23" class="node">
<title>Node23</title>
<g id="a_node23"><a xlink:href="../../d8/dd9/mainwindow_8cpp.html" target="_top" xlink:title=" ">
<polygon fill="white" stroke="black" points="3822.5,-6 3822.5,-25 4010.5,-25 4010.5,-6 3822.5,-6"/>
<text text-anchor="middle" x="3916.5" y="-13" font-family="Helvetica,sans-Serif" font-size="10.00">src/app/seamly2d/mainwindow.cpp</text>
</a>
</g>
</g>
<!-- Node1&#45;&gt;Node23 -->
<g id="edge22" class="edge">
<title>Node1&#45;&gt;Node23</title>
<path fill="none" stroke="midnightblue" d="M2183.66,-80.39C2468.13,-75.97 3489.79,-58.5 3813.5,-31 3829.96,-29.6 3847.82,-27.35 3863.96,-25.03"/>
<polygon fill="midnightblue" stroke="midnightblue" points="2183.4,-76.9 2173.45,-80.55 2183.51,-83.89 2183.4,-76.9"/>
</g>
</g>
</svg>
