<?xml version="1.0" encoding="UTF-8" standalone="no"?>
<!DOCTYPE svg PUBLIC "-//W3C//DTD SVG 1.1//EN"
 "http://www.w3.org/Graphics/SVG/1.1/DTD/svg11.dtd">
<!-- Generated by graphviz version 2.43.0 (0)
 -->
<!-- Title: src/app/seamly2d/core/vapplication.h Pages: 1 -->
<svg width="4018pt" height="106pt"
 viewBox="0.00 0.00 4017.50 106.00" xmlns="http://www.w3.org/2000/svg" xmlns:xlink="http://www.w3.org/1999/xlink">
<g id="graph0" class="graph" transform="scale(1 1) rotate(0) translate(4 102)">
<title>src/app/seamly2d/core/vapplication.h</title>
<polygon fill="white" stroke="transparent" points="-4,4 -4,-102 4013.5,-102 4013.5,4 -4,4"/>
<!-- Node1 -->
<g id="node1" class="node">
<title>Node1</title>
<g id="a_node1"><a xlink:title=" ">
<polygon fill="#bfbfbf" stroke="black" points="2073,-67.5 2073,-97.5 2200,-97.5 2200,-67.5 2073,-67.5"/>
<text text-anchor="start" x="2081" y="-85.5" font-family="Helvetica,sans-Serif" font-size="10.00">src/app/seamly2d/core</text>
<text text-anchor="middle" x="2136.5" y="-74.5" font-family="Helvetica,sans-Serif" font-size="10.00">/vapplication.h</text>
</a>
</g>
</g>
<!-- Node2 -->
<g id="node2" class="node">
<title>Node2</title>
<g id="a_node2"><a xlink:href="../../d3/dd8/vapplication_8cpp.html" target="_top" xlink:title=" ">
<polygon fill="white" stroke="black" points="0,-0.5 0,-30.5 127,-30.5 127,-0.5 0,-0.5"/>
<text text-anchor="start" x="8" y="-18.5" font-family="Helvetica,sans-Serif" font-size="10.00">src/app/seamly2d/core</text>
<text text-anchor="middle" x="63.5" y="-7.5" font-family="Helvetica,sans-Serif" font-size="10.00">/vapplication.cpp</text>
</a>
</g>
</g>
<!-- Node1&#45;&gt;Node2 -->
<g id="edge1" class="edge">
<title>Node1&#45;&gt;Node2</title>
<path fill="none" stroke="midnightblue" d="M2062.33,-81.32C1747.53,-80.31 520.5,-73.67 136.5,-31 133.42,-30.66 130.27,-30.25 127.1,-29.8"/>
<polygon fill="midnightblue" stroke="midnightblue" points="2062.69,-84.82 2072.7,-81.36 2062.72,-77.82 2062.69,-84.82"/>
</g>
<!-- Node3 -->
<g id="node3" class="node">
<title>Node3</title>
<g id="a_node3"><a xlink:href="../../dd/db4/abstractlayout__dialog_8cpp.html" target="_top" xlink:title=" ">
<polygon fill="white" stroke="black" points="145.5,-0.5 145.5,-30.5 291.5,-30.5 291.5,-0.5 145.5,-0.5"/>
<text text-anchor="start" x="153.5" y="-18.5" font-family="Helvetica,sans-Serif" font-size="10.00">src/app/seamly2d/dialogs</text>
<text text-anchor="middle" x="218.5" y="-7.5" font-family="Helvetica,sans-Serif" font-size="10.00">/abstractlayout_dialog.cpp</text>
</a>
</g>
</g>
<!-- Node1&#45;&gt;Node3 -->
<g id="edge2" class="edge">
<title>Node1&#45;&gt;Node3</title>
<path fill="none" stroke="midnightblue" d="M2062.6,-80.92C1764.68,-78.38 651.05,-66.62 300.5,-31 297.62,-30.71 294.7,-30.37 291.74,-30"/>
<polygon fill="midnightblue" stroke="midnightblue" points="2062.83,-84.43 2072.85,-81.01 2062.88,-77.43 2062.83,-84.43"/>
</g>
<!-- Node4 -->
<g id="node4" class="node">
<title>Node4</title>
<g id="a_node4"><a xlink:href="../../d7/dfa/calculator__dialog_8cpp.html" target="_top" xlink:title=" ">
<polygon fill="white" stroke="black" points="310,-0.5 310,-30.5 451,-30.5 451,-0.5 310,-0.5"/>
<text text-anchor="start" x="318" y="-18.5" font-family="Helvetica,sans-Serif" font-size="10.00">src/app/seamly2d/dialogs</text>
<text text-anchor="middle" x="380.5" y="-7.5" font-family="Helvetica,sans-Serif" font-size="10.00">/calculator_dialog.cpp</text>
</a>
</g>
</g>
<!-- Node1&#45;&gt;Node4 -->
<g id="edge3" class="edge">
<title>Node1&#45;&gt;Node4</title>
<path fill="none" stroke="midnightblue" d="M2062.53,-80.76C1781.11,-77.73 777.09,-64.73 459.5,-31 456.73,-30.71 453.9,-30.37 451.06,-30"/>
<polygon fill="midnightblue" stroke="midnightblue" points="2062.59,-84.26 2072.63,-80.87 2062.67,-77.26 2062.59,-84.26"/>
</g>
<!-- Node5 -->
<g id="node5" class="node">
<title>Node5</title>
<g id="a_node5"><a xlink:href="../../dc/d20/preferencespathpage_8cpp.html" target="_top" xlink:title=" ">
<polygon fill="white" stroke="black" points="469,-0.5 469,-30.5 674,-30.5 674,-0.5 469,-0.5"/>
<text text-anchor="start" x="477" y="-18.5" font-family="Helvetica,sans-Serif" font-size="10.00">src/app/seamly2d/dialogs</text>
<text text-anchor="middle" x="571.5" y="-7.5" font-family="Helvetica,sans-Serif" font-size="10.00">/configpages/preferencespathpage.cpp</text>
</a>
</g>
</g>
<!-- Node1&#45;&gt;Node5 -->
<g id="edge4" class="edge">
<title>Node1&#45;&gt;Node5</title>
<path fill="none" stroke="midnightblue" d="M2062.79,-81.41C1849.01,-80.64 1210.35,-74.54 682.5,-31 679.79,-30.78 677.04,-30.53 674.27,-30.27"/>
<polygon fill="midnightblue" stroke="midnightblue" points="2062.94,-84.92 2072.95,-81.45 2062.97,-77.92 2062.94,-84.92"/>
</g>
<!-- Node6 -->
<g id="node6" class="node">
<title>Node6</title>
<g id="a_node6"><a xlink:href="../../d9/d70/preferencesgraphicsviewpage_8cpp.html" target="_top" xlink:title=" ">
<polygon fill="white" stroke="black" points="691.5,-0.5 691.5,-30.5 939.5,-30.5 939.5,-0.5 691.5,-0.5"/>
<text text-anchor="start" x="699.5" y="-18.5" font-family="Helvetica,sans-Serif" font-size="10.00">src/app/seamly2d/dialogs</text>
<text text-anchor="middle" x="815.5" y="-7.5" font-family="Helvetica,sans-Serif" font-size="10.00">/configpages/preferencesgraphicsviewpage.cpp</text>
</a>
</g>
</g>
<!-- Node1&#45;&gt;Node6 -->
<g id="edge5" class="edge">
<title>Node1&#45;&gt;Node6</title>
<path fill="none" stroke="midnightblue" d="M2062.74,-80.06C1876.01,-76.04 1369.48,-62.86 948.5,-31 945.6,-30.78 942.68,-30.55 939.72,-30.3"/>
<polygon fill="midnightblue" stroke="midnightblue" points="2062.91,-83.56 2072.99,-80.28 2063.06,-76.57 2062.91,-83.56"/>
</g>
<!-- Node7 -->
<g id="node7" class="node">
<title>Node7</title>
<g id="a_node7"><a xlink:href="../../dd/dc2/decimalchart__dialog_8cpp.html" target="_top" xlink:title=" ">
<polygon fill="white" stroke="black" points="958,-0.5 958,-30.5 1099,-30.5 1099,-0.5 958,-0.5"/>
<text text-anchor="start" x="966" y="-18.5" font-family="Helvetica,sans-Serif" font-size="10.00">src/app/seamly2d/dialogs</text>
<text text-anchor="middle" x="1028.5" y="-7.5" font-family="Helvetica,sans-Serif" font-size="10.00">/decimalchart_dialog.cpp</text>
</a>
</g>
</g>
<!-- Node1&#45;&gt;Node7 -->
<g id="edge6" class="edge">
<title>Node1&#45;&gt;Node7</title>
<path fill="none" stroke="midnightblue" d="M2062.68,-81.23C1893.28,-79.86 1463.79,-72.26 1107.5,-31 1104.73,-30.68 1101.91,-30.32 1099.07,-29.93"/>
<polygon fill="midnightblue" stroke="midnightblue" points="2062.71,-84.73 2072.73,-81.3 2062.76,-77.73 2062.71,-84.73"/>
</g>
<!-- Node8 -->
<g id="node8" class="node">
<title>Node8</title>
<g id="a_node8"><a xlink:href="../../d2/d2d/preferencesconfigurationpage_8cpp.html" target="_top" xlink:title=" ">
<polygon fill="white" stroke="black" points="1117,-0.5 1117,-30.5 1364,-30.5 1364,-0.5 1117,-0.5"/>
<text text-anchor="start" x="1125" y="-18.5" font-family="Helvetica,sans-Serif" font-size="10.00">src/app/seamly2d/dialogs</text>
<text text-anchor="middle" x="1240.5" y="-7.5" font-family="Helvetica,sans-Serif" font-size="10.00">/configpages/preferencesconfigurationpage.cpp</text>
</a>
</g>
</g>
<!-- Node1&#45;&gt;Node8 -->
<g id="edge7" class="edge">
<title>Node1&#45;&gt;Node8</title>
<path fill="none" stroke="midnightblue" d="M2062.45,-77.68C1925.91,-70.39 1625.29,-53.23 1372.5,-31 1369.74,-30.76 1366.96,-30.51 1364.15,-30.25"/>
<polygon fill="midnightblue" stroke="midnightblue" points="2062.62,-81.19 2072.79,-78.23 2062.99,-74.2 2062.62,-81.19"/>
</g>
<!-- Node9 -->
<g id="node9" class="node">
<title>Node9</title>
<g id="a_node9"><a xlink:href="../../dd/d64/dialogaboutapp_8cpp.html" target="_top" xlink:title=" ">
<polygon fill="white" stroke="black" points="1382,-0.5 1382,-30.5 1523,-30.5 1523,-0.5 1382,-0.5"/>
<text text-anchor="start" x="1390" y="-18.5" font-family="Helvetica,sans-Serif" font-size="10.00">src/app/seamly2d/dialogs</text>
<text text-anchor="middle" x="1452.5" y="-7.5" font-family="Helvetica,sans-Serif" font-size="10.00">/dialogaboutapp.cpp</text>
</a>
</g>
</g>
<!-- Node1&#45;&gt;Node9 -->
<g id="edge8" class="edge">
<title>Node1&#45;&gt;Node9</title>
<path fill="none" stroke="midnightblue" d="M2062.79,-77.62C1948.76,-71.11 1722.88,-56.15 1532.5,-31 1529.42,-30.59 1526.28,-30.15 1523.11,-29.68"/>
<polygon fill="midnightblue" stroke="midnightblue" points="2062.62,-81.12 2072.8,-78.19 2063.02,-74.13 2062.62,-81.12"/>
</g>
<!-- Node10 -->
<g id="node10" class="node">
<title>Node10</title>
<g id="a_node10"><a xlink:href="../../dc/d63/preferencespatternpage_8cpp.html" target="_top" xlink:title=" ">
<polygon fill="white" stroke="black" points="1541.5,-0.5 1541.5,-30.5 1759.5,-30.5 1759.5,-0.5 1541.5,-0.5"/>
<text text-anchor="start" x="1549.5" y="-18.5" font-family="Helvetica,sans-Serif" font-size="10.00">src/app/seamly2d/dialogs</text>
<text text-anchor="middle" x="1650.5" y="-7.5" font-family="Helvetica,sans-Serif" font-size="10.00">/configpages/preferencespatternpage.cpp</text>
</a>
</g>
</g>
<!-- Node1&#45;&gt;Node10 -->
<g id="edge9" class="edge">
<title>Node1&#45;&gt;Node10</title>
<path fill="none" stroke="midnightblue" d="M2062.99,-71.67C1981.14,-60.72 1848.16,-42.94 1755.39,-30.53"/>
<polygon fill="midnightblue" stroke="midnightblue" points="2062.59,-75.15 2072.96,-73 2063.52,-68.21 2062.59,-75.15"/>
</g>
<!-- Node11 -->
<g id="node11" class="node">
<title>Node11</title>
<g id="a_node11"><a xlink:href="../../d2/d00/vtooloptionspropertybrowser_8cpp.html" target="_top" xlink:title=" ">
<polygon fill="white" stroke="black" points="1777.5,-0.5 1777.5,-30.5 1957.5,-30.5 1957.5,-0.5 1777.5,-0.5"/>
<text text-anchor="start" x="1785.5" y="-18.5" font-family="Helvetica,sans-Serif" font-size="10.00">src/app/seamly2d/core</text>
<text text-anchor="middle" x="1867.5" y="-7.5" font-family="Helvetica,sans-Serif" font-size="10.00">/vtooloptionspropertybrowser.cpp</text>
</a>
</g>
</g>
<!-- Node1&#45;&gt;Node11 -->
<g id="edge10" class="edge">
<title>Node1&#45;&gt;Node11</title>
<path fill="none" stroke="midnightblue" d="M2068.71,-65.12C2024.69,-54.48 1967.91,-40.76 1925.9,-30.61"/>
<polygon fill="midnightblue" stroke="midnightblue" points="2067.92,-68.53 2078.46,-67.48 2069.56,-61.73 2067.92,-68.53"/>
</g>
<!-- Node12 -->
<g id="node12" class="node">
<title>Node12</title>
<g id="a_node12"><a xlink:href="../../d5/d18/dialogpatternproperties_8cpp.html" target="_top" xlink:title=" ">
<polygon fill="white" stroke="black" points="1976,-0.5 1976,-30.5 2131,-30.5 2131,-0.5 1976,-0.5"/>
<text text-anchor="start" x="1984" y="-18.5" font-family="Helvetica,sans-Serif" font-size="10.00">src/app/seamly2d/dialogs</text>
<text text-anchor="middle" x="2053.5" y="-7.5" font-family="Helvetica,sans-Serif" font-size="10.00">/dialogpatternproperties.cpp</text>
</a>
</g>
</g>
<!-- Node1&#45;&gt;Node12 -->
<g id="edge11" class="edge">
<title>Node1&#45;&gt;Node12</title>
<path fill="none" stroke="midnightblue" d="M2110.54,-61.17C2097.85,-51.23 2082.89,-39.51 2071.47,-30.58"/>
<polygon fill="midnightblue" stroke="midnightblue" points="2108.46,-63.99 2118.49,-67.4 2112.78,-58.47 2108.46,-63.99"/>
</g>
<!-- Node13 -->
<g id="node13" class="node">
<title>Node13</title>
<g id="a_node13"><a xlink:href="../../d5/dc5/dialogpreferences_8cpp.html" target="_top" xlink:title=" ">
<polygon fill="white" stroke="black" points="2149,-0.5 2149,-30.5 2290,-30.5 2290,-0.5 2149,-0.5"/>
<text text-anchor="start" x="2157" y="-18.5" font-family="Helvetica,sans-Serif" font-size="10.00">src/app/seamly2d/dialogs</text>
<text text-anchor="middle" x="2219.5" y="-7.5" font-family="Helvetica,sans-Serif" font-size="10.00">/dialogpreferences.cpp</text>
</a>
</g>
</g>
<!-- Node1&#45;&gt;Node13 -->
<g id="edge12" class="edge">
<title>Node1&#45;&gt;Node13</title>
<path fill="none" stroke="midnightblue" d="M2162.46,-61.17C2175.15,-51.23 2190.11,-39.51 2201.53,-30.58"/>
<polygon fill="midnightblue" stroke="midnightblue" points="2160.22,-58.47 2154.51,-67.4 2164.54,-63.99 2160.22,-58.47"/>
</g>
<!-- Node14 -->
<g id="node14" class="node">
<title>Node14</title>
<g id="a_node14"><a xlink:href="../../d6/d89/dialoglayoutprogress_8cpp.html" target="_top" xlink:title=" ">
<polygon fill="white" stroke="black" points="2308,-0.5 2308,-30.5 2451,-30.5 2451,-0.5 2308,-0.5"/>
<text text-anchor="start" x="2316" y="-18.5" font-family="Helvetica,sans-Serif" font-size="10.00">src/app/seamly2d/dialogs</text>
<text text-anchor="middle" x="2379.5" y="-7.5" font-family="Helvetica,sans-Serif" font-size="10.00">/dialoglayoutprogress.cpp</text>
</a>
</g>
</g>
<!-- Node1&#45;&gt;Node14 -->
<g id="edge13" class="edge">
<title>Node1&#45;&gt;Node14</title>
<path fill="none" stroke="midnightblue" d="M2198.75,-64.85C2238.36,-54.25 2289.11,-40.68 2326.75,-30.61"/>
<polygon fill="midnightblue" stroke="midnightblue" points="2197.68,-61.51 2188.93,-67.48 2199.49,-68.27 2197.68,-61.51"/>
</g>
<!-- Node15 -->
<g id="node15" class="node">
<title>Node15</title>
<g id="a_node15"><a xlink:href="../../dd/d54/export__layout__dialog_8cpp.html" target="_top" xlink:title=" ">
<polygon fill="white" stroke="black" points="2469,-0.5 2469,-30.5 2612,-30.5 2612,-0.5 2469,-0.5"/>
<text text-anchor="start" x="2477" y="-18.5" font-family="Helvetica,sans-Serif" font-size="10.00">src/app/seamly2d/dialogs</text>
<text text-anchor="middle" x="2540.5" y="-7.5" font-family="Helvetica,sans-Serif" font-size="10.00">/export_layout_dialog.cpp</text>
</a>
</g>
</g>
<!-- Node1&#45;&gt;Node15 -->
<g id="edge14" class="edge">
<title>Node1&#45;&gt;Node15</title>
<path fill="none" stroke="midnightblue" d="M2210.46,-70.5C2276.19,-60.6 2374.84,-45.44 2460.5,-31 2463.28,-30.53 2466.12,-30.05 2468.99,-29.55"/>
<polygon fill="midnightblue" stroke="midnightblue" points="2209.57,-67.1 2200.2,-72.05 2210.61,-74.02 2209.57,-67.1"/>
</g>
<!-- Node16 -->
<g id="node16" class="node">
<title>Node16</title>
<g id="a_node16"><a xlink:href="../../d0/dfa/layoutsettings__dialog_8cpp.html" target="_top" xlink:title=" ">
<polygon fill="white" stroke="black" points="2630,-0.5 2630,-30.5 2775,-30.5 2775,-0.5 2630,-0.5"/>
<text text-anchor="start" x="2638" y="-18.5" font-family="Helvetica,sans-Serif" font-size="10.00">src/app/seamly2d/dialogs</text>
<text text-anchor="middle" x="2702.5" y="-7.5" font-family="Helvetica,sans-Serif" font-size="10.00">/layoutsettings_dialog.cpp</text>
</a>
</g>
</g>
<!-- Node1&#45;&gt;Node16 -->
<g id="edge15" class="edge">
<title>Node1&#45;&gt;Node16</title>
<path fill="none" stroke="midnightblue" d="M2210.34,-75.51C2305.6,-67.39 2476.33,-51.52 2621.5,-31 2624.19,-30.62 2626.92,-30.22 2629.68,-29.8"/>
<polygon fill="midnightblue" stroke="midnightblue" points="2209.91,-72.03 2200.24,-76.36 2210.5,-79.01 2209.91,-72.03"/>
</g>
<!-- Node17 -->
<g id="node17" class="node">
<title>Node17</title>
<g id="a_node17"><a xlink:href="../../db/d5c/groups__widget_8cpp.html" target="_top" xlink:title=" ">
<polygon fill="white" stroke="black" points="2793,-0.5 2793,-30.5 2934,-30.5 2934,-0.5 2793,-0.5"/>
<text text-anchor="start" x="2801" y="-18.5" font-family="Helvetica,sans-Serif" font-size="10.00">src/app/seamly2d/dialogs</text>
<text text-anchor="middle" x="2863.5" y="-7.5" font-family="Helvetica,sans-Serif" font-size="10.00">/groups_widget.cpp</text>
</a>
</g>
</g>
<!-- Node1&#45;&gt;Node17 -->
<g id="edge16" class="edge">
<title>Node1&#45;&gt;Node17</title>
<path fill="none" stroke="midnightblue" d="M2210.41,-78.24C2330.99,-72.36 2577.38,-58 2784.5,-31 2787.27,-30.64 2790.08,-30.25 2792.92,-29.83"/>
<polygon fill="midnightblue" stroke="midnightblue" points="2210.01,-74.75 2200.19,-78.73 2210.35,-81.75 2210.01,-74.75"/>
</g>
<!-- Node18 -->
<g id="node18" class="node">
<title>Node18</title>
<g id="a_node18"><a xlink:href="../../dd/d84/shortcuts__dialog_8cpp.html" target="_top" xlink:title=" ">
<polygon fill="white" stroke="black" points="2952,-0.5 2952,-30.5 3093,-30.5 3093,-0.5 2952,-0.5"/>
<text text-anchor="start" x="2960" y="-18.5" font-family="Helvetica,sans-Serif" font-size="10.00">src/app/seamly2d/dialogs</text>
<text text-anchor="middle" x="3022.5" y="-7.5" font-family="Helvetica,sans-Serif" font-size="10.00">/shortcuts_dialog.cpp</text>
</a>
</g>
</g>
<!-- Node1&#45;&gt;Node18 -->
<g id="edge17" class="edge">
<title>Node1&#45;&gt;Node18</title>
<path fill="none" stroke="midnightblue" d="M2210.38,-79.82C2352.72,-75.92 2674.69,-63.96 2943.5,-31 2946.27,-30.66 2949.09,-30.29 2951.93,-29.88"/>
<polygon fill="midnightblue" stroke="midnightblue" points="2209.94,-76.33 2200.03,-80.09 2210.12,-83.32 2209.94,-76.33"/>
</g>
<!-- Node19 -->
<g id="node19" class="node">
<title>Node19</title>
<g id="a_node19"><a xlink:href="../../dc/d14/app_2seamly2d_2main_8cpp.html" target="_top" xlink:title=" ">
<polygon fill="white" stroke="black" points="3111,-6 3111,-25 3262,-25 3262,-6 3111,-6"/>
<text text-anchor="middle" x="3186.5" y="-13" font-family="Helvetica,sans-Serif" font-size="10.00">src/app/seamly2d/main.cpp</text>
</a>
</g>
</g>
<!-- Node1&#45;&gt;Node19 -->
<g id="edge18" class="edge">
<title>Node1&#45;&gt;Node19</title>
<path fill="none" stroke="midnightblue" d="M2210.33,-80.62C2372.34,-78.05 2770.99,-68.15 3102.5,-31 3115.74,-29.52 3130.05,-27.28 3143.04,-25.01"/>
<polygon fill="midnightblue" stroke="midnightblue" points="2209.95,-77.13 2200.01,-80.78 2210.06,-84.13 2209.95,-77.13"/>
</g>
<!-- Node20 -->
<g id="node20" class="node">
<title>Node20</title>
<g id="a_node20"><a xlink:href="../../d2/df4/show__info__dialog_8cpp.html" target="_top" xlink:title=" ">
<polygon fill="white" stroke="black" points="3280,-0.5 3280,-30.5 3421,-30.5 3421,-0.5 3280,-0.5"/>
<text text-anchor="start" x="3288" y="-18.5" font-family="Helvetica,sans-Serif" font-size="10.00">src/app/seamly2d/dialogs</text>
<text text-anchor="middle" x="3350.5" y="-7.5" font-family="Helvetica,sans-Serif" font-size="10.00">/show_info_dialog.cpp</text>
</a>
</g>
</g>
<!-- Node1&#45;&gt;Node20 -->
<g id="edge19" class="edge">
<title>Node1&#45;&gt;Node20</title>
<path fill="none" stroke="midnightblue" d="M2210.33,-81.71C2391.64,-81.46 2873.05,-76.21 3271.5,-31 3274.27,-30.69 3277.09,-30.33 3279.94,-29.95"/>
<polygon fill="midnightblue" stroke="midnightblue" points="2210.11,-78.21 2200.11,-81.72 2210.12,-85.21 2210.11,-78.21"/>
</g>
<!-- Node21 -->
<g id="node21" class="node">
<title>Node21</title>
<g id="a_node21"><a xlink:href="../../d8/de8/mainwindowsnogui_8cpp.html" target="_top" xlink:title=" ">
<polygon fill="white" stroke="black" points="3439,-6 3439,-25 3660,-25 3660,-6 3439,-6"/>
<text text-anchor="middle" x="3549.5" y="-13" font-family="Helvetica,sans-Serif" font-size="10.00">src/app/seamly2d/mainwindowsnogui.cpp</text>
</a>
</g>
</g>
<!-- Node1&#45;&gt;Node21 -->
<g id="edge20" class="edge">
<title>Node1&#45;&gt;Node21</title>
<path fill="none" stroke="midnightblue" d="M2210.51,-80.74C2408.61,-78.25 2967.33,-68.19 3430.5,-31 3449.07,-29.51 3469.2,-27.29 3487.53,-25.03"/>
<polygon fill="midnightblue" stroke="midnightblue" points="2210.19,-77.24 2200.23,-80.87 2210.27,-84.24 2210.19,-77.24"/>
</g>
<!-- Node22 -->
<g id="node22" class="node">
<title>Node22</title>
<g id="a_node22"><a xlink:href="../../d3/d49/vpattern_8cpp.html" target="_top" xlink:title=" ">
<polygon fill="white" stroke="black" points="3678,-0.5 3678,-30.5 3803,-30.5 3803,-0.5 3678,-0.5"/>
<text text-anchor="start" x="3686" y="-18.5" font-family="Helvetica,sans-Serif" font-size="10.00">src/app/seamly2d/xml</text>
<text text-anchor="middle" x="3740.5" y="-7.5" font-family="Helvetica,sans-Serif" font-size="10.00">/vpattern.cpp</text>
</a>
</g>
</g>
<!-- Node1&#45;&gt;Node22 -->
<g id="edge21" class="edge">
<title>Node1&#45;&gt;Node22</title>
<path fill="none" stroke="midnightblue" d="M2210.69,-80.71C2476.67,-77.63 3381.94,-64.86 3669.5,-31 3672.25,-30.68 3675.05,-30.3 3677.87,-29.89"/>
<polygon fill="midnightblue" stroke="midnightblue" points="2210.33,-77.22 2200.37,-80.83 2210.41,-84.22 2210.33,-77.22"/>
</g>
<!-- Node23 -->
<g id="node23" class="node">
<title>Node23</title>
<g id="a_node23"><a xlink:href="../../d8/dd9/mainwindow_8cpp.html" target="_top" xlink:title=" ">
<polygon fill="white" stroke="black" points="3821.5,-6 3821.5,-25 4009.5,-25 4009.5,-6 3821.5,-6"/>
<text text-anchor="middle" x="3915.5" y="-13" font-family="Helvetica,sans-Serif" font-size="10.00">src/app/seamly2d/mainwindow.cpp</text>
</a>
</g>
</g>
<!-- Node1&#45;&gt;Node23 -->
<g id="edge22" class="edge">
<title>Node1&#45;&gt;Node23</title>
<path fill="none" stroke="midnightblue" d="M2210.39,-80.35C2491.5,-75.83 3494.47,-58.09 3812.5,-31 3828.96,-29.6 3846.82,-27.35 3862.96,-25.03"/>
<polygon fill="midnightblue" stroke="midnightblue" points="2210.24,-76.86 2200.3,-80.52 2210.35,-83.85 2210.24,-76.86"/>
</g>
</g>
</svg>
