<?xml version="1.0" encoding="UTF-8" standalone="no"?>
<!DOCTYPE svg PUBLIC "-//W3C//DTD SVG 1.1//EN"
 "http://www.w3.org/Graphics/SVG/1.1/DTD/svg11.dtd">
<!-- Generated by graphviz version 2.43.0 (0)
 -->
<!-- Title: src/app/seamly2d/options.h Pages: 1 -->
<svg width="4034pt" height="218pt"
 viewBox="0.00 0.00 4033.50 218.00" xmlns="http://www.w3.org/2000/svg" xmlns:xlink="http://www.w3.org/1999/xlink">
<g id="graph0" class="graph" transform="scale(1 1) rotate(0) translate(4 214)">
<title>src/app/seamly2d/options.h</title>
<polygon fill="white" stroke="transparent" points="-4,4 -4,-214 4029.5,-214 4029.5,4 -4,4"/>
<!-- Node1 -->
<g id="node1" class="node">
<title>Node1</title>
<g id="a_node1"><a xlink:title=" ">
<polygon fill="#bfbfbf" stroke="black" points="1353,-190.5 1353,-209.5 1504,-209.5 1504,-190.5 1353,-190.5"/>
<text text-anchor="middle" x="1428.5" y="-197.5" font-family="Helvetica,sans-Serif" font-size="10.00">src/app/seamly2d/options.h</text>
</a>
</g>
</g>
<!-- Node2 -->
<g id="node2" class="node">
<title>Node2</title>
<g id="a_node2"><a xlink:href="../../d9/d02/vapplication_8h.html" target="_top" xlink:title=" ">
<polygon fill="white" stroke="black" points="1637,-123.5 1637,-153.5 1764,-153.5 1764,-123.5 1637,-123.5"/>
<text text-anchor="start" x="1645" y="-141.5" font-family="Helvetica,sans-Serif" font-size="10.00">src/app/seamly2d/core</text>
<text text-anchor="middle" x="1700.5" y="-130.5" font-family="Helvetica,sans-Serif" font-size="10.00">/vapplication.h</text>
</a>
</g>
</g>
<!-- Node1&#45;&gt;Node2 -->
<g id="edge1" class="edge">
<title>Node1&#45;&gt;Node2</title>
<path fill="none" stroke="midnightblue" d="M1477.49,-188.28C1522.1,-178.53 1588.24,-164.06 1636.92,-153.41"/>
<polygon fill="midnightblue" stroke="midnightblue" points="1476.49,-184.92 1467.47,-190.48 1477.99,-191.76 1476.49,-184.92"/>
</g>
<!-- Node5 -->
<g id="node5" class="node">
<title>Node5</title>
<g id="a_node5"><a xlink:href="../../d7/dfa/calculator__dialog_8cpp.html" target="_top" xlink:title=" ">
<polygon fill="white" stroke="black" points="0,-56.5 0,-86.5 141,-86.5 141,-56.5 0,-56.5"/>
<text text-anchor="start" x="8" y="-74.5" font-family="Helvetica,sans-Serif" font-size="10.00">src/app/seamly2d/dialogs</text>
<text text-anchor="middle" x="70.5" y="-63.5" font-family="Helvetica,sans-Serif" font-size="10.00">/calculator_dialog.cpp</text>
</a>
</g>
</g>
<!-- Node1&#45;&gt;Node5 -->
<g id="edge24" class="edge">
<title>Node1&#45;&gt;Node5</title>
<path fill="none" stroke="midnightblue" d="M1342.45,-198.45C1180.72,-196.6 820.56,-188.56 519.5,-154 380.38,-138.03 219.33,-105.26 132.95,-86.5"/>
<polygon fill="midnightblue" stroke="midnightblue" points="1342.77,-201.95 1352.81,-198.56 1342.85,-194.95 1342.77,-201.95"/>
</g>
<!-- Node8 -->
<g id="node8" class="node">
<title>Node8</title>
<g id="a_node8"><a xlink:href="../../dc/d20/preferencespathpage_8cpp.html" target="_top" xlink:title=" ">
<polygon fill="white" stroke="black" points="159,-56.5 159,-86.5 364,-86.5 364,-56.5 159,-56.5"/>
<text text-anchor="start" x="167" y="-74.5" font-family="Helvetica,sans-Serif" font-size="10.00">src/app/seamly2d/dialogs</text>
<text text-anchor="middle" x="261.5" y="-63.5" font-family="Helvetica,sans-Serif" font-size="10.00">/configpages/preferencespathpage.cpp</text>
</a>
</g>
</g>
<!-- Node1&#45;&gt;Node8 -->
<g id="edge25" class="edge">
<title>Node1&#45;&gt;Node8</title>
<path fill="none" stroke="midnightblue" d="M1342.69,-196.46C1210.58,-191.88 949.58,-180.17 729.5,-154 585.77,-136.91 419.16,-104.95 328.59,-86.54"/>
<polygon fill="midnightblue" stroke="midnightblue" points="1342.63,-199.96 1352.75,-196.81 1342.87,-192.97 1342.63,-199.96"/>
</g>
<!-- Node11 -->
<g id="node11" class="node">
<title>Node11</title>
<g id="a_node11"><a xlink:href="../../dd/d64/dialogaboutapp_8cpp.html" target="_top" xlink:title=" ">
<polygon fill="white" stroke="black" points="382,-56.5 382,-86.5 523,-86.5 523,-56.5 382,-56.5"/>
<text text-anchor="start" x="390" y="-74.5" font-family="Helvetica,sans-Serif" font-size="10.00">src/app/seamly2d/dialogs</text>
<text text-anchor="middle" x="452.5" y="-63.5" font-family="Helvetica,sans-Serif" font-size="10.00">/dialogaboutapp.cpp</text>
</a>
</g>
</g>
<!-- Node1&#45;&gt;Node11 -->
<g id="edge26" class="edge">
<title>Node1&#45;&gt;Node11</title>
<path fill="none" stroke="midnightblue" d="M1342.52,-193.07C1243.98,-185.83 1077.73,-172.26 935.5,-154 754.97,-130.82 710.79,-118.32 531.5,-87 528.75,-86.52 525.95,-86.03 523.12,-85.52"/>
<polygon fill="midnightblue" stroke="midnightblue" points="1342.49,-196.58 1352.72,-193.82 1343,-189.6 1342.49,-196.58"/>
</g>
<!-- Node13 -->
<g id="node13" class="node">
<title>Node13</title>
<g id="a_node13"><a xlink:href="../../d6/d89/dialoglayoutprogress_8cpp.html" target="_top" xlink:title=" ">
<polygon fill="white" stroke="black" points="541,-56.5 541,-86.5 684,-86.5 684,-56.5 541,-56.5"/>
<text text-anchor="start" x="549" y="-74.5" font-family="Helvetica,sans-Serif" font-size="10.00">src/app/seamly2d/dialogs</text>
<text text-anchor="middle" x="612.5" y="-63.5" font-family="Helvetica,sans-Serif" font-size="10.00">/dialoglayoutprogress.cpp</text>
</a>
</g>
</g>
<!-- Node1&#45;&gt;Node13 -->
<g id="edge27" class="edge">
<title>Node1&#45;&gt;Node13</title>
<path fill="none" stroke="midnightblue" d="M1360.6,-188.93C1231.53,-169.7 941.92,-126.19 698.5,-87 693.87,-86.25 689.09,-85.48 684.28,-84.68"/>
<polygon fill="midnightblue" stroke="midnightblue" points="1360.32,-192.42 1370.73,-190.43 1361.35,-185.5 1360.32,-192.42"/>
</g>
<!-- Node16 -->
<g id="node16" class="node">
<title>Node16</title>
<g id="a_node16"><a xlink:href="../../dd/d54/export__layout__dialog_8cpp.html" target="_top" xlink:title=" ">
<polygon fill="white" stroke="black" points="3527,-56.5 3527,-86.5 3670,-86.5 3670,-56.5 3527,-56.5"/>
<text text-anchor="start" x="3535" y="-74.5" font-family="Helvetica,sans-Serif" font-size="10.00">src/app/seamly2d/dialogs</text>
<text text-anchor="middle" x="3598.5" y="-63.5" font-family="Helvetica,sans-Serif" font-size="10.00">/export_layout_dialog.cpp</text>
</a>
</g>
</g>
<!-- Node1&#45;&gt;Node16 -->
<g id="edge32" class="edge">
<title>Node1&#45;&gt;Node16</title>
<path fill="none" stroke="midnightblue" d="M1514.53,-198.26C1800.42,-194.98 2744.44,-177.53 3518.5,-87 3521.16,-86.69 3523.87,-86.34 3526.61,-85.97"/>
<polygon fill="midnightblue" stroke="midnightblue" points="1514.2,-194.76 1504.24,-198.38 1514.28,-201.76 1514.2,-194.76"/>
</g>
<!-- Node23 -->
<g id="node23" class="node">
<title>Node23</title>
<g id="a_node23"><a xlink:href="../../d8/dd9/mainwindow_8cpp.html" target="_top" xlink:title=" ">
<polygon fill="white" stroke="black" points="3837.5,-0.5 3837.5,-19.5 4025.5,-19.5 4025.5,-0.5 3837.5,-0.5"/>
<text text-anchor="middle" x="3931.5" y="-7.5" font-family="Helvetica,sans-Serif" font-size="10.00">src/app/seamly2d/mainwindow.cpp</text>
</a>
</g>
</g>
<!-- Node1&#45;&gt;Node23 -->
<g id="edge33" class="edge">
<title>Node1&#45;&gt;Node23</title>
<path fill="none" stroke="midnightblue" d="M1514.44,-199.26C1917.98,-200.24 3614.82,-201.49 3846.5,-154 3924.04,-138.11 3967.3,-152.66 4011.5,-87 4019.19,-75.57 4018.46,-67.89 4011.5,-56 4000.8,-37.71 3979.63,-26.27 3961.75,-19.51"/>
<polygon fill="midnightblue" stroke="midnightblue" points="1514.31,-195.76 1504.3,-199.24 1514.29,-202.76 1514.31,-195.76"/>
</g>
<!-- Node25 -->
<g id="node25" class="node">
<title>Node25</title>
<g id="a_node25"><a xlink:href="../../d5/d4e/dialogpatternproperties_8h.html" target="_top" xlink:title=" ">
<polygon fill="white" stroke="black" points="3694,-123.5 3694,-153.5 3837,-153.5 3837,-123.5 3694,-123.5"/>
<text text-anchor="start" x="3702" y="-141.5" font-family="Helvetica,sans-Serif" font-size="10.00">src/app/seamly2d/dialogs</text>
<text text-anchor="middle" x="3765.5" y="-130.5" font-family="Helvetica,sans-Serif" font-size="10.00">/dialogpatternproperties.h</text>
</a>
</g>
</g>
<!-- Node1&#45;&gt;Node25 -->
<g id="edge28" class="edge">
<title>Node1&#45;&gt;Node25</title>
<path fill="none" stroke="midnightblue" d="M1514.42,-196.81C1886.08,-187.35 3352.01,-150.03 3693.93,-141.32"/>
<polygon fill="midnightblue" stroke="midnightblue" points="1514.17,-193.32 1504.27,-197.07 1514.35,-200.32 1514.17,-193.32"/>
</g>
<!-- Node3 -->
<g id="node3" class="node">
<title>Node3</title>
<g id="a_node3"><a xlink:href="../../d3/dd8/vapplication_8cpp.html" target="_top" xlink:title=" ">
<polygon fill="white" stroke="black" points="1932,-56.5 1932,-86.5 2059,-86.5 2059,-56.5 1932,-56.5"/>
<text text-anchor="start" x="1940" y="-74.5" font-family="Helvetica,sans-Serif" font-size="10.00">src/app/seamly2d/core</text>
<text text-anchor="middle" x="1995.5" y="-63.5" font-family="Helvetica,sans-Serif" font-size="10.00">/vapplication.cpp</text>
</a>
</g>
</g>
<!-- Node2&#45;&gt;Node3 -->
<g id="edge2" class="edge">
<title>Node2&#45;&gt;Node3</title>
<path fill="none" stroke="midnightblue" d="M1773.97,-121.31C1822.54,-110.61 1885.56,-96.72 1931.97,-86.5"/>
<polygon fill="midnightblue" stroke="midnightblue" points="1773.16,-117.91 1764.15,-123.48 1774.67,-124.74 1773.16,-117.91"/>
</g>
<!-- Node4 -->
<g id="node4" class="node">
<title>Node4</title>
<g id="a_node4"><a xlink:href="../../dd/db4/abstractlayout__dialog_8cpp.html" target="_top" xlink:title=" ">
<polygon fill="white" stroke="black" points="2077.5,-56.5 2077.5,-86.5 2223.5,-86.5 2223.5,-56.5 2077.5,-56.5"/>
<text text-anchor="start" x="2085.5" y="-74.5" font-family="Helvetica,sans-Serif" font-size="10.00">src/app/seamly2d/dialogs</text>
<text text-anchor="middle" x="2150.5" y="-63.5" font-family="Helvetica,sans-Serif" font-size="10.00">/abstractlayout_dialog.cpp</text>
</a>
</g>
</g>
<!-- Node2&#45;&gt;Node4 -->
<g id="edge3" class="edge">
<title>Node2&#45;&gt;Node4</title>
<path fill="none" stroke="midnightblue" d="M1774.43,-128.13C1848.63,-118.53 1966.15,-102.82 2067.5,-87 2070.68,-86.5 2073.93,-85.99 2077.2,-85.45"/>
<polygon fill="midnightblue" stroke="midnightblue" points="1773.72,-124.69 1764.25,-129.44 1774.62,-131.63 1773.72,-124.69"/>
</g>
<!-- Node2&#45;&gt;Node5 -->
<g id="edge4" class="edge">
<title>Node2&#45;&gt;Node5</title>
<path fill="none" stroke="midnightblue" d="M1626.38,-136.55C1358.51,-132.9 441.1,-118.33 149.5,-87 146.73,-86.7 143.91,-86.36 141.06,-85.99"/>
<polygon fill="midnightblue" stroke="midnightblue" points="1626.72,-140.06 1636.76,-136.69 1626.81,-133.06 1626.72,-140.06"/>
</g>
<!-- Node6 -->
<g id="node6" class="node">
<title>Node6</title>
<g id="a_node6"><a xlink:href="../../d2/d2d/preferencesconfigurationpage_8cpp.html" target="_top" xlink:title=" ">
<polygon fill="white" stroke="black" points="2242,-56.5 2242,-86.5 2489,-86.5 2489,-56.5 2242,-56.5"/>
<text text-anchor="start" x="2250" y="-74.5" font-family="Helvetica,sans-Serif" font-size="10.00">src/app/seamly2d/dialogs</text>
<text text-anchor="middle" x="2365.5" y="-63.5" font-family="Helvetica,sans-Serif" font-size="10.00">/configpages/preferencesconfigurationpage.cpp</text>
</a>
</g>
</g>
<!-- Node2&#45;&gt;Node6 -->
<g id="edge5" class="edge">
<title>Node2&#45;&gt;Node6</title>
<path fill="none" stroke="midnightblue" d="M1774.37,-130.82C1877.13,-121.44 2069.04,-103.67 2232.5,-87 2235.62,-86.68 2238.78,-86.36 2241.97,-86.03"/>
<polygon fill="midnightblue" stroke="midnightblue" points="1774.04,-127.33 1764.4,-131.72 1774.68,-134.3 1774.04,-127.33"/>
</g>
<!-- Node7 -->
<g id="node7" class="node">
<title>Node7</title>
<g id="a_node7"><a xlink:href="../../d9/d70/preferencesgraphicsviewpage_8cpp.html" target="_top" xlink:title=" ">
<polygon fill="white" stroke="black" points="2507.5,-56.5 2507.5,-86.5 2755.5,-86.5 2755.5,-56.5 2507.5,-56.5"/>
<text text-anchor="start" x="2515.5" y="-74.5" font-family="Helvetica,sans-Serif" font-size="10.00">src/app/seamly2d/dialogs</text>
<text text-anchor="middle" x="2631.5" y="-63.5" font-family="Helvetica,sans-Serif" font-size="10.00">/configpages/preferencesgraphicsviewpage.cpp</text>
</a>
</g>
</g>
<!-- Node2&#45;&gt;Node7 -->
<g id="edge6" class="edge">
<title>Node2&#45;&gt;Node7</title>
<path fill="none" stroke="midnightblue" d="M1774.35,-133.92C1915.15,-126.85 2231.67,-109.79 2497.5,-87 2500.76,-86.72 2504.07,-86.43 2507.41,-86.12"/>
<polygon fill="midnightblue" stroke="midnightblue" points="1773.92,-130.44 1764.11,-134.43 1774.27,-137.43 1773.92,-130.44"/>
</g>
<!-- Node2&#45;&gt;Node8 -->
<g id="edge7" class="edge">
<title>Node2&#45;&gt;Node8</title>
<path fill="none" stroke="midnightblue" d="M1626.63,-137.07C1425.15,-135.38 849.32,-127.12 372.5,-87 369.79,-86.77 367.04,-86.53 364.27,-86.26"/>
<polygon fill="midnightblue" stroke="midnightblue" points="1626.76,-140.57 1636.79,-137.15 1626.82,-133.57 1626.76,-140.57"/>
</g>
<!-- Node9 -->
<g id="node9" class="node">
<title>Node9</title>
<g id="a_node9"><a xlink:href="../../d2/d00/vtooloptionspropertybrowser_8cpp.html" target="_top" xlink:title=" ">
<polygon fill="white" stroke="black" points="2773.5,-56.5 2773.5,-86.5 2953.5,-86.5 2953.5,-56.5 2773.5,-56.5"/>
<text text-anchor="start" x="2781.5" y="-74.5" font-family="Helvetica,sans-Serif" font-size="10.00">src/app/seamly2d/core</text>
<text text-anchor="middle" x="2863.5" y="-63.5" font-family="Helvetica,sans-Serif" font-size="10.00">/vtooloptionspropertybrowser.cpp</text>
</a>
</g>
</g>
<!-- Node2&#45;&gt;Node9 -->
<g id="edge8" class="edge">
<title>Node2&#45;&gt;Node9</title>
<path fill="none" stroke="midnightblue" d="M1774.24,-136.49C1947.45,-133.56 2393.62,-122.87 2764.5,-87 2767.44,-86.72 2770.42,-86.41 2773.44,-86.07"/>
<polygon fill="midnightblue" stroke="midnightblue" points="1774.16,-132.99 1764.22,-136.65 1774.27,-139.99 1774.16,-132.99"/>
</g>
<!-- Node10 -->
<g id="node10" class="node">
<title>Node10</title>
<g id="a_node10"><a xlink:href="../../dd/dc2/decimalchart__dialog_8cpp.html" target="_top" xlink:title=" ">
<polygon fill="white" stroke="black" points="2972,-56.5 2972,-86.5 3113,-86.5 3113,-56.5 2972,-56.5"/>
<text text-anchor="start" x="2980" y="-74.5" font-family="Helvetica,sans-Serif" font-size="10.00">src/app/seamly2d/dialogs</text>
<text text-anchor="middle" x="3042.5" y="-63.5" font-family="Helvetica,sans-Serif" font-size="10.00">/decimalchart_dialog.cpp</text>
</a>
</g>
</g>
<!-- Node2&#45;&gt;Node10 -->
<g id="edge9" class="edge">
<title>Node2&#45;&gt;Node10</title>
<path fill="none" stroke="midnightblue" d="M1774.21,-138.13C1968.96,-139.01 2513.11,-136.47 2962.5,-87 2965.59,-86.66 2968.73,-86.27 2971.91,-85.85"/>
<polygon fill="midnightblue" stroke="midnightblue" points="1774.11,-134.63 1764.09,-138.08 1774.08,-141.63 1774.11,-134.63"/>
</g>
<!-- Node2&#45;&gt;Node11 -->
<g id="edge10" class="edge">
<title>Node2&#45;&gt;Node11</title>
<path fill="none" stroke="midnightblue" d="M1626.75,-137.85C1441.8,-137.95 943.58,-133.49 531.5,-87 528.73,-86.69 525.91,-86.34 523.06,-85.95"/>
<polygon fill="midnightblue" stroke="midnightblue" points="1626.91,-141.35 1636.9,-137.84 1626.9,-134.35 1626.91,-141.35"/>
</g>
<!-- Node12 -->
<g id="node12" class="node">
<title>Node12</title>
<g id="a_node12"><a xlink:href="../../dc/d63/preferencespatternpage_8cpp.html" target="_top" xlink:title=" ">
<polygon fill="white" stroke="black" points="3131.5,-56.5 3131.5,-86.5 3349.5,-86.5 3349.5,-56.5 3131.5,-56.5"/>
<text text-anchor="start" x="3139.5" y="-74.5" font-family="Helvetica,sans-Serif" font-size="10.00">src/app/seamly2d/dialogs</text>
<text text-anchor="middle" x="3240.5" y="-63.5" font-family="Helvetica,sans-Serif" font-size="10.00">/configpages/preferencespatternpage.cpp</text>
</a>
</g>
</g>
<!-- Node2&#45;&gt;Node12 -->
<g id="edge11" class="edge">
<title>Node2&#45;&gt;Node12</title>
<path fill="none" stroke="midnightblue" d="M1774.05,-137.14C1984.54,-135.61 2607.32,-127.72 3122.5,-87 3125.38,-86.77 3128.3,-86.53 3131.24,-86.26"/>
<polygon fill="midnightblue" stroke="midnightblue" points="1774.01,-133.64 1764.04,-137.21 1774.06,-140.64 1774.01,-133.64"/>
</g>
<!-- Node2&#45;&gt;Node13 -->
<g id="edge12" class="edge">
<title>Node2&#45;&gt;Node13</title>
<path fill="none" stroke="midnightblue" d="M1626.89,-136.73C1460.81,-134.34 1044.48,-124.76 698.5,-87 693.83,-86.49 689.04,-85.89 684.21,-85.23"/>
<polygon fill="midnightblue" stroke="midnightblue" points="1626.94,-140.23 1636.99,-136.87 1627.04,-133.23 1626.94,-140.23"/>
</g>
<!-- Node14 -->
<g id="node14" class="node">
<title>Node14</title>
<g id="a_node14"><a xlink:href="../../d5/dc5/dialogpreferences_8cpp.html" target="_top" xlink:title=" ">
<polygon fill="white" stroke="black" points="3368,-56.5 3368,-86.5 3509,-86.5 3509,-56.5 3368,-56.5"/>
<text text-anchor="start" x="3376" y="-74.5" font-family="Helvetica,sans-Serif" font-size="10.00">src/app/seamly2d/dialogs</text>
<text text-anchor="middle" x="3438.5" y="-63.5" font-family="Helvetica,sans-Serif" font-size="10.00">/dialogpreferences.cpp</text>
</a>
</g>
</g>
<!-- Node2&#45;&gt;Node14 -->
<g id="edge13" class="edge">
<title>Node2&#45;&gt;Node14</title>
<path fill="none" stroke="midnightblue" d="M1774.1,-136.72C2052.97,-133.52 3044.66,-120.04 3358.5,-87 3361.59,-86.67 3364.74,-86.3 3367.91,-85.88"/>
<polygon fill="midnightblue" stroke="midnightblue" points="1774.05,-133.22 1764.09,-136.83 1774.13,-140.22 1774.05,-133.22"/>
</g>
<!-- Node15 -->
<g id="node15" class="node">
<title>Node15</title>
<g id="a_node15"><a xlink:href="../../d5/d18/dialogpatternproperties_8cpp.html" target="_top" xlink:title=" ">
<polygon fill="white" stroke="black" points="3688,-56.5 3688,-86.5 3843,-86.5 3843,-56.5 3688,-56.5"/>
<text text-anchor="start" x="3696" y="-74.5" font-family="Helvetica,sans-Serif" font-size="10.00">src/app/seamly2d/dialogs</text>
<text text-anchor="middle" x="3765.5" y="-63.5" font-family="Helvetica,sans-Serif" font-size="10.00">/dialogpatternproperties.cpp</text>
</a>
</g>
</g>
<!-- Node2&#45;&gt;Node15 -->
<g id="edge14" class="edge">
<title>Node2&#45;&gt;Node15</title>
<path fill="none" stroke="midnightblue" d="M1774.38,-137.02C2086.59,-134.75 3299.17,-123.73 3679.5,-87 3682.21,-86.74 3684.97,-86.44 3687.75,-86.12"/>
<polygon fill="midnightblue" stroke="midnightblue" points="1774.07,-133.52 1764.09,-137.09 1774.12,-140.52 1774.07,-133.52"/>
</g>
<!-- Node2&#45;&gt;Node16 -->
<g id="edge15" class="edge">
<title>Node2&#45;&gt;Node16</title>
<path fill="none" stroke="midnightblue" d="M1774.28,-136.11C2092.98,-130.03 3343.35,-105.2 3518.5,-87 3521.17,-86.72 3523.88,-86.41 3526.62,-86.06"/>
<polygon fill="midnightblue" stroke="midnightblue" points="1774.16,-132.61 1764.23,-136.3 1774.29,-139.61 1774.16,-132.61"/>
</g>
<!-- Node17 -->
<g id="node17" class="node">
<title>Node17</title>
<g id="a_node17"><a xlink:href="../../d0/dfa/layoutsettings__dialog_8cpp.html" target="_top" xlink:title=" ">
<polygon fill="white" stroke="black" points="741,-56.5 741,-86.5 886,-86.5 886,-56.5 741,-56.5"/>
<text text-anchor="start" x="749" y="-74.5" font-family="Helvetica,sans-Serif" font-size="10.00">src/app/seamly2d/dialogs</text>
<text text-anchor="middle" x="813.5" y="-63.5" font-family="Helvetica,sans-Serif" font-size="10.00">/layoutsettings_dialog.cpp</text>
</a>
</g>
</g>
<!-- Node2&#45;&gt;Node17 -->
<g id="edge16" class="edge">
<title>Node2&#45;&gt;Node17</title>
<path fill="none" stroke="midnightblue" d="M1626.45,-135.7C1484.17,-131.6 1162.88,-119.32 894.5,-87 891.81,-86.68 889.06,-86.32 886.3,-85.94"/>
<polygon fill="midnightblue" stroke="midnightblue" points="1626.7,-139.2 1636.8,-135.99 1626.9,-132.21 1626.7,-139.2"/>
</g>
<!-- Node18 -->
<g id="node18" class="node">
<title>Node18</title>
<g id="a_node18"><a xlink:href="../../db/d5c/groups__widget_8cpp.html" target="_top" xlink:title=" ">
<polygon fill="white" stroke="black" points="904,-56.5 904,-86.5 1045,-86.5 1045,-56.5 904,-56.5"/>
<text text-anchor="start" x="912" y="-74.5" font-family="Helvetica,sans-Serif" font-size="10.00">src/app/seamly2d/dialogs</text>
<text text-anchor="middle" x="974.5" y="-63.5" font-family="Helvetica,sans-Serif" font-size="10.00">/groups_widget.cpp</text>
</a>
</g>
</g>
<!-- Node2&#45;&gt;Node18 -->
<g id="edge17" class="edge">
<title>Node2&#45;&gt;Node18</title>
<path fill="none" stroke="midnightblue" d="M1626.7,-134.23C1506.31,-128.34 1260.3,-113.98 1053.5,-87 1050.73,-86.64 1047.92,-86.25 1045.08,-85.83"/>
<polygon fill="midnightblue" stroke="midnightblue" points="1626.75,-137.74 1636.91,-134.73 1627.09,-130.75 1626.75,-137.74"/>
</g>
<!-- Node19 -->
<g id="node19" class="node">
<title>Node19</title>
<g id="a_node19"><a xlink:href="../../d2/df4/show__info__dialog_8cpp.html" target="_top" xlink:title=" ">
<polygon fill="white" stroke="black" points="1063,-56.5 1063,-86.5 1204,-86.5 1204,-56.5 1063,-56.5"/>
<text text-anchor="start" x="1071" y="-74.5" font-family="Helvetica,sans-Serif" font-size="10.00">src/app/seamly2d/dialogs</text>
<text text-anchor="middle" x="1133.5" y="-63.5" font-family="Helvetica,sans-Serif" font-size="10.00">/show_info_dialog.cpp</text>
</a>
</g>
</g>
<!-- Node2&#45;&gt;Node19 -->
<g id="edge18" class="edge">
<title>Node2&#45;&gt;Node19</title>
<path fill="none" stroke="midnightblue" d="M1626.58,-131.67C1530.8,-123.69 1358.73,-107.95 1212.5,-87 1209.74,-86.6 1206.93,-86.18 1204.09,-85.74"/>
<polygon fill="midnightblue" stroke="midnightblue" points="1626.49,-135.17 1636.75,-132.51 1627.07,-128.2 1626.49,-135.17"/>
</g>
<!-- Node20 -->
<g id="node20" class="node">
<title>Node20</title>
<g id="a_node20"><a xlink:href="../../dc/d14/app_2seamly2d_2main_8cpp.html" target="_top" xlink:title=" ">
<polygon fill="white" stroke="black" points="1222,-62 1222,-81 1373,-81 1373,-62 1222,-62"/>
<text text-anchor="middle" x="1297.5" y="-69" font-family="Helvetica,sans-Serif" font-size="10.00">src/app/seamly2d/main.cpp</text>
</a>
</g>
</g>
<!-- Node2&#45;&gt;Node20 -->
<g id="edge19" class="edge">
<title>Node2&#45;&gt;Node20</title>
<path fill="none" stroke="midnightblue" d="M1626.81,-126.13C1562.12,-116.08 1465.52,-100.9 1381.5,-87 1370.11,-85.12 1357.86,-83.03 1346.34,-81.05"/>
<polygon fill="midnightblue" stroke="midnightblue" points="1626.49,-129.62 1636.91,-127.7 1627.56,-122.71 1626.49,-129.62"/>
</g>
<!-- Node21 -->
<g id="node21" class="node">
<title>Node21</title>
<g id="a_node21"><a xlink:href="../../d8/de8/mainwindowsnogui_8cpp.html" target="_top" xlink:title=" ">
<polygon fill="white" stroke="black" points="1391,-62 1391,-81 1612,-81 1612,-62 1391,-62"/>
<text text-anchor="middle" x="1501.5" y="-69" font-family="Helvetica,sans-Serif" font-size="10.00">src/app/seamly2d/mainwindowsnogui.cpp</text>
</a>
</g>
</g>
<!-- Node2&#45;&gt;Node21 -->
<g id="edge20" class="edge">
<title>Node2&#45;&gt;Node21</title>
<path fill="none" stroke="midnightblue" d="M1647.75,-120.27C1608.97,-107.6 1557.94,-90.93 1527.54,-81.01"/>
<polygon fill="midnightblue" stroke="midnightblue" points="1646.73,-123.62 1657.32,-123.4 1648.9,-116.96 1646.73,-123.62"/>
</g>
<!-- Node22 -->
<g id="node22" class="node">
<title>Node22</title>
<g id="a_node22"><a xlink:href="../../dd/d84/shortcuts__dialog_8cpp.html" target="_top" xlink:title=" ">
<polygon fill="white" stroke="black" points="1630,-56.5 1630,-86.5 1771,-86.5 1771,-56.5 1630,-56.5"/>
<text text-anchor="start" x="1638" y="-74.5" font-family="Helvetica,sans-Serif" font-size="10.00">src/app/seamly2d/dialogs</text>
<text text-anchor="middle" x="1700.5" y="-63.5" font-family="Helvetica,sans-Serif" font-size="10.00">/shortcuts_dialog.cpp</text>
</a>
</g>
</g>
<!-- Node2&#45;&gt;Node22 -->
<g id="edge21" class="edge">
<title>Node2&#45;&gt;Node22</title>
<path fill="none" stroke="midnightblue" d="M1700.5,-113.11C1700.5,-104.15 1700.5,-94.32 1700.5,-86.58"/>
<polygon fill="midnightblue" stroke="midnightblue" points="1697,-113.4 1700.5,-123.4 1704,-113.4 1697,-113.4"/>
</g>
<!-- Node2&#45;&gt;Node23 -->
<g id="edge22" class="edge">
<title>Node2&#45;&gt;Node23</title>
<path fill="none" stroke="midnightblue" d="M1626.45,-136.39C1405.16,-132.73 762.2,-119.34 731.5,-87 722.01,-77.01 721.83,-65.81 731.5,-56 759.49,-27.61 3311.86,-13.95 3837.49,-11.43"/>
<polygon fill="midnightblue" stroke="midnightblue" points="1626.61,-139.9 1636.66,-136.56 1626.72,-132.9 1626.61,-139.9"/>
</g>
<!-- Node24 -->
<g id="node24" class="node">
<title>Node24</title>
<g id="a_node24"><a xlink:href="../../d3/d49/vpattern_8cpp.html" target="_top" xlink:title=" ">
<polygon fill="white" stroke="black" points="1789,-56.5 1789,-86.5 1914,-86.5 1914,-56.5 1789,-56.5"/>
<text text-anchor="start" x="1797" y="-74.5" font-family="Helvetica,sans-Serif" font-size="10.00">src/app/seamly2d/xml</text>
<text text-anchor="middle" x="1851.5" y="-63.5" font-family="Helvetica,sans-Serif" font-size="10.00">/vpattern.cpp</text>
</a>
</g>
</g>
<!-- Node2&#45;&gt;Node24 -->
<g id="edge23" class="edge">
<title>Node2&#45;&gt;Node24</title>
<path fill="none" stroke="midnightblue" d="M1742.53,-119.41C1766.64,-109.03 1796.45,-96.2 1818.8,-86.58"/>
<polygon fill="midnightblue" stroke="midnightblue" points="1741.07,-116.23 1733.26,-123.4 1743.83,-122.66 1741.07,-116.23"/>
</g>
<!-- Node25&#45;&gt;Node15 -->
<g id="edge31" class="edge">
<title>Node25&#45;&gt;Node15</title>
<path fill="none" stroke="midnightblue" d="M3765.5,-113.11C3765.5,-104.15 3765.5,-94.32 3765.5,-86.58"/>
<polygon fill="midnightblue" stroke="midnightblue" points="3762,-113.4 3765.5,-123.4 3769,-113.4 3762,-113.4"/>
</g>
<!-- Node26 -->
<g id="node26" class="node">
<title>Node26</title>
<g id="a_node26"><a xlink:href="../../d6/d64/dialogs_8h.html" target="_top" xlink:title=" ">
<polygon fill="white" stroke="black" points="3861,-56.5 3861,-86.5 4002,-86.5 4002,-56.5 3861,-56.5"/>
<text text-anchor="start" x="3869" y="-74.5" font-family="Helvetica,sans-Serif" font-size="10.00">src/app/seamly2d/dialogs</text>
<text text-anchor="middle" x="3931.5" y="-63.5" font-family="Helvetica,sans-Serif" font-size="10.00">/dialogs.h</text>
</a>
</g>
</g>
<!-- Node25&#45;&gt;Node26 -->
<g id="edge29" class="edge">
<title>Node25&#45;&gt;Node26</title>
<path fill="none" stroke="midnightblue" d="M3811.01,-119.68C3837.63,-109.26 3870.77,-96.28 3895.55,-86.58"/>
<polygon fill="midnightblue" stroke="midnightblue" points="3809.55,-116.49 3801.52,-123.4 3812.11,-123.01 3809.55,-116.49"/>
</g>
<!-- Node26&#45;&gt;Node23 -->
<g id="edge30" class="edge">
<title>Node26&#45;&gt;Node23</title>
<path fill="none" stroke="midnightblue" d="M3931.5,-46.29C3931.5,-36.86 3931.5,-26.65 3931.5,-19.66"/>
<polygon fill="midnightblue" stroke="midnightblue" points="3928,-46.4 3931.5,-56.4 3935,-46.4 3928,-46.4"/>
</g>
</g>
</svg>
