<?xml version="1.0" encoding="UTF-8" standalone="no"?>
<!DOCTYPE svg PUBLIC "-//W3C//DTD SVG 1.1//EN"
 "http://www.w3.org/Graphics/SVG/1.1/DTD/svg11.dtd">
<!-- Generated by graphviz version 2.43.0 (0)
 -->
<!-- Title: src/app/seamly2d/options.h Pages: 1 -->
<svg width="4032pt" height="218pt"
 viewBox="0.00 0.00 4031.50 218.00" xmlns="http://www.w3.org/2000/svg" xmlns:xlink="http://www.w3.org/1999/xlink">
<g id="graph0" class="graph" transform="scale(1 1) rotate(0) translate(4 214)">
<title>src/app/seamly2d/options.h</title>
<polygon fill="white" stroke="transparent" points="-4,4 -4,-214 4027.5,-214 4027.5,4 -4,4"/>
<!-- Node1 -->
<g id="node1" class="node">
<title>Node1</title>
<g id="a_node1"><a xlink:title=" ">
<polygon fill="#bfbfbf" stroke="black" points="2619,-190.5 2619,-209.5 2770,-209.5 2770,-190.5 2619,-190.5"/>
<text text-anchor="middle" x="2694.5" y="-197.5" font-family="Helvetica,sans-Serif" font-size="10.00">src/app/seamly2d/options.h</text>
</a>
</g>
</g>
<!-- Node2 -->
<g id="node2" class="node">
<title>Node2</title>
<g id="a_node2"><a xlink:href="../../d9/d02/vapplication_8h.html" target="_top" xlink:title=" ">
<polygon fill="white" stroke="black" points="1891,-123.5 1891,-153.5 2018,-153.5 2018,-123.5 1891,-123.5"/>
<text text-anchor="start" x="1899" y="-141.5" font-family="Helvetica,sans-Serif" font-size="10.00">src/app/seamly2d/core</text>
<text text-anchor="middle" x="1954.5" y="-130.5" font-family="Helvetica,sans-Serif" font-size="10.00">/vapplication.h</text>
</a>
</g>
</g>
<!-- Node1&#45;&gt;Node2 -->
<g id="edge1" class="edge">
<title>Node1&#45;&gt;Node2</title>
<path fill="none" stroke="midnightblue" d="M2608.68,-192.1C2458.42,-180.02 2151.05,-155.3 2018.11,-144.61"/>
<polygon fill="midnightblue" stroke="midnightblue" points="2608.54,-195.6 2618.78,-192.91 2609.1,-188.62 2608.54,-195.6"/>
</g>
<!-- Node5 -->
<g id="node5" class="node">
<title>Node5</title>
<g id="a_node5"><a xlink:href="../../d7/dfa/calculator__dialog_8cpp.html" target="_top" xlink:title=" ">
<polygon fill="white" stroke="black" points="0,-56.5 0,-86.5 141,-86.5 141,-56.5 0,-56.5"/>
<text text-anchor="start" x="8" y="-74.5" font-family="Helvetica,sans-Serif" font-size="10.00">src/app/seamly2d/dialogs</text>
<text text-anchor="middle" x="70.5" y="-63.5" font-family="Helvetica,sans-Serif" font-size="10.00">/calculator_dialog.cpp</text>
</a>
</g>
</g>
<!-- Node1&#45;&gt;Node5 -->
<g id="edge24" class="edge">
<title>Node1&#45;&gt;Node5</title>
<path fill="none" stroke="midnightblue" d="M2608.63,-198.04C2281.76,-194.21 1114.97,-179.08 744.5,-154 478.99,-136.02 412.75,-125.93 149.5,-87 146.74,-86.59 143.93,-86.16 141.09,-85.71"/>
<polygon fill="midnightblue" stroke="midnightblue" points="2608.94,-201.54 2618.98,-198.16 2609.02,-194.54 2608.94,-201.54"/>
</g>
<!-- Node6 -->
<g id="node6" class="node">
<title>Node6</title>
<g id="a_node6"><a xlink:href="../../dc/d20/preferencespathpage_8cpp.html" target="_top" xlink:title=" ">
<polygon fill="white" stroke="black" points="159,-56.5 159,-86.5 364,-86.5 364,-56.5 159,-56.5"/>
<text text-anchor="start" x="167" y="-74.5" font-family="Helvetica,sans-Serif" font-size="10.00">src/app/seamly2d/dialogs</text>
<text text-anchor="middle" x="261.5" y="-63.5" font-family="Helvetica,sans-Serif" font-size="10.00">/configpages/preferencespathpage.cpp</text>
</a>
</g>
</g>
<!-- Node1&#45;&gt;Node6 -->
<g id="edge25" class="edge">
<title>Node1&#45;&gt;Node6</title>
<path fill="none" stroke="midnightblue" d="M2608.69,-197.72C2383.93,-194.09 1759.59,-182.05 1240.5,-154 854.14,-133.12 757.36,-126.96 372.5,-87 369.79,-86.72 367.05,-86.43 364.29,-86.12"/>
<polygon fill="midnightblue" stroke="midnightblue" points="2608.71,-201.23 2618.76,-197.89 2608.82,-194.23 2608.71,-201.23"/>
</g>
<!-- Node10 -->
<g id="node10" class="node">
<title>Node10</title>
<g id="a_node10"><a xlink:href="../../dd/d64/dialogaboutapp_8cpp.html" target="_top" xlink:title=" ">
<polygon fill="white" stroke="black" points="382,-56.5 382,-86.5 523,-86.5 523,-56.5 382,-56.5"/>
<text text-anchor="start" x="390" y="-74.5" font-family="Helvetica,sans-Serif" font-size="10.00">src/app/seamly2d/dialogs</text>
<text text-anchor="middle" x="452.5" y="-63.5" font-family="Helvetica,sans-Serif" font-size="10.00">/dialogaboutapp.cpp</text>
</a>
</g>
</g>
<!-- Node1&#45;&gt;Node10 -->
<g id="edge26" class="edge">
<title>Node1&#45;&gt;Node10</title>
<path fill="none" stroke="midnightblue" d="M2608.83,-194.64C2210.52,-174.35 557.77,-90.08 531.5,-87 528.73,-86.68 525.91,-86.31 523.07,-85.92"/>
<polygon fill="midnightblue" stroke="midnightblue" points="2608.69,-198.14 2618.85,-195.15 2609.04,-191.15 2608.69,-198.14"/>
</g>
<!-- Node15 -->
<g id="node15" class="node">
<title>Node15</title>
<g id="a_node15"><a xlink:href="../../d6/d89/dialoglayoutprogress_8cpp.html" target="_top" xlink:title=" ">
<polygon fill="white" stroke="black" points="3364,-56.5 3364,-86.5 3507,-86.5 3507,-56.5 3364,-56.5"/>
<text text-anchor="start" x="3372" y="-74.5" font-family="Helvetica,sans-Serif" font-size="10.00">src/app/seamly2d/dialogs</text>
<text text-anchor="middle" x="3435.5" y="-63.5" font-family="Helvetica,sans-Serif" font-size="10.00">/dialoglayoutprogress.cpp</text>
</a>
</g>
</g>
<!-- Node1&#45;&gt;Node15 -->
<g id="edge31" class="edge">
<title>Node1&#45;&gt;Node15</title>
<path fill="none" stroke="midnightblue" d="M2754.75,-188.71C2890.2,-165.59 3218.28,-109.58 3363.87,-84.73"/>
<polygon fill="midnightblue" stroke="midnightblue" points="2753.83,-185.32 2744.56,-190.45 2755.01,-192.22 2753.83,-185.32"/>
</g>
<!-- Node16 -->
<g id="node16" class="node">
<title>Node16</title>
<g id="a_node16"><a xlink:href="../../dd/d54/export__layout__dialog_8cpp.html" target="_top" xlink:title=" ">
<polygon fill="white" stroke="black" points="3525,-56.5 3525,-86.5 3668,-86.5 3668,-56.5 3525,-56.5"/>
<text text-anchor="start" x="3533" y="-74.5" font-family="Helvetica,sans-Serif" font-size="10.00">src/app/seamly2d/dialogs</text>
<text text-anchor="middle" x="3596.5" y="-63.5" font-family="Helvetica,sans-Serif" font-size="10.00">/export_layout_dialog.cpp</text>
</a>
</g>
</g>
<!-- Node1&#45;&gt;Node16 -->
<g id="edge32" class="edge">
<title>Node1&#45;&gt;Node16</title>
<path fill="none" stroke="midnightblue" d="M2780.14,-189.4C2856,-180.73 2969.72,-167.33 3068.5,-154 3268.02,-127.08 3317.87,-119.85 3516.5,-87 3519.29,-86.54 3522.12,-86.06 3524.99,-85.57"/>
<polygon fill="midnightblue" stroke="midnightblue" points="2779.69,-185.93 2770.15,-190.54 2780.49,-192.89 2779.69,-185.93"/>
</g>
<!-- Node24 -->
<g id="node24" class="node">
<title>Node24</title>
<g id="a_node24"><a xlink:href="../../d8/dd9/mainwindow_8cpp.html" target="_top" xlink:title=" ">
<polygon fill="white" stroke="black" points="3835.5,-0.5 3835.5,-19.5 4023.5,-19.5 4023.5,-0.5 3835.5,-0.5"/>
<text text-anchor="middle" x="3929.5" y="-7.5" font-family="Helvetica,sans-Serif" font-size="10.00">src/app/seamly2d/mainwindow.cpp</text>
</a>
</g>
</g>
<!-- Node1&#45;&gt;Node24 -->
<g id="edge33" class="edge">
<title>Node1&#45;&gt;Node24</title>
<path fill="none" stroke="midnightblue" d="M2780.33,-199.47C3011.2,-200.13 3641.7,-197.74 3844.5,-154 3921.87,-137.31 3965.3,-152.66 4009.5,-87 4017.19,-75.57 4016.46,-67.89 4009.5,-56 3998.8,-37.71 3977.63,-26.27 3959.75,-19.51"/>
<polygon fill="midnightblue" stroke="midnightblue" points="2780.31,-195.97 2770.3,-199.44 2780.29,-202.97 2780.31,-195.97"/>
</g>
<!-- Node25 -->
<g id="node25" class="node">
<title>Node25</title>
<g id="a_node25"><a xlink:href="../../d5/d4e/dialogpatternproperties_8h.html" target="_top" xlink:title=" ">
<polygon fill="white" stroke="black" points="3692,-123.5 3692,-153.5 3835,-153.5 3835,-123.5 3692,-123.5"/>
<text text-anchor="start" x="3700" y="-141.5" font-family="Helvetica,sans-Serif" font-size="10.00">src/app/seamly2d/dialogs</text>
<text text-anchor="middle" x="3763.5" y="-130.5" font-family="Helvetica,sans-Serif" font-size="10.00">/dialogpatternproperties.h</text>
</a>
</g>
</g>
<!-- Node1&#45;&gt;Node25 -->
<g id="edge27" class="edge">
<title>Node1&#45;&gt;Node25</title>
<path fill="none" stroke="midnightblue" d="M2780.21,-194.23C2985.33,-182.81 3501.47,-154.08 3691.67,-143.5"/>
<polygon fill="midnightblue" stroke="midnightblue" points="2779.89,-190.74 2770.1,-194.79 2780.28,-197.73 2779.89,-190.74"/>
</g>
<!-- Node3 -->
<g id="node3" class="node">
<title>Node3</title>
<g id="a_node3"><a xlink:href="../../d3/dd8/vapplication_8cpp.html" target="_top" xlink:title=" ">
<polygon fill="white" stroke="black" points="1891,-56.5 1891,-86.5 2018,-86.5 2018,-56.5 1891,-56.5"/>
<text text-anchor="start" x="1899" y="-74.5" font-family="Helvetica,sans-Serif" font-size="10.00">src/app/seamly2d/core</text>
<text text-anchor="middle" x="1954.5" y="-63.5" font-family="Helvetica,sans-Serif" font-size="10.00">/vapplication.cpp</text>
</a>
</g>
</g>
<!-- Node2&#45;&gt;Node3 -->
<g id="edge2" class="edge">
<title>Node2&#45;&gt;Node3</title>
<path fill="none" stroke="midnightblue" d="M1954.5,-113.11C1954.5,-104.15 1954.5,-94.32 1954.5,-86.58"/>
<polygon fill="midnightblue" stroke="midnightblue" points="1951,-113.4 1954.5,-123.4 1958,-113.4 1951,-113.4"/>
</g>
<!-- Node4 -->
<g id="node4" class="node">
<title>Node4</title>
<g id="a_node4"><a xlink:href="../../dd/db4/abstractlayout__dialog_8cpp.html" target="_top" xlink:title=" ">
<polygon fill="white" stroke="black" points="2036.5,-56.5 2036.5,-86.5 2182.5,-86.5 2182.5,-56.5 2036.5,-56.5"/>
<text text-anchor="start" x="2044.5" y="-74.5" font-family="Helvetica,sans-Serif" font-size="10.00">src/app/seamly2d/dialogs</text>
<text text-anchor="middle" x="2109.5" y="-63.5" font-family="Helvetica,sans-Serif" font-size="10.00">/abstractlayout_dialog.cpp</text>
</a>
</g>
</g>
<!-- Node2&#45;&gt;Node4 -->
<g id="edge3" class="edge">
<title>Node2&#45;&gt;Node4</title>
<path fill="none" stroke="midnightblue" d="M1997.65,-119.41C2022.39,-109.03 2053,-96.2 2075.93,-86.58"/>
<polygon fill="midnightblue" stroke="midnightblue" points="1996,-116.3 1988.13,-123.4 1998.71,-122.76 1996,-116.3"/>
</g>
<!-- Node2&#45;&gt;Node5 -->
<g id="edge4" class="edge">
<title>Node2&#45;&gt;Node5</title>
<path fill="none" stroke="midnightblue" d="M1880.86,-136.95C1586.48,-134.51 493.63,-123.18 149.5,-87 146.73,-86.71 143.9,-86.37 141.06,-86"/>
<polygon fill="midnightblue" stroke="midnightblue" points="1880.96,-140.45 1890.99,-137.03 1881.02,-133.45 1880.96,-140.45"/>
</g>
<!-- Node2&#45;&gt;Node6 -->
<g id="edge5" class="edge">
<title>Node2&#45;&gt;Node6</title>
<path fill="none" stroke="midnightblue" d="M1880.74,-136.11C1610,-130.84 671.31,-111.23 372.5,-87 369.79,-86.78 367.04,-86.54 364.27,-86.29"/>
<polygon fill="midnightblue" stroke="midnightblue" points="1880.78,-139.61 1890.85,-136.3 1880.91,-132.61 1880.78,-139.61"/>
</g>
<!-- Node7 -->
<g id="node7" class="node">
<title>Node7</title>
<g id="a_node7"><a xlink:href="../../d9/d70/preferencesgraphicsviewpage_8cpp.html" target="_top" xlink:title=" ">
<polygon fill="white" stroke="black" points="2200.5,-56.5 2200.5,-86.5 2448.5,-86.5 2448.5,-56.5 2200.5,-56.5"/>
<text text-anchor="start" x="2208.5" y="-74.5" font-family="Helvetica,sans-Serif" font-size="10.00">src/app/seamly2d/dialogs</text>
<text text-anchor="middle" x="2324.5" y="-63.5" font-family="Helvetica,sans-Serif" font-size="10.00">/configpages/preferencesgraphicsviewpage.cpp</text>
</a>
</g>
</g>
<!-- Node2&#45;&gt;Node7 -->
<g id="edge6" class="edge">
<title>Node2&#45;&gt;Node7</title>
<path fill="none" stroke="midnightblue" d="M2028.29,-124.54C2090.86,-113.54 2180.42,-97.81 2244.65,-86.53"/>
<polygon fill="midnightblue" stroke="midnightblue" points="2027.35,-121.15 2018.11,-126.33 2028.56,-128.04 2027.35,-121.15"/>
</g>
<!-- Node8 -->
<g id="node8" class="node">
<title>Node8</title>
<g id="a_node8"><a xlink:href="../../dd/dc2/decimalchart__dialog_8cpp.html" target="_top" xlink:title=" ">
<polygon fill="white" stroke="black" points="2467,-56.5 2467,-86.5 2608,-86.5 2608,-56.5 2467,-56.5"/>
<text text-anchor="start" x="2475" y="-74.5" font-family="Helvetica,sans-Serif" font-size="10.00">src/app/seamly2d/dialogs</text>
<text text-anchor="middle" x="2537.5" y="-63.5" font-family="Helvetica,sans-Serif" font-size="10.00">/decimalchart_dialog.cpp</text>
</a>
</g>
</g>
<!-- Node2&#45;&gt;Node8 -->
<g id="edge7" class="edge">
<title>Node2&#45;&gt;Node8</title>
<path fill="none" stroke="midnightblue" d="M2028.34,-131.93C2126.58,-124.1 2305.57,-108.36 2457.5,-87 2460.58,-86.57 2463.71,-86.1 2466.88,-85.61"/>
<polygon fill="midnightblue" stroke="midnightblue" points="2027.91,-128.45 2018.22,-132.73 2028.46,-135.43 2027.91,-128.45"/>
</g>
<!-- Node9 -->
<g id="node9" class="node">
<title>Node9</title>
<g id="a_node9"><a xlink:href="../../d2/d2d/preferencesconfigurationpage_8cpp.html" target="_top" xlink:title=" ">
<polygon fill="white" stroke="black" points="2626,-56.5 2626,-86.5 2873,-86.5 2873,-56.5 2626,-56.5"/>
<text text-anchor="start" x="2634" y="-74.5" font-family="Helvetica,sans-Serif" font-size="10.00">src/app/seamly2d/dialogs</text>
<text text-anchor="middle" x="2749.5" y="-63.5" font-family="Helvetica,sans-Serif" font-size="10.00">/configpages/preferencesconfigurationpage.cpp</text>
</a>
</g>
</g>
<!-- Node2&#45;&gt;Node9 -->
<g id="edge8" class="edge">
<title>Node2&#45;&gt;Node9</title>
<path fill="none" stroke="midnightblue" d="M2028,-132.68C2150.23,-124.48 2403,-106.78 2616.5,-87 2619.62,-86.71 2622.79,-86.41 2625.98,-86.1"/>
<polygon fill="midnightblue" stroke="midnightblue" points="2027.74,-129.18 2018,-133.34 2028.21,-136.17 2027.74,-129.18"/>
</g>
<!-- Node2&#45;&gt;Node10 -->
<g id="edge9" class="edge">
<title>Node2&#45;&gt;Node10</title>
<path fill="none" stroke="midnightblue" d="M1880.37,-133.45C1821.36,-130.32 1736.66,-126.02 1662.5,-123 1160,-102.53 1031.56,-140.55 531.5,-87 528.73,-86.7 525.91,-86.36 523.06,-85.99"/>
<polygon fill="midnightblue" stroke="midnightblue" points="1880.55,-136.97 1890.72,-134.01 1880.92,-129.98 1880.55,-136.97"/>
</g>
<!-- Node11 -->
<g id="node11" class="node">
<title>Node11</title>
<g id="a_node11"><a xlink:href="../../dc/d63/preferencespatternpage_8cpp.html" target="_top" xlink:title=" ">
<polygon fill="white" stroke="black" points="2891.5,-56.5 2891.5,-86.5 3109.5,-86.5 3109.5,-56.5 2891.5,-56.5"/>
<text text-anchor="start" x="2899.5" y="-74.5" font-family="Helvetica,sans-Serif" font-size="10.00">src/app/seamly2d/dialogs</text>
<text text-anchor="middle" x="3000.5" y="-63.5" font-family="Helvetica,sans-Serif" font-size="10.00">/configpages/preferencespatternpage.cpp</text>
</a>
</g>
</g>
<!-- Node2&#45;&gt;Node11 -->
<g id="edge10" class="edge">
<title>Node2&#45;&gt;Node11</title>
<path fill="none" stroke="midnightblue" d="M2028.12,-135.16C2185.16,-129.81 2564.54,-114.91 2881.5,-87 2884.71,-86.72 2887.97,-86.42 2891.26,-86.1"/>
<polygon fill="midnightblue" stroke="midnightblue" points="2027.98,-131.66 2018.1,-135.5 2028.22,-138.66 2027.98,-131.66"/>
</g>
<!-- Node12 -->
<g id="node12" class="node">
<title>Node12</title>
<g id="a_node12"><a xlink:href="../../d2/d00/vtooloptionspropertybrowser_8cpp.html" target="_top" xlink:title=" ">
<polygon fill="white" stroke="black" points="3127.5,-56.5 3127.5,-86.5 3307.5,-86.5 3307.5,-56.5 3127.5,-56.5"/>
<text text-anchor="start" x="3135.5" y="-74.5" font-family="Helvetica,sans-Serif" font-size="10.00">src/app/seamly2d/core</text>
<text text-anchor="middle" x="3217.5" y="-63.5" font-family="Helvetica,sans-Serif" font-size="10.00">/vtooloptionspropertybrowser.cpp</text>
</a>
</g>
</g>
<!-- Node2&#45;&gt;Node12 -->
<g id="edge11" class="edge">
<title>Node2&#45;&gt;Node12</title>
<path fill="none" stroke="midnightblue" d="M2028.17,-136.91C2212.37,-134.87 2707.66,-125.9 3118.5,-87 3121.44,-86.72 3124.43,-86.42 3127.44,-86.09"/>
<polygon fill="midnightblue" stroke="midnightblue" points="2028.02,-133.41 2018.06,-137.02 2028.1,-140.41 2028.02,-133.41"/>
</g>
<!-- Node13 -->
<g id="node13" class="node">
<title>Node13</title>
<g id="a_node13"><a xlink:href="../../d5/d18/dialogpatternproperties_8cpp.html" target="_top" xlink:title=" ">
<polygon fill="white" stroke="black" points="3686,-56.5 3686,-86.5 3841,-86.5 3841,-56.5 3686,-56.5"/>
<text text-anchor="start" x="3694" y="-74.5" font-family="Helvetica,sans-Serif" font-size="10.00">src/app/seamly2d/dialogs</text>
<text text-anchor="middle" x="3763.5" y="-63.5" font-family="Helvetica,sans-Serif" font-size="10.00">/dialogpatternproperties.cpp</text>
</a>
</g>
</g>
<!-- Node2&#45;&gt;Node13 -->
<g id="edge12" class="edge">
<title>Node2&#45;&gt;Node13</title>
<path fill="none" stroke="midnightblue" d="M2028.54,-136.69C2314.92,-133.34 3350.22,-119.23 3677.5,-87 3680.21,-86.73 3682.97,-86.43 3685.75,-86.1"/>
<polygon fill="midnightblue" stroke="midnightblue" points="2028.23,-133.19 2018.27,-136.81 2028.31,-140.19 2028.23,-133.19"/>
</g>
<!-- Node14 -->
<g id="node14" class="node">
<title>Node14</title>
<g id="a_node14"><a xlink:href="../../d5/dc5/dialogpreferences_8cpp.html" target="_top" xlink:title=" ">
<polygon fill="white" stroke="black" points="541,-56.5 541,-86.5 682,-86.5 682,-56.5 541,-56.5"/>
<text text-anchor="start" x="549" y="-74.5" font-family="Helvetica,sans-Serif" font-size="10.00">src/app/seamly2d/dialogs</text>
<text text-anchor="middle" x="611.5" y="-63.5" font-family="Helvetica,sans-Serif" font-size="10.00">/dialogpreferences.cpp</text>
</a>
</g>
</g>
<!-- Node2&#45;&gt;Node14 -->
<g id="edge13" class="edge">
<title>Node2&#45;&gt;Node14</title>
<path fill="none" stroke="midnightblue" d="M1880.65,-133.58C1821.63,-130.5 1736.77,-126.22 1662.5,-123 1230.61,-104.28 1120.22,-134.14 690.5,-87 687.73,-86.7 684.91,-86.35 682.06,-85.97"/>
<polygon fill="midnightblue" stroke="midnightblue" points="1880.83,-137.09 1891,-134.12 1881.2,-130.1 1880.83,-137.09"/>
</g>
<!-- Node2&#45;&gt;Node15 -->
<g id="edge14" class="edge">
<title>Node2&#45;&gt;Node15</title>
<path fill="none" stroke="midnightblue" d="M2028.53,-138.22C2237,-139.52 2846.57,-138.28 3349.5,-87 3354.17,-86.52 3358.97,-85.95 3363.8,-85.31"/>
<polygon fill="midnightblue" stroke="midnightblue" points="2028.34,-134.72 2018.32,-138.15 2028.29,-141.72 2028.34,-134.72"/>
</g>
<!-- Node2&#45;&gt;Node16 -->
<g id="edge15" class="edge">
<title>Node2&#45;&gt;Node16</title>
<path fill="none" stroke="midnightblue" d="M2028.29,-136.55C2296.94,-132.89 3222.48,-118.23 3516.5,-87 3519.17,-86.72 3521.88,-86.4 3524.61,-86.04"/>
<polygon fill="midnightblue" stroke="midnightblue" points="2028.2,-133.05 2018.25,-136.69 2028.3,-140.05 2028.2,-133.05"/>
</g>
<!-- Node17 -->
<g id="node17" class="node">
<title>Node17</title>
<g id="a_node17"><a xlink:href="../../d0/dfa/layoutsettings__dialog_8cpp.html" target="_top" xlink:title=" ">
<polygon fill="white" stroke="black" points="700,-56.5 700,-86.5 845,-86.5 845,-56.5 700,-56.5"/>
<text text-anchor="start" x="708" y="-74.5" font-family="Helvetica,sans-Serif" font-size="10.00">src/app/seamly2d/dialogs</text>
<text text-anchor="middle" x="772.5" y="-63.5" font-family="Helvetica,sans-Serif" font-size="10.00">/layoutsettings_dialog.cpp</text>
</a>
</g>
</g>
<!-- Node2&#45;&gt;Node17 -->
<g id="edge16" class="edge">
<title>Node2&#45;&gt;Node17</title>
<path fill="none" stroke="midnightblue" d="M1880.65,-133.73C1821.62,-130.74 1736.75,-126.5 1662.5,-123 1302.99,-106.07 1211.2,-126.8 853.5,-87 850.8,-86.7 848.06,-86.36 845.29,-86"/>
<polygon fill="midnightblue" stroke="midnightblue" points="1880.83,-137.24 1890.99,-134.25 1881.18,-130.25 1880.83,-137.24"/>
</g>
<!-- Node18 -->
<g id="node18" class="node">
<title>Node18</title>
<g id="a_node18"><a xlink:href="../../db/d5c/groups__widget_8cpp.html" target="_top" xlink:title=" ">
<polygon fill="white" stroke="black" points="863,-56.5 863,-86.5 1004,-86.5 1004,-56.5 863,-56.5"/>
<text text-anchor="start" x="871" y="-74.5" font-family="Helvetica,sans-Serif" font-size="10.00">src/app/seamly2d/dialogs</text>
<text text-anchor="middle" x="933.5" y="-63.5" font-family="Helvetica,sans-Serif" font-size="10.00">/groups_widget.cpp</text>
</a>
</g>
</g>
<!-- Node2&#45;&gt;Node18 -->
<g id="edge17" class="edge">
<title>Node2&#45;&gt;Node18</title>
<path fill="none" stroke="midnightblue" d="M1880.77,-133.81C1666.34,-123.03 1055.36,-92.06 1012.5,-87 1009.73,-86.67 1006.91,-86.31 1004.07,-85.91"/>
<polygon fill="midnightblue" stroke="midnightblue" points="1880.82,-137.31 1890.98,-134.32 1881.17,-130.32 1880.82,-137.31"/>
</g>
<!-- Node19 -->
<g id="node19" class="node">
<title>Node19</title>
<g id="a_node19"><a xlink:href="../../dd/d84/shortcuts__dialog_8cpp.html" target="_top" xlink:title=" ">
<polygon fill="white" stroke="black" points="1022,-56.5 1022,-86.5 1163,-86.5 1163,-56.5 1022,-56.5"/>
<text text-anchor="start" x="1030" y="-74.5" font-family="Helvetica,sans-Serif" font-size="10.00">src/app/seamly2d/dialogs</text>
<text text-anchor="middle" x="1092.5" y="-63.5" font-family="Helvetica,sans-Serif" font-size="10.00">/shortcuts_dialog.cpp</text>
</a>
</g>
</g>
<!-- Node2&#45;&gt;Node19 -->
<g id="edge18" class="edge">
<title>Node2&#45;&gt;Node19</title>
<path fill="none" stroke="midnightblue" d="M1880.52,-133.84C1712.74,-125.36 1307.39,-103.8 1171.5,-87 1168.73,-86.66 1165.91,-86.28 1163.07,-85.88"/>
<polygon fill="midnightblue" stroke="midnightblue" points="1880.58,-137.35 1890.74,-134.35 1880.93,-130.36 1880.58,-137.35"/>
</g>
<!-- Node20 -->
<g id="node20" class="node">
<title>Node20</title>
<g id="a_node20"><a xlink:href="../../dc/d14/app_2seamly2d_2main_8cpp.html" target="_top" xlink:title=" ">
<polygon fill="white" stroke="black" points="1181,-62 1181,-81 1332,-81 1332,-62 1181,-62"/>
<text text-anchor="middle" x="1256.5" y="-69" font-family="Helvetica,sans-Serif" font-size="10.00">src/app/seamly2d/main.cpp</text>
</a>
</g>
</g>
<!-- Node2&#45;&gt;Node20 -->
<g id="edge19" class="edge">
<title>Node2&#45;&gt;Node20</title>
<path fill="none" stroke="midnightblue" d="M1880.52,-133.54C1764.93,-126.89 1534.64,-111.69 1340.5,-87 1327.87,-85.39 1314.25,-83.23 1301.73,-81.07"/>
<polygon fill="midnightblue" stroke="midnightblue" points="1880.48,-137.05 1890.66,-134.12 1880.88,-130.06 1880.48,-137.05"/>
</g>
<!-- Node21 -->
<g id="node21" class="node">
<title>Node21</title>
<g id="a_node21"><a xlink:href="../../d2/df4/show__info__dialog_8cpp.html" target="_top" xlink:title=" ">
<polygon fill="white" stroke="black" points="1350,-56.5 1350,-86.5 1491,-86.5 1491,-56.5 1350,-56.5"/>
<text text-anchor="start" x="1358" y="-74.5" font-family="Helvetica,sans-Serif" font-size="10.00">src/app/seamly2d/dialogs</text>
<text text-anchor="middle" x="1420.5" y="-63.5" font-family="Helvetica,sans-Serif" font-size="10.00">/show_info_dialog.cpp</text>
</a>
</g>
</g>
<!-- Node2&#45;&gt;Node21 -->
<g id="edge20" class="edge">
<title>Node2&#45;&gt;Node21</title>
<path fill="none" stroke="midnightblue" d="M1880.52,-130.92C1790.31,-122.51 1633.32,-106.68 1499.5,-87 1496.74,-86.59 1493.93,-86.16 1491.09,-85.71"/>
<polygon fill="midnightblue" stroke="midnightblue" points="1880.36,-134.42 1890.64,-131.85 1881.01,-127.45 1880.36,-134.42"/>
</g>
<!-- Node22 -->
<g id="node22" class="node">
<title>Node22</title>
<g id="a_node22"><a xlink:href="../../d8/de8/mainwindowsnogui_8cpp.html" target="_top" xlink:title=" ">
<polygon fill="white" stroke="black" points="1509,-62 1509,-81 1730,-81 1730,-62 1509,-62"/>
<text text-anchor="middle" x="1619.5" y="-69" font-family="Helvetica,sans-Serif" font-size="10.00">src/app/seamly2d/mainwindowsnogui.cpp</text>
</a>
</g>
</g>
<!-- Node2&#45;&gt;Node22 -->
<g id="edge21" class="edge">
<title>Node2&#45;&gt;Node22</title>
<path fill="none" stroke="midnightblue" d="M1880.69,-123.18C1814.14,-110.27 1718.5,-91.71 1663.32,-81"/>
<polygon fill="midnightblue" stroke="midnightblue" points="1880.22,-126.65 1890.7,-125.12 1881.55,-119.78 1880.22,-126.65"/>
</g>
<!-- Node23 -->
<g id="node23" class="node">
<title>Node23</title>
<g id="a_node23"><a xlink:href="../../d3/d49/vpattern_8cpp.html" target="_top" xlink:title=" ">
<polygon fill="white" stroke="black" points="1748,-56.5 1748,-86.5 1873,-86.5 1873,-56.5 1748,-56.5"/>
<text text-anchor="start" x="1756" y="-74.5" font-family="Helvetica,sans-Serif" font-size="10.00">src/app/seamly2d/xml</text>
<text text-anchor="middle" x="1810.5" y="-63.5" font-family="Helvetica,sans-Serif" font-size="10.00">/vpattern.cpp</text>
</a>
</g>
</g>
<!-- Node2&#45;&gt;Node23 -->
<g id="edge22" class="edge">
<title>Node2&#45;&gt;Node23</title>
<path fill="none" stroke="midnightblue" d="M1914.11,-119.27C1891.18,-108.92 1862.9,-96.15 1841.68,-86.58"/>
<polygon fill="midnightblue" stroke="midnightblue" points="1912.7,-122.47 1923.25,-123.4 1915.58,-116.09 1912.7,-122.47"/>
</g>
<!-- Node2&#45;&gt;Node24 -->
<g id="edge23" class="edge">
<title>Node2&#45;&gt;Node24</title>
<path fill="none" stroke="midnightblue" d="M2028.66,-137.45C2295.28,-136.89 3195.71,-131.69 3316.5,-87 3337.27,-79.32 3334.9,-64.11 3355.5,-56 3440.32,-22.62 3695.6,-13.96 3835.42,-11.74"/>
<polygon fill="midnightblue" stroke="midnightblue" points="2028.31,-133.95 2018.32,-137.47 2028.33,-140.95 2028.31,-133.95"/>
</g>
<!-- Node25&#45;&gt;Node13 -->
<g id="edge28" class="edge">
<title>Node25&#45;&gt;Node13</title>
<path fill="none" stroke="midnightblue" d="M3763.5,-113.11C3763.5,-104.15 3763.5,-94.32 3763.5,-86.58"/>
<polygon fill="midnightblue" stroke="midnightblue" points="3760,-113.4 3763.5,-123.4 3767,-113.4 3760,-113.4"/>
</g>
<!-- Node26 -->
<g id="node26" class="node">
<title>Node26</title>
<g id="a_node26"><a xlink:href="../../d6/d64/dialogs_8h.html" target="_top" xlink:title=" ">
<polygon fill="white" stroke="black" points="3859,-56.5 3859,-86.5 4000,-86.5 4000,-56.5 3859,-56.5"/>
<text text-anchor="start" x="3867" y="-74.5" font-family="Helvetica,sans-Serif" font-size="10.00">src/app/seamly2d/dialogs</text>
<text text-anchor="middle" x="3929.5" y="-63.5" font-family="Helvetica,sans-Serif" font-size="10.00">/dialogs.h</text>
</a>
</g>
</g>
<!-- Node25&#45;&gt;Node26 -->
<g id="edge29" class="edge">
<title>Node25&#45;&gt;Node26</title>
<path fill="none" stroke="midnightblue" d="M3809.01,-119.68C3835.63,-109.26 3868.77,-96.28 3893.55,-86.58"/>
<polygon fill="midnightblue" stroke="midnightblue" points="3807.55,-116.49 3799.52,-123.4 3810.11,-123.01 3807.55,-116.49"/>
</g>
<!-- Node26&#45;&gt;Node24 -->
<g id="edge30" class="edge">
<title>Node26&#45;&gt;Node24</title>
<path fill="none" stroke="midnightblue" d="M3929.5,-46.29C3929.5,-36.86 3929.5,-26.65 3929.5,-19.66"/>
<polygon fill="midnightblue" stroke="midnightblue" points="3926,-46.4 3929.5,-56.4 3933,-46.4 3926,-46.4"/>
</g>
</g>
</svg>
