<?xml version="1.0" encoding="UTF-8" standalone="no"?>
<!DOCTYPE svg PUBLIC "-//W3C//DTD SVG 1.1//EN"
 "http://www.w3.org/Graphics/SVG/1.1/DTD/svg11.dtd">
<!-- Generated by graphviz version 2.43.0 (0)
 -->
<!-- Title: src/app/seamly2d/options.h Pages: 1 -->
<svg width="4033pt" height="218pt"
 viewBox="0.00 0.00 4032.50 218.00" xmlns="http://www.w3.org/2000/svg" xmlns:xlink="http://www.w3.org/1999/xlink">
<g id="graph0" class="graph" transform="scale(1 1) rotate(0) translate(4 214)">
<title>src/app/seamly2d/options.h</title>
<polygon fill="white" stroke="transparent" points="-4,4 -4,-214 4028.5,-214 4028.5,4 -4,4"/>
<!-- Node1 -->
<g id="node1" class="node">
<title>Node1</title>
<g id="a_node1"><a xlink:title=" ">
<polygon fill="#bfbfbf" stroke="black" points="1439,-190.5 1439,-209.5 1590,-209.5 1590,-190.5 1439,-190.5"/>
<text text-anchor="middle" x="1514.5" y="-197.5" font-family="Helvetica,sans-Serif" font-size="10.00">src/app/seamly2d/options.h</text>
</a>
</g>
</g>
<!-- Node2 -->
<g id="node2" class="node">
<title>Node2</title>
<g id="a_node2"><a xlink:href="../../d9/d02/vapplication_8h.html" target="_top" xlink:title=" ">
<polygon fill="white" stroke="black" points="1752,-123.5 1752,-153.5 1879,-153.5 1879,-123.5 1752,-123.5"/>
<text text-anchor="start" x="1760" y="-141.5" font-family="Helvetica,sans-Serif" font-size="10.00">src/app/seamly2d/core</text>
<text text-anchor="middle" x="1815.5" y="-130.5" font-family="Helvetica,sans-Serif" font-size="10.00">/vapplication.h</text>
</a>
</g>
</g>
<!-- Node1&#45;&gt;Node2 -->
<g id="edge1" class="edge">
<title>Node1&#45;&gt;Node2</title>
<path fill="none" stroke="midnightblue" d="M1567.55,-188.51C1619.03,-178.34 1697.2,-162.88 1751.97,-152.06"/>
<polygon fill="midnightblue" stroke="midnightblue" points="1566.76,-185.1 1557.63,-190.48 1568.11,-191.97 1566.76,-185.1"/>
</g>
<!-- Node5 -->
<g id="node5" class="node">
<title>Node5</title>
<g id="a_node5"><a xlink:href="../../d7/dfa/calculator__dialog_8cpp.html" target="_top" xlink:title=" ">
<polygon fill="white" stroke="black" points="0,-56.5 0,-86.5 141,-86.5 141,-56.5 0,-56.5"/>
<text text-anchor="start" x="8" y="-74.5" font-family="Helvetica,sans-Serif" font-size="10.00">src/app/seamly2d/dialogs</text>
<text text-anchor="middle" x="70.5" y="-63.5" font-family="Helvetica,sans-Serif" font-size="10.00">/calculator_dialog.cpp</text>
</a>
</g>
</g>
<!-- Node1&#45;&gt;Node5 -->
<g id="edge24" class="edge">
<title>Node1&#45;&gt;Node5</title>
<path fill="none" stroke="midnightblue" d="M1428.75,-198.96C1256.22,-198.04 855.02,-191.61 520.5,-154 380.85,-138.3 219.19,-105.35 132.72,-86.51"/>
<polygon fill="midnightblue" stroke="midnightblue" points="1428.77,-202.46 1438.79,-199.01 1428.81,-195.46 1428.77,-202.46"/>
</g>
<!-- Node7 -->
<g id="node7" class="node">
<title>Node7</title>
<g id="a_node7"><a xlink:href="../../dc/d20/preferencespathpage_8cpp.html" target="_top" xlink:title=" ">
<polygon fill="white" stroke="black" points="159,-56.5 159,-86.5 364,-86.5 364,-56.5 159,-56.5"/>
<text text-anchor="start" x="167" y="-74.5" font-family="Helvetica,sans-Serif" font-size="10.00">src/app/seamly2d/dialogs</text>
<text text-anchor="middle" x="261.5" y="-63.5" font-family="Helvetica,sans-Serif" font-size="10.00">/configpages/preferencespathpage.cpp</text>
</a>
</g>
</g>
<!-- Node1&#45;&gt;Node7 -->
<g id="edge25" class="edge">
<title>Node1&#45;&gt;Node7</title>
<path fill="none" stroke="midnightblue" d="M1428.71,-197.29C1284.22,-193.7 983.29,-183.12 730.5,-154 586,-137.35 418.51,-105.07 327.94,-86.53"/>
<polygon fill="midnightblue" stroke="midnightblue" points="1428.76,-200.8 1438.84,-197.54 1428.93,-193.8 1428.76,-200.8"/>
</g>
<!-- Node11 -->
<g id="node11" class="node">
<title>Node11</title>
<g id="a_node11"><a xlink:href="../../dd/d64/dialogaboutapp_8cpp.html" target="_top" xlink:title=" ">
<polygon fill="white" stroke="black" points="382,-56.5 382,-86.5 523,-86.5 523,-56.5 382,-56.5"/>
<text text-anchor="start" x="390" y="-74.5" font-family="Helvetica,sans-Serif" font-size="10.00">src/app/seamly2d/dialogs</text>
<text text-anchor="middle" x="452.5" y="-63.5" font-family="Helvetica,sans-Serif" font-size="10.00">/dialogaboutapp.cpp</text>
</a>
</g>
</g>
<!-- Node1&#45;&gt;Node11 -->
<g id="edge26" class="edge">
<title>Node1&#45;&gt;Node11</title>
<path fill="none" stroke="midnightblue" d="M1428.37,-194.59C1315.4,-188.28 1111.13,-175.06 937.5,-154 755.95,-131.98 711.67,-118.4 531.5,-87 528.75,-86.52 525.95,-86.03 523.12,-85.53"/>
<polygon fill="midnightblue" stroke="midnightblue" points="1428.51,-198.11 1438.68,-195.16 1428.89,-191.12 1428.51,-198.11"/>
</g>
<!-- Node13 -->
<g id="node13" class="node">
<title>Node13</title>
<g id="a_node13"><a xlink:href="../../d6/d89/dialoglayoutprogress_8cpp.html" target="_top" xlink:title=" ">
<polygon fill="white" stroke="black" points="541,-56.5 541,-86.5 684,-86.5 684,-56.5 541,-56.5"/>
<text text-anchor="start" x="549" y="-74.5" font-family="Helvetica,sans-Serif" font-size="10.00">src/app/seamly2d/dialogs</text>
<text text-anchor="middle" x="612.5" y="-63.5" font-family="Helvetica,sans-Serif" font-size="10.00">/dialoglayoutprogress.cpp</text>
</a>
</g>
</g>
<!-- Node1&#45;&gt;Node13 -->
<g id="edge27" class="edge">
<title>Node1&#45;&gt;Node13</title>
<path fill="none" stroke="midnightblue" d="M1433.94,-189.22C1286.52,-171.04 963.55,-130.01 692.5,-87 689.71,-86.56 686.87,-86.1 684,-85.62"/>
<polygon fill="midnightblue" stroke="midnightblue" points="1433.9,-192.74 1444.25,-190.48 1434.75,-185.79 1433.9,-192.74"/>
</g>
<!-- Node16 -->
<g id="node16" class="node">
<title>Node16</title>
<g id="a_node16"><a xlink:href="../../dd/d54/export__layout__dialog_8cpp.html" target="_top" xlink:title=" ">
<polygon fill="white" stroke="black" points="3526,-56.5 3526,-86.5 3669,-86.5 3669,-56.5 3526,-56.5"/>
<text text-anchor="start" x="3534" y="-74.5" font-family="Helvetica,sans-Serif" font-size="10.00">src/app/seamly2d/dialogs</text>
<text text-anchor="middle" x="3597.5" y="-63.5" font-family="Helvetica,sans-Serif" font-size="10.00">/export_layout_dialog.cpp</text>
</a>
</g>
</g>
<!-- Node1&#45;&gt;Node16 -->
<g id="edge32" class="edge">
<title>Node1&#45;&gt;Node16</title>
<path fill="none" stroke="midnightblue" d="M1600.41,-197.59C1877.86,-192.3 2774.72,-169.52 3511.5,-87 3516.16,-86.48 3520.96,-85.87 3525.79,-85.2"/>
<polygon fill="midnightblue" stroke="midnightblue" points="1599.95,-194.1 1590.01,-197.78 1600.08,-201.09 1599.95,-194.1"/>
</g>
<!-- Node23 -->
<g id="node23" class="node">
<title>Node23</title>
<g id="a_node23"><a xlink:href="../../d8/dd9/mainwindow_8cpp.html" target="_top" xlink:title=" ">
<polygon fill="white" stroke="black" points="3836.5,-0.5 3836.5,-19.5 4024.5,-19.5 4024.5,-0.5 3836.5,-0.5"/>
<text text-anchor="middle" x="3930.5" y="-7.5" font-family="Helvetica,sans-Serif" font-size="10.00">src/app/seamly2d/mainwindow.cpp</text>
</a>
</g>
</g>
<!-- Node1&#45;&gt;Node23 -->
<g id="edge33" class="edge">
<title>Node1&#45;&gt;Node23</title>
<path fill="none" stroke="midnightblue" d="M1600.19,-199.2C1994.16,-199.85 3621.81,-199.72 3844.5,-154 3922.03,-138.08 3965.3,-152.66 4009.5,-87 4017.19,-75.57 4016.42,-67.91 4009.5,-56 3998.95,-37.85 3978.04,-26.41 3960.38,-19.61"/>
<polygon fill="midnightblue" stroke="midnightblue" points="1600.01,-195.7 1590,-199.18 1600,-202.7 1600.01,-195.7"/>
</g>
<!-- Node25 -->
<g id="node25" class="node">
<title>Node25</title>
<g id="a_node25"><a xlink:href="../../d5/d4e/dialogpatternproperties_8h.html" target="_top" xlink:title=" ">
<polygon fill="white" stroke="black" points="3693,-123.5 3693,-153.5 3836,-153.5 3836,-123.5 3693,-123.5"/>
<text text-anchor="start" x="3701" y="-141.5" font-family="Helvetica,sans-Serif" font-size="10.00">src/app/seamly2d/dialogs</text>
<text text-anchor="middle" x="3764.5" y="-130.5" font-family="Helvetica,sans-Serif" font-size="10.00">/dialogpatternproperties.h</text>
</a>
</g>
</g>
<!-- Node1&#45;&gt;Node25 -->
<g id="edge28" class="edge">
<title>Node1&#45;&gt;Node25</title>
<path fill="none" stroke="midnightblue" d="M1600.14,-196.74C1961.65,-187.18 3359.49,-150.21 3692.83,-141.4"/>
<polygon fill="midnightblue" stroke="midnightblue" points="1599.91,-193.24 1590,-197 1600.09,-200.24 1599.91,-193.24"/>
</g>
<!-- Node3 -->
<g id="node3" class="node">
<title>Node3</title>
<g id="a_node3"><a xlink:href="../../d3/dd8/vapplication_8cpp.html" target="_top" xlink:title=" ">
<polygon fill="white" stroke="black" points="2052,-56.5 2052,-86.5 2179,-86.5 2179,-56.5 2052,-56.5"/>
<text text-anchor="start" x="2060" y="-74.5" font-family="Helvetica,sans-Serif" font-size="10.00">src/app/seamly2d/core</text>
<text text-anchor="middle" x="2115.5" y="-63.5" font-family="Helvetica,sans-Serif" font-size="10.00">/vapplication.cpp</text>
</a>
</g>
</g>
<!-- Node2&#45;&gt;Node3 -->
<g id="edge2" class="edge">
<title>Node2&#45;&gt;Node3</title>
<path fill="none" stroke="midnightblue" d="M1889.21,-121.53C1939.11,-110.72 2004.36,-96.58 2051.97,-86.26"/>
<polygon fill="midnightblue" stroke="midnightblue" points="1888.15,-118.18 1879.12,-123.72 1889.64,-125.02 1888.15,-118.18"/>
</g>
<!-- Node4 -->
<g id="node4" class="node">
<title>Node4</title>
<g id="a_node4"><a xlink:href="../../dd/db4/abstractlayout__dialog_8cpp.html" target="_top" xlink:title=" ">
<polygon fill="white" stroke="black" points="2197.5,-56.5 2197.5,-86.5 2343.5,-86.5 2343.5,-56.5 2197.5,-56.5"/>
<text text-anchor="start" x="2205.5" y="-74.5" font-family="Helvetica,sans-Serif" font-size="10.00">src/app/seamly2d/dialogs</text>
<text text-anchor="middle" x="2270.5" y="-63.5" font-family="Helvetica,sans-Serif" font-size="10.00">/abstractlayout_dialog.cpp</text>
</a>
</g>
</g>
<!-- Node2&#45;&gt;Node4 -->
<g id="edge3" class="edge">
<title>Node2&#45;&gt;Node4</title>
<path fill="none" stroke="midnightblue" d="M1889.43,-128.31C1964.58,-118.76 2084.31,-103.01 2187.5,-87 2190.68,-86.51 2193.93,-85.99 2197.2,-85.46"/>
<polygon fill="midnightblue" stroke="midnightblue" points="1888.61,-124.88 1879.13,-129.61 1889.49,-131.83 1888.61,-124.88"/>
</g>
<!-- Node2&#45;&gt;Node5 -->
<g id="edge4" class="edge">
<title>Node2&#45;&gt;Node5</title>
<path fill="none" stroke="midnightblue" d="M1741.54,-136.75C1461.32,-133.66 464.82,-120.52 149.5,-87 146.73,-86.71 143.9,-86.37 141.06,-86"/>
<polygon fill="midnightblue" stroke="midnightblue" points="1741.56,-140.25 1751.6,-136.86 1741.64,-133.25 1741.56,-140.25"/>
</g>
<!-- Node6 -->
<g id="node6" class="node">
<title>Node6</title>
<g id="a_node6"><a xlink:href="../../d2/d2d/preferencesconfigurationpage_8cpp.html" target="_top" xlink:title=" ">
<polygon fill="white" stroke="black" points="2362,-56.5 2362,-86.5 2609,-86.5 2609,-56.5 2362,-56.5"/>
<text text-anchor="start" x="2370" y="-74.5" font-family="Helvetica,sans-Serif" font-size="10.00">src/app/seamly2d/dialogs</text>
<text text-anchor="middle" x="2485.5" y="-63.5" font-family="Helvetica,sans-Serif" font-size="10.00">/configpages/preferencesconfigurationpage.cpp</text>
</a>
</g>
</g>
<!-- Node2&#45;&gt;Node6 -->
<g id="edge5" class="edge">
<title>Node2&#45;&gt;Node6</title>
<path fill="none" stroke="midnightblue" d="M1889.22,-130.92C1992.74,-121.59 2187.06,-103.8 2352.5,-87 2355.62,-86.68 2358.78,-86.36 2361.97,-86.03"/>
<polygon fill="midnightblue" stroke="midnightblue" points="1888.83,-127.44 1879.18,-131.82 1889.45,-134.41 1888.83,-127.44"/>
</g>
<!-- Node2&#45;&gt;Node7 -->
<g id="edge6" class="edge">
<title>Node2&#45;&gt;Node7</title>
<path fill="none" stroke="midnightblue" d="M1741.6,-137.39C1528.7,-136.53 895.74,-130.23 372.5,-87 369.79,-86.78 367.04,-86.53 364.27,-86.27"/>
<polygon fill="midnightblue" stroke="midnightblue" points="1741.71,-140.89 1751.72,-137.42 1741.74,-133.89 1741.71,-140.89"/>
</g>
<!-- Node8 -->
<g id="node8" class="node">
<title>Node8</title>
<g id="a_node8"><a xlink:href="../../d9/d70/preferencesgraphicsviewpage_8cpp.html" target="_top" xlink:title=" ">
<polygon fill="white" stroke="black" points="2627.5,-56.5 2627.5,-86.5 2875.5,-86.5 2875.5,-56.5 2627.5,-56.5"/>
<text text-anchor="start" x="2635.5" y="-74.5" font-family="Helvetica,sans-Serif" font-size="10.00">src/app/seamly2d/dialogs</text>
<text text-anchor="middle" x="2751.5" y="-63.5" font-family="Helvetica,sans-Serif" font-size="10.00">/configpages/preferencesgraphicsviewpage.cpp</text>
</a>
</g>
</g>
<!-- Node2&#45;&gt;Node8 -->
<g id="edge7" class="edge">
<title>Node2&#45;&gt;Node8</title>
<path fill="none" stroke="midnightblue" d="M1889.54,-133.95C2031.09,-126.92 2349.84,-109.9 2617.5,-87 2620.76,-86.72 2624.07,-86.43 2627.41,-86.13"/>
<polygon fill="midnightblue" stroke="midnightblue" points="1889.06,-130.47 1879.25,-134.46 1889.41,-137.46 1889.06,-130.47"/>
</g>
<!-- Node9 -->
<g id="node9" class="node">
<title>Node9</title>
<g id="a_node9"><a xlink:href="../../d2/d00/vtooloptionspropertybrowser_8cpp.html" target="_top" xlink:title=" ">
<polygon fill="white" stroke="black" points="2893.5,-56.5 2893.5,-86.5 3073.5,-86.5 3073.5,-56.5 2893.5,-56.5"/>
<text text-anchor="start" x="2901.5" y="-74.5" font-family="Helvetica,sans-Serif" font-size="10.00">src/app/seamly2d/core</text>
<text text-anchor="middle" x="2983.5" y="-63.5" font-family="Helvetica,sans-Serif" font-size="10.00">/vtooloptionspropertybrowser.cpp</text>
</a>
</g>
</g>
<!-- Node2&#45;&gt;Node9 -->
<g id="edge8" class="edge">
<title>Node2&#45;&gt;Node9</title>
<path fill="none" stroke="midnightblue" d="M1889.27,-136.51C2063.06,-133.63 2511.65,-123.02 2884.5,-87 2887.44,-86.72 2890.42,-86.41 2893.44,-86.07"/>
<polygon fill="midnightblue" stroke="midnightblue" points="1889.16,-133.01 1879.21,-136.67 1889.27,-140.01 1889.16,-133.01"/>
</g>
<!-- Node10 -->
<g id="node10" class="node">
<title>Node10</title>
<g id="a_node10"><a xlink:href="../../dc/d63/preferencespatternpage_8cpp.html" target="_top" xlink:title=" ">
<polygon fill="white" stroke="black" points="3091.5,-56.5 3091.5,-86.5 3309.5,-86.5 3309.5,-56.5 3091.5,-56.5"/>
<text text-anchor="start" x="3099.5" y="-74.5" font-family="Helvetica,sans-Serif" font-size="10.00">src/app/seamly2d/dialogs</text>
<text text-anchor="middle" x="3200.5" y="-63.5" font-family="Helvetica,sans-Serif" font-size="10.00">/configpages/preferencespatternpage.cpp</text>
</a>
</g>
</g>
<!-- Node2&#45;&gt;Node10 -->
<g id="edge9" class="edge">
<title>Node2&#45;&gt;Node10</title>
<path fill="none" stroke="midnightblue" d="M1889.36,-136.68C2084.54,-134.06 2630.09,-123.75 3082.5,-87 3085.38,-86.77 3088.3,-86.51 3091.24,-86.25"/>
<polygon fill="midnightblue" stroke="midnightblue" points="1889.18,-133.18 1879.22,-136.82 1889.27,-140.18 1889.18,-133.18"/>
</g>
<!-- Node2&#45;&gt;Node11 -->
<g id="edge10" class="edge">
<title>Node2&#45;&gt;Node11</title>
<path fill="none" stroke="midnightblue" d="M1741.56,-138.26C1544.32,-139.49 989.49,-137.78 531.5,-87 528.73,-86.69 525.91,-86.34 523.06,-85.96"/>
<polygon fill="midnightblue" stroke="midnightblue" points="1741.82,-141.76 1751.8,-138.19 1741.78,-134.76 1741.82,-141.76"/>
</g>
<!-- Node12 -->
<g id="node12" class="node">
<title>Node12</title>
<g id="a_node12"><a xlink:href="../../dd/dc2/decimalchart__dialog_8cpp.html" target="_top" xlink:title=" ">
<polygon fill="white" stroke="black" points="3328,-56.5 3328,-86.5 3469,-86.5 3469,-56.5 3328,-56.5"/>
<text text-anchor="start" x="3336" y="-74.5" font-family="Helvetica,sans-Serif" font-size="10.00">src/app/seamly2d/dialogs</text>
<text text-anchor="middle" x="3398.5" y="-63.5" font-family="Helvetica,sans-Serif" font-size="10.00">/decimalchart_dialog.cpp</text>
</a>
</g>
</g>
<!-- Node2&#45;&gt;Node12 -->
<g id="edge11" class="edge">
<title>Node2&#45;&gt;Node12</title>
<path fill="none" stroke="midnightblue" d="M1889.55,-136.44C2151.93,-132.47 3036.7,-117.11 3318.5,-87 3321.59,-86.67 3324.74,-86.29 3327.91,-85.87"/>
<polygon fill="midnightblue" stroke="midnightblue" points="1889.31,-132.94 1879.37,-136.6 1889.42,-139.94 1889.31,-132.94"/>
</g>
<!-- Node2&#45;&gt;Node13 -->
<g id="edge12" class="edge">
<title>Node2&#45;&gt;Node13</title>
<path fill="none" stroke="midnightblue" d="M1741.81,-137.6C1561.93,-137.11 1086.3,-131.34 692.5,-87 689.83,-86.7 687.12,-86.36 684.39,-86"/>
<polygon fill="midnightblue" stroke="midnightblue" points="1741.94,-141.1 1751.94,-137.63 1741.95,-134.1 1741.94,-141.1"/>
</g>
<!-- Node14 -->
<g id="node14" class="node">
<title>Node14</title>
<g id="a_node14"><a xlink:href="../../d5/d18/dialogpatternproperties_8cpp.html" target="_top" xlink:title=" ">
<polygon fill="white" stroke="black" points="3687,-56.5 3687,-86.5 3842,-86.5 3842,-56.5 3687,-56.5"/>
<text text-anchor="start" x="3695" y="-74.5" font-family="Helvetica,sans-Serif" font-size="10.00">src/app/seamly2d/dialogs</text>
<text text-anchor="middle" x="3764.5" y="-63.5" font-family="Helvetica,sans-Serif" font-size="10.00">/dialogpatternproperties.cpp</text>
</a>
</g>
</g>
<!-- Node2&#45;&gt;Node14 -->
<g id="edge13" class="edge">
<title>Node2&#45;&gt;Node14</title>
<path fill="none" stroke="midnightblue" d="M1889.42,-136.86C2190.01,-134.04 3321.41,-121.34 3677.5,-87 3680.55,-86.71 3683.65,-86.37 3686.78,-86"/>
<polygon fill="midnightblue" stroke="midnightblue" points="1889.05,-133.36 1879.08,-136.96 1889.12,-140.36 1889.05,-133.36"/>
</g>
<!-- Node15 -->
<g id="node15" class="node">
<title>Node15</title>
<g id="a_node15"><a xlink:href="../../d5/dc5/dialogpreferences_8cpp.html" target="_top" xlink:title=" ">
<polygon fill="white" stroke="black" points="702,-56.5 702,-86.5 843,-86.5 843,-56.5 702,-56.5"/>
<text text-anchor="start" x="710" y="-74.5" font-family="Helvetica,sans-Serif" font-size="10.00">src/app/seamly2d/dialogs</text>
<text text-anchor="middle" x="772.5" y="-63.5" font-family="Helvetica,sans-Serif" font-size="10.00">/dialogpreferences.cpp</text>
</a>
</g>
</g>
<!-- Node2&#45;&gt;Node15 -->
<g id="edge14" class="edge">
<title>Node2&#45;&gt;Node15</title>
<path fill="none" stroke="midnightblue" d="M1741.49,-136.88C1579.57,-134.8 1181.92,-125.81 851.5,-87 848.73,-86.67 845.91,-86.31 843.07,-85.92"/>
<polygon fill="midnightblue" stroke="midnightblue" points="1741.77,-140.38 1751.81,-137 1741.86,-133.38 1741.77,-140.38"/>
</g>
<!-- Node2&#45;&gt;Node16 -->
<g id="edge15" class="edge">
<title>Node2&#45;&gt;Node16</title>
<path fill="none" stroke="midnightblue" d="M1889.34,-136.65C2172.56,-133.19 3189.71,-118.77 3511.5,-87 3516.17,-86.54 3520.97,-85.98 3525.8,-85.34"/>
<polygon fill="midnightblue" stroke="midnightblue" points="1889.13,-133.15 1879.17,-136.78 1889.22,-140.15 1889.13,-133.15"/>
</g>
<!-- Node17 -->
<g id="node17" class="node">
<title>Node17</title>
<g id="a_node17"><a xlink:href="../../d0/dfa/layoutsettings__dialog_8cpp.html" target="_top" xlink:title=" ">
<polygon fill="white" stroke="black" points="861,-56.5 861,-86.5 1006,-86.5 1006,-56.5 861,-56.5"/>
<text text-anchor="start" x="869" y="-74.5" font-family="Helvetica,sans-Serif" font-size="10.00">src/app/seamly2d/dialogs</text>
<text text-anchor="middle" x="933.5" y="-63.5" font-family="Helvetica,sans-Serif" font-size="10.00">/layoutsettings_dialog.cpp</text>
</a>
</g>
</g>
<!-- Node2&#45;&gt;Node17 -->
<g id="edge16" class="edge">
<title>Node2&#45;&gt;Node17</title>
<path fill="none" stroke="midnightblue" d="M1741.65,-135.66C1600.11,-131.51 1281.04,-119.15 1014.5,-87 1011.81,-86.67 1009.06,-86.32 1006.3,-85.94"/>
<polygon fill="midnightblue" stroke="midnightblue" points="1741.84,-139.17 1751.93,-135.96 1742.04,-132.17 1741.84,-139.17"/>
</g>
<!-- Node18 -->
<g id="node18" class="node">
<title>Node18</title>
<g id="a_node18"><a xlink:href="../../db/d5c/groups__widget_8cpp.html" target="_top" xlink:title=" ">
<polygon fill="white" stroke="black" points="1024,-56.5 1024,-86.5 1165,-86.5 1165,-56.5 1024,-56.5"/>
<text text-anchor="start" x="1032" y="-74.5" font-family="Helvetica,sans-Serif" font-size="10.00">src/app/seamly2d/dialogs</text>
<text text-anchor="middle" x="1094.5" y="-63.5" font-family="Helvetica,sans-Serif" font-size="10.00">/groups_widget.cpp</text>
</a>
</g>
</g>
<!-- Node2&#45;&gt;Node18 -->
<g id="edge17" class="edge">
<title>Node2&#45;&gt;Node18</title>
<path fill="none" stroke="midnightblue" d="M1741.8,-134.18C1622.17,-128.23 1378.44,-113.8 1173.5,-87 1170.73,-86.64 1167.92,-86.24 1165.08,-85.83"/>
<polygon fill="midnightblue" stroke="midnightblue" points="1741.78,-137.68 1751.94,-134.67 1742.13,-130.69 1741.78,-137.68"/>
</g>
<!-- Node19 -->
<g id="node19" class="node">
<title>Node19</title>
<g id="a_node19"><a xlink:href="../../dd/d84/shortcuts__dialog_8cpp.html" target="_top" xlink:title=" ">
<polygon fill="white" stroke="black" points="1183,-56.5 1183,-86.5 1324,-86.5 1324,-56.5 1183,-56.5"/>
<text text-anchor="start" x="1191" y="-74.5" font-family="Helvetica,sans-Serif" font-size="10.00">src/app/seamly2d/dialogs</text>
<text text-anchor="middle" x="1253.5" y="-63.5" font-family="Helvetica,sans-Serif" font-size="10.00">/shortcuts_dialog.cpp</text>
</a>
</g>
</g>
<!-- Node2&#45;&gt;Node19 -->
<g id="edge18" class="edge">
<title>Node2&#45;&gt;Node19</title>
<path fill="none" stroke="midnightblue" d="M1741.55,-131.56C1646.59,-123.52 1476.83,-107.76 1332.5,-87 1329.74,-86.6 1326.93,-86.18 1324.09,-85.74"/>
<polygon fill="midnightblue" stroke="midnightblue" points="1741.37,-135.06 1751.63,-132.41 1741.96,-128.08 1741.37,-135.06"/>
</g>
<!-- Node20 -->
<g id="node20" class="node">
<title>Node20</title>
<g id="a_node20"><a xlink:href="../../d2/df4/show__info__dialog_8cpp.html" target="_top" xlink:title=" ">
<polygon fill="white" stroke="black" points="1342,-56.5 1342,-86.5 1483,-86.5 1483,-56.5 1342,-56.5"/>
<text text-anchor="start" x="1350" y="-74.5" font-family="Helvetica,sans-Serif" font-size="10.00">src/app/seamly2d/dialogs</text>
<text text-anchor="middle" x="1412.5" y="-63.5" font-family="Helvetica,sans-Serif" font-size="10.00">/show_info_dialog.cpp</text>
</a>
</g>
</g>
<!-- Node2&#45;&gt;Node20 -->
<g id="edge19" class="edge">
<title>Node2&#45;&gt;Node20</title>
<path fill="none" stroke="midnightblue" d="M1741.53,-126.55C1675.8,-116.68 1577.14,-101.53 1491.5,-87 1488.75,-86.53 1485.95,-86.05 1483.12,-85.56"/>
<polygon fill="midnightblue" stroke="midnightblue" points="1741.38,-130.07 1751.79,-128.09 1742.42,-123.14 1741.38,-130.07"/>
</g>
<!-- Node21 -->
<g id="node21" class="node">
<title>Node21</title>
<g id="a_node21"><a xlink:href="../../d8/de8/mainwindowsnogui_8cpp.html" target="_top" xlink:title=" ">
<polygon fill="white" stroke="black" points="1501,-62 1501,-81 1722,-81 1722,-62 1501,-62"/>
<text text-anchor="middle" x="1611.5" y="-69" font-family="Helvetica,sans-Serif" font-size="10.00">src/app/seamly2d/mainwindowsnogui.cpp</text>
</a>
</g>
</g>
<!-- Node2&#45;&gt;Node21 -->
<g id="edge20" class="edge">
<title>Node2&#45;&gt;Node21</title>
<path fill="none" stroke="midnightblue" d="M1761.93,-120.43C1722.14,-107.75 1669.56,-91 1638.27,-81.03"/>
<polygon fill="midnightblue" stroke="midnightblue" points="1760.9,-123.77 1771.49,-123.48 1763.02,-117.11 1760.9,-123.77"/>
</g>
<!-- Node22 -->
<g id="node22" class="node">
<title>Node22</title>
<g id="a_node22"><a xlink:href="../../dc/d14/app_2seamly2d_2main_8cpp.html" target="_top" xlink:title=" ">
<polygon fill="white" stroke="black" points="1740,-62 1740,-81 1891,-81 1891,-62 1740,-62"/>
<text text-anchor="middle" x="1815.5" y="-69" font-family="Helvetica,sans-Serif" font-size="10.00">src/app/seamly2d/main.cpp</text>
</a>
</g>
</g>
<!-- Node2&#45;&gt;Node22 -->
<g id="edge21" class="edge">
<title>Node2&#45;&gt;Node22</title>
<path fill="none" stroke="midnightblue" d="M1815.5,-113.25C1815.5,-102.02 1815.5,-89.38 1815.5,-81.19"/>
<polygon fill="midnightblue" stroke="midnightblue" points="1812,-113.4 1815.5,-123.4 1819,-113.4 1812,-113.4"/>
</g>
<!-- Node2&#45;&gt;Node23 -->
<g id="edge22" class="edge">
<title>Node2&#45;&gt;Node23</title>
<path fill="none" stroke="midnightblue" d="M1889.67,-136.55C2202.57,-132.37 3402.12,-114.6 3477.5,-87 3498.29,-79.39 3496.02,-64.42 3516.5,-56 3572.5,-32.98 3732.46,-20.82 3836.36,-15.16"/>
<polygon fill="midnightblue" stroke="midnightblue" points="1889.31,-133.05 1879.36,-136.69 1889.4,-140.05 1889.31,-133.05"/>
</g>
<!-- Node24 -->
<g id="node24" class="node">
<title>Node24</title>
<g id="a_node24"><a xlink:href="../../d3/d49/vpattern_8cpp.html" target="_top" xlink:title=" ">
<polygon fill="white" stroke="black" points="1909,-56.5 1909,-86.5 2034,-86.5 2034,-56.5 1909,-56.5"/>
<text text-anchor="start" x="1917" y="-74.5" font-family="Helvetica,sans-Serif" font-size="10.00">src/app/seamly2d/xml</text>
<text text-anchor="middle" x="1971.5" y="-63.5" font-family="Helvetica,sans-Serif" font-size="10.00">/vpattern.cpp</text>
</a>
</g>
</g>
<!-- Node2&#45;&gt;Node24 -->
<g id="edge23" class="edge">
<title>Node2&#45;&gt;Node24</title>
<path fill="none" stroke="midnightblue" d="M1858.59,-119.54C1883.56,-109.14 1914.53,-96.24 1937.72,-86.58"/>
<polygon fill="midnightblue" stroke="midnightblue" points="1857.23,-116.32 1849.35,-123.4 1859.93,-122.78 1857.23,-116.32"/>
</g>
<!-- Node25&#45;&gt;Node14 -->
<g id="edge29" class="edge">
<title>Node25&#45;&gt;Node14</title>
<path fill="none" stroke="midnightblue" d="M3764.5,-113.11C3764.5,-104.15 3764.5,-94.32 3764.5,-86.58"/>
<polygon fill="midnightblue" stroke="midnightblue" points="3761,-113.4 3764.5,-123.4 3768,-113.4 3761,-113.4"/>
</g>
<!-- Node26 -->
<g id="node26" class="node">
<title>Node26</title>
<g id="a_node26"><a xlink:href="../../d6/d64/dialogs_8h.html" target="_top" xlink:title=" ">
<polygon fill="white" stroke="black" points="3860,-56.5 3860,-86.5 4001,-86.5 4001,-56.5 3860,-56.5"/>
<text text-anchor="start" x="3868" y="-74.5" font-family="Helvetica,sans-Serif" font-size="10.00">src/app/seamly2d/dialogs</text>
<text text-anchor="middle" x="3930.5" y="-63.5" font-family="Helvetica,sans-Serif" font-size="10.00">/dialogs.h</text>
</a>
</g>
</g>
<!-- Node25&#45;&gt;Node26 -->
<g id="edge30" class="edge">
<title>Node25&#45;&gt;Node26</title>
<path fill="none" stroke="midnightblue" d="M3810.01,-119.68C3836.63,-109.26 3869.77,-96.28 3894.55,-86.58"/>
<polygon fill="midnightblue" stroke="midnightblue" points="3808.55,-116.49 3800.52,-123.4 3811.11,-123.01 3808.55,-116.49"/>
</g>
<!-- Node26&#45;&gt;Node23 -->
<g id="edge31" class="edge">
<title>Node26&#45;&gt;Node23</title>
<path fill="none" stroke="midnightblue" d="M3930.5,-46.29C3930.5,-36.86 3930.5,-26.65 3930.5,-19.66"/>
<polygon fill="midnightblue" stroke="midnightblue" points="3927,-46.4 3930.5,-56.4 3934,-46.4 3927,-46.4"/>
</g>
</g>
</svg>
