<?xml version="1.0" encoding="UTF-8" standalone="no"?>
<!DOCTYPE svg PUBLIC "-//W3C//DTD SVG 1.1//EN"
 "http://www.w3.org/Graphics/SVG/1.1/DTD/svg11.dtd">
<!-- Generated by graphviz version 2.43.0 (0)
 -->
<!-- Title: src/app/seamly2d/options.h Pages: 1 -->
<!--zoomable 218 -->
<svg id="main" version="1.1" xmlns="http://www.w3.org/2000/svg" xmlns:xlink="http://www.w3.org/1999/xlink" xml:space="preserve" onload="init(evt)">
<style type="text/css"><![CDATA[
.edge:hover path { stroke: red; }
.edge:hover polygon { stroke: red; fill: red; }
]]></style>
<script type="text/javascript"><![CDATA[
var edges = document.getElementsByTagName('g');
if (edges && edges.length) {
  for (var i=0;i<edges.length;i++) {
    if (edges[i].id.substr(0,4)=='edge') {
      edges[i].setAttribute('class','edge');
    }
  }
}
]]></script>
        <defs>
                <circle id="rim" cx="0" cy="0" r="7"/>
                <circle id="rim2" cx="0" cy="0" r="3.5"/>
                <g id="zoomPlus">
                        <use xlink:href="#rim" fill="#404040">
                                <set attributeName="fill" to="#808080" begin="zoomplus.mouseover" end="zoomplus.mouseout"/>
                        </use>
                        <path d="M-4,0h8M0,-4v8" fill="none" stroke="white" stroke-width="1.5" pointer-events="none"/>
                </g>
                <g id="zoomMin">
                        <use xlink:href="#rim" fill="#404040">
                                <set attributeName="fill" to="#808080" begin="zoomminus.mouseover" end="zoomminus.mouseout"/>
                        </use>
                        <path d="M-4,0h8" fill="none" stroke="white" stroke-width="1.5" pointer-events="none"/>
                </g>
                <g id="dirArrow">
                        <path fill="none" stroke="white" stroke-width="1.5" d="M0,-3.0v7 M-2.5,-0.5L0,-3.0L2.5,-0.5"/>
                </g>
               <g id="resetDef">
                       <use xlink:href="#rim2" fill="#404040">
                               <set attributeName="fill" to="#808080" begin="reset.mouseover" end="reset.mouseout"/>
                       </use>
               </g>
        </defs>

<script type="text/javascript">
var viewWidth = 4033;
var viewHeight = 218;
var sectionId = 'dynsection-1';
</script>
<script xlink:href="../../svgpan.js"/>
<svg id="graph" class="graph">
<g id="viewport">
<title>src/app/seamly2d/options.h</title>
<polygon fill="white" stroke="transparent" points="-4,4 -4,-214 4028.5,-214 4028.5,4 -4,4"/>
<!-- Node1 -->
<g id="node1" class="node">
<title>Node1</title>
<g id="a_node1"><a xlink:title=" ">
<polygon fill="#bfbfbf" stroke="black" points="1323,-190.5 1323,-209.5 1474,-209.5 1474,-190.5 1323,-190.5"/>
<text text-anchor="middle" x="1398.5" y="-197.5" font-family="Helvetica,sans-Serif" font-size="10.00">src/app/seamly2d/options.h</text>
</a>
</g>
</g>
<!-- Node2 -->
<g id="node2" class="node">
<title>Node2</title>
<g id="a_node2"><a xlink:href="../../d9/d02/vapplication_8h.html" target="_top" xlink:title=" ">
<polygon fill="white" stroke="black" points="1597,-123.5 1597,-153.5 1724,-153.5 1724,-123.5 1597,-123.5"/>
<text text-anchor="start" x="1605" y="-141.5" font-family="Helvetica,sans-Serif" font-size="10.00">src/app/seamly2d/core</text>
<text text-anchor="middle" x="1660.5" y="-130.5" font-family="Helvetica,sans-Serif" font-size="10.00">/vapplication.h</text>
</a>
</g>
</g>
<!-- Node1&#45;&gt;Node2 -->
<g id="edge1" class="edge">
<title>Node1&#45;&gt;Node2</title>
<path fill="none" stroke="midnightblue" d="M1445.92,-188.23C1488.74,-178.51 1552,-164.14 1598.75,-153.52"/>
<polygon fill="midnightblue" stroke="midnightblue" points="1445.01,-184.85 1436.04,-190.48 1446.57,-191.67 1445.01,-184.85"/>
</g>
<!-- Node5 -->
<g id="node5" class="node">
<title>Node5</title>
<g id="a_node5"><a xlink:href="../../d7/dfa/calculator__dialog_8cpp.html" target="_top" xlink:title=" ">
<polygon fill="white" stroke="black" points="0,-56.5 0,-86.5 141,-86.5 141,-56.5 0,-56.5"/>
<text text-anchor="start" x="8" y="-74.5" font-family="Helvetica,sans-Serif" font-size="10.00">src/app/seamly2d/dialogs</text>
<text text-anchor="middle" x="70.5" y="-63.5" font-family="Helvetica,sans-Serif" font-size="10.00">/calculator_dialog.cpp</text>
</a>
</g>
</g>
<!-- Node1&#45;&gt;Node5 -->
<g id="edge24" class="edge">
<title>Node1&#45;&gt;Node5</title>
<path fill="none" stroke="midnightblue" d="M1312.58,-198.31C1154.5,-196.21 807.1,-187.8 516.5,-154 378.5,-137.95 218.79,-105.29 132.9,-86.55"/>
<polygon fill="midnightblue" stroke="midnightblue" points="1312.67,-201.81 1322.72,-198.44 1312.76,-194.81 1312.67,-201.81"/>
</g>
<!-- Node7 -->
<g id="node7" class="node">
<title>Node7</title>
<g id="a_node7"><a xlink:href="../../dc/d20/preferencespathpage_8cpp.html" target="_top" xlink:title=" ">
<polygon fill="white" stroke="black" points="159,-56.5 159,-86.5 364,-86.5 364,-56.5 159,-56.5"/>
<text text-anchor="start" x="167" y="-74.5" font-family="Helvetica,sans-Serif" font-size="10.00">src/app/seamly2d/dialogs</text>
<text text-anchor="middle" x="261.5" y="-63.5" font-family="Helvetica,sans-Serif" font-size="10.00">/configpages/preferencespathpage.cpp</text>
</a>
</g>
</g>
<!-- Node1&#45;&gt;Node7 -->
<g id="edge25" class="edge">
<title>Node1&#45;&gt;Node7</title>
<path fill="none" stroke="midnightblue" d="M1312.67,-196.25C1184.17,-191.46 934.36,-179.55 723.5,-154 581.6,-136.8 417.13,-104.88 327.72,-86.51"/>
<polygon fill="midnightblue" stroke="midnightblue" points="1312.71,-199.75 1322.83,-196.62 1312.97,-192.76 1312.71,-199.75"/>
</g>
<!-- Node11 -->
<g id="node11" class="node">
<title>Node11</title>
<g id="a_node11"><a xlink:href="../../dd/d64/dialogaboutapp_8cpp.html" target="_top" xlink:title=" ">
<polygon fill="white" stroke="black" points="382,-56.5 382,-86.5 523,-86.5 523,-56.5 382,-56.5"/>
<text text-anchor="start" x="390" y="-74.5" font-family="Helvetica,sans-Serif" font-size="10.00">src/app/seamly2d/dialogs</text>
<text text-anchor="middle" x="452.5" y="-63.5" font-family="Helvetica,sans-Serif" font-size="10.00">/dialogaboutapp.cpp</text>
</a>
</g>
</g>
<!-- Node1&#45;&gt;Node11 -->
<g id="edge26" class="edge">
<title>Node1&#45;&gt;Node11</title>
<path fill="none" stroke="midnightblue" d="M1312.63,-192.78C1217.51,-185.43 1059.7,-171.92 924.5,-154 748.85,-130.72 705.97,-117.88 531.5,-87 528.75,-86.51 525.95,-86.02 523.13,-85.51"/>
<polygon fill="midnightblue" stroke="midnightblue" points="1312.54,-196.28 1322.78,-193.55 1313.07,-189.3 1312.54,-196.28"/>
</g>
<!-- Node13 -->
<g id="node13" class="node">
<title>Node13</title>
<g id="a_node13"><a xlink:href="../../d6/d89/dialoglayoutprogress_8cpp.html" target="_top" xlink:title=" ">
<polygon fill="white" stroke="black" points="541,-56.5 541,-86.5 684,-86.5 684,-56.5 541,-56.5"/>
<text text-anchor="start" x="549" y="-74.5" font-family="Helvetica,sans-Serif" font-size="10.00">src/app/seamly2d/dialogs</text>
<text text-anchor="middle" x="612.5" y="-63.5" font-family="Helvetica,sans-Serif" font-size="10.00">/dialoglayoutprogress.cpp</text>
</a>
</g>
</g>
<!-- Node1&#45;&gt;Node13 -->
<g id="edge31" class="edge">
<title>Node1&#45;&gt;Node13</title>
<path fill="none" stroke="midnightblue" d="M1333.98,-188.86C1210.53,-169.42 932.39,-125.43 698.5,-87 693.87,-86.24 689.1,-85.45 684.29,-84.65"/>
<polygon fill="midnightblue" stroke="midnightblue" points="1333.59,-192.34 1344.02,-190.44 1334.68,-185.43 1333.59,-192.34"/>
</g>
<!-- Node15 -->
<g id="node15" class="node">
<title>Node15</title>
<g id="a_node15"><a xlink:href="../../dd/d54/export__layout__dialog_8cpp.html" target="_top" xlink:title=" ">
<polygon fill="white" stroke="black" points="3526,-56.5 3526,-86.5 3669,-86.5 3669,-56.5 3526,-56.5"/>
<text text-anchor="start" x="3534" y="-74.5" font-family="Helvetica,sans-Serif" font-size="10.00">src/app/seamly2d/dialogs</text>
<text text-anchor="middle" x="3597.5" y="-63.5" font-family="Helvetica,sans-Serif" font-size="10.00">/export_layout_dialog.cpp</text>
</a>
</g>
</g>
<!-- Node1&#45;&gt;Node15 -->
<g id="edge32" class="edge">
<title>Node1&#45;&gt;Node15</title>
<path fill="none" stroke="midnightblue" d="M1484.73,-198.35C1773.38,-195.33 2731.8,-178.6 3517.5,-87 3520.16,-86.69 3522.87,-86.35 3525.61,-85.97"/>
<polygon fill="midnightblue" stroke="midnightblue" points="1484.3,-194.85 1474.34,-198.45 1484.37,-201.85 1484.3,-194.85"/>
</g>
<!-- Node24 -->
<g id="node24" class="node">
<title>Node24</title>
<g id="a_node24"><a xlink:href="../../d8/dd9/mainwindow_8cpp.html" target="_top" xlink:title=" ">
<polygon fill="white" stroke="black" points="3836.5,-0.5 3836.5,-19.5 4024.5,-19.5 4024.5,-0.5 3836.5,-0.5"/>
<text text-anchor="middle" x="3930.5" y="-7.5" font-family="Helvetica,sans-Serif" font-size="10.00">src/app/seamly2d/mainwindow.cpp</text>
</a>
</g>
</g>
<!-- Node1&#45;&gt;Node24 -->
<g id="edge33" class="edge">
<title>Node1&#45;&gt;Node24</title>
<path fill="none" stroke="midnightblue" d="M1484.46,-199.28C1891.01,-200.37 3610.84,-202.07 3845.5,-154 3923.04,-138.12 3966.3,-152.66 4010.5,-87 4018.19,-75.57 4017.46,-67.89 4010.5,-56 3999.8,-37.71 3978.63,-26.27 3960.75,-19.51"/>
<polygon fill="midnightblue" stroke="midnightblue" points="1484.26,-195.78 1474.25,-199.26 1484.24,-202.78 1484.26,-195.78"/>
</g>
<!-- Node25 -->
<g id="node25" class="node">
<title>Node25</title>
<g id="a_node25"><a xlink:href="../../d5/d4e/dialogpatternproperties_8h.html" target="_top" xlink:title=" ">
<polygon fill="white" stroke="black" points="3693,-123.5 3693,-153.5 3836,-153.5 3836,-123.5 3693,-123.5"/>
<text text-anchor="start" x="3701" y="-141.5" font-family="Helvetica,sans-Serif" font-size="10.00">src/app/seamly2d/dialogs</text>
<text text-anchor="middle" x="3764.5" y="-130.5" font-family="Helvetica,sans-Serif" font-size="10.00">/dialogpatternproperties.h</text>
</a>
</g>
</g>
<!-- Node1&#45;&gt;Node25 -->
<g id="edge27" class="edge">
<title>Node1&#45;&gt;Node25</title>
<path fill="none" stroke="midnightblue" d="M1484.44,-196.84C1859.28,-187.41 3347.72,-149.98 3692.8,-141.3"/>
<polygon fill="midnightblue" stroke="midnightblue" points="1484.12,-193.35 1474.21,-197.1 1484.29,-200.34 1484.12,-193.35"/>
</g>
<!-- Node3 -->
<g id="node3" class="node">
<title>Node3</title>
<g id="a_node3"><a xlink:href="../../d3/dd8/vapplication_8cpp.html" target="_top" xlink:title=" ">
<polygon fill="white" stroke="black" points="1932,-56.5 1932,-86.5 2059,-86.5 2059,-56.5 1932,-56.5"/>
<text text-anchor="start" x="1940" y="-74.5" font-family="Helvetica,sans-Serif" font-size="10.00">src/app/seamly2d/core</text>
<text text-anchor="middle" x="1995.5" y="-63.5" font-family="Helvetica,sans-Serif" font-size="10.00">/vapplication.cpp</text>
</a>
</g>
</g>
<!-- Node2&#45;&gt;Node3 -->
<g id="edge2" class="edge">
<title>Node2&#45;&gt;Node3</title>
<path fill="none" stroke="midnightblue" d="M1733.98,-123.57C1786.74,-113.53 1859.54,-99.58 1923.5,-87 1926.25,-86.46 1929.06,-85.9 1931.9,-85.34"/>
<polygon fill="midnightblue" stroke="midnightblue" points="1733.21,-120.16 1724.04,-125.47 1734.51,-127.04 1733.21,-120.16"/>
</g>
<!-- Node4 -->
<g id="node4" class="node">
<title>Node4</title>
<g id="a_node4"><a xlink:href="../../dd/db4/abstractlayout__dialog_8cpp.html" target="_top" xlink:title=" ">
<polygon fill="white" stroke="black" points="2077.5,-56.5 2077.5,-86.5 2223.5,-86.5 2223.5,-56.5 2077.5,-56.5"/>
<text text-anchor="start" x="2085.5" y="-74.5" font-family="Helvetica,sans-Serif" font-size="10.00">src/app/seamly2d/dialogs</text>
<text text-anchor="middle" x="2150.5" y="-63.5" font-family="Helvetica,sans-Serif" font-size="10.00">/abstractlayout_dialog.cpp</text>
</a>
</g>
</g>
<!-- Node2&#45;&gt;Node4 -->
<g id="edge3" class="edge">
<title>Node2&#45;&gt;Node4</title>
<path fill="none" stroke="midnightblue" d="M1734.19,-129.54C1816.03,-120.44 1951.96,-104.5 2068.5,-87 2071.36,-86.57 2074.27,-86.12 2077.21,-85.65"/>
<polygon fill="midnightblue" stroke="midnightblue" points="1733.8,-126.07 1724.24,-130.65 1734.57,-133.02 1733.8,-126.07"/>
</g>
<!-- Node2&#45;&gt;Node5 -->
<g id="edge4" class="edge">
<title>Node2&#45;&gt;Node5</title>
<path fill="none" stroke="midnightblue" d="M1586.51,-136.48C1323.28,-132.62 432.93,-117.58 149.5,-87 146.73,-86.7 143.91,-86.36 141.06,-85.99"/>
<polygon fill="midnightblue" stroke="midnightblue" points="1586.67,-139.98 1596.72,-136.63 1586.77,-132.98 1586.67,-139.98"/>
</g>
<!-- Node6 -->
<g id="node6" class="node">
<title>Node6</title>
<g id="a_node6"><a xlink:href="../../d2/d2d/preferencesconfigurationpage_8cpp.html" target="_top" xlink:title=" ">
<polygon fill="white" stroke="black" points="2242,-56.5 2242,-86.5 2489,-86.5 2489,-56.5 2242,-56.5"/>
<text text-anchor="start" x="2250" y="-74.5" font-family="Helvetica,sans-Serif" font-size="10.00">src/app/seamly2d/dialogs</text>
<text text-anchor="middle" x="2365.5" y="-63.5" font-family="Helvetica,sans-Serif" font-size="10.00">/configpages/preferencesconfigurationpage.cpp</text>
</a>
</g>
</g>
<!-- Node2&#45;&gt;Node6 -->
<g id="edge5" class="edge">
<title>Node2&#45;&gt;Node6</title>
<path fill="none" stroke="midnightblue" d="M1734.25,-131.48C1843.24,-122.46 2053.74,-104.63 2232.5,-87 2235.62,-86.69 2238.78,-86.38 2241.97,-86.05"/>
<polygon fill="midnightblue" stroke="midnightblue" points="1733.7,-128.01 1724.02,-132.32 1734.28,-134.99 1733.7,-128.01"/>
</g>
<!-- Node2&#45;&gt;Node7 -->
<g id="edge6" class="edge">
<title>Node2&#45;&gt;Node7</title>
<path fill="none" stroke="midnightblue" d="M1586.46,-136.94C1388.92,-134.95 833.08,-126.03 372.5,-87 369.79,-86.77 367.04,-86.52 364.27,-86.26"/>
<polygon fill="midnightblue" stroke="midnightblue" points="1586.68,-140.45 1596.72,-137.04 1586.75,-133.45 1586.68,-140.45"/>
</g>
<!-- Node8 -->
<g id="node8" class="node">
<title>Node8</title>
<g id="a_node8"><a xlink:href="../../dd/dc2/decimalchart__dialog_8cpp.html" target="_top" xlink:title=" ">
<polygon fill="white" stroke="black" points="2507,-56.5 2507,-86.5 2648,-86.5 2648,-56.5 2507,-56.5"/>
<text text-anchor="start" x="2515" y="-74.5" font-family="Helvetica,sans-Serif" font-size="10.00">src/app/seamly2d/dialogs</text>
<text text-anchor="middle" x="2577.5" y="-63.5" font-family="Helvetica,sans-Serif" font-size="10.00">/decimalchart_dialog.cpp</text>
</a>
</g>
</g>
<!-- Node2&#45;&gt;Node8 -->
<g id="edge7" class="edge">
<title>Node2&#45;&gt;Node8</title>
<path fill="none" stroke="midnightblue" d="M1734.27,-136.06C1880.55,-132.54 2217.5,-121.13 2498.5,-87 2501.27,-86.66 2504.09,-86.29 2506.93,-85.89"/>
<polygon fill="midnightblue" stroke="midnightblue" points="1733.99,-132.56 1724.07,-136.3 1734.15,-139.56 1733.99,-132.56"/>
</g>
<!-- Node9 -->
<g id="node9" class="node">
<title>Node9</title>
<g id="a_node9"><a xlink:href="../../dc/d63/preferencespatternpage_8cpp.html" target="_top" xlink:title=" ">
<polygon fill="white" stroke="black" points="2666.5,-56.5 2666.5,-86.5 2884.5,-86.5 2884.5,-56.5 2666.5,-56.5"/>
<text text-anchor="start" x="2674.5" y="-74.5" font-family="Helvetica,sans-Serif" font-size="10.00">src/app/seamly2d/dialogs</text>
<text text-anchor="middle" x="2775.5" y="-63.5" font-family="Helvetica,sans-Serif" font-size="10.00">/configpages/preferencespatternpage.cpp</text>
</a>
</g>
</g>
<!-- Node2&#45;&gt;Node9 -->
<g id="edge8" class="edge">
<title>Node2&#45;&gt;Node9</title>
<path fill="none" stroke="midnightblue" d="M1734.24,-135.57C1899.67,-130.85 2312.91,-116.86 2657.5,-87 2660.38,-86.75 2663.3,-86.48 2666.24,-86.21"/>
<polygon fill="midnightblue" stroke="midnightblue" points="1734.07,-132.08 1724.18,-135.86 1734.27,-139.07 1734.07,-132.08"/>
</g>
<!-- Node10 -->
<g id="node10" class="node">
<title>Node10</title>
<g id="a_node10"><a xlink:href="../../d9/d70/preferencesgraphicsviewpage_8cpp.html" target="_top" xlink:title=" ">
<polygon fill="white" stroke="black" points="2902.5,-56.5 2902.5,-86.5 3150.5,-86.5 3150.5,-56.5 2902.5,-56.5"/>
<text text-anchor="start" x="2910.5" y="-74.5" font-family="Helvetica,sans-Serif" font-size="10.00">src/app/seamly2d/dialogs</text>
<text text-anchor="middle" x="3026.5" y="-63.5" font-family="Helvetica,sans-Serif" font-size="10.00">/configpages/preferencesgraphicsviewpage.cpp</text>
</a>
</g>
</g>
<!-- Node2&#45;&gt;Node10 -->
<g id="edge9" class="edge">
<title>Node2&#45;&gt;Node10</title>
<path fill="none" stroke="midnightblue" d="M1734.34,-136.22C1925.92,-132.51 2454.53,-119.88 2893.5,-87 2896.4,-86.78 2899.32,-86.55 2902.28,-86.31"/>
<polygon fill="midnightblue" stroke="midnightblue" points="1734.05,-132.72 1724.11,-136.41 1734.18,-139.72 1734.05,-132.72"/>
</g>
<!-- Node2&#45;&gt;Node11 -->
<g id="edge10" class="edge">
<title>Node2&#45;&gt;Node11</title>
<path fill="none" stroke="midnightblue" d="M1586.73,-137.68C1406.13,-137.38 927.6,-132 531.5,-87 528.73,-86.69 525.91,-86.33 523.06,-85.95"/>
<polygon fill="midnightblue" stroke="midnightblue" points="1586.91,-141.18 1596.91,-137.7 1586.92,-134.18 1586.91,-141.18"/>
</g>
<!-- Node12 -->
<g id="node12" class="node">
<title>Node12</title>
<g id="a_node12"><a xlink:href="../../d2/d00/vtooloptionspropertybrowser_8cpp.html" target="_top" xlink:title=" ">
<polygon fill="white" stroke="black" points="3168.5,-56.5 3168.5,-86.5 3348.5,-86.5 3348.5,-56.5 3168.5,-56.5"/>
<text text-anchor="start" x="3176.5" y="-74.5" font-family="Helvetica,sans-Serif" font-size="10.00">src/app/seamly2d/core</text>
<text text-anchor="middle" x="3258.5" y="-63.5" font-family="Helvetica,sans-Serif" font-size="10.00">/vtooloptionspropertybrowser.cpp</text>
</a>
</g>
</g>
<!-- Node2&#45;&gt;Node12 -->
<g id="edge11" class="edge">
<title>Node2&#45;&gt;Node12</title>
<path fill="none" stroke="midnightblue" d="M1734.27,-137.93C1952.5,-138.57 2613.81,-136 3159.5,-87 3162.44,-86.74 3165.43,-86.44 3168.44,-86.13"/>
<polygon fill="midnightblue" stroke="midnightblue" points="1734.22,-134.43 1724.21,-137.89 1734.2,-141.43 1734.22,-134.43"/>
</g>
<!-- Node2&#45;&gt;Node13 -->
<g id="edge12" class="edge">
<title>Node2&#45;&gt;Node13</title>
<path fill="none" stroke="midnightblue" d="M1586.69,-136.5C1425.18,-133.7 1028.51,-123.36 698.5,-87 693.83,-86.49 689.04,-85.88 684.21,-85.22"/>
<polygon fill="midnightblue" stroke="midnightblue" points="1586.92,-140.01 1596.98,-136.68 1587.04,-133.01 1586.92,-140.01"/>
</g>
<!-- Node14 -->
<g id="node14" class="node">
<title>Node14</title>
<g id="a_node14"><a xlink:href="../../d5/dc5/dialogpreferences_8cpp.html" target="_top" xlink:title=" ">
<polygon fill="white" stroke="black" points="3367,-56.5 3367,-86.5 3508,-86.5 3508,-56.5 3367,-56.5"/>
<text text-anchor="start" x="3375" y="-74.5" font-family="Helvetica,sans-Serif" font-size="10.00">src/app/seamly2d/dialogs</text>
<text text-anchor="middle" x="3437.5" y="-63.5" font-family="Helvetica,sans-Serif" font-size="10.00">/dialogpreferences.cpp</text>
</a>
</g>
</g>
<!-- Node2&#45;&gt;Node14 -->
<g id="edge13" class="edge">
<title>Node2&#45;&gt;Node14</title>
<path fill="none" stroke="midnightblue" d="M1734.39,-136.77C2017.83,-133.75 3035.72,-120.76 3357.5,-87 3360.59,-86.68 3363.74,-86.3 3366.91,-85.89"/>
<polygon fill="midnightblue" stroke="midnightblue" points="1734.19,-133.27 1724.22,-136.88 1734.26,-140.27 1734.19,-133.27"/>
</g>
<!-- Node2&#45;&gt;Node15 -->
<g id="edge14" class="edge">
<title>Node2&#45;&gt;Node15</title>
<path fill="none" stroke="midnightblue" d="M1734.24,-136.16C2057.15,-130.2 3338.3,-105.57 3517.5,-87 3520.17,-86.72 3522.88,-86.41 3525.62,-86.06"/>
<polygon fill="midnightblue" stroke="midnightblue" points="1734,-132.66 1724.07,-136.35 1734.13,-139.66 1734,-132.66"/>
</g>
<!-- Node16 -->
<g id="node16" class="node">
<title>Node16</title>
<g id="a_node16"><a xlink:href="../../d5/d18/dialogpatternproperties_8cpp.html" target="_top" xlink:title=" ">
<polygon fill="white" stroke="black" points="3687,-56.5 3687,-86.5 3842,-86.5 3842,-56.5 3687,-56.5"/>
<text text-anchor="start" x="3695" y="-74.5" font-family="Helvetica,sans-Serif" font-size="10.00">src/app/seamly2d/dialogs</text>
<text text-anchor="middle" x="3764.5" y="-63.5" font-family="Helvetica,sans-Serif" font-size="10.00">/dialogpatternproperties.cpp</text>
</a>
</g>
</g>
<!-- Node2&#45;&gt;Node16 -->
<g id="edge15" class="edge">
<title>Node2&#45;&gt;Node16</title>
<path fill="none" stroke="midnightblue" d="M1734.78,-137.06C2051.45,-134.94 3290.24,-124.4 3678.5,-87 3681.21,-86.74 3683.97,-86.44 3686.75,-86.12"/>
<polygon fill="midnightblue" stroke="midnightblue" points="1734.32,-133.56 1724.34,-137.12 1734.37,-140.56 1734.32,-133.56"/>
</g>
<!-- Node17 -->
<g id="node17" class="node">
<title>Node17</title>
<g id="a_node17"><a xlink:href="../../db/d5c/groups__widget_8cpp.html" target="_top" xlink:title=" ">
<polygon fill="white" stroke="black" points="741,-56.5 741,-86.5 882,-86.5 882,-56.5 741,-56.5"/>
<text text-anchor="start" x="749" y="-74.5" font-family="Helvetica,sans-Serif" font-size="10.00">src/app/seamly2d/dialogs</text>
<text text-anchor="middle" x="811.5" y="-63.5" font-family="Helvetica,sans-Serif" font-size="10.00">/groups_widget.cpp</text>
</a>
</g>
</g>
<!-- Node2&#45;&gt;Node17 -->
<g id="edge16" class="edge">
<title>Node2&#45;&gt;Node17</title>
<path fill="none" stroke="midnightblue" d="M1586.58,-135.44C1449.22,-131 1145.49,-118.25 891.5,-87 888.42,-86.62 885.27,-86.2 882.1,-85.75"/>
<polygon fill="midnightblue" stroke="midnightblue" points="1586.86,-138.95 1596.97,-135.77 1587.09,-131.96 1586.86,-138.95"/>
</g>
<!-- Node18 -->
<g id="node18" class="node">
<title>Node18</title>
<g id="a_node18"><a xlink:href="../../d0/dfa/layoutsettings__dialog_8cpp.html" target="_top" xlink:title=" ">
<polygon fill="white" stroke="black" points="900,-56.5 900,-86.5 1045,-86.5 1045,-56.5 900,-56.5"/>
<text text-anchor="start" x="908" y="-74.5" font-family="Helvetica,sans-Serif" font-size="10.00">src/app/seamly2d/dialogs</text>
<text text-anchor="middle" x="972.5" y="-63.5" font-family="Helvetica,sans-Serif" font-size="10.00">/layoutsettings_dialog.cpp</text>
</a>
</g>
</g>
<!-- Node2&#45;&gt;Node18 -->
<g id="edge17" class="edge">
<title>Node2&#45;&gt;Node18</title>
<path fill="none" stroke="midnightblue" d="M1586.56,-133.53C1472.17,-126.9 1245.56,-111.8 1054.5,-87 1051.49,-86.61 1048.42,-86.18 1045.32,-85.74"/>
<polygon fill="midnightblue" stroke="midnightblue" points="1586.42,-137.03 1596.61,-134.11 1586.82,-130.04 1586.42,-137.03"/>
</g>
<!-- Node19 -->
<g id="node19" class="node">
<title>Node19</title>
<g id="a_node19"><a xlink:href="../../dc/d14/app_2seamly2d_2main_8cpp.html" target="_top" xlink:title=" ">
<polygon fill="white" stroke="black" points="1063,-62 1063,-81 1214,-81 1214,-62 1063,-62"/>
<text text-anchor="middle" x="1138.5" y="-69" font-family="Helvetica,sans-Serif" font-size="10.00">src/app/seamly2d/main.cpp</text>
</a>
</g>
</g>
<!-- Node2&#45;&gt;Node19 -->
<g id="edge18" class="edge">
<title>Node2&#45;&gt;Node19</title>
<path fill="none" stroke="midnightblue" d="M1586.63,-130.19C1499.62,-121.3 1350.77,-105.2 1223.5,-87 1211.2,-85.24 1197.94,-83.1 1185.64,-81.01"/>
<polygon fill="midnightblue" stroke="midnightblue" points="1586.37,-133.68 1596.67,-131.21 1587.08,-126.72 1586.37,-133.68"/>
</g>
<!-- Node20 -->
<g id="node20" class="node">
<title>Node20</title>
<g id="a_node20"><a xlink:href="../../dd/d84/shortcuts__dialog_8cpp.html" target="_top" xlink:title=" ">
<polygon fill="white" stroke="black" points="1232,-56.5 1232,-86.5 1373,-86.5 1373,-56.5 1232,-56.5"/>
<text text-anchor="start" x="1240" y="-74.5" font-family="Helvetica,sans-Serif" font-size="10.00">src/app/seamly2d/dialogs</text>
<text text-anchor="middle" x="1302.5" y="-63.5" font-family="Helvetica,sans-Serif" font-size="10.00">/shortcuts_dialog.cpp</text>
</a>
</g>
</g>
<!-- Node2&#45;&gt;Node20 -->
<g id="edge19" class="edge">
<title>Node2&#45;&gt;Node20</title>
<path fill="none" stroke="midnightblue" d="M1586.71,-124.1C1524.1,-112.73 1434.87,-96.53 1373.16,-85.33"/>
<polygon fill="midnightblue" stroke="midnightblue" points="1586.44,-127.61 1596.91,-125.95 1587.7,-120.72 1586.44,-127.61"/>
</g>
<!-- Node21 -->
<g id="node21" class="node">
<title>Node21</title>
<g id="a_node21"><a xlink:href="../../d2/df4/show__info__dialog_8cpp.html" target="_top" xlink:title=" ">
<polygon fill="white" stroke="black" points="1391,-56.5 1391,-86.5 1532,-86.5 1532,-56.5 1391,-56.5"/>
<text text-anchor="start" x="1399" y="-74.5" font-family="Helvetica,sans-Serif" font-size="10.00">src/app/seamly2d/dialogs</text>
<text text-anchor="middle" x="1461.5" y="-63.5" font-family="Helvetica,sans-Serif" font-size="10.00">/show_info_dialog.cpp</text>
</a>
</g>
</g>
<!-- Node2&#45;&gt;Node21 -->
<g id="edge20" class="edge">
<title>Node2&#45;&gt;Node21</title>
<path fill="none" stroke="midnightblue" d="M1607.62,-120.23C1575.43,-109.71 1534.83,-96.45 1504.6,-86.58"/>
<polygon fill="midnightblue" stroke="midnightblue" points="1606.73,-123.62 1617.32,-123.4 1608.9,-116.96 1606.73,-123.62"/>
</g>
<!-- Node22 -->
<g id="node22" class="node">
<title>Node22</title>
<g id="a_node22"><a xlink:href="../../d8/de8/mainwindowsnogui_8cpp.html" target="_top" xlink:title=" ">
<polygon fill="white" stroke="black" points="1550,-62 1550,-81 1771,-81 1771,-62 1550,-62"/>
<text text-anchor="middle" x="1660.5" y="-69" font-family="Helvetica,sans-Serif" font-size="10.00">src/app/seamly2d/mainwindowsnogui.cpp</text>
</a>
</g>
</g>
<!-- Node2&#45;&gt;Node22 -->
<g id="edge21" class="edge">
<title>Node2&#45;&gt;Node22</title>
<path fill="none" stroke="midnightblue" d="M1660.5,-113.25C1660.5,-102.02 1660.5,-89.38 1660.5,-81.19"/>
<polygon fill="midnightblue" stroke="midnightblue" points="1657,-113.4 1660.5,-123.4 1664,-113.4 1657,-113.4"/>
</g>
<!-- Node23 -->
<g id="node23" class="node">
<title>Node23</title>
<g id="a_node23"><a xlink:href="../../d3/d49/vpattern_8cpp.html" target="_top" xlink:title=" ">
<polygon fill="white" stroke="black" points="1789,-56.5 1789,-86.5 1914,-86.5 1914,-56.5 1789,-56.5"/>
<text text-anchor="start" x="1797" y="-74.5" font-family="Helvetica,sans-Serif" font-size="10.00">src/app/seamly2d/xml</text>
<text text-anchor="middle" x="1851.5" y="-63.5" font-family="Helvetica,sans-Serif" font-size="10.00">/vpattern.cpp</text>
</a>
</g>
</g>
<!-- Node2&#45;&gt;Node23 -->
<g id="edge22" class="edge">
<title>Node2&#45;&gt;Node23</title>
<path fill="none" stroke="midnightblue" d="M1711.65,-120.09C1742.49,-109.6 1781.25,-96.41 1810.14,-86.58"/>
<polygon fill="midnightblue" stroke="midnightblue" points="1710.28,-116.86 1701.94,-123.4 1712.54,-123.49 1710.28,-116.86"/>
</g>
<!-- Node2&#45;&gt;Node24 -->
<g id="edge23" class="edge">
<title>Node2&#45;&gt;Node24</title>
<path fill="none" stroke="midnightblue" d="M1586.65,-136.22C1372.04,-132.14 761.73,-117.87 732.5,-87 723.03,-77 722.83,-65.81 732.5,-56 760.47,-27.64 3309.86,-13.96 3836.12,-11.43"/>
<polygon fill="midnightblue" stroke="midnightblue" points="1586.81,-139.72 1596.88,-136.41 1586.94,-132.72 1586.81,-139.72"/>
</g>
<!-- Node25&#45;&gt;Node16 -->
<g id="edge30" class="edge">
<title>Node25&#45;&gt;Node16</title>
<path fill="none" stroke="midnightblue" d="M3764.5,-113.11C3764.5,-104.15 3764.5,-94.32 3764.5,-86.58"/>
<polygon fill="midnightblue" stroke="midnightblue" points="3761,-113.4 3764.5,-123.4 3768,-113.4 3761,-113.4"/>
</g>
<!-- Node26 -->
<g id="node26" class="node">
<title>Node26</title>
<g id="a_node26"><a xlink:href="../../d6/d64/dialogs_8h.html" target="_top" xlink:title=" ">
<polygon fill="white" stroke="black" points="3860,-56.5 3860,-86.5 4001,-86.5 4001,-56.5 3860,-56.5"/>
<text text-anchor="start" x="3868" y="-74.5" font-family="Helvetica,sans-Serif" font-size="10.00">src/app/seamly2d/dialogs</text>
<text text-anchor="middle" x="3930.5" y="-63.5" font-family="Helvetica,sans-Serif" font-size="10.00">/dialogs.h</text>
</a>
</g>
</g>
<!-- Node25&#45;&gt;Node26 -->
<g id="edge28" class="edge">
<title>Node25&#45;&gt;Node26</title>
<path fill="none" stroke="midnightblue" d="M3810.01,-119.68C3836.63,-109.26 3869.77,-96.28 3894.55,-86.58"/>
<polygon fill="midnightblue" stroke="midnightblue" points="3808.55,-116.49 3800.52,-123.4 3811.11,-123.01 3808.55,-116.49"/>
</g>
<!-- Node26&#45;&gt;Node24 -->
<g id="edge29" class="edge">
<title>Node26&#45;&gt;Node24</title>
<path fill="none" stroke="midnightblue" d="M3930.5,-46.29C3930.5,-36.86 3930.5,-26.65 3930.5,-19.66"/>
<polygon fill="midnightblue" stroke="midnightblue" points="3927,-46.4 3930.5,-56.4 3934,-46.4 3927,-46.4"/>
</g>
</g>
</svg>
        <g id="navigator" transform="translate(0 0)" fill="#404254">
                <rect fill="#f2f5e9" fill-opacity="0.5" stroke="#606060" stroke-width=".5" x="0" y="0" width="60" height="60"/>
                <use id="zoomplus" xlink:href="#zoomPlus" x="17" y="9" onmousedown="handleZoom(evt,'in')"/>
                <use id="zoomminus" xlink:href="#zoomMin" x="42" y="9" onmousedown="handleZoom(evt,'out')"/>
                <use id="reset" xlink:href="#resetDef" x="30" y="36" onmousedown="handleReset()"/>
                <g id="arrowUp" xlink:href="#dirArrow" transform="translate(30 24)" onmousedown="handlePan(0,-1)">
                  <use xlink:href="#rim" fill="#404040">
                        <set attributeName="fill" to="#808080" begin="arrowUp.mouseover" end="arrowUp.mouseout"/>
                  </use>
                  <path fill="none" stroke="white" stroke-width="1.5" d="M0,-3.0v7 M-2.5,-0.5L0,-3.0L2.5,-0.5"/>
                </g>
                <g id="arrowRight" xlink:href="#dirArrow" transform="rotate(90) translate(36 -43)" onmousedown="handlePan(1,0)">
                  <use xlink:href="#rim" fill="#404040">
                        <set attributeName="fill" to="#808080" begin="arrowRight.mouseover" end="arrowRight.mouseout"/>
                  </use>
                  <path fill="none" stroke="white" stroke-width="1.5" d="M0,-3.0v7 M-2.5,-0.5L0,-3.0L2.5,-0.5"/>
                </g>
                <g id="arrowDown" xlink:href="#dirArrow" transform="rotate(180) translate(-30 -48)" onmousedown="handlePan(0,1)">
                  <use xlink:href="#rim" fill="#404040">
                        <set attributeName="fill" to="#808080" begin="arrowDown.mouseover" end="arrowDown.mouseout"/>
                  </use>
                  <path fill="none" stroke="white" stroke-width="1.5" d="M0,-3.0v7 M-2.5,-0.5L0,-3.0L2.5,-0.5"/>
                </g>
                <g id="arrowLeft" xlink:href="#dirArrow" transform="rotate(270) translate(-36 17)" onmousedown="handlePan(-1,0)">
                  <use xlink:href="#rim" fill="#404040">
                        <set attributeName="fill" to="#808080" begin="arrowLeft.mouseover" end="arrowLeft.mouseout"/>
                  </use>
                  <path fill="none" stroke="white" stroke-width="1.5" d="M0,-3.0v7 M-2.5,-0.5L0,-3.0L2.5,-0.5"/>
                </g>
        </g>
        <svg viewBox="0 0 15 15" width="100%" height="30px" preserveAspectRatio="xMaxYMin meet">
         <g id="arrow_out" transform="scale(0.3 0.3)">
          <a xlink:href="options_8h__dep__incl_org.svg" target="_base">
           <rect id="button" ry="5" rx="5" y="6" x="6" height="38" width="38"
                fill="#f2f5e9" fill-opacity="0.5" stroke="#606060" stroke-width="1.0"/>
           <path id="arrow"
             d="M 11.500037,31.436501 C 11.940474,20.09759 22.043105,11.32322 32.158766,21.979434 L 37.068811,17.246167 C 37.068811,17.246167 37.088388,32 37.088388,32 L 22.160133,31.978069 C 22.160133,31.978069 26.997745,27.140456 26.997745,27.140456 C 18.528582,18.264221 13.291696,25.230495 11.500037,31.436501 z"
             style="fill:#404040;"/>
          </a>
         </g>
        </svg>
</svg>
