<?xml version="1.0" encoding="UTF-8" standalone="no"?>
<!DOCTYPE svg PUBLIC "-//W3C//DTD SVG 1.1//EN"
 "http://www.w3.org/Graphics/SVG/1.1/DTD/svg11.dtd">
<!-- Generated by graphviz version 2.43.0 (0)
 -->
<!-- Title: src/libs/ifc/xml/vabstractconverter.h Pages: 1 -->
<!--zoomable 196 -->
<svg id="main" version="1.1" xmlns="http://www.w3.org/2000/svg" xmlns:xlink="http://www.w3.org/1999/xlink" xml:space="preserve" onload="init(evt)">
<style type="text/css"><![CDATA[
.edge:hover path { stroke: red; }
.edge:hover polygon { stroke: red; fill: red; }
]]></style>
<script type="text/javascript"><![CDATA[
var edges = document.getElementsByTagName('g');
if (edges && edges.length) {
  for (var i=0;i<edges.length;i++) {
    if (edges[i].id.substr(0,4)=='edge') {
      edges[i].setAttribute('class','edge');
    }
  }
}
]]></script>
        <defs>
                <circle id="rim" cx="0" cy="0" r="7"/>
                <circle id="rim2" cx="0" cy="0" r="3.5"/>
                <g id="zoomPlus">
                        <use xlink:href="#rim" fill="#404040">
                                <set attributeName="fill" to="#808080" begin="zoomplus.mouseover" end="zoomplus.mouseout"/>
                        </use>
                        <path d="M-4,0h8M0,-4v8" fill="none" stroke="white" stroke-width="1.5" pointer-events="none"/>
                </g>
                <g id="zoomMin">
                        <use xlink:href="#rim" fill="#404040">
                                <set attributeName="fill" to="#808080" begin="zoomminus.mouseover" end="zoomminus.mouseout"/>
                        </use>
                        <path d="M-4,0h8" fill="none" stroke="white" stroke-width="1.5" pointer-events="none"/>
                </g>
                <g id="dirArrow">
                        <path fill="none" stroke="white" stroke-width="1.5" d="M0,-3.0v7 M-2.5,-0.5L0,-3.0L2.5,-0.5"/>
                </g>
               <g id="resetDef">
                       <use xlink:href="#rim2" fill="#404040">
                               <set attributeName="fill" to="#808080" begin="reset.mouseover" end="reset.mouseout"/>
                       </use>
               </g>
        </defs>

<script type="text/javascript">
var viewWidth = 1547;
var viewHeight = 196;
var sectionId = 'dynsection-1';
</script>
<script xlink:href="../../svgpan.js"/>
<svg id="graph" class="graph">
<g id="viewport">
<title>src/libs/ifc/xml/vabstractconverter.h</title>
<polygon fill="white" stroke="transparent" points="-4,4 -4,-192 1543,-192 1543,4 -4,4"/>
<!-- Node1 -->
<g id="node1" class="node">
<title>Node1</title>
<g id="a_node1"><a xlink:title=" ">
<polygon fill="#bfbfbf" stroke="black" points="444.5,-168.5 444.5,-187.5 635.5,-187.5 635.5,-168.5 444.5,-168.5"/>
<text text-anchor="middle" x="540" y="-175.5" font-family="Helvetica,sans-Serif" font-size="10.00">src/libs/ifc/xml/vabstractconverter.h</text>
</a>
</g>
</g>
<!-- Node2 -->
<g id="node2" class="node">
<title>Node2</title>
<g id="a_node2"><a xlink:href="../../d4/d90/fvupdater_8cpp.html" target="_top" xlink:title=" ">
<polygon fill="white" stroke="black" points="62.5,-112.5 62.5,-131.5 215.5,-131.5 215.5,-112.5 62.5,-112.5"/>
<text text-anchor="middle" x="139" y="-119.5" font-family="Helvetica,sans-Serif" font-size="10.00">src/libs/fervor/fvupdater.cpp</text>
</a>
</g>
</g>
<!-- Node1&#45;&gt;Node2 -->
<g id="edge1" class="edge">
<title>Node1&#45;&gt;Node2</title>
<path fill="none" stroke="midnightblue" d="M466.52,-167.1C390.79,-156.91 273.98,-141.18 202.24,-131.52"/>
<polygon fill="midnightblue" stroke="midnightblue" points="466.08,-170.58 476.46,-168.44 467.02,-163.64 466.08,-170.58"/>
</g>
<!-- Node3 -->
<g id="node3" class="node">
<title>Node3</title>
<g id="a_node3"><a xlink:href="../../dd/d2b/vabstractmconverter_8cpp.html" target="_top" xlink:title=" ">
<polygon fill="white" stroke="black" points="0,-56.5 0,-75.5 212,-75.5 212,-56.5 0,-56.5"/>
<text text-anchor="middle" x="106" y="-63.5" font-family="Helvetica,sans-Serif" font-size="10.00">src/libs/ifc/xml/vabstractmconverter.cpp</text>
</a>
</g>
</g>
<!-- Node1&#45;&gt;Node3 -->
<g id="edge2" class="edge">
<title>Node1&#45;&gt;Node3</title>
<path fill="none" stroke="midnightblue" d="M434.34,-167.69C381.89,-161.11 318.12,-150.11 263,-132 244.49,-125.92 241.79,-119.93 224,-112 192.36,-97.9 154.82,-84.07 130.73,-75.54"/>
<polygon fill="midnightblue" stroke="midnightblue" points="433.99,-171.17 444.34,-168.91 434.83,-164.23 433.99,-171.17"/>
</g>
<!-- Node4 -->
<g id="node4" class="node">
<title>Node4</title>
<g id="a_node4"><a xlink:href="../../d6/d2d/vabstractmconverter_8h.html" target="_top" xlink:title=" ">
<polygon fill="white" stroke="black" points="272.5,-112.5 272.5,-131.5 473.5,-131.5 473.5,-112.5 272.5,-112.5"/>
<text text-anchor="middle" x="373" y="-119.5" font-family="Helvetica,sans-Serif" font-size="10.00">src/libs/ifc/xml/vabstractmconverter.h</text>
</a>
</g>
</g>
<!-- Node1&#45;&gt;Node4 -->
<g id="edge3" class="edge">
<title>Node1&#45;&gt;Node4</title>
<path fill="none" stroke="midnightblue" d="M503.83,-165.3C472.36,-155.13 427.51,-140.62 399.34,-131.52"/>
<polygon fill="midnightblue" stroke="midnightblue" points="502.95,-168.7 513.54,-168.44 505.1,-162.04 502.95,-168.7"/>
</g>
<!-- Node6 -->
<g id="node6" class="node">
<title>Node6</title>
<g id="a_node6"><a xlink:href="../../d1/d8f/vvitconverter_8h.html" target="_top" xlink:title=" ">
<polygon fill="white" stroke="black" points="268,-56.5 268,-75.5 432,-75.5 432,-56.5 268,-56.5"/>
<text text-anchor="middle" x="350" y="-63.5" font-family="Helvetica,sans-Serif" font-size="10.00">src/libs/ifc/xml/vvitconverter.h</text>
</a>
</g>
</g>
<!-- Node1&#45;&gt;Node6 -->
<g id="edge21" class="edge">
<title>Node1&#45;&gt;Node6</title>
<path fill="none" stroke="midnightblue" d="M528.33,-159.52C517.78,-144.95 501.03,-124.61 482,-112 454.76,-93.94 419.54,-82.41 392.33,-75.55"/>
<polygon fill="midnightblue" stroke="midnightblue" points="525.73,-161.91 534.32,-168.12 531.47,-157.91 525.73,-161.91"/>
</g>
<!-- Node8 -->
<g id="node8" class="node">
<title>Node8</title>
<g id="a_node8"><a xlink:href="../../d2/d10/vvstconverter_8h.html" target="_top" xlink:title=" ">
<polygon fill="white" stroke="black" points="487.5,-56.5 487.5,-75.5 654.5,-75.5 654.5,-56.5 487.5,-56.5"/>
<text text-anchor="middle" x="571" y="-63.5" font-family="Helvetica,sans-Serif" font-size="10.00">src/libs/ifc/xml/vvstconverter.h</text>
</a>
</g>
</g>
<!-- Node1&#45;&gt;Node8 -->
<g id="edge22" class="edge">
<title>Node1&#45;&gt;Node8</title>
<path fill="none" stroke="midnightblue" d="M545.16,-158.67C551.94,-134.62 563.56,-93.39 568.58,-75.59"/>
<polygon fill="midnightblue" stroke="midnightblue" points="541.78,-157.79 542.43,-168.37 548.51,-159.69 541.78,-157.79"/>
</g>
<!-- Node10 -->
<g id="node10" class="node">
<title>Node10</title>
<g id="a_node10"><a xlink:href="../../d4/d9f/vabstractconverter_8cpp.html" target="_top" xlink:title=" ">
<polygon fill="white" stroke="black" points="568.5,-112.5 568.5,-131.5 771.5,-131.5 771.5,-112.5 568.5,-112.5"/>
<text text-anchor="middle" x="670" y="-119.5" font-family="Helvetica,sans-Serif" font-size="10.00">src/libs/ifc/xml/vabstractconverter.cpp</text>
</a>
</g>
</g>
<!-- Node1&#45;&gt;Node10 -->
<g id="edge13" class="edge">
<title>Node1&#45;&gt;Node10</title>
<path fill="none" stroke="midnightblue" d="M570.09,-164.5C594.46,-154.38 628.14,-140.39 649.5,-131.52"/>
<polygon fill="midnightblue" stroke="midnightblue" points="568.49,-161.38 560.6,-168.44 571.18,-167.84 568.49,-161.38"/>
</g>
<!-- Node11 -->
<g id="node11" class="node">
<title>Node11</title>
<g id="a_node11"><a xlink:href="../../d5/d35/vlabeltemplateconverter_8h.html" target="_top" xlink:title=" ">
<polygon fill="white" stroke="black" points="790,-112.5 790,-131.5 1010,-131.5 1010,-112.5 790,-112.5"/>
<text text-anchor="middle" x="900" y="-119.5" font-family="Helvetica,sans-Serif" font-size="10.00">src/libs/ifc/xml/vlabeltemplateconverter.h</text>
</a>
</g>
</g>
<!-- Node1&#45;&gt;Node11 -->
<g id="edge14" class="edge">
<title>Node1&#45;&gt;Node11</title>
<path fill="none" stroke="midnightblue" d="M607.22,-166.92C675.23,-156.71 779.22,-141.12 843.22,-131.52"/>
<polygon fill="midnightblue" stroke="midnightblue" points="606.41,-163.5 597.04,-168.44 607.45,-170.42 606.41,-163.5"/>
</g>
<!-- Node14 -->
<g id="node14" class="node">
<title>Node14</title>
<g id="a_node14"><a xlink:href="../../d5/d2c/vpatternconverter_8cpp.html" target="_top" xlink:title=" ">
<polygon fill="white" stroke="black" points="1131,-56.5 1131,-75.5 1329,-75.5 1329,-56.5 1131,-56.5"/>
<text text-anchor="middle" x="1230" y="-63.5" font-family="Helvetica,sans-Serif" font-size="10.00">src/libs/ifc/xml/vpatternconverter.cpp</text>
</a>
</g>
</g>
<!-- Node1&#45;&gt;Node14 -->
<g id="edge17" class="edge">
<title>Node1&#45;&gt;Node14</title>
<path fill="none" stroke="midnightblue" d="M645.98,-173.28C743.64,-168.38 892.21,-157.21 1019,-132 1089.3,-118.02 1169.48,-89.78 1207.6,-75.57"/>
<polygon fill="midnightblue" stroke="midnightblue" points="645.62,-169.79 635.81,-173.78 645.96,-176.79 645.62,-169.79"/>
</g>
<!-- Node15 -->
<g id="node15" class="node">
<title>Node15</title>
<g id="a_node15"><a xlink:href="../../df/d2f/vpatternconverter_8h.html" target="_top" xlink:title=" ">
<polygon fill="white" stroke="black" points="1136.5,-112.5 1136.5,-131.5 1323.5,-131.5 1323.5,-112.5 1136.5,-112.5"/>
<text text-anchor="middle" x="1230" y="-119.5" font-family="Helvetica,sans-Serif" font-size="10.00">src/libs/ifc/xml/vpatternconverter.h</text>
</a>
</g>
</g>
<!-- Node1&#45;&gt;Node15 -->
<g id="edge18" class="edge">
<title>Node1&#45;&gt;Node15</title>
<path fill="none" stroke="midnightblue" d="M645.85,-168.72C779.84,-158.23 1008.55,-140.33 1136.42,-130.32"/>
<polygon fill="midnightblue" stroke="midnightblue" points="645.28,-165.25 635.58,-169.52 645.82,-172.23 645.28,-165.25"/>
</g>
<!-- Node4&#45;&gt;Node3 -->
<g id="edge4" class="edge">
<title>Node4&#45;&gt;Node3</title>
<path fill="none" stroke="midnightblue" d="M320.64,-110.41C270.18,-100.2 194.8,-84.96 148.11,-75.52"/>
<polygon fill="midnightblue" stroke="midnightblue" points="320.2,-113.89 330.69,-112.44 321.59,-107.03 320.2,-113.89"/>
</g>
<!-- Node5 -->
<g id="node5" class="node">
<title>Node5</title>
<g id="a_node5"><a xlink:href="../../d5/dba/vvitconverter_8cpp.html" target="_top" xlink:title=" ">
<polygon fill="white" stroke="black" points="113,-0.5 113,-19.5 289,-19.5 289,-0.5 113,-0.5"/>
<text text-anchor="middle" x="201" y="-7.5" font-family="Helvetica,sans-Serif" font-size="10.00">src/libs/ifc/xml/vvitconverter.cpp</text>
</a>
</g>
</g>
<!-- Node4&#45;&gt;Node5 -->
<g id="edge5" class="edge">
<title>Node4&#45;&gt;Node5</title>
<path fill="none" stroke="midnightblue" d="M330.42,-109.43C307.93,-102.07 280.59,-91.06 259,-76 236.18,-60.08 216.2,-33.47 206.77,-19.75"/>
<polygon fill="midnightblue" stroke="midnightblue" points="329.47,-112.8 340.06,-112.46 331.57,-106.12 329.47,-112.8"/>
</g>
<!-- Node4&#45;&gt;Node6 -->
<g id="edge6" class="edge">
<title>Node4&#45;&gt;Node6</title>
<path fill="none" stroke="midnightblue" d="M365.2,-102.69C361.32,-93.59 356.82,-83.01 353.73,-75.75"/>
<polygon fill="midnightblue" stroke="midnightblue" points="362.06,-104.25 369.2,-112.08 368.5,-101.51 362.06,-104.25"/>
</g>
<!-- Node4&#45;&gt;Node8 -->
<g id="edge9" class="edge">
<title>Node4&#45;&gt;Node8</title>
<path fill="none" stroke="midnightblue" d="M414.44,-109.7C451.81,-99.51 505.94,-84.74 539.77,-75.52"/>
<polygon fill="midnightblue" stroke="midnightblue" points="413.1,-106.44 404.37,-112.44 414.94,-113.19 413.1,-106.44"/>
</g>
<!-- Node9 -->
<g id="node9" class="node">
<title>Node9</title>
<g id="a_node9"><a xlink:href="../../d0/dd6/vvstconverter_8cpp.html" target="_top" xlink:title=" ">
<polygon fill="white" stroke="black" points="521,-0.5 521,-19.5 699,-19.5 699,-0.5 521,-0.5"/>
<text text-anchor="middle" x="610" y="-7.5" font-family="Helvetica,sans-Serif" font-size="10.00">src/libs/ifc/xml/vvstconverter.cpp</text>
</a>
</g>
</g>
<!-- Node4&#45;&gt;Node9 -->
<g id="edge12" class="edge">
<title>Node4&#45;&gt;Node9</title>
<path fill="none" stroke="midnightblue" d="M394.56,-106.85C420.15,-90.2 461.43,-63.83 478,-56 511.16,-40.33 551.31,-27.45 578.55,-19.54"/>
<polygon fill="midnightblue" stroke="midnightblue" points="392.38,-104.1 385.92,-112.49 396.2,-109.96 392.38,-104.1"/>
</g>
<!-- Node6&#45;&gt;Node5 -->
<g id="edge7" class="edge">
<title>Node6&#45;&gt;Node5</title>
<path fill="none" stroke="midnightblue" d="M316.63,-52.91C288.62,-42.75 249.3,-28.51 224.5,-19.52"/>
<polygon fill="midnightblue" stroke="midnightblue" points="315.8,-56.33 326.39,-56.44 318.18,-49.75 315.8,-56.33"/>
</g>
<!-- Node7 -->
<g id="node7" class="node">
<title>Node7</title>
<g id="a_node7"><a xlink:href="../../de/db3/vmeasurements_8cpp.html" target="_top" xlink:title=" ">
<polygon fill="white" stroke="black" points="307,-0.5 307,-19.5 503,-19.5 503,-0.5 307,-0.5"/>
<text text-anchor="middle" x="405" y="-7.5" font-family="Helvetica,sans-Serif" font-size="10.00">src/libs/vformat/vmeasurements.cpp</text>
</a>
</g>
</g>
<!-- Node6&#45;&gt;Node7 -->
<g id="edge8" class="edge">
<title>Node6&#45;&gt;Node7</title>
<path fill="none" stroke="midnightblue" d="M366.29,-49C376.04,-39.43 388.05,-27.64 396.09,-19.75"/>
<polygon fill="midnightblue" stroke="midnightblue" points="363.77,-46.58 359.08,-56.08 368.67,-51.57 363.77,-46.58"/>
</g>
<!-- Node8&#45;&gt;Node7 -->
<g id="edge11" class="edge">
<title>Node8&#45;&gt;Node7</title>
<path fill="none" stroke="midnightblue" d="M535.05,-53.3C503.77,-43.13 459.18,-28.62 431.18,-19.52"/>
<polygon fill="midnightblue" stroke="midnightblue" points="534.1,-56.68 544.7,-56.44 536.27,-50.02 534.1,-56.68"/>
</g>
<!-- Node8&#45;&gt;Node9 -->
<g id="edge10" class="edge">
<title>Node8&#45;&gt;Node9</title>
<path fill="none" stroke="midnightblue" d="M583.38,-47.86C590.14,-38.5 598.21,-27.33 603.68,-19.75"/>
<polygon fill="midnightblue" stroke="midnightblue" points="580.46,-45.93 577.44,-56.08 586.13,-50.03 580.46,-45.93"/>
</g>
<!-- Node12 -->
<g id="node12" class="node">
<title>Node12</title>
<g id="a_node12"><a xlink:href="../../d7/d63/vlabeltemplateconverter_8cpp.html" target="_top" xlink:title=" ">
<polygon fill="white" stroke="black" points="881.5,-56.5 881.5,-75.5 1112.5,-75.5 1112.5,-56.5 881.5,-56.5"/>
<text text-anchor="middle" x="997" y="-63.5" font-family="Helvetica,sans-Serif" font-size="10.00">src/libs/ifc/xml/vlabeltemplateconverter.cpp</text>
</a>
</g>
</g>
<!-- Node11&#45;&gt;Node12 -->
<g id="edge15" class="edge">
<title>Node11&#45;&gt;Node12</title>
<path fill="none" stroke="midnightblue" d="M924.34,-107.45C942.24,-97.48 966.05,-84.23 981.45,-75.65"/>
<polygon fill="midnightblue" stroke="midnightblue" points="922.62,-104.4 915.58,-112.32 926.02,-110.52 922.62,-104.4"/>
</g>
<!-- Node13 -->
<g id="node13" class="node">
<title>Node13</title>
<g id="a_node13"><a xlink:href="../../d9/daf/vlabeltemplate_8cpp.html" target="_top" xlink:title=" ">
<polygon fill="white" stroke="black" points="672.5,-56.5 672.5,-75.5 863.5,-75.5 863.5,-56.5 672.5,-56.5"/>
<text text-anchor="middle" x="768" y="-63.5" font-family="Helvetica,sans-Serif" font-size="10.00">src/libs/vformat/vlabeltemplate.cpp</text>
</a>
</g>
</g>
<!-- Node11&#45;&gt;Node13 -->
<g id="edge16" class="edge">
<title>Node11&#45;&gt;Node13</title>
<path fill="none" stroke="midnightblue" d="M869.78,-108.64C845.01,-98.5 810.6,-84.43 788.82,-75.52"/>
<polygon fill="midnightblue" stroke="midnightblue" points="868.5,-111.9 879.08,-112.44 871.15,-105.42 868.5,-111.9"/>
</g>
<!-- Node15&#45;&gt;Node14 -->
<g id="edge20" class="edge">
<title>Node15&#45;&gt;Node14</title>
<path fill="none" stroke="midnightblue" d="M1230,-101.8C1230,-92.91 1230,-82.78 1230,-75.75"/>
<polygon fill="midnightblue" stroke="midnightblue" points="1226.5,-102.08 1230,-112.08 1233.5,-102.08 1226.5,-102.08"/>
</g>
<!-- Node16 -->
<g id="node16" class="node">
<title>Node16</title>
<g id="a_node16"><a xlink:href="../../de/d7d/vabstractpattern_8cpp.html" target="_top" xlink:title=" ">
<polygon fill="white" stroke="black" points="1347,-56.5 1347,-75.5 1539,-75.5 1539,-56.5 1347,-56.5"/>
<text text-anchor="middle" x="1443" y="-63.5" font-family="Helvetica,sans-Serif" font-size="10.00">src/libs/ifc/xml/vabstractpattern.cpp</text>
</a>
</g>
</g>
<!-- Node15&#45;&gt;Node16 -->
<g id="edge19" class="edge">
<title>Node15&#45;&gt;Node16</title>
<path fill="none" stroke="midnightblue" d="M1273.55,-109.96C1313.78,-99.76 1372.7,-84.82 1409.41,-75.52"/>
<polygon fill="midnightblue" stroke="midnightblue" points="1272.58,-106.59 1263.75,-112.44 1274.3,-113.38 1272.58,-106.59"/>
</g>
</g>
</svg>
        <g id="navigator" transform="translate(0 0)" fill="#404254">
                <rect fill="#f2f5e9" fill-opacity="0.5" stroke="#606060" stroke-width=".5" x="0" y="0" width="60" height="60"/>
                <use id="zoomplus" xlink:href="#zoomPlus" x="17" y="9" onmousedown="handleZoom(evt,'in')"/>
                <use id="zoomminus" xlink:href="#zoomMin" x="42" y="9" onmousedown="handleZoom(evt,'out')"/>
                <use id="reset" xlink:href="#resetDef" x="30" y="36" onmousedown="handleReset()"/>
                <g id="arrowUp" xlink:href="#dirArrow" transform="translate(30 24)" onmousedown="handlePan(0,-1)">
                  <use xlink:href="#rim" fill="#404040">
                        <set attributeName="fill" to="#808080" begin="arrowUp.mouseover" end="arrowUp.mouseout"/>
                  </use>
                  <path fill="none" stroke="white" stroke-width="1.5" d="M0,-3.0v7 M-2.5,-0.5L0,-3.0L2.5,-0.5"/>
                </g>
                <g id="arrowRight" xlink:href="#dirArrow" transform="rotate(90) translate(36 -43)" onmousedown="handlePan(1,0)">
                  <use xlink:href="#rim" fill="#404040">
                        <set attributeName="fill" to="#808080" begin="arrowRight.mouseover" end="arrowRight.mouseout"/>
                  </use>
                  <path fill="none" stroke="white" stroke-width="1.5" d="M0,-3.0v7 M-2.5,-0.5L0,-3.0L2.5,-0.5"/>
                </g>
                <g id="arrowDown" xlink:href="#dirArrow" transform="rotate(180) translate(-30 -48)" onmousedown="handlePan(0,1)">
                  <use xlink:href="#rim" fill="#404040">
                        <set attributeName="fill" to="#808080" begin="arrowDown.mouseover" end="arrowDown.mouseout"/>
                  </use>
                  <path fill="none" stroke="white" stroke-width="1.5" d="M0,-3.0v7 M-2.5,-0.5L0,-3.0L2.5,-0.5"/>
                </g>
                <g id="arrowLeft" xlink:href="#dirArrow" transform="rotate(270) translate(-36 17)" onmousedown="handlePan(-1,0)">
                  <use xlink:href="#rim" fill="#404040">
                        <set attributeName="fill" to="#808080" begin="arrowLeft.mouseover" end="arrowLeft.mouseout"/>
                  </use>
                  <path fill="none" stroke="white" stroke-width="1.5" d="M0,-3.0v7 M-2.5,-0.5L0,-3.0L2.5,-0.5"/>
                </g>
        </g>
        <svg viewBox="0 0 15 15" width="100%" height="30px" preserveAspectRatio="xMaxYMin meet">
         <g id="arrow_out" transform="scale(0.3 0.3)">
          <a xlink:href="vabstractconverter_8h__dep__incl_org.svg" target="_base">
           <rect id="button" ry="5" rx="5" y="6" x="6" height="38" width="38"
                fill="#f2f5e9" fill-opacity="0.5" stroke="#606060" stroke-width="1.0"/>
           <path id="arrow"
             d="M 11.500037,31.436501 C 11.940474,20.09759 22.043105,11.32322 32.158766,21.979434 L 37.068811,17.246167 C 37.068811,17.246167 37.088388,32 37.088388,32 L 22.160133,31.978069 C 22.160133,31.978069 26.997745,27.140456 26.997745,27.140456 C 18.528582,18.264221 13.291696,25.230495 11.500037,31.436501 z"
             style="fill:#404040;"/>
          </a>
         </g>
        </svg>
</svg>
