<?xml version="1.0" encoding="UTF-8" standalone="no"?>
<!DOCTYPE svg PUBLIC "-//W3C//DTD SVG 1.1//EN"
 "http://www.w3.org/Graphics/SVG/1.1/DTD/svg11.dtd">
<!-- Generated by graphviz version 2.43.0 (0)
 -->
<!-- Title: src/libs/vwidgets/global.h Pages: 1 -->
<svg width="2287pt" height="95pt"
 viewBox="0.00 0.00 2287.00 95.00" xmlns="http://www.w3.org/2000/svg" xmlns:xlink="http://www.w3.org/1999/xlink">
<g id="graph0" class="graph" transform="scale(1 1) rotate(0) translate(4 91)">
<title>src/libs/vwidgets/global.h</title>
<polygon fill="white" stroke="transparent" points="-4,4 -4,-91 2283,-91 2283,4 -4,4"/>
<!-- Node1 -->
<g id="node1" class="node">
<title>Node1</title>
<g id="a_node1"><a xlink:title=" ">
<polygon fill="#bfbfbf" stroke="black" points="1004.5,-67.5 1004.5,-86.5 1144.5,-86.5 1144.5,-67.5 1004.5,-67.5"/>
<text text-anchor="middle" x="1074.5" y="-74.5" font-family="Helvetica,sans-Serif" font-size="10.00">src/libs/vwidgets/global.h</text>
</a>
</g>
</g>
<!-- Node2 -->
<g id="node2" class="node">
<title>Node2</title>
<g id="a_node2"><a xlink:href="../../dd/d70/vlayoutpiece_8cpp.html" target="_top" xlink:title=" ">
<polygon fill="white" stroke="black" points="0,-6 0,-25 177,-25 177,-6 0,-6"/>
<text text-anchor="middle" x="88.5" y="-13" font-family="Helvetica,sans-Serif" font-size="10.00">src/libs/vlayout/vlayoutpiece.cpp</text>
</a>
</g>
</g>
<!-- Node1&#45;&gt;Node2 -->
<g id="edge1" class="edge">
<title>Node1&#45;&gt;Node2</title>
<path fill="none" stroke="midnightblue" d="M993.95,-74.51C837.82,-71.06 483.26,-60.4 186.5,-31 171.27,-29.49 154.78,-27.28 139.75,-25.03"/>
<polygon fill="midnightblue" stroke="midnightblue" points="994.32,-78.02 1004.39,-74.74 994.47,-71.02 994.32,-78.02"/>
</g>
<!-- Node3 -->
<g id="node3" class="node">
<title>Node3</title>
<g id="a_node3"><a xlink:href="../../db/d7d/global_8cpp.html" target="_top" xlink:title=" ">
<polygon fill="white" stroke="black" points="195.5,-6 195.5,-25 347.5,-25 347.5,-6 195.5,-6"/>
<text text-anchor="middle" x="271.5" y="-13" font-family="Helvetica,sans-Serif" font-size="10.00">src/libs/vwidgets/global.cpp</text>
</a>
</g>
</g>
<!-- Node1&#45;&gt;Node3 -->
<g id="edge2" class="edge">
<title>Node1&#45;&gt;Node3</title>
<path fill="none" stroke="midnightblue" d="M994.37,-73.76C861.45,-69.42 587.14,-57.82 356.5,-31 343.41,-29.48 329.28,-27.29 316.37,-25.07"/>
<polygon fill="midnightblue" stroke="midnightblue" points="994.36,-77.26 1004.46,-74.08 994.58,-70.26 994.36,-77.26"/>
</g>
<!-- Node4 -->
<g id="node4" class="node">
<title>Node4</title>
<g id="a_node4"><a xlink:href="../../d4/d50/scalesceneitems_8cpp.html" target="_top" xlink:title=" ">
<polygon fill="white" stroke="black" points="366,-6 366,-25 569,-25 569,-6 366,-6"/>
<text text-anchor="middle" x="467.5" y="-13" font-family="Helvetica,sans-Serif" font-size="10.00">src/libs/vwidgets/scalesceneitems.cpp</text>
</a>
</g>
</g>
<!-- Node1&#45;&gt;Node4 -->
<g id="edge3" class="edge">
<title>Node1&#45;&gt;Node4</title>
<path fill="none" stroke="midnightblue" d="M994.29,-69.75C895.96,-61.85 724.29,-47.31 577.5,-31 561.71,-29.24 544.67,-27.11 528.83,-25.03"/>
<polygon fill="midnightblue" stroke="midnightblue" points="994.2,-73.25 1004.45,-70.56 994.76,-66.28 994.2,-73.25"/>
</g>
<!-- Node5 -->
<g id="node5" class="node">
<title>Node5</title>
<g id="a_node5"><a xlink:href="../../df/dcf/vcurvepathitem_8cpp.html" target="_top" xlink:title=" ">
<polygon fill="white" stroke="black" points="587,-6 587,-25 786,-25 786,-6 587,-6"/>
<text text-anchor="middle" x="686.5" y="-13" font-family="Helvetica,sans-Serif" font-size="10.00">src/libs/vwidgets/vcurvepathitem.cpp</text>
</a>
</g>
</g>
<!-- Node1&#45;&gt;Node5 -->
<g id="edge4" class="edge">
<title>Node1&#45;&gt;Node5</title>
<path fill="none" stroke="midnightblue" d="M1008.64,-65.9C933.63,-54.4 812.38,-35.8 741.99,-25.01"/>
<polygon fill="midnightblue" stroke="midnightblue" points="1008.49,-69.42 1018.91,-67.48 1009.56,-62.5 1008.49,-69.42"/>
</g>
<!-- Node6 -->
<g id="node6" class="node">
<title>Node6</title>
<g id="a_node6"><a xlink:href="../../d8/d76/scene__rect_8cpp.html" target="_top" xlink:title=" ">
<polygon fill="white" stroke="black" points="804.5,-0.5 804.5,-30.5 934.5,-30.5 934.5,-0.5 804.5,-0.5"/>
<text text-anchor="start" x="812.5" y="-18.5" font-family="Helvetica,sans-Serif" font-size="10.00">src/libs/vwidgets/scene</text>
<text text-anchor="middle" x="869.5" y="-7.5" font-family="Helvetica,sans-Serif" font-size="10.00">_rect.cpp</text>
</a>
</g>
</g>
<!-- Node1&#45;&gt;Node6 -->
<g id="edge5" class="edge">
<title>Node1&#45;&gt;Node6</title>
<path fill="none" stroke="midnightblue" d="M1035.25,-64.61C1001.81,-54.9 953.62,-40.92 917.81,-30.52"/>
<polygon fill="midnightblue" stroke="midnightblue" points="1034.55,-68.05 1045.13,-67.48 1036.5,-61.33 1034.55,-68.05"/>
</g>
<!-- Node7 -->
<g id="node7" class="node">
<title>Node7</title>
<g id="a_node7"><a xlink:href="../../de/dec/vgraphicssimpletextitem_8cpp.html" target="_top" xlink:title=" ">
<polygon fill="white" stroke="black" points="952.5,-6 952.5,-25 1196.5,-25 1196.5,-6 952.5,-6"/>
<text text-anchor="middle" x="1074.5" y="-13" font-family="Helvetica,sans-Serif" font-size="10.00">src/libs/vwidgets/vgraphicssimpletextitem.cpp</text>
</a>
</g>
</g>
<!-- Node1&#45;&gt;Node7 -->
<g id="edge6" class="edge">
<title>Node1&#45;&gt;Node7</title>
<path fill="none" stroke="midnightblue" d="M1074.5,-57.32C1074.5,-46.5 1074.5,-33.4 1074.5,-25.01"/>
<polygon fill="midnightblue" stroke="midnightblue" points="1071,-57.48 1074.5,-67.48 1078,-57.48 1071,-57.48"/>
</g>
<!-- Node8 -->
<g id="node8" class="node">
<title>Node8</title>
<g id="a_node8"><a xlink:href="../../de/d45/vcontrolpointspline_8cpp.html" target="_top" xlink:title=" ">
<polygon fill="white" stroke="black" points="1215,-6 1215,-25 1430,-25 1430,-6 1215,-6"/>
<text text-anchor="middle" x="1322.5" y="-13" font-family="Helvetica,sans-Serif" font-size="10.00">src/libs/vwidgets/vcontrolpointspline.cpp</text>
</a>
</g>
</g>
<!-- Node1&#45;&gt;Node8 -->
<g id="edge7" class="edge">
<title>Node1&#45;&gt;Node8</title>
<path fill="none" stroke="midnightblue" d="M1119.87,-65.11C1168.01,-53.57 1243.05,-35.56 1287.03,-25.01"/>
<polygon fill="midnightblue" stroke="midnightblue" points="1118.94,-61.74 1110.03,-67.48 1120.57,-68.55 1118.94,-61.74"/>
</g>
<!-- Node9 -->
<g id="node9" class="node">
<title>Node9</title>
<g id="a_node9"><a xlink:href="../../d1/d88/vmaingraphicsscene_8cpp.html" target="_top" xlink:title=" ">
<polygon fill="white" stroke="black" points="1448.5,-6 1448.5,-25 1670.5,-25 1670.5,-6 1448.5,-6"/>
<text text-anchor="middle" x="1559.5" y="-13" font-family="Helvetica,sans-Serif" font-size="10.00">src/libs/vwidgets/vmaingraphicsscene.cpp</text>
</a>
</g>
</g>
<!-- Node1&#45;&gt;Node9 -->
<g id="edge8" class="edge">
<title>Node1&#45;&gt;Node9</title>
<path fill="none" stroke="midnightblue" d="M1153.96,-66.25C1247.48,-54.78 1401.25,-35.91 1490.14,-25.01"/>
<polygon fill="midnightblue" stroke="midnightblue" points="1153.49,-62.78 1143.99,-67.48 1154.34,-69.73 1153.49,-62.78"/>
</g>
<!-- Node10 -->
<g id="node10" class="node">
<title>Node10</title>
<g id="a_node10"><a xlink:href="../../de/d22/vsimplecurve_8cpp.html" target="_top" xlink:title=" ">
<polygon fill="white" stroke="black" points="1688.5,-6 1688.5,-25 1876.5,-25 1876.5,-6 1688.5,-6"/>
<text text-anchor="middle" x="1782.5" y="-13" font-family="Helvetica,sans-Serif" font-size="10.00">src/libs/vwidgets/vsimplecurve.cpp</text>
</a>
</g>
</g>
<!-- Node1&#45;&gt;Node10 -->
<g id="edge9" class="edge">
<title>Node1&#45;&gt;Node10</title>
<path fill="none" stroke="midnightblue" d="M1154.72,-71.71C1270.71,-65.13 1491.95,-51.15 1679.5,-31 1694.85,-29.35 1711.44,-27.19 1726.72,-25.03"/>
<polygon fill="midnightblue" stroke="midnightblue" points="1154.29,-68.23 1144.5,-72.29 1154.69,-75.22 1154.29,-68.23"/>
</g>
<!-- Node11 -->
<g id="node11" class="node">
<title>Node11</title>
<g id="a_node11"><a xlink:href="../../df/d38/vsimplepoint_8cpp.html" target="_top" xlink:title=" ">
<polygon fill="white" stroke="black" points="1895,-6 1895,-25 2080,-25 2080,-6 1895,-6"/>
<text text-anchor="middle" x="1987.5" y="-13" font-family="Helvetica,sans-Serif" font-size="10.00">src/libs/vwidgets/vsimplepoint.cpp</text>
</a>
</g>
</g>
<!-- Node1&#45;&gt;Node11 -->
<g id="edge10" class="edge">
<title>Node1&#45;&gt;Node11</title>
<path fill="none" stroke="midnightblue" d="M1154.83,-73.83C1300.66,-69.37 1618.6,-57.33 1885.5,-31 1901.25,-29.45 1918.3,-27.23 1933.87,-25"/>
<polygon fill="midnightblue" stroke="midnightblue" points="1154.52,-70.33 1144.63,-74.13 1154.73,-77.33 1154.52,-70.33"/>
</g>
<!-- Node12 -->
<g id="node12" class="node">
<title>Node12</title>
<g id="a_node12"><a xlink:href="../../d0/d5d/vscenepoint_8cpp.html" target="_top" xlink:title=" ">
<polygon fill="white" stroke="black" points="2098,-6 2098,-25 2279,-25 2279,-6 2098,-6"/>
<text text-anchor="middle" x="2188.5" y="-13" font-family="Helvetica,sans-Serif" font-size="10.00">src/libs/vwidgets/vscenepoint.cpp</text>
</a>
</g>
</g>
<!-- Node1&#45;&gt;Node12 -->
<g id="edge11" class="edge">
<title>Node1&#45;&gt;Node12</title>
<path fill="none" stroke="midnightblue" d="M1154.72,-75.2C1326.51,-72.87 1742.54,-64.01 2089.5,-31 2105.06,-29.52 2121.92,-27.29 2137.24,-25.02"/>
<polygon fill="midnightblue" stroke="midnightblue" points="1154.46,-71.7 1144.5,-75.33 1154.55,-78.7 1154.46,-71.7"/>
</g>
</g>
</svg>
