<?xml version="1.0" encoding="UTF-8" standalone="no"?>
<!DOCTYPE svg PUBLIC "-//W3C//DTD SVG 1.1//EN"
 "http://www.w3.org/Graphics/SVG/1.1/DTD/svg11.dtd">
<!-- Generated by graphviz version 2.43.0 (0)
 -->
<!-- Title: src/libs/vlayout/vlayoutpiece.h Pages: 1 -->
<svg width="1318pt" height="140pt"
 viewBox="0.00 0.00 1317.50 140.00" xmlns="http://www.w3.org/2000/svg" xmlns:xlink="http://www.w3.org/1999/xlink">
<g id="graph0" class="graph" transform="scale(1 1) rotate(0) translate(4 136)">
<title>src/libs/vlayout/vlayoutpiece.h</title>
<polygon fill="white" stroke="transparent" points="-4,4 -4,-136 1313.5,-136 1313.5,4 -4,4"/>
<!-- Node1 -->
<g id="node1" class="node">
<title>Node1</title>
<g id="a_node1"><a xlink:title=" ">
<polygon fill="#bfbfbf" stroke="black" points="587,-112.5 587,-131.5 753,-131.5 753,-112.5 587,-112.5"/>
<text text-anchor="middle" x="670" y="-119.5" font-family="Helvetica,sans-Serif" font-size="10.00">src/libs/vlayout/vlayoutpiece.h</text>
</a>
</g>
</g>
<!-- Node2 -->
<g id="node2" class="node">
<title>Node2</title>
<g id="a_node2"><a xlink:href="../../dd/d66/vdxfengine_8cpp.html" target="_top" xlink:title=" ">
<polygon fill="white" stroke="black" points="0,-56.5 0,-75.5 154,-75.5 154,-56.5 0,-56.5"/>
<text text-anchor="middle" x="77" y="-63.5" font-family="Helvetica,sans-Serif" font-size="10.00">src/libs/vdxf/vdxfengine.cpp</text>
</a>
</g>
</g>
<!-- Node1&#45;&gt;Node2 -->
<g id="edge1" class="edge">
<title>Node1&#45;&gt;Node2</title>
<path fill="none" stroke="midnightblue" d="M576.73,-113.16C474.98,-104.51 307.35,-89.96 163,-76 160.16,-75.73 157.27,-75.44 154.35,-75.15"/>
<polygon fill="midnightblue" stroke="midnightblue" points="576.71,-116.68 586.97,-114.03 577.3,-109.7 576.71,-116.68"/>
</g>
<!-- Node3 -->
<g id="node3" class="node">
<title>Node3</title>
<g id="a_node3"><a xlink:href="../../de/da8/vbank_8cpp.html" target="_top" xlink:title=" ">
<polygon fill="white" stroke="black" points="172,-56.5 172,-75.5 316,-75.5 316,-56.5 172,-56.5"/>
<text text-anchor="middle" x="244" y="-63.5" font-family="Helvetica,sans-Serif" font-size="10.00">src/libs/vlayout/vbank.cpp</text>
</a>
</g>
</g>
<!-- Node1&#45;&gt;Node3 -->
<g id="edge2" class="edge">
<title>Node1&#45;&gt;Node3</title>
<path fill="none" stroke="midnightblue" d="M592.43,-111.17C512,-100.97 387.55,-85.2 311.19,-75.52"/>
<polygon fill="midnightblue" stroke="midnightblue" points="592.14,-114.66 602.5,-112.44 593.02,-107.71 592.14,-114.66"/>
</g>
<!-- Node4 -->
<g id="node4" class="node">
<title>Node4</title>
<g id="a_node4"><a xlink:href="../../df/d5d/vcontour_8cpp.html" target="_top" xlink:title=" ">
<polygon fill="white" stroke="black" points="334,-56.5 334,-75.5 490,-75.5 490,-56.5 334,-56.5"/>
<text text-anchor="middle" x="412" y="-63.5" font-family="Helvetica,sans-Serif" font-size="10.00">src/libs/vlayout/vcontour.cpp</text>
</a>
</g>
</g>
<!-- Node1&#45;&gt;Node4 -->
<g id="edge3" class="edge">
<title>Node1&#45;&gt;Node4</title>
<path fill="none" stroke="midnightblue" d="M619.1,-110.35C570.34,-100.14 497.71,-84.94 452.69,-75.52"/>
<polygon fill="midnightblue" stroke="midnightblue" points="618.61,-113.82 629.12,-112.44 620.05,-106.97 618.61,-113.82"/>
</g>
<!-- Node5 -->
<g id="node5" class="node">
<title>Node5</title>
<g id="a_node5"><a xlink:href="../../d3/d39/vlayoutgenerator_8cpp.html" target="_top" xlink:title=" ">
<polygon fill="white" stroke="black" points="508.5,-56.5 508.5,-75.5 705.5,-75.5 705.5,-56.5 508.5,-56.5"/>
<text text-anchor="middle" x="607" y="-63.5" font-family="Helvetica,sans-Serif" font-size="10.00">src/libs/vlayout/vlayoutgenerator.cpp</text>
</a>
</g>
</g>
<!-- Node1&#45;&gt;Node5 -->
<g id="edge4" class="edge">
<title>Node1&#45;&gt;Node5</title>
<path fill="none" stroke="midnightblue" d="M651.96,-105.54C640.73,-95.91 626.68,-83.87 617.31,-75.83"/>
<polygon fill="midnightblue" stroke="midnightblue" points="650.01,-108.47 659.88,-112.32 654.56,-103.16 650.01,-108.47"/>
</g>
<!-- Node6 -->
<g id="node6" class="node">
<title>Node6</title>
<g id="a_node6"><a xlink:href="../../d1/dd1/vlayoutpaper_8cpp.html" target="_top" xlink:title=" ">
<polygon fill="white" stroke="black" points="955,-0.5 955,-19.5 1133,-19.5 1133,-0.5 955,-0.5"/>
<text text-anchor="middle" x="1044" y="-7.5" font-family="Helvetica,sans-Serif" font-size="10.00">src/libs/vlayout/vlayoutpaper.cpp</text>
</a>
</g>
</g>
<!-- Node1&#45;&gt;Node6 -->
<g id="edge5" class="edge">
<title>Node1&#45;&gt;Node6</title>
<path fill="none" stroke="midnightblue" d="M685.17,-104.88C700.5,-89.66 725.63,-67.51 752,-56 816.29,-27.94 895.21,-17.02 954.79,-12.93"/>
<polygon fill="midnightblue" stroke="midnightblue" points="682.59,-102.51 678.09,-112.11 687.59,-107.41 682.59,-102.51"/>
</g>
<!-- Node7 -->
<g id="node7" class="node">
<title>Node7</title>
<g id="a_node7"><a xlink:href="../../dd/d70/vlayoutpiece_8cpp.html" target="_top" xlink:title=" ">
<polygon fill="white" stroke="black" points="761.5,-56.5 761.5,-75.5 938.5,-75.5 938.5,-56.5 761.5,-56.5"/>
<text text-anchor="middle" x="850" y="-63.5" font-family="Helvetica,sans-Serif" font-size="10.00">src/libs/vlayout/vlayoutpiece.cpp</text>
</a>
</g>
</g>
<!-- Node1&#45;&gt;Node7 -->
<g id="edge6" class="edge">
<title>Node1&#45;&gt;Node7</title>
<path fill="none" stroke="midnightblue" d="M708.11,-109.57C742.06,-99.38 790.99,-84.7 821.61,-75.52"/>
<polygon fill="midnightblue" stroke="midnightblue" points="707.09,-106.22 698.52,-112.44 709.11,-112.92 707.09,-106.22"/>
</g>
<!-- Node8 -->
<g id="node8" class="node">
<title>Node8</title>
<g id="a_node8"><a xlink:href="../../db/d5c/vposition_8h.html" target="_top" xlink:title=" ">
<polygon fill="white" stroke="black" points="1154,-56.5 1154,-75.5 1302,-75.5 1302,-56.5 1154,-56.5"/>
<text text-anchor="middle" x="1228" y="-63.5" font-family="Helvetica,sans-Serif" font-size="10.00">src/libs/vlayout/vposition.h</text>
</a>
</g>
</g>
<!-- Node1&#45;&gt;Node8 -->
<g id="edge7" class="edge">
<title>Node1&#45;&gt;Node8</title>
<path fill="none" stroke="midnightblue" d="M763.31,-112.48C858.92,-103.66 1011.88,-89.35 1144,-76 1147.21,-75.68 1150.49,-75.34 1153.8,-75"/>
<polygon fill="midnightblue" stroke="midnightblue" points="762.72,-109.02 753.09,-113.42 763.36,-115.99 762.72,-109.02"/>
</g>
<!-- Node10 -->
<g id="node10" class="node">
<title>Node10</title>
<g id="a_node10"><a xlink:href="../../d2/d2d/vlayoutpaper__p_8h.html" target="_top" xlink:title=" ">
<polygon fill="white" stroke="black" points="956.5,-56.5 956.5,-75.5 1135.5,-75.5 1135.5,-56.5 956.5,-56.5"/>
<text text-anchor="middle" x="1046" y="-63.5" font-family="Helvetica,sans-Serif" font-size="10.00">src/libs/vlayout/vlayoutpaper_p.h</text>
</a>
</g>
</g>
<!-- Node1&#45;&gt;Node10 -->
<g id="edge10" class="edge">
<title>Node1&#45;&gt;Node10</title>
<path fill="none" stroke="midnightblue" d="M739.77,-110.98C810.8,-100.78 919.71,-85.14 986.7,-75.52"/>
<polygon fill="midnightblue" stroke="midnightblue" points="738.98,-107.56 729.58,-112.44 739.97,-114.49 738.98,-107.56"/>
</g>
<!-- Node8&#45;&gt;Node6 -->
<g id="edge8" class="edge">
<title>Node8&#45;&gt;Node6</title>
<path fill="none" stroke="midnightblue" d="M1189.05,-53.57C1154.34,-43.38 1104.32,-28.7 1073.02,-19.52"/>
<polygon fill="midnightblue" stroke="midnightblue" points="1188.26,-56.99 1198.84,-56.44 1190.23,-50.27 1188.26,-56.99"/>
</g>
<!-- Node9 -->
<g id="node9" class="node">
<title>Node9</title>
<g id="a_node9"><a xlink:href="../../df/d76/vposition_8cpp.html" target="_top" xlink:title=" ">
<polygon fill="white" stroke="black" points="1150.5,-0.5 1150.5,-19.5 1309.5,-19.5 1309.5,-0.5 1150.5,-0.5"/>
<text text-anchor="middle" x="1230" y="-7.5" font-family="Helvetica,sans-Serif" font-size="10.00">src/libs/vlayout/vposition.cpp</text>
</a>
</g>
</g>
<!-- Node8&#45;&gt;Node9 -->
<g id="edge9" class="edge">
<title>Node8&#45;&gt;Node9</title>
<path fill="none" stroke="midnightblue" d="M1228.71,-45.8C1229.04,-36.91 1229.42,-26.78 1229.68,-19.75"/>
<polygon fill="midnightblue" stroke="midnightblue" points="1225.2,-45.96 1228.33,-56.08 1232.2,-46.22 1225.2,-45.96"/>
</g>
<!-- Node10&#45;&gt;Node6 -->
<g id="edge11" class="edge">
<title>Node10&#45;&gt;Node6</title>
<path fill="none" stroke="midnightblue" d="M1045.29,-45.8C1044.96,-36.91 1044.58,-26.78 1044.32,-19.75"/>
<polygon fill="midnightblue" stroke="midnightblue" points="1041.8,-46.22 1045.67,-56.08 1048.8,-45.96 1041.8,-46.22"/>
</g>
</g>
</svg>
