<?xml version="1.0" encoding="UTF-8" standalone="no"?>
<!DOCTYPE svg PUBLIC "-//W3C//DTD SVG 1.1//EN"
 "http://www.w3.org/Graphics/SVG/1.1/DTD/svg11.dtd">
<!-- Generated by graphviz version 2.43.0 (0)
 -->
<!-- Title: src/libs/vdxf/dxfdef.h Pages: 1 -->
<svg width="644pt" height="140pt"
 viewBox="0.00 0.00 644.00 140.00" xmlns="http://www.w3.org/2000/svg" xmlns:xlink="http://www.w3.org/1999/xlink">
<g id="graph0" class="graph" transform="scale(1 1) rotate(0) translate(4 136)">
<title>src/libs/vdxf/dxfdef.h</title>
<polygon fill="white" stroke="transparent" points="-4,4 -4,-136 640,-136 640,4 -4,4"/>
<!-- Node1 -->
<g id="node1" class="node">
<title>Node1</title>
<g id="a_node1"><a xlink:title=" ">
<polygon fill="#bfbfbf" stroke="black" points="248,-112.5 248,-131.5 367,-131.5 367,-112.5 248,-112.5"/>
<text text-anchor="middle" x="307.5" y="-119.5" font-family="Helvetica,sans-Serif" font-size="10.00">src/libs/vdxf/dxfdef.h</text>
</a>
</g>
</g>
<!-- Node2 -->
<g id="node2" class="node">
<title>Node2</title>
<g id="a_node2"><a xlink:href="../../dd/d78/dxiface_8h.html" target="_top" xlink:title=" ">
<polygon fill="white" stroke="black" points="16.5,-56.5 16.5,-75.5 140.5,-75.5 140.5,-56.5 16.5,-56.5"/>
<text text-anchor="middle" x="78.5" y="-63.5" font-family="Helvetica,sans-Serif" font-size="10.00">src/libs/vdxf/dxiface.h</text>
</a>
</g>
</g>
<!-- Node1&#45;&gt;Node2 -->
<g id="edge1" class="edge">
<title>Node1&#45;&gt;Node2</title>
<path fill="none" stroke="midnightblue" d="M261.23,-110.09C217.96,-99.89 154.24,-84.86 114.62,-75.52"/>
<polygon fill="midnightblue" stroke="midnightblue" points="260.68,-113.55 271.21,-112.44 262.28,-106.74 260.68,-113.55"/>
</g>
<!-- Node5 -->
<g id="node5" class="node">
<title>Node5</title>
<g id="a_node5"><a xlink:href="../../d8/d96/vdxfengine_8h.html" target="_top" xlink:title=" ">
<polygon fill="white" stroke="black" points="159,-56.5 159,-75.5 302,-75.5 302,-56.5 159,-56.5"/>
<text text-anchor="middle" x="230.5" y="-63.5" font-family="Helvetica,sans-Serif" font-size="10.00">src/libs/vdxf/vdxfengine.h</text>
</a>
</g>
</g>
<!-- Node1&#45;&gt;Node5 -->
<g id="edge4" class="edge">
<title>Node1&#45;&gt;Node5</title>
<path fill="none" stroke="midnightblue" d="M286.6,-106.34C272.59,-96.52 254.62,-83.91 242.84,-75.65"/>
<polygon fill="midnightblue" stroke="midnightblue" points="284.93,-109.45 295.13,-112.32 288.95,-103.72 284.93,-109.45"/>
</g>
<!-- Node7 -->
<g id="node7" class="node">
<title>Node7</title>
<g id="a_node7"><a xlink:href="../../d7/d44/dxfdef_8cpp.html" target="_top" xlink:title=" ">
<polygon fill="white" stroke="black" points="320.5,-56.5 320.5,-75.5 450.5,-75.5 450.5,-56.5 320.5,-56.5"/>
<text text-anchor="middle" x="385.5" y="-63.5" font-family="Helvetica,sans-Serif" font-size="10.00">src/libs/vdxf/dxfdef.cpp</text>
</a>
</g>
</g>
<!-- Node1&#45;&gt;Node7 -->
<g id="edge7" class="edge">
<title>Node1&#45;&gt;Node7</title>
<path fill="none" stroke="midnightblue" d="M328.27,-106.62C342.52,-96.76 360.96,-83.99 373,-75.65"/>
<polygon fill="midnightblue" stroke="midnightblue" points="326.26,-103.75 320.03,-112.32 330.25,-109.51 326.26,-103.75"/>
</g>
<!-- Node8 -->
<g id="node8" class="node">
<title>Node8</title>
<g id="a_node8"><a xlink:href="../../d0/de8/vdxfpaintdevice_8h.html" target="_top" xlink:title=" ">
<polygon fill="white" stroke="black" points="469,-56.5 469,-75.5 636,-75.5 636,-56.5 469,-56.5"/>
<text text-anchor="middle" x="552.5" y="-63.5" font-family="Helvetica,sans-Serif" font-size="10.00">src/libs/vdxf/vdxfpaintdevice.h</text>
</a>
</g>
</g>
<!-- Node1&#45;&gt;Node8 -->
<g id="edge8" class="edge">
<title>Node1&#45;&gt;Node8</title>
<path fill="none" stroke="midnightblue" d="M356.13,-110.28C402.43,-100.08 471.19,-84.92 513.86,-75.52"/>
<polygon fill="midnightblue" stroke="midnightblue" points="355.33,-106.87 346.32,-112.44 356.84,-113.71 355.33,-106.87"/>
</g>
<!-- Node3 -->
<g id="node3" class="node">
<title>Node3</title>
<g id="a_node3"><a xlink:href="../../d9/dc8/dxiface_8cpp.html" target="_top" xlink:title=" ">
<polygon fill="white" stroke="black" points="0,-0.5 0,-19.5 135,-19.5 135,-0.5 0,-0.5"/>
<text text-anchor="middle" x="67.5" y="-7.5" font-family="Helvetica,sans-Serif" font-size="10.00">src/libs/vdxf/dxiface.cpp</text>
</a>
</g>
</g>
<!-- Node2&#45;&gt;Node3 -->
<g id="edge2" class="edge">
<title>Node2&#45;&gt;Node3</title>
<path fill="none" stroke="midnightblue" d="M74.65,-46.1C72.82,-37.14 70.73,-26.86 69.28,-19.75"/>
<polygon fill="midnightblue" stroke="midnightblue" points="71.26,-46.98 76.68,-56.08 78.12,-45.59 71.26,-46.98"/>
</g>
<!-- Node4 -->
<g id="node4" class="node">
<title>Node4</title>
<g id="a_node4"><a xlink:href="../../dd/d66/vdxfengine_8cpp.html" target="_top" xlink:title=" ">
<polygon fill="white" stroke="black" points="153.5,-0.5 153.5,-19.5 307.5,-19.5 307.5,-0.5 153.5,-0.5"/>
<text text-anchor="middle" x="230.5" y="-7.5" font-family="Helvetica,sans-Serif" font-size="10.00">src/libs/vdxf/vdxfengine.cpp</text>
</a>
</g>
</g>
<!-- Node2&#45;&gt;Node4 -->
<g id="edge3" class="edge">
<title>Node2&#45;&gt;Node4</title>
<path fill="none" stroke="midnightblue" d="M112.17,-53.04C140.77,-42.88 181.11,-28.55 206.53,-19.52"/>
<polygon fill="midnightblue" stroke="midnightblue" points="110.84,-49.8 102.58,-56.44 113.18,-56.39 110.84,-49.8"/>
</g>
<!-- Node5&#45;&gt;Node4 -->
<g id="edge6" class="edge">
<title>Node5&#45;&gt;Node4</title>
<path fill="none" stroke="midnightblue" d="M230.5,-45.8C230.5,-36.91 230.5,-26.78 230.5,-19.75"/>
<polygon fill="midnightblue" stroke="midnightblue" points="227,-46.08 230.5,-56.08 234,-46.08 227,-46.08"/>
</g>
<!-- Node6 -->
<g id="node6" class="node">
<title>Node6</title>
<g id="a_node6"><a xlink:href="../../d2/de5/vdxfpaintdevice_8cpp.html" target="_top" xlink:title=" ">
<polygon fill="white" stroke="black" points="394.5,-0.5 394.5,-19.5 572.5,-19.5 572.5,-0.5 394.5,-0.5"/>
<text text-anchor="middle" x="483.5" y="-7.5" font-family="Helvetica,sans-Serif" font-size="10.00">src/libs/vdxf/vdxfpaintdevice.cpp</text>
</a>
</g>
</g>
<!-- Node5&#45;&gt;Node6 -->
<g id="edge5" class="edge">
<title>Node5&#45;&gt;Node6</title>
<path fill="none" stroke="midnightblue" d="M280.42,-54.35C328.23,-44.14 399.45,-28.94 443.6,-19.52"/>
<polygon fill="midnightblue" stroke="midnightblue" points="279.64,-50.93 270.59,-56.44 281.1,-57.78 279.64,-50.93"/>
</g>
<!-- Node8&#45;&gt;Node6 -->
<g id="edge9" class="edge">
<title>Node8&#45;&gt;Node6</title>
<path fill="none" stroke="midnightblue" d="M533.46,-50.1C521.04,-40.38 505.26,-28.03 494.79,-19.83"/>
<polygon fill="midnightblue" stroke="midnightblue" points="531.38,-52.92 541.41,-56.32 535.7,-47.4 531.38,-52.92"/>
</g>
</g>
</svg>
