<?xml version="1.0" encoding="UTF-8" standalone="no"?>
<!DOCTYPE svg PUBLIC "-//W3C//DTD SVG 1.1//EN"
 "http://www.w3.org/Graphics/SVG/1.1/DTD/svg11.dtd">
<!-- Generated by graphviz version 2.43.0 (0)
 -->
<!-- Title: src/app/seamly2d/dialogs/dialoglayoutsettings.h Pages: 1 -->
<svg width="4175pt" height="240pt"
 viewBox="0.00 0.00 4175.00 240.00" xmlns="http://www.w3.org/2000/svg" xmlns:xlink="http://www.w3.org/1999/xlink">
<g id="graph0" class="graph" transform="scale(1 1) rotate(0) translate(4 236)">
<title>src/app/seamly2d/dialogs/dialoglayoutsettings.h</title>
<polygon fill="white" stroke="transparent" points="-4,4 -4,-236 4171,-236 4171,4 -4,4"/>
<!-- Node1 -->
<g id="node1" class="node">
<title>Node1</title>
<g id="a_node1"><a xlink:title=" ">
<polygon fill="#bfbfbf" stroke="black" points="2691,-201.5 2691,-231.5 2832,-231.5 2832,-201.5 2691,-201.5"/>
<text text-anchor="start" x="2699" y="-219.5" font-family="Helvetica,sans-Serif" font-size="10.00">src/app/seamly2d/dialogs</text>
<text text-anchor="middle" x="2761.5" y="-208.5" font-family="Helvetica,sans-Serif" font-size="10.00">/dialoglayoutsettings.h</text>
</a>
</g>
</g>
<!-- Node2 -->
<g id="node2" class="node">
<title>Node2</title>
<g id="a_node2"><a xlink:href="../../dd/d57/vcmdexport_8h.html" target="_top" xlink:title=" ">
<polygon fill="white" stroke="black" points="2534,-134.5 2534,-164.5 2661,-164.5 2661,-134.5 2534,-134.5"/>
<text text-anchor="start" x="2542" y="-152.5" font-family="Helvetica,sans-Serif" font-size="10.00">src/app/seamly2d/core</text>
<text text-anchor="middle" x="2597.5" y="-141.5" font-family="Helvetica,sans-Serif" font-size="10.00">/vcmdexport.h</text>
</a>
</g>
</g>
<!-- Node1&#45;&gt;Node2 -->
<g id="edge1" class="edge">
<title>Node1&#45;&gt;Node2</title>
<path fill="none" stroke="midnightblue" d="M2716.54,-197.68C2690.24,-187.26 2657.5,-174.28 2633.02,-164.58"/>
<polygon fill="midnightblue" stroke="midnightblue" points="2715.33,-200.97 2725.91,-201.4 2717.91,-194.46 2715.33,-200.97"/>
</g>
<!-- Node14 -->
<g id="node14" class="node">
<title>Node14</title>
<g id="a_node14"><a xlink:href="../../db/def/dialoglayoutsettings_8cpp.html" target="_top" xlink:title=" ">
<polygon fill="white" stroke="black" points="3787,-0.5 3787,-30.5 3928,-30.5 3928,-0.5 3787,-0.5"/>
<text text-anchor="start" x="3795" y="-18.5" font-family="Helvetica,sans-Serif" font-size="10.00">src/app/seamly2d/dialogs</text>
<text text-anchor="middle" x="3857.5" y="-7.5" font-family="Helvetica,sans-Serif" font-size="10.00">/dialoglayoutsettings.cpp</text>
</a>
</g>
</g>
<!-- Node1&#45;&gt;Node14 -->
<g id="edge32" class="edge">
<title>Node1&#45;&gt;Node14</title>
<path fill="none" stroke="midnightblue" d="M2842.08,-200.94C3014.1,-169.84 3429.96,-94.6 3778.5,-31 3781.24,-30.5 3784.04,-29.99 3786.87,-29.47"/>
<polygon fill="midnightblue" stroke="midnightblue" points="2841.31,-197.52 2832.1,-202.74 2842.56,-204.41 2841.31,-197.52"/>
</g>
<!-- Node23 -->
<g id="node23" class="node">
<title>Node23</title>
<g id="a_node23"><a xlink:href="../../d8/de8/mainwindowsnogui_8cpp.html" target="_top" xlink:title=" ">
<polygon fill="white" stroke="black" points="3946,-6 3946,-25 4167,-25 4167,-6 3946,-6"/>
<text text-anchor="middle" x="4056.5" y="-13" font-family="Helvetica,sans-Serif" font-size="10.00">src/app/seamly2d/mainwindowsnogui.cpp</text>
</a>
</g>
</g>
<!-- Node1&#45;&gt;Node23 -->
<g id="edge33" class="edge">
<title>Node1&#45;&gt;Node23</title>
<path fill="none" stroke="midnightblue" d="M2842.29,-205.49C2919.48,-195.76 3039.05,-180.26 3142.5,-165 3473.31,-116.21 3869.93,-48.67 4007.04,-25.06"/>
<polygon fill="midnightblue" stroke="midnightblue" points="2841.64,-202.04 2832.16,-206.76 2842.52,-208.99 2841.64,-202.04"/>
</g>
<!-- Node27 -->
<g id="node27" class="node">
<title>Node27</title>
<g id="a_node27"><a xlink:href="../../df/d9b/vcmdexport_8cpp.html" target="_top" xlink:title=" ">
<polygon fill="white" stroke="black" points="2593,-67.5 2593,-97.5 2720,-97.5 2720,-67.5 2593,-67.5"/>
<text text-anchor="start" x="2601" y="-85.5" font-family="Helvetica,sans-Serif" font-size="10.00">src/app/seamly2d/core</text>
<text text-anchor="middle" x="2656.5" y="-74.5" font-family="Helvetica,sans-Serif" font-size="10.00">/vcmdexport.cpp</text>
</a>
</g>
</g>
<!-- Node1&#45;&gt;Node27 -->
<g id="edge31" class="edge">
<title>Node1&#45;&gt;Node27</title>
<path fill="none" stroke="midnightblue" d="M2744.03,-193.54C2722.33,-166.25 2685.92,-120.48 2667.66,-97.52"/>
<polygon fill="midnightblue" stroke="midnightblue" points="2741.3,-195.73 2750.26,-201.37 2746.78,-191.37 2741.3,-195.73"/>
</g>
<!-- Node3 -->
<g id="node3" class="node">
<title>Node3</title>
<g id="a_node3"><a xlink:href="../../d9/d02/vapplication_8h.html" target="_top" xlink:title=" ">
<polygon fill="white" stroke="black" points="1992,-67.5 1992,-97.5 2119,-97.5 2119,-67.5 1992,-67.5"/>
<text text-anchor="start" x="2000" y="-85.5" font-family="Helvetica,sans-Serif" font-size="10.00">src/app/seamly2d/core</text>
<text text-anchor="middle" x="2055.5" y="-74.5" font-family="Helvetica,sans-Serif" font-size="10.00">/vapplication.h</text>
</a>
</g>
</g>
<!-- Node2&#45;&gt;Node3 -->
<g id="edge2" class="edge">
<title>Node2&#45;&gt;Node3</title>
<path fill="none" stroke="midnightblue" d="M2523.93,-139.68C2416.94,-126.85 2220.17,-103.25 2119.1,-91.13"/>
<polygon fill="midnightblue" stroke="midnightblue" points="2523.65,-143.17 2534,-140.88 2524.49,-136.22 2523.65,-143.17"/>
</g>
<!-- Node2&#45;&gt;Node27 -->
<g id="edge26" class="edge">
<title>Node2&#45;&gt;Node27</title>
<path fill="none" stroke="midnightblue" d="M2617.25,-126.74C2625.98,-117.12 2636,-106.09 2643.72,-97.58"/>
<polygon fill="midnightblue" stroke="midnightblue" points="2614.43,-124.64 2610.3,-134.4 2619.61,-129.34 2614.43,-124.64"/>
</g>
<!-- Node28 -->
<g id="node28" class="node">
<title>Node28</title>
<g id="a_node28"><a xlink:href="../../d9/d53/mainwindow_8h.html" target="_top" xlink:title=" ">
<polygon fill="white" stroke="black" points="226.5,-73 226.5,-92 402.5,-92 402.5,-73 226.5,-73"/>
<text text-anchor="middle" x="314.5" y="-80" font-family="Helvetica,sans-Serif" font-size="10.00">src/app/seamly2d/mainwindow.h</text>
</a>
</g>
</g>
<!-- Node2&#45;&gt;Node28 -->
<g id="edge27" class="edge">
<title>Node2&#45;&gt;Node28</title>
<path fill="none" stroke="midnightblue" d="M2523.53,-146.39C2183.48,-136.71 771.09,-96.5 402.69,-86.01"/>
<polygon fill="midnightblue" stroke="midnightblue" points="2523.66,-149.9 2533.76,-146.69 2523.86,-142.9 2523.66,-149.9"/>
</g>
<!-- Node4 -->
<g id="node4" class="node">
<title>Node4</title>
<g id="a_node4"><a xlink:href="../../d3/dd8/vapplication_8cpp.html" target="_top" xlink:title=" ">
<polygon fill="white" stroke="black" points="0,-0.5 0,-30.5 127,-30.5 127,-0.5 0,-0.5"/>
<text text-anchor="start" x="8" y="-18.5" font-family="Helvetica,sans-Serif" font-size="10.00">src/app/seamly2d/core</text>
<text text-anchor="middle" x="63.5" y="-7.5" font-family="Helvetica,sans-Serif" font-size="10.00">/vapplication.cpp</text>
</a>
</g>
</g>
<!-- Node3&#45;&gt;Node4 -->
<g id="edge3" class="edge">
<title>Node3&#45;&gt;Node4</title>
<path fill="none" stroke="midnightblue" d="M1981.76,-81.26C1675.53,-80.01 503.05,-72.53 135.5,-31 132.71,-30.69 129.87,-30.32 127.01,-29.91"/>
<polygon fill="midnightblue" stroke="midnightblue" points="1981.84,-84.76 1991.85,-81.3 1981.87,-77.76 1981.84,-84.76"/>
</g>
<!-- Node5 -->
<g id="node5" class="node">
<title>Node5</title>
<g id="a_node5"><a xlink:href="../../d7/dfa/calculator__dialog_8cpp.html" target="_top" xlink:title=" ">
<polygon fill="white" stroke="black" points="1465,-0.5 1465,-30.5 1606,-30.5 1606,-0.5 1465,-0.5"/>
<text text-anchor="start" x="1473" y="-18.5" font-family="Helvetica,sans-Serif" font-size="10.00">src/app/seamly2d/dialogs</text>
<text text-anchor="middle" x="1535.5" y="-7.5" font-family="Helvetica,sans-Serif" font-size="10.00">/calculator_dialog.cpp</text>
</a>
</g>
</g>
<!-- Node3&#45;&gt;Node5 -->
<g id="edge4" class="edge">
<title>Node3&#45;&gt;Node5</title>
<path fill="none" stroke="midnightblue" d="M1981.67,-74.58C1893.92,-66.01 1743.18,-50.15 1614.5,-31 1611.74,-30.59 1608.93,-30.15 1606.1,-29.7"/>
<polygon fill="midnightblue" stroke="midnightblue" points="1981.5,-78.08 1991.79,-75.57 1982.17,-71.12 1981.5,-78.08"/>
</g>
<!-- Node6 -->
<g id="node6" class="node">
<title>Node6</title>
<g id="a_node6"><a xlink:href="../../dc/d20/preferencespathpage_8cpp.html" target="_top" xlink:title=" ">
<polygon fill="white" stroke="black" points="1624,-0.5 1624,-30.5 1829,-30.5 1829,-0.5 1624,-0.5"/>
<text text-anchor="start" x="1632" y="-18.5" font-family="Helvetica,sans-Serif" font-size="10.00">src/app/seamly2d/dialogs</text>
<text text-anchor="middle" x="1726.5" y="-7.5" font-family="Helvetica,sans-Serif" font-size="10.00">/configpages/preferencespathpage.cpp</text>
</a>
</g>
</g>
<!-- Node3&#45;&gt;Node6 -->
<g id="edge5" class="edge">
<title>Node3&#45;&gt;Node6</title>
<path fill="none" stroke="midnightblue" d="M1981.64,-66.91C1926.61,-56.04 1851.91,-41.28 1797.57,-30.54"/>
<polygon fill="midnightblue" stroke="midnightblue" points="1981.19,-70.39 1991.68,-68.89 1982.54,-63.52 1981.19,-70.39"/>
</g>
<!-- Node7 -->
<g id="node7" class="node">
<title>Node7</title>
<g id="a_node7"><a xlink:href="../../dc/d63/preferencespatternpage_8cpp.html" target="_top" xlink:title=" ">
<polygon fill="white" stroke="black" points="1847.5,-0.5 1847.5,-30.5 2065.5,-30.5 2065.5,-0.5 1847.5,-0.5"/>
<text text-anchor="start" x="1855.5" y="-18.5" font-family="Helvetica,sans-Serif" font-size="10.00">src/app/seamly2d/dialogs</text>
<text text-anchor="middle" x="1956.5" y="-7.5" font-family="Helvetica,sans-Serif" font-size="10.00">/configpages/preferencespatternpage.cpp</text>
</a>
</g>
</g>
<!-- Node3&#45;&gt;Node7 -->
<g id="edge6" class="edge">
<title>Node3&#45;&gt;Node7</title>
<path fill="none" stroke="midnightblue" d="M2025.39,-61.73C2010.08,-51.68 1991.81,-39.68 1977.94,-30.58"/>
<polygon fill="midnightblue" stroke="midnightblue" points="2023.74,-64.83 2034.02,-67.4 2027.58,-58.98 2023.74,-64.83"/>
</g>
<!-- Node8 -->
<g id="node8" class="node">
<title>Node8</title>
<g id="a_node8"><a xlink:href="../../dd/dc2/decimalchart__dialog_8cpp.html" target="_top" xlink:title=" ">
<polygon fill="white" stroke="black" points="2084,-0.5 2084,-30.5 2225,-30.5 2225,-0.5 2084,-0.5"/>
<text text-anchor="start" x="2092" y="-18.5" font-family="Helvetica,sans-Serif" font-size="10.00">src/app/seamly2d/dialogs</text>
<text text-anchor="middle" x="2154.5" y="-7.5" font-family="Helvetica,sans-Serif" font-size="10.00">/decimalchart_dialog.cpp</text>
</a>
</g>
</g>
<!-- Node3&#45;&gt;Node8 -->
<g id="edge7" class="edge">
<title>Node3&#45;&gt;Node8</title>
<path fill="none" stroke="midnightblue" d="M2085.61,-61.73C2100.92,-51.68 2119.19,-39.68 2133.06,-30.58"/>
<polygon fill="midnightblue" stroke="midnightblue" points="2083.42,-58.98 2076.98,-67.4 2087.26,-64.83 2083.42,-58.98"/>
</g>
<!-- Node9 -->
<g id="node9" class="node">
<title>Node9</title>
<g id="a_node9"><a xlink:href="../../d2/d00/vtooloptionspropertybrowser_8cpp.html" target="_top" xlink:title=" ">
<polygon fill="white" stroke="black" points="2243.5,-0.5 2243.5,-30.5 2423.5,-30.5 2423.5,-0.5 2243.5,-0.5"/>
<text text-anchor="start" x="2251.5" y="-18.5" font-family="Helvetica,sans-Serif" font-size="10.00">src/app/seamly2d/core</text>
<text text-anchor="middle" x="2333.5" y="-7.5" font-family="Helvetica,sans-Serif" font-size="10.00">/vtooloptionspropertybrowser.cpp</text>
</a>
</g>
</g>
<!-- Node3&#45;&gt;Node9 -->
<g id="edge8" class="edge">
<title>Node3&#45;&gt;Node9</title>
<path fill="none" stroke="midnightblue" d="M2125.28,-65.19C2170.8,-54.54 2229.64,-40.78 2273.15,-30.61"/>
<polygon fill="midnightblue" stroke="midnightblue" points="2124.42,-61.79 2115.48,-67.48 2126.01,-68.61 2124.42,-61.79"/>
</g>
<!-- Node10 -->
<g id="node10" class="node">
<title>Node10</title>
<g id="a_node10"><a xlink:href="../../dd/d64/dialogaboutapp_8cpp.html" target="_top" xlink:title=" ">
<polygon fill="white" stroke="black" points="2442,-0.5 2442,-30.5 2583,-30.5 2583,-0.5 2442,-0.5"/>
<text text-anchor="start" x="2450" y="-18.5" font-family="Helvetica,sans-Serif" font-size="10.00">src/app/seamly2d/dialogs</text>
<text text-anchor="middle" x="2512.5" y="-7.5" font-family="Helvetica,sans-Serif" font-size="10.00">/dialogaboutapp.cpp</text>
</a>
</g>
</g>
<!-- Node3&#45;&gt;Node10 -->
<g id="edge9" class="edge">
<title>Node3&#45;&gt;Node10</title>
<path fill="none" stroke="midnightblue" d="M2129.3,-72.64C2205.41,-63.26 2327.46,-47.54 2432.5,-31 2435.57,-30.52 2438.7,-30.01 2441.86,-29.49"/>
<polygon fill="midnightblue" stroke="midnightblue" points="2128.83,-69.17 2119.33,-73.86 2129.69,-76.12 2128.83,-69.17"/>
</g>
<!-- Node11 -->
<g id="node11" class="node">
<title>Node11</title>
<g id="a_node11"><a xlink:href="../../d9/d70/preferencesgraphicsviewpage_8cpp.html" target="_top" xlink:title=" ">
<polygon fill="white" stroke="black" points="2601.5,-0.5 2601.5,-30.5 2849.5,-30.5 2849.5,-0.5 2601.5,-0.5"/>
<text text-anchor="start" x="2609.5" y="-18.5" font-family="Helvetica,sans-Serif" font-size="10.00">src/app/seamly2d/dialogs</text>
<text text-anchor="middle" x="2725.5" y="-7.5" font-family="Helvetica,sans-Serif" font-size="10.00">/configpages/preferencesgraphicsviewpage.cpp</text>
</a>
</g>
</g>
<!-- Node3&#45;&gt;Node11 -->
<g id="edge10" class="edge">
<title>Node3&#45;&gt;Node11</title>
<path fill="none" stroke="midnightblue" d="M2129.08,-74.89C2232.4,-65.54 2426.36,-47.71 2591.5,-31 2594.76,-30.67 2598.06,-30.33 2601.4,-29.99"/>
<polygon fill="midnightblue" stroke="midnightblue" points="2128.7,-71.41 2119.06,-75.8 2129.33,-78.38 2128.7,-71.41"/>
</g>
<!-- Node12 -->
<g id="node12" class="node">
<title>Node12</title>
<g id="a_node12"><a xlink:href="../../d2/d2d/preferencesconfigurationpage_8cpp.html" target="_top" xlink:title=" ">
<polygon fill="white" stroke="black" points="2868,-0.5 2868,-30.5 3115,-30.5 3115,-0.5 2868,-0.5"/>
<text text-anchor="start" x="2876" y="-18.5" font-family="Helvetica,sans-Serif" font-size="10.00">src/app/seamly2d/dialogs</text>
<text text-anchor="middle" x="2991.5" y="-7.5" font-family="Helvetica,sans-Serif" font-size="10.00">/configpages/preferencesconfigurationpage.cpp</text>
</a>
</g>
</g>
<!-- Node3&#45;&gt;Node12 -->
<g id="edge11" class="edge">
<title>Node3&#45;&gt;Node12</title>
<path fill="none" stroke="midnightblue" d="M2129.36,-77.99C2270.96,-71 2590.34,-54.04 2858.5,-31 2861.62,-30.73 2864.79,-30.45 2867.98,-30.16"/>
<polygon fill="midnightblue" stroke="midnightblue" points="2128.89,-74.51 2119.07,-78.49 2129.23,-81.5 2128.89,-74.51"/>
</g>
<!-- Node13 -->
<g id="node13" class="node">
<title>Node13</title>
<g id="a_node13"><a xlink:href="../../d6/d89/dialoglayoutprogress_8cpp.html" target="_top" xlink:title=" ">
<polygon fill="white" stroke="black" points="3133,-0.5 3133,-30.5 3276,-30.5 3276,-0.5 3133,-0.5"/>
<text text-anchor="start" x="3141" y="-18.5" font-family="Helvetica,sans-Serif" font-size="10.00">src/app/seamly2d/dialogs</text>
<text text-anchor="middle" x="3204.5" y="-7.5" font-family="Helvetica,sans-Serif" font-size="10.00">/dialoglayoutprogress.cpp</text>
</a>
</g>
</g>
<!-- Node3&#45;&gt;Node13 -->
<g id="edge12" class="edge">
<title>Node3&#45;&gt;Node13</title>
<path fill="none" stroke="midnightblue" d="M2129.46,-79.28C2338.53,-72.8 2931.16,-52.99 3124.5,-31 3127.16,-30.7 3129.87,-30.36 3132.61,-29.99"/>
<polygon fill="midnightblue" stroke="midnightblue" points="2129.1,-75.79 2119.21,-79.6 2129.31,-82.79 2129.1,-75.79"/>
</g>
<!-- Node3&#45;&gt;Node14 -->
<g id="edge13" class="edge">
<title>Node3&#45;&gt;Node14</title>
<path fill="none" stroke="midnightblue" d="M2129.43,-79.49C2453.83,-70.63 3736.92,-35.4 3778.5,-31 3781.27,-30.71 3784.1,-30.37 3786.94,-30"/>
<polygon fill="midnightblue" stroke="midnightblue" points="2129.11,-75.99 2119.21,-79.77 2129.3,-82.99 2129.11,-75.99"/>
</g>
<!-- Node15 -->
<g id="node15" class="node">
<title>Node15</title>
<g id="a_node15"><a xlink:href="../../de/d87/dialognewpattern_8cpp.html" target="_top" xlink:title=" ">
<polygon fill="white" stroke="black" points="3294,-0.5 3294,-30.5 3435,-30.5 3435,-0.5 3294,-0.5"/>
<text text-anchor="start" x="3302" y="-18.5" font-family="Helvetica,sans-Serif" font-size="10.00">src/app/seamly2d/dialogs</text>
<text text-anchor="middle" x="3364.5" y="-7.5" font-family="Helvetica,sans-Serif" font-size="10.00">/dialognewpattern.cpp</text>
</a>
</g>
</g>
<!-- Node3&#45;&gt;Node15 -->
<g id="edge14" class="edge">
<title>Node3&#45;&gt;Node15</title>
<path fill="none" stroke="midnightblue" d="M2129.42,-79.07C2377.47,-70.84 3171.05,-43.79 3285.5,-31 3288.27,-30.69 3291.09,-30.34 3293.94,-29.96"/>
<polygon fill="midnightblue" stroke="midnightblue" points="2128.95,-75.59 2119.07,-79.41 2129.18,-82.58 2128.95,-75.59"/>
</g>
<!-- Node16 -->
<g id="node16" class="node">
<title>Node16</title>
<g id="a_node16"><a xlink:href="../../d5/d18/dialogpatternproperties_8cpp.html" target="_top" xlink:title=" ">
<polygon fill="white" stroke="black" points="3453,-0.5 3453,-30.5 3608,-30.5 3608,-0.5 3453,-0.5"/>
<text text-anchor="start" x="3461" y="-18.5" font-family="Helvetica,sans-Serif" font-size="10.00">src/app/seamly2d/dialogs</text>
<text text-anchor="middle" x="3530.5" y="-7.5" font-family="Helvetica,sans-Serif" font-size="10.00">/dialogpatternproperties.cpp</text>
</a>
</g>
</g>
<!-- Node3&#45;&gt;Node16 -->
<g id="edge15" class="edge">
<title>Node3&#45;&gt;Node16</title>
<path fill="none" stroke="midnightblue" d="M2129.32,-79.38C2397.82,-71.6 3313.63,-44.35 3444.5,-31 3447.21,-30.72 3449.97,-30.41 3452.75,-30.08"/>
<polygon fill="midnightblue" stroke="midnightblue" points="2129.18,-75.88 2119.28,-79.67 2129.38,-82.88 2129.18,-75.88"/>
</g>
<!-- Node17 -->
<g id="node17" class="node">
<title>Node17</title>
<g id="a_node17"><a xlink:href="../../dd/d54/export__layout__dialog_8cpp.html" target="_top" xlink:title=" ">
<polygon fill="white" stroke="black" points="3626,-0.5 3626,-30.5 3769,-30.5 3769,-0.5 3626,-0.5"/>
<text text-anchor="start" x="3634" y="-18.5" font-family="Helvetica,sans-Serif" font-size="10.00">src/app/seamly2d/dialogs</text>
<text text-anchor="middle" x="3697.5" y="-7.5" font-family="Helvetica,sans-Serif" font-size="10.00">/export_layout_dialog.cpp</text>
</a>
</g>
</g>
<!-- Node3&#45;&gt;Node17 -->
<g id="edge16" class="edge">
<title>Node3&#45;&gt;Node17</title>
<path fill="none" stroke="midnightblue" d="M2129.4,-79.41C2429.26,-70.91 3542.84,-38.93 3617.5,-31 3620.17,-30.72 3622.88,-30.4 3625.61,-30.04"/>
<polygon fill="midnightblue" stroke="midnightblue" points="2128.97,-75.92 2119.08,-79.71 2129.17,-82.92 2128.97,-75.92"/>
</g>
<!-- Node18 -->
<g id="node18" class="node">
<title>Node18</title>
<g id="a_node18"><a xlink:href="../../d5/dc5/dialogpreferences_8cpp.html" target="_top" xlink:title=" ">
<polygon fill="white" stroke="black" points="521,-0.5 521,-30.5 662,-30.5 662,-0.5 521,-0.5"/>
<text text-anchor="start" x="529" y="-18.5" font-family="Helvetica,sans-Serif" font-size="10.00">src/app/seamly2d/dialogs</text>
<text text-anchor="middle" x="591.5" y="-7.5" font-family="Helvetica,sans-Serif" font-size="10.00">/dialogpreferences.cpp</text>
</a>
</g>
</g>
<!-- Node3&#45;&gt;Node18 -->
<g id="edge17" class="edge">
<title>Node3&#45;&gt;Node18</title>
<path fill="none" stroke="midnightblue" d="M1981.87,-80.23C1733.58,-75.71 928.24,-59.2 670.5,-31 667.73,-30.7 664.91,-30.35 662.06,-29.97"/>
<polygon fill="midnightblue" stroke="midnightblue" points="1981.81,-83.73 1991.87,-80.41 1981.94,-76.73 1981.81,-83.73"/>
</g>
<!-- Node19 -->
<g id="node19" class="node">
<title>Node19</title>
<g id="a_node19"><a xlink:href="../../dd/d84/shortcuts__dialog_8cpp.html" target="_top" xlink:title=" ">
<polygon fill="white" stroke="black" points="680,-0.5 680,-30.5 821,-30.5 821,-0.5 680,-0.5"/>
<text text-anchor="start" x="688" y="-18.5" font-family="Helvetica,sans-Serif" font-size="10.00">src/app/seamly2d/dialogs</text>
<text text-anchor="middle" x="750.5" y="-7.5" font-family="Helvetica,sans-Serif" font-size="10.00">/shortcuts_dialog.cpp</text>
</a>
</g>
</g>
<!-- Node3&#45;&gt;Node19 -->
<g id="edge18" class="edge">
<title>Node3&#45;&gt;Node19</title>
<path fill="none" stroke="midnightblue" d="M1981.63,-82C1790.61,-82.52 1264.94,-79.09 830.5,-31 827.41,-30.66 824.27,-30.27 821.09,-29.84"/>
<polygon fill="midnightblue" stroke="midnightblue" points="1981.84,-85.5 1991.83,-81.97 1981.82,-78.5 1981.84,-85.5"/>
</g>
<!-- Node20 -->
<g id="node20" class="node">
<title>Node20</title>
<g id="a_node20"><a xlink:href="../../d5/de4/vabstractlayoutdialog_8cpp.html" target="_top" xlink:title=" ">
<polygon fill="white" stroke="black" points="839.5,-0.5 839.5,-30.5 985.5,-30.5 985.5,-0.5 839.5,-0.5"/>
<text text-anchor="start" x="847.5" y="-18.5" font-family="Helvetica,sans-Serif" font-size="10.00">src/app/seamly2d/dialogs</text>
<text text-anchor="middle" x="912.5" y="-7.5" font-family="Helvetica,sans-Serif" font-size="10.00">/vabstractlayoutdialog.cpp</text>
</a>
</g>
</g>
<!-- Node3&#45;&gt;Node20 -->
<g id="edge19" class="edge">
<title>Node3&#45;&gt;Node20</title>
<path fill="none" stroke="midnightblue" d="M1981.89,-81.22C1809.01,-79.86 1363.76,-72.27 994.5,-31 991.63,-30.68 988.7,-30.32 985.75,-29.93"/>
<polygon fill="midnightblue" stroke="midnightblue" points="1981.87,-84.72 1991.89,-81.29 1981.92,-77.72 1981.87,-84.72"/>
</g>
<!-- Node21 -->
<g id="node21" class="node">
<title>Node21</title>
<g id="a_node21"><a xlink:href="../../d2/df4/show__info__dialog_8cpp.html" target="_top" xlink:title=" ">
<polygon fill="white" stroke="black" points="1004,-0.5 1004,-30.5 1145,-30.5 1145,-0.5 1004,-0.5"/>
<text text-anchor="start" x="1012" y="-18.5" font-family="Helvetica,sans-Serif" font-size="10.00">src/app/seamly2d/dialogs</text>
<text text-anchor="middle" x="1074.5" y="-7.5" font-family="Helvetica,sans-Serif" font-size="10.00">/show_info_dialog.cpp</text>
</a>
</g>
</g>
<!-- Node3&#45;&gt;Node21 -->
<g id="edge20" class="edge">
<title>Node3&#45;&gt;Node21</title>
<path fill="none" stroke="midnightblue" d="M1981.53,-80.5C1827.14,-77.72 1459.5,-67.5 1153.5,-31 1150.73,-30.67 1147.91,-30.3 1145.07,-29.91"/>
<polygon fill="midnightblue" stroke="midnightblue" points="1981.77,-84 1991.83,-80.68 1981.9,-77.01 1981.77,-84"/>
</g>
<!-- Node22 -->
<g id="node22" class="node">
<title>Node22</title>
<g id="a_node22"><a xlink:href="../../dc/d14/app_2seamly2d_2main_8cpp.html" target="_top" xlink:title=" ">
<polygon fill="white" stroke="black" points="145,-6 145,-25 296,-25 296,-6 145,-6"/>
<text text-anchor="middle" x="220.5" y="-13" font-family="Helvetica,sans-Serif" font-size="10.00">src/app/seamly2d/main.cpp</text>
</a>
</g>
</g>
<!-- Node3&#45;&gt;Node22 -->
<g id="edge21" class="edge">
<title>Node3&#45;&gt;Node22</title>
<path fill="none" stroke="midnightblue" d="M1981.27,-80.74C1691.79,-77.58 638.25,-64.02 305.5,-31 291.79,-29.64 276.96,-27.38 263.58,-25.05"/>
<polygon fill="midnightblue" stroke="midnightblue" points="1981.61,-84.25 1991.65,-80.86 1981.69,-77.25 1981.61,-84.25"/>
</g>
<!-- Node3&#45;&gt;Node23 -->
<g id="edge22" class="edge">
<title>Node3&#45;&gt;Node23</title>
<path fill="none" stroke="midnightblue" d="M2129.51,-79.45C2231.64,-76.62 2421.54,-71.38 2583.5,-67 3185.27,-50.74 3337.15,-75.46 3937.5,-31 3956.49,-29.59 3977.11,-27.34 3995.76,-25.02"/>
<polygon fill="midnightblue" stroke="midnightblue" points="2129.2,-75.95 2119.3,-79.73 2129.39,-82.95 2129.2,-75.95"/>
</g>
<!-- Node24 -->
<g id="node24" class="node">
<title>Node24</title>
<g id="a_node24"><a xlink:href="../../db/d5c/groups__widget_8cpp.html" target="_top" xlink:title=" ">
<polygon fill="white" stroke="black" points="1163,-0.5 1163,-30.5 1304,-30.5 1304,-0.5 1163,-0.5"/>
<text text-anchor="start" x="1171" y="-18.5" font-family="Helvetica,sans-Serif" font-size="10.00">src/app/seamly2d/dialogs</text>
<text text-anchor="middle" x="1233.5" y="-7.5" font-family="Helvetica,sans-Serif" font-size="10.00">/groups_widget.cpp</text>
</a>
</g>
</g>
<!-- Node3&#45;&gt;Node24 -->
<g id="edge23" class="edge">
<title>Node3&#45;&gt;Node24</title>
<path fill="none" stroke="midnightblue" d="M1981.52,-79.26C1847.61,-74.58 1556.31,-61.56 1312.5,-31 1309.73,-30.65 1306.92,-30.27 1304.07,-29.86"/>
<polygon fill="midnightblue" stroke="midnightblue" points="1981.54,-82.76 1991.66,-79.61 1981.78,-75.76 1981.54,-82.76"/>
</g>
<!-- Node25 -->
<g id="node25" class="node">
<title>Node25</title>
<g id="a_node25"><a xlink:href="../../d3/d49/vpattern_8cpp.html" target="_top" xlink:title=" ">
<polygon fill="white" stroke="black" points="1322,-0.5 1322,-30.5 1447,-30.5 1447,-0.5 1322,-0.5"/>
<text text-anchor="start" x="1330" y="-18.5" font-family="Helvetica,sans-Serif" font-size="10.00">src/app/seamly2d/xml</text>
<text text-anchor="middle" x="1384.5" y="-7.5" font-family="Helvetica,sans-Serif" font-size="10.00">/vpattern.cpp</text>
</a>
</g>
</g>
<!-- Node3&#45;&gt;Node25 -->
<g id="edge24" class="edge">
<title>Node3&#45;&gt;Node25</title>
<path fill="none" stroke="midnightblue" d="M1981.41,-78.07C1867.79,-72.18 1643.89,-58.07 1455.5,-31 1452.76,-30.61 1449.97,-30.17 1447.15,-29.71"/>
<polygon fill="midnightblue" stroke="midnightblue" points="1981.56,-81.58 1991.73,-78.6 1981.92,-74.59 1981.56,-81.58"/>
</g>
<!-- Node26 -->
<g id="node26" class="node">
<title>Node26</title>
<g id="a_node26"><a xlink:href="../../d8/dd9/mainwindow_8cpp.html" target="_top" xlink:title=" ">
<polygon fill="white" stroke="black" points="314.5,-6 314.5,-25 502.5,-25 502.5,-6 314.5,-6"/>
<text text-anchor="middle" x="408.5" y="-13" font-family="Helvetica,sans-Serif" font-size="10.00">src/app/seamly2d/mainwindow.cpp</text>
</a>
</g>
</g>
<!-- Node3&#45;&gt;Node26 -->
<g id="edge25" class="edge">
<title>Node3&#45;&gt;Node26</title>
<path fill="none" stroke="midnightblue" d="M1981.49,-81.89C1758.77,-82.45 1075.36,-79.77 511.5,-31 495.04,-29.58 477.19,-27.32 461.04,-25"/>
<polygon fill="midnightblue" stroke="midnightblue" points="1981.76,-85.39 1991.75,-81.86 1981.74,-78.39 1981.76,-85.39"/>
</g>
<!-- Node28&#45;&gt;Node4 -->
<g id="edge28" class="edge">
<title>Node28&#45;&gt;Node4</title>
<path fill="none" stroke="midnightblue" d="M271.67,-70.41C229.17,-59.4 163.9,-42.5 117.79,-30.56"/>
<polygon fill="midnightblue" stroke="midnightblue" points="270.87,-73.82 281.43,-72.94 272.62,-67.04 270.87,-73.82"/>
</g>
<!-- Node28&#45;&gt;Node22 -->
<g id="edge29" class="edge">
<title>Node28&#45;&gt;Node22</title>
<path fill="none" stroke="midnightblue" d="M293.41,-66.92C274.83,-54.07 248.38,-35.78 232.98,-25.13"/>
<polygon fill="midnightblue" stroke="midnightblue" points="291.61,-69.93 301.82,-72.73 295.59,-64.17 291.61,-69.93"/>
</g>
<!-- Node28&#45;&gt;Node26 -->
<g id="edge30" class="edge">
<title>Node28&#45;&gt;Node26</title>
<path fill="none" stroke="midnightblue" d="M335.59,-66.92C354.17,-54.07 380.62,-35.78 396.02,-25.13"/>
<polygon fill="midnightblue" stroke="midnightblue" points="333.41,-64.17 327.18,-72.73 337.39,-69.93 333.41,-64.17"/>
</g>
</g>
</svg>
