<?xml version="1.0" encoding="UTF-8" standalone="no"?>
<!DOCTYPE svg PUBLIC "-//W3C//DTD SVG 1.1//EN"
 "http://www.w3.org/Graphics/SVG/1.1/DTD/svg11.dtd">
<!-- Generated by graphviz version 2.43.0 (0)
 -->
<!-- Title: src/libs/vpatterndb/vtranslatemeasurements.h Pages: 1 -->
<svg width="6569pt" height="374pt"
 viewBox="0.00 0.00 6569.00 374.00" xmlns="http://www.w3.org/2000/svg" xmlns:xlink="http://www.w3.org/1999/xlink">
<g id="graph0" class="graph" transform="scale(1 1) rotate(0) translate(4 370)">
<title>src/libs/vpatterndb/vtranslatemeasurements.h</title>
<polygon fill="white" stroke="transparent" points="-4,4 -4,-370 6565,-370 6565,4 -4,4"/>
<!-- Node1 -->
<g id="node1" class="node">
<title>Node1</title>
<g id="a_node1"><a xlink:title=" ">
<polygon fill="#bfbfbf" stroke="black" points="6139.5,-335.5 6139.5,-365.5 6291.5,-365.5 6291.5,-335.5 6139.5,-335.5"/>
<text text-anchor="start" x="6147.5" y="-353.5" font-family="Helvetica,sans-Serif" font-size="10.00">src/libs/vpatterndb</text>
<text text-anchor="middle" x="6215.5" y="-342.5" font-family="Helvetica,sans-Serif" font-size="10.00">/vtranslatemeasurements.h</text>
</a>
</g>
</g>
<!-- Node2 -->
<g id="node2" class="node">
<title>Node2</title>
<g id="a_node2"><a xlink:href="../../d9/de3/measurements_8cpp.html" target="_top" xlink:title=" ">
<polygon fill="white" stroke="black" points="5800,-268.5 5800,-298.5 5913,-298.5 5913,-268.5 5800,-268.5"/>
<text text-anchor="start" x="5808" y="-286.5" font-family="Helvetica,sans-Serif" font-size="10.00">src/libs/vpatterndb</text>
<text text-anchor="middle" x="5856.5" y="-275.5" font-family="Helvetica,sans-Serif" font-size="10.00">/measurements.cpp</text>
</a>
</g>
</g>
<!-- Node1&#45;&gt;Node2 -->
<g id="edge1" class="edge">
<title>Node1&#45;&gt;Node2</title>
<path fill="none" stroke="midnightblue" d="M6129.5,-335.88C6070.77,-326.29 5991.27,-312.76 5921.5,-299 5918.78,-298.46 5915.99,-297.9 5913.19,-297.32"/>
<polygon fill="midnightblue" stroke="midnightblue" points="6129.04,-339.35 6139.47,-337.5 6130.16,-332.44 6129.04,-339.35"/>
</g>
<!-- Node3 -->
<g id="node3" class="node">
<title>Node3</title>
<g id="a_node3"><a xlink:href="../../da/d69/vtranslatevars_8h.html" target="_top" xlink:title=" ">
<polygon fill="white" stroke="black" points="5931,-268.5 5931,-298.5 6038,-298.5 6038,-268.5 5931,-268.5"/>
<text text-anchor="start" x="5939" y="-286.5" font-family="Helvetica,sans-Serif" font-size="10.00">src/libs/vpatterndb</text>
<text text-anchor="middle" x="5984.5" y="-275.5" font-family="Helvetica,sans-Serif" font-size="10.00">/vtranslatevars.h</text>
</a>
</g>
</g>
<!-- Node1&#45;&gt;Node3 -->
<g id="edge2" class="edge">
<title>Node1&#45;&gt;Node3</title>
<path fill="none" stroke="midnightblue" d="M6155.85,-332.71C6118.26,-322.14 6070.27,-308.63 6034.65,-298.61"/>
<polygon fill="midnightblue" stroke="midnightblue" points="6155.09,-336.14 6165.66,-335.48 6156.98,-329.4 6155.09,-336.14"/>
</g>
<!-- Node29 -->
<g id="node25" class="node">
<title>Node29</title>
<g id="a_node25"><a xlink:href="../../de/d3e/vtranslatevars_8cpp.html" target="_top" xlink:title=" ">
<polygon fill="white" stroke="black" points="6295.5,-67.5 6295.5,-97.5 6405.5,-97.5 6405.5,-67.5 6295.5,-67.5"/>
<text text-anchor="start" x="6303.5" y="-85.5" font-family="Helvetica,sans-Serif" font-size="10.00">src/libs/vpatterndb</text>
<text text-anchor="middle" x="6350.5" y="-74.5" font-family="Helvetica,sans-Serif" font-size="10.00">/vtranslatevars.cpp</text>
</a>
</g>
</g>
<!-- Node1&#45;&gt;Node29 -->
<g id="edge61" class="edge">
<title>Node1&#45;&gt;Node29</title>
<path fill="none" stroke="midnightblue" d="M6244.63,-329.34C6272.85,-308.28 6314.75,-272.68 6338.5,-232 6363.8,-188.66 6357.64,-125.73 6353.18,-97.79"/>
<polygon fill="midnightblue" stroke="midnightblue" points="6242.36,-326.67 6236.35,-335.4 6246.49,-332.32 6242.36,-326.67"/>
</g>
<!-- Node67 -->
<g id="node50" class="node">
<title>Node67</title>
<g id="a_node50"><a xlink:href="../../d0/d50/vtranslatemeasurements_8cpp.html" target="_top" xlink:title=" ">
<polygon fill="white" stroke="black" points="6398,-268.5 6398,-298.5 6561,-298.5 6561,-268.5 6398,-268.5"/>
<text text-anchor="start" x="6406" y="-286.5" font-family="Helvetica,sans-Serif" font-size="10.00">src/libs/vpatterndb</text>
<text text-anchor="middle" x="6479.5" y="-275.5" font-family="Helvetica,sans-Serif" font-size="10.00">/vtranslatemeasurements.cpp</text>
</a>
</g>
</g>
<!-- Node1&#45;&gt;Node67 -->
<g id="edge62" class="edge">
<title>Node1&#45;&gt;Node67</title>
<path fill="none" stroke="midnightblue" d="M6282.31,-333.05C6325.47,-322.43 6381.04,-308.74 6422.19,-298.61"/>
<polygon fill="midnightblue" stroke="midnightblue" points="6281.33,-329.69 6272.46,-335.48 6283.01,-336.48 6281.33,-329.69"/>
</g>
<!-- Node4 -->
<g id="node4" class="node">
<title>Node4</title>
<g id="a_node4"><a xlink:href="../../d5/d74/vabstractapplication_8h.html" target="_top" xlink:title=" ">
<polygon fill="white" stroke="black" points="3844,-140 3844,-159 4039,-159 4039,-140 3844,-140"/>
<text text-anchor="middle" x="3941.5" y="-147" font-family="Helvetica,sans-Serif" font-size="10.00">src/libs/vmisc/vabstractapplication.h</text>
</a>
</g>
</g>
<!-- Node3&#45;&gt;Node4 -->
<g id="edge3" class="edge">
<title>Node3&#45;&gt;Node4</title>
<path fill="none" stroke="midnightblue" d="M5920.87,-268.1C5196.1,-164.79 4326.91,-151.9 4039.17,-150.54"/>
<polygon fill="midnightblue" stroke="midnightblue" points="5920.6,-271.59 5931,-269.55 5921.6,-264.66 5920.6,-271.59"/>
</g>
<!-- Node24 -->
<g id="node20" class="node">
<title>Node24</title>
<g id="a_node20"><a xlink:href="../../db/d11/vformula_8cpp.html" target="_top" xlink:title=" ">
<polygon fill="white" stroke="black" points="6045,-67.5 6045,-97.5 6152,-97.5 6152,-67.5 6045,-67.5"/>
<text text-anchor="start" x="6053" y="-85.5" font-family="Helvetica,sans-Serif" font-size="10.00">src/libs/vpatterndb</text>
<text text-anchor="middle" x="6098.5" y="-74.5" font-family="Helvetica,sans-Serif" font-size="10.00">/vformula.cpp</text>
</a>
</g>
</g>
<!-- Node3&#45;&gt;Node24 -->
<g id="edge40" class="edge">
<title>Node3&#45;&gt;Node24</title>
<path fill="none" stroke="midnightblue" d="M5920.54,-266.69C5869.62,-253.81 5806.27,-236.96 5802.5,-232 5776.14,-197.33 5774.15,-167.07 5802.5,-134 5836.6,-94.23 5984.05,-107.88 6035.5,-98 6038.59,-97.41 6041.75,-96.77 6044.94,-96.11"/>
<polygon fill="midnightblue" stroke="midnightblue" points="5919.98,-270.16 5930.53,-269.21 5921.69,-263.37 5919.98,-270.16"/>
</g>
<!-- Node25 -->
<g id="node21" class="node">
<title>Node25</title>
<g id="a_node21"><a xlink:href="../../d6/d46/vcontainer_8cpp.html" target="_top" xlink:title=" ">
<polygon fill="white" stroke="black" points="6170,-67.5 6170,-97.5 6277,-97.5 6277,-67.5 6170,-67.5"/>
<text text-anchor="start" x="6178" y="-85.5" font-family="Helvetica,sans-Serif" font-size="10.00">src/libs/vpatterndb</text>
<text text-anchor="middle" x="6223.5" y="-74.5" font-family="Helvetica,sans-Serif" font-size="10.00">/vcontainer.cpp</text>
</a>
</g>
</g>
<!-- Node3&#45;&gt;Node25 -->
<g id="edge56" class="edge">
<title>Node3&#45;&gt;Node25</title>
<path fill="none" stroke="midnightblue" d="M5923.98,-265.61C5885.19,-254.17 5841.08,-239.78 5835.5,-232 5827.47,-220.8 5827.29,-212.06 5835.5,-201 5855.84,-173.59 6068.17,-120.24 6169.83,-96.01"/>
<polygon fill="midnightblue" stroke="midnightblue" points="5923.12,-269 5933.7,-268.44 5925.08,-262.28 5923.12,-269"/>
</g>
<!-- Node3&#45;&gt;Node29 -->
<g id="edge57" class="edge">
<title>Node3&#45;&gt;Node29</title>
<path fill="none" stroke="midnightblue" d="M6048.32,-280.82C6132.59,-277.26 6274.75,-266.23 6312.5,-232 6351.34,-196.78 6352.9,-127.83 6351.56,-97.92"/>
<polygon fill="midnightblue" stroke="midnightblue" points="6047.94,-277.33 6038.09,-281.22 6048.22,-284.32 6047.94,-277.33"/>
</g>
<!-- Node44 -->
<g id="node40" class="node">
<title>Node44</title>
<g id="a_node40"><a xlink:href="../../d3/df7/vcontainer_8h.html" target="_top" xlink:title=" ">
<polygon fill="white" stroke="red" points="778,-201.5 778,-231.5 885,-231.5 885,-201.5 778,-201.5"/>
<text text-anchor="start" x="786" y="-219.5" font-family="Helvetica,sans-Serif" font-size="10.00">src/libs/vpatterndb</text>
<text text-anchor="middle" x="831.5" y="-208.5" font-family="Helvetica,sans-Serif" font-size="10.00">/vcontainer.h</text>
</a>
</g>
</g>
<!-- Node3&#45;&gt;Node44 -->
<g id="edge41" class="edge">
<title>Node3&#45;&gt;Node44</title>
<path fill="none" stroke="midnightblue" d="M5920.53,-268.26C5567.38,-236.4 1407.08,-219.68 885.17,-217.7"/>
<polygon fill="midnightblue" stroke="midnightblue" points="5920.37,-271.77 5930.68,-269.31 5921.09,-264.8 5920.37,-271.77"/>
</g>
<!-- Node64 -->
<g id="node47" class="node">
<title>Node64</title>
<g id="a_node47"><a xlink:href="../../df/de5/dialogspline_8cpp.html" target="_top" xlink:title=" ">
<polygon fill="white" stroke="black" points="5844.5,-201.5 5844.5,-231.5 5970.5,-231.5 5970.5,-201.5 5844.5,-201.5"/>
<text text-anchor="start" x="5852.5" y="-219.5" font-family="Helvetica,sans-Serif" font-size="10.00">src/libs/vtools/dialogs</text>
<text text-anchor="middle" x="5907.5" y="-208.5" font-family="Helvetica,sans-Serif" font-size="10.00">/tools/dialogspline.cpp</text>
</a>
</g>
</g>
<!-- Node3&#45;&gt;Node64 -->
<g id="edge58" class="edge">
<title>Node3&#45;&gt;Node64</title>
<path fill="none" stroke="midnightblue" d="M5960.08,-261.88C5948.38,-252.01 5934.66,-240.43 5924.18,-231.58"/>
<polygon fill="midnightblue" stroke="midnightblue" points="5957.89,-264.62 5967.79,-268.4 5962.41,-259.27 5957.89,-264.62"/>
</g>
<!-- Node65 -->
<g id="node48" class="node">
<title>Node65</title>
<g id="a_node48"><a xlink:href="../../dc/dc2/dialogsplinepath_8cpp.html" target="_top" xlink:title=" ">
<polygon fill="white" stroke="black" points="5988.5,-201.5 5988.5,-231.5 6136.5,-231.5 6136.5,-201.5 5988.5,-201.5"/>
<text text-anchor="start" x="5996.5" y="-219.5" font-family="Helvetica,sans-Serif" font-size="10.00">src/libs/vtools/dialogs</text>
<text text-anchor="middle" x="6062.5" y="-208.5" font-family="Helvetica,sans-Serif" font-size="10.00">/tools/dialogsplinepath.cpp</text>
</a>
</g>
</g>
<!-- Node3&#45;&gt;Node65 -->
<g id="edge59" class="edge">
<title>Node3&#45;&gt;Node65</title>
<path fill="none" stroke="midnightblue" d="M6009.24,-261.88C6021.09,-252.01 6034.98,-240.43 6045.61,-231.58"/>
<polygon fill="midnightblue" stroke="midnightblue" points="6006.87,-259.31 6001.42,-268.4 6011.35,-264.68 6006.87,-259.31"/>
</g>
<!-- Node66 -->
<g id="node49" class="node">
<title>Node66</title>
<g id="a_node49"><a xlink:href="../../d1/d75/vistoolendline_8cpp.html" target="_top" xlink:title=" ">
<polygon fill="white" stroke="black" points="6155,-201.5 6155,-231.5 6304,-231.5 6304,-201.5 6155,-201.5"/>
<text text-anchor="start" x="6163" y="-219.5" font-family="Helvetica,sans-Serif" font-size="10.00">src/libs/vtools/visualization</text>
<text text-anchor="middle" x="6229.5" y="-208.5" font-family="Helvetica,sans-Serif" font-size="10.00">/line/vistoolendline.cpp</text>
</a>
</g>
</g>
<!-- Node3&#45;&gt;Node66 -->
<g id="edge60" class="edge">
<title>Node3&#45;&gt;Node66</title>
<path fill="none" stroke="midnightblue" d="M6047.26,-265.85C6087.2,-255.25 6138.37,-241.68 6176.31,-231.61"/>
<polygon fill="midnightblue" stroke="midnightblue" points="6046.13,-262.53 6037.36,-268.48 6047.92,-269.29 6046.13,-262.53"/>
</g>
<!-- Node5 -->
<g id="node5" class="node">
<title>Node5</title>
<g id="a_node5"><a xlink:href="../../d4/d90/fvupdater_8cpp.html" target="_top" xlink:title=" ">
<polygon fill="white" stroke="black" points="4583,-73 4583,-92 4736,-92 4736,-73 4583,-73"/>
<text text-anchor="middle" x="4659.5" y="-80" font-family="Helvetica,sans-Serif" font-size="10.00">src/libs/fervor/fvupdater.cpp</text>
</a>
</g>
</g>
<!-- Node4&#45;&gt;Node5 -->
<g id="edge4" class="edge">
<title>Node4&#45;&gt;Node5</title>
<path fill="none" stroke="midnightblue" d="M4049.25,-142.76C4175.28,-135.39 4390.04,-120.75 4573.5,-98 4586.42,-96.4 4600.37,-94.24 4613.19,-92.07"/>
<polygon fill="midnightblue" stroke="midnightblue" points="4048.99,-139.27 4039.21,-143.35 4049.4,-146.26 4048.99,-139.27"/>
</g>
<!-- Node6 -->
<g id="node6" class="node">
<title>Node6</title>
<g id="a_node6"><a xlink:href="../../d9/dc8/dxiface_8cpp.html" target="_top" xlink:title=" ">
<polygon fill="white" stroke="black" points="4754,-73 4754,-92 4889,-92 4889,-73 4754,-73"/>
<text text-anchor="middle" x="4821.5" y="-80" font-family="Helvetica,sans-Serif" font-size="10.00">src/libs/vdxf/dxiface.cpp</text>
</a>
</g>
</g>
<!-- Node4&#45;&gt;Node6 -->
<g id="edge5" class="edge">
<title>Node4&#45;&gt;Node6</title>
<path fill="none" stroke="midnightblue" d="M4049.64,-145.93C4204.22,-141.3 4497.06,-128.96 4744.5,-98 4756.51,-96.5 4769.48,-94.29 4781.29,-92.04"/>
<polygon fill="midnightblue" stroke="midnightblue" points="4049.1,-142.44 4039.2,-146.24 4049.3,-149.44 4049.1,-142.44"/>
</g>
<!-- Node7 -->
<g id="node7" class="node">
<title>Node7</title>
<g id="a_node7"><a xlink:href="../../da/d75/vabstractarc__p_8h.html" target="_top" xlink:title=" ">
<polygon fill="white" stroke="red" points="4907,-67.5 4907,-97.5 5014,-97.5 5014,-67.5 4907,-67.5"/>
<text text-anchor="start" x="4915" y="-85.5" font-family="Helvetica,sans-Serif" font-size="10.00">src/libs/vgeometry</text>
<text text-anchor="middle" x="4960.5" y="-74.5" font-family="Helvetica,sans-Serif" font-size="10.00">/vabstractarc_p.h</text>
</a>
</g>
</g>
<!-- Node4&#45;&gt;Node7 -->
<g id="edge6" class="edge">
<title>Node4&#45;&gt;Node7</title>
<path fill="none" stroke="midnightblue" d="M4049.01,-145.17C4263.22,-138.15 4736.5,-120.61 4897.5,-98 4900.5,-97.58 4903.57,-97.08 4906.66,-96.54"/>
<polygon fill="midnightblue" stroke="midnightblue" points="4048.89,-141.67 4039.01,-145.5 4049.12,-148.67 4048.89,-141.67"/>
</g>
<!-- Node9 -->
<g id="node8" class="node">
<title>Node9</title>
<g id="a_node8"><a xlink:href="../../dc/da3/varc__p_8h.html" target="_top" xlink:title=" ">
<polygon fill="white" stroke="red" points="5032,-67.5 5032,-97.5 5139,-97.5 5139,-67.5 5032,-67.5"/>
<text text-anchor="start" x="5040" y="-85.5" font-family="Helvetica,sans-Serif" font-size="10.00">src/libs/vgeometry</text>
<text text-anchor="middle" x="5085.5" y="-74.5" font-family="Helvetica,sans-Serif" font-size="10.00">/varc_p.h</text>
</a>
</g>
</g>
<!-- Node4&#45;&gt;Node9 -->
<g id="edge7" class="edge">
<title>Node4&#45;&gt;Node9</title>
<path fill="none" stroke="midnightblue" d="M4049.03,-144.58C4303.42,-135.13 4928.02,-110.97 5022.5,-98 5025.5,-97.59 5028.57,-97.1 5031.66,-96.56"/>
<polygon fill="midnightblue" stroke="midnightblue" points="4048.9,-141.08 4039.03,-144.95 4049.16,-148.07 4048.9,-141.08"/>
</g>
<!-- Node11 -->
<g id="node9" class="node">
<title>Node11</title>
<g id="a_node9"><a xlink:href="../../d5/d8e/vcubicbezier__p_8h.html" target="_top" xlink:title=" ">
<polygon fill="white" stroke="red" points="5157,-67.5 5157,-97.5 5264,-97.5 5264,-67.5 5157,-67.5"/>
<text text-anchor="start" x="5165" y="-85.5" font-family="Helvetica,sans-Serif" font-size="10.00">src/libs/vgeometry</text>
<text text-anchor="middle" x="5210.5" y="-74.5" font-family="Helvetica,sans-Serif" font-size="10.00">/vcubicbezier_p.h</text>
</a>
</g>
</g>
<!-- Node4&#45;&gt;Node11 -->
<g id="edge8" class="edge">
<title>Node4&#45;&gt;Node11</title>
<path fill="none" stroke="midnightblue" d="M4049.49,-145.12C4325.12,-136.32 5040.57,-112.42 5147.5,-98 5150.5,-97.6 5153.57,-97.11 5156.66,-96.58"/>
<polygon fill="midnightblue" stroke="midnightblue" points="4049.35,-141.62 4039.47,-145.44 4049.58,-148.62 4049.35,-141.62"/>
</g>
<!-- Node13 -->
<g id="node10" class="node">
<title>Node13</title>
<g id="a_node10"><a xlink:href="../../d6/dfb/vellipticalarc_8cpp.html" target="_top" xlink:title=" ">
<polygon fill="white" stroke="black" points="5569,-0.5 5569,-30.5 5676,-30.5 5676,-0.5 5569,-0.5"/>
<text text-anchor="start" x="5577" y="-18.5" font-family="Helvetica,sans-Serif" font-size="10.00">src/libs/vgeometry</text>
<text text-anchor="middle" x="5622.5" y="-7.5" font-family="Helvetica,sans-Serif" font-size="10.00">/vellipticalarc.cpp</text>
</a>
</g>
</g>
<!-- Node4&#45;&gt;Node13 -->
<g id="edge9" class="edge">
<title>Node4&#45;&gt;Node13</title>
<path fill="none" stroke="midnightblue" d="M4049.48,-144.98C4385.32,-133.99 5389.6,-100.91 5397.5,-98 5418.28,-90.34 5416.74,-77 5436.5,-67 5478.45,-45.78 5530.38,-32.64 5568.7,-25.1"/>
<polygon fill="midnightblue" stroke="midnightblue" points="4049.14,-141.49 4039.26,-145.31 4049.37,-148.48 4049.14,-141.49"/>
</g>
<!-- Node14 -->
<g id="node11" class="node">
<title>Node14</title>
<g id="a_node11"><a xlink:href="../../df/dde/vellipticalarc__p_8h.html" target="_top" xlink:title=" ">
<polygon fill="white" stroke="black" points="5775,-67.5 5775,-97.5 5882,-97.5 5882,-67.5 5775,-67.5"/>
<text text-anchor="start" x="5783" y="-85.5" font-family="Helvetica,sans-Serif" font-size="10.00">src/libs/vgeometry</text>
<text text-anchor="middle" x="5828.5" y="-74.5" font-family="Helvetica,sans-Serif" font-size="10.00">/vellipticalarc_p.h</text>
</a>
</g>
</g>
<!-- Node4&#45;&gt;Node14 -->
<g id="edge10" class="edge">
<title>Node4&#45;&gt;Node14</title>
<path fill="none" stroke="midnightblue" d="M4049.57,-144.92C4142.38,-141.88 4279.74,-137.47 4399.5,-134 4703.26,-125.19 5465.1,-136.8 5766.5,-98 5769.24,-97.65 5772.04,-97.22 5774.85,-96.75"/>
<polygon fill="midnightblue" stroke="midnightblue" points="4049.21,-141.43 4039.33,-145.25 4049.44,-148.42 4049.21,-141.43"/>
</g>
<!-- Node15 -->
<g id="node12" class="node">
<title>Node15</title>
<g id="a_node12"><a xlink:href="../../d1/d76/vspline__p_8h.html" target="_top" xlink:title=" ">
<polygon fill="white" stroke="red" points="5446,-67.5 5446,-97.5 5553,-97.5 5553,-67.5 5446,-67.5"/>
<text text-anchor="start" x="5454" y="-85.5" font-family="Helvetica,sans-Serif" font-size="10.00">src/libs/vgeometry</text>
<text text-anchor="middle" x="5499.5" y="-74.5" font-family="Helvetica,sans-Serif" font-size="10.00">/vspline_p.h</text>
</a>
</g>
</g>
<!-- Node4&#45;&gt;Node15 -->
<g id="edge12" class="edge">
<title>Node4&#45;&gt;Node15</title>
<path fill="none" stroke="midnightblue" d="M4049.51,-145.09C4386.35,-134.44 5397.26,-102.2 5431.5,-98 5436.17,-97.43 5441,-96.69 5445.83,-95.86"/>
<polygon fill="midnightblue" stroke="midnightblue" points="4049.15,-141.6 4039.26,-145.42 4049.37,-148.6 4049.15,-141.6"/>
</g>
<!-- Node17 -->
<g id="node13" class="node">
<title>Node17</title>
<g id="a_node13"><a xlink:href="../../d9/d15/vabstractpiece_8cpp.html" target="_top" xlink:title=" ">
<polygon fill="white" stroke="black" points="5571.5,-73 5571.5,-92 5757.5,-92 5757.5,-73 5571.5,-73"/>
<text text-anchor="middle" x="5664.5" y="-80" font-family="Helvetica,sans-Serif" font-size="10.00">src/libs/vlayout/vabstractpiece.cpp</text>
</a>
</g>
</g>
<!-- Node4&#45;&gt;Node17 -->
<g id="edge13" class="edge">
<title>Node4&#45;&gt;Node17</title>
<path fill="none" stroke="midnightblue" d="M4049.58,-145.06C4142.38,-142.11 4279.75,-137.75 4399.5,-134 4915.94,-117.83 5046.69,-142.08 5561.5,-98 5577.96,-96.59 5595.82,-94.34 5611.96,-92.02"/>
<polygon fill="midnightblue" stroke="midnightblue" points="4049.21,-141.57 4039.33,-145.38 4049.44,-148.56 4049.21,-141.57"/>
</g>
<!-- Node18 -->
<g id="node14" class="node">
<title>Node18</title>
<g id="a_node14"><a xlink:href="../../d8/d70/vtextmanager_8cpp.html" target="_top" xlink:title=" ">
<polygon fill="white" stroke="black" points="911.5,-73 911.5,-92 1093.5,-92 1093.5,-73 911.5,-73"/>
<text text-anchor="middle" x="1002.5" y="-80" font-family="Helvetica,sans-Serif" font-size="10.00">src/libs/vlayout/vtextmanager.cpp</text>
</a>
</g>
</g>
<!-- Node4&#45;&gt;Node18 -->
<g id="edge14" class="edge">
<title>Node4&#45;&gt;Node18</title>
<path fill="none" stroke="midnightblue" d="M3833.77,-148.4C3383.22,-147.72 1648.04,-142.23 1102.5,-98 1086.15,-96.67 1068.41,-94.38 1052.46,-92.01"/>
<polygon fill="midnightblue" stroke="midnightblue" points="3833.85,-151.9 3843.86,-148.42 3833.86,-144.9 3833.85,-151.9"/>
</g>
<!-- Node19 -->
<g id="node15" class="node">
<title>Node19</title>
<g id="a_node15"><a xlink:href="../../db/d65/dialogexporttocsv_8cpp.html" target="_top" xlink:title=" ">
<polygon fill="white" stroke="black" points="5900,-67.5 5900,-97.5 6027,-97.5 6027,-67.5 5900,-67.5"/>
<text text-anchor="start" x="5908" y="-85.5" font-family="Helvetica,sans-Serif" font-size="10.00">src/libs/vmisc/dialogs</text>
<text text-anchor="middle" x="5963.5" y="-74.5" font-family="Helvetica,sans-Serif" font-size="10.00">/dialogexporttocsv.cpp</text>
</a>
</g>
</g>
<!-- Node4&#45;&gt;Node19 -->
<g id="edge15" class="edge">
<title>Node4&#45;&gt;Node19</title>
<path fill="none" stroke="midnightblue" d="M4049.57,-144.85C4142.37,-141.77 4279.74,-137.34 4399.5,-134 4730.8,-124.76 5561.08,-134.42 5890.5,-98 5893.58,-97.66 5896.73,-97.25 5899.9,-96.8"/>
<polygon fill="midnightblue" stroke="midnightblue" points="4049.2,-141.36 4039.32,-145.19 4049.44,-148.36 4049.2,-141.36"/>
</g>
<!-- Node20 -->
<g id="node16" class="node">
<title>Node20</title>
<g id="a_node16"><a xlink:href="../../dd/d70/vlayoutpiece_8cpp.html" target="_top" xlink:title=" ">
<polygon fill="white" stroke="black" points="716,-73 716,-92 893,-92 893,-73 716,-73"/>
<text text-anchor="middle" x="804.5" y="-80" font-family="Helvetica,sans-Serif" font-size="10.00">src/libs/vlayout/vlayoutpiece.cpp</text>
</a>
</g>
</g>
<!-- Node4&#45;&gt;Node20 -->
<g id="edge16" class="edge">
<title>Node4&#45;&gt;Node20</title>
<path fill="none" stroke="midnightblue" d="M3833.7,-148.59C3363.51,-148.71 1489.49,-146.1 902.5,-98 886.47,-96.69 869.08,-94.4 853.46,-92.02"/>
<polygon fill="midnightblue" stroke="midnightblue" points="3833.88,-152.09 3843.88,-148.59 3833.88,-145.09 3833.88,-152.09"/>
</g>
<!-- Node21 -->
<g id="node17" class="node">
<title>Node21</title>
<g id="a_node17"><a xlink:href="../../d6/d0b/def_8cpp.html" target="_top" xlink:title=" ">
<polygon fill="white" stroke="black" points="1237.5,-73 1237.5,-92 1359.5,-92 1359.5,-73 1237.5,-73"/>
<text text-anchor="middle" x="1298.5" y="-80" font-family="Helvetica,sans-Serif" font-size="10.00">src/libs/vmisc/def.cpp</text>
</a>
</g>
</g>
<!-- Node4&#45;&gt;Node21 -->
<g id="edge17" class="edge">
<title>Node4&#45;&gt;Node21</title>
<path fill="none" stroke="midnightblue" d="M3833.48,-147.56C3376.65,-143.41 1615.46,-125.76 1368.5,-98 1356.91,-96.7 1344.39,-94.4 1333.19,-92.01"/>
<polygon fill="midnightblue" stroke="midnightblue" points="3833.67,-151.06 3843.7,-147.65 3833.74,-144.06 3833.67,-151.06"/>
</g>
<!-- Node22 -->
<g id="node18" class="node">
<title>Node22</title>
<g id="a_node18"><a xlink:href="../../d0/df6/vabstractapplication_8cpp.html" target="_top" xlink:title=" ">
<polygon fill="white" stroke="black" points="1377.5,-73 1377.5,-92 1583.5,-92 1583.5,-73 1377.5,-73"/>
<text text-anchor="middle" x="1480.5" y="-80" font-family="Helvetica,sans-Serif" font-size="10.00">src/libs/vmisc/vabstractapplication.cpp</text>
</a>
</g>
</g>
<!-- Node4&#45;&gt;Node22 -->
<g id="edge18" class="edge">
<title>Node4&#45;&gt;Node22</title>
<path fill="none" stroke="midnightblue" d="M3833.62,-147.72C3433.81,-144.59 2036.86,-131.44 1592.5,-98 1574.41,-96.64 1554.78,-94.37 1537.07,-92.02"/>
<polygon fill="midnightblue" stroke="midnightblue" points="3833.7,-151.22 3843.73,-147.8 3833.76,-144.22 3833.7,-151.22"/>
</g>
<!-- Node23 -->
<g id="node19" class="node">
<title>Node23</title>
<g id="a_node19"><a xlink:href="../../d4/d4f/pmsystems_8cpp.html" target="_top" xlink:title=" ">
<polygon fill="white" stroke="black" points="1602,-67.5 1602,-97.5 1709,-97.5 1709,-67.5 1602,-67.5"/>
<text text-anchor="start" x="1610" y="-85.5" font-family="Helvetica,sans-Serif" font-size="10.00">src/libs/vpatterndb</text>
<text text-anchor="middle" x="1655.5" y="-74.5" font-family="Helvetica,sans-Serif" font-size="10.00">/pmsystems.cpp</text>
</a>
</g>
</g>
<!-- Node4&#45;&gt;Node23 -->
<g id="edge19" class="edge">
<title>Node4&#45;&gt;Node23</title>
<path fill="none" stroke="midnightblue" d="M3833.72,-149.01C3447.55,-150.36 2134.06,-150.86 1717.5,-98 1714.76,-97.65 1711.96,-97.23 1709.14,-96.76"/>
<polygon fill="midnightblue" stroke="midnightblue" points="3833.78,-152.51 3843.77,-148.97 3833.76,-145.51 3833.78,-152.51"/>
</g>
<!-- Node4&#45;&gt;Node24 -->
<g id="edge20" class="edge">
<title>Node4&#45;&gt;Node24</title>
<path fill="none" stroke="midnightblue" d="M4049.57,-144.78C4142.37,-141.66 4279.73,-137.21 4399.5,-134 4763.01,-124.25 5674.65,-143.02 6035.5,-98 6038.51,-97.62 6041.58,-97.17 6044.67,-96.65"/>
<polygon fill="midnightblue" stroke="midnightblue" points="4049.2,-141.29 4039.32,-145.13 4049.43,-148.29 4049.2,-141.29"/>
</g>
<!-- Node4&#45;&gt;Node25 -->
<g id="edge21" class="edge">
<title>Node4&#45;&gt;Node25</title>
<path fill="none" stroke="midnightblue" d="M4049.54,-147.33C4465.47,-142.66 5950.41,-124.29 6160.5,-98 6163.51,-97.62 6166.58,-97.17 6169.67,-96.65"/>
<polygon fill="midnightblue" stroke="midnightblue" points="4049.28,-143.84 4039.32,-147.45 4049.36,-150.83 4049.28,-143.84"/>
</g>
<!-- Node26 -->
<g id="node22" class="node">
<title>Node26</title>
<g id="a_node22"><a xlink:href="../../df/dba/vpiecenode__p_8h.html" target="_top" xlink:title=" ">
<polygon fill="white" stroke="black" points="5282,-67.5 5282,-97.5 5389,-97.5 5389,-67.5 5282,-67.5"/>
<text text-anchor="start" x="5290" y="-85.5" font-family="Helvetica,sans-Serif" font-size="10.00">src/libs/vpatterndb</text>
<text text-anchor="middle" x="5335.5" y="-74.5" font-family="Helvetica,sans-Serif" font-size="10.00">/vpiecenode_p.h</text>
</a>
</g>
</g>
<!-- Node4&#45;&gt;Node26 -->
<g id="edge22" class="edge">
<title>Node4&#45;&gt;Node26</title>
<path fill="none" stroke="midnightblue" d="M4049.47,-144.96C4355.82,-134.84 5212.35,-105.99 5272.5,-98 5275.5,-97.6 5278.58,-97.12 5281.67,-96.59"/>
<polygon fill="midnightblue" stroke="midnightblue" points="4049.12,-141.47 4039.24,-145.3 4049.35,-148.46 4049.12,-141.47"/>
</g>
<!-- Node28 -->
<g id="node24" class="node">
<title>Node28</title>
<g id="a_node24"><a xlink:href="../../df/d7a/vpiece_8cpp.html" target="_top" xlink:title=" ">
<polygon fill="white" stroke="black" points="1112,-67.5 1112,-97.5 1219,-97.5 1219,-67.5 1112,-67.5"/>
<text text-anchor="start" x="1120" y="-85.5" font-family="Helvetica,sans-Serif" font-size="10.00">src/libs/vpatterndb</text>
<text text-anchor="middle" x="1165.5" y="-74.5" font-family="Helvetica,sans-Serif" font-size="10.00">/vpiece.cpp</text>
</a>
</g>
</g>
<!-- Node4&#45;&gt;Node28 -->
<g id="edge24" class="edge">
<title>Node4&#45;&gt;Node28</title>
<path fill="none" stroke="midnightblue" d="M3833.51,-147.82C3361.27,-144.64 1489.65,-130.13 1228.5,-98 1225.49,-97.63 1222.42,-97.18 1219.33,-96.66"/>
<polygon fill="midnightblue" stroke="midnightblue" points="3833.71,-151.32 3843.74,-147.88 3833.76,-144.32 3833.71,-151.32"/>
</g>
<!-- Node4&#45;&gt;Node29 -->
<g id="edge25" class="edge">
<title>Node4&#45;&gt;Node29</title>
<path fill="none" stroke="midnightblue" d="M4049.28,-149.01C4448.69,-150.45 5844.05,-151.46 6285.5,-98 6288.71,-97.61 6292,-97.13 6295.31,-96.59"/>
<polygon fill="midnightblue" stroke="midnightblue" points="4049.19,-145.51 4039.18,-148.97 4049.16,-152.51 4049.19,-145.51"/>
</g>
<!-- Node30 -->
<g id="node26" class="node">
<title>Node30</title>
<g id="a_node26"><a xlink:href="../../df/d40/export__format__combobox_8cpp.html" target="_top" xlink:title=" ">
<polygon fill="white" stroke="black" points="1727,-67.5 1727,-97.5 1860,-97.5 1860,-67.5 1727,-67.5"/>
<text text-anchor="start" x="1735" y="-85.5" font-family="Helvetica,sans-Serif" font-size="10.00">src/libs/vwidgets/export</text>
<text text-anchor="middle" x="1793.5" y="-74.5" font-family="Helvetica,sans-Serif" font-size="10.00">_format_combobox.cpp</text>
</a>
</g>
</g>
<!-- Node4&#45;&gt;Node30 -->
<g id="edge26" class="edge">
<title>Node4&#45;&gt;Node30</title>
<path fill="none" stroke="midnightblue" d="M3833.74,-148.21C3465.09,-146.85 2255.88,-139.28 1869.5,-98 1866.43,-97.67 1863.29,-97.29 1860.14,-96.85"/>
<polygon fill="midnightblue" stroke="midnightblue" points="3833.86,-151.71 3843.87,-148.25 3833.88,-144.71 3833.86,-151.71"/>
</g>
<!-- Node31 -->
<g id="node27" class="node">
<title>Node31</title>
<g id="a_node27"><a xlink:href="../../d3/d4f/mouse__coordinates_8cpp.html" target="_top" xlink:title=" ">
<polygon fill="white" stroke="black" points="1878.5,-67.5 1878.5,-97.5 2012.5,-97.5 2012.5,-67.5 1878.5,-67.5"/>
<text text-anchor="start" x="1886.5" y="-85.5" font-family="Helvetica,sans-Serif" font-size="10.00">src/libs/vwidgets/mouse</text>
<text text-anchor="middle" x="1945.5" y="-74.5" font-family="Helvetica,sans-Serif" font-size="10.00">_coordinates.cpp</text>
</a>
</g>
</g>
<!-- Node4&#45;&gt;Node31 -->
<g id="edge27" class="edge">
<title>Node4&#45;&gt;Node31</title>
<path fill="none" stroke="midnightblue" d="M3833.66,-147.97C3482.92,-145.87 2376.77,-136.31 2021.5,-98 2018.56,-97.68 2015.57,-97.31 2012.55,-96.9"/>
<polygon fill="midnightblue" stroke="midnightblue" points="3833.79,-151.47 3843.81,-148.03 3833.83,-144.47 3833.79,-151.47"/>
</g>
<!-- Node32 -->
<g id="node28" class="node">
<title>Node32</title>
<g id="a_node28"><a xlink:href="../../d7/d1b/pen__toolbar_8cpp.html" target="_top" xlink:title=" ">
<polygon fill="white" stroke="black" points="2031,-67.5 2031,-97.5 2150,-97.5 2150,-67.5 2031,-67.5"/>
<text text-anchor="start" x="2039" y="-85.5" font-family="Helvetica,sans-Serif" font-size="10.00">src/libs/vwidgets/pen</text>
<text text-anchor="middle" x="2090.5" y="-74.5" font-family="Helvetica,sans-Serif" font-size="10.00">_toolbar.cpp</text>
</a>
</g>
</g>
<!-- Node4&#45;&gt;Node32 -->
<g id="edge28" class="edge">
<title>Node4&#45;&gt;Node32</title>
<path fill="none" stroke="midnightblue" d="M3833.73,-147.97C3499.97,-145.94 2486.33,-136.66 2159.5,-98 2156.46,-97.64 2153.36,-97.21 2150.23,-96.73"/>
<polygon fill="midnightblue" stroke="midnightblue" points="3833.86,-151.47 3843.88,-148.03 3833.9,-144.47 3833.86,-151.47"/>
</g>
<!-- Node33 -->
<g id="node29" class="node">
<title>Node33</title>
<g id="a_node29"><a xlink:href="../../d8/d76/scene__rect_8cpp.html" target="_top" xlink:title=" ">
<polygon fill="white" stroke="black" points="2168.5,-67.5 2168.5,-97.5 2298.5,-97.5 2298.5,-67.5 2168.5,-67.5"/>
<text text-anchor="start" x="2176.5" y="-85.5" font-family="Helvetica,sans-Serif" font-size="10.00">src/libs/vwidgets/scene</text>
<text text-anchor="middle" x="2233.5" y="-74.5" font-family="Helvetica,sans-Serif" font-size="10.00">_rect.cpp</text>
</a>
</g>
</g>
<!-- Node4&#45;&gt;Node33 -->
<g id="edge29" class="edge">
<title>Node4&#45;&gt;Node33</title>
<path fill="none" stroke="midnightblue" d="M3833.8,-147.46C3519.1,-144.05 2604.55,-131.47 2307.5,-98 2304.64,-97.68 2301.72,-97.3 2298.78,-96.89"/>
<polygon fill="midnightblue" stroke="midnightblue" points="3833.8,-150.96 3843.84,-147.57 3833.88,-143.96 3833.8,-150.96"/>
</g>
<!-- Node34 -->
<g id="node30" class="node">
<title>Node34</title>
<g id="a_node30"><a xlink:href="../../dd/df6/vabstractmainwindow_8cpp.html" target="_top" xlink:title=" ">
<polygon fill="white" stroke="black" points="2317,-73 2317,-92 2546,-92 2546,-73 2317,-73"/>
<text text-anchor="middle" x="2431.5" y="-80" font-family="Helvetica,sans-Serif" font-size="10.00">src/libs/vwidgets/vabstractmainwindow.cpp</text>
</a>
</g>
</g>
<!-- Node4&#45;&gt;Node34 -->
<g id="edge30" class="edge">
<title>Node4&#45;&gt;Node34</title>
<path fill="none" stroke="midnightblue" d="M3833.62,-147.54C3600.08,-144.82 3030.32,-134.65 2554.5,-98 2535.21,-96.51 2514.27,-94.28 2495.24,-92.01"/>
<polygon fill="midnightblue" stroke="midnightblue" points="3833.78,-151.04 3843.81,-147.66 3833.86,-144.04 3833.78,-151.04"/>
</g>
<!-- Node35 -->
<g id="node31" class="node">
<title>Node35</title>
<g id="a_node31"><a xlink:href="../../d1/d90/vgrainlineitem_8cpp.html" target="_top" xlink:title=" ">
<polygon fill="white" stroke="black" points="2564,-73 2564,-92 2757,-92 2757,-73 2564,-73"/>
<text text-anchor="middle" x="2660.5" y="-80" font-family="Helvetica,sans-Serif" font-size="10.00">src/libs/vwidgets/vgrainlineitem.cpp</text>
</a>
</g>
</g>
<!-- Node4&#45;&gt;Node35 -->
<g id="edge31" class="edge">
<title>Node4&#45;&gt;Node35</title>
<path fill="none" stroke="midnightblue" d="M3833.54,-147.21C3626.29,-144 3158.48,-133.16 2766.5,-98 2749.94,-96.51 2732.01,-94.3 2715.68,-92.04"/>
<polygon fill="midnightblue" stroke="midnightblue" points="3833.76,-150.72 3843.81,-147.37 3833.86,-143.72 3833.76,-150.72"/>
</g>
<!-- Node36 -->
<g id="node32" class="node">
<title>Node36</title>
<g id="a_node32"><a xlink:href="../../de/dec/vgraphicssimpletextitem_8cpp.html" target="_top" xlink:title=" ">
<polygon fill="white" stroke="black" points="2775.5,-73 2775.5,-92 3019.5,-92 3019.5,-73 2775.5,-73"/>
<text text-anchor="middle" x="2897.5" y="-80" font-family="Helvetica,sans-Serif" font-size="10.00">src/libs/vwidgets/vgraphicssimpletextitem.cpp</text>
</a>
</g>
</g>
<!-- Node4&#45;&gt;Node36 -->
<g id="edge32" class="edge">
<title>Node4&#45;&gt;Node36</title>
<path fill="none" stroke="midnightblue" d="M3833.75,-144.46C3662.84,-137.62 3319.15,-122.11 3028.5,-98 3008.77,-96.36 2987.42,-94.18 2967.8,-92"/>
<polygon fill="midnightblue" stroke="midnightblue" points="3833.63,-147.96 3843.76,-144.86 3833.9,-140.96 3833.63,-147.96"/>
</g>
<!-- Node37 -->
<g id="node33" class="node">
<title>Node37</title>
<g id="a_node33"><a xlink:href="../../d1/d88/vmaingraphicsscene_8cpp.html" target="_top" xlink:title=" ">
<polygon fill="white" stroke="black" points="3037.5,-73 3037.5,-92 3259.5,-92 3259.5,-73 3037.5,-73"/>
<text text-anchor="middle" x="3148.5" y="-80" font-family="Helvetica,sans-Serif" font-size="10.00">src/libs/vwidgets/vmaingraphicsscene.cpp</text>
</a>
</g>
</g>
<!-- Node4&#45;&gt;Node37 -->
<g id="edge33" class="edge">
<title>Node4&#45;&gt;Node37</title>
<path fill="none" stroke="midnightblue" d="M3833.67,-141.92C3700.65,-133.46 3467.67,-117.5 3268.5,-98 3250.96,-96.28 3232.01,-94.13 3214.46,-92.02"/>
<polygon fill="midnightblue" stroke="midnightblue" points="3833.66,-145.43 3843.86,-142.57 3834.1,-138.44 3833.66,-145.43"/>
</g>
<!-- Node38 -->
<g id="node34" class="node">
<title>Node38</title>
<g id="a_node34"><a xlink:href="../../d2/d31/vmaingraphicsview_8cpp.html" target="_top" xlink:title=" ">
<polygon fill="white" stroke="black" points="3277.5,-73 3277.5,-92 3493.5,-92 3493.5,-73 3277.5,-73"/>
<text text-anchor="middle" x="3385.5" y="-80" font-family="Helvetica,sans-Serif" font-size="10.00">src/libs/vwidgets/vmaingraphicsview.cpp</text>
</a>
</g>
</g>
<!-- Node4&#45;&gt;Node38 -->
<g id="edge34" class="edge">
<title>Node4&#45;&gt;Node38</title>
<path fill="none" stroke="midnightblue" d="M3855.74,-138.86C3767.24,-128.86 3625.18,-112.66 3502.5,-98 3486.65,-96.11 3469.59,-94.02 3453.54,-92.03"/>
<polygon fill="midnightblue" stroke="midnightblue" points="3855.4,-142.34 3865.73,-139.99 3856.19,-135.39 3855.4,-142.34"/>
</g>
<!-- Node39 -->
<g id="node35" class="node">
<title>Node39</title>
<g id="a_node35"><a xlink:href="../../de/d45/vcontrolpointspline_8cpp.html" target="_top" xlink:title=" ">
<polygon fill="white" stroke="black" points="3512,-73 3512,-92 3727,-92 3727,-73 3512,-73"/>
<text text-anchor="middle" x="3619.5" y="-80" font-family="Helvetica,sans-Serif" font-size="10.00">src/libs/vwidgets/vcontrolpointspline.cpp</text>
</a>
</g>
</g>
<!-- Node4&#45;&gt;Node39 -->
<g id="edge35" class="edge">
<title>Node4&#45;&gt;Node39</title>
<path fill="none" stroke="midnightblue" d="M3888.89,-137.88C3825.47,-125.08 3720.16,-103.82 3661.76,-92.03"/>
<polygon fill="midnightblue" stroke="midnightblue" points="3888.58,-141.39 3899.07,-139.94 3889.96,-134.53 3888.58,-141.39"/>
</g>
<!-- Node40 -->
<g id="node36" class="node">
<title>Node40</title>
<g id="a_node36"><a xlink:href="../../de/d22/vsimplecurve_8cpp.html" target="_top" xlink:title=" ">
<polygon fill="white" stroke="black" points="3745.5,-73 3745.5,-92 3933.5,-92 3933.5,-73 3745.5,-73"/>
<text text-anchor="middle" x="3839.5" y="-80" font-family="Helvetica,sans-Serif" font-size="10.00">src/libs/vwidgets/vsimplecurve.cpp</text>
</a>
</g>
</g>
<!-- Node4&#45;&gt;Node40 -->
<g id="edge36" class="edge">
<title>Node4&#45;&gt;Node40</title>
<path fill="none" stroke="midnightblue" d="M3919.17,-134.27C3898.98,-121.4 3869.91,-102.88 3853.04,-92.13"/>
<polygon fill="midnightblue" stroke="midnightblue" points="3917.43,-137.31 3927.74,-139.73 3921.19,-131.41 3917.43,-137.31"/>
</g>
<!-- Node41 -->
<g id="node37" class="node">
<title>Node41</title>
<g id="a_node37"><a xlink:href="../../df/d38/vsimplepoint_8cpp.html" target="_top" xlink:title=" ">
<polygon fill="white" stroke="black" points="3952,-73 3952,-92 4137,-92 4137,-73 3952,-73"/>
<text text-anchor="middle" x="4044.5" y="-80" font-family="Helvetica,sans-Serif" font-size="10.00">src/libs/vwidgets/vsimplepoint.cpp</text>
</a>
</g>
</g>
<!-- Node4&#45;&gt;Node41 -->
<g id="edge37" class="edge">
<title>Node4&#45;&gt;Node41</title>
<path fill="none" stroke="midnightblue" d="M3964.05,-134.27C3984.44,-121.4 4013.79,-102.88 4030.83,-92.13"/>
<polygon fill="midnightblue" stroke="midnightblue" points="3961.98,-131.44 3955.39,-139.73 3965.72,-137.36 3961.98,-131.44"/>
</g>
<!-- Node42 -->
<g id="node38" class="node">
<title>Node42</title>
<g id="a_node38"><a xlink:href="../../d0/d5d/vscenepoint_8cpp.html" target="_top" xlink:title=" ">
<polygon fill="white" stroke="black" points="4155,-73 4155,-92 4336,-92 4336,-73 4155,-73"/>
<text text-anchor="middle" x="4245.5" y="-80" font-family="Helvetica,sans-Serif" font-size="10.00">src/libs/vwidgets/vscenepoint.cpp</text>
</a>
</g>
</g>
<!-- Node4&#45;&gt;Node42 -->
<g id="edge38" class="edge">
<title>Node4&#45;&gt;Node42</title>
<path fill="none" stroke="midnightblue" d="M3991.53,-137.8C4051.35,-125.01 4150.29,-103.86 4205.36,-92.08"/>
<polygon fill="midnightblue" stroke="midnightblue" points="3990.6,-134.42 3981.56,-139.94 3992.07,-141.27 3990.6,-134.42"/>
</g>
<!-- Node43 -->
<g id="node39" class="node">
<title>Node43</title>
<g id="a_node39"><a xlink:href="../../df/df5/vtextgraphicsitem_8cpp.html" target="_top" xlink:title=" ">
<polygon fill="white" stroke="black" points="4354,-73 4354,-92 4565,-92 4565,-73 4354,-73"/>
<text text-anchor="middle" x="4459.5" y="-80" font-family="Helvetica,sans-Serif" font-size="10.00">src/libs/vwidgets/vtextgraphicsitem.cpp</text>
</a>
</g>
</g>
<!-- Node4&#45;&gt;Node43 -->
<g id="edge39" class="edge">
<title>Node4&#45;&gt;Node43</title>
<path fill="none" stroke="midnightblue" d="M4019.74,-138.71C4100.94,-128.55 4231.62,-112.19 4344.5,-98 4359.87,-96.07 4376.4,-93.99 4392,-92.02"/>
<polygon fill="midnightblue" stroke="midnightblue" points="4019.09,-135.27 4009.6,-139.98 4019.96,-142.21 4019.09,-135.27"/>
</g>
<!-- Node14&#45;&gt;Node13 -->
<g id="edge11" class="edge">
<title>Node14&#45;&gt;Node13</title>
<path fill="none" stroke="midnightblue" d="M5774.45,-64.44C5741.05,-53.91 5698.72,-40.55 5667.22,-30.61"/>
<polygon fill="midnightblue" stroke="midnightblue" points="5773.46,-67.8 5784.05,-67.48 5775.57,-61.13 5773.46,-67.8"/>
</g>
<!-- Node27 -->
<g id="node23" class="node">
<title>Node27</title>
<g id="a_node23"><a xlink:href="../../d8/dba/vpiecenode_8cpp.html" target="_top" xlink:title=" ">
<polygon fill="white" stroke="black" points="3035,-0.5 3035,-30.5 3142,-30.5 3142,-0.5 3035,-0.5"/>
<text text-anchor="start" x="3043" y="-18.5" font-family="Helvetica,sans-Serif" font-size="10.00">src/libs/vpatterndb</text>
<text text-anchor="middle" x="3088.5" y="-7.5" font-family="Helvetica,sans-Serif" font-size="10.00">/vpiecenode.cpp</text>
</a>
</g>
</g>
<!-- Node26&#45;&gt;Node27 -->
<g id="edge23" class="edge">
<title>Node26&#45;&gt;Node27</title>
<path fill="none" stroke="midnightblue" d="M5271.52,-67.11C4820.62,-13.06 3433.32,-15.21 3142.36,-16.26"/>
<polygon fill="midnightblue" stroke="midnightblue" points="5271.32,-70.61 5281.67,-68.35 5272.17,-63.66 5271.32,-70.61"/>
</g>
<!-- Node44&#45;&gt;Node4 -->
<g id="edge48" class="edge">
<title>Node44&#45;&gt;Node4</title>
<path fill="none" stroke="midnightblue" d="M895.16,-214.17C1286.59,-205.99 3365.92,-162.53 3843.62,-152.55"/>
<polygon fill="midnightblue" stroke="midnightblue" points="895.08,-210.67 885.15,-214.38 895.22,-217.67 895.08,-210.67"/>
</g>
<!-- Node44&#45;&gt;Node18 -->
<g id="edge47" class="edge">
<title>Node44&#45;&gt;Node18</title>
<path fill="none" stroke="midnightblue" d="M871.35,-196.94C888.15,-188.29 907.49,-177.21 923.5,-165 953.43,-142.18 982.67,-108.04 995.6,-92.18"/>
<polygon fill="midnightblue" stroke="midnightblue" points="869.67,-193.87 862.31,-201.49 872.81,-200.12 869.67,-193.87"/>
</g>
<!-- Node44&#45;&gt;Node24 -->
<g id="edge51" class="edge">
<title>Node44&#45;&gt;Node24</title>
<path fill="none" stroke="midnightblue" d="M895.39,-214.92C1226.22,-211.85 2778.05,-196.36 4047.5,-165 4268.45,-159.54 5816.35,-126.64 6035.5,-98 6038.5,-97.61 6041.58,-97.14 6044.67,-96.61"/>
<polygon fill="midnightblue" stroke="midnightblue" points="895.02,-211.43 885.05,-215.02 895.08,-218.43 895.02,-211.43"/>
</g>
<!-- Node44&#45;&gt;Node25 -->
<g id="edge52" class="edge">
<title>Node44&#45;&gt;Node25</title>
<path fill="none" stroke="midnightblue" d="M895.3,-215.39C1260.23,-214.59 3120.21,-208.48 4638.5,-165 4976.91,-155.31 5825.04,-143.6 6160.5,-98 6163.5,-97.59 6166.57,-97.11 6169.66,-96.57"/>
<polygon fill="midnightblue" stroke="midnightblue" points="895.18,-211.89 885.19,-215.41 895.2,-218.89 895.18,-211.89"/>
</g>
<!-- Node44&#45;&gt;Node27 -->
<g id="edge55" class="edge">
<title>Node44&#45;&gt;Node27</title>
<path fill="none" stroke="midnightblue" d="M767.47,-214.92C681.07,-212.68 533.88,-203.17 498.5,-165 468.86,-133.01 462.96,-98.14 493.5,-67 539.62,-19.97 2667.31,-16.72 3034.73,-16.51"/>
<polygon fill="midnightblue" stroke="midnightblue" points="767.61,-218.43 777.69,-215.16 767.78,-211.43 767.61,-218.43"/>
</g>
<!-- Node44&#45;&gt;Node28 -->
<g id="edge54" class="edge">
<title>Node44&#45;&gt;Node28</title>
<path fill="none" stroke="midnightblue" d="M876.4,-197.76C943.53,-171.23 1068.71,-121.75 1129.93,-97.56"/>
<polygon fill="midnightblue" stroke="midnightblue" points="874.94,-194.57 866.93,-201.5 877.51,-201.08 874.94,-194.57"/>
</g>
<!-- Node45 -->
<g id="node41" class="node">
<title>Node45</title>
<g id="a_node41"><a xlink:href="../../d4/dd6/vmeasurements_8h.html" target="_top" xlink:title=" ">
<polygon fill="white" stroke="black" points="508,-140 508,-159 693,-159 693,-140 508,-140"/>
<text text-anchor="middle" x="600.5" y="-147" font-family="Helvetica,sans-Serif" font-size="10.00">src/libs/vformat/vmeasurements.h</text>
</a>
</g>
</g>
<!-- Node44&#45;&gt;Node45 -->
<g id="edge42" class="edge">
<title>Node44&#45;&gt;Node45</title>
<path fill="none" stroke="midnightblue" d="M771.97,-198.75C726.8,-186.04 666.55,-169.09 630.81,-159.03"/>
<polygon fill="midnightblue" stroke="midnightblue" points="771.09,-202.14 781.66,-201.48 772.98,-195.4 771.09,-202.14"/>
</g>
<!-- Node46 -->
<g id="node42" class="node">
<title>Node46</title>
<g id="a_node42"><a xlink:href="../../de/db3/vmeasurements_8cpp.html" target="_top" xlink:title=" ">
<polygon fill="white" stroke="black" points="502.5,-73 502.5,-92 698.5,-92 698.5,-73 502.5,-73"/>
<text text-anchor="middle" x="600.5" y="-80" font-family="Helvetica,sans-Serif" font-size="10.00">src/libs/vformat/vmeasurements.cpp</text>
</a>
</g>
</g>
<!-- Node44&#45;&gt;Node46 -->
<g id="edge44" class="edge">
<title>Node44&#45;&gt;Node46</title>
<path fill="none" stroke="midnightblue" d="M793.46,-196.62C776.52,-187.71 756.58,-176.52 739.5,-165 721.43,-152.82 719.8,-145.83 701.5,-134 674.99,-116.86 641.88,-101.31 620.95,-92.12"/>
<polygon fill="midnightblue" stroke="midnightblue" points="792.04,-199.82 802.53,-201.32 795.26,-193.61 792.04,-199.82"/>
</g>
<!-- Node47 -->
<g id="node43" class="node">
<title>Node47</title>
<g id="a_node43"><a xlink:href="../../d6/de0/vlayoutpiece_8h.html" target="_top" xlink:title=" ">
<polygon fill="white" stroke="red" points="748.5,-140 748.5,-159 914.5,-159 914.5,-140 748.5,-140"/>
<text text-anchor="middle" x="831.5" y="-147" font-family="Helvetica,sans-Serif" font-size="10.00">src/libs/vlayout/vlayoutpiece.h</text>
</a>
</g>
</g>
<!-- Node44&#45;&gt;Node47 -->
<g id="edge45" class="edge">
<title>Node44&#45;&gt;Node47</title>
<path fill="none" stroke="midnightblue" d="M831.5,-191.25C831.5,-180.02 831.5,-167.38 831.5,-159.19"/>
<polygon fill="midnightblue" stroke="midnightblue" points="828,-191.4 831.5,-201.4 835,-191.4 828,-191.4"/>
</g>
<!-- Node56 -->
<g id="node44" class="node">
<title>Node56</title>
<g id="a_node44"><a xlink:href="../../d1/de1/vincrement__p_8h.html" target="_top" xlink:title=" ">
<polygon fill="white" stroke="red" points="0,-134.5 0,-164.5 143,-164.5 143,-134.5 0,-134.5"/>
<text text-anchor="start" x="8" y="-152.5" font-family="Helvetica,sans-Serif" font-size="10.00">src/libs/vpatterndb</text>
<text text-anchor="middle" x="71.5" y="-141.5" font-family="Helvetica,sans-Serif" font-size="10.00">/variables/vincrement_p.h</text>
</a>
</g>
</g>
<!-- Node44&#45;&gt;Node56 -->
<g id="edge49" class="edge">
<title>Node44&#45;&gt;Node56</title>
<path fill="none" stroke="midnightblue" d="M767.45,-212.94C646.76,-207.62 377.56,-193.44 152.5,-165 149.52,-164.62 146.49,-164.21 143.43,-163.77"/>
<polygon fill="midnightblue" stroke="midnightblue" points="767.48,-216.44 777.62,-213.38 767.78,-209.45 767.48,-216.44"/>
</g>
<!-- Node58 -->
<g id="node45" class="node">
<title>Node58</title>
<g id="a_node45"><a xlink:href="../../d6/dc1/vmeasurement__p_8h.html" target="_top" xlink:title=" ">
<polygon fill="white" stroke="red" points="161.5,-134.5 161.5,-164.5 323.5,-164.5 323.5,-134.5 161.5,-134.5"/>
<text text-anchor="start" x="169.5" y="-152.5" font-family="Helvetica,sans-Serif" font-size="10.00">src/libs/vpatterndb</text>
<text text-anchor="middle" x="242.5" y="-141.5" font-family="Helvetica,sans-Serif" font-size="10.00">/variables/vmeasurement_p.h</text>
</a>
</g>
</g>
<!-- Node44&#45;&gt;Node58 -->
<g id="edge50" class="edge">
<title>Node44&#45;&gt;Node58</title>
<path fill="none" stroke="midnightblue" d="M767.82,-210.26C672.83,-202.18 488.48,-185.44 332.5,-165 329.68,-164.63 326.8,-164.24 323.9,-163.84"/>
<polygon fill="midnightblue" stroke="midnightblue" points="767.58,-213.76 777.84,-211.11 768.17,-206.78 767.58,-213.76"/>
</g>
<!-- Node60 -->
<g id="node46" class="node">
<title>Node60</title>
<g id="a_node46"><a xlink:href="../../d6/d91/vnodedetail_8cpp.html" target="_top" xlink:title=" ">
<polygon fill="white" stroke="black" points="342,-134.5 342,-164.5 449,-164.5 449,-134.5 342,-134.5"/>
<text text-anchor="start" x="350" y="-152.5" font-family="Helvetica,sans-Serif" font-size="10.00">src/libs/vpatterndb</text>
<text text-anchor="middle" x="395.5" y="-141.5" font-family="Helvetica,sans-Serif" font-size="10.00">/vnodedetail.cpp</text>
</a>
</g>
</g>
<!-- Node44&#45;&gt;Node60 -->
<g id="edge53" class="edge">
<title>Node44&#45;&gt;Node60</title>
<path fill="none" stroke="midnightblue" d="M767.95,-208.22C694.43,-199.47 569.82,-183.6 463.5,-165 458.86,-164.19 454.06,-163.29 449.25,-162.34"/>
<polygon fill="midnightblue" stroke="midnightblue" points="767.64,-211.71 777.98,-209.41 768.46,-204.76 767.64,-211.71"/>
</g>
<!-- Node45&#45;&gt;Node46 -->
<g id="edge43" class="edge">
<title>Node45&#45;&gt;Node46</title>
<path fill="none" stroke="midnightblue" d="M600.5,-129.54C600.5,-117.17 600.5,-101.62 600.5,-92.13"/>
<polygon fill="midnightblue" stroke="midnightblue" points="597,-129.73 600.5,-139.73 604,-129.73 597,-129.73"/>
</g>
<!-- Node47&#45;&gt;Node20 -->
<g id="edge46" class="edge">
<title>Node47&#45;&gt;Node20</title>
<path fill="none" stroke="midnightblue" d="M823.94,-130.29C818.75,-117.81 812.11,-101.81 808.08,-92.13"/>
<polygon fill="midnightblue" stroke="midnightblue" points="820.79,-131.84 827.86,-139.73 827.25,-129.16 820.79,-131.84"/>
</g>
</g>
</svg>
