<?xml version="1.0" encoding="UTF-8" standalone="no"?>
<!DOCTYPE svg PUBLIC "-//W3C//DTD SVG 1.1//EN"
 "http://www.w3.org/Graphics/SVG/1.1/DTD/svg11.dtd">
<!-- Generated by graphviz version 2.43.0 (0)
 -->
<!-- Title: src/libs/vpatterndb/vtranslatemeasurements.h Pages: 1 -->
<svg width="6529pt" height="374pt"
 viewBox="0.00 0.00 6529.00 374.00" xmlns="http://www.w3.org/2000/svg" xmlns:xlink="http://www.w3.org/1999/xlink">
<g id="graph0" class="graph" transform="scale(1 1) rotate(0) translate(4 370)">
<title>src/libs/vpatterndb/vtranslatemeasurements.h</title>
<polygon fill="white" stroke="transparent" points="-4,4 -4,-370 6525,-370 6525,4 -4,4"/>
<!-- Node1 -->
<g id="node1" class="node">
<title>Node1</title>
<g id="a_node1"><a xlink:title=" ">
<polygon fill="#bfbfbf" stroke="black" points="6104.5,-335.5 6104.5,-365.5 6256.5,-365.5 6256.5,-335.5 6104.5,-335.5"/>
<text text-anchor="start" x="6112.5" y="-353.5" font-family="Helvetica,sans-Serif" font-size="10.00">src/libs/vpatterndb</text>
<text text-anchor="middle" x="6180.5" y="-342.5" font-family="Helvetica,sans-Serif" font-size="10.00">/vtranslatemeasurements.h</text>
</a>
</g>
</g>
<!-- Node2 -->
<g id="node2" class="node">
<title>Node2</title>
<g id="a_node2"><a xlink:href="../../d9/de3/measurements_8cpp.html" target="_top" xlink:title=" ">
<polygon fill="white" stroke="black" points="5771,-268.5 5771,-298.5 5884,-298.5 5884,-268.5 5771,-268.5"/>
<text text-anchor="start" x="5779" y="-286.5" font-family="Helvetica,sans-Serif" font-size="10.00">src/libs/vpatterndb</text>
<text text-anchor="middle" x="5827.5" y="-275.5" font-family="Helvetica,sans-Serif" font-size="10.00">/measurements.cpp</text>
</a>
</g>
</g>
<!-- Node1&#45;&gt;Node2 -->
<g id="edge1" class="edge">
<title>Node1&#45;&gt;Node2</title>
<path fill="none" stroke="midnightblue" d="M6094.12,-335.42C6036.81,-325.81 5960.01,-312.44 5892.5,-299 5889.78,-298.46 5887,-297.89 5884.19,-297.31"/>
<polygon fill="midnightblue" stroke="midnightblue" points="6093.78,-338.91 6104.22,-337.11 6094.94,-332.01 6093.78,-338.91"/>
</g>
<!-- Node3 -->
<g id="node3" class="node">
<title>Node3</title>
<g id="a_node3"><a xlink:href="../../da/d69/vtranslatevars_8h.html" target="_top" xlink:title=" ">
<polygon fill="white" stroke="black" points="5902,-268.5 5902,-298.5 6009,-298.5 6009,-268.5 5902,-268.5"/>
<text text-anchor="start" x="5910" y="-286.5" font-family="Helvetica,sans-Serif" font-size="10.00">src/libs/vpatterndb</text>
<text text-anchor="middle" x="5955.5" y="-275.5" font-family="Helvetica,sans-Serif" font-size="10.00">/vtranslatevars.h</text>
</a>
</g>
</g>
<!-- Node1&#45;&gt;Node3 -->
<g id="edge2" class="edge">
<title>Node1&#45;&gt;Node3</title>
<path fill="none" stroke="midnightblue" d="M6121.93,-332.58C6085.39,-322.02 6038.9,-308.59 6004.35,-298.61"/>
<polygon fill="midnightblue" stroke="midnightblue" points="6121.38,-336.06 6131.96,-335.48 6123.32,-329.34 6121.38,-336.06"/>
</g>
<!-- Node29 -->
<g id="node25" class="node">
<title>Node29</title>
<g id="a_node25"><a xlink:href="../../de/d3e/vtranslatevars_8cpp.html" target="_top" xlink:title=" ">
<polygon fill="white" stroke="black" points="6255.5,-67.5 6255.5,-97.5 6365.5,-97.5 6365.5,-67.5 6255.5,-67.5"/>
<text text-anchor="start" x="6263.5" y="-85.5" font-family="Helvetica,sans-Serif" font-size="10.00">src/libs/vpatterndb</text>
<text text-anchor="middle" x="6310.5" y="-74.5" font-family="Helvetica,sans-Serif" font-size="10.00">/vtranslatevars.cpp</text>
</a>
</g>
</g>
<!-- Node1&#45;&gt;Node29 -->
<g id="edge61" class="edge">
<title>Node1&#45;&gt;Node29</title>
<path fill="none" stroke="midnightblue" d="M6208.43,-329.08C6235.48,-307.82 6275.67,-272.06 6298.5,-232 6323.35,-188.4 6317.43,-125.6 6313.1,-97.74"/>
<polygon fill="midnightblue" stroke="midnightblue" points="6206.27,-326.32 6200.49,-335.2 6210.54,-331.87 6206.27,-326.32"/>
</g>
<!-- Node67 -->
<g id="node50" class="node">
<title>Node67</title>
<g id="a_node50"><a xlink:href="../../d0/d50/vtranslatemeasurements_8cpp.html" target="_top" xlink:title=" ">
<polygon fill="white" stroke="black" points="6358,-268.5 6358,-298.5 6521,-298.5 6521,-268.5 6358,-268.5"/>
<text text-anchor="start" x="6366" y="-286.5" font-family="Helvetica,sans-Serif" font-size="10.00">src/libs/vpatterndb</text>
<text text-anchor="middle" x="6439.5" y="-275.5" font-family="Helvetica,sans-Serif" font-size="10.00">/vtranslatemeasurements.cpp</text>
</a>
</g>
</g>
<!-- Node1&#45;&gt;Node67 -->
<g id="edge62" class="edge">
<title>Node1&#45;&gt;Node67</title>
<path fill="none" stroke="midnightblue" d="M6246.31,-332.98C6288.61,-322.37 6342.99,-308.72 6383.27,-298.61"/>
<polygon fill="midnightblue" stroke="midnightblue" points="6245.23,-329.65 6236.38,-335.48 6246.93,-336.44 6245.23,-329.65"/>
</g>
<!-- Node4 -->
<g id="node4" class="node">
<title>Node4</title>
<g id="a_node4"><a xlink:href="../../d5/d74/vabstractapplication_8h.html" target="_top" xlink:title=" ">
<polygon fill="white" stroke="black" points="3776,-140 3776,-159 3971,-159 3971,-140 3776,-140"/>
<text text-anchor="middle" x="3873.5" y="-147" font-family="Helvetica,sans-Serif" font-size="10.00">src/libs/vmisc/vabstractapplication.h</text>
</a>
</g>
</g>
<!-- Node3&#45;&gt;Node4 -->
<g id="edge3" class="edge">
<title>Node3&#45;&gt;Node4</title>
<path fill="none" stroke="midnightblue" d="M5891.93,-268.1C5151.26,-162.95 4262.3,-151.28 3971,-150.39"/>
<polygon fill="midnightblue" stroke="midnightblue" points="5891.6,-271.59 5902,-269.54 5892.59,-264.66 5891.6,-271.59"/>
</g>
<!-- Node24 -->
<g id="node20" class="node">
<title>Node24</title>
<g id="a_node20"><a xlink:href="../../db/d11/vformula_8cpp.html" target="_top" xlink:title=" ">
<polygon fill="white" stroke="black" points="6005,-67.5 6005,-97.5 6112,-97.5 6112,-67.5 6005,-67.5"/>
<text text-anchor="start" x="6013" y="-85.5" font-family="Helvetica,sans-Serif" font-size="10.00">src/libs/vpatterndb</text>
<text text-anchor="middle" x="6058.5" y="-74.5" font-family="Helvetica,sans-Serif" font-size="10.00">/vformula.cpp</text>
</a>
</g>
</g>
<!-- Node3&#45;&gt;Node24 -->
<g id="edge40" class="edge">
<title>Node3&#45;&gt;Node24</title>
<path fill="none" stroke="midnightblue" d="M5891.84,-267.8C5837.21,-254.88 5766.62,-237.34 5762.5,-232 5735.88,-197.52 5734.15,-167.07 5762.5,-134 5796.6,-94.23 5944.05,-107.88 5995.5,-98 5998.59,-97.41 6001.75,-96.77 6004.94,-96.11"/>
<polygon fill="midnightblue" stroke="midnightblue" points="5891.3,-271.27 5901.84,-270.16 5892.9,-264.46 5891.3,-271.27"/>
</g>
<!-- Node25 -->
<g id="node21" class="node">
<title>Node25</title>
<g id="a_node21"><a xlink:href="../../d6/d46/vcontainer_8cpp.html" target="_top" xlink:title=" ">
<polygon fill="white" stroke="black" points="6130,-67.5 6130,-97.5 6237,-97.5 6237,-67.5 6130,-67.5"/>
<text text-anchor="start" x="6138" y="-85.5" font-family="Helvetica,sans-Serif" font-size="10.00">src/libs/vpatterndb</text>
<text text-anchor="middle" x="6183.5" y="-74.5" font-family="Helvetica,sans-Serif" font-size="10.00">/vcontainer.cpp</text>
</a>
</g>
</g>
<!-- Node3&#45;&gt;Node25 -->
<g id="edge56" class="edge">
<title>Node3&#45;&gt;Node25</title>
<path fill="none" stroke="midnightblue" d="M5892.16,-266.32C5850.13,-254.95 5801.61,-240.34 5795.5,-232 5787.35,-220.89 5787.29,-212.06 5795.5,-201 5815.84,-173.59 6028.17,-120.24 6129.83,-96.01"/>
<polygon fill="midnightblue" stroke="midnightblue" points="5891.27,-269.71 5901.84,-268.92 5893.08,-262.95 5891.27,-269.71"/>
</g>
<!-- Node3&#45;&gt;Node29 -->
<g id="edge57" class="edge">
<title>Node3&#45;&gt;Node29</title>
<path fill="none" stroke="midnightblue" d="M6019.44,-280.42C6101.17,-276.42 6236.41,-264.9 6272.5,-232 6311.25,-196.68 6312.86,-127.78 6311.55,-97.9"/>
<polygon fill="midnightblue" stroke="midnightblue" points="6019.09,-276.93 6009.26,-280.89 6019.42,-283.92 6019.09,-276.93"/>
</g>
<!-- Node44 -->
<g id="node40" class="node">
<title>Node44</title>
<g id="a_node40"><a xlink:href="../../d3/df7/vcontainer_8h.html" target="_top" xlink:title=" ">
<polygon fill="white" stroke="red" points="746,-201.5 746,-231.5 853,-231.5 853,-201.5 746,-201.5"/>
<text text-anchor="start" x="754" y="-219.5" font-family="Helvetica,sans-Serif" font-size="10.00">src/libs/vpatterndb</text>
<text text-anchor="middle" x="799.5" y="-208.5" font-family="Helvetica,sans-Serif" font-size="10.00">/vcontainer.h</text>
</a>
</g>
</g>
<!-- Node3&#45;&gt;Node44 -->
<g id="edge41" class="edge">
<title>Node3&#45;&gt;Node44</title>
<path fill="none" stroke="midnightblue" d="M5891.52,-268.26C5538.17,-236.38 1375.42,-219.68 853.2,-217.7"/>
<polygon fill="midnightblue" stroke="midnightblue" points="5891.37,-271.77 5901.68,-269.31 5892.09,-264.8 5891.37,-271.77"/>
</g>
<!-- Node64 -->
<g id="node47" class="node">
<title>Node64</title>
<g id="a_node47"><a xlink:href="../../dc/dc2/dialogsplinepath_8cpp.html" target="_top" xlink:title=" ">
<polygon fill="white" stroke="black" points="5804.5,-201.5 5804.5,-231.5 5952.5,-231.5 5952.5,-201.5 5804.5,-201.5"/>
<text text-anchor="start" x="5812.5" y="-219.5" font-family="Helvetica,sans-Serif" font-size="10.00">src/libs/vtools/dialogs</text>
<text text-anchor="middle" x="5878.5" y="-208.5" font-family="Helvetica,sans-Serif" font-size="10.00">/tools/dialogsplinepath.cpp</text>
</a>
</g>
</g>
<!-- Node3&#45;&gt;Node64 -->
<g id="edge58" class="edge">
<title>Node3&#45;&gt;Node64</title>
<path fill="none" stroke="midnightblue" d="M5931.08,-261.88C5919.38,-252.01 5905.66,-240.43 5895.18,-231.58"/>
<polygon fill="midnightblue" stroke="midnightblue" points="5928.89,-264.62 5938.79,-268.4 5933.41,-259.27 5928.89,-264.62"/>
</g>
<!-- Node65 -->
<g id="node48" class="node">
<title>Node65</title>
<g id="a_node48"><a xlink:href="../../df/de5/dialogspline_8cpp.html" target="_top" xlink:title=" ">
<polygon fill="white" stroke="black" points="5970.5,-201.5 5970.5,-231.5 6096.5,-231.5 6096.5,-201.5 5970.5,-201.5"/>
<text text-anchor="start" x="5978.5" y="-219.5" font-family="Helvetica,sans-Serif" font-size="10.00">src/libs/vtools/dialogs</text>
<text text-anchor="middle" x="6033.5" y="-208.5" font-family="Helvetica,sans-Serif" font-size="10.00">/tools/dialogspline.cpp</text>
</a>
</g>
</g>
<!-- Node3&#45;&gt;Node65 -->
<g id="edge59" class="edge">
<title>Node3&#45;&gt;Node65</title>
<path fill="none" stroke="midnightblue" d="M5980.24,-261.88C5992.09,-252.01 6005.98,-240.43 6016.61,-231.58"/>
<polygon fill="midnightblue" stroke="midnightblue" points="5977.87,-259.31 5972.42,-268.4 5982.35,-264.68 5977.87,-259.31"/>
</g>
<!-- Node66 -->
<g id="node49" class="node">
<title>Node66</title>
<g id="a_node49"><a xlink:href="../../d1/d75/vistoolendline_8cpp.html" target="_top" xlink:title=" ">
<polygon fill="white" stroke="black" points="6115,-201.5 6115,-231.5 6264,-231.5 6264,-201.5 6115,-201.5"/>
<text text-anchor="start" x="6123" y="-219.5" font-family="Helvetica,sans-Serif" font-size="10.00">src/libs/vtools/visualization</text>
<text text-anchor="middle" x="6189.5" y="-208.5" font-family="Helvetica,sans-Serif" font-size="10.00">/line/vistoolendline.cpp</text>
</a>
</g>
</g>
<!-- Node3&#45;&gt;Node66 -->
<g id="edge60" class="edge">
<title>Node3&#45;&gt;Node66</title>
<path fill="none" stroke="midnightblue" d="M6015.93,-265.71C6054.01,-255.14 6102.61,-241.63 6138.7,-231.61"/>
<polygon fill="midnightblue" stroke="midnightblue" points="6014.68,-262.43 6005.99,-268.48 6016.56,-269.17 6014.68,-262.43"/>
</g>
<!-- Node5 -->
<g id="node5" class="node">
<title>Node5</title>
<g id="a_node5"><a xlink:href="../../d4/d90/fvupdater_8cpp.html" target="_top" xlink:title=" ">
<polygon fill="white" stroke="black" points="4547,-73 4547,-92 4700,-92 4700,-73 4547,-73"/>
<text text-anchor="middle" x="4623.5" y="-80" font-family="Helvetica,sans-Serif" font-size="10.00">src/libs/fervor/fvupdater.cpp</text>
</a>
</g>
</g>
<!-- Node4&#45;&gt;Node5 -->
<g id="edge4" class="edge">
<title>Node4&#45;&gt;Node5</title>
<path fill="none" stroke="midnightblue" d="M3981.18,-143.33C4112.77,-136.32 4342.05,-121.86 4537.5,-98 4550.58,-96.4 4564.7,-94.22 4577.64,-92.03"/>
<polygon fill="midnightblue" stroke="midnightblue" points="3980.9,-139.84 3971.1,-143.87 3981.27,-146.83 3980.9,-139.84"/>
</g>
<!-- Node6 -->
<g id="node6" class="node">
<title>Node6</title>
<g id="a_node6"><a xlink:href="../../d9/dc8/dxiface_8cpp.html" target="_top" xlink:title=" ">
<polygon fill="white" stroke="black" points="4718,-73 4718,-92 4853,-92 4853,-73 4718,-73"/>
<text text-anchor="middle" x="4785.5" y="-80" font-family="Helvetica,sans-Serif" font-size="10.00">src/libs/vdxf/dxiface.cpp</text>
</a>
</g>
</g>
<!-- Node4&#45;&gt;Node6 -->
<g id="edge5" class="edge">
<title>Node4&#45;&gt;Node6</title>
<path fill="none" stroke="midnightblue" d="M3981.54,-146.3C4141.07,-142.07 4448.83,-130.17 4708.5,-98 4720.51,-96.51 4733.48,-94.31 4745.29,-92.06"/>
<polygon fill="midnightblue" stroke="midnightblue" points="3981.15,-142.81 3971.25,-146.57 3981.33,-149.81 3981.15,-142.81"/>
</g>
<!-- Node7 -->
<g id="node7" class="node">
<title>Node7</title>
<g id="a_node7"><a xlink:href="../../da/d75/vabstractarc__p_8h.html" target="_top" xlink:title=" ">
<polygon fill="white" stroke="red" points="4871,-67.5 4871,-97.5 4978,-97.5 4978,-67.5 4871,-67.5"/>
<text text-anchor="start" x="4879" y="-85.5" font-family="Helvetica,sans-Serif" font-size="10.00">src/libs/vgeometry</text>
<text text-anchor="middle" x="4924.5" y="-74.5" font-family="Helvetica,sans-Serif" font-size="10.00">/vabstractarc_p.h</text>
</a>
</g>
</g>
<!-- Node4&#45;&gt;Node7 -->
<g id="edge6" class="edge">
<title>Node4&#45;&gt;Node7</title>
<path fill="none" stroke="midnightblue" d="M3981.29,-145.38C4201.06,-138.62 4694.26,-121.34 4861.5,-98 4864.5,-97.58 4867.57,-97.09 4870.66,-96.54"/>
<polygon fill="midnightblue" stroke="midnightblue" points="3980.92,-141.89 3971.03,-145.69 3981.13,-148.88 3980.92,-141.89"/>
</g>
<!-- Node9 -->
<g id="node8" class="node">
<title>Node9</title>
<g id="a_node8"><a xlink:href="../../dc/da3/varc__p_8h.html" target="_top" xlink:title=" ">
<polygon fill="white" stroke="red" points="4996,-67.5 4996,-97.5 5103,-97.5 5103,-67.5 4996,-67.5"/>
<text text-anchor="start" x="5004" y="-85.5" font-family="Helvetica,sans-Serif" font-size="10.00">src/libs/vgeometry</text>
<text text-anchor="middle" x="5049.5" y="-74.5" font-family="Helvetica,sans-Serif" font-size="10.00">/varc_p.h</text>
</a>
</g>
</g>
<!-- Node4&#45;&gt;Node9 -->
<g id="edge7" class="edge">
<title>Node4&#45;&gt;Node9</title>
<path fill="none" stroke="midnightblue" d="M3981.36,-144.72C4241.44,-135.44 4888.87,-111.34 4986.5,-98 4989.5,-97.59 4992.57,-97.1 4995.66,-96.57"/>
<polygon fill="midnightblue" stroke="midnightblue" points="3981.02,-141.23 3971.15,-145.08 3981.27,-148.22 3981.02,-141.23"/>
</g>
<!-- Node11 -->
<g id="node9" class="node">
<title>Node11</title>
<g id="a_node9"><a xlink:href="../../d5/d8e/vcubicbezier__p_8h.html" target="_top" xlink:title=" ">
<polygon fill="white" stroke="red" points="5121,-67.5 5121,-97.5 5228,-97.5 5228,-67.5 5121,-67.5"/>
<text text-anchor="start" x="5129" y="-85.5" font-family="Helvetica,sans-Serif" font-size="10.00">src/libs/vgeometry</text>
<text text-anchor="middle" x="5174.5" y="-74.5" font-family="Helvetica,sans-Serif" font-size="10.00">/vcubicbezier_p.h</text>
</a>
</g>
</g>
<!-- Node4&#45;&gt;Node11 -->
<g id="edge8" class="edge">
<title>Node4&#45;&gt;Node11</title>
<path fill="none" stroke="midnightblue" d="M3981.32,-145.25C4262.01,-136.62 5001.33,-112.79 5111.5,-98 5114.5,-97.6 5117.57,-97.12 5120.66,-96.58"/>
<polygon fill="midnightblue" stroke="midnightblue" points="3981.01,-141.76 3971.12,-145.56 3981.22,-148.75 3981.01,-141.76"/>
</g>
<!-- Node13 -->
<g id="node10" class="node">
<title>Node13</title>
<g id="a_node10"><a xlink:href="../../df/dde/vellipticalarc__p_8h.html" target="_top" xlink:title=" ">
<polygon fill="white" stroke="black" points="5739,-67.5 5739,-97.5 5846,-97.5 5846,-67.5 5739,-67.5"/>
<text text-anchor="start" x="5747" y="-85.5" font-family="Helvetica,sans-Serif" font-size="10.00">src/libs/vgeometry</text>
<text text-anchor="middle" x="5792.5" y="-74.5" font-family="Helvetica,sans-Serif" font-size="10.00">/vellipticalarc_p.h</text>
</a>
</g>
</g>
<!-- Node4&#45;&gt;Node13 -->
<g id="edge9" class="edge">
<title>Node4&#45;&gt;Node13</title>
<path fill="none" stroke="midnightblue" d="M3981.57,-144.9C4074.38,-141.85 4211.74,-137.44 4331.5,-134 4642.36,-125.08 5422.04,-137.62 5730.5,-98 5733.24,-97.65 5736.04,-97.23 5738.85,-96.75"/>
<polygon fill="midnightblue" stroke="midnightblue" points="3981.21,-141.41 3971.33,-145.24 3981.44,-148.4 3981.21,-141.41"/>
</g>
<!-- Node14 -->
<g id="node11" class="node">
<title>Node14</title>
<g id="a_node11"><a xlink:href="../../d6/dfb/vellipticalarc_8cpp.html" target="_top" xlink:title=" ">
<polygon fill="white" stroke="black" points="5533,-0.5 5533,-30.5 5640,-30.5 5640,-0.5 5533,-0.5"/>
<text text-anchor="start" x="5541" y="-18.5" font-family="Helvetica,sans-Serif" font-size="10.00">src/libs/vgeometry</text>
<text text-anchor="middle" x="5586.5" y="-7.5" font-family="Helvetica,sans-Serif" font-size="10.00">/vellipticalarc.cpp</text>
</a>
</g>
</g>
<!-- Node4&#45;&gt;Node14 -->
<g id="edge11" class="edge">
<title>Node4&#45;&gt;Node14</title>
<path fill="none" stroke="midnightblue" d="M3981.22,-145.07C4321.8,-134.18 5353.4,-100.98 5361.5,-98 5382.28,-90.35 5380.74,-77 5400.5,-67 5442.45,-45.78 5494.38,-32.64 5532.7,-25.1"/>
<polygon fill="midnightblue" stroke="midnightblue" points="3980.99,-141.57 3971.1,-145.39 3981.21,-148.57 3980.99,-141.57"/>
</g>
<!-- Node15 -->
<g id="node12" class="node">
<title>Node15</title>
<g id="a_node12"><a xlink:href="../../d1/d76/vspline__p_8h.html" target="_top" xlink:title=" ">
<polygon fill="white" stroke="red" points="5410,-67.5 5410,-97.5 5517,-97.5 5517,-67.5 5410,-67.5"/>
<text text-anchor="start" x="5418" y="-85.5" font-family="Helvetica,sans-Serif" font-size="10.00">src/libs/vgeometry</text>
<text text-anchor="middle" x="5463.5" y="-74.5" font-family="Helvetica,sans-Serif" font-size="10.00">/vspline_p.h</text>
</a>
</g>
</g>
<!-- Node4&#45;&gt;Node15 -->
<g id="edge12" class="edge">
<title>Node4&#45;&gt;Node15</title>
<path fill="none" stroke="midnightblue" d="M3981.43,-145.05C4325.95,-134 5377.95,-100.15 5395.5,-98 5400.17,-97.43 5405,-96.7 5409.83,-95.86"/>
<polygon fill="midnightblue" stroke="midnightblue" points="3981.08,-141.55 3971.2,-145.37 3981.3,-148.55 3981.08,-141.55"/>
</g>
<!-- Node17 -->
<g id="node13" class="node">
<title>Node17</title>
<g id="a_node13"><a xlink:href="../../d9/d15/vabstractpiece_8cpp.html" target="_top" xlink:title=" ">
<polygon fill="white" stroke="black" points="5535.5,-73 5535.5,-92 5721.5,-92 5721.5,-73 5535.5,-73"/>
<text text-anchor="middle" x="5628.5" y="-80" font-family="Helvetica,sans-Serif" font-size="10.00">src/libs/vlayout/vabstractpiece.cpp</text>
</a>
</g>
</g>
<!-- Node4&#45;&gt;Node17 -->
<g id="edge13" class="edge">
<title>Node4&#45;&gt;Node17</title>
<path fill="none" stroke="midnightblue" d="M3981.58,-145.03C4074.38,-142.07 4211.75,-137.7 4331.5,-134 4862.15,-117.6 4996.51,-143.07 5525.5,-98 5541.96,-96.6 5559.82,-94.34 5575.96,-92.03"/>
<polygon fill="midnightblue" stroke="midnightblue" points="3981.21,-141.54 3971.33,-145.36 3981.44,-148.54 3981.21,-141.54"/>
</g>
<!-- Node18 -->
<g id="node14" class="node">
<title>Node18</title>
<g id="a_node14"><a xlink:href="../../d8/d70/vtextmanager_8cpp.html" target="_top" xlink:title=" ">
<polygon fill="white" stroke="black" points="675.5,-73 675.5,-92 857.5,-92 857.5,-73 675.5,-73"/>
<text text-anchor="middle" x="766.5" y="-80" font-family="Helvetica,sans-Serif" font-size="10.00">src/libs/vlayout/vtextmanager.cpp</text>
</a>
</g>
</g>
<!-- Node4&#45;&gt;Node18 -->
<g id="edge14" class="edge">
<title>Node4&#45;&gt;Node18</title>
<path fill="none" stroke="midnightblue" d="M3765.67,-148.53C3298.52,-148.37 1446.89,-144.76 866.5,-98 850.15,-96.68 832.4,-94.39 816.46,-92.02"/>
<polygon fill="midnightblue" stroke="midnightblue" points="3765.78,-152.03 3775.79,-148.53 3765.79,-145.03 3765.78,-152.03"/>
</g>
<!-- Node19 -->
<g id="node15" class="node">
<title>Node19</title>
<g id="a_node15"><a xlink:href="../../dd/d70/vlayoutpiece_8cpp.html" target="_top" xlink:title=" ">
<polygon fill="white" stroke="black" points="1001,-73 1001,-92 1178,-92 1178,-73 1001,-73"/>
<text text-anchor="middle" x="1089.5" y="-80" font-family="Helvetica,sans-Serif" font-size="10.00">src/libs/vlayout/vlayoutpiece.cpp</text>
</a>
</g>
</g>
<!-- Node4&#45;&gt;Node19 -->
<g id="edge15" class="edge">
<title>Node4&#45;&gt;Node19</title>
<path fill="none" stroke="midnightblue" d="M3765.79,-148.34C3330.54,-147.41 1700.43,-141.06 1186.5,-98 1170.72,-96.68 1153.6,-94.4 1138.2,-92.04"/>
<polygon fill="midnightblue" stroke="midnightblue" points="3765.84,-151.84 3775.85,-148.36 3765.86,-144.84 3765.84,-151.84"/>
</g>
<!-- Node20 -->
<g id="node16" class="node">
<title>Node20</title>
<g id="a_node16"><a xlink:href="../../d6/d0b/def_8cpp.html" target="_top" xlink:title=" ">
<polygon fill="white" stroke="black" points="5864.5,-73 5864.5,-92 5986.5,-92 5986.5,-73 5864.5,-73"/>
<text text-anchor="middle" x="5925.5" y="-80" font-family="Helvetica,sans-Serif" font-size="10.00">src/libs/vmisc/def.cpp</text>
</a>
</g>
</g>
<!-- Node4&#45;&gt;Node20 -->
<g id="edge16" class="edge">
<title>Node4&#45;&gt;Node20</title>
<path fill="none" stroke="midnightblue" d="M3981.57,-144.83C4074.37,-141.74 4211.73,-137.31 4331.5,-134 4669.91,-124.64 5518.1,-136.02 5854.5,-98 5866.13,-96.69 5878.68,-94.41 5889.94,-92.05"/>
<polygon fill="midnightblue" stroke="midnightblue" points="3981.2,-141.34 3971.32,-145.18 3981.44,-148.34 3981.2,-141.34"/>
</g>
<!-- Node21 -->
<g id="node17" class="node">
<title>Node21</title>
<g id="a_node17"><a xlink:href="../../db/d65/dialogexporttocsv_8cpp.html" target="_top" xlink:title=" ">
<polygon fill="white" stroke="black" points="1196,-67.5 1196,-97.5 1323,-97.5 1323,-67.5 1196,-67.5"/>
<text text-anchor="start" x="1204" y="-85.5" font-family="Helvetica,sans-Serif" font-size="10.00">src/libs/vmisc/dialogs</text>
<text text-anchor="middle" x="1259.5" y="-74.5" font-family="Helvetica,sans-Serif" font-size="10.00">/dialogexporttocsv.cpp</text>
</a>
</g>
</g>
<!-- Node4&#45;&gt;Node21 -->
<g id="edge17" class="edge">
<title>Node4&#45;&gt;Node21</title>
<path fill="none" stroke="midnightblue" d="M3765.66,-148.89C3345.16,-150.01 1815.09,-150.31 1332.5,-98 1329.42,-97.67 1326.27,-97.27 1323.1,-96.82"/>
<polygon fill="midnightblue" stroke="midnightblue" points="3765.69,-152.39 3775.68,-148.86 3765.67,-145.39 3765.69,-152.39"/>
</g>
<!-- Node22 -->
<g id="node18" class="node">
<title>Node22</title>
<g id="a_node18"><a xlink:href="../../d0/df6/vabstractapplication_8cpp.html" target="_top" xlink:title=" ">
<polygon fill="white" stroke="black" points="1341.5,-73 1341.5,-92 1547.5,-92 1547.5,-73 1341.5,-73"/>
<text text-anchor="middle" x="1444.5" y="-80" font-family="Helvetica,sans-Serif" font-size="10.00">src/libs/vmisc/vabstractapplication.cpp</text>
</a>
</g>
</g>
<!-- Node4&#45;&gt;Node22 -->
<g id="edge18" class="edge">
<title>Node4&#45;&gt;Node22</title>
<path fill="none" stroke="midnightblue" d="M3765.74,-147.68C3369.6,-144.44 1994.31,-131.02 1556.5,-98 1538.42,-96.64 1518.78,-94.36 1501.07,-92.02"/>
<polygon fill="midnightblue" stroke="midnightblue" points="3765.73,-151.18 3775.76,-147.76 3765.79,-144.18 3765.73,-151.18"/>
</g>
<!-- Node23 -->
<g id="node19" class="node">
<title>Node23</title>
<g id="a_node19"><a xlink:href="../../d4/d4f/pmsystems_8cpp.html" target="_top" xlink:title=" ">
<polygon fill="white" stroke="black" points="1566,-67.5 1566,-97.5 1673,-97.5 1673,-67.5 1566,-67.5"/>
<text text-anchor="start" x="1574" y="-85.5" font-family="Helvetica,sans-Serif" font-size="10.00">src/libs/vpatterndb</text>
<text text-anchor="middle" x="1619.5" y="-74.5" font-family="Helvetica,sans-Serif" font-size="10.00">/pmsystems.cpp</text>
</a>
</g>
</g>
<!-- Node4&#45;&gt;Node23 -->
<g id="edge19" class="edge">
<title>Node4&#45;&gt;Node23</title>
<path fill="none" stroke="midnightblue" d="M3765.68,-148.96C3383.07,-150.15 2091.49,-150.1 1681.5,-98 1678.76,-97.65 1675.96,-97.23 1673.14,-96.76"/>
<polygon fill="midnightblue" stroke="midnightblue" points="3765.92,-152.46 3775.91,-148.93 3765.9,-145.46 3765.92,-152.46"/>
</g>
<!-- Node4&#45;&gt;Node24 -->
<g id="edge20" class="edge">
<title>Node4&#45;&gt;Node24</title>
<path fill="none" stroke="midnightblue" d="M3981.57,-144.77C4074.37,-141.65 4211.73,-137.19 4331.5,-134 4701.23,-124.15 5628.47,-143.72 5995.5,-98 5998.51,-97.63 6001.58,-97.17 6004.67,-96.65"/>
<polygon fill="midnightblue" stroke="midnightblue" points="3981.2,-141.28 3971.32,-145.12 3981.43,-148.28 3981.2,-141.28"/>
</g>
<!-- Node4&#45;&gt;Node25 -->
<g id="edge21" class="edge">
<title>Node4&#45;&gt;Node25</title>
<path fill="none" stroke="midnightblue" d="M3981.48,-147.37C4400.68,-142.79 5907.51,-124.62 6120.5,-98 6123.51,-97.62 6126.58,-97.17 6129.67,-96.65"/>
<polygon fill="midnightblue" stroke="midnightblue" points="3981.15,-143.87 3971.19,-147.48 3981.23,-150.87 3981.15,-143.87"/>
</g>
<!-- Node26 -->
<g id="node22" class="node">
<title>Node26</title>
<g id="a_node22"><a xlink:href="../../df/d7a/vpiece_8cpp.html" target="_top" xlink:title=" ">
<polygon fill="white" stroke="black" points="876,-67.5 876,-97.5 983,-97.5 983,-67.5 876,-67.5"/>
<text text-anchor="start" x="884" y="-85.5" font-family="Helvetica,sans-Serif" font-size="10.00">src/libs/vpatterndb</text>
<text text-anchor="middle" x="929.5" y="-74.5" font-family="Helvetica,sans-Serif" font-size="10.00">/vpiece.cpp</text>
</a>
</g>
</g>
<!-- Node4&#45;&gt;Node26 -->
<g id="edge22" class="edge">
<title>Node4&#45;&gt;Node26</title>
<path fill="none" stroke="midnightblue" d="M3765.74,-147.97C3275.8,-145.36 1270.17,-132.63 991.5,-98 988.76,-97.66 985.96,-97.25 983.14,-96.78"/>
<polygon fill="midnightblue" stroke="midnightblue" points="3765.97,-151.47 3775.99,-148.02 3766.01,-144.47 3765.97,-151.47"/>
</g>
<!-- Node27 -->
<g id="node23" class="node">
<title>Node27</title>
<g id="a_node23"><a xlink:href="../../df/dba/vpiecenode__p_8h.html" target="_top" xlink:title=" ">
<polygon fill="white" stroke="black" points="5246,-67.5 5246,-97.5 5353,-97.5 5353,-67.5 5246,-67.5"/>
<text text-anchor="start" x="5254" y="-85.5" font-family="Helvetica,sans-Serif" font-size="10.00">src/libs/vpatterndb</text>
<text text-anchor="middle" x="5299.5" y="-74.5" font-family="Helvetica,sans-Serif" font-size="10.00">/vpiecenode_p.h</text>
</a>
</g>
</g>
<!-- Node4&#45;&gt;Node27 -->
<g id="edge23" class="edge">
<title>Node4&#45;&gt;Node27</title>
<path fill="none" stroke="midnightblue" d="M3981.58,-145.05C4293.12,-135.05 5174.74,-106.18 5236.5,-98 5239.5,-97.6 5242.58,-97.13 5245.67,-96.6"/>
<polygon fill="midnightblue" stroke="midnightblue" points="3981.07,-141.57 3971.19,-145.39 3981.29,-148.56 3981.07,-141.57"/>
</g>
<!-- Node4&#45;&gt;Node29 -->
<g id="edge25" class="edge">
<title>Node4&#45;&gt;Node29</title>
<path fill="none" stroke="midnightblue" d="M3981.3,-147.46C4414.94,-143.12 6019.5,-125.34 6245.5,-98 6248.71,-97.61 6252,-97.13 6255.31,-96.59"/>
<polygon fill="midnightblue" stroke="midnightblue" points="3981.24,-143.96 3971.27,-147.56 3981.31,-150.96 3981.24,-143.96"/>
</g>
<!-- Node30 -->
<g id="node26" class="node">
<title>Node30</title>
<g id="a_node26"><a xlink:href="../../df/d40/export__format__combobox_8cpp.html" target="_top" xlink:title=" ">
<polygon fill="white" stroke="black" points="1691,-67.5 1691,-97.5 1824,-97.5 1824,-67.5 1691,-67.5"/>
<text text-anchor="start" x="1699" y="-85.5" font-family="Helvetica,sans-Serif" font-size="10.00">src/libs/vwidgets/export</text>
<text text-anchor="middle" x="1757.5" y="-74.5" font-family="Helvetica,sans-Serif" font-size="10.00">_format_combobox.cpp</text>
</a>
</g>
</g>
<!-- Node4&#45;&gt;Node30 -->
<g id="edge26" class="edge">
<title>Node4&#45;&gt;Node30</title>
<path fill="none" stroke="midnightblue" d="M3765.84,-148.16C3401.03,-146.65 2213.36,-138.66 1833.5,-98 1830.43,-97.67 1827.29,-97.28 1824.14,-96.85"/>
<polygon fill="midnightblue" stroke="midnightblue" points="3765.85,-151.66 3775.87,-148.2 3765.88,-144.66 3765.85,-151.66"/>
</g>
<!-- Node31 -->
<g id="node27" class="node">
<title>Node31</title>
<g id="a_node27"><a xlink:href="../../d3/d4f/mouse__coordinates_8cpp.html" target="_top" xlink:title=" ">
<polygon fill="white" stroke="black" points="1842.5,-67.5 1842.5,-97.5 1976.5,-97.5 1976.5,-67.5 1842.5,-67.5"/>
<text text-anchor="start" x="1850.5" y="-85.5" font-family="Helvetica,sans-Serif" font-size="10.00">src/libs/vwidgets/mouse</text>
<text text-anchor="middle" x="1909.5" y="-74.5" font-family="Helvetica,sans-Serif" font-size="10.00">_coordinates.cpp</text>
</a>
</g>
</g>
<!-- Node4&#45;&gt;Node31 -->
<g id="edge27" class="edge">
<title>Node4&#45;&gt;Node31</title>
<path fill="none" stroke="midnightblue" d="M3765.96,-147.91C3419.42,-145.66 2334.34,-135.69 1985.5,-98 1982.56,-97.68 1979.57,-97.31 1976.55,-96.9"/>
<polygon fill="midnightblue" stroke="midnightblue" points="3765.97,-151.41 3775.99,-147.98 3766.01,-144.41 3765.97,-151.41"/>
</g>
<!-- Node32 -->
<g id="node28" class="node">
<title>Node32</title>
<g id="a_node28"><a xlink:href="../../d7/d1b/pen__toolbar_8cpp.html" target="_top" xlink:title=" ">
<polygon fill="white" stroke="black" points="1995,-67.5 1995,-97.5 2114,-97.5 2114,-67.5 1995,-67.5"/>
<text text-anchor="start" x="2003" y="-85.5" font-family="Helvetica,sans-Serif" font-size="10.00">src/libs/vwidgets/pen</text>
<text text-anchor="middle" x="2054.5" y="-74.5" font-family="Helvetica,sans-Serif" font-size="10.00">_toolbar.cpp</text>
</a>
</g>
</g>
<!-- Node4&#45;&gt;Node32 -->
<g id="edge28" class="edge">
<title>Node4&#45;&gt;Node32</title>
<path fill="none" stroke="midnightblue" d="M3765.94,-147.91C3436.42,-145.7 2443.9,-135.98 2123.5,-98 2120.46,-97.64 2117.36,-97.21 2114.23,-96.73"/>
<polygon fill="midnightblue" stroke="midnightblue" points="3765.94,-151.41 3775.96,-147.97 3765.99,-144.41 3765.94,-151.41"/>
</g>
<!-- Node33 -->
<g id="node29" class="node">
<title>Node33</title>
<g id="a_node29"><a xlink:href="../../d8/d76/scene__rect_8cpp.html" target="_top" xlink:title=" ">
<polygon fill="white" stroke="black" points="2132.5,-67.5 2132.5,-97.5 2262.5,-97.5 2262.5,-67.5 2132.5,-67.5"/>
<text text-anchor="start" x="2140.5" y="-85.5" font-family="Helvetica,sans-Serif" font-size="10.00">src/libs/vwidgets/scene</text>
<text text-anchor="middle" x="2197.5" y="-74.5" font-family="Helvetica,sans-Serif" font-size="10.00">_rect.cpp</text>
</a>
</g>
</g>
<!-- Node4&#45;&gt;Node33 -->
<g id="edge29" class="edge">
<title>Node4&#45;&gt;Node33</title>
<path fill="none" stroke="midnightblue" d="M3765.54,-147.38C3454.81,-143.78 2561.99,-130.82 2271.5,-98 2268.64,-97.68 2265.72,-97.3 2262.78,-96.89"/>
<polygon fill="midnightblue" stroke="midnightblue" points="3765.86,-150.88 3775.9,-147.5 3765.94,-143.88 3765.86,-150.88"/>
</g>
<!-- Node34 -->
<g id="node30" class="node">
<title>Node34</title>
<g id="a_node30"><a xlink:href="../../dd/df6/vabstractmainwindow_8cpp.html" target="_top" xlink:title=" ">
<polygon fill="white" stroke="black" points="2281,-73 2281,-92 2510,-92 2510,-73 2281,-73"/>
<text text-anchor="middle" x="2395.5" y="-80" font-family="Helvetica,sans-Serif" font-size="10.00">src/libs/vwidgets/vabstractmainwindow.cpp</text>
</a>
</g>
</g>
<!-- Node4&#45;&gt;Node34 -->
<g id="edge30" class="edge">
<title>Node4&#45;&gt;Node34</title>
<path fill="none" stroke="midnightblue" d="M3765.97,-147.42C3536.49,-144.46 2981.9,-133.89 2518.5,-98 2499.31,-96.51 2478.51,-94.29 2459.56,-92.04"/>
<polygon fill="midnightblue" stroke="midnightblue" points="3765.95,-150.92 3775.99,-147.54 3766.04,-143.92 3765.95,-150.92"/>
</g>
<!-- Node35 -->
<g id="node31" class="node">
<title>Node35</title>
<g id="a_node31"><a xlink:href="../../de/d45/vcontrolpointspline_8cpp.html" target="_top" xlink:title=" ">
<polygon fill="white" stroke="black" points="2528,-73 2528,-92 2743,-92 2743,-73 2528,-73"/>
<text text-anchor="middle" x="2635.5" y="-80" font-family="Helvetica,sans-Serif" font-size="10.00">src/libs/vwidgets/vcontrolpointspline.cpp</text>
</a>
</g>
</g>
<!-- Node4&#45;&gt;Node35 -->
<g id="edge31" class="edge">
<title>Node4&#45;&gt;Node35</title>
<path fill="none" stroke="midnightblue" d="M3765.66,-146.45C3565.61,-142.02 3123.62,-129.31 2752.5,-98 2734.35,-96.47 2714.68,-94.25 2696.74,-92.01"/>
<polygon fill="midnightblue" stroke="midnightblue" points="3765.8,-149.95 3775.87,-146.67 3765.95,-142.95 3765.8,-149.95"/>
</g>
<!-- Node36 -->
<g id="node32" class="node">
<title>Node36</title>
<g id="a_node32"><a xlink:href="../../de/dec/vgraphicssimpletextitem_8cpp.html" target="_top" xlink:title=" ">
<polygon fill="white" stroke="black" points="2761.5,-73 2761.5,-92 3005.5,-92 3005.5,-73 2761.5,-73"/>
<text text-anchor="middle" x="2883.5" y="-80" font-family="Helvetica,sans-Serif" font-size="10.00">src/libs/vwidgets/vgraphicssimpletextitem.cpp</text>
</a>
</g>
</g>
<!-- Node4&#45;&gt;Node36 -->
<g id="edge32" class="edge">
<title>Node4&#45;&gt;Node36</title>
<path fill="none" stroke="midnightblue" d="M3765.78,-143.95C3602.93,-136.67 3284.42,-120.86 3014.5,-98 2995.01,-96.35 2973.92,-94.18 2954.48,-92.03"/>
<polygon fill="midnightblue" stroke="midnightblue" points="3765.65,-147.45 3775.8,-144.4 3765.96,-140.46 3765.65,-147.45"/>
</g>
<!-- Node37 -->
<g id="node33" class="node">
<title>Node37</title>
<g id="a_node33"><a xlink:href="../../d1/d90/vgrainlineitem_8cpp.html" target="_top" xlink:title=" ">
<polygon fill="white" stroke="black" points="3024,-73 3024,-92 3217,-92 3217,-73 3024,-73"/>
<text text-anchor="middle" x="3120.5" y="-80" font-family="Helvetica,sans-Serif" font-size="10.00">src/libs/vwidgets/vgrainlineitem.cpp</text>
</a>
</g>
</g>
<!-- Node4&#45;&gt;Node37 -->
<g id="edge33" class="edge">
<title>Node4&#45;&gt;Node37</title>
<path fill="none" stroke="midnightblue" d="M3765.65,-142.06C3636.89,-133.92 3415.15,-118.47 3225.5,-98 3209.95,-96.32 3193.15,-94.16 3177.64,-92.02"/>
<polygon fill="midnightblue" stroke="midnightblue" points="3765.7,-145.57 3775.9,-142.71 3766.14,-138.59 3765.7,-145.57"/>
</g>
<!-- Node38 -->
<g id="node34" class="node">
<title>Node38</title>
<g id="a_node34"><a xlink:href="../../d0/d5d/vscenepoint_8cpp.html" target="_top" xlink:title=" ">
<polygon fill="white" stroke="black" points="3235,-73 3235,-92 3416,-92 3416,-73 3235,-73"/>
<text text-anchor="middle" x="3325.5" y="-80" font-family="Helvetica,sans-Serif" font-size="10.00">src/libs/vwidgets/vscenepoint.cpp</text>
</a>
</g>
</g>
<!-- Node4&#45;&gt;Node38 -->
<g id="edge34" class="edge">
<title>Node4&#45;&gt;Node38</title>
<path fill="none" stroke="midnightblue" d="M3780.86,-138.92C3690.19,-129.35 3548.21,-113.81 3425.5,-98 3411.41,-96.18 3396.22,-94.07 3382.04,-92.02"/>
<polygon fill="midnightblue" stroke="midnightblue" points="3780.52,-142.41 3790.84,-139.98 3781.26,-135.45 3780.52,-142.41"/>
</g>
<!-- Node39 -->
<g id="node35" class="node">
<title>Node39</title>
<g id="a_node35"><a xlink:href="../../d2/d31/vmaingraphicsview_8cpp.html" target="_top" xlink:title=" ">
<polygon fill="white" stroke="black" points="3434.5,-73 3434.5,-92 3650.5,-92 3650.5,-73 3434.5,-73"/>
<text text-anchor="middle" x="3542.5" y="-80" font-family="Helvetica,sans-Serif" font-size="10.00">src/libs/vwidgets/vmaingraphicsview.cpp</text>
</a>
</g>
</g>
<!-- Node4&#45;&gt;Node39 -->
<g id="edge35" class="edge">
<title>Node4&#45;&gt;Node39</title>
<path fill="none" stroke="midnightblue" d="M3819.82,-137.96C3754.67,-125.16 3646.1,-103.84 3585.95,-92.03"/>
<polygon fill="midnightblue" stroke="midnightblue" points="3819.4,-141.44 3829.89,-139.94 3820.75,-134.57 3819.4,-141.44"/>
</g>
<!-- Node40 -->
<g id="node36" class="node">
<title>Node40</title>
<g id="a_node36"><a xlink:href="../../de/d22/vsimplecurve_8cpp.html" target="_top" xlink:title=" ">
<polygon fill="white" stroke="black" points="3668.5,-73 3668.5,-92 3856.5,-92 3856.5,-73 3668.5,-73"/>
<text text-anchor="middle" x="3762.5" y="-80" font-family="Helvetica,sans-Serif" font-size="10.00">src/libs/vwidgets/vsimplecurve.cpp</text>
</a>
</g>
</g>
<!-- Node4&#45;&gt;Node40 -->
<g id="edge36" class="edge">
<title>Node4&#45;&gt;Node40</title>
<path fill="none" stroke="midnightblue" d="M3849.79,-134.62C3827.8,-121.74 3795.76,-102.98 3777.23,-92.13"/>
<polygon fill="midnightblue" stroke="midnightblue" points="3848.13,-137.7 3858.53,-139.73 3851.67,-131.66 3848.13,-137.7"/>
</g>
<!-- Node41 -->
<g id="node37" class="node">
<title>Node41</title>
<g id="a_node37"><a xlink:href="../../d1/d88/vmaingraphicsscene_8cpp.html" target="_top" xlink:title=" ">
<polygon fill="white" stroke="black" points="3874.5,-73 3874.5,-92 4096.5,-92 4096.5,-73 3874.5,-73"/>
<text text-anchor="middle" x="3985.5" y="-80" font-family="Helvetica,sans-Serif" font-size="10.00">src/libs/vwidgets/vmaingraphicsscene.cpp</text>
</a>
</g>
</g>
<!-- Node4&#45;&gt;Node41 -->
<g id="edge37" class="edge">
<title>Node4&#45;&gt;Node41</title>
<path fill="none" stroke="midnightblue" d="M3897.42,-134.62C3919.61,-121.74 3951.94,-102.98 3970.63,-92.13"/>
<polygon fill="midnightblue" stroke="midnightblue" points="3895.5,-131.69 3888.6,-139.73 3899.01,-137.74 3895.5,-131.69"/>
</g>
<!-- Node42 -->
<g id="node38" class="node">
<title>Node42</title>
<g id="a_node38"><a xlink:href="../../df/d38/vsimplepoint_8cpp.html" target="_top" xlink:title=" ">
<polygon fill="white" stroke="black" points="4115,-73 4115,-92 4300,-92 4300,-73 4115,-73"/>
<text text-anchor="middle" x="4207.5" y="-80" font-family="Helvetica,sans-Serif" font-size="10.00">src/libs/vwidgets/vsimplepoint.cpp</text>
</a>
</g>
</g>
<!-- Node4&#45;&gt;Node42 -->
<g id="edge38" class="edge">
<title>Node4&#45;&gt;Node42</title>
<path fill="none" stroke="midnightblue" d="M3927.67,-137.96C3993.41,-125.16 4102.97,-103.84 4163.66,-92.03"/>
<polygon fill="midnightblue" stroke="midnightblue" points="3926.66,-134.59 3917.51,-139.94 3927.99,-141.46 3926.66,-134.59"/>
</g>
<!-- Node43 -->
<g id="node39" class="node">
<title>Node43</title>
<g id="a_node39"><a xlink:href="../../df/df5/vtextgraphicsitem_8cpp.html" target="_top" xlink:title=" ">
<polygon fill="white" stroke="black" points="4318,-73 4318,-92 4529,-92 4529,-73 4318,-73"/>
<text text-anchor="middle" x="4423.5" y="-80" font-family="Helvetica,sans-Serif" font-size="10.00">src/libs/vwidgets/vtextgraphicsitem.cpp</text>
</a>
</g>
</g>
<!-- Node4&#45;&gt;Node43 -->
<g id="edge39" class="edge">
<title>Node4&#45;&gt;Node43</title>
<path fill="none" stroke="midnightblue" d="M3959.14,-138.81C4046.89,-128.82 4187.25,-112.68 4308.5,-98 4324.18,-96.1 4341.06,-94 4356.93,-92.01"/>
<polygon fill="midnightblue" stroke="midnightblue" points="3958.51,-135.36 3948.97,-139.97 3959.3,-142.31 3958.51,-135.36"/>
</g>
<!-- Node13&#45;&gt;Node14 -->
<g id="edge10" class="edge">
<title>Node13&#45;&gt;Node14</title>
<path fill="none" stroke="midnightblue" d="M5738.45,-64.44C5705.05,-53.91 5662.72,-40.55 5631.22,-30.61"/>
<polygon fill="midnightblue" stroke="midnightblue" points="5737.46,-67.8 5748.05,-67.48 5739.57,-61.13 5737.46,-67.8"/>
</g>
<!-- Node28 -->
<g id="node24" class="node">
<title>Node28</title>
<g id="a_node24"><a xlink:href="../../d8/dba/vpiecenode_8cpp.html" target="_top" xlink:title=" ">
<polygon fill="white" stroke="black" points="2997,-0.5 2997,-30.5 3104,-30.5 3104,-0.5 2997,-0.5"/>
<text text-anchor="start" x="3005" y="-18.5" font-family="Helvetica,sans-Serif" font-size="10.00">src/libs/vpatterndb</text>
<text text-anchor="middle" x="3050.5" y="-7.5" font-family="Helvetica,sans-Serif" font-size="10.00">/vpiecenode.cpp</text>
</a>
</g>
</g>
<!-- Node27&#45;&gt;Node28 -->
<g id="edge24" class="edge">
<title>Node27&#45;&gt;Node28</title>
<path fill="none" stroke="midnightblue" d="M5235.51,-67.11C4784.21,-13.02 3395.64,-15.2 3104.41,-16.26"/>
<polygon fill="midnightblue" stroke="midnightblue" points="5235.32,-70.61 5245.67,-68.35 5236.17,-63.66 5235.32,-70.61"/>
</g>
<!-- Node44&#45;&gt;Node4 -->
<g id="edge48" class="edge">
<title>Node44&#45;&gt;Node4</title>
<path fill="none" stroke="midnightblue" d="M863.4,-214.15C1252.47,-205.92 3301.84,-162.59 3775.66,-152.57"/>
<polygon fill="midnightblue" stroke="midnightblue" points="863.1,-210.65 853.18,-214.36 863.25,-217.65 863.1,-210.65"/>
</g>
<!-- Node44&#45;&gt;Node18 -->
<g id="edge47" class="edge">
<title>Node44&#45;&gt;Node18</title>
<path fill="none" stroke="midnightblue" d="M794.19,-191.54C790.51,-175.27 785.42,-153.29 780.5,-134 776.72,-119.19 771.87,-102.07 768.99,-92.05"/>
<polygon fill="midnightblue" stroke="midnightblue" points="790.78,-192.33 796.38,-201.32 797.61,-190.8 790.78,-192.33"/>
</g>
<!-- Node44&#45;&gt;Node24 -->
<g id="edge51" class="edge">
<title>Node44&#45;&gt;Node24</title>
<path fill="none" stroke="midnightblue" d="M863.75,-214.89C1193.14,-211.7 2725.62,-195.79 3979.5,-165 4203.56,-159.5 5773.26,-126.99 5995.5,-98 5998.5,-97.61 6001.58,-97.14 6004.67,-96.61"/>
<polygon fill="midnightblue" stroke="midnightblue" points="863.41,-211.4 853.45,-214.99 863.48,-218.4 863.41,-211.4"/>
</g>
<!-- Node44&#45;&gt;Node25 -->
<g id="edge52" class="edge">
<title>Node44&#45;&gt;Node25</title>
<path fill="none" stroke="midnightblue" d="M863.28,-215.39C1228.12,-214.62 3087.62,-208.62 4605.5,-165 4942.36,-155.32 5786.58,-143.43 6120.5,-98 6123.5,-97.59 6126.57,-97.11 6129.66,-96.57"/>
<polygon fill="midnightblue" stroke="midnightblue" points="863.17,-211.89 853.17,-215.41 863.18,-218.89 863.17,-211.89"/>
</g>
<!-- Node44&#45;&gt;Node26 -->
<g id="edge54" class="edge">
<title>Node44&#45;&gt;Node26</title>
<path fill="none" stroke="midnightblue" d="M820.43,-194.25C847.22,-167.04 892.88,-120.68 915.69,-97.52"/>
<polygon fill="midnightblue" stroke="midnightblue" points="817.94,-191.79 813.41,-201.37 822.92,-196.7 817.94,-191.79"/>
</g>
<!-- Node44&#45;&gt;Node28 -->
<g id="edge55" class="edge">
<title>Node44&#45;&gt;Node28</title>
<path fill="none" stroke="midnightblue" d="M735.75,-208.45C686.09,-201.48 616.14,-188.36 558.5,-165 499.04,-140.9 407.57,-112.81 452.5,-67 498.69,-19.91 2629.96,-16.71 2996.97,-16.51"/>
<polygon fill="midnightblue" stroke="midnightblue" points="735.34,-211.93 745.72,-209.81 736.28,-204.99 735.34,-211.93"/>
</g>
<!-- Node45 -->
<g id="node41" class="node">
<title>Node45</title>
<g id="a_node41"><a xlink:href="../../d4/dd6/vmeasurements_8h.html" target="_top" xlink:title=" ">
<polygon fill="white" stroke="black" points="587,-140 587,-159 772,-159 772,-140 587,-140"/>
<text text-anchor="middle" x="679.5" y="-147" font-family="Helvetica,sans-Serif" font-size="10.00">src/libs/vformat/vmeasurements.h</text>
</a>
</g>
</g>
<!-- Node44&#45;&gt;Node45 -->
<g id="edge42" class="edge">
<title>Node44&#45;&gt;Node45</title>
<path fill="none" stroke="midnightblue" d="M764.37,-196.47C741.46,-184.06 712.68,-168.47 695.21,-159.01"/>
<polygon fill="midnightblue" stroke="midnightblue" points="763,-199.71 773.46,-201.4 766.34,-193.56 763,-199.71"/>
</g>
<!-- Node46 -->
<g id="node42" class="node">
<title>Node46</title>
<g id="a_node42"><a xlink:href="../../de/db3/vmeasurements_8cpp.html" target="_top" xlink:title=" ">
<polygon fill="white" stroke="black" points="461.5,-73 461.5,-92 657.5,-92 657.5,-73 461.5,-73"/>
<text text-anchor="middle" x="559.5" y="-80" font-family="Helvetica,sans-Serif" font-size="10.00">src/libs/vformat/vmeasurements.cpp</text>
</a>
</g>
</g>
<!-- Node44&#45;&gt;Node46 -->
<g id="edge44" class="edge">
<title>Node44&#45;&gt;Node46</title>
<path fill="none" stroke="midnightblue" d="M735.72,-208.6C678.22,-201.07 599.41,-187.05 577.5,-165 557.69,-145.06 557.57,-108.54 558.67,-92.02"/>
<polygon fill="midnightblue" stroke="midnightblue" points="735.47,-212.1 745.84,-209.89 736.36,-205.15 735.47,-212.1"/>
</g>
<!-- Node47 -->
<g id="node43" class="node">
<title>Node47</title>
<g id="a_node43"><a xlink:href="../../d6/de0/vlayoutpiece_8h.html" target="_top" xlink:title=" ">
<polygon fill="white" stroke="red" points="959.5,-140 959.5,-159 1125.5,-159 1125.5,-140 959.5,-140"/>
<text text-anchor="middle" x="1042.5" y="-147" font-family="Helvetica,sans-Serif" font-size="10.00">src/libs/vlayout/vlayoutpiece.h</text>
</a>
</g>
</g>
<!-- Node44&#45;&gt;Node47 -->
<g id="edge45" class="edge">
<title>Node44&#45;&gt;Node47</title>
<path fill="none" stroke="midnightblue" d="M861.82,-198.83C909.38,-186.11 972.94,-169.11 1010.62,-159.03"/>
<polygon fill="midnightblue" stroke="midnightblue" points="860.68,-195.51 851.93,-201.48 862.49,-202.27 860.68,-195.51"/>
</g>
<!-- Node56 -->
<g id="node44" class="node">
<title>Node56</title>
<g id="a_node44"><a xlink:href="../../d1/de1/vincrement__p_8h.html" target="_top" xlink:title=" ">
<polygon fill="white" stroke="red" points="0,-134.5 0,-164.5 143,-164.5 143,-134.5 0,-134.5"/>
<text text-anchor="start" x="8" y="-152.5" font-family="Helvetica,sans-Serif" font-size="10.00">src/libs/vpatterndb</text>
<text text-anchor="middle" x="71.5" y="-141.5" font-family="Helvetica,sans-Serif" font-size="10.00">/variables/vincrement_p.h</text>
</a>
</g>
</g>
<!-- Node44&#45;&gt;Node56 -->
<g id="edge49" class="edge">
<title>Node44&#45;&gt;Node56</title>
<path fill="none" stroke="midnightblue" d="M735.47,-212.61C619.07,-206.89 365.12,-192.26 152.5,-165 149.52,-164.62 146.49,-164.2 143.43,-163.76"/>
<polygon fill="midnightblue" stroke="midnightblue" points="735.48,-216.12 745.63,-213.11 735.82,-209.12 735.48,-216.12"/>
</g>
<!-- Node58 -->
<g id="node45" class="node">
<title>Node58</title>
<g id="a_node45"><a xlink:href="../../d6/dc1/vmeasurement__p_8h.html" target="_top" xlink:title=" ">
<polygon fill="white" stroke="red" points="161.5,-134.5 161.5,-164.5 323.5,-164.5 323.5,-134.5 161.5,-134.5"/>
<text text-anchor="start" x="169.5" y="-152.5" font-family="Helvetica,sans-Serif" font-size="10.00">src/libs/vpatterndb</text>
<text text-anchor="middle" x="242.5" y="-141.5" font-family="Helvetica,sans-Serif" font-size="10.00">/variables/vmeasurement_p.h</text>
</a>
</g>
</g>
<!-- Node44&#45;&gt;Node58 -->
<g id="edge50" class="edge">
<title>Node44&#45;&gt;Node58</title>
<path fill="none" stroke="midnightblue" d="M735.76,-209.67C645.74,-201.19 476.28,-184.34 332.5,-165 329.68,-164.62 326.81,-164.22 323.91,-163.81"/>
<polygon fill="midnightblue" stroke="midnightblue" points="735.53,-213.16 745.81,-210.61 736.18,-206.19 735.53,-213.16"/>
</g>
<!-- Node60 -->
<g id="node46" class="node">
<title>Node60</title>
<g id="a_node46"><a xlink:href="../../d6/d91/vnodedetail_8cpp.html" target="_top" xlink:title=" ">
<polygon fill="white" stroke="black" points="342,-134.5 342,-164.5 449,-164.5 449,-134.5 342,-134.5"/>
<text text-anchor="start" x="350" y="-152.5" font-family="Helvetica,sans-Serif" font-size="10.00">src/libs/vpatterndb</text>
<text text-anchor="middle" x="395.5" y="-141.5" font-family="Helvetica,sans-Serif" font-size="10.00">/vnodedetail.cpp</text>
</a>
</g>
</g>
<!-- Node44&#45;&gt;Node60 -->
<g id="edge53" class="edge">
<title>Node44&#45;&gt;Node60</title>
<path fill="none" stroke="midnightblue" d="M735.71,-207.09C667.98,-197.89 557.9,-182.14 463.5,-165 458.87,-164.16 454.07,-163.24 449.26,-162.28"/>
<polygon fill="midnightblue" stroke="midnightblue" points="735.42,-210.58 745.8,-208.46 736.36,-203.65 735.42,-210.58"/>
</g>
<!-- Node45&#45;&gt;Node46 -->
<g id="edge43" class="edge">
<title>Node45&#45;&gt;Node46</title>
<path fill="none" stroke="midnightblue" d="M654.5,-134.96C630.71,-122.07 595.63,-103.07 575.43,-92.13"/>
<polygon fill="midnightblue" stroke="midnightblue" points="652.86,-138.05 663.32,-139.73 656.19,-131.89 652.86,-138.05"/>
</g>
<!-- Node47&#45;&gt;Node19 -->
<g id="edge46" class="edge">
<title>Node47&#45;&gt;Node19</title>
<path fill="none" stroke="midnightblue" d="M1054.86,-131.4C1063.99,-118.77 1076.05,-102.1 1083.26,-92.13"/>
<polygon fill="midnightblue" stroke="midnightblue" points="1051.86,-129.58 1048.84,-139.73 1057.53,-133.68 1051.86,-129.58"/>
</g>
</g>
</svg>
