<?xml version="1.0" encoding="UTF-8" standalone="no"?>
<!DOCTYPE svg PUBLIC "-//W3C//DTD SVG 1.1//EN"
 "http://www.w3.org/Graphics/SVG/1.1/DTD/svg11.dtd">
<!-- Generated by graphviz version 2.43.0 (0)
 -->
<!-- Title: src/libs/vmisc/vcommonsettings.h Pages: 1 -->
<svg width="6156pt" height="285pt"
 viewBox="0.00 0.00 6156.00 285.00" xmlns="http://www.w3.org/2000/svg" xmlns:xlink="http://www.w3.org/1999/xlink">
<g id="graph0" class="graph" transform="scale(1 1) rotate(0) translate(4 281)">
<title>src/libs/vmisc/vcommonsettings.h</title>
<polygon fill="white" stroke="transparent" points="-4,4 -4,-281 6152,-281 6152,4 -4,4"/>
<!-- Node1 -->
<g id="node1" class="node">
<title>Node1</title>
<g id="a_node1"><a xlink:title=" ">
<polygon fill="#bfbfbf" stroke="black" points="3001,-257.5 3001,-276.5 3184,-276.5 3184,-257.5 3001,-257.5"/>
<text text-anchor="middle" x="3092.5" y="-264.5" font-family="Helvetica,sans-Serif" font-size="10.00">src/libs/vmisc/vcommonsettings.h</text>
</a>
</g>
</g>
<!-- Node2 -->
<g id="node2" class="node">
<title>Node2</title>
<g id="a_node2"><a xlink:href="../../d4/d90/fvupdater_8cpp.html" target="_top" xlink:title=" ">
<polygon fill="white" stroke="black" points="0,-73 0,-92 153,-92 153,-73 0,-73"/>
<text text-anchor="middle" x="76.5" y="-80" font-family="Helvetica,sans-Serif" font-size="10.00">src/libs/fervor/fvupdater.cpp</text>
</a>
</g>
</g>
<!-- Node1&#45;&gt;Node2 -->
<g id="edge1" class="edge">
<title>Node1&#45;&gt;Node2</title>
<path fill="none" stroke="midnightblue" d="M2990.48,-264.55C2666.34,-259.32 1631.05,-237.64 777.5,-165 503.1,-141.65 434.25,-136.06 161.5,-98 149.19,-96.28 135.93,-94.15 123.63,-92.06"/>
<polygon fill="midnightblue" stroke="midnightblue" points="2990.73,-268.06 3000.79,-264.72 2990.84,-261.06 2990.73,-268.06"/>
</g>
<!-- Node3 -->
<g id="node3" class="node">
<title>Node3</title>
<g id="a_node3"><a xlink:href="../../dd/d70/vlayoutpiece_8cpp.html" target="_top" xlink:title=" ">
<polygon fill="white" stroke="black" points="171,-73 171,-92 348,-92 348,-73 171,-73"/>
<text text-anchor="middle" x="259.5" y="-80" font-family="Helvetica,sans-Serif" font-size="10.00">src/libs/vlayout/vlayoutpiece.cpp</text>
</a>
</g>
</g>
<!-- Node1&#45;&gt;Node3 -->
<g id="edge2" class="edge">
<title>Node1&#45;&gt;Node3</title>
<path fill="none" stroke="midnightblue" d="M2990.59,-262.94C2630.03,-251.45 1381.36,-205.86 356.5,-98 341.6,-96.43 325.48,-94.23 310.74,-92.01"/>
<polygon fill="midnightblue" stroke="midnightblue" points="2990.63,-266.45 3000.74,-263.27 2990.86,-259.45 2990.63,-266.45"/>
</g>
<!-- Node4 -->
<g id="node4" class="node">
<title>Node4</title>
<g id="a_node4"><a xlink:href="../../df/da4/vseamlymesettings_8h.html" target="_top" xlink:title=" ">
<polygon fill="white" stroke="black" points="3462.5,-201.5 3462.5,-220.5 3654.5,-220.5 3654.5,-201.5 3462.5,-201.5"/>
<text text-anchor="middle" x="3558.5" y="-208.5" font-family="Helvetica,sans-Serif" font-size="10.00">src/libs/vmisc/vseamlymesettings.h</text>
</a>
</g>
</g>
<!-- Node1&#45;&gt;Node4 -->
<g id="edge3" class="edge">
<title>Node1&#45;&gt;Node4</title>
<path fill="none" stroke="midnightblue" d="M3176.02,-256.32C3263.92,-246.14 3400.95,-230.26 3484.92,-220.53"/>
<polygon fill="midnightblue" stroke="midnightblue" points="3175.61,-252.85 3166.08,-257.47 3176.42,-259.8 3175.61,-252.85"/>
</g>
<!-- Node6 -->
<g id="node6" class="node">
<title>Node6</title>
<g id="a_node6"><a xlink:href="../../d4/d11/vcommonsettings_8cpp.html" target="_top" xlink:title=" ">
<polygon fill="white" stroke="black" points="3672.5,-201.5 3672.5,-220.5 3866.5,-220.5 3866.5,-201.5 3672.5,-201.5"/>
<text text-anchor="middle" x="3769.5" y="-208.5" font-family="Helvetica,sans-Serif" font-size="10.00">src/libs/vmisc/vcommonsettings.cpp</text>
</a>
</g>
</g>
<!-- Node1&#45;&gt;Node6 -->
<g id="edge5" class="edge">
<title>Node1&#45;&gt;Node6</title>
<path fill="none" stroke="midnightblue" d="M3194.62,-258.14C3308.87,-249.3 3499.47,-234.43 3663.5,-221 3666.45,-220.76 3669.44,-220.51 3672.46,-220.26"/>
<polygon fill="midnightblue" stroke="midnightblue" points="3194.19,-254.66 3184.49,-258.92 3194.73,-261.64 3194.19,-254.66"/>
</g>
<!-- Node7 -->
<g id="node7" class="node">
<title>Node7</title>
<g id="a_node7"><a xlink:href="../../d5/d74/vabstractapplication_8h.html" target="_top" xlink:title=" ">
<polygon fill="white" stroke="black" points="2902,-140 2902,-159 3097,-159 3097,-140 2902,-140"/>
<text text-anchor="middle" x="2999.5" y="-147" font-family="Helvetica,sans-Serif" font-size="10.00">src/libs/vmisc/vabstractapplication.h</text>
</a>
</g>
</g>
<!-- Node1&#45;&gt;Node7 -->
<g id="edge6" class="edge">
<title>Node1&#45;&gt;Node7</title>
<path fill="none" stroke="midnightblue" d="M3079.21,-249.5C3059.21,-224.66 3022.06,-178.52 3006.57,-159.28"/>
<polygon fill="midnightblue" stroke="midnightblue" points="3076.51,-251.72 3085.51,-257.32 3081.96,-247.33 3076.51,-251.72"/>
</g>
<!-- Node26 -->
<g id="node26" class="node">
<title>Node26</title>
<g id="a_node26"><a xlink:href="../../db/d11/vformula_8cpp.html" target="_top" xlink:title=" ">
<polygon fill="white" stroke="black" points="366,-67.5 366,-97.5 473,-97.5 473,-67.5 366,-67.5"/>
<text text-anchor="start" x="374" y="-85.5" font-family="Helvetica,sans-Serif" font-size="10.00">src/libs/vpatterndb</text>
<text text-anchor="middle" x="419.5" y="-74.5" font-family="Helvetica,sans-Serif" font-size="10.00">/vformula.cpp</text>
</a>
</g>
</g>
<!-- Node1&#45;&gt;Node26 -->
<g id="edge55" class="edge">
<title>Node1&#45;&gt;Node26</title>
<path fill="none" stroke="midnightblue" d="M2998.56,-256.47C2755.07,-232.14 2083.41,-167.26 1522.5,-134 1060.37,-106.6 940.41,-159 481.5,-98 478.76,-97.64 475.96,-97.2 473.15,-96.72"/>
<polygon fill="midnightblue" stroke="midnightblue" points="2998.48,-259.98 3008.78,-257.5 2999.18,-253.02 2998.48,-259.98"/>
</g>
<!-- Node28 -->
<g id="node28" class="node">
<title>Node28</title>
<g id="a_node28"><a xlink:href="../../df/dba/vpiecenode__p_8h.html" target="_top" xlink:title=" ">
<polygon fill="white" stroke="black" points="491,-67.5 491,-97.5 598,-97.5 598,-67.5 491,-67.5"/>
<text text-anchor="start" x="499" y="-85.5" font-family="Helvetica,sans-Serif" font-size="10.00">src/libs/vpatterndb</text>
<text text-anchor="middle" x="544.5" y="-74.5" font-family="Helvetica,sans-Serif" font-size="10.00">/vpiecenode_p.h</text>
</a>
</g>
</g>
<!-- Node1&#45;&gt;Node28 -->
<g id="edge56" class="edge">
<title>Node1&#45;&gt;Node28</title>
<path fill="none" stroke="midnightblue" d="M3037.42,-255.57C2896.59,-229.42 2511.66,-161.23 2187.5,-134 1487.12,-75.17 1303.75,-186.5 606.5,-98 603.76,-97.65 600.96,-97.23 598.14,-96.76"/>
<polygon fill="midnightblue" stroke="midnightblue" points="3037.05,-259.06 3047.52,-257.45 3038.33,-252.18 3037.05,-259.06"/>
</g>
<!-- Node31 -->
<g id="node31" class="node">
<title>Node31</title>
<g id="a_node31"><a xlink:href="../../df/d40/export__format__combobox_8cpp.html" target="_top" xlink:title=" ">
<polygon fill="white" stroke="black" points="616,-67.5 616,-97.5 749,-97.5 749,-67.5 616,-67.5"/>
<text text-anchor="start" x="624" y="-85.5" font-family="Helvetica,sans-Serif" font-size="10.00">src/libs/vwidgets/export</text>
<text text-anchor="middle" x="682.5" y="-74.5" font-family="Helvetica,sans-Serif" font-size="10.00">_format_combobox.cpp</text>
</a>
</g>
</g>
<!-- Node1&#45;&gt;Node31 -->
<g id="edge57" class="edge">
<title>Node1&#45;&gt;Node31</title>
<path fill="none" stroke="midnightblue" d="M3056.03,-254.43C2968.11,-227.19 2737.09,-159.37 2538.5,-134 2145.83,-83.84 1151.15,-139.72 757.5,-98 754.73,-97.71 751.91,-97.36 749.07,-96.98"/>
<polygon fill="midnightblue" stroke="midnightblue" points="3055.2,-257.84 3065.78,-257.47 3057.28,-251.16 3055.2,-257.84"/>
</g>
<!-- Node33 -->
<g id="node33" class="node">
<title>Node33</title>
<g id="a_node33"><a xlink:href="../../d2/d28/page__format__combobox_8cpp.html" target="_top" xlink:title=" ">
<polygon fill="white" stroke="black" points="767,-67.5 767,-97.5 898,-97.5 898,-67.5 767,-67.5"/>
<text text-anchor="start" x="775" y="-85.5" font-family="Helvetica,sans-Serif" font-size="10.00">src/libs/vwidgets/page</text>
<text text-anchor="middle" x="832.5" y="-74.5" font-family="Helvetica,sans-Serif" font-size="10.00">_format_combobox.cpp</text>
</a>
</g>
</g>
<!-- Node1&#45;&gt;Node33 -->
<g id="edge58" class="edge">
<title>Node1&#45;&gt;Node33</title>
<path fill="none" stroke="midnightblue" d="M3066.34,-252.91C3008.25,-224.64 2863.36,-158.44 2733.5,-134 2334.43,-58.89 1310.27,-141.21 906.5,-98 903.77,-97.71 900.98,-97.37 898.18,-96.98"/>
<polygon fill="midnightblue" stroke="midnightblue" points="3065.01,-256.16 3075.53,-257.42 3068.09,-249.88 3065.01,-256.16"/>
</g>
<!-- Node38 -->
<g id="node38" class="node">
<title>Node38</title>
<g id="a_node38"><a xlink:href="../../d1/d90/vgrainlineitem_8cpp.html" target="_top" xlink:title=" ">
<polygon fill="white" stroke="black" points="4941,-73 4941,-92 5134,-92 5134,-73 4941,-73"/>
<text text-anchor="middle" x="5037.5" y="-80" font-family="Helvetica,sans-Serif" font-size="10.00">src/libs/vwidgets/vgrainlineitem.cpp</text>
</a>
</g>
</g>
<!-- Node1&#45;&gt;Node38 -->
<g id="edge59" class="edge">
<title>Node1&#45;&gt;Node38</title>
<path fill="none" stroke="midnightblue" d="M3094.21,-247.28C3098.06,-217.45 3110.29,-159.85 3148.5,-134 3189.53,-106.24 4882.11,-101.86 4931.5,-98 4948.72,-96.65 4967.42,-94.37 4984.25,-92.01"/>
<polygon fill="midnightblue" stroke="midnightblue" points="3090.73,-246.91 3093.11,-257.23 3097.69,-247.68 3090.73,-246.91"/>
</g>
<!-- Node40 -->
<g id="node40" class="node">
<title>Node40</title>
<g id="a_node40"><a xlink:href="../../d1/d88/vmaingraphicsscene_8cpp.html" target="_top" xlink:title=" ">
<polygon fill="white" stroke="black" points="5152.5,-73 5152.5,-92 5374.5,-92 5374.5,-73 5152.5,-73"/>
<text text-anchor="middle" x="5263.5" y="-80" font-family="Helvetica,sans-Serif" font-size="10.00">src/libs/vwidgets/vmaingraphicsscene.cpp</text>
</a>
</g>
</g>
<!-- Node1&#45;&gt;Node40 -->
<g id="edge60" class="edge">
<title>Node1&#45;&gt;Node40</title>
<path fill="none" stroke="midnightblue" d="M3102.4,-248.27C3121.24,-215.28 3162.48,-146.66 3186.5,-134 3282.69,-83.29 5035.02,-105.53 5143.5,-98 5162.97,-96.65 5184.13,-94.36 5203.18,-92.01"/>
<polygon fill="midnightblue" stroke="midnightblue" points="3099.19,-246.83 3097.32,-257.26 3105.29,-250.28 3099.19,-246.83"/>
</g>
<!-- Node41 -->
<g id="node41" class="node">
<title>Node41</title>
<g id="a_node41"><a xlink:href="../../d2/d31/vmaingraphicsview_8cpp.html" target="_top" xlink:title=" ">
<polygon fill="white" stroke="black" points="5392.5,-73 5392.5,-92 5608.5,-92 5608.5,-73 5392.5,-73"/>
<text text-anchor="middle" x="5500.5" y="-80" font-family="Helvetica,sans-Serif" font-size="10.00">src/libs/vwidgets/vmaingraphicsview.cpp</text>
</a>
</g>
</g>
<!-- Node1&#45;&gt;Node41 -->
<g id="edge61" class="edge">
<title>Node1&#45;&gt;Node41</title>
<path fill="none" stroke="midnightblue" d="M3108.26,-250.17C3138.94,-220.59 3210.23,-157.77 3284.5,-134 3395.58,-98.45 5267.16,-106.18 5383.5,-98 5402.49,-96.66 5423.12,-94.39 5441.7,-92.03"/>
<polygon fill="midnightblue" stroke="midnightblue" points="3105.72,-247.75 3101.03,-257.25 3110.62,-252.75 3105.72,-247.75"/>
</g>
<!-- Node45 -->
<g id="node45" class="node">
<title>Node45</title>
<g id="a_node45"><a xlink:href="../../df/df5/vtextgraphicsitem_8cpp.html" target="_top" xlink:title=" ">
<polygon fill="white" stroke="black" points="5627,-73 5627,-92 5838,-92 5838,-73 5627,-73"/>
<text text-anchor="middle" x="5732.5" y="-80" font-family="Helvetica,sans-Serif" font-size="10.00">src/libs/vwidgets/vtextgraphicsitem.cpp</text>
</a>
</g>
</g>
<!-- Node1&#45;&gt;Node45 -->
<g id="edge62" class="edge">
<title>Node1&#45;&gt;Node45</title>
<path fill="none" stroke="midnightblue" d="M3118.61,-252.79C3152.97,-234.9 3214.61,-201.04 3262.5,-165 3278.58,-152.9 3276.85,-141.55 3295.5,-134 3415.08,-85.57 5488.8,-107.08 5617.5,-98 5636.27,-96.68 5656.67,-94.38 5675,-92.01"/>
<polygon fill="midnightblue" stroke="midnightblue" points="3116.96,-249.7 3109.68,-257.4 3120.17,-255.92 3116.96,-249.7"/>
</g>
<!-- Node46 -->
<g id="node46" class="node">
<title>Node46</title>
<g id="a_node46"><a xlink:href="../../dd/db2/vsettings_8h.html" target="_top" xlink:title=" ">
<polygon fill="white" stroke="black" points="3304.5,-201.5 3304.5,-220.5 3444.5,-220.5 3444.5,-201.5 3304.5,-201.5"/>
<text text-anchor="middle" x="3374.5" y="-208.5" font-family="Helvetica,sans-Serif" font-size="10.00">src/libs/vmisc/vsettings.h</text>
</a>
</g>
</g>
<!-- Node1&#45;&gt;Node46 -->
<g id="edge48" class="edge">
<title>Node1&#45;&gt;Node46</title>
<path fill="none" stroke="midnightblue" d="M3147.14,-255.54C3200.44,-245.33 3280.5,-230 3330.03,-220.52"/>
<polygon fill="midnightblue" stroke="midnightblue" points="3146.35,-252.13 3137.18,-257.44 3147.66,-259 3146.35,-252.13"/>
</g>
<!-- Node5 -->
<g id="node5" class="node">
<title>Node5</title>
<g id="a_node5"><a xlink:href="../../df/dba/vseamlymesettings_8cpp.html" target="_top" xlink:title=" ">
<polygon fill="white" stroke="black" points="4865,-140 4865,-159 5068,-159 5068,-140 4865,-140"/>
<text text-anchor="middle" x="4966.5" y="-147" font-family="Helvetica,sans-Serif" font-size="10.00">src/libs/vmisc/vseamlymesettings.cpp</text>
</a>
</g>
</g>
<!-- Node4&#45;&gt;Node5 -->
<g id="edge4" class="edge">
<title>Node4&#45;&gt;Node5</title>
<path fill="none" stroke="midnightblue" d="M3664.82,-200.96C4194.8,-170.81 4331.12,-207.45 4856.5,-165 4874.07,-163.58 4893.13,-161.32 4910.37,-159.01"/>
<polygon fill="midnightblue" stroke="midnightblue" points="3664.4,-197.48 3654.62,-201.55 3664.8,-204.47 3664.4,-197.48"/>
</g>
<!-- Node7&#45;&gt;Node2 -->
<g id="edge7" class="edge">
<title>Node7&#45;&gt;Node2</title>
<path fill="none" stroke="midnightblue" d="M2891.78,-148.76C2441.26,-149.52 706.25,-149.02 161.5,-98 147.64,-96.7 132.63,-94.43 119.14,-92.07"/>
<polygon fill="midnightblue" stroke="midnightblue" points="2891.87,-152.26 2901.86,-148.74 2891.86,-145.26 2891.87,-152.26"/>
</g>
<!-- Node7&#45;&gt;Node3 -->
<g id="edge21" class="edge">
<title>Node7&#45;&gt;Node3</title>
<path fill="none" stroke="midnightblue" d="M2891.65,-147.26C2427.42,-141.83 611.44,-119.4 356.5,-98 340.72,-96.68 323.6,-94.4 308.2,-92.04"/>
<polygon fill="midnightblue" stroke="midnightblue" points="2891.67,-150.76 2901.71,-147.38 2891.75,-143.77 2891.67,-150.76"/>
</g>
<!-- Node8 -->
<g id="node8" class="node">
<title>Node8</title>
<g id="a_node8"><a xlink:href="../../d9/dc8/dxiface_8cpp.html" target="_top" xlink:title=" ">
<polygon fill="white" stroke="black" points="3209,-73 3209,-92 3344,-92 3344,-73 3209,-73"/>
<text text-anchor="middle" x="3276.5" y="-80" font-family="Helvetica,sans-Serif" font-size="10.00">src/libs/vdxf/dxiface.cpp</text>
</a>
</g>
</g>
<!-- Node7&#45;&gt;Node8 -->
<g id="edge8" class="edge">
<title>Node7&#45;&gt;Node8</title>
<path fill="none" stroke="midnightblue" d="M3045.76,-137.64C3100.34,-124.84 3189.95,-103.81 3239.92,-92.08"/>
<polygon fill="midnightblue" stroke="midnightblue" points="3044.93,-134.24 3036,-139.94 3046.53,-141.06 3044.93,-134.24"/>
</g>
<!-- Node9 -->
<g id="node9" class="node">
<title>Node9</title>
<g id="a_node9"><a xlink:href="../../da/d75/vabstractarc__p_8h.html" target="_top" xlink:title=" ">
<polygon fill="white" stroke="black" points="3362,-67.5 3362,-97.5 3469,-97.5 3469,-67.5 3362,-67.5"/>
<text text-anchor="start" x="3370" y="-85.5" font-family="Helvetica,sans-Serif" font-size="10.00">src/libs/vgeometry</text>
<text text-anchor="middle" x="3415.5" y="-74.5" font-family="Helvetica,sans-Serif" font-size="10.00">/vabstractarc_p.h</text>
</a>
</g>
</g>
<!-- Node7&#45;&gt;Node9 -->
<g id="edge9" class="edge">
<title>Node7&#45;&gt;Node9</title>
<path fill="none" stroke="midnightblue" d="M3074.18,-138.63C3161.73,-126.93 3301.49,-107.77 3353.5,-98 3356.22,-97.49 3358.99,-96.94 3361.79,-96.37"/>
<polygon fill="midnightblue" stroke="midnightblue" points="3073.48,-135.2 3064.04,-139.99 3074.41,-142.13 3073.48,-135.2"/>
</g>
<!-- Node11 -->
<g id="node11" class="node">
<title>Node11</title>
<g id="a_node11"><a xlink:href="../../dc/da3/varc__p_8h.html" target="_top" xlink:title=" ">
<polygon fill="white" stroke="black" points="3487,-67.5 3487,-97.5 3594,-97.5 3594,-67.5 3487,-67.5"/>
<text text-anchor="start" x="3495" y="-85.5" font-family="Helvetica,sans-Serif" font-size="10.00">src/libs/vgeometry</text>
<text text-anchor="middle" x="3540.5" y="-74.5" font-family="Helvetica,sans-Serif" font-size="10.00">/varc_p.h</text>
</a>
</g>
</g>
<!-- Node7&#45;&gt;Node11 -->
<g id="edge11" class="edge">
<title>Node7&#45;&gt;Node11</title>
<path fill="none" stroke="midnightblue" d="M3072.12,-138.67C3084.9,-137.04 3098.08,-135.42 3110.5,-134 3273.78,-115.35 3316.36,-124.77 3478.5,-98 3481.23,-97.55 3484.01,-97.05 3486.82,-96.51"/>
<polygon fill="midnightblue" stroke="midnightblue" points="3071.45,-135.23 3061.98,-139.98 3072.34,-142.17 3071.45,-135.23"/>
</g>
<!-- Node13 -->
<g id="node13" class="node">
<title>Node13</title>
<g id="a_node13"><a xlink:href="../../d5/d8e/vcubicbezier__p_8h.html" target="_top" xlink:title=" ">
<polygon fill="white" stroke="black" points="3612,-67.5 3612,-97.5 3719,-97.5 3719,-67.5 3612,-67.5"/>
<text text-anchor="start" x="3620" y="-85.5" font-family="Helvetica,sans-Serif" font-size="10.00">src/libs/vgeometry</text>
<text text-anchor="middle" x="3665.5" y="-74.5" font-family="Helvetica,sans-Serif" font-size="10.00">/vcubicbezier_p.h</text>
</a>
</g>
</g>
<!-- Node7&#45;&gt;Node13 -->
<g id="edge13" class="edge">
<title>Node7&#45;&gt;Node13</title>
<path fill="none" stroke="midnightblue" d="M3070.05,-138.67C3083.47,-136.97 3097.4,-135.33 3110.5,-134 3329.07,-111.76 3386.32,-131.12 3603.5,-98 3606.23,-97.58 3609.02,-97.11 3611.83,-96.59"/>
<polygon fill="midnightblue" stroke="midnightblue" points="3069.39,-135.23 3059.92,-139.97 3070.28,-142.17 3069.39,-135.23"/>
</g>
<!-- Node15 -->
<g id="node15" class="node">
<title>Node15</title>
<g id="a_node15"><a xlink:href="../../df/dde/vellipticalarc__p_8h.html" target="_top" xlink:title=" ">
<polygon fill="white" stroke="black" points="3737,-67.5 3737,-97.5 3844,-97.5 3844,-67.5 3737,-67.5"/>
<text text-anchor="start" x="3745" y="-85.5" font-family="Helvetica,sans-Serif" font-size="10.00">src/libs/vgeometry</text>
<text text-anchor="middle" x="3790.5" y="-74.5" font-family="Helvetica,sans-Serif" font-size="10.00">/vellipticalarc_p.h</text>
</a>
</g>
</g>
<!-- Node7&#45;&gt;Node15 -->
<g id="edge15" class="edge">
<title>Node7&#45;&gt;Node15</title>
<path fill="none" stroke="midnightblue" d="M3068.45,-138.71C3082.35,-136.96 3096.88,-135.28 3110.5,-134 3384.42,-108.16 3456.21,-137.47 3728.5,-98 3731.23,-97.6 3734.03,-97.15 3736.84,-96.64"/>
<polygon fill="midnightblue" stroke="midnightblue" points="3067.93,-135.25 3058.46,-140 3068.82,-142.19 3067.93,-135.25"/>
</g>
<!-- Node16 -->
<g id="node16" class="node">
<title>Node16</title>
<g id="a_node16"><a xlink:href="../../d6/dfb/vellipticalarc_8cpp.html" target="_top" xlink:title=" ">
<polygon fill="white" stroke="black" points="3757,-0.5 3757,-30.5 3864,-30.5 3864,-0.5 3757,-0.5"/>
<text text-anchor="start" x="3765" y="-18.5" font-family="Helvetica,sans-Serif" font-size="10.00">src/libs/vgeometry</text>
<text text-anchor="middle" x="3810.5" y="-7.5" font-family="Helvetica,sans-Serif" font-size="10.00">/vellipticalarc.cpp</text>
</a>
</g>
</g>
<!-- Node7&#45;&gt;Node16 -->
<g id="edge17" class="edge">
<title>Node7&#45;&gt;Node16</title>
<path fill="none" stroke="midnightblue" d="M3067.96,-138.67C3082.01,-136.9 3096.71,-135.23 3110.5,-134 3151.66,-130.32 3824.99,-127.92 3853.5,-98 3872.48,-78.08 3846.54,-48.14 3827.48,-30.63"/>
<polygon fill="midnightblue" stroke="midnightblue" points="3067.34,-135.22 3057.87,-139.97 3068.24,-142.16 3067.34,-135.22"/>
</g>
<!-- Node17 -->
<g id="node17" class="node">
<title>Node17</title>
<g id="a_node17"><a xlink:href="../../d1/d76/vspline__p_8h.html" target="_top" xlink:title=" ">
<polygon fill="white" stroke="black" points="3901,-67.5 3901,-97.5 4008,-97.5 4008,-67.5 3901,-67.5"/>
<text text-anchor="start" x="3909" y="-85.5" font-family="Helvetica,sans-Serif" font-size="10.00">src/libs/vgeometry</text>
<text text-anchor="middle" x="3954.5" y="-74.5" font-family="Helvetica,sans-Serif" font-size="10.00">/vspline_p.h</text>
</a>
</g>
</g>
<!-- Node7&#45;&gt;Node17 -->
<g id="edge18" class="edge">
<title>Node7&#45;&gt;Node17</title>
<path fill="none" stroke="midnightblue" d="M3067.72,-138.68C3081.84,-136.9 3096.64,-135.23 3110.5,-134 3454.42,-103.61 3544.07,-142.15 3886.5,-98 3891.17,-97.4 3895.99,-96.64 3900.82,-95.8"/>
<polygon fill="midnightblue" stroke="midnightblue" points="3067.05,-135.23 3057.58,-139.98 3067.95,-142.18 3067.05,-135.23"/>
</g>
<!-- Node19 -->
<g id="node19" class="node">
<title>Node19</title>
<g id="a_node19"><a xlink:href="../../d9/d15/vabstractpiece_8cpp.html" target="_top" xlink:title=" ">
<polygon fill="white" stroke="black" points="4026.5,-73 4026.5,-92 4212.5,-92 4212.5,-73 4026.5,-73"/>
<text text-anchor="middle" x="4119.5" y="-80" font-family="Helvetica,sans-Serif" font-size="10.00">src/libs/vlayout/vabstractpiece.cpp</text>
</a>
</g>
</g>
<!-- Node7&#45;&gt;Node19 -->
<g id="edge20" class="edge">
<title>Node7&#45;&gt;Node19</title>
<path fill="none" stroke="midnightblue" d="M3067.24,-138.66C3081.5,-136.87 3096.48,-135.19 3110.5,-134 3512.48,-99.84 3615.72,-134.44 4017.5,-98 4033.62,-96.54 4051.09,-94.3 4066.94,-92.01"/>
<polygon fill="midnightblue" stroke="midnightblue" points="3066.47,-135.23 3057,-139.98 3067.37,-142.18 3066.47,-135.23"/>
</g>
<!-- Node20 -->
<g id="node20" class="node">
<title>Node20</title>
<g id="a_node20"><a xlink:href="../../d8/d70/vtextmanager_8cpp.html" target="_top" xlink:title=" ">
<polygon fill="white" stroke="black" points="4230.5,-73 4230.5,-92 4412.5,-92 4412.5,-73 4230.5,-73"/>
<text text-anchor="middle" x="4321.5" y="-80" font-family="Helvetica,sans-Serif" font-size="10.00">src/libs/vlayout/vtextmanager.cpp</text>
</a>
</g>
</g>
<!-- Node7&#45;&gt;Node20 -->
<g id="edge22" class="edge">
<title>Node7&#45;&gt;Node20</title>
<path fill="none" stroke="midnightblue" d="M3066.76,-138.64C3081.16,-136.83 3096.32,-135.15 3110.5,-134 3602.91,-93.96 3729.38,-141.51 4221.5,-98 4237.49,-96.59 4254.82,-94.33 4270.5,-92.02"/>
<polygon fill="midnightblue" stroke="midnightblue" points="3065.89,-135.23 3056.43,-139.98 3066.79,-142.17 3065.89,-135.23"/>
</g>
<!-- Node21 -->
<g id="node21" class="node">
<title>Node21</title>
<g id="a_node21"><a xlink:href="../../db/d65/dialogexporttocsv_8cpp.html" target="_top" xlink:title=" ">
<polygon fill="white" stroke="black" points="4431,-67.5 4431,-97.5 4558,-97.5 4558,-67.5 4431,-67.5"/>
<text text-anchor="start" x="4439" y="-85.5" font-family="Helvetica,sans-Serif" font-size="10.00">src/libs/vmisc/dialogs</text>
<text text-anchor="middle" x="4494.5" y="-74.5" font-family="Helvetica,sans-Serif" font-size="10.00">/dialogexporttocsv.cpp</text>
</a>
</g>
</g>
<!-- Node7&#45;&gt;Node21 -->
<g id="edge23" class="edge">
<title>Node7&#45;&gt;Node21</title>
<path fill="none" stroke="midnightblue" d="M3066.1,-138.67C3080.7,-136.83 3096.1,-135.14 3110.5,-134 3691.58,-88.19 3842.25,-163.01 4421.5,-98 4424.58,-97.65 4427.73,-97.25 4430.9,-96.79"/>
<polygon fill="midnightblue" stroke="midnightblue" points="3065.6,-135.21 3056.14,-139.96 3066.5,-142.15 3065.6,-135.21"/>
</g>
<!-- Node22 -->
<g id="node22" class="node">
<title>Node22</title>
<g id="a_node22"><a xlink:href="../../d6/d0b/def_8cpp.html" target="_top" xlink:title=" ">
<polygon fill="white" stroke="black" points="4576.5,-73 4576.5,-92 4698.5,-92 4698.5,-73 4576.5,-73"/>
<text text-anchor="middle" x="4637.5" y="-80" font-family="Helvetica,sans-Serif" font-size="10.00">src/libs/vmisc/def.cpp</text>
</a>
</g>
</g>
<!-- Node7&#45;&gt;Node22 -->
<g id="edge24" class="edge">
<title>Node7&#45;&gt;Node22</title>
<path fill="none" stroke="midnightblue" d="M3065.85,-138.67C3080.53,-136.82 3096.02,-135.12 3110.5,-134 3756.32,-83.98 3923.99,-171.99 4567.5,-98 4578.97,-96.68 4591.34,-94.41 4602.45,-92.05"/>
<polygon fill="midnightblue" stroke="midnightblue" points="3065.32,-135.21 3055.85,-139.97 3066.22,-142.16 3065.32,-135.21"/>
</g>
<!-- Node23 -->
<g id="node23" class="node">
<title>Node23</title>
<g id="a_node23"><a xlink:href="../../d0/df6/vabstractapplication_8cpp.html" target="_top" xlink:title=" ">
<polygon fill="white" stroke="black" points="4716.5,-73 4716.5,-92 4922.5,-92 4922.5,-73 4716.5,-73"/>
<text text-anchor="middle" x="4819.5" y="-80" font-family="Helvetica,sans-Serif" font-size="10.00">src/libs/vmisc/vabstractapplication.cpp</text>
</a>
</g>
</g>
<!-- Node7&#45;&gt;Node23 -->
<g id="edge25" class="edge">
<title>Node7&#45;&gt;Node23</title>
<path fill="none" stroke="midnightblue" d="M3065.61,-138.68C3080.36,-136.82 3095.94,-135.11 3110.5,-134 3818.4,-79.94 3999.57,-151.65 4707.5,-98 4725.58,-96.63 4745.22,-94.36 4762.93,-92.01"/>
<polygon fill="midnightblue" stroke="midnightblue" points="3065.03,-135.23 3055.56,-139.99 3065.93,-142.17 3065.03,-135.23"/>
</g>
<!-- Node24 -->
<g id="node24" class="node">
<title>Node24</title>
<g id="a_node24"><a xlink:href="../../d4/d4f/pmsystems_8cpp.html" target="_top" xlink:title=" ">
<polygon fill="white" stroke="black" points="916,-67.5 916,-97.5 1023,-97.5 1023,-67.5 916,-67.5"/>
<text text-anchor="start" x="924" y="-85.5" font-family="Helvetica,sans-Serif" font-size="10.00">src/libs/vpatterndb</text>
<text text-anchor="middle" x="969.5" y="-74.5" font-family="Helvetica,sans-Serif" font-size="10.00">/pmsystems.cpp</text>
</a>
</g>
</g>
<!-- Node7&#45;&gt;Node24 -->
<g id="edge26" class="edge">
<title>Node7&#45;&gt;Node24</title>
<path fill="none" stroke="midnightblue" d="M2913.18,-139.02C2892.35,-137.04 2870.15,-135.2 2849.5,-134 2446.1,-110.54 1432.44,-148.29 1031.5,-98 1028.76,-97.66 1025.96,-97.24 1023.14,-96.77"/>
<polygon fill="midnightblue" stroke="midnightblue" points="2912.99,-142.51 2923.28,-139.99 2913.66,-135.55 2912.99,-142.51"/>
</g>
<!-- Node25 -->
<g id="node25" class="node">
<title>Node25</title>
<g id="a_node25"><a xlink:href="../../d6/d46/vcontainer_8cpp.html" target="_top" xlink:title=" ">
<polygon fill="white" stroke="black" points="1041,-67.5 1041,-97.5 1148,-97.5 1148,-67.5 1041,-67.5"/>
<text text-anchor="start" x="1049" y="-85.5" font-family="Helvetica,sans-Serif" font-size="10.00">src/libs/vpatterndb</text>
<text text-anchor="middle" x="1094.5" y="-74.5" font-family="Helvetica,sans-Serif" font-size="10.00">/vcontainer.cpp</text>
</a>
</g>
</g>
<!-- Node7&#45;&gt;Node25 -->
<g id="edge27" class="edge">
<title>Node7&#45;&gt;Node25</title>
<path fill="none" stroke="midnightblue" d="M2912.84,-139.01C2892.11,-137.04 2870.04,-135.21 2849.5,-134 2473.84,-111.88 1529.85,-145.1 1156.5,-98 1153.76,-97.65 1150.96,-97.24 1148.14,-96.77"/>
<polygon fill="midnightblue" stroke="midnightblue" points="2912.6,-142.5 2922.89,-139.98 2913.27,-135.53 2912.6,-142.5"/>
</g>
<!-- Node7&#45;&gt;Node26 -->
<g id="edge28" class="edge">
<title>Node7&#45;&gt;Node26</title>
<path fill="none" stroke="midnightblue" d="M2891.36,-146.48C2413.3,-137.55 511.84,-101.81 481.5,-98 478.76,-97.66 475.96,-97.24 473.14,-96.77"/>
<polygon fill="midnightblue" stroke="midnightblue" points="2891.65,-149.99 2901.71,-146.68 2891.78,-142.99 2891.65,-149.99"/>
</g>
<!-- Node27 -->
<g id="node27" class="node">
<title>Node27</title>
<g id="a_node27"><a xlink:href="../../df/d7a/vpiece_8cpp.html" target="_top" xlink:title=" ">
<polygon fill="white" stroke="black" points="1166,-67.5 1166,-97.5 1273,-97.5 1273,-67.5 1166,-67.5"/>
<text text-anchor="start" x="1174" y="-85.5" font-family="Helvetica,sans-Serif" font-size="10.00">src/libs/vpatterndb</text>
<text text-anchor="middle" x="1219.5" y="-74.5" font-family="Helvetica,sans-Serif" font-size="10.00">/vpiece.cpp</text>
</a>
</g>
</g>
<!-- Node7&#45;&gt;Node27 -->
<g id="edge29" class="edge">
<title>Node7&#45;&gt;Node27</title>
<path fill="none" stroke="midnightblue" d="M2912.5,-139C2891.87,-137.05 2869.92,-135.22 2849.5,-134 2501.81,-113.23 1628.11,-141.29 1282.5,-98 1279.49,-97.62 1276.42,-97.16 1273.33,-96.65"/>
<polygon fill="midnightblue" stroke="midnightblue" points="2912.22,-142.49 2922.5,-139.96 2912.89,-135.52 2912.22,-142.49"/>
</g>
<!-- Node7&#45;&gt;Node28 -->
<g id="edge30" class="edge">
<title>Node7&#45;&gt;Node28</title>
<path fill="none" stroke="midnightblue" d="M2891.91,-144.73C2798.48,-141.54 2659.57,-137.03 2538.5,-134 2109.23,-123.25 1032.6,-151.19 606.5,-98 603.76,-97.66 600.96,-97.24 598.14,-96.78"/>
<polygon fill="midnightblue" stroke="midnightblue" points="2891.82,-148.22 2901.93,-145.07 2892.06,-141.23 2891.82,-148.22"/>
</g>
<!-- Node30 -->
<g id="node30" class="node">
<title>Node30</title>
<g id="a_node30"><a xlink:href="../../de/d3e/vtranslatevars_8cpp.html" target="_top" xlink:title=" ">
<polygon fill="white" stroke="black" points="1291.5,-67.5 1291.5,-97.5 1401.5,-97.5 1401.5,-67.5 1291.5,-67.5"/>
<text text-anchor="start" x="1299.5" y="-85.5" font-family="Helvetica,sans-Serif" font-size="10.00">src/libs/vpatterndb</text>
<text text-anchor="middle" x="1346.5" y="-74.5" font-family="Helvetica,sans-Serif" font-size="10.00">/vtranslatevars.cpp</text>
</a>
</g>
</g>
<!-- Node7&#45;&gt;Node30 -->
<g id="edge32" class="edge">
<title>Node7&#45;&gt;Node30</title>
<path fill="none" stroke="midnightblue" d="M2912.49,-139.03C2891.87,-137.08 2869.92,-135.24 2849.5,-134 2210.92,-95.2 2045.35,-177.07 1410.5,-98 1407.56,-97.63 1404.56,-97.19 1401.54,-96.7"/>
<polygon fill="midnightblue" stroke="midnightblue" points="2912.21,-142.52 2922.5,-139.99 2912.89,-135.55 2912.21,-142.52"/>
</g>
<!-- Node7&#45;&gt;Node31 -->
<g id="edge33" class="edge">
<title>Node7&#45;&gt;Node31</title>
<path fill="none" stroke="midnightblue" d="M2891.77,-141.74C2843.4,-138.93 2785.6,-135.89 2733.5,-134 2294.61,-118.04 1194.28,-143.85 757.5,-98 754.73,-97.71 751.91,-97.37 749.07,-96.99"/>
<polygon fill="midnightblue" stroke="midnightblue" points="2891.76,-145.24 2901.94,-142.33 2892.17,-138.26 2891.76,-145.24"/>
</g>
<!-- Node32 -->
<g id="node32" class="node">
<title>Node32</title>
<g id="a_node32"><a xlink:href="../../d3/d4f/mouse__coordinates_8cpp.html" target="_top" xlink:title=" ">
<polygon fill="white" stroke="black" points="1419.5,-67.5 1419.5,-97.5 1553.5,-97.5 1553.5,-67.5 1419.5,-67.5"/>
<text text-anchor="start" x="1427.5" y="-85.5" font-family="Helvetica,sans-Serif" font-size="10.00">src/libs/vwidgets/mouse</text>
<text text-anchor="middle" x="1486.5" y="-74.5" font-family="Helvetica,sans-Serif" font-size="10.00">_coordinates.cpp</text>
</a>
</g>
</g>
<!-- Node7&#45;&gt;Node32 -->
<g id="edge34" class="edge">
<title>Node7&#45;&gt;Node32</title>
<path fill="none" stroke="midnightblue" d="M2912.15,-139.04C2891.62,-137.1 2869.81,-135.26 2849.5,-134 2278.38,-98.45 2131.37,-159.82 1562.5,-98 1559.56,-97.68 1556.57,-97.31 1553.55,-96.9"/>
<polygon fill="midnightblue" stroke="midnightblue" points="2911.82,-142.52 2922.11,-140 2912.5,-135.56 2911.82,-142.52"/>
</g>
<!-- Node7&#45;&gt;Node33 -->
<g id="edge35" class="edge">
<title>Node7&#45;&gt;Node33</title>
<path fill="none" stroke="midnightblue" d="M2913.18,-139C2892.35,-137.02 2870.15,-135.19 2849.5,-134 2418.36,-109.21 1335.93,-143.69 906.5,-98 903.77,-97.71 900.98,-97.37 898.18,-96.99"/>
<polygon fill="midnightblue" stroke="midnightblue" points="2912.99,-142.49 2923.28,-139.97 2913.66,-135.53 2912.99,-142.49"/>
</g>
<!-- Node34 -->
<g id="node34" class="node">
<title>Node34</title>
<g id="a_node34"><a xlink:href="../../d7/d1b/pen__toolbar_8cpp.html" target="_top" xlink:title=" ">
<polygon fill="white" stroke="black" points="1572,-67.5 1572,-97.5 1691,-97.5 1691,-67.5 1572,-67.5"/>
<text text-anchor="start" x="1580" y="-85.5" font-family="Helvetica,sans-Serif" font-size="10.00">src/libs/vwidgets/pen</text>
<text text-anchor="middle" x="1631.5" y="-74.5" font-family="Helvetica,sans-Serif" font-size="10.00">_toolbar.cpp</text>
</a>
</g>
</g>
<!-- Node7&#45;&gt;Node34 -->
<g id="edge36" class="edge">
<title>Node7&#45;&gt;Node34</title>
<path fill="none" stroke="midnightblue" d="M2911.19,-139C2890.94,-137.09 2869.49,-135.28 2849.5,-134 2339.62,-101.4 2207.79,-158.77 1700.5,-98 1697.46,-97.64 1694.36,-97.2 1691.23,-96.72"/>
<polygon fill="midnightblue" stroke="midnightblue" points="2911.05,-142.5 2921.34,-139.97 2911.72,-135.53 2911.05,-142.5"/>
</g>
<!-- Node35 -->
<g id="node35" class="node">
<title>Node35</title>
<g id="a_node35"><a xlink:href="../../d8/d76/scene__rect_8cpp.html" target="_top" xlink:title=" ">
<polygon fill="white" stroke="black" points="1709.5,-67.5 1709.5,-97.5 1839.5,-97.5 1839.5,-67.5 1709.5,-67.5"/>
<text text-anchor="start" x="1717.5" y="-85.5" font-family="Helvetica,sans-Serif" font-size="10.00">src/libs/vwidgets/scene</text>
<text text-anchor="middle" x="1774.5" y="-74.5" font-family="Helvetica,sans-Serif" font-size="10.00">_rect.cpp</text>
</a>
</g>
</g>
<!-- Node7&#45;&gt;Node35 -->
<g id="edge37" class="edge">
<title>Node7&#45;&gt;Node35</title>
<path fill="none" stroke="midnightblue" d="M2910.51,-139C2890.46,-137.11 2869.26,-135.31 2849.5,-134 2405.3,-104.57 2290.75,-148.96 1848.5,-98 1845.64,-97.67 1842.72,-97.29 1839.78,-96.87"/>
<polygon fill="midnightblue" stroke="midnightblue" points="2910.27,-142.5 2920.56,-139.97 2910.94,-135.53 2910.27,-142.5"/>
</g>
<!-- Node36 -->
<g id="node36" class="node">
<title>Node36</title>
<g id="a_node36"><a xlink:href="../../de/d45/vcontrolpointspline_8cpp.html" target="_top" xlink:title=" ">
<polygon fill="white" stroke="black" points="1858,-73 1858,-92 2073,-92 2073,-73 1858,-73"/>
<text text-anchor="middle" x="1965.5" y="-80" font-family="Helvetica,sans-Serif" font-size="10.00">src/libs/vwidgets/vcontrolpointspline.cpp</text>
</a>
</g>
</g>
<!-- Node7&#45;&gt;Node36 -->
<g id="edge38" class="edge">
<title>Node7&#45;&gt;Node36</title>
<path fill="none" stroke="midnightblue" d="M2908.87,-139.01C2889.3,-137.16 2868.72,-135.38 2849.5,-134 2508.67,-109.55 2421.96,-127.21 2081.5,-98 2063.6,-96.46 2044.22,-94.26 2026.51,-92.03"/>
<polygon fill="midnightblue" stroke="midnightblue" points="2908.7,-142.51 2918.99,-139.98 2909.37,-135.54 2908.7,-142.51"/>
</g>
<!-- Node37 -->
<g id="node37" class="node">
<title>Node37</title>
<g id="a_node37"><a xlink:href="../../dd/df6/vabstractmainwindow_8cpp.html" target="_top" xlink:title=" ">
<polygon fill="white" stroke="black" points="2091,-73 2091,-92 2320,-92 2320,-73 2091,-73"/>
<text text-anchor="middle" x="2205.5" y="-80" font-family="Helvetica,sans-Serif" font-size="10.00">src/libs/vwidgets/vabstractmainwindow.cpp</text>
</a>
</g>
</g>
<!-- Node7&#45;&gt;Node37 -->
<g id="edge39" class="edge">
<title>Node7&#45;&gt;Node37</title>
<path fill="none" stroke="midnightblue" d="M2905.27,-138.99C2886.78,-137.24 2867.54,-135.5 2849.5,-134 2618.63,-114.85 2560.17,-119.46 2329.5,-98 2311.26,-96.3 2291.56,-94.15 2273.34,-92.02"/>
<polygon fill="midnightblue" stroke="midnightblue" points="2905.15,-142.5 2915.44,-139.97 2905.82,-135.53 2905.15,-142.5"/>
</g>
<!-- Node7&#45;&gt;Node38 -->
<g id="edge40" class="edge">
<title>Node7&#45;&gt;Node38</title>
<path fill="none" stroke="midnightblue" d="M3065.37,-138.68C3080.19,-136.81 3095.86,-135.1 3110.5,-134 3917.73,-73.48 4124.46,-160.96 4931.5,-98 4948.72,-96.66 4967.42,-94.38 4984.25,-92.02"/>
<polygon fill="midnightblue" stroke="midnightblue" points="3064.74,-135.23 3055.28,-139.99 3065.64,-142.17 3064.74,-135.23"/>
</g>
<!-- Node39 -->
<g id="node39" class="node">
<title>Node39</title>
<g id="a_node39"><a xlink:href="../../de/dec/vgraphicssimpletextitem_8cpp.html" target="_top" xlink:title=" ">
<polygon fill="white" stroke="black" points="2338.5,-73 2338.5,-92 2582.5,-92 2582.5,-73 2338.5,-73"/>
<text text-anchor="middle" x="2460.5" y="-80" font-family="Helvetica,sans-Serif" font-size="10.00">src/libs/vwidgets/vgraphicssimpletextitem.cpp</text>
</a>
</g>
</g>
<!-- Node7&#45;&gt;Node39 -->
<g id="edge41" class="edge">
<title>Node7&#45;&gt;Node39</title>
<path fill="none" stroke="midnightblue" d="M2918.83,-138.77C2813.67,-126.09 2631.4,-104.11 2531.33,-92.04"/>
<polygon fill="midnightblue" stroke="midnightblue" points="2918.41,-142.25 2928.76,-139.97 2919.25,-135.3 2918.41,-142.25"/>
</g>
<!-- Node7&#45;&gt;Node40 -->
<g id="edge42" class="edge">
<title>Node7&#45;&gt;Node40</title>
<path fill="none" stroke="midnightblue" d="M3085.24,-138.99C3105.93,-137.02 3127.99,-135.18 3148.5,-134 4033.84,-83.01 4258.81,-159.27 5143.5,-98 5162.97,-96.65 5184.13,-94.37 5203.18,-92.01"/>
<polygon fill="midnightblue" stroke="midnightblue" points="3084.82,-135.51 3075.21,-139.96 3085.5,-142.48 3084.82,-135.51"/>
</g>
<!-- Node7&#45;&gt;Node41 -->
<g id="edge43" class="edge">
<title>Node7&#45;&gt;Node41</title>
<path fill="none" stroke="midnightblue" d="M3105.12,-139.18C3131.66,-137.15 3160.11,-135.24 3186.5,-134 4162,-88.23 4409.31,-166.15 5383.5,-98 5402.49,-96.67 5423.12,-94.39 5441.7,-92.03"/>
<polygon fill="midnightblue" stroke="midnightblue" points="3104.74,-135.7 3095.04,-139.96 3105.28,-142.68 3104.74,-135.7"/>
</g>
<!-- Node42 -->
<g id="node42" class="node">
<title>Node42</title>
<g id="a_node42"><a xlink:href="../../de/d22/vsimplecurve_8cpp.html" target="_top" xlink:title=" ">
<polygon fill="white" stroke="black" points="2600.5,-73 2600.5,-92 2788.5,-92 2788.5,-73 2600.5,-73"/>
<text text-anchor="middle" x="2694.5" y="-80" font-family="Helvetica,sans-Serif" font-size="10.00">src/libs/vwidgets/vsimplecurve.cpp</text>
</a>
</g>
</g>
<!-- Node7&#45;&gt;Node42 -->
<g id="edge44" class="edge">
<title>Node7&#45;&gt;Node42</title>
<path fill="none" stroke="midnightblue" d="M2949.31,-137.8C2889.29,-125.01 2790.02,-103.86 2734.78,-92.08"/>
<polygon fill="midnightblue" stroke="midnightblue" points="2948.8,-141.27 2959.31,-139.94 2950.26,-134.43 2948.8,-141.27"/>
</g>
<!-- Node43 -->
<g id="node43" class="node">
<title>Node43</title>
<g id="a_node43"><a xlink:href="../../df/d38/vsimplepoint_8cpp.html" target="_top" xlink:title=" ">
<polygon fill="white" stroke="black" points="2807,-73 2807,-92 2992,-92 2992,-73 2807,-73"/>
<text text-anchor="middle" x="2899.5" y="-80" font-family="Helvetica,sans-Serif" font-size="10.00">src/libs/vwidgets/vsimplepoint.cpp</text>
</a>
</g>
</g>
<!-- Node7&#45;&gt;Node43 -->
<g id="edge45" class="edge">
<title>Node7&#45;&gt;Node43</title>
<path fill="none" stroke="midnightblue" d="M2977.61,-134.27C2957.81,-121.4 2929.31,-102.88 2912.77,-92.13"/>
<polygon fill="midnightblue" stroke="midnightblue" points="2975.72,-137.22 2986.01,-139.73 2979.54,-131.35 2975.72,-137.22"/>
</g>
<!-- Node44 -->
<g id="node44" class="node">
<title>Node44</title>
<g id="a_node44"><a xlink:href="../../d0/d5d/vscenepoint_8cpp.html" target="_top" xlink:title=" ">
<polygon fill="white" stroke="black" points="3010,-73 3010,-92 3191,-92 3191,-73 3010,-73"/>
<text text-anchor="middle" x="3100.5" y="-80" font-family="Helvetica,sans-Serif" font-size="10.00">src/libs/vwidgets/vscenepoint.cpp</text>
</a>
</g>
</g>
<!-- Node7&#45;&gt;Node44 -->
<g id="edge46" class="edge">
<title>Node7&#45;&gt;Node44</title>
<path fill="none" stroke="midnightblue" d="M3021.61,-134.27C3041.61,-121.4 3070.39,-102.88 3087.09,-92.13"/>
<polygon fill="midnightblue" stroke="midnightblue" points="3019.64,-131.38 3013.12,-139.73 3023.42,-137.27 3019.64,-131.38"/>
</g>
<!-- Node7&#45;&gt;Node45 -->
<g id="edge47" class="edge">
<title>Node7&#45;&gt;Node45</title>
<path fill="none" stroke="midnightblue" d="M3107.2,-141.59C3154.78,-138.79 3211.41,-135.8 3262.5,-134 4308.64,-97.18 4573.3,-171.59 5617.5,-98 5636.27,-96.68 5656.67,-94.39 5675,-92.01"/>
<polygon fill="midnightblue" stroke="midnightblue" points="3106.96,-138.1 3097.19,-142.19 3107.38,-145.09 3106.96,-138.1"/>
</g>
<!-- Node10 -->
<g id="node10" class="node">
<title>Node10</title>
<g id="a_node10"><a xlink:href="../../d4/da1/vabstractarc_8cpp.html" target="_top" xlink:title=" ">
<polygon fill="white" stroke="black" points="3362,-0.5 3362,-30.5 3469,-30.5 3469,-0.5 3362,-0.5"/>
<text text-anchor="start" x="3370" y="-18.5" font-family="Helvetica,sans-Serif" font-size="10.00">src/libs/vgeometry</text>
<text text-anchor="middle" x="3415.5" y="-7.5" font-family="Helvetica,sans-Serif" font-size="10.00">/vabstractarc.cpp</text>
</a>
</g>
</g>
<!-- Node9&#45;&gt;Node10 -->
<g id="edge10" class="edge">
<title>Node9&#45;&gt;Node10</title>
<path fill="none" stroke="midnightblue" d="M3415.5,-57.11C3415.5,-48.15 3415.5,-38.32 3415.5,-30.58"/>
<polygon fill="midnightblue" stroke="midnightblue" points="3412,-57.4 3415.5,-67.4 3419,-57.4 3412,-57.4"/>
</g>
<!-- Node12 -->
<g id="node12" class="node">
<title>Node12</title>
<g id="a_node12"><a xlink:href="../../d5/ded/varc_8cpp.html" target="_top" xlink:title=" ">
<polygon fill="white" stroke="black" points="3487,-0.5 3487,-30.5 3594,-30.5 3594,-0.5 3487,-0.5"/>
<text text-anchor="start" x="3495" y="-18.5" font-family="Helvetica,sans-Serif" font-size="10.00">src/libs/vgeometry</text>
<text text-anchor="middle" x="3540.5" y="-7.5" font-family="Helvetica,sans-Serif" font-size="10.00">/varc.cpp</text>
</a>
</g>
</g>
<!-- Node11&#45;&gt;Node12 -->
<g id="edge12" class="edge">
<title>Node11&#45;&gt;Node12</title>
<path fill="none" stroke="midnightblue" d="M3540.5,-57.11C3540.5,-48.15 3540.5,-38.32 3540.5,-30.58"/>
<polygon fill="midnightblue" stroke="midnightblue" points="3537,-57.4 3540.5,-67.4 3544,-57.4 3537,-57.4"/>
</g>
<!-- Node14 -->
<g id="node14" class="node">
<title>Node14</title>
<g id="a_node14"><a xlink:href="../../d2/d26/vcubicbezier_8cpp.html" target="_top" xlink:title=" ">
<polygon fill="white" stroke="black" points="3612,-0.5 3612,-30.5 3719,-30.5 3719,-0.5 3612,-0.5"/>
<text text-anchor="start" x="3620" y="-18.5" font-family="Helvetica,sans-Serif" font-size="10.00">src/libs/vgeometry</text>
<text text-anchor="middle" x="3665.5" y="-7.5" font-family="Helvetica,sans-Serif" font-size="10.00">/vcubicbezier.cpp</text>
</a>
</g>
</g>
<!-- Node13&#45;&gt;Node14 -->
<g id="edge14" class="edge">
<title>Node13&#45;&gt;Node14</title>
<path fill="none" stroke="midnightblue" d="M3665.5,-57.11C3665.5,-48.15 3665.5,-38.32 3665.5,-30.58"/>
<polygon fill="midnightblue" stroke="midnightblue" points="3662,-57.4 3665.5,-67.4 3669,-57.4 3662,-57.4"/>
</g>
<!-- Node15&#45;&gt;Node16 -->
<g id="edge16" class="edge">
<title>Node15&#45;&gt;Node16</title>
<path fill="none" stroke="midnightblue" d="M3797.82,-57.7C3800.63,-48.59 3803.73,-38.49 3806.17,-30.58"/>
<polygon fill="midnightblue" stroke="midnightblue" points="3794.44,-56.81 3794.84,-67.4 3801.13,-58.87 3794.44,-56.81"/>
</g>
<!-- Node18 -->
<g id="node18" class="node">
<title>Node18</title>
<g id="a_node18"><a xlink:href="../../d5/dd2/vspline_8cpp.html" target="_top" xlink:title=" ">
<polygon fill="white" stroke="black" points="3901,-0.5 3901,-30.5 4008,-30.5 4008,-0.5 3901,-0.5"/>
<text text-anchor="start" x="3909" y="-18.5" font-family="Helvetica,sans-Serif" font-size="10.00">src/libs/vgeometry</text>
<text text-anchor="middle" x="3954.5" y="-7.5" font-family="Helvetica,sans-Serif" font-size="10.00">/vspline.cpp</text>
</a>
</g>
</g>
<!-- Node17&#45;&gt;Node18 -->
<g id="edge19" class="edge">
<title>Node17&#45;&gt;Node18</title>
<path fill="none" stroke="midnightblue" d="M3954.5,-57.11C3954.5,-48.15 3954.5,-38.32 3954.5,-30.58"/>
<polygon fill="midnightblue" stroke="midnightblue" points="3951,-57.4 3954.5,-67.4 3958,-57.4 3951,-57.4"/>
</g>
<!-- Node29 -->
<g id="node29" class="node">
<title>Node29</title>
<g id="a_node29"><a xlink:href="../../d8/dba/vpiecenode_8cpp.html" target="_top" xlink:title=" ">
<polygon fill="white" stroke="black" points="491,-0.5 491,-30.5 598,-30.5 598,-0.5 491,-0.5"/>
<text text-anchor="start" x="499" y="-18.5" font-family="Helvetica,sans-Serif" font-size="10.00">src/libs/vpatterndb</text>
<text text-anchor="middle" x="544.5" y="-7.5" font-family="Helvetica,sans-Serif" font-size="10.00">/vpiecenode.cpp</text>
</a>
</g>
</g>
<!-- Node28&#45;&gt;Node29 -->
<g id="edge31" class="edge">
<title>Node28&#45;&gt;Node29</title>
<path fill="none" stroke="midnightblue" d="M544.5,-57.11C544.5,-48.15 544.5,-38.32 544.5,-30.58"/>
<polygon fill="midnightblue" stroke="midnightblue" points="541,-57.4 544.5,-67.4 548,-57.4 541,-57.4"/>
</g>
<!-- Node46&#45;&gt;Node7 -->
<g id="edge52" class="edge">
<title>Node46&#45;&gt;Node7</title>
<path fill="none" stroke="midnightblue" d="M3310.85,-199.9C3238.35,-188.4 3121.17,-169.8 3053.13,-159.01"/>
<polygon fill="midnightblue" stroke="midnightblue" points="3310.35,-203.36 3320.77,-201.48 3311.44,-196.45 3310.35,-203.36"/>
</g>
<!-- Node46&#45;&gt;Node41 -->
<g id="edge54" class="edge">
<title>Node46&#45;&gt;Node41</title>
<path fill="none" stroke="midnightblue" d="M3335.29,-197.46C3320.08,-190.46 3304.24,-180.03 3295.5,-165 3288.58,-153.09 3285.84,-143.83 3295.5,-134 3336.16,-92.63 5325.63,-102.07 5383.5,-98 5402.49,-96.66 5423.12,-94.38 5441.7,-92.02"/>
<polygon fill="midnightblue" stroke="midnightblue" points="3334.04,-200.73 3344.62,-201.39 3336.76,-194.28 3334.04,-200.73"/>
</g>
<!-- Node47 -->
<g id="node47" class="node">
<title>Node47</title>
<g id="a_node47"><a xlink:href="../../d9/d02/vapplication_8h.html" target="_top" xlink:title=" ">
<polygon fill="white" stroke="red" points="4720,-134.5 4720,-164.5 4847,-164.5 4847,-134.5 4720,-134.5"/>
<text text-anchor="start" x="4728" y="-152.5" font-family="Helvetica,sans-Serif" font-size="10.00">src/app/seamly2d/core</text>
<text text-anchor="middle" x="4783.5" y="-141.5" font-family="Helvetica,sans-Serif" font-size="10.00">/vapplication.h</text>
</a>
</g>
</g>
<!-- Node46&#45;&gt;Node47 -->
<g id="edge49" class="edge">
<title>Node46&#45;&gt;Node47</title>
<path fill="none" stroke="midnightblue" d="M3454.85,-200.96C3947.68,-163.99 4529.24,-153.71 4719.73,-151.21"/>
<polygon fill="midnightblue" stroke="midnightblue" points="3454.39,-197.48 3444.69,-201.73 3454.92,-204.46 3454.39,-197.48"/>
</g>
<!-- Node70 -->
<g id="node50" class="node">
<title>Node70</title>
<g id="a_node50"><a xlink:href="../../db/d28/vsettings_8cpp.html" target="_top" xlink:title=" ">
<polygon fill="white" stroke="black" points="3304.5,-140 3304.5,-159 3456.5,-159 3456.5,-140 3304.5,-140"/>
<text text-anchor="middle" x="3380.5" y="-147" font-family="Helvetica,sans-Serif" font-size="10.00">src/libs/vmisc/vsettings.cpp</text>
</a>
</g>
</g>
<!-- Node46&#45;&gt;Node70 -->
<g id="edge53" class="edge">
<title>Node46&#45;&gt;Node70</title>
<path fill="none" stroke="midnightblue" d="M3376.38,-191.32C3377.48,-180.5 3378.8,-167.4 3379.64,-159.01"/>
<polygon fill="midnightblue" stroke="midnightblue" points="3372.88,-191.17 3375.36,-201.48 3379.85,-191.88 3372.88,-191.17"/>
</g>
<!-- Node48 -->
<g id="node48" class="node">
<title>Node48</title>
<g id="a_node48"><a xlink:href="../../d3/dd8/vapplication_8cpp.html" target="_top" xlink:title=" ">
<polygon fill="white" stroke="black" points="6021,-67.5 6021,-97.5 6148,-97.5 6148,-67.5 6021,-67.5"/>
<text text-anchor="start" x="6029" y="-85.5" font-family="Helvetica,sans-Serif" font-size="10.00">src/app/seamly2d/core</text>
<text text-anchor="middle" x="6084.5" y="-74.5" font-family="Helvetica,sans-Serif" font-size="10.00">/vapplication.cpp</text>
</a>
</g>
</g>
<!-- Node47&#45;&gt;Node48 -->
<g id="edge50" class="edge">
<title>Node47&#45;&gt;Node48</title>
<path fill="none" stroke="midnightblue" d="M4857.33,-134.07C5368.56,-76.83 5504.59,-155.84 6011.5,-98 6014.58,-97.65 6017.73,-97.24 6020.9,-96.78"/>
<polygon fill="midnightblue" stroke="midnightblue" points="4856.65,-130.62 4847.1,-135.22 4857.43,-137.58 4856.65,-130.62"/>
</g>
<!-- Node49 -->
<g id="node49" class="node">
<title>Node49</title>
<g id="a_node49"><a xlink:href="../../dd/db4/abstractlayout__dialog_8cpp.html" target="_top" xlink:title=" ">
<polygon fill="white" stroke="black" points="5856.5,-67.5 5856.5,-97.5 6002.5,-97.5 6002.5,-67.5 5856.5,-67.5"/>
<text text-anchor="start" x="5864.5" y="-85.5" font-family="Helvetica,sans-Serif" font-size="10.00">src/app/seamly2d/dialogs</text>
<text text-anchor="middle" x="5929.5" y="-74.5" font-family="Helvetica,sans-Serif" font-size="10.00">/abstractlayout_dialog.cpp</text>
</a>
</g>
</g>
<!-- Node47&#45;&gt;Node49 -->
<g id="edge51" class="edge">
<title>Node47&#45;&gt;Node49</title>
<path fill="none" stroke="midnightblue" d="M4857.2,-134.08C5296.02,-83.83 5412.54,-144.13 5847.5,-98 5850.38,-97.7 5853.3,-97.35 5856.25,-96.97"/>
<polygon fill="midnightblue" stroke="midnightblue" points="4856.64,-130.62 4847.11,-135.24 4857.44,-137.57 4856.64,-130.62"/>
</g>
</g>
</svg>
