<?xml version="1.0" encoding="UTF-8" standalone="no"?>
<!DOCTYPE svg PUBLIC "-//W3C//DTD SVG 1.1//EN"
 "http://www.w3.org/Graphics/SVG/1.1/DTD/svg11.dtd">
<!-- Generated by graphviz version 2.43.0 (0)
 -->
<!-- Title: src/libs/vmisc/vcommonsettings.h Pages: 1 -->
<svg width="6156pt" height="285pt"
 viewBox="0.00 0.00 6156.00 285.00" xmlns="http://www.w3.org/2000/svg" xmlns:xlink="http://www.w3.org/1999/xlink">
<g id="graph0" class="graph" transform="scale(1 1) rotate(0) translate(4 281)">
<title>src/libs/vmisc/vcommonsettings.h</title>
<polygon fill="white" stroke="transparent" points="-4,4 -4,-281 6152,-281 6152,4 -4,4"/>
<!-- Node1 -->
<g id="node1" class="node">
<title>Node1</title>
<g id="a_node1"><a xlink:title=" ">
<polygon fill="#bfbfbf" stroke="black" points="2614,-257.5 2614,-276.5 2797,-276.5 2797,-257.5 2614,-257.5"/>
<text text-anchor="middle" x="2705.5" y="-264.5" font-family="Helvetica,sans-Serif" font-size="10.00">src/libs/vmisc/vcommonsettings.h</text>
</a>
</g>
</g>
<!-- Node2 -->
<g id="node2" class="node">
<title>Node2</title>
<g id="a_node2"><a xlink:href="../../d4/d90/fvupdater_8cpp.html" target="_top" xlink:title=" ">
<polygon fill="white" stroke="black" points="0,-73 0,-92 153,-92 153,-73 0,-73"/>
<text text-anchor="middle" x="76.5" y="-80" font-family="Helvetica,sans-Serif" font-size="10.00">src/libs/fervor/fvupdater.cpp</text>
</a>
</g>
</g>
<!-- Node1&#45;&gt;Node2 -->
<g id="edge1" class="edge">
<title>Node1&#45;&gt;Node2</title>
<path fill="none" stroke="midnightblue" d="M2603.72,-263.8C2310.4,-256.83 1438.27,-231.6 717.5,-165 469.66,-142.1 407.81,-133.83 161.5,-98 149.35,-96.23 136.27,-94.11 124.09,-92.04"/>
<polygon fill="midnightblue" stroke="midnightblue" points="2603.83,-267.31 2613.91,-264.04 2603.99,-260.31 2603.83,-267.31"/>
</g>
<!-- Node3 -->
<g id="node3" class="node">
<title>Node3</title>
<g id="a_node3"><a xlink:href="../../dd/d70/vlayoutpiece_8cpp.html" target="_top" xlink:title=" ">
<polygon fill="white" stroke="black" points="171,-73 171,-92 348,-92 348,-73 171,-73"/>
<text text-anchor="middle" x="259.5" y="-80" font-family="Helvetica,sans-Serif" font-size="10.00">src/libs/vlayout/vlayoutpiece.cpp</text>
</a>
</g>
</g>
<!-- Node1&#45;&gt;Node3 -->
<g id="edge2" class="edge">
<title>Node1&#45;&gt;Node3</title>
<path fill="none" stroke="midnightblue" d="M2603.35,-261.51C2275.88,-246.51 1223.11,-193.62 356.5,-98 341.86,-96.38 326.04,-94.21 311.51,-92.03"/>
<polygon fill="midnightblue" stroke="midnightblue" points="2603.61,-265.02 2613.76,-261.98 2603.93,-258.03 2603.61,-265.02"/>
</g>
<!-- Node4 -->
<g id="node4" class="node">
<title>Node4</title>
<g id="a_node4"><a xlink:href="../../d5/d74/vabstractapplication_8h.html" target="_top" xlink:title=" ">
<polygon fill="white" stroke="black" points="2689,-140 2689,-159 2884,-159 2884,-140 2689,-140"/>
<text text-anchor="middle" x="2786.5" y="-147" font-family="Helvetica,sans-Serif" font-size="10.00">src/libs/vmisc/vabstractapplication.h</text>
</a>
</g>
</g>
<!-- Node1&#45;&gt;Node4 -->
<g id="edge3" class="edge">
<title>Node1&#45;&gt;Node4</title>
<path fill="none" stroke="midnightblue" d="M2717.53,-248.84C2735.05,-223.86 2766.97,-178.36 2780.34,-159.28"/>
<polygon fill="midnightblue" stroke="midnightblue" points="2714.46,-247.12 2711.59,-257.32 2720.2,-251.14 2714.46,-247.12"/>
</g>
<!-- Node22 -->
<g id="node22" class="node">
<title>Node22</title>
<g id="a_node22"><a xlink:href="../../db/d11/vformula_8cpp.html" target="_top" xlink:title=" ">
<polygon fill="white" stroke="black" points="366,-67.5 366,-97.5 473,-97.5 473,-67.5 366,-67.5"/>
<text text-anchor="start" x="374" y="-85.5" font-family="Helvetica,sans-Serif" font-size="10.00">src/libs/vpatterndb</text>
<text text-anchor="middle" x="419.5" y="-74.5" font-family="Helvetica,sans-Serif" font-size="10.00">/vformula.cpp</text>
</a>
</g>
</g>
<!-- Node1&#45;&gt;Node22 -->
<g id="edge55" class="edge">
<title>Node1&#45;&gt;Node22</title>
<path fill="none" stroke="midnightblue" d="M2624.85,-256.26C2418.49,-231.72 1854.35,-166.94 1382.5,-134 982.71,-106.09 878.63,-151.87 481.5,-98 478.76,-97.63 475.97,-97.19 473.15,-96.7"/>
<polygon fill="midnightblue" stroke="midnightblue" points="2624.65,-259.76 2634.99,-257.47 2625.48,-252.81 2624.65,-259.76"/>
</g>
<!-- Node24 -->
<g id="node24" class="node">
<title>Node24</title>
<g id="a_node24"><a xlink:href="../../df/dba/vpiecenode__p_8h.html" target="_top" xlink:title=" ">
<polygon fill="white" stroke="black" points="491,-67.5 491,-97.5 598,-97.5 598,-67.5 491,-67.5"/>
<text text-anchor="start" x="499" y="-85.5" font-family="Helvetica,sans-Serif" font-size="10.00">src/libs/vpatterndb</text>
<text text-anchor="middle" x="544.5" y="-74.5" font-family="Helvetica,sans-Serif" font-size="10.00">/vpiecenode_p.h</text>
</a>
</g>
</g>
<!-- Node1&#45;&gt;Node24 -->
<g id="edge56" class="edge">
<title>Node1&#45;&gt;Node24</title>
<path fill="none" stroke="midnightblue" d="M2659.79,-255.14C2545.89,-228.64 2239.91,-160.85 1980.5,-134 1372.87,-71.1 1212.38,-175.96 606.5,-98 603.76,-97.65 600.96,-97.23 598.15,-96.75"/>
<polygon fill="midnightblue" stroke="midnightblue" points="2659.04,-258.56 2669.57,-257.43 2660.63,-251.74 2659.04,-258.56"/>
</g>
<!-- Node28 -->
<g id="node28" class="node">
<title>Node28</title>
<g id="a_node28"><a xlink:href="../../df/d40/export__format__combobox_8cpp.html" target="_top" xlink:title=" ">
<polygon fill="white" stroke="black" points="616,-67.5 616,-97.5 749,-97.5 749,-67.5 616,-67.5"/>
<text text-anchor="start" x="624" y="-85.5" font-family="Helvetica,sans-Serif" font-size="10.00">src/libs/vwidgets/export</text>
<text text-anchor="middle" x="682.5" y="-74.5" font-family="Helvetica,sans-Serif" font-size="10.00">_format_combobox.cpp</text>
</a>
</g>
</g>
<!-- Node1&#45;&gt;Node28 -->
<g id="edge57" class="edge">
<title>Node1&#45;&gt;Node28</title>
<path fill="none" stroke="midnightblue" d="M2676.84,-253.48C2611.36,-225.61 2445.12,-158.94 2298.5,-134 1960.81,-76.56 1098.07,-134.64 757.5,-98 754.73,-97.7 751.91,-97.36 749.07,-96.97"/>
<polygon fill="midnightblue" stroke="midnightblue" points="2675.54,-256.73 2686.11,-257.46 2678.3,-250.3 2675.54,-256.73"/>
</g>
<!-- Node30 -->
<g id="node30" class="node">
<title>Node30</title>
<g id="a_node30"><a xlink:href="../../d2/d28/page__format__combobox_8cpp.html" target="_top" xlink:title=" ">
<polygon fill="white" stroke="black" points="767,-67.5 767,-97.5 898,-97.5 898,-67.5 767,-67.5"/>
<text text-anchor="start" x="775" y="-85.5" font-family="Helvetica,sans-Serif" font-size="10.00">src/libs/vwidgets/page</text>
<text text-anchor="middle" x="832.5" y="-74.5" font-family="Helvetica,sans-Serif" font-size="10.00">_format_combobox.cpp</text>
</a>
</g>
</g>
<!-- Node1&#45;&gt;Node30 -->
<g id="edge58" class="edge">
<title>Node1&#45;&gt;Node30</title>
<path fill="none" stroke="midnightblue" d="M2687.03,-250.93C2649.91,-221.7 2562.41,-158.05 2476.5,-134 2308.47,-86.97 1079.97,-116.84 906.5,-98 903.77,-97.7 900.98,-97.36 898.18,-96.97"/>
<polygon fill="midnightblue" stroke="midnightblue" points="2684.97,-253.76 2694.96,-257.26 2689.33,-248.29 2684.97,-253.76"/>
</g>
<!-- Node35 -->
<g id="node35" class="node">
<title>Node35</title>
<g id="a_node35"><a xlink:href="../../d1/d90/vgrainlineitem_8cpp.html" target="_top" xlink:title=" ">
<polygon fill="white" stroke="black" points="916,-73 916,-92 1109,-92 1109,-73 916,-73"/>
<text text-anchor="middle" x="1012.5" y="-80" font-family="Helvetica,sans-Serif" font-size="10.00">src/libs/vwidgets/vgrainlineitem.cpp</text>
</a>
</g>
</g>
<!-- Node1&#45;&gt;Node35 -->
<g id="edge59" class="edge">
<title>Node1&#45;&gt;Node35</title>
<path fill="none" stroke="midnightblue" d="M2695.87,-248.45C2678.31,-218.47 2637.9,-158.27 2584.5,-134 2510.28,-100.26 1198.76,-104.59 1117.5,-98 1100.53,-96.62 1082.12,-94.35 1065.52,-92.01"/>
<polygon fill="midnightblue" stroke="midnightblue" points="2692.96,-250.4 2700.94,-257.36 2699.04,-246.94 2692.96,-250.4"/>
</g>
<!-- Node37 -->
<g id="node37" class="node">
<title>Node37</title>
<g id="a_node37"><a xlink:href="../../d1/d88/vmaingraphicsscene_8cpp.html" target="_top" xlink:title=" ">
<polygon fill="white" stroke="black" points="5152.5,-73 5152.5,-92 5374.5,-92 5374.5,-73 5152.5,-73"/>
<text text-anchor="middle" x="5263.5" y="-80" font-family="Helvetica,sans-Serif" font-size="10.00">src/libs/vwidgets/vmaingraphicsscene.cpp</text>
</a>
</g>
</g>
<!-- Node1&#45;&gt;Node37 -->
<g id="edge60" class="edge">
<title>Node1&#45;&gt;Node37</title>
<path fill="none" stroke="midnightblue" d="M2732.31,-252.9C2769.18,-234.58 2837.25,-199.63 2892.5,-165 2912.46,-152.49 2913.14,-141.42 2935.5,-134 3051.94,-95.35 5021.1,-106.37 5143.5,-98 5162.97,-96.67 5184.13,-94.39 5203.18,-92.03"/>
<polygon fill="midnightblue" stroke="midnightblue" points="2730.61,-249.83 2723.2,-257.4 2733.72,-256.11 2730.61,-249.83"/>
</g>
<!-- Node41 -->
<g id="node41" class="node">
<title>Node41</title>
<g id="a_node41"><a xlink:href="../../df/df5/vtextgraphicsitem_8cpp.html" target="_top" xlink:title=" ">
<polygon fill="white" stroke="black" points="5393,-73 5393,-92 5604,-92 5604,-73 5393,-73"/>
<text text-anchor="middle" x="5498.5" y="-80" font-family="Helvetica,sans-Serif" font-size="10.00">src/libs/vwidgets/vtextgraphicsitem.cpp</text>
</a>
</g>
</g>
<!-- Node1&#45;&gt;Node41 -->
<g id="edge61" class="edge">
<title>Node1&#45;&gt;Node41</title>
<path fill="none" stroke="midnightblue" d="M2741.49,-254.21C2765.86,-245.84 2798.58,-233.84 2826.5,-221 2873.13,-199.55 2883.73,-191.81 2927.5,-165 2948.52,-152.12 2949.98,-141.38 2973.5,-134 3101.27,-93.92 5249.93,-107.39 5383.5,-98 5402.27,-96.68 5422.67,-94.39 5441,-92.02"/>
<polygon fill="midnightblue" stroke="midnightblue" points="2740.27,-250.93 2731.92,-257.45 2742.52,-257.55 2740.27,-250.93"/>
</g>
<!-- Node42 -->
<g id="node42" class="node">
<title>Node42</title>
<g id="a_node42"><a xlink:href="../../d2/d31/vmaingraphicsview_8cpp.html" target="_top" xlink:title=" ">
<polygon fill="white" stroke="black" points="5622.5,-73 5622.5,-92 5838.5,-92 5838.5,-73 5622.5,-73"/>
<text text-anchor="middle" x="5730.5" y="-80" font-family="Helvetica,sans-Serif" font-size="10.00">src/libs/vwidgets/vmaingraphicsview.cpp</text>
</a>
</g>
</g>
<!-- Node1&#45;&gt;Node42 -->
<g id="edge62" class="edge">
<title>Node1&#45;&gt;Node42</title>
<path fill="none" stroke="midnightblue" d="M2748.13,-254.85C2779.67,-246.32 2823.56,-233.87 2861.5,-221 2961.85,-186.94 2979.51,-154.42 3083.5,-134 3359.37,-79.84 5333.02,-117.32 5613.5,-98 5632.59,-96.69 5653.35,-94.4 5672,-92.02"/>
<polygon fill="midnightblue" stroke="midnightblue" points="2747.09,-251.5 2738.34,-257.48 2748.91,-258.26 2747.09,-251.5"/>
</g>
<!-- Node43 -->
<g id="node43" class="node">
<title>Node43</title>
<g id="a_node43"><a xlink:href="../../d4/d11/vcommonsettings_8cpp.html" target="_top" xlink:title=" ">
<polygon fill="white" stroke="black" points="3173.5,-201.5 3173.5,-220.5 3367.5,-220.5 3367.5,-201.5 3173.5,-201.5"/>
<text text-anchor="middle" x="3270.5" y="-208.5" font-family="Helvetica,sans-Serif" font-size="10.00">src/libs/vmisc/vcommonsettings.cpp</text>
</a>
</g>
</g>
<!-- Node1&#45;&gt;Node43 -->
<g id="edge45" class="edge">
<title>Node1&#45;&gt;Node43</title>
<path fill="none" stroke="midnightblue" d="M2804.83,-256.51C2911.32,-246.33 3078.87,-230.32 3181.29,-220.53"/>
<polygon fill="midnightblue" stroke="midnightblue" points="2804.34,-253.04 2794.71,-257.47 2805,-260.01 2804.34,-253.04"/>
</g>
<!-- Node44 -->
<g id="node44" class="node">
<title>Node44</title>
<g id="a_node44"><a xlink:href="../../dd/db2/vsettings_8h.html" target="_top" xlink:title=" ">
<polygon fill="white" stroke="black" points="3015.5,-201.5 3015.5,-220.5 3155.5,-220.5 3155.5,-201.5 3015.5,-201.5"/>
<text text-anchor="middle" x="3085.5" y="-208.5" font-family="Helvetica,sans-Serif" font-size="10.00">src/libs/vmisc/vsettings.h</text>
</a>
</g>
</g>
<!-- Node1&#45;&gt;Node44 -->
<g id="edge46" class="edge">
<title>Node1&#45;&gt;Node44</title>
<path fill="none" stroke="midnightblue" d="M2776.02,-255.98C2847.8,-245.78 2957.87,-230.14 3025.57,-220.52"/>
<polygon fill="midnightblue" stroke="midnightblue" points="2775.12,-252.57 2765.71,-257.44 2776.11,-259.5 2775.12,-252.57"/>
</g>
<!-- Node69 -->
<g id="node49" class="node">
<title>Node69</title>
<g id="a_node49"><a xlink:href="../../df/da4/vseamlymesettings_8h.html" target="_top" xlink:title=" ">
<polygon fill="white" stroke="black" points="3410.5,-201.5 3410.5,-220.5 3602.5,-220.5 3602.5,-201.5 3410.5,-201.5"/>
<text text-anchor="middle" x="3506.5" y="-208.5" font-family="Helvetica,sans-Serif" font-size="10.00">src/libs/vmisc/vseamlymesettings.h</text>
</a>
</g>
</g>
<!-- Node1&#45;&gt;Node69 -->
<g id="edge53" class="edge">
<title>Node1&#45;&gt;Node69</title>
<path fill="none" stroke="midnightblue" d="M2807.28,-259.24C2938.75,-250.5 3174.71,-234.75 3376.5,-221 3387.45,-220.25 3398.91,-219.47 3410.31,-218.68"/>
<polygon fill="midnightblue" stroke="midnightblue" points="2806.96,-255.76 2797.22,-259.91 2807.43,-262.74 2806.96,-255.76"/>
</g>
<!-- Node4&#45;&gt;Node2 -->
<g id="edge4" class="edge">
<title>Node4&#45;&gt;Node2</title>
<path fill="none" stroke="midnightblue" d="M2678.78,-148.58C2249.8,-148.57 662.14,-145.25 161.5,-98 147.64,-96.69 132.63,-94.42 119.14,-92.06"/>
<polygon fill="midnightblue" stroke="midnightblue" points="2679,-152.08 2689,-148.58 2679,-145.08 2679,-152.08"/>
</g>
<!-- Node4&#45;&gt;Node3 -->
<g id="edge18" class="edge">
<title>Node4&#45;&gt;Node3</title>
<path fill="none" stroke="midnightblue" d="M2678.72,-147.07C2238.51,-141.13 589.33,-117.74 356.5,-98 340.72,-96.66 323.61,-94.38 308.21,-92.02"/>
<polygon fill="midnightblue" stroke="midnightblue" points="2678.84,-150.57 2688.89,-147.21 2678.94,-143.57 2678.84,-150.57"/>
</g>
<!-- Node5 -->
<g id="node5" class="node">
<title>Node5</title>
<g id="a_node5"><a xlink:href="../../d9/dc8/dxiface_8cpp.html" target="_top" xlink:title=" ">
<polygon fill="white" stroke="black" points="3421,-73 3421,-92 3556,-92 3556,-73 3421,-73"/>
<text text-anchor="middle" x="3488.5" y="-80" font-family="Helvetica,sans-Serif" font-size="10.00">src/libs/vdxf/dxiface.cpp</text>
</a>
</g>
</g>
<!-- Node4&#45;&gt;Node5 -->
<g id="edge5" class="edge">
<title>Node4&#45;&gt;Node5</title>
<path fill="none" stroke="midnightblue" d="M2856.81,-138.67C2870.3,-136.96 2884.32,-135.32 2897.5,-134 3125.8,-111.13 3184.96,-127.55 3412.5,-98 3424.22,-96.48 3436.87,-94.29 3448.41,-92.07"/>
<polygon fill="midnightblue" stroke="midnightblue" points="2856.1,-135.23 2846.62,-139.98 2856.99,-142.17 2856.1,-135.23"/>
</g>
<!-- Node6 -->
<g id="node6" class="node">
<title>Node6</title>
<g id="a_node6"><a xlink:href="../../da/d75/vabstractarc__p_8h.html" target="_top" xlink:title=" ">
<polygon fill="white" stroke="black" points="3574,-67.5 3574,-97.5 3681,-97.5 3681,-67.5 3574,-67.5"/>
<text text-anchor="start" x="3582" y="-85.5" font-family="Helvetica,sans-Serif" font-size="10.00">src/libs/vgeometry</text>
<text text-anchor="middle" x="3627.5" y="-74.5" font-family="Helvetica,sans-Serif" font-size="10.00">/vabstractarc_p.h</text>
</a>
</g>
</g>
<!-- Node4&#45;&gt;Node6 -->
<g id="edge6" class="edge">
<title>Node4&#45;&gt;Node6</title>
<path fill="none" stroke="midnightblue" d="M2855.21,-138.7C2869.18,-136.94 2883.8,-135.26 2897.5,-134 3193.57,-106.72 3271.16,-140.02 3565.5,-98 3568.24,-97.61 3571.03,-97.16 3573.84,-96.66"/>
<polygon fill="midnightblue" stroke="midnightblue" points="2854.64,-135.24 2845.17,-139.99 2855.53,-142.18 2854.64,-135.24"/>
</g>
<!-- Node8 -->
<g id="node8" class="node">
<title>Node8</title>
<g id="a_node8"><a xlink:href="../../dc/da3/varc__p_8h.html" target="_top" xlink:title=" ">
<polygon fill="white" stroke="black" points="3699,-67.5 3699,-97.5 3806,-97.5 3806,-67.5 3699,-67.5"/>
<text text-anchor="start" x="3707" y="-85.5" font-family="Helvetica,sans-Serif" font-size="10.00">src/libs/vgeometry</text>
<text text-anchor="middle" x="3752.5" y="-74.5" font-family="Helvetica,sans-Serif" font-size="10.00">/varc_p.h</text>
</a>
</g>
</g>
<!-- Node4&#45;&gt;Node8 -->
<g id="edge8" class="edge">
<title>Node4&#45;&gt;Node8</title>
<path fill="none" stroke="midnightblue" d="M2854.72,-138.67C2868.84,-136.89 2883.63,-135.22 2897.5,-134 3248.95,-103.12 3341.03,-146.38 3690.5,-98 3693.24,-97.62 3696.03,-97.18 3698.85,-96.69"/>
<polygon fill="midnightblue" stroke="midnightblue" points="2854.05,-135.22 2844.58,-139.97 2854.95,-142.16 2854.05,-135.22"/>
</g>
<!-- Node10 -->
<g id="node10" class="node">
<title>Node10</title>
<g id="a_node10"><a xlink:href="../../d5/d8e/vcubicbezier__p_8h.html" target="_top" xlink:title=" ">
<polygon fill="white" stroke="black" points="3824,-67.5 3824,-97.5 3931,-97.5 3931,-67.5 3824,-67.5"/>
<text text-anchor="start" x="3832" y="-85.5" font-family="Helvetica,sans-Serif" font-size="10.00">src/libs/vgeometry</text>
<text text-anchor="middle" x="3877.5" y="-74.5" font-family="Helvetica,sans-Serif" font-size="10.00">/vcubicbezier_p.h</text>
</a>
</g>
</g>
<!-- Node4&#45;&gt;Node10 -->
<g id="edge10" class="edge">
<title>Node4&#45;&gt;Node10</title>
<path fill="none" stroke="midnightblue" d="M2854.24,-138.66C2868.5,-136.87 2883.48,-135.19 2897.5,-134 3304.36,-99.52 3410.87,-152.74 3815.5,-98 3818.24,-97.63 3821.03,-97.19 3823.85,-96.71"/>
<polygon fill="midnightblue" stroke="midnightblue" points="2853.47,-135.23 2844,-139.98 2854.37,-142.17 2853.47,-135.23"/>
</g>
<!-- Node12 -->
<g id="node12" class="node">
<title>Node12</title>
<g id="a_node12"><a xlink:href="../../df/dde/vellipticalarc__p_8h.html" target="_top" xlink:title=" ">
<polygon fill="white" stroke="black" points="3949,-67.5 3949,-97.5 4056,-97.5 4056,-67.5 3949,-67.5"/>
<text text-anchor="start" x="3957" y="-85.5" font-family="Helvetica,sans-Serif" font-size="10.00">src/libs/vgeometry</text>
<text text-anchor="middle" x="4002.5" y="-74.5" font-family="Helvetica,sans-Serif" font-size="10.00">/vellipticalarc_p.h</text>
</a>
</g>
</g>
<!-- Node4&#45;&gt;Node12 -->
<g id="edge12" class="edge">
<title>Node4&#45;&gt;Node12</title>
<path fill="none" stroke="midnightblue" d="M2854,-138.64C2868.33,-136.84 2883.39,-135.16 2897.5,-134 3359.77,-95.92 3480.71,-159.1 3940.5,-98 3943.24,-97.64 3946.04,-97.2 3948.85,-96.72"/>
<polygon fill="midnightblue" stroke="midnightblue" points="2853.18,-135.21 2843.71,-139.97 2854.08,-142.16 2853.18,-135.21"/>
</g>
<!-- Node13 -->
<g id="node13" class="node">
<title>Node13</title>
<g id="a_node13"><a xlink:href="../../d6/dfb/vellipticalarc_8cpp.html" target="_top" xlink:title=" ">
<polygon fill="white" stroke="black" points="3969,-0.5 3969,-30.5 4076,-30.5 4076,-0.5 3969,-0.5"/>
<text text-anchor="start" x="3977" y="-18.5" font-family="Helvetica,sans-Serif" font-size="10.00">src/libs/vgeometry</text>
<text text-anchor="middle" x="4022.5" y="-7.5" font-family="Helvetica,sans-Serif" font-size="10.00">/vellipticalarc.cpp</text>
</a>
</g>
</g>
<!-- Node4&#45;&gt;Node13 -->
<g id="edge14" class="edge">
<title>Node4&#45;&gt;Node13</title>
<path fill="none" stroke="midnightblue" d="M2853.76,-138.63C2868.16,-136.82 2883.31,-135.14 2897.5,-134 2962.21,-128.79 4020.31,-144.61 4065.5,-98 4084.65,-78.25 4058.66,-48.25 4039.54,-30.69"/>
<polygon fill="midnightblue" stroke="midnightblue" points="2852.89,-135.21 2843.42,-139.96 2853.79,-142.15 2852.89,-135.21"/>
</g>
<!-- Node14 -->
<g id="node14" class="node">
<title>Node14</title>
<g id="a_node14"><a xlink:href="../../d1/d76/vspline__p_8h.html" target="_top" xlink:title=" ">
<polygon fill="white" stroke="black" points="4113,-67.5 4113,-97.5 4220,-97.5 4220,-67.5 4113,-67.5"/>
<text text-anchor="start" x="4121" y="-85.5" font-family="Helvetica,sans-Serif" font-size="10.00">src/libs/vgeometry</text>
<text text-anchor="middle" x="4166.5" y="-74.5" font-family="Helvetica,sans-Serif" font-size="10.00">/vspline_p.h</text>
</a>
</g>
</g>
<!-- Node4&#45;&gt;Node14 -->
<g id="edge15" class="edge">
<title>Node4&#45;&gt;Node14</title>
<path fill="none" stroke="midnightblue" d="M2853.1,-138.7C2867.7,-136.86 2883.1,-135.15 2897.5,-134 3429.81,-91.36 3568.32,-161.94 4098.5,-98 4103.17,-97.44 4108,-96.71 4112.83,-95.88"/>
<polygon fill="midnightblue" stroke="midnightblue" points="2852.61,-135.24 2843.14,-139.99 2853.51,-142.18 2852.61,-135.24"/>
</g>
<!-- Node16 -->
<g id="node16" class="node">
<title>Node16</title>
<g id="a_node16"><a xlink:href="../../d9/d15/vabstractpiece_8cpp.html" target="_top" xlink:title=" ">
<polygon fill="white" stroke="black" points="4238.5,-73 4238.5,-92 4424.5,-92 4424.5,-73 4238.5,-73"/>
<text text-anchor="middle" x="4331.5" y="-80" font-family="Helvetica,sans-Serif" font-size="10.00">src/libs/vlayout/vabstractpiece.cpp</text>
</a>
</g>
</g>
<!-- Node4&#45;&gt;Node16 -->
<g id="edge17" class="edge">
<title>Node4&#45;&gt;Node16</title>
<path fill="none" stroke="midnightblue" d="M2852.86,-138.7C2867.53,-136.85 2883.02,-135.14 2897.5,-134 3487.89,-87.58 3639.38,-147.76 4229.5,-98 4245.9,-96.62 4263.68,-94.36 4279.74,-92.03"/>
<polygon fill="midnightblue" stroke="midnightblue" points="2852.32,-135.24 2842.85,-140 2853.22,-142.18 2852.32,-135.24"/>
</g>
<!-- Node17 -->
<g id="node17" class="node">
<title>Node17</title>
<g id="a_node17"><a xlink:href="../../d8/d70/vtextmanager_8cpp.html" target="_top" xlink:title=" ">
<polygon fill="white" stroke="black" points="4442.5,-73 4442.5,-92 4624.5,-92 4624.5,-73 4442.5,-73"/>
<text text-anchor="middle" x="4533.5" y="-80" font-family="Helvetica,sans-Serif" font-size="10.00">src/libs/vlayout/vtextmanager.cpp</text>
</a>
</g>
</g>
<!-- Node4&#45;&gt;Node17 -->
<g id="edge19" class="edge">
<title>Node4&#45;&gt;Node17</title>
<path fill="none" stroke="midnightblue" d="M2852.61,-138.69C2867.36,-136.83 2882.94,-135.12 2897.5,-134 3578.35,-81.7 3753.04,-155.1 4433.5,-98 4449.67,-96.64 4467.21,-94.37 4483.02,-92.03"/>
<polygon fill="midnightblue" stroke="midnightblue" points="2852.03,-135.24 2842.56,-140 2852.93,-142.18 2852.03,-135.24"/>
</g>
<!-- Node18 -->
<g id="node18" class="node">
<title>Node18</title>
<g id="a_node18"><a xlink:href="../../db/d65/dialogexporttocsv_8cpp.html" target="_top" xlink:title=" ">
<polygon fill="white" stroke="black" points="4643,-67.5 4643,-97.5 4770,-97.5 4770,-67.5 4643,-67.5"/>
<text text-anchor="start" x="4651" y="-85.5" font-family="Helvetica,sans-Serif" font-size="10.00">src/libs/vmisc/dialogs</text>
<text text-anchor="middle" x="4706.5" y="-74.5" font-family="Helvetica,sans-Serif" font-size="10.00">/dialogexporttocsv.cpp</text>
</a>
</g>
</g>
<!-- Node4&#45;&gt;Node18 -->
<g id="edge20" class="edge">
<title>Node4&#45;&gt;Node18</title>
<path fill="none" stroke="midnightblue" d="M2852.61,-138.66C2867.36,-136.8 2882.94,-135.1 2897.5,-134 3667.03,-75.93 3866.31,-181.5 4633.5,-98 4636.58,-97.66 4639.73,-97.26 4642.9,-96.81"/>
<polygon fill="midnightblue" stroke="midnightblue" points="2852.03,-135.21 2842.56,-139.97 2852.93,-142.15 2852.03,-135.21"/>
</g>
<!-- Node19 -->
<g id="node19" class="node">
<title>Node19</title>
<g id="a_node19"><a xlink:href="../../d6/d0b/def_8cpp.html" target="_top" xlink:title=" ">
<polygon fill="white" stroke="black" points="4788.5,-73 4788.5,-92 4910.5,-92 4910.5,-73 4788.5,-73"/>
<text text-anchor="middle" x="4849.5" y="-80" font-family="Helvetica,sans-Serif" font-size="10.00">src/libs/vmisc/def.cpp</text>
</a>
</g>
</g>
<!-- Node4&#45;&gt;Node19 -->
<g id="edge21" class="edge">
<title>Node4&#45;&gt;Node19</title>
<path fill="none" stroke="midnightblue" d="M2852.37,-138.67C2867.19,-136.8 2882.86,-135.09 2897.5,-134 3314.64,-102.86 4363.81,-144.62 4779.5,-98 4791.09,-96.7 4803.61,-94.4 4814.81,-92.01"/>
<polygon fill="midnightblue" stroke="midnightblue" points="2851.74,-135.23 2842.27,-139.99 2852.64,-142.17 2851.74,-135.23"/>
</g>
<!-- Node20 -->
<g id="node20" class="node">
<title>Node20</title>
<g id="a_node20"><a xlink:href="../../d0/df6/vabstractapplication_8cpp.html" target="_top" xlink:title=" ">
<polygon fill="white" stroke="black" points="4928.5,-73 4928.5,-92 5134.5,-92 5134.5,-73 4928.5,-73"/>
<text text-anchor="middle" x="5031.5" y="-80" font-family="Helvetica,sans-Serif" font-size="10.00">src/libs/vmisc/vabstractapplication.cpp</text>
</a>
</g>
</g>
<!-- Node4&#45;&gt;Node20 -->
<g id="edge22" class="edge">
<title>Node4&#45;&gt;Node20</title>
<path fill="none" stroke="midnightblue" d="M2852.37,-138.66C2867.18,-136.79 2882.85,-135.08 2897.5,-134 3793.86,-67.68 4023.1,-163.8 4919.5,-98 4937.69,-96.67 4957.44,-94.39 4975.22,-92.03"/>
<polygon fill="midnightblue" stroke="midnightblue" points="2851.74,-135.21 2842.27,-139.97 2852.64,-142.15 2851.74,-135.21"/>
</g>
<!-- Node21 -->
<g id="node21" class="node">
<title>Node21</title>
<g id="a_node21"><a xlink:href="../../d4/d4f/pmsystems_8cpp.html" target="_top" xlink:title=" ">
<polygon fill="white" stroke="black" points="1127,-67.5 1127,-97.5 1234,-97.5 1234,-67.5 1127,-67.5"/>
<text text-anchor="start" x="1135" y="-85.5" font-family="Helvetica,sans-Serif" font-size="10.00">src/libs/vpatterndb</text>
<text text-anchor="middle" x="1180.5" y="-74.5" font-family="Helvetica,sans-Serif" font-size="10.00">/pmsystems.cpp</text>
</a>
</g>
</g>
<!-- Node4&#45;&gt;Node21 -->
<g id="edge23" class="edge">
<title>Node4&#45;&gt;Node21</title>
<path fill="none" stroke="midnightblue" d="M2710.53,-138.85C2693.13,-136.95 2674.7,-135.18 2657.5,-134 2029.89,-90.82 1866.48,-178.05 1242.5,-98 1239.76,-97.65 1236.96,-97.23 1234.15,-96.75"/>
<polygon fill="midnightblue" stroke="midnightblue" points="2710.32,-142.35 2720.64,-139.99 2711.09,-135.4 2710.32,-142.35"/>
</g>
<!-- Node4&#45;&gt;Node22 -->
<g id="edge24" class="edge">
<title>Node4&#45;&gt;Node22</title>
<path fill="none" stroke="midnightblue" d="M2678.96,-146.45C2231.34,-137.86 536.63,-104.97 481.5,-98 478.76,-97.65 475.96,-97.24 473.14,-96.77"/>
<polygon fill="midnightblue" stroke="midnightblue" points="2678.92,-149.95 2688.98,-146.64 2679.05,-142.95 2678.92,-149.95"/>
</g>
<!-- Node23 -->
<g id="node23" class="node">
<title>Node23</title>
<g id="a_node23"><a xlink:href="../../df/d7a/vpiece_8cpp.html" target="_top" xlink:title=" ">
<polygon fill="white" stroke="black" points="1252,-67.5 1252,-97.5 1359,-97.5 1359,-67.5 1252,-67.5"/>
<text text-anchor="start" x="1260" y="-85.5" font-family="Helvetica,sans-Serif" font-size="10.00">src/libs/vpatterndb</text>
<text text-anchor="middle" x="1305.5" y="-74.5" font-family="Helvetica,sans-Serif" font-size="10.00">/vpiece.cpp</text>
</a>
</g>
</g>
<!-- Node4&#45;&gt;Node23 -->
<g id="edge25" class="edge">
<title>Node4&#45;&gt;Node23</title>
<path fill="none" stroke="midnightblue" d="M2710.25,-138.85C2692.93,-136.96 2674.6,-135.2 2657.5,-134 2085.34,-93.93 1936.3,-171.68 1367.5,-98 1364.76,-97.64 1361.96,-97.22 1359.15,-96.74"/>
<polygon fill="midnightblue" stroke="midnightblue" points="2709.98,-142.35 2720.31,-139.98 2710.76,-135.39 2709.98,-142.35"/>
</g>
<!-- Node4&#45;&gt;Node24 -->
<g id="edge26" class="edge">
<title>Node4&#45;&gt;Node24</title>
<path fill="none" stroke="midnightblue" d="M2678.82,-145.04C2579.95,-141.92 2429.37,-137.34 2298.5,-134 1922.54,-124.42 979.63,-145.08 606.5,-98 603.76,-97.65 600.96,-97.24 598.14,-96.77"/>
<polygon fill="midnightblue" stroke="midnightblue" points="2678.72,-148.54 2688.83,-145.36 2678.94,-141.54 2678.72,-148.54"/>
</g>
<!-- Node26 -->
<g id="node26" class="node">
<title>Node26</title>
<g id="a_node26"><a xlink:href="../../d6/d46/vcontainer_8cpp.html" target="_top" xlink:title=" ">
<polygon fill="white" stroke="black" points="1377,-67.5 1377,-97.5 1484,-97.5 1484,-67.5 1377,-67.5"/>
<text text-anchor="start" x="1385" y="-85.5" font-family="Helvetica,sans-Serif" font-size="10.00">src/libs/vpatterndb</text>
<text text-anchor="middle" x="1430.5" y="-74.5" font-family="Helvetica,sans-Serif" font-size="10.00">/vcontainer.cpp</text>
</a>
</g>
</g>
<!-- Node4&#45;&gt;Node26 -->
<g id="edge28" class="edge">
<title>Node4&#45;&gt;Node26</title>
<path fill="none" stroke="midnightblue" d="M2709.96,-138.86C2692.73,-136.98 2674.51,-135.22 2657.5,-134 2141.24,-97.06 2006.81,-164.36 1493.5,-98 1490.49,-97.61 1487.42,-97.14 1484.33,-96.62"/>
<polygon fill="midnightblue" stroke="midnightblue" points="2709.65,-142.35 2719.97,-139.98 2710.42,-135.39 2709.65,-142.35"/>
</g>
<!-- Node27 -->
<g id="node27" class="node">
<title>Node27</title>
<g id="a_node27"><a xlink:href="../../de/d3e/vtranslatevars_8cpp.html" target="_top" xlink:title=" ">
<polygon fill="white" stroke="black" points="1502.5,-67.5 1502.5,-97.5 1612.5,-97.5 1612.5,-67.5 1502.5,-67.5"/>
<text text-anchor="start" x="1510.5" y="-85.5" font-family="Helvetica,sans-Serif" font-size="10.00">src/libs/vpatterndb</text>
<text text-anchor="middle" x="1557.5" y="-74.5" font-family="Helvetica,sans-Serif" font-size="10.00">/vtranslatevars.cpp</text>
</a>
</g>
</g>
<!-- Node4&#45;&gt;Node27 -->
<g id="edge29" class="edge">
<title>Node4&#45;&gt;Node27</title>
<path fill="none" stroke="midnightblue" d="M2709.67,-138.88C2692.52,-137.01 2674.41,-135.24 2657.5,-134 2198.02,-100.24 2078.41,-157.16 1621.5,-98 1618.56,-97.62 1615.56,-97.17 1612.54,-96.66"/>
<polygon fill="midnightblue" stroke="midnightblue" points="2709.31,-142.36 2719.64,-139.99 2710.09,-135.4 2709.31,-142.36"/>
</g>
<!-- Node4&#45;&gt;Node28 -->
<g id="edge30" class="edge">
<title>Node4&#45;&gt;Node28</title>
<path fill="none" stroke="midnightblue" d="M2678.61,-142.77C2619.03,-139.78 2543.69,-136.27 2476.5,-134 2094.63,-121.07 1137.44,-138.41 757.5,-98 754.73,-97.71 751.91,-97.36 749.07,-96.98"/>
<polygon fill="midnightblue" stroke="midnightblue" points="2678.63,-146.27 2688.79,-143.28 2678.98,-139.28 2678.63,-146.27"/>
</g>
<!-- Node29 -->
<g id="node29" class="node">
<title>Node29</title>
<g id="a_node29"><a xlink:href="../../d3/d4f/mouse__coordinates_8cpp.html" target="_top" xlink:title=" ">
<polygon fill="white" stroke="black" points="1630.5,-67.5 1630.5,-97.5 1764.5,-97.5 1764.5,-67.5 1630.5,-67.5"/>
<text text-anchor="start" x="1638.5" y="-85.5" font-family="Helvetica,sans-Serif" font-size="10.00">src/libs/vwidgets/mouse</text>
<text text-anchor="middle" x="1697.5" y="-74.5" font-family="Helvetica,sans-Serif" font-size="10.00">_coordinates.cpp</text>
</a>
</g>
</g>
<!-- Node4&#45;&gt;Node29 -->
<g id="edge31" class="edge">
<title>Node4&#45;&gt;Node29</title>
<path fill="none" stroke="midnightblue" d="M2708.62,-138.84C2691.78,-137.01 2674.06,-135.27 2657.5,-134 2265.43,-104.02 2164.13,-142.97 1773.5,-98 1770.56,-97.66 1767.57,-97.28 1764.55,-96.85"/>
<polygon fill="midnightblue" stroke="midnightblue" points="2708.64,-142.36 2718.97,-139.99 2709.41,-135.41 2708.64,-142.36"/>
</g>
<!-- Node4&#45;&gt;Node30 -->
<g id="edge32" class="edge">
<title>Node4&#45;&gt;Node30</title>
<path fill="none" stroke="midnightblue" d="M2678.74,-139.76C2648.29,-137.56 2615.11,-135.43 2584.5,-134 2211.93,-116.64 1277.32,-138.01 906.5,-98 903.77,-97.71 900.98,-97.36 898.18,-96.98"/>
<polygon fill="midnightblue" stroke="midnightblue" points="2678.72,-143.27 2688.95,-140.5 2679.23,-136.28 2678.72,-143.27"/>
</g>
<!-- Node31 -->
<g id="node31" class="node">
<title>Node31</title>
<g id="a_node31"><a xlink:href="../../d7/d1b/pen__toolbar_8cpp.html" target="_top" xlink:title=" ">
<polygon fill="white" stroke="black" points="1783,-67.5 1783,-97.5 1902,-97.5 1902,-67.5 1783,-67.5"/>
<text text-anchor="start" x="1791" y="-85.5" font-family="Helvetica,sans-Serif" font-size="10.00">src/libs/vwidgets/pen</text>
<text text-anchor="middle" x="1842.5" y="-74.5" font-family="Helvetica,sans-Serif" font-size="10.00">_toolbar.cpp</text>
</a>
</g>
</g>
<!-- Node4&#45;&gt;Node31 -->
<g id="edge33" class="edge">
<title>Node4&#45;&gt;Node31</title>
<path fill="none" stroke="midnightblue" d="M2707.76,-138.84C2691.18,-137.03 2673.78,-135.31 2657.5,-134 2326.62,-107.45 2240.74,-140.27 1911.5,-98 1908.46,-97.61 1905.36,-97.16 1902.24,-96.66"/>
<polygon fill="midnightblue" stroke="midnightblue" points="2707.63,-142.35 2717.96,-139.97 2708.4,-135.39 2707.63,-142.35"/>
</g>
<!-- Node32 -->
<g id="node32" class="node">
<title>Node32</title>
<g id="a_node32"><a xlink:href="../../d8/d76/scene__rect_8cpp.html" target="_top" xlink:title=" ">
<polygon fill="white" stroke="black" points="1920.5,-67.5 1920.5,-97.5 2050.5,-97.5 2050.5,-67.5 1920.5,-67.5"/>
<text text-anchor="start" x="1928.5" y="-85.5" font-family="Helvetica,sans-Serif" font-size="10.00">src/libs/vwidgets/scene</text>
<text text-anchor="middle" x="1985.5" y="-74.5" font-family="Helvetica,sans-Serif" font-size="10.00">_rect.cpp</text>
</a>
</g>
</g>
<!-- Node4&#45;&gt;Node32 -->
<g id="edge34" class="edge">
<title>Node4&#45;&gt;Node32</title>
<path fill="none" stroke="midnightblue" d="M2706.61,-138.87C2690.37,-137.09 2673.4,-135.37 2657.5,-134 2392.23,-111.12 2323.62,-131.67 2059.5,-98 2056.64,-97.64 2053.73,-97.23 2050.79,-96.78"/>
<polygon fill="midnightblue" stroke="midnightblue" points="2706.28,-142.35 2716.6,-139.98 2707.05,-135.39 2706.28,-142.35"/>
</g>
<!-- Node33 -->
<g id="node33" class="node">
<title>Node33</title>
<g id="a_node33"><a xlink:href="../../dd/df6/vabstractmainwindow_8cpp.html" target="_top" xlink:title=" ">
<polygon fill="white" stroke="black" points="2069,-73 2069,-92 2298,-92 2298,-73 2069,-73"/>
<text text-anchor="middle" x="2183.5" y="-80" font-family="Helvetica,sans-Serif" font-size="10.00">src/libs/vwidgets/vabstractmainwindow.cpp</text>
</a>
</g>
</g>
<!-- Node4&#45;&gt;Node33 -->
<g id="edge35" class="edge">
<title>Node4&#45;&gt;Node33</title>
<path fill="none" stroke="midnightblue" d="M2701.71,-138.85C2686.97,-137.21 2671.79,-135.54 2657.5,-134 2501.58,-117.24 2462.37,-115.18 2306.5,-98 2289.51,-96.13 2271.21,-94.02 2254.05,-92"/>
<polygon fill="midnightblue" stroke="midnightblue" points="2701.49,-142.35 2711.82,-139.98 2702.27,-135.39 2701.49,-142.35"/>
</g>
<!-- Node34 -->
<g id="node34" class="node">
<title>Node34</title>
<g id="a_node34"><a xlink:href="../../de/d45/vcontrolpointspline_8cpp.html" target="_top" xlink:title=" ">
<polygon fill="white" stroke="black" points="2316,-73 2316,-92 2531,-92 2531,-73 2316,-73"/>
<text text-anchor="middle" x="2423.5" y="-80" font-family="Helvetica,sans-Serif" font-size="10.00">src/libs/vwidgets/vcontrolpointspline.cpp</text>
</a>
</g>
</g>
<!-- Node4&#45;&gt;Node34 -->
<g id="edge36" class="edge">
<title>Node4&#45;&gt;Node34</title>
<path fill="none" stroke="midnightblue" d="M2728.51,-138.12C2657.16,-125.34 2537.38,-103.89 2471.15,-92.03"/>
<polygon fill="midnightblue" stroke="midnightblue" points="2728.21,-141.62 2738.67,-139.94 2729.44,-134.73 2728.21,-141.62"/>
</g>
<!-- Node4&#45;&gt;Node35 -->
<g id="edge37" class="edge">
<title>Node4&#45;&gt;Node35</title>
<path fill="none" stroke="midnightblue" d="M2710.82,-138.86C2693.34,-136.95 2674.79,-135.17 2657.5,-134 1974.43,-87.72 1799.93,-152.92 1117.5,-98 1100.53,-96.63 1082.12,-94.36 1065.52,-92.02"/>
<polygon fill="midnightblue" stroke="midnightblue" points="2710.65,-142.36 2720.98,-140 2711.43,-135.41 2710.65,-142.36"/>
</g>
<!-- Node36 -->
<g id="node36" class="node">
<title>Node36</title>
<g id="a_node36"><a xlink:href="../../de/dec/vgraphicssimpletextitem_8cpp.html" target="_top" xlink:title=" ">
<polygon fill="white" stroke="black" points="2549.5,-73 2549.5,-92 2793.5,-92 2793.5,-73 2549.5,-73"/>
<text text-anchor="middle" x="2671.5" y="-80" font-family="Helvetica,sans-Serif" font-size="10.00">src/libs/vwidgets/vgraphicssimpletextitem.cpp</text>
</a>
</g>
</g>
<!-- Node4&#45;&gt;Node36 -->
<g id="edge38" class="edge">
<title>Node4&#45;&gt;Node36</title>
<path fill="none" stroke="midnightblue" d="M2762.24,-134.79C2739.45,-121.9 2706.04,-103.02 2686.76,-92.13"/>
<polygon fill="midnightblue" stroke="midnightblue" points="2760.56,-137.86 2770.99,-139.73 2764.01,-131.77 2760.56,-137.86"/>
</g>
<!-- Node4&#45;&gt;Node37 -->
<g id="edge39" class="edge">
<title>Node4&#45;&gt;Node37</title>
<path fill="none" stroke="midnightblue" d="M2852.13,-138.67C2867.01,-136.79 2882.78,-135.08 2897.5,-134 3893.19,-61.22 4147.47,-165.97 5143.5,-98 5162.97,-96.67 5184.13,-94.39 5203.18,-92.03"/>
<polygon fill="midnightblue" stroke="midnightblue" points="2851.45,-135.23 2841.99,-139.99 2852.36,-142.17 2851.45,-135.23"/>
</g>
<!-- Node38 -->
<g id="node38" class="node">
<title>Node38</title>
<g id="a_node38"><a xlink:href="../../d0/d5d/vscenepoint_8cpp.html" target="_top" xlink:title=" ">
<polygon fill="white" stroke="black" points="2812,-73 2812,-92 2993,-92 2993,-73 2812,-73"/>
<text text-anchor="middle" x="2902.5" y="-80" font-family="Helvetica,sans-Serif" font-size="10.00">src/libs/vwidgets/vscenepoint.cpp</text>
</a>
</g>
</g>
<!-- Node4&#45;&gt;Node38 -->
<g id="edge40" class="edge">
<title>Node4&#45;&gt;Node38</title>
<path fill="none" stroke="midnightblue" d="M2810.97,-134.79C2833.96,-121.9 2867.66,-103.02 2887.1,-92.13"/>
<polygon fill="midnightblue" stroke="midnightblue" points="2809.16,-131.79 2802.14,-139.73 2812.58,-137.9 2809.16,-131.79"/>
</g>
<!-- Node39 -->
<g id="node39" class="node">
<title>Node39</title>
<g id="a_node39"><a xlink:href="../../de/d22/vsimplecurve_8cpp.html" target="_top" xlink:title=" ">
<polygon fill="white" stroke="black" points="3011.5,-73 3011.5,-92 3199.5,-92 3199.5,-73 3011.5,-73"/>
<text text-anchor="middle" x="3105.5" y="-80" font-family="Helvetica,sans-Serif" font-size="10.00">src/libs/vwidgets/vsimplecurve.cpp</text>
</a>
</g>
</g>
<!-- Node4&#45;&gt;Node39 -->
<g id="edge41" class="edge">
<title>Node4&#45;&gt;Node39</title>
<path fill="none" stroke="midnightblue" d="M2838.62,-137.88C2901.45,-125.08 3005.78,-103.82 3063.63,-92.03"/>
<polygon fill="midnightblue" stroke="midnightblue" points="2837.63,-134.51 2828.53,-139.94 2839.03,-141.37 2837.63,-134.51"/>
</g>
<!-- Node40 -->
<g id="node40" class="node">
<title>Node40</title>
<g id="a_node40"><a xlink:href="../../df/d38/vsimplepoint_8cpp.html" target="_top" xlink:title=" ">
<polygon fill="white" stroke="black" points="3218,-73 3218,-92 3403,-92 3403,-73 3218,-73"/>
<text text-anchor="middle" x="3310.5" y="-80" font-family="Helvetica,sans-Serif" font-size="10.00">src/libs/vwidgets/vsimplepoint.cpp</text>
</a>
</g>
</g>
<!-- Node4&#45;&gt;Node40 -->
<g id="edge42" class="edge">
<title>Node4&#45;&gt;Node40</title>
<path fill="none" stroke="midnightblue" d="M2860.69,-138.66C2872.98,-137.07 2885.6,-135.47 2897.5,-134 3035.6,-116.99 3070.5,-115.79 3208.5,-98 3222.78,-96.16 3238.17,-94.04 3252.55,-92"/>
<polygon fill="midnightblue" stroke="midnightblue" points="2859.93,-135.23 2850.46,-139.98 2860.83,-142.17 2859.93,-135.23"/>
</g>
<!-- Node4&#45;&gt;Node41 -->
<g id="edge43" class="edge">
<title>Node4&#45;&gt;Node41</title>
<path fill="none" stroke="midnightblue" d="M2871.57,-139C2892.45,-137.01 2914.76,-135.16 2935.5,-134 4021.92,-73.25 4298.05,-174.18 5383.5,-98 5402.27,-96.68 5422.67,-94.39 5441,-92.02"/>
<polygon fill="midnightblue" stroke="midnightblue" points="2871.06,-135.54 2861.44,-139.99 2871.74,-142.5 2871.06,-135.54"/>
</g>
<!-- Node4&#45;&gt;Node42 -->
<g id="edge44" class="edge">
<title>Node4&#45;&gt;Node42</title>
<path fill="none" stroke="midnightblue" d="M2891.24,-139.2C2918.04,-137.14 2946.82,-135.22 2973.5,-134 4145.73,-80.61 4442.81,-178.28 5613.5,-98 5632.59,-96.69 5653.35,-94.4 5672,-92.03"/>
<polygon fill="midnightblue" stroke="midnightblue" points="2890.78,-135.72 2881.08,-139.99 2891.32,-142.7 2890.78,-135.72"/>
</g>
<!-- Node7 -->
<g id="node7" class="node">
<title>Node7</title>
<g id="a_node7"><a xlink:href="../../d4/da1/vabstractarc_8cpp.html" target="_top" xlink:title=" ">
<polygon fill="white" stroke="black" points="3574,-0.5 3574,-30.5 3681,-30.5 3681,-0.5 3574,-0.5"/>
<text text-anchor="start" x="3582" y="-18.5" font-family="Helvetica,sans-Serif" font-size="10.00">src/libs/vgeometry</text>
<text text-anchor="middle" x="3627.5" y="-7.5" font-family="Helvetica,sans-Serif" font-size="10.00">/vabstractarc.cpp</text>
</a>
</g>
</g>
<!-- Node6&#45;&gt;Node7 -->
<g id="edge7" class="edge">
<title>Node6&#45;&gt;Node7</title>
<path fill="none" stroke="midnightblue" d="M3627.5,-57.11C3627.5,-48.15 3627.5,-38.32 3627.5,-30.58"/>
<polygon fill="midnightblue" stroke="midnightblue" points="3624,-57.4 3627.5,-67.4 3631,-57.4 3624,-57.4"/>
</g>
<!-- Node9 -->
<g id="node9" class="node">
<title>Node9</title>
<g id="a_node9"><a xlink:href="../../d5/ded/varc_8cpp.html" target="_top" xlink:title=" ">
<polygon fill="white" stroke="black" points="3699,-0.5 3699,-30.5 3806,-30.5 3806,-0.5 3699,-0.5"/>
<text text-anchor="start" x="3707" y="-18.5" font-family="Helvetica,sans-Serif" font-size="10.00">src/libs/vgeometry</text>
<text text-anchor="middle" x="3752.5" y="-7.5" font-family="Helvetica,sans-Serif" font-size="10.00">/varc.cpp</text>
</a>
</g>
</g>
<!-- Node8&#45;&gt;Node9 -->
<g id="edge9" class="edge">
<title>Node8&#45;&gt;Node9</title>
<path fill="none" stroke="midnightblue" d="M3752.5,-57.11C3752.5,-48.15 3752.5,-38.32 3752.5,-30.58"/>
<polygon fill="midnightblue" stroke="midnightblue" points="3749,-57.4 3752.5,-67.4 3756,-57.4 3749,-57.4"/>
</g>
<!-- Node11 -->
<g id="node11" class="node">
<title>Node11</title>
<g id="a_node11"><a xlink:href="../../d2/d26/vcubicbezier_8cpp.html" target="_top" xlink:title=" ">
<polygon fill="white" stroke="black" points="3824,-0.5 3824,-30.5 3931,-30.5 3931,-0.5 3824,-0.5"/>
<text text-anchor="start" x="3832" y="-18.5" font-family="Helvetica,sans-Serif" font-size="10.00">src/libs/vgeometry</text>
<text text-anchor="middle" x="3877.5" y="-7.5" font-family="Helvetica,sans-Serif" font-size="10.00">/vcubicbezier.cpp</text>
</a>
</g>
</g>
<!-- Node10&#45;&gt;Node11 -->
<g id="edge11" class="edge">
<title>Node10&#45;&gt;Node11</title>
<path fill="none" stroke="midnightblue" d="M3877.5,-57.11C3877.5,-48.15 3877.5,-38.32 3877.5,-30.58"/>
<polygon fill="midnightblue" stroke="midnightblue" points="3874,-57.4 3877.5,-67.4 3881,-57.4 3874,-57.4"/>
</g>
<!-- Node12&#45;&gt;Node13 -->
<g id="edge13" class="edge">
<title>Node12&#45;&gt;Node13</title>
<path fill="none" stroke="midnightblue" d="M4009.82,-57.7C4012.63,-48.59 4015.73,-38.49 4018.17,-30.58"/>
<polygon fill="midnightblue" stroke="midnightblue" points="4006.44,-56.81 4006.84,-67.4 4013.13,-58.87 4006.44,-56.81"/>
</g>
<!-- Node15 -->
<g id="node15" class="node">
<title>Node15</title>
<g id="a_node15"><a xlink:href="../../d5/dd2/vspline_8cpp.html" target="_top" xlink:title=" ">
<polygon fill="white" stroke="black" points="4113,-0.5 4113,-30.5 4220,-30.5 4220,-0.5 4113,-0.5"/>
<text text-anchor="start" x="4121" y="-18.5" font-family="Helvetica,sans-Serif" font-size="10.00">src/libs/vgeometry</text>
<text text-anchor="middle" x="4166.5" y="-7.5" font-family="Helvetica,sans-Serif" font-size="10.00">/vspline.cpp</text>
</a>
</g>
</g>
<!-- Node14&#45;&gt;Node15 -->
<g id="edge16" class="edge">
<title>Node14&#45;&gt;Node15</title>
<path fill="none" stroke="midnightblue" d="M4166.5,-57.11C4166.5,-48.15 4166.5,-38.32 4166.5,-30.58"/>
<polygon fill="midnightblue" stroke="midnightblue" points="4163,-57.4 4166.5,-67.4 4170,-57.4 4163,-57.4"/>
</g>
<!-- Node25 -->
<g id="node25" class="node">
<title>Node25</title>
<g id="a_node25"><a xlink:href="../../d8/dba/vpiecenode_8cpp.html" target="_top" xlink:title=" ">
<polygon fill="white" stroke="black" points="491,-0.5 491,-30.5 598,-30.5 598,-0.5 491,-0.5"/>
<text text-anchor="start" x="499" y="-18.5" font-family="Helvetica,sans-Serif" font-size="10.00">src/libs/vpatterndb</text>
<text text-anchor="middle" x="544.5" y="-7.5" font-family="Helvetica,sans-Serif" font-size="10.00">/vpiecenode.cpp</text>
</a>
</g>
</g>
<!-- Node24&#45;&gt;Node25 -->
<g id="edge27" class="edge">
<title>Node24&#45;&gt;Node25</title>
<path fill="none" stroke="midnightblue" d="M544.5,-57.11C544.5,-48.15 544.5,-38.32 544.5,-30.58"/>
<polygon fill="midnightblue" stroke="midnightblue" points="541,-57.4 544.5,-67.4 548,-57.4 541,-57.4"/>
</g>
<!-- Node44&#45;&gt;Node4 -->
<g id="edge50" class="edge">
<title>Node44&#45;&gt;Node4</title>
<path fill="none" stroke="midnightblue" d="M3032.6,-199.47C2974.66,-187.94 2882.84,-169.67 2829.26,-159.01"/>
<polygon fill="midnightblue" stroke="midnightblue" points="3032.17,-202.96 3042.66,-201.48 3033.54,-196.09 3032.17,-202.96"/>
</g>
<!-- Node44&#45;&gt;Node42 -->
<g id="edge52" class="edge">
<title>Node44&#45;&gt;Node42</title>
<path fill="none" stroke="midnightblue" d="M3084.58,-191.04C3084.87,-173.2 3088.5,-147.3 3105.5,-134 3160.37,-91.07 5543.99,-102.79 5613.5,-98 5632.59,-96.68 5653.35,-94.39 5672,-92.02"/>
<polygon fill="midnightblue" stroke="midnightblue" points="3081.09,-191.21 3084.76,-201.15 3088.08,-191.09 3081.09,-191.21"/>
</g>
<!-- Node45 -->
<g id="node45" class="node">
<title>Node45</title>
<g id="a_node45"><a xlink:href="../../d9/d02/vapplication_8h.html" target="_top" xlink:title=" ">
<polygon fill="white" stroke="red" points="3114,-134.5 3114,-164.5 3241,-164.5 3241,-134.5 3114,-134.5"/>
<text text-anchor="start" x="3122" y="-152.5" font-family="Helvetica,sans-Serif" font-size="10.00">src/app/seamly2d/core</text>
<text text-anchor="middle" x="3177.5" y="-141.5" font-family="Helvetica,sans-Serif" font-size="10.00">/vapplication.h</text>
</a>
</g>
</g>
<!-- Node44&#45;&gt;Node45 -->
<g id="edge47" class="edge">
<title>Node44&#45;&gt;Node45</title>
<path fill="none" stroke="midnightblue" d="M3107.13,-196.01C3121.81,-186.52 3141.13,-174.02 3155.82,-164.52"/>
<polygon fill="midnightblue" stroke="midnightblue" points="3105.18,-193.11 3098.68,-201.48 3108.98,-198.98 3105.18,-193.11"/>
</g>
<!-- Node68 -->
<g id="node48" class="node">
<title>Node68</title>
<g id="a_node48"><a xlink:href="../../db/d28/vsettings_8cpp.html" target="_top" xlink:title=" ">
<polygon fill="white" stroke="black" points="3259.5,-140 3259.5,-159 3411.5,-159 3411.5,-140 3259.5,-140"/>
<text text-anchor="middle" x="3335.5" y="-147" font-family="Helvetica,sans-Serif" font-size="10.00">src/libs/vmisc/vsettings.cpp</text>
</a>
</g>
</g>
<!-- Node44&#45;&gt;Node68 -->
<g id="edge51" class="edge">
<title>Node44&#45;&gt;Node68</title>
<path fill="none" stroke="midnightblue" d="M3131.24,-199.11C3179.76,-187.57 3255.41,-169.56 3299.75,-159.01"/>
<polygon fill="midnightblue" stroke="midnightblue" points="3130.24,-195.75 3121.32,-201.48 3131.86,-202.56 3130.24,-195.75"/>
</g>
<!-- Node46 -->
<g id="node46" class="node">
<title>Node46</title>
<g id="a_node46"><a xlink:href="../../d3/dd8/vapplication_8cpp.html" target="_top" xlink:title=" ">
<polygon fill="white" stroke="black" points="6021,-67.5 6021,-97.5 6148,-97.5 6148,-67.5 6021,-67.5"/>
<text text-anchor="start" x="6029" y="-85.5" font-family="Helvetica,sans-Serif" font-size="10.00">src/app/seamly2d/core</text>
<text text-anchor="middle" x="6084.5" y="-74.5" font-family="Helvetica,sans-Serif" font-size="10.00">/vapplication.cpp</text>
</a>
</g>
</g>
<!-- Node45&#45;&gt;Node46 -->
<g id="edge48" class="edge">
<title>Node45&#45;&gt;Node46</title>
<path fill="none" stroke="midnightblue" d="M3251.16,-134.12C3877.28,-70.94 5404.52,-161.7 6011.5,-98 6014.58,-97.68 6017.73,-97.29 6020.9,-96.84"/>
<polygon fill="midnightblue" stroke="midnightblue" points="3250.69,-130.65 3241.1,-135.16 3251.4,-137.61 3250.69,-130.65"/>
</g>
<!-- Node47 -->
<g id="node47" class="node">
<title>Node47</title>
<g id="a_node47"><a xlink:href="../../dd/db4/abstractlayout__dialog_8cpp.html" target="_top" xlink:title=" ">
<polygon fill="white" stroke="black" points="5856.5,-67.5 5856.5,-97.5 6002.5,-97.5 6002.5,-67.5 5856.5,-67.5"/>
<text text-anchor="start" x="5864.5" y="-85.5" font-family="Helvetica,sans-Serif" font-size="10.00">src/app/seamly2d/dialogs</text>
<text text-anchor="middle" x="5929.5" y="-74.5" font-family="Helvetica,sans-Serif" font-size="10.00">/abstractlayout_dialog.cpp</text>
</a>
</g>
</g>
<!-- Node45&#45;&gt;Node47 -->
<g id="edge49" class="edge">
<title>Node45&#45;&gt;Node47</title>
<path fill="none" stroke="midnightblue" d="M3251.44,-134.09C3841.43,-74.45 5276.27,-152.11 5847.5,-98 5850.38,-97.73 5853.31,-97.41 5856.26,-97.05"/>
<polygon fill="midnightblue" stroke="midnightblue" points="3250.68,-130.65 3241.1,-135.16 3251.4,-137.61 3250.68,-130.65"/>
</g>
<!-- Node70 -->
<g id="node50" class="node">
<title>Node70</title>
<g id="a_node50"><a xlink:href="../../df/dba/vseamlymesettings_8cpp.html" target="_top" xlink:title=" ">
<polygon fill="white" stroke="black" points="3430,-140 3430,-159 3633,-159 3633,-140 3430,-140"/>
<text text-anchor="middle" x="3531.5" y="-147" font-family="Helvetica,sans-Serif" font-size="10.00">src/libs/vmisc/vseamlymesettings.cpp</text>
</a>
</g>
</g>
<!-- Node69&#45;&gt;Node70 -->
<g id="edge54" class="edge">
<title>Node69&#45;&gt;Node70</title>
<path fill="none" stroke="midnightblue" d="M3514.06,-192C3518.66,-181.05 3524.33,-167.57 3527.92,-159.01"/>
<polygon fill="midnightblue" stroke="midnightblue" points="3510.73,-190.9 3510.08,-201.48 3517.18,-193.61 3510.73,-190.9"/>
</g>
</g>
</svg>
