<?xml version="1.0" encoding="UTF-8" standalone="no"?>
<!DOCTYPE svg PUBLIC "-//W3C//DTD SVG 1.1//EN"
 "http://www.w3.org/Graphics/SVG/1.1/DTD/svg11.dtd">
<!-- Generated by graphviz version 2.43.0 (0)
 -->
<!-- Title: src/libs/vmisc/vcommonsettings.h Pages: 1 -->
<svg width="6155pt" height="285pt"
 viewBox="0.00 0.00 6155.00 285.00" xmlns="http://www.w3.org/2000/svg" xmlns:xlink="http://www.w3.org/1999/xlink">
<g id="graph0" class="graph" transform="scale(1 1) rotate(0) translate(4 281)">
<title>src/libs/vmisc/vcommonsettings.h</title>
<polygon fill="white" stroke="transparent" points="-4,4 -4,-281 6151,-281 6151,4 -4,4"/>
<!-- Node1 -->
<g id="node1" class="node">
<title>Node1</title>
<g id="a_node1"><a xlink:title=" ">
<polygon fill="#bfbfbf" stroke="black" points="2621,-257.5 2621,-276.5 2804,-276.5 2804,-257.5 2621,-257.5"/>
<text text-anchor="middle" x="2712.5" y="-264.5" font-family="Helvetica,sans-Serif" font-size="10.00">src/libs/vmisc/vcommonsettings.h</text>
</a>
</g>
</g>
<!-- Node2 -->
<g id="node2" class="node">
<title>Node2</title>
<g id="a_node2"><a xlink:href="../../d4/d90/fvupdater_8cpp.html" target="_top" xlink:title=" ">
<polygon fill="white" stroke="black" points="0,-73 0,-92 153,-92 153,-73 0,-73"/>
<text text-anchor="middle" x="76.5" y="-80" font-family="Helvetica,sans-Serif" font-size="10.00">src/libs/fervor/fvupdater.cpp</text>
</a>
</g>
</g>
<!-- Node1&#45;&gt;Node2 -->
<g id="edge1" class="edge">
<title>Node1&#45;&gt;Node2</title>
<path fill="none" stroke="midnightblue" d="M2610.67,-263.82C2316.73,-256.87 1441.66,-231.69 718.5,-165 470.21,-142.1 408.25,-133.86 161.5,-98 149.35,-96.23 136.27,-94.11 124.09,-92.04"/>
<polygon fill="midnightblue" stroke="midnightblue" points="2610.8,-267.32 2620.88,-264.05 2610.97,-260.32 2610.8,-267.32"/>
</g>
<!-- Node3 -->
<g id="node3" class="node">
<title>Node3</title>
<g id="a_node3"><a xlink:href="../../dd/d70/vlayoutpiece_8cpp.html" target="_top" xlink:title=" ">
<polygon fill="white" stroke="black" points="171,-73 171,-92 348,-92 348,-73 171,-73"/>
<text text-anchor="middle" x="259.5" y="-80" font-family="Helvetica,sans-Serif" font-size="10.00">src/libs/vlayout/vlayoutpiece.cpp</text>
</a>
</g>
</g>
<!-- Node1&#45;&gt;Node3 -->
<g id="edge2" class="edge">
<title>Node1&#45;&gt;Node3</title>
<path fill="none" stroke="midnightblue" d="M2610.33,-261.54C2282.21,-246.6 1225.94,-193.84 356.5,-98 341.86,-96.39 326.04,-94.21 311.51,-92.03"/>
<polygon fill="midnightblue" stroke="midnightblue" points="2610.61,-265.05 2620.76,-262.01 2610.93,-258.06 2610.61,-265.05"/>
</g>
<!-- Node4 -->
<g id="node4" class="node">
<title>Node4</title>
<g id="a_node4"><a xlink:href="../../d5/d74/vabstractapplication_8h.html" target="_top" xlink:title=" ">
<polygon fill="white" stroke="black" points="2696,-140 2696,-159 2891,-159 2891,-140 2696,-140"/>
<text text-anchor="middle" x="2793.5" y="-147" font-family="Helvetica,sans-Serif" font-size="10.00">src/libs/vmisc/vabstractapplication.h</text>
</a>
</g>
</g>
<!-- Node1&#45;&gt;Node4 -->
<g id="edge3" class="edge">
<title>Node1&#45;&gt;Node4</title>
<path fill="none" stroke="midnightblue" d="M2724.53,-248.84C2742.05,-223.86 2773.97,-178.36 2787.34,-159.28"/>
<polygon fill="midnightblue" stroke="midnightblue" points="2721.46,-247.12 2718.59,-257.32 2727.2,-251.14 2721.46,-247.12"/>
</g>
<!-- Node22 -->
<g id="node22" class="node">
<title>Node22</title>
<g id="a_node22"><a xlink:href="../../db/d11/vformula_8cpp.html" target="_top" xlink:title=" ">
<polygon fill="white" stroke="black" points="366,-67.5 366,-97.5 473,-97.5 473,-67.5 366,-67.5"/>
<text text-anchor="start" x="374" y="-85.5" font-family="Helvetica,sans-Serif" font-size="10.00">src/libs/vpatterndb</text>
<text text-anchor="middle" x="419.5" y="-74.5" font-family="Helvetica,sans-Serif" font-size="10.00">/vformula.cpp</text>
</a>
</g>
</g>
<!-- Node1&#45;&gt;Node22 -->
<g id="edge55" class="edge">
<title>Node1&#45;&gt;Node22</title>
<path fill="none" stroke="midnightblue" d="M2631.42,-256.27C2423.97,-231.74 1856.84,-166.99 1382.5,-134 982.7,-106.2 878.63,-151.87 481.5,-98 478.76,-97.63 475.97,-97.19 473.15,-96.7"/>
<polygon fill="midnightblue" stroke="midnightblue" points="2631.27,-259.78 2641.62,-257.48 2632.1,-252.83 2631.27,-259.78"/>
</g>
<!-- Node24 -->
<g id="node24" class="node">
<title>Node24</title>
<g id="a_node24"><a xlink:href="../../df/dba/vpiecenode__p_8h.html" target="_top" xlink:title=" ">
<polygon fill="white" stroke="black" points="491,-67.5 491,-97.5 598,-97.5 598,-67.5 491,-67.5"/>
<text text-anchor="start" x="499" y="-85.5" font-family="Helvetica,sans-Serif" font-size="10.00">src/libs/vpatterndb</text>
<text text-anchor="middle" x="544.5" y="-74.5" font-family="Helvetica,sans-Serif" font-size="10.00">/vpiecenode_p.h</text>
</a>
</g>
</g>
<!-- Node1&#45;&gt;Node24 -->
<g id="edge56" class="edge">
<title>Node1&#45;&gt;Node24</title>
<path fill="none" stroke="midnightblue" d="M2666.6,-255.14C2552.22,-228.64 2244.96,-160.86 1984.5,-134 1375.08,-71.16 1214.15,-176.16 606.5,-98 603.76,-97.65 600.96,-97.23 598.15,-96.75"/>
<polygon fill="midnightblue" stroke="midnightblue" points="2665.89,-258.57 2676.42,-257.43 2667.47,-251.75 2665.89,-258.57"/>
</g>
<!-- Node28 -->
<g id="node28" class="node">
<title>Node28</title>
<g id="a_node28"><a xlink:href="../../df/d40/export__format__combobox_8cpp.html" target="_top" xlink:title=" ">
<polygon fill="white" stroke="black" points="616,-67.5 616,-97.5 749,-97.5 749,-67.5 616,-67.5"/>
<text text-anchor="start" x="624" y="-85.5" font-family="Helvetica,sans-Serif" font-size="10.00">src/libs/vwidgets/export</text>
<text text-anchor="middle" x="682.5" y="-74.5" font-family="Helvetica,sans-Serif" font-size="10.00">_format_combobox.cpp</text>
</a>
</g>
</g>
<!-- Node1&#45;&gt;Node28 -->
<g id="edge57" class="edge">
<title>Node1&#45;&gt;Node28</title>
<path fill="none" stroke="midnightblue" d="M2683.76,-253.48C2618.12,-225.61 2451.46,-158.94 2304.5,-134 1965.48,-76.47 1099.4,-134.77 757.5,-98 754.73,-97.7 751.91,-97.36 749.07,-96.97"/>
<polygon fill="midnightblue" stroke="midnightblue" points="2682.49,-256.74 2693.06,-257.46 2685.24,-250.31 2682.49,-256.74"/>
</g>
<!-- Node30 -->
<g id="node30" class="node">
<title>Node30</title>
<g id="a_node30"><a xlink:href="../../d2/d28/page__format__combobox_8cpp.html" target="_top" xlink:title=" ">
<polygon fill="white" stroke="black" points="767,-67.5 767,-97.5 898,-97.5 898,-67.5 767,-67.5"/>
<text text-anchor="start" x="775" y="-85.5" font-family="Helvetica,sans-Serif" font-size="10.00">src/libs/vwidgets/page</text>
<text text-anchor="middle" x="832.5" y="-74.5" font-family="Helvetica,sans-Serif" font-size="10.00">_format_combobox.cpp</text>
</a>
</g>
</g>
<!-- Node1&#45;&gt;Node30 -->
<g id="edge58" class="edge">
<title>Node1&#45;&gt;Node30</title>
<path fill="none" stroke="midnightblue" d="M2694.03,-250.93C2656.91,-221.7 2569.41,-158.04 2483.5,-134 2314.72,-86.77 1080.74,-116.92 906.5,-98 903.77,-97.7 900.98,-97.36 898.18,-96.97"/>
<polygon fill="midnightblue" stroke="midnightblue" points="2691.97,-253.76 2701.96,-257.26 2696.33,-248.29 2691.97,-253.76"/>
</g>
<!-- Node34 -->
<g id="node34" class="node">
<title>Node34</title>
<g id="a_node34"><a xlink:href="../../d1/d90/vgrainlineitem_8cpp.html" target="_top" xlink:title=" ">
<polygon fill="white" stroke="black" points="916,-73 916,-92 1109,-92 1109,-73 916,-73"/>
<text text-anchor="middle" x="1012.5" y="-80" font-family="Helvetica,sans-Serif" font-size="10.00">src/libs/vwidgets/vgrainlineitem.cpp</text>
</a>
</g>
</g>
<!-- Node1&#45;&gt;Node34 -->
<g id="edge59" class="edge">
<title>Node1&#45;&gt;Node34</title>
<path fill="none" stroke="midnightblue" d="M2702.87,-248.45C2685.31,-218.47 2644.9,-158.27 2591.5,-134 2516.93,-100.1 1199.15,-104.61 1117.5,-98 1100.53,-96.63 1082.12,-94.35 1065.52,-92.01"/>
<polygon fill="midnightblue" stroke="midnightblue" points="2699.96,-250.4 2707.94,-257.36 2706.04,-246.94 2699.96,-250.4"/>
</g>
<!-- Node36 -->
<g id="node36" class="node">
<title>Node36</title>
<g id="a_node36"><a xlink:href="../../d1/d88/vmaingraphicsscene_8cpp.html" target="_top" xlink:title=" ">
<polygon fill="white" stroke="black" points="5151.5,-73 5151.5,-92 5373.5,-92 5373.5,-73 5151.5,-73"/>
<text text-anchor="middle" x="5262.5" y="-80" font-family="Helvetica,sans-Serif" font-size="10.00">src/libs/vwidgets/vmaingraphicsscene.cpp</text>
</a>
</g>
</g>
<!-- Node1&#45;&gt;Node36 -->
<g id="edge60" class="edge">
<title>Node1&#45;&gt;Node36</title>
<path fill="none" stroke="midnightblue" d="M2739.31,-252.9C2776.18,-234.58 2844.25,-199.63 2899.5,-165 2919.46,-152.49 2920.14,-141.42 2942.5,-134 3058.51,-95.49 5020.55,-106.34 5142.5,-98 5161.97,-96.67 5183.13,-94.39 5202.18,-92.03"/>
<polygon fill="midnightblue" stroke="midnightblue" points="2737.61,-249.83 2730.2,-257.4 2740.72,-256.11 2737.61,-249.83"/>
</g>
<!-- Node41 -->
<g id="node41" class="node">
<title>Node41</title>
<g id="a_node41"><a xlink:href="../../df/df5/vtextgraphicsitem_8cpp.html" target="_top" xlink:title=" ">
<polygon fill="white" stroke="black" points="5392,-73 5392,-92 5603,-92 5603,-73 5392,-73"/>
<text text-anchor="middle" x="5497.5" y="-80" font-family="Helvetica,sans-Serif" font-size="10.00">src/libs/vwidgets/vtextgraphicsitem.cpp</text>
</a>
</g>
</g>
<!-- Node1&#45;&gt;Node41 -->
<g id="edge61" class="edge">
<title>Node1&#45;&gt;Node41</title>
<path fill="none" stroke="midnightblue" d="M2748.49,-254.21C2772.86,-245.84 2805.58,-233.84 2833.5,-221 2880.13,-199.55 2890.73,-191.81 2934.5,-165 2955.52,-152.12 2956.98,-141.38 2980.5,-134 3107.84,-94.05 5249.37,-107.36 5382.5,-98 5401.27,-96.68 5421.67,-94.39 5440,-92.01"/>
<polygon fill="midnightblue" stroke="midnightblue" points="2747.27,-250.93 2738.92,-257.45 2749.52,-257.55 2747.27,-250.93"/>
</g>
<!-- Node42 -->
<g id="node42" class="node">
<title>Node42</title>
<g id="a_node42"><a xlink:href="../../d2/d31/vmaingraphicsview_8cpp.html" target="_top" xlink:title=" ">
<polygon fill="white" stroke="black" points="5621.5,-73 5621.5,-92 5837.5,-92 5837.5,-73 5621.5,-73"/>
<text text-anchor="middle" x="5729.5" y="-80" font-family="Helvetica,sans-Serif" font-size="10.00">src/libs/vwidgets/vmaingraphicsview.cpp</text>
</a>
</g>
</g>
<!-- Node1&#45;&gt;Node42 -->
<g id="edge62" class="edge">
<title>Node1&#45;&gt;Node42</title>
<path fill="none" stroke="midnightblue" d="M2755.13,-254.85C2786.67,-246.32 2830.56,-233.87 2868.5,-221 2968.85,-186.94 2986.51,-154.42 3090.5,-134 3365.5,-80 5332.91,-117.26 5612.5,-98 5631.59,-96.68 5652.35,-94.4 5671,-92.02"/>
<polygon fill="midnightblue" stroke="midnightblue" points="2754.09,-251.5 2745.34,-257.48 2755.91,-258.26 2754.09,-251.5"/>
</g>
<!-- Node43 -->
<g id="node43" class="node">
<title>Node43</title>
<g id="a_node43"><a xlink:href="../../df/da4/vseamlymesettings_8h.html" target="_top" xlink:title=" ">
<polygon fill="white" stroke="black" points="3180.5,-201.5 3180.5,-220.5 3372.5,-220.5 3372.5,-201.5 3180.5,-201.5"/>
<text text-anchor="middle" x="3276.5" y="-208.5" font-family="Helvetica,sans-Serif" font-size="10.00">src/libs/vmisc/vseamlymesettings.h</text>
</a>
</g>
</g>
<!-- Node1&#45;&gt;Node43 -->
<g id="edge45" class="edge">
<title>Node1&#45;&gt;Node43</title>
<path fill="none" stroke="midnightblue" d="M2811.65,-256.51C2917.95,-246.33 3085.2,-230.32 3187.45,-220.53"/>
<polygon fill="midnightblue" stroke="midnightblue" points="2811.18,-253.04 2801.56,-257.47 2811.84,-260 2811.18,-253.04"/>
</g>
<!-- Node45 -->
<g id="node45" class="node">
<title>Node45</title>
<g id="a_node45"><a xlink:href="../../dd/db2/vsettings_8h.html" target="_top" xlink:title=" ">
<polygon fill="white" stroke="black" points="3022.5,-201.5 3022.5,-220.5 3162.5,-220.5 3162.5,-201.5 3022.5,-201.5"/>
<text text-anchor="middle" x="3092.5" y="-208.5" font-family="Helvetica,sans-Serif" font-size="10.00">src/libs/vmisc/vsettings.h</text>
</a>
</g>
</g>
<!-- Node1&#45;&gt;Node45 -->
<g id="edge47" class="edge">
<title>Node1&#45;&gt;Node45</title>
<path fill="none" stroke="midnightblue" d="M2783.02,-255.98C2854.8,-245.78 2964.87,-230.14 3032.57,-220.52"/>
<polygon fill="midnightblue" stroke="midnightblue" points="2782.12,-252.57 2772.71,-257.44 2783.11,-259.5 2782.12,-252.57"/>
</g>
<!-- Node70 -->
<g id="node50" class="node">
<title>Node70</title>
<g id="a_node50"><a xlink:href="../../d4/d11/vcommonsettings_8cpp.html" target="_top" xlink:title=" ">
<polygon fill="white" stroke="black" points="3390.5,-201.5 3390.5,-220.5 3584.5,-220.5 3584.5,-201.5 3390.5,-201.5"/>
<text text-anchor="middle" x="3487.5" y="-208.5" font-family="Helvetica,sans-Serif" font-size="10.00">src/libs/vmisc/vcommonsettings.cpp</text>
</a>
</g>
</g>
<!-- Node1&#45;&gt;Node70 -->
<g id="edge54" class="edge">
<title>Node1&#45;&gt;Node70</title>
<path fill="none" stroke="midnightblue" d="M2814.28,-259.71C2945.46,-251.48 3180.56,-236.29 3381.5,-221 3384.45,-220.78 3387.44,-220.54 3390.46,-220.31"/>
<polygon fill="midnightblue" stroke="midnightblue" points="2814.01,-256.22 2804.25,-260.34 2814.45,-263.21 2814.01,-256.22"/>
</g>
<!-- Node4&#45;&gt;Node2 -->
<g id="edge4" class="edge">
<title>Node4&#45;&gt;Node2</title>
<path fill="none" stroke="midnightblue" d="M2685.49,-148.59C2255.37,-148.6 663.48,-145.36 161.5,-98 147.64,-96.69 132.63,-94.42 119.14,-92.06"/>
<polygon fill="midnightblue" stroke="midnightblue" points="2685.74,-152.09 2695.74,-148.59 2685.74,-145.09 2685.74,-152.09"/>
</g>
<!-- Node4&#45;&gt;Node3 -->
<g id="edge18" class="edge">
<title>Node4&#45;&gt;Node3</title>
<path fill="none" stroke="midnightblue" d="M2685.78,-147.08C2244.86,-141.15 590.07,-117.8 356.5,-98 340.72,-96.66 323.61,-94.38 308.21,-92.02"/>
<polygon fill="midnightblue" stroke="midnightblue" points="2685.92,-150.58 2695.96,-147.22 2686.01,-143.58 2685.92,-150.58"/>
</g>
<!-- Node5 -->
<g id="node5" class="node">
<title>Node5</title>
<g id="a_node5"><a xlink:href="../../d9/dc8/dxiface_8cpp.html" target="_top" xlink:title=" ">
<polygon fill="white" stroke="black" points="3420,-73 3420,-92 3555,-92 3555,-73 3420,-73"/>
<text text-anchor="middle" x="3487.5" y="-80" font-family="Helvetica,sans-Serif" font-size="10.00">src/libs/vdxf/dxiface.cpp</text>
</a>
</g>
</g>
<!-- Node4&#45;&gt;Node5 -->
<g id="edge5" class="edge">
<title>Node4&#45;&gt;Node5</title>
<path fill="none" stroke="midnightblue" d="M2863.81,-138.68C2877.3,-136.97 2891.33,-135.33 2904.5,-134 3129.26,-111.36 3187.5,-127.22 3411.5,-98 3423.22,-96.47 3435.86,-94.28 3447.41,-92.06"/>
<polygon fill="midnightblue" stroke="midnightblue" points="2863.1,-135.24 2853.63,-139.99 2863.99,-142.18 2863.1,-135.24"/>
</g>
<!-- Node6 -->
<g id="node6" class="node">
<title>Node6</title>
<g id="a_node6"><a xlink:href="../../da/d75/vabstractarc__p_8h.html" target="_top" xlink:title=" ">
<polygon fill="white" stroke="black" points="3573,-67.5 3573,-97.5 3680,-97.5 3680,-67.5 3573,-67.5"/>
<text text-anchor="start" x="3581" y="-85.5" font-family="Helvetica,sans-Serif" font-size="10.00">src/libs/vgeometry</text>
<text text-anchor="middle" x="3626.5" y="-74.5" font-family="Helvetica,sans-Serif" font-size="10.00">/vabstractarc_p.h</text>
</a>
</g>
</g>
<!-- Node4&#45;&gt;Node6 -->
<g id="edge6" class="edge">
<title>Node4&#45;&gt;Node6</title>
<path fill="none" stroke="midnightblue" d="M2862.21,-138.7C2876.18,-136.94 2890.8,-135.27 2904.5,-134 3197.02,-106.95 3273.69,-139.61 3564.5,-98 3567.24,-97.61 3570.03,-97.16 3572.84,-96.66"/>
<polygon fill="midnightblue" stroke="midnightblue" points="2861.64,-135.25 2852.17,-140 2862.53,-142.19 2861.64,-135.25"/>
</g>
<!-- Node8 -->
<g id="node8" class="node">
<title>Node8</title>
<g id="a_node8"><a xlink:href="../../dc/da3/varc__p_8h.html" target="_top" xlink:title=" ">
<polygon fill="white" stroke="black" points="3698,-67.5 3698,-97.5 3805,-97.5 3805,-67.5 3698,-67.5"/>
<text text-anchor="start" x="3706" y="-85.5" font-family="Helvetica,sans-Serif" font-size="10.00">src/libs/vgeometry</text>
<text text-anchor="middle" x="3751.5" y="-74.5" font-family="Helvetica,sans-Serif" font-size="10.00">/varc_p.h</text>
</a>
</g>
</g>
<!-- Node4&#45;&gt;Node8 -->
<g id="edge8" class="edge">
<title>Node4&#45;&gt;Node8</title>
<path fill="none" stroke="midnightblue" d="M2861.72,-138.67C2875.84,-136.89 2890.64,-135.22 2904.5,-134 3252.41,-103.35 3343.55,-145.97 3689.5,-98 3692.24,-97.62 3695.03,-97.18 3697.84,-96.68"/>
<polygon fill="midnightblue" stroke="midnightblue" points="2861.05,-135.23 2851.58,-139.98 2861.95,-142.17 2861.05,-135.23"/>
</g>
<!-- Node10 -->
<g id="node10" class="node">
<title>Node10</title>
<g id="a_node10"><a xlink:href="../../d5/d8e/vcubicbezier__p_8h.html" target="_top" xlink:title=" ">
<polygon fill="white" stroke="black" points="3823,-67.5 3823,-97.5 3930,-97.5 3930,-67.5 3823,-67.5"/>
<text text-anchor="start" x="3831" y="-85.5" font-family="Helvetica,sans-Serif" font-size="10.00">src/libs/vgeometry</text>
<text text-anchor="middle" x="3876.5" y="-74.5" font-family="Helvetica,sans-Serif" font-size="10.00">/vcubicbezier_p.h</text>
</a>
</g>
</g>
<!-- Node4&#45;&gt;Node10 -->
<g id="edge10" class="edge">
<title>Node4&#45;&gt;Node10</title>
<path fill="none" stroke="midnightblue" d="M2861.24,-138.66C2875.5,-136.87 2890.48,-135.19 2904.5,-134 3307.81,-99.75 3413.4,-152.33 3814.5,-98 3817.24,-97.63 3820.03,-97.19 3822.85,-96.71"/>
<polygon fill="midnightblue" stroke="midnightblue" points="2860.47,-135.23 2851,-139.98 2861.37,-142.17 2860.47,-135.23"/>
</g>
<!-- Node12 -->
<g id="node12" class="node">
<title>Node12</title>
<g id="a_node12"><a xlink:href="../../df/dde/vellipticalarc__p_8h.html" target="_top" xlink:title=" ">
<polygon fill="white" stroke="black" points="3948,-67.5 3948,-97.5 4055,-97.5 4055,-67.5 3948,-67.5"/>
<text text-anchor="start" x="3956" y="-85.5" font-family="Helvetica,sans-Serif" font-size="10.00">src/libs/vgeometry</text>
<text text-anchor="middle" x="4001.5" y="-74.5" font-family="Helvetica,sans-Serif" font-size="10.00">/vellipticalarc_p.h</text>
</a>
</g>
</g>
<!-- Node4&#45;&gt;Node12 -->
<g id="edge12" class="edge">
<title>Node4&#45;&gt;Node12</title>
<path fill="none" stroke="midnightblue" d="M2861,-138.64C2875.33,-136.84 2890.39,-135.16 2904.5,-134 3363.22,-96.15 3483.24,-158.7 3939.5,-98 3942.24,-97.64 3945.04,-97.2 3947.85,-96.72"/>
<polygon fill="midnightblue" stroke="midnightblue" points="2860.18,-135.22 2850.71,-139.97 2861.08,-142.16 2860.18,-135.22"/>
</g>
<!-- Node13 -->
<g id="node13" class="node">
<title>Node13</title>
<g id="a_node13"><a xlink:href="../../d6/dfb/vellipticalarc_8cpp.html" target="_top" xlink:title=" ">
<polygon fill="white" stroke="black" points="3968,-0.5 3968,-30.5 4075,-30.5 4075,-0.5 3968,-0.5"/>
<text text-anchor="start" x="3976" y="-18.5" font-family="Helvetica,sans-Serif" font-size="10.00">src/libs/vgeometry</text>
<text text-anchor="middle" x="4021.5" y="-7.5" font-family="Helvetica,sans-Serif" font-size="10.00">/vellipticalarc.cpp</text>
</a>
</g>
</g>
<!-- Node4&#45;&gt;Node13 -->
<g id="edge14" class="edge">
<title>Node4&#45;&gt;Node13</title>
<path fill="none" stroke="midnightblue" d="M2860.76,-138.63C2875.16,-136.82 2890.31,-135.14 2904.5,-134 2968.77,-128.82 4019.62,-144.29 4064.5,-98 4083.65,-78.24 4057.66,-48.24 4038.54,-30.68"/>
<polygon fill="midnightblue" stroke="midnightblue" points="2859.89,-135.21 2850.42,-139.97 2860.79,-142.15 2859.89,-135.21"/>
</g>
<!-- Node14 -->
<g id="node14" class="node">
<title>Node14</title>
<g id="a_node14"><a xlink:href="../../d1/d76/vspline__p_8h.html" target="_top" xlink:title=" ">
<polygon fill="white" stroke="black" points="4112,-67.5 4112,-97.5 4219,-97.5 4219,-67.5 4112,-67.5"/>
<text text-anchor="start" x="4120" y="-85.5" font-family="Helvetica,sans-Serif" font-size="10.00">src/libs/vgeometry</text>
<text text-anchor="middle" x="4165.5" y="-74.5" font-family="Helvetica,sans-Serif" font-size="10.00">/vspline_p.h</text>
</a>
</g>
</g>
<!-- Node4&#45;&gt;Node14 -->
<g id="edge15" class="edge">
<title>Node4&#45;&gt;Node14</title>
<path fill="none" stroke="midnightblue" d="M2860.1,-138.7C2874.7,-136.86 2890.1,-135.16 2904.5,-134 3433.27,-91.59 3570.86,-161.57 4097.5,-98 4102.17,-97.44 4107,-96.71 4111.83,-95.88"/>
<polygon fill="midnightblue" stroke="midnightblue" points="2859.61,-135.24 2850.14,-139.99 2860.51,-142.18 2859.61,-135.24"/>
</g>
<!-- Node16 -->
<g id="node16" class="node">
<title>Node16</title>
<g id="a_node16"><a xlink:href="../../d9/d15/vabstractpiece_8cpp.html" target="_top" xlink:title=" ">
<polygon fill="white" stroke="black" points="4237.5,-73 4237.5,-92 4423.5,-92 4423.5,-73 4237.5,-73"/>
<text text-anchor="middle" x="4330.5" y="-80" font-family="Helvetica,sans-Serif" font-size="10.00">src/libs/vlayout/vabstractpiece.cpp</text>
</a>
</g>
</g>
<!-- Node4&#45;&gt;Node16 -->
<g id="edge17" class="edge">
<title>Node4&#45;&gt;Node16</title>
<path fill="none" stroke="midnightblue" d="M2859.86,-138.7C2874.53,-136.85 2890.02,-135.14 2904.5,-134 3491.35,-87.81 3641.92,-147.51 4228.5,-98 4244.9,-96.62 4262.68,-94.35 4278.74,-92.02"/>
<polygon fill="midnightblue" stroke="midnightblue" points="2859.32,-135.24 2849.85,-140 2860.22,-142.18 2859.32,-135.24"/>
</g>
<!-- Node17 -->
<g id="node17" class="node">
<title>Node17</title>
<g id="a_node17"><a xlink:href="../../d8/d70/vtextmanager_8cpp.html" target="_top" xlink:title=" ">
<polygon fill="white" stroke="black" points="4441.5,-73 4441.5,-92 4623.5,-92 4623.5,-73 4441.5,-73"/>
<text text-anchor="middle" x="4532.5" y="-80" font-family="Helvetica,sans-Serif" font-size="10.00">src/libs/vlayout/vtextmanager.cpp</text>
</a>
</g>
</g>
<!-- Node4&#45;&gt;Node17 -->
<g id="edge19" class="edge">
<title>Node4&#45;&gt;Node17</title>
<path fill="none" stroke="midnightblue" d="M2859.61,-138.69C2874.36,-136.83 2889.94,-135.12 2904.5,-134 3581.8,-81.93 3755.58,-154.84 4432.5,-98 4448.67,-96.64 4466.21,-94.37 4482.02,-92.03"/>
<polygon fill="midnightblue" stroke="midnightblue" points="2859.03,-135.24 2849.56,-140 2859.93,-142.18 2859.03,-135.24"/>
</g>
<!-- Node18 -->
<g id="node18" class="node">
<title>Node18</title>
<g id="a_node18"><a xlink:href="../../db/d65/dialogexporttocsv_8cpp.html" target="_top" xlink:title=" ">
<polygon fill="white" stroke="black" points="4642,-67.5 4642,-97.5 4769,-97.5 4769,-67.5 4642,-67.5"/>
<text text-anchor="start" x="4650" y="-85.5" font-family="Helvetica,sans-Serif" font-size="10.00">src/libs/vmisc/dialogs</text>
<text text-anchor="middle" x="4705.5" y="-74.5" font-family="Helvetica,sans-Serif" font-size="10.00">/dialogexporttocsv.cpp</text>
</a>
</g>
</g>
<!-- Node4&#45;&gt;Node18 -->
<g id="edge20" class="edge">
<title>Node4&#45;&gt;Node18</title>
<path fill="none" stroke="midnightblue" d="M2859.61,-138.66C2874.36,-136.8 2889.94,-135.1 2904.5,-134 3670.49,-76.16 3868.85,-181.15 4632.5,-98 4635.58,-97.66 4638.73,-97.26 4641.9,-96.81"/>
<polygon fill="midnightblue" stroke="midnightblue" points="2859.03,-135.21 2849.56,-139.97 2859.93,-142.15 2859.03,-135.21"/>
</g>
<!-- Node19 -->
<g id="node19" class="node">
<title>Node19</title>
<g id="a_node19"><a xlink:href="../../d6/d0b/def_8cpp.html" target="_top" xlink:title=" ">
<polygon fill="white" stroke="black" points="4787.5,-73 4787.5,-92 4909.5,-92 4909.5,-73 4787.5,-73"/>
<text text-anchor="middle" x="4848.5" y="-80" font-family="Helvetica,sans-Serif" font-size="10.00">src/libs/vmisc/def.cpp</text>
</a>
</g>
</g>
<!-- Node4&#45;&gt;Node19 -->
<g id="edge21" class="edge">
<title>Node4&#45;&gt;Node19</title>
<path fill="none" stroke="midnightblue" d="M2859.37,-138.67C2874.19,-136.81 2889.86,-135.09 2904.5,-134 3319.86,-102.98 4364.58,-144.44 4778.5,-98 4790.09,-96.7 4802.61,-94.4 4813.81,-92.01"/>
<polygon fill="midnightblue" stroke="midnightblue" points="2858.74,-135.23 2849.28,-139.99 2859.64,-142.17 2858.74,-135.23"/>
</g>
<!-- Node20 -->
<g id="node20" class="node">
<title>Node20</title>
<g id="a_node20"><a xlink:href="../../d0/df6/vabstractapplication_8cpp.html" target="_top" xlink:title=" ">
<polygon fill="white" stroke="black" points="4927.5,-73 4927.5,-92 5133.5,-92 5133.5,-73 4927.5,-73"/>
<text text-anchor="middle" x="5030.5" y="-80" font-family="Helvetica,sans-Serif" font-size="10.00">src/libs/vmisc/vabstractapplication.cpp</text>
</a>
</g>
</g>
<!-- Node4&#45;&gt;Node20 -->
<g id="edge22" class="edge">
<title>Node4&#45;&gt;Node20</title>
<path fill="none" stroke="midnightblue" d="M2859.37,-138.66C2874.18,-136.79 2889.85,-135.08 2904.5,-134 3797.31,-67.92 4025.65,-163.57 4918.5,-98 4936.69,-96.66 4956.44,-94.39 4974.22,-92.03"/>
<polygon fill="midnightblue" stroke="midnightblue" points="2858.74,-135.21 2849.27,-139.97 2859.64,-142.15 2858.74,-135.21"/>
</g>
<!-- Node21 -->
<g id="node21" class="node">
<title>Node21</title>
<g id="a_node21"><a xlink:href="../../d4/d4f/pmsystems_8cpp.html" target="_top" xlink:title=" ">
<polygon fill="white" stroke="black" points="1127,-67.5 1127,-97.5 1234,-97.5 1234,-67.5 1127,-67.5"/>
<text text-anchor="start" x="1135" y="-85.5" font-family="Helvetica,sans-Serif" font-size="10.00">src/libs/vpatterndb</text>
<text text-anchor="middle" x="1180.5" y="-74.5" font-family="Helvetica,sans-Serif" font-size="10.00">/pmsystems.cpp</text>
</a>
</g>
</g>
<!-- Node4&#45;&gt;Node21 -->
<g id="edge23" class="edge">
<title>Node4&#45;&gt;Node21</title>
<path fill="none" stroke="midnightblue" d="M2717.53,-138.85C2700.13,-136.95 2681.7,-135.18 2664.5,-134 2033.79,-90.65 1869.57,-178.4 1242.5,-98 1239.76,-97.65 1236.96,-97.23 1234.15,-96.75"/>
<polygon fill="midnightblue" stroke="midnightblue" points="2717.32,-142.35 2727.64,-139.98 2718.09,-135.39 2717.32,-142.35"/>
</g>
<!-- Node4&#45;&gt;Node22 -->
<g id="edge24" class="edge">
<title>Node4&#45;&gt;Node22</title>
<path fill="none" stroke="midnightblue" d="M2685.63,-146.45C2236.65,-137.87 536.8,-104.99 481.5,-98 478.76,-97.65 475.96,-97.24 473.14,-96.77"/>
<polygon fill="midnightblue" stroke="midnightblue" points="2685.62,-149.95 2695.68,-146.64 2685.75,-142.95 2685.62,-149.95"/>
</g>
<!-- Node23 -->
<g id="node23" class="node">
<title>Node23</title>
<g id="a_node23"><a xlink:href="../../d6/d46/vcontainer_8cpp.html" target="_top" xlink:title=" ">
<polygon fill="white" stroke="black" points="1252,-67.5 1252,-97.5 1359,-97.5 1359,-67.5 1252,-67.5"/>
<text text-anchor="start" x="1260" y="-85.5" font-family="Helvetica,sans-Serif" font-size="10.00">src/libs/vpatterndb</text>
<text text-anchor="middle" x="1305.5" y="-74.5" font-family="Helvetica,sans-Serif" font-size="10.00">/vcontainer.cpp</text>
</a>
</g>
</g>
<!-- Node4&#45;&gt;Node23 -->
<g id="edge25" class="edge">
<title>Node4&#45;&gt;Node23</title>
<path fill="none" stroke="midnightblue" d="M2717.25,-138.85C2699.93,-136.96 2681.6,-135.2 2664.5,-134 2089.24,-93.76 1939.39,-172.04 1367.5,-98 1364.76,-97.65 1361.96,-97.22 1359.15,-96.75"/>
<polygon fill="midnightblue" stroke="midnightblue" points="2716.98,-142.35 2727.31,-139.98 2717.76,-135.39 2716.98,-142.35"/>
</g>
<!-- Node4&#45;&gt;Node24 -->
<g id="edge26" class="edge">
<title>Node4&#45;&gt;Node24</title>
<path fill="none" stroke="midnightblue" d="M2685.6,-145.04C2586.52,-141.92 2435.63,-137.33 2304.5,-134 1927.2,-124.41 980.95,-145.23 606.5,-98 603.76,-97.65 600.96,-97.24 598.14,-96.77"/>
<polygon fill="midnightblue" stroke="midnightblue" points="2685.52,-148.54 2695.63,-145.35 2685.74,-141.54 2685.52,-148.54"/>
</g>
<!-- Node26 -->
<g id="node26" class="node">
<title>Node26</title>
<g id="a_node26"><a xlink:href="../../df/d7a/vpiece_8cpp.html" target="_top" xlink:title=" ">
<polygon fill="white" stroke="black" points="1377,-67.5 1377,-97.5 1484,-97.5 1484,-67.5 1377,-67.5"/>
<text text-anchor="start" x="1385" y="-85.5" font-family="Helvetica,sans-Serif" font-size="10.00">src/libs/vpatterndb</text>
<text text-anchor="middle" x="1430.5" y="-74.5" font-family="Helvetica,sans-Serif" font-size="10.00">/vpiece.cpp</text>
</a>
</g>
</g>
<!-- Node4&#45;&gt;Node26 -->
<g id="edge28" class="edge">
<title>Node4&#45;&gt;Node26</title>
<path fill="none" stroke="midnightblue" d="M2716.96,-138.86C2699.73,-136.98 2681.51,-135.22 2664.5,-134 2145.13,-96.89 2009.9,-164.71 1493.5,-98 1490.49,-97.61 1487.42,-97.14 1484.33,-96.62"/>
<polygon fill="midnightblue" stroke="midnightblue" points="2716.65,-142.35 2726.97,-139.98 2717.42,-135.39 2716.65,-142.35"/>
</g>
<!-- Node27 -->
<g id="node27" class="node">
<title>Node27</title>
<g id="a_node27"><a xlink:href="../../de/d3e/vtranslatevars_8cpp.html" target="_top" xlink:title=" ">
<polygon fill="white" stroke="black" points="1502.5,-67.5 1502.5,-97.5 1612.5,-97.5 1612.5,-67.5 1502.5,-67.5"/>
<text text-anchor="start" x="1510.5" y="-85.5" font-family="Helvetica,sans-Serif" font-size="10.00">src/libs/vpatterndb</text>
<text text-anchor="middle" x="1557.5" y="-74.5" font-family="Helvetica,sans-Serif" font-size="10.00">/vtranslatevars.cpp</text>
</a>
</g>
</g>
<!-- Node4&#45;&gt;Node27 -->
<g id="edge29" class="edge">
<title>Node4&#45;&gt;Node27</title>
<path fill="none" stroke="midnightblue" d="M2716.67,-138.88C2699.52,-137 2681.41,-135.24 2664.5,-134 2201.91,-100.07 2081.5,-157.51 1621.5,-98 1618.56,-97.62 1615.56,-97.17 1612.54,-96.66"/>
<polygon fill="midnightblue" stroke="midnightblue" points="2716.31,-142.36 2726.64,-139.99 2717.09,-135.4 2716.31,-142.36"/>
</g>
<!-- Node4&#45;&gt;Node28 -->
<g id="edge30" class="edge">
<title>Node4&#45;&gt;Node28</title>
<path fill="none" stroke="midnightblue" d="M2685.61,-142.77C2626.03,-139.77 2550.69,-136.27 2483.5,-134 2100.08,-121.04 1138.99,-138.56 757.5,-98 754.73,-97.71 751.91,-97.36 749.07,-96.98"/>
<polygon fill="midnightblue" stroke="midnightblue" points="2685.63,-146.27 2695.79,-143.28 2685.98,-139.28 2685.63,-146.27"/>
</g>
<!-- Node29 -->
<g id="node29" class="node">
<title>Node29</title>
<g id="a_node29"><a xlink:href="../../d3/d4f/mouse__coordinates_8cpp.html" target="_top" xlink:title=" ">
<polygon fill="white" stroke="black" points="1630.5,-67.5 1630.5,-97.5 1764.5,-97.5 1764.5,-67.5 1630.5,-67.5"/>
<text text-anchor="start" x="1638.5" y="-85.5" font-family="Helvetica,sans-Serif" font-size="10.00">src/libs/vwidgets/mouse</text>
<text text-anchor="middle" x="1697.5" y="-74.5" font-family="Helvetica,sans-Serif" font-size="10.00">_coordinates.cpp</text>
</a>
</g>
</g>
<!-- Node4&#45;&gt;Node29 -->
<g id="edge31" class="edge">
<title>Node4&#45;&gt;Node29</title>
<path fill="none" stroke="midnightblue" d="M2715.62,-138.84C2698.78,-137 2681.06,-135.26 2664.5,-134 2269.33,-103.85 2167.23,-143.26 1773.5,-98 1770.56,-97.66 1767.57,-97.28 1764.55,-96.85"/>
<polygon fill="midnightblue" stroke="midnightblue" points="2715.64,-142.36 2725.97,-139.99 2716.41,-135.4 2715.64,-142.36"/>
</g>
<!-- Node4&#45;&gt;Node30 -->
<g id="edge32" class="edge">
<title>Node4&#45;&gt;Node30</title>
<path fill="none" stroke="midnightblue" d="M2685.74,-139.76C2655.29,-137.56 2622.11,-135.42 2591.5,-134 2217.38,-116.59 1278.87,-138.16 906.5,-98 903.77,-97.71 900.98,-97.36 898.18,-96.98"/>
<polygon fill="midnightblue" stroke="midnightblue" points="2685.72,-143.26 2695.95,-140.5 2686.23,-136.28 2685.72,-143.26"/>
</g>
<!-- Node31 -->
<g id="node31" class="node">
<title>Node31</title>
<g id="a_node31"><a xlink:href="../../d8/d76/scene__rect_8cpp.html" target="_top" xlink:title=" ">
<polygon fill="white" stroke="black" points="1782.5,-67.5 1782.5,-97.5 1912.5,-97.5 1912.5,-67.5 1782.5,-67.5"/>
<text text-anchor="start" x="1790.5" y="-85.5" font-family="Helvetica,sans-Serif" font-size="10.00">src/libs/vwidgets/scene</text>
<text text-anchor="middle" x="1847.5" y="-74.5" font-family="Helvetica,sans-Serif" font-size="10.00">_rect.cpp</text>
</a>
</g>
</g>
<!-- Node4&#45;&gt;Node31 -->
<g id="edge33" class="edge">
<title>Node4&#45;&gt;Node31</title>
<path fill="none" stroke="midnightblue" d="M2714.76,-138.84C2698.18,-137.04 2680.78,-135.31 2664.5,-134 2334.95,-107.52 2249.69,-137.89 1921.5,-98 1918.64,-97.65 1915.73,-97.26 1912.79,-96.83"/>
<polygon fill="midnightblue" stroke="midnightblue" points="2714.63,-142.35 2724.96,-139.98 2715.4,-135.39 2714.63,-142.35"/>
</g>
<!-- Node32 -->
<g id="node32" class="node">
<title>Node32</title>
<g id="a_node32"><a xlink:href="../../d7/d1b/pen__toolbar_8cpp.html" target="_top" xlink:title=" ">
<polygon fill="white" stroke="black" points="1931,-67.5 1931,-97.5 2050,-97.5 2050,-67.5 1931,-67.5"/>
<text text-anchor="start" x="1939" y="-85.5" font-family="Helvetica,sans-Serif" font-size="10.00">src/libs/vwidgets/pen</text>
<text text-anchor="middle" x="1990.5" y="-74.5" font-family="Helvetica,sans-Serif" font-size="10.00">_toolbar.cpp</text>
</a>
</g>
</g>
<!-- Node4&#45;&gt;Node32 -->
<g id="edge34" class="edge">
<title>Node4&#45;&gt;Node32</title>
<path fill="none" stroke="midnightblue" d="M2713.61,-138.86C2697.37,-137.08 2680.4,-135.36 2664.5,-134 2395.68,-110.92 2325.86,-134.24 2058.5,-98 2055.75,-97.63 2052.94,-97.2 2050.11,-96.74"/>
<polygon fill="midnightblue" stroke="midnightblue" points="2713.28,-142.34 2723.6,-139.97 2714.05,-135.38 2713.28,-142.34"/>
</g>
<!-- Node33 -->
<g id="node33" class="node">
<title>Node33</title>
<g id="a_node33"><a xlink:href="../../dd/df6/vabstractmainwindow_8cpp.html" target="_top" xlink:title=" ">
<polygon fill="white" stroke="black" points="2068,-73 2068,-92 2297,-92 2297,-73 2068,-73"/>
<text text-anchor="middle" x="2182.5" y="-80" font-family="Helvetica,sans-Serif" font-size="10.00">src/libs/vwidgets/vabstractmainwindow.cpp</text>
</a>
</g>
</g>
<!-- Node4&#45;&gt;Node33 -->
<g id="edge35" class="edge">
<title>Node4&#45;&gt;Node33</title>
<path fill="none" stroke="midnightblue" d="M2708.99,-138.86C2694.17,-137.21 2678.88,-135.53 2664.5,-134 2505.49,-117.07 2465.48,-115.29 2306.5,-98 2289.37,-96.14 2270.92,-94.03 2253.62,-92.02"/>
<polygon fill="midnightblue" stroke="midnightblue" points="2708.84,-142.36 2719.16,-139.99 2709.61,-135.4 2708.84,-142.36"/>
</g>
<!-- Node4&#45;&gt;Node34 -->
<g id="edge36" class="edge">
<title>Node4&#45;&gt;Node34</title>
<path fill="none" stroke="midnightblue" d="M2717.82,-138.86C2700.34,-136.95 2681.79,-135.17 2664.5,-134 1978.33,-87.54 1803.03,-153.13 1117.5,-98 1100.53,-96.64 1082.12,-94.36 1065.52,-92.02"/>
<polygon fill="midnightblue" stroke="midnightblue" points="2717.65,-142.36 2727.98,-140 2718.43,-135.4 2717.65,-142.36"/>
</g>
<!-- Node35 -->
<g id="node35" class="node">
<title>Node35</title>
<g id="a_node35"><a xlink:href="../../de/dec/vgraphicssimpletextitem_8cpp.html" target="_top" xlink:title=" ">
<polygon fill="white" stroke="black" points="2315.5,-73 2315.5,-92 2559.5,-92 2559.5,-73 2315.5,-73"/>
<text text-anchor="middle" x="2437.5" y="-80" font-family="Helvetica,sans-Serif" font-size="10.00">src/libs/vwidgets/vgraphicssimpletextitem.cpp</text>
</a>
</g>
</g>
<!-- Node4&#45;&gt;Node35 -->
<g id="edge37" class="edge">
<title>Node4&#45;&gt;Node35</title>
<path fill="none" stroke="midnightblue" d="M2736.63,-138.12C2666.66,-125.34 2549.19,-103.89 2484.23,-92.03"/>
<polygon fill="midnightblue" stroke="midnightblue" points="2736.13,-141.58 2746.59,-139.94 2737.38,-134.7 2736.13,-141.58"/>
</g>
<!-- Node4&#45;&gt;Node36 -->
<g id="edge38" class="edge">
<title>Node4&#45;&gt;Node36</title>
<path fill="none" stroke="midnightblue" d="M2859.13,-138.67C2874.01,-136.79 2889.78,-135.08 2904.5,-134 3896.65,-61.45 4150.02,-165.76 5142.5,-98 5161.97,-96.67 5183.13,-94.39 5202.18,-92.03"/>
<polygon fill="midnightblue" stroke="midnightblue" points="2858.45,-135.23 2848.99,-139.99 2859.36,-142.17 2858.45,-135.23"/>
</g>
<!-- Node37 -->
<g id="node37" class="node">
<title>Node37</title>
<g id="a_node37"><a xlink:href="../../de/d45/vcontrolpointspline_8cpp.html" target="_top" xlink:title=" ">
<polygon fill="white" stroke="black" points="2578,-73 2578,-92 2793,-92 2793,-73 2578,-73"/>
<text text-anchor="middle" x="2685.5" y="-80" font-family="Helvetica,sans-Serif" font-size="10.00">src/libs/vwidgets/vcontrolpointspline.cpp</text>
</a>
</g>
</g>
<!-- Node4&#45;&gt;Node37 -->
<g id="edge39" class="edge">
<title>Node4&#45;&gt;Node37</title>
<path fill="none" stroke="midnightblue" d="M2770.14,-134.44C2748.75,-121.57 2717.78,-102.93 2699.83,-92.13"/>
<polygon fill="midnightblue" stroke="midnightblue" points="2768.56,-137.58 2778.93,-139.73 2772.17,-131.58 2768.56,-137.58"/>
</g>
<!-- Node38 -->
<g id="node38" class="node">
<title>Node38</title>
<g id="a_node38"><a xlink:href="../../d0/d5d/vscenepoint_8cpp.html" target="_top" xlink:title=" ">
<polygon fill="white" stroke="black" points="2811,-73 2811,-92 2992,-92 2992,-73 2811,-73"/>
<text text-anchor="middle" x="2901.5" y="-80" font-family="Helvetica,sans-Serif" font-size="10.00">src/libs/vwidgets/vscenepoint.cpp</text>
</a>
</g>
</g>
<!-- Node4&#45;&gt;Node38 -->
<g id="edge40" class="edge">
<title>Node4&#45;&gt;Node38</title>
<path fill="none" stroke="midnightblue" d="M2816.86,-134.44C2838.25,-121.57 2869.22,-102.93 2887.17,-92.13"/>
<polygon fill="midnightblue" stroke="midnightblue" points="2814.83,-131.58 2808.07,-139.73 2818.44,-137.58 2814.83,-131.58"/>
</g>
<!-- Node39 -->
<g id="node39" class="node">
<title>Node39</title>
<g id="a_node39"><a xlink:href="../../de/d22/vsimplecurve_8cpp.html" target="_top" xlink:title=" ">
<polygon fill="white" stroke="black" points="3010.5,-73 3010.5,-92 3198.5,-92 3198.5,-73 3010.5,-73"/>
<text text-anchor="middle" x="3104.5" y="-80" font-family="Helvetica,sans-Serif" font-size="10.00">src/libs/vwidgets/vsimplecurve.cpp</text>
</a>
</g>
</g>
<!-- Node4&#45;&gt;Node39 -->
<g id="edge41" class="edge">
<title>Node4&#45;&gt;Node39</title>
<path fill="none" stroke="midnightblue" d="M2844.3,-137.88C2905.46,-125.1 3006.98,-103.88 3063.43,-92.08"/>
<polygon fill="midnightblue" stroke="midnightblue" points="2843.55,-134.46 2834.48,-139.94 2844.98,-141.32 2843.55,-134.46"/>
</g>
<!-- Node40 -->
<g id="node40" class="node">
<title>Node40</title>
<g id="a_node40"><a xlink:href="../../df/d38/vsimplepoint_8cpp.html" target="_top" xlink:title=" ">
<polygon fill="white" stroke="black" points="3217,-73 3217,-92 3402,-92 3402,-73 3217,-73"/>
<text text-anchor="middle" x="3309.5" y="-80" font-family="Helvetica,sans-Serif" font-size="10.00">src/libs/vwidgets/vsimplepoint.cpp</text>
</a>
</g>
</g>
<!-- Node4&#45;&gt;Node40 -->
<g id="edge42" class="edge">
<title>Node4&#45;&gt;Node40</title>
<path fill="none" stroke="midnightblue" d="M2867.92,-138.66C2880.14,-137.08 2892.67,-135.48 2904.5,-134 3039.07,-117.22 3073.03,-115.54 3207.5,-98 3221.69,-96.15 3236.97,-94.04 3251.28,-92.01"/>
<polygon fill="midnightblue" stroke="midnightblue" points="2867.22,-135.22 2857.76,-139.98 2868.12,-142.16 2867.22,-135.22"/>
</g>
<!-- Node4&#45;&gt;Node41 -->
<g id="edge43" class="edge">
<title>Node4&#45;&gt;Node41</title>
<path fill="none" stroke="midnightblue" d="M2878.57,-139C2899.45,-137.01 2921.76,-135.16 2942.5,-134 4025.37,-73.42 4300.6,-173.95 5382.5,-98 5401.27,-96.68 5421.67,-94.39 5440,-92.02"/>
<polygon fill="midnightblue" stroke="midnightblue" points="2878.06,-135.54 2868.44,-139.99 2878.74,-142.5 2878.06,-135.54"/>
</g>
<!-- Node4&#45;&gt;Node42 -->
<g id="edge44" class="edge">
<title>Node4&#45;&gt;Node42</title>
<path fill="none" stroke="midnightblue" d="M2898.24,-139.2C2925.04,-137.14 2953.82,-135.22 2980.5,-134 4149.17,-80.75 4445.36,-178.06 5612.5,-98 5631.59,-96.69 5652.35,-94.4 5671,-92.03"/>
<polygon fill="midnightblue" stroke="midnightblue" points="2897.78,-135.72 2888.08,-139.99 2898.32,-142.7 2897.78,-135.72"/>
</g>
<!-- Node7 -->
<g id="node7" class="node">
<title>Node7</title>
<g id="a_node7"><a xlink:href="../../d4/da1/vabstractarc_8cpp.html" target="_top" xlink:title=" ">
<polygon fill="white" stroke="black" points="3573,-0.5 3573,-30.5 3680,-30.5 3680,-0.5 3573,-0.5"/>
<text text-anchor="start" x="3581" y="-18.5" font-family="Helvetica,sans-Serif" font-size="10.00">src/libs/vgeometry</text>
<text text-anchor="middle" x="3626.5" y="-7.5" font-family="Helvetica,sans-Serif" font-size="10.00">/vabstractarc.cpp</text>
</a>
</g>
</g>
<!-- Node6&#45;&gt;Node7 -->
<g id="edge7" class="edge">
<title>Node6&#45;&gt;Node7</title>
<path fill="none" stroke="midnightblue" d="M3626.5,-57.11C3626.5,-48.15 3626.5,-38.32 3626.5,-30.58"/>
<polygon fill="midnightblue" stroke="midnightblue" points="3623,-57.4 3626.5,-67.4 3630,-57.4 3623,-57.4"/>
</g>
<!-- Node9 -->
<g id="node9" class="node">
<title>Node9</title>
<g id="a_node9"><a xlink:href="../../d5/ded/varc_8cpp.html" target="_top" xlink:title=" ">
<polygon fill="white" stroke="black" points="3698,-0.5 3698,-30.5 3805,-30.5 3805,-0.5 3698,-0.5"/>
<text text-anchor="start" x="3706" y="-18.5" font-family="Helvetica,sans-Serif" font-size="10.00">src/libs/vgeometry</text>
<text text-anchor="middle" x="3751.5" y="-7.5" font-family="Helvetica,sans-Serif" font-size="10.00">/varc.cpp</text>
</a>
</g>
</g>
<!-- Node8&#45;&gt;Node9 -->
<g id="edge9" class="edge">
<title>Node8&#45;&gt;Node9</title>
<path fill="none" stroke="midnightblue" d="M3751.5,-57.11C3751.5,-48.15 3751.5,-38.32 3751.5,-30.58"/>
<polygon fill="midnightblue" stroke="midnightblue" points="3748,-57.4 3751.5,-67.4 3755,-57.4 3748,-57.4"/>
</g>
<!-- Node11 -->
<g id="node11" class="node">
<title>Node11</title>
<g id="a_node11"><a xlink:href="../../d2/d26/vcubicbezier_8cpp.html" target="_top" xlink:title=" ">
<polygon fill="white" stroke="black" points="3823,-0.5 3823,-30.5 3930,-30.5 3930,-0.5 3823,-0.5"/>
<text text-anchor="start" x="3831" y="-18.5" font-family="Helvetica,sans-Serif" font-size="10.00">src/libs/vgeometry</text>
<text text-anchor="middle" x="3876.5" y="-7.5" font-family="Helvetica,sans-Serif" font-size="10.00">/vcubicbezier.cpp</text>
</a>
</g>
</g>
<!-- Node10&#45;&gt;Node11 -->
<g id="edge11" class="edge">
<title>Node10&#45;&gt;Node11</title>
<path fill="none" stroke="midnightblue" d="M3876.5,-57.11C3876.5,-48.15 3876.5,-38.32 3876.5,-30.58"/>
<polygon fill="midnightblue" stroke="midnightblue" points="3873,-57.4 3876.5,-67.4 3880,-57.4 3873,-57.4"/>
</g>
<!-- Node12&#45;&gt;Node13 -->
<g id="edge13" class="edge">
<title>Node12&#45;&gt;Node13</title>
<path fill="none" stroke="midnightblue" d="M4008.82,-57.7C4011.63,-48.59 4014.73,-38.49 4017.17,-30.58"/>
<polygon fill="midnightblue" stroke="midnightblue" points="4005.44,-56.81 4005.84,-67.4 4012.13,-58.87 4005.44,-56.81"/>
</g>
<!-- Node15 -->
<g id="node15" class="node">
<title>Node15</title>
<g id="a_node15"><a xlink:href="../../d5/dd2/vspline_8cpp.html" target="_top" xlink:title=" ">
<polygon fill="white" stroke="black" points="4112,-0.5 4112,-30.5 4219,-30.5 4219,-0.5 4112,-0.5"/>
<text text-anchor="start" x="4120" y="-18.5" font-family="Helvetica,sans-Serif" font-size="10.00">src/libs/vgeometry</text>
<text text-anchor="middle" x="4165.5" y="-7.5" font-family="Helvetica,sans-Serif" font-size="10.00">/vspline.cpp</text>
</a>
</g>
</g>
<!-- Node14&#45;&gt;Node15 -->
<g id="edge16" class="edge">
<title>Node14&#45;&gt;Node15</title>
<path fill="none" stroke="midnightblue" d="M4165.5,-57.11C4165.5,-48.15 4165.5,-38.32 4165.5,-30.58"/>
<polygon fill="midnightblue" stroke="midnightblue" points="4162,-57.4 4165.5,-67.4 4169,-57.4 4162,-57.4"/>
</g>
<!-- Node25 -->
<g id="node25" class="node">
<title>Node25</title>
<g id="a_node25"><a xlink:href="../../d8/dba/vpiecenode_8cpp.html" target="_top" xlink:title=" ">
<polygon fill="white" stroke="black" points="491,-0.5 491,-30.5 598,-30.5 598,-0.5 491,-0.5"/>
<text text-anchor="start" x="499" y="-18.5" font-family="Helvetica,sans-Serif" font-size="10.00">src/libs/vpatterndb</text>
<text text-anchor="middle" x="544.5" y="-7.5" font-family="Helvetica,sans-Serif" font-size="10.00">/vpiecenode.cpp</text>
</a>
</g>
</g>
<!-- Node24&#45;&gt;Node25 -->
<g id="edge27" class="edge">
<title>Node24&#45;&gt;Node25</title>
<path fill="none" stroke="midnightblue" d="M544.5,-57.11C544.5,-48.15 544.5,-38.32 544.5,-30.58"/>
<polygon fill="midnightblue" stroke="midnightblue" points="541,-57.4 544.5,-67.4 548,-57.4 541,-57.4"/>
</g>
<!-- Node44 -->
<g id="node44" class="node">
<title>Node44</title>
<g id="a_node44"><a xlink:href="../../df/dba/vseamlymesettings_8cpp.html" target="_top" xlink:title=" ">
<polygon fill="white" stroke="black" points="3437,-140 3437,-159 3640,-159 3640,-140 3437,-140"/>
<text text-anchor="middle" x="3538.5" y="-147" font-family="Helvetica,sans-Serif" font-size="10.00">src/libs/vmisc/vseamlymesettings.cpp</text>
</a>
</g>
</g>
<!-- Node43&#45;&gt;Node44 -->
<g id="edge46" class="edge">
<title>Node43&#45;&gt;Node44</title>
<path fill="none" stroke="midnightblue" d="M3323.8,-199.26C3374.62,-187.72 3454.37,-169.61 3501.03,-159.01"/>
<polygon fill="midnightblue" stroke="midnightblue" points="3323.01,-195.85 3314.04,-201.48 3324.57,-202.67 3323.01,-195.85"/>
</g>
<!-- Node45&#45;&gt;Node4 -->
<g id="edge51" class="edge">
<title>Node45&#45;&gt;Node4</title>
<path fill="none" stroke="midnightblue" d="M3039.6,-199.47C2981.66,-187.94 2889.84,-169.67 2836.26,-159.01"/>
<polygon fill="midnightblue" stroke="midnightblue" points="3039.17,-202.96 3049.66,-201.48 3040.54,-196.09 3039.17,-202.96"/>
</g>
<!-- Node45&#45;&gt;Node42 -->
<g id="edge53" class="edge">
<title>Node45&#45;&gt;Node42</title>
<path fill="none" stroke="midnightblue" d="M3091.58,-191.04C3091.87,-173.2 3095.5,-147.3 3112.5,-134 3167.2,-91.2 5543.21,-102.78 5612.5,-98 5631.59,-96.68 5652.35,-94.39 5671,-92.02"/>
<polygon fill="midnightblue" stroke="midnightblue" points="3088.09,-191.21 3091.76,-201.15 3095.08,-191.09 3088.09,-191.21"/>
</g>
<!-- Node46 -->
<g id="node46" class="node">
<title>Node46</title>
<g id="a_node46"><a xlink:href="../../d9/d02/vapplication_8h.html" target="_top" xlink:title=" ">
<polygon fill="white" stroke="red" points="3121,-134.5 3121,-164.5 3248,-164.5 3248,-134.5 3121,-134.5"/>
<text text-anchor="start" x="3129" y="-152.5" font-family="Helvetica,sans-Serif" font-size="10.00">src/app/seamly2d/core</text>
<text text-anchor="middle" x="3184.5" y="-141.5" font-family="Helvetica,sans-Serif" font-size="10.00">/vapplication.h</text>
</a>
</g>
</g>
<!-- Node45&#45;&gt;Node46 -->
<g id="edge48" class="edge">
<title>Node45&#45;&gt;Node46</title>
<path fill="none" stroke="midnightblue" d="M3114.13,-196.01C3128.81,-186.52 3148.13,-174.02 3162.82,-164.52"/>
<polygon fill="midnightblue" stroke="midnightblue" points="3112.18,-193.11 3105.68,-201.48 3115.98,-198.98 3112.18,-193.11"/>
</g>
<!-- Node69 -->
<g id="node49" class="node">
<title>Node69</title>
<g id="a_node49"><a xlink:href="../../db/d28/vsettings_8cpp.html" target="_top" xlink:title=" ">
<polygon fill="white" stroke="black" points="3266.5,-140 3266.5,-159 3418.5,-159 3418.5,-140 3266.5,-140"/>
<text text-anchor="middle" x="3342.5" y="-147" font-family="Helvetica,sans-Serif" font-size="10.00">src/libs/vmisc/vsettings.cpp</text>
</a>
</g>
</g>
<!-- Node45&#45;&gt;Node69 -->
<g id="edge52" class="edge">
<title>Node45&#45;&gt;Node69</title>
<path fill="none" stroke="midnightblue" d="M3138.24,-199.11C3186.76,-187.57 3262.41,-169.56 3306.75,-159.01"/>
<polygon fill="midnightblue" stroke="midnightblue" points="3137.24,-195.75 3128.32,-201.48 3138.86,-202.56 3137.24,-195.75"/>
</g>
<!-- Node47 -->
<g id="node47" class="node">
<title>Node47</title>
<g id="a_node47"><a xlink:href="../../d3/dd8/vapplication_8cpp.html" target="_top" xlink:title=" ">
<polygon fill="white" stroke="black" points="6020,-67.5 6020,-97.5 6147,-97.5 6147,-67.5 6020,-67.5"/>
<text text-anchor="start" x="6028" y="-85.5" font-family="Helvetica,sans-Serif" font-size="10.00">src/app/seamly2d/core</text>
<text text-anchor="middle" x="6083.5" y="-74.5" font-family="Helvetica,sans-Serif" font-size="10.00">/vapplication.cpp</text>
</a>
</g>
</g>
<!-- Node46&#45;&gt;Node47 -->
<g id="edge49" class="edge">
<title>Node46&#45;&gt;Node47</title>
<path fill="none" stroke="midnightblue" d="M3258.13,-134.12C3882.46,-71.11 5405.28,-161.52 6010.5,-98 6013.58,-97.68 6016.73,-97.29 6019.9,-96.84"/>
<polygon fill="midnightblue" stroke="midnightblue" points="3257.69,-130.65 3248.1,-135.16 3258.4,-137.61 3257.69,-130.65"/>
</g>
<!-- Node48 -->
<g id="node48" class="node">
<title>Node48</title>
<g id="a_node48"><a xlink:href="../../dd/db4/abstractlayout__dialog_8cpp.html" target="_top" xlink:title=" ">
<polygon fill="white" stroke="black" points="5855.5,-67.5 5855.5,-97.5 6001.5,-97.5 6001.5,-67.5 5855.5,-67.5"/>
<text text-anchor="start" x="5863.5" y="-85.5" font-family="Helvetica,sans-Serif" font-size="10.00">src/app/seamly2d/dialogs</text>
<text text-anchor="middle" x="5928.5" y="-74.5" font-family="Helvetica,sans-Serif" font-size="10.00">/abstractlayout_dialog.cpp</text>
</a>
</g>
</g>
<!-- Node46&#45;&gt;Node48 -->
<g id="edge50" class="edge">
<title>Node46&#45;&gt;Node48</title>
<path fill="none" stroke="midnightblue" d="M3258.41,-134.09C3846.61,-74.62 5277.03,-151.95 5846.5,-98 5849.38,-97.73 5852.31,-97.41 5855.26,-97.05"/>
<polygon fill="midnightblue" stroke="midnightblue" points="3257.68,-130.65 3248.1,-135.16 3258.4,-137.61 3257.68,-130.65"/>
</g>
</g>
</svg>
