<?xml version="1.0" encoding="UTF-8" standalone="no"?>
<!DOCTYPE svg PUBLIC "-//W3C//DTD SVG 1.1//EN"
 "http://www.w3.org/Graphics/SVG/1.1/DTD/svg11.dtd">
<!-- Generated by graphviz version 2.43.0 (0)
 -->
<!-- Title: src/libs/vmisc/vcommonsettings.h Pages: 1 -->
<svg width="6980pt" height="285pt"
 viewBox="0.00 0.00 6979.50 285.00" xmlns="http://www.w3.org/2000/svg" xmlns:xlink="http://www.w3.org/1999/xlink">
<g id="graph0" class="graph" transform="scale(1 1) rotate(0) translate(4 281)">
<title>src/libs/vmisc/vcommonsettings.h</title>
<polygon fill="white" stroke="transparent" points="-4,4 -4,-281 6975.5,-281 6975.5,4 -4,4"/>
<!-- Node1 -->
<g id="node1" class="node">
<title>Node1</title>
<g id="a_node1"><a xlink:title=" ">
<polygon fill="#bfbfbf" stroke="black" points="3727,-257.5 3727,-276.5 3910,-276.5 3910,-257.5 3727,-257.5"/>
<text text-anchor="middle" x="3818.5" y="-264.5" font-family="Helvetica,sans-Serif" font-size="10.00">src/libs/vmisc/vcommonsettings.h</text>
</a>
</g>
</g>
<!-- Node2 -->
<g id="node2" class="node">
<title>Node2</title>
<g id="a_node2"><a xlink:href="../../d4/d90/fvupdater_8cpp.html" target="_top" xlink:title=" ">
<polygon fill="white" stroke="black" points="0,-73 0,-92 153,-92 153,-73 0,-73"/>
<text text-anchor="middle" x="76.5" y="-80" font-family="Helvetica,sans-Serif" font-size="10.00">src/libs/fervor/fvupdater.cpp</text>
</a>
</g>
</g>
<!-- Node1&#45;&gt;Node2 -->
<g id="edge1" class="edge">
<title>Node1&#45;&gt;Node2</title>
<path fill="none" stroke="midnightblue" d="M3716.66,-265.75C3330.33,-264.13 1918.57,-252.23 759.5,-165 492.81,-144.93 426.31,-135.39 161.5,-98 149.2,-96.26 135.94,-94.13 123.63,-92.04"/>
<polygon fill="midnightblue" stroke="midnightblue" points="3716.68,-269.25 3726.69,-265.79 3716.71,-262.25 3716.68,-269.25"/>
</g>
<!-- Node3 -->
<g id="node3" class="node">
<title>Node3</title>
<g id="a_node3"><a xlink:href="../../dd/d70/vlayoutpiece_8cpp.html" target="_top" xlink:title=" ">
<polygon fill="white" stroke="black" points="171,-73 171,-92 348,-92 348,-73 171,-73"/>
<text text-anchor="middle" x="259.5" y="-80" font-family="Helvetica,sans-Serif" font-size="10.00">src/libs/vlayout/vlayoutpiece.cpp</text>
</a>
</g>
</g>
<!-- Node1&#45;&gt;Node3 -->
<g id="edge2" class="edge">
<title>Node1&#45;&gt;Node3</title>
<path fill="none" stroke="midnightblue" d="M3716.67,-262.1C3523.55,-254.64 3090.78,-237.6 2726.5,-221 1672.84,-173 1405.87,-204.36 356.5,-98 341.42,-96.47 325.11,-94.25 310.23,-92.01"/>
<polygon fill="midnightblue" stroke="midnightblue" points="3716.68,-265.6 3726.81,-262.49 3716.95,-258.61 3716.68,-265.6"/>
</g>
<!-- Node4 -->
<g id="node4" class="node">
<title>Node4</title>
<g id="a_node4"><a xlink:href="../../d4/d11/vcommonsettings_8cpp.html" target="_top" xlink:title=" ">
<polygon fill="white" stroke="black" points="4168.5,-201.5 4168.5,-220.5 4362.5,-220.5 4362.5,-201.5 4168.5,-201.5"/>
<text text-anchor="middle" x="4265.5" y="-208.5" font-family="Helvetica,sans-Serif" font-size="10.00">src/libs/vmisc/vcommonsettings.cpp</text>
</a>
</g>
</g>
<!-- Node1&#45;&gt;Node4 -->
<g id="edge3" class="edge">
<title>Node1&#45;&gt;Node4</title>
<path fill="none" stroke="midnightblue" d="M3899.38,-256.23C3983.76,-246.04 4114.71,-230.22 4195,-220.52"/>
<polygon fill="midnightblue" stroke="midnightblue" points="3898.84,-252.77 3889.33,-257.44 3899.68,-259.72 3898.84,-252.77"/>
</g>
<!-- Node5 -->
<g id="node5" class="node">
<title>Node5</title>
<g id="a_node5"><a xlink:href="../../df/da4/vseamlymesettings_8h.html" target="_top" xlink:title=" ">
<polygon fill="white" stroke="black" points="5614.5,-201.5 5614.5,-220.5 5806.5,-220.5 5806.5,-201.5 5614.5,-201.5"/>
<text text-anchor="middle" x="5710.5" y="-208.5" font-family="Helvetica,sans-Serif" font-size="10.00">src/libs/vmisc/vseamlymesettings.h</text>
</a>
</g>
</g>
<!-- Node1&#45;&gt;Node5 -->
<g id="edge4" class="edge">
<title>Node1&#45;&gt;Node5</title>
<path fill="none" stroke="midnightblue" d="M3920.11,-263.1C4250.55,-253.67 5291.87,-223.95 5614.34,-214.74"/>
<polygon fill="midnightblue" stroke="midnightblue" points="3919.97,-259.6 3910.07,-263.39 3920.17,-266.6 3919.97,-259.6"/>
</g>
<!-- Node7 -->
<g id="node7" class="node">
<title>Node7</title>
<g id="a_node7"><a xlink:href="../../dd/db2/vsettings_8h.html" target="_top" xlink:title=" ">
<polygon fill="white" stroke="black" points="3928.5,-201.5 3928.5,-220.5 4068.5,-220.5 4068.5,-201.5 3928.5,-201.5"/>
<text text-anchor="middle" x="3998.5" y="-208.5" font-family="Helvetica,sans-Serif" font-size="10.00">src/libs/vmisc/vsettings.h</text>
</a>
</g>
</g>
<!-- Node1&#45;&gt;Node7 -->
<g id="edge6" class="edge">
<title>Node1&#45;&gt;Node7</title>
<path fill="none" stroke="midnightblue" d="M3856.61,-254.57C3890.56,-244.38 3939.49,-229.7 3970.11,-220.52"/>
<polygon fill="midnightblue" stroke="midnightblue" points="3855.59,-251.22 3847.02,-257.44 3857.61,-257.92 3855.59,-251.22"/>
</g>
<!-- Node32 -->
<g id="node16" class="node">
<title>Node32</title>
<g id="a_node16"><a xlink:href="../../d5/d74/vabstractapplication_8h.html" target="_top" xlink:title=" ">
<polygon fill="white" stroke="black" points="2979,-140 2979,-159 3174,-159 3174,-140 2979,-140"/>
<text text-anchor="middle" x="3076.5" y="-147" font-family="Helvetica,sans-Serif" font-size="10.00">src/libs/vmisc/vabstractapplication.h</text>
</a>
</g>
</g>
<!-- Node1&#45;&gt;Node32 -->
<g id="edge54" class="edge">
<title>Node1&#45;&gt;Node32</title>
<path fill="none" stroke="midnightblue" d="M3753.62,-255.9C3609.62,-233.49 3265.46,-179.91 3131.33,-159.04"/>
<polygon fill="midnightblue" stroke="midnightblue" points="3753.22,-259.38 3763.64,-257.46 3754.29,-252.46 3753.22,-259.38"/>
</g>
<!-- Node50 -->
<g id="node30" class="node">
<title>Node50</title>
<g id="a_node30"><a xlink:href="../../db/d11/vformula_8cpp.html" target="_top" xlink:title=" ">
<polygon fill="white" stroke="black" points="366,-67.5 366,-97.5 473,-97.5 473,-67.5 366,-67.5"/>
<text text-anchor="start" x="374" y="-85.5" font-family="Helvetica,sans-Serif" font-size="10.00">src/libs/vpatterndb</text>
<text text-anchor="middle" x="419.5" y="-74.5" font-family="Helvetica,sans-Serif" font-size="10.00">/vformula.cpp</text>
</a>
</g>
</g>
<!-- Node1&#45;&gt;Node50 -->
<g id="edge55" class="edge">
<title>Node1&#45;&gt;Node50</title>
<path fill="none" stroke="midnightblue" d="M3716.81,-260.18C3568.53,-251.69 3284.31,-235.33 3042.5,-221 2403.34,-183.13 2244.1,-163.59 1604.5,-134 1105.67,-110.92 976.6,-163.18 481.5,-98 478.76,-97.64 475.96,-97.21 473.15,-96.73"/>
<polygon fill="midnightblue" stroke="midnightblue" points="3716.63,-263.68 3726.81,-260.76 3717.03,-256.69 3716.63,-263.68"/>
</g>
<!-- Node52 -->
<g id="node32" class="node">
<title>Node52</title>
<g id="a_node32"><a xlink:href="../../df/dba/vpiecenode__p_8h.html" target="_top" xlink:title=" ">
<polygon fill="white" stroke="black" points="491,-67.5 491,-97.5 598,-97.5 598,-67.5 491,-67.5"/>
<text text-anchor="start" x="499" y="-85.5" font-family="Helvetica,sans-Serif" font-size="10.00">src/libs/vpatterndb</text>
<text text-anchor="middle" x="544.5" y="-74.5" font-family="Helvetica,sans-Serif" font-size="10.00">/vpiecenode_p.h</text>
</a>
</g>
</g>
<!-- Node1&#45;&gt;Node52 -->
<g id="edge56" class="edge">
<title>Node1&#45;&gt;Node52</title>
<path fill="none" stroke="midnightblue" d="M3716.65,-258.48C3601.69,-249.89 3409.1,-235.18 3243.5,-221 3035.36,-203.18 2516.06,-145.88 2307.5,-134 1930.03,-112.49 981.61,-145.31 606.5,-98 603.76,-97.65 600.96,-97.24 598.14,-96.77"/>
<polygon fill="midnightblue" stroke="midnightblue" points="3716.61,-261.99 3726.85,-259.24 3717.14,-255.01 3716.61,-261.99"/>
</g>
<!-- Node56 -->
<g id="node36" class="node">
<title>Node56</title>
<g id="a_node36"><a xlink:href="../../df/d40/export__format__combobox_8cpp.html" target="_top" xlink:title=" ">
<polygon fill="white" stroke="black" points="616,-67.5 616,-97.5 749,-97.5 749,-67.5 616,-67.5"/>
<text text-anchor="start" x="624" y="-85.5" font-family="Helvetica,sans-Serif" font-size="10.00">src/libs/vwidgets/export</text>
<text text-anchor="middle" x="682.5" y="-74.5" font-family="Helvetica,sans-Serif" font-size="10.00">_format_combobox.cpp</text>
</a>
</g>
</g>
<!-- Node1&#45;&gt;Node56 -->
<g id="edge57" class="edge">
<title>Node1&#45;&gt;Node56</title>
<path fill="none" stroke="midnightblue" d="M3726.05,-256.42C3641.12,-247.54 3511.79,-233.8 3399.5,-221 3239.15,-202.72 2839.5,-145.19 2678.5,-134 1827.07,-74.8 1607.4,-186.29 758.5,-98 755.43,-97.68 752.29,-97.3 749.13,-96.88"/>
<polygon fill="midnightblue" stroke="midnightblue" points="3725.87,-259.92 3736.18,-257.48 3726.6,-252.96 3725.87,-259.92"/>
</g>
<!-- Node61 -->
<g id="node41" class="node">
<title>Node61</title>
<g id="a_node41"><a xlink:href="../../d1/d90/vgrainlineitem_8cpp.html" target="_top" xlink:title=" ">
<polygon fill="white" stroke="black" points="4794,-73 4794,-92 4987,-92 4987,-73 4794,-73"/>
<text text-anchor="middle" x="4890.5" y="-80" font-family="Helvetica,sans-Serif" font-size="10.00">src/libs/vwidgets/vgrainlineitem.cpp</text>
</a>
</g>
</g>
<!-- Node1&#45;&gt;Node61 -->
<g id="edge58" class="edge">
<title>Node1&#45;&gt;Node61</title>
<path fill="none" stroke="midnightblue" d="M3815.42,-247.03C3811.88,-217.76 3810.19,-162.03 3842.5,-134 3882.06,-99.68 4732.33,-102.55 4784.5,-98 4801.25,-96.54 4819.4,-94.3 4835.87,-92.01"/>
<polygon fill="midnightblue" stroke="midnightblue" points="3811.99,-247.75 3816.86,-257.17 3818.92,-246.78 3811.99,-247.75"/>
</g>
<!-- Node63 -->
<g id="node43" class="node">
<title>Node63</title>
<g id="a_node43"><a xlink:href="../../d1/d88/vmaingraphicsscene_8cpp.html" target="_top" xlink:title=" ">
<polygon fill="white" stroke="black" points="5005.5,-73 5005.5,-92 5227.5,-92 5227.5,-73 5005.5,-73"/>
<text text-anchor="middle" x="5116.5" y="-80" font-family="Helvetica,sans-Serif" font-size="10.00">src/libs/vwidgets/vmaingraphicsscene.cpp</text>
</a>
</g>
</g>
<!-- Node1&#45;&gt;Node63 -->
<g id="edge59" class="edge">
<title>Node1&#45;&gt;Node63</title>
<path fill="none" stroke="midnightblue" d="M3824.49,-247.55C3835.64,-214.49 3860.26,-147.32 3880.5,-134 3932.27,-99.93 4933.7,-102.69 4995.5,-98 5014.59,-96.55 5035.31,-94.31 5054.11,-92.03"/>
<polygon fill="midnightblue" stroke="midnightblue" points="3821.07,-246.74 3821.25,-257.33 3827.72,-248.94 3821.07,-246.74"/>
</g>
<!-- Node64 -->
<g id="node44" class="node">
<title>Node64</title>
<g id="a_node44"><a xlink:href="../../d2/d31/vmaingraphicsview_8cpp.html" target="_top" xlink:title=" ">
<polygon fill="white" stroke="black" points="5245.5,-73 5245.5,-92 5461.5,-92 5461.5,-73 5245.5,-73"/>
<text text-anchor="middle" x="5353.5" y="-80" font-family="Helvetica,sans-Serif" font-size="10.00">src/libs/vwidgets/vmaingraphicsview.cpp</text>
</a>
</g>
</g>
<!-- Node1&#45;&gt;Node64 -->
<g id="edge60" class="edge">
<title>Node1&#45;&gt;Node64</title>
<path fill="none" stroke="midnightblue" d="M3831.2,-249.49C3837.65,-241.02 3845.57,-230.52 3852.5,-221 3880.29,-182.82 3871.91,-156.36 3913.5,-134 3978.26,-99.19 5163.18,-103.53 5236.5,-98 5255.18,-96.59 5275.45,-94.34 5293.79,-92.02"/>
<polygon fill="midnightblue" stroke="midnightblue" points="3828.41,-247.37 3825.11,-257.44 3833.97,-251.63 3828.41,-247.37"/>
</g>
<!-- Node69 -->
<g id="node49" class="node">
<title>Node69</title>
<g id="a_node49"><a xlink:href="../../df/df5/vtextgraphicsitem_8cpp.html" target="_top" xlink:title=" ">
<polygon fill="white" stroke="black" points="5480,-73 5480,-92 5691,-92 5691,-73 5480,-73"/>
<text text-anchor="middle" x="5585.5" y="-80" font-family="Helvetica,sans-Serif" font-size="10.00">src/libs/vwidgets/vtextgraphicsitem.cpp</text>
</a>
</g>
</g>
<!-- Node1&#45;&gt;Node69 -->
<g id="edge61" class="edge">
<title>Node1&#45;&gt;Node69</title>
<path fill="none" stroke="midnightblue" d="M3883.96,-255.87C3936.46,-247.45 4011.95,-234.67 4077.5,-221 4114.22,-213.34 4122.46,-206.93 4159.5,-201 4736.61,-108.57 4889.07,-157.46 5470.5,-98 5487.32,-96.28 5505.48,-94.13 5522.29,-92.01"/>
<polygon fill="midnightblue" stroke="midnightblue" points="3883.1,-252.47 3873.78,-257.5 3884.2,-259.38 3883.1,-252.47"/>
</g>
<!-- Node6 -->
<g id="node6" class="node">
<title>Node6</title>
<g id="a_node6"><a xlink:href="../../df/dba/vseamlymesettings_8cpp.html" target="_top" xlink:title=" ">
<polygon fill="white" stroke="black" points="6165,-140 6165,-159 6368,-159 6368,-140 6165,-140"/>
<text text-anchor="middle" x="6266.5" y="-147" font-family="Helvetica,sans-Serif" font-size="10.00">src/libs/vmisc/vseamlymesettings.cpp</text>
</a>
</g>
</g>
<!-- Node5&#45;&gt;Node6 -->
<g id="edge5" class="edge">
<title>Node5&#45;&gt;Node6</title>
<path fill="none" stroke="midnightblue" d="M5813.25,-200.53C5903.71,-191.98 6038.96,-178.67 6156.5,-165 6172,-163.2 6188.7,-161.08 6204.3,-159.04"/>
<polygon fill="midnightblue" stroke="midnightblue" points="5812.9,-197.05 5803.27,-201.47 5813.55,-204.02 5812.9,-197.05"/>
</g>
<!-- Node8 -->
<g id="node8" class="node">
<title>Node8</title>
<g id="a_node8"><a xlink:href="../../d9/d02/vapplication_8h.html" target="_top" xlink:title=" ">
<polygon fill="white" stroke="red" points="6020,-134.5 6020,-164.5 6147,-164.5 6147,-134.5 6020,-134.5"/>
<text text-anchor="start" x="6028" y="-152.5" font-family="Helvetica,sans-Serif" font-size="10.00">src/app/seamly2d/core</text>
<text text-anchor="middle" x="6083.5" y="-141.5" font-family="Helvetica,sans-Serif" font-size="10.00">/vapplication.h</text>
</a>
</g>
</g>
<!-- Node7&#45;&gt;Node8 -->
<g id="edge7" class="edge">
<title>Node7&#45;&gt;Node8</title>
<path fill="none" stroke="midnightblue" d="M4078.72,-205.05C4104.5,-203.58 4133.2,-202.08 4159.5,-201 4890.24,-170.99 5777.87,-155.38 6019.95,-151.48"/>
<polygon fill="midnightblue" stroke="midnightblue" points="4078.4,-201.56 4068.61,-205.63 4078.8,-208.55 4078.4,-201.56"/>
</g>
<!-- Node7&#45;&gt;Node32 -->
<g id="edge15" class="edge">
<title>Node7&#45;&gt;Node32</title>
<path fill="none" stroke="midnightblue" d="M3918.38,-204.83C3749.5,-193.93 3357.51,-168.63 3174.24,-156.81"/>
<polygon fill="midnightblue" stroke="midnightblue" points="3918.24,-208.33 3928.44,-205.48 3918.69,-201.34 3918.24,-208.33"/>
</g>
<!-- Node7&#45;&gt;Node64 -->
<g id="edge53" class="edge">
<title>Node7&#45;&gt;Node64</title>
<path fill="none" stroke="midnightblue" d="M4025.8,-196.75C4042.74,-188.24 4064.77,-176.64 4083.5,-165 4103.51,-152.57 4104.2,-141.6 4126.5,-134 4243.3,-94.19 5113.48,-107.6 5236.5,-98 5255.07,-96.55 5275.22,-94.3 5293.48,-92"/>
<polygon fill="midnightblue" stroke="midnightblue" points="4023.88,-193.8 4016.48,-201.38 4026.99,-200.07 4023.88,-193.8"/>
</g>
<!-- Node70 -->
<g id="node50" class="node">
<title>Node70</title>
<g id="a_node50"><a xlink:href="../../db/d28/vsettings_8cpp.html" target="_top" xlink:title=" ">
<polygon fill="white" stroke="black" points="3922.5,-140 3922.5,-159 4074.5,-159 4074.5,-140 3922.5,-140"/>
<text text-anchor="middle" x="3998.5" y="-147" font-family="Helvetica,sans-Serif" font-size="10.00">src/libs/vmisc/vsettings.cpp</text>
</a>
</g>
</g>
<!-- Node7&#45;&gt;Node70 -->
<g id="edge52" class="edge">
<title>Node7&#45;&gt;Node70</title>
<path fill="none" stroke="midnightblue" d="M3998.5,-191.32C3998.5,-180.5 3998.5,-167.4 3998.5,-159.01"/>
<polygon fill="midnightblue" stroke="midnightblue" points="3995,-191.48 3998.5,-201.48 4002,-191.48 3995,-191.48"/>
</g>
<!-- Node9 -->
<g id="node9" class="node">
<title>Node9</title>
<g id="a_node9"><a xlink:href="../../d3/dd8/vapplication_8cpp.html" target="_top" xlink:title=" ">
<polygon fill="white" stroke="black" points="5868,-67.5 5868,-97.5 5995,-97.5 5995,-67.5 5868,-67.5"/>
<text text-anchor="start" x="5876" y="-85.5" font-family="Helvetica,sans-Serif" font-size="10.00">src/app/seamly2d/core</text>
<text text-anchor="middle" x="5931.5" y="-74.5" font-family="Helvetica,sans-Serif" font-size="10.00">/vapplication.cpp</text>
</a>
</g>
</g>
<!-- Node8&#45;&gt;Node9 -->
<g id="edge8" class="edge">
<title>Node8&#45;&gt;Node9</title>
<path fill="none" stroke="midnightblue" d="M6041.19,-130.41C6016.92,-120.03 5986.91,-107.2 5964.42,-97.58"/>
<polygon fill="midnightblue" stroke="midnightblue" points="6039.95,-133.68 6050.52,-134.4 6042.7,-127.25 6039.95,-133.68"/>
</g>
<!-- Node10 -->
<g id="node10" class="node">
<title>Node10</title>
<g id="a_node10"><a xlink:href="../../d7/dfa/calculator__dialog_8cpp.html" target="_top" xlink:title=" ">
<polygon fill="white" stroke="black" points="6013,-67.5 6013,-97.5 6154,-97.5 6154,-67.5 6013,-67.5"/>
<text text-anchor="start" x="6021" y="-85.5" font-family="Helvetica,sans-Serif" font-size="10.00">src/app/seamly2d/dialogs</text>
<text text-anchor="middle" x="6083.5" y="-74.5" font-family="Helvetica,sans-Serif" font-size="10.00">/calculator_dialog.cpp</text>
</a>
</g>
</g>
<!-- Node8&#45;&gt;Node10 -->
<g id="edge9" class="edge">
<title>Node8&#45;&gt;Node10</title>
<path fill="none" stroke="midnightblue" d="M6083.5,-124.11C6083.5,-115.15 6083.5,-105.32 6083.5,-97.58"/>
<polygon fill="midnightblue" stroke="midnightblue" points="6080,-124.4 6083.5,-134.4 6087,-124.4 6080,-124.4"/>
</g>
<!-- Node11 -->
<g id="node11" class="node">
<title>Node11</title>
<g id="a_node11"><a xlink:href="../../dc/d20/preferencespathpage_8cpp.html" target="_top" xlink:title=" ">
<polygon fill="white" stroke="black" points="6172,-67.5 6172,-97.5 6377,-97.5 6377,-67.5 6172,-67.5"/>
<text text-anchor="start" x="6180" y="-85.5" font-family="Helvetica,sans-Serif" font-size="10.00">src/app/seamly2d/dialogs</text>
<text text-anchor="middle" x="6274.5" y="-74.5" font-family="Helvetica,sans-Serif" font-size="10.00">/configpages/preferencespathpage.cpp</text>
</a>
</g>
</g>
<!-- Node8&#45;&gt;Node11 -->
<g id="edge10" class="edge">
<title>Node8&#45;&gt;Node11</title>
<path fill="none" stroke="midnightblue" d="M6134.65,-131.09C6165.49,-120.6 6204.25,-107.41 6233.14,-97.58"/>
<polygon fill="midnightblue" stroke="midnightblue" points="6133.28,-127.86 6124.94,-134.4 6135.54,-134.49 6133.28,-127.86"/>
</g>
<!-- Node12 -->
<g id="node12" class="node">
<title>Node12</title>
<g id="a_node12"><a xlink:href="../../dc/d63/preferencespatternpage_8cpp.html" target="_top" xlink:title=" ">
<polygon fill="white" stroke="black" points="6395.5,-67.5 6395.5,-97.5 6613.5,-97.5 6613.5,-67.5 6395.5,-67.5"/>
<text text-anchor="start" x="6403.5" y="-85.5" font-family="Helvetica,sans-Serif" font-size="10.00">src/app/seamly2d/dialogs</text>
<text text-anchor="middle" x="6504.5" y="-74.5" font-family="Helvetica,sans-Serif" font-size="10.00">/configpages/preferencespatternpage.cpp</text>
</a>
</g>
</g>
<!-- Node8&#45;&gt;Node12 -->
<g id="edge11" class="edge">
<title>Node8&#45;&gt;Node12</title>
<path fill="none" stroke="midnightblue" d="M6157.19,-133.94C6243.89,-119.18 6331.25,-106.62 6397.66,-97.54"/>
<polygon fill="midnightblue" stroke="midnightblue" points="6156.43,-130.51 6147.17,-135.65 6157.61,-137.41 6156.43,-130.51"/>
</g>
<!-- Node13 -->
<g id="node13" class="node">
<title>Node13</title>
<g id="a_node13"><a xlink:href="../../dd/dc2/decimalchart__dialog_8cpp.html" target="_top" xlink:title=" ">
<polygon fill="white" stroke="black" points="6632,-67.5 6632,-97.5 6773,-97.5 6773,-67.5 6632,-67.5"/>
<text text-anchor="start" x="6640" y="-85.5" font-family="Helvetica,sans-Serif" font-size="10.00">src/app/seamly2d/dialogs</text>
<text text-anchor="middle" x="6702.5" y="-74.5" font-family="Helvetica,sans-Serif" font-size="10.00">/decimalchart_dialog.cpp</text>
</a>
</g>
</g>
<!-- Node8&#45;&gt;Node13 -->
<g id="edge12" class="edge">
<title>Node8&#45;&gt;Node13</title>
<path fill="none" stroke="midnightblue" d="M6157.1,-134.04C6364.02,-106.29 6419.7,-124.14 6622.5,-98 6625.58,-97.6 6628.72,-97.17 6631.89,-96.7"/>
<polygon fill="midnightblue" stroke="midnightblue" points="6156.56,-130.58 6147.13,-135.4 6157.51,-137.52 6156.56,-130.58"/>
</g>
<!-- Node14 -->
<g id="node14" class="node">
<title>Node14</title>
<g id="a_node14"><a xlink:href="../../d2/d00/vtooloptionspropertybrowser_8cpp.html" target="_top" xlink:title=" ">
<polygon fill="white" stroke="black" points="6791.5,-67.5 6791.5,-97.5 6971.5,-97.5 6971.5,-67.5 6791.5,-67.5"/>
<text text-anchor="start" x="6799.5" y="-85.5" font-family="Helvetica,sans-Serif" font-size="10.00">src/app/seamly2d/core</text>
<text text-anchor="middle" x="6881.5" y="-74.5" font-family="Helvetica,sans-Serif" font-size="10.00">/vtooloptionspropertybrowser.cpp</text>
</a>
</g>
</g>
<!-- Node8&#45;&gt;Node14 -->
<g id="edge13" class="edge">
<title>Node8&#45;&gt;Node14</title>
<path fill="none" stroke="midnightblue" d="M6157.08,-134.07C6434.67,-99.4 6508.5,-125.89 6782.5,-98 6785.44,-97.7 6788.42,-97.38 6791.43,-97.03"/>
<polygon fill="midnightblue" stroke="midnightblue" points="6156.6,-130.6 6147.12,-135.32 6157.48,-137.54 6156.6,-130.6"/>
</g>
<!-- Node15 -->
<g id="node15" class="node">
<title>Node15</title>
<g id="a_node15"><a xlink:href="../../dd/d64/dialogaboutapp_8cpp.html" target="_top" xlink:title=" ">
<polygon fill="white" stroke="black" points="5709,-67.5 5709,-97.5 5850,-97.5 5850,-67.5 5709,-67.5"/>
<text text-anchor="start" x="5717" y="-85.5" font-family="Helvetica,sans-Serif" font-size="10.00">src/app/seamly2d/dialogs</text>
<text text-anchor="middle" x="5779.5" y="-74.5" font-family="Helvetica,sans-Serif" font-size="10.00">/dialogaboutapp.cpp</text>
</a>
</g>
</g>
<!-- Node8&#45;&gt;Node15 -->
<g id="edge14" class="edge">
<title>Node8&#45;&gt;Node15</title>
<path fill="none" stroke="midnightblue" d="M6009.93,-132.77C5959.6,-122.01 5893.48,-107.87 5844.98,-97.5"/>
<polygon fill="midnightblue" stroke="midnightblue" points="6009.26,-136.21 6019.77,-134.87 6010.72,-129.36 6009.26,-136.21"/>
</g>
<!-- Node32&#45;&gt;Node2 -->
<g id="edge16" class="edge">
<title>Node32&#45;&gt;Node2</title>
<path fill="none" stroke="midnightblue" d="M2968.56,-148.82C2510.09,-149.85 722.13,-150.37 161.5,-98 147.64,-96.71 132.63,-94.44 119.14,-92.07"/>
<polygon fill="midnightblue" stroke="midnightblue" points="2968.82,-152.32 2978.81,-148.8 2968.81,-145.32 2968.82,-152.32"/>
</g>
<!-- Node32&#45;&gt;Node3 -->
<g id="edge28" class="edge">
<title>Node32&#45;&gt;Node3</title>
<path fill="none" stroke="midnightblue" d="M2968.68,-147.33C2496.09,-142.07 619.45,-120 356.5,-98 340.72,-96.68 323.6,-94.41 308.2,-92.04"/>
<polygon fill="midnightblue" stroke="midnightblue" points="2968.87,-150.83 2978.91,-147.44 2968.95,-143.83 2968.87,-150.83"/>
</g>
<!-- Node33 -->
<g id="node17" class="node">
<title>Node33</title>
<g id="a_node17"><a xlink:href="../../d9/dc8/dxiface_8cpp.html" target="_top" xlink:title=" ">
<polygon fill="white" stroke="black" points="2558,-73 2558,-92 2693,-92 2693,-73 2558,-73"/>
<text text-anchor="middle" x="2625.5" y="-80" font-family="Helvetica,sans-Serif" font-size="10.00">src/libs/vdxf/dxiface.cpp</text>
</a>
</g>
</g>
<!-- Node32&#45;&gt;Node33 -->
<g id="edge17" class="edge">
<title>Node32&#45;&gt;Node33</title>
<path fill="none" stroke="midnightblue" d="M2994.43,-138.76C2918.33,-129.42 2802.03,-114.35 2701.5,-98 2690.63,-96.23 2678.92,-94.11 2668.03,-92.04"/>
<polygon fill="midnightblue" stroke="midnightblue" points="2994.09,-142.24 3004.44,-139.98 2994.94,-135.29 2994.09,-142.24"/>
</g>
<!-- Node34 -->
<g id="node18" class="node">
<title>Node34</title>
<g id="a_node18"><a xlink:href="../../da/d75/vabstractarc__p_8h.html" target="_top" xlink:title=" ">
<polygon fill="white" stroke="red" points="2711,-67.5 2711,-97.5 2818,-97.5 2818,-67.5 2711,-67.5"/>
<text text-anchor="start" x="2719" y="-85.5" font-family="Helvetica,sans-Serif" font-size="10.00">src/libs/vgeometry</text>
<text text-anchor="middle" x="2764.5" y="-74.5" font-family="Helvetica,sans-Serif" font-size="10.00">/vabstractarc_p.h</text>
</a>
</g>
</g>
<!-- Node32&#45;&gt;Node34 -->
<g id="edge18" class="edge">
<title>Node32&#45;&gt;Node34</title>
<path fill="none" stroke="midnightblue" d="M3022.07,-138C2971.36,-128.1 2893.69,-112.64 2826.5,-98 2823.8,-97.41 2821.04,-96.8 2818.25,-96.18"/>
<polygon fill="midnightblue" stroke="midnightblue" points="3021.67,-141.49 3032.16,-139.97 3023.01,-134.62 3021.67,-141.49"/>
</g>
<!-- Node36 -->
<g id="node19" class="node">
<title>Node36</title>
<g id="a_node19"><a xlink:href="../../dc/da3/varc__p_8h.html" target="_top" xlink:title=" ">
<polygon fill="white" stroke="red" points="2836,-67.5 2836,-97.5 2943,-97.5 2943,-67.5 2836,-67.5"/>
<text text-anchor="start" x="2844" y="-85.5" font-family="Helvetica,sans-Serif" font-size="10.00">src/libs/vgeometry</text>
<text text-anchor="middle" x="2889.5" y="-74.5" font-family="Helvetica,sans-Serif" font-size="10.00">/varc_p.h</text>
</a>
</g>
</g>
<!-- Node32&#45;&gt;Node36 -->
<g id="edge19" class="edge">
<title>Node32&#45;&gt;Node36</title>
<path fill="none" stroke="midnightblue" d="M3041.95,-136.49C3010.25,-125.47 2963.27,-109.14 2929.86,-97.53"/>
<polygon fill="midnightblue" stroke="midnightblue" points="3041.07,-139.89 3051.67,-139.87 3043.37,-133.28 3041.07,-139.89"/>
</g>
<!-- Node38 -->
<g id="node20" class="node">
<title>Node38</title>
<g id="a_node20"><a xlink:href="../../d5/d8e/vcubicbezier__p_8h.html" target="_top" xlink:title=" ">
<polygon fill="white" stroke="red" points="2961,-67.5 2961,-97.5 3068,-97.5 3068,-67.5 2961,-67.5"/>
<text text-anchor="start" x="2969" y="-85.5" font-family="Helvetica,sans-Serif" font-size="10.00">src/libs/vgeometry</text>
<text text-anchor="middle" x="3014.5" y="-74.5" font-family="Helvetica,sans-Serif" font-size="10.00">/vcubicbezier_p.h</text>
</a>
</g>
</g>
<!-- Node32&#45;&gt;Node38 -->
<g id="edge20" class="edge">
<title>Node32&#45;&gt;Node38</title>
<path fill="none" stroke="midnightblue" d="M3061.05,-132.3C3050.87,-121.63 3037.68,-107.8 3027.94,-97.59"/>
<polygon fill="midnightblue" stroke="midnightblue" points="3058.7,-134.91 3068.14,-139.73 3063.77,-130.08 3058.7,-134.91"/>
</g>
<!-- Node40 -->
<g id="node21" class="node">
<title>Node40</title>
<g id="a_node21"><a xlink:href="../../d6/dfb/vellipticalarc_8cpp.html" target="_top" xlink:title=" ">
<polygon fill="white" stroke="black" points="3127,-0.5 3127,-30.5 3234,-30.5 3234,-0.5 3127,-0.5"/>
<text text-anchor="start" x="3135" y="-18.5" font-family="Helvetica,sans-Serif" font-size="10.00">src/libs/vgeometry</text>
<text text-anchor="middle" x="3180.5" y="-7.5" font-family="Helvetica,sans-Serif" font-size="10.00">/vellipticalarc.cpp</text>
</a>
</g>
</g>
<!-- Node32&#45;&gt;Node40 -->
<g id="edge21" class="edge">
<title>Node32&#45;&gt;Node40</title>
<path fill="none" stroke="midnightblue" d="M3143.63,-137.04C3165.82,-129.71 3188.22,-117.69 3201.5,-98 3215.47,-77.29 3201.41,-47.88 3190.53,-30.64"/>
<polygon fill="midnightblue" stroke="midnightblue" points="3142.38,-133.76 3133.82,-139.99 3144.4,-140.46 3142.38,-133.76"/>
</g>
<!-- Node41 -->
<g id="node22" class="node">
<title>Node41</title>
<g id="a_node22"><a xlink:href="../../df/dde/vellipticalarc__p_8h.html" target="_top" xlink:title=" ">
<polygon fill="white" stroke="black" points="3086,-67.5 3086,-97.5 3193,-97.5 3193,-67.5 3086,-67.5"/>
<text text-anchor="start" x="3094" y="-85.5" font-family="Helvetica,sans-Serif" font-size="10.00">src/libs/vgeometry</text>
<text text-anchor="middle" x="3139.5" y="-74.5" font-family="Helvetica,sans-Serif" font-size="10.00">/vellipticalarc_p.h</text>
</a>
</g>
</g>
<!-- Node32&#45;&gt;Node41 -->
<g id="edge22" class="edge">
<title>Node32&#45;&gt;Node41</title>
<path fill="none" stroke="midnightblue" d="M3092.2,-132.3C3102.54,-121.63 3115.95,-107.8 3125.84,-97.59"/>
<polygon fill="midnightblue" stroke="midnightblue" points="3089.44,-130.12 3085,-139.73 3094.47,-134.99 3089.44,-130.12"/>
</g>
<!-- Node42 -->
<g id="node23" class="node">
<title>Node42</title>
<g id="a_node23"><a xlink:href="../../d1/d76/vspline__p_8h.html" target="_top" xlink:title=" ">
<polygon fill="white" stroke="red" points="3250,-67.5 3250,-97.5 3357,-97.5 3357,-67.5 3250,-67.5"/>
<text text-anchor="start" x="3258" y="-85.5" font-family="Helvetica,sans-Serif" font-size="10.00">src/libs/vgeometry</text>
<text text-anchor="middle" x="3303.5" y="-74.5" font-family="Helvetica,sans-Serif" font-size="10.00">/vspline_p.h</text>
</a>
</g>
</g>
<!-- Node32&#45;&gt;Node42 -->
<g id="edge24" class="edge">
<title>Node32&#45;&gt;Node42</title>
<path fill="none" stroke="midnightblue" d="M3116.46,-137.06C3154.95,-126.04 3213.24,-109.34 3254.51,-97.53"/>
<polygon fill="midnightblue" stroke="midnightblue" points="3115.29,-133.75 3106.64,-139.87 3117.22,-140.48 3115.29,-133.75"/>
</g>
<!-- Node44 -->
<g id="node24" class="node">
<title>Node44</title>
<g id="a_node24"><a xlink:href="../../d9/d15/vabstractpiece_8cpp.html" target="_top" xlink:title=" ">
<polygon fill="white" stroke="black" points="3375.5,-73 3375.5,-92 3561.5,-92 3561.5,-73 3375.5,-73"/>
<text text-anchor="middle" x="3468.5" y="-80" font-family="Helvetica,sans-Serif" font-size="10.00">src/libs/vlayout/vabstractpiece.cpp</text>
</a>
</g>
</g>
<!-- Node32&#45;&gt;Node44 -->
<g id="edge25" class="edge">
<title>Node32&#45;&gt;Node44</title>
<path fill="none" stroke="midnightblue" d="M3138.18,-138.27C3215.11,-125.52 3345.23,-103.94 3417.05,-92.03"/>
<polygon fill="midnightblue" stroke="midnightblue" points="3137.44,-134.85 3128.15,-139.94 3138.59,-141.75 3137.44,-134.85"/>
</g>
<!-- Node45 -->
<g id="node25" class="node">
<title>Node45</title>
<g id="a_node25"><a xlink:href="../../d8/d70/vtextmanager_8cpp.html" target="_top" xlink:title=" ">
<polygon fill="white" stroke="black" points="3579.5,-73 3579.5,-92 3761.5,-92 3761.5,-73 3579.5,-73"/>
<text text-anchor="middle" x="3670.5" y="-80" font-family="Helvetica,sans-Serif" font-size="10.00">src/libs/vlayout/vtextmanager.cpp</text>
</a>
</g>
</g>
<!-- Node32&#45;&gt;Node45 -->
<g id="edge26" class="edge">
<title>Node32&#45;&gt;Node45</title>
<path fill="none" stroke="midnightblue" d="M3181.92,-139.02C3282.03,-129.71 3436.7,-114.53 3570.5,-98 3584.86,-96.23 3600.35,-94.09 3614.76,-92.01"/>
<polygon fill="midnightblue" stroke="midnightblue" points="3181.43,-135.55 3171.8,-139.96 3182.08,-142.52 3181.43,-135.55"/>
</g>
<!-- Node46 -->
<g id="node26" class="node">
<title>Node46</title>
<g id="a_node26"><a xlink:href="../../db/d65/dialogexporttocsv_8cpp.html" target="_top" xlink:title=" ">
<polygon fill="white" stroke="black" points="3780,-67.5 3780,-97.5 3907,-97.5 3907,-67.5 3780,-67.5"/>
<text text-anchor="start" x="3788" y="-85.5" font-family="Helvetica,sans-Serif" font-size="10.00">src/libs/vmisc/dialogs</text>
<text text-anchor="middle" x="3843.5" y="-74.5" font-family="Helvetica,sans-Serif" font-size="10.00">/dialogexporttocsv.cpp</text>
</a>
</g>
</g>
<!-- Node32&#45;&gt;Node46 -->
<g id="edge27" class="edge">
<title>Node32&#45;&gt;Node46</title>
<path fill="none" stroke="midnightblue" d="M3184.08,-144.79C3320.86,-139.13 3564.07,-125.9 3770.5,-98 3773.57,-97.58 3776.71,-97.12 3779.88,-96.62"/>
<polygon fill="midnightblue" stroke="midnightblue" points="3183.86,-141.3 3174.01,-145.2 3184.15,-148.29 3183.86,-141.3"/>
</g>
<!-- Node47 -->
<g id="node27" class="node">
<title>Node47</title>
<g id="a_node27"><a xlink:href="../../d6/d0b/def_8cpp.html" target="_top" xlink:title=" ">
<polygon fill="white" stroke="black" points="3925.5,-73 3925.5,-92 4047.5,-92 4047.5,-73 3925.5,-73"/>
<text text-anchor="middle" x="3986.5" y="-80" font-family="Helvetica,sans-Serif" font-size="10.00">src/libs/vmisc/def.cpp</text>
</a>
</g>
</g>
<!-- Node32&#45;&gt;Node47 -->
<g id="edge29" class="edge">
<title>Node32&#45;&gt;Node47</title>
<path fill="none" stroke="midnightblue" d="M3184.47,-146.87C3344.67,-143.36 3654.48,-132.33 3915.5,-98 3926.73,-96.52 3938.83,-94.29 3949.82,-92.02"/>
<polygon fill="midnightblue" stroke="midnightblue" points="3184.06,-143.38 3174.14,-147.09 3184.21,-150.38 3184.06,-143.38"/>
</g>
<!-- Node48 -->
<g id="node28" class="node">
<title>Node48</title>
<g id="a_node28"><a xlink:href="../../d0/df6/vabstractapplication_8cpp.html" target="_top" xlink:title=" ">
<polygon fill="white" stroke="black" points="4065.5,-73 4065.5,-92 4271.5,-92 4271.5,-73 4065.5,-73"/>
<text text-anchor="middle" x="4168.5" y="-80" font-family="Helvetica,sans-Serif" font-size="10.00">src/libs/vmisc/vabstractapplication.cpp</text>
</a>
</g>
</g>
<!-- Node32&#45;&gt;Node48 -->
<g id="edge30" class="edge">
<title>Node32&#45;&gt;Node48</title>
<path fill="none" stroke="midnightblue" d="M3184.08,-145.68C3364.66,-140.32 3740.1,-126.59 4056.5,-98 4073.68,-96.45 4092.29,-94.25 4109.31,-92.03"/>
<polygon fill="midnightblue" stroke="midnightblue" points="3183.94,-142.18 3174.04,-145.97 3184.14,-149.17 3183.94,-142.18"/>
</g>
<!-- Node49 -->
<g id="node29" class="node">
<title>Node49</title>
<g id="a_node29"><a xlink:href="../../d4/d4f/pmsystems_8cpp.html" target="_top" xlink:title=" ">
<polygon fill="white" stroke="black" points="4290,-67.5 4290,-97.5 4397,-97.5 4397,-67.5 4290,-67.5"/>
<text text-anchor="start" x="4298" y="-85.5" font-family="Helvetica,sans-Serif" font-size="10.00">src/libs/vpatterndb</text>
<text text-anchor="middle" x="4343.5" y="-74.5" font-family="Helvetica,sans-Serif" font-size="10.00">/pmsystems.cpp</text>
</a>
</g>
</g>
<!-- Node32&#45;&gt;Node49 -->
<g id="edge31" class="edge">
<title>Node32&#45;&gt;Node49</title>
<path fill="none" stroke="midnightblue" d="M3184.52,-146.52C3438.99,-141.44 4070.5,-126.32 4280.5,-98 4283.5,-97.59 4286.57,-97.11 4289.66,-96.58"/>
<polygon fill="midnightblue" stroke="midnightblue" points="3184.08,-143.03 3174.15,-146.73 3184.22,-150.03 3184.08,-143.03"/>
</g>
<!-- Node32&#45;&gt;Node50 -->
<g id="edge32" class="edge">
<title>Node32&#45;&gt;Node50</title>
<path fill="none" stroke="midnightblue" d="M2968.41,-146.43C2478.43,-137.07 489.34,-98.98 481.5,-98 478.76,-97.66 475.96,-97.24 473.14,-96.77"/>
<polygon fill="midnightblue" stroke="midnightblue" points="2968.59,-149.94 2978.66,-146.63 2968.73,-142.94 2968.59,-149.94"/>
</g>
<!-- Node51 -->
<g id="node31" class="node">
<title>Node51</title>
<g id="a_node31"><a xlink:href="../../d6/d46/vcontainer_8cpp.html" target="_top" xlink:title=" ">
<polygon fill="white" stroke="black" points="4415,-67.5 4415,-97.5 4522,-97.5 4522,-67.5 4415,-67.5"/>
<text text-anchor="start" x="4423" y="-85.5" font-family="Helvetica,sans-Serif" font-size="10.00">src/libs/vpatterndb</text>
<text text-anchor="middle" x="4468.5" y="-74.5" font-family="Helvetica,sans-Serif" font-size="10.00">/vcontainer.cpp</text>
</a>
</g>
</g>
<!-- Node32&#45;&gt;Node51 -->
<g id="edge33" class="edge">
<title>Node32&#45;&gt;Node51</title>
<path fill="none" stroke="midnightblue" d="M3184.35,-147.02C3457.31,-142.85 4170.48,-129.23 4405.5,-98 4408.5,-97.6 4411.58,-97.12 4414.67,-96.59"/>
<polygon fill="midnightblue" stroke="midnightblue" points="3183.99,-143.52 3174.04,-147.18 3184.09,-150.52 3183.99,-143.52"/>
</g>
<!-- Node32&#45;&gt;Node52 -->
<g id="edge34" class="edge">
<title>Node32&#45;&gt;Node52</title>
<path fill="none" stroke="midnightblue" d="M2968.69,-144.02C2888.64,-140.82 2776.76,-136.64 2678.5,-134 2218.15,-121.62 1063.5,-154.76 606.5,-98 603.76,-97.66 600.96,-97.25 598.14,-96.78"/>
<polygon fill="midnightblue" stroke="midnightblue" points="2968.66,-147.52 2978.79,-144.42 2968.94,-140.52 2968.66,-147.52"/>
</g>
<!-- Node54 -->
<g id="node34" class="node">
<title>Node54</title>
<g id="a_node34"><a xlink:href="../../df/d7a/vpiece_8cpp.html" target="_top" xlink:title=" ">
<polygon fill="white" stroke="black" points="4540,-67.5 4540,-97.5 4647,-97.5 4647,-67.5 4540,-67.5"/>
<text text-anchor="start" x="4548" y="-85.5" font-family="Helvetica,sans-Serif" font-size="10.00">src/libs/vpatterndb</text>
<text text-anchor="middle" x="4593.5" y="-74.5" font-family="Helvetica,sans-Serif" font-size="10.00">/vpiece.cpp</text>
</a>
</g>
</g>
<!-- Node32&#45;&gt;Node54 -->
<g id="edge36" class="edge">
<title>Node32&#45;&gt;Node54</title>
<path fill="none" stroke="midnightblue" d="M3184.25,-145.95C3498.24,-138.35 4398.54,-115.32 4530.5,-98 4533.5,-97.61 4536.58,-97.13 4539.67,-96.6"/>
<polygon fill="midnightblue" stroke="midnightblue" points="3184.14,-142.45 3174.23,-146.19 3184.31,-149.45 3184.14,-142.45"/>
</g>
<!-- Node55 -->
<g id="node35" class="node">
<title>Node55</title>
<g id="a_node35"><a xlink:href="../../de/d3e/vtranslatevars_8cpp.html" target="_top" xlink:title=" ">
<polygon fill="white" stroke="black" points="4665.5,-67.5 4665.5,-97.5 4775.5,-97.5 4775.5,-67.5 4665.5,-67.5"/>
<text text-anchor="start" x="4673.5" y="-85.5" font-family="Helvetica,sans-Serif" font-size="10.00">src/libs/vpatterndb</text>
<text text-anchor="middle" x="4720.5" y="-74.5" font-family="Helvetica,sans-Serif" font-size="10.00">/vtranslatevars.cpp</text>
</a>
</g>
</g>
<!-- Node32&#45;&gt;Node55 -->
<g id="edge37" class="edge">
<title>Node32&#45;&gt;Node55</title>
<path fill="none" stroke="midnightblue" d="M3184.16,-146.23C3516.21,-139.06 4510.78,-116.29 4655.5,-98 4658.71,-97.59 4662,-97.1 4665.31,-96.55"/>
<polygon fill="midnightblue" stroke="midnightblue" points="3183.98,-142.73 3174.06,-146.45 3184.13,-149.73 3183.98,-142.73"/>
</g>
<!-- Node32&#45;&gt;Node56 -->
<g id="edge38" class="edge">
<title>Node32&#45;&gt;Node56</title>
<path fill="none" stroke="midnightblue" d="M2968.65,-139.33C2940.62,-137.25 2910.45,-135.28 2882.5,-134 2410.93,-112.4 1228.08,-146.41 758.5,-98 755.43,-97.68 752.29,-97.31 749.13,-96.88"/>
<polygon fill="midnightblue" stroke="midnightblue" points="2968.63,-142.84 2978.87,-140.1 2969.16,-135.86 2968.63,-142.84"/>
</g>
<!-- Node57 -->
<g id="node37" class="node">
<title>Node57</title>
<g id="a_node37"><a xlink:href="../../d3/d4f/mouse__coordinates_8cpp.html" target="_top" xlink:title=" ">
<polygon fill="white" stroke="black" points="767.5,-67.5 767.5,-97.5 901.5,-97.5 901.5,-67.5 767.5,-67.5"/>
<text text-anchor="start" x="775.5" y="-85.5" font-family="Helvetica,sans-Serif" font-size="10.00">src/libs/vwidgets/mouse</text>
<text text-anchor="middle" x="834.5" y="-74.5" font-family="Helvetica,sans-Serif" font-size="10.00">_coordinates.cpp</text>
</a>
</g>
</g>
<!-- Node32&#45;&gt;Node57 -->
<g id="edge39" class="edge">
<title>Node32&#45;&gt;Node57</title>
<path fill="none" stroke="midnightblue" d="M2968.65,-139.35C2940.61,-137.27 2910.44,-135.3 2882.5,-134 2444.68,-113.66 1346.45,-143.23 910.5,-98 907.56,-97.7 904.57,-97.34 901.55,-96.93"/>
<polygon fill="midnightblue" stroke="midnightblue" points="2968.63,-142.86 2978.87,-140.12 2969.16,-135.88 2968.63,-142.86"/>
</g>
<!-- Node58 -->
<g id="node38" class="node">
<title>Node58</title>
<g id="a_node38"><a xlink:href="../../d7/d1b/pen__toolbar_8cpp.html" target="_top" xlink:title=" ">
<polygon fill="white" stroke="black" points="920,-67.5 920,-97.5 1039,-97.5 1039,-67.5 920,-67.5"/>
<text text-anchor="start" x="928" y="-85.5" font-family="Helvetica,sans-Serif" font-size="10.00">src/libs/vwidgets/pen</text>
<text text-anchor="middle" x="979.5" y="-74.5" font-family="Helvetica,sans-Serif" font-size="10.00">_toolbar.cpp</text>
</a>
</g>
</g>
<!-- Node32&#45;&gt;Node58 -->
<g id="edge40" class="edge">
<title>Node32&#45;&gt;Node58</title>
<path fill="none" stroke="midnightblue" d="M2968.64,-139.38C2940.61,-137.3 2910.44,-135.32 2882.5,-134 2475.32,-114.8 1453.52,-144.12 1048.5,-98 1045.46,-97.65 1042.35,-97.24 1039.23,-96.77"/>
<polygon fill="midnightblue" stroke="midnightblue" points="2968.63,-142.89 2978.87,-140.15 2969.16,-135.91 2968.63,-142.89"/>
</g>
<!-- Node59 -->
<g id="node39" class="node">
<title>Node59</title>
<g id="a_node39"><a xlink:href="../../d8/d76/scene__rect_8cpp.html" target="_top" xlink:title=" ">
<polygon fill="white" stroke="black" points="1057.5,-67.5 1057.5,-97.5 1187.5,-97.5 1187.5,-67.5 1057.5,-67.5"/>
<text text-anchor="start" x="1065.5" y="-85.5" font-family="Helvetica,sans-Serif" font-size="10.00">src/libs/vwidgets/scene</text>
<text text-anchor="middle" x="1122.5" y="-74.5" font-family="Helvetica,sans-Serif" font-size="10.00">_rect.cpp</text>
</a>
</g>
</g>
<!-- Node32&#45;&gt;Node59 -->
<g id="edge41" class="edge">
<title>Node32&#45;&gt;Node59</title>
<path fill="none" stroke="midnightblue" d="M2968.64,-139.41C2940.61,-137.33 2910.44,-135.34 2882.5,-134 2508.18,-116.03 1569.09,-138.18 1196.5,-98 1193.64,-97.69 1190.72,-97.33 1187.78,-96.92"/>
<polygon fill="midnightblue" stroke="midnightblue" points="2968.63,-142.92 2978.86,-140.18 2969.16,-135.94 2968.63,-142.92"/>
</g>
<!-- Node60 -->
<g id="node40" class="node">
<title>Node60</title>
<g id="a_node40"><a xlink:href="../../dd/df6/vabstractmainwindow_8cpp.html" target="_top" xlink:title=" ">
<polygon fill="white" stroke="black" points="1206,-73 1206,-92 1435,-92 1435,-73 1206,-73"/>
<text text-anchor="middle" x="1320.5" y="-80" font-family="Helvetica,sans-Serif" font-size="10.00">src/libs/vwidgets/vabstractmainwindow.cpp</text>
</a>
</g>
</g>
<!-- Node32&#45;&gt;Node60 -->
<g id="edge42" class="edge">
<title>Node32&#45;&gt;Node60</title>
<path fill="none" stroke="midnightblue" d="M2968.64,-139.48C2940.61,-137.4 2910.44,-135.39 2882.5,-134 2243.98,-102.16 2082.21,-143.17 1444.5,-98 1424.72,-96.6 1403.24,-94.35 1383.8,-92.03"/>
<polygon fill="midnightblue" stroke="midnightblue" points="2968.63,-142.99 2978.86,-140.25 2969.15,-136.01 2968.63,-142.99"/>
</g>
<!-- Node32&#45;&gt;Node61 -->
<g id="edge43" class="edge">
<title>Node32&#45;&gt;Node61</title>
<path fill="none" stroke="midnightblue" d="M3184.36,-145.98C3534.51,-137.7 4626,-111.15 4784.5,-98 4801.44,-96.6 4819.81,-94.34 4836.42,-92.03"/>
<polygon fill="midnightblue" stroke="midnightblue" points="3184.13,-142.48 3174.22,-146.22 3184.3,-149.48 3184.13,-142.48"/>
</g>
<!-- Node62 -->
<g id="node42" class="node">
<title>Node62</title>
<g id="a_node42"><a xlink:href="../../de/dec/vgraphicssimpletextitem_8cpp.html" target="_top" xlink:title=" ">
<polygon fill="white" stroke="black" points="1453.5,-73 1453.5,-92 1697.5,-92 1697.5,-73 1453.5,-73"/>
<text text-anchor="middle" x="1575.5" y="-80" font-family="Helvetica,sans-Serif" font-size="10.00">src/libs/vwidgets/vgraphicssimpletextitem.cpp</text>
</a>
</g>
</g>
<!-- Node32&#45;&gt;Node62 -->
<g id="edge44" class="edge">
<title>Node32&#45;&gt;Node62</title>
<path fill="none" stroke="midnightblue" d="M2968.63,-139.59C2940.6,-137.51 2910.44,-135.47 2882.5,-134 2360.31,-106.51 2228.12,-134.79 1706.5,-98 1685.84,-96.54 1663.42,-94.3 1643.06,-92.02"/>
<polygon fill="midnightblue" stroke="midnightblue" points="2968.62,-143.1 2978.86,-140.36 2969.15,-136.12 2968.62,-143.1"/>
</g>
<!-- Node32&#45;&gt;Node63 -->
<g id="edge45" class="edge">
<title>Node32&#45;&gt;Node63</title>
<path fill="none" stroke="midnightblue" d="M3184.2,-146.25C3562.18,-138.28 4815.21,-111.15 4995.5,-98 5014.81,-96.59 5035.77,-94.34 5054.74,-92.02"/>
<polygon fill="midnightblue" stroke="midnightblue" points="3184,-142.76 3174.08,-146.47 3184.15,-149.75 3184,-142.76"/>
</g>
<!-- Node32&#45;&gt;Node64 -->
<g id="edge46" class="edge">
<title>Node32&#45;&gt;Node64</title>
<path fill="none" stroke="midnightblue" d="M3184.36,-146.61C3592.75,-139.38 5031.41,-113.07 5236.5,-98 5255.28,-96.62 5275.67,-94.36 5294.09,-92.03"/>
<polygon fill="midnightblue" stroke="midnightblue" points="3184.26,-143.11 3174.32,-146.79 3184.38,-150.11 3184.26,-143.11"/>
</g>
<!-- Node65 -->
<g id="node45" class="node">
<title>Node65</title>
<g id="a_node45"><a xlink:href="../../de/d45/vcontrolpointspline_8cpp.html" target="_top" xlink:title=" ">
<polygon fill="white" stroke="black" points="1716,-73 1716,-92 1931,-92 1931,-73 1716,-73"/>
<text text-anchor="middle" x="1823.5" y="-80" font-family="Helvetica,sans-Serif" font-size="10.00">src/libs/vwidgets/vcontrolpointspline.cpp</text>
</a>
</g>
</g>
<!-- Node32&#45;&gt;Node65 -->
<g id="edge47" class="edge">
<title>Node32&#45;&gt;Node65</title>
<path fill="none" stroke="midnightblue" d="M2968.63,-139.74C2940.6,-137.65 2910.43,-135.58 2882.5,-134 2464.19,-110.38 2358.11,-131.8 1940.5,-98 1922.14,-96.51 1902.23,-94.28 1884.12,-92.01"/>
<polygon fill="midnightblue" stroke="midnightblue" points="2968.61,-143.25 2978.85,-140.5 2969.14,-136.26 2968.61,-143.25"/>
</g>
<!-- Node66 -->
<g id="node46" class="node">
<title>Node66</title>
<g id="a_node46"><a xlink:href="../../de/d22/vsimplecurve_8cpp.html" target="_top" xlink:title=" ">
<polygon fill="white" stroke="black" points="1949.5,-73 1949.5,-92 2137.5,-92 2137.5,-73 1949.5,-73"/>
<text text-anchor="middle" x="2043.5" y="-80" font-family="Helvetica,sans-Serif" font-size="10.00">src/libs/vwidgets/vsimplecurve.cpp</text>
</a>
</g>
</g>
<!-- Node32&#45;&gt;Node66 -->
<g id="edge48" class="edge">
<title>Node32&#45;&gt;Node66</title>
<path fill="none" stroke="midnightblue" d="M2968.61,-139.94C2940.58,-137.85 2910.42,-135.73 2882.5,-134 2555.62,-113.79 2472.55,-128.86 2146.5,-98 2130.5,-96.49 2113.18,-94.27 2097.38,-92.03"/>
<polygon fill="midnightblue" stroke="midnightblue" points="2968.6,-143.45 2978.84,-140.71 2969.13,-136.47 2968.6,-143.45"/>
</g>
<!-- Node67 -->
<g id="node47" class="node">
<title>Node67</title>
<g id="a_node47"><a xlink:href="../../df/d38/vsimplepoint_8cpp.html" target="_top" xlink:title=" ">
<polygon fill="white" stroke="black" points="2156,-73 2156,-92 2341,-92 2341,-73 2156,-73"/>
<text text-anchor="middle" x="2248.5" y="-80" font-family="Helvetica,sans-Serif" font-size="10.00">src/libs/vwidgets/vsimplepoint.cpp</text>
</a>
</g>
</g>
<!-- Node32&#45;&gt;Node67 -->
<g id="edge49" class="edge">
<title>Node32&#45;&gt;Node67</title>
<path fill="none" stroke="midnightblue" d="M2968.59,-140.3C2940.56,-138.2 2910.4,-135.99 2882.5,-134 2645.67,-117.15 2585.62,-122.89 2349.5,-98 2334.17,-96.38 2317.6,-94.19 2302.4,-92"/>
<polygon fill="midnightblue" stroke="midnightblue" points="2968.58,-143.81 2978.81,-141.06 2969.1,-136.83 2968.58,-143.81"/>
</g>
<!-- Node68 -->
<g id="node48" class="node">
<title>Node68</title>
<g id="a_node48"><a xlink:href="../../d0/d5d/vscenepoint_8cpp.html" target="_top" xlink:title=" ">
<polygon fill="white" stroke="black" points="2359,-73 2359,-92 2540,-92 2540,-73 2359,-73"/>
<text text-anchor="middle" x="2449.5" y="-80" font-family="Helvetica,sans-Serif" font-size="10.00">src/libs/vwidgets/vscenepoint.cpp</text>
</a>
</g>
</g>
<!-- Node32&#45;&gt;Node68 -->
<g id="edge50" class="edge">
<title>Node32&#45;&gt;Node68</title>
<path fill="none" stroke="midnightblue" d="M2968.4,-139.75C2861.55,-130.74 2693.52,-115.54 2548.5,-98 2534.1,-96.26 2518.56,-94.11 2504.16,-92.01"/>
<polygon fill="midnightblue" stroke="midnightblue" points="2968.28,-143.26 2978.54,-140.61 2968.87,-136.28 2968.28,-143.26"/>
</g>
<!-- Node32&#45;&gt;Node69 -->
<g id="edge51" class="edge">
<title>Node32&#45;&gt;Node69</title>
<path fill="none" stroke="midnightblue" d="M3184.4,-146.54C3635.86,-138.29 5355.32,-106.45 5470.5,-98 5489.06,-96.64 5509.23,-94.37 5527.41,-92.02"/>
<polygon fill="midnightblue" stroke="midnightblue" points="3184.22,-143.04 3174.29,-146.72 3184.35,-150.04 3184.22,-143.04"/>
</g>
<!-- Node41&#45;&gt;Node40 -->
<g id="edge23" class="edge">
<title>Node41&#45;&gt;Node40</title>
<path fill="none" stroke="midnightblue" d="M3153.78,-58.87C3159.71,-49.46 3166.41,-38.83 3171.62,-30.58"/>
<polygon fill="midnightblue" stroke="midnightblue" points="3150.77,-57.07 3148.4,-67.4 3156.69,-60.81 3150.77,-57.07"/>
</g>
<!-- Node53 -->
<g id="node33" class="node">
<title>Node53</title>
<g id="a_node33"><a xlink:href="../../d8/dba/vpiecenode_8cpp.html" target="_top" xlink:title=" ">
<polygon fill="white" stroke="black" points="491,-0.5 491,-30.5 598,-30.5 598,-0.5 491,-0.5"/>
<text text-anchor="start" x="499" y="-18.5" font-family="Helvetica,sans-Serif" font-size="10.00">src/libs/vpatterndb</text>
<text text-anchor="middle" x="544.5" y="-7.5" font-family="Helvetica,sans-Serif" font-size="10.00">/vpiecenode.cpp</text>
</a>
</g>
</g>
<!-- Node52&#45;&gt;Node53 -->
<g id="edge35" class="edge">
<title>Node52&#45;&gt;Node53</title>
<path fill="none" stroke="midnightblue" d="M544.5,-57.11C544.5,-48.15 544.5,-38.32 544.5,-30.58"/>
<polygon fill="midnightblue" stroke="midnightblue" points="541,-57.4 544.5,-67.4 548,-57.4 541,-57.4"/>
</g>
</g>
</svg>
