<?xml version="1.0" encoding="UTF-8" standalone="no"?>
<!DOCTYPE svg PUBLIC "-//W3C//DTD SVG 1.1//EN"
 "http://www.w3.org/Graphics/SVG/1.1/DTD/svg11.dtd">
<!-- Generated by graphviz version 2.43.0 (0)
 -->
<!-- Title: src/libs/vmisc/vcommonsettings.h Pages: 1 -->
<svg width="6267pt" height="285pt"
 viewBox="0.00 0.00 6267.00 285.00" xmlns="http://www.w3.org/2000/svg" xmlns:xlink="http://www.w3.org/1999/xlink">
<g id="graph0" class="graph" transform="scale(1 1) rotate(0) translate(4 281)">
<title>src/libs/vmisc/vcommonsettings.h</title>
<polygon fill="white" stroke="transparent" points="-4,4 -4,-281 6263,-281 6263,4 -4,4"/>
<!-- Node1 -->
<g id="node1" class="node">
<title>Node1</title>
<g id="a_node1"><a xlink:title=" ">
<polygon fill="#bfbfbf" stroke="black" points="3879,-257.5 3879,-276.5 4062,-276.5 4062,-257.5 3879,-257.5"/>
<text text-anchor="middle" x="3970.5" y="-264.5" font-family="Helvetica,sans-Serif" font-size="10.00">src/libs/vmisc/vcommonsettings.h</text>
</a>
</g>
</g>
<!-- Node2 -->
<g id="node2" class="node">
<title>Node2</title>
<g id="a_node2"><a xlink:href="../../d4/d90/fvupdater_8cpp.html" target="_top" xlink:title=" ">
<polygon fill="white" stroke="black" points="0,-73 0,-92 153,-92 153,-73 0,-73"/>
<text text-anchor="middle" x="76.5" y="-80" font-family="Helvetica,sans-Serif" font-size="10.00">src/libs/fervor/fvupdater.cpp</text>
</a>
</g>
</g>
<!-- Node1&#45;&gt;Node2 -->
<g id="edge1" class="edge">
<title>Node1&#45;&gt;Node2</title>
<path fill="none" stroke="midnightblue" d="M3868.93,-266.09C3471.06,-265.75 1980.26,-257.98 757.5,-165 491.71,-144.79 425.43,-135.32 161.5,-98 149.2,-96.26 135.94,-94.12 123.63,-92.03"/>
<polygon fill="midnightblue" stroke="midnightblue" points="3868.97,-269.59 3878.97,-266.1 3868.98,-262.59 3868.97,-269.59"/>
</g>
<!-- Node3 -->
<g id="node3" class="node">
<title>Node3</title>
<g id="a_node3"><a xlink:href="../../dd/d70/vlayoutpiece_8cpp.html" target="_top" xlink:title=" ">
<polygon fill="white" stroke="black" points="171,-73 171,-92 348,-92 348,-73 171,-73"/>
<text text-anchor="middle" x="259.5" y="-80" font-family="Helvetica,sans-Serif" font-size="10.00">src/libs/vlayout/vlayoutpiece.cpp</text>
</a>
</g>
</g>
<!-- Node1&#45;&gt;Node3 -->
<g id="edge2" class="edge">
<title>Node1&#45;&gt;Node3</title>
<path fill="none" stroke="midnightblue" d="M3868.33,-262.84C3654.18,-256.11 3142.54,-239.44 2713.5,-221 1665.49,-175.95 1400.12,-203.94 356.5,-98 341.42,-96.47 325.11,-94.25 310.23,-92.01"/>
<polygon fill="midnightblue" stroke="midnightblue" points="3868.51,-266.35 3878.62,-263.16 3868.73,-259.35 3868.51,-266.35"/>
</g>
<!-- Node4 -->
<g id="node4" class="node">
<title>Node4</title>
<g id="a_node4"><a xlink:href="../../d5/d74/vabstractapplication_8h.html" target="_top" xlink:title=" ">
<polygon fill="white" stroke="black" points="2942,-140 2942,-159 3137,-159 3137,-140 2942,-140"/>
<text text-anchor="middle" x="3039.5" y="-147" font-family="Helvetica,sans-Serif" font-size="10.00">src/libs/vmisc/vabstractapplication.h</text>
</a>
</g>
</g>
<!-- Node1&#45;&gt;Node4 -->
<g id="edge3" class="edge">
<title>Node1&#45;&gt;Node4</title>
<path fill="none" stroke="midnightblue" d="M3891.52,-256.2C3712.31,-233.97 3277.35,-180.01 3108.3,-159.04"/>
<polygon fill="midnightblue" stroke="midnightblue" points="3891.31,-259.7 3901.66,-257.46 3892.17,-252.76 3891.31,-259.7"/>
</g>
<!-- Node23 -->
<g id="node23" class="node">
<title>Node23</title>
<g id="a_node23"><a xlink:href="../../db/d11/vformula_8cpp.html" target="_top" xlink:title=" ">
<polygon fill="white" stroke="black" points="366,-67.5 366,-97.5 473,-97.5 473,-67.5 366,-67.5"/>
<text text-anchor="start" x="374" y="-85.5" font-family="Helvetica,sans-Serif" font-size="10.00">src/libs/vpatterndb</text>
<text text-anchor="middle" x="419.5" y="-74.5" font-family="Helvetica,sans-Serif" font-size="10.00">/vformula.cpp</text>
</a>
</g>
</g>
<!-- Node1&#45;&gt;Node23 -->
<g id="edge55" class="edge">
<title>Node1&#45;&gt;Node23</title>
<path fill="none" stroke="midnightblue" d="M3868.8,-261.35C3699.88,-253.54 3350.81,-237.07 3055.5,-221 2407.31,-185.72 2245.97,-163.8 1597.5,-134 1101.77,-111.22 973.51,-162.82 481.5,-98 478.76,-97.64 475.96,-97.21 473.15,-96.73"/>
<polygon fill="midnightblue" stroke="midnightblue" points="3868.77,-264.85 3878.92,-261.81 3869.1,-257.86 3868.77,-264.85"/>
</g>
<!-- Node25 -->
<g id="node25" class="node">
<title>Node25</title>
<g id="a_node25"><a xlink:href="../../df/dba/vpiecenode__p_8h.html" target="_top" xlink:title=" ">
<polygon fill="white" stroke="black" points="491,-67.5 491,-97.5 598,-97.5 598,-67.5 491,-67.5"/>
<text text-anchor="start" x="499" y="-85.5" font-family="Helvetica,sans-Serif" font-size="10.00">src/libs/vpatterndb</text>
<text text-anchor="middle" x="544.5" y="-74.5" font-family="Helvetica,sans-Serif" font-size="10.00">/vpiecenode_p.h</text>
</a>
</g>
</g>
<!-- Node1&#45;&gt;Node25 -->
<g id="edge56" class="edge">
<title>Node1&#45;&gt;Node25</title>
<path fill="none" stroke="midnightblue" d="M3868.7,-260.25C3732.08,-252.35 3481.89,-237.27 3268.5,-221 3213.78,-216.83 2339.3,-137.01 2284.5,-134 1912.09,-113.56 976.54,-144.72 606.5,-98 603.76,-97.65 600.96,-97.24 598.14,-96.77"/>
<polygon fill="midnightblue" stroke="midnightblue" points="3868.56,-263.75 3878.74,-260.83 3868.96,-256.76 3868.56,-263.75"/>
</g>
<!-- Node28 -->
<g id="node28" class="node">
<title>Node28</title>
<g id="a_node28"><a xlink:href="../../df/d40/export__format__combobox_8cpp.html" target="_top" xlink:title=" ">
<polygon fill="white" stroke="black" points="616,-67.5 616,-97.5 749,-97.5 749,-67.5 616,-67.5"/>
<text text-anchor="start" x="624" y="-85.5" font-family="Helvetica,sans-Serif" font-size="10.00">src/libs/vwidgets/export</text>
<text text-anchor="middle" x="682.5" y="-74.5" font-family="Helvetica,sans-Serif" font-size="10.00">_format_combobox.cpp</text>
</a>
</g>
</g>
<!-- Node1&#45;&gt;Node28 -->
<g id="edge57" class="edge">
<title>Node1&#45;&gt;Node28</title>
<path fill="none" stroke="midnightblue" d="M3868.89,-257.99C3763.08,-249.49 3592.58,-235.32 3445.5,-221 3442.73,-220.73 2650.28,-134.18 2647.5,-134 2228.28,-107.21 1175.26,-142.03 757.5,-98 754.73,-97.71 751.91,-97.37 749.07,-96.99"/>
<polygon fill="midnightblue" stroke="midnightblue" points="3868.67,-261.48 3878.92,-258.79 3869.23,-254.51 3868.67,-261.48"/>
</g>
<!-- Node35 -->
<g id="node35" class="node">
<title>Node35</title>
<g id="a_node35"><a xlink:href="../../d1/d90/vgrainlineitem_8cpp.html" target="_top" xlink:title=" ">
<polygon fill="white" stroke="black" points="4792,-73 4792,-92 4985,-92 4985,-73 4792,-73"/>
<text text-anchor="middle" x="4888.5" y="-80" font-family="Helvetica,sans-Serif" font-size="10.00">src/libs/vwidgets/vgrainlineitem.cpp</text>
</a>
</g>
</g>
<!-- Node1&#45;&gt;Node35 -->
<g id="edge58" class="edge">
<title>Node1&#45;&gt;Node35</title>
<path fill="none" stroke="midnightblue" d="M3967.45,-247.06C3963.94,-217.83 3962.3,-162.15 3994.5,-134 4027.54,-105.12 4739.8,-102.01 4783.5,-98 4799.9,-96.5 4817.67,-94.27 4833.84,-92.01"/>
<polygon fill="midnightblue" stroke="midnightblue" points="3964.01,-247.76 3968.87,-257.18 3970.94,-246.79 3964.01,-247.76"/>
</g>
<!-- Node37 -->
<g id="node37" class="node">
<title>Node37</title>
<g id="a_node37"><a xlink:href="../../d2/d31/vmaingraphicsview_8cpp.html" target="_top" xlink:title=" ">
<polygon fill="white" stroke="black" points="5003.5,-73 5003.5,-92 5219.5,-92 5219.5,-73 5003.5,-73"/>
<text text-anchor="middle" x="5111.5" y="-80" font-family="Helvetica,sans-Serif" font-size="10.00">src/libs/vwidgets/vmaingraphicsview.cpp</text>
</a>
</g>
</g>
<!-- Node1&#45;&gt;Node37 -->
<g id="edge59" class="edge">
<title>Node1&#45;&gt;Node37</title>
<path fill="none" stroke="midnightblue" d="M3975.8,-247.59C3985.7,-214.57 4007.79,-147.49 4027.5,-134 4071.86,-103.64 4940.91,-102.31 4994.5,-98 5012.86,-96.52 5032.77,-94.29 5050.88,-92.02"/>
<polygon fill="midnightblue" stroke="midnightblue" points="3972.39,-246.77 3972.93,-257.35 3979.1,-248.74 3972.39,-246.77"/>
</g>
<!-- Node40 -->
<g id="node40" class="node">
<title>Node40</title>
<g id="a_node40"><a xlink:href="../../df/df5/vtextgraphicsitem_8cpp.html" target="_top" xlink:title=" ">
<polygon fill="white" stroke="black" points="5238,-73 5238,-92 5449,-92 5449,-73 5238,-73"/>
<text text-anchor="middle" x="5343.5" y="-80" font-family="Helvetica,sans-Serif" font-size="10.00">src/libs/vwidgets/vtextgraphicsitem.cpp</text>
</a>
</g>
</g>
<!-- Node1&#45;&gt;Node40 -->
<g id="edge60" class="edge">
<title>Node1&#45;&gt;Node40</title>
<path fill="none" stroke="midnightblue" d="M4072.54,-257.83C4111.51,-251.55 4155.25,-240.48 4191.5,-221 4239.67,-195.11 4228.38,-155.88 4278.5,-134 4375.31,-91.74 5123.22,-106.62 5228.5,-98 5246.55,-96.52 5266.12,-94.29 5283.92,-92.02"/>
<polygon fill="midnightblue" stroke="midnightblue" points="4071.58,-254.44 4062.22,-259.41 4072.63,-261.36 4071.58,-254.44"/>
</g>
<!-- Node41 -->
<g id="node41" class="node">
<title>Node41</title>
<g id="a_node41"><a xlink:href="../../d1/d88/vmaingraphicsscene_8cpp.html" target="_top" xlink:title=" ">
<polygon fill="white" stroke="black" points="5467.5,-73 5467.5,-92 5689.5,-92 5689.5,-73 5467.5,-73"/>
<text text-anchor="middle" x="5578.5" y="-80" font-family="Helvetica,sans-Serif" font-size="10.00">src/libs/vwidgets/vmaingraphicsscene.cpp</text>
</a>
</g>
</g>
<!-- Node1&#45;&gt;Node41 -->
<g id="edge61" class="edge">
<title>Node1&#45;&gt;Node41</title>
<path fill="none" stroke="midnightblue" d="M4029.8,-255.7C4079.89,-246.88 4153.49,-233.64 4217.5,-221 4259.4,-212.73 4269.26,-207.37 4311.5,-201 4817.61,-124.72 4949.48,-151.59 5458.5,-98 5475.51,-96.21 5493.85,-94.09 5510.95,-92.03"/>
<polygon fill="midnightblue" stroke="midnightblue" points="4029.03,-252.28 4019.79,-257.46 4030.24,-259.18 4029.03,-252.28"/>
</g>
<!-- Node42 -->
<g id="node42" class="node">
<title>Node42</title>
<g id="a_node42"><a xlink:href="../../df/da4/vseamlymesettings_8h.html" target="_top" xlink:title=" ">
<polygon fill="white" stroke="black" points="4320.5,-201.5 4320.5,-220.5 4512.5,-220.5 4512.5,-201.5 4320.5,-201.5"/>
<text text-anchor="middle" x="4416.5" y="-208.5" font-family="Helvetica,sans-Serif" font-size="10.00">src/libs/vmisc/vseamlymesettings.h</text>
</a>
</g>
</g>
<!-- Node1&#45;&gt;Node42 -->
<g id="edge44" class="edge">
<title>Node1&#45;&gt;Node42</title>
<path fill="none" stroke="midnightblue" d="M4051.2,-256.23C4135.39,-246.04 4266.05,-230.22 4346.16,-220.52"/>
<polygon fill="midnightblue" stroke="midnightblue" points="4050.68,-252.77 4041.17,-257.44 4051.52,-259.72 4050.68,-252.77"/>
</g>
<!-- Node44 -->
<g id="node44" class="node">
<title>Node44</title>
<g id="a_node44"><a xlink:href="../../d4/d11/vcommonsettings_8cpp.html" target="_top" xlink:title=" ">
<polygon fill="white" stroke="black" points="4530.5,-201.5 4530.5,-220.5 4724.5,-220.5 4724.5,-201.5 4530.5,-201.5"/>
<text text-anchor="middle" x="4627.5" y="-208.5" font-family="Helvetica,sans-Serif" font-size="10.00">src/libs/vmisc/vcommonsettings.cpp</text>
</a>
</g>
</g>
<!-- Node1&#45;&gt;Node44 -->
<g id="edge46" class="edge">
<title>Node1&#45;&gt;Node44</title>
<path fill="none" stroke="midnightblue" d="M4072.3,-257.78C4182.88,-248.84 4364.75,-234.06 4521.5,-221 4524.44,-220.75 4527.44,-220.5 4530.46,-220.25"/>
<polygon fill="midnightblue" stroke="midnightblue" points="4071.84,-254.31 4062.15,-258.61 4072.4,-261.29 4071.84,-254.31"/>
</g>
<!-- Node45 -->
<g id="node45" class="node">
<title>Node45</title>
<g id="a_node45"><a xlink:href="../../dd/db2/vsettings_8h.html" target="_top" xlink:title=" ">
<polygon fill="white" stroke="black" points="4042.5,-201.5 4042.5,-220.5 4182.5,-220.5 4182.5,-201.5 4042.5,-201.5"/>
<text text-anchor="middle" x="4112.5" y="-208.5" font-family="Helvetica,sans-Serif" font-size="10.00">src/libs/vmisc/vsettings.h</text>
</a>
</g>
</g>
<!-- Node1&#45;&gt;Node45 -->
<g id="edge47" class="edge">
<title>Node1&#45;&gt;Node45</title>
<path fill="none" stroke="midnightblue" d="M4002.66,-253.77C4029.33,-243.63 4066.57,-229.47 4090.1,-220.52"/>
<polygon fill="midnightblue" stroke="midnightblue" points="4001.1,-250.62 3993,-257.44 4003.59,-257.16 4001.1,-250.62"/>
</g>
<!-- Node4&#45;&gt;Node2 -->
<g id="edge4" class="edge">
<title>Node4&#45;&gt;Node2</title>
<path fill="none" stroke="midnightblue" d="M2931.79,-148.79C2477.33,-149.7 714.55,-149.72 161.5,-98 147.64,-96.7 132.63,-94.44 119.14,-92.07"/>
<polygon fill="midnightblue" stroke="midnightblue" points="2931.96,-152.29 2941.96,-148.77 2931.95,-145.29 2931.96,-152.29"/>
</g>
<!-- Node4&#45;&gt;Node3 -->
<g id="edge18" class="edge">
<title>Node4&#45;&gt;Node3</title>
<path fill="none" stroke="midnightblue" d="M2931.59,-147.3C2462.87,-141.96 615.59,-119.71 356.5,-98 340.72,-96.68 323.6,-94.4 308.2,-92.04"/>
<polygon fill="midnightblue" stroke="midnightblue" points="2931.7,-150.8 2941.74,-147.41 2931.78,-143.8 2931.7,-150.8"/>
</g>
<!-- Node5 -->
<g id="node5" class="node">
<title>Node5</title>
<g id="a_node5"><a xlink:href="../../d9/dc8/dxiface_8cpp.html" target="_top" xlink:title=" ">
<polygon fill="white" stroke="black" points="3061,-73 3061,-92 3196,-92 3196,-73 3061,-73"/>
<text text-anchor="middle" x="3128.5" y="-80" font-family="Helvetica,sans-Serif" font-size="10.00">src/libs/vdxf/dxiface.cpp</text>
</a>
</g>
</g>
<!-- Node4&#45;&gt;Node5 -->
<g id="edge5" class="edge">
<title>Node4&#45;&gt;Node5</title>
<path fill="none" stroke="midnightblue" d="M3059.95,-133.57C3077.51,-120.74 3102.23,-102.69 3116.69,-92.13"/>
<polygon fill="midnightblue" stroke="midnightblue" points="3057.51,-131.01 3051.5,-139.73 3061.64,-136.66 3057.51,-131.01"/>
</g>
<!-- Node6 -->
<g id="node6" class="node">
<title>Node6</title>
<g id="a_node6"><a xlink:href="../../da/d75/vabstractarc__p_8h.html" target="_top" xlink:title=" ">
<polygon fill="white" stroke="black" points="3214,-67.5 3214,-97.5 3321,-97.5 3321,-67.5 3214,-67.5"/>
<text text-anchor="start" x="3222" y="-85.5" font-family="Helvetica,sans-Serif" font-size="10.00">src/libs/vgeometry</text>
<text text-anchor="middle" x="3267.5" y="-74.5" font-family="Helvetica,sans-Serif" font-size="10.00">/vabstractarc_p.h</text>
</a>
</g>
</g>
<!-- Node4&#45;&gt;Node6 -->
<g id="edge6" class="edge">
<title>Node4&#45;&gt;Node6</title>
<path fill="none" stroke="midnightblue" d="M3079.64,-137.06C3118.29,-126.04 3176.85,-109.34 3218.29,-97.53"/>
<polygon fill="midnightblue" stroke="midnightblue" points="3078.43,-133.76 3069.78,-139.87 3080.35,-140.49 3078.43,-133.76"/>
</g>
<!-- Node8 -->
<g id="node8" class="node">
<title>Node8</title>
<g id="a_node8"><a xlink:href="../../dc/da3/varc__p_8h.html" target="_top" xlink:title=" ">
<polygon fill="white" stroke="black" points="3339,-67.5 3339,-97.5 3446,-97.5 3446,-67.5 3339,-67.5"/>
<text text-anchor="start" x="3347" y="-85.5" font-family="Helvetica,sans-Serif" font-size="10.00">src/libs/vgeometry</text>
<text text-anchor="middle" x="3392.5" y="-74.5" font-family="Helvetica,sans-Serif" font-size="10.00">/varc_p.h</text>
</a>
</g>
</g>
<!-- Node4&#45;&gt;Node8 -->
<g id="edge8" class="edge">
<title>Node4&#45;&gt;Node8</title>
<path fill="none" stroke="midnightblue" d="M3103.55,-138.36C3162.43,-128.8 3252.08,-113.64 3329.5,-98 3332.58,-97.38 3335.74,-96.72 3338.93,-96.04"/>
<polygon fill="midnightblue" stroke="midnightblue" points="3102.96,-134.91 3093.65,-139.96 3104.08,-141.82 3102.96,-134.91"/>
</g>
<!-- Node10 -->
<g id="node10" class="node">
<title>Node10</title>
<g id="a_node10"><a xlink:href="../../d5/d8e/vcubicbezier__p_8h.html" target="_top" xlink:title=" ">
<polygon fill="white" stroke="black" points="3464,-67.5 3464,-97.5 3571,-97.5 3571,-67.5 3464,-67.5"/>
<text text-anchor="start" x="3472" y="-85.5" font-family="Helvetica,sans-Serif" font-size="10.00">src/libs/vgeometry</text>
<text text-anchor="middle" x="3517.5" y="-74.5" font-family="Helvetica,sans-Serif" font-size="10.00">/vcubicbezier_p.h</text>
</a>
</g>
</g>
<!-- Node4&#45;&gt;Node10 -->
<g id="edge10" class="edge">
<title>Node4&#45;&gt;Node10</title>
<path fill="none" stroke="midnightblue" d="M3142.71,-138.99C3226.95,-130.49 3348.88,-116.53 3454.5,-98 3457.6,-97.46 3460.77,-96.86 3463.96,-96.23"/>
<polygon fill="midnightblue" stroke="midnightblue" points="3142.23,-135.52 3132.63,-139.99 3142.92,-142.48 3142.23,-135.52"/>
</g>
<!-- Node12 -->
<g id="node12" class="node">
<title>Node12</title>
<g id="a_node12"><a xlink:href="../../df/dde/vellipticalarc__p_8h.html" target="_top" xlink:title=" ">
<polygon fill="white" stroke="black" points="3589,-67.5 3589,-97.5 3696,-97.5 3696,-67.5 3589,-67.5"/>
<text text-anchor="start" x="3597" y="-85.5" font-family="Helvetica,sans-Serif" font-size="10.00">src/libs/vgeometry</text>
<text text-anchor="middle" x="3642.5" y="-74.5" font-family="Helvetica,sans-Serif" font-size="10.00">/vellipticalarc_p.h</text>
</a>
</g>
</g>
<!-- Node4&#45;&gt;Node12 -->
<g id="edge12" class="edge">
<title>Node4&#45;&gt;Node12</title>
<path fill="none" stroke="midnightblue" d="M3147.1,-142.66C3256.47,-135.74 3430.53,-122 3579.5,-98 3582.6,-97.5 3585.78,-96.94 3588.98,-96.33"/>
<polygon fill="midnightblue" stroke="midnightblue" points="3146.82,-139.17 3137.05,-143.29 3147.25,-146.16 3146.82,-139.17"/>
</g>
<!-- Node13 -->
<g id="node13" class="node">
<title>Node13</title>
<g id="a_node13"><a xlink:href="../../d6/dfb/vellipticalarc_8cpp.html" target="_top" xlink:title=" ">
<polygon fill="white" stroke="black" points="3609,-0.5 3609,-30.5 3716,-30.5 3716,-0.5 3609,-0.5"/>
<text text-anchor="start" x="3617" y="-18.5" font-family="Helvetica,sans-Serif" font-size="10.00">src/libs/vgeometry</text>
<text text-anchor="middle" x="3662.5" y="-7.5" font-family="Helvetica,sans-Serif" font-size="10.00">/vellipticalarc.cpp</text>
</a>
</g>
</g>
<!-- Node4&#45;&gt;Node13 -->
<g id="edge14" class="edge">
<title>Node4&#45;&gt;Node13</title>
<path fill="none" stroke="midnightblue" d="M3147.22,-148.15C3325.85,-146.45 3667.49,-137.93 3704.5,-98 3723.11,-77.92 3697.75,-48.03 3679.11,-30.58"/>
<polygon fill="midnightblue" stroke="midnightblue" points="3146.98,-144.66 3137.01,-148.25 3147.04,-151.66 3146.98,-144.66"/>
</g>
<!-- Node14 -->
<g id="node14" class="node">
<title>Node14</title>
<g id="a_node14"><a xlink:href="../../d1/d76/vspline__p_8h.html" target="_top" xlink:title=" ">
<polygon fill="white" stroke="black" points="3753,-67.5 3753,-97.5 3860,-97.5 3860,-67.5 3753,-67.5"/>
<text text-anchor="start" x="3761" y="-85.5" font-family="Helvetica,sans-Serif" font-size="10.00">src/libs/vgeometry</text>
<text text-anchor="middle" x="3806.5" y="-74.5" font-family="Helvetica,sans-Serif" font-size="10.00">/vspline_p.h</text>
</a>
</g>
</g>
<!-- Node4&#45;&gt;Node14 -->
<g id="edge15" class="edge">
<title>Node4&#45;&gt;Node14</title>
<path fill="none" stroke="midnightblue" d="M3147.34,-145.32C3285.06,-140.21 3530.49,-127.55 3738.5,-98 3743.16,-97.34 3747.98,-96.54 3752.8,-95.67"/>
<polygon fill="midnightblue" stroke="midnightblue" points="3147.07,-141.83 3137.2,-145.69 3147.32,-148.83 3147.07,-141.83"/>
</g>
<!-- Node16 -->
<g id="node16" class="node">
<title>Node16</title>
<g id="a_node16"><a xlink:href="../../d9/d15/vabstractpiece_8cpp.html" target="_top" xlink:title=" ">
<polygon fill="white" stroke="black" points="3878.5,-73 3878.5,-92 4064.5,-92 4064.5,-73 3878.5,-73"/>
<text text-anchor="middle" x="3971.5" y="-80" font-family="Helvetica,sans-Serif" font-size="10.00">src/libs/vlayout/vabstractpiece.cpp</text>
</a>
</g>
</g>
<!-- Node4&#45;&gt;Node16 -->
<g id="edge17" class="edge">
<title>Node4&#45;&gt;Node16</title>
<path fill="none" stroke="midnightblue" d="M3147.23,-144.66C3305.58,-138.39 3610.37,-123.99 3868.5,-98 3884.22,-96.42 3901.23,-94.22 3916.81,-92.02"/>
<polygon fill="midnightblue" stroke="midnightblue" points="3146.87,-141.17 3137.01,-145.06 3147.14,-148.16 3146.87,-141.17"/>
</g>
<!-- Node17 -->
<g id="node17" class="node">
<title>Node17</title>
<g id="a_node17"><a xlink:href="../../d8/d70/vtextmanager_8cpp.html" target="_top" xlink:title=" ">
<polygon fill="white" stroke="black" points="4082.5,-73 4082.5,-92 4264.5,-92 4264.5,-73 4082.5,-73"/>
<text text-anchor="middle" x="4173.5" y="-80" font-family="Helvetica,sans-Serif" font-size="10.00">src/libs/vlayout/vtextmanager.cpp</text>
</a>
</g>
</g>
<!-- Node4&#45;&gt;Node17 -->
<g id="edge19" class="edge">
<title>Node4&#45;&gt;Node17</title>
<path fill="none" stroke="midnightblue" d="M3147.19,-146.61C3335.45,-142.56 3736.45,-130.59 4073.5,-98 4089.13,-96.49 4106.05,-94.26 4121.45,-92"/>
<polygon fill="midnightblue" stroke="midnightblue" points="3146.94,-143.12 3137.02,-146.83 3147.09,-150.12 3146.94,-143.12"/>
</g>
<!-- Node18 -->
<g id="node18" class="node">
<title>Node18</title>
<g id="a_node18"><a xlink:href="../../d6/d0b/def_8cpp.html" target="_top" xlink:title=" ">
<polygon fill="white" stroke="black" points="4282.5,-73 4282.5,-92 4404.5,-92 4404.5,-73 4282.5,-73"/>
<text text-anchor="middle" x="4343.5" y="-80" font-family="Helvetica,sans-Serif" font-size="10.00">src/libs/vmisc/def.cpp</text>
</a>
</g>
</g>
<!-- Node4&#45;&gt;Node18 -->
<g id="edge20" class="edge">
<title>Node4&#45;&gt;Node18</title>
<path fill="none" stroke="midnightblue" d="M3147.41,-146.35C3406.31,-140.82 4057.2,-124.65 4273.5,-98 4284.83,-96.6 4297.06,-94.34 4308.08,-92.01"/>
<polygon fill="midnightblue" stroke="midnightblue" points="3147.17,-142.85 3137.25,-146.56 3147.32,-149.85 3147.17,-142.85"/>
</g>
<!-- Node19 -->
<g id="node19" class="node">
<title>Node19</title>
<g id="a_node19"><a xlink:href="../../d0/df6/vabstractapplication_8cpp.html" target="_top" xlink:title=" ">
<polygon fill="white" stroke="black" points="4422.5,-73 4422.5,-92 4628.5,-92 4628.5,-73 4422.5,-73"/>
<text text-anchor="middle" x="4525.5" y="-80" font-family="Helvetica,sans-Serif" font-size="10.00">src/libs/vmisc/vabstractapplication.cpp</text>
</a>
</g>
</g>
<!-- Node4&#45;&gt;Node19 -->
<g id="edge21" class="edge">
<title>Node4&#45;&gt;Node19</title>
<path fill="none" stroke="midnightblue" d="M3147.26,-147.91C3379.22,-145.89 3942.94,-137.02 4413.5,-98 4431.18,-96.53 4450.36,-94.29 4467.77,-92.01"/>
<polygon fill="midnightblue" stroke="midnightblue" points="3147.11,-144.41 3137.14,-147.99 3147.17,-151.41 3147.11,-144.41"/>
</g>
<!-- Node20 -->
<g id="node20" class="node">
<title>Node20</title>
<g id="a_node20"><a xlink:href="../../db/d65/dialogexporttocsv_8cpp.html" target="_top" xlink:title=" ">
<polygon fill="white" stroke="black" points="4647,-67.5 4647,-97.5 4774,-97.5 4774,-67.5 4647,-67.5"/>
<text text-anchor="start" x="4655" y="-85.5" font-family="Helvetica,sans-Serif" font-size="10.00">src/libs/vmisc/dialogs</text>
<text text-anchor="middle" x="4710.5" y="-74.5" font-family="Helvetica,sans-Serif" font-size="10.00">/dialogexporttocsv.cpp</text>
</a>
</g>
</g>
<!-- Node4&#45;&gt;Node20 -->
<g id="edge22" class="edge">
<title>Node4&#45;&gt;Node20</title>
<path fill="none" stroke="midnightblue" d="M3147.47,-147.4C3457.69,-143.89 4347.87,-131.11 4637.5,-98 4640.58,-97.65 4643.73,-97.23 4646.9,-96.77"/>
<polygon fill="midnightblue" stroke="midnightblue" points="3147.08,-143.91 3137.12,-147.52 3147.16,-150.91 3147.08,-143.91"/>
</g>
<!-- Node21 -->
<g id="node21" class="node">
<title>Node21</title>
<g id="a_node21"><a xlink:href="../../d4/d4f/pmsystems_8cpp.html" target="_top" xlink:title=" ">
<polygon fill="white" stroke="black" points="767,-67.5 767,-97.5 874,-97.5 874,-67.5 767,-67.5"/>
<text text-anchor="start" x="775" y="-85.5" font-family="Helvetica,sans-Serif" font-size="10.00">src/libs/vpatterndb</text>
<text text-anchor="middle" x="820.5" y="-74.5" font-family="Helvetica,sans-Serif" font-size="10.00">/pmsystems.cpp</text>
</a>
</g>
</g>
<!-- Node4&#45;&gt;Node21 -->
<g id="edge23" class="edge">
<title>Node4&#45;&gt;Node21</title>
<path fill="none" stroke="midnightblue" d="M2931.86,-139.28C2904.38,-137.23 2874.86,-135.28 2847.5,-134 2411.24,-113.55 1315.88,-152.03 882.5,-98 879.76,-97.66 876.96,-97.24 874.14,-96.78"/>
<polygon fill="midnightblue" stroke="midnightblue" points="2931.65,-142.78 2941.89,-140.05 2932.18,-135.8 2931.65,-142.78"/>
</g>
<!-- Node22 -->
<g id="node22" class="node">
<title>Node22</title>
<g id="a_node22"><a xlink:href="../../d6/d46/vcontainer_8cpp.html" target="_top" xlink:title=" ">
<polygon fill="white" stroke="black" points="892,-67.5 892,-97.5 999,-97.5 999,-67.5 892,-67.5"/>
<text text-anchor="start" x="900" y="-85.5" font-family="Helvetica,sans-Serif" font-size="10.00">src/libs/vpatterndb</text>
<text text-anchor="middle" x="945.5" y="-74.5" font-family="Helvetica,sans-Serif" font-size="10.00">/vcontainer.cpp</text>
</a>
</g>
</g>
<!-- Node4&#45;&gt;Node22 -->
<g id="edge24" class="edge">
<title>Node4&#45;&gt;Node22</title>
<path fill="none" stroke="midnightblue" d="M2931.86,-139.31C2904.37,-137.25 2874.86,-135.3 2847.5,-134 2438.99,-114.59 1413.29,-148.85 1007.5,-98 1004.76,-97.66 1001.96,-97.24 999.14,-96.77"/>
<polygon fill="midnightblue" stroke="midnightblue" points="2931.65,-142.8 2941.89,-140.07 2932.18,-135.82 2931.65,-142.8"/>
</g>
<!-- Node4&#45;&gt;Node23 -->
<g id="edge25" class="edge">
<title>Node4&#45;&gt;Node23</title>
<path fill="none" stroke="midnightblue" d="M2931.74,-146.41C2446.71,-137 489.22,-98.97 481.5,-98 478.76,-97.66 475.96,-97.24 473.14,-96.77"/>
<polygon fill="midnightblue" stroke="midnightblue" points="2931.83,-149.91 2941.89,-146.61 2931.96,-142.91 2931.83,-149.91"/>
</g>
<!-- Node24 -->
<g id="node24" class="node">
<title>Node24</title>
<g id="a_node24"><a xlink:href="../../df/d7a/vpiece_8cpp.html" target="_top" xlink:title=" ">
<polygon fill="white" stroke="black" points="1017,-67.5 1017,-97.5 1124,-97.5 1124,-67.5 1017,-67.5"/>
<text text-anchor="start" x="1025" y="-85.5" font-family="Helvetica,sans-Serif" font-size="10.00">src/libs/vpatterndb</text>
<text text-anchor="middle" x="1070.5" y="-74.5" font-family="Helvetica,sans-Serif" font-size="10.00">/vpiece.cpp</text>
</a>
</g>
</g>
<!-- Node4&#45;&gt;Node24 -->
<g id="edge26" class="edge">
<title>Node4&#45;&gt;Node24</title>
<path fill="none" stroke="midnightblue" d="M2931.86,-139.34C2904.37,-137.28 2874.86,-135.32 2847.5,-134 2466.97,-115.65 1511.57,-144.97 1133.5,-98 1130.49,-97.63 1127.42,-97.17 1124.33,-96.65"/>
<polygon fill="midnightblue" stroke="midnightblue" points="2931.65,-142.83 2941.89,-140.1 2932.18,-135.85 2931.65,-142.83"/>
</g>
<!-- Node4&#45;&gt;Node25 -->
<g id="edge27" class="edge">
<title>Node4&#45;&gt;Node25</title>
<path fill="none" stroke="midnightblue" d="M2931.24,-143.93C2852.54,-140.75 2743.44,-136.62 2647.5,-134 2194.04,-121.62 1056.66,-153.97 606.5,-98 603.76,-97.66 600.96,-97.25 598.14,-96.78"/>
<polygon fill="midnightblue" stroke="midnightblue" points="2931.52,-147.45 2941.65,-144.36 2931.8,-140.45 2931.52,-147.45"/>
</g>
<!-- Node27 -->
<g id="node27" class="node">
<title>Node27</title>
<g id="a_node27"><a xlink:href="../../de/d3e/vtranslatevars_8cpp.html" target="_top" xlink:title=" ">
<polygon fill="white" stroke="black" points="1142.5,-67.5 1142.5,-97.5 1252.5,-97.5 1252.5,-67.5 1142.5,-67.5"/>
<text text-anchor="start" x="1150.5" y="-85.5" font-family="Helvetica,sans-Serif" font-size="10.00">src/libs/vpatterndb</text>
<text text-anchor="middle" x="1197.5" y="-74.5" font-family="Helvetica,sans-Serif" font-size="10.00">/vtranslatevars.cpp</text>
</a>
</g>
</g>
<!-- Node4&#45;&gt;Node27 -->
<g id="edge29" class="edge">
<title>Node4&#45;&gt;Node27</title>
<path fill="none" stroke="midnightblue" d="M2931.86,-139.37C2904.37,-137.31 2874.86,-135.34 2847.5,-134 2495.39,-116.72 1611.38,-141.16 1261.5,-98 1258.56,-97.64 1255.56,-97.2 1252.53,-96.7"/>
<polygon fill="midnightblue" stroke="midnightblue" points="2931.65,-142.86 2941.89,-140.13 2932.18,-135.88 2931.65,-142.86"/>
</g>
<!-- Node4&#45;&gt;Node28 -->
<g id="edge30" class="edge">
<title>Node4&#45;&gt;Node28</title>
<path fill="none" stroke="midnightblue" d="M2931.86,-139.26C2904.38,-137.21 2874.86,-135.27 2847.5,-134 2383.48,-112.5 1219.5,-146.27 757.5,-98 754.73,-97.71 751.91,-97.37 749.07,-96.99"/>
<polygon fill="midnightblue" stroke="midnightblue" points="2931.66,-142.76 2941.89,-140.02 2932.19,-135.78 2931.66,-142.76"/>
</g>
<!-- Node29 -->
<g id="node29" class="node">
<title>Node29</title>
<g id="a_node29"><a xlink:href="../../d3/d4f/mouse__coordinates_8cpp.html" target="_top" xlink:title=" ">
<polygon fill="white" stroke="black" points="1270.5,-67.5 1270.5,-97.5 1404.5,-97.5 1404.5,-67.5 1270.5,-67.5"/>
<text text-anchor="start" x="1278.5" y="-85.5" font-family="Helvetica,sans-Serif" font-size="10.00">src/libs/vwidgets/mouse</text>
<text text-anchor="middle" x="1337.5" y="-74.5" font-family="Helvetica,sans-Serif" font-size="10.00">_coordinates.cpp</text>
</a>
</g>
</g>
<!-- Node4&#45;&gt;Node29 -->
<g id="edge31" class="edge">
<title>Node4&#45;&gt;Node29</title>
<path fill="none" stroke="midnightblue" d="M2931.86,-139.41C2904.37,-137.36 2874.86,-135.38 2847.5,-134 2210.77,-101.98 2047.4,-165.97 1413.5,-98 1410.56,-97.68 1407.57,-97.32 1404.55,-96.91"/>
<polygon fill="midnightblue" stroke="midnightblue" points="2931.65,-142.91 2941.88,-140.17 2932.18,-135.93 2931.65,-142.91"/>
</g>
<!-- Node30 -->
<g id="node30" class="node">
<title>Node30</title>
<g id="a_node30"><a xlink:href="../../d7/d1b/pen__toolbar_8cpp.html" target="_top" xlink:title=" ">
<polygon fill="white" stroke="black" points="1423,-67.5 1423,-97.5 1542,-97.5 1542,-67.5 1423,-67.5"/>
<text text-anchor="start" x="1431" y="-85.5" font-family="Helvetica,sans-Serif" font-size="10.00">src/libs/vwidgets/pen</text>
<text text-anchor="middle" x="1482.5" y="-74.5" font-family="Helvetica,sans-Serif" font-size="10.00">_toolbar.cpp</text>
</a>
</g>
</g>
<!-- Node4&#45;&gt;Node30 -->
<g id="edge32" class="edge">
<title>Node4&#45;&gt;Node30</title>
<path fill="none" stroke="midnightblue" d="M2931.85,-139.46C2904.37,-137.41 2874.85,-135.41 2847.5,-134 2272.04,-104.29 2123.75,-165.52 1551.5,-98 1548.46,-97.64 1545.36,-97.21 1542.23,-96.74"/>
<polygon fill="midnightblue" stroke="midnightblue" points="2931.65,-142.96 2941.88,-140.22 2932.18,-135.98 2931.65,-142.96"/>
</g>
<!-- Node31 -->
<g id="node31" class="node">
<title>Node31</title>
<g id="a_node31"><a xlink:href="../../d8/d76/scene__rect_8cpp.html" target="_top" xlink:title=" ">
<polygon fill="white" stroke="black" points="1560.5,-67.5 1560.5,-97.5 1690.5,-97.5 1690.5,-67.5 1560.5,-67.5"/>
<text text-anchor="start" x="1568.5" y="-85.5" font-family="Helvetica,sans-Serif" font-size="10.00">src/libs/vwidgets/scene</text>
<text text-anchor="middle" x="1625.5" y="-74.5" font-family="Helvetica,sans-Serif" font-size="10.00">_rect.cpp</text>
</a>
</g>
</g>
<!-- Node4&#45;&gt;Node31 -->
<g id="edge33" class="edge">
<title>Node4&#45;&gt;Node31</title>
<path fill="none" stroke="midnightblue" d="M2931.85,-139.53C2904.36,-137.47 2874.85,-135.46 2847.5,-134 2337.75,-106.77 2206.75,-155.27 1699.5,-98 1696.64,-97.68 1693.72,-97.3 1690.78,-96.89"/>
<polygon fill="midnightblue" stroke="midnightblue" points="2931.64,-143.03 2941.88,-140.29 2932.17,-136.05 2931.64,-143.03"/>
</g>
<!-- Node32 -->
<g id="node32" class="node">
<title>Node32</title>
<g id="a_node32"><a xlink:href="../../dd/df6/vabstractmainwindow_8cpp.html" target="_top" xlink:title=" ">
<polygon fill="white" stroke="black" points="1709,-73 1709,-92 1938,-92 1938,-73 1709,-73"/>
<text text-anchor="middle" x="1823.5" y="-80" font-family="Helvetica,sans-Serif" font-size="10.00">src/libs/vwidgets/vabstractmainwindow.cpp</text>
</a>
</g>
</g>
<!-- Node4&#45;&gt;Node32 -->
<g id="edge34" class="edge">
<title>Node4&#45;&gt;Node32</title>
<path fill="none" stroke="midnightblue" d="M2931.84,-139.69C2904.35,-137.63 2874.84,-135.58 2847.5,-134 2447.4,-110.91 2346.03,-129.48 1946.5,-98 1927.32,-96.49 1906.51,-94.26 1887.56,-92"/>
<polygon fill="midnightblue" stroke="midnightblue" points="2931.63,-143.19 2941.87,-140.45 2932.16,-136.21 2931.63,-143.19"/>
</g>
<!-- Node33 -->
<g id="node33" class="node">
<title>Node33</title>
<g id="a_node33"><a xlink:href="../../de/d45/vcontrolpointspline_8cpp.html" target="_top" xlink:title=" ">
<polygon fill="white" stroke="black" points="1956,-73 1956,-92 2171,-92 2171,-73 1956,-73"/>
<text text-anchor="middle" x="2063.5" y="-80" font-family="Helvetica,sans-Serif" font-size="10.00">src/libs/vwidgets/vcontrolpointspline.cpp</text>
</a>
</g>
</g>
<!-- Node4&#45;&gt;Node33 -->
<g id="edge35" class="edge">
<title>Node4&#45;&gt;Node33</title>
<path fill="none" stroke="midnightblue" d="M2931.83,-139.96C2904.34,-137.89 2874.83,-135.77 2847.5,-134 2551.24,-114.82 2476.21,-124.27 2180.5,-98 2162.66,-96.42 2143.35,-94.22 2125.65,-92.02"/>
<polygon fill="midnightblue" stroke="midnightblue" points="2931.62,-143.45 2941.85,-140.72 2932.15,-136.47 2931.62,-143.45"/>
</g>
<!-- Node34 -->
<g id="node34" class="node">
<title>Node34</title>
<g id="a_node34"><a xlink:href="../../de/dec/vgraphicssimpletextitem_8cpp.html" target="_top" xlink:title=" ">
<polygon fill="white" stroke="black" points="2189.5,-73 2189.5,-92 2433.5,-92 2433.5,-73 2189.5,-73"/>
<text text-anchor="middle" x="2311.5" y="-80" font-family="Helvetica,sans-Serif" font-size="10.00">src/libs/vwidgets/vgraphicssimpletextitem.cpp</text>
</a>
</g>
</g>
<!-- Node4&#45;&gt;Node34 -->
<g id="edge36" class="edge">
<title>Node4&#45;&gt;Node34</title>
<path fill="none" stroke="midnightblue" d="M2931.71,-140.23C2812.1,-130.85 2613.38,-114.68 2442.5,-98 2423.94,-96.19 2403.92,-94.06 2385.25,-92"/>
<polygon fill="midnightblue" stroke="midnightblue" points="2931.73,-143.74 2941.97,-141.03 2932.27,-136.76 2931.73,-143.74"/>
</g>
<!-- Node4&#45;&gt;Node35 -->
<g id="edge37" class="edge">
<title>Node4&#45;&gt;Node35</title>
<path fill="none" stroke="midnightblue" d="M3147.17,-146.91C3475.85,-141.82 4463.26,-124.67 4783.5,-98 4800.28,-96.6 4818.48,-94.35 4834.94,-92.04"/>
<polygon fill="midnightblue" stroke="midnightblue" points="3147.11,-143.41 3137.17,-147.07 3147.22,-150.41 3147.11,-143.41"/>
</g>
<!-- Node36 -->
<g id="node36" class="node">
<title>Node36</title>
<g id="a_node36"><a xlink:href="../../d0/d5d/vscenepoint_8cpp.html" target="_top" xlink:title=" ">
<polygon fill="white" stroke="black" points="2452,-73 2452,-92 2633,-92 2633,-73 2452,-73"/>
<text text-anchor="middle" x="2542.5" y="-80" font-family="Helvetica,sans-Serif" font-size="10.00">src/libs/vwidgets/vscenepoint.cpp</text>
</a>
</g>
</g>
<!-- Node4&#45;&gt;Node36 -->
<g id="edge38" class="edge">
<title>Node4&#45;&gt;Node36</title>
<path fill="none" stroke="midnightblue" d="M2959.5,-138.74C2879.28,-128.86 2752.26,-112.94 2642.5,-98 2628.77,-96.13 2613.99,-94.03 2600.11,-92.03"/>
<polygon fill="midnightblue" stroke="midnightblue" points="2959.18,-142.23 2969.53,-139.97 2960.03,-135.28 2959.18,-142.23"/>
</g>
<!-- Node4&#45;&gt;Node37 -->
<g id="edge39" class="edge">
<title>Node4&#45;&gt;Node37</title>
<path fill="none" stroke="midnightblue" d="M3147.11,-147.1C3501.63,-142.29 4630.95,-125.16 4994.5,-98 5013.28,-96.6 5033.67,-94.33 5052.09,-92"/>
<polygon fill="midnightblue" stroke="midnightblue" points="3147.06,-143.6 3137.1,-147.24 3147.15,-150.6 3147.06,-143.6"/>
</g>
<!-- Node38 -->
<g id="node38" class="node">
<title>Node38</title>
<g id="a_node38"><a xlink:href="../../de/d22/vsimplecurve_8cpp.html" target="_top" xlink:title=" ">
<polygon fill="white" stroke="black" points="2651.5,-73 2651.5,-92 2839.5,-92 2839.5,-73 2651.5,-73"/>
<text text-anchor="middle" x="2745.5" y="-80" font-family="Helvetica,sans-Serif" font-size="10.00">src/libs/vwidgets/vsimplecurve.cpp</text>
</a>
</g>
</g>
<!-- Node4&#45;&gt;Node38 -->
<g id="edge40" class="edge">
<title>Node4&#45;&gt;Node38</title>
<path fill="none" stroke="midnightblue" d="M2990.76,-137.72C2932.87,-124.92 2837.47,-103.83 2784.32,-92.08"/>
<polygon fill="midnightblue" stroke="midnightblue" points="2990.24,-141.19 3000.76,-139.94 2991.75,-134.36 2990.24,-141.19"/>
</g>
<!-- Node39 -->
<g id="node39" class="node">
<title>Node39</title>
<g id="a_node39"><a xlink:href="../../df/d38/vsimplepoint_8cpp.html" target="_top" xlink:title=" ">
<polygon fill="white" stroke="black" points="2858,-73 2858,-92 3043,-92 3043,-73 2858,-73"/>
<text text-anchor="middle" x="2950.5" y="-80" font-family="Helvetica,sans-Serif" font-size="10.00">src/libs/vwidgets/vsimplepoint.cpp</text>
</a>
</g>
</g>
<!-- Node4&#45;&gt;Node39 -->
<g id="edge41" class="edge">
<title>Node4&#45;&gt;Node39</title>
<path fill="none" stroke="midnightblue" d="M3019.05,-133.57C3001.49,-120.74 2976.77,-102.69 2962.31,-92.13"/>
<polygon fill="midnightblue" stroke="midnightblue" points="3017.36,-136.66 3027.5,-139.73 3021.49,-131.01 3017.36,-136.66"/>
</g>
<!-- Node4&#45;&gt;Node40 -->
<g id="edge42" class="edge">
<title>Node4&#45;&gt;Node40</title>
<path fill="none" stroke="midnightblue" d="M3147.41,-146.66C3559.39,-139.55 5020.44,-113.48 5228.5,-98 5246.96,-96.63 5267.01,-94.37 5285.11,-92.04"/>
<polygon fill="midnightblue" stroke="midnightblue" points="3147.23,-143.16 3137.29,-146.83 3147.35,-150.16 3147.23,-143.16"/>
</g>
<!-- Node4&#45;&gt;Node41 -->
<g id="edge43" class="edge">
<title>Node4&#45;&gt;Node41</title>
<path fill="none" stroke="midnightblue" d="M3147.15,-146.88C3585.86,-140.21 5226.53,-114.4 5458.5,-98 5477.86,-96.63 5498.9,-94.36 5517.87,-92.01"/>
<polygon fill="midnightblue" stroke="midnightblue" points="3146.96,-143.39 3137.01,-147.04 3147.06,-150.39 3146.96,-143.39"/>
</g>
<!-- Node7 -->
<g id="node7" class="node">
<title>Node7</title>
<g id="a_node7"><a xlink:href="../../d4/da1/vabstractarc_8cpp.html" target="_top" xlink:title=" ">
<polygon fill="white" stroke="black" points="3214,-0.5 3214,-30.5 3321,-30.5 3321,-0.5 3214,-0.5"/>
<text text-anchor="start" x="3222" y="-18.5" font-family="Helvetica,sans-Serif" font-size="10.00">src/libs/vgeometry</text>
<text text-anchor="middle" x="3267.5" y="-7.5" font-family="Helvetica,sans-Serif" font-size="10.00">/vabstractarc.cpp</text>
</a>
</g>
</g>
<!-- Node6&#45;&gt;Node7 -->
<g id="edge7" class="edge">
<title>Node6&#45;&gt;Node7</title>
<path fill="none" stroke="midnightblue" d="M3267.5,-57.11C3267.5,-48.15 3267.5,-38.32 3267.5,-30.58"/>
<polygon fill="midnightblue" stroke="midnightblue" points="3264,-57.4 3267.5,-67.4 3271,-57.4 3264,-57.4"/>
</g>
<!-- Node9 -->
<g id="node9" class="node">
<title>Node9</title>
<g id="a_node9"><a xlink:href="../../d5/ded/varc_8cpp.html" target="_top" xlink:title=" ">
<polygon fill="white" stroke="black" points="3339,-0.5 3339,-30.5 3446,-30.5 3446,-0.5 3339,-0.5"/>
<text text-anchor="start" x="3347" y="-18.5" font-family="Helvetica,sans-Serif" font-size="10.00">src/libs/vgeometry</text>
<text text-anchor="middle" x="3392.5" y="-7.5" font-family="Helvetica,sans-Serif" font-size="10.00">/varc.cpp</text>
</a>
</g>
</g>
<!-- Node8&#45;&gt;Node9 -->
<g id="edge9" class="edge">
<title>Node8&#45;&gt;Node9</title>
<path fill="none" stroke="midnightblue" d="M3392.5,-57.11C3392.5,-48.15 3392.5,-38.32 3392.5,-30.58"/>
<polygon fill="midnightblue" stroke="midnightblue" points="3389,-57.4 3392.5,-67.4 3396,-57.4 3389,-57.4"/>
</g>
<!-- Node11 -->
<g id="node11" class="node">
<title>Node11</title>
<g id="a_node11"><a xlink:href="../../d2/d26/vcubicbezier_8cpp.html" target="_top" xlink:title=" ">
<polygon fill="white" stroke="black" points="3464,-0.5 3464,-30.5 3571,-30.5 3571,-0.5 3464,-0.5"/>
<text text-anchor="start" x="3472" y="-18.5" font-family="Helvetica,sans-Serif" font-size="10.00">src/libs/vgeometry</text>
<text text-anchor="middle" x="3517.5" y="-7.5" font-family="Helvetica,sans-Serif" font-size="10.00">/vcubicbezier.cpp</text>
</a>
</g>
</g>
<!-- Node10&#45;&gt;Node11 -->
<g id="edge11" class="edge">
<title>Node10&#45;&gt;Node11</title>
<path fill="none" stroke="midnightblue" d="M3517.5,-57.11C3517.5,-48.15 3517.5,-38.32 3517.5,-30.58"/>
<polygon fill="midnightblue" stroke="midnightblue" points="3514,-57.4 3517.5,-67.4 3521,-57.4 3514,-57.4"/>
</g>
<!-- Node12&#45;&gt;Node13 -->
<g id="edge13" class="edge">
<title>Node12&#45;&gt;Node13</title>
<path fill="none" stroke="midnightblue" d="M3649.82,-57.7C3652.63,-48.59 3655.73,-38.49 3658.17,-30.58"/>
<polygon fill="midnightblue" stroke="midnightblue" points="3646.44,-56.81 3646.84,-67.4 3653.13,-58.87 3646.44,-56.81"/>
</g>
<!-- Node15 -->
<g id="node15" class="node">
<title>Node15</title>
<g id="a_node15"><a xlink:href="../../d5/dd2/vspline_8cpp.html" target="_top" xlink:title=" ">
<polygon fill="white" stroke="black" points="3753,-0.5 3753,-30.5 3860,-30.5 3860,-0.5 3753,-0.5"/>
<text text-anchor="start" x="3761" y="-18.5" font-family="Helvetica,sans-Serif" font-size="10.00">src/libs/vgeometry</text>
<text text-anchor="middle" x="3806.5" y="-7.5" font-family="Helvetica,sans-Serif" font-size="10.00">/vspline.cpp</text>
</a>
</g>
</g>
<!-- Node14&#45;&gt;Node15 -->
<g id="edge16" class="edge">
<title>Node14&#45;&gt;Node15</title>
<path fill="none" stroke="midnightblue" d="M3806.5,-57.11C3806.5,-48.15 3806.5,-38.32 3806.5,-30.58"/>
<polygon fill="midnightblue" stroke="midnightblue" points="3803,-57.4 3806.5,-67.4 3810,-57.4 3803,-57.4"/>
</g>
<!-- Node26 -->
<g id="node26" class="node">
<title>Node26</title>
<g id="a_node26"><a xlink:href="../../d8/dba/vpiecenode_8cpp.html" target="_top" xlink:title=" ">
<polygon fill="white" stroke="black" points="491,-0.5 491,-30.5 598,-30.5 598,-0.5 491,-0.5"/>
<text text-anchor="start" x="499" y="-18.5" font-family="Helvetica,sans-Serif" font-size="10.00">src/libs/vpatterndb</text>
<text text-anchor="middle" x="544.5" y="-7.5" font-family="Helvetica,sans-Serif" font-size="10.00">/vpiecenode.cpp</text>
</a>
</g>
</g>
<!-- Node25&#45;&gt;Node26 -->
<g id="edge28" class="edge">
<title>Node25&#45;&gt;Node26</title>
<path fill="none" stroke="midnightblue" d="M544.5,-57.11C544.5,-48.15 544.5,-38.32 544.5,-30.58"/>
<polygon fill="midnightblue" stroke="midnightblue" points="541,-57.4 544.5,-67.4 548,-57.4 541,-57.4"/>
</g>
<!-- Node43 -->
<g id="node43" class="node">
<title>Node43</title>
<g id="a_node43"><a xlink:href="../../df/dba/vseamlymesettings_8cpp.html" target="_top" xlink:title=" ">
<polygon fill="white" stroke="black" points="5860,-140 5860,-159 6063,-159 6063,-140 5860,-140"/>
<text text-anchor="middle" x="5961.5" y="-147" font-family="Helvetica,sans-Serif" font-size="10.00">src/libs/vmisc/vseamlymesettings.cpp</text>
</a>
</g>
</g>
<!-- Node42&#45;&gt;Node43 -->
<g id="edge45" class="edge">
<title>Node42&#45;&gt;Node43</title>
<path fill="none" stroke="midnightblue" d="M4522.67,-200.97C5113.59,-168.23 5265.33,-211.44 5851.5,-165 5869.17,-163.6 5888.34,-161.33 5905.66,-159"/>
<polygon fill="midnightblue" stroke="midnightblue" points="4522.4,-197.48 4512.61,-201.54 4522.79,-204.47 4522.4,-197.48"/>
</g>
<!-- Node45&#45;&gt;Node4 -->
<g id="edge52" class="edge">
<title>Node45&#45;&gt;Node4</title>
<path fill="none" stroke="midnightblue" d="M4032,-205.54C3838.41,-194.8 3347.34,-167.57 3137.27,-155.92"/>
<polygon fill="midnightblue" stroke="midnightblue" points="4031.92,-209.04 4042.1,-206.1 4032.31,-202.05 4031.92,-209.04"/>
</g>
<!-- Node45&#45;&gt;Node37 -->
<g id="edge54" class="edge">
<title>Node45&#45;&gt;Node37</title>
<path fill="none" stroke="midnightblue" d="M4139.8,-196.75C4156.74,-188.24 4178.77,-176.64 4197.5,-165 4217.51,-152.57 4218.26,-141.77 4240.5,-134 4398.86,-78.66 4827.37,-112.33 4994.5,-98 5012.55,-96.45 5032.1,-94.24 5049.96,-92.01"/>
<polygon fill="midnightblue" stroke="midnightblue" points="4137.88,-193.8 4130.48,-201.38 4140.99,-200.07 4137.88,-193.8"/>
</g>
<!-- Node46 -->
<g id="node46" class="node">
<title>Node46</title>
<g id="a_node46"><a xlink:href="../../d9/d02/vapplication_8h.html" target="_top" xlink:title=" ">
<polygon fill="white" stroke="red" points="5715,-134.5 5715,-164.5 5842,-164.5 5842,-134.5 5715,-134.5"/>
<text text-anchor="start" x="5723" y="-152.5" font-family="Helvetica,sans-Serif" font-size="10.00">src/app/seamly2d/core</text>
<text text-anchor="middle" x="5778.5" y="-141.5" font-family="Helvetica,sans-Serif" font-size="10.00">/vapplication.h</text>
</a>
</g>
</g>
<!-- Node45&#45;&gt;Node46 -->
<g id="edge48" class="edge">
<title>Node45&#45;&gt;Node46</title>
<path fill="none" stroke="midnightblue" d="M4192.97,-206.16C4229.19,-204.49 4272.49,-202.55 4311.5,-201 4854.51,-179.38 5510.81,-158.74 5714.86,-152.45"/>
<polygon fill="midnightblue" stroke="midnightblue" points="4192.77,-202.67 4182.95,-206.63 4193.1,-209.66 4192.77,-202.67"/>
</g>
<!-- Node70 -->
<g id="node50" class="node">
<title>Node70</title>
<g id="a_node50"><a xlink:href="../../db/d28/vsettings_8cpp.html" target="_top" xlink:title=" ">
<polygon fill="white" stroke="black" points="4036.5,-140 4036.5,-159 4188.5,-159 4188.5,-140 4036.5,-140"/>
<text text-anchor="middle" x="4112.5" y="-147" font-family="Helvetica,sans-Serif" font-size="10.00">src/libs/vmisc/vsettings.cpp</text>
</a>
</g>
</g>
<!-- Node45&#45;&gt;Node70 -->
<g id="edge53" class="edge">
<title>Node45&#45;&gt;Node70</title>
<path fill="none" stroke="midnightblue" d="M4112.5,-191.32C4112.5,-180.5 4112.5,-167.4 4112.5,-159.01"/>
<polygon fill="midnightblue" stroke="midnightblue" points="4109,-191.48 4112.5,-201.48 4116,-191.48 4109,-191.48"/>
</g>
<!-- Node47 -->
<g id="node47" class="node">
<title>Node47</title>
<g id="a_node47"><a xlink:href="../../d3/dd8/vapplication_8cpp.html" target="_top" xlink:title=" ">
<polygon fill="white" stroke="black" points="6132,-67.5 6132,-97.5 6259,-97.5 6259,-67.5 6132,-67.5"/>
<text text-anchor="start" x="6140" y="-85.5" font-family="Helvetica,sans-Serif" font-size="10.00">src/app/seamly2d/core</text>
<text text-anchor="middle" x="6195.5" y="-74.5" font-family="Helvetica,sans-Serif" font-size="10.00">/vapplication.cpp</text>
</a>
</g>
</g>
<!-- Node46&#45;&gt;Node47 -->
<g id="edge49" class="edge">
<title>Node46&#45;&gt;Node47</title>
<path fill="none" stroke="midnightblue" d="M5852.21,-133.96C5973.53,-114.3 6006.39,-117.52 6123.5,-98 6126.27,-97.54 6129.09,-97.05 6131.94,-96.54"/>
<polygon fill="midnightblue" stroke="midnightblue" points="5851.46,-130.53 5842.16,-135.6 5852.59,-137.44 5851.46,-130.53"/>
</g>
<!-- Node48 -->
<g id="node48" class="node">
<title>Node48</title>
<g id="a_node48"><a xlink:href="../../d7/dfa/calculator__dialog_8cpp.html" target="_top" xlink:title=" ">
<polygon fill="white" stroke="black" points="5708,-67.5 5708,-97.5 5849,-97.5 5849,-67.5 5708,-67.5"/>
<text text-anchor="start" x="5716" y="-85.5" font-family="Helvetica,sans-Serif" font-size="10.00">src/app/seamly2d/dialogs</text>
<text text-anchor="middle" x="5778.5" y="-74.5" font-family="Helvetica,sans-Serif" font-size="10.00">/calculator_dialog.cpp</text>
</a>
</g>
</g>
<!-- Node46&#45;&gt;Node48 -->
<g id="edge50" class="edge">
<title>Node46&#45;&gt;Node48</title>
<path fill="none" stroke="midnightblue" d="M5778.5,-124.11C5778.5,-115.15 5778.5,-105.32 5778.5,-97.58"/>
<polygon fill="midnightblue" stroke="midnightblue" points="5775,-124.4 5778.5,-134.4 5782,-124.4 5775,-124.4"/>
</g>
<!-- Node49 -->
<g id="node49" class="node">
<title>Node49</title>
<g id="a_node49"><a xlink:href="../../d2/d2d/preferencesconfigurationpage_8cpp.html" target="_top" xlink:title=" ">
<polygon fill="white" stroke="black" points="5867,-67.5 5867,-97.5 6114,-97.5 6114,-67.5 5867,-67.5"/>
<text text-anchor="start" x="5875" y="-85.5" font-family="Helvetica,sans-Serif" font-size="10.00">src/app/seamly2d/dialogs</text>
<text text-anchor="middle" x="5990.5" y="-74.5" font-family="Helvetica,sans-Serif" font-size="10.00">/configpages/preferencesconfigurationpage.cpp</text>
</a>
</g>
</g>
<!-- Node46&#45;&gt;Node49 -->
<g id="edge51" class="edge">
<title>Node46&#45;&gt;Node49</title>
<path fill="none" stroke="midnightblue" d="M5834.13,-131.44C5868.49,-120.91 5912.06,-107.55 5944.48,-97.61"/>
<polygon fill="midnightblue" stroke="midnightblue" points="5832.77,-128.2 5824.24,-134.48 5834.83,-134.89 5832.77,-128.2"/>
</g>
</g>
</svg>
