<?xml version="1.0" encoding="UTF-8" standalone="no"?>
<!DOCTYPE svg PUBLIC "-//W3C//DTD SVG 1.1//EN"
 "http://www.w3.org/Graphics/SVG/1.1/DTD/svg11.dtd">
<!-- Generated by graphviz version 2.43.0 (0)
 -->
<!-- Title: src/app/seamly2d/dialogs/layoutsettings_dialog.h Pages: 1 -->
<svg width="4019pt" height="240pt"
 viewBox="0.00 0.00 4018.50 240.00" xmlns="http://www.w3.org/2000/svg" xmlns:xlink="http://www.w3.org/1999/xlink">
<g id="graph0" class="graph" transform="scale(1 1) rotate(0) translate(4 236)">
<title>src/app/seamly2d/dialogs/layoutsettings_dialog.h</title>
<polygon fill="white" stroke="transparent" points="-4,4 -4,-236 4014.5,-236 4014.5,4 -4,4"/>
<!-- Node1 -->
<g id="node1" class="node">
<title>Node1</title>
<g id="a_node1"><a xlink:title=" ">
<polygon fill="#bfbfbf" stroke="black" points="2564.5,-201.5 2564.5,-231.5 2705.5,-231.5 2705.5,-201.5 2564.5,-201.5"/>
<text text-anchor="start" x="2572.5" y="-219.5" font-family="Helvetica,sans-Serif" font-size="10.00">src/app/seamly2d/dialogs</text>
<text text-anchor="middle" x="2635" y="-208.5" font-family="Helvetica,sans-Serif" font-size="10.00">/layoutsettings_dialog.h</text>
</a>
</g>
</g>
<!-- Node2 -->
<g id="node2" class="node">
<title>Node2</title>
<g id="a_node2"><a xlink:href="../../dd/d57/vcmdexport_8h.html" target="_top" xlink:title=" ">
<polygon fill="white" stroke="black" points="2407.5,-134.5 2407.5,-164.5 2534.5,-164.5 2534.5,-134.5 2407.5,-134.5"/>
<text text-anchor="start" x="2415.5" y="-152.5" font-family="Helvetica,sans-Serif" font-size="10.00">src/app/seamly2d/core</text>
<text text-anchor="middle" x="2471" y="-141.5" font-family="Helvetica,sans-Serif" font-size="10.00">/vcmdexport.h</text>
</a>
</g>
</g>
<!-- Node1&#45;&gt;Node2 -->
<g id="edge1" class="edge">
<title>Node1&#45;&gt;Node2</title>
<path fill="none" stroke="midnightblue" d="M2590.04,-197.68C2563.74,-187.26 2531,-174.28 2506.52,-164.58"/>
<polygon fill="midnightblue" stroke="midnightblue" points="2588.83,-200.97 2599.41,-201.4 2591.41,-194.46 2588.83,-200.97"/>
</g>
<!-- Node18 -->
<g id="node18" class="node">
<title>Node18</title>
<g id="a_node18"><a xlink:href="../../d0/dfa/layoutsettings__dialog_8cpp.html" target="_top" xlink:title=" ">
<polygon fill="white" stroke="black" points="3626.5,-0.5 3626.5,-30.5 3771.5,-30.5 3771.5,-0.5 3626.5,-0.5"/>
<text text-anchor="start" x="3634.5" y="-18.5" font-family="Helvetica,sans-Serif" font-size="10.00">src/app/seamly2d/dialogs</text>
<text text-anchor="middle" x="3699" y="-7.5" font-family="Helvetica,sans-Serif" font-size="10.00">/layoutsettings_dialog.cpp</text>
</a>
</g>
</g>
<!-- Node1&#45;&gt;Node18 -->
<g id="edge31" class="edge">
<title>Node1&#45;&gt;Node18</title>
<path fill="none" stroke="midnightblue" d="M2715.51,-200.44C2915.86,-162.97 3434.48,-65.97 3626.29,-30.1"/>
<polygon fill="midnightblue" stroke="midnightblue" points="2714.82,-197.01 2705.64,-202.29 2716.11,-203.89 2714.82,-197.01"/>
</g>
<!-- Node23 -->
<g id="node23" class="node">
<title>Node23</title>
<g id="a_node23"><a xlink:href="../../d8/de8/mainwindowsnogui_8cpp.html" target="_top" xlink:title=" ">
<polygon fill="white" stroke="black" points="3789.5,-6 3789.5,-25 4010.5,-25 4010.5,-6 3789.5,-6"/>
<text text-anchor="middle" x="3900" y="-13" font-family="Helvetica,sans-Serif" font-size="10.00">src/app/seamly2d/mainwindowsnogui.cpp</text>
</a>
</g>
</g>
<!-- Node1&#45;&gt;Node23 -->
<g id="edge32" class="edge">
<title>Node1&#45;&gt;Node23</title>
<path fill="none" stroke="midnightblue" d="M2715.9,-205.05C2790.52,-195.26 2904.35,-179.93 3003,-165 3327.63,-115.86 3716.9,-48.54 3851.46,-25.02"/>
<polygon fill="midnightblue" stroke="midnightblue" points="2715.09,-201.63 2705.63,-206.4 2716,-208.57 2715.09,-201.63"/>
</g>
<!-- Node26 -->
<g id="node26" class="node">
<title>Node26</title>
<g id="a_node26"><a xlink:href="../../df/d9b/vcmdexport_8cpp.html" target="_top" xlink:title=" ">
<polygon fill="white" stroke="black" points="2466.5,-67.5 2466.5,-97.5 2593.5,-97.5 2593.5,-67.5 2466.5,-67.5"/>
<text text-anchor="start" x="2474.5" y="-85.5" font-family="Helvetica,sans-Serif" font-size="10.00">src/app/seamly2d/core</text>
<text text-anchor="middle" x="2530" y="-74.5" font-family="Helvetica,sans-Serif" font-size="10.00">/vcmdexport.cpp</text>
</a>
</g>
</g>
<!-- Node1&#45;&gt;Node26 -->
<g id="edge30" class="edge">
<title>Node1&#45;&gt;Node26</title>
<path fill="none" stroke="midnightblue" d="M2617.53,-193.54C2595.83,-166.25 2559.42,-120.48 2541.16,-97.52"/>
<polygon fill="midnightblue" stroke="midnightblue" points="2614.8,-195.73 2623.76,-201.37 2620.28,-191.37 2614.8,-195.73"/>
</g>
<!-- Node3 -->
<g id="node3" class="node">
<title>Node3</title>
<g id="a_node3"><a xlink:href="../../d9/d02/vapplication_8h.html" target="_top" xlink:title=" ">
<polygon fill="white" stroke="black" points="1908.5,-67.5 1908.5,-97.5 2035.5,-97.5 2035.5,-67.5 1908.5,-67.5"/>
<text text-anchor="start" x="1916.5" y="-85.5" font-family="Helvetica,sans-Serif" font-size="10.00">src/app/seamly2d/core</text>
<text text-anchor="middle" x="1972" y="-74.5" font-family="Helvetica,sans-Serif" font-size="10.00">/vapplication.h</text>
</a>
</g>
</g>
<!-- Node2&#45;&gt;Node3 -->
<g id="edge2" class="edge">
<title>Node2&#45;&gt;Node3</title>
<path fill="none" stroke="midnightblue" d="M2397.19,-138.88C2299.32,-126.14 2128.22,-103.85 2035.72,-91.8"/>
<polygon fill="midnightblue" stroke="midnightblue" points="2396.93,-142.38 2407.29,-140.2 2397.83,-135.44 2396.93,-142.38"/>
</g>
<!-- Node2&#45;&gt;Node26 -->
<g id="edge25" class="edge">
<title>Node2&#45;&gt;Node26</title>
<path fill="none" stroke="midnightblue" d="M2490.75,-126.74C2499.48,-117.12 2509.5,-106.09 2517.22,-97.58"/>
<polygon fill="midnightblue" stroke="midnightblue" points="2487.93,-124.64 2483.8,-134.4 2493.11,-129.34 2487.93,-124.64"/>
</g>
<!-- Node27 -->
<g id="node27" class="node">
<title>Node27</title>
<g id="a_node27"><a xlink:href="../../d9/d53/mainwindow_8h.html" target="_top" xlink:title=" ">
<polygon fill="white" stroke="black" points="261,-73 261,-92 437,-92 437,-73 261,-73"/>
<text text-anchor="middle" x="349" y="-80" font-family="Helvetica,sans-Serif" font-size="10.00">src/app/seamly2d/mainwindow.h</text>
</a>
</g>
</g>
<!-- Node2&#45;&gt;Node27 -->
<g id="edge26" class="edge">
<title>Node2&#45;&gt;Node27</title>
<path fill="none" stroke="midnightblue" d="M2397.33,-146.24C2074.7,-136.36 786.99,-96.92 437.12,-86.2"/>
<polygon fill="midnightblue" stroke="midnightblue" points="2397.39,-149.75 2407.49,-146.55 2397.6,-142.75 2397.39,-149.75"/>
</g>
<!-- Node4 -->
<g id="node4" class="node">
<title>Node4</title>
<g id="a_node4"><a xlink:href="../../d3/dd8/vapplication_8cpp.html" target="_top" xlink:title=" ">
<polygon fill="white" stroke="black" points="206.5,-0.5 206.5,-30.5 333.5,-30.5 333.5,-0.5 206.5,-0.5"/>
<text text-anchor="start" x="214.5" y="-18.5" font-family="Helvetica,sans-Serif" font-size="10.00">src/app/seamly2d/core</text>
<text text-anchor="middle" x="270" y="-7.5" font-family="Helvetica,sans-Serif" font-size="10.00">/vapplication.cpp</text>
</a>
</g>
</g>
<!-- Node3&#45;&gt;Node4 -->
<g id="edge3" class="edge">
<title>Node3&#45;&gt;Node4</title>
<path fill="none" stroke="midnightblue" d="M1897.81,-80.86C1621.13,-78.19 649.54,-66.48 342,-31 339.21,-30.68 336.37,-30.31 333.51,-29.89"/>
<polygon fill="midnightblue" stroke="midnightblue" points="1898.11,-84.36 1908.14,-80.95 1898.17,-77.36 1898.11,-84.36"/>
</g>
<!-- Node5 -->
<g id="node5" class="node">
<title>Node5</title>
<g id="a_node5"><a xlink:href="../../dd/db4/abstractlayout__dialog_8cpp.html" target="_top" xlink:title=" ">
<polygon fill="white" stroke="black" points="1302,-0.5 1302,-30.5 1448,-30.5 1448,-0.5 1302,-0.5"/>
<text text-anchor="start" x="1310" y="-18.5" font-family="Helvetica,sans-Serif" font-size="10.00">src/app/seamly2d/dialogs</text>
<text text-anchor="middle" x="1375" y="-7.5" font-family="Helvetica,sans-Serif" font-size="10.00">/abstractlayout_dialog.cpp</text>
</a>
</g>
</g>
<!-- Node3&#45;&gt;Node5 -->
<g id="edge4" class="edge">
<title>Node3&#45;&gt;Node5</title>
<path fill="none" stroke="midnightblue" d="M1898.37,-76.08C1798.23,-68.3 1613.61,-52.49 1457,-31 1454.14,-30.61 1451.22,-30.19 1448.27,-29.75"/>
<polygon fill="midnightblue" stroke="midnightblue" points="1898.15,-79.57 1908.39,-76.85 1898.69,-72.59 1898.15,-79.57"/>
</g>
<!-- Node6 -->
<g id="node6" class="node">
<title>Node6</title>
<g id="a_node6"><a xlink:href="../../d7/dfa/calculator__dialog_8cpp.html" target="_top" xlink:title=" ">
<polygon fill="white" stroke="black" points="1466.5,-0.5 1466.5,-30.5 1607.5,-30.5 1607.5,-0.5 1466.5,-0.5"/>
<text text-anchor="start" x="1474.5" y="-18.5" font-family="Helvetica,sans-Serif" font-size="10.00">src/app/seamly2d/dialogs</text>
<text text-anchor="middle" x="1537" y="-7.5" font-family="Helvetica,sans-Serif" font-size="10.00">/calculator_dialog.cpp</text>
</a>
</g>
</g>
<!-- Node3&#45;&gt;Node6 -->
<g id="edge5" class="edge">
<title>Node3&#45;&gt;Node6</title>
<path fill="none" stroke="midnightblue" d="M1897.88,-71.88C1825.77,-62.31 1713.19,-46.81 1616,-31 1613.25,-30.55 1610.44,-30.09 1607.61,-29.61"/>
<polygon fill="midnightblue" stroke="midnightblue" points="1897.84,-75.4 1908.22,-73.25 1898.76,-68.46 1897.84,-75.4"/>
</g>
<!-- Node7 -->
<g id="node7" class="node">
<title>Node7</title>
<g id="a_node7"><a xlink:href="../../dc/d20/preferencespathpage_8cpp.html" target="_top" xlink:title=" ">
<polygon fill="white" stroke="black" points="1625.5,-0.5 1625.5,-30.5 1830.5,-30.5 1830.5,-0.5 1625.5,-0.5"/>
<text text-anchor="start" x="1633.5" y="-18.5" font-family="Helvetica,sans-Serif" font-size="10.00">src/app/seamly2d/dialogs</text>
<text text-anchor="middle" x="1728" y="-7.5" font-family="Helvetica,sans-Serif" font-size="10.00">/configpages/preferencespathpage.cpp</text>
</a>
</g>
</g>
<!-- Node3&#45;&gt;Node7 -->
<g id="edge6" class="edge">
<title>Node3&#45;&gt;Node7</title>
<path fill="none" stroke="midnightblue" d="M1909.5,-64.85C1869.72,-54.25 1818.76,-40.68 1780.97,-30.61"/>
<polygon fill="midnightblue" stroke="midnightblue" points="1908.79,-68.28 1919.36,-67.48 1910.59,-61.52 1908.79,-68.28"/>
</g>
<!-- Node8 -->
<g id="node8" class="node">
<title>Node8</title>
<g id="a_node8"><a xlink:href="../../d9/d70/preferencesgraphicsviewpage_8cpp.html" target="_top" xlink:title=" ">
<polygon fill="white" stroke="black" points="1848,-0.5 1848,-30.5 2096,-30.5 2096,-0.5 1848,-0.5"/>
<text text-anchor="start" x="1856" y="-18.5" font-family="Helvetica,sans-Serif" font-size="10.00">src/app/seamly2d/dialogs</text>
<text text-anchor="middle" x="1972" y="-7.5" font-family="Helvetica,sans-Serif" font-size="10.00">/configpages/preferencesgraphicsviewpage.cpp</text>
</a>
</g>
</g>
<!-- Node3&#45;&gt;Node8 -->
<g id="edge7" class="edge">
<title>Node3&#45;&gt;Node8</title>
<path fill="none" stroke="midnightblue" d="M1972,-57.11C1972,-48.15 1972,-38.32 1972,-30.58"/>
<polygon fill="midnightblue" stroke="midnightblue" points="1968.5,-57.4 1972,-67.4 1975.5,-57.4 1968.5,-57.4"/>
</g>
<!-- Node9 -->
<g id="node9" class="node">
<title>Node9</title>
<g id="a_node9"><a xlink:href="../../dd/dc2/decimalchart__dialog_8cpp.html" target="_top" xlink:title=" ">
<polygon fill="white" stroke="black" points="2114.5,-0.5 2114.5,-30.5 2255.5,-30.5 2255.5,-0.5 2114.5,-0.5"/>
<text text-anchor="start" x="2122.5" y="-18.5" font-family="Helvetica,sans-Serif" font-size="10.00">src/app/seamly2d/dialogs</text>
<text text-anchor="middle" x="2185" y="-7.5" font-family="Helvetica,sans-Serif" font-size="10.00">/decimalchart_dialog.cpp</text>
</a>
</g>
</g>
<!-- Node3&#45;&gt;Node9 -->
<g id="edge8" class="edge">
<title>Node3&#45;&gt;Node9</title>
<path fill="none" stroke="midnightblue" d="M2027.89,-64.44C2062.42,-53.91 2106.19,-40.55 2138.76,-30.61"/>
<polygon fill="midnightblue" stroke="midnightblue" points="2026.5,-61.21 2017.96,-67.48 2028.54,-67.9 2026.5,-61.21"/>
</g>
<!-- Node10 -->
<g id="node10" class="node">
<title>Node10</title>
<g id="a_node10"><a xlink:href="../../dc/d63/preferencespatternpage_8cpp.html" target="_top" xlink:title=" ">
<polygon fill="white" stroke="black" points="2274,-0.5 2274,-30.5 2492,-30.5 2492,-0.5 2274,-0.5"/>
<text text-anchor="start" x="2282" y="-18.5" font-family="Helvetica,sans-Serif" font-size="10.00">src/app/seamly2d/dialogs</text>
<text text-anchor="middle" x="2383" y="-7.5" font-family="Helvetica,sans-Serif" font-size="10.00">/configpages/preferencespatternpage.cpp</text>
</a>
</g>
</g>
<!-- Node3&#45;&gt;Node10 -->
<g id="edge9" class="edge">
<title>Node3&#45;&gt;Node10</title>
<path fill="none" stroke="midnightblue" d="M2045.79,-69.83C2115.46,-58.81 2220.05,-42.27 2294.25,-30.54"/>
<polygon fill="midnightblue" stroke="midnightblue" points="2045.1,-66.4 2035.77,-71.42 2046.19,-73.31 2045.1,-66.4"/>
</g>
<!-- Node11 -->
<g id="node11" class="node">
<title>Node11</title>
<g id="a_node11"><a xlink:href="../../dd/d64/dialogaboutapp_8cpp.html" target="_top" xlink:title=" ">
<polygon fill="white" stroke="black" points="2510.5,-0.5 2510.5,-30.5 2651.5,-30.5 2651.5,-0.5 2510.5,-0.5"/>
<text text-anchor="start" x="2518.5" y="-18.5" font-family="Helvetica,sans-Serif" font-size="10.00">src/app/seamly2d/dialogs</text>
<text text-anchor="middle" x="2581" y="-7.5" font-family="Helvetica,sans-Serif" font-size="10.00">/dialogaboutapp.cpp</text>
</a>
</g>
</g>
<!-- Node3&#45;&gt;Node11 -->
<g id="edge10" class="edge">
<title>Node3&#45;&gt;Node11</title>
<path fill="none" stroke="midnightblue" d="M2045.96,-76.41C2148.44,-68.92 2339.31,-53.33 2501,-31 2504.08,-30.58 2507.21,-30.12 2510.38,-29.63"/>
<polygon fill="midnightblue" stroke="midnightblue" points="2045.44,-72.94 2035.72,-77.16 2045.94,-79.92 2045.44,-72.94"/>
</g>
<!-- Node12 -->
<g id="node12" class="node">
<title>Node12</title>
<g id="a_node12"><a xlink:href="../../d2/d2d/preferencesconfigurationpage_8cpp.html" target="_top" xlink:title=" ">
<polygon fill="white" stroke="black" points="2669.5,-0.5 2669.5,-30.5 2916.5,-30.5 2916.5,-0.5 2669.5,-0.5"/>
<text text-anchor="start" x="2677.5" y="-18.5" font-family="Helvetica,sans-Serif" font-size="10.00">src/app/seamly2d/dialogs</text>
<text text-anchor="middle" x="2793" y="-7.5" font-family="Helvetica,sans-Serif" font-size="10.00">/configpages/preferencesconfigurationpage.cpp</text>
</a>
</g>
</g>
<!-- Node3&#45;&gt;Node12 -->
<g id="edge11" class="edge">
<title>Node3&#45;&gt;Node12</title>
<path fill="none" stroke="midnightblue" d="M2046.02,-76.96C2172.29,-69.01 2437.37,-51.47 2661,-31 2663.76,-30.75 2666.54,-30.49 2669.35,-30.22"/>
<polygon fill="midnightblue" stroke="midnightblue" points="2045.47,-73.49 2035.71,-77.6 2045.91,-80.47 2045.47,-73.49"/>
</g>
<!-- Node13 -->
<g id="node13" class="node">
<title>Node13</title>
<g id="a_node13"><a xlink:href="../../d2/d00/vtooloptionspropertybrowser_8cpp.html" target="_top" xlink:title=" ">
<polygon fill="white" stroke="black" points="2935,-0.5 2935,-30.5 3115,-30.5 3115,-0.5 2935,-0.5"/>
<text text-anchor="start" x="2943" y="-18.5" font-family="Helvetica,sans-Serif" font-size="10.00">src/app/seamly2d/core</text>
<text text-anchor="middle" x="3025" y="-7.5" font-family="Helvetica,sans-Serif" font-size="10.00">/vtooloptionspropertybrowser.cpp</text>
</a>
</g>
</g>
<!-- Node3&#45;&gt;Node13 -->
<g id="edge12" class="edge">
<title>Node3&#45;&gt;Node13</title>
<path fill="none" stroke="midnightblue" d="M2045.74,-79.92C2206.16,-75.97 2598.77,-63.55 2926,-31 2928.94,-30.71 2931.92,-30.39 2934.94,-30.05"/>
<polygon fill="midnightblue" stroke="midnightblue" points="2045.42,-76.43 2035.51,-80.17 2045.59,-83.43 2045.42,-76.43"/>
</g>
<!-- Node14 -->
<g id="node14" class="node">
<title>Node14</title>
<g id="a_node14"><a xlink:href="../../d6/d89/dialoglayoutprogress_8cpp.html" target="_top" xlink:title=" ">
<polygon fill="white" stroke="black" points="3133.5,-0.5 3133.5,-30.5 3276.5,-30.5 3276.5,-0.5 3133.5,-0.5"/>
<text text-anchor="start" x="3141.5" y="-18.5" font-family="Helvetica,sans-Serif" font-size="10.00">src/app/seamly2d/dialogs</text>
<text text-anchor="middle" x="3205" y="-7.5" font-family="Helvetica,sans-Serif" font-size="10.00">/dialoglayoutprogress.cpp</text>
</a>
</g>
</g>
<!-- Node3&#45;&gt;Node14 -->
<g id="edge13" class="edge">
<title>Node3&#45;&gt;Node14</title>
<path fill="none" stroke="midnightblue" d="M2045.96,-79.55C2265.94,-73.54 2913.81,-54.31 3124,-31 3126.98,-30.67 3130.02,-30.3 3133.08,-29.89"/>
<polygon fill="midnightblue" stroke="midnightblue" points="2045.72,-76.05 2035.82,-79.83 2045.91,-83.05 2045.72,-76.05"/>
</g>
<!-- Node15 -->
<g id="node15" class="node">
<title>Node15</title>
<g id="a_node15"><a xlink:href="../../d5/dc5/dialogpreferences_8cpp.html" target="_top" xlink:title=" ">
<polygon fill="white" stroke="black" points="3294.5,-0.5 3294.5,-30.5 3435.5,-30.5 3435.5,-0.5 3294.5,-0.5"/>
<text text-anchor="start" x="3302.5" y="-18.5" font-family="Helvetica,sans-Serif" font-size="10.00">src/app/seamly2d/dialogs</text>
<text text-anchor="middle" x="3365" y="-7.5" font-family="Helvetica,sans-Serif" font-size="10.00">/dialogpreferences.cpp</text>
</a>
</g>
</g>
<!-- Node3&#45;&gt;Node15 -->
<g id="edge14" class="edge">
<title>Node3&#45;&gt;Node15</title>
<path fill="none" stroke="midnightblue" d="M2045.71,-79.28C2304.54,-71.42 3162.91,-44.59 3286,-31 3288.77,-30.69 3291.59,-30.35 3294.44,-29.97"/>
<polygon fill="midnightblue" stroke="midnightblue" points="2045.55,-75.79 2035.66,-79.59 2045.76,-82.78 2045.55,-75.79"/>
</g>
<!-- Node16 -->
<g id="node16" class="node">
<title>Node16</title>
<g id="a_node16"><a xlink:href="../../d5/d18/dialogpatternproperties_8cpp.html" target="_top" xlink:title=" ">
<polygon fill="white" stroke="black" points="3453.5,-0.5 3453.5,-30.5 3608.5,-30.5 3608.5,-0.5 3453.5,-0.5"/>
<text text-anchor="start" x="3461.5" y="-18.5" font-family="Helvetica,sans-Serif" font-size="10.00">src/app/seamly2d/dialogs</text>
<text text-anchor="middle" x="3531" y="-7.5" font-family="Helvetica,sans-Serif" font-size="10.00">/dialogpatternproperties.cpp</text>
</a>
</g>
</g>
<!-- Node3&#45;&gt;Node16 -->
<g id="edge15" class="edge">
<title>Node3&#45;&gt;Node16</title>
<path fill="none" stroke="midnightblue" d="M2045.94,-79.24C2334.84,-70.37 3374.9,-38.08 3445,-31 3447.71,-30.73 3450.47,-30.42 3453.25,-30.08"/>
<polygon fill="midnightblue" stroke="midnightblue" points="2045.47,-75.75 2035.58,-79.56 2045.68,-82.75 2045.47,-75.75"/>
</g>
<!-- Node17 -->
<g id="node17" class="node">
<title>Node17</title>
<g id="a_node17"><a xlink:href="../../dd/d54/export__layout__dialog_8cpp.html" target="_top" xlink:title=" ">
<polygon fill="white" stroke="black" points="520.5,-0.5 520.5,-30.5 663.5,-30.5 663.5,-0.5 520.5,-0.5"/>
<text text-anchor="start" x="528.5" y="-18.5" font-family="Helvetica,sans-Serif" font-size="10.00">src/app/seamly2d/dialogs</text>
<text text-anchor="middle" x="592" y="-7.5" font-family="Helvetica,sans-Serif" font-size="10.00">/export_layout_dialog.cpp</text>
</a>
</g>
</g>
<!-- Node3&#45;&gt;Node17 -->
<g id="edge16" class="edge">
<title>Node3&#45;&gt;Node17</title>
<path fill="none" stroke="midnightblue" d="M1898.15,-82.25C1699.36,-83.5 1136.54,-81.87 672,-31 669.33,-30.71 666.62,-30.38 663.89,-30.02"/>
<polygon fill="midnightblue" stroke="midnightblue" points="1898.21,-85.75 1908.19,-82.19 1898.16,-78.75 1898.21,-85.75"/>
</g>
<!-- Node3&#45;&gt;Node18 -->
<g id="edge17" class="edge">
<title>Node3&#45;&gt;Node18</title>
<path fill="none" stroke="midnightblue" d="M2045.64,-79.28C2364.21,-69.65 3608.08,-32.03 3618,-31 3620.7,-30.72 3623.44,-30.4 3626.21,-30.05"/>
<polygon fill="midnightblue" stroke="midnightblue" points="2045.49,-75.78 2035.6,-79.58 2045.7,-82.78 2045.49,-75.78"/>
</g>
<!-- Node19 -->
<g id="node19" class="node">
<title>Node19</title>
<g id="a_node19"><a xlink:href="../../d2/df4/show__info__dialog_8cpp.html" target="_top" xlink:title=" ">
<polygon fill="white" stroke="black" points="681.5,-0.5 681.5,-30.5 822.5,-30.5 822.5,-0.5 681.5,-0.5"/>
<text text-anchor="start" x="689.5" y="-18.5" font-family="Helvetica,sans-Serif" font-size="10.00">src/app/seamly2d/dialogs</text>
<text text-anchor="middle" x="752" y="-7.5" font-family="Helvetica,sans-Serif" font-size="10.00">/show_info_dialog.cpp</text>
</a>
</g>
</g>
<!-- Node3&#45;&gt;Node19 -->
<g id="edge18" class="edge">
<title>Node3&#45;&gt;Node19</title>
<path fill="none" stroke="midnightblue" d="M1898.11,-81.73C1716.09,-81.55 1231.79,-76.43 831,-31 828.23,-30.69 825.41,-30.33 822.56,-29.95"/>
<polygon fill="midnightblue" stroke="midnightblue" points="1898.36,-85.23 1908.37,-81.74 1898.37,-78.23 1898.36,-85.23"/>
</g>
<!-- Node20 -->
<g id="node20" class="node">
<title>Node20</title>
<g id="a_node20"><a xlink:href="../../dc/d14/app_2seamly2d_2main_8cpp.html" target="_top" xlink:title=" ">
<polygon fill="white" stroke="black" points="351.5,-6 351.5,-25 502.5,-25 502.5,-6 351.5,-6"/>
<text text-anchor="middle" x="427" y="-13" font-family="Helvetica,sans-Serif" font-size="10.00">src/app/seamly2d/main.cpp</text>
</a>
</g>
</g>
<!-- Node3&#45;&gt;Node20 -->
<g id="edge19" class="edge">
<title>Node3&#45;&gt;Node20</title>
<path fill="none" stroke="midnightblue" d="M1897.9,-80.28C1640.25,-75.81 784.29,-59.18 511,-31 497.46,-29.6 482.8,-27.34 469.58,-25.01"/>
<polygon fill="midnightblue" stroke="midnightblue" points="1898.21,-83.78 1908.27,-80.46 1898.33,-76.78 1898.21,-83.78"/>
</g>
<!-- Node21 -->
<g id="node21" class="node">
<title>Node21</title>
<g id="a_node21"><a xlink:href="../../dd/d84/shortcuts__dialog_8cpp.html" target="_top" xlink:title=" ">
<polygon fill="white" stroke="black" points="840.5,-0.5 840.5,-30.5 981.5,-30.5 981.5,-0.5 840.5,-0.5"/>
<text text-anchor="start" x="848.5" y="-18.5" font-family="Helvetica,sans-Serif" font-size="10.00">src/app/seamly2d/dialogs</text>
<text text-anchor="middle" x="911" y="-7.5" font-family="Helvetica,sans-Serif" font-size="10.00">/shortcuts_dialog.cpp</text>
</a>
</g>
</g>
<!-- Node3&#45;&gt;Node21 -->
<g id="edge20" class="edge">
<title>Node3&#45;&gt;Node21</title>
<path fill="none" stroke="midnightblue" d="M1897.83,-80.97C1733.66,-79.09 1327.42,-70.47 990,-31 987.23,-30.68 984.41,-30.31 981.57,-29.92"/>
<polygon fill="midnightblue" stroke="midnightblue" points="1898.25,-84.48 1908.29,-81.09 1898.32,-77.48 1898.25,-84.48"/>
</g>
<!-- Node22 -->
<g id="node22" class="node">
<title>Node22</title>
<g id="a_node22"><a xlink:href="../../db/d5c/groups__widget_8cpp.html" target="_top" xlink:title=" ">
<polygon fill="white" stroke="black" points="999.5,-0.5 999.5,-30.5 1140.5,-30.5 1140.5,-0.5 999.5,-0.5"/>
<text text-anchor="start" x="1007.5" y="-18.5" font-family="Helvetica,sans-Serif" font-size="10.00">src/app/seamly2d/dialogs</text>
<text text-anchor="middle" x="1070" y="-7.5" font-family="Helvetica,sans-Serif" font-size="10.00">/groups_widget.cpp</text>
</a>
</g>
</g>
<!-- Node3&#45;&gt;Node22 -->
<g id="edge21" class="edge">
<title>Node3&#45;&gt;Node22</title>
<path fill="none" stroke="midnightblue" d="M1898.19,-79.94C1753.81,-76.24 1424.1,-64.56 1149,-31 1146.23,-30.66 1143.41,-30.29 1140.57,-29.89"/>
<polygon fill="midnightblue" stroke="midnightblue" points="1898.17,-83.44 1908.26,-80.2 1898.35,-76.45 1898.17,-83.44"/>
</g>
<!-- Node3&#45;&gt;Node23 -->
<g id="edge22" class="edge">
<title>Node3&#45;&gt;Node23</title>
<path fill="none" stroke="midnightblue" d="M2045.64,-79.24C2140.68,-76.33 2311.17,-71.16 2457,-67 3045.42,-50.2 3193.96,-74.65 3781,-31 3799.99,-29.59 3820.61,-27.33 3839.26,-25.02"/>
<polygon fill="midnightblue" stroke="midnightblue" points="2045.44,-75.74 2035.55,-79.55 2045.66,-82.74 2045.44,-75.74"/>
</g>
<!-- Node24 -->
<g id="node24" class="node">
<title>Node24</title>
<g id="a_node24"><a xlink:href="../../d8/dd9/mainwindow_8cpp.html" target="_top" xlink:title=" ">
<polygon fill="white" stroke="black" points="0,-6 0,-25 188,-25 188,-6 0,-6"/>
<text text-anchor="middle" x="94" y="-13" font-family="Helvetica,sans-Serif" font-size="10.00">src/app/seamly2d/mainwindow.cpp</text>
</a>
</g>
</g>
<!-- Node3&#45;&gt;Node24 -->
<g id="edge23" class="edge">
<title>Node3&#45;&gt;Node24</title>
<path fill="none" stroke="midnightblue" d="M1898.16,-80.5C1606.68,-76.37 535.51,-59.55 197,-31 180.45,-29.6 162.49,-27.34 146.27,-25.01"/>
<polygon fill="midnightblue" stroke="midnightblue" points="1898.15,-84 1908.19,-80.64 1898.24,-77 1898.15,-84"/>
</g>
<!-- Node25 -->
<g id="node25" class="node">
<title>Node25</title>
<g id="a_node25"><a xlink:href="../../d3/d49/vpattern_8cpp.html" target="_top" xlink:title=" ">
<polygon fill="white" stroke="black" points="1158.5,-0.5 1158.5,-30.5 1283.5,-30.5 1283.5,-0.5 1158.5,-0.5"/>
<text text-anchor="start" x="1166.5" y="-18.5" font-family="Helvetica,sans-Serif" font-size="10.00">src/app/seamly2d/xml</text>
<text text-anchor="middle" x="1221" y="-7.5" font-family="Helvetica,sans-Serif" font-size="10.00">/vpattern.cpp</text>
</a>
</g>
</g>
<!-- Node3&#45;&gt;Node25 -->
<g id="edge24" class="edge">
<title>Node3&#45;&gt;Node25</title>
<path fill="none" stroke="midnightblue" d="M1897.83,-79.01C1772.66,-74.12 1511.7,-61.04 1293,-31 1289.97,-30.58 1286.87,-30.12 1283.75,-29.62"/>
<polygon fill="midnightblue" stroke="midnightblue" points="1897.94,-82.51 1908.07,-79.4 1898.21,-75.52 1897.94,-82.51"/>
</g>
<!-- Node27&#45;&gt;Node4 -->
<g id="edge27" class="edge">
<title>Node27&#45;&gt;Node4</title>
<path fill="none" stroke="midnightblue" d="M330.45,-66.24C317.34,-55.45 299.9,-41.1 287.12,-30.59"/>
<polygon fill="midnightblue" stroke="midnightblue" points="328.4,-69.08 338.35,-72.73 332.85,-63.68 328.4,-69.08"/>
</g>
<!-- Node27&#45;&gt;Node20 -->
<g id="edge28" class="edge">
<title>Node27&#45;&gt;Node20</title>
<path fill="none" stroke="midnightblue" d="M367.34,-66.21C382.71,-53.41 404.09,-35.59 416.65,-25.13"/>
<polygon fill="midnightblue" stroke="midnightblue" points="364.96,-63.64 359.52,-72.73 369.44,-69.02 364.96,-63.64"/>
</g>
<!-- Node27&#45;&gt;Node24 -->
<g id="edge29" class="edge">
<title>Node27&#45;&gt;Node24</title>
<path fill="none" stroke="midnightblue" d="M305.47,-70.4C255.14,-57.58 173.39,-36.74 127.67,-25.08"/>
<polygon fill="midnightblue" stroke="midnightblue" points="304.85,-73.86 315.4,-72.94 306.58,-67.07 304.85,-73.86"/>
</g>
</g>
</svg>
