<?xml version="1.0" encoding="UTF-8" standalone="no"?>
<!DOCTYPE svg PUBLIC "-//W3C//DTD SVG 1.1//EN"
 "http://www.w3.org/Graphics/SVG/1.1/DTD/svg11.dtd">
<!-- Generated by graphviz version 2.43.0 (0)
 -->
<!-- Title: src/app/seamly2d/dialogs/layoutsettings_dialog.h Pages: 1 -->
<svg width="4019pt" height="240pt"
 viewBox="0.00 0.00 4018.50 240.00" xmlns="http://www.w3.org/2000/svg" xmlns:xlink="http://www.w3.org/1999/xlink">
<g id="graph0" class="graph" transform="scale(1 1) rotate(0) translate(4 236)">
<title>src/app/seamly2d/dialogs/layoutsettings_dialog.h</title>
<polygon fill="white" stroke="transparent" points="-4,4 -4,-236 4014.5,-236 4014.5,4 -4,4"/>
<!-- Node1 -->
<g id="node1" class="node">
<title>Node1</title>
<g id="a_node1"><a xlink:title=" ">
<polygon fill="#bfbfbf" stroke="black" points="2589.5,-201.5 2589.5,-231.5 2730.5,-231.5 2730.5,-201.5 2589.5,-201.5"/>
<text text-anchor="start" x="2597.5" y="-219.5" font-family="Helvetica,sans-Serif" font-size="10.00">src/app/seamly2d/dialogs</text>
<text text-anchor="middle" x="2660" y="-208.5" font-family="Helvetica,sans-Serif" font-size="10.00">/layoutsettings_dialog.h</text>
</a>
</g>
</g>
<!-- Node2 -->
<g id="node2" class="node">
<title>Node2</title>
<g id="a_node2"><a xlink:href="../../dd/d57/vcmdexport_8h.html" target="_top" xlink:title=" ">
<polygon fill="white" stroke="black" points="2432.5,-134.5 2432.5,-164.5 2559.5,-164.5 2559.5,-134.5 2432.5,-134.5"/>
<text text-anchor="start" x="2440.5" y="-152.5" font-family="Helvetica,sans-Serif" font-size="10.00">src/app/seamly2d/core</text>
<text text-anchor="middle" x="2496" y="-141.5" font-family="Helvetica,sans-Serif" font-size="10.00">/vcmdexport.h</text>
</a>
</g>
</g>
<!-- Node1&#45;&gt;Node2 -->
<g id="edge1" class="edge">
<title>Node1&#45;&gt;Node2</title>
<path fill="none" stroke="midnightblue" d="M2615.04,-197.68C2588.74,-187.26 2556,-174.28 2531.52,-164.58"/>
<polygon fill="midnightblue" stroke="midnightblue" points="2613.83,-200.97 2624.41,-201.4 2616.41,-194.46 2613.83,-200.97"/>
</g>
<!-- Node19 -->
<g id="node19" class="node">
<title>Node19</title>
<g id="a_node19"><a xlink:href="../../d0/dfa/layoutsettings__dialog_8cpp.html" target="_top" xlink:title=" ">
<polygon fill="white" stroke="black" points="3626.5,-0.5 3626.5,-30.5 3771.5,-30.5 3771.5,-0.5 3626.5,-0.5"/>
<text text-anchor="start" x="3634.5" y="-18.5" font-family="Helvetica,sans-Serif" font-size="10.00">src/app/seamly2d/dialogs</text>
<text text-anchor="middle" x="3699" y="-7.5" font-family="Helvetica,sans-Serif" font-size="10.00">/layoutsettings_dialog.cpp</text>
</a>
</g>
</g>
<!-- Node1&#45;&gt;Node19 -->
<g id="edge31" class="edge">
<title>Node1&#45;&gt;Node19</title>
<path fill="none" stroke="midnightblue" d="M2740.56,-200.07C2936.98,-162.45 3438.17,-66.46 3626.24,-30.44"/>
<polygon fill="midnightblue" stroke="midnightblue" points="2739.76,-196.66 2730.6,-201.98 2741.08,-203.53 2739.76,-196.66"/>
</g>
<!-- Node23 -->
<g id="node23" class="node">
<title>Node23</title>
<g id="a_node23"><a xlink:href="../../d8/de8/mainwindowsnogui_8cpp.html" target="_top" xlink:title=" ">
<polygon fill="white" stroke="black" points="3789.5,-6 3789.5,-25 4010.5,-25 4010.5,-6 3789.5,-6"/>
<text text-anchor="middle" x="3900" y="-13" font-family="Helvetica,sans-Serif" font-size="10.00">src/app/seamly2d/mainwindowsnogui.cpp</text>
</a>
</g>
</g>
<!-- Node1&#45;&gt;Node23 -->
<g id="edge32" class="edge">
<title>Node1&#45;&gt;Node23</title>
<path fill="none" stroke="midnightblue" d="M2740.61,-204.8C2813.43,-194.98 2923.5,-179.76 3019,-165 3337.84,-115.71 3720.16,-48.48 3852.32,-25.01"/>
<polygon fill="midnightblue" stroke="midnightblue" points="2740.03,-201.35 2730.59,-206.15 2740.96,-208.28 2740.03,-201.35"/>
</g>
<!-- Node26 -->
<g id="node26" class="node">
<title>Node26</title>
<g id="a_node26"><a xlink:href="../../df/d9b/vcmdexport_8cpp.html" target="_top" xlink:title=" ">
<polygon fill="white" stroke="black" points="2491.5,-67.5 2491.5,-97.5 2618.5,-97.5 2618.5,-67.5 2491.5,-67.5"/>
<text text-anchor="start" x="2499.5" y="-85.5" font-family="Helvetica,sans-Serif" font-size="10.00">src/app/seamly2d/core</text>
<text text-anchor="middle" x="2555" y="-74.5" font-family="Helvetica,sans-Serif" font-size="10.00">/vcmdexport.cpp</text>
</a>
</g>
</g>
<!-- Node1&#45;&gt;Node26 -->
<g id="edge30" class="edge">
<title>Node1&#45;&gt;Node26</title>
<path fill="none" stroke="midnightblue" d="M2642.53,-193.54C2620.83,-166.25 2584.42,-120.48 2566.16,-97.52"/>
<polygon fill="midnightblue" stroke="midnightblue" points="2639.8,-195.73 2648.76,-201.37 2645.28,-191.37 2639.8,-195.73"/>
</g>
<!-- Node3 -->
<g id="node3" class="node">
<title>Node3</title>
<g id="a_node3"><a xlink:href="../../d9/d02/vapplication_8h.html" target="_top" xlink:title=" ">
<polygon fill="white" stroke="black" points="1941.5,-67.5 1941.5,-97.5 2068.5,-97.5 2068.5,-67.5 1941.5,-67.5"/>
<text text-anchor="start" x="1949.5" y="-85.5" font-family="Helvetica,sans-Serif" font-size="10.00">src/app/seamly2d/core</text>
<text text-anchor="middle" x="2005" y="-74.5" font-family="Helvetica,sans-Serif" font-size="10.00">/vapplication.h</text>
</a>
</g>
</g>
<!-- Node2&#45;&gt;Node3 -->
<g id="edge2" class="edge">
<title>Node2&#45;&gt;Node3</title>
<path fill="none" stroke="midnightblue" d="M2422.38,-138.75C2326.23,-126.02 2159.48,-103.95 2068.57,-91.92"/>
<polygon fill="midnightblue" stroke="midnightblue" points="2421.94,-142.23 2432.31,-140.07 2422.86,-135.29 2421.94,-142.23"/>
</g>
<!-- Node2&#45;&gt;Node26 -->
<g id="edge25" class="edge">
<title>Node2&#45;&gt;Node26</title>
<path fill="none" stroke="midnightblue" d="M2515.75,-126.74C2524.48,-117.12 2534.5,-106.09 2542.22,-97.58"/>
<polygon fill="midnightblue" stroke="midnightblue" points="2512.93,-124.64 2508.8,-134.4 2518.11,-129.34 2512.93,-124.64"/>
</g>
<!-- Node27 -->
<g id="node27" class="node">
<title>Node27</title>
<g id="a_node27"><a xlink:href="../../d9/d53/mainwindow_8h.html" target="_top" xlink:title=" ">
<polygon fill="white" stroke="black" points="261,-73 261,-92 437,-92 437,-73 261,-73"/>
<text text-anchor="middle" x="349" y="-80" font-family="Helvetica,sans-Serif" font-size="10.00">src/app/seamly2d/mainwindow.h</text>
</a>
</g>
</g>
<!-- Node2&#45;&gt;Node27 -->
<g id="edge26" class="edge">
<title>Node2&#45;&gt;Node27</title>
<path fill="none" stroke="midnightblue" d="M2422.06,-146.26C2096.3,-136.4 789.61,-96.84 437.04,-86.17"/>
<polygon fill="midnightblue" stroke="midnightblue" points="2422.23,-149.77 2432.33,-146.57 2422.44,-142.77 2422.23,-149.77"/>
</g>
<!-- Node4 -->
<g id="node4" class="node">
<title>Node4</title>
<g id="a_node4"><a xlink:href="../../d3/dd8/vapplication_8cpp.html" target="_top" xlink:title=" ">
<polygon fill="white" stroke="black" points="206.5,-0.5 206.5,-30.5 333.5,-30.5 333.5,-0.5 206.5,-0.5"/>
<text text-anchor="start" x="214.5" y="-18.5" font-family="Helvetica,sans-Serif" font-size="10.00">src/app/seamly2d/core</text>
<text text-anchor="middle" x="270" y="-7.5" font-family="Helvetica,sans-Serif" font-size="10.00">/vapplication.cpp</text>
</a>
</g>
</g>
<!-- Node3&#45;&gt;Node4 -->
<g id="edge3" class="edge">
<title>Node3&#45;&gt;Node4</title>
<path fill="none" stroke="midnightblue" d="M1931.16,-80.91C1651.37,-78.42 656.46,-67.18 342,-31 339.21,-30.68 336.37,-30.31 333.51,-29.89"/>
<polygon fill="midnightblue" stroke="midnightblue" points="1931.17,-84.41 1941.2,-81 1931.23,-77.41 1931.17,-84.41"/>
</g>
<!-- Node5 -->
<g id="node5" class="node">
<title>Node5</title>
<g id="a_node5"><a xlink:href="../../dd/db4/abstractlayout__dialog_8cpp.html" target="_top" xlink:title=" ">
<polygon fill="white" stroke="black" points="1314,-0.5 1314,-30.5 1460,-30.5 1460,-0.5 1314,-0.5"/>
<text text-anchor="start" x="1322" y="-18.5" font-family="Helvetica,sans-Serif" font-size="10.00">src/app/seamly2d/dialogs</text>
<text text-anchor="middle" x="1387" y="-7.5" font-family="Helvetica,sans-Serif" font-size="10.00">/abstractlayout_dialog.cpp</text>
</a>
</g>
</g>
<!-- Node3&#45;&gt;Node5 -->
<g id="edge4" class="edge">
<title>Node3&#45;&gt;Node5</title>
<path fill="none" stroke="midnightblue" d="M1931.24,-76.45C1827.7,-68.93 1633.49,-53.25 1469,-31 1466.13,-30.61 1463.22,-30.2 1460.27,-29.76"/>
<polygon fill="midnightblue" stroke="midnightblue" points="1931.05,-79.95 1941.28,-77.18 1931.55,-72.97 1931.05,-79.95"/>
</g>
<!-- Node6 -->
<g id="node6" class="node">
<title>Node6</title>
<g id="a_node6"><a xlink:href="../../d7/dfa/calculator__dialog_8cpp.html" target="_top" xlink:title=" ">
<polygon fill="white" stroke="black" points="1478.5,-0.5 1478.5,-30.5 1619.5,-30.5 1619.5,-0.5 1478.5,-0.5"/>
<text text-anchor="start" x="1486.5" y="-18.5" font-family="Helvetica,sans-Serif" font-size="10.00">src/app/seamly2d/dialogs</text>
<text text-anchor="middle" x="1549" y="-7.5" font-family="Helvetica,sans-Serif" font-size="10.00">/calculator_dialog.cpp</text>
</a>
</g>
</g>
<!-- Node3&#45;&gt;Node6 -->
<g id="edge5" class="edge">
<title>Node3&#45;&gt;Node6</title>
<path fill="none" stroke="midnightblue" d="M1931.53,-72.73C1855.44,-63.39 1733.17,-47.69 1628,-31 1625.25,-30.56 1622.44,-30.11 1619.61,-29.63"/>
<polygon fill="midnightblue" stroke="midnightblue" points="1931.14,-76.2 1941.49,-73.94 1931.99,-69.26 1931.14,-76.2"/>
</g>
<!-- Node7 -->
<g id="node7" class="node">
<title>Node7</title>
<g id="a_node7"><a xlink:href="../../d2/d2d/preferencesconfigurationpage_8cpp.html" target="_top" xlink:title=" ">
<polygon fill="white" stroke="black" points="1637.5,-0.5 1637.5,-30.5 1884.5,-30.5 1884.5,-0.5 1637.5,-0.5"/>
<text text-anchor="start" x="1645.5" y="-18.5" font-family="Helvetica,sans-Serif" font-size="10.00">src/app/seamly2d/dialogs</text>
<text text-anchor="middle" x="1761" y="-7.5" font-family="Helvetica,sans-Serif" font-size="10.00">/configpages/preferencesconfigurationpage.cpp</text>
</a>
</g>
</g>
<!-- Node3&#45;&gt;Node7 -->
<g id="edge6" class="edge">
<title>Node3&#45;&gt;Node7</title>
<path fill="none" stroke="midnightblue" d="M1942.5,-64.85C1902.72,-54.25 1851.76,-40.68 1813.97,-30.61"/>
<polygon fill="midnightblue" stroke="midnightblue" points="1941.79,-68.28 1952.36,-67.48 1943.59,-61.52 1941.79,-68.28"/>
</g>
<!-- Node8 -->
<g id="node8" class="node">
<title>Node8</title>
<g id="a_node8"><a xlink:href="../../dc/d20/preferencespathpage_8cpp.html" target="_top" xlink:title=" ">
<polygon fill="white" stroke="black" points="1902.5,-0.5 1902.5,-30.5 2107.5,-30.5 2107.5,-0.5 1902.5,-0.5"/>
<text text-anchor="start" x="1910.5" y="-18.5" font-family="Helvetica,sans-Serif" font-size="10.00">src/app/seamly2d/dialogs</text>
<text text-anchor="middle" x="2005" y="-7.5" font-family="Helvetica,sans-Serif" font-size="10.00">/configpages/preferencespathpage.cpp</text>
</a>
</g>
</g>
<!-- Node3&#45;&gt;Node8 -->
<g id="edge7" class="edge">
<title>Node3&#45;&gt;Node8</title>
<path fill="none" stroke="midnightblue" d="M2005,-57.11C2005,-48.15 2005,-38.32 2005,-30.58"/>
<polygon fill="midnightblue" stroke="midnightblue" points="2001.5,-57.4 2005,-67.4 2008.5,-57.4 2001.5,-57.4"/>
</g>
<!-- Node9 -->
<g id="node9" class="node">
<title>Node9</title>
<g id="a_node9"><a xlink:href="../../dd/dc2/decimalchart__dialog_8cpp.html" target="_top" xlink:title=" ">
<polygon fill="white" stroke="black" points="2125.5,-0.5 2125.5,-30.5 2266.5,-30.5 2266.5,-0.5 2125.5,-0.5"/>
<text text-anchor="start" x="2133.5" y="-18.5" font-family="Helvetica,sans-Serif" font-size="10.00">src/app/seamly2d/dialogs</text>
<text text-anchor="middle" x="2196" y="-7.5" font-family="Helvetica,sans-Serif" font-size="10.00">/decimalchart_dialog.cpp</text>
</a>
</g>
</g>
<!-- Node3&#45;&gt;Node9 -->
<g id="edge8" class="edge">
<title>Node3&#45;&gt;Node9</title>
<path fill="none" stroke="midnightblue" d="M2056.15,-64.09C2086.99,-53.6 2125.75,-40.41 2154.64,-30.58"/>
<polygon fill="midnightblue" stroke="midnightblue" points="2054.78,-60.86 2046.44,-67.4 2057.04,-67.49 2054.78,-60.86"/>
</g>
<!-- Node10 -->
<g id="node10" class="node">
<title>Node10</title>
<g id="a_node10"><a xlink:href="../../dc/d63/preferencespatternpage_8cpp.html" target="_top" xlink:title=" ">
<polygon fill="white" stroke="black" points="2285,-0.5 2285,-30.5 2503,-30.5 2503,-0.5 2285,-0.5"/>
<text text-anchor="start" x="2293" y="-18.5" font-family="Helvetica,sans-Serif" font-size="10.00">src/app/seamly2d/dialogs</text>
<text text-anchor="middle" x="2394" y="-7.5" font-family="Helvetica,sans-Serif" font-size="10.00">/configpages/preferencespatternpage.cpp</text>
</a>
</g>
</g>
<!-- Node3&#45;&gt;Node10 -->
<g id="edge9" class="edge">
<title>Node3&#45;&gt;Node10</title>
<path fill="none" stroke="midnightblue" d="M2078.7,-69.18C2144.64,-58.17 2241.23,-42.03 2310.11,-30.52"/>
<polygon fill="midnightblue" stroke="midnightblue" points="2078.09,-65.74 2068.8,-70.84 2079.24,-72.64 2078.09,-65.74"/>
</g>
<!-- Node11 -->
<g id="node11" class="node">
<title>Node11</title>
<g id="a_node11"><a xlink:href="../../d9/d70/preferencesgraphicsviewpage_8cpp.html" target="_top" xlink:title=" ">
<polygon fill="white" stroke="black" points="2521,-0.5 2521,-30.5 2769,-30.5 2769,-0.5 2521,-0.5"/>
<text text-anchor="start" x="2529" y="-18.5" font-family="Helvetica,sans-Serif" font-size="10.00">src/app/seamly2d/dialogs</text>
<text text-anchor="middle" x="2645" y="-7.5" font-family="Helvetica,sans-Serif" font-size="10.00">/configpages/preferencesgraphicsviewpage.cpp</text>
</a>
</g>
</g>
<!-- Node3&#45;&gt;Node11 -->
<g id="edge10" class="edge">
<title>Node3&#45;&gt;Node11</title>
<path fill="none" stroke="midnightblue" d="M2078.82,-74.36C2177.54,-64.77 2357.99,-47.07 2512,-31 2514.89,-30.7 2517.81,-30.39 2520.76,-30.08"/>
<polygon fill="midnightblue" stroke="midnightblue" points="2078.26,-70.9 2068.65,-75.35 2078.94,-77.87 2078.26,-70.9"/>
</g>
<!-- Node12 -->
<g id="node12" class="node">
<title>Node12</title>
<g id="a_node12"><a xlink:href="../../dd/d64/dialogaboutapp_8cpp.html" target="_top" xlink:title=" ">
<polygon fill="white" stroke="black" points="2787.5,-0.5 2787.5,-30.5 2928.5,-30.5 2928.5,-0.5 2787.5,-0.5"/>
<text text-anchor="start" x="2795.5" y="-18.5" font-family="Helvetica,sans-Serif" font-size="10.00">src/app/seamly2d/dialogs</text>
<text text-anchor="middle" x="2858" y="-7.5" font-family="Helvetica,sans-Serif" font-size="10.00">/dialogaboutapp.cpp</text>
</a>
</g>
</g>
<!-- Node3&#45;&gt;Node12 -->
<g id="edge11" class="edge">
<title>Node3&#45;&gt;Node12</title>
<path fill="none" stroke="midnightblue" d="M2078.63,-79.49C2216.38,-75.1 2522.27,-62.42 2778,-31 2781.08,-30.62 2784.23,-30.2 2787.4,-29.75"/>
<polygon fill="midnightblue" stroke="midnightblue" points="2078.49,-75.99 2068.61,-79.8 2078.71,-82.98 2078.49,-75.99"/>
</g>
<!-- Node13 -->
<g id="node13" class="node">
<title>Node13</title>
<g id="a_node13"><a xlink:href="../../d2/d00/vtooloptionspropertybrowser_8cpp.html" target="_top" xlink:title=" ">
<polygon fill="white" stroke="black" points="2947,-0.5 2947,-30.5 3127,-30.5 3127,-0.5 2947,-0.5"/>
<text text-anchor="start" x="2955" y="-18.5" font-family="Helvetica,sans-Serif" font-size="10.00">src/app/seamly2d/core</text>
<text text-anchor="middle" x="3037" y="-7.5" font-family="Helvetica,sans-Serif" font-size="10.00">/vtooloptionspropertybrowser.cpp</text>
</a>
</g>
</g>
<!-- Node3&#45;&gt;Node13 -->
<g id="edge12" class="edge">
<title>Node3&#45;&gt;Node13</title>
<path fill="none" stroke="midnightblue" d="M2078.57,-79.8C2236.38,-75.66 2618.96,-62.93 2938,-31 2940.94,-30.71 2943.92,-30.39 2946.93,-30.05"/>
<polygon fill="midnightblue" stroke="midnightblue" points="2078.41,-76.31 2068.5,-80.06 2078.59,-83.3 2078.41,-76.31"/>
</g>
<!-- Node14 -->
<g id="node14" class="node">
<title>Node14</title>
<g id="a_node14"><a xlink:href="../../d6/d89/dialoglayoutprogress_8cpp.html" target="_top" xlink:title=" ">
<polygon fill="white" stroke="black" points="3145.5,-0.5 3145.5,-30.5 3288.5,-30.5 3288.5,-0.5 3145.5,-0.5"/>
<text text-anchor="start" x="3153.5" y="-18.5" font-family="Helvetica,sans-Serif" font-size="10.00">src/app/seamly2d/dialogs</text>
<text text-anchor="middle" x="3217" y="-7.5" font-family="Helvetica,sans-Serif" font-size="10.00">/dialoglayoutprogress.cpp</text>
</a>
</g>
</g>
<!-- Node3&#45;&gt;Node14 -->
<g id="edge13" class="edge">
<title>Node3&#45;&gt;Node14</title>
<path fill="none" stroke="midnightblue" d="M2078.75,-79.49C2295.81,-73.36 2930.01,-53.93 3136,-31 3138.98,-30.67 3142.02,-30.29 3145.08,-29.88"/>
<polygon fill="midnightblue" stroke="midnightblue" points="2078.63,-75.99 2068.73,-79.77 2078.83,-82.98 2078.63,-75.99"/>
</g>
<!-- Node15 -->
<g id="node15" class="node">
<title>Node15</title>
<g id="a_node15"><a xlink:href="../../d5/dc5/dialogpreferences_8cpp.html" target="_top" xlink:title=" ">
<polygon fill="white" stroke="black" points="3306.5,-0.5 3306.5,-30.5 3447.5,-30.5 3447.5,-0.5 3306.5,-0.5"/>
<text text-anchor="start" x="3314.5" y="-18.5" font-family="Helvetica,sans-Serif" font-size="10.00">src/app/seamly2d/dialogs</text>
<text text-anchor="middle" x="3377" y="-7.5" font-family="Helvetica,sans-Serif" font-size="10.00">/dialogpreferences.cpp</text>
</a>
</g>
</g>
<!-- Node3&#45;&gt;Node15 -->
<g id="edge14" class="edge">
<title>Node3&#45;&gt;Node15</title>
<path fill="none" stroke="midnightblue" d="M2079.22,-79.22C2335.94,-71.25 3177.15,-44.38 3298,-31 3300.77,-30.69 3303.59,-30.35 3306.44,-29.97"/>
<polygon fill="midnightblue" stroke="midnightblue" points="2078.77,-75.73 2068.89,-79.54 2078.99,-82.73 2078.77,-75.73"/>
</g>
<!-- Node16 -->
<g id="node16" class="node">
<title>Node16</title>
<g id="a_node16"><a xlink:href="../../dd/d54/export__layout__dialog_8cpp.html" target="_top" xlink:title=" ">
<polygon fill="white" stroke="black" points="3465.5,-0.5 3465.5,-30.5 3608.5,-30.5 3608.5,-0.5 3465.5,-0.5"/>
<text text-anchor="start" x="3473.5" y="-18.5" font-family="Helvetica,sans-Serif" font-size="10.00">src/app/seamly2d/dialogs</text>
<text text-anchor="middle" x="3537" y="-7.5" font-family="Helvetica,sans-Serif" font-size="10.00">/export_layout_dialog.cpp</text>
</a>
</g>
</g>
<!-- Node3&#45;&gt;Node16 -->
<g id="edge15" class="edge">
<title>Node3&#45;&gt;Node16</title>
<path fill="none" stroke="midnightblue" d="M2078.85,-79.23C2364.98,-70.39 3388.02,-38.41 3457,-31 3459.67,-30.71 3462.38,-30.39 3465.11,-30.04"/>
<polygon fill="midnightblue" stroke="midnightblue" points="2078.47,-75.74 2068.59,-79.55 2078.69,-82.73 2078.47,-75.74"/>
</g>
<!-- Node17 -->
<g id="node17" class="node">
<title>Node17</title>
<g id="a_node17"><a xlink:href="../../d5/d18/dialogpatternproperties_8cpp.html" target="_top" xlink:title=" ">
<polygon fill="white" stroke="black" points="520.5,-0.5 520.5,-30.5 675.5,-30.5 675.5,-0.5 520.5,-0.5"/>
<text text-anchor="start" x="528.5" y="-18.5" font-family="Helvetica,sans-Serif" font-size="10.00">src/app/seamly2d/dialogs</text>
<text text-anchor="middle" x="598" y="-7.5" font-family="Helvetica,sans-Serif" font-size="10.00">/dialogpatternproperties.cpp</text>
</a>
</g>
</g>
<!-- Node3&#45;&gt;Node17 -->
<g id="edge16" class="edge">
<title>Node3&#45;&gt;Node17</title>
<path fill="none" stroke="midnightblue" d="M1931.07,-82C1730.11,-82.66 1157.2,-79.73 684,-31 681.29,-30.72 678.53,-30.41 675.75,-30.07"/>
<polygon fill="midnightblue" stroke="midnightblue" points="1931.22,-85.5 1941.21,-81.97 1931.2,-78.5 1931.22,-85.5"/>
</g>
<!-- Node18 -->
<g id="node18" class="node">
<title>Node18</title>
<g id="a_node18"><a xlink:href="../../db/d5c/groups__widget_8cpp.html" target="_top" xlink:title=" ">
<polygon fill="white" stroke="black" points="693.5,-0.5 693.5,-30.5 834.5,-30.5 834.5,-0.5 693.5,-0.5"/>
<text text-anchor="start" x="701.5" y="-18.5" font-family="Helvetica,sans-Serif" font-size="10.00">src/app/seamly2d/dialogs</text>
<text text-anchor="middle" x="764" y="-7.5" font-family="Helvetica,sans-Serif" font-size="10.00">/groups_widget.cpp</text>
</a>
</g>
</g>
<!-- Node3&#45;&gt;Node18 -->
<g id="edge17" class="edge">
<title>Node3&#45;&gt;Node18</title>
<path fill="none" stroke="midnightblue" d="M1931.36,-81.82C1747.26,-81.85 1252.36,-77.24 843,-31 840.23,-30.69 837.41,-30.33 834.56,-29.95"/>
<polygon fill="midnightblue" stroke="midnightblue" points="1931.47,-85.32 1941.47,-81.81 1931.46,-78.32 1931.47,-85.32"/>
</g>
<!-- Node3&#45;&gt;Node19 -->
<g id="edge18" class="edge">
<title>Node3&#45;&gt;Node19</title>
<path fill="none" stroke="midnightblue" d="M2079.23,-79.25C2393.41,-69.71 3598.62,-33.03 3618,-31 3620.7,-30.72 3623.44,-30.4 3626.21,-30.05"/>
<polygon fill="midnightblue" stroke="midnightblue" points="2078.76,-75.76 2068.87,-79.56 2078.97,-82.76 2078.76,-75.76"/>
</g>
<!-- Node20 -->
<g id="node20" class="node">
<title>Node20</title>
<g id="a_node20"><a xlink:href="../../dc/d14/app_2seamly2d_2main_8cpp.html" target="_top" xlink:title=" ">
<polygon fill="white" stroke="black" points="351.5,-6 351.5,-25 502.5,-25 502.5,-6 351.5,-6"/>
<text text-anchor="middle" x="427" y="-13" font-family="Helvetica,sans-Serif" font-size="10.00">src/app/seamly2d/main.cpp</text>
</a>
</g>
</g>
<!-- Node3&#45;&gt;Node20 -->
<g id="edge19" class="edge">
<title>Node3&#45;&gt;Node20</title>
<path fill="none" stroke="midnightblue" d="M1930.96,-80.34C1669.62,-76.05 791.08,-59.77 511,-31 497.46,-29.61 482.8,-27.34 469.58,-25.02"/>
<polygon fill="midnightblue" stroke="midnightblue" points="1931.05,-83.84 1941.1,-80.51 1931.16,-76.85 1931.05,-83.84"/>
</g>
<!-- Node21 -->
<g id="node21" class="node">
<title>Node21</title>
<g id="a_node21"><a xlink:href="../../dd/d84/shortcuts__dialog_8cpp.html" target="_top" xlink:title=" ">
<polygon fill="white" stroke="black" points="852.5,-0.5 852.5,-30.5 993.5,-30.5 993.5,-0.5 852.5,-0.5"/>
<text text-anchor="start" x="860.5" y="-18.5" font-family="Helvetica,sans-Serif" font-size="10.00">src/app/seamly2d/dialogs</text>
<text text-anchor="middle" x="923" y="-7.5" font-family="Helvetica,sans-Serif" font-size="10.00">/shortcuts_dialog.cpp</text>
</a>
</g>
</g>
<!-- Node3&#45;&gt;Node21 -->
<g id="edge20" class="edge">
<title>Node3&#45;&gt;Node21</title>
<path fill="none" stroke="midnightblue" d="M1931.28,-81.09C1764.95,-79.45 1348.05,-71.29 1002,-31 999.23,-30.68 996.41,-30.32 993.57,-29.93"/>
<polygon fill="midnightblue" stroke="midnightblue" points="1931.36,-84.59 1941.39,-81.19 1931.42,-77.59 1931.36,-84.59"/>
</g>
<!-- Node22 -->
<g id="node22" class="node">
<title>Node22</title>
<g id="a_node22"><a xlink:href="../../d2/df4/show__info__dialog_8cpp.html" target="_top" xlink:title=" ">
<polygon fill="white" stroke="black" points="1011.5,-0.5 1011.5,-30.5 1152.5,-30.5 1152.5,-0.5 1011.5,-0.5"/>
<text text-anchor="start" x="1019.5" y="-18.5" font-family="Helvetica,sans-Serif" font-size="10.00">src/app/seamly2d/dialogs</text>
<text text-anchor="middle" x="1082" y="-7.5" font-family="Helvetica,sans-Serif" font-size="10.00">/show_info_dialog.cpp</text>
</a>
</g>
</g>
<!-- Node3&#45;&gt;Node22 -->
<g id="edge21" class="edge">
<title>Node3&#45;&gt;Node22</title>
<path fill="none" stroke="midnightblue" d="M1930.98,-80.1C1783.8,-76.64 1444.19,-65.33 1161,-31 1158.23,-30.66 1155.41,-30.29 1152.57,-29.89"/>
<polygon fill="midnightblue" stroke="midnightblue" points="1931.16,-83.6 1941.24,-80.33 1931.32,-76.6 1931.16,-83.6"/>
</g>
<!-- Node3&#45;&gt;Node23 -->
<g id="edge22" class="edge">
<title>Node3&#45;&gt;Node23</title>
<path fill="none" stroke="midnightblue" d="M2078.88,-79.19C2172.63,-76.28 2339.32,-71.15 2482,-67 3059.31,-50.23 3205.05,-73.98 3781,-31 3799.99,-29.58 3820.61,-27.33 3839.26,-25.01"/>
<polygon fill="midnightblue" stroke="midnightblue" points="2078.54,-75.7 2068.65,-79.51 2078.76,-82.7 2078.54,-75.7"/>
</g>
<!-- Node24 -->
<g id="node24" class="node">
<title>Node24</title>
<g id="a_node24"><a xlink:href="../../d3/d49/vpattern_8cpp.html" target="_top" xlink:title=" ">
<polygon fill="white" stroke="black" points="1170.5,-0.5 1170.5,-30.5 1295.5,-30.5 1295.5,-0.5 1170.5,-0.5"/>
<text text-anchor="start" x="1178.5" y="-18.5" font-family="Helvetica,sans-Serif" font-size="10.00">src/app/seamly2d/xml</text>
<text text-anchor="middle" x="1233" y="-7.5" font-family="Helvetica,sans-Serif" font-size="10.00">/vpattern.cpp</text>
</a>
</g>
</g>
<!-- Node3&#45;&gt;Node24 -->
<g id="edge23" class="edge">
<title>Node3&#45;&gt;Node24</title>
<path fill="none" stroke="midnightblue" d="M1931.43,-79.26C1803.54,-74.68 1532.16,-61.94 1305,-31 1301.97,-30.59 1298.87,-30.12 1295.75,-29.62"/>
<polygon fill="midnightblue" stroke="midnightblue" points="1931.38,-82.76 1941.5,-79.61 1931.63,-75.76 1931.38,-82.76"/>
</g>
<!-- Node25 -->
<g id="node25" class="node">
<title>Node25</title>
<g id="a_node25"><a xlink:href="../../d8/dd9/mainwindow_8cpp.html" target="_top" xlink:title=" ">
<polygon fill="white" stroke="black" points="0,-6 0,-25 188,-25 188,-6 0,-6"/>
<text text-anchor="middle" x="94" y="-13" font-family="Helvetica,sans-Serif" font-size="10.00">src/app/seamly2d/mainwindow.cpp</text>
</a>
</g>
</g>
<!-- Node3&#45;&gt;Node25 -->
<g id="edge24" class="edge">
<title>Node3&#45;&gt;Node25</title>
<path fill="none" stroke="midnightblue" d="M1931.28,-80.54C1636.56,-76.55 542.38,-60.04 197,-31 180.44,-29.61 162.49,-27.34 146.27,-25.01"/>
<polygon fill="midnightblue" stroke="midnightblue" points="1931.37,-84.05 1941.42,-80.68 1931.47,-77.05 1931.37,-84.05"/>
</g>
<!-- Node27&#45;&gt;Node4 -->
<g id="edge27" class="edge">
<title>Node27&#45;&gt;Node4</title>
<path fill="none" stroke="midnightblue" d="M330.45,-66.24C317.34,-55.45 299.9,-41.1 287.12,-30.59"/>
<polygon fill="midnightblue" stroke="midnightblue" points="328.4,-69.08 338.35,-72.73 332.85,-63.68 328.4,-69.08"/>
</g>
<!-- Node27&#45;&gt;Node20 -->
<g id="edge28" class="edge">
<title>Node27&#45;&gt;Node20</title>
<path fill="none" stroke="midnightblue" d="M367.34,-66.21C382.71,-53.41 404.09,-35.59 416.65,-25.13"/>
<polygon fill="midnightblue" stroke="midnightblue" points="364.96,-63.64 359.52,-72.73 369.44,-69.02 364.96,-63.64"/>
</g>
<!-- Node27&#45;&gt;Node25 -->
<g id="edge29" class="edge">
<title>Node27&#45;&gt;Node25</title>
<path fill="none" stroke="midnightblue" d="M305.47,-70.4C255.14,-57.58 173.39,-36.74 127.67,-25.08"/>
<polygon fill="midnightblue" stroke="midnightblue" points="304.85,-73.86 315.4,-72.94 306.58,-67.07 304.85,-73.86"/>
</g>
</g>
</svg>
