<?xml version="1.0" encoding="UTF-8" standalone="no"?>
<!DOCTYPE svg PUBLIC "-//W3C//DTD SVG 1.1//EN"
 "http://www.w3.org/Graphics/SVG/1.1/DTD/svg11.dtd">
<!-- Generated by graphviz version 2.43.0 (0)
 -->
<!-- Title: src/app/seamly2d/dialogs/layoutsettings_dialog.h Pages: 1 -->
<svg width="4020pt" height="240pt"
 viewBox="0.00 0.00 4019.50 240.00" xmlns="http://www.w3.org/2000/svg" xmlns:xlink="http://www.w3.org/1999/xlink">
<g id="graph0" class="graph" transform="scale(1 1) rotate(0) translate(4 236)">
<title>src/app/seamly2d/dialogs/layoutsettings_dialog.h</title>
<polygon fill="white" stroke="transparent" points="-4,4 -4,-236 4015.5,-236 4015.5,4 -4,4"/>
<!-- Node1 -->
<g id="node1" class="node">
<title>Node1</title>
<g id="a_node1"><a xlink:title=" ">
<polygon fill="#bfbfbf" stroke="black" points="2661.5,-201.5 2661.5,-231.5 2802.5,-231.5 2802.5,-201.5 2661.5,-201.5"/>
<text text-anchor="start" x="2669.5" y="-219.5" font-family="Helvetica,sans-Serif" font-size="10.00">src/app/seamly2d/dialogs</text>
<text text-anchor="middle" x="2732" y="-208.5" font-family="Helvetica,sans-Serif" font-size="10.00">/layoutsettings_dialog.h</text>
</a>
</g>
</g>
<!-- Node2 -->
<g id="node2" class="node">
<title>Node2</title>
<g id="a_node2"><a xlink:href="../../dd/d57/vcmdexport_8h.html" target="_top" xlink:title=" ">
<polygon fill="white" stroke="black" points="2504.5,-134.5 2504.5,-164.5 2631.5,-164.5 2631.5,-134.5 2504.5,-134.5"/>
<text text-anchor="start" x="2512.5" y="-152.5" font-family="Helvetica,sans-Serif" font-size="10.00">src/app/seamly2d/core</text>
<text text-anchor="middle" x="2568" y="-141.5" font-family="Helvetica,sans-Serif" font-size="10.00">/vcmdexport.h</text>
</a>
</g>
</g>
<!-- Node1&#45;&gt;Node2 -->
<g id="edge1" class="edge">
<title>Node1&#45;&gt;Node2</title>
<path fill="none" stroke="midnightblue" d="M2687.04,-197.68C2660.74,-187.26 2628,-174.28 2603.52,-164.58"/>
<polygon fill="midnightblue" stroke="midnightblue" points="2685.83,-200.97 2696.41,-201.4 2688.41,-194.46 2685.83,-200.97"/>
</g>
<!-- Node19 -->
<g id="node19" class="node">
<title>Node19</title>
<g id="a_node19"><a xlink:href="../../d0/dfa/layoutsettings__dialog_8cpp.html" target="_top" xlink:title=" ">
<polygon fill="white" stroke="black" points="3627.5,-0.5 3627.5,-30.5 3772.5,-30.5 3772.5,-0.5 3627.5,-0.5"/>
<text text-anchor="start" x="3635.5" y="-18.5" font-family="Helvetica,sans-Serif" font-size="10.00">src/app/seamly2d/dialogs</text>
<text text-anchor="middle" x="3700" y="-7.5" font-family="Helvetica,sans-Serif" font-size="10.00">/layoutsettings_dialog.cpp</text>
</a>
</g>
</g>
<!-- Node1&#45;&gt;Node19 -->
<g id="edge31" class="edge">
<title>Node1&#45;&gt;Node19</title>
<path fill="none" stroke="midnightblue" d="M2810.39,-199.39C2995.5,-161.33 3457.25,-66.4 3631.76,-30.53"/>
<polygon fill="midnightblue" stroke="midnightblue" points="2809.54,-195.99 2800.45,-201.43 2810.95,-202.84 2809.54,-195.99"/>
</g>
<!-- Node23 -->
<g id="node23" class="node">
<title>Node23</title>
<g id="a_node23"><a xlink:href="../../d8/de8/mainwindowsnogui_8cpp.html" target="_top" xlink:title=" ">
<polygon fill="white" stroke="black" points="3790.5,-6 3790.5,-25 4011.5,-25 4011.5,-6 3790.5,-6"/>
<text text-anchor="middle" x="3901" y="-13" font-family="Helvetica,sans-Serif" font-size="10.00">src/app/seamly2d/mainwindowsnogui.cpp</text>
</a>
</g>
</g>
<!-- Node1&#45;&gt;Node23 -->
<g id="edge32" class="edge">
<title>Node1&#45;&gt;Node23</title>
<path fill="none" stroke="midnightblue" d="M2812.79,-203.99C2880.91,-194.13 2980.94,-179.3 3068,-165 3369.15,-115.54 3730.11,-48.56 3855.47,-25.07"/>
<polygon fill="midnightblue" stroke="midnightblue" points="2811.95,-200.57 2802.56,-205.47 2812.95,-207.5 2811.95,-200.57"/>
</g>
<!-- Node26 -->
<g id="node26" class="node">
<title>Node26</title>
<g id="a_node26"><a xlink:href="../../df/d9b/vcmdexport_8cpp.html" target="_top" xlink:title=" ">
<polygon fill="white" stroke="black" points="2563.5,-67.5 2563.5,-97.5 2690.5,-97.5 2690.5,-67.5 2563.5,-67.5"/>
<text text-anchor="start" x="2571.5" y="-85.5" font-family="Helvetica,sans-Serif" font-size="10.00">src/app/seamly2d/core</text>
<text text-anchor="middle" x="2627" y="-74.5" font-family="Helvetica,sans-Serif" font-size="10.00">/vcmdexport.cpp</text>
</a>
</g>
</g>
<!-- Node1&#45;&gt;Node26 -->
<g id="edge30" class="edge">
<title>Node1&#45;&gt;Node26</title>
<path fill="none" stroke="midnightblue" d="M2714.53,-193.54C2692.83,-166.25 2656.42,-120.48 2638.16,-97.52"/>
<polygon fill="midnightblue" stroke="midnightblue" points="2711.8,-195.73 2720.76,-201.37 2717.28,-191.37 2711.8,-195.73"/>
</g>
<!-- Node3 -->
<g id="node3" class="node">
<title>Node3</title>
<g id="a_node3"><a xlink:href="../../d9/d02/vapplication_8h.html" target="_top" xlink:title=" ">
<polygon fill="white" stroke="black" points="2037.5,-67.5 2037.5,-97.5 2164.5,-97.5 2164.5,-67.5 2037.5,-67.5"/>
<text text-anchor="start" x="2045.5" y="-85.5" font-family="Helvetica,sans-Serif" font-size="10.00">src/app/seamly2d/core</text>
<text text-anchor="middle" x="2101" y="-74.5" font-family="Helvetica,sans-Serif" font-size="10.00">/vapplication.h</text>
</a>
</g>
</g>
<!-- Node2&#45;&gt;Node3 -->
<g id="edge2" class="edge">
<title>Node2&#45;&gt;Node3</title>
<path fill="none" stroke="midnightblue" d="M2494.09,-138.21C2403.19,-125.56 2250.43,-104.3 2164.56,-92.35"/>
<polygon fill="midnightblue" stroke="midnightblue" points="2493.66,-141.69 2504.04,-139.6 2494.62,-134.75 2493.66,-141.69"/>
</g>
<!-- Node2&#45;&gt;Node26 -->
<g id="edge25" class="edge">
<title>Node2&#45;&gt;Node26</title>
<path fill="none" stroke="midnightblue" d="M2587.75,-126.74C2596.48,-117.12 2606.5,-106.09 2614.22,-97.58"/>
<polygon fill="midnightblue" stroke="midnightblue" points="2584.93,-124.64 2580.8,-134.4 2590.11,-129.34 2584.93,-124.64"/>
</g>
<!-- Node27 -->
<g id="node27" class="node">
<title>Node27</title>
<g id="a_node27"><a xlink:href="../../d9/d53/mainwindow_8h.html" target="_top" xlink:title=" ">
<polygon fill="white" stroke="black" points="261,-73 261,-92 437,-92 437,-73 261,-73"/>
<text text-anchor="middle" x="349" y="-80" font-family="Helvetica,sans-Serif" font-size="10.00">src/app/seamly2d/mainwindow.h</text>
</a>
</g>
</g>
<!-- Node2&#45;&gt;Node27 -->
<g id="edge26" class="edge">
<title>Node2&#45;&gt;Node27</title>
<path fill="none" stroke="midnightblue" d="M2494.26,-146.34C2161.28,-136.59 798.43,-96.66 437.21,-86.08"/>
<polygon fill="midnightblue" stroke="midnightblue" points="2494.18,-149.84 2504.28,-146.63 2494.39,-142.84 2494.18,-149.84"/>
</g>
<!-- Node4 -->
<g id="node4" class="node">
<title>Node4</title>
<g id="a_node4"><a xlink:href="../../d3/dd8/vapplication_8cpp.html" target="_top" xlink:title=" ">
<polygon fill="white" stroke="black" points="206.5,-0.5 206.5,-30.5 333.5,-30.5 333.5,-0.5 206.5,-0.5"/>
<text text-anchor="start" x="214.5" y="-18.5" font-family="Helvetica,sans-Serif" font-size="10.00">src/app/seamly2d/core</text>
<text text-anchor="middle" x="270" y="-7.5" font-family="Helvetica,sans-Serif" font-size="10.00">/vapplication.cpp</text>
</a>
</g>
</g>
<!-- Node3&#45;&gt;Node4 -->
<g id="edge3" class="edge">
<title>Node3&#45;&gt;Node4</title>
<path fill="none" stroke="midnightblue" d="M2026.85,-81.05C1736.46,-79.03 676.12,-69.16 342,-31 339.21,-30.68 336.37,-30.31 333.51,-29.9"/>
<polygon fill="midnightblue" stroke="midnightblue" points="2027.24,-84.55 2037.26,-81.12 2027.28,-77.55 2027.24,-84.55"/>
</g>
<!-- Node5 -->
<g id="node5" class="node">
<title>Node5</title>
<g id="a_node5"><a xlink:href="../../dd/db4/abstractlayout__dialog_8cpp.html" target="_top" xlink:title=" ">
<polygon fill="white" stroke="black" points="1302,-0.5 1302,-30.5 1448,-30.5 1448,-0.5 1302,-0.5"/>
<text text-anchor="start" x="1310" y="-18.5" font-family="Helvetica,sans-Serif" font-size="10.00">src/app/seamly2d/dialogs</text>
<text text-anchor="middle" x="1375" y="-7.5" font-family="Helvetica,sans-Serif" font-size="10.00">/abstractlayout_dialog.cpp</text>
</a>
</g>
</g>
<!-- Node3&#45;&gt;Node5 -->
<g id="edge4" class="edge">
<title>Node3&#45;&gt;Node5</title>
<path fill="none" stroke="midnightblue" d="M2027.09,-78.03C1907.11,-71.89 1662.66,-57.18 1457,-31 1454.13,-30.63 1451.21,-30.24 1448.26,-29.82"/>
<polygon fill="midnightblue" stroke="midnightblue" points="2027.1,-81.54 2037.26,-78.55 2027.45,-74.55 2027.1,-81.54"/>
</g>
<!-- Node6 -->
<g id="node6" class="node">
<title>Node6</title>
<g id="a_node6"><a xlink:href="../../d2/d2d/preferencesconfigurationpage_8cpp.html" target="_top" xlink:title=" ">
<polygon fill="white" stroke="black" points="1466.5,-0.5 1466.5,-30.5 1713.5,-30.5 1713.5,-0.5 1466.5,-0.5"/>
<text text-anchor="start" x="1474.5" y="-18.5" font-family="Helvetica,sans-Serif" font-size="10.00">src/app/seamly2d/dialogs</text>
<text text-anchor="middle" x="1590" y="-7.5" font-family="Helvetica,sans-Serif" font-size="10.00">/configpages/preferencesconfigurationpage.cpp</text>
</a>
</g>
</g>
<!-- Node3&#45;&gt;Node6 -->
<g id="edge5" class="edge">
<title>Node3&#45;&gt;Node6</title>
<path fill="none" stroke="midnightblue" d="M2027.14,-72.11C1941.4,-61.2 1799.13,-43.1 1700.28,-30.53"/>
<polygon fill="midnightblue" stroke="midnightblue" points="2026.95,-75.61 2037.31,-73.4 2027.84,-68.67 2026.95,-75.61"/>
</g>
<!-- Node7 -->
<g id="node7" class="node">
<title>Node7</title>
<g id="a_node7"><a xlink:href="../../d9/d70/preferencesgraphicsviewpage_8cpp.html" target="_top" xlink:title=" ">
<polygon fill="white" stroke="black" points="1732,-0.5 1732,-30.5 1980,-30.5 1980,-0.5 1732,-0.5"/>
<text text-anchor="start" x="1740" y="-18.5" font-family="Helvetica,sans-Serif" font-size="10.00">src/app/seamly2d/dialogs</text>
<text text-anchor="middle" x="1856" y="-7.5" font-family="Helvetica,sans-Serif" font-size="10.00">/configpages/preferencesgraphicsviewpage.cpp</text>
</a>
</g>
</g>
<!-- Node3&#45;&gt;Node7 -->
<g id="edge6" class="edge">
<title>Node3&#45;&gt;Node7</title>
<path fill="none" stroke="midnightblue" d="M2038.24,-64.85C1998.3,-54.25 1947.13,-40.68 1909.19,-30.61"/>
<polygon fill="midnightblue" stroke="midnightblue" points="2037.58,-68.29 2048.14,-67.48 2039.37,-61.53 2037.58,-68.29"/>
</g>
<!-- Node8 -->
<g id="node8" class="node">
<title>Node8</title>
<g id="a_node8"><a xlink:href="../../dc/d20/preferencespathpage_8cpp.html" target="_top" xlink:title=" ">
<polygon fill="white" stroke="black" points="1998.5,-0.5 1998.5,-30.5 2203.5,-30.5 2203.5,-0.5 1998.5,-0.5"/>
<text text-anchor="start" x="2006.5" y="-18.5" font-family="Helvetica,sans-Serif" font-size="10.00">src/app/seamly2d/dialogs</text>
<text text-anchor="middle" x="2101" y="-7.5" font-family="Helvetica,sans-Serif" font-size="10.00">/configpages/preferencespathpage.cpp</text>
</a>
</g>
</g>
<!-- Node3&#45;&gt;Node8 -->
<g id="edge7" class="edge">
<title>Node3&#45;&gt;Node8</title>
<path fill="none" stroke="midnightblue" d="M2101,-57.11C2101,-48.15 2101,-38.32 2101,-30.58"/>
<polygon fill="midnightblue" stroke="midnightblue" points="2097.5,-57.4 2101,-67.4 2104.5,-57.4 2097.5,-57.4"/>
</g>
<!-- Node9 -->
<g id="node9" class="node">
<title>Node9</title>
<g id="a_node9"><a xlink:href="../../d2/d00/vtooloptionspropertybrowser_8cpp.html" target="_top" xlink:title=" ">
<polygon fill="white" stroke="black" points="2222,-0.5 2222,-30.5 2402,-30.5 2402,-0.5 2222,-0.5"/>
<text text-anchor="start" x="2230" y="-18.5" font-family="Helvetica,sans-Serif" font-size="10.00">src/app/seamly2d/core</text>
<text text-anchor="middle" x="2312" y="-7.5" font-family="Helvetica,sans-Serif" font-size="10.00">/vtooloptionspropertybrowser.cpp</text>
</a>
</g>
</g>
<!-- Node3&#45;&gt;Node9 -->
<g id="edge8" class="edge">
<title>Node3&#45;&gt;Node9</title>
<path fill="none" stroke="midnightblue" d="M2156.37,-64.44C2190.57,-53.91 2233.93,-40.55 2266.19,-30.61"/>
<polygon fill="midnightblue" stroke="midnightblue" points="2155.05,-61.19 2146.52,-67.48 2157.11,-67.88 2155.05,-61.19"/>
</g>
<!-- Node10 -->
<g id="node10" class="node">
<title>Node10</title>
<g id="a_node10"><a xlink:href="../../d7/dfa/calculator__dialog_8cpp.html" target="_top" xlink:title=" ">
<polygon fill="white" stroke="black" points="2420.5,-0.5 2420.5,-30.5 2561.5,-30.5 2561.5,-0.5 2420.5,-0.5"/>
<text text-anchor="start" x="2428.5" y="-18.5" font-family="Helvetica,sans-Serif" font-size="10.00">src/app/seamly2d/dialogs</text>
<text text-anchor="middle" x="2491" y="-7.5" font-family="Helvetica,sans-Serif" font-size="10.00">/calculator_dialog.cpp</text>
</a>
</g>
</g>
<!-- Node3&#45;&gt;Node10 -->
<g id="edge9" class="edge">
<title>Node3&#45;&gt;Node10</title>
<path fill="none" stroke="midnightblue" d="M2174.79,-69.86C2237.64,-59.85 2330.32,-44.88 2411,-31 2414.06,-30.47 2417.19,-29.93 2420.34,-29.38"/>
<polygon fill="midnightblue" stroke="midnightblue" points="2173.91,-66.45 2164.58,-71.48 2175.01,-73.37 2173.91,-66.45"/>
</g>
<!-- Node11 -->
<g id="node11" class="node">
<title>Node11</title>
<g id="a_node11"><a xlink:href="../../dd/dc2/decimalchart__dialog_8cpp.html" target="_top" xlink:title=" ">
<polygon fill="white" stroke="black" points="2579.5,-0.5 2579.5,-30.5 2720.5,-30.5 2720.5,-0.5 2579.5,-0.5"/>
<text text-anchor="start" x="2587.5" y="-18.5" font-family="Helvetica,sans-Serif" font-size="10.00">src/app/seamly2d/dialogs</text>
<text text-anchor="middle" x="2650" y="-7.5" font-family="Helvetica,sans-Serif" font-size="10.00">/decimalchart_dialog.cpp</text>
</a>
</g>
</g>
<!-- Node3&#45;&gt;Node11 -->
<g id="edge10" class="edge">
<title>Node3&#45;&gt;Node11</title>
<path fill="none" stroke="midnightblue" d="M2174.63,-75.23C2267.16,-66.96 2430.74,-51.09 2570,-31 2573.07,-30.56 2576.21,-30.08 2579.37,-29.59"/>
<polygon fill="midnightblue" stroke="midnightblue" points="2174.17,-71.75 2164.52,-76.12 2174.79,-78.72 2174.17,-71.75"/>
</g>
<!-- Node12 -->
<g id="node12" class="node">
<title>Node12</title>
<g id="a_node12"><a xlink:href="../../dc/d63/preferencespatternpage_8cpp.html" target="_top" xlink:title=" ">
<polygon fill="white" stroke="black" points="2739,-0.5 2739,-30.5 2957,-30.5 2957,-0.5 2739,-0.5"/>
<text text-anchor="start" x="2747" y="-18.5" font-family="Helvetica,sans-Serif" font-size="10.00">src/app/seamly2d/dialogs</text>
<text text-anchor="middle" x="2848" y="-7.5" font-family="Helvetica,sans-Serif" font-size="10.00">/configpages/preferencespatternpage.cpp</text>
</a>
</g>
</g>
<!-- Node3&#45;&gt;Node12 -->
<g id="edge11" class="edge">
<title>Node3&#45;&gt;Node12</title>
<path fill="none" stroke="midnightblue" d="M2174.9,-76.58C2292.53,-68.52 2529.57,-51.35 2730,-31 2732.87,-30.71 2735.79,-30.4 2738.73,-30.09"/>
<polygon fill="midnightblue" stroke="midnightblue" points="2174.66,-73.09 2164.92,-77.26 2175.13,-80.07 2174.66,-73.09"/>
</g>
<!-- Node13 -->
<g id="node13" class="node">
<title>Node13</title>
<g id="a_node13"><a xlink:href="../../dd/d64/dialogaboutapp_8cpp.html" target="_top" xlink:title=" ">
<polygon fill="white" stroke="black" points="2975.5,-0.5 2975.5,-30.5 3116.5,-30.5 3116.5,-0.5 2975.5,-0.5"/>
<text text-anchor="start" x="2983.5" y="-18.5" font-family="Helvetica,sans-Serif" font-size="10.00">src/app/seamly2d/dialogs</text>
<text text-anchor="middle" x="3046" y="-7.5" font-family="Helvetica,sans-Serif" font-size="10.00">/dialogaboutapp.cpp</text>
</a>
</g>
</g>
<!-- Node3&#45;&gt;Node13 -->
<g id="edge12" class="edge">
<title>Node3&#45;&gt;Node13</title>
<path fill="none" stroke="midnightblue" d="M2175.16,-80.19C2325.06,-76.88 2674.63,-65.78 2966,-31 2969.08,-30.63 2972.23,-30.22 2975.4,-29.77"/>
<polygon fill="midnightblue" stroke="midnightblue" points="2174.64,-76.7 2164.72,-80.42 2174.79,-83.7 2174.64,-76.7"/>
</g>
<!-- Node14 -->
<g id="node14" class="node">
<title>Node14</title>
<g id="a_node14"><a xlink:href="../../d6/d89/dialoglayoutprogress_8cpp.html" target="_top" xlink:title=" ">
<polygon fill="white" stroke="black" points="3134.5,-0.5 3134.5,-30.5 3277.5,-30.5 3277.5,-0.5 3134.5,-0.5"/>
<text text-anchor="start" x="3142.5" y="-18.5" font-family="Helvetica,sans-Serif" font-size="10.00">src/app/seamly2d/dialogs</text>
<text text-anchor="middle" x="3206" y="-7.5" font-family="Helvetica,sans-Serif" font-size="10.00">/dialoglayoutprogress.cpp</text>
</a>
</g>
</g>
<!-- Node3&#45;&gt;Node14 -->
<g id="edge13" class="edge">
<title>Node3&#45;&gt;Node14</title>
<path fill="none" stroke="midnightblue" d="M2175.07,-79.1C2378.27,-72.33 2941.58,-52.17 3126,-31 3128.66,-30.69 3131.37,-30.35 3134.11,-29.99"/>
<polygon fill="midnightblue" stroke="midnightblue" points="2174.68,-75.62 2164.8,-79.45 2174.91,-82.61 2174.68,-75.62"/>
</g>
<!-- Node15 -->
<g id="node15" class="node">
<title>Node15</title>
<g id="a_node15"><a xlink:href="../../d5/dc5/dialogpreferences_8cpp.html" target="_top" xlink:title=" ">
<polygon fill="white" stroke="black" points="3295.5,-0.5 3295.5,-30.5 3436.5,-30.5 3436.5,-0.5 3295.5,-0.5"/>
<text text-anchor="start" x="3303.5" y="-18.5" font-family="Helvetica,sans-Serif" font-size="10.00">src/app/seamly2d/dialogs</text>
<text text-anchor="middle" x="3366" y="-7.5" font-family="Helvetica,sans-Serif" font-size="10.00">/dialogpreferences.cpp</text>
</a>
</g>
</g>
<!-- Node3&#45;&gt;Node15 -->
<g id="edge14" class="edge">
<title>Node3&#45;&gt;Node15</title>
<path fill="none" stroke="midnightblue" d="M2174.76,-78.96C2416.7,-70.53 3177.03,-43.37 3287,-31 3289.77,-30.69 3292.59,-30.34 3295.44,-29.95"/>
<polygon fill="midnightblue" stroke="midnightblue" points="2174.53,-75.46 2164.66,-79.31 2174.77,-82.46 2174.53,-75.46"/>
</g>
<!-- Node16 -->
<g id="node16" class="node">
<title>Node16</title>
<g id="a_node16"><a xlink:href="../../d5/d18/dialogpatternproperties_8cpp.html" target="_top" xlink:title=" ">
<polygon fill="white" stroke="black" points="3454.5,-0.5 3454.5,-30.5 3609.5,-30.5 3609.5,-0.5 3454.5,-0.5"/>
<text text-anchor="start" x="3462.5" y="-18.5" font-family="Helvetica,sans-Serif" font-size="10.00">src/app/seamly2d/dialogs</text>
<text text-anchor="middle" x="3532" y="-7.5" font-family="Helvetica,sans-Serif" font-size="10.00">/dialogpatternproperties.cpp</text>
</a>
</g>
</g>
<!-- Node3&#45;&gt;Node16 -->
<g id="edge15" class="edge">
<title>Node3&#45;&gt;Node16</title>
<path fill="none" stroke="midnightblue" d="M2174.8,-78.99C2447.03,-69.72 3382.49,-37.52 3446,-31 3448.71,-30.72 3451.47,-30.41 3454.25,-30.07"/>
<polygon fill="midnightblue" stroke="midnightblue" points="2174.5,-75.5 2164.63,-79.34 2174.74,-82.5 2174.5,-75.5"/>
</g>
<!-- Node17 -->
<g id="node17" class="node">
<title>Node17</title>
<g id="a_node17"><a xlink:href="../../dd/d54/export__layout__dialog_8cpp.html" target="_top" xlink:title=" ">
<polygon fill="white" stroke="black" points="520.5,-0.5 520.5,-30.5 663.5,-30.5 663.5,-0.5 520.5,-0.5"/>
<text text-anchor="start" x="528.5" y="-18.5" font-family="Helvetica,sans-Serif" font-size="10.00">src/app/seamly2d/dialogs</text>
<text text-anchor="middle" x="592" y="-7.5" font-family="Helvetica,sans-Serif" font-size="10.00">/export_layout_dialog.cpp</text>
</a>
</g>
</g>
<!-- Node3&#45;&gt;Node17 -->
<g id="edge16" class="edge">
<title>Node3&#45;&gt;Node17</title>
<path fill="none" stroke="midnightblue" d="M2027.22,-80.3C1773.62,-75.94 938.72,-59.73 672,-31 669.33,-30.71 666.62,-30.39 663.89,-30.03"/>
<polygon fill="midnightblue" stroke="midnightblue" points="2027.37,-83.8 2037.43,-80.47 2027.49,-76.8 2027.37,-83.8"/>
</g>
<!-- Node18 -->
<g id="node18" class="node">
<title>Node18</title>
<g id="a_node18"><a xlink:href="../../db/d5c/groups__widget_8cpp.html" target="_top" xlink:title=" ">
<polygon fill="white" stroke="black" points="681.5,-0.5 681.5,-30.5 822.5,-30.5 822.5,-0.5 681.5,-0.5"/>
<text text-anchor="start" x="689.5" y="-18.5" font-family="Helvetica,sans-Serif" font-size="10.00">src/app/seamly2d/dialogs</text>
<text text-anchor="middle" x="752" y="-7.5" font-family="Helvetica,sans-Serif" font-size="10.00">/groups_widget.cpp</text>
</a>
</g>
</g>
<!-- Node3&#45;&gt;Node18 -->
<g id="edge17" class="edge">
<title>Node3&#45;&gt;Node18</title>
<path fill="none" stroke="midnightblue" d="M2027.17,-82.21C1831.47,-83.31 1283.46,-81.26 831,-31 828.23,-30.69 825.41,-30.34 822.56,-29.96"/>
<polygon fill="midnightblue" stroke="midnightblue" points="2027.35,-85.71 2037.33,-82.15 2027.31,-78.71 2027.35,-85.71"/>
</g>
<!-- Node3&#45;&gt;Node19 -->
<g id="edge18" class="edge">
<title>Node3&#45;&gt;Node19</title>
<path fill="none" stroke="midnightblue" d="M2175.29,-79.1C2477.7,-69.32 3600.85,-32.92 3619,-31 3621.7,-30.71 3624.44,-30.39 3627.21,-30.04"/>
<polygon fill="midnightblue" stroke="midnightblue" points="2174.77,-75.62 2164.89,-79.44 2174.99,-82.61 2174.77,-75.62"/>
</g>
<!-- Node20 -->
<g id="node20" class="node">
<title>Node20</title>
<g id="a_node20"><a xlink:href="../../dc/d14/app_2seamly2d_2main_8cpp.html" target="_top" xlink:title=" ">
<polygon fill="white" stroke="black" points="351.5,-6 351.5,-25 502.5,-25 502.5,-6 351.5,-6"/>
<text text-anchor="middle" x="427" y="-13" font-family="Helvetica,sans-Serif" font-size="10.00">src/app/seamly2d/main.cpp</text>
</a>
</g>
</g>
<!-- Node3&#45;&gt;Node20 -->
<g id="edge19" class="edge">
<title>Node3&#45;&gt;Node20</title>
<path fill="none" stroke="midnightblue" d="M2027.29,-80.52C1755.66,-76.71 810.93,-61.5 511,-31 497.45,-29.62 482.8,-27.36 469.57,-25.03"/>
<polygon fill="midnightblue" stroke="midnightblue" points="2027.38,-84.02 2037.43,-80.66 2027.48,-77.02 2027.38,-84.02"/>
</g>
<!-- Node21 -->
<g id="node21" class="node">
<title>Node21</title>
<g id="a_node21"><a xlink:href="../../d2/df4/show__info__dialog_8cpp.html" target="_top" xlink:title=" ">
<polygon fill="white" stroke="black" points="840.5,-0.5 840.5,-30.5 981.5,-30.5 981.5,-0.5 840.5,-0.5"/>
<text text-anchor="start" x="848.5" y="-18.5" font-family="Helvetica,sans-Serif" font-size="10.00">src/app/seamly2d/dialogs</text>
<text text-anchor="middle" x="911" y="-7.5" font-family="Helvetica,sans-Serif" font-size="10.00">/show_info_dialog.cpp</text>
</a>
</g>
</g>
<!-- Node3&#45;&gt;Node21 -->
<g id="edge20" class="edge">
<title>Node3&#45;&gt;Node21</title>
<path fill="none" stroke="midnightblue" d="M2027.12,-81.61C1848.41,-81.11 1378.84,-75.31 990,-31 987.23,-30.68 984.41,-30.33 981.56,-29.94"/>
<polygon fill="midnightblue" stroke="midnightblue" points="2027.18,-85.11 2037.19,-81.63 2027.2,-78.11 2027.18,-85.11"/>
</g>
<!-- Node22 -->
<g id="node22" class="node">
<title>Node22</title>
<g id="a_node22"><a xlink:href="../../dd/d84/shortcuts__dialog_8cpp.html" target="_top" xlink:title=" ">
<polygon fill="white" stroke="black" points="999.5,-0.5 999.5,-30.5 1140.5,-30.5 1140.5,-0.5 999.5,-0.5"/>
<text text-anchor="start" x="1007.5" y="-18.5" font-family="Helvetica,sans-Serif" font-size="10.00">src/app/seamly2d/dialogs</text>
<text text-anchor="middle" x="1070" y="-7.5" font-family="Helvetica,sans-Serif" font-size="10.00">/shortcuts_dialog.cpp</text>
</a>
</g>
</g>
<!-- Node3&#45;&gt;Node22 -->
<g id="edge21" class="edge">
<title>Node3&#45;&gt;Node22</title>
<path fill="none" stroke="midnightblue" d="M2027.02,-80.81C1866.56,-78.6 1474.71,-69.37 1149,-31 1146.23,-30.67 1143.41,-30.31 1140.57,-29.92"/>
<polygon fill="midnightblue" stroke="midnightblue" points="2027.21,-84.31 2037.26,-80.94 2027.3,-77.31 2027.21,-84.31"/>
</g>
<!-- Node3&#45;&gt;Node23 -->
<g id="edge22" class="edge">
<title>Node3&#45;&gt;Node23</title>
<path fill="none" stroke="midnightblue" d="M2174.83,-79.08C2264.5,-76.15 2420.34,-71.1 2554,-67 3099.76,-50.27 3237.53,-72.06 3782,-31 3800.89,-29.58 3821.38,-27.33 3839.96,-25.03"/>
<polygon fill="midnightblue" stroke="midnightblue" points="2174.65,-75.58 2164.77,-79.4 2174.87,-82.58 2174.65,-75.58"/>
</g>
<!-- Node24 -->
<g id="node24" class="node">
<title>Node24</title>
<g id="a_node24"><a xlink:href="../../d3/d49/vpattern_8cpp.html" target="_top" xlink:title=" ">
<polygon fill="white" stroke="black" points="1158.5,-0.5 1158.5,-30.5 1283.5,-30.5 1283.5,-0.5 1158.5,-0.5"/>
<text text-anchor="start" x="1166.5" y="-18.5" font-family="Helvetica,sans-Serif" font-size="10.00">src/app/seamly2d/xml</text>
<text text-anchor="middle" x="1221" y="-7.5" font-family="Helvetica,sans-Serif" font-size="10.00">/vpattern.cpp</text>
</a>
</g>
</g>
<!-- Node3&#45;&gt;Node24 -->
<g id="edge23" class="edge">
<title>Node3&#45;&gt;Node24</title>
<path fill="none" stroke="midnightblue" d="M2026.98,-80.24C1884.36,-77.08 1561.85,-66.31 1293,-31 1289.97,-30.6 1286.87,-30.15 1283.74,-29.66"/>
<polygon fill="midnightblue" stroke="midnightblue" points="2027.27,-83.75 2037.34,-80.47 2027.42,-76.75 2027.27,-83.75"/>
</g>
<!-- Node25 -->
<g id="node25" class="node">
<title>Node25</title>
<g id="a_node25"><a xlink:href="../../d8/dd9/mainwindow_8cpp.html" target="_top" xlink:title=" ">
<polygon fill="white" stroke="black" points="0,-6 0,-25 188,-25 188,-6 0,-6"/>
<text text-anchor="middle" x="94" y="-13" font-family="Helvetica,sans-Serif" font-size="10.00">src/app/seamly2d/mainwindow.cpp</text>
</a>
</g>
</g>
<!-- Node3&#45;&gt;Node25 -->
<g id="edge24" class="edge">
<title>Node3&#45;&gt;Node25</title>
<path fill="none" stroke="midnightblue" d="M2027.42,-80.67C1723.18,-77.04 562.33,-61.46 197,-31 180.44,-29.62 162.48,-27.36 146.27,-25.03"/>
<polygon fill="midnightblue" stroke="midnightblue" points="2027.41,-84.17 2037.45,-80.78 2027.5,-77.17 2027.41,-84.17"/>
</g>
<!-- Node27&#45;&gt;Node4 -->
<g id="edge27" class="edge">
<title>Node27&#45;&gt;Node4</title>
<path fill="none" stroke="midnightblue" d="M330.45,-66.24C317.34,-55.45 299.9,-41.1 287.12,-30.59"/>
<polygon fill="midnightblue" stroke="midnightblue" points="328.4,-69.08 338.35,-72.73 332.85,-63.68 328.4,-69.08"/>
</g>
<!-- Node27&#45;&gt;Node20 -->
<g id="edge28" class="edge">
<title>Node27&#45;&gt;Node20</title>
<path fill="none" stroke="midnightblue" d="M367.34,-66.21C382.71,-53.41 404.09,-35.59 416.65,-25.13"/>
<polygon fill="midnightblue" stroke="midnightblue" points="364.96,-63.64 359.52,-72.73 369.44,-69.02 364.96,-63.64"/>
</g>
<!-- Node27&#45;&gt;Node25 -->
<g id="edge29" class="edge">
<title>Node27&#45;&gt;Node25</title>
<path fill="none" stroke="midnightblue" d="M305.47,-70.4C255.14,-57.58 173.39,-36.74 127.67,-25.08"/>
<polygon fill="midnightblue" stroke="midnightblue" points="304.85,-73.86 315.4,-72.94 306.58,-67.07 304.85,-73.86"/>
</g>
</g>
</svg>
