<?xml version="1.0" encoding="UTF-8" standalone="no"?>
<!DOCTYPE svg PUBLIC "-//W3C//DTD SVG 1.1//EN"
 "http://www.w3.org/Graphics/SVG/1.1/DTD/svg11.dtd">
<!-- Generated by graphviz version 2.43.0 (0)
 -->
<!-- Title: src/libs/vpatterndb/variables/measurement_variable.h Pages: 1 -->
<svg width="6540pt" height="407pt"
 viewBox="0.00 0.00 6540.00 407.00" xmlns="http://www.w3.org/2000/svg" xmlns:xlink="http://www.w3.org/1999/xlink">
<g id="graph0" class="graph" transform="scale(1 1) rotate(0) translate(4 403)">
<title>src/libs/vpatterndb/variables/measurement_variable.h</title>
<polygon fill="white" stroke="transparent" points="-4,4 -4,-403 6536,-403 6536,4 -4,4"/>
<!-- Node1 -->
<g id="node1" class="node">
<title>Node1</title>
<g id="a_node1"><a xlink:title=" ">
<polygon fill="#bfbfbf" stroke="black" points="6209,-357.5 6209,-398.5 6345,-398.5 6345,-357.5 6209,-357.5"/>
<text text-anchor="start" x="6217" y="-386.5" font-family="Helvetica,sans-Serif" font-size="10.00">src/libs/vpatterndb</text>
<text text-anchor="start" x="6217" y="-375.5" font-family="Helvetica,sans-Serif" font-size="10.00">/variables/measurement</text>
<text text-anchor="middle" x="6277" y="-364.5" font-family="Helvetica,sans-Serif" font-size="10.00">_variable.h</text>
</a>
</g>
</g>
<!-- Node2 -->
<g id="node2" class="node">
<title>Node2</title>
<g id="a_node2"><a xlink:href="../../d9/de3/measurements_8cpp.html" target="_top" xlink:title=" ">
<polygon fill="white" stroke="black" points="6163,-78.5 6163,-97.5 6353,-97.5 6353,-78.5 6163,-78.5"/>
<text text-anchor="middle" x="6258" y="-85.5" font-family="Helvetica,sans-Serif" font-size="10.00">src/libs/vformat/measurements.cpp</text>
</a>
</g>
</g>
<!-- Node1&#45;&gt;Node2 -->
<g id="edge1" class="edge">
<title>Node1&#45;&gt;Node2</title>
<path fill="none" stroke="midnightblue" d="M6315.93,-351.59C6377.27,-308.39 6484.23,-218.18 6431,-145 6412.43,-119.47 6381.97,-105.34 6351.74,-97.6"/>
<polygon fill="midnightblue" stroke="midnightblue" points="6313.82,-348.79 6307.6,-357.37 6317.81,-354.55 6313.82,-348.79"/>
</g>
<!-- Node3 -->
<g id="node3" class="node">
<title>Node3</title>
<g id="a_node3"><a xlink:href="../../d4/da4/measurement__variable_8cpp.html" target="_top" xlink:title=" ">
<polygon fill="white" stroke="black" points="6396,-67.5 6396,-108.5 6532,-108.5 6532,-67.5 6396,-67.5"/>
<text text-anchor="start" x="6404" y="-96.5" font-family="Helvetica,sans-Serif" font-size="10.00">src/libs/vpatterndb</text>
<text text-anchor="start" x="6404" y="-85.5" font-family="Helvetica,sans-Serif" font-size="10.00">/variables/measurement</text>
<text text-anchor="middle" x="6464" y="-74.5" font-family="Helvetica,sans-Serif" font-size="10.00">_variable.cpp</text>
</a>
</g>
</g>
<!-- Node1&#45;&gt;Node3 -->
<g id="edge2" class="edge">
<title>Node1&#45;&gt;Node3</title>
<path fill="none" stroke="midnightblue" d="M6334.66,-353.09C6352.36,-344.36 6371.3,-333.51 6387,-321 6417.35,-296.82 6427.36,-289.52 6443,-254 6464.53,-205.11 6465.91,-140.71 6465.02,-108.75"/>
<polygon fill="midnightblue" stroke="midnightblue" points="6333.04,-349.99 6325.54,-357.47 6336.07,-356.3 6333.04,-349.99"/>
</g>
<!-- Node4 -->
<g id="node4" class="node">
<title>Node4</title>
<g id="a_node4"><a xlink:href="../../d6/d46/vcontainer_8cpp.html" target="_top" xlink:title=" ">
<polygon fill="white" stroke="black" points="1320.5,-73 1320.5,-103 1427.5,-103 1427.5,-73 1320.5,-73"/>
<text text-anchor="start" x="1328.5" y="-91" font-family="Helvetica,sans-Serif" font-size="10.00">src/libs/vpatterndb</text>
<text text-anchor="middle" x="1374" y="-80" font-family="Helvetica,sans-Serif" font-size="10.00">/vcontainer.cpp</text>
</a>
</g>
</g>
<!-- Node1&#45;&gt;Node4 -->
<g id="edge3" class="edge">
<title>Node1&#45;&gt;Node4</title>
<path fill="none" stroke="midnightblue" d="M6198.29,-377.34C5662.87,-379.08 2549.44,-380.68 1625,-187 1540.07,-169.21 1446.43,-125.74 1401.3,-103.15"/>
<polygon fill="midnightblue" stroke="midnightblue" points="6198.62,-380.83 6208.61,-377.3 6198.59,-373.83 6198.62,-380.83"/>
</g>
<!-- Node5 -->
<g id="node5" class="node">
<title>Node5</title>
<g id="a_node5"><a xlink:href="../../de/dca/variables_8h.html" target="_top" xlink:title=" ">
<polygon fill="white" stroke="black" points="5700.5,-290.5 5700.5,-320.5 5807.5,-320.5 5807.5,-290.5 5700.5,-290.5"/>
<text text-anchor="start" x="5708.5" y="-308.5" font-family="Helvetica,sans-Serif" font-size="10.00">src/libs/vpatterndb</text>
<text text-anchor="middle" x="5754" y="-297.5" font-family="Helvetica,sans-Serif" font-size="10.00">/variables.h</text>
</a>
</g>
</g>
<!-- Node1&#45;&gt;Node5 -->
<g id="edge4" class="edge">
<title>Node1&#45;&gt;Node5</title>
<path fill="none" stroke="midnightblue" d="M6198.76,-366.45C6091.23,-351.96 5900.6,-326.26 5807.78,-313.75"/>
<polygon fill="midnightblue" stroke="midnightblue" points="6198.52,-369.95 6208.9,-367.82 6199.45,-363.01 6198.52,-369.95"/>
</g>
<!-- Node6 -->
<g id="node6" class="node">
<title>Node6</title>
<g id="a_node6"><a xlink:href="../../d3/df7/vcontainer_8h.html" target="_top" xlink:title=" ">
<polygon fill="white" stroke="black" points="5439.5,-223.5 5439.5,-253.5 5546.5,-253.5 5546.5,-223.5 5439.5,-223.5"/>
<text text-anchor="start" x="5447.5" y="-241.5" font-family="Helvetica,sans-Serif" font-size="10.00">src/libs/vpatterndb</text>
<text text-anchor="middle" x="5493" y="-230.5" font-family="Helvetica,sans-Serif" font-size="10.00">/vcontainer.h</text>
</a>
</g>
</g>
<!-- Node5&#45;&gt;Node6 -->
<g id="edge5" class="edge">
<title>Node5&#45;&gt;Node6</title>
<path fill="none" stroke="midnightblue" d="M5690.5,-288.68C5646.45,-277.72 5588.43,-263.27 5546.69,-252.87"/>
<polygon fill="midnightblue" stroke="midnightblue" points="5689.69,-292.09 5700.24,-291.11 5691.38,-285.3 5689.69,-292.09"/>
</g>
<!-- Node6&#45;&gt;Node2 -->
<g id="edge8" class="edge">
<title>Node6&#45;&gt;Node2</title>
<path fill="none" stroke="midnightblue" d="M5556.81,-237.55C5728.09,-237.09 6188.44,-231.66 6239,-187 6264.98,-164.06 6261.96,-117.15 6259.4,-97.72"/>
<polygon fill="midnightblue" stroke="midnightblue" points="5556.67,-234.05 5546.68,-237.57 5556.69,-241.05 5556.67,-234.05"/>
</g>
<!-- Node6&#45;&gt;Node4 -->
<g id="edge56" class="edge">
<title>Node6&#45;&gt;Node4</title>
<path fill="none" stroke="midnightblue" d="M5429.14,-237.44C5022.08,-236.9 2785.4,-231.93 2103,-187 1805.62,-167.42 1728.35,-171.71 1437,-109 1429.6,-107.41 1421.82,-105.31 1414.36,-103.06"/>
<polygon fill="midnightblue" stroke="midnightblue" points="5429.25,-240.94 5439.25,-237.45 5429.26,-233.94 5429.25,-240.94"/>
</g>
<!-- Node7 -->
<g id="node7" class="node">
<title>Node7</title>
<g id="a_node7"><a xlink:href="../../dc/db7/measurements_8h.html" target="_top" xlink:title=" ">
<polygon fill="white" stroke="black" points="5314.5,-156.5 5314.5,-175.5 5493.5,-175.5 5493.5,-156.5 5314.5,-156.5"/>
<text text-anchor="middle" x="5404" y="-163.5" font-family="Helvetica,sans-Serif" font-size="10.00">src/libs/vformat/measurements.h</text>
</a>
</g>
</g>
<!-- Node6&#45;&gt;Node7 -->
<g id="edge6" class="edge">
<title>Node6&#45;&gt;Node7</title>
<path fill="none" stroke="midnightblue" d="M5466.97,-216.88C5449.79,-203.27 5428.15,-186.13 5415.23,-175.89"/>
<polygon fill="midnightblue" stroke="midnightblue" points="5464.98,-219.77 5474.99,-223.23 5469.32,-214.28 5464.98,-219.77"/>
</g>
<!-- Node8 -->
<g id="node8" class="node">
<title>Node8</title>
<g id="a_node8"><a xlink:href="../../d6/de0/vlayoutpiece_8h.html" target="_top" xlink:title=" ">
<polygon fill="white" stroke="black" points="547,-156.5 547,-175.5 713,-175.5 713,-156.5 547,-156.5"/>
<text text-anchor="middle" x="630" y="-163.5" font-family="Helvetica,sans-Serif" font-size="10.00">src/libs/vlayout/vlayoutpiece.h</text>
</a>
</g>
</g>
<!-- Node6&#45;&gt;Node8 -->
<g id="edge9" class="edge">
<title>Node6&#45;&gt;Node8</title>
<path fill="none" stroke="midnightblue" d="M5429.42,-236.67C5075.17,-232.02 3309.08,-208.72 1866,-187 1432,-180.47 912.29,-171.77 713.18,-168.41"/>
<polygon fill="midnightblue" stroke="midnightblue" points="5429.44,-240.17 5439.49,-236.8 5429.53,-233.17 5429.44,-240.17"/>
</g>
<!-- Node18 -->
<g id="node17" class="node">
<title>Node18</title>
<g id="a_node17"><a xlink:href="../../d8/d70/vtextmanager_8cpp.html" target="_top" xlink:title=" ">
<polygon fill="white" stroke="black" points="1446,-78.5 1446,-97.5 1628,-97.5 1628,-78.5 1446,-78.5"/>
<text text-anchor="middle" x="1537" y="-85.5" font-family="Helvetica,sans-Serif" font-size="10.00">src/libs/vlayout/vtextmanager.cpp</text>
</a>
</g>
</g>
<!-- Node6&#45;&gt;Node18 -->
<g id="edge20" class="edge">
<title>Node6&#45;&gt;Node18</title>
<path fill="none" stroke="midnightblue" d="M5429.21,-236.92C4990.5,-232.68 2414.61,-204.03 1637,-109 1615.56,-106.38 1591.84,-101.71 1572.89,-97.55"/>
<polygon fill="midnightblue" stroke="midnightblue" points="5429.44,-240.42 5439.47,-237.02 5429.5,-233.42 5429.44,-240.42"/>
</g>
<!-- Node19 -->
<g id="node18" class="node">
<title>Node19</title>
<g id="a_node18"><a xlink:href="../../d5/d74/vabstractapplication_8h.html" target="_top" xlink:title=" ">
<polygon fill="white" stroke="red" points="3347.5,-156.5 3347.5,-175.5 3542.5,-175.5 3542.5,-156.5 3347.5,-156.5"/>
<text text-anchor="middle" x="3445" y="-163.5" font-family="Helvetica,sans-Serif" font-size="10.00">src/libs/vmisc/vabstractapplication.h</text>
</a>
</g>
</g>
<!-- Node6&#45;&gt;Node19 -->
<g id="edge21" class="edge">
<title>Node6&#45;&gt;Node19</title>
<path fill="none" stroke="midnightblue" d="M5429.17,-235.3C5134.03,-225.14 3900.7,-182.69 3542.78,-170.37"/>
<polygon fill="midnightblue" stroke="midnightblue" points="5429.16,-238.8 5439.27,-235.65 5429.4,-231.81 5429.16,-238.8"/>
</g>
<!-- Node37 -->
<g id="node32" class="node">
<title>Node37</title>
<g id="a_node32"><a xlink:href="../../db/d11/vformula_8cpp.html" target="_top" xlink:title=" ">
<polygon fill="white" stroke="black" points="5156.5,-73 5156.5,-103 5263.5,-103 5263.5,-73 5156.5,-73"/>
<text text-anchor="start" x="5164.5" y="-91" font-family="Helvetica,sans-Serif" font-size="10.00">src/libs/vpatterndb</text>
<text text-anchor="middle" x="5210" y="-80" font-family="Helvetica,sans-Serif" font-size="10.00">/vformula.cpp</text>
</a>
</g>
</g>
<!-- Node6&#45;&gt;Node37 -->
<g id="edge55" class="edge">
<title>Node6&#45;&gt;Node37</title>
<path fill="none" stroke="midnightblue" d="M5429.32,-229.79C5370.03,-221.53 5287,-206.88 5261,-187 5233.11,-165.68 5219.04,-124.77 5213.27,-103.16"/>
<polygon fill="midnightblue" stroke="midnightblue" points="5428.98,-233.27 5439.36,-231.15 5429.92,-226.34 5428.98,-233.27"/>
</g>
<!-- Node38 -->
<g id="node33" class="node">
<title>Node38</title>
<g id="a_node33"><a xlink:href="../../df/d7a/vpiece_8cpp.html" target="_top" xlink:title=" ">
<polygon fill="white" stroke="black" points="5281.5,-73 5281.5,-103 5388.5,-103 5388.5,-73 5281.5,-73"/>
<text text-anchor="start" x="5289.5" y="-91" font-family="Helvetica,sans-Serif" font-size="10.00">src/libs/vpatterndb</text>
<text text-anchor="middle" x="5335" y="-80" font-family="Helvetica,sans-Serif" font-size="10.00">/vpiece.cpp</text>
</a>
</g>
</g>
<!-- Node6&#45;&gt;Node38 -->
<g id="edge58" class="edge">
<title>Node6&#45;&gt;Node38</title>
<path fill="none" stroke="midnightblue" d="M5429.17,-231.65C5371.04,-224.85 5291.38,-211.31 5272,-187 5260.36,-172.4 5264.35,-162.03 5272,-145 5279.97,-127.25 5296.67,-112.82 5310.87,-103.06"/>
<polygon fill="midnightblue" stroke="midnightblue" points="5429.06,-235.16 5439.39,-232.81 5429.85,-228.21 5429.06,-235.16"/>
</g>
<!-- Node40 -->
<g id="node35" class="node">
<title>Node40</title>
<g id="a_node35"><a xlink:href="../../d8/dba/vpiecenode_8cpp.html" target="_top" xlink:title=" ">
<polygon fill="white" stroke="black" points="5197.5,-0.5 5197.5,-30.5 5304.5,-30.5 5304.5,-0.5 5197.5,-0.5"/>
<text text-anchor="start" x="5205.5" y="-18.5" font-family="Helvetica,sans-Serif" font-size="10.00">src/libs/vpatterndb</text>
<text text-anchor="middle" x="5251" y="-7.5" font-family="Helvetica,sans-Serif" font-size="10.00">/vpiecenode.cpp</text>
</a>
</g>
</g>
<!-- Node6&#45;&gt;Node40 -->
<g id="edge59" class="edge">
<title>Node6&#45;&gt;Node40</title>
<path fill="none" stroke="midnightblue" d="M5428.95,-228.71C5380.65,-220.62 5320.22,-206.84 5305,-187 5293.64,-172.19 5294.48,-160.42 5305,-145 5329.75,-108.73 5372.25,-145.27 5397,-109 5407.52,-93.58 5407.83,-82.2 5397,-67 5376.15,-37.73 5337.13,-25.26 5304.67,-20.03"/>
<polygon fill="midnightblue" stroke="midnightblue" points="5428.62,-232.2 5439.05,-230.35 5429.74,-225.29 5428.62,-232.2"/>
</g>
<!-- Node57 -->
<g id="node45" class="node">
<title>Node57</title>
<g id="a_node45"><a xlink:href="../../d7/d8a/measurement__variable__p_8h.html" target="_top" xlink:title=" ">
<polygon fill="white" stroke="black" points="6286,-145.5 6286,-186.5 6422,-186.5 6422,-145.5 6286,-145.5"/>
<text text-anchor="start" x="6294" y="-174.5" font-family="Helvetica,sans-Serif" font-size="10.00">src/libs/vpatterndb</text>
<text text-anchor="start" x="6294" y="-163.5" font-family="Helvetica,sans-Serif" font-size="10.00">/variables/measurement</text>
<text text-anchor="middle" x="6354" y="-152.5" font-family="Helvetica,sans-Serif" font-size="10.00">_variable_p.h</text>
</a>
</g>
</g>
<!-- Node6&#45;&gt;Node57 -->
<g id="edge52" class="edge">
<title>Node6&#45;&gt;Node57</title>
<path fill="none" stroke="midnightblue" d="M5556.76,-237.12C5690.25,-235.51 6008.59,-227.35 6272,-187 6276.49,-186.31 6281.1,-185.5 6285.72,-184.6"/>
<polygon fill="midnightblue" stroke="midnightblue" points="5556.67,-233.62 5546.71,-237.23 5556.75,-240.62 5556.67,-233.62"/>
</g>
<!-- Node58 -->
<g id="node46" class="node">
<title>Node58</title>
<g id="a_node46"><a xlink:href="../../d1/de1/vincrement__p_8h.html" target="_top" xlink:title=" ">
<polygon fill="white" stroke="red" points="5511.5,-151 5511.5,-181 5654.5,-181 5654.5,-151 5511.5,-151"/>
<text text-anchor="start" x="5519.5" y="-169" font-family="Helvetica,sans-Serif" font-size="10.00">src/libs/vpatterndb</text>
<text text-anchor="middle" x="5583" y="-158" font-family="Helvetica,sans-Serif" font-size="10.00">/variables/vincrement_p.h</text>
</a>
</g>
</g>
<!-- Node6&#45;&gt;Node58 -->
<g id="edge54" class="edge">
<title>Node6&#45;&gt;Node58</title>
<path fill="none" stroke="midnightblue" d="M5519.44,-216.79C5534.15,-205.27 5552.06,-191.23 5565.12,-181"/>
<polygon fill="midnightblue" stroke="midnightblue" points="5516.93,-214.31 5511.21,-223.23 5521.24,-219.82 5516.93,-214.31"/>
</g>
<!-- Node60 -->
<g id="node47" class="node">
<title>Node60</title>
<g id="a_node47"><a xlink:href="../../d6/d91/vnodedetail_8cpp.html" target="_top" xlink:title=" ">
<polygon fill="white" stroke="black" points="5672.5,-151 5672.5,-181 5779.5,-181 5779.5,-151 5672.5,-151"/>
<text text-anchor="start" x="5680.5" y="-169" font-family="Helvetica,sans-Serif" font-size="10.00">src/libs/vpatterndb</text>
<text text-anchor="middle" x="5726" y="-158" font-family="Helvetica,sans-Serif" font-size="10.00">/vnodedetail.cpp</text>
</a>
</g>
</g>
<!-- Node6&#45;&gt;Node60 -->
<g id="edge57" class="edge">
<title>Node6&#45;&gt;Node60</title>
<path fill="none" stroke="midnightblue" d="M5551.7,-220.56C5584.75,-210.92 5626.74,-198.51 5664,-187 5670.16,-185.1 5676.65,-183.05 5683.02,-181.02"/>
<polygon fill="midnightblue" stroke="midnightblue" points="5550.37,-217.3 5541.74,-223.45 5552.32,-224.02 5550.37,-217.3"/>
</g>
<!-- Node61 -->
<g id="node48" class="node">
<title>Node61</title>
<g id="a_node48"><a xlink:href="../../da/de1/vpiecepath_8cpp.html" target="_top" xlink:title=" ">
<polygon fill="white" stroke="black" points="5797.5,-151 5797.5,-181 5904.5,-181 5904.5,-151 5797.5,-151"/>
<text text-anchor="start" x="5805.5" y="-169" font-family="Helvetica,sans-Serif" font-size="10.00">src/libs/vpatterndb</text>
<text text-anchor="middle" x="5851" y="-158" font-family="Helvetica,sans-Serif" font-size="10.00">/vpiecepath.cpp</text>
</a>
</g>
</g>
<!-- Node6&#45;&gt;Node61 -->
<g id="edge60" class="edge">
<title>Node6&#45;&gt;Node61</title>
<path fill="none" stroke="midnightblue" d="M5556.81,-229.3C5617.12,-220.93 5709.91,-206.4 5789,-187 5795.92,-185.3 5803.19,-183.23 5810.22,-181.07"/>
<polygon fill="midnightblue" stroke="midnightblue" points="5556.11,-225.87 5546.68,-230.7 5557.06,-232.8 5556.11,-225.87"/>
</g>
<!-- Node62 -->
<g id="node49" class="node">
<title>Node62</title>
<g id="a_node49"><a xlink:href="../../d1/d3a/abstracttest_8cpp.html" target="_top" xlink:title=" ">
<polygon fill="white" stroke="black" points="5922.5,-156.5 5922.5,-175.5 6083.5,-175.5 6083.5,-156.5 5922.5,-156.5"/>
<text text-anchor="middle" x="6003" y="-163.5" font-family="Helvetica,sans-Serif" font-size="10.00">src/libs/vtest/abstracttest.cpp</text>
</a>
</g>
</g>
<!-- Node6&#45;&gt;Node62 -->
<g id="edge61" class="edge">
<title>Node6&#45;&gt;Node62</title>
<path fill="none" stroke="midnightblue" d="M5556.75,-231.89C5639.47,-224.14 5788.12,-208.64 5914,-187 5932.26,-183.86 5952.42,-179.41 5968.93,-175.51"/>
<polygon fill="midnightblue" stroke="midnightblue" points="5556.38,-228.41 5546.75,-232.82 5557.03,-235.38 5556.38,-228.41"/>
</g>
<!-- Node63 -->
<g id="node50" class="node">
<title>Node63</title>
<g id="a_node50"><a xlink:href="../../da/db4/piece__tablewidgetitem_8cpp.html" target="_top" xlink:title=" ">
<polygon fill="white" stroke="black" points="6102,-151 6102,-181 6230,-181 6230,-151 6102,-151"/>
<text text-anchor="start" x="6110" y="-169" font-family="Helvetica,sans-Serif" font-size="10.00">src/libs/vwidgets/piece</text>
<text text-anchor="middle" x="6166" y="-158" font-family="Helvetica,sans-Serif" font-size="10.00">_tablewidgetitem.cpp</text>
</a>
</g>
</g>
<!-- Node6&#45;&gt;Node63 -->
<g id="edge62" class="edge">
<title>Node6&#45;&gt;Node63</title>
<path fill="none" stroke="midnightblue" d="M5557.09,-235.96C5667.37,-232.45 5899.81,-221.29 6093,-187 6101.67,-185.46 6110.8,-183.36 6119.56,-181.09"/>
<polygon fill="midnightblue" stroke="midnightblue" points="5556.69,-232.47 5546.8,-236.27 5556.91,-239.46 5556.69,-232.47"/>
</g>
<!-- Node7&#45;&gt;Node2 -->
<g id="edge7" class="edge">
<title>Node7&#45;&gt;Node2</title>
<path fill="none" stroke="midnightblue" d="M5449.97,-154.36C5466.32,-150.91 5484.91,-147.37 5502,-145 5738.29,-112.27 6018.95,-97.82 6162.71,-92.16"/>
<polygon fill="midnightblue" stroke="midnightblue" points="5449.15,-150.96 5440.11,-156.48 5450.62,-157.8 5449.15,-150.96"/>
</g>
<!-- Node9 -->
<g id="node9" class="node">
<title>Node9</title>
<g id="a_node9"><a xlink:href="../../dd/d66/vdxfengine_8cpp.html" target="_top" xlink:title=" ">
<polygon fill="white" stroke="black" points="953,-78.5 953,-97.5 1107,-97.5 1107,-78.5 953,-78.5"/>
<text text-anchor="middle" x="1030" y="-85.5" font-family="Helvetica,sans-Serif" font-size="10.00">src/libs/vdxf/vdxfengine.cpp</text>
</a>
</g>
</g>
<!-- Node8&#45;&gt;Node9 -->
<g id="edge10" class="edge">
<title>Node8&#45;&gt;Node9</title>
<path fill="none" stroke="midnightblue" d="M692.42,-154.76C755.72,-144.15 856.41,-126.69 943,-109 960.01,-105.53 978.78,-101.26 994.53,-97.57"/>
<polygon fill="midnightblue" stroke="midnightblue" points="691.49,-151.36 682.21,-156.46 692.65,-158.27 691.49,-151.36"/>
</g>
<!-- Node10 -->
<g id="node10" class="node">
<title>Node10</title>
<g id="a_node10"><a xlink:href="../../de/da8/vbank_8cpp.html" target="_top" xlink:title=" ">
<polygon fill="white" stroke="black" points="0,-78.5 0,-97.5 144,-97.5 144,-78.5 0,-78.5"/>
<text text-anchor="middle" x="72" y="-85.5" font-family="Helvetica,sans-Serif" font-size="10.00">src/libs/vlayout/vbank.cpp</text>
</a>
</g>
</g>
<!-- Node8&#45;&gt;Node10 -->
<g id="edge11" class="edge">
<title>Node8&#45;&gt;Node10</title>
<path fill="none" stroke="midnightblue" d="M536.78,-157.53C440.26,-148.99 285.33,-133.01 153,-109 136.18,-105.95 117.66,-101.46 102.58,-97.51"/>
<polygon fill="midnightblue" stroke="midnightblue" points="536.54,-161.03 546.81,-158.41 537.15,-154.05 536.54,-161.03"/>
</g>
<!-- Node11 -->
<g id="node11" class="node">
<title>Node11</title>
<g id="a_node11"><a xlink:href="../../df/d5d/vcontour_8cpp.html" target="_top" xlink:title=" ">
<polygon fill="white" stroke="black" points="162,-78.5 162,-97.5 318,-97.5 318,-78.5 162,-78.5"/>
<text text-anchor="middle" x="240" y="-85.5" font-family="Helvetica,sans-Serif" font-size="10.00">src/libs/vlayout/vcontour.cpp</text>
</a>
</g>
</g>
<!-- Node8&#45;&gt;Node11 -->
<g id="edge12" class="edge">
<title>Node8&#45;&gt;Node11</title>
<path fill="none" stroke="midnightblue" d="M570.4,-154.77C509.19,-144.08 411.23,-126.46 327,-109 310,-105.48 291.23,-101.21 275.48,-97.52"/>
<polygon fill="midnightblue" stroke="midnightblue" points="569.82,-158.22 580.27,-156.49 571.02,-151.32 569.82,-158.22"/>
</g>
<!-- Node12 -->
<g id="node12" class="node">
<title>Node12</title>
<g id="a_node12"><a xlink:href="../../d2/d2d/vlayoutpaper__p_8h.html" target="_top" xlink:title=" ">
<polygon fill="white" stroke="black" points="540.5,-78.5 540.5,-97.5 719.5,-97.5 719.5,-78.5 540.5,-78.5"/>
<text text-anchor="middle" x="630" y="-85.5" font-family="Helvetica,sans-Serif" font-size="10.00">src/libs/vlayout/vlayoutpaper_p.h</text>
</a>
</g>
</g>
<!-- Node8&#45;&gt;Node12 -->
<g id="edge13" class="edge">
<title>Node8&#45;&gt;Node12</title>
<path fill="none" stroke="midnightblue" d="M630,-146.22C630,-130.7 630,-109.36 630,-97.62"/>
<polygon fill="midnightblue" stroke="midnightblue" points="626.5,-146.28 630,-156.28 633.5,-146.28 626.5,-146.28"/>
</g>
<!-- Node13 -->
<g id="node13" class="node">
<title>Node13</title>
<g id="a_node13"><a xlink:href="../../d1/dd1/vlayoutpaper_8cpp.html" target="_top" xlink:title=" ">
<polygon fill="white" stroke="black" points="423,-6 423,-25 601,-25 601,-6 423,-6"/>
<text text-anchor="middle" x="512" y="-13" font-family="Helvetica,sans-Serif" font-size="10.00">src/libs/vlayout/vlayoutpaper.cpp</text>
</a>
</g>
</g>
<!-- Node8&#45;&gt;Node13 -->
<g id="edge16" class="edge">
<title>Node8&#45;&gt;Node13</title>
<path fill="none" stroke="midnightblue" d="M592.68,-152.75C571.43,-143.89 546.12,-129.77 531,-109 512.09,-83.02 511,-42.6 511.53,-25.08"/>
<polygon fill="midnightblue" stroke="midnightblue" points="591.52,-156.06 602.1,-156.46 594.08,-149.54 591.52,-156.06"/>
</g>
<!-- Node14 -->
<g id="node14" class="node">
<title>Node14</title>
<g id="a_node14"><a xlink:href="../../d3/d39/vlayoutgenerator_8cpp.html" target="_top" xlink:title=" ">
<polygon fill="white" stroke="black" points="737.5,-78.5 737.5,-97.5 934.5,-97.5 934.5,-78.5 737.5,-78.5"/>
<text text-anchor="middle" x="836" y="-85.5" font-family="Helvetica,sans-Serif" font-size="10.00">src/libs/vlayout/vlayoutgenerator.cpp</text>
</a>
</g>
</g>
<!-- Node8&#45;&gt;Node14 -->
<g id="edge15" class="edge">
<title>Node8&#45;&gt;Node14</title>
<path fill="none" stroke="midnightblue" d="M662.7,-152.94C704.6,-137.48 776.18,-111.07 812.85,-97.54"/>
<polygon fill="midnightblue" stroke="midnightblue" points="661.4,-149.68 653.23,-156.43 663.82,-156.25 661.4,-149.68"/>
</g>
<!-- Node15 -->
<g id="node15" class="node">
<title>Node15</title>
<g id="a_node15"><a xlink:href="../../db/d5c/vposition_8h.html" target="_top" xlink:title=" ">
<polygon fill="white" stroke="red" points="336,-78.5 336,-97.5 484,-97.5 484,-78.5 336,-78.5"/>
<text text-anchor="middle" x="410" y="-85.5" font-family="Helvetica,sans-Serif" font-size="10.00">src/libs/vlayout/vposition.h</text>
</a>
</g>
</g>
<!-- Node8&#45;&gt;Node15 -->
<g id="edge17" class="edge">
<title>Node8&#45;&gt;Node15</title>
<path fill="none" stroke="midnightblue" d="M595.64,-153.13C550.97,-137.7 474.05,-111.13 434.72,-97.54"/>
<polygon fill="midnightblue" stroke="midnightblue" points="594.6,-156.47 605.19,-156.43 596.88,-149.86 594.6,-156.47"/>
</g>
<!-- Node17 -->
<g id="node16" class="node">
<title>Node17</title>
<g id="a_node16"><a xlink:href="../../dd/d70/vlayoutpiece_8cpp.html" target="_top" xlink:title=" ">
<polygon fill="white" stroke="black" points="1125.5,-78.5 1125.5,-97.5 1302.5,-97.5 1302.5,-78.5 1125.5,-78.5"/>
<text text-anchor="middle" x="1214" y="-85.5" font-family="Helvetica,sans-Serif" font-size="10.00">src/libs/vlayout/vlayoutpiece.cpp</text>
</a>
</g>
</g>
<!-- Node8&#45;&gt;Node17 -->
<g id="edge19" class="edge">
<title>Node8&#45;&gt;Node17</title>
<path fill="none" stroke="midnightblue" d="M723.47,-156.65C821.56,-147.33 980.11,-130.65 1116,-109 1135.89,-105.83 1157.88,-101.43 1175.98,-97.56"/>
<polygon fill="midnightblue" stroke="midnightblue" points="722.91,-153.19 713.28,-157.62 723.57,-160.16 722.91,-153.19"/>
</g>
<!-- Node12&#45;&gt;Node13 -->
<g id="edge14" class="edge">
<title>Node12&#45;&gt;Node13</title>
<path fill="none" stroke="midnightblue" d="M606.77,-73.12C582.96,-58.89 546.65,-37.2 526.59,-25.22"/>
<polygon fill="midnightblue" stroke="midnightblue" points="605.15,-76.23 615.53,-78.36 608.74,-70.22 605.15,-76.23"/>
</g>
<!-- Node15&#45;&gt;Node13 -->
<g id="edge18" class="edge">
<title>Node15&#45;&gt;Node13</title>
<path fill="none" stroke="midnightblue" d="M430.9,-72.55C451.5,-58.32 482.28,-37.04 499.39,-25.22"/>
<polygon fill="midnightblue" stroke="midnightblue" points="428.74,-69.79 422.51,-78.36 432.72,-75.55 428.74,-69.79"/>
</g>
<!-- Node19&#45;&gt;Node4 -->
<g id="edge39" class="edge">
<title>Node19&#45;&gt;Node4</title>
<path fill="none" stroke="midnightblue" d="M3337.15,-163.75C2947.3,-159 1624.3,-140.7 1437,-109 1428.85,-107.62 1420.31,-105.44 1412.23,-103.01"/>
<polygon fill="midnightblue" stroke="midnightblue" points="3337.26,-167.25 3347.3,-163.88 3337.34,-160.26 3337.26,-167.25"/>
</g>
<!-- Node19&#45;&gt;Node17 -->
<g id="edge35" class="edge">
<title>Node19&#45;&gt;Node17</title>
<path fill="none" stroke="midnightblue" d="M3337.19,-164.7C2961.27,-163.24 1709.71,-154.97 1311,-109 1289.82,-106.56 1266.4,-101.79 1247.88,-97.52"/>
<polygon fill="midnightblue" stroke="midnightblue" points="3337.23,-168.2 3347.25,-164.73 3337.26,-161.2 3337.23,-168.2"/>
</g>
<!-- Node19&#45;&gt;Node18 -->
<g id="edge32" class="edge">
<title>Node19&#45;&gt;Node18</title>
<path fill="none" stroke="midnightblue" d="M3337.03,-161.09C3220.93,-156.93 3030.9,-150.23 2867,-145 2320.38,-127.54 2180.39,-170.85 1637,-109 1615.36,-106.54 1591.43,-101.82 1572.41,-97.59"/>
<polygon fill="midnightblue" stroke="midnightblue" points="3337.22,-164.6 3347.34,-161.46 3337.47,-157.61 3337.22,-164.6"/>
</g>
<!-- Node20 -->
<g id="node19" class="node">
<title>Node20</title>
<g id="a_node19"><a xlink:href="../../d4/d90/fvupdater_8cpp.html" target="_top" xlink:title=" ">
<polygon fill="white" stroke="black" points="3368.5,-78.5 3368.5,-97.5 3521.5,-97.5 3521.5,-78.5 3368.5,-78.5"/>
<text text-anchor="middle" x="3445" y="-85.5" font-family="Helvetica,sans-Serif" font-size="10.00">src/libs/fervor/fvupdater.cpp</text>
</a>
</g>
</g>
<!-- Node19&#45;&gt;Node20 -->
<g id="edge22" class="edge">
<title>Node19&#45;&gt;Node20</title>
<path fill="none" stroke="midnightblue" d="M3445,-146.22C3445,-130.7 3445,-109.36 3445,-97.62"/>
<polygon fill="midnightblue" stroke="midnightblue" points="3441.5,-146.28 3445,-156.28 3448.5,-146.28 3441.5,-146.28"/>
</g>
<!-- Node21 -->
<g id="node20" class="node">
<title>Node21</title>
<g id="a_node20"><a xlink:href="../../d9/dc8/dxiface_8cpp.html" target="_top" xlink:title=" ">
<polygon fill="white" stroke="black" points="3539.5,-78.5 3539.5,-97.5 3674.5,-97.5 3674.5,-78.5 3539.5,-78.5"/>
<text text-anchor="middle" x="3607" y="-85.5" font-family="Helvetica,sans-Serif" font-size="10.00">src/libs/vdxf/dxiface.cpp</text>
</a>
</g>
</g>
<!-- Node19&#45;&gt;Node21 -->
<g id="edge23" class="edge">
<title>Node19&#45;&gt;Node21</title>
<path fill="none" stroke="midnightblue" d="M3472.38,-152.16C3505.43,-136.65 3560.12,-110.99 3588.55,-97.66"/>
<polygon fill="midnightblue" stroke="midnightblue" points="3470.84,-149.01 3463.27,-156.43 3473.81,-155.35 3470.84,-149.01"/>
</g>
<!-- Node22 -->
<g id="node21" class="node">
<title>Node22</title>
<g id="a_node21"><a xlink:href="../../da/d75/vabstractarc__p_8h.html" target="_top" xlink:title=" ">
<polygon fill="white" stroke="red" points="3692.5,-73 3692.5,-103 3799.5,-103 3799.5,-73 3692.5,-73"/>
<text text-anchor="start" x="3700.5" y="-91" font-family="Helvetica,sans-Serif" font-size="10.00">src/libs/vgeometry</text>
<text text-anchor="middle" x="3746" y="-80" font-family="Helvetica,sans-Serif" font-size="10.00">/vabstractarc_p.h</text>
</a>
</g>
</g>
<!-- Node19&#45;&gt;Node22 -->
<g id="edge24" class="edge">
<title>Node19&#45;&gt;Node22</title>
<path fill="none" stroke="midnightblue" d="M3495.57,-154.27C3543.95,-143.74 3618.82,-126.71 3683,-109 3689.53,-107.2 3696.39,-105.17 3703.09,-103.1"/>
<polygon fill="midnightblue" stroke="midnightblue" points="3494.7,-150.88 3485.67,-156.42 3496.18,-157.72 3494.7,-150.88"/>
</g>
<!-- Node24 -->
<g id="node22" class="node">
<title>Node24</title>
<g id="a_node22"><a xlink:href="../../dc/da3/varc__p_8h.html" target="_top" xlink:title=" ">
<polygon fill="white" stroke="red" points="3817.5,-73 3817.5,-103 3924.5,-103 3924.5,-73 3817.5,-73"/>
<text text-anchor="start" x="3825.5" y="-91" font-family="Helvetica,sans-Serif" font-size="10.00">src/libs/vgeometry</text>
<text text-anchor="middle" x="3871" y="-80" font-family="Helvetica,sans-Serif" font-size="10.00">/varc_p.h</text>
</a>
</g>
</g>
<!-- Node19&#45;&gt;Node24 -->
<g id="edge25" class="edge">
<title>Node19&#45;&gt;Node24</title>
<path fill="none" stroke="midnightblue" d="M3533.41,-155.23C3607.37,-146.14 3715.35,-130.72 3808,-109 3815.15,-107.32 3822.66,-105.24 3829.91,-103.05"/>
<polygon fill="midnightblue" stroke="midnightblue" points="3532.71,-151.79 3523.21,-156.48 3533.55,-158.74 3532.71,-151.79"/>
</g>
<!-- Node26 -->
<g id="node23" class="node">
<title>Node26</title>
<g id="a_node23"><a xlink:href="../../d5/d8e/vcubicbezier__p_8h.html" target="_top" xlink:title=" ">
<polygon fill="white" stroke="red" points="3942.5,-73 3942.5,-103 4049.5,-103 4049.5,-73 3942.5,-73"/>
<text text-anchor="start" x="3950.5" y="-91" font-family="Helvetica,sans-Serif" font-size="10.00">src/libs/vgeometry</text>
<text text-anchor="middle" x="3996" y="-80" font-family="Helvetica,sans-Serif" font-size="10.00">/vcubicbezier_p.h</text>
</a>
</g>
</g>
<!-- Node19&#45;&gt;Node26 -->
<g id="edge26" class="edge">
<title>Node19&#45;&gt;Node26</title>
<path fill="none" stroke="midnightblue" d="M3552.72,-158.63C3652.25,-151.34 3803.8,-136.65 3933,-109 3940.41,-107.42 3948.18,-105.32 3955.64,-103.08"/>
<polygon fill="midnightblue" stroke="midnightblue" points="3552.38,-155.15 3542.65,-159.36 3552.88,-162.13 3552.38,-155.15"/>
</g>
<!-- Node28 -->
<g id="node24" class="node">
<title>Node28</title>
<g id="a_node24"><a xlink:href="../../df/dde/vellipticalarc__p_8h.html" target="_top" xlink:title=" ">
<polygon fill="white" stroke="black" points="4067.5,-73 4067.5,-103 4174.5,-103 4174.5,-73 4067.5,-73"/>
<text text-anchor="start" x="4075.5" y="-91" font-family="Helvetica,sans-Serif" font-size="10.00">src/libs/vgeometry</text>
<text text-anchor="middle" x="4121" y="-80" font-family="Helvetica,sans-Serif" font-size="10.00">/vellipticalarc_p.h</text>
</a>
</g>
</g>
<!-- Node19&#45;&gt;Node28 -->
<g id="edge27" class="edge">
<title>Node19&#45;&gt;Node28</title>
<path fill="none" stroke="midnightblue" d="M3552.74,-162.19C3675.97,-157.36 3883.26,-144.28 4058,-109 4065.65,-107.46 4073.68,-105.32 4081.35,-103.02"/>
<polygon fill="midnightblue" stroke="midnightblue" points="3552.41,-158.7 3542.55,-162.58 3552.68,-165.7 3552.41,-158.7"/>
</g>
<!-- Node29 -->
<g id="node25" class="node">
<title>Node29</title>
<g id="a_node25"><a xlink:href="../../d6/dfb/vellipticalarc_8cpp.html" target="_top" xlink:title=" ">
<polygon fill="white" stroke="black" points="2897.5,-0.5 2897.5,-30.5 3004.5,-30.5 3004.5,-0.5 2897.5,-0.5"/>
<text text-anchor="start" x="2905.5" y="-18.5" font-family="Helvetica,sans-Serif" font-size="10.00">src/libs/vgeometry</text>
<text text-anchor="middle" x="2951" y="-7.5" font-family="Helvetica,sans-Serif" font-size="10.00">/vellipticalarc.cpp</text>
</a>
</g>
</g>
<!-- Node19&#45;&gt;Node29 -->
<g id="edge29" class="edge">
<title>Node19&#45;&gt;Node29</title>
<path fill="none" stroke="midnightblue" d="M3337.03,-161.24C3220.92,-157.2 3030.89,-150.6 2867,-145 2807.78,-142.98 1842.19,-151.6 1801,-109 1788.03,-95.58 1788.09,-80.49 1801,-67 1839.32,-26.96 2675.06,-18.39 2897.19,-16.82"/>
<polygon fill="midnightblue" stroke="midnightblue" points="3337.22,-164.75 3347.33,-161.6 3337.46,-157.75 3337.22,-164.75"/>
</g>
<!-- Node30 -->
<g id="node26" class="node">
<title>Node30</title>
<g id="a_node26"><a xlink:href="../../d9/d15/vabstractpiece_8cpp.html" target="_top" xlink:title=" ">
<polygon fill="white" stroke="black" points="4193,-78.5 4193,-97.5 4379,-97.5 4379,-78.5 4193,-78.5"/>
<text text-anchor="middle" x="4286" y="-85.5" font-family="Helvetica,sans-Serif" font-size="10.00">src/libs/vlayout/vabstractpiece.cpp</text>
</a>
</g>
</g>
<!-- Node19&#45;&gt;Node30 -->
<g id="edge30" class="edge">
<title>Node19&#45;&gt;Node30</title>
<path fill="none" stroke="midnightblue" d="M3552.84,-160.74C3696.96,-154.15 3960.08,-139 4183,-109 4204.48,-106.11 4228.25,-101.58 4247.54,-97.57"/>
<polygon fill="midnightblue" stroke="midnightblue" points="3552.51,-157.25 3542.67,-161.2 3552.82,-164.25 3552.51,-157.25"/>
</g>
<!-- Node31 -->
<g id="node27" class="node">
<title>Node31</title>
<g id="a_node27"><a xlink:href="../../d1/d76/vspline__p_8h.html" target="_top" xlink:title=" ">
<polygon fill="white" stroke="red" points="4396.5,-73 4396.5,-103 4503.5,-103 4503.5,-73 4396.5,-73"/>
<text text-anchor="start" x="4404.5" y="-91" font-family="Helvetica,sans-Serif" font-size="10.00">src/libs/vgeometry</text>
<text text-anchor="middle" x="4450" y="-80" font-family="Helvetica,sans-Serif" font-size="10.00">/vspline_p.h</text>
</a>
</g>
</g>
<!-- Node19&#45;&gt;Node31 -->
<g id="edge31" class="edge">
<title>Node19&#45;&gt;Node31</title>
<path fill="none" stroke="midnightblue" d="M3552.76,-162.02C3765.11,-155.59 4230.7,-138.55 4388,-109 4395.78,-107.54 4403.94,-105.38 4411.69,-103.02"/>
<polygon fill="midnightblue" stroke="midnightblue" points="3552.42,-158.53 3542.53,-162.33 3552.63,-165.53 3552.42,-158.53"/>
</g>
<!-- Node33 -->
<g id="node28" class="node">
<title>Node33</title>
<g id="a_node28"><a xlink:href="../../db/d65/dialogexporttocsv_8cpp.html" target="_top" xlink:title=" ">
<polygon fill="white" stroke="black" points="4521.5,-73 4521.5,-103 4648.5,-103 4648.5,-73 4521.5,-73"/>
<text text-anchor="start" x="4529.5" y="-91" font-family="Helvetica,sans-Serif" font-size="10.00">src/libs/vmisc/dialogs</text>
<text text-anchor="middle" x="4585" y="-80" font-family="Helvetica,sans-Serif" font-size="10.00">/dialogexporttocsv.cpp</text>
</a>
</g>
</g>
<!-- Node19&#45;&gt;Node33 -->
<g id="edge33" class="edge">
<title>Node19&#45;&gt;Node33</title>
<path fill="none" stroke="midnightblue" d="M3552.89,-162.28C3785.88,-155.93 4329.75,-138.4 4512,-109 4521.08,-107.54 4530.65,-105.38 4539.77,-103.01"/>
<polygon fill="midnightblue" stroke="midnightblue" points="3552.61,-158.79 3542.71,-162.56 3552.8,-165.79 3552.61,-158.79"/>
</g>
<!-- Node34 -->
<g id="node29" class="node">
<title>Node34</title>
<g id="a_node29"><a xlink:href="../../d6/d0b/def_8cpp.html" target="_top" xlink:title=" ">
<polygon fill="white" stroke="black" points="4667,-78.5 4667,-97.5 4789,-97.5 4789,-78.5 4667,-78.5"/>
<text text-anchor="middle" x="4728" y="-85.5" font-family="Helvetica,sans-Serif" font-size="10.00">src/libs/vmisc/def.cpp</text>
</a>
</g>
</g>
<!-- Node19&#45;&gt;Node34 -->
<g id="edge34" class="edge">
<title>Node19&#45;&gt;Node34</title>
<path fill="none" stroke="midnightblue" d="M3552.99,-163.17C3808.82,-158.32 4446.16,-143.11 4657,-109 4672.55,-106.48 4689.55,-101.77 4703.01,-97.55"/>
<polygon fill="midnightblue" stroke="midnightblue" points="3552.87,-159.67 3542.94,-163.36 3553,-166.67 3552.87,-159.67"/>
</g>
<!-- Node35 -->
<g id="node30" class="node">
<title>Node35</title>
<g id="a_node30"><a xlink:href="../../d0/df6/vabstractapplication_8cpp.html" target="_top" xlink:title=" ">
<polygon fill="white" stroke="black" points="4807,-78.5 4807,-97.5 5013,-97.5 5013,-78.5 4807,-78.5"/>
<text text-anchor="middle" x="4910" y="-85.5" font-family="Helvetica,sans-Serif" font-size="10.00">src/libs/vmisc/vabstractapplication.cpp</text>
</a>
</g>
</g>
<!-- Node19&#45;&gt;Node35 -->
<g id="edge36" class="edge">
<title>Node19&#45;&gt;Node35</title>
<path fill="none" stroke="midnightblue" d="M3552.57,-165.48C3782.1,-165.42 4336.58,-159.51 4798,-109 4821.95,-106.38 4848.51,-101.71 4869.75,-97.55"/>
<polygon fill="midnightblue" stroke="midnightblue" points="3552.55,-161.98 3542.55,-165.48 3552.55,-168.98 3552.55,-161.98"/>
</g>
<!-- Node36 -->
<g id="node31" class="node">
<title>Node36</title>
<g id="a_node31"><a xlink:href="../../d4/d4f/pmsystems_8cpp.html" target="_top" xlink:title=" ">
<polygon fill="white" stroke="black" points="1646.5,-73 1646.5,-103 1753.5,-103 1753.5,-73 1646.5,-73"/>
<text text-anchor="start" x="1654.5" y="-91" font-family="Helvetica,sans-Serif" font-size="10.00">src/libs/vpatterndb</text>
<text text-anchor="middle" x="1700" y="-80" font-family="Helvetica,sans-Serif" font-size="10.00">/pmsystems.cpp</text>
</a>
</g>
</g>
<!-- Node19&#45;&gt;Node36 -->
<g id="edge37" class="edge">
<title>Node19&#45;&gt;Node36</title>
<path fill="none" stroke="midnightblue" d="M3337.03,-161.2C3220.92,-157.14 3030.89,-150.52 2867,-145 2622.79,-136.77 2009.26,-147.78 1768,-109 1759.37,-107.61 1750.3,-105.46 1741.7,-103.07"/>
<polygon fill="midnightblue" stroke="midnightblue" points="3337.22,-164.71 3347.34,-161.57 3337.46,-157.72 3337.22,-164.71"/>
</g>
<!-- Node19&#45;&gt;Node37 -->
<g id="edge38" class="edge">
<title>Node19&#45;&gt;Node37</title>
<path fill="none" stroke="midnightblue" d="M3552.83,-165.31C3876.89,-165.63 4838.67,-161.97 5147,-109 5155.03,-107.62 5163.45,-105.47 5171.43,-103.08"/>
<polygon fill="midnightblue" stroke="midnightblue" points="3552.51,-161.81 3542.5,-165.3 3552.5,-168.81 3552.51,-161.81"/>
</g>
<!-- Node19&#45;&gt;Node38 -->
<g id="edge40" class="edge">
<title>Node19&#45;&gt;Node38</title>
<path fill="none" stroke="midnightblue" d="M3552.78,-165.6C3892.54,-166.87 4938.41,-165.93 5272,-109 5280.03,-107.63 5288.45,-105.48 5296.43,-103.09"/>
<polygon fill="midnightblue" stroke="midnightblue" points="3552.7,-162.1 3542.69,-165.56 3552.68,-169.1 3552.7,-162.1"/>
</g>
<!-- Node39 -->
<g id="node34" class="node">
<title>Node39</title>
<g id="a_node34"><a xlink:href="../../df/dba/vpiecenode__p_8h.html" target="_top" xlink:title=" ">
<polygon fill="white" stroke="black" points="5031.5,-73 5031.5,-103 5138.5,-103 5138.5,-73 5031.5,-73"/>
<text text-anchor="start" x="5039.5" y="-91" font-family="Helvetica,sans-Serif" font-size="10.00">src/libs/vpatterndb</text>
<text text-anchor="middle" x="5085" y="-80" font-family="Helvetica,sans-Serif" font-size="10.00">/vpiecenode_p.h</text>
</a>
</g>
</g>
<!-- Node19&#45;&gt;Node39 -->
<g id="edge41" class="edge">
<title>Node19&#45;&gt;Node39</title>
<path fill="none" stroke="midnightblue" d="M3552.86,-164.98C3860.59,-164.31 4738.83,-158.03 5022,-109 5030.03,-107.61 5038.45,-105.45 5046.43,-103.06"/>
<polygon fill="midnightblue" stroke="midnightblue" points="3552.59,-161.48 3542.59,-165 3552.6,-168.48 3552.59,-161.48"/>
</g>
<!-- Node41 -->
<g id="node36" class="node">
<title>Node41</title>
<g id="a_node36"><a xlink:href="../../de/d3e/vtranslatevars_8cpp.html" target="_top" xlink:title=" ">
<polygon fill="white" stroke="black" points="1810,-73 1810,-103 1920,-103 1920,-73 1810,-73"/>
<text text-anchor="start" x="1818" y="-91" font-family="Helvetica,sans-Serif" font-size="10.00">src/libs/vpatterndb</text>
<text text-anchor="middle" x="1865" y="-80" font-family="Helvetica,sans-Serif" font-size="10.00">/vtranslatevars.cpp</text>
</a>
</g>
</g>
<!-- Node19&#45;&gt;Node41 -->
<g id="edge43" class="edge">
<title>Node19&#45;&gt;Node41</title>
<path fill="none" stroke="midnightblue" d="M3337.19,-161.21C2993.69,-149.1 1946.36,-111.98 1929,-109 1920.85,-107.6 1912.3,-105.44 1904.2,-103.05"/>
<polygon fill="midnightblue" stroke="midnightblue" points="3337.27,-164.71 3347.39,-161.57 3337.52,-157.72 3337.27,-164.71"/>
</g>
<!-- Node42 -->
<g id="node37" class="node">
<title>Node42</title>
<g id="a_node37"><a xlink:href="../../df/d40/export__format__combobox_8cpp.html" target="_top" xlink:title=" ">
<polygon fill="white" stroke="black" points="1938.5,-73 1938.5,-103 2071.5,-103 2071.5,-73 1938.5,-73"/>
<text text-anchor="start" x="1946.5" y="-91" font-family="Helvetica,sans-Serif" font-size="10.00">src/libs/vwidgets/export</text>
<text text-anchor="middle" x="2005" y="-80" font-family="Helvetica,sans-Serif" font-size="10.00">_format_combobox.cpp</text>
</a>
</g>
</g>
<!-- Node19&#45;&gt;Node42 -->
<g id="edge44" class="edge">
<title>Node19&#45;&gt;Node42</title>
<path fill="none" stroke="midnightblue" d="M3337.1,-161.21C3025.54,-150.17 2142.68,-118.27 2081,-109 2071.56,-107.58 2061.59,-105.44 2052.1,-103.08"/>
<polygon fill="midnightblue" stroke="midnightblue" points="3337.38,-164.72 3347.49,-161.58 3337.62,-157.72 3337.38,-164.72"/>
</g>
<!-- Node43 -->
<g id="node38" class="node">
<title>Node43</title>
<g id="a_node38"><a xlink:href="../../d3/d4f/mouse__coordinates_8cpp.html" target="_top" xlink:title=" ">
<polygon fill="white" stroke="black" points="2090,-73 2090,-103 2224,-103 2224,-73 2090,-73"/>
<text text-anchor="start" x="2098" y="-91" font-family="Helvetica,sans-Serif" font-size="10.00">src/libs/vwidgets/mouse</text>
<text text-anchor="middle" x="2157" y="-80" font-family="Helvetica,sans-Serif" font-size="10.00">_coordinates.cpp</text>
</a>
</g>
</g>
<!-- Node19&#45;&gt;Node43 -->
<g id="edge45" class="edge">
<title>Node19&#45;&gt;Node43</title>
<path fill="none" stroke="midnightblue" d="M3337.44,-161.33C3061.09,-151.72 2340.34,-125.41 2233,-109 2223.56,-107.56 2213.6,-105.41 2204.11,-103.05"/>
<polygon fill="midnightblue" stroke="midnightblue" points="3337.37,-164.83 3347.48,-161.68 3337.61,-157.83 3337.37,-164.83"/>
</g>
<!-- Node44 -->
<g id="node39" class="node">
<title>Node44</title>
<g id="a_node39"><a xlink:href="../../d2/d28/page__format__combobox_8cpp.html" target="_top" xlink:title=" ">
<polygon fill="white" stroke="black" points="2242.5,-73 2242.5,-103 2373.5,-103 2373.5,-73 2242.5,-73"/>
<text text-anchor="start" x="2250.5" y="-91" font-family="Helvetica,sans-Serif" font-size="10.00">src/libs/vwidgets/page</text>
<text text-anchor="middle" x="2308" y="-80" font-family="Helvetica,sans-Serif" font-size="10.00">_format_combobox.cpp</text>
</a>
</g>
</g>
<!-- Node19&#45;&gt;Node44 -->
<g id="edge46" class="edge">
<title>Node19&#45;&gt;Node44</title>
<path fill="none" stroke="midnightblue" d="M3337.02,-160.61C3085.4,-150.19 2474.36,-123.74 2382,-109 2372.8,-107.53 2363.1,-105.37 2353.86,-103.01"/>
<polygon fill="midnightblue" stroke="midnightblue" points="3337.14,-164.12 3347.28,-161.03 3337.43,-157.12 3337.14,-164.12"/>
</g>
<!-- Node45 -->
<g id="node40" class="node">
<title>Node45</title>
<g id="a_node40"><a xlink:href="../../d7/d1b/pen__toolbar_8cpp.html" target="_top" xlink:title=" ">
<polygon fill="white" stroke="black" points="2391.5,-73 2391.5,-103 2510.5,-103 2510.5,-73 2391.5,-73"/>
<text text-anchor="start" x="2399.5" y="-91" font-family="Helvetica,sans-Serif" font-size="10.00">src/libs/vwidgets/pen</text>
<text text-anchor="middle" x="2451" y="-80" font-family="Helvetica,sans-Serif" font-size="10.00">_toolbar.cpp</text>
</a>
</g>
</g>
<!-- Node19&#45;&gt;Node45 -->
<g id="edge47" class="edge">
<title>Node19&#45;&gt;Node45</title>
<path fill="none" stroke="midnightblue" d="M3337.39,-161.48C3128.32,-154.15 2674.22,-135.68 2520,-109 2511.52,-107.53 2502.6,-105.4 2494.09,-103.08"/>
<polygon fill="midnightblue" stroke="midnightblue" points="3337.35,-164.98 3347.47,-161.83 3337.6,-157.99 3337.35,-164.98"/>
</g>
<!-- Node46 -->
<g id="node41" class="node">
<title>Node46</title>
<g id="a_node41"><a xlink:href="../../d8/d76/scene__rect_8cpp.html" target="_top" xlink:title=" ">
<polygon fill="white" stroke="black" points="2529,-73 2529,-103 2659,-103 2659,-73 2529,-73"/>
<text text-anchor="start" x="2537" y="-91" font-family="Helvetica,sans-Serif" font-size="10.00">src/libs/vwidgets/scene</text>
<text text-anchor="middle" x="2594" y="-80" font-family="Helvetica,sans-Serif" font-size="10.00">_rect.cpp</text>
</a>
</g>
</g>
<!-- Node19&#45;&gt;Node46 -->
<g id="edge48" class="edge">
<title>Node19&#45;&gt;Node46</title>
<path fill="none" stroke="midnightblue" d="M3337.2,-163.75C3186.45,-160.52 2904.58,-149.11 2668,-109 2659.08,-107.49 2649.67,-105.37 2640.67,-103.07"/>
<polygon fill="midnightblue" stroke="midnightblue" points="3337.31,-167.25 3347.38,-163.96 3337.45,-160.25 3337.31,-167.25"/>
</g>
<!-- Node47 -->
<g id="node42" class="node">
<title>Node47</title>
<g id="a_node42"><a xlink:href="../../dd/df6/vabstractmainwindow_8cpp.html" target="_top" xlink:title=" ">
<polygon fill="white" stroke="black" points="2677.5,-78.5 2677.5,-97.5 2906.5,-97.5 2906.5,-78.5 2677.5,-78.5"/>
<text text-anchor="middle" x="2792" y="-85.5" font-family="Helvetica,sans-Serif" font-size="10.00">src/libs/vwidgets/vabstractmainwindow.cpp</text>
</a>
</g>
</g>
<!-- Node19&#45;&gt;Node47 -->
<g id="edge49" class="edge">
<title>Node19&#45;&gt;Node47</title>
<path fill="none" stroke="midnightblue" d="M3338.89,-155.55C3231.75,-145.59 3061.59,-128.65 2915,-109 2890.34,-105.7 2863.02,-101.32 2840.39,-97.51"/>
<polygon fill="midnightblue" stroke="midnightblue" points="3338.78,-159.05 3349.06,-156.49 3339.43,-152.08 3338.78,-159.05"/>
</g>
<!-- Node48 -->
<g id="node43" class="node">
<title>Node48</title>
<g id="a_node43"><a xlink:href="../../de/d45/vcontrolpointspline_8cpp.html" target="_top" xlink:title=" ">
<polygon fill="white" stroke="black" points="2924.5,-78.5 2924.5,-97.5 3139.5,-97.5 3139.5,-78.5 2924.5,-78.5"/>
<text text-anchor="middle" x="3032" y="-85.5" font-family="Helvetica,sans-Serif" font-size="10.00">src/libs/vwidgets/vcontrolpointspline.cpp</text>
</a>
</g>
</g>
<!-- Node19&#45;&gt;Node48 -->
<g id="edge50" class="edge">
<title>Node19&#45;&gt;Node48</title>
<path fill="none" stroke="midnightblue" d="M3388.49,-154.6C3306.13,-139.44 3154.64,-111.57 3078.4,-97.54"/>
<polygon fill="midnightblue" stroke="midnightblue" points="3387.96,-158.06 3398.43,-156.43 3389.23,-151.18 3387.96,-158.06"/>
</g>
<!-- Node49 -->
<g id="node44" class="node">
<title>Node49</title>
<g id="a_node44"><a xlink:href="../../d1/d90/vgrainlineitem_8cpp.html" target="_top" xlink:title=" ">
<polygon fill="white" stroke="black" points="3157.5,-78.5 3157.5,-97.5 3350.5,-97.5 3350.5,-78.5 3157.5,-78.5"/>
<text text-anchor="middle" x="3254" y="-85.5" font-family="Helvetica,sans-Serif" font-size="10.00">src/libs/vwidgets/vgrainlineitem.cpp</text>
</a>
</g>
</g>
<!-- Node19&#45;&gt;Node49 -->
<g id="edge51" class="edge">
<title>Node19&#45;&gt;Node49</title>
<path fill="none" stroke="midnightblue" d="M3413.69,-152.54C3374.71,-137.03 3309.17,-110.95 3275.46,-97.54"/>
<polygon fill="midnightblue" stroke="midnightblue" points="3412.88,-155.98 3423.46,-156.43 3415.46,-149.48 3412.88,-155.98"/>
</g>
<!-- Node28&#45;&gt;Node29 -->
<g id="edge28" class="edge">
<title>Node28&#45;&gt;Node29</title>
<path fill="none" stroke="midnightblue" d="M4072.33,-70.17C4067.53,-68.93 4062.7,-67.84 4058,-67 3852.03,-30.27 3196.98,-19.5 3004.61,-17.09"/>
<polygon fill="midnightblue" stroke="midnightblue" points="4071.51,-73.58 4082.08,-72.9 4073.39,-66.84 4071.51,-73.58"/>
</g>
<!-- Node39&#45;&gt;Node40 -->
<g id="edge42" class="edge">
<title>Node39&#45;&gt;Node40</title>
<path fill="none" stroke="midnightblue" d="M5127.75,-68.84C5155.82,-56.92 5191.98,-41.57 5217.86,-30.57"/>
<polygon fill="midnightblue" stroke="midnightblue" points="5126.03,-65.77 5118.19,-72.9 5128.77,-72.22 5126.03,-65.77"/>
</g>
<!-- Node57&#45;&gt;Node3 -->
<g id="edge53" class="edge">
<title>Node57&#45;&gt;Node3</title>
<path fill="none" stroke="midnightblue" d="M6390.71,-139.64C6405.4,-129.49 6422.05,-117.98 6435.77,-108.51"/>
<polygon fill="midnightblue" stroke="midnightblue" points="6388.57,-136.86 6382.33,-145.43 6392.54,-142.62 6388.57,-136.86"/>
</g>
</g>
</svg>
