<?xml version="1.0" encoding="UTF-8" standalone="no"?>
<!DOCTYPE svg PUBLIC "-//W3C//DTD SVG 1.1//EN"
 "http://www.w3.org/Graphics/SVG/1.1/DTD/svg11.dtd">
<!-- Generated by graphviz version 2.43.0 (0)
 -->
<!-- Title: src/libs/vpatterndb/vtranslatevars.h Pages: 1 -->
<svg width="6284pt" height="318pt"
 viewBox="0.00 0.00 6283.50 318.00" xmlns="http://www.w3.org/2000/svg" xmlns:xlink="http://www.w3.org/1999/xlink">
<g id="graph0" class="graph" transform="scale(1 1) rotate(0) translate(4 314)">
<title>src/libs/vpatterndb/vtranslatevars.h</title>
<polygon fill="white" stroke="transparent" points="-4,4 -4,-314 6279.5,-314 6279.5,4 -4,4"/>
<!-- Node1 -->
<g id="node1" class="node">
<title>Node1</title>
<g id="a_node1"><a xlink:title=" ">
<polygon fill="#bfbfbf" stroke="black" points="3709,-279.5 3709,-309.5 3816,-309.5 3816,-279.5 3709,-279.5"/>
<text text-anchor="start" x="3717" y="-297.5" font-family="Helvetica,sans-Serif" font-size="10.00">src/libs/vpatterndb</text>
<text text-anchor="middle" x="3762.5" y="-286.5" font-family="Helvetica,sans-Serif" font-size="10.00">/vtranslatevars.h</text>
</a>
</g>
</g>
<!-- Node2 -->
<g id="node2" class="node">
<title>Node2</title>
<g id="a_node2"><a xlink:href="../../d5/d74/vabstractapplication_8h.html" target="_top" xlink:title=" ">
<polygon fill="white" stroke="black" points="3483,-145.5 3483,-164.5 3678,-164.5 3678,-145.5 3483,-145.5"/>
<text text-anchor="middle" x="3580.5" y="-152.5" font-family="Helvetica,sans-Serif" font-size="10.00">src/libs/vmisc/vabstractapplication.h</text>
</a>
</g>
</g>
<!-- Node1&#45;&gt;Node2 -->
<g id="edge1" class="edge">
<title>Node1&#45;&gt;Node2</title>
<path fill="none" stroke="midnightblue" d="M3735.64,-273.21C3695.25,-242.69 3620.57,-186.28 3592.02,-164.7"/>
<polygon fill="midnightblue" stroke="midnightblue" points="3733.62,-276.07 3743.71,-279.3 3737.84,-270.48 3733.62,-276.07"/>
</g>
<!-- Node22 -->
<g id="node18" class="node">
<title>Node22</title>
<g id="a_node18"><a xlink:href="../../db/d11/vformula_8cpp.html" target="_top" xlink:title=" ">
<polygon fill="white" stroke="black" points="6040,-67.5 6040,-97.5 6147,-97.5 6147,-67.5 6040,-67.5"/>
<text text-anchor="start" x="6048" y="-85.5" font-family="Helvetica,sans-Serif" font-size="10.00">src/libs/vpatterndb</text>
<text text-anchor="middle" x="6093.5" y="-74.5" font-family="Helvetica,sans-Serif" font-size="10.00">/vformula.cpp</text>
</a>
</g>
</g>
<!-- Node1&#45;&gt;Node22 -->
<g id="edge56" class="edge">
<title>Node1&#45;&gt;Node22</title>
<path fill="none" stroke="midnightblue" d="M3754.22,-269.13C3743.98,-233.88 3731.9,-169.06 3767.5,-134 3812.32,-89.87 5969.08,-105.71 6031.5,-98 6034.24,-97.66 6037.04,-97.25 6039.86,-96.79"/>
<polygon fill="midnightblue" stroke="midnightblue" points="3750.99,-270.53 3757.29,-279.05 3757.68,-268.46 3750.99,-270.53"/>
</g>
<!-- Node26 -->
<g id="node22" class="node">
<title>Node26</title>
<g id="a_node22"><a xlink:href="../../d6/d46/vcontainer_8cpp.html" target="_top" xlink:title=" ">
<polygon fill="white" stroke="black" points="399,-67.5 399,-97.5 506,-97.5 506,-67.5 399,-67.5"/>
<text text-anchor="start" x="407" y="-85.5" font-family="Helvetica,sans-Serif" font-size="10.00">src/libs/vpatterndb</text>
<text text-anchor="middle" x="452.5" y="-74.5" font-family="Helvetica,sans-Serif" font-size="10.00">/vcontainer.cpp</text>
</a>
</g>
</g>
<!-- Node1&#45;&gt;Node26 -->
<g id="edge57" class="edge">
<title>Node1&#45;&gt;Node26</title>
<path fill="none" stroke="midnightblue" d="M3698.82,-293.38C3321.99,-292.54 1380.39,-286.16 785.5,-243 552.65,-226.11 418.7,-351.3 264.5,-176 252.17,-161.98 253.14,-148.81 264.5,-134 280.8,-112.75 348.98,-98.45 398.55,-90.65"/>
<polygon fill="midnightblue" stroke="midnightblue" points="3698.98,-296.88 3708.99,-293.41 3699,-289.88 3698.98,-296.88"/>
</g>
<!-- Node27 -->
<g id="node23" class="node">
<title>Node27</title>
<g id="a_node23"><a xlink:href="../../de/d3e/vtranslatevars_8cpp.html" target="_top" xlink:title=" ">
<polygon fill="white" stroke="black" points="6165.5,-67.5 6165.5,-97.5 6275.5,-97.5 6275.5,-67.5 6165.5,-67.5"/>
<text text-anchor="start" x="6173.5" y="-85.5" font-family="Helvetica,sans-Serif" font-size="10.00">src/libs/vpatterndb</text>
<text text-anchor="middle" x="6220.5" y="-74.5" font-family="Helvetica,sans-Serif" font-size="10.00">/vtranslatevars.cpp</text>
</a>
</g>
</g>
<!-- Node1&#45;&gt;Node27 -->
<g id="edge58" class="edge">
<title>Node1&#45;&gt;Node27</title>
<path fill="none" stroke="midnightblue" d="M3766.71,-269.62C3771.44,-250.57 3781.15,-225 3800.5,-212 4018.07,-65.88 5896.82,-133.42 6156.5,-98 6159.43,-97.6 6162.43,-97.13 6165.45,-96.61"/>
<polygon fill="midnightblue" stroke="midnightblue" points="3763.29,-268.89 3764.57,-279.41 3770.13,-270.39 3763.29,-268.89"/>
</g>
<!-- Node43 -->
<g id="node39" class="node">
<title>Node43</title>
<g id="a_node39"><a xlink:href="../../d3/df7/vcontainer_8h.html" target="_top" xlink:title=" ">
<polygon fill="white" stroke="red" points="795,-212.5 795,-242.5 902,-242.5 902,-212.5 795,-212.5"/>
<text text-anchor="start" x="803" y="-230.5" font-family="Helvetica,sans-Serif" font-size="10.00">src/libs/vpatterndb</text>
<text text-anchor="middle" x="848.5" y="-219.5" font-family="Helvetica,sans-Serif" font-size="10.00">/vcontainer.h</text>
</a>
</g>
</g>
<!-- Node1&#45;&gt;Node43 -->
<g id="edge39" class="edge">
<title>Node1&#45;&gt;Node43</title>
<path fill="none" stroke="midnightblue" d="M3698.57,-292.07C3309.19,-283.39 1261.17,-237.7 902.22,-229.7"/>
<polygon fill="midnightblue" stroke="midnightblue" points="3698.73,-295.58 3708.8,-292.3 3698.88,-288.58 3698.73,-295.58"/>
</g>
<!-- Node63 -->
<g id="node48" class="node">
<title>Node63</title>
<g id="a_node48"><a xlink:href="../../df/de5/dialogspline_8cpp.html" target="_top" xlink:title=" ">
<polygon fill="white" stroke="black" points="3809.5,-212.5 3809.5,-242.5 3935.5,-242.5 3935.5,-212.5 3809.5,-212.5"/>
<text text-anchor="start" x="3817.5" y="-230.5" font-family="Helvetica,sans-Serif" font-size="10.00">src/libs/vtools/dialogs</text>
<text text-anchor="middle" x="3872.5" y="-219.5" font-family="Helvetica,sans-Serif" font-size="10.00">/tools/dialogspline.cpp</text>
</a>
</g>
</g>
<!-- Node1&#45;&gt;Node63 -->
<g id="edge59" class="edge">
<title>Node1&#45;&gt;Node63</title>
<path fill="none" stroke="midnightblue" d="M3795,-274.3C3812.21,-264.12 3832.98,-251.85 3848.68,-242.58"/>
<polygon fill="midnightblue" stroke="midnightblue" points="3793.2,-271.3 3786.37,-279.4 3796.76,-277.32 3793.2,-271.3"/>
</g>
<!-- Node64 -->
<g id="node49" class="node">
<title>Node64</title>
<g id="a_node49"><a xlink:href="../../dc/dc2/dialogsplinepath_8cpp.html" target="_top" xlink:title=" ">
<polygon fill="white" stroke="black" points="3953.5,-212.5 3953.5,-242.5 4101.5,-242.5 4101.5,-212.5 3953.5,-212.5"/>
<text text-anchor="start" x="3961.5" y="-230.5" font-family="Helvetica,sans-Serif" font-size="10.00">src/libs/vtools/dialogs</text>
<text text-anchor="middle" x="4027.5" y="-219.5" font-family="Helvetica,sans-Serif" font-size="10.00">/tools/dialogsplinepath.cpp</text>
</a>
</g>
</g>
<!-- Node1&#45;&gt;Node64 -->
<g id="edge60" class="edge">
<title>Node1&#45;&gt;Node64</title>
<path fill="none" stroke="midnightblue" d="M3826.11,-277.9C3870,-267.13 3927.85,-252.94 3970.28,-242.53"/>
<polygon fill="midnightblue" stroke="midnightblue" points="3825.01,-274.56 3816.13,-280.35 3826.67,-281.36 3825.01,-274.56"/>
</g>
<!-- Node65 -->
<g id="node50" class="node">
<title>Node65</title>
<g id="a_node50"><a xlink:href="../../d1/d75/vistoolendline_8cpp.html" target="_top" xlink:title=" ">
<polygon fill="white" stroke="black" points="4120,-212.5 4120,-242.5 4269,-242.5 4269,-212.5 4120,-212.5"/>
<text text-anchor="start" x="4128" y="-230.5" font-family="Helvetica,sans-Serif" font-size="10.00">src/libs/vtools/visualization</text>
<text text-anchor="middle" x="4194.5" y="-219.5" font-family="Helvetica,sans-Serif" font-size="10.00">/line/vistoolendline.cpp</text>
</a>
</g>
</g>
<!-- Node1&#45;&gt;Node65 -->
<g id="edge61" class="edge">
<title>Node1&#45;&gt;Node65</title>
<path fill="none" stroke="midnightblue" d="M3826.19,-284.78C3896.03,-275.1 4011.37,-258.75 4110.5,-243 4113.57,-242.51 4116.7,-242.01 4119.86,-241.49"/>
<polygon fill="midnightblue" stroke="midnightblue" points="3825.65,-281.32 3816.22,-286.16 3826.61,-288.26 3825.65,-281.32"/>
</g>
<!-- Node3 -->
<g id="node3" class="node">
<title>Node3</title>
<g id="a_node3"><a xlink:href="../../d4/d90/fvupdater_8cpp.html" target="_top" xlink:title=" ">
<polygon fill="white" stroke="black" points="3016,-73 3016,-92 3169,-92 3169,-73 3016,-73"/>
<text text-anchor="middle" x="3092.5" y="-80" font-family="Helvetica,sans-Serif" font-size="10.00">src/libs/fervor/fvupdater.cpp</text>
</a>
</g>
</g>
<!-- Node2&#45;&gt;Node3 -->
<g id="edge2" class="edge">
<title>Node2&#45;&gt;Node3</title>
<path fill="none" stroke="midnightblue" d="M3504.32,-144.13C3423.21,-133.45 3291.14,-115.58 3177.5,-98 3165.66,-96.17 3152.93,-94.07 3141,-92.04"/>
<polygon fill="midnightblue" stroke="midnightblue" points="3504.07,-147.62 3514.44,-145.46 3504.98,-140.68 3504.07,-147.62"/>
</g>
<!-- Node4 -->
<g id="node4" class="node">
<title>Node4</title>
<g id="a_node4"><a xlink:href="../../d9/dc8/dxiface_8cpp.html" target="_top" xlink:title=" ">
<polygon fill="white" stroke="black" points="3187,-73 3187,-92 3322,-92 3322,-73 3187,-73"/>
<text text-anchor="middle" x="3254.5" y="-80" font-family="Helvetica,sans-Serif" font-size="10.00">src/libs/vdxf/dxiface.cpp</text>
</a>
</g>
</g>
<!-- Node2&#45;&gt;Node4 -->
<g id="edge3" class="edge">
<title>Node2&#45;&gt;Node4</title>
<path fill="none" stroke="midnightblue" d="M3531.19,-143.34C3466.3,-129.3 3353.52,-104.91 3293.96,-92.03"/>
<polygon fill="midnightblue" stroke="midnightblue" points="3530.66,-146.8 3541.18,-145.5 3532.14,-139.96 3530.66,-146.8"/>
</g>
<!-- Node5 -->
<g id="node5" class="node">
<title>Node5</title>
<g id="a_node5"><a xlink:href="../../da/d75/vabstractarc__p_8h.html" target="_top" xlink:title=" ">
<polygon fill="white" stroke="red" points="3340,-67.5 3340,-97.5 3447,-97.5 3447,-67.5 3340,-67.5"/>
<text text-anchor="start" x="3348" y="-85.5" font-family="Helvetica,sans-Serif" font-size="10.00">src/libs/vgeometry</text>
<text text-anchor="middle" x="3393.5" y="-74.5" font-family="Helvetica,sans-Serif" font-size="10.00">/vabstractarc_p.h</text>
</a>
</g>
</g>
<!-- Node2&#45;&gt;Node5 -->
<g id="edge4" class="edge">
<title>Node2&#45;&gt;Node5</title>
<path fill="none" stroke="midnightblue" d="M3548.41,-141.9C3515.72,-129.58 3465.06,-110.48 3430.65,-97.51"/>
<polygon fill="midnightblue" stroke="midnightblue" points="3547.35,-145.24 3557.94,-145.5 3549.82,-138.69 3547.35,-145.24"/>
</g>
<!-- Node7 -->
<g id="node6" class="node">
<title>Node7</title>
<g id="a_node6"><a xlink:href="../../dc/da3/varc__p_8h.html" target="_top" xlink:title=" ">
<polygon fill="white" stroke="red" points="3465,-67.5 3465,-97.5 3572,-97.5 3572,-67.5 3465,-67.5"/>
<text text-anchor="start" x="3473" y="-85.5" font-family="Helvetica,sans-Serif" font-size="10.00">src/libs/vgeometry</text>
<text text-anchor="middle" x="3518.5" y="-74.5" font-family="Helvetica,sans-Serif" font-size="10.00">/varc_p.h</text>
</a>
</g>
</g>
<!-- Node2&#45;&gt;Node7 -->
<g id="edge5" class="edge">
<title>Node2&#45;&gt;Node7</title>
<path fill="none" stroke="midnightblue" d="M3566.2,-137.74C3555.52,-125.6 3541.07,-109.16 3530.88,-97.58"/>
<polygon fill="midnightblue" stroke="midnightblue" points="3563.67,-140.16 3572.9,-145.36 3568.92,-135.53 3563.67,-140.16"/>
</g>
<!-- Node9 -->
<g id="node7" class="node">
<title>Node9</title>
<g id="a_node7"><a xlink:href="../../d5/d8e/vcubicbezier__p_8h.html" target="_top" xlink:title=" ">
<polygon fill="white" stroke="red" points="3590,-67.5 3590,-97.5 3697,-97.5 3697,-67.5 3590,-67.5"/>
<text text-anchor="start" x="3598" y="-85.5" font-family="Helvetica,sans-Serif" font-size="10.00">src/libs/vgeometry</text>
<text text-anchor="middle" x="3643.5" y="-74.5" font-family="Helvetica,sans-Serif" font-size="10.00">/vcubicbezier_p.h</text>
</a>
</g>
</g>
<!-- Node2&#45;&gt;Node9 -->
<g id="edge6" class="edge">
<title>Node2&#45;&gt;Node9</title>
<path fill="none" stroke="midnightblue" d="M3595.03,-137.74C3605.88,-125.6 3620.57,-109.16 3630.92,-97.58"/>
<polygon fill="midnightblue" stroke="midnightblue" points="3592.28,-135.57 3588.23,-145.36 3597.5,-140.23 3592.28,-135.57"/>
</g>
<!-- Node11 -->
<g id="node8" class="node">
<title>Node11</title>
<g id="a_node8"><a xlink:href="../../df/dde/vellipticalarc__p_8h.html" target="_top" xlink:title=" ">
<polygon fill="white" stroke="black" points="3840,-67.5 3840,-97.5 3947,-97.5 3947,-67.5 3840,-67.5"/>
<text text-anchor="start" x="3848" y="-85.5" font-family="Helvetica,sans-Serif" font-size="10.00">src/libs/vgeometry</text>
<text text-anchor="middle" x="3893.5" y="-74.5" font-family="Helvetica,sans-Serif" font-size="10.00">/vellipticalarc_p.h</text>
</a>
</g>
</g>
<!-- Node2&#45;&gt;Node11 -->
<g id="edge7" class="edge">
<title>Node2&#45;&gt;Node11</title>
<path fill="none" stroke="midnightblue" d="M3629.02,-143.22C3679.41,-132 3760.5,-113.89 3830.5,-98 3833.56,-97.3 3836.71,-96.59 3839.89,-95.86"/>
<polygon fill="midnightblue" stroke="midnightblue" points="3628.06,-139.85 3619.06,-145.44 3629.58,-146.68 3628.06,-139.85"/>
</g>
<!-- Node12 -->
<g id="node9" class="node">
<title>Node12</title>
<g id="a_node9"><a xlink:href="../../d6/dfb/vellipticalarc_8cpp.html" target="_top" xlink:title=" ">
<polygon fill="white" stroke="black" points="4452,-0.5 4452,-30.5 4559,-30.5 4559,-0.5 4452,-0.5"/>
<text text-anchor="start" x="4460" y="-18.5" font-family="Helvetica,sans-Serif" font-size="10.00">src/libs/vgeometry</text>
<text text-anchor="middle" x="4505.5" y="-7.5" font-family="Helvetica,sans-Serif" font-size="10.00">/vellipticalarc.cpp</text>
</a>
</g>
</g>
<!-- Node2&#45;&gt;Node12 -->
<g id="edge9" class="edge">
<title>Node2&#45;&gt;Node12</title>
<path fill="none" stroke="midnightblue" d="M3629.62,-143.48C3648.83,-139.81 3671.11,-136.09 3691.5,-134 3730.42,-130.02 5072.19,-126.02 5099.5,-98 5176.47,-19.04 4719.15,-14.95 4559.22,-15.89"/>
<polygon fill="midnightblue" stroke="midnightblue" points="3628.73,-140.09 3619.59,-145.45 3630.08,-146.96 3628.73,-140.09"/>
</g>
<!-- Node13 -->
<g id="node10" class="node">
<title>Node13</title>
<g id="a_node10"><a xlink:href="../../d1/d76/vspline__p_8h.html" target="_top" xlink:title=" ">
<polygon fill="white" stroke="red" points="3715,-67.5 3715,-97.5 3822,-97.5 3822,-67.5 3715,-67.5"/>
<text text-anchor="start" x="3723" y="-85.5" font-family="Helvetica,sans-Serif" font-size="10.00">src/libs/vgeometry</text>
<text text-anchor="middle" x="3768.5" y="-74.5" font-family="Helvetica,sans-Serif" font-size="10.00">/vspline_p.h</text>
</a>
</g>
</g>
<!-- Node2&#45;&gt;Node13 -->
<g id="edge10" class="edge">
<title>Node2&#45;&gt;Node13</title>
<path fill="none" stroke="midnightblue" d="M3612.76,-141.9C3645.63,-129.58 3696.55,-110.48 3731.15,-97.51"/>
<polygon fill="midnightblue" stroke="midnightblue" points="3611.31,-138.71 3603.18,-145.5 3613.77,-145.26 3611.31,-138.71"/>
</g>
<!-- Node15 -->
<g id="node11" class="node">
<title>Node15</title>
<g id="a_node11"><a xlink:href="../../d9/d15/vabstractpiece_8cpp.html" target="_top" xlink:title=" ">
<polygon fill="white" stroke="black" points="3965.5,-73 3965.5,-92 4151.5,-92 4151.5,-73 3965.5,-73"/>
<text text-anchor="middle" x="4058.5" y="-80" font-family="Helvetica,sans-Serif" font-size="10.00">src/libs/vlayout/vabstractpiece.cpp</text>
</a>
</g>
</g>
<!-- Node2&#45;&gt;Node15 -->
<g id="edge11" class="edge">
<title>Node2&#45;&gt;Node15</title>
<path fill="none" stroke="midnightblue" d="M3635.24,-143.66C3653.14,-140.4 3673.15,-136.9 3691.5,-134 3808.46,-115.5 3838.2,-114.25 3955.5,-98 3969.36,-96.08 3984.27,-93.99 3998.32,-92.02"/>
<polygon fill="midnightblue" stroke="midnightblue" points="3634.46,-140.24 3625.25,-145.49 3635.72,-147.13 3634.46,-140.24"/>
</g>
<!-- Node16 -->
<g id="node12" class="node">
<title>Node16</title>
<g id="a_node12"><a xlink:href="../../d8/d70/vtextmanager_8cpp.html" target="_top" xlink:title=" ">
<polygon fill="white" stroke="black" points="757.5,-73 757.5,-92 939.5,-92 939.5,-73 757.5,-73"/>
<text text-anchor="middle" x="848.5" y="-80" font-family="Helvetica,sans-Serif" font-size="10.00">src/libs/vlayout/vtextmanager.cpp</text>
</a>
</g>
</g>
<!-- Node2&#45;&gt;Node16 -->
<g id="edge12" class="edge">
<title>Node2&#45;&gt;Node16</title>
<path fill="none" stroke="midnightblue" d="M3472.52,-153.47C3042.52,-151.1 1451.01,-139.62 948.5,-98 932.24,-96.65 914.6,-94.37 898.72,-92.01"/>
<polygon fill="midnightblue" stroke="midnightblue" points="3472.75,-156.97 3482.77,-153.53 3472.79,-149.97 3472.75,-156.97"/>
</g>
<!-- Node17 -->
<g id="node13" class="node">
<title>Node17</title>
<g id="a_node13"><a xlink:href="../../db/d65/dialogexporttocsv_8cpp.html" target="_top" xlink:title=" ">
<polygon fill="white" stroke="black" points="4170,-67.5 4170,-97.5 4297,-97.5 4297,-67.5 4170,-67.5"/>
<text text-anchor="start" x="4178" y="-85.5" font-family="Helvetica,sans-Serif" font-size="10.00">src/libs/vmisc/dialogs</text>
<text text-anchor="middle" x="4233.5" y="-74.5" font-family="Helvetica,sans-Serif" font-size="10.00">/dialogexporttocsv.cpp</text>
</a>
</g>
</g>
<!-- Node2&#45;&gt;Node17 -->
<g id="edge13" class="edge">
<title>Node2&#45;&gt;Node17</title>
<path fill="none" stroke="midnightblue" d="M3632.06,-143.59C3650.72,-140.11 3672,-136.5 3691.5,-134 3898.86,-107.43 3953.38,-126.42 4160.5,-98 4163.57,-97.58 4166.71,-97.11 4169.87,-96.6"/>
<polygon fill="midnightblue" stroke="midnightblue" points="3631.16,-140.19 3621.99,-145.49 3632.46,-147.07 3631.16,-140.19"/>
</g>
<!-- Node18 -->
<g id="node14" class="node">
<title>Node18</title>
<g id="a_node14"><a xlink:href="../../dd/d70/vlayoutpiece_8cpp.html" target="_top" xlink:title=" ">
<polygon fill="white" stroke="black" points="562,-73 562,-92 739,-92 739,-73 562,-73"/>
<text text-anchor="middle" x="650.5" y="-80" font-family="Helvetica,sans-Serif" font-size="10.00">src/libs/vlayout/vlayoutpiece.cpp</text>
</a>
</g>
</g>
<!-- Node2&#45;&gt;Node18 -->
<g id="edge14" class="edge">
<title>Node2&#45;&gt;Node18</title>
<path fill="none" stroke="midnightblue" d="M3472.66,-153.7C3022.61,-152.18 1292.45,-143.43 748.5,-98 732.56,-96.67 715.27,-94.39 699.71,-92.03"/>
<polygon fill="midnightblue" stroke="midnightblue" points="3472.72,-157.2 3482.73,-153.74 3472.74,-150.2 3472.72,-157.2"/>
</g>
<!-- Node19 -->
<g id="node15" class="node">
<title>Node19</title>
<g id="a_node15"><a xlink:href="../../d6/d0b/def_8cpp.html" target="_top" xlink:title=" ">
<polygon fill="white" stroke="black" points="4315.5,-73 4315.5,-92 4437.5,-92 4437.5,-73 4315.5,-73"/>
<text text-anchor="middle" x="4376.5" y="-80" font-family="Helvetica,sans-Serif" font-size="10.00">src/libs/vmisc/def.cpp</text>
</a>
</g>
</g>
<!-- Node2&#45;&gt;Node19 -->
<g id="edge15" class="edge">
<title>Node2&#45;&gt;Node19</title>
<path fill="none" stroke="midnightblue" d="M3631.07,-143.57C3649.96,-140.02 3671.64,-136.36 3691.5,-134 3962.94,-101.71 4034.45,-133.44 4305.5,-98 4316.73,-96.53 4328.84,-94.3 4339.82,-92.03"/>
<polygon fill="midnightblue" stroke="midnightblue" points="3630.34,-140.15 3621.18,-145.46 3631.66,-147.02 3630.34,-140.15"/>
</g>
<!-- Node20 -->
<g id="node16" class="node">
<title>Node20</title>
<g id="a_node16"><a xlink:href="../../d0/df6/vabstractapplication_8cpp.html" target="_top" xlink:title=" ">
<polygon fill="white" stroke="black" points="4455.5,-73 4455.5,-92 4661.5,-92 4661.5,-73 4455.5,-73"/>
<text text-anchor="middle" x="4558.5" y="-80" font-family="Helvetica,sans-Serif" font-size="10.00">src/libs/vmisc/vabstractapplication.cpp</text>
</a>
</g>
</g>
<!-- Node2&#45;&gt;Node20 -->
<g id="edge16" class="edge">
<title>Node2&#45;&gt;Node20</title>
<path fill="none" stroke="midnightblue" d="M3630.58,-143.54C3649.58,-139.95 3671.46,-136.27 3691.5,-134 4025.3,-96.13 4111.87,-127.59 4446.5,-98 4463.78,-96.47 4482.5,-94.27 4499.6,-92.04"/>
<polygon fill="midnightblue" stroke="midnightblue" points="3629.8,-140.13 3620.65,-145.46 3631.13,-147 3629.8,-140.13"/>
</g>
<!-- Node21 -->
<g id="node17" class="node">
<title>Node21</title>
<g id="a_node17"><a xlink:href="../../d4/d4f/pmsystems_8cpp.html" target="_top" xlink:title=" ">
<polygon fill="white" stroke="black" points="4680,-67.5 4680,-97.5 4787,-97.5 4787,-67.5 4680,-67.5"/>
<text text-anchor="start" x="4688" y="-85.5" font-family="Helvetica,sans-Serif" font-size="10.00">src/libs/vpatterndb</text>
<text text-anchor="middle" x="4733.5" y="-74.5" font-family="Helvetica,sans-Serif" font-size="10.00">/pmsystems.cpp</text>
</a>
</g>
</g>
<!-- Node2&#45;&gt;Node21 -->
<g id="edge17" class="edge">
<title>Node2&#45;&gt;Node21</title>
<path fill="none" stroke="midnightblue" d="M3630.1,-143.51C3649.21,-139.88 3671.28,-136.18 3691.5,-134 4124.39,-87.28 4238.85,-155.09 4670.5,-98 4673.5,-97.6 4676.58,-97.13 4679.67,-96.6"/>
<polygon fill="midnightblue" stroke="midnightblue" points="3629.27,-140.11 3620.12,-145.46 3630.6,-146.98 3629.27,-140.11"/>
</g>
<!-- Node2&#45;&gt;Node22 -->
<g id="edge18" class="edge">
<title>Node2&#45;&gt;Node22</title>
<path fill="none" stroke="midnightblue" d="M3628.88,-143.52C3648.25,-139.78 3670.84,-136.01 3691.5,-134 4209.13,-83.72 5515.34,-161.58 6031.5,-98 6034.24,-97.66 6037.04,-97.25 6039.86,-96.79"/>
<polygon fill="midnightblue" stroke="midnightblue" points="3628.2,-140.08 3619.07,-145.46 3629.56,-146.95 3628.2,-140.08"/>
</g>
<!-- Node23 -->
<g id="node19" class="node">
<title>Node23</title>
<g id="a_node19"><a xlink:href="../../df/d7a/vpiece_8cpp.html" target="_top" xlink:title=" ">
<polygon fill="white" stroke="black" points="958,-67.5 958,-97.5 1065,-97.5 1065,-67.5 958,-67.5"/>
<text text-anchor="start" x="966" y="-85.5" font-family="Helvetica,sans-Serif" font-size="10.00">src/libs/vpatterndb</text>
<text text-anchor="middle" x="1011.5" y="-74.5" font-family="Helvetica,sans-Serif" font-size="10.00">/vpiece.cpp</text>
</a>
</g>
</g>
<!-- Node2&#45;&gt;Node23 -->
<g id="edge19" class="edge">
<title>Node2&#45;&gt;Node23</title>
<path fill="none" stroke="midnightblue" d="M3472.61,-152.91C3023.34,-148.19 1313.26,-128.38 1073.5,-98 1070.76,-97.65 1067.96,-97.23 1065.14,-96.76"/>
<polygon fill="midnightblue" stroke="midnightblue" points="3472.63,-156.41 3482.67,-153.02 3472.7,-149.41 3472.63,-156.41"/>
</g>
<!-- Node24 -->
<g id="node20" class="node">
<title>Node24</title>
<g id="a_node20"><a xlink:href="../../df/dba/vpiecenode__p_8h.html" target="_top" xlink:title=" ">
<polygon fill="white" stroke="black" points="1083,-67.5 1083,-97.5 1190,-97.5 1190,-67.5 1083,-67.5"/>
<text text-anchor="start" x="1091" y="-85.5" font-family="Helvetica,sans-Serif" font-size="10.00">src/libs/vpatterndb</text>
<text text-anchor="middle" x="1136.5" y="-74.5" font-family="Helvetica,sans-Serif" font-size="10.00">/vpiecenode_p.h</text>
</a>
</g>
</g>
<!-- Node2&#45;&gt;Node24 -->
<g id="edge20" class="edge">
<title>Node2&#45;&gt;Node24</title>
<path fill="none" stroke="midnightblue" d="M3472.67,-154.42C3069.02,-155.52 1647.42,-155.15 1198.5,-98 1195.76,-97.65 1192.96,-97.23 1190.15,-96.76"/>
<polygon fill="midnightblue" stroke="midnightblue" points="3472.89,-157.92 3482.88,-154.39 3472.87,-150.92 3472.89,-157.92"/>
</g>
<!-- Node2&#45;&gt;Node26 -->
<g id="edge22" class="edge">
<title>Node2&#45;&gt;Node26</title>
<path fill="none" stroke="midnightblue" d="M3472.7,-153.82C3003.58,-152.77 1137.25,-145.61 552.5,-98 537.38,-96.77 521.06,-94.71 506.07,-92.53"/>
<polygon fill="midnightblue" stroke="midnightblue" points="3472.85,-157.32 3482.86,-153.84 3472.86,-150.32 3472.85,-157.32"/>
</g>
<!-- Node2&#45;&gt;Node27 -->
<g id="edge23" class="edge">
<title>Node2&#45;&gt;Node27</title>
<path fill="none" stroke="midnightblue" d="M3656.45,-144.28C3690.37,-140.36 3730.88,-136.23 3767.5,-134 4297.47,-101.73 5629.3,-161 6156.5,-98 6159.44,-97.65 6162.45,-97.22 6165.47,-96.73"/>
<polygon fill="midnightblue" stroke="midnightblue" points="3655.67,-140.85 3646.15,-145.49 3656.49,-147.8 3655.67,-140.85"/>
</g>
<!-- Node28 -->
<g id="node24" class="node">
<title>Node28</title>
<g id="a_node24"><a xlink:href="../../df/d40/export__format__combobox_8cpp.html" target="_top" xlink:title=" ">
<polygon fill="white" stroke="black" points="4805,-67.5 4805,-97.5 4938,-97.5 4938,-67.5 4805,-67.5"/>
<text text-anchor="start" x="4813" y="-85.5" font-family="Helvetica,sans-Serif" font-size="10.00">src/libs/vwidgets/export</text>
<text text-anchor="middle" x="4871.5" y="-74.5" font-family="Helvetica,sans-Serif" font-size="10.00">_format_combobox.cpp</text>
</a>
</g>
</g>
<!-- Node2&#45;&gt;Node28 -->
<g id="edge24" class="edge">
<title>Node2&#45;&gt;Node28</title>
<path fill="none" stroke="midnightblue" d="M3629.86,-143.51C3649.02,-139.86 3671.2,-136.15 3691.5,-134 4179.7,-82.34 4307.57,-152.17 4795.5,-98 4798.57,-97.66 4801.7,-97.26 4804.86,-96.82"/>
<polygon fill="midnightblue" stroke="midnightblue" points="3629,-140.12 3619.86,-145.47 3630.34,-146.99 3629,-140.12"/>
</g>
<!-- Node29 -->
<g id="node25" class="node">
<title>Node29</title>
<g id="a_node25"><a xlink:href="../../d3/d4f/mouse__coordinates_8cpp.html" target="_top" xlink:title=" ">
<polygon fill="white" stroke="black" points="4956.5,-67.5 4956.5,-97.5 5090.5,-97.5 5090.5,-67.5 4956.5,-67.5"/>
<text text-anchor="start" x="4964.5" y="-85.5" font-family="Helvetica,sans-Serif" font-size="10.00">src/libs/vwidgets/mouse</text>
<text text-anchor="middle" x="5023.5" y="-74.5" font-family="Helvetica,sans-Serif" font-size="10.00">_coordinates.cpp</text>
</a>
</g>
</g>
<!-- Node2&#45;&gt;Node29 -->
<g id="edge25" class="edge">
<title>Node2&#45;&gt;Node29</title>
<path fill="none" stroke="midnightblue" d="M3629.63,-143.52C3648.84,-139.85 3671.11,-136.12 3691.5,-134 4246.52,-76.36 4391.71,-157.82 4946.5,-98 4949.75,-97.65 4953.06,-97.24 4956.4,-96.78"/>
<polygon fill="midnightblue" stroke="midnightblue" points="3628.74,-140.12 3619.59,-145.48 3630.08,-146.99 3628.74,-140.12"/>
</g>
<!-- Node30 -->
<g id="node26" class="node">
<title>Node30</title>
<g id="a_node26"><a xlink:href="../../d2/d28/page__format__combobox_8cpp.html" target="_top" xlink:title=" ">
<polygon fill="white" stroke="black" points="5147,-67.5 5147,-97.5 5278,-97.5 5278,-67.5 5147,-67.5"/>
<text text-anchor="start" x="5155" y="-85.5" font-family="Helvetica,sans-Serif" font-size="10.00">src/libs/vwidgets/page</text>
<text text-anchor="middle" x="5212.5" y="-74.5" font-family="Helvetica,sans-Serif" font-size="10.00">_format_combobox.cpp</text>
</a>
</g>
</g>
<!-- Node2&#45;&gt;Node30 -->
<g id="edge26" class="edge">
<title>Node2&#45;&gt;Node30</title>
<path fill="none" stroke="midnightblue" d="M3629.39,-143.52C3648.65,-139.83 3671.02,-136.09 3691.5,-134 4328.84,-69.01 4495.19,-163.32 5132.5,-98 5137.13,-97.53 5141.9,-96.93 5146.69,-96.26"/>
<polygon fill="midnightblue" stroke="midnightblue" points="3628.47,-140.14 3619.33,-145.5 3629.82,-147 3628.47,-140.14"/>
</g>
<!-- Node31 -->
<g id="node27" class="node">
<title>Node31</title>
<g id="a_node27"><a xlink:href="../../d7/d1b/pen__toolbar_8cpp.html" target="_top" xlink:title=" ">
<polygon fill="white" stroke="black" points="5296,-67.5 5296,-97.5 5415,-97.5 5415,-67.5 5296,-67.5"/>
<text text-anchor="start" x="5304" y="-85.5" font-family="Helvetica,sans-Serif" font-size="10.00">src/libs/vwidgets/pen</text>
<text text-anchor="middle" x="5355.5" y="-74.5" font-family="Helvetica,sans-Serif" font-size="10.00">_toolbar.cpp</text>
</a>
</g>
</g>
<!-- Node2&#45;&gt;Node31 -->
<g id="edge27" class="edge">
<title>Node2&#45;&gt;Node31</title>
<path fill="none" stroke="midnightblue" d="M3629.39,-143.5C3648.65,-139.8 3671.02,-136.06 3691.5,-134 4397.44,-62.88 4582.78,-180.35 5287.5,-98 5290.26,-97.68 5293.07,-97.3 5295.9,-96.87"/>
<polygon fill="midnightblue" stroke="midnightblue" points="3628.47,-140.11 3619.33,-145.47 3629.82,-146.98 3628.47,-140.11"/>
</g>
<!-- Node32 -->
<g id="node28" class="node">
<title>Node32</title>
<g id="a_node28"><a xlink:href="../../dd/df6/vabstractmainwindow_8cpp.html" target="_top" xlink:title=" ">
<polygon fill="white" stroke="black" points="5433,-73 5433,-92 5662,-92 5662,-73 5433,-73"/>
<text text-anchor="middle" x="5547.5" y="-80" font-family="Helvetica,sans-Serif" font-size="10.00">src/libs/vwidgets/vabstractmainwindow.cpp</text>
</a>
</g>
</g>
<!-- Node2&#45;&gt;Node32 -->
<g id="edge28" class="edge">
<title>Node2&#45;&gt;Node32</title>
<path fill="none" stroke="midnightblue" d="M3629.38,-143.48C3648.65,-139.78 3671.02,-136.04 3691.5,-134 4458.08,-57.46 4655.95,-151.16 5424.5,-98 5444.34,-96.63 5465.9,-94.35 5485.35,-92.01"/>
<polygon fill="midnightblue" stroke="midnightblue" points="3628.47,-140.09 3619.33,-145.46 3629.82,-146.96 3628.47,-140.09"/>
</g>
<!-- Node33 -->
<g id="node29" class="node">
<title>Node33</title>
<g id="a_node29"><a xlink:href="../../d8/d76/scene__rect_8cpp.html" target="_top" xlink:title=" ">
<polygon fill="white" stroke="black" points="5680.5,-67.5 5680.5,-97.5 5810.5,-97.5 5810.5,-67.5 5680.5,-67.5"/>
<text text-anchor="start" x="5688.5" y="-85.5" font-family="Helvetica,sans-Serif" font-size="10.00">src/libs/vwidgets/scene</text>
<text text-anchor="middle" x="5745.5" y="-74.5" font-family="Helvetica,sans-Serif" font-size="10.00">_rect.cpp</text>
</a>
</g>
</g>
<!-- Node2&#45;&gt;Node33 -->
<g id="edge29" class="edge">
<title>Node2&#45;&gt;Node33</title>
<path fill="none" stroke="midnightblue" d="M3629.15,-143.49C3648.46,-139.78 3670.93,-136.03 3691.5,-134 4567.4,-47.69 4796.28,-190.98 5671.5,-98 5674.36,-97.7 5677.28,-97.34 5680.22,-96.93"/>
<polygon fill="midnightblue" stroke="midnightblue" points="3628.2,-140.11 3619.07,-145.48 3629.56,-146.98 3628.2,-140.11"/>
</g>
<!-- Node34 -->
<g id="node30" class="node">
<title>Node34</title>
<g id="a_node30"><a xlink:href="../../d1/d90/vgrainlineitem_8cpp.html" target="_top" xlink:title=" ">
<polygon fill="white" stroke="black" points="5829,-73 5829,-92 6022,-92 6022,-73 5829,-73"/>
<text text-anchor="middle" x="5925.5" y="-80" font-family="Helvetica,sans-Serif" font-size="10.00">src/libs/vwidgets/vgrainlineitem.cpp</text>
</a>
</g>
</g>
<!-- Node2&#45;&gt;Node34 -->
<g id="edge30" class="edge">
<title>Node2&#45;&gt;Node34</title>
<path fill="none" stroke="midnightblue" d="M3628.88,-143.53C3648.25,-139.8 3670.84,-136.02 3691.5,-134 4632.91,-41.83 4876.35,-170.23 5819.5,-98 5836.82,-96.67 5855.62,-94.38 5872.52,-92.01"/>
<polygon fill="midnightblue" stroke="midnightblue" points="3628.2,-140.1 3619.07,-145.47 3629.56,-146.97 3628.2,-140.1"/>
</g>
<!-- Node35 -->
<g id="node31" class="node">
<title>Node35</title>
<g id="a_node31"><a xlink:href="../../de/d45/vcontrolpointspline_8cpp.html" target="_top" xlink:title=" ">
<polygon fill="white" stroke="black" points="1208,-73 1208,-92 1423,-92 1423,-73 1208,-73"/>
<text text-anchor="middle" x="1315.5" y="-80" font-family="Helvetica,sans-Serif" font-size="10.00">src/libs/vwidgets/vcontrolpointspline.cpp</text>
</a>
</g>
</g>
<!-- Node2&#45;&gt;Node35 -->
<g id="edge31" class="edge">
<title>Node2&#45;&gt;Node35</title>
<path fill="none" stroke="midnightblue" d="M3472.74,-152.58C3095.51,-147.39 1835.59,-128.16 1432.5,-98 1413.82,-96.6 1393.55,-94.35 1375.21,-92.04"/>
<polygon fill="midnightblue" stroke="midnightblue" points="3472.78,-156.08 3482.83,-152.72 3472.88,-149.08 3472.78,-156.08"/>
</g>
<!-- Node36 -->
<g id="node32" class="node">
<title>Node36</title>
<g id="a_node32"><a xlink:href="../../de/dec/vgraphicssimpletextitem_8cpp.html" target="_top" xlink:title=" ">
<polygon fill="white" stroke="black" points="1441.5,-73 1441.5,-92 1685.5,-92 1685.5,-73 1441.5,-73"/>
<text text-anchor="middle" x="1563.5" y="-80" font-family="Helvetica,sans-Serif" font-size="10.00">src/libs/vwidgets/vgraphicssimpletextitem.cpp</text>
</a>
</g>
</g>
<!-- Node2&#45;&gt;Node36 -->
<g id="edge32" class="edge">
<title>Node2&#45;&gt;Node36</title>
<path fill="none" stroke="midnightblue" d="M3472.91,-153.84C3184.47,-152.74 2370.06,-145.34 1694.5,-98 1673.84,-96.55 1651.42,-94.32 1631.06,-92.03"/>
<polygon fill="midnightblue" stroke="midnightblue" points="3472.93,-157.34 3482.94,-153.87 3472.96,-150.34 3472.93,-157.34"/>
</g>
<!-- Node37 -->
<g id="node33" class="node">
<title>Node37</title>
<g id="a_node33"><a xlink:href="../../d1/d88/vmaingraphicsscene_8cpp.html" target="_top" xlink:title=" ">
<polygon fill="white" stroke="black" points="1703.5,-73 1703.5,-92 1925.5,-92 1925.5,-73 1703.5,-73"/>
<text text-anchor="middle" x="1814.5" y="-80" font-family="Helvetica,sans-Serif" font-size="10.00">src/libs/vwidgets/vmaingraphicsscene.cpp</text>
</a>
</g>
</g>
<!-- Node2&#45;&gt;Node37 -->
<g id="edge33" class="edge">
<title>Node2&#45;&gt;Node37</title>
<path fill="none" stroke="midnightblue" d="M3472.62,-153.54C3209.38,-151.73 2513.32,-142.73 1934.5,-98 1915.57,-96.54 1895.02,-94.3 1876.37,-92.01"/>
<polygon fill="midnightblue" stroke="midnightblue" points="3472.91,-157.05 3482.94,-153.61 3472.96,-150.05 3472.91,-157.05"/>
</g>
<!-- Node38 -->
<g id="node34" class="node">
<title>Node38</title>
<g id="a_node34"><a xlink:href="../../d2/d31/vmaingraphicsview_8cpp.html" target="_top" xlink:title=" ">
<polygon fill="white" stroke="black" points="1943.5,-73 1943.5,-92 2159.5,-92 2159.5,-73 1943.5,-73"/>
<text text-anchor="middle" x="2051.5" y="-80" font-family="Helvetica,sans-Serif" font-size="10.00">src/libs/vwidgets/vmaingraphicsview.cpp</text>
</a>
</g>
</g>
<!-- Node2&#45;&gt;Node38 -->
<g id="edge34" class="edge">
<title>Node2&#45;&gt;Node38</title>
<path fill="none" stroke="midnightblue" d="M3472.43,-152.79C3235.76,-149.48 2653.99,-137.64 2168.5,-98 2150.24,-96.51 2130.45,-94.29 2112.43,-92.03"/>
<polygon fill="midnightblue" stroke="midnightblue" points="3472.71,-156.3 3482.75,-152.94 3472.8,-149.3 3472.71,-156.3"/>
</g>
<!-- Node39 -->
<g id="node35" class="node">
<title>Node39</title>
<g id="a_node35"><a xlink:href="../../d0/d5d/vscenepoint_8cpp.html" target="_top" xlink:title=" ">
<polygon fill="white" stroke="black" points="2178,-73 2178,-92 2359,-92 2359,-73 2178,-73"/>
<text text-anchor="middle" x="2268.5" y="-80" font-family="Helvetica,sans-Serif" font-size="10.00">src/libs/vwidgets/vscenepoint.cpp</text>
</a>
</g>
</g>
<!-- Node2&#45;&gt;Node39 -->
<g id="edge35" class="edge">
<title>Node2&#45;&gt;Node39</title>
<path fill="none" stroke="midnightblue" d="M3472.68,-152.55C3260.7,-148.93 2774.93,-136.76 2368.5,-98 2352.87,-96.51 2335.95,-94.29 2320.54,-92.03"/>
<polygon fill="midnightblue" stroke="midnightblue" points="3472.81,-156.06 3482.87,-152.73 3472.93,-149.06 3472.81,-156.06"/>
</g>
<!-- Node40 -->
<g id="node36" class="node">
<title>Node40</title>
<g id="a_node36"><a xlink:href="../../de/d22/vsimplecurve_8cpp.html" target="_top" xlink:title=" ">
<polygon fill="white" stroke="black" points="2377.5,-73 2377.5,-92 2565.5,-92 2565.5,-73 2377.5,-73"/>
<text text-anchor="middle" x="2471.5" y="-80" font-family="Helvetica,sans-Serif" font-size="10.00">src/libs/vwidgets/vsimplecurve.cpp</text>
</a>
</g>
</g>
<!-- Node2&#45;&gt;Node40 -->
<g id="edge36" class="edge">
<title>Node2&#45;&gt;Node40</title>
<path fill="none" stroke="midnightblue" d="M3472.58,-150.98C3288.15,-145.14 2900.63,-129.98 2574.5,-98 2558.68,-96.45 2541.57,-94.25 2525.92,-92.03"/>
<polygon fill="midnightblue" stroke="midnightblue" points="3472.72,-154.48 3482.82,-151.3 3472.94,-147.49 3472.72,-154.48"/>
</g>
<!-- Node41 -->
<g id="node37" class="node">
<title>Node41</title>
<g id="a_node37"><a xlink:href="../../df/d38/vsimplepoint_8cpp.html" target="_top" xlink:title=" ">
<polygon fill="white" stroke="black" points="2584,-73 2584,-92 2769,-92 2769,-73 2584,-73"/>
<text text-anchor="middle" x="2676.5" y="-80" font-family="Helvetica,sans-Serif" font-size="10.00">src/libs/vwidgets/vsimplepoint.cpp</text>
</a>
</g>
</g>
<!-- Node2&#45;&gt;Node41 -->
<g id="edge37" class="edge">
<title>Node2&#45;&gt;Node41</title>
<path fill="none" stroke="midnightblue" d="M3472.54,-148.98C3318.16,-141.23 3025.58,-124.42 2777.5,-98 2762.26,-96.38 2745.79,-94.2 2730.66,-92.02"/>
<polygon fill="midnightblue" stroke="midnightblue" points="3472.8,-152.49 3482.96,-149.5 3473.14,-145.5 3472.8,-152.49"/>
</g>
<!-- Node42 -->
<g id="node38" class="node">
<title>Node42</title>
<g id="a_node38"><a xlink:href="../../df/df5/vtextgraphicsitem_8cpp.html" target="_top" xlink:title=" ">
<polygon fill="white" stroke="black" points="2787,-73 2787,-92 2998,-92 2998,-73 2787,-73"/>
<text text-anchor="middle" x="2892.5" y="-80" font-family="Helvetica,sans-Serif" font-size="10.00">src/libs/vwidgets/vtextgraphicsitem.cpp</text>
</a>
</g>
</g>
<!-- Node2&#45;&gt;Node42 -->
<g id="edge38" class="edge">
<title>Node2&#45;&gt;Node42</title>
<path fill="none" stroke="midnightblue" d="M3474.2,-144.57C3358.91,-134.12 3169.49,-116.31 3006.5,-98 2990.44,-96.2 2973.13,-94.08 2956.97,-92.03"/>
<polygon fill="midnightblue" stroke="midnightblue" points="3474.16,-148.08 3484.43,-145.49 3474.79,-141.11 3474.16,-148.08"/>
</g>
<!-- Node11&#45;&gt;Node12 -->
<g id="edge8" class="edge">
<title>Node11&#45;&gt;Node12</title>
<path fill="none" stroke="midnightblue" d="M3957.05,-67.07C4144.35,-37.61 4354.94,-24.14 4451.82,-19.04"/>
<polygon fill="midnightblue" stroke="midnightblue" points="3956.35,-63.64 3947.02,-68.67 3957.45,-70.55 3956.35,-63.64"/>
</g>
<!-- Node25 -->
<g id="node21" class="node">
<title>Node25</title>
<g id="a_node21"><a xlink:href="../../d8/dba/vpiecenode_8cpp.html" target="_top" xlink:title=" ">
<polygon fill="white" stroke="black" points="782,-0.5 782,-30.5 889,-30.5 889,-0.5 782,-0.5"/>
<text text-anchor="start" x="790" y="-18.5" font-family="Helvetica,sans-Serif" font-size="10.00">src/libs/vpatterndb</text>
<text text-anchor="middle" x="835.5" y="-7.5" font-family="Helvetica,sans-Serif" font-size="10.00">/vpiecenode.cpp</text>
</a>
</g>
</g>
<!-- Node24&#45;&gt;Node25 -->
<g id="edge21" class="edge">
<title>Node24&#45;&gt;Node25</title>
<path fill="none" stroke="midnightblue" d="M1073.13,-66.94C1003.92,-51.68 935.54,-37.28 889.44,-27.67"/>
<polygon fill="midnightblue" stroke="midnightblue" points="1072.38,-70.36 1082.9,-69.1 1073.89,-63.52 1072.38,-70.36"/>
</g>
<!-- Node43&#45;&gt;Node2 -->
<g id="edge46" class="edge">
<title>Node43&#45;&gt;Node2</title>
<path fill="none" stroke="midnightblue" d="M912.38,-224.85C1272.24,-215.57 3045.73,-169.8 3482.95,-158.52"/>
<polygon fill="midnightblue" stroke="midnightblue" points="912.06,-221.36 902.15,-225.12 912.24,-228.36 912.06,-221.36"/>
</g>
<!-- Node43&#45;&gt;Node16 -->
<g id="edge45" class="edge">
<title>Node43&#45;&gt;Node16</title>
<path fill="none" stroke="midnightblue" d="M848.5,-202.24C848.5,-169.78 848.5,-113.81 848.5,-92.28"/>
<polygon fill="midnightblue" stroke="midnightblue" points="845,-202.27 848.5,-212.27 852,-202.27 845,-202.27"/>
</g>
<!-- Node43&#45;&gt;Node22 -->
<g id="edge49" class="edge">
<title>Node43&#45;&gt;Node22</title>
<path fill="none" stroke="midnightblue" d="M912.21,-226.7C1320.24,-227.79 3554.32,-231.22 3686.5,-176 3711.15,-165.7 3704.84,-144.27 3729.5,-134 3847.57,-84.82 5904.56,-113.65 6031.5,-98 6034.24,-97.66 6037.04,-97.25 6039.86,-96.79"/>
<polygon fill="midnightblue" stroke="midnightblue" points="912.08,-223.2 902.07,-226.67 912.06,-230.2 912.08,-223.2"/>
</g>
<!-- Node43&#45;&gt;Node23 -->
<g id="edge52" class="edge">
<title>Node43&#45;&gt;Node23</title>
<path fill="none" stroke="midnightblue" d="M858.33,-202.98C867.87,-182.54 884.03,-153.28 905.5,-134 923.47,-117.86 947.52,-105.84 968.17,-97.59"/>
<polygon fill="midnightblue" stroke="midnightblue" points="855.09,-201.66 854.19,-212.22 861.48,-204.52 855.09,-201.66"/>
</g>
<!-- Node43&#45;&gt;Node25 -->
<g id="edge51" class="edge">
<title>Node43&#45;&gt;Node25</title>
<path fill="none" stroke="midnightblue" d="M784.57,-219.78C742.8,-213.25 688.29,-200.53 645.5,-176 622.87,-163.02 624.43,-150.84 604.5,-134 583.03,-115.86 565.55,-122.9 552.5,-98 546.11,-85.8 543.65,-77.56 552.5,-67 581.18,-32.75 708.11,-21.71 781.88,-18.16"/>
<polygon fill="midnightblue" stroke="midnightblue" points="784.22,-223.27 794.62,-221.27 785.24,-216.34 784.22,-223.27"/>
</g>
<!-- Node43&#45;&gt;Node26 -->
<g id="edge54" class="edge">
<title>Node43&#45;&gt;Node26</title>
<path fill="none" stroke="midnightblue" d="M784.34,-222.29C734.95,-216.86 666.27,-204.44 612.5,-176 588.6,-163.36 591.02,-148.96 568.5,-134 545.54,-118.75 517.21,-106.31 494.3,-97.6"/>
<polygon fill="midnightblue" stroke="midnightblue" points="784.27,-225.8 794.57,-223.35 784.98,-218.84 784.27,-225.8"/>
</g>
<!-- Node44 -->
<g id="node40" class="node">
<title>Node44</title>
<g id="a_node40"><a xlink:href="../../dc/db7/measurements_8h.html" target="_top" xlink:title=" ">
<polygon fill="white" stroke="black" points="0,-145.5 0,-164.5 179,-164.5 179,-145.5 0,-145.5"/>
<text text-anchor="middle" x="89.5" y="-152.5" font-family="Helvetica,sans-Serif" font-size="10.00">src/libs/vformat/measurements.h</text>
</a>
</g>
</g>
<!-- Node43&#45;&gt;Node44 -->
<g id="edge40" class="edge">
<title>Node43&#45;&gt;Node44</title>
<path fill="none" stroke="midnightblue" d="M784.63,-222.5C672.49,-215.21 432.97,-198.41 231.5,-176 202.8,-172.81 170.95,-168.4 144.7,-164.54"/>
<polygon fill="midnightblue" stroke="midnightblue" points="784.55,-226.01 794.75,-223.16 785,-219.02 784.55,-226.01"/>
</g>
<!-- Node45 -->
<g id="node41" class="node">
<title>Node45</title>
<g id="a_node41"><a xlink:href="../../d9/de3/measurements_8cpp.html" target="_top" xlink:title=" ">
<polygon fill="white" stroke="black" points="72.5,-73 72.5,-92 262.5,-92 262.5,-73 72.5,-73"/>
<text text-anchor="middle" x="167.5" y="-80" font-family="Helvetica,sans-Serif" font-size="10.00">src/libs/vformat/measurements.cpp</text>
</a>
</g>
</g>
<!-- Node43&#45;&gt;Node45 -->
<g id="edge42" class="edge">
<title>Node43&#45;&gt;Node45</title>
<path fill="none" stroke="midnightblue" d="M784.62,-226.26C652.93,-224.92 355.94,-217.27 264.5,-176 222.08,-156.85 186.74,-111.17 173.3,-92.09"/>
<polygon fill="midnightblue" stroke="midnightblue" points="784.92,-229.77 794.95,-226.36 784.98,-222.77 784.92,-229.77"/>
</g>
<!-- Node46 -->
<g id="node42" class="node">
<title>Node46</title>
<g id="a_node42"><a xlink:href="../../d6/de0/vlayoutpiece_8h.html" target="_top" xlink:title=" ">
<polygon fill="white" stroke="red" points="654.5,-145.5 654.5,-164.5 820.5,-164.5 820.5,-145.5 654.5,-145.5"/>
<text text-anchor="middle" x="737.5" y="-152.5" font-family="Helvetica,sans-Serif" font-size="10.00">src/libs/vlayout/vlayoutpiece.h</text>
</a>
</g>
</g>
<!-- Node43&#45;&gt;Node46 -->
<g id="edge43" class="edge">
<title>Node43&#45;&gt;Node46</title>
<path fill="none" stroke="midnightblue" d="M817.66,-206.91C795.74,-192.99 767.38,-174.98 750.94,-164.53"/>
<polygon fill="midnightblue" stroke="midnightblue" points="815.99,-210 826.3,-212.4 819.74,-204.09 815.99,-210"/>
</g>
<!-- Node55 -->
<g id="node43" class="node">
<title>Node55</title>
<g id="a_node43"><a xlink:href="../../d7/d8a/measurement__variable__p_8h.html" target="_top" xlink:title=" ">
<polygon fill="white" stroke="red" points="914.5,-134.5 914.5,-175.5 1050.5,-175.5 1050.5,-134.5 914.5,-134.5"/>
<text text-anchor="start" x="922.5" y="-163.5" font-family="Helvetica,sans-Serif" font-size="10.00">src/libs/vpatterndb</text>
<text text-anchor="start" x="922.5" y="-152.5" font-family="Helvetica,sans-Serif" font-size="10.00">/variables/measurement</text>
<text text-anchor="middle" x="982.5" y="-141.5" font-family="Helvetica,sans-Serif" font-size="10.00">_variable_p.h</text>
</a>
</g>
</g>
<!-- Node43&#45;&gt;Node55 -->
<g id="edge47" class="edge">
<title>Node43&#45;&gt;Node55</title>
<path fill="none" stroke="midnightblue" d="M884.19,-207.72C903.07,-197.79 926.25,-185.6 945.35,-175.55"/>
<polygon fill="midnightblue" stroke="midnightblue" points="882.52,-204.65 875.29,-212.4 885.77,-210.84 882.52,-204.65"/>
</g>
<!-- Node57 -->
<g id="node44" class="node">
<title>Node57</title>
<g id="a_node44"><a xlink:href="../../d1/de1/vincrement__p_8h.html" target="_top" xlink:title=" ">
<polygon fill="white" stroke="red" points="1069,-140 1069,-170 1212,-170 1212,-140 1069,-140"/>
<text text-anchor="start" x="1077" y="-158" font-family="Helvetica,sans-Serif" font-size="10.00">src/libs/vpatterndb</text>
<text text-anchor="middle" x="1140.5" y="-147" font-family="Helvetica,sans-Serif" font-size="10.00">/variables/vincrement_p.h</text>
</a>
</g>
</g>
<!-- Node43&#45;&gt;Node57 -->
<g id="edge48" class="edge">
<title>Node43&#45;&gt;Node57</title>
<path fill="none" stroke="midnightblue" d="M912.09,-211.41C953.98,-201.43 1010.03,-188.03 1059.5,-176 1067.38,-174.08 1075.69,-172.05 1083.86,-170.04"/>
<polygon fill="midnightblue" stroke="midnightblue" points="911.21,-208.02 902.29,-213.74 912.83,-214.83 911.21,-208.02"/>
</g>
<!-- Node59 -->
<g id="node45" class="node">
<title>Node59</title>
<g id="a_node45"><a xlink:href="../../d6/d91/vnodedetail_8cpp.html" target="_top" xlink:title=" ">
<polygon fill="white" stroke="black" points="1230,-140 1230,-170 1337,-170 1337,-140 1230,-140"/>
<text text-anchor="start" x="1238" y="-158" font-family="Helvetica,sans-Serif" font-size="10.00">src/libs/vpatterndb</text>
<text text-anchor="middle" x="1283.5" y="-147" font-family="Helvetica,sans-Serif" font-size="10.00">/vnodedetail.cpp</text>
</a>
</g>
</g>
<!-- Node43&#45;&gt;Node59 -->
<g id="edge50" class="edge">
<title>Node43&#45;&gt;Node59</title>
<path fill="none" stroke="midnightblue" d="M912.47,-221.2C987.07,-214.24 1113.76,-200 1220.5,-176 1227.78,-174.36 1235.42,-172.27 1242.77,-170.05"/>
<polygon fill="midnightblue" stroke="midnightblue" points="911.94,-217.73 902.3,-222.13 912.58,-224.7 911.94,-217.73"/>
</g>
<!-- Node60 -->
<g id="node46" class="node">
<title>Node60</title>
<g id="a_node46"><a xlink:href="../../da/de1/vpiecepath_8cpp.html" target="_top" xlink:title=" ">
<polygon fill="white" stroke="black" points="274,-140 274,-170 381,-170 381,-140 274,-140"/>
<text text-anchor="start" x="282" y="-158" font-family="Helvetica,sans-Serif" font-size="10.00">src/libs/vpatterndb</text>
<text text-anchor="middle" x="327.5" y="-147" font-family="Helvetica,sans-Serif" font-size="10.00">/vpiecepath.cpp</text>
</a>
</g>
</g>
<!-- Node43&#45;&gt;Node60 -->
<g id="edge53" class="edge">
<title>Node43&#45;&gt;Node60</title>
<path fill="none" stroke="midnightblue" d="M784.7,-223.56C695.45,-218.54 528.63,-205.77 389.5,-176 382.09,-174.41 374.31,-172.29 366.87,-170.01"/>
<polygon fill="midnightblue" stroke="midnightblue" points="784.76,-227.07 794.93,-224.13 785.14,-220.08 784.76,-227.07"/>
</g>
<!-- Node61 -->
<g id="node47" class="node">
<title>Node61</title>
<g id="a_node47"><a xlink:href="../../d1/d3a/abstracttest_8cpp.html" target="_top" xlink:title=" ">
<polygon fill="white" stroke="black" points="399,-145.5 399,-164.5 560,-164.5 560,-145.5 399,-145.5"/>
<text text-anchor="middle" x="479.5" y="-152.5" font-family="Helvetica,sans-Serif" font-size="10.00">src/libs/vtest/abstracttest.cpp</text>
</a>
</g>
</g>
<!-- Node43&#45;&gt;Node61 -->
<g id="edge55" class="edge">
<title>Node43&#45;&gt;Node61</title>
<path fill="none" stroke="midnightblue" d="M784.82,-215.23C729.23,-205.28 646.43,-190.2 574.5,-176 556.31,-172.41 536.21,-168.21 519.21,-164.59"/>
<polygon fill="midnightblue" stroke="midnightblue" points="784.41,-218.72 794.87,-217.03 785.64,-211.82 784.41,-218.72"/>
</g>
<!-- Node44&#45;&gt;Node45 -->
<g id="edge41" class="edge">
<title>Node44&#45;&gt;Node45</title>
<path fill="none" stroke="midnightblue" d="M106.55,-138.58C122.28,-124.37 145.07,-103.77 157.86,-92.22"/>
<polygon fill="midnightblue" stroke="midnightblue" points="104.14,-136.05 99.06,-145.36 108.83,-141.25 104.14,-136.05"/>
</g>
<!-- Node46&#45;&gt;Node18 -->
<g id="edge44" class="edge">
<title>Node46&#45;&gt;Node18</title>
<path fill="none" stroke="midnightblue" d="M718.96,-138.97C701.4,-124.75 675.65,-103.88 661.26,-92.22"/>
<polygon fill="midnightblue" stroke="midnightblue" points="716.86,-141.78 726.83,-145.36 721.27,-136.34 716.86,-141.78"/>
</g>
</g>
</svg>
