<?xml version="1.0" encoding="UTF-8" standalone="no"?>
<!DOCTYPE svg PUBLIC "-//W3C//DTD SVG 1.1//EN"
 "http://www.w3.org/Graphics/SVG/1.1/DTD/svg11.dtd">
<!-- Generated by graphviz version 2.43.0 (0)
 -->
<!-- Title: src/libs/vpatterndb/variables.h Pages: 1 -->
<svg width="6239pt" height="307pt"
 viewBox="0.00 0.00 6238.50 307.00" xmlns="http://www.w3.org/2000/svg" xmlns:xlink="http://www.w3.org/1999/xlink">
<g id="graph0" class="graph" transform="scale(1 1) rotate(0) translate(4 303)">
<title>src/libs/vpatterndb/variables.h</title>
<polygon fill="white" stroke="transparent" points="-4,4 -4,-303 6234.5,-303 6234.5,4 -4,4"/>
<!-- Node1 -->
<g id="node1" class="node">
<title>Node1</title>
<g id="a_node1"><a xlink:title=" ">
<polygon fill="#bfbfbf" stroke="black" points="3756.5,-268.5 3756.5,-298.5 3863.5,-298.5 3863.5,-268.5 3756.5,-268.5"/>
<text text-anchor="start" x="3764.5" y="-286.5" font-family="Helvetica,sans-Serif" font-size="10.00">src/libs/vpatterndb</text>
<text text-anchor="middle" x="3810" y="-275.5" font-family="Helvetica,sans-Serif" font-size="10.00">/variables.h</text>
</a>
</g>
</g>
<!-- Node2 -->
<g id="node2" class="node">
<title>Node2</title>
<g id="a_node2"><a xlink:href="../../d3/df7/vcontainer_8h.html" target="_top" xlink:title=" ">
<polygon fill="white" stroke="black" points="3756.5,-201.5 3756.5,-231.5 3863.5,-231.5 3863.5,-201.5 3756.5,-201.5"/>
<text text-anchor="start" x="3764.5" y="-219.5" font-family="Helvetica,sans-Serif" font-size="10.00">src/libs/vpatterndb</text>
<text text-anchor="middle" x="3810" y="-208.5" font-family="Helvetica,sans-Serif" font-size="10.00">/vcontainer.h</text>
</a>
</g>
</g>
<!-- Node1&#45;&gt;Node2 -->
<g id="edge1" class="edge">
<title>Node1&#45;&gt;Node2</title>
<path fill="none" stroke="midnightblue" d="M3810,-258.11C3810,-249.15 3810,-239.32 3810,-231.58"/>
<polygon fill="midnightblue" stroke="midnightblue" points="3806.5,-258.4 3810,-268.4 3813.5,-258.4 3806.5,-258.4"/>
</g>
<!-- Node3 -->
<g id="node3" class="node">
<title>Node3</title>
<g id="a_node3"><a xlink:href="../../d4/dd6/vmeasurements_8h.html" target="_top" xlink:title=" ">
<polygon fill="white" stroke="black" points="527.5,-140 527.5,-159 712.5,-159 712.5,-140 527.5,-140"/>
<text text-anchor="middle" x="620" y="-147" font-family="Helvetica,sans-Serif" font-size="10.00">src/libs/vformat/vmeasurements.h</text>
</a>
</g>
</g>
<!-- Node2&#45;&gt;Node3 -->
<g id="edge2" class="edge">
<title>Node2&#45;&gt;Node3</title>
<path fill="none" stroke="midnightblue" d="M3745.77,-215.46C3430.42,-215.02 2014.61,-210.47 856,-165 808.73,-163.14 756.19,-160.02 712.7,-157.15"/>
<polygon fill="midnightblue" stroke="midnightblue" points="3746.08,-218.96 3756.09,-215.47 3746.09,-211.96 3746.08,-218.96"/>
</g>
<!-- Node4 -->
<g id="node4" class="node">
<title>Node4</title>
<g id="a_node4"><a xlink:href="../../de/db3/vmeasurements_8cpp.html" target="_top" xlink:title=" ">
<polygon fill="white" stroke="black" points="0,-73 0,-92 196,-92 196,-73 0,-73"/>
<text text-anchor="middle" x="98" y="-80" font-family="Helvetica,sans-Serif" font-size="10.00">src/libs/vformat/vmeasurements.cpp</text>
</a>
</g>
</g>
<!-- Node2&#45;&gt;Node4 -->
<g id="edge4" class="edge">
<title>Node2&#45;&gt;Node4</title>
<path fill="none" stroke="midnightblue" d="M3746.44,-215.2C3317.26,-213.08 850.03,-199.49 518,-165 372.27,-149.86 201.77,-109.67 131.18,-92.02"/>
<polygon fill="midnightblue" stroke="midnightblue" points="3746.47,-218.7 3756.49,-215.25 3746.51,-211.7 3746.47,-218.7"/>
</g>
<!-- Node5 -->
<g id="node5" class="node">
<title>Node5</title>
<g id="a_node5"><a xlink:href="../../d8/d70/vtextmanager_8cpp.html" target="_top" xlink:title=" ">
<polygon fill="white" stroke="black" points="1573,-73 1573,-92 1755,-92 1755,-73 1573,-73"/>
<text text-anchor="middle" x="1664" y="-80" font-family="Helvetica,sans-Serif" font-size="10.00">src/libs/vlayout/vtextmanager.cpp</text>
</a>
</g>
</g>
<!-- Node2&#45;&gt;Node5 -->
<g id="edge5" class="edge">
<title>Node2&#45;&gt;Node5</title>
<path fill="none" stroke="midnightblue" d="M3746.03,-213.85C3493.63,-206.89 2542.61,-176.66 1764,-98 1748.64,-96.45 1732.02,-94.25 1716.83,-92.03"/>
<polygon fill="midnightblue" stroke="midnightblue" points="3746.03,-217.35 3756.12,-214.12 3746.22,-210.35 3746.03,-217.35"/>
</g>
<!-- Node6 -->
<g id="node6" class="node">
<title>Node6</title>
<g id="a_node6"><a xlink:href="../../d6/de0/vlayoutpiece_8h.html" target="_top" xlink:title=" ">
<polygon fill="white" stroke="black" points="865,-140 865,-159 1031,-159 1031,-140 865,-140"/>
<text text-anchor="middle" x="948" y="-147" font-family="Helvetica,sans-Serif" font-size="10.00">src/libs/vlayout/vlayoutpiece.h</text>
</a>
</g>
</g>
<!-- Node2&#45;&gt;Node6 -->
<g id="edge6" class="edge">
<title>Node2&#45;&gt;Node6</title>
<path fill="none" stroke="midnightblue" d="M3746.4,-214.6C3463.98,-210.51 2295.18,-192.71 1336,-165 1230.89,-161.96 1109.8,-157.24 1031.24,-154.02"/>
<polygon fill="midnightblue" stroke="midnightblue" points="3746.41,-218.1 3756.46,-214.74 3746.51,-211.1 3746.41,-218.1"/>
</g>
<!-- Node16 -->
<g id="node15" class="node">
<title>Node16</title>
<g id="a_node15"><a xlink:href="../../d5/d74/vabstractapplication_8h.html" target="_top" xlink:title=" ">
<polygon fill="white" stroke="red" points="3549.5,-140 3549.5,-159 3744.5,-159 3744.5,-140 3549.5,-140"/>
<text text-anchor="middle" x="3647" y="-147" font-family="Helvetica,sans-Serif" font-size="10.00">src/libs/vmisc/vabstractapplication.h</text>
</a>
</g>
</g>
<!-- Node2&#45;&gt;Node16 -->
<g id="edge17" class="edge">
<title>Node2&#45;&gt;Node16</title>
<path fill="none" stroke="midnightblue" d="M3765.17,-197.62C3733.62,-185.04 3692.81,-168.77 3668.33,-159.01"/>
<polygon fill="midnightblue" stroke="midnightblue" points="3764.05,-200.94 3774.63,-201.4 3766.64,-194.44 3764.05,-200.94"/>
</g>
<!-- Node34 -->
<g id="node29" class="node">
<title>Node34</title>
<g id="a_node29"><a xlink:href="../../db/d11/vformula_8cpp.html" target="_top" xlink:title=" ">
<polygon fill="white" stroke="black" points="5873.5,-67.5 5873.5,-97.5 5980.5,-97.5 5980.5,-67.5 5873.5,-67.5"/>
<text text-anchor="start" x="5881.5" y="-85.5" font-family="Helvetica,sans-Serif" font-size="10.00">src/libs/vpatterndb</text>
<text text-anchor="middle" x="5927" y="-74.5" font-family="Helvetica,sans-Serif" font-size="10.00">/vformula.cpp</text>
</a>
</g>
</g>
<!-- Node2&#45;&gt;Node34 -->
<g id="edge52" class="edge">
<title>Node2&#45;&gt;Node34</title>
<path fill="none" stroke="midnightblue" d="M3796.59,-192.13C3788.07,-173.86 3781.16,-149.1 3796,-134 3836.29,-93 5807.96,-105.08 5865,-98 5867.74,-97.66 5870.54,-97.25 5873.36,-96.78"/>
<polygon fill="midnightblue" stroke="midnightblue" points="3793.57,-193.92 3801.22,-201.26 3799.82,-190.75 3793.57,-193.92"/>
</g>
<!-- Node35 -->
<g id="node30" class="node">
<title>Node35</title>
<g id="a_node30"><a xlink:href="../../d6/d46/vcontainer_8cpp.html" target="_top" xlink:title=" ">
<polygon fill="white" stroke="black" points="5998.5,-67.5 5998.5,-97.5 6105.5,-97.5 6105.5,-67.5 5998.5,-67.5"/>
<text text-anchor="start" x="6006.5" y="-85.5" font-family="Helvetica,sans-Serif" font-size="10.00">src/libs/vpatterndb</text>
<text text-anchor="middle" x="6052" y="-74.5" font-family="Helvetica,sans-Serif" font-size="10.00">/vcontainer.cpp</text>
</a>
</g>
</g>
<!-- Node2&#45;&gt;Node35 -->
<g id="edge53" class="edge">
<title>Node2&#45;&gt;Node35</title>
<path fill="none" stroke="midnightblue" d="M3809.94,-191.21C3811.33,-172.33 3816.65,-147.2 3834,-134 3881.66,-97.72 5930.56,-105.36 5990,-98 5992.74,-97.66 5995.54,-97.25 5998.36,-96.78"/>
<polygon fill="midnightblue" stroke="midnightblue" points="3806.44,-191.06 3809.51,-201.2 3813.44,-191.36 3806.44,-191.06"/>
</g>
<!-- Node36 -->
<g id="node31" class="node">
<title>Node36</title>
<g id="a_node31"><a xlink:href="../../df/d7a/vpiece_8cpp.html" target="_top" xlink:title=" ">
<polygon fill="white" stroke="black" points="6123.5,-67.5 6123.5,-97.5 6230.5,-97.5 6230.5,-67.5 6123.5,-67.5"/>
<text text-anchor="start" x="6131.5" y="-85.5" font-family="Helvetica,sans-Serif" font-size="10.00">src/libs/vpatterndb</text>
<text text-anchor="middle" x="6177" y="-74.5" font-family="Helvetica,sans-Serif" font-size="10.00">/vpiece.cpp</text>
</a>
</g>
</g>
<!-- Node2&#45;&gt;Node36 -->
<g id="edge55" class="edge">
<title>Node2&#45;&gt;Node36</title>
<path fill="none" stroke="midnightblue" d="M3819.32,-192.26C3828.51,-172.81 3844.59,-146.31 3868,-134 3978.5,-75.89 5991.09,-113.3 6115,-98 6117.74,-97.66 6120.54,-97.25 6123.36,-96.78"/>
<polygon fill="midnightblue" stroke="midnightblue" points="3816.12,-190.86 3815.25,-201.42 3822.51,-193.7 3816.12,-190.86"/>
</g>
<!-- Node38 -->
<g id="node33" class="node">
<title>Node38</title>
<g id="a_node33"><a xlink:href="../../d8/dba/vpiecenode_8cpp.html" target="_top" xlink:title=" ">
<polygon fill="white" stroke="black" points="1534.5,-0.5 1534.5,-30.5 1641.5,-30.5 1641.5,-0.5 1534.5,-0.5"/>
<text text-anchor="start" x="1542.5" y="-18.5" font-family="Helvetica,sans-Serif" font-size="10.00">src/libs/vpatterndb</text>
<text text-anchor="middle" x="1588" y="-7.5" font-family="Helvetica,sans-Serif" font-size="10.00">/vpiecenode.cpp</text>
</a>
</g>
</g>
<!-- Node2&#45;&gt;Node38 -->
<g id="edge56" class="edge">
<title>Node2&#45;&gt;Node38</title>
<path fill="none" stroke="midnightblue" d="M3746.27,-214.93C3369.89,-211.23 1451.08,-187.98 1368,-98 1316.95,-42.71 1454.17,-24.78 1534.5,-19.08"/>
<polygon fill="midnightblue" stroke="midnightblue" points="3746.4,-218.43 3756.44,-215.02 3746.47,-211.43 3746.4,-218.43"/>
</g>
<!-- Node54 -->
<g id="node45" class="node">
<title>Node54</title>
<g id="a_node45"><a xlink:href="../../d1/de1/vincrement__p_8h.html" target="_top" xlink:title=" ">
<polygon fill="white" stroke="red" points="3876.5,-134.5 3876.5,-164.5 4019.5,-164.5 4019.5,-134.5 3876.5,-134.5"/>
<text text-anchor="start" x="3884.5" y="-152.5" font-family="Helvetica,sans-Serif" font-size="10.00">src/libs/vpatterndb</text>
<text text-anchor="middle" x="3948" y="-141.5" font-family="Helvetica,sans-Serif" font-size="10.00">/variables/vincrement_p.h</text>
</a>
</g>
</g>
<!-- Node2&#45;&gt;Node54 -->
<g id="edge50" class="edge">
<title>Node2&#45;&gt;Node54</title>
<path fill="none" stroke="midnightblue" d="M3849,-197.13C3870.93,-186.8 3897.87,-174.11 3918.11,-164.58"/>
<polygon fill="midnightblue" stroke="midnightblue" points="3847.5,-193.97 3839.94,-201.4 3850.48,-200.3 3847.5,-193.97"/>
</g>
<!-- Node56 -->
<g id="node46" class="node">
<title>Node56</title>
<g id="a_node46"><a xlink:href="../../d6/dc1/vmeasurement__p_8h.html" target="_top" xlink:title=" ">
<polygon fill="white" stroke="red" points="4038,-134.5 4038,-164.5 4200,-164.5 4200,-134.5 4038,-134.5"/>
<text text-anchor="start" x="4046" y="-152.5" font-family="Helvetica,sans-Serif" font-size="10.00">src/libs/vpatterndb</text>
<text text-anchor="middle" x="4119" y="-141.5" font-family="Helvetica,sans-Serif" font-size="10.00">/variables/vmeasurement_p.h</text>
</a>
</g>
</g>
<!-- Node2&#45;&gt;Node56 -->
<g id="edge51" class="edge">
<title>Node2&#45;&gt;Node56</title>
<path fill="none" stroke="midnightblue" d="M3873.63,-202.12C3925.79,-191.14 3999.38,-175.66 4052.34,-164.52"/>
<polygon fill="midnightblue" stroke="midnightblue" points="3872.89,-198.69 3863.82,-204.18 3874.33,-205.54 3872.89,-198.69"/>
</g>
<!-- Node58 -->
<g id="node47" class="node">
<title>Node58</title>
<g id="a_node47"><a xlink:href="../../d6/d91/vnodedetail_8cpp.html" target="_top" xlink:title=" ">
<polygon fill="white" stroke="black" points="4218.5,-134.5 4218.5,-164.5 4325.5,-164.5 4325.5,-134.5 4218.5,-134.5"/>
<text text-anchor="start" x="4226.5" y="-152.5" font-family="Helvetica,sans-Serif" font-size="10.00">src/libs/vpatterndb</text>
<text text-anchor="middle" x="4272" y="-141.5" font-family="Helvetica,sans-Serif" font-size="10.00">/vnodedetail.cpp</text>
</a>
</g>
</g>
<!-- Node2&#45;&gt;Node58 -->
<g id="edge54" class="edge">
<title>Node2&#45;&gt;Node58</title>
<path fill="none" stroke="midnightblue" d="M3873.78,-209.42C3952.8,-201.43 4091.4,-185.92 4209,-165 4212.09,-164.45 4215.26,-163.85 4218.46,-163.21"/>
<polygon fill="midnightblue" stroke="midnightblue" points="3873.1,-205.97 3863.5,-210.45 3873.8,-212.94 3873.1,-205.97"/>
</g>
<!-- Node59 -->
<g id="node48" class="node">
<title>Node59</title>
<g id="a_node48"><a xlink:href="../../da/de1/vpiecepath_8cpp.html" target="_top" xlink:title=" ">
<polygon fill="white" stroke="black" points="4343.5,-134.5 4343.5,-164.5 4450.5,-164.5 4450.5,-134.5 4343.5,-134.5"/>
<text text-anchor="start" x="4351.5" y="-152.5" font-family="Helvetica,sans-Serif" font-size="10.00">src/libs/vpatterndb</text>
<text text-anchor="middle" x="4397" y="-141.5" font-family="Helvetica,sans-Serif" font-size="10.00">/vpiecepath.cpp</text>
</a>
</g>
</g>
<!-- Node2&#45;&gt;Node59 -->
<g id="edge57" class="edge">
<title>Node2&#45;&gt;Node59</title>
<path fill="none" stroke="midnightblue" d="M3873.74,-212.13C3972.89,-206.26 4169.85,-192.13 4335,-165 4337.73,-164.55 4340.51,-164.05 4343.32,-163.52"/>
<polygon fill="midnightblue" stroke="midnightblue" points="3873.37,-208.64 3863.59,-212.72 3873.78,-215.63 3873.37,-208.64"/>
</g>
<!-- Node60 -->
<g id="node49" class="node">
<title>Node60</title>
<g id="a_node49"><a xlink:href="../../d1/d3a/abstracttest_8cpp.html" target="_top" xlink:title=" ">
<polygon fill="white" stroke="black" points="4468.5,-140 4468.5,-159 4629.5,-159 4629.5,-140 4468.5,-140"/>
<text text-anchor="middle" x="4549" y="-147" font-family="Helvetica,sans-Serif" font-size="10.00">src/libs/vtest/abstracttest.cpp</text>
</a>
</g>
</g>
<!-- Node2&#45;&gt;Node60 -->
<g id="edge58" class="edge">
<title>Node2&#45;&gt;Node60</title>
<path fill="none" stroke="midnightblue" d="M3873.84,-212.32C3990.51,-206.12 4245.92,-190.71 4460,-165 4473.37,-163.39 4487.8,-161.23 4501.07,-159.07"/>
<polygon fill="midnightblue" stroke="midnightblue" points="3873.46,-208.84 3863.65,-212.86 3873.83,-215.83 3873.46,-208.84"/>
</g>
<!-- Node61 -->
<g id="node50" class="node">
<title>Node61</title>
<g id="a_node50"><a xlink:href="../../da/db4/piece__tablewidgetitem_8cpp.html" target="_top" xlink:title=" ">
<polygon fill="white" stroke="black" points="4648,-134.5 4648,-164.5 4776,-164.5 4776,-134.5 4648,-134.5"/>
<text text-anchor="start" x="4656" y="-152.5" font-family="Helvetica,sans-Serif" font-size="10.00">src/libs/vwidgets/piece</text>
<text text-anchor="middle" x="4712" y="-141.5" font-family="Helvetica,sans-Serif" font-size="10.00">_tablewidgetitem.cpp</text>
</a>
</g>
</g>
<!-- Node2&#45;&gt;Node61 -->
<g id="edge59" class="edge">
<title>Node2&#45;&gt;Node61</title>
<path fill="none" stroke="midnightblue" d="M3873.65,-214.55C4012.96,-211.84 4355.09,-201.67 4639,-165 4641.95,-164.62 4644.95,-164.19 4647.99,-163.72"/>
<polygon fill="midnightblue" stroke="midnightblue" points="3873.51,-211.05 3863.58,-214.74 3873.64,-218.05 3873.51,-211.05"/>
</g>
<!-- Node3&#45;&gt;Node4 -->
<g id="edge3" class="edge">
<title>Node3&#45;&gt;Node4</title>
<path fill="none" stroke="midnightblue" d="M537.65,-138.81C453.89,-128.88 320.35,-112.83 205,-98 190.31,-96.11 174.5,-94.01 159.65,-92"/>
<polygon fill="midnightblue" stroke="midnightblue" points="537.28,-142.29 547.62,-139.99 538.1,-135.34 537.28,-142.29"/>
</g>
<!-- Node7 -->
<g id="node7" class="node">
<title>Node7</title>
<g id="a_node7"><a xlink:href="../../dd/d66/vdxfengine_8cpp.html" target="_top" xlink:title=" ">
<polygon fill="white" stroke="black" points="214,-73 214,-92 368,-92 368,-73 214,-73"/>
<text text-anchor="middle" x="291" y="-80" font-family="Helvetica,sans-Serif" font-size="10.00">src/libs/vdxf/vdxfengine.cpp</text>
</a>
</g>
</g>
<!-- Node6&#45;&gt;Node7 -->
<g id="edge7" class="edge">
<title>Node6&#45;&gt;Node7</title>
<path fill="none" stroke="midnightblue" d="M854.54,-142.5C741.25,-134.71 544.68,-119.52 377,-98 364.23,-96.36 350.47,-94.21 337.77,-92.07"/>
<polygon fill="midnightblue" stroke="midnightblue" points="854.35,-146 864.56,-143.19 854.82,-139.02 854.35,-146"/>
</g>
<!-- Node8 -->
<g id="node8" class="node">
<title>Node8</title>
<g id="a_node8"><a xlink:href="../../de/da8/vbank_8cpp.html" target="_top" xlink:title=" ">
<polygon fill="white" stroke="black" points="386,-73 386,-92 530,-92 530,-73 386,-73"/>
<text text-anchor="middle" x="458" y="-80" font-family="Helvetica,sans-Serif" font-size="10.00">src/libs/vlayout/vbank.cpp</text>
</a>
</g>
</g>
<!-- Node6&#45;&gt;Node8 -->
<g id="edge8" class="edge">
<title>Node6&#45;&gt;Node8</title>
<path fill="none" stroke="midnightblue" d="M858.5,-138.87C775.51,-129.6 648.68,-114.58 539,-98 527.42,-96.25 514.94,-94.13 503.34,-92.06"/>
<polygon fill="midnightblue" stroke="midnightblue" points="858.33,-142.37 868.65,-139.99 859.1,-135.41 858.33,-142.37"/>
</g>
<!-- Node9 -->
<g id="node9" class="node">
<title>Node9</title>
<g id="a_node9"><a xlink:href="../../df/d5d/vcontour_8cpp.html" target="_top" xlink:title=" ">
<polygon fill="white" stroke="black" points="548,-73 548,-92 704,-92 704,-73 548,-73"/>
<text text-anchor="middle" x="626" y="-80" font-family="Helvetica,sans-Serif" font-size="10.00">src/libs/vlayout/vcontour.cpp</text>
</a>
</g>
</g>
<!-- Node6&#45;&gt;Node9 -->
<g id="edge9" class="edge">
<title>Node6&#45;&gt;Node9</title>
<path fill="none" stroke="midnightblue" d="M895.39,-137.88C831.97,-125.08 726.66,-103.82 668.26,-92.03"/>
<polygon fill="midnightblue" stroke="midnightblue" points="895.08,-141.39 905.57,-139.94 896.46,-134.53 895.08,-141.39"/>
</g>
<!-- Node10 -->
<g id="node10" class="node">
<title>Node10</title>
<g id="a_node10"><a xlink:href="../../d3/d39/vlayoutgenerator_8cpp.html" target="_top" xlink:title=" ">
<polygon fill="white" stroke="black" points="722.5,-73 722.5,-92 919.5,-92 919.5,-73 722.5,-73"/>
<text text-anchor="middle" x="821" y="-80" font-family="Helvetica,sans-Serif" font-size="10.00">src/libs/vlayout/vlayoutgenerator.cpp</text>
</a>
</g>
</g>
<!-- Node6&#45;&gt;Node10 -->
<g id="edge10" class="edge">
<title>Node6&#45;&gt;Node10</title>
<path fill="none" stroke="midnightblue" d="M922.16,-135.27C897,-122.4 859.51,-103.21 837.93,-92.17"/>
<polygon fill="midnightblue" stroke="midnightblue" points="920.64,-138.43 931.14,-139.87 923.83,-132.2 920.64,-138.43"/>
</g>
<!-- Node11 -->
<g id="node11" class="node">
<title>Node11</title>
<g id="a_node11"><a xlink:href="../../d2/d2d/vlayoutpaper__p_8h.html" target="_top" xlink:title=" ">
<polygon fill="white" stroke="black" points="976.5,-73 976.5,-92 1155.5,-92 1155.5,-73 976.5,-73"/>
<text text-anchor="middle" x="1066" y="-80" font-family="Helvetica,sans-Serif" font-size="10.00">src/libs/vlayout/vlayoutpaper_p.h</text>
</a>
</g>
</g>
<!-- Node6&#45;&gt;Node11 -->
<g id="edge11" class="edge">
<title>Node6&#45;&gt;Node11</title>
<path fill="none" stroke="midnightblue" d="M972.89,-134.79C996.28,-121.9 1030.56,-103.02 1050.34,-92.13"/>
<polygon fill="midnightblue" stroke="midnightblue" points="970.98,-131.84 963.91,-139.73 974.36,-137.97 970.98,-131.84"/>
</g>
<!-- Node12 -->
<g id="node12" class="node">
<title>Node12</title>
<g id="a_node12"><a xlink:href="../../d1/dd1/vlayoutpaper_8cpp.html" target="_top" xlink:title=" ">
<polygon fill="white" stroke="black" points="977,-6 977,-25 1155,-25 1155,-6 977,-6"/>
<text text-anchor="middle" x="1066" y="-13" font-family="Helvetica,sans-Serif" font-size="10.00">src/libs/vlayout/vlayoutpaper.cpp</text>
</a>
</g>
</g>
<!-- Node6&#45;&gt;Node12 -->
<g id="edge13" class="edge">
<title>Node6&#45;&gt;Node12</title>
<path fill="none" stroke="midnightblue" d="M948,-129.85C948.92,-111.97 952.83,-85.11 967,-67 983.65,-45.73 1011.7,-32.62 1033.7,-25.11"/>
<polygon fill="midnightblue" stroke="midnightblue" points="944.5,-129.8 947.75,-139.88 951.49,-129.98 944.5,-129.8"/>
</g>
<!-- Node13 -->
<g id="node13" class="node">
<title>Node13</title>
<g id="a_node13"><a xlink:href="../../db/d5c/vposition_8h.html" target="_top" xlink:title=" ">
<polygon fill="white" stroke="red" points="1174,-73 1174,-92 1322,-92 1322,-73 1174,-73"/>
<text text-anchor="middle" x="1248" y="-80" font-family="Helvetica,sans-Serif" font-size="10.00">src/libs/vlayout/vposition.h</text>
</a>
</g>
</g>
<!-- Node6&#45;&gt;Node13 -->
<g id="edge14" class="edge">
<title>Node6&#45;&gt;Node13</title>
<path fill="none" stroke="midnightblue" d="M997.37,-137.8C1056.41,-125.01 1154.04,-103.86 1208.38,-92.08"/>
<polygon fill="midnightblue" stroke="midnightblue" points="996.56,-134.4 987.53,-139.94 998.04,-141.24 996.56,-134.4"/>
</g>
<!-- Node15 -->
<g id="node14" class="node">
<title>Node15</title>
<g id="a_node14"><a xlink:href="../../dd/d70/vlayoutpiece_8cpp.html" target="_top" xlink:title=" ">
<polygon fill="white" stroke="black" points="1377.5,-73 1377.5,-92 1554.5,-92 1554.5,-73 1377.5,-73"/>
<text text-anchor="middle" x="1466" y="-80" font-family="Helvetica,sans-Serif" font-size="10.00">src/libs/vlayout/vlayoutpiece.cpp</text>
</a>
</g>
</g>
<!-- Node6&#45;&gt;Node15 -->
<g id="edge16" class="edge">
<title>Node6&#45;&gt;Node15</title>
<path fill="none" stroke="midnightblue" d="M1026.14,-138.69C1127.3,-126 1301.95,-104.08 1397.93,-92.04"/>
<polygon fill="midnightblue" stroke="midnightblue" points="1025.47,-135.25 1015.99,-139.97 1026.34,-142.2 1025.47,-135.25"/>
</g>
<!-- Node11&#45;&gt;Node12 -->
<g id="edge12" class="edge">
<title>Node11&#45;&gt;Node12</title>
<path fill="none" stroke="midnightblue" d="M1066,-62.54C1066,-50.17 1066,-34.62 1066,-25.13"/>
<polygon fill="midnightblue" stroke="midnightblue" points="1062.5,-62.73 1066,-72.73 1069.5,-62.73 1062.5,-62.73"/>
</g>
<!-- Node13&#45;&gt;Node12 -->
<g id="edge15" class="edge">
<title>Node13&#45;&gt;Node12</title>
<path fill="none" stroke="midnightblue" d="M1214.22,-69.44C1178.12,-56.54 1121.79,-36.42 1089.98,-25.06"/>
<polygon fill="midnightblue" stroke="midnightblue" points="1213.24,-72.8 1223.83,-72.87 1215.59,-66.21 1213.24,-72.8"/>
</g>
<!-- Node16&#45;&gt;Node5 -->
<g id="edge29" class="edge">
<title>Node16&#45;&gt;Node5</title>
<path fill="none" stroke="midnightblue" d="M3539.2,-147.27C3193.12,-143.07 2112.47,-127.83 1764,-98 1747.92,-96.62 1730.48,-94.36 1714.74,-92.03"/>
<polygon fill="midnightblue" stroke="midnightblue" points="3539.18,-150.77 3549.23,-147.39 3539.27,-143.77 3539.18,-150.77"/>
</g>
<!-- Node16&#45;&gt;Node15 -->
<g id="edge28" class="edge">
<title>Node16&#45;&gt;Node15</title>
<path fill="none" stroke="midnightblue" d="M3539.04,-147.63C3169,-144.39 1953.32,-131.39 1564,-98 1548.15,-96.64 1530.96,-94.37 1515.47,-92.02"/>
<polygon fill="midnightblue" stroke="midnightblue" points="3539.18,-151.14 3549.21,-147.72 3539.24,-144.14 3539.18,-151.14"/>
</g>
<!-- Node17 -->
<g id="node16" class="node">
<title>Node17</title>
<g id="a_node16"><a xlink:href="../../d4/d90/fvupdater_8cpp.html" target="_top" xlink:title=" ">
<polygon fill="white" stroke="black" points="5010.5,-73 5010.5,-92 5163.5,-92 5163.5,-73 5010.5,-73"/>
<text text-anchor="middle" x="5087" y="-80" font-family="Helvetica,sans-Serif" font-size="10.00">src/libs/fervor/fvupdater.cpp</text>
</a>
</g>
</g>
<!-- Node16&#45;&gt;Node17 -->
<g id="edge18" class="edge">
<title>Node16&#45;&gt;Node17</title>
<path fill="none" stroke="midnightblue" d="M3713.6,-138.69C3728.2,-136.85 3743.6,-135.15 3758,-134 4308.93,-90.15 4450.98,-152.07 5001,-98 5014.86,-96.64 5029.87,-94.38 5043.41,-92.05"/>
<polygon fill="midnightblue" stroke="midnightblue" points="3713.1,-135.22 3703.64,-139.98 3714,-142.17 3713.1,-135.22"/>
</g>
<!-- Node18 -->
<g id="node17" class="node">
<title>Node18</title>
<g id="a_node17"><a xlink:href="../../d9/dc8/dxiface_8cpp.html" target="_top" xlink:title=" ">
<polygon fill="white" stroke="black" points="5181.5,-73 5181.5,-92 5316.5,-92 5316.5,-73 5181.5,-73"/>
<text text-anchor="middle" x="5249" y="-80" font-family="Helvetica,sans-Serif" font-size="10.00">src/libs/vdxf/dxiface.cpp</text>
</a>
</g>
</g>
<!-- Node16&#45;&gt;Node18 -->
<g id="edge19" class="edge">
<title>Node16&#45;&gt;Node18</title>
<path fill="none" stroke="midnightblue" d="M3713.35,-138.68C3728.03,-136.83 3743.52,-135.13 3758,-134 4385.2,-85.19 4547.5,-165.17 5173,-98 5185.42,-96.67 5198.85,-94.39 5210.91,-92.03"/>
<polygon fill="midnightblue" stroke="midnightblue" points="3712.82,-135.22 3703.35,-139.98 3713.72,-142.16 3712.82,-135.22"/>
</g>
<!-- Node19 -->
<g id="node18" class="node">
<title>Node19</title>
<g id="a_node18"><a xlink:href="../../da/d75/vabstractarc__p_8h.html" target="_top" xlink:title=" ">
<polygon fill="white" stroke="red" points="5334.5,-67.5 5334.5,-97.5 5441.5,-97.5 5441.5,-67.5 5334.5,-67.5"/>
<text text-anchor="start" x="5342.5" y="-85.5" font-family="Helvetica,sans-Serif" font-size="10.00">src/libs/vgeometry</text>
<text text-anchor="middle" x="5388" y="-74.5" font-family="Helvetica,sans-Serif" font-size="10.00">/vabstractarc_p.h</text>
</a>
</g>
</g>
<!-- Node16&#45;&gt;Node19 -->
<g id="edge20" class="edge">
<title>Node16&#45;&gt;Node19</title>
<path fill="none" stroke="midnightblue" d="M3713.11,-138.68C3727.86,-136.83 3743.44,-135.12 3758,-134 4105.52,-107.39 4980.24,-141.92 5326,-98 5328.74,-97.65 5331.54,-97.23 5334.36,-96.76"/>
<polygon fill="midnightblue" stroke="midnightblue" points="3712.53,-135.23 3703.06,-139.99 3713.43,-142.17 3712.53,-135.23"/>
</g>
<!-- Node21 -->
<g id="node19" class="node">
<title>Node21</title>
<g id="a_node19"><a xlink:href="../../dc/da3/varc__p_8h.html" target="_top" xlink:title=" ">
<polygon fill="white" stroke="red" points="5498.5,-67.5 5498.5,-97.5 5605.5,-97.5 5605.5,-67.5 5498.5,-67.5"/>
<text text-anchor="start" x="5506.5" y="-85.5" font-family="Helvetica,sans-Serif" font-size="10.00">src/libs/vgeometry</text>
<text text-anchor="middle" x="5552" y="-74.5" font-family="Helvetica,sans-Serif" font-size="10.00">/varc_p.h</text>
</a>
</g>
</g>
<!-- Node16&#45;&gt;Node21 -->
<g id="edge21" class="edge">
<title>Node16&#45;&gt;Node21</title>
<path fill="none" stroke="midnightblue" d="M3713.11,-138.66C3727.86,-136.8 3743.44,-135.1 3758,-134 4523.1,-76.22 4721.83,-186.4 5484,-98 5488.68,-97.46 5493.51,-96.74 5498.33,-95.92"/>
<polygon fill="midnightblue" stroke="midnightblue" points="3712.53,-135.21 3703.06,-139.97 3713.43,-142.15 3712.53,-135.21"/>
</g>
<!-- Node23 -->
<g id="node20" class="node">
<title>Node23</title>
<g id="a_node20"><a xlink:href="../../d5/d8e/vcubicbezier__p_8h.html" target="_top" xlink:title=" ">
<polygon fill="white" stroke="red" points="5623.5,-67.5 5623.5,-97.5 5730.5,-97.5 5730.5,-67.5 5623.5,-67.5"/>
<text text-anchor="start" x="5631.5" y="-85.5" font-family="Helvetica,sans-Serif" font-size="10.00">src/libs/vgeometry</text>
<text text-anchor="middle" x="5677" y="-74.5" font-family="Helvetica,sans-Serif" font-size="10.00">/vcubicbezier_p.h</text>
</a>
</g>
</g>
<!-- Node16&#45;&gt;Node23 -->
<g id="edge22" class="edge">
<title>Node16&#45;&gt;Node23</title>
<path fill="none" stroke="midnightblue" d="M3712.87,-138.68C3727.69,-136.81 3743.36,-135.1 3758,-134 4169.6,-103.22 5205.45,-149.28 5615,-98 5617.74,-97.66 5620.54,-97.24 5623.36,-96.77"/>
<polygon fill="midnightblue" stroke="midnightblue" points="3712.24,-135.23 3702.78,-139.99 3713.14,-142.17 3712.24,-135.23"/>
</g>
<!-- Node25 -->
<g id="node21" class="node">
<title>Node25</title>
<g id="a_node21"><a xlink:href="../../df/dde/vellipticalarc__p_8h.html" target="_top" xlink:title=" ">
<polygon fill="white" stroke="black" points="5748.5,-67.5 5748.5,-97.5 5855.5,-97.5 5855.5,-67.5 5748.5,-67.5"/>
<text text-anchor="start" x="5756.5" y="-85.5" font-family="Helvetica,sans-Serif" font-size="10.00">src/libs/vgeometry</text>
<text text-anchor="middle" x="5802" y="-74.5" font-family="Helvetica,sans-Serif" font-size="10.00">/vellipticalarc_p.h</text>
</a>
</g>
</g>
<!-- Node16&#45;&gt;Node25 -->
<g id="edge23" class="edge">
<title>Node16&#45;&gt;Node25</title>
<path fill="none" stroke="midnightblue" d="M3712.87,-138.66C3727.68,-136.79 3743.35,-135.09 3758,-134 4197.31,-101.42 5302.86,-152.46 5740,-98 5742.74,-97.66 5745.54,-97.25 5748.36,-96.78"/>
<polygon fill="midnightblue" stroke="midnightblue" points="3712.24,-135.22 3702.77,-139.98 3713.14,-142.16 3712.24,-135.22"/>
</g>
<!-- Node26 -->
<g id="node22" class="node">
<title>Node26</title>
<g id="a_node22"><a xlink:href="../../d6/dfb/vellipticalarc_8cpp.html" target="_top" xlink:title=" ">
<polygon fill="white" stroke="black" points="5582.5,-0.5 5582.5,-30.5 5689.5,-30.5 5689.5,-0.5 5582.5,-0.5"/>
<text text-anchor="start" x="5590.5" y="-18.5" font-family="Helvetica,sans-Serif" font-size="10.00">src/libs/vgeometry</text>
<text text-anchor="middle" x="5636" y="-7.5" font-family="Helvetica,sans-Serif" font-size="10.00">/vellipticalarc.cpp</text>
</a>
</g>
</g>
<!-- Node16&#45;&gt;Node26 -->
<g id="edge25" class="edge">
<title>Node16&#45;&gt;Node26</title>
<path fill="none" stroke="midnightblue" d="M3713.11,-138.67C3727.86,-136.81 3743.44,-135.1 3758,-134 3851.81,-126.9 5362.51,-129.94 5451,-98 5471.83,-90.48 5470.59,-77.66 5490,-67 5519.03,-51.05 5554.03,-38.74 5582.48,-30.26"/>
<polygon fill="midnightblue" stroke="midnightblue" points="3712.53,-135.21 3703.06,-139.97 3713.43,-142.15 3712.53,-135.21"/>
</g>
<!-- Node27 -->
<g id="node23" class="node">
<title>Node27</title>
<g id="a_node23"><a xlink:href="../../d1/d76/vspline__p_8h.html" target="_top" xlink:title=" ">
<polygon fill="white" stroke="red" points="1898.5,-67.5 1898.5,-97.5 2005.5,-97.5 2005.5,-67.5 1898.5,-67.5"/>
<text text-anchor="start" x="1906.5" y="-85.5" font-family="Helvetica,sans-Serif" font-size="10.00">src/libs/vgeometry</text>
<text text-anchor="middle" x="1952" y="-74.5" font-family="Helvetica,sans-Serif" font-size="10.00">/vspline_p.h</text>
</a>
</g>
</g>
<!-- Node16&#45;&gt;Node27 -->
<g id="edge26" class="edge">
<title>Node16&#45;&gt;Node27</title>
<path fill="none" stroke="midnightblue" d="M3539.38,-147.91C3224.91,-145.76 2311.1,-136.28 2015,-98 2011.99,-97.61 2008.92,-97.14 2005.83,-96.62"/>
<polygon fill="midnightblue" stroke="midnightblue" points="3539.38,-151.41 3549.41,-147.98 3539.43,-144.41 3539.38,-151.41"/>
</g>
<!-- Node29 -->
<g id="node24" class="node">
<title>Node29</title>
<g id="a_node24"><a xlink:href="../../d9/d15/vabstractpiece_8cpp.html" target="_top" xlink:title=" ">
<polygon fill="white" stroke="black" points="2024,-73 2024,-92 2210,-92 2210,-73 2024,-73"/>
<text text-anchor="middle" x="2117" y="-80" font-family="Helvetica,sans-Serif" font-size="10.00">src/libs/vlayout/vabstractpiece.cpp</text>
</a>
</g>
</g>
<!-- Node16&#45;&gt;Node29 -->
<g id="edge27" class="edge">
<title>Node16&#45;&gt;Node29</title>
<path fill="none" stroke="midnightblue" d="M3539.42,-148.52C3301.22,-147.74 2711.47,-141.17 2220,-98 2203.63,-96.56 2185.88,-94.31 2169.81,-92.01"/>
<polygon fill="midnightblue" stroke="midnightblue" points="3539.45,-152.02 3549.46,-148.55 3539.47,-145.02 3539.45,-152.02"/>
</g>
<!-- Node30 -->
<g id="node25" class="node">
<title>Node30</title>
<g id="a_node25"><a xlink:href="../../db/d65/dialogexporttocsv_8cpp.html" target="_top" xlink:title=" ">
<polygon fill="white" stroke="black" points="2228.5,-67.5 2228.5,-97.5 2355.5,-97.5 2355.5,-67.5 2228.5,-67.5"/>
<text text-anchor="start" x="2236.5" y="-85.5" font-family="Helvetica,sans-Serif" font-size="10.00">src/libs/vmisc/dialogs</text>
<text text-anchor="middle" x="2292" y="-74.5" font-family="Helvetica,sans-Serif" font-size="10.00">/dialogexporttocsv.cpp</text>
</a>
</g>
</g>
<!-- Node16&#45;&gt;Node30 -->
<g id="edge30" class="edge">
<title>Node16&#45;&gt;Node30</title>
<path fill="none" stroke="midnightblue" d="M3539.19,-146.43C3273.22,-140.97 2591.04,-124.73 2365,-98 2361.92,-97.64 2358.78,-97.21 2355.61,-96.74"/>
<polygon fill="midnightblue" stroke="midnightblue" points="3539.17,-149.93 3549.24,-146.63 3539.31,-142.93 3539.17,-149.93"/>
</g>
<!-- Node31 -->
<g id="node26" class="node">
<title>Node31</title>
<g id="a_node26"><a xlink:href="../../d6/d0b/def_8cpp.html" target="_top" xlink:title=" ">
<polygon fill="white" stroke="black" points="2374,-73 2374,-92 2496,-92 2496,-73 2374,-73"/>
<text text-anchor="middle" x="2435" y="-80" font-family="Helvetica,sans-Serif" font-size="10.00">src/libs/vmisc/def.cpp</text>
</a>
</g>
</g>
<!-- Node16&#45;&gt;Node31 -->
<g id="edge31" class="edge">
<title>Node16&#45;&gt;Node31</title>
<path fill="none" stroke="midnightblue" d="M3538.88,-145.93C3293.98,-139.75 2702.9,-122.71 2505,-98 2493.79,-96.6 2481.71,-94.36 2470.79,-92.06"/>
<polygon fill="midnightblue" stroke="midnightblue" points="3539.13,-149.44 3549.21,-146.19 3539.3,-142.44 3539.13,-149.44"/>
</g>
<!-- Node32 -->
<g id="node27" class="node">
<title>Node32</title>
<g id="a_node27"><a xlink:href="../../d0/df6/vabstractapplication_8cpp.html" target="_top" xlink:title=" ">
<polygon fill="white" stroke="black" points="2514,-73 2514,-92 2720,-92 2720,-73 2514,-73"/>
<text text-anchor="middle" x="2617" y="-80" font-family="Helvetica,sans-Serif" font-size="10.00">src/libs/vmisc/vabstractapplication.cpp</text>
</a>
</g>
</g>
<!-- Node16&#45;&gt;Node32 -->
<g id="edge32" class="edge">
<title>Node16&#45;&gt;Node32</title>
<path fill="none" stroke="midnightblue" d="M3539.41,-145.11C3367.91,-139.13 3022.09,-124.75 2730,-98 2712.77,-96.42 2694.11,-94.23 2677.02,-92.02"/>
<polygon fill="midnightblue" stroke="midnightblue" points="3539.34,-148.61 3549.45,-145.46 3539.58,-141.61 3539.34,-148.61"/>
</g>
<!-- Node33 -->
<g id="node28" class="node">
<title>Node33</title>
<g id="a_node28"><a xlink:href="../../d4/d4f/pmsystems_8cpp.html" target="_top" xlink:title=" ">
<polygon fill="white" stroke="black" points="2738.5,-67.5 2738.5,-97.5 2845.5,-97.5 2845.5,-67.5 2738.5,-67.5"/>
<text text-anchor="start" x="2746.5" y="-85.5" font-family="Helvetica,sans-Serif" font-size="10.00">src/libs/vpatterndb</text>
<text text-anchor="middle" x="2792" y="-74.5" font-family="Helvetica,sans-Serif" font-size="10.00">/pmsystems.cpp</text>
</a>
</g>
</g>
<!-- Node16&#45;&gt;Node33 -->
<g id="edge33" class="edge">
<title>Node16&#45;&gt;Node33</title>
<path fill="none" stroke="midnightblue" d="M3538.9,-147.16C3385.89,-144.01 3097.72,-133.43 2855,-98 2851.89,-97.55 2848.71,-97.02 2845.5,-96.44"/>
<polygon fill="midnightblue" stroke="midnightblue" points="3539.17,-150.67 3549.23,-147.37 3539.31,-143.67 3539.17,-150.67"/>
</g>
<!-- Node16&#45;&gt;Node34 -->
<g id="edge34" class="edge">
<title>Node16&#45;&gt;Node34</title>
<path fill="none" stroke="midnightblue" d="M3712.87,-138.65C3727.68,-136.78 3743.35,-135.08 3758,-134 4225.03,-99.62 5400.27,-155.65 5865,-98 5867.74,-97.66 5870.54,-97.25 5873.36,-96.78"/>
<polygon fill="midnightblue" stroke="midnightblue" points="3712.24,-135.2 3702.77,-139.96 3713.14,-142.15 3712.24,-135.2"/>
</g>
<!-- Node16&#45;&gt;Node35 -->
<g id="edge35" class="edge">
<title>Node16&#45;&gt;Node35</title>
<path fill="none" stroke="midnightblue" d="M3732.4,-139C3753.19,-137.01 3775.37,-135.17 3796,-134 4282.84,-106.36 5506.07,-157.86 5990,-98 5992.74,-97.66 5995.54,-97.25 5998.36,-96.78"/>
<polygon fill="midnightblue" stroke="midnightblue" points="3731.94,-135.52 3722.33,-139.98 3732.62,-142.49 3731.94,-135.52"/>
</g>
<!-- Node16&#45;&gt;Node36 -->
<g id="edge36" class="edge">
<title>Node16&#45;&gt;Node36</title>
<path fill="none" stroke="midnightblue" d="M3752.18,-139.2C3778.85,-137.16 3807.46,-135.24 3834,-134 4340.4,-110.39 5611.86,-160.08 6115,-98 6117.74,-97.66 6120.54,-97.25 6123.36,-96.79"/>
<polygon fill="midnightblue" stroke="midnightblue" points="3751.76,-135.72 3742.06,-139.99 3752.3,-142.7 3751.76,-135.72"/>
</g>
<!-- Node37 -->
<g id="node32" class="node">
<title>Node37</title>
<g id="a_node32"><a xlink:href="../../df/dba/vpiecenode__p_8h.html" target="_top" xlink:title=" ">
<polygon fill="white" stroke="black" points="1773.5,-67.5 1773.5,-97.5 1880.5,-97.5 1880.5,-67.5 1773.5,-67.5"/>
<text text-anchor="start" x="1781.5" y="-85.5" font-family="Helvetica,sans-Serif" font-size="10.00">src/libs/vpatterndb</text>
<text text-anchor="middle" x="1827" y="-74.5" font-family="Helvetica,sans-Serif" font-size="10.00">/vpiecenode_p.h</text>
</a>
</g>
</g>
<!-- Node16&#45;&gt;Node37 -->
<g id="edge37" class="edge">
<title>Node16&#45;&gt;Node37</title>
<path fill="none" stroke="midnightblue" d="M3539.35,-146.64C3182.65,-140.32 2052.78,-118.86 1890,-98 1886.99,-97.61 1883.92,-97.15 1880.83,-96.63"/>
<polygon fill="midnightblue" stroke="midnightblue" points="3539.36,-150.14 3549.42,-146.82 3539.48,-143.15 3539.36,-150.14"/>
</g>
<!-- Node39 -->
<g id="node34" class="node">
<title>Node39</title>
<g id="a_node34"><a xlink:href="../../de/d3e/vtranslatevars_8cpp.html" target="_top" xlink:title=" ">
<polygon fill="white" stroke="black" points="2864,-67.5 2864,-97.5 2974,-97.5 2974,-67.5 2864,-67.5"/>
<text text-anchor="start" x="2872" y="-85.5" font-family="Helvetica,sans-Serif" font-size="10.00">src/libs/vpatterndb</text>
<text text-anchor="middle" x="2919" y="-74.5" font-family="Helvetica,sans-Serif" font-size="10.00">/vtranslatevars.cpp</text>
</a>
</g>
</g>
<!-- Node16&#45;&gt;Node39 -->
<g id="edge39" class="edge">
<title>Node16&#45;&gt;Node39</title>
<path fill="none" stroke="midnightblue" d="M3539.25,-145.04C3407.63,-139.73 3178.46,-126.94 2984,-98 2980.8,-97.52 2977.52,-96.98 2974.22,-96.38"/>
<polygon fill="midnightblue" stroke="midnightblue" points="3539.2,-148.54 3549.33,-145.44 3539.48,-141.55 3539.2,-148.54"/>
</g>
<!-- Node40 -->
<g id="node35" class="node">
<title>Node40</title>
<g id="a_node35"><a xlink:href="../../df/d40/export__format__combobox_8cpp.html" target="_top" xlink:title=" ">
<polygon fill="white" stroke="black" points="2992.5,-67.5 2992.5,-97.5 3125.5,-97.5 3125.5,-67.5 2992.5,-67.5"/>
<text text-anchor="start" x="3000.5" y="-85.5" font-family="Helvetica,sans-Serif" font-size="10.00">src/libs/vwidgets/export</text>
<text text-anchor="middle" x="3059" y="-74.5" font-family="Helvetica,sans-Serif" font-size="10.00">_format_combobox.cpp</text>
</a>
</g>
</g>
<!-- Node16&#45;&gt;Node40 -->
<g id="edge40" class="edge">
<title>Node16&#45;&gt;Node40</title>
<path fill="none" stroke="midnightblue" d="M3539.3,-140.72C3435.46,-132.54 3274.03,-118.08 3135,-98 3131.94,-97.56 3128.82,-97.08 3125.67,-96.57"/>
<polygon fill="midnightblue" stroke="midnightblue" points="3539.24,-144.22 3549.48,-141.51 3539.79,-137.24 3539.24,-144.22"/>
</g>
<!-- Node41 -->
<g id="node36" class="node">
<title>Node41</title>
<g id="a_node36"><a xlink:href="../../d3/d4f/mouse__coordinates_8cpp.html" target="_top" xlink:title=" ">
<polygon fill="white" stroke="black" points="3144,-67.5 3144,-97.5 3278,-97.5 3278,-67.5 3144,-67.5"/>
<text text-anchor="start" x="3152" y="-85.5" font-family="Helvetica,sans-Serif" font-size="10.00">src/libs/vwidgets/mouse</text>
<text text-anchor="middle" x="3211" y="-74.5" font-family="Helvetica,sans-Serif" font-size="10.00">_coordinates.cpp</text>
</a>
</g>
</g>
<!-- Node16&#45;&gt;Node41 -->
<g id="edge41" class="edge">
<title>Node16&#45;&gt;Node41</title>
<path fill="none" stroke="midnightblue" d="M3569.69,-138.68C3496.88,-129.18 3384.83,-113.92 3288,-98 3284.78,-97.47 3281.48,-96.91 3278.16,-96.34"/>
<polygon fill="midnightblue" stroke="midnightblue" points="3569.33,-142.16 3579.7,-139.98 3570.24,-135.22 3569.33,-142.16"/>
</g>
<!-- Node42 -->
<g id="node37" class="node">
<title>Node42</title>
<g id="a_node37"><a xlink:href="../../d7/d1b/pen__toolbar_8cpp.html" target="_top" xlink:title=" ">
<polygon fill="white" stroke="black" points="3296.5,-67.5 3296.5,-97.5 3415.5,-97.5 3415.5,-67.5 3296.5,-67.5"/>
<text text-anchor="start" x="3304.5" y="-85.5" font-family="Helvetica,sans-Serif" font-size="10.00">src/libs/vwidgets/pen</text>
<text text-anchor="middle" x="3356" y="-74.5" font-family="Helvetica,sans-Serif" font-size="10.00">_toolbar.cpp</text>
</a>
</g>
</g>
<!-- Node16&#45;&gt;Node42 -->
<g id="edge42" class="edge">
<title>Node16&#45;&gt;Node42</title>
<path fill="none" stroke="midnightblue" d="M3598.7,-137.71C3548.46,-126.49 3469.74,-108.9 3415.65,-96.82"/>
<polygon fill="midnightblue" stroke="midnightblue" points="3598.14,-141.17 3608.66,-139.94 3599.66,-134.34 3598.14,-141.17"/>
</g>
<!-- Node43 -->
<g id="node38" class="node">
<title>Node43</title>
<g id="a_node38"><a xlink:href="../../dd/df6/vabstractmainwindow_8cpp.html" target="_top" xlink:title=" ">
<polygon fill="white" stroke="black" points="3433.5,-73 3433.5,-92 3662.5,-92 3662.5,-73 3433.5,-73"/>
<text text-anchor="middle" x="3548" y="-80" font-family="Helvetica,sans-Serif" font-size="10.00">src/libs/vwidgets/vabstractmainwindow.cpp</text>
</a>
</g>
</g>
<!-- Node16&#45;&gt;Node43 -->
<g id="edge43" class="edge">
<title>Node16&#45;&gt;Node43</title>
<path fill="none" stroke="midnightblue" d="M3625.06,-134.09C3605.47,-121.24 3577.44,-102.83 3561.14,-92.13"/>
<polygon fill="midnightblue" stroke="midnightblue" points="3623.37,-137.17 3633.65,-139.73 3627.21,-131.32 3623.37,-137.17"/>
</g>
<!-- Node44 -->
<g id="node39" class="node">
<title>Node44</title>
<g id="a_node39"><a xlink:href="../../d8/d76/scene__rect_8cpp.html" target="_top" xlink:title=" ">
<polygon fill="white" stroke="black" points="3681,-67.5 3681,-97.5 3811,-97.5 3811,-67.5 3681,-67.5"/>
<text text-anchor="start" x="3689" y="-85.5" font-family="Helvetica,sans-Serif" font-size="10.00">src/libs/vwidgets/scene</text>
<text text-anchor="middle" x="3746" y="-74.5" font-family="Helvetica,sans-Serif" font-size="10.00">_rect.cpp</text>
</a>
</g>
</g>
<!-- Node16&#45;&gt;Node44 -->
<g id="edge44" class="edge">
<title>Node16&#45;&gt;Node44</title>
<path fill="none" stroke="midnightblue" d="M3668.85,-134.15C3685.42,-123.27 3708.07,-108.4 3724.54,-97.59"/>
<polygon fill="midnightblue" stroke="midnightblue" points="3666.79,-131.32 3660.35,-139.73 3670.63,-137.17 3666.79,-131.32"/>
</g>
<!-- Node45 -->
<g id="node40" class="node">
<title>Node45</title>
<g id="a_node40"><a xlink:href="../../de/d45/vcontrolpointspline_8cpp.html" target="_top" xlink:title=" ">
<polygon fill="white" stroke="black" points="3829.5,-73 3829.5,-92 4044.5,-92 4044.5,-73 3829.5,-73"/>
<text text-anchor="middle" x="3937" y="-80" font-family="Helvetica,sans-Serif" font-size="10.00">src/libs/vwidgets/vcontrolpointspline.cpp</text>
</a>
</g>
</g>
<!-- Node16&#45;&gt;Node45 -->
<g id="edge45" class="edge">
<title>Node16&#45;&gt;Node45</title>
<path fill="none" stroke="midnightblue" d="M3695.08,-137.72C3752.18,-124.92 3846.28,-103.83 3898.7,-92.08"/>
<polygon fill="midnightblue" stroke="midnightblue" points="3694.2,-134.33 3685.21,-139.94 3695.73,-141.16 3694.2,-134.33"/>
</g>
<!-- Node46 -->
<g id="node41" class="node">
<title>Node46</title>
<g id="a_node41"><a xlink:href="../../d1/d90/vgrainlineitem_8cpp.html" target="_top" xlink:title=" ">
<polygon fill="white" stroke="black" points="4062.5,-73 4062.5,-92 4255.5,-92 4255.5,-73 4062.5,-73"/>
<text text-anchor="middle" x="4159" y="-80" font-family="Helvetica,sans-Serif" font-size="10.00">src/libs/vwidgets/vgrainlineitem.cpp</text>
</a>
</g>
</g>
<!-- Node16&#45;&gt;Node46 -->
<g id="edge46" class="edge">
<title>Node16&#45;&gt;Node46</title>
<path fill="none" stroke="midnightblue" d="M3721.66,-138.65C3733.8,-137.08 3746.25,-135.48 3758,-134 3889.48,-117.42 3922.58,-115.07 4054,-98 4068.42,-96.13 4083.93,-94.03 4098.5,-92.03"/>
<polygon fill="midnightblue" stroke="midnightblue" points="3721.02,-135.21 3711.55,-139.97 3721.92,-142.15 3721.02,-135.21"/>
</g>
<!-- Node47 -->
<g id="node42" class="node">
<title>Node47</title>
<g id="a_node42"><a xlink:href="../../de/dec/vgraphicssimpletextitem_8cpp.html" target="_top" xlink:title=" ">
<polygon fill="white" stroke="black" points="4274,-73 4274,-92 4518,-92 4518,-73 4274,-73"/>
<text text-anchor="middle" x="4396" y="-80" font-family="Helvetica,sans-Serif" font-size="10.00">src/libs/vwidgets/vgraphicssimpletextitem.cpp</text>
</a>
</g>
</g>
<!-- Node16&#45;&gt;Node47 -->
<g id="edge47" class="edge">
<title>Node16&#45;&gt;Node47</title>
<path fill="none" stroke="midnightblue" d="M3717.31,-138.68C3730.8,-136.97 3744.83,-135.33 3758,-134 3982.76,-111.36 4040.03,-118.43 4265,-98 4284.03,-96.27 4304.58,-94.13 4323.64,-92.02"/>
<polygon fill="midnightblue" stroke="midnightblue" points="3716.6,-135.24 3707.13,-139.99 3717.49,-142.18 3716.6,-135.24"/>
</g>
<!-- Node48 -->
<g id="node43" class="node">
<title>Node48</title>
<g id="a_node43"><a xlink:href="../../d1/d88/vmaingraphicsscene_8cpp.html" target="_top" xlink:title=" ">
<polygon fill="white" stroke="black" points="4536,-73 4536,-92 4758,-92 4758,-73 4536,-73"/>
<text text-anchor="middle" x="4647" y="-80" font-family="Helvetica,sans-Serif" font-size="10.00">src/libs/vwidgets/vmaingraphicsscene.cpp</text>
</a>
</g>
</g>
<!-- Node16&#45;&gt;Node48 -->
<g id="edge48" class="edge">
<title>Node16&#45;&gt;Node48</title>
<path fill="none" stroke="midnightblue" d="M3715.22,-138.68C3729.34,-136.9 3744.14,-135.23 3758,-134 4098.82,-103.81 4186.04,-126.54 4527,-98 4545.51,-96.45 4565.56,-94.24 4583.88,-92.01"/>
<polygon fill="midnightblue" stroke="midnightblue" points="3714.55,-135.24 3705.08,-139.99 3715.45,-142.18 3714.55,-135.24"/>
</g>
<!-- Node49 -->
<g id="node44" class="node">
<title>Node49</title>
<g id="a_node44"><a xlink:href="../../d2/d31/vmaingraphicsview_8cpp.html" target="_top" xlink:title=" ">
<polygon fill="white" stroke="black" points="4776,-73 4776,-92 4992,-92 4992,-73 4776,-73"/>
<text text-anchor="middle" x="4884" y="-80" font-family="Helvetica,sans-Serif" font-size="10.00">src/libs/vwidgets/vmaingraphicsview.cpp</text>
</a>
</g>
</g>
<!-- Node16&#45;&gt;Node49 -->
<g id="edge49" class="edge">
<title>Node16&#45;&gt;Node49</title>
<path fill="none" stroke="midnightblue" d="M3714.5,-138.65C3728.83,-136.85 3743.9,-135.17 3758,-134 4205.19,-96.9 4319.69,-133.63 4767,-98 4785.46,-96.53 4805.5,-94.29 4823.68,-92"/>
<polygon fill="midnightblue" stroke="midnightblue" points="3713.68,-135.23 3704.21,-139.98 3714.58,-142.17 3713.68,-135.23"/>
</g>
<!-- Node25&#45;&gt;Node26 -->
<g id="edge24" class="edge">
<title>Node25&#45;&gt;Node26</title>
<path fill="none" stroke="midnightblue" d="M5756.49,-63.68C5729.87,-53.26 5696.73,-40.28 5671.95,-30.58"/>
<polygon fill="midnightblue" stroke="midnightblue" points="5755.39,-67.01 5765.98,-67.4 5757.95,-60.49 5755.39,-67.01"/>
</g>
<!-- Node37&#45;&gt;Node38 -->
<g id="edge38" class="edge">
<title>Node37&#45;&gt;Node38</title>
<path fill="none" stroke="midnightblue" d="M1765.78,-64.85C1726.81,-54.25 1676.9,-40.68 1639.88,-30.61"/>
<polygon fill="midnightblue" stroke="midnightblue" points="1764.87,-68.23 1775.43,-67.48 1766.7,-61.47 1764.87,-68.23"/>
</g>
</g>
</svg>
