<?xml version="1.0" encoding="UTF-8" standalone="no"?>
<!DOCTYPE svg PUBLIC "-//W3C//DTD SVG 1.1//EN"
 "http://www.w3.org/Graphics/SVG/1.1/DTD/svg11.dtd">
<!-- Generated by graphviz version 2.43.0 (0)
 -->
<!-- Title: src/libs/vgeometry/vabstractcubicbezierpath.h Pages: 1 -->
<svg width="4902pt" height="318pt"
 viewBox="0.00 0.00 4901.50 318.00" xmlns="http://www.w3.org/2000/svg" xmlns:xlink="http://www.w3.org/1999/xlink">
<g id="graph0" class="graph" transform="scale(1 1) rotate(0) translate(4 314)">
<title>src/libs/vgeometry/vabstractcubicbezierpath.h</title>
<polygon fill="white" stroke="transparent" points="-4,4 -4,-314 4897.5,-314 4897.5,4 -4,4"/>
<!-- Node1 -->
<g id="node1" class="node">
<title>Node1</title>
<g id="a_node1"><a xlink:title=" ">
<polygon fill="#bfbfbf" stroke="black" points="714,-279.5 714,-309.5 866,-309.5 866,-279.5 714,-279.5"/>
<text text-anchor="start" x="722" y="-297.5" font-family="Helvetica,sans-Serif" font-size="10.00">src/libs/vgeometry</text>
<text text-anchor="middle" x="790" y="-286.5" font-family="Helvetica,sans-Serif" font-size="10.00">/vabstractcubicbezierpath.h</text>
</a>
</g>
</g>
<!-- Node2 -->
<g id="node2" class="node">
<title>Node2</title>
<g id="a_node2"><a xlink:href="../../db/d0a/vabstractcubicbezierpath_8cpp.html" target="_top" xlink:title=" ">
<polygon fill="white" stroke="black" points="424.5,-212.5 424.5,-242.5 587.5,-242.5 587.5,-212.5 424.5,-212.5"/>
<text text-anchor="start" x="432.5" y="-230.5" font-family="Helvetica,sans-Serif" font-size="10.00">src/libs/vgeometry</text>
<text text-anchor="middle" x="506" y="-219.5" font-family="Helvetica,sans-Serif" font-size="10.00">/vabstractcubicbezierpath.cpp</text>
</a>
</g>
</g>
<!-- Node1&#45;&gt;Node2 -->
<g id="edge1" class="edge">
<title>Node1&#45;&gt;Node2</title>
<path fill="none" stroke="midnightblue" d="M718.72,-277.19C672.21,-266.54 612.1,-252.78 567.65,-242.61"/>
<polygon fill="midnightblue" stroke="midnightblue" points="718.2,-280.66 728.73,-279.48 719.76,-273.83 718.2,-280.66"/>
</g>
<!-- Node3 -->
<g id="node3" class="node">
<title>Node3</title>
<g id="a_node3"><a xlink:href="../../dd/dbe/vcubicbezierpath_8h.html" target="_top" xlink:title=" ">
<polygon fill="white" stroke="black" points="606,-212.5 606,-242.5 718,-242.5 718,-212.5 606,-212.5"/>
<text text-anchor="start" x="614" y="-230.5" font-family="Helvetica,sans-Serif" font-size="10.00">src/libs/vgeometry</text>
<text text-anchor="middle" x="662" y="-219.5" font-family="Helvetica,sans-Serif" font-size="10.00">/vcubicbezierpath.h</text>
</a>
</g>
</g>
<!-- Node1&#45;&gt;Node3 -->
<g id="edge2" class="edge">
<title>Node1&#45;&gt;Node3</title>
<path fill="none" stroke="midnightblue" d="M753.28,-274.85C733.04,-264.58 708.33,-252.03 689.72,-242.58"/>
<polygon fill="midnightblue" stroke="midnightblue" points="751.72,-277.99 762.23,-279.4 754.89,-271.75 751.72,-277.99"/>
</g>
<!-- Node5 -->
<g id="node5" class="node">
<title>Node5</title>
<g id="a_node5"><a xlink:href="../../d0/d39/vsplinepath_8h.html" target="_top" xlink:title=" ">
<polygon fill="white" stroke="black" points="736.5,-212.5 736.5,-242.5 843.5,-242.5 843.5,-212.5 736.5,-212.5"/>
<text text-anchor="start" x="744.5" y="-230.5" font-family="Helvetica,sans-Serif" font-size="10.00">src/libs/vgeometry</text>
<text text-anchor="middle" x="790" y="-219.5" font-family="Helvetica,sans-Serif" font-size="10.00">/vsplinepath.h</text>
</a>
</g>
</g>
<!-- Node1&#45;&gt;Node5 -->
<g id="edge4" class="edge">
<title>Node1&#45;&gt;Node5</title>
<path fill="none" stroke="midnightblue" d="M790,-269.11C790,-260.15 790,-250.32 790,-242.58"/>
<polygon fill="midnightblue" stroke="midnightblue" points="786.5,-269.4 790,-279.4 793.5,-269.4 786.5,-269.4"/>
</g>
<!-- Node10 -->
<g id="node10" class="node">
<title>Node10</title>
<g id="a_node10"><a xlink:href="../../d6/d46/vcontainer_8cpp.html" target="_top" xlink:title=" ">
<polygon fill="white" stroke="black" points="4786.5,-67.5 4786.5,-97.5 4893.5,-97.5 4893.5,-67.5 4786.5,-67.5"/>
<text text-anchor="start" x="4794.5" y="-85.5" font-family="Helvetica,sans-Serif" font-size="10.00">src/libs/vpatterndb</text>
<text text-anchor="middle" x="4840" y="-74.5" font-family="Helvetica,sans-Serif" font-size="10.00">/vcontainer.cpp</text>
</a>
</g>
</g>
<!-- Node1&#45;&gt;Node10 -->
<g id="edge9" class="edge">
<title>Node1&#45;&gt;Node10</title>
<path fill="none" stroke="midnightblue" d="M876.51,-289.89C1203.43,-276.18 2394.7,-225.59 3376,-176 3999.28,-144.5 4160.27,-186.73 4778,-98 4780.74,-97.61 4783.53,-97.15 4786.34,-96.65"/>
<polygon fill="midnightblue" stroke="midnightblue" points="876.01,-286.41 866.17,-290.32 876.31,-293.4 876.01,-286.41"/>
</g>
<!-- Node11 -->
<g id="node11" class="node">
<title>Node11</title>
<g id="a_node11"><a xlink:href="../../d3/df7/vcontainer_8h.html" target="_top" xlink:title=" ">
<polygon fill="white" stroke="black" points="1286.5,-212.5 1286.5,-242.5 1393.5,-242.5 1393.5,-212.5 1286.5,-212.5"/>
<text text-anchor="start" x="1294.5" y="-230.5" font-family="Helvetica,sans-Serif" font-size="10.00">src/libs/vpatterndb</text>
<text text-anchor="middle" x="1340" y="-219.5" font-family="Helvetica,sans-Serif" font-size="10.00">/vcontainer.h</text>
</a>
</g>
</g>
<!-- Node1&#45;&gt;Node11 -->
<g id="edge10" class="edge">
<title>Node1&#45;&gt;Node11</title>
<path fill="none" stroke="midnightblue" d="M876.36,-283.29C991.3,-269.71 1191.12,-246.1 1286.43,-234.83"/>
<polygon fill="midnightblue" stroke="midnightblue" points="875.71,-279.85 866.19,-284.5 876.53,-286.8 875.71,-279.85"/>
</g>
<!-- Node4 -->
<g id="node4" class="node">
<title>Node4</title>
<g id="a_node4"><a xlink:href="../../de/df0/vcubicbezierpath_8cpp.html" target="_top" xlink:title=" ">
<polygon fill="white" stroke="black" points="101.5,-140 101.5,-170 224.5,-170 224.5,-140 101.5,-140"/>
<text text-anchor="start" x="109.5" y="-158" font-family="Helvetica,sans-Serif" font-size="10.00">src/libs/vgeometry</text>
<text text-anchor="middle" x="163" y="-147" font-family="Helvetica,sans-Serif" font-size="10.00">/vcubicbezierpath.cpp</text>
</a>
</g>
</g>
<!-- Node3&#45;&gt;Node4 -->
<g id="edge3" class="edge">
<title>Node3&#45;&gt;Node4</title>
<path fill="none" stroke="midnightblue" d="M596.3,-212.05C596.2,-212.03 596.1,-212.02 596,-212 435.88,-186.56 392.25,-206.39 233,-176 224.68,-174.41 215.92,-172.29 207.52,-170.01"/>
<polygon fill="midnightblue" stroke="midnightblue" points="595.47,-215.46 605.92,-213.71 596.66,-208.56 595.47,-215.46"/>
</g>
<!-- Node6 -->
<g id="node6" class="node">
<title>Node6</title>
<g id="a_node6"><a xlink:href="../../db/d6a/vsplinepath_8cpp.html" target="_top" xlink:title=" ">
<polygon fill="white" stroke="black" points="242.5,-140 242.5,-170 349.5,-170 349.5,-140 242.5,-140"/>
<text text-anchor="start" x="250.5" y="-158" font-family="Helvetica,sans-Serif" font-size="10.00">src/libs/vgeometry</text>
<text text-anchor="middle" x="296" y="-147" font-family="Helvetica,sans-Serif" font-size="10.00">/vsplinepath.cpp</text>
</a>
</g>
</g>
<!-- Node5&#45;&gt;Node6 -->
<g id="edge5" class="edge">
<title>Node5&#45;&gt;Node6</title>
<path fill="none" stroke="midnightblue" d="M726.54,-212.09C562.57,-186.38 516.19,-208.83 358,-176 350.58,-174.46 342.8,-172.36 335.35,-170.09"/>
<polygon fill="midnightblue" stroke="midnightblue" points="726.05,-215.56 736.48,-213.69 727.16,-208.65 726.05,-215.56"/>
</g>
<!-- Node7 -->
<g id="node7" class="node">
<title>Node7</title>
<g id="a_node7"><a xlink:href="../../d1/d3a/abstracttest_8cpp.html" target="_top" xlink:title=" ">
<polygon fill="white" stroke="black" points="367.5,-145.5 367.5,-164.5 528.5,-164.5 528.5,-145.5 367.5,-145.5"/>
<text text-anchor="middle" x="448" y="-152.5" font-family="Helvetica,sans-Serif" font-size="10.00">src/libs/vtest/abstracttest.cpp</text>
</a>
</g>
</g>
<!-- Node5&#45;&gt;Node7 -->
<g id="edge6" class="edge">
<title>Node5&#45;&gt;Node7</title>
<path fill="none" stroke="midnightblue" d="M726.55,-211.96C641.23,-194.27 618.12,-192.79 537,-176 519.79,-172.44 500.77,-168.2 484.75,-164.55"/>
<polygon fill="midnightblue" stroke="midnightblue" points="725.91,-215.4 736.42,-214.02 727.34,-208.55 725.91,-215.4"/>
</g>
<!-- Node8 -->
<g id="node8" class="node">
<title>Node8</title>
<g id="a_node8"><a xlink:href="../../d8/d13/vcontrolpointspline_8h.html" target="_top" xlink:title=" ">
<polygon fill="white" stroke="black" points="1570,-145.5 1570,-164.5 1774,-164.5 1774,-145.5 1570,-145.5"/>
<text text-anchor="middle" x="1672" y="-152.5" font-family="Helvetica,sans-Serif" font-size="10.00">src/libs/vwidgets/vcontrolpointspline.h</text>
</a>
</g>
</g>
<!-- Node5&#45;&gt;Node8 -->
<g id="edge7" class="edge">
<title>Node5&#45;&gt;Node8</title>
<path fill="none" stroke="midnightblue" d="M854.02,-223.27C980.52,-216.62 1271.35,-199.99 1515,-176 1546.99,-172.85 1582.54,-168.4 1611.7,-164.5"/>
<polygon fill="midnightblue" stroke="midnightblue" points="853.55,-219.79 843.75,-223.81 853.92,-226.78 853.55,-219.79"/>
</g>
<!-- Node9 -->
<g id="node9" class="node">
<title>Node9</title>
<g id="a_node9"><a xlink:href="../../de/d45/vcontrolpointspline_8cpp.html" target="_top" xlink:title=" ">
<polygon fill="white" stroke="black" points="1567.5,-73 1567.5,-92 1782.5,-92 1782.5,-73 1567.5,-73"/>
<text text-anchor="middle" x="1675" y="-80" font-family="Helvetica,sans-Serif" font-size="10.00">src/libs/vwidgets/vcontrolpointspline.cpp</text>
</a>
</g>
</g>
<!-- Node8&#45;&gt;Node9 -->
<g id="edge8" class="edge">
<title>Node8&#45;&gt;Node9</title>
<path fill="none" stroke="midnightblue" d="M1672.79,-135.36C1673.39,-121.4 1674.17,-102.93 1674.63,-92.22"/>
<polygon fill="midnightblue" stroke="midnightblue" points="1669.3,-135.22 1672.37,-145.36 1676.29,-135.51 1669.3,-135.22"/>
</g>
<!-- Node11&#45;&gt;Node7 -->
<g id="edge61" class="edge">
<title>Node11&#45;&gt;Node7</title>
<path fill="none" stroke="midnightblue" d="M1275.86,-225.9C1139.28,-223.88 809.91,-215 537,-176 518.03,-173.29 497.11,-168.67 480.32,-164.56"/>
<polygon fill="midnightblue" stroke="midnightblue" points="1276.09,-229.41 1286.14,-226.05 1276.19,-222.41 1276.09,-229.41"/>
</g>
<!-- Node11&#45;&gt;Node10 -->
<g id="edge56" class="edge">
<title>Node11&#45;&gt;Node10</title>
<path fill="none" stroke="midnightblue" d="M1404.14,-226.07C1719.85,-223.78 3096.87,-211.78 3180,-176 3204.25,-165.56 3197.73,-144.38 3222,-134 3381,-65.98 4606.45,-119.81 4778,-98 4780.74,-97.65 4783.54,-97.23 4786.35,-96.76"/>
<polygon fill="midnightblue" stroke="midnightblue" points="1403.77,-222.57 1393.8,-226.14 1403.82,-229.57 1403.77,-222.57"/>
</g>
<!-- Node12 -->
<g id="node12" class="node">
<title>Node12</title>
<g id="a_node12"><a xlink:href="../../dc/db7/measurements_8h.html" target="_top" xlink:title=" ">
<polygon fill="white" stroke="black" points="546.5,-145.5 546.5,-164.5 725.5,-164.5 725.5,-145.5 546.5,-145.5"/>
<text text-anchor="middle" x="636" y="-152.5" font-family="Helvetica,sans-Serif" font-size="10.00">src/libs/vformat/measurements.h</text>
</a>
</g>
</g>
<!-- Node11&#45;&gt;Node12 -->
<g id="edge11" class="edge">
<title>Node11&#45;&gt;Node12</title>
<path fill="none" stroke="midnightblue" d="M1276.16,-223.36C1166.26,-217.44 934.37,-202.79 740,-176 718.51,-173.04 694.73,-168.56 675.34,-164.59"/>
<polygon fill="midnightblue" stroke="midnightblue" points="1276.24,-226.86 1286.41,-223.9 1276.61,-219.87 1276.24,-226.86"/>
</g>
<!-- Node13 -->
<g id="node13" class="node">
<title>Node13</title>
<g id="a_node13"><a xlink:href="../../d9/de3/measurements_8cpp.html" target="_top" xlink:title=" ">
<polygon fill="white" stroke="black" points="0,-73 0,-92 190,-92 190,-73 0,-73"/>
<text text-anchor="middle" x="95" y="-80" font-family="Helvetica,sans-Serif" font-size="10.00">src/libs/vformat/measurements.cpp</text>
</a>
</g>
</g>
<!-- Node11&#45;&gt;Node13 -->
<g id="edge13" class="edge">
<title>Node11&#45;&gt;Node13</title>
<path fill="none" stroke="midnightblue" d="M1276.34,-226.51C1147.39,-225.61 860.16,-218.71 773,-176 750.13,-164.79 756.99,-144.96 734,-134 626.44,-82.73 317.53,-110.23 199,-98 183.31,-96.38 166.35,-94.2 150.77,-92.02"/>
<polygon fill="midnightblue" stroke="midnightblue" points="1276.44,-230.01 1286.46,-226.57 1276.49,-223.01 1276.44,-230.01"/>
</g>
<!-- Node14 -->
<g id="node14" class="node">
<title>Node14</title>
<g id="a_node14"><a xlink:href="../../d6/de0/vlayoutpiece_8h.html" target="_top" xlink:title=" ">
<polygon fill="white" stroke="black" points="1340,-145.5 1340,-164.5 1506,-164.5 1506,-145.5 1340,-145.5"/>
<text text-anchor="middle" x="1423" y="-152.5" font-family="Helvetica,sans-Serif" font-size="10.00">src/libs/vlayout/vlayoutpiece.h</text>
</a>
</g>
</g>
<!-- Node11&#45;&gt;Node14 -->
<g id="edge14" class="edge">
<title>Node11&#45;&gt;Node14</title>
<path fill="none" stroke="midnightblue" d="M1364.71,-205.51C1380.66,-191.96 1400.59,-175.03 1412.53,-164.89"/>
<polygon fill="midnightblue" stroke="midnightblue" points="1362.15,-203.09 1356.8,-212.23 1366.68,-208.43 1362.15,-203.09"/>
</g>
<!-- Node24 -->
<g id="node23" class="node">
<title>Node24</title>
<g id="a_node23"><a xlink:href="../../d8/d70/vtextmanager_8cpp.html" target="_top" xlink:title=" ">
<polygon fill="white" stroke="black" points="1801,-73 1801,-92 1983,-92 1983,-73 1801,-73"/>
<text text-anchor="middle" x="1892" y="-80" font-family="Helvetica,sans-Serif" font-size="10.00">src/libs/vlayout/vtextmanager.cpp</text>
</a>
</g>
</g>
<!-- Node11&#45;&gt;Node24 -->
<g id="edge25" class="edge">
<title>Node11&#45;&gt;Node24</title>
<path fill="none" stroke="midnightblue" d="M1403.87,-223.78C1509.7,-218.52 1716.4,-204.83 1783,-176 1828.55,-156.28 1869.46,-110.91 1885.17,-92.01"/>
<polygon fill="midnightblue" stroke="midnightblue" points="1403.45,-220.3 1393.64,-224.28 1403.79,-227.29 1403.45,-220.3"/>
</g>
<!-- Node25 -->
<g id="node24" class="node">
<title>Node25</title>
<g id="a_node24"><a xlink:href="../../d5/d74/vabstractapplication_8h.html" target="_top" xlink:title=" ">
<polygon fill="white" stroke="red" points="2904.5,-145.5 2904.5,-164.5 3099.5,-164.5 3099.5,-145.5 2904.5,-145.5"/>
<text text-anchor="middle" x="3002" y="-152.5" font-family="Helvetica,sans-Serif" font-size="10.00">src/libs/vmisc/vabstractapplication.h</text>
</a>
</g>
</g>
<!-- Node11&#45;&gt;Node25 -->
<g id="edge26" class="edge">
<title>Node11&#45;&gt;Node25</title>
<path fill="none" stroke="midnightblue" d="M1404.06,-223.78C1658.31,-213 2597.36,-173.16 2904.26,-160.15"/>
<polygon fill="midnightblue" stroke="midnightblue" points="1403.73,-220.29 1393.88,-224.21 1404.02,-227.29 1403.73,-220.29"/>
</g>
<!-- Node43 -->
<g id="node38" class="node">
<title>Node43</title>
<g id="a_node38"><a xlink:href="../../db/d11/vformula_8cpp.html" target="_top" xlink:title=" ">
<polygon fill="white" stroke="black" points="4536.5,-67.5 4536.5,-97.5 4643.5,-97.5 4643.5,-67.5 4536.5,-67.5"/>
<text text-anchor="start" x="4544.5" y="-85.5" font-family="Helvetica,sans-Serif" font-size="10.00">src/libs/vpatterndb</text>
<text text-anchor="middle" x="4590" y="-74.5" font-family="Helvetica,sans-Serif" font-size="10.00">/vformula.cpp</text>
</a>
</g>
</g>
<!-- Node11&#45;&gt;Node43 -->
<g id="edge55" class="edge">
<title>Node11&#45;&gt;Node43</title>
<path fill="none" stroke="midnightblue" d="M1403.67,-226C1710.96,-223.42 3029.27,-210.37 3109,-176 3133.24,-165.55 3126.74,-144.42 3151,-134 3291.62,-73.59 4376.2,-117.53 4528,-98 4530.74,-97.65 4533.54,-97.23 4536.35,-96.75"/>
<polygon fill="midnightblue" stroke="midnightblue" points="1403.56,-222.5 1393.59,-226.08 1403.62,-229.5 1403.56,-222.5"/>
</g>
<!-- Node44 -->
<g id="node39" class="node">
<title>Node44</title>
<g id="a_node39"><a xlink:href="../../df/d7a/vpiece_8cpp.html" target="_top" xlink:title=" ">
<polygon fill="white" stroke="black" points="4661.5,-67.5 4661.5,-97.5 4768.5,-97.5 4768.5,-67.5 4661.5,-67.5"/>
<text text-anchor="start" x="4669.5" y="-85.5" font-family="Helvetica,sans-Serif" font-size="10.00">src/libs/vpatterndb</text>
<text text-anchor="middle" x="4715" y="-74.5" font-family="Helvetica,sans-Serif" font-size="10.00">/vpiece.cpp</text>
</a>
</g>
</g>
<!-- Node11&#45;&gt;Node44 -->
<g id="edge58" class="edge">
<title>Node11&#45;&gt;Node44</title>
<path fill="none" stroke="midnightblue" d="M1403.88,-225.98C1715.22,-223.27 3062.01,-209.65 3144,-176 3169.31,-165.61 3163.67,-144.34 3189,-134 3339.64,-72.48 4491.6,-118.64 4653,-98 4655.74,-97.65 4658.54,-97.23 4661.35,-96.76"/>
<polygon fill="midnightblue" stroke="midnightblue" points="1403.64,-222.48 1393.67,-226.07 1403.7,-229.48 1403.64,-222.48"/>
</g>
<!-- Node47 -->
<g id="node42" class="node">
<title>Node47</title>
<g id="a_node42"><a xlink:href="../../d8/dba/vpiecenode_8cpp.html" target="_top" xlink:title=" ">
<polygon fill="white" stroke="black" points="1743.5,-0.5 1743.5,-30.5 1850.5,-30.5 1850.5,-0.5 1743.5,-0.5"/>
<text text-anchor="start" x="1751.5" y="-18.5" font-family="Helvetica,sans-Serif" font-size="10.00">src/libs/vpatterndb</text>
<text text-anchor="middle" x="1797" y="-7.5" font-family="Helvetica,sans-Serif" font-size="10.00">/vpiecenode.cpp</text>
</a>
</g>
</g>
<!-- Node11&#45;&gt;Node47 -->
<g id="edge59" class="edge">
<title>Node11&#45;&gt;Node47</title>
<path fill="none" stroke="midnightblue" d="M1403.83,-221.77C1440.28,-216 1484.63,-203.4 1515,-176 1553.79,-141 1518.98,-100.58 1559,-67 1586.42,-43.99 1681.87,-29.31 1743.24,-22.02"/>
<polygon fill="midnightblue" stroke="midnightblue" points="1403.17,-218.33 1393.77,-223.22 1404.17,-225.25 1403.17,-218.33"/>
</g>
<!-- Node62 -->
<g id="node46" class="node">
<title>Node62</title>
<g id="a_node46"><a xlink:href="../../d7/d8a/measurement__variable__p_8h.html" target="_top" xlink:title=" ">
<polygon fill="white" stroke="red" points="3231,-134.5 3231,-175.5 3367,-175.5 3367,-134.5 3231,-134.5"/>
<text text-anchor="start" x="3239" y="-163.5" font-family="Helvetica,sans-Serif" font-size="10.00">src/libs/vpatterndb</text>
<text text-anchor="start" x="3239" y="-152.5" font-family="Helvetica,sans-Serif" font-size="10.00">/variables/measurement</text>
<text text-anchor="middle" x="3299" y="-141.5" font-family="Helvetica,sans-Serif" font-size="10.00">_variable_p.h</text>
</a>
</g>
</g>
<!-- Node11&#45;&gt;Node62 -->
<g id="edge53" class="edge">
<title>Node11&#45;&gt;Node62</title>
<path fill="none" stroke="midnightblue" d="M1403.76,-226.6C1689.64,-226.77 2855.15,-224.44 3217,-176 3221.5,-175.4 3226.12,-174.65 3230.75,-173.79"/>
<polygon fill="midnightblue" stroke="midnightblue" points="1403.57,-223.1 1393.57,-226.59 1403.56,-230.1 1403.57,-223.1"/>
</g>
<!-- Node64 -->
<g id="node47" class="node">
<title>Node64</title>
<g id="a_node47"><a xlink:href="../../d1/de1/vincrement__p_8h.html" target="_top" xlink:title=" ">
<polygon fill="white" stroke="red" points="782.5,-140 782.5,-170 925.5,-170 925.5,-140 782.5,-140"/>
<text text-anchor="start" x="790.5" y="-158" font-family="Helvetica,sans-Serif" font-size="10.00">src/libs/vpatterndb</text>
<text text-anchor="middle" x="854" y="-147" font-family="Helvetica,sans-Serif" font-size="10.00">/variables/vincrement_p.h</text>
</a>
</g>
</g>
<!-- Node11&#45;&gt;Node64 -->
<g id="edge54" class="edge">
<title>Node11&#45;&gt;Node64</title>
<path fill="none" stroke="midnightblue" d="M1275.88,-220.86C1195.72,-213.28 1054.52,-198.13 935,-176 925.88,-174.31 916.26,-172.22 906.96,-170.03"/>
<polygon fill="midnightblue" stroke="midnightblue" points="1276.01,-224.39 1286.3,-221.84 1276.67,-217.42 1276.01,-224.39"/>
</g>
<!-- Node66 -->
<g id="node48" class="node">
<title>Node66</title>
<g id="a_node48"><a xlink:href="../../d6/d91/vnodedetail_8cpp.html" target="_top" xlink:title=" ">
<polygon fill="white" stroke="black" points="943.5,-140 943.5,-170 1050.5,-170 1050.5,-140 943.5,-140"/>
<text text-anchor="start" x="951.5" y="-158" font-family="Helvetica,sans-Serif" font-size="10.00">src/libs/vpatterndb</text>
<text text-anchor="middle" x="997" y="-147" font-family="Helvetica,sans-Serif" font-size="10.00">/vnodedetail.cpp</text>
</a>
</g>
</g>
<!-- Node11&#45;&gt;Node66 -->
<g id="edge57" class="edge">
<title>Node11&#45;&gt;Node66</title>
<path fill="none" stroke="midnightblue" d="M1276.45,-217.43C1219.37,-208.72 1133.5,-194.21 1060,-176 1053.09,-174.29 1045.84,-172.23 1038.81,-170.1"/>
<polygon fill="midnightblue" stroke="midnightblue" points="1276,-220.9 1286.41,-218.94 1277.05,-213.98 1276,-220.9"/>
</g>
<!-- Node67 -->
<g id="node49" class="node">
<title>Node67</title>
<g id="a_node49"><a xlink:href="../../da/de1/vpiecepath_8cpp.html" target="_top" xlink:title=" ">
<polygon fill="white" stroke="black" points="1068.5,-140 1068.5,-170 1175.5,-170 1175.5,-140 1068.5,-140"/>
<text text-anchor="start" x="1076.5" y="-158" font-family="Helvetica,sans-Serif" font-size="10.00">src/libs/vpatterndb</text>
<text text-anchor="middle" x="1122" y="-147" font-family="Helvetica,sans-Serif" font-size="10.00">/vpiecepath.cpp</text>
</a>
</g>
</g>
<!-- Node11&#45;&gt;Node67 -->
<g id="edge60" class="edge">
<title>Node11&#45;&gt;Node67</title>
<path fill="none" stroke="midnightblue" d="M1286.99,-209.36C1249.77,-197.32 1200.58,-181.41 1165.62,-170.11"/>
<polygon fill="midnightblue" stroke="midnightblue" points="1286.08,-212.74 1296.67,-212.49 1288.23,-206.08 1286.08,-212.74"/>
</g>
<!-- Node68 -->
<g id="node50" class="node">
<title>Node68</title>
<g id="a_node50"><a xlink:href="../../da/db4/piece__tablewidgetitem_8cpp.html" target="_top" xlink:title=" ">
<polygon fill="white" stroke="black" points="1194,-140 1194,-170 1322,-170 1322,-140 1194,-140"/>
<text text-anchor="start" x="1202" y="-158" font-family="Helvetica,sans-Serif" font-size="10.00">src/libs/vwidgets/piece</text>
<text text-anchor="middle" x="1258" y="-147" font-family="Helvetica,sans-Serif" font-size="10.00">_tablewidgetitem.cpp</text>
</a>
</g>
</g>
<!-- Node11&#45;&gt;Node68 -->
<g id="edge62" class="edge">
<title>Node11&#45;&gt;Node68</title>
<path fill="none" stroke="midnightblue" d="M1315.53,-205.46C1302.2,-194 1286.07,-180.14 1274.29,-170"/>
<polygon fill="midnightblue" stroke="midnightblue" points="1313.54,-208.37 1323.41,-212.23 1318.11,-203.06 1313.54,-208.37"/>
</g>
<!-- Node12&#45;&gt;Node13 -->
<g id="edge12" class="edge">
<title>Node12&#45;&gt;Node13</title>
<path fill="none" stroke="midnightblue" d="M588.27,-143.42C572.05,-140.08 553.79,-136.58 537,-134 387.69,-111.02 348.94,-116.43 199,-98 184.34,-96.2 168.55,-94.09 153.81,-92.04"/>
<polygon fill="midnightblue" stroke="midnightblue" points="587.56,-146.85 598.07,-145.47 589,-140 587.56,-146.85"/>
</g>
<!-- Node15 -->
<g id="node15" class="node">
<title>Node15</title>
<g id="a_node15"><a xlink:href="../../dd/d66/vdxfengine_8cpp.html" target="_top" xlink:title=" ">
<polygon fill="white" stroke="black" points="1000,-73 1000,-92 1154,-92 1154,-73 1000,-73"/>
<text text-anchor="middle" x="1077" y="-80" font-family="Helvetica,sans-Serif" font-size="10.00">src/libs/vdxf/vdxfengine.cpp</text>
</a>
</g>
</g>
<!-- Node14&#45;&gt;Node15 -->
<g id="edge15" class="edge">
<title>Node14&#45;&gt;Node15</title>
<path fill="none" stroke="midnightblue" d="M1374.58,-143.3C1360.53,-140.25 1345.16,-136.95 1331,-134 1257.49,-118.7 1171.8,-101.87 1121.1,-92.02"/>
<polygon fill="midnightblue" stroke="midnightblue" points="1374.02,-146.76 1384.54,-145.48 1375.51,-139.93 1374.02,-146.76"/>
</g>
<!-- Node16 -->
<g id="node16" class="node">
<title>Node16</title>
<g id="a_node16"><a xlink:href="../../de/da8/vbank_8cpp.html" target="_top" xlink:title=" ">
<polygon fill="white" stroke="black" points="1172,-73 1172,-92 1316,-92 1316,-73 1172,-73"/>
<text text-anchor="middle" x="1244" y="-80" font-family="Helvetica,sans-Serif" font-size="10.00">src/libs/vlayout/vbank.cpp</text>
</a>
</g>
</g>
<!-- Node14&#45;&gt;Node16 -->
<g id="edge16" class="edge">
<title>Node14&#45;&gt;Node16</title>
<path fill="none" stroke="midnightblue" d="M1391.86,-141.74C1355.75,-127.51 1297.16,-104.44 1265.67,-92.03"/>
<polygon fill="midnightblue" stroke="midnightblue" points="1390.82,-145.09 1401.41,-145.5 1393.39,-138.57 1390.82,-145.09"/>
</g>
<!-- Node17 -->
<g id="node17" class="node">
<title>Node17</title>
<g id="a_node17"><a xlink:href="../../df/d5d/vcontour_8cpp.html" target="_top" xlink:title=" ">
<polygon fill="white" stroke="black" points="374,-73 374,-92 530,-92 530,-73 374,-73"/>
<text text-anchor="middle" x="452" y="-80" font-family="Helvetica,sans-Serif" font-size="10.00">src/libs/vlayout/vcontour.cpp</text>
</a>
</g>
</g>
<!-- Node14&#45;&gt;Node17 -->
<g id="edge17" class="edge">
<title>Node14&#45;&gt;Node17</title>
<path fill="none" stroke="midnightblue" d="M1380.24,-143.14C1364.82,-139.63 1347.22,-136.12 1331,-134 981.6,-88.41 889.41,-135.03 539,-98 525.3,-96.55 510.47,-94.33 497.01,-92.06"/>
<polygon fill="midnightblue" stroke="midnightblue" points="1379.49,-146.55 1390.02,-145.42 1381.08,-139.74 1379.49,-146.55"/>
</g>
<!-- Node18 -->
<g id="node18" class="node">
<title>Node18</title>
<g id="a_node18"><a xlink:href="../../d2/d2d/vlayoutpaper__p_8h.html" target="_top" xlink:title=" ">
<polygon fill="white" stroke="black" points="548.5,-73 548.5,-92 727.5,-92 727.5,-73 548.5,-73"/>
<text text-anchor="middle" x="638" y="-80" font-family="Helvetica,sans-Serif" font-size="10.00">src/libs/vlayout/vlayoutpaper_p.h</text>
</a>
</g>
</g>
<!-- Node14&#45;&gt;Node18 -->
<g id="edge18" class="edge">
<title>Node14&#45;&gt;Node18</title>
<path fill="none" stroke="midnightblue" d="M1379.4,-143.09C1364.18,-139.66 1346.92,-136.2 1331,-134 1071.21,-98.04 1002.96,-124.13 742,-98 726.13,-96.41 708.96,-94.21 693.23,-92.01"/>
<polygon fill="midnightblue" stroke="midnightblue" points="1379.04,-146.6 1389.57,-145.44 1380.62,-139.78 1379.04,-146.6"/>
</g>
<!-- Node19 -->
<g id="node19" class="node">
<title>Node19</title>
<g id="a_node19"><a xlink:href="../../d1/dd1/vlayoutpaper_8cpp.html" target="_top" xlink:title=" ">
<polygon fill="white" stroke="black" points="549,-6 549,-25 727,-25 727,-6 549,-6"/>
<text text-anchor="middle" x="638" y="-13" font-family="Helvetica,sans-Serif" font-size="10.00">src/libs/vlayout/vlayoutpaper.cpp</text>
</a>
</g>
</g>
<!-- Node14&#45;&gt;Node19 -->
<g id="edge21" class="edge">
<title>Node14&#45;&gt;Node19</title>
<path fill="none" stroke="midnightblue" d="M1379.4,-143.12C1364.17,-139.7 1346.91,-136.23 1331,-134 1208.39,-116.8 890.52,-142.56 775,-98 754.34,-90.03 754.6,-79.02 736,-67 709.96,-50.17 677.63,-34.42 657.4,-25.12"/>
<polygon fill="midnightblue" stroke="midnightblue" points="1379.04,-146.63 1389.57,-145.47 1380.61,-139.81 1379.04,-146.63"/>
</g>
<!-- Node20 -->
<g id="node20" class="node">
<title>Node20</title>
<g id="a_node20"><a xlink:href="../../d3/d39/vlayoutgenerator_8cpp.html" target="_top" xlink:title=" ">
<polygon fill="white" stroke="black" points="784.5,-73 784.5,-92 981.5,-92 981.5,-73 784.5,-73"/>
<text text-anchor="middle" x="883" y="-80" font-family="Helvetica,sans-Serif" font-size="10.00">src/libs/vlayout/vlayoutgenerator.cpp</text>
</a>
</g>
</g>
<!-- Node14&#45;&gt;Node20 -->
<g id="edge20" class="edge">
<title>Node14&#45;&gt;Node20</title>
<path fill="none" stroke="midnightblue" d="M1377.82,-143.16C1362.97,-139.87 1346.34,-136.47 1331,-134 1180.98,-109.82 1141.87,-116.11 991,-98 975.79,-96.17 959.39,-94.05 944.08,-92"/>
<polygon fill="midnightblue" stroke="midnightblue" points="1377.26,-146.62 1387.78,-145.41 1378.8,-139.79 1377.26,-146.62"/>
</g>
<!-- Node21 -->
<g id="node21" class="node">
<title>Node21</title>
<g id="a_node21"><a xlink:href="../../db/d5c/vposition_8h.html" target="_top" xlink:title=" ">
<polygon fill="white" stroke="red" points="208,-73 208,-92 356,-92 356,-73 208,-73"/>
<text text-anchor="middle" x="282" y="-80" font-family="Helvetica,sans-Serif" font-size="10.00">src/libs/vlayout/vposition.h</text>
</a>
</g>
</g>
<!-- Node14&#45;&gt;Node21 -->
<g id="edge22" class="edge">
<title>Node14&#45;&gt;Node21</title>
<path fill="none" stroke="midnightblue" d="M1380.63,-143.15C1365.12,-139.61 1347.36,-136.07 1331,-134 904.76,-80.16 792.26,-143.07 365,-98 351.76,-96.6 337.45,-94.37 324.49,-92.07"/>
<polygon fill="midnightblue" stroke="midnightblue" points="1379.92,-146.58 1390.46,-145.45 1381.52,-139.76 1379.92,-146.58"/>
</g>
<!-- Node23 -->
<g id="node22" class="node">
<title>Node23</title>
<g id="a_node22"><a xlink:href="../../dd/d70/vlayoutpiece_8cpp.html" target="_top" xlink:title=" ">
<polygon fill="white" stroke="black" points="1334.5,-73 1334.5,-92 1511.5,-92 1511.5,-73 1334.5,-73"/>
<text text-anchor="middle" x="1423" y="-80" font-family="Helvetica,sans-Serif" font-size="10.00">src/libs/vlayout/vlayoutpiece.cpp</text>
</a>
</g>
</g>
<!-- Node14&#45;&gt;Node23 -->
<g id="edge24" class="edge">
<title>Node14&#45;&gt;Node23</title>
<path fill="none" stroke="midnightblue" d="M1423,-134.94C1423,-121.03 1423,-102.82 1423,-92.22"/>
<polygon fill="midnightblue" stroke="midnightblue" points="1419.5,-135.36 1423,-145.36 1426.5,-135.36 1419.5,-135.36"/>
</g>
<!-- Node18&#45;&gt;Node19 -->
<g id="edge19" class="edge">
<title>Node18&#45;&gt;Node19</title>
<path fill="none" stroke="midnightblue" d="M638,-62.54C638,-50.17 638,-34.62 638,-25.13"/>
<polygon fill="midnightblue" stroke="midnightblue" points="634.5,-62.73 638,-72.73 641.5,-62.73 634.5,-62.73"/>
</g>
<!-- Node21&#45;&gt;Node19 -->
<g id="edge23" class="edge">
<title>Node21&#45;&gt;Node19</title>
<path fill="none" stroke="midnightblue" d="M338.87,-71.12C408.84,-58.34 526.31,-36.89 591.27,-25.03"/>
<polygon fill="midnightblue" stroke="midnightblue" points="338.12,-67.7 328.91,-72.94 339.37,-74.58 338.12,-67.7"/>
</g>
<!-- Node25&#45;&gt;Node9 -->
<g id="edge52" class="edge">
<title>Node25&#45;&gt;Node9</title>
<path fill="none" stroke="midnightblue" d="M2894.02,-151.79C2682.29,-146.85 2197.88,-132.49 1792,-98 1773.95,-96.47 1754.4,-94.26 1736.54,-92.03"/>
<polygon fill="midnightblue" stroke="midnightblue" points="2894.12,-155.3 2904.2,-152.03 2894.28,-148.3 2894.12,-155.3"/>
</g>
<!-- Node25&#45;&gt;Node10 -->
<g id="edge44" class="edge">
<title>Node25&#45;&gt;Node10</title>
<path fill="none" stroke="midnightblue" d="M3079.19,-144.27C3112.86,-140.41 3152.83,-136.34 3189,-134 3541.47,-111.2 4427.61,-142.45 4778,-98 4780.74,-97.65 4783.54,-97.23 4786.36,-96.76"/>
<polygon fill="midnightblue" stroke="midnightblue" points="3078.49,-140.83 3068.96,-145.46 3079.3,-147.78 3078.49,-140.83"/>
</g>
<!-- Node25&#45;&gt;Node23 -->
<g id="edge38" class="edge">
<title>Node25&#45;&gt;Node23</title>
<path fill="none" stroke="midnightblue" d="M2894.2,-152.3C2654.11,-147.97 2057.26,-134.19 1559,-98 1537.92,-96.47 1515.06,-94.25 1494.21,-92.01"/>
<polygon fill="midnightblue" stroke="midnightblue" points="2894.26,-155.8 2904.33,-152.48 2894.39,-148.8 2894.26,-155.8"/>
</g>
<!-- Node25&#45;&gt;Node24 -->
<g id="edge37" class="edge">
<title>Node25&#45;&gt;Node24</title>
<path fill="none" stroke="midnightblue" d="M2894.12,-151.1C2709.27,-145.44 2320.27,-130.51 1993,-98 1977.4,-96.45 1960.51,-94.24 1945.1,-92.01"/>
<polygon fill="midnightblue" stroke="midnightblue" points="2894.28,-154.6 2904.38,-151.41 2894.49,-147.61 2894.28,-154.6"/>
</g>
<!-- Node26 -->
<g id="node25" class="node">
<title>Node26</title>
<g id="a_node25"><a xlink:href="../../d4/d90/fvupdater_8cpp.html" target="_top" xlink:title=" ">
<polygon fill="white" stroke="black" points="2126.5,-73 2126.5,-92 2279.5,-92 2279.5,-73 2126.5,-73"/>
<text text-anchor="middle" x="2203" y="-80" font-family="Helvetica,sans-Serif" font-size="10.00">src/libs/fervor/fvupdater.cpp</text>
</a>
</g>
</g>
<!-- Node25&#45;&gt;Node26 -->
<g id="edge27" class="edge">
<title>Node25&#45;&gt;Node26</title>
<path fill="none" stroke="midnightblue" d="M2893.98,-148.5C2754.04,-140.7 2502.7,-124.35 2289,-98 2275.93,-96.39 2261.81,-94.2 2248.86,-92.01"/>
<polygon fill="midnightblue" stroke="midnightblue" points="2894.09,-152.02 2904.27,-149.07 2894.48,-145.03 2894.09,-152.02"/>
</g>
<!-- Node27 -->
<g id="node26" class="node">
<title>Node27</title>
<g id="a_node26"><a xlink:href="../../d9/dc8/dxiface_8cpp.html" target="_top" xlink:title=" ">
<polygon fill="white" stroke="black" points="2297.5,-73 2297.5,-92 2432.5,-92 2432.5,-73 2297.5,-73"/>
<text text-anchor="middle" x="2365" y="-80" font-family="Helvetica,sans-Serif" font-size="10.00">src/libs/vdxf/dxiface.cpp</text>
</a>
</g>
</g>
<!-- Node25&#45;&gt;Node27 -->
<g id="edge28" class="edge">
<title>Node25&#45;&gt;Node27</title>
<path fill="none" stroke="midnightblue" d="M2894.28,-146.01C2781.28,-136.98 2598.66,-120.54 2442,-98 2430.56,-96.35 2418.22,-94.2 2406.85,-92.06"/>
<polygon fill="midnightblue" stroke="midnightblue" points="2894.07,-149.5 2904.32,-146.81 2894.63,-142.53 2894.07,-149.5"/>
</g>
<!-- Node28 -->
<g id="node27" class="node">
<title>Node28</title>
<g id="a_node27"><a xlink:href="../../da/d75/vabstractarc__p_8h.html" target="_top" xlink:title=" ">
<polygon fill="white" stroke="red" points="2450.5,-67.5 2450.5,-97.5 2557.5,-97.5 2557.5,-67.5 2450.5,-67.5"/>
<text text-anchor="start" x="2458.5" y="-85.5" font-family="Helvetica,sans-Serif" font-size="10.00">src/libs/vgeometry</text>
<text text-anchor="middle" x="2504" y="-74.5" font-family="Helvetica,sans-Serif" font-size="10.00">/vabstractarc_p.h</text>
</a>
</g>
</g>
<!-- Node25&#45;&gt;Node28 -->
<g id="edge29" class="edge">
<title>Node25&#45;&gt;Node28</title>
<path fill="none" stroke="midnightblue" d="M2906.18,-144.4C2817.76,-134.89 2683.02,-118.77 2567,-98 2563.91,-97.45 2560.74,-96.84 2557.54,-96.2"/>
<polygon fill="midnightblue" stroke="midnightblue" points="2905.88,-147.89 2916.19,-145.47 2906.62,-140.93 2905.88,-147.89"/>
</g>
<!-- Node30 -->
<g id="node28" class="node">
<title>Node30</title>
<g id="a_node28"><a xlink:href="../../dc/da3/varc__p_8h.html" target="_top" xlink:title=" ">
<polygon fill="white" stroke="red" points="2575.5,-67.5 2575.5,-97.5 2682.5,-97.5 2682.5,-67.5 2575.5,-67.5"/>
<text text-anchor="start" x="2583.5" y="-85.5" font-family="Helvetica,sans-Serif" font-size="10.00">src/libs/vgeometry</text>
<text text-anchor="middle" x="2629" y="-74.5" font-family="Helvetica,sans-Serif" font-size="10.00">/varc_p.h</text>
</a>
</g>
</g>
<!-- Node25&#45;&gt;Node30 -->
<g id="edge30" class="edge">
<title>Node25&#45;&gt;Node30</title>
<path fill="none" stroke="midnightblue" d="M2940.46,-143.77C2877.79,-133.14 2777.89,-115.63 2692,-98 2688.92,-97.37 2685.76,-96.7 2682.58,-96.01"/>
<polygon fill="midnightblue" stroke="midnightblue" points="2940.13,-147.26 2950.57,-145.48 2941.29,-140.36 2940.13,-147.26"/>
</g>
<!-- Node32 -->
<g id="node29" class="node">
<title>Node32</title>
<g id="a_node29"><a xlink:href="../../d5/d8e/vcubicbezier__p_8h.html" target="_top" xlink:title=" ">
<polygon fill="white" stroke="red" points="2700.5,-67.5 2700.5,-97.5 2807.5,-97.5 2807.5,-67.5 2700.5,-67.5"/>
<text text-anchor="start" x="2708.5" y="-85.5" font-family="Helvetica,sans-Serif" font-size="10.00">src/libs/vgeometry</text>
<text text-anchor="middle" x="2754" y="-74.5" font-family="Helvetica,sans-Serif" font-size="10.00">/vcubicbezier_p.h</text>
</a>
</g>
</g>
<!-- Node25&#45;&gt;Node32 -->
<g id="edge31" class="edge">
<title>Node25&#45;&gt;Node32</title>
<path fill="none" stroke="midnightblue" d="M2962.21,-142.69C2918.99,-130.4 2849.89,-110.76 2803.27,-97.51"/>
<polygon fill="midnightblue" stroke="midnightblue" points="2961.51,-146.13 2972.09,-145.5 2963.42,-139.39 2961.51,-146.13"/>
</g>
<!-- Node34 -->
<g id="node30" class="node">
<title>Node34</title>
<g id="a_node30"><a xlink:href="../../df/dde/vellipticalarc__p_8h.html" target="_top" xlink:title=" ">
<polygon fill="white" stroke="black" points="2825.5,-67.5 2825.5,-97.5 2932.5,-97.5 2932.5,-67.5 2825.5,-67.5"/>
<text text-anchor="start" x="2833.5" y="-85.5" font-family="Helvetica,sans-Serif" font-size="10.00">src/libs/vgeometry</text>
<text text-anchor="middle" x="2879" y="-74.5" font-family="Helvetica,sans-Serif" font-size="10.00">/vellipticalarc_p.h</text>
</a>
</g>
</g>
<!-- Node25&#45;&gt;Node34 -->
<g id="edge32" class="edge">
<title>Node25&#45;&gt;Node34</title>
<path fill="none" stroke="midnightblue" d="M2978.1,-140.3C2956.63,-127.99 2925.23,-110 2903.56,-97.58"/>
<polygon fill="midnightblue" stroke="midnightblue" points="2976.5,-143.42 2986.92,-145.36 2979.98,-137.35 2976.5,-143.42"/>
</g>
<!-- Node35 -->
<g id="node31" class="node">
<title>Node35</title>
<g id="a_node31"><a xlink:href="../../d6/dfb/vellipticalarc_8cpp.html" target="_top" xlink:title=" ">
<polygon fill="white" stroke="black" points="2866.5,-0.5 2866.5,-30.5 2973.5,-30.5 2973.5,-0.5 2866.5,-0.5"/>
<text text-anchor="start" x="2874.5" y="-18.5" font-family="Helvetica,sans-Serif" font-size="10.00">src/libs/vgeometry</text>
<text text-anchor="middle" x="2920" y="-7.5" font-family="Helvetica,sans-Serif" font-size="10.00">/vellipticalarc.cpp</text>
</a>
</g>
</g>
<!-- Node25&#45;&gt;Node35 -->
<g id="edge34" class="edge">
<title>Node25&#45;&gt;Node35</title>
<path fill="none" stroke="midnightblue" d="M2991.56,-136.49C2975.12,-108.92 2943.51,-55.93 2928.42,-30.62"/>
<polygon fill="midnightblue" stroke="midnightblue" points="2988.74,-138.6 2996.87,-145.4 2994.75,-135.02 2988.74,-138.6"/>
</g>
<!-- Node36 -->
<g id="node32" class="node">
<title>Node36</title>
<g id="a_node32"><a xlink:href="../../d1/d76/vspline__p_8h.html" target="_top" xlink:title=" ">
<polygon fill="white" stroke="red" points="2989.5,-67.5 2989.5,-97.5 3096.5,-97.5 3096.5,-67.5 2989.5,-67.5"/>
<text text-anchor="start" x="2997.5" y="-85.5" font-family="Helvetica,sans-Serif" font-size="10.00">src/libs/vgeometry</text>
<text text-anchor="middle" x="3043" y="-74.5" font-family="Helvetica,sans-Serif" font-size="10.00">/vspline_p.h</text>
</a>
</g>
</g>
<!-- Node25&#45;&gt;Node36 -->
<g id="edge35" class="edge">
<title>Node25&#45;&gt;Node36</title>
<path fill="none" stroke="midnightblue" d="M3012.07,-136.68C3019.07,-124.65 3028.27,-108.83 3034.81,-97.58"/>
<polygon fill="midnightblue" stroke="midnightblue" points="3009.03,-134.95 3007.03,-145.36 3015.08,-138.47 3009.03,-134.95"/>
</g>
<!-- Node38 -->
<g id="node33" class="node">
<title>Node38</title>
<g id="a_node33"><a xlink:href="../../d9/d15/vabstractpiece_8cpp.html" target="_top" xlink:title=" ">
<polygon fill="white" stroke="black" points="3115,-73 3115,-92 3301,-92 3301,-73 3115,-73"/>
<text text-anchor="middle" x="3208" y="-80" font-family="Helvetica,sans-Serif" font-size="10.00">src/libs/vlayout/vabstractpiece.cpp</text>
</a>
</g>
</g>
<!-- Node25&#45;&gt;Node38 -->
<g id="edge36" class="edge">
<title>Node25&#45;&gt;Node38</title>
<path fill="none" stroke="midnightblue" d="M3036.51,-142.19C3077.95,-128.01 3146.43,-104.57 3183.06,-92.03"/>
<polygon fill="midnightblue" stroke="midnightblue" points="3035.18,-138.95 3026.85,-145.5 3037.44,-145.57 3035.18,-138.95"/>
</g>
<!-- Node39 -->
<g id="node34" class="node">
<title>Node39</title>
<g id="a_node34"><a xlink:href="../../db/d65/dialogexporttocsv_8cpp.html" target="_top" xlink:title=" ">
<polygon fill="white" stroke="black" points="3319.5,-67.5 3319.5,-97.5 3446.5,-97.5 3446.5,-67.5 3319.5,-67.5"/>
<text text-anchor="start" x="3327.5" y="-85.5" font-family="Helvetica,sans-Serif" font-size="10.00">src/libs/vmisc/dialogs</text>
<text text-anchor="middle" x="3383" y="-74.5" font-family="Helvetica,sans-Serif" font-size="10.00">/dialogexporttocsv.cpp</text>
</a>
</g>
</g>
<!-- Node25&#45;&gt;Node39 -->
<g id="edge39" class="edge">
<title>Node25&#45;&gt;Node39</title>
<path fill="none" stroke="midnightblue" d="M3059.01,-143.69C3141.19,-128.81 3285.78,-102.61 3310,-98 3313.05,-97.42 3316.16,-96.82 3319.31,-96.21"/>
<polygon fill="midnightblue" stroke="midnightblue" points="3058.28,-140.26 3049.06,-145.49 3059.53,-147.15 3058.28,-140.26"/>
</g>
<!-- Node40 -->
<g id="node35" class="node">
<title>Node40</title>
<g id="a_node35"><a xlink:href="../../d6/d0b/def_8cpp.html" target="_top" xlink:title=" ">
<polygon fill="white" stroke="black" points="3465,-73 3465,-92 3587,-92 3587,-73 3465,-73"/>
<text text-anchor="middle" x="3526" y="-80" font-family="Helvetica,sans-Serif" font-size="10.00">src/libs/vmisc/def.cpp</text>
</a>
</g>
</g>
<!-- Node25&#45;&gt;Node40 -->
<g id="edge40" class="edge">
<title>Node25&#45;&gt;Node40</title>
<path fill="none" stroke="midnightblue" d="M3055.01,-143.63C3073.34,-140.26 3094.03,-136.7 3113,-134 3264.75,-112.4 3304.54,-121.57 3456,-98 3466.55,-96.36 3477.91,-94.18 3488.34,-92.02"/>
<polygon fill="midnightblue" stroke="midnightblue" points="3054.3,-140.2 3045.11,-145.47 3055.58,-147.08 3054.3,-140.2"/>
</g>
<!-- Node41 -->
<g id="node36" class="node">
<title>Node41</title>
<g id="a_node36"><a xlink:href="../../d0/df6/vabstractapplication_8cpp.html" target="_top" xlink:title=" ">
<polygon fill="white" stroke="black" points="3605,-73 3605,-92 3811,-92 3811,-73 3605,-73"/>
<text text-anchor="middle" x="3708" y="-80" font-family="Helvetica,sans-Serif" font-size="10.00">src/libs/vmisc/vabstractapplication.cpp</text>
</a>
</g>
</g>
<!-- Node25&#45;&gt;Node41 -->
<g id="edge41" class="edge">
<title>Node25&#45;&gt;Node41</title>
<path fill="none" stroke="midnightblue" d="M3053.55,-143.56C3072.22,-140.09 3093.5,-136.48 3113,-134 3326.55,-106.88 3381.85,-119.83 3596,-98 3612.58,-96.31 3630.5,-94.14 3647.04,-92"/>
<polygon fill="midnightblue" stroke="midnightblue" points="3052.66,-140.17 3043.48,-145.47 3053.96,-147.05 3052.66,-140.17"/>
</g>
<!-- Node42 -->
<g id="node37" class="node">
<title>Node42</title>
<g id="a_node37"><a xlink:href="../../d4/d4f/pmsystems_8cpp.html" target="_top" xlink:title=" ">
<polygon fill="white" stroke="black" points="3829.5,-67.5 3829.5,-97.5 3936.5,-97.5 3936.5,-67.5 3829.5,-67.5"/>
<text text-anchor="start" x="3837.5" y="-85.5" font-family="Helvetica,sans-Serif" font-size="10.00">src/libs/vpatterndb</text>
<text text-anchor="middle" x="3883" y="-74.5" font-family="Helvetica,sans-Serif" font-size="10.00">/pmsystems.cpp</text>
</a>
</g>
</g>
<!-- Node25&#45;&gt;Node42 -->
<g id="edge42" class="edge">
<title>Node25&#45;&gt;Node42</title>
<path fill="none" stroke="midnightblue" d="M3052.09,-143.58C3071.09,-139.99 3092.97,-136.31 3113,-134 3425.57,-98.03 3508.39,-141.45 3820,-98 3823,-97.58 3826.07,-97.09 3829.16,-96.55"/>
<polygon fill="midnightblue" stroke="midnightblue" points="3051.31,-140.16 3042.15,-145.49 3052.63,-147.04 3051.31,-140.16"/>
</g>
<!-- Node25&#45;&gt;Node43 -->
<g id="edge43" class="edge">
<title>Node25&#45;&gt;Node43</title>
<path fill="none" stroke="midnightblue" d="M3051.12,-143.48C3070.33,-139.81 3092.61,-136.08 3113,-134 3738.83,-70.04 3904.02,-178.05 4528,-98 4530.74,-97.65 4533.54,-97.23 4536.35,-96.75"/>
<polygon fill="midnightblue" stroke="midnightblue" points="3050.23,-140.09 3041.09,-145.45 3051.58,-146.96 3050.23,-140.09"/>
</g>
<!-- Node25&#45;&gt;Node44 -->
<g id="edge45" class="edge">
<title>Node25&#45;&gt;Node44</title>
<path fill="none" stroke="midnightblue" d="M3064.86,-144.01C3091.38,-140.2 3122.62,-136.24 3151,-134 3816.68,-81.5 3990.62,-182.48 4653,-98 4655.74,-97.65 4658.54,-97.23 4661.35,-96.76"/>
<polygon fill="midnightblue" stroke="midnightblue" points="3064.34,-140.55 3054.95,-145.46 3065.35,-147.48 3064.34,-140.55"/>
</g>
<!-- Node45 -->
<g id="node40" class="node">
<title>Node45</title>
<g id="a_node40"><a xlink:href="../../de/d3e/vtranslatevars_8cpp.html" target="_top" xlink:title=" ">
<polygon fill="white" stroke="black" points="3955,-67.5 3955,-97.5 4065,-97.5 4065,-67.5 3955,-67.5"/>
<text text-anchor="start" x="3963" y="-85.5" font-family="Helvetica,sans-Serif" font-size="10.00">src/libs/vpatterndb</text>
<text text-anchor="middle" x="4010" y="-74.5" font-family="Helvetica,sans-Serif" font-size="10.00">/vtranslatevars.cpp</text>
</a>
</g>
</g>
<!-- Node25&#45;&gt;Node45 -->
<g id="edge46" class="edge">
<title>Node25&#45;&gt;Node45</title>
<path fill="none" stroke="midnightblue" d="M3051.84,-143.54C3070.9,-139.93 3092.87,-136.24 3113,-134 3481.3,-93.05 3578.7,-147.14 3946,-98 3948.94,-97.61 3951.94,-97.14 3954.96,-96.63"/>
<polygon fill="midnightblue" stroke="midnightblue" points="3051.04,-140.13 3041.88,-145.47 3052.37,-147 3051.04,-140.13"/>
</g>
<!-- Node46 -->
<g id="node41" class="node">
<title>Node46</title>
<g id="a_node41"><a xlink:href="../../df/dba/vpiecenode__p_8h.html" target="_top" xlink:title=" ">
<polygon fill="white" stroke="black" points="2001.5,-67.5 2001.5,-97.5 2108.5,-97.5 2108.5,-67.5 2001.5,-67.5"/>
<text text-anchor="start" x="2009.5" y="-85.5" font-family="Helvetica,sans-Serif" font-size="10.00">src/libs/vpatterndb</text>
<text text-anchor="middle" x="2055" y="-74.5" font-family="Helvetica,sans-Serif" font-size="10.00">/vpiecenode_p.h</text>
</a>
</g>
</g>
<!-- Node25&#45;&gt;Node46 -->
<g id="edge47" class="edge">
<title>Node25&#45;&gt;Node46</title>
<path fill="none" stroke="midnightblue" d="M2894.31,-152.82C2727.25,-149.72 2395.93,-138.51 2118,-98 2114.89,-97.55 2111.71,-97.02 2108.5,-96.44"/>
<polygon fill="midnightblue" stroke="midnightblue" points="2894.28,-156.32 2904.34,-153 2894.4,-149.32 2894.28,-156.32"/>
</g>
<!-- Node48 -->
<g id="node43" class="node">
<title>Node48</title>
<g id="a_node43"><a xlink:href="../../df/d40/export__format__combobox_8cpp.html" target="_top" xlink:title=" ">
<polygon fill="white" stroke="black" points="4083.5,-67.5 4083.5,-97.5 4216.5,-97.5 4216.5,-67.5 4083.5,-67.5"/>
<text text-anchor="start" x="4091.5" y="-85.5" font-family="Helvetica,sans-Serif" font-size="10.00">src/libs/vwidgets/export</text>
<text text-anchor="middle" x="4150" y="-74.5" font-family="Helvetica,sans-Serif" font-size="10.00">_format_combobox.cpp</text>
</a>
</g>
</g>
<!-- Node25&#45;&gt;Node48 -->
<g id="edge49" class="edge">
<title>Node25&#45;&gt;Node48</title>
<path fill="none" stroke="midnightblue" d="M3051.6,-143.52C3070.71,-139.89 3092.79,-136.19 3113,-134 3537.93,-87.99 3649.31,-146.19 4074,-98 4077.07,-97.65 4080.2,-97.25 4083.36,-96.8"/>
<polygon fill="midnightblue" stroke="midnightblue" points="3050.77,-140.12 3041.62,-145.46 3052.1,-146.99 3050.77,-140.12"/>
</g>
<!-- Node49 -->
<g id="node44" class="node">
<title>Node49</title>
<g id="a_node44"><a xlink:href="../../d3/d4f/mouse__coordinates_8cpp.html" target="_top" xlink:title=" ">
<polygon fill="white" stroke="black" points="4235,-67.5 4235,-97.5 4369,-97.5 4369,-67.5 4235,-67.5"/>
<text text-anchor="start" x="4243" y="-85.5" font-family="Helvetica,sans-Serif" font-size="10.00">src/libs/vwidgets/mouse</text>
<text text-anchor="middle" x="4302" y="-74.5" font-family="Helvetica,sans-Serif" font-size="10.00">_coordinates.cpp</text>
</a>
</g>
</g>
<!-- Node25&#45;&gt;Node49 -->
<g id="edge50" class="edge">
<title>Node25&#45;&gt;Node49</title>
<path fill="none" stroke="midnightblue" d="M3051.36,-143.51C3070.52,-139.86 3092.7,-136.15 3113,-134 3605.18,-81.98 3734.09,-152.54 4226,-98 4228.94,-97.67 4231.93,-97.3 4234.95,-96.88"/>
<polygon fill="midnightblue" stroke="midnightblue" points="3050.5,-140.11 3041.36,-145.46 3051.84,-146.98 3050.5,-140.11"/>
</g>
<!-- Node50 -->
<g id="node45" class="node">
<title>Node50</title>
<g id="a_node45"><a xlink:href="../../d2/d28/page__format__combobox_8cpp.html" target="_top" xlink:title=" ">
<polygon fill="white" stroke="black" points="4387.5,-67.5 4387.5,-97.5 4518.5,-97.5 4518.5,-67.5 4387.5,-67.5"/>
<text text-anchor="start" x="4395.5" y="-85.5" font-family="Helvetica,sans-Serif" font-size="10.00">src/libs/vwidgets/page</text>
<text text-anchor="middle" x="4453" y="-74.5" font-family="Helvetica,sans-Serif" font-size="10.00">_format_combobox.cpp</text>
</a>
</g>
</g>
<!-- Node25&#45;&gt;Node50 -->
<g id="edge51" class="edge">
<title>Node25&#45;&gt;Node50</title>
<path fill="none" stroke="midnightblue" d="M3051.13,-143.51C3070.34,-139.84 3092.61,-136.11 3113,-134 3672.45,-75.97 3818.93,-159.58 4378,-98 4381.03,-97.67 4384.12,-97.28 4387.24,-96.84"/>
<polygon fill="midnightblue" stroke="midnightblue" points="3050.24,-140.12 3041.09,-145.48 3051.58,-146.99 3050.24,-140.12"/>
</g>
<!-- Node34&#45;&gt;Node35 -->
<g id="edge33" class="edge">
<title>Node34&#45;&gt;Node35</title>
<path fill="none" stroke="midnightblue" d="M2893.28,-58.87C2899.21,-49.46 2905.91,-38.83 2911.12,-30.58"/>
<polygon fill="midnightblue" stroke="midnightblue" points="2890.27,-57.07 2887.9,-67.4 2896.19,-60.81 2890.27,-57.07"/>
</g>
<!-- Node46&#45;&gt;Node47 -->
<g id="edge48" class="edge">
<title>Node46&#45;&gt;Node47</title>
<path fill="none" stroke="midnightblue" d="M1991.39,-65.47C1948.17,-54.59 1891.65,-40.35 1850.7,-30.03"/>
<polygon fill="midnightblue" stroke="midnightblue" points="1990.68,-68.9 2001.23,-67.95 1992.39,-62.12 1990.68,-68.9"/>
</g>
</g>
</svg>
