<?xml version="1.0" encoding="UTF-8" standalone="no"?>
<!DOCTYPE svg PUBLIC "-//W3C//DTD SVG 1.1//EN"
 "http://www.w3.org/Graphics/SVG/1.1/DTD/svg11.dtd">
<!-- Generated by graphviz version 2.43.0 (0)
 -->
<!-- Title: src/libs/vgeometry/vabstractcubicbezierpath.h Pages: 1 -->
<svg width="4902pt" height="318pt"
 viewBox="0.00 0.00 4901.50 318.00" xmlns="http://www.w3.org/2000/svg" xmlns:xlink="http://www.w3.org/1999/xlink">
<g id="graph0" class="graph" transform="scale(1 1) rotate(0) translate(4 314)">
<title>src/libs/vgeometry/vabstractcubicbezierpath.h</title>
<polygon fill="white" stroke="transparent" points="-4,4 -4,-314 4897.5,-314 4897.5,4 -4,4"/>
<!-- Node1 -->
<g id="node1" class="node">
<title>Node1</title>
<g id="a_node1"><a xlink:title=" ">
<polygon fill="#bfbfbf" stroke="black" points="1294.5,-279.5 1294.5,-309.5 1446.5,-309.5 1446.5,-279.5 1294.5,-279.5"/>
<text text-anchor="start" x="1302.5" y="-297.5" font-family="Helvetica,sans-Serif" font-size="10.00">src/libs/vgeometry</text>
<text text-anchor="middle" x="1370.5" y="-286.5" font-family="Helvetica,sans-Serif" font-size="10.00">/vabstractcubicbezierpath.h</text>
</a>
</g>
</g>
<!-- Node2 -->
<g id="node2" class="node">
<title>Node2</title>
<g id="a_node2"><a xlink:href="../../db/d0a/vabstractcubicbezierpath_8cpp.html" target="_top" xlink:title=" ">
<polygon fill="white" stroke="black" points="1005,-212.5 1005,-242.5 1168,-242.5 1168,-212.5 1005,-212.5"/>
<text text-anchor="start" x="1013" y="-230.5" font-family="Helvetica,sans-Serif" font-size="10.00">src/libs/vgeometry</text>
<text text-anchor="middle" x="1086.5" y="-219.5" font-family="Helvetica,sans-Serif" font-size="10.00">/vabstractcubicbezierpath.cpp</text>
</a>
</g>
</g>
<!-- Node1&#45;&gt;Node2 -->
<g id="edge1" class="edge">
<title>Node1&#45;&gt;Node2</title>
<path fill="none" stroke="midnightblue" d="M1299.22,-277.19C1252.71,-266.54 1192.6,-252.78 1148.15,-242.61"/>
<polygon fill="midnightblue" stroke="midnightblue" points="1298.7,-280.66 1309.23,-279.48 1300.26,-273.83 1298.7,-280.66"/>
</g>
<!-- Node3 -->
<g id="node3" class="node">
<title>Node3</title>
<g id="a_node3"><a xlink:href="../../dd/dbe/vcubicbezierpath_8h.html" target="_top" xlink:title=" ">
<polygon fill="white" stroke="black" points="1186.5,-212.5 1186.5,-242.5 1298.5,-242.5 1298.5,-212.5 1186.5,-212.5"/>
<text text-anchor="start" x="1194.5" y="-230.5" font-family="Helvetica,sans-Serif" font-size="10.00">src/libs/vgeometry</text>
<text text-anchor="middle" x="1242.5" y="-219.5" font-family="Helvetica,sans-Serif" font-size="10.00">/vcubicbezierpath.h</text>
</a>
</g>
</g>
<!-- Node1&#45;&gt;Node3 -->
<g id="edge2" class="edge">
<title>Node1&#45;&gt;Node3</title>
<path fill="none" stroke="midnightblue" d="M1333.78,-274.85C1313.54,-264.58 1288.83,-252.03 1270.22,-242.58"/>
<polygon fill="midnightblue" stroke="midnightblue" points="1332.22,-277.99 1342.73,-279.4 1335.39,-271.75 1332.22,-277.99"/>
</g>
<!-- Node5 -->
<g id="node5" class="node">
<title>Node5</title>
<g id="a_node5"><a xlink:href="../../d0/d39/vsplinepath_8h.html" target="_top" xlink:title=" ">
<polygon fill="white" stroke="black" points="1317,-212.5 1317,-242.5 1424,-242.5 1424,-212.5 1317,-212.5"/>
<text text-anchor="start" x="1325" y="-230.5" font-family="Helvetica,sans-Serif" font-size="10.00">src/libs/vgeometry</text>
<text text-anchor="middle" x="1370.5" y="-219.5" font-family="Helvetica,sans-Serif" font-size="10.00">/vsplinepath.h</text>
</a>
</g>
</g>
<!-- Node1&#45;&gt;Node5 -->
<g id="edge4" class="edge">
<title>Node1&#45;&gt;Node5</title>
<path fill="none" stroke="midnightblue" d="M1370.5,-269.11C1370.5,-260.15 1370.5,-250.32 1370.5,-242.58"/>
<polygon fill="midnightblue" stroke="midnightblue" points="1367,-269.4 1370.5,-279.4 1374,-269.4 1367,-269.4"/>
</g>
<!-- Node10 -->
<g id="node10" class="node">
<title>Node10</title>
<g id="a_node10"><a xlink:href="../../d3/df7/vcontainer_8h.html" target="_top" xlink:title=" ">
<polygon fill="white" stroke="black" points="2159,-212.5 2159,-242.5 2266,-242.5 2266,-212.5 2159,-212.5"/>
<text text-anchor="start" x="2167" y="-230.5" font-family="Helvetica,sans-Serif" font-size="10.00">src/libs/vpatterndb</text>
<text text-anchor="middle" x="2212.5" y="-219.5" font-family="Helvetica,sans-Serif" font-size="10.00">/vcontainer.h</text>
</a>
</g>
</g>
<!-- Node1&#45;&gt;Node10 -->
<g id="edge9" class="edge">
<title>Node1&#45;&gt;Node10</title>
<path fill="none" stroke="midnightblue" d="M1456.82,-286.84C1630.3,-273.44 2016.79,-243.61 2158.81,-232.64"/>
<polygon fill="midnightblue" stroke="midnightblue" points="1456.41,-283.36 1446.71,-287.62 1456.95,-290.34 1456.41,-283.36"/>
</g>
<!-- Node43 -->
<g id="node38" class="node">
<title>Node43</title>
<g id="a_node38"><a xlink:href="../../d6/d46/vcontainer_8cpp.html" target="_top" xlink:title=" ">
<polygon fill="white" stroke="black" points="3256,-67.5 3256,-97.5 3363,-97.5 3363,-67.5 3256,-67.5"/>
<text text-anchor="start" x="3264" y="-85.5" font-family="Helvetica,sans-Serif" font-size="10.00">src/libs/vpatterndb</text>
<text text-anchor="middle" x="3309.5" y="-74.5" font-family="Helvetica,sans-Serif" font-size="10.00">/vcontainer.cpp</text>
</a>
</g>
</g>
<!-- Node1&#45;&gt;Node43 -->
<g id="edge62" class="edge">
<title>Node1&#45;&gt;Node43</title>
<path fill="none" stroke="midnightblue" d="M1457.02,-288.9C1617.98,-280.29 1974.34,-260.98 2274.5,-243 2507.45,-229.05 3162.84,-346.2 3322.5,-176 3342.36,-154.83 3328.09,-118.04 3317.71,-97.83"/>
<polygon fill="midnightblue" stroke="midnightblue" points="1456.5,-285.42 1446.71,-289.45 1456.88,-292.41 1456.5,-285.42"/>
</g>
<!-- Node4 -->
<g id="node4" class="node">
<title>Node4</title>
<g id="a_node4"><a xlink:href="../../de/df0/vcubicbezierpath_8cpp.html" target="_top" xlink:title=" ">
<polygon fill="white" stroke="black" points="878,-140 878,-170 1001,-170 1001,-140 878,-140"/>
<text text-anchor="start" x="886" y="-158" font-family="Helvetica,sans-Serif" font-size="10.00">src/libs/vgeometry</text>
<text text-anchor="middle" x="939.5" y="-147" font-family="Helvetica,sans-Serif" font-size="10.00">/vcubicbezierpath.cpp</text>
</a>
</g>
</g>
<!-- Node3&#45;&gt;Node4 -->
<g id="edge3" class="edge">
<title>Node3&#45;&gt;Node4</title>
<path fill="none" stroke="midnightblue" d="M1176.8,-212.07C1176.7,-212.04 1176.6,-212.02 1176.5,-212 1102.74,-195.9 1083.76,-194.24 1010.5,-176 1003.17,-174.17 995.44,-172.13 987.9,-170.06"/>
<polygon fill="midnightblue" stroke="midnightblue" points="1175.82,-215.43 1186.33,-214.15 1177.31,-208.59 1175.82,-215.43"/>
</g>
<!-- Node6 -->
<g id="node6" class="node">
<title>Node6</title>
<g id="a_node6"><a xlink:href="../../db/d6a/vsplinepath_8cpp.html" target="_top" xlink:title=" ">
<polygon fill="white" stroke="black" points="1241,-140 1241,-170 1348,-170 1348,-140 1241,-140"/>
<text text-anchor="start" x="1249" y="-158" font-family="Helvetica,sans-Serif" font-size="10.00">src/libs/vgeometry</text>
<text text-anchor="middle" x="1294.5" y="-147" font-family="Helvetica,sans-Serif" font-size="10.00">/vsplinepath.cpp</text>
</a>
</g>
</g>
<!-- Node5&#45;&gt;Node6 -->
<g id="edge5" class="edge">
<title>Node5&#45;&gt;Node6</title>
<path fill="none" stroke="midnightblue" d="M1347.47,-205.14C1335.19,-193.74 1320.42,-180.04 1309.6,-170"/>
<polygon fill="midnightblue" stroke="midnightblue" points="1345.41,-208 1355.12,-212.23 1350.17,-202.87 1345.41,-208"/>
</g>
<!-- Node7 -->
<g id="node7" class="node">
<title>Node7</title>
<g id="a_node7"><a xlink:href="../../d1/d3a/abstracttest_8cpp.html" target="_top" xlink:title=" ">
<polygon fill="white" stroke="black" points="1366,-145.5 1366,-164.5 1527,-164.5 1527,-145.5 1366,-145.5"/>
<text text-anchor="middle" x="1446.5" y="-152.5" font-family="Helvetica,sans-Serif" font-size="10.00">src/libs/vtest/abstracttest.cpp</text>
</a>
</g>
</g>
<!-- Node5&#45;&gt;Node7 -->
<g id="edge6" class="edge">
<title>Node5&#45;&gt;Node7</title>
<path fill="none" stroke="midnightblue" d="M1393.53,-205.14C1408.07,-191.65 1426.08,-174.94 1436.91,-164.89"/>
<polygon fill="midnightblue" stroke="midnightblue" points="1390.83,-202.87 1385.88,-212.23 1395.59,-208 1390.83,-202.87"/>
</g>
<!-- Node8 -->
<g id="node8" class="node">
<title>Node8</title>
<g id="a_node8"><a xlink:href="../../d8/d13/vcontrolpointspline_8h.html" target="_top" xlink:title=" ">
<polygon fill="white" stroke="black" points="1019.5,-145.5 1019.5,-164.5 1223.5,-164.5 1223.5,-145.5 1019.5,-145.5"/>
<text text-anchor="middle" x="1121.5" y="-152.5" font-family="Helvetica,sans-Serif" font-size="10.00">src/libs/vwidgets/vcontrolpointspline.h</text>
</a>
</g>
</g>
<!-- Node5&#45;&gt;Node8 -->
<g id="edge7" class="edge">
<title>Node5&#45;&gt;Node8</title>
<path fill="none" stroke="midnightblue" d="M1311.25,-209.72C1261.06,-195.51 1191.16,-175.72 1151.72,-164.55"/>
<polygon fill="midnightblue" stroke="midnightblue" points="1310.43,-213.13 1321.01,-212.49 1312.34,-206.4 1310.43,-213.13"/>
</g>
<!-- Node9 -->
<g id="node9" class="node">
<title>Node9</title>
<g id="a_node9"><a xlink:href="../../de/d45/vcontrolpointspline_8cpp.html" target="_top" xlink:title=" ">
<polygon fill="white" stroke="black" points="0,-73 0,-92 215,-92 215,-73 0,-73"/>
<text text-anchor="middle" x="107.5" y="-80" font-family="Helvetica,sans-Serif" font-size="10.00">src/libs/vwidgets/vcontrolpointspline.cpp</text>
</a>
</g>
</g>
<!-- Node8&#45;&gt;Node9 -->
<g id="edge8" class="edge">
<title>Node8&#45;&gt;Node9</title>
<path fill="none" stroke="midnightblue" d="M1071.2,-143.57C1051.98,-139.97 1029.8,-136.27 1009.5,-134 661.96,-95.18 571.94,-127.71 223.5,-98 205.5,-96.47 186,-94.25 168.21,-92"/>
<polygon fill="midnightblue" stroke="midnightblue" points="1070.77,-147.05 1081.25,-145.5 1072.09,-140.18 1070.77,-147.05"/>
</g>
<!-- Node10&#45;&gt;Node7 -->
<g id="edge60" class="edge">
<title>Node10&#45;&gt;Node7</title>
<path fill="none" stroke="midnightblue" d="M2148.51,-224.85C2027.97,-221.05 1759.22,-209.3 1535.5,-176 1516.7,-173.2 1495.97,-168.63 1479.25,-164.57"/>
<polygon fill="midnightblue" stroke="midnightblue" points="2148.57,-228.35 2158.67,-225.16 2148.78,-221.36 2148.57,-228.35"/>
</g>
<!-- Node11 -->
<g id="node11" class="node">
<title>Node11</title>
<g id="a_node11"><a xlink:href="../../dc/db7/measurements_8h.html" target="_top" xlink:title=" ">
<polygon fill="white" stroke="black" points="2980,-145.5 2980,-164.5 3159,-164.5 3159,-145.5 2980,-145.5"/>
<text text-anchor="middle" x="3069.5" y="-152.5" font-family="Helvetica,sans-Serif" font-size="10.00">src/libs/vformat/measurements.h</text>
</a>
</g>
</g>
<!-- Node10&#45;&gt;Node11 -->
<g id="edge10" class="edge">
<title>Node10&#45;&gt;Node11</title>
<path fill="none" stroke="midnightblue" d="M2276.31,-224.87C2406.42,-220.96 2711.52,-208.81 2965.5,-176 2987.38,-173.17 3011.6,-168.6 3031.16,-164.54"/>
<polygon fill="midnightblue" stroke="midnightblue" points="2276.02,-221.37 2266.13,-225.17 2276.23,-228.37 2276.02,-221.37"/>
</g>
<!-- Node12 -->
<g id="node12" class="node">
<title>Node12</title>
<g id="a_node12"><a xlink:href="../../d9/de3/measurements_8cpp.html" target="_top" xlink:title=" ">
<polygon fill="white" stroke="black" points="3381.5,-73 3381.5,-92 3571.5,-92 3571.5,-73 3381.5,-73"/>
<text text-anchor="middle" x="3476.5" y="-80" font-family="Helvetica,sans-Serif" font-size="10.00">src/libs/vformat/measurements.cpp</text>
</a>
</g>
</g>
<!-- Node10&#45;&gt;Node12 -->
<g id="edge12" class="edge">
<title>Node10&#45;&gt;Node12</title>
<path fill="none" stroke="midnightblue" d="M2276.29,-225.42C2497.35,-221.44 3222.52,-206.18 3322.5,-176 3382.22,-157.97 3442.62,-111.66 3466.19,-92.25"/>
<polygon fill="midnightblue" stroke="midnightblue" points="2276.09,-221.93 2266.15,-225.6 2276.21,-228.92 2276.09,-221.93"/>
</g>
<!-- Node13 -->
<g id="node13" class="node">
<title>Node13</title>
<g id="a_node13"><a xlink:href="../../d6/de0/vlayoutpiece_8h.html" target="_top" xlink:title=" ">
<polygon fill="white" stroke="black" points="4084.5,-145.5 4084.5,-164.5 4250.5,-164.5 4250.5,-145.5 4084.5,-145.5"/>
<text text-anchor="middle" x="4167.5" y="-152.5" font-family="Helvetica,sans-Serif" font-size="10.00">src/libs/vlayout/vlayoutpiece.h</text>
</a>
</g>
</g>
<!-- Node10&#45;&gt;Node13 -->
<g id="edge13" class="edge">
<title>Node10&#45;&gt;Node13</title>
<path fill="none" stroke="midnightblue" d="M2276.39,-224.2C2566.27,-213.74 3757.81,-170.77 4084.39,-159"/>
<polygon fill="midnightblue" stroke="midnightblue" points="2275.93,-220.71 2266.06,-224.57 2276.18,-227.71 2275.93,-220.71"/>
</g>
<!-- Node23 -->
<g id="node22" class="node">
<title>Node23</title>
<g id="a_node22"><a xlink:href="../../d8/d70/vtextmanager_8cpp.html" target="_top" xlink:title=" ">
<polygon fill="white" stroke="black" points="358.5,-73 358.5,-92 540.5,-92 540.5,-73 358.5,-73"/>
<text text-anchor="middle" x="449.5" y="-80" font-family="Helvetica,sans-Serif" font-size="10.00">src/libs/vlayout/vtextmanager.cpp</text>
</a>
</g>
</g>
<!-- Node10&#45;&gt;Node23 -->
<g id="edge24" class="edge">
<title>Node10&#45;&gt;Node23</title>
<path fill="none" stroke="midnightblue" d="M2193.02,-204.71C2169.02,-177.98 2130.85,-135.95 2126.5,-134 2046.57,-98.08 636.83,-105.3 549.5,-98 533.33,-96.65 515.79,-94.38 499.98,-92.03"/>
<polygon fill="midnightblue" stroke="midnightblue" points="2190.68,-207.34 2199.96,-212.45 2195.89,-202.67 2190.68,-207.34"/>
</g>
<!-- Node24 -->
<g id="node23" class="node">
<title>Node24</title>
<g id="a_node23"><a xlink:href="../../d5/d74/vabstractapplication_8h.html" target="_top" xlink:title=" ">
<polygon fill="white" stroke="red" points="2178,-145.5 2178,-164.5 2373,-164.5 2373,-145.5 2178,-145.5"/>
<text text-anchor="middle" x="2275.5" y="-152.5" font-family="Helvetica,sans-Serif" font-size="10.00">src/libs/vmisc/vabstractapplication.h</text>
</a>
</g>
</g>
<!-- Node10&#45;&gt;Node24 -->
<g id="edge25" class="edge">
<title>Node10&#45;&gt;Node24</title>
<path fill="none" stroke="midnightblue" d="M2231.93,-204.76C2243.92,-191.34 2258.66,-174.85 2267.55,-164.89"/>
<polygon fill="midnightblue" stroke="midnightblue" points="2229.3,-202.44 2225.25,-212.23 2234.52,-207.11 2229.3,-202.44"/>
</g>
<!-- Node42 -->
<g id="node37" class="node">
<title>Node42</title>
<g id="a_node37"><a xlink:href="../../db/d11/vformula_8cpp.html" target="_top" xlink:title=" ">
<polygon fill="white" stroke="black" points="3092,-67.5 3092,-97.5 3199,-97.5 3199,-67.5 3092,-67.5"/>
<text text-anchor="start" x="3100" y="-85.5" font-family="Helvetica,sans-Serif" font-size="10.00">src/libs/vpatterndb</text>
<text text-anchor="middle" x="3145.5" y="-74.5" font-family="Helvetica,sans-Serif" font-size="10.00">/vformula.cpp</text>
</a>
</g>
</g>
<!-- Node10&#45;&gt;Node42 -->
<g id="edge54" class="edge">
<title>Node10&#45;&gt;Node42</title>
<path fill="none" stroke="midnightblue" d="M2276.21,-218.86C2420.39,-201.17 2782.5,-154.59 3082.5,-98 3085.59,-97.42 3088.75,-96.79 3091.94,-96.13"/>
<polygon fill="midnightblue" stroke="midnightblue" points="2275.71,-215.39 2266.21,-220.08 2276.56,-222.34 2275.71,-215.39"/>
</g>
<!-- Node10&#45;&gt;Node43 -->
<g id="edge55" class="edge">
<title>Node10&#45;&gt;Node43</title>
<path fill="none" stroke="midnightblue" d="M2276.45,-224.5C2440.76,-218.99 2868.97,-202.28 2927.5,-176 2951.87,-165.06 2946.48,-145.69 2970.5,-134 3079.76,-80.84 3121.77,-118.69 3241.5,-98 3246.14,-97.2 3250.94,-96.3 3255.75,-95.37"/>
<polygon fill="midnightblue" stroke="midnightblue" points="2275.89,-221.01 2266.01,-224.84 2276.12,-228.01 2275.89,-221.01"/>
</g>
<!-- Node44 -->
<g id="node39" class="node">
<title>Node44</title>
<g id="a_node39"><a xlink:href="../../df/d7a/vpiece_8cpp.html" target="_top" xlink:title=" ">
<polygon fill="white" stroke="black" points="233,-67.5 233,-97.5 340,-97.5 340,-67.5 233,-67.5"/>
<text text-anchor="start" x="241" y="-85.5" font-family="Helvetica,sans-Serif" font-size="10.00">src/libs/vpatterndb</text>
<text text-anchor="middle" x="286.5" y="-74.5" font-family="Helvetica,sans-Serif" font-size="10.00">/vpiece.cpp</text>
</a>
</g>
</g>
<!-- Node10&#45;&gt;Node44 -->
<g id="edge57" class="edge">
<title>Node10&#45;&gt;Node44</title>
<path fill="none" stroke="midnightblue" d="M2173.56,-207.68C2158.04,-199.18 2140.56,-188.28 2126.5,-176 2108.62,-160.38 2114.74,-144.6 2093.5,-134 2006.78,-90.74 445.67,-109.93 349.5,-98 346.49,-97.63 343.42,-97.17 340.33,-96.65"/>
<polygon fill="midnightblue" stroke="midnightblue" points="2171.95,-210.79 2182.42,-212.39 2175.24,-204.61 2171.95,-210.79"/>
</g>
<!-- Node46 -->
<g id="node41" class="node">
<title>Node46</title>
<g id="a_node41"><a xlink:href="../../d8/dba/vpiecenode_8cpp.html" target="_top" xlink:title=" ">
<polygon fill="white" stroke="black" points="3070,-0.5 3070,-30.5 3177,-30.5 3177,-0.5 3070,-0.5"/>
<text text-anchor="start" x="3078" y="-18.5" font-family="Helvetica,sans-Serif" font-size="10.00">src/libs/vpatterndb</text>
<text text-anchor="middle" x="3123.5" y="-7.5" font-family="Helvetica,sans-Serif" font-size="10.00">/vpiecenode.cpp</text>
</a>
</g>
</g>
<!-- Node10&#45;&gt;Node46 -->
<g id="edge58" class="edge">
<title>Node10&#45;&gt;Node46</title>
<path fill="none" stroke="midnightblue" d="M2276.29,-223.52C2377.86,-218.11 2582.35,-204.49 2753.5,-176 2831.97,-162.94 2849.26,-148.43 2927.5,-134 2989.19,-122.62 3166.06,-145.1 3207.5,-98 3229.64,-72.83 3188.35,-46.25 3156.19,-30.53"/>
<polygon fill="midnightblue" stroke="midnightblue" points="2276,-220.03 2266.2,-224.05 2276.37,-227.02 2276,-220.03"/>
</g>
<!-- Node62 -->
<g id="node46" class="node">
<title>Node62</title>
<g id="a_node46"><a xlink:href="../../d7/d8a/measurement__variable__p_8h.html" target="_top" xlink:title=" ">
<polygon fill="white" stroke="red" points="3177.5,-134.5 3177.5,-175.5 3313.5,-175.5 3313.5,-134.5 3177.5,-134.5"/>
<text text-anchor="start" x="3185.5" y="-163.5" font-family="Helvetica,sans-Serif" font-size="10.00">src/libs/vpatterndb</text>
<text text-anchor="start" x="3185.5" y="-152.5" font-family="Helvetica,sans-Serif" font-size="10.00">/variables/measurement</text>
<text text-anchor="middle" x="3245.5" y="-141.5" font-family="Helvetica,sans-Serif" font-size="10.00">_variable_p.h</text>
</a>
</g>
</g>
<!-- Node10&#45;&gt;Node62 -->
<g id="edge52" class="edge">
<title>Node10&#45;&gt;Node62</title>
<path fill="none" stroke="midnightblue" d="M2276.18,-224.78C2460.92,-219.53 2994.85,-202.43 3167.5,-176 3170.68,-175.51 3173.92,-174.95 3177.17,-174.34"/>
<polygon fill="midnightblue" stroke="midnightblue" points="2275.98,-221.28 2266.08,-225.06 2276.18,-228.28 2275.98,-221.28"/>
</g>
<!-- Node64 -->
<g id="node47" class="node">
<title>Node64</title>
<g id="a_node47"><a xlink:href="../../d1/de1/vincrement__p_8h.html" target="_top" xlink:title=" ">
<polygon fill="white" stroke="red" points="1545,-140 1545,-170 1688,-170 1688,-140 1545,-140"/>
<text text-anchor="start" x="1553" y="-158" font-family="Helvetica,sans-Serif" font-size="10.00">src/libs/vpatterndb</text>
<text text-anchor="middle" x="1616.5" y="-147" font-family="Helvetica,sans-Serif" font-size="10.00">/variables/vincrement_p.h</text>
</a>
</g>
</g>
<!-- Node10&#45;&gt;Node64 -->
<g id="edge53" class="edge">
<title>Node10&#45;&gt;Node64</title>
<path fill="none" stroke="midnightblue" d="M2148.64,-223.28C2050.75,-217.67 1857.97,-203.93 1696.5,-176 1687.19,-174.39 1677.36,-172.28 1667.9,-170.04"/>
<polygon fill="midnightblue" stroke="midnightblue" points="2148.49,-226.78 2158.67,-223.85 2148.88,-219.79 2148.49,-226.78"/>
</g>
<!-- Node66 -->
<g id="node48" class="node">
<title>Node66</title>
<g id="a_node48"><a xlink:href="../../d6/d91/vnodedetail_8cpp.html" target="_top" xlink:title=" ">
<polygon fill="white" stroke="black" points="1706,-140 1706,-170 1813,-170 1813,-140 1706,-140"/>
<text text-anchor="start" x="1714" y="-158" font-family="Helvetica,sans-Serif" font-size="10.00">src/libs/vpatterndb</text>
<text text-anchor="middle" x="1759.5" y="-147" font-family="Helvetica,sans-Serif" font-size="10.00">/vnodedetail.cpp</text>
</a>
</g>
</g>
<!-- Node10&#45;&gt;Node66 -->
<g id="edge56" class="edge">
<title>Node10&#45;&gt;Node66</title>
<path fill="none" stroke="midnightblue" d="M2148.7,-221.88C2070.77,-215.41 1935.28,-201.47 1821.5,-176 1814.22,-174.37 1806.57,-172.25 1799.22,-170"/>
<polygon fill="midnightblue" stroke="midnightblue" points="2148.58,-225.38 2158.84,-222.71 2149.15,-218.4 2148.58,-225.38"/>
</g>
<!-- Node67 -->
<g id="node49" class="node">
<title>Node67</title>
<g id="a_node49"><a xlink:href="../../da/de1/vpiecepath_8cpp.html" target="_top" xlink:title=" ">
<polygon fill="white" stroke="black" points="1831,-140 1831,-170 1938,-170 1938,-140 1831,-140"/>
<text text-anchor="start" x="1839" y="-158" font-family="Helvetica,sans-Serif" font-size="10.00">src/libs/vpatterndb</text>
<text text-anchor="middle" x="1884.5" y="-147" font-family="Helvetica,sans-Serif" font-size="10.00">/vpiecepath.cpp</text>
</a>
</g>
</g>
<!-- Node10&#45;&gt;Node67 -->
<g id="edge59" class="edge">
<title>Node10&#45;&gt;Node67</title>
<path fill="none" stroke="midnightblue" d="M2148.68,-216.53C2094.71,-207.58 2015.53,-193.22 1947.5,-176 1940.6,-174.25 1933.35,-172.18 1926.32,-170.04"/>
<polygon fill="midnightblue" stroke="midnightblue" points="2148.36,-220.03 2158.79,-218.19 2149.5,-213.12 2148.36,-220.03"/>
</g>
<!-- Node68 -->
<g id="node50" class="node">
<title>Node68</title>
<g id="a_node50"><a xlink:href="../../da/db4/piece__tablewidgetitem_8cpp.html" target="_top" xlink:title=" ">
<polygon fill="white" stroke="black" points="1956.5,-140 1956.5,-170 2084.5,-170 2084.5,-140 1956.5,-140"/>
<text text-anchor="start" x="1964.5" y="-158" font-family="Helvetica,sans-Serif" font-size="10.00">src/libs/vwidgets/piece</text>
<text text-anchor="middle" x="2020.5" y="-147" font-family="Helvetica,sans-Serif" font-size="10.00">_tablewidgetitem.cpp</text>
</a>
</g>
</g>
<!-- Node10&#45;&gt;Node68 -->
<g id="edge61" class="edge">
<title>Node10&#45;&gt;Node68</title>
<path fill="none" stroke="midnightblue" d="M2164.32,-208.81C2131.69,-196.83 2089.16,-181.21 2058.83,-170.07"/>
<polygon fill="midnightblue" stroke="midnightblue" points="2163.51,-212.24 2174.11,-212.4 2165.93,-205.67 2163.51,-212.24"/>
</g>
<!-- Node11&#45;&gt;Node12 -->
<g id="edge11" class="edge">
<title>Node11&#45;&gt;Node12</title>
<path fill="none" stroke="midnightblue" d="M3119.86,-143.45C3135.43,-140.29 3152.65,-136.9 3168.5,-134 3256.45,-117.91 3358.97,-101.58 3420.75,-92.01"/>
<polygon fill="midnightblue" stroke="midnightblue" points="3118.99,-140.06 3109.9,-145.49 3120.39,-146.92 3118.99,-140.06"/>
</g>
<!-- Node14 -->
<g id="node14" class="node">
<title>Node14</title>
<g id="a_node14"><a xlink:href="../../dd/d66/vdxfengine_8cpp.html" target="_top" xlink:title=" ">
<polygon fill="white" stroke="black" points="4577.5,-73 4577.5,-92 4731.5,-92 4731.5,-73 4577.5,-73"/>
<text text-anchor="middle" x="4654.5" y="-80" font-family="Helvetica,sans-Serif" font-size="10.00">src/libs/vdxf/vdxfengine.cpp</text>
</a>
</g>
</g>
<!-- Node13&#45;&gt;Node14 -->
<g id="edge14" class="edge">
<title>Node13&#45;&gt;Node14</title>
<path fill="none" stroke="midnightblue" d="M4242.58,-144.16C4323.22,-133.44 4455.07,-115.48 4568.5,-98 4580.47,-96.16 4593.36,-94.05 4605.42,-92.02"/>
<polygon fill="midnightblue" stroke="midnightblue" points="4241.97,-140.71 4232.52,-145.49 4242.9,-147.65 4241.97,-140.71"/>
</g>
<!-- Node15 -->
<g id="node15" class="node">
<title>Node15</title>
<g id="a_node15"><a xlink:href="../../de/da8/vbank_8cpp.html" target="_top" xlink:title=" ">
<polygon fill="white" stroke="black" points="4749.5,-73 4749.5,-92 4893.5,-92 4893.5,-73 4749.5,-73"/>
<text text-anchor="middle" x="4821.5" y="-80" font-family="Helvetica,sans-Serif" font-size="10.00">src/libs/vlayout/vbank.cpp</text>
</a>
</g>
</g>
<!-- Node13&#45;&gt;Node15 -->
<g id="edge15" class="edge">
<title>Node13&#45;&gt;Node15</title>
<path fill="none" stroke="midnightblue" d="M4260.83,-147.18C4374.46,-138.34 4572.06,-121.27 4740.5,-98 4752.53,-96.34 4765.5,-94.18 4777.46,-92.04"/>
<polygon fill="midnightblue" stroke="midnightblue" points="4260.47,-143.69 4250.77,-147.95 4261.01,-150.67 4260.47,-143.69"/>
</g>
<!-- Node16 -->
<g id="node16" class="node">
<title>Node16</title>
<g id="a_node16"><a xlink:href="../../df/d5d/vcontour_8cpp.html" target="_top" xlink:title=" ">
<polygon fill="white" stroke="black" points="3785.5,-73 3785.5,-92 3941.5,-92 3941.5,-73 3785.5,-73"/>
<text text-anchor="middle" x="3863.5" y="-80" font-family="Helvetica,sans-Serif" font-size="10.00">src/libs/vlayout/vcontour.cpp</text>
</a>
</g>
</g>
<!-- Node13&#45;&gt;Node16 -->
<g id="edge16" class="edge">
<title>Node13&#45;&gt;Node16</title>
<path fill="none" stroke="midnightblue" d="M4120.77,-143.16C4060.14,-129.1 3955.61,-104.86 3900.3,-92.03"/>
<polygon fill="midnightblue" stroke="midnightblue" points="4120.3,-146.65 4130.83,-145.5 4121.88,-139.83 4120.3,-146.65"/>
</g>
<!-- Node17 -->
<g id="node17" class="node">
<title>Node17</title>
<g id="a_node17"><a xlink:href="../../d2/d2d/vlayoutpaper__p_8h.html" target="_top" xlink:title=" ">
<polygon fill="white" stroke="black" points="3960,-73 3960,-92 4139,-92 4139,-73 3960,-73"/>
<text text-anchor="middle" x="4049.5" y="-80" font-family="Helvetica,sans-Serif" font-size="10.00">src/libs/vlayout/vlayoutpaper_p.h</text>
</a>
</g>
</g>
<!-- Node13&#45;&gt;Node17 -->
<g id="edge17" class="edge">
<title>Node13&#45;&gt;Node17</title>
<path fill="none" stroke="midnightblue" d="M4144.27,-140.12C4120.46,-125.89 4084.15,-104.2 4064.09,-92.22"/>
<polygon fill="midnightblue" stroke="midnightblue" points="4142.65,-143.23 4153.03,-145.36 4146.24,-137.22 4142.65,-143.23"/>
</g>
<!-- Node18 -->
<g id="node18" class="node">
<title>Node18</title>
<g id="a_node18"><a xlink:href="../../d1/dd1/vlayoutpaper_8cpp.html" target="_top" xlink:title=" ">
<polygon fill="white" stroke="black" points="4078.5,-6 4078.5,-25 4256.5,-25 4256.5,-6 4078.5,-6"/>
<text text-anchor="middle" x="4167.5" y="-13" font-family="Helvetica,sans-Serif" font-size="10.00">src/libs/vlayout/vlayoutpaper.cpp</text>
</a>
</g>
</g>
<!-- Node13&#45;&gt;Node18 -->
<g id="edge20" class="edge">
<title>Node13&#45;&gt;Node18</title>
<path fill="none" stroke="midnightblue" d="M4167.5,-135.36C4167.5,-105.23 4167.5,-46.99 4167.5,-25.1"/>
<polygon fill="midnightblue" stroke="midnightblue" points="4164,-135.4 4167.5,-145.4 4171,-135.4 4164,-135.4"/>
</g>
<!-- Node19 -->
<g id="node19" class="node">
<title>Node19</title>
<g id="a_node19"><a xlink:href="../../d3/d39/vlayoutgenerator_8cpp.html" target="_top" xlink:title=" ">
<polygon fill="white" stroke="black" points="4196,-73 4196,-92 4393,-92 4393,-73 4196,-73"/>
<text text-anchor="middle" x="4294.5" y="-80" font-family="Helvetica,sans-Serif" font-size="10.00">src/libs/vlayout/vlayoutgenerator.cpp</text>
</a>
</g>
</g>
<!-- Node13&#45;&gt;Node19 -->
<g id="edge19" class="edge">
<title>Node13&#45;&gt;Node19</title>
<path fill="none" stroke="midnightblue" d="M4191.82,-140.5C4217.44,-126.28 4257.02,-104.3 4278.8,-92.22"/>
<polygon fill="midnightblue" stroke="midnightblue" points="4190.12,-137.44 4183.07,-145.36 4193.51,-143.56 4190.12,-137.44"/>
</g>
<!-- Node20 -->
<g id="node20" class="node">
<title>Node20</title>
<g id="a_node20"><a xlink:href="../../db/d5c/vposition_8h.html" target="_top" xlink:title=" ">
<polygon fill="white" stroke="red" points="4411.5,-73 4411.5,-92 4559.5,-92 4559.5,-73 4411.5,-73"/>
<text text-anchor="middle" x="4485.5" y="-80" font-family="Helvetica,sans-Serif" font-size="10.00">src/libs/vlayout/vposition.h</text>
</a>
</g>
</g>
<!-- Node13&#45;&gt;Node20 -->
<g id="edge21" class="edge">
<title>Node13&#45;&gt;Node20</title>
<path fill="none" stroke="midnightblue" d="M4215.99,-143.25C4279.35,-129.2 4389.03,-104.89 4447.01,-92.03"/>
<polygon fill="midnightblue" stroke="midnightblue" points="4214.86,-139.91 4205.86,-145.5 4216.38,-146.75 4214.86,-139.91"/>
</g>
<!-- Node22 -->
<g id="node21" class="node">
<title>Node22</title>
<g id="a_node21"><a xlink:href="../../dd/d70/vlayoutpiece_8cpp.html" target="_top" xlink:title=" ">
<polygon fill="white" stroke="black" points="3590,-73 3590,-92 3767,-92 3767,-73 3590,-73"/>
<text text-anchor="middle" x="3678.5" y="-80" font-family="Helvetica,sans-Serif" font-size="10.00">src/libs/vlayout/vlayoutpiece.cpp</text>
</a>
</g>
</g>
<!-- Node13&#45;&gt;Node22 -->
<g id="edge23" class="edge">
<title>Node13&#45;&gt;Node22</title>
<path fill="none" stroke="midnightblue" d="M4097.32,-144.05C4019.05,-132.93 3888.69,-114.33 3776.5,-98 3763.31,-96.08 3749.12,-93.99 3735.75,-92.02"/>
<polygon fill="midnightblue" stroke="midnightblue" points="4097.14,-147.56 4107.54,-145.5 4098.13,-140.63 4097.14,-147.56"/>
</g>
<!-- Node17&#45;&gt;Node18 -->
<g id="edge18" class="edge">
<title>Node17&#45;&gt;Node18</title>
<path fill="none" stroke="midnightblue" d="M4074.39,-67.79C4097.78,-54.9 4132.06,-36.02 4151.84,-25.13"/>
<polygon fill="midnightblue" stroke="midnightblue" points="4072.48,-64.84 4065.41,-72.73 4075.86,-70.97 4072.48,-64.84"/>
</g>
<!-- Node20&#45;&gt;Node18 -->
<g id="edge22" class="edge">
<title>Node20&#45;&gt;Node18</title>
<path fill="none" stroke="midnightblue" d="M4433.54,-70.88C4370.91,-58.08 4266.91,-36.82 4209.24,-25.03"/>
<polygon fill="midnightblue" stroke="midnightblue" points="4433.1,-74.36 4443.6,-72.94 4434.5,-67.5 4433.1,-74.36"/>
</g>
<!-- Node24&#45;&gt;Node9 -->
<g id="edge51" class="edge">
<title>Node24&#45;&gt;Node9</title>
<path fill="none" stroke="midnightblue" d="M2200.78,-144.25C2167.93,-140.36 2128.86,-136.28 2093.5,-134 1263.96,-80.55 1052.62,-157.64 223.5,-98 204.67,-96.65 184.22,-94.36 165.8,-92"/>
<polygon fill="midnightblue" stroke="midnightblue" points="2200.42,-147.73 2210.76,-145.45 2201.25,-140.78 2200.42,-147.73"/>
</g>
<!-- Node24&#45;&gt;Node22 -->
<g id="edge39" class="edge">
<title>Node24&#45;&gt;Node22</title>
<path fill="none" stroke="midnightblue" d="M2383.22,-150.82C2652.39,-142.66 3349.26,-120.01 3580.5,-98 3595.91,-96.53 3612.6,-94.31 3627.76,-92.03"/>
<polygon fill="midnightblue" stroke="midnightblue" points="2382.94,-147.33 2373.05,-151.13 2383.15,-154.33 2382.94,-147.33"/>
</g>
<!-- Node24&#45;&gt;Node23 -->
<g id="edge36" class="edge">
<title>Node24&#45;&gt;Node23</title>
<path fill="none" stroke="midnightblue" d="M2226.61,-143.49C2207.35,-139.8 2184.98,-136.06 2164.5,-134 1450.15,-62.13 1264.98,-157.62 549.5,-98 533.24,-96.65 515.6,-94.36 499.72,-92"/>
<polygon fill="midnightblue" stroke="midnightblue" points="2226.18,-146.98 2236.67,-145.47 2227.53,-140.11 2226.18,-146.98"/>
</g>
<!-- Node25 -->
<g id="node24" class="node">
<title>Node25</title>
<g id="a_node24"><a xlink:href="../../d4/d90/fvupdater_8cpp.html" target="_top" xlink:title=" ">
<polygon fill="white" stroke="black" points="559,-73 559,-92 712,-92 712,-73 559,-73"/>
<text text-anchor="middle" x="635.5" y="-80" font-family="Helvetica,sans-Serif" font-size="10.00">src/libs/fervor/fvupdater.cpp</text>
</a>
</g>
</g>
<!-- Node24&#45;&gt;Node25 -->
<g id="edge26" class="edge">
<title>Node24&#45;&gt;Node25</title>
<path fill="none" stroke="midnightblue" d="M2226.61,-143.52C2207.35,-139.83 2184.98,-136.09 2164.5,-134 1525.83,-68.89 1359.46,-160.14 720.5,-98 706.64,-96.65 691.64,-94.37 678.14,-92.01"/>
<polygon fill="midnightblue" stroke="midnightblue" points="2226.18,-147 2236.67,-145.5 2227.53,-140.13 2226.18,-147"/>
</g>
<!-- Node26 -->
<g id="node25" class="node">
<title>Node26</title>
<g id="a_node25"><a xlink:href="../../d9/dc8/dxiface_8cpp.html" target="_top" xlink:title=" ">
<polygon fill="white" stroke="black" points="730,-73 730,-92 865,-92 865,-73 730,-73"/>
<text text-anchor="middle" x="797.5" y="-80" font-family="Helvetica,sans-Serif" font-size="10.00">src/libs/vdxf/dxiface.cpp</text>
</a>
</g>
</g>
<!-- Node24&#45;&gt;Node26 -->
<g id="edge27" class="edge">
<title>Node24&#45;&gt;Node26</title>
<path fill="none" stroke="midnightblue" d="M2226.37,-143.51C2207.17,-139.84 2184.89,-136.11 2164.5,-134 1593.55,-74.94 1444.14,-159.99 873.5,-98 861.08,-96.65 847.66,-94.37 835.59,-92.01"/>
<polygon fill="midnightblue" stroke="midnightblue" points="2225.92,-146.99 2236.41,-145.47 2227.26,-140.12 2225.92,-146.99"/>
</g>
<!-- Node27 -->
<g id="node26" class="node">
<title>Node27</title>
<g id="a_node26"><a xlink:href="../../da/d75/vabstractarc__p_8h.html" target="_top" xlink:title=" ">
<polygon fill="white" stroke="red" points="883,-67.5 883,-97.5 990,-97.5 990,-67.5 883,-67.5"/>
<text text-anchor="start" x="891" y="-85.5" font-family="Helvetica,sans-Serif" font-size="10.00">src/libs/vgeometry</text>
<text text-anchor="middle" x="936.5" y="-74.5" font-family="Helvetica,sans-Serif" font-size="10.00">/vabstractarc_p.h</text>
</a>
</g>
</g>
<!-- Node24&#45;&gt;Node27 -->
<g id="edge28" class="edge">
<title>Node24&#45;&gt;Node27</title>
<path fill="none" stroke="midnightblue" d="M2226.14,-143.5C2206.98,-139.84 2184.8,-136.13 2164.5,-134 1648.86,-79.88 1512.57,-165.37 998.5,-98 995.76,-97.64 992.96,-97.21 990.15,-96.74"/>
<polygon fill="midnightblue" stroke="midnightblue" points="2225.66,-146.97 2236.15,-145.45 2227,-140.1 2225.66,-146.97"/>
</g>
<!-- Node29 -->
<g id="node27" class="node">
<title>Node29</title>
<g id="a_node27"><a xlink:href="../../dc/da3/varc__p_8h.html" target="_top" xlink:title=" ">
<polygon fill="white" stroke="red" points="1008,-67.5 1008,-97.5 1115,-97.5 1115,-67.5 1008,-67.5"/>
<text text-anchor="start" x="1016" y="-85.5" font-family="Helvetica,sans-Serif" font-size="10.00">src/libs/vgeometry</text>
<text text-anchor="middle" x="1061.5" y="-74.5" font-family="Helvetica,sans-Serif" font-size="10.00">/varc_p.h</text>
</a>
</g>
</g>
<!-- Node24&#45;&gt;Node29 -->
<g id="edge29" class="edge">
<title>Node24&#45;&gt;Node29</title>
<path fill="none" stroke="midnightblue" d="M2226.13,-143.54C2206.98,-139.89 2184.8,-136.17 2164.5,-134 1704.18,-84.83 1582.41,-159 1123.5,-98 1120.76,-97.64 1117.96,-97.2 1115.15,-96.72"/>
<polygon fill="midnightblue" stroke="midnightblue" points="2225.66,-147.01 2236.14,-145.49 2227,-140.14 2225.66,-147.01"/>
</g>
<!-- Node31 -->
<g id="node28" class="node">
<title>Node31</title>
<g id="a_node28"><a xlink:href="../../d5/d8e/vcubicbezier__p_8h.html" target="_top" xlink:title=" ">
<polygon fill="white" stroke="red" points="1133,-67.5 1133,-97.5 1240,-97.5 1240,-67.5 1133,-67.5"/>
<text text-anchor="start" x="1141" y="-85.5" font-family="Helvetica,sans-Serif" font-size="10.00">src/libs/vgeometry</text>
<text text-anchor="middle" x="1186.5" y="-74.5" font-family="Helvetica,sans-Serif" font-size="10.00">/vcubicbezier_p.h</text>
</a>
</g>
</g>
<!-- Node24&#45;&gt;Node31 -->
<g id="edge30" class="edge">
<title>Node24&#45;&gt;Node31</title>
<path fill="none" stroke="midnightblue" d="M2225.89,-143.54C2206.79,-139.91 2184.71,-136.21 2164.5,-134 1759.92,-89.81 1652.9,-151.88 1249.5,-98 1246.5,-97.6 1243.43,-97.12 1240.33,-96.59"/>
<polygon fill="midnightblue" stroke="midnightblue" points="2225.39,-147.01 2235.88,-145.48 2226.73,-140.14 2225.39,-147.01"/>
</g>
<!-- Node33 -->
<g id="node29" class="node">
<title>Node33</title>
<g id="a_node29"><a xlink:href="../../df/dde/vellipticalarc__p_8h.html" target="_top" xlink:title=" ">
<polygon fill="white" stroke="black" points="2222,-67.5 2222,-97.5 2329,-97.5 2329,-67.5 2222,-67.5"/>
<text text-anchor="start" x="2230" y="-85.5" font-family="Helvetica,sans-Serif" font-size="10.00">src/libs/vgeometry</text>
<text text-anchor="middle" x="2275.5" y="-74.5" font-family="Helvetica,sans-Serif" font-size="10.00">/vellipticalarc_p.h</text>
</a>
</g>
</g>
<!-- Node24&#45;&gt;Node33 -->
<g id="edge31" class="edge">
<title>Node24&#45;&gt;Node33</title>
<path fill="none" stroke="midnightblue" d="M2275.5,-135.24C2275.5,-123.41 2275.5,-108.38 2275.5,-97.58"/>
<polygon fill="midnightblue" stroke="midnightblue" points="2272,-135.36 2275.5,-145.36 2279,-135.36 2272,-135.36"/>
</g>
<!-- Node34 -->
<g id="node30" class="node">
<title>Node34</title>
<g id="a_node30"><a xlink:href="../../d6/dfb/vellipticalarc_8cpp.html" target="_top" xlink:title=" ">
<polygon fill="white" stroke="black" points="2263,-0.5 2263,-30.5 2370,-30.5 2370,-0.5 2263,-0.5"/>
<text text-anchor="start" x="2271" y="-18.5" font-family="Helvetica,sans-Serif" font-size="10.00">src/libs/vgeometry</text>
<text text-anchor="middle" x="2316.5" y="-7.5" font-family="Helvetica,sans-Serif" font-size="10.00">/vellipticalarc.cpp</text>
</a>
</g>
</g>
<!-- Node24&#45;&gt;Node34 -->
<g id="edge33" class="edge">
<title>Node24&#45;&gt;Node34</title>
<path fill="none" stroke="midnightblue" d="M2299.55,-139.64C2313.47,-129.85 2329.72,-115.51 2337.5,-98 2347.53,-75.43 2335.16,-47.14 2325.6,-30.52"/>
<polygon fill="midnightblue" stroke="midnightblue" points="2297.26,-136.96 2290.86,-145.4 2301.13,-142.8 2297.26,-136.96"/>
</g>
<!-- Node35 -->
<g id="node31" class="node">
<title>Node35</title>
<g id="a_node31"><a xlink:href="../../d9/d15/vabstractpiece_8cpp.html" target="_top" xlink:title=" ">
<polygon fill="white" stroke="black" points="1258.5,-73 1258.5,-92 1444.5,-92 1444.5,-73 1258.5,-73"/>
<text text-anchor="middle" x="1351.5" y="-80" font-family="Helvetica,sans-Serif" font-size="10.00">src/libs/vlayout/vabstractpiece.cpp</text>
</a>
</g>
</g>
<!-- Node24&#45;&gt;Node35 -->
<g id="edge34" class="edge">
<title>Node24&#45;&gt;Node35</title>
<path fill="none" stroke="midnightblue" d="M2225.41,-143.57C2206.41,-139.99 2184.53,-136.3 2164.5,-134 1849.72,-97.83 1767.87,-128.55 1452.5,-98 1436.81,-96.48 1419.82,-94.26 1404.33,-92.02"/>
<polygon fill="midnightblue" stroke="midnightblue" points="2224.87,-147.03 2235.35,-145.49 2226.19,-140.16 2224.87,-147.03"/>
</g>
<!-- Node36 -->
<g id="node32" class="node">
<title>Node36</title>
<g id="a_node32"><a xlink:href="../../d1/d76/vspline__p_8h.html" target="_top" xlink:title=" ">
<polygon fill="white" stroke="red" points="1462,-67.5 1462,-97.5 1569,-97.5 1569,-67.5 1462,-67.5"/>
<text text-anchor="start" x="1470" y="-85.5" font-family="Helvetica,sans-Serif" font-size="10.00">src/libs/vgeometry</text>
<text text-anchor="middle" x="1515.5" y="-74.5" font-family="Helvetica,sans-Serif" font-size="10.00">/vspline_p.h</text>
</a>
</g>
</g>
<!-- Node24&#45;&gt;Node36 -->
<g id="edge35" class="edge">
<title>Node24&#45;&gt;Node36</title>
<path fill="none" stroke="midnightblue" d="M2224.93,-143.6C2206.04,-140.06 2184.36,-136.39 2164.5,-134 1904.99,-102.77 1836.12,-135.9 1577.5,-98 1574.77,-97.6 1571.97,-97.14 1569.16,-96.63"/>
<polygon fill="midnightblue" stroke="midnightblue" points="2224.34,-147.05 2234.82,-145.49 2225.65,-140.18 2224.34,-147.05"/>
</g>
<!-- Node38 -->
<g id="node33" class="node">
<title>Node38</title>
<g id="a_node33"><a xlink:href="../../db/d65/dialogexporttocsv_8cpp.html" target="_top" xlink:title=" ">
<polygon fill="white" stroke="black" points="1587,-67.5 1587,-97.5 1714,-97.5 1714,-67.5 1587,-67.5"/>
<text text-anchor="start" x="1595" y="-85.5" font-family="Helvetica,sans-Serif" font-size="10.00">src/libs/vmisc/dialogs</text>
<text text-anchor="middle" x="1650.5" y="-74.5" font-family="Helvetica,sans-Serif" font-size="10.00">/dialogexporttocsv.cpp</text>
</a>
</g>
</g>
<!-- Node24&#45;&gt;Node38 -->
<g id="edge37" class="edge">
<title>Node24&#45;&gt;Node38</title>
<path fill="none" stroke="midnightblue" d="M2223.7,-143.59C2205.09,-140.14 2183.91,-136.54 2164.5,-134 1969.5,-108.53 1918.26,-125.2 1723.5,-98 1720.43,-97.57 1717.29,-97.1 1714.13,-96.58"/>
<polygon fill="midnightblue" stroke="midnightblue" points="2223.27,-147.07 2233.75,-145.49 2224.57,-140.2 2223.27,-147.07"/>
</g>
<!-- Node39 -->
<g id="node34" class="node">
<title>Node39</title>
<g id="a_node34"><a xlink:href="../../d6/d0b/def_8cpp.html" target="_top" xlink:title=" ">
<polygon fill="white" stroke="black" points="1732.5,-73 1732.5,-92 1854.5,-92 1854.5,-73 1732.5,-73"/>
<text text-anchor="middle" x="1793.5" y="-80" font-family="Helvetica,sans-Serif" font-size="10.00">src/libs/vmisc/def.cpp</text>
</a>
</g>
</g>
<!-- Node24&#45;&gt;Node39 -->
<g id="edge38" class="edge">
<title>Node24&#45;&gt;Node39</title>
<path fill="none" stroke="midnightblue" d="M2221.5,-143.61C2203.42,-140.3 2183.12,-136.79 2164.5,-134 2031.25,-114.05 1996.47,-119.68 1863.5,-98 1853.21,-96.32 1842.14,-94.18 1831.9,-92.07"/>
<polygon fill="midnightblue" stroke="midnightblue" points="2221.11,-147.09 2231.57,-145.47 2222.38,-140.21 2221.11,-147.09"/>
</g>
<!-- Node40 -->
<g id="node35" class="node">
<title>Node40</title>
<g id="a_node35"><a xlink:href="../../d0/df6/vabstractapplication_8cpp.html" target="_top" xlink:title=" ">
<polygon fill="white" stroke="black" points="1872.5,-73 1872.5,-92 2078.5,-92 2078.5,-73 1872.5,-73"/>
<text text-anchor="middle" x="1975.5" y="-80" font-family="Helvetica,sans-Serif" font-size="10.00">src/libs/vmisc/vabstractapplication.cpp</text>
</a>
</g>
</g>
<!-- Node24&#45;&gt;Node40 -->
<g id="edge40" class="edge">
<title>Node24&#45;&gt;Node40</title>
<path fill="none" stroke="midnightblue" d="M2229.38,-143.16C2169.55,-129.1 2066.4,-104.86 2011.82,-92.03"/>
<polygon fill="midnightblue" stroke="midnightblue" points="2228.78,-146.62 2239.31,-145.5 2230.38,-139.8 2228.78,-146.62"/>
</g>
<!-- Node41 -->
<g id="node36" class="node">
<title>Node41</title>
<g id="a_node36"><a xlink:href="../../d4/d4f/pmsystems_8cpp.html" target="_top" xlink:title=" ">
<polygon fill="white" stroke="black" points="2097,-67.5 2097,-97.5 2204,-97.5 2204,-67.5 2097,-67.5"/>
<text text-anchor="start" x="2105" y="-85.5" font-family="Helvetica,sans-Serif" font-size="10.00">src/libs/vpatterndb</text>
<text text-anchor="middle" x="2150.5" y="-74.5" font-family="Helvetica,sans-Serif" font-size="10.00">/pmsystems.cpp</text>
</a>
</g>
</g>
<!-- Node24&#45;&gt;Node41 -->
<g id="edge41" class="edge">
<title>Node24&#45;&gt;Node41</title>
<path fill="none" stroke="midnightblue" d="M2251.21,-140.3C2229.39,-127.99 2197.48,-110 2175.46,-97.58"/>
<polygon fill="midnightblue" stroke="midnightblue" points="2249.74,-143.49 2260.17,-145.36 2253.18,-137.39 2249.74,-143.49"/>
</g>
<!-- Node24&#45;&gt;Node42 -->
<g id="edge42" class="edge">
<title>Node24&#45;&gt;Node42</title>
<path fill="none" stroke="midnightblue" d="M2383.19,-147.47C2587.08,-134.98 3015.18,-108.02 3082.5,-98 3085.61,-97.54 3088.79,-97 3091.99,-96.42"/>
<polygon fill="midnightblue" stroke="midnightblue" points="2382.82,-143.99 2373.05,-148.09 2383.25,-150.98 2382.82,-143.99"/>
</g>
<!-- Node24&#45;&gt;Node43 -->
<g id="edge43" class="edge">
<title>Node24&#45;&gt;Node43</title>
<path fill="none" stroke="midnightblue" d="M2383.5,-150.36C2557.38,-143.86 2910.02,-128.03 3207.5,-98 3223.25,-96.41 3240.3,-94.19 3255.87,-91.96"/>
<polygon fill="midnightblue" stroke="midnightblue" points="2383.19,-146.87 2373.32,-150.74 2383.45,-153.86 2383.19,-146.87"/>
</g>
<!-- Node24&#45;&gt;Node44 -->
<g id="edge44" class="edge">
<title>Node24&#45;&gt;Node44</title>
<path fill="none" stroke="midnightblue" d="M2212.96,-144C2186.38,-140.17 2155,-136.19 2126.5,-134 1732.7,-103.68 741.47,-146.55 349.5,-98 346.49,-97.63 343.42,-97.17 340.33,-96.66"/>
<polygon fill="midnightblue" stroke="midnightblue" points="2212.5,-147.47 2222.9,-145.46 2213.52,-140.55 2212.5,-147.47"/>
</g>
<!-- Node45 -->
<g id="node40" class="node">
<title>Node45</title>
<g id="a_node40"><a xlink:href="../../df/dba/vpiecenode__p_8h.html" target="_top" xlink:title=" ">
<polygon fill="white" stroke="black" points="2967,-67.5 2967,-97.5 3074,-97.5 3074,-67.5 2967,-67.5"/>
<text text-anchor="start" x="2975" y="-85.5" font-family="Helvetica,sans-Serif" font-size="10.00">src/libs/vpatterndb</text>
<text text-anchor="middle" x="3020.5" y="-74.5" font-family="Helvetica,sans-Serif" font-size="10.00">/vpiecenode_p.h</text>
</a>
</g>
</g>
<!-- Node24&#45;&gt;Node45 -->
<g id="edge45" class="edge">
<title>Node24&#45;&gt;Node45</title>
<path fill="none" stroke="midnightblue" d="M2383.48,-149.95C2518.43,-143.78 2756.13,-129.27 2957.5,-98 2960.61,-97.52 2963.79,-96.97 2966.99,-96.37"/>
<polygon fill="midnightblue" stroke="midnightblue" points="2382.98,-146.47 2373.15,-150.41 2383.29,-153.46 2382.98,-146.47"/>
</g>
<!-- Node47 -->
<g id="node42" class="node">
<title>Node47</title>
<g id="a_node42"><a xlink:href="../../de/d3e/vtranslatevars_8cpp.html" target="_top" xlink:title=" ">
<polygon fill="white" stroke="black" points="2385.5,-67.5 2385.5,-97.5 2495.5,-97.5 2495.5,-67.5 2385.5,-67.5"/>
<text text-anchor="start" x="2393.5" y="-85.5" font-family="Helvetica,sans-Serif" font-size="10.00">src/libs/vpatterndb</text>
<text text-anchor="middle" x="2440.5" y="-74.5" font-family="Helvetica,sans-Serif" font-size="10.00">/vtranslatevars.cpp</text>
</a>
</g>
</g>
<!-- Node24&#45;&gt;Node47 -->
<g id="edge47" class="edge">
<title>Node24&#45;&gt;Node47</title>
<path fill="none" stroke="midnightblue" d="M2304.94,-141.42C2333.81,-129.08 2377.75,-110.31 2407.72,-97.51"/>
<polygon fill="midnightblue" stroke="midnightblue" points="2303.22,-138.35 2295.4,-145.5 2305.97,-144.79 2303.22,-138.35"/>
</g>
<!-- Node48 -->
<g id="node43" class="node">
<title>Node48</title>
<g id="a_node43"><a xlink:href="../../df/d40/export__format__combobox_8cpp.html" target="_top" xlink:title=" ">
<polygon fill="white" stroke="black" points="2514,-67.5 2514,-97.5 2647,-97.5 2647,-67.5 2514,-67.5"/>
<text text-anchor="start" x="2522" y="-85.5" font-family="Helvetica,sans-Serif" font-size="10.00">src/libs/vwidgets/export</text>
<text text-anchor="middle" x="2580.5" y="-74.5" font-family="Helvetica,sans-Serif" font-size="10.00">_format_combobox.cpp</text>
</a>
</g>
</g>
<!-- Node24&#45;&gt;Node48 -->
<g id="edge48" class="edge">
<title>Node24&#45;&gt;Node48</title>
<path fill="none" stroke="midnightblue" d="M2322.1,-143.23C2375.07,-130.98 2461.72,-110.96 2519.91,-97.51"/>
<polygon fill="midnightblue" stroke="midnightblue" points="2321.24,-139.83 2312.29,-145.5 2322.82,-146.65 2321.24,-139.83"/>
</g>
<!-- Node49 -->
<g id="node44" class="node">
<title>Node49</title>
<g id="a_node44"><a xlink:href="../../d3/d4f/mouse__coordinates_8cpp.html" target="_top" xlink:title=" ">
<polygon fill="white" stroke="black" points="2665.5,-67.5 2665.5,-97.5 2799.5,-97.5 2799.5,-67.5 2665.5,-67.5"/>
<text text-anchor="start" x="2673.5" y="-85.5" font-family="Helvetica,sans-Serif" font-size="10.00">src/libs/vwidgets/mouse</text>
<text text-anchor="middle" x="2732.5" y="-74.5" font-family="Helvetica,sans-Serif" font-size="10.00">_coordinates.cpp</text>
</a>
</g>
</g>
<!-- Node24&#45;&gt;Node49 -->
<g id="edge49" class="edge">
<title>Node24&#45;&gt;Node49</title>
<path fill="none" stroke="midnightblue" d="M2348.52,-144.12C2425.12,-133.55 2548.97,-115.87 2655.5,-98 2658.72,-97.46 2662.01,-96.89 2665.34,-96.31"/>
<polygon fill="midnightblue" stroke="midnightblue" points="2347.92,-140.67 2338.49,-145.5 2348.87,-147.6 2347.92,-140.67"/>
</g>
<!-- Node50 -->
<g id="node45" class="node">
<title>Node50</title>
<g id="a_node45"><a xlink:href="../../d2/d28/page__format__combobox_8cpp.html" target="_top" xlink:title=" ">
<polygon fill="white" stroke="black" points="2818,-67.5 2818,-97.5 2949,-97.5 2949,-67.5 2818,-67.5"/>
<text text-anchor="start" x="2826" y="-85.5" font-family="Helvetica,sans-Serif" font-size="10.00">src/libs/vwidgets/page</text>
<text text-anchor="middle" x="2883.5" y="-74.5" font-family="Helvetica,sans-Serif" font-size="10.00">_format_combobox.cpp</text>
</a>
</g>
</g>
<!-- Node24&#45;&gt;Node50 -->
<g id="edge50" class="edge">
<title>Node24&#45;&gt;Node50</title>
<path fill="none" stroke="midnightblue" d="M2383.32,-145.42C2491.23,-136.19 2661.84,-119.84 2808.5,-98 2811.52,-97.55 2814.6,-97.07 2817.71,-96.55"/>
<polygon fill="midnightblue" stroke="midnightblue" points="2382.75,-141.96 2373.08,-146.29 2383.34,-148.93 2382.75,-141.96"/>
</g>
<!-- Node33&#45;&gt;Node34 -->
<g id="edge32" class="edge">
<title>Node33&#45;&gt;Node34</title>
<path fill="none" stroke="midnightblue" d="M2289.78,-58.87C2295.71,-49.46 2302.41,-38.83 2307.62,-30.58"/>
<polygon fill="midnightblue" stroke="midnightblue" points="2286.77,-57.07 2284.4,-67.4 2292.69,-60.81 2286.77,-57.07"/>
</g>
<!-- Node45&#45;&gt;Node46 -->
<g id="edge46" class="edge">
<title>Node45&#45;&gt;Node46</title>
<path fill="none" stroke="midnightblue" d="M3051.38,-62.02C3067.4,-51.9 3086.63,-39.77 3101.19,-30.58"/>
<polygon fill="midnightblue" stroke="midnightblue" points="3049.44,-59.1 3042.85,-67.4 3053.17,-65.02 3049.44,-59.1"/>
</g>
</g>
</svg>
