<?xml version="1.0" encoding="UTF-8" standalone="no"?>
<!DOCTYPE svg PUBLIC "-//W3C//DTD SVG 1.1//EN"
 "http://www.w3.org/Graphics/SVG/1.1/DTD/svg11.dtd">
<!-- Generated by graphviz version 2.43.0 (0)
 -->
<!-- Title: src/libs/ifc/xml/vtoolrecord.h Pages: 1 -->
<!--zoomable 274 -->
<svg id="main" version="1.1" xmlns="http://www.w3.org/2000/svg" xmlns:xlink="http://www.w3.org/1999/xlink" xml:space="preserve" onload="init(evt)">
<style type="text/css"><![CDATA[
.edge:hover path { stroke: red; }
.edge:hover polygon { stroke: red; fill: red; }
]]></style>
<script type="text/javascript"><![CDATA[
var edges = document.getElementsByTagName('g');
if (edges && edges.length) {
  for (var i=0;i<edges.length;i++) {
    if (edges[i].id.substr(0,4)=='edge') {
      edges[i].setAttribute('class','edge');
    }
  }
}
]]></script>
        <defs>
                <circle id="rim" cx="0" cy="0" r="7"/>
                <circle id="rim2" cx="0" cy="0" r="3.5"/>
                <g id="zoomPlus">
                        <use xlink:href="#rim" fill="#404040">
                                <set attributeName="fill" to="#808080" begin="zoomplus.mouseover" end="zoomplus.mouseout"/>
                        </use>
                        <path d="M-4,0h8M0,-4v8" fill="none" stroke="white" stroke-width="1.5" pointer-events="none"/>
                </g>
                <g id="zoomMin">
                        <use xlink:href="#rim" fill="#404040">
                                <set attributeName="fill" to="#808080" begin="zoomminus.mouseover" end="zoomminus.mouseout"/>
                        </use>
                        <path d="M-4,0h8" fill="none" stroke="white" stroke-width="1.5" pointer-events="none"/>
                </g>
                <g id="dirArrow">
                        <path fill="none" stroke="white" stroke-width="1.5" d="M0,-3.0v7 M-2.5,-0.5L0,-3.0L2.5,-0.5"/>
                </g>
               <g id="resetDef">
                       <use xlink:href="#rim2" fill="#404040">
                               <set attributeName="fill" to="#808080" begin="reset.mouseover" end="reset.mouseout"/>
                       </use>
               </g>
        </defs>

<script type="text/javascript">
var viewWidth = 2093;
var viewHeight = 274;
var sectionId = 'dynsection-1';
</script>
<script xlink:href="../../svgpan.js"/>
<svg id="graph" class="graph">
<g id="viewport">
<title>src/libs/ifc/xml/vtoolrecord.h</title>
<polygon fill="white" stroke="transparent" points="-4,4 -4,-270 2089,-270 2089,4 -4,4"/>
<!-- Node1 -->
<g id="node1" class="node">
<title>Node1</title>
<g id="a_node1"><a xlink:title=" ">
<polygon fill="#bfbfbf" stroke="black" points="473.5,-246.5 473.5,-265.5 628.5,-265.5 628.5,-246.5 473.5,-246.5"/>
<text text-anchor="middle" x="551" y="-253.5" font-family="Helvetica,sans-Serif" font-size="10.00">src/libs/ifc/xml/vtoolrecord.h</text>
</a>
</g>
</g>
<!-- Node2 -->
<g id="node2" class="node">
<title>Node2</title>
<g id="a_node2"><a xlink:href="../../d0/d89/vabstractpattern_8h.html" target="_top" xlink:title=" ">
<polygon fill="white" stroke="black" points="460.5,-190.5 460.5,-209.5 641.5,-209.5 641.5,-190.5 460.5,-190.5"/>
<text text-anchor="middle" x="551" y="-197.5" font-family="Helvetica,sans-Serif" font-size="10.00">src/libs/ifc/xml/vabstractpattern.h</text>
</a>
</g>
</g>
<!-- Node1&#45;&gt;Node2 -->
<g id="edge1" class="edge">
<title>Node1&#45;&gt;Node2</title>
<path fill="none" stroke="midnightblue" d="M551,-235.8C551,-226.91 551,-216.78 551,-209.75"/>
<polygon fill="midnightblue" stroke="midnightblue" points="547.5,-236.08 551,-246.08 554.5,-236.08 547.5,-236.08"/>
</g>
<!-- Node3 -->
<g id="node3" class="node">
<title>Node3</title>
<g id="a_node3"><a xlink:href="../../de/d7d/vabstractpattern_8cpp.html" target="_top" xlink:title=" ">
<polygon fill="white" stroke="black" points="0,-129 0,-148 192,-148 192,-129 0,-129"/>
<text text-anchor="middle" x="96" y="-136" font-family="Helvetica,sans-Serif" font-size="10.00">src/libs/ifc/xml/vabstractpattern.cpp</text>
</a>
</g>
</g>
<!-- Node1&#45;&gt;Node3 -->
<g id="edge22" class="edge">
<title>Node1&#45;&gt;Node3</title>
<path fill="none" stroke="midnightblue" d="M507.24,-243.89C416.78,-220.93 210.86,-168.66 129.74,-148.06"/>
<polygon fill="midnightblue" stroke="midnightblue" points="506.62,-247.34 517.17,-246.41 508.34,-240.56 506.62,-247.34"/>
</g>
<!-- Node21 -->
<g id="node21" class="node">
<title>Node21</title>
<g id="a_node21"><a xlink:href="../../d6/d6f/vtoolrecord_8cpp.html" target="_top" xlink:title=" ">
<polygon fill="white" stroke="black" points="659.5,-190.5 659.5,-209.5 826.5,-209.5 826.5,-190.5 659.5,-190.5"/>
<text text-anchor="middle" x="743" y="-197.5" font-family="Helvetica,sans-Serif" font-size="10.00">src/libs/ifc/xml/vtoolrecord.cpp</text>
</a>
</g>
</g>
<!-- Node1&#45;&gt;Node21 -->
<g id="edge23" class="edge">
<title>Node1&#45;&gt;Node21</title>
<path fill="none" stroke="midnightblue" d="M591.18,-243.7C627.42,-233.51 679.91,-218.74 712.72,-209.52"/>
<polygon fill="midnightblue" stroke="midnightblue" points="590.1,-240.37 581.42,-246.44 592,-247.11 590.1,-240.37"/>
</g>
<!-- Node2&#45;&gt;Node3 -->
<g id="edge2" class="edge">
<title>Node2&#45;&gt;Node3</title>
<path fill="none" stroke="midnightblue" d="M473.03,-189.19C402.08,-180.21 294.48,-166.46 201,-154 186.77,-152.1 171.47,-150.02 157.06,-148.03"/>
<polygon fill="midnightblue" stroke="midnightblue" points="472.86,-192.69 483.22,-190.48 473.74,-185.75 472.86,-192.69"/>
</g>
<!-- Node4 -->
<g id="node4" class="node">
<title>Node4</title>
<g id="a_node4"><a xlink:href="../../d6/de0/vlayoutpiece_8h.html" target="_top" xlink:title=" ">
<polygon fill="white" stroke="black" points="1297,-129 1297,-148 1463,-148 1463,-129 1297,-129"/>
<text text-anchor="middle" x="1380" y="-136" font-family="Helvetica,sans-Serif" font-size="10.00">src/libs/vlayout/vlayoutpiece.h</text>
</a>
</g>
</g>
<!-- Node2&#45;&gt;Node4 -->
<g id="edge3" class="edge">
<title>Node2&#45;&gt;Node4</title>
<path fill="none" stroke="midnightblue" d="M651.6,-189.89C891.82,-170.76 1163.03,-153.11 1296.75,-144.67"/>
<polygon fill="midnightblue" stroke="midnightblue" points="651.32,-186.4 641.63,-190.68 651.88,-193.37 651.32,-186.4"/>
</g>
<!-- Node14 -->
<g id="node14" class="node">
<title>Node14</title>
<g id="a_node14"><a xlink:href="../../d8/d70/vtextmanager_8cpp.html" target="_top" xlink:title=" ">
<polygon fill="white" stroke="black" points="210,-129 210,-148 392,-148 392,-129 210,-129"/>
<text text-anchor="middle" x="301" y="-136" font-family="Helvetica,sans-Serif" font-size="10.00">src/libs/vlayout/vtextmanager.cpp</text>
</a>
</g>
</g>
<!-- Node2&#45;&gt;Node14 -->
<g id="edge15" class="edge">
<title>Node2&#45;&gt;Node14</title>
<path fill="none" stroke="midnightblue" d="M505.26,-188.11C456.74,-176.57 381.09,-158.56 336.75,-148.01"/>
<polygon fill="midnightblue" stroke="midnightblue" points="504.64,-191.56 515.18,-190.48 506.26,-184.75 504.64,-191.56"/>
</g>
<!-- Node15 -->
<g id="node15" class="node">
<title>Node15</title>
<g id="a_node15"><a xlink:href="../../d0/da5/export__format__combobox_8h.html" target="_top" xlink:title=" ">
<polygon fill="white" stroke="black" points="410.5,-123.5 410.5,-153.5 543.5,-153.5 543.5,-123.5 410.5,-123.5"/>
<text text-anchor="start" x="418.5" y="-141.5" font-family="Helvetica,sans-Serif" font-size="10.00">src/libs/vwidgets/export</text>
<text text-anchor="middle" x="477" y="-130.5" font-family="Helvetica,sans-Serif" font-size="10.00">_format_combobox.h</text>
</a>
</g>
</g>
<!-- Node2&#45;&gt;Node15 -->
<g id="edge16" class="edge">
<title>Node2&#45;&gt;Node15</title>
<path fill="none" stroke="midnightblue" d="M532.59,-184.2C520.92,-174.81 505.92,-162.75 494.44,-153.52"/>
<polygon fill="midnightblue" stroke="midnightblue" points="530.41,-186.94 540.4,-190.48 534.8,-181.48 530.41,-186.94"/>
</g>
<!-- Node17 -->
<g id="node17" class="node">
<title>Node17</title>
<g id="a_node17"><a xlink:href="../../d7/df4/group__tablewidgetitem_8cpp.html" target="_top" xlink:title=" ">
<polygon fill="white" stroke="black" points="561.5,-123.5 561.5,-153.5 690.5,-153.5 690.5,-123.5 561.5,-123.5"/>
<text text-anchor="start" x="569.5" y="-141.5" font-family="Helvetica,sans-Serif" font-size="10.00">src/libs/vwidgets/group</text>
<text text-anchor="middle" x="626" y="-130.5" font-family="Helvetica,sans-Serif" font-size="10.00">_tablewidgetitem.cpp</text>
</a>
</g>
</g>
<!-- Node2&#45;&gt;Node17 -->
<g id="edge18" class="edge">
<title>Node2&#45;&gt;Node17</title>
<path fill="none" stroke="midnightblue" d="M569.66,-184.2C581.49,-174.81 596.69,-162.75 608.32,-153.52"/>
<polygon fill="midnightblue" stroke="midnightblue" points="567.4,-181.52 561.75,-190.48 571.76,-187 567.4,-181.52"/>
</g>
<!-- Node18 -->
<g id="node18" class="node">
<title>Node18</title>
<g id="a_node18"><a xlink:href="../../d3/d86/page__format__combobox_8h.html" target="_top" xlink:title=" ">
<polygon fill="white" stroke="black" points="708.5,-123.5 708.5,-153.5 833.5,-153.5 833.5,-123.5 708.5,-123.5"/>
<text text-anchor="start" x="716.5" y="-141.5" font-family="Helvetica,sans-Serif" font-size="10.00">src/libs/vwidgets/page</text>
<text text-anchor="middle" x="771" y="-130.5" font-family="Helvetica,sans-Serif" font-size="10.00">_format_combobox.h</text>
</a>
</g>
</g>
<!-- Node2&#45;&gt;Node18 -->
<g id="edge19" class="edge">
<title>Node2&#45;&gt;Node18</title>
<path fill="none" stroke="midnightblue" d="M592.19,-187.86C628.11,-178.14 680.39,-164.01 719.15,-153.52"/>
<polygon fill="midnightblue" stroke="midnightblue" points="591.26,-184.49 582.52,-190.48 593.09,-191.24 591.26,-184.49"/>
</g>
<!-- Node20 -->
<g id="node20" class="node">
<title>Node20</title>
<g id="a_node20"><a xlink:href="../../de/d22/vsimplecurve_8cpp.html" target="_top" xlink:title=" ">
<polygon fill="white" stroke="black" points="852,-129 852,-148 1040,-148 1040,-129 852,-129"/>
<text text-anchor="middle" x="946" y="-136" font-family="Helvetica,sans-Serif" font-size="10.00">src/libs/vwidgets/vsimplecurve.cpp</text>
</a>
</g>
</g>
<!-- Node2&#45;&gt;Node20 -->
<g id="edge21" class="edge">
<title>Node2&#45;&gt;Node20</title>
<path fill="none" stroke="midnightblue" d="M617.58,-188.97C693.9,-177.47 817.7,-158.83 889.51,-148.01"/>
<polygon fill="midnightblue" stroke="midnightblue" points="616.96,-185.52 607.59,-190.48 618,-192.45 616.96,-185.52"/>
</g>
<!-- Node5 -->
<g id="node5" class="node">
<title>Node5</title>
<g id="a_node5"><a xlink:href="../../dd/d66/vdxfengine_8cpp.html" target="_top" xlink:title=" ">
<polygon fill="white" stroke="black" points="1769,-62 1769,-81 1923,-81 1923,-62 1769,-62"/>
<text text-anchor="middle" x="1846" y="-69" font-family="Helvetica,sans-Serif" font-size="10.00">src/libs/vdxf/vdxfengine.cpp</text>
</a>
</g>
</g>
<!-- Node4&#45;&gt;Node5 -->
<g id="edge4" class="edge">
<title>Node4&#45;&gt;Node5</title>
<path fill="none" stroke="midnightblue" d="M1459.9,-127.71C1536.87,-118.07 1656.55,-102.59 1760,-87 1772.13,-85.17 1785.19,-83.05 1797.38,-81"/>
<polygon fill="midnightblue" stroke="midnightblue" points="1459.28,-124.25 1449.79,-128.97 1460.15,-131.2 1459.28,-124.25"/>
</g>
<!-- Node6 -->
<g id="node6" class="node">
<title>Node6</title>
<g id="a_node6"><a xlink:href="../../de/da8/vbank_8cpp.html" target="_top" xlink:title=" ">
<polygon fill="white" stroke="black" points="1941,-62 1941,-81 2085,-81 2085,-62 1941,-62"/>
<text text-anchor="middle" x="2013" y="-69" font-family="Helvetica,sans-Serif" font-size="10.00">src/libs/vlayout/vbank.cpp</text>
</a>
</g>
</g>
<!-- Node4&#45;&gt;Node6 -->
<g id="edge5" class="edge">
<title>Node4&#45;&gt;Node6</title>
<path fill="none" stroke="midnightblue" d="M1473.08,-131.44C1583.03,-123.71 1771.31,-108.69 1932,-87 1944.18,-85.36 1957.31,-83.18 1969.39,-81.02"/>
<polygon fill="midnightblue" stroke="midnightblue" points="1472.75,-127.95 1463.01,-132.14 1473.23,-134.93 1472.75,-127.95"/>
</g>
<!-- Node7 -->
<g id="node7" class="node">
<title>Node7</title>
<g id="a_node7"><a xlink:href="../../df/d5d/vcontour_8cpp.html" target="_top" xlink:title=" ">
<polygon fill="white" stroke="black" points="783,-62 783,-81 939,-81 939,-62 783,-62"/>
<text text-anchor="middle" x="861" y="-69" font-family="Helvetica,sans-Serif" font-size="10.00">src/libs/vlayout/vcontour.cpp</text>
</a>
</g>
</g>
<!-- Node4&#45;&gt;Node7 -->
<g id="edge6" class="edge">
<title>Node4&#45;&gt;Node7</title>
<path fill="none" stroke="midnightblue" d="M1286.44,-127.89C1198.83,-118.58 1064.32,-103.48 948,-87 935.57,-85.24 922.17,-83.12 909.71,-81.05"/>
<polygon fill="midnightblue" stroke="midnightblue" points="1286.31,-131.4 1296.62,-128.97 1287.05,-124.44 1286.31,-131.4"/>
</g>
<!-- Node8 -->
<g id="node8" class="node">
<title>Node8</title>
<g id="a_node8"><a xlink:href="../../d3/d39/vlayoutgenerator_8cpp.html" target="_top" xlink:title=" ">
<polygon fill="white" stroke="black" points="957.5,-62 957.5,-81 1154.5,-81 1154.5,-62 957.5,-62"/>
<text text-anchor="middle" x="1056" y="-69" font-family="Helvetica,sans-Serif" font-size="10.00">src/libs/vlayout/vlayoutgenerator.cpp</text>
</a>
</g>
</g>
<!-- Node4&#45;&gt;Node8 -->
<g id="edge7" class="edge">
<title>Node4&#45;&gt;Node8</title>
<path fill="none" stroke="midnightblue" d="M1327.45,-126.96C1263.68,-114.16 1157.4,-92.84 1098.53,-81.03"/>
<polygon fill="midnightblue" stroke="midnightblue" points="1326.82,-130.4 1337.31,-128.94 1328.19,-123.54 1326.82,-130.4"/>
</g>
<!-- Node9 -->
<g id="node9" class="node">
<title>Node9</title>
<g id="a_node9"><a xlink:href="../../d1/dd1/vlayoutpaper_8cpp.html" target="_top" xlink:title=" ">
<polygon fill="white" stroke="black" points="1291,-0.5 1291,-19.5 1469,-19.5 1469,-0.5 1291,-0.5"/>
<text text-anchor="middle" x="1380" y="-7.5" font-family="Helvetica,sans-Serif" font-size="10.00">src/libs/vlayout/vlayoutpaper.cpp</text>
</a>
</g>
</g>
<!-- Node4&#45;&gt;Node9 -->
<g id="edge8" class="edge">
<title>Node4&#45;&gt;Node9</title>
<path fill="none" stroke="midnightblue" d="M1380,-118.44C1380,-90.62 1380,-40.04 1380,-19.76"/>
<polygon fill="midnightblue" stroke="midnightblue" points="1376.5,-118.81 1380,-128.81 1383.5,-118.81 1376.5,-118.81"/>
</g>
<!-- Node10 -->
<g id="node10" class="node">
<title>Node10</title>
<g id="a_node10"><a xlink:href="../../db/d5c/vposition_8h.html" target="_top" xlink:title=" ">
<polygon fill="white" stroke="black" points="1603,-62 1603,-81 1751,-81 1751,-62 1603,-62"/>
<text text-anchor="middle" x="1677" y="-69" font-family="Helvetica,sans-Serif" font-size="10.00">src/libs/vlayout/vposition.h</text>
</a>
</g>
</g>
<!-- Node4&#45;&gt;Node10 -->
<g id="edge9" class="edge">
<title>Node4&#45;&gt;Node10</title>
<path fill="none" stroke="midnightblue" d="M1429.24,-126.72C1487.72,-113.92 1584.09,-92.83 1637.78,-81.08"/>
<polygon fill="midnightblue" stroke="midnightblue" points="1428.15,-123.38 1419.13,-128.94 1429.65,-130.22 1428.15,-123.38"/>
</g>
<!-- Node12 -->
<g id="node12" class="node">
<title>Node12</title>
<g id="a_node12"><a xlink:href="../../dd/d70/vlayoutpiece_8cpp.html" target="_top" xlink:title=" ">
<polygon fill="white" stroke="black" points="1407.5,-62 1407.5,-81 1584.5,-81 1584.5,-62 1407.5,-62"/>
<text text-anchor="middle" x="1496" y="-69" font-family="Helvetica,sans-Serif" font-size="10.00">src/libs/vlayout/vlayoutpiece.cpp</text>
</a>
</g>
</g>
<!-- Node4&#45;&gt;Node12 -->
<g id="edge12" class="edge">
<title>Node4&#45;&gt;Node12</title>
<path fill="none" stroke="midnightblue" d="M1404.47,-123.79C1427.46,-110.9 1461.16,-92.02 1480.6,-81.13"/>
<polygon fill="midnightblue" stroke="midnightblue" points="1402.66,-120.79 1395.64,-128.73 1406.08,-126.9 1402.66,-120.79"/>
</g>
<!-- Node13 -->
<g id="node13" class="node">
<title>Node13</title>
<g id="a_node13"><a xlink:href="../../d2/d2d/vlayoutpaper__p_8h.html" target="_top" xlink:title=" ">
<polygon fill="white" stroke="black" points="1172.5,-62 1172.5,-81 1351.5,-81 1351.5,-62 1172.5,-62"/>
<text text-anchor="middle" x="1262" y="-69" font-family="Helvetica,sans-Serif" font-size="10.00">src/libs/vlayout/vlayoutpaper_p.h</text>
</a>
</g>
</g>
<!-- Node4&#45;&gt;Node13 -->
<g id="edge13" class="edge">
<title>Node4&#45;&gt;Node13</title>
<path fill="none" stroke="midnightblue" d="M1355.11,-123.79C1331.72,-110.9 1297.44,-92.02 1277.66,-81.13"/>
<polygon fill="midnightblue" stroke="midnightblue" points="1353.64,-126.97 1364.09,-128.73 1357.02,-120.84 1353.64,-126.97"/>
</g>
<!-- Node10&#45;&gt;Node9 -->
<g id="edge10" class="edge">
<title>Node10&#45;&gt;Node9</title>
<path fill="none" stroke="midnightblue" d="M1624.46,-59.97C1566.9,-48.44 1475.7,-30.17 1422.47,-19.51"/>
<polygon fill="midnightblue" stroke="midnightblue" points="1623.95,-63.44 1634.45,-61.98 1625.33,-56.58 1623.95,-63.44"/>
</g>
<!-- Node11 -->
<g id="node11" class="node">
<title>Node11</title>
<g id="a_node11"><a xlink:href="../../df/d76/vposition_8cpp.html" target="_top" xlink:title=" ">
<polygon fill="white" stroke="black" points="1597.5,-0.5 1597.5,-19.5 1756.5,-19.5 1756.5,-0.5 1597.5,-0.5"/>
<text text-anchor="middle" x="1677" y="-7.5" font-family="Helvetica,sans-Serif" font-size="10.00">src/libs/vlayout/vposition.cpp</text>
</a>
</g>
</g>
<!-- Node10&#45;&gt;Node11 -->
<g id="edge11" class="edge">
<title>Node10&#45;&gt;Node11</title>
<path fill="none" stroke="midnightblue" d="M1677,-51.82C1677,-41 1677,-27.9 1677,-19.51"/>
<polygon fill="midnightblue" stroke="midnightblue" points="1673.5,-51.98 1677,-61.98 1680.5,-51.98 1673.5,-51.98"/>
</g>
<!-- Node13&#45;&gt;Node9 -->
<g id="edge14" class="edge">
<title>Node13&#45;&gt;Node9</title>
<path fill="none" stroke="midnightblue" d="M1288.05,-57.37C1310.92,-45.83 1343.51,-29.4 1363.12,-19.51"/>
<polygon fill="midnightblue" stroke="midnightblue" points="1286.26,-54.35 1278.91,-61.98 1289.41,-60.6 1286.26,-54.35"/>
</g>
<!-- Node16 -->
<g id="node16" class="node">
<title>Node16</title>
<g id="a_node16"><a xlink:href="../../df/d40/export__format__combobox_8cpp.html" target="_top" xlink:title=" ">
<polygon fill="white" stroke="black" points="410.5,-56.5 410.5,-86.5 543.5,-86.5 543.5,-56.5 410.5,-56.5"/>
<text text-anchor="start" x="418.5" y="-74.5" font-family="Helvetica,sans-Serif" font-size="10.00">src/libs/vwidgets/export</text>
<text text-anchor="middle" x="477" y="-63.5" font-family="Helvetica,sans-Serif" font-size="10.00">_format_combobox.cpp</text>
</a>
</g>
</g>
<!-- Node15&#45;&gt;Node16 -->
<g id="edge17" class="edge">
<title>Node15&#45;&gt;Node16</title>
<path fill="none" stroke="midnightblue" d="M477,-113.11C477,-104.15 477,-94.32 477,-86.58"/>
<polygon fill="midnightblue" stroke="midnightblue" points="473.5,-113.4 477,-123.4 480.5,-113.4 473.5,-113.4"/>
</g>
<!-- Node19 -->
<g id="node19" class="node">
<title>Node19</title>
<g id="a_node19"><a xlink:href="../../d2/d28/page__format__combobox_8cpp.html" target="_top" xlink:title=" ">
<polygon fill="white" stroke="black" points="633.5,-56.5 633.5,-86.5 764.5,-86.5 764.5,-56.5 633.5,-56.5"/>
<text text-anchor="start" x="641.5" y="-74.5" font-family="Helvetica,sans-Serif" font-size="10.00">src/libs/vwidgets/page</text>
<text text-anchor="middle" x="699" y="-63.5" font-family="Helvetica,sans-Serif" font-size="10.00">_format_combobox.cpp</text>
</a>
</g>
</g>
<!-- Node18&#45;&gt;Node19 -->
<g id="edge20" class="edge">
<title>Node18&#45;&gt;Node19</title>
<path fill="none" stroke="midnightblue" d="M747.85,-116.6C736.98,-106.78 724.3,-95.34 714.59,-86.58"/>
<polygon fill="midnightblue" stroke="midnightblue" points="745.61,-119.29 755.38,-123.4 750.3,-114.1 745.61,-119.29"/>
</g>
</g>
</svg>
        <g id="navigator" transform="translate(0 0)" fill="#404254">
                <rect fill="#f2f5e9" fill-opacity="0.5" stroke="#606060" stroke-width=".5" x="0" y="0" width="60" height="60"/>
                <use id="zoomplus" xlink:href="#zoomPlus" x="17" y="9" onmousedown="handleZoom(evt,'in')"/>
                <use id="zoomminus" xlink:href="#zoomMin" x="42" y="9" onmousedown="handleZoom(evt,'out')"/>
                <use id="reset" xlink:href="#resetDef" x="30" y="36" onmousedown="handleReset()"/>
                <g id="arrowUp" xlink:href="#dirArrow" transform="translate(30 24)" onmousedown="handlePan(0,-1)">
                  <use xlink:href="#rim" fill="#404040">
                        <set attributeName="fill" to="#808080" begin="arrowUp.mouseover" end="arrowUp.mouseout"/>
                  </use>
                  <path fill="none" stroke="white" stroke-width="1.5" d="M0,-3.0v7 M-2.5,-0.5L0,-3.0L2.5,-0.5"/>
                </g>
                <g id="arrowRight" xlink:href="#dirArrow" transform="rotate(90) translate(36 -43)" onmousedown="handlePan(1,0)">
                  <use xlink:href="#rim" fill="#404040">
                        <set attributeName="fill" to="#808080" begin="arrowRight.mouseover" end="arrowRight.mouseout"/>
                  </use>
                  <path fill="none" stroke="white" stroke-width="1.5" d="M0,-3.0v7 M-2.5,-0.5L0,-3.0L2.5,-0.5"/>
                </g>
                <g id="arrowDown" xlink:href="#dirArrow" transform="rotate(180) translate(-30 -48)" onmousedown="handlePan(0,1)">
                  <use xlink:href="#rim" fill="#404040">
                        <set attributeName="fill" to="#808080" begin="arrowDown.mouseover" end="arrowDown.mouseout"/>
                  </use>
                  <path fill="none" stroke="white" stroke-width="1.5" d="M0,-3.0v7 M-2.5,-0.5L0,-3.0L2.5,-0.5"/>
                </g>
                <g id="arrowLeft" xlink:href="#dirArrow" transform="rotate(270) translate(-36 17)" onmousedown="handlePan(-1,0)">
                  <use xlink:href="#rim" fill="#404040">
                        <set attributeName="fill" to="#808080" begin="arrowLeft.mouseover" end="arrowLeft.mouseout"/>
                  </use>
                  <path fill="none" stroke="white" stroke-width="1.5" d="M0,-3.0v7 M-2.5,-0.5L0,-3.0L2.5,-0.5"/>
                </g>
        </g>
        <svg viewBox="0 0 15 15" width="100%" height="30px" preserveAspectRatio="xMaxYMin meet">
         <g id="arrow_out" transform="scale(0.3 0.3)">
          <a xlink:href="vtoolrecord_8h__dep__incl_org.svg" target="_base">
           <rect id="button" ry="5" rx="5" y="6" x="6" height="38" width="38"
                fill="#f2f5e9" fill-opacity="0.5" stroke="#606060" stroke-width="1.0"/>
           <path id="arrow"
             d="M 11.500037,31.436501 C 11.940474,20.09759 22.043105,11.32322 32.158766,21.979434 L 37.068811,17.246167 C 37.068811,17.246167 37.088388,32 37.088388,32 L 22.160133,31.978069 C 22.160133,31.978069 26.997745,27.140456 26.997745,27.140456 C 18.528582,18.264221 13.291696,25.230495 11.500037,31.436501 z"
             style="fill:#404040;"/>
          </a>
         </g>
        </svg>
</svg>
