<?xml version="1.0" encoding="UTF-8" standalone="no"?>
<!DOCTYPE svg PUBLIC "-//W3C//DTD SVG 1.1//EN"
 "http://www.w3.org/Graphics/SVG/1.1/DTD/svg11.dtd">
<!-- Generated by graphviz version 2.43.0 (0)
 -->
<!-- Title: src/libs/vpatterndb/floatItemData/vabstractfloatitemdata.h Pages: 1 -->
<svg width="1994pt" height="363pt"
 viewBox="0.00 0.00 1993.50 363.00" xmlns="http://www.w3.org/2000/svg" xmlns:xlink="http://www.w3.org/1999/xlink">
<g id="graph0" class="graph" transform="scale(1 1) rotate(0) translate(4 359)">
<title>src/libs/vpatterndb/floatItemData/vabstractfloatitemdata.h</title>
<polygon fill="white" stroke="transparent" points="-4,4 -4,-359 1989.5,-359 1989.5,4 -4,4"/>
<!-- Node1 -->
<g id="node1" class="node">
<title>Node1</title>
<g id="a_node1"><a xlink:title=" ">
<polygon fill="#bfbfbf" stroke="black" points="1065.5,-324.5 1065.5,-354.5 1276.5,-354.5 1276.5,-324.5 1065.5,-324.5"/>
<text text-anchor="start" x="1073.5" y="-342.5" font-family="Helvetica,sans-Serif" font-size="10.00">src/libs/vpatterndb</text>
<text text-anchor="middle" x="1171" y="-331.5" font-family="Helvetica,sans-Serif" font-size="10.00">/floatItemData/vabstractfloatitemdata.h</text>
</a>
</g>
</g>
<!-- Node2 -->
<g id="node2" class="node">
<title>Node2</title>
<g id="a_node2"><a xlink:href="../../d1/d6b/vabstractfloatitemdata_8cpp.html" target="_top" xlink:title=" ">
<polygon fill="white" stroke="black" points="838,-257.5 838,-287.5 1060,-287.5 1060,-257.5 838,-257.5"/>
<text text-anchor="start" x="846" y="-275.5" font-family="Helvetica,sans-Serif" font-size="10.00">src/libs/vpatterndb</text>
<text text-anchor="middle" x="949" y="-264.5" font-family="Helvetica,sans-Serif" font-size="10.00">/floatItemData/vabstractfloatitemdata.cpp</text>
</a>
</g>
</g>
<!-- Node1&#45;&gt;Node2 -->
<g id="edge1" class="edge">
<title>Node1&#45;&gt;Node2</title>
<path fill="none" stroke="midnightblue" d="M1113.21,-321.58C1077.15,-311.02 1031.28,-297.59 997.19,-287.61"/>
<polygon fill="midnightblue" stroke="midnightblue" points="1112.52,-325.02 1123.1,-324.48 1114.49,-318.31 1112.52,-325.02"/>
</g>
<!-- Node3 -->
<g id="node3" class="node">
<title>Node3</title>
<g id="a_node3"><a xlink:href="../../de/d1f/vpatternlabeldata_8h.html" target="_top" xlink:title=" ">
<polygon fill="white" stroke="black" points="1078,-257.5 1078,-287.5 1264,-287.5 1264,-257.5 1078,-257.5"/>
<text text-anchor="start" x="1086" y="-275.5" font-family="Helvetica,sans-Serif" font-size="10.00">src/libs/vpatterndb</text>
<text text-anchor="middle" x="1171" y="-264.5" font-family="Helvetica,sans-Serif" font-size="10.00">/floatItemData/vpatternlabeldata.h</text>
</a>
</g>
</g>
<!-- Node1&#45;&gt;Node3 -->
<g id="edge2" class="edge">
<title>Node1&#45;&gt;Node3</title>
<path fill="none" stroke="midnightblue" d="M1171,-314.11C1171,-305.15 1171,-295.32 1171,-287.58"/>
<polygon fill="midnightblue" stroke="midnightblue" points="1167.5,-314.4 1171,-324.4 1174.5,-314.4 1167.5,-314.4"/>
</g>
<!-- Node21 -->
<g id="node21" class="node">
<title>Node21</title>
<g id="a_node21"><a xlink:href="../../d3/d4a/vgrainlinedata_8h.html" target="_top" xlink:title=" ">
<polygon fill="white" stroke="black" points="1447,-190.5 1447,-220.5 1617,-220.5 1617,-190.5 1447,-190.5"/>
<text text-anchor="start" x="1455" y="-208.5" font-family="Helvetica,sans-Serif" font-size="10.00">src/libs/vpatterndb</text>
<text text-anchor="middle" x="1532" y="-197.5" font-family="Helvetica,sans-Serif" font-size="10.00">/floatItemData/vgrainlinedata.h</text>
</a>
</g>
</g>
<!-- Node1&#45;&gt;Node21 -->
<g id="edge28" class="edge">
<title>Node1&#45;&gt;Node21</title>
<path fill="none" stroke="midnightblue" d="M1219.08,-320.92C1291.53,-294.43 1427.25,-244.8 1493.56,-220.56"/>
<polygon fill="midnightblue" stroke="midnightblue" points="1217.48,-317.78 1209.29,-324.5 1219.89,-324.35 1217.48,-317.78"/>
</g>
<!-- Node4 -->
<g id="node4" class="node">
<title>Node4</title>
<g id="a_node4"><a xlink:href="../../d6/d2f/vlayoutpiece__p_8h.html" target="_top" xlink:title=" ">
<polygon fill="white" stroke="black" points="1283.5,-129 1283.5,-148 1460.5,-148 1460.5,-129 1283.5,-129"/>
<text text-anchor="middle" x="1372" y="-136" font-family="Helvetica,sans-Serif" font-size="10.00">src/libs/vlayout/vlayoutpiece_p.h</text>
</a>
</g>
</g>
<!-- Node3&#45;&gt;Node4 -->
<g id="edge3" class="edge">
<title>Node3&#45;&gt;Node4</title>
<path fill="none" stroke="midnightblue" d="M1210.58,-252.97C1228.54,-244.04 1249.79,-232.73 1268,-221 1304.83,-197.27 1344.6,-163.58 1362.41,-148"/>
<polygon fill="midnightblue" stroke="midnightblue" points="1208.96,-249.87 1201.52,-257.41 1212.04,-256.15 1208.96,-249.87"/>
</g>
<!-- Node5 -->
<g id="node5" class="node">
<title>Node5</title>
<g id="a_node5"><a xlink:href="../../dd/d70/vlayoutpiece_8cpp.html" target="_top" xlink:title=" ">
<polygon fill="white" stroke="black" points="1126.5,-62 1126.5,-81 1303.5,-81 1303.5,-62 1126.5,-62"/>
<text text-anchor="middle" x="1215" y="-69" font-family="Helvetica,sans-Serif" font-size="10.00">src/libs/vlayout/vlayoutpiece.cpp</text>
</a>
</g>
</g>
<!-- Node3&#45;&gt;Node5 -->
<g id="edge5" class="edge">
<title>Node3&#45;&gt;Node5</title>
<path fill="none" stroke="midnightblue" d="M1067.71,-256.43C977.88,-243.09 861.49,-225.1 858,-221 829.76,-187.84 829.4,-155.85 858,-123 896.16,-79.17 1059.48,-95.25 1117,-87 1130.28,-85.09 1144.56,-83 1158.01,-81.02"/>
<polygon fill="midnightblue" stroke="midnightblue" points="1067.29,-259.91 1077.69,-257.91 1068.31,-252.99 1067.29,-259.91"/>
</g>
<!-- Node6 -->
<g id="node6" class="node">
<title>Node6</title>
<g id="a_node6"><a xlink:href="../../d6/de0/vlayoutpiece_8h.html" target="_top" xlink:title=" ">
<polygon fill="white" stroke="black" points="617,-129 617,-148 783,-148 783,-129 617,-129"/>
<text text-anchor="middle" x="700" y="-136" font-family="Helvetica,sans-Serif" font-size="10.00">src/libs/vlayout/vlayoutpiece.h</text>
</a>
</g>
</g>
<!-- Node3&#45;&gt;Node6 -->
<g id="edge6" class="edge">
<title>Node3&#45;&gt;Node6</title>
<path fill="none" stroke="midnightblue" d="M1067.82,-256.91C946.05,-241.93 905.64,-268.89 797,-221 757.75,-203.7 722.02,-165.47 707.21,-148.23"/>
<polygon fill="midnightblue" stroke="midnightblue" points="1067.53,-260.41 1077.89,-258.23 1068.43,-253.46 1067.53,-260.41"/>
</g>
<!-- Node15 -->
<g id="node15" class="node">
<title>Node15</title>
<g id="a_node15"><a xlink:href="../../dd/d40/vpatternlabeldata_8cpp.html" target="_top" xlink:title=" ">
<polygon fill="white" stroke="black" points="867.5,-190.5 867.5,-220.5 1064.5,-220.5 1064.5,-190.5 867.5,-190.5"/>
<text text-anchor="start" x="875.5" y="-208.5" font-family="Helvetica,sans-Serif" font-size="10.00">src/libs/vpatterndb</text>
<text text-anchor="middle" x="966" y="-197.5" font-family="Helvetica,sans-Serif" font-size="10.00">/floatItemData/vpatternlabeldata.cpp</text>
</a>
</g>
</g>
<!-- Node3&#45;&gt;Node15 -->
<g id="edge18" class="edge">
<title>Node3&#45;&gt;Node15</title>
<path fill="none" stroke="midnightblue" d="M1117.21,-254.44C1083.98,-243.91 1041.85,-230.55 1010.5,-220.61"/>
<polygon fill="midnightblue" stroke="midnightblue" points="1116.18,-257.79 1126.77,-257.48 1118.3,-251.12 1116.18,-257.79"/>
</g>
<!-- Node16 -->
<g id="node16" class="node">
<title>Node16</title>
<g id="a_node16"><a xlink:href="../../d8/dbc/vpiecelabeldata_8h.html" target="_top" xlink:title=" ">
<polygon fill="white" stroke="black" points="1082.5,-190.5 1082.5,-220.5 1259.5,-220.5 1259.5,-190.5 1082.5,-190.5"/>
<text text-anchor="start" x="1090.5" y="-208.5" font-family="Helvetica,sans-Serif" font-size="10.00">src/libs/vpatterndb</text>
<text text-anchor="middle" x="1171" y="-197.5" font-family="Helvetica,sans-Serif" font-size="10.00">/floatItemData/vpiecelabeldata.h</text>
</a>
</g>
</g>
<!-- Node3&#45;&gt;Node16 -->
<g id="edge19" class="edge">
<title>Node3&#45;&gt;Node16</title>
<path fill="none" stroke="midnightblue" d="M1171,-247.11C1171,-238.15 1171,-228.32 1171,-220.58"/>
<polygon fill="midnightblue" stroke="midnightblue" points="1167.5,-247.4 1171,-257.4 1174.5,-247.4 1167.5,-247.4"/>
</g>
<!-- Node19 -->
<g id="node19" class="node">
<title>Node19</title>
<g id="a_node19"><a xlink:href="../../d8/da5/vpiece__p_8h.html" target="_top" xlink:title=" ">
<polygon fill="white" stroke="black" points="1478.5,-123.5 1478.5,-153.5 1585.5,-153.5 1585.5,-123.5 1478.5,-123.5"/>
<text text-anchor="start" x="1486.5" y="-141.5" font-family="Helvetica,sans-Serif" font-size="10.00">src/libs/vpatterndb</text>
<text text-anchor="middle" x="1532" y="-130.5" font-family="Helvetica,sans-Serif" font-size="10.00">/vpiece_p.h</text>
</a>
</g>
</g>
<!-- Node3&#45;&gt;Node19 -->
<g id="edge27" class="edge">
<title>Node3&#45;&gt;Node19</title>
<path fill="none" stroke="midnightblue" d="M1219.08,-253.92C1291.53,-227.43 1427.25,-177.8 1493.56,-153.56"/>
<polygon fill="midnightblue" stroke="midnightblue" points="1217.48,-250.78 1209.29,-257.5 1219.89,-257.35 1217.48,-250.78"/>
</g>
<!-- Node4&#45;&gt;Node5 -->
<g id="edge4" class="edge">
<title>Node4&#45;&gt;Node5</title>
<path fill="none" stroke="midnightblue" d="M1341.68,-124.95C1310.6,-112.08 1263.07,-92.4 1235.93,-81.17"/>
<polygon fill="midnightblue" stroke="midnightblue" points="1340.57,-128.28 1351.15,-128.87 1343.25,-121.81 1340.57,-128.28"/>
</g>
<!-- Node6&#45;&gt;Node5 -->
<g id="edge17" class="edge">
<title>Node6&#45;&gt;Node5</title>
<path fill="none" stroke="midnightblue" d="M764.78,-127.48C775.53,-125.92 786.57,-124.37 797,-123 938.91,-104.42 975.08,-105.48 1117,-87 1130.9,-85.19 1145.88,-83.06 1159.85,-81"/>
<polygon fill="midnightblue" stroke="midnightblue" points="763.97,-124.06 754.59,-128.98 764.99,-130.99 763.97,-124.06"/>
</g>
<!-- Node7 -->
<g id="node7" class="node">
<title>Node7</title>
<g id="a_node7"><a xlink:href="../../dd/d66/vdxfengine_8cpp.html" target="_top" xlink:title=" ">
<polygon fill="white" stroke="black" points="792,-62 792,-81 946,-81 946,-62 792,-62"/>
<text text-anchor="middle" x="869" y="-69" font-family="Helvetica,sans-Serif" font-size="10.00">src/libs/vdxf/vdxfengine.cpp</text>
</a>
</g>
</g>
<!-- Node6&#45;&gt;Node7 -->
<g id="edge7" class="edge">
<title>Node6&#45;&gt;Node7</title>
<path fill="none" stroke="midnightblue" d="M731.8,-125.27C765.34,-112.37 817.32,-92.38 846.73,-81.06"/>
<polygon fill="midnightblue" stroke="midnightblue" points="730.52,-122.01 722.44,-128.87 733.03,-128.55 730.52,-122.01"/>
</g>
<!-- Node8 -->
<g id="node8" class="node">
<title>Node8</title>
<g id="a_node8"><a xlink:href="../../de/da8/vbank_8cpp.html" target="_top" xlink:title=" ">
<polygon fill="white" stroke="black" points="964,-62 964,-81 1108,-81 1108,-62 964,-62"/>
<text text-anchor="middle" x="1036" y="-69" font-family="Helvetica,sans-Serif" font-size="10.00">src/libs/vlayout/vbank.cpp</text>
</a>
</g>
</g>
<!-- Node6&#45;&gt;Node8 -->
<g id="edge8" class="edge">
<title>Node6&#45;&gt;Node8</title>
<path fill="none" stroke="midnightblue" d="M754.49,-126.96C820.62,-114.16 930.84,-92.84 991.9,-81.03"/>
<polygon fill="midnightblue" stroke="midnightblue" points="753.42,-123.6 744.27,-128.94 754.75,-130.47 753.42,-123.6"/>
</g>
<!-- Node9 -->
<g id="node9" class="node">
<title>Node9</title>
<g id="a_node9"><a xlink:href="../../df/d5d/vcontour_8cpp.html" target="_top" xlink:title=" ">
<polygon fill="white" stroke="black" points="0,-62 0,-81 156,-81 156,-62 0,-62"/>
<text text-anchor="middle" x="78" y="-69" font-family="Helvetica,sans-Serif" font-size="10.00">src/libs/vlayout/vcontour.cpp</text>
</a>
</g>
</g>
<!-- Node6&#45;&gt;Node9 -->
<g id="edge9" class="edge">
<title>Node6&#45;&gt;Node9</title>
<path fill="none" stroke="midnightblue" d="M606.74,-130.72C499.81,-122.47 319.37,-107.12 165,-87 152.09,-85.32 138.17,-83.15 125.32,-81.01"/>
<polygon fill="midnightblue" stroke="midnightblue" points="606.61,-134.22 616.85,-131.49 607.15,-127.24 606.61,-134.22"/>
</g>
<!-- Node10 -->
<g id="node10" class="node">
<title>Node10</title>
<g id="a_node10"><a xlink:href="../../d3/d39/vlayoutgenerator_8cpp.html" target="_top" xlink:title=" ">
<polygon fill="white" stroke="black" points="174.5,-62 174.5,-81 371.5,-81 371.5,-62 174.5,-62"/>
<text text-anchor="middle" x="273" y="-69" font-family="Helvetica,sans-Serif" font-size="10.00">src/libs/vlayout/vlayoutgenerator.cpp</text>
</a>
</g>
</g>
<!-- Node6&#45;&gt;Node10 -->
<g id="edge10" class="edge">
<title>Node6&#45;&gt;Node10</title>
<path fill="none" stroke="midnightblue" d="M633.84,-127.43C550.17,-114.69 407.6,-92.99 329.05,-81.03"/>
<polygon fill="midnightblue" stroke="midnightblue" points="633.33,-130.89 643.74,-128.94 634.38,-123.97 633.33,-130.89"/>
</g>
<!-- Node11 -->
<g id="node11" class="node">
<title>Node11</title>
<g id="a_node11"><a xlink:href="../../d1/dd1/vlayoutpaper_8cpp.html" target="_top" xlink:title=" ">
<polygon fill="white" stroke="black" points="427,-0.5 427,-19.5 605,-19.5 605,-0.5 427,-0.5"/>
<text text-anchor="middle" x="516" y="-7.5" font-family="Helvetica,sans-Serif" font-size="10.00">src/libs/vlayout/vlayoutpaper.cpp</text>
</a>
</g>
</g>
<!-- Node6&#45;&gt;Node11 -->
<g id="edge11" class="edge">
<title>Node6&#45;&gt;Node11</title>
<path fill="none" stroke="midnightblue" d="M606.86,-133.31C534.57,-127.87 442.76,-115.42 419,-87 410.16,-76.43 411.59,-67.61 419,-56 431.09,-37.07 453.42,-25.98 473.61,-19.55"/>
<polygon fill="midnightblue" stroke="midnightblue" points="606.7,-136.8 616.93,-134.03 607.2,-129.82 606.7,-136.8"/>
</g>
<!-- Node12 -->
<g id="node12" class="node">
<title>Node12</title>
<g id="a_node12"><a xlink:href="../../d2/d2d/vlayoutpaper__p_8h.html" target="_top" xlink:title=" ">
<polygon fill="white" stroke="black" points="428.5,-62 428.5,-81 607.5,-81 607.5,-62 428.5,-62"/>
<text text-anchor="middle" x="518" y="-69" font-family="Helvetica,sans-Serif" font-size="10.00">src/libs/vlayout/vlayoutpaper_p.h</text>
</a>
</g>
</g>
<!-- Node6&#45;&gt;Node12 -->
<g id="edge12" class="edge">
<title>Node6&#45;&gt;Node12</title>
<path fill="none" stroke="midnightblue" d="M666.22,-125.44C630.12,-112.54 573.79,-92.42 541.98,-81.06"/>
<polygon fill="midnightblue" stroke="midnightblue" points="665.24,-128.8 675.83,-128.87 667.59,-122.21 665.24,-128.8"/>
</g>
<!-- Node13 -->
<g id="node13" class="node">
<title>Node13</title>
<g id="a_node13"><a xlink:href="../../db/d5c/vposition_8h.html" target="_top" xlink:title=" ">
<polygon fill="white" stroke="black" points="626,-62 626,-81 774,-81 774,-62 626,-62"/>
<text text-anchor="middle" x="700" y="-69" font-family="Helvetica,sans-Serif" font-size="10.00">src/libs/vlayout/vposition.h</text>
</a>
</g>
</g>
<!-- Node6&#45;&gt;Node13 -->
<g id="edge14" class="edge">
<title>Node6&#45;&gt;Node13</title>
<path fill="none" stroke="midnightblue" d="M700,-118.54C700,-106.17 700,-90.62 700,-81.13"/>
<polygon fill="midnightblue" stroke="midnightblue" points="696.5,-118.73 700,-128.73 703.5,-118.73 696.5,-118.73"/>
</g>
<!-- Node12&#45;&gt;Node11 -->
<g id="edge13" class="edge">
<title>Node12&#45;&gt;Node11</title>
<path fill="none" stroke="midnightblue" d="M517.37,-51.82C517.01,-41 516.57,-27.9 516.29,-19.51"/>
<polygon fill="midnightblue" stroke="midnightblue" points="513.88,-52.1 517.71,-61.98 520.88,-51.86 513.88,-52.1"/>
</g>
<!-- Node13&#45;&gt;Node11 -->
<g id="edge15" class="edge">
<title>Node13&#45;&gt;Node11</title>
<path fill="none" stroke="midnightblue" d="M664.07,-58.88C628.3,-47.32 574.26,-29.84 542.31,-19.51"/>
<polygon fill="midnightblue" stroke="midnightblue" points="663.05,-62.23 673.64,-61.98 665.2,-55.57 663.05,-62.23"/>
</g>
<!-- Node14 -->
<g id="node14" class="node">
<title>Node14</title>
<g id="a_node14"><a xlink:href="../../df/d76/vposition_8cpp.html" target="_top" xlink:title=" ">
<polygon fill="white" stroke="black" points="622.5,-0.5 622.5,-19.5 781.5,-19.5 781.5,-0.5 622.5,-0.5"/>
<text text-anchor="middle" x="702" y="-7.5" font-family="Helvetica,sans-Serif" font-size="10.00">src/libs/vlayout/vposition.cpp</text>
</a>
</g>
</g>
<!-- Node13&#45;&gt;Node14 -->
<g id="edge16" class="edge">
<title>Node13&#45;&gt;Node14</title>
<path fill="none" stroke="midnightblue" d="M700.63,-51.82C700.99,-41 701.43,-27.9 701.71,-19.51"/>
<polygon fill="midnightblue" stroke="midnightblue" points="697.12,-51.86 700.29,-61.98 704.12,-52.1 697.12,-51.86"/>
</g>
<!-- Node16&#45;&gt;Node4 -->
<g id="edge20" class="edge">
<title>Node16&#45;&gt;Node4</title>
<path fill="none" stroke="midnightblue" d="M1224.28,-187.27C1263.45,-174.6 1315,-157.93 1345.69,-148.01"/>
<polygon fill="midnightblue" stroke="midnightblue" points="1223.05,-183.99 1214.61,-190.4 1225.21,-190.65 1223.05,-183.99"/>
</g>
<!-- Node16&#45;&gt;Node5 -->
<g id="edge21" class="edge">
<title>Node16&#45;&gt;Node5</title>
<path fill="none" stroke="midnightblue" d="M1072.34,-189.59C985.2,-176.18 871.39,-158 868,-154 859.09,-143.49 858.98,-133.42 868,-123 904.6,-80.73 1061.68,-95.09 1117,-87 1130.19,-85.07 1144.37,-82.98 1157.74,-81"/>
<polygon fill="midnightblue" stroke="midnightblue" points="1071.87,-193.06 1082.29,-191.11 1072.94,-186.14 1071.87,-193.06"/>
</g>
<!-- Node16&#45;&gt;Node6 -->
<g id="edge22" class="edge">
<title>Node16&#45;&gt;Node6</title>
<path fill="none" stroke="midnightblue" d="M1072.34,-189.92C957.86,-173.75 837.03,-157.59 764.72,-148.02"/>
<polygon fill="midnightblue" stroke="midnightblue" points="1071.94,-193.4 1082.33,-191.33 1072.92,-186.46 1071.94,-193.4"/>
</g>
<!-- Node17 -->
<g id="node17" class="node">
<title>Node17</title>
<g id="a_node17"><a xlink:href="../../d8/d70/vtextmanager_8cpp.html" target="_top" xlink:title=" ">
<polygon fill="white" stroke="black" points="877,-129 877,-148 1059,-148 1059,-129 877,-129"/>
<text text-anchor="middle" x="968" y="-136" font-family="Helvetica,sans-Serif" font-size="10.00">src/libs/vlayout/vtextmanager.cpp</text>
</a>
</g>
</g>
<!-- Node16&#45;&gt;Node17 -->
<g id="edge23" class="edge">
<title>Node16&#45;&gt;Node17</title>
<path fill="none" stroke="midnightblue" d="M1117.19,-187.27C1077.63,-174.6 1025.57,-157.93 994.57,-148.01"/>
<polygon fill="midnightblue" stroke="midnightblue" points="1116.36,-190.68 1126.95,-190.4 1118.5,-184.01 1116.36,-190.68"/>
</g>
<!-- Node18 -->
<g id="node18" class="node">
<title>Node18</title>
<g id="a_node18"><a xlink:href="../../de/d4a/vpiecelabeldata_8cpp.html" target="_top" xlink:title=" ">
<polygon fill="white" stroke="black" points="1077,-123.5 1077,-153.5 1265,-153.5 1265,-123.5 1077,-123.5"/>
<text text-anchor="start" x="1085" y="-141.5" font-family="Helvetica,sans-Serif" font-size="10.00">src/libs/vpatterndb</text>
<text text-anchor="middle" x="1171" y="-130.5" font-family="Helvetica,sans-Serif" font-size="10.00">/floatItemData/vpiecelabeldata.cpp</text>
</a>
</g>
</g>
<!-- Node16&#45;&gt;Node18 -->
<g id="edge24" class="edge">
<title>Node16&#45;&gt;Node18</title>
<path fill="none" stroke="midnightblue" d="M1171,-180.11C1171,-171.15 1171,-161.32 1171,-153.58"/>
<polygon fill="midnightblue" stroke="midnightblue" points="1167.5,-180.4 1171,-190.4 1174.5,-180.4 1167.5,-180.4"/>
</g>
<!-- Node16&#45;&gt;Node19 -->
<g id="edge25" class="edge">
<title>Node16&#45;&gt;Node19</title>
<path fill="none" stroke="midnightblue" d="M1269.52,-189.29C1327.7,-179.93 1402.72,-167.23 1469,-154 1472.08,-153.38 1475.24,-152.73 1478.43,-152.05"/>
<polygon fill="midnightblue" stroke="midnightblue" points="1268.91,-185.84 1259.59,-190.88 1270.02,-192.75 1268.91,-185.84"/>
</g>
<!-- Node20 -->
<g id="node20" class="node">
<title>Node20</title>
<g id="a_node20"><a xlink:href="../../df/d7a/vpiece_8cpp.html" target="_top" xlink:title=" ">
<polygon fill="white" stroke="black" points="1476.5,-56.5 1476.5,-86.5 1583.5,-86.5 1583.5,-56.5 1476.5,-56.5"/>
<text text-anchor="start" x="1484.5" y="-74.5" font-family="Helvetica,sans-Serif" font-size="10.00">src/libs/vpatterndb</text>
<text text-anchor="middle" x="1530" y="-63.5" font-family="Helvetica,sans-Serif" font-size="10.00">/vpiece.cpp</text>
</a>
</g>
</g>
<!-- Node19&#45;&gt;Node20 -->
<g id="edge26" class="edge">
<title>Node19&#45;&gt;Node20</title>
<path fill="none" stroke="midnightblue" d="M1531.25,-113.11C1530.97,-104.15 1530.67,-94.32 1530.43,-86.58"/>
<polygon fill="midnightblue" stroke="midnightblue" points="1527.76,-113.51 1531.57,-123.4 1534.76,-113.29 1527.76,-113.51"/>
</g>
<!-- Node21&#45;&gt;Node4 -->
<g id="edge29" class="edge">
<title>Node21&#45;&gt;Node4</title>
<path fill="none" stroke="midnightblue" d="M1487.99,-186.62C1457.02,-174.04 1416.96,-157.77 1392.94,-148.01"/>
<polygon fill="midnightblue" stroke="midnightblue" points="1486.7,-189.87 1497.28,-190.4 1489.34,-183.39 1486.7,-189.87"/>
</g>
<!-- Node21&#45;&gt;Node19 -->
<g id="edge31" class="edge">
<title>Node21&#45;&gt;Node19</title>
<path fill="none" stroke="midnightblue" d="M1532,-180.11C1532,-171.15 1532,-161.32 1532,-153.58"/>
<polygon fill="midnightblue" stroke="midnightblue" points="1528.5,-180.4 1532,-190.4 1535.5,-180.4 1528.5,-180.4"/>
</g>
<!-- Node22 -->
<g id="node22" class="node">
<title>Node22</title>
<g id="a_node22"><a xlink:href="../../de/d65/vgrainlinedata_8cpp.html" target="_top" xlink:title=" ">
<polygon fill="white" stroke="black" points="1804.5,-123.5 1804.5,-153.5 1985.5,-153.5 1985.5,-123.5 1804.5,-123.5"/>
<text text-anchor="start" x="1812.5" y="-141.5" font-family="Helvetica,sans-Serif" font-size="10.00">src/libs/vpatterndb</text>
<text text-anchor="middle" x="1895" y="-130.5" font-family="Helvetica,sans-Serif" font-size="10.00">/floatItemData/vgrainlinedata.cpp</text>
</a>
</g>
</g>
<!-- Node21&#45;&gt;Node22 -->
<g id="edge30" class="edge">
<title>Node21&#45;&gt;Node22</title>
<path fill="none" stroke="midnightblue" d="M1620.52,-188.65C1680.42,-177.92 1758.84,-163.88 1816.51,-153.55"/>
<polygon fill="midnightblue" stroke="midnightblue" points="1619.55,-185.27 1610.32,-190.48 1620.78,-192.16 1619.55,-185.27"/>
</g>
<!-- Node23 -->
<g id="node23" class="node">
<title>Node23</title>
<g id="a_node23"><a xlink:href="../../de/d1b/vgrainlineitem_8h.html" target="_top" xlink:title=" ">
<polygon fill="white" stroke="black" points="1604,-129 1604,-148 1786,-148 1786,-129 1604,-129"/>
<text text-anchor="middle" x="1695" y="-136" font-family="Helvetica,sans-Serif" font-size="10.00">src/libs/vwidgets/vgrainlineitem.h</text>
</a>
</g>
</g>
<!-- Node21&#45;&gt;Node23 -->
<g id="edge32" class="edge">
<title>Node21&#45;&gt;Node23</title>
<path fill="none" stroke="midnightblue" d="M1576.83,-186.62C1608.38,-174.04 1649.19,-157.77 1673.67,-148.01"/>
<polygon fill="midnightblue" stroke="midnightblue" points="1575.36,-183.44 1567.37,-190.4 1577.95,-189.94 1575.36,-183.44"/>
</g>
<!-- Node24 -->
<g id="node24" class="node">
<title>Node24</title>
<g id="a_node24"><a xlink:href="../../d1/d90/vgrainlineitem_8cpp.html" target="_top" xlink:title=" ">
<polygon fill="white" stroke="black" points="1601.5,-62 1601.5,-81 1794.5,-81 1794.5,-62 1601.5,-62"/>
<text text-anchor="middle" x="1698" y="-69" font-family="Helvetica,sans-Serif" font-size="10.00">src/libs/vwidgets/vgrainlineitem.cpp</text>
</a>
</g>
</g>
<!-- Node23&#45;&gt;Node24 -->
<g id="edge33" class="edge">
<title>Node23&#45;&gt;Node24</title>
<path fill="none" stroke="midnightblue" d="M1695.88,-118.54C1696.45,-106.17 1697.16,-90.62 1697.6,-81.13"/>
<polygon fill="midnightblue" stroke="midnightblue" points="1692.37,-118.58 1695.4,-128.73 1699.36,-118.91 1692.37,-118.58"/>
</g>
</g>
</svg>
