<?xml version="1.0" encoding="UTF-8" standalone="no"?>
<!DOCTYPE svg PUBLIC "-//W3C//DTD SVG 1.1//EN"
 "http://www.w3.org/Graphics/SVG/1.1/DTD/svg11.dtd">
<!-- Generated by graphviz version 2.43.0 (0)
 -->
<!-- Title: src/libs/ifc/xml/vabstractpattern.h Pages: 1 -->
<svg width="1773pt" height="218pt"
 viewBox="0.00 0.00 1773.00 218.00" xmlns="http://www.w3.org/2000/svg" xmlns:xlink="http://www.w3.org/1999/xlink">
<g id="graph0" class="graph" transform="scale(1 1) rotate(0) translate(4 214)">
<title>src/libs/ifc/xml/vabstractpattern.h</title>
<polygon fill="white" stroke="transparent" points="-4,4 -4,-214 1769,-214 1769,4 -4,4"/>
<!-- Node1 -->
<g id="node1" class="node">
<title>Node1</title>
<g id="a_node1"><a xlink:title=" ">
<polygon fill="#bfbfbf" stroke="black" points="1111.5,-190.5 1111.5,-209.5 1292.5,-209.5 1292.5,-190.5 1111.5,-190.5"/>
<text text-anchor="middle" x="1202" y="-197.5" font-family="Helvetica,sans-Serif" font-size="10.00">src/libs/ifc/xml/vabstractpattern.h</text>
</a>
</g>
</g>
<!-- Node2 -->
<g id="node2" class="node">
<title>Node2</title>
<g id="a_node2"><a xlink:href="../../de/d7d/vabstractpattern_8cpp.html" target="_top" xlink:title=" ">
<polygon fill="white" stroke="black" points="460,-129 460,-148 652,-148 652,-129 460,-129"/>
<text text-anchor="middle" x="556" y="-136" font-family="Helvetica,sans-Serif" font-size="10.00">src/libs/ifc/xml/vabstractpattern.cpp</text>
</a>
</g>
</g>
<!-- Node1&#45;&gt;Node2 -->
<g id="edge1" class="edge">
<title>Node1&#45;&gt;Node2</title>
<path fill="none" stroke="midnightblue" d="M1101.42,-192.27C992.67,-184.62 814.29,-170.95 661,-154 645.54,-152.29 628.85,-150.13 613.42,-148"/>
<polygon fill="midnightblue" stroke="midnightblue" points="1101.18,-195.76 1111.4,-192.97 1101.67,-188.78 1101.18,-195.76"/>
</g>
<!-- Node3 -->
<g id="node3" class="node">
<title>Node3</title>
<g id="a_node3"><a xlink:href="../../d6/de0/vlayoutpiece_8h.html" target="_top" xlink:title=" ">
<polygon fill="white" stroke="black" points="670,-129 670,-148 836,-148 836,-129 670,-129"/>
<text text-anchor="middle" x="753" y="-136" font-family="Helvetica,sans-Serif" font-size="10.00">src/libs/vlayout/vlayoutpiece.h</text>
</a>
</g>
</g>
<!-- Node1&#45;&gt;Node3 -->
<g id="edge2" class="edge">
<title>Node1&#45;&gt;Node3</title>
<path fill="none" stroke="midnightblue" d="M1127.64,-189.15C1041,-177.66 899.26,-158.88 817.21,-148.01"/>
<polygon fill="midnightblue" stroke="midnightblue" points="1127.3,-192.63 1137.67,-190.48 1128.22,-185.69 1127.3,-192.63"/>
</g>
<!-- Node13 -->
<g id="node13" class="node">
<title>Node13</title>
<g id="a_node13"><a xlink:href="../../d8/d70/vtextmanager_8cpp.html" target="_top" xlink:title=" ">
<polygon fill="white" stroke="black" points="935,-129 935,-148 1117,-148 1117,-129 935,-129"/>
<text text-anchor="middle" x="1026" y="-136" font-family="Helvetica,sans-Serif" font-size="10.00">src/libs/vlayout/vtextmanager.cpp</text>
</a>
</g>
</g>
<!-- Node1&#45;&gt;Node13 -->
<g id="edge14" class="edge">
<title>Node1&#45;&gt;Node13</title>
<path fill="none" stroke="midnightblue" d="M1167.19,-187.23C1132.98,-175.67 1081.6,-158.3 1051.17,-148.01"/>
<polygon fill="midnightblue" stroke="midnightblue" points="1166.19,-190.59 1176.78,-190.48 1168.43,-183.96 1166.19,-190.59"/>
</g>
<!-- Node14 -->
<g id="node14" class="node">
<title>Node14</title>
<g id="a_node14"><a xlink:href="../../d0/da5/export__format__combobox_8h.html" target="_top" xlink:title=" ">
<polygon fill="white" stroke="black" points="1135.5,-123.5 1135.5,-153.5 1268.5,-153.5 1268.5,-123.5 1135.5,-123.5"/>
<text text-anchor="start" x="1143.5" y="-141.5" font-family="Helvetica,sans-Serif" font-size="10.00">src/libs/vwidgets/export</text>
<text text-anchor="middle" x="1202" y="-130.5" font-family="Helvetica,sans-Serif" font-size="10.00">_format_combobox.h</text>
</a>
</g>
</g>
<!-- Node1&#45;&gt;Node14 -->
<g id="edge15" class="edge">
<title>Node1&#45;&gt;Node14</title>
<path fill="none" stroke="midnightblue" d="M1202,-180.23C1202,-171.59 1202,-161.5 1202,-153.52"/>
<polygon fill="midnightblue" stroke="midnightblue" points="1198.5,-180.48 1202,-190.48 1205.5,-180.48 1198.5,-180.48"/>
</g>
<!-- Node16 -->
<g id="node16" class="node">
<title>Node16</title>
<g id="a_node16"><a xlink:href="../../d7/df4/group__tablewidgetitem_8cpp.html" target="_top" xlink:title=" ">
<polygon fill="white" stroke="black" points="1286.5,-123.5 1286.5,-153.5 1415.5,-153.5 1415.5,-123.5 1286.5,-123.5"/>
<text text-anchor="start" x="1294.5" y="-141.5" font-family="Helvetica,sans-Serif" font-size="10.00">src/libs/vwidgets/group</text>
<text text-anchor="middle" x="1351" y="-130.5" font-family="Helvetica,sans-Serif" font-size="10.00">_tablewidgetitem.cpp</text>
</a>
</g>
</g>
<!-- Node1&#45;&gt;Node16 -->
<g id="edge17" class="edge">
<title>Node1&#45;&gt;Node16</title>
<path fill="none" stroke="midnightblue" d="M1232.75,-186.72C1256.94,-177.06 1290.64,-163.6 1315.88,-153.52"/>
<polygon fill="midnightblue" stroke="midnightblue" points="1231.34,-183.52 1223.35,-190.48 1233.93,-190.02 1231.34,-183.52"/>
</g>
<!-- Node17 -->
<g id="node17" class="node">
<title>Node17</title>
<g id="a_node17"><a xlink:href="../../d3/d86/page__format__combobox_8h.html" target="_top" xlink:title=" ">
<polygon fill="white" stroke="black" points="1433.5,-123.5 1433.5,-153.5 1558.5,-153.5 1558.5,-123.5 1433.5,-123.5"/>
<text text-anchor="start" x="1441.5" y="-141.5" font-family="Helvetica,sans-Serif" font-size="10.00">src/libs/vwidgets/page</text>
<text text-anchor="middle" x="1496" y="-130.5" font-family="Helvetica,sans-Serif" font-size="10.00">_format_combobox.h</text>
</a>
</g>
</g>
<!-- Node1&#45;&gt;Node17 -->
<g id="edge18" class="edge">
<title>Node1&#45;&gt;Node17</title>
<path fill="none" stroke="midnightblue" d="M1254.21,-188.5C1299.4,-179.4 1366.53,-165.87 1425,-154 1427.71,-153.45 1430.48,-152.89 1433.28,-152.32"/>
<polygon fill="midnightblue" stroke="midnightblue" points="1253.45,-185.08 1244.34,-190.49 1254.84,-191.94 1253.45,-185.08"/>
</g>
<!-- Node19 -->
<g id="node19" class="node">
<title>Node19</title>
<g id="a_node19"><a xlink:href="../../de/d22/vsimplecurve_8cpp.html" target="_top" xlink:title=" ">
<polygon fill="white" stroke="black" points="1577,-129 1577,-148 1765,-148 1765,-129 1577,-129"/>
<text text-anchor="middle" x="1671" y="-136" font-family="Helvetica,sans-Serif" font-size="10.00">src/libs/vwidgets/vsimplecurve.cpp</text>
</a>
</g>
</g>
<!-- Node1&#45;&gt;Node19 -->
<g id="edge20" class="edge">
<title>Node1&#45;&gt;Node19</title>
<path fill="none" stroke="midnightblue" d="M1284.49,-189.28C1358.7,-180.43 1470.71,-166.83 1568,-154 1582.14,-152.14 1597.37,-150.04 1611.66,-148.04"/>
<polygon fill="midnightblue" stroke="midnightblue" points="1283.79,-185.84 1274.27,-190.49 1284.61,-192.79 1283.79,-185.84"/>
</g>
<!-- Node4 -->
<g id="node4" class="node">
<title>Node4</title>
<g id="a_node4"><a xlink:href="../../dd/d66/vdxfengine_8cpp.html" target="_top" xlink:title=" ">
<polygon fill="white" stroke="black" points="986,-62 986,-81 1140,-81 1140,-62 986,-62"/>
<text text-anchor="middle" x="1063" y="-69" font-family="Helvetica,sans-Serif" font-size="10.00">src/libs/vdxf/vdxfengine.cpp</text>
</a>
</g>
</g>
<!-- Node3&#45;&gt;Node4 -->
<g id="edge3" class="edge">
<title>Node3&#45;&gt;Node4</title>
<path fill="none" stroke="midnightblue" d="M803.64,-126.88C864.6,-114.1 965.79,-92.88 1022.06,-81.08"/>
<polygon fill="midnightblue" stroke="midnightblue" points="802.91,-123.46 793.85,-128.94 804.35,-130.31 802.91,-123.46"/>
</g>
<!-- Node5 -->
<g id="node5" class="node">
<title>Node5</title>
<g id="a_node5"><a xlink:href="../../de/da8/vbank_8cpp.html" target="_top" xlink:title=" ">
<polygon fill="white" stroke="black" points="1158,-62 1158,-81 1302,-81 1302,-62 1158,-62"/>
<text text-anchor="middle" x="1230" y="-69" font-family="Helvetica,sans-Serif" font-size="10.00">src/libs/vlayout/vbank.cpp</text>
</a>
</g>
</g>
<!-- Node3&#45;&gt;Node5 -->
<g id="edge4" class="edge">
<title>Node3&#45;&gt;Node5</title>
<path fill="none" stroke="midnightblue" d="M838.77,-127.82C919.1,-118.46 1042.41,-103.33 1149,-87 1160.58,-85.23 1173.05,-83.1 1184.66,-81.03"/>
<polygon fill="midnightblue" stroke="midnightblue" points="838.23,-124.36 828.71,-128.99 839.04,-131.32 838.23,-124.36"/>
</g>
<!-- Node6 -->
<g id="node6" class="node">
<title>Node6</title>
<g id="a_node6"><a xlink:href="../../df/d5d/vcontour_8cpp.html" target="_top" xlink:title=" ">
<polygon fill="white" stroke="black" points="0,-62 0,-81 156,-81 156,-62 0,-62"/>
<text text-anchor="middle" x="78" y="-69" font-family="Helvetica,sans-Serif" font-size="10.00">src/libs/vlayout/vcontour.cpp</text>
</a>
</g>
</g>
<!-- Node3&#45;&gt;Node6 -->
<g id="edge5" class="edge">
<title>Node3&#45;&gt;Node6</title>
<path fill="none" stroke="midnightblue" d="M694.01,-127.45C683.06,-125.8 671.7,-124.23 661,-123 441.42,-97.77 384.47,-113.2 165,-87 151.77,-85.42 137.49,-83.24 124.39,-81.05"/>
<polygon fill="midnightblue" stroke="midnightblue" points="693.51,-130.92 703.93,-128.98 694.58,-124 693.51,-130.92"/>
</g>
<!-- Node7 -->
<g id="node7" class="node">
<title>Node7</title>
<g id="a_node7"><a xlink:href="../../d3/d39/vlayoutgenerator_8cpp.html" target="_top" xlink:title=" ">
<polygon fill="white" stroke="black" points="174.5,-62 174.5,-81 371.5,-81 371.5,-62 174.5,-62"/>
<text text-anchor="middle" x="273" y="-69" font-family="Helvetica,sans-Serif" font-size="10.00">src/libs/vlayout/vlayoutgenerator.cpp</text>
</a>
</g>
</g>
<!-- Node3&#45;&gt;Node7 -->
<g id="edge6" class="edge">
<title>Node3&#45;&gt;Node7</title>
<path fill="none" stroke="midnightblue" d="M690.37,-127.38C680.55,-125.87 670.5,-124.36 661,-123 536.36,-105.2 504.83,-103.45 380,-87 365.5,-85.09 349.91,-83 335.23,-81.01"/>
<polygon fill="midnightblue" stroke="midnightblue" points="690.08,-130.88 700.5,-128.96 691.15,-123.96 690.08,-130.88"/>
</g>
<!-- Node8 -->
<g id="node8" class="node">
<title>Node8</title>
<g id="a_node8"><a xlink:href="../../d1/dd1/vlayoutpaper_8cpp.html" target="_top" xlink:title=" ">
<polygon fill="white" stroke="black" points="508,-0.5 508,-19.5 686,-19.5 686,-0.5 508,-0.5"/>
<text text-anchor="middle" x="597" y="-7.5" font-family="Helvetica,sans-Serif" font-size="10.00">src/libs/vlayout/vlayoutpaper.cpp</text>
</a>
</g>
</g>
<!-- Node3&#45;&gt;Node8 -->
<g id="edge7" class="edge">
<title>Node3&#45;&gt;Node8</title>
<path fill="none" stroke="midnightblue" d="M683.58,-126.25C658.79,-118.93 632.65,-106.87 615,-87 597.89,-67.74 596.26,-35.2 596.56,-19.71"/>
<polygon fill="midnightblue" stroke="midnightblue" points="682.79,-129.66 693.36,-128.92 684.63,-122.91 682.79,-129.66"/>
</g>
<!-- Node9 -->
<g id="node9" class="node">
<title>Node9</title>
<g id="a_node9"><a xlink:href="../../db/d5c/vposition_8h.html" target="_top" xlink:title=" ">
<polygon fill="white" stroke="black" points="820,-62 820,-81 968,-81 968,-62 820,-62"/>
<text text-anchor="middle" x="894" y="-69" font-family="Helvetica,sans-Serif" font-size="10.00">src/libs/vlayout/vposition.h</text>
</a>
</g>
</g>
<!-- Node3&#45;&gt;Node9 -->
<g id="edge8" class="edge">
<title>Node3&#45;&gt;Node9</title>
<path fill="none" stroke="midnightblue" d="M780.96,-124.61C808.88,-111.74 851.04,-92.31 875.2,-81.17"/>
<polygon fill="midnightblue" stroke="midnightblue" points="779.34,-121.5 771.72,-128.87 782.27,-127.86 779.34,-121.5"/>
</g>
<!-- Node11 -->
<g id="node11" class="node">
<title>Node11</title>
<g id="a_node11"><a xlink:href="../../dd/d70/vlayoutpiece_8cpp.html" target="_top" xlink:title=" ">
<polygon fill="white" stroke="black" points="624.5,-62 624.5,-81 801.5,-81 801.5,-62 624.5,-62"/>
<text text-anchor="middle" x="713" y="-69" font-family="Helvetica,sans-Serif" font-size="10.00">src/libs/vlayout/vlayoutpiece.cpp</text>
</a>
</g>
</g>
<!-- Node3&#45;&gt;Node11 -->
<g id="edge11" class="edge">
<title>Node3&#45;&gt;Node11</title>
<path fill="none" stroke="midnightblue" d="M742.25,-120.03C734.51,-107.45 724.39,-91.01 718.31,-81.13"/>
<polygon fill="midnightblue" stroke="midnightblue" points="739.38,-122.05 747.61,-128.73 745.35,-118.38 739.38,-122.05"/>
</g>
<!-- Node12 -->
<g id="node12" class="node">
<title>Node12</title>
<g id="a_node12"><a xlink:href="../../d2/d2d/vlayoutpaper__p_8h.html" target="_top" xlink:title=" ">
<polygon fill="white" stroke="black" points="389.5,-62 389.5,-81 568.5,-81 568.5,-62 389.5,-62"/>
<text text-anchor="middle" x="479" y="-69" font-family="Helvetica,sans-Serif" font-size="10.00">src/libs/vlayout/vlayoutpaper_p.h</text>
</a>
</g>
</g>
<!-- Node3&#45;&gt;Node12 -->
<g id="edge12" class="edge">
<title>Node3&#45;&gt;Node12</title>
<path fill="none" stroke="midnightblue" d="M706.9,-126.56C652.88,-113.75 564.51,-92.78 515.18,-81.08"/>
<polygon fill="midnightblue" stroke="midnightblue" points="706.36,-130.03 716.9,-128.94 707.98,-123.22 706.36,-130.03"/>
</g>
<!-- Node9&#45;&gt;Node8 -->
<g id="edge9" class="edge">
<title>Node9&#45;&gt;Node8</title>
<path fill="none" stroke="midnightblue" d="M841.46,-59.97C783.9,-48.44 692.7,-30.17 639.47,-19.51"/>
<polygon fill="midnightblue" stroke="midnightblue" points="840.95,-63.44 851.45,-61.98 842.33,-56.58 840.95,-63.44"/>
</g>
<!-- Node10 -->
<g id="node10" class="node">
<title>Node10</title>
<g id="a_node10"><a xlink:href="../../df/d76/vposition_8cpp.html" target="_top" xlink:title=" ">
<polygon fill="white" stroke="black" points="814.5,-0.5 814.5,-19.5 973.5,-19.5 973.5,-0.5 814.5,-0.5"/>
<text text-anchor="middle" x="894" y="-7.5" font-family="Helvetica,sans-Serif" font-size="10.00">src/libs/vlayout/vposition.cpp</text>
</a>
</g>
</g>
<!-- Node9&#45;&gt;Node10 -->
<g id="edge10" class="edge">
<title>Node9&#45;&gt;Node10</title>
<path fill="none" stroke="midnightblue" d="M894,-51.82C894,-41 894,-27.9 894,-19.51"/>
<polygon fill="midnightblue" stroke="midnightblue" points="890.5,-51.98 894,-61.98 897.5,-51.98 890.5,-51.98"/>
</g>
<!-- Node12&#45;&gt;Node8 -->
<g id="edge13" class="edge">
<title>Node12&#45;&gt;Node8</title>
<path fill="none" stroke="midnightblue" d="M505.05,-57.37C527.92,-45.83 560.51,-29.4 580.12,-19.51"/>
<polygon fill="midnightblue" stroke="midnightblue" points="503.26,-54.35 495.91,-61.98 506.41,-60.6 503.26,-54.35"/>
</g>
<!-- Node15 -->
<g id="node15" class="node">
<title>Node15</title>
<g id="a_node15"><a xlink:href="../../df/d40/export__format__combobox_8cpp.html" target="_top" xlink:title=" ">
<polygon fill="white" stroke="black" points="1320.5,-56.5 1320.5,-86.5 1453.5,-86.5 1453.5,-56.5 1320.5,-56.5"/>
<text text-anchor="start" x="1328.5" y="-74.5" font-family="Helvetica,sans-Serif" font-size="10.00">src/libs/vwidgets/export</text>
<text text-anchor="middle" x="1387" y="-63.5" font-family="Helvetica,sans-Serif" font-size="10.00">_format_combobox.cpp</text>
</a>
</g>
</g>
<!-- Node14&#45;&gt;Node15 -->
<g id="edge16" class="edge">
<title>Node14&#45;&gt;Node15</title>
<path fill="none" stroke="midnightblue" d="M1251.94,-119.96C1281.74,-109.48 1319.07,-96.37 1346.94,-86.58"/>
<polygon fill="midnightblue" stroke="midnightblue" points="1250.42,-116.78 1242.14,-123.4 1252.74,-123.38 1250.42,-116.78"/>
</g>
<!-- Node18 -->
<g id="node18" class="node">
<title>Node18</title>
<g id="a_node18"><a xlink:href="../../d2/d28/page__format__combobox_8cpp.html" target="_top" xlink:title=" ">
<polygon fill="white" stroke="black" points="1471.5,-56.5 1471.5,-86.5 1602.5,-86.5 1602.5,-56.5 1471.5,-56.5"/>
<text text-anchor="start" x="1479.5" y="-74.5" font-family="Helvetica,sans-Serif" font-size="10.00">src/libs/vwidgets/page</text>
<text text-anchor="middle" x="1537" y="-63.5" font-family="Helvetica,sans-Serif" font-size="10.00">_format_combobox.cpp</text>
</a>
</g>
</g>
<!-- Node17&#45;&gt;Node18 -->
<g id="edge19" class="edge">
<title>Node17&#45;&gt;Node18</title>
<path fill="none" stroke="midnightblue" d="M1510.28,-114.87C1516.21,-105.46 1522.91,-94.83 1528.12,-86.58"/>
<polygon fill="midnightblue" stroke="midnightblue" points="1507.27,-113.07 1504.9,-123.4 1513.19,-116.81 1507.27,-113.07"/>
</g>
</g>
</svg>
