<?xml version="1.0" encoding="UTF-8" standalone="no"?>
<!DOCTYPE svg PUBLIC "-//W3C//DTD SVG 1.1//EN"
 "http://www.w3.org/Graphics/SVG/1.1/DTD/svg11.dtd">
<!-- Generated by graphviz version 2.43.0 (0)
 -->
<!-- Title: src/libs/ifc/xml/vabstractpattern.h Pages: 1 -->
<svg width="1778pt" height="218pt"
 viewBox="0.00 0.00 1778.00 218.00" xmlns="http://www.w3.org/2000/svg" xmlns:xlink="http://www.w3.org/1999/xlink">
<g id="graph0" class="graph" transform="scale(1 1) rotate(0) translate(4 214)">
<title>src/libs/ifc/xml/vabstractpattern.h</title>
<polygon fill="white" stroke="transparent" points="-4,4 -4,-214 1774,-214 1774,4 -4,4"/>
<!-- Node1 -->
<g id="node1" class="node">
<title>Node1</title>
<g id="a_node1"><a xlink:title=" ">
<polygon fill="#bfbfbf" stroke="black" points="1116.5,-190.5 1116.5,-209.5 1297.5,-209.5 1297.5,-190.5 1116.5,-190.5"/>
<text text-anchor="middle" x="1207" y="-197.5" font-family="Helvetica,sans-Serif" font-size="10.00">src/libs/ifc/xml/vabstractpattern.h</text>
</a>
</g>
</g>
<!-- Node2 -->
<g id="node2" class="node">
<title>Node2</title>
<g id="a_node2"><a xlink:href="../../de/d7d/vabstractpattern_8cpp.html" target="_top" xlink:title=" ">
<polygon fill="white" stroke="black" points="476,-129 476,-148 668,-148 668,-129 476,-129"/>
<text text-anchor="middle" x="572" y="-136" font-family="Helvetica,sans-Serif" font-size="10.00">src/libs/ifc/xml/vabstractpattern.cpp</text>
</a>
</g>
</g>
<!-- Node1&#45;&gt;Node2 -->
<g id="edge1" class="edge">
<title>Node1&#45;&gt;Node2</title>
<path fill="none" stroke="midnightblue" d="M1106.24,-192.03C999.51,-184.27 826.14,-170.62 677,-154 661.64,-152.29 645.05,-150.14 629.7,-148.02"/>
<polygon fill="midnightblue" stroke="midnightblue" points="1106.13,-195.53 1116.36,-192.76 1106.64,-188.55 1106.13,-195.53"/>
</g>
<!-- Node3 -->
<g id="node3" class="node">
<title>Node3</title>
<g id="a_node3"><a xlink:href="../../d6/de0/vlayoutpiece_8h.html" target="_top" xlink:title=" ">
<polygon fill="white" stroke="black" points="686,-129 686,-148 852,-148 852,-129 686,-129"/>
<text text-anchor="middle" x="769" y="-136" font-family="Helvetica,sans-Serif" font-size="10.00">src/libs/vlayout/vlayoutpiece.h</text>
</a>
</g>
</g>
<!-- Node1&#45;&gt;Node3 -->
<g id="edge2" class="edge">
<title>Node1&#45;&gt;Node3</title>
<path fill="none" stroke="midnightblue" d="M1134.21,-189.11C1049.66,-177.63 911.59,-158.87 831.64,-148.01"/>
<polygon fill="midnightblue" stroke="midnightblue" points="1133.87,-192.6 1144.25,-190.48 1134.81,-185.66 1133.87,-192.6"/>
</g>
<!-- Node13 -->
<g id="node13" class="node">
<title>Node13</title>
<g id="a_node13"><a xlink:href="../../d8/d70/vtextmanager_8cpp.html" target="_top" xlink:title=" ">
<polygon fill="white" stroke="black" points="940,-129 940,-148 1122,-148 1122,-129 940,-129"/>
<text text-anchor="middle" x="1031" y="-136" font-family="Helvetica,sans-Serif" font-size="10.00">src/libs/vlayout/vtextmanager.cpp</text>
</a>
</g>
</g>
<!-- Node1&#45;&gt;Node13 -->
<g id="edge14" class="edge">
<title>Node1&#45;&gt;Node13</title>
<path fill="none" stroke="midnightblue" d="M1172.19,-187.23C1137.98,-175.67 1086.6,-158.3 1056.17,-148.01"/>
<polygon fill="midnightblue" stroke="midnightblue" points="1171.19,-190.59 1181.78,-190.48 1173.43,-183.96 1171.19,-190.59"/>
</g>
<!-- Node14 -->
<g id="node14" class="node">
<title>Node14</title>
<g id="a_node14"><a xlink:href="../../d0/da5/export__format__combobox_8h.html" target="_top" xlink:title=" ">
<polygon fill="white" stroke="black" points="1140.5,-123.5 1140.5,-153.5 1273.5,-153.5 1273.5,-123.5 1140.5,-123.5"/>
<text text-anchor="start" x="1148.5" y="-141.5" font-family="Helvetica,sans-Serif" font-size="10.00">src/libs/vwidgets/export</text>
<text text-anchor="middle" x="1207" y="-130.5" font-family="Helvetica,sans-Serif" font-size="10.00">_format_combobox.h</text>
</a>
</g>
</g>
<!-- Node1&#45;&gt;Node14 -->
<g id="edge15" class="edge">
<title>Node1&#45;&gt;Node14</title>
<path fill="none" stroke="midnightblue" d="M1207,-180.23C1207,-171.59 1207,-161.5 1207,-153.52"/>
<polygon fill="midnightblue" stroke="midnightblue" points="1203.5,-180.48 1207,-190.48 1210.5,-180.48 1203.5,-180.48"/>
</g>
<!-- Node16 -->
<g id="node16" class="node">
<title>Node16</title>
<g id="a_node16"><a xlink:href="../../d7/df4/group__tablewidgetitem_8cpp.html" target="_top" xlink:title=" ">
<polygon fill="white" stroke="black" points="1291.5,-123.5 1291.5,-153.5 1420.5,-153.5 1420.5,-123.5 1291.5,-123.5"/>
<text text-anchor="start" x="1299.5" y="-141.5" font-family="Helvetica,sans-Serif" font-size="10.00">src/libs/vwidgets/group</text>
<text text-anchor="middle" x="1356" y="-130.5" font-family="Helvetica,sans-Serif" font-size="10.00">_tablewidgetitem.cpp</text>
</a>
</g>
</g>
<!-- Node1&#45;&gt;Node16 -->
<g id="edge17" class="edge">
<title>Node1&#45;&gt;Node16</title>
<path fill="none" stroke="midnightblue" d="M1237.75,-186.72C1261.94,-177.06 1295.64,-163.6 1320.88,-153.52"/>
<polygon fill="midnightblue" stroke="midnightblue" points="1236.34,-183.52 1228.35,-190.48 1238.93,-190.02 1236.34,-183.52"/>
</g>
<!-- Node17 -->
<g id="node17" class="node">
<title>Node17</title>
<g id="a_node17"><a xlink:href="../../d3/d86/page__format__combobox_8h.html" target="_top" xlink:title=" ">
<polygon fill="white" stroke="black" points="1438.5,-123.5 1438.5,-153.5 1563.5,-153.5 1563.5,-123.5 1438.5,-123.5"/>
<text text-anchor="start" x="1446.5" y="-141.5" font-family="Helvetica,sans-Serif" font-size="10.00">src/libs/vwidgets/page</text>
<text text-anchor="middle" x="1501" y="-130.5" font-family="Helvetica,sans-Serif" font-size="10.00">_format_combobox.h</text>
</a>
</g>
</g>
<!-- Node1&#45;&gt;Node17 -->
<g id="edge18" class="edge">
<title>Node1&#45;&gt;Node17</title>
<path fill="none" stroke="midnightblue" d="M1259.21,-188.5C1304.4,-179.4 1371.53,-165.87 1430,-154 1432.71,-153.45 1435.48,-152.89 1438.28,-152.32"/>
<polygon fill="midnightblue" stroke="midnightblue" points="1258.45,-185.08 1249.34,-190.49 1259.84,-191.94 1258.45,-185.08"/>
</g>
<!-- Node19 -->
<g id="node19" class="node">
<title>Node19</title>
<g id="a_node19"><a xlink:href="../../de/d22/vsimplecurve_8cpp.html" target="_top" xlink:title=" ">
<polygon fill="white" stroke="black" points="1582,-129 1582,-148 1770,-148 1770,-129 1582,-129"/>
<text text-anchor="middle" x="1676" y="-136" font-family="Helvetica,sans-Serif" font-size="10.00">src/libs/vwidgets/vsimplecurve.cpp</text>
</a>
</g>
</g>
<!-- Node1&#45;&gt;Node19 -->
<g id="edge20" class="edge">
<title>Node1&#45;&gt;Node19</title>
<path fill="none" stroke="midnightblue" d="M1289.49,-189.28C1363.7,-180.43 1475.71,-166.83 1573,-154 1587.14,-152.14 1602.37,-150.04 1616.66,-148.04"/>
<polygon fill="midnightblue" stroke="midnightblue" points="1288.79,-185.84 1279.27,-190.49 1289.61,-192.79 1288.79,-185.84"/>
</g>
<!-- Node4 -->
<g id="node4" class="node">
<title>Node4</title>
<g id="a_node4"><a xlink:href="../../dd/d66/vdxfengine_8cpp.html" target="_top" xlink:title=" ">
<polygon fill="white" stroke="black" points="0,-62 0,-81 154,-81 154,-62 0,-62"/>
<text text-anchor="middle" x="77" y="-69" font-family="Helvetica,sans-Serif" font-size="10.00">src/libs/vdxf/vdxfengine.cpp</text>
</a>
</g>
</g>
<!-- Node3&#45;&gt;Node4 -->
<g id="edge3" class="edge">
<title>Node3&#45;&gt;Node4</title>
<path fill="none" stroke="midnightblue" d="M710.02,-127.43C699.06,-125.78 687.7,-124.22 677,-123 449.46,-97.15 390.4,-114.07 163,-87 149.77,-85.43 135.47,-83.22 122.41,-81"/>
<polygon fill="midnightblue" stroke="midnightblue" points="709.51,-130.89 719.93,-128.96 710.58,-123.98 709.51,-130.89"/>
</g>
<!-- Node5 -->
<g id="node5" class="node">
<title>Node5</title>
<g id="a_node5"><a xlink:href="../../de/da8/vbank_8cpp.html" target="_top" xlink:title=" ">
<polygon fill="white" stroke="black" points="172,-62 172,-81 316,-81 316,-62 172,-62"/>
<text text-anchor="middle" x="244" y="-69" font-family="Helvetica,sans-Serif" font-size="10.00">src/libs/vlayout/vbank.cpp</text>
</a>
</g>
</g>
<!-- Node3&#45;&gt;Node5 -->
<g id="edge4" class="edge">
<title>Node3&#45;&gt;Node5</title>
<path fill="none" stroke="midnightblue" d="M707.83,-127.38C697.55,-125.82 686.98,-124.3 677,-123 521.05,-102.75 480.73,-108.87 325,-87 312.97,-85.31 300.01,-83.15 288.04,-81.01"/>
<polygon fill="midnightblue" stroke="midnightblue" points="707.56,-130.88 717.98,-128.95 708.63,-123.96 707.56,-130.88"/>
</g>
<!-- Node6 -->
<g id="node6" class="node">
<title>Node6</title>
<g id="a_node6"><a xlink:href="../../df/d5d/vcontour_8cpp.html" target="_top" xlink:title=" ">
<polygon fill="white" stroke="black" points="334,-62 334,-81 490,-81 490,-62 334,-62"/>
<text text-anchor="middle" x="412" y="-69" font-family="Helvetica,sans-Serif" font-size="10.00">src/libs/vlayout/vcontour.cpp</text>
</a>
</g>
</g>
<!-- Node3&#45;&gt;Node6 -->
<g id="edge5" class="edge">
<title>Node3&#45;&gt;Node6</title>
<path fill="none" stroke="midnightblue" d="M711.97,-127.12C641.8,-114.34 524,-92.89 458.86,-81.03"/>
<polygon fill="midnightblue" stroke="midnightblue" points="711.5,-130.59 721.96,-128.94 712.75,-123.7 711.5,-130.59"/>
</g>
<!-- Node7 -->
<g id="node7" class="node">
<title>Node7</title>
<g id="a_node7"><a xlink:href="../../d3/d39/vlayoutgenerator_8cpp.html" target="_top" xlink:title=" ">
<polygon fill="white" stroke="black" points="508.5,-62 508.5,-81 705.5,-81 705.5,-62 508.5,-62"/>
<text text-anchor="middle" x="607" y="-69" font-family="Helvetica,sans-Serif" font-size="10.00">src/libs/vlayout/vlayoutgenerator.cpp</text>
</a>
</g>
</g>
<!-- Node3&#45;&gt;Node7 -->
<g id="edge6" class="edge">
<title>Node3&#45;&gt;Node7</title>
<path fill="none" stroke="midnightblue" d="M738.11,-125.1C705.94,-112.2 656.42,-92.33 628.34,-81.06"/>
<polygon fill="midnightblue" stroke="midnightblue" points="736.9,-128.39 747.49,-128.87 739.51,-121.9 736.9,-128.39"/>
</g>
<!-- Node8 -->
<g id="node8" class="node">
<title>Node8</title>
<g id="a_node8"><a xlink:href="../../d1/dd1/vlayoutpaper_8cpp.html" target="_top" xlink:title=" ">
<polygon fill="white" stroke="black" points="955,-0.5 955,-19.5 1133,-19.5 1133,-0.5 955,-0.5"/>
<text text-anchor="middle" x="1044" y="-7.5" font-family="Helvetica,sans-Serif" font-size="10.00">src/libs/vlayout/vlayoutpaper.cpp</text>
</a>
</g>
</g>
<!-- Node3&#45;&gt;Node8 -->
<g id="edge7" class="edge">
<title>Node3&#45;&gt;Node8</title>
<path fill="none" stroke="midnightblue" d="M757.64,-119.79C747.61,-101.69 736.76,-73.77 752,-56 777.8,-25.92 878.81,-15.76 954.86,-12.43"/>
<polygon fill="midnightblue" stroke="midnightblue" points="754.83,-121.92 762.96,-128.72 760.85,-118.33 754.83,-121.92"/>
</g>
<!-- Node9 -->
<g id="node9" class="node">
<title>Node9</title>
<g id="a_node9"><a xlink:href="../../dd/d70/vlayoutpiece_8cpp.html" target="_top" xlink:title=" ">
<polygon fill="white" stroke="black" points="761.5,-62 761.5,-81 938.5,-81 938.5,-62 761.5,-62"/>
<text text-anchor="middle" x="850" y="-69" font-family="Helvetica,sans-Serif" font-size="10.00">src/libs/vlayout/vlayoutpiece.cpp</text>
</a>
</g>
</g>
<!-- Node3&#45;&gt;Node9 -->
<g id="edge8" class="edge">
<title>Node3&#45;&gt;Node9</title>
<path fill="none" stroke="midnightblue" d="M788.05,-122.21C804.01,-109.41 826.21,-91.59 839.25,-81.13"/>
<polygon fill="midnightblue" stroke="midnightblue" points="785.53,-119.75 779.92,-128.73 789.91,-125.2 785.53,-119.75"/>
</g>
<!-- Node10 -->
<g id="node10" class="node">
<title>Node10</title>
<g id="a_node10"><a xlink:href="../../db/d5c/vposition_8h.html" target="_top" xlink:title=" ">
<polygon fill="white" stroke="black" points="1154,-62 1154,-81 1302,-81 1302,-62 1154,-62"/>
<text text-anchor="middle" x="1228" y="-69" font-family="Helvetica,sans-Serif" font-size="10.00">src/libs/vlayout/vposition.h</text>
</a>
</g>
</g>
<!-- Node3&#45;&gt;Node10 -->
<g id="edge9" class="edge">
<title>Node3&#45;&gt;Node10</title>
<path fill="none" stroke="midnightblue" d="M848.2,-127.7C924.18,-118.09 1042.09,-102.65 1144,-87 1155.85,-85.18 1168.61,-83.06 1180.52,-81.01"/>
<polygon fill="midnightblue" stroke="midnightblue" points="847.71,-124.23 838.23,-128.96 848.59,-131.18 847.71,-124.23"/>
</g>
<!-- Node12 -->
<g id="node12" class="node">
<title>Node12</title>
<g id="a_node12"><a xlink:href="../../d2/d2d/vlayoutpaper__p_8h.html" target="_top" xlink:title=" ">
<polygon fill="white" stroke="black" points="956.5,-62 956.5,-81 1135.5,-81 1135.5,-62 956.5,-62"/>
<text text-anchor="middle" x="1046" y="-69" font-family="Helvetica,sans-Serif" font-size="10.00">src/libs/vlayout/vlayoutpaper_p.h</text>
</a>
</g>
</g>
<!-- Node3&#45;&gt;Node12 -->
<g id="edge12" class="edge">
<title>Node3&#45;&gt;Node12</title>
<path fill="none" stroke="midnightblue" d="M815.26,-126.64C869.84,-113.84 959.45,-92.81 1009.42,-81.08"/>
<polygon fill="midnightblue" stroke="midnightblue" points="814.43,-123.24 805.5,-128.94 816.03,-130.06 814.43,-123.24"/>
</g>
<!-- Node10&#45;&gt;Node8 -->
<g id="edge10" class="edge">
<title>Node10&#45;&gt;Node8</title>
<path fill="none" stroke="midnightblue" d="M1192.07,-58.88C1156.3,-47.32 1102.26,-29.84 1070.31,-19.51"/>
<polygon fill="midnightblue" stroke="midnightblue" points="1191.05,-62.23 1201.64,-61.98 1193.2,-55.57 1191.05,-62.23"/>
</g>
<!-- Node11 -->
<g id="node11" class="node">
<title>Node11</title>
<g id="a_node11"><a xlink:href="../../df/d76/vposition_8cpp.html" target="_top" xlink:title=" ">
<polygon fill="white" stroke="black" points="1150.5,-0.5 1150.5,-19.5 1309.5,-19.5 1309.5,-0.5 1150.5,-0.5"/>
<text text-anchor="middle" x="1230" y="-7.5" font-family="Helvetica,sans-Serif" font-size="10.00">src/libs/vlayout/vposition.cpp</text>
</a>
</g>
</g>
<!-- Node10&#45;&gt;Node11 -->
<g id="edge11" class="edge">
<title>Node10&#45;&gt;Node11</title>
<path fill="none" stroke="midnightblue" d="M1228.63,-51.82C1228.99,-41 1229.43,-27.9 1229.71,-19.51"/>
<polygon fill="midnightblue" stroke="midnightblue" points="1225.12,-51.86 1228.29,-61.98 1232.12,-52.1 1225.12,-51.86"/>
</g>
<!-- Node12&#45;&gt;Node8 -->
<g id="edge13" class="edge">
<title>Node12&#45;&gt;Node8</title>
<path fill="none" stroke="midnightblue" d="M1045.37,-51.82C1045.01,-41 1044.57,-27.9 1044.29,-19.51"/>
<polygon fill="midnightblue" stroke="midnightblue" points="1041.88,-52.1 1045.71,-61.98 1048.88,-51.86 1041.88,-52.1"/>
</g>
<!-- Node15 -->
<g id="node15" class="node">
<title>Node15</title>
<g id="a_node15"><a xlink:href="../../df/d40/export__format__combobox_8cpp.html" target="_top" xlink:title=" ">
<polygon fill="white" stroke="black" points="1320.5,-56.5 1320.5,-86.5 1453.5,-86.5 1453.5,-56.5 1320.5,-56.5"/>
<text text-anchor="start" x="1328.5" y="-74.5" font-family="Helvetica,sans-Serif" font-size="10.00">src/libs/vwidgets/export</text>
<text text-anchor="middle" x="1387" y="-63.5" font-family="Helvetica,sans-Serif" font-size="10.00">_format_combobox.cpp</text>
</a>
</g>
</g>
<!-- Node14&#45;&gt;Node15 -->
<g id="edge16" class="edge">
<title>Node14&#45;&gt;Node15</title>
<path fill="none" stroke="midnightblue" d="M1255.59,-119.96C1284.58,-109.48 1320.91,-96.37 1348.02,-86.58"/>
<polygon fill="midnightblue" stroke="midnightblue" points="1254.27,-116.71 1246.06,-123.4 1256.65,-123.29 1254.27,-116.71"/>
</g>
<!-- Node18 -->
<g id="node18" class="node">
<title>Node18</title>
<g id="a_node18"><a xlink:href="../../d2/d28/page__format__combobox_8cpp.html" target="_top" xlink:title=" ">
<polygon fill="white" stroke="black" points="1471.5,-56.5 1471.5,-86.5 1602.5,-86.5 1602.5,-56.5 1471.5,-56.5"/>
<text text-anchor="start" x="1479.5" y="-74.5" font-family="Helvetica,sans-Serif" font-size="10.00">src/libs/vwidgets/page</text>
<text text-anchor="middle" x="1537" y="-63.5" font-family="Helvetica,sans-Serif" font-size="10.00">_format_combobox.cpp</text>
</a>
</g>
</g>
<!-- Node17&#45;&gt;Node18 -->
<g id="edge19" class="edge">
<title>Node17&#45;&gt;Node18</title>
<path fill="none" stroke="midnightblue" d="M1513.7,-114.58C1518.87,-105.24 1524.68,-94.75 1529.2,-86.58"/>
<polygon fill="midnightblue" stroke="midnightblue" points="1510.59,-112.95 1508.81,-123.4 1516.72,-116.34 1510.59,-112.95"/>
</g>
</g>
</svg>
