<?xml version="1.0" encoding="UTF-8" standalone="no"?>
<!DOCTYPE svg PUBLIC "-//W3C//DTD SVG 1.1//EN"
 "http://www.w3.org/Graphics/SVG/1.1/DTD/svg11.dtd">
<!-- Generated by graphviz version 2.43.0 (0)
 -->
<!-- Title: src/libs/vpatterndb/vpiecepath.h Pages: 1 -->
<svg width="6652pt" height="318pt"
 viewBox="0.00 0.00 6651.50 318.00" xmlns="http://www.w3.org/2000/svg" xmlns:xlink="http://www.w3.org/1999/xlink">
<g id="graph0" class="graph" transform="scale(1 1) rotate(0) translate(4 314)">
<title>src/libs/vpatterndb/vpiecepath.h</title>
<polygon fill="white" stroke="transparent" points="-4,4 -4,-314 6647.5,-314 6647.5,4 -4,4"/>
<!-- Node1 -->
<g id="node1" class="node">
<title>Node1</title>
<g id="a_node1"><a xlink:title=" ">
<polygon fill="#bfbfbf" stroke="black" points="6370.5,-279.5 6370.5,-309.5 6477.5,-309.5 6477.5,-279.5 6370.5,-279.5"/>
<text text-anchor="start" x="6378.5" y="-297.5" font-family="Helvetica,sans-Serif" font-size="10.00">src/libs/vpatterndb</text>
<text text-anchor="middle" x="6424" y="-286.5" font-family="Helvetica,sans-Serif" font-size="10.00">/vpiecepath.h</text>
</a>
</g>
</g>
<!-- Node2 -->
<g id="node2" class="node">
<title>Node2</title>
<g id="a_node2"><a xlink:href="../../d3/df7/vcontainer_8h.html" target="_top" xlink:title=" ">
<polygon fill="white" stroke="black" points="5598.5,-212.5 5598.5,-242.5 5705.5,-242.5 5705.5,-212.5 5598.5,-212.5"/>
<text text-anchor="start" x="5606.5" y="-230.5" font-family="Helvetica,sans-Serif" font-size="10.00">src/libs/vpatterndb</text>
<text text-anchor="middle" x="5652" y="-219.5" font-family="Helvetica,sans-Serif" font-size="10.00">/vcontainer.h</text>
</a>
</g>
</g>
<!-- Node1&#45;&gt;Node2 -->
<g id="edge1" class="edge">
<title>Node1&#45;&gt;Node2</title>
<path fill="none" stroke="midnightblue" d="M6359.99,-288.11C6211.08,-275.57 5843.62,-244.63 5705.57,-233.01"/>
<polygon fill="midnightblue" stroke="midnightblue" points="6360.07,-291.63 6370.33,-288.98 6360.66,-284.65 6360.07,-291.63"/>
</g>
<!-- Node59 -->
<g id="node46" class="node">
<title>Node59</title>
<g id="a_node46"><a xlink:href="../../d6/d91/vnodedetail_8cpp.html" target="_top" xlink:title=" ">
<polygon fill="white" stroke="black" points="6340.5,-140 6340.5,-170 6447.5,-170 6447.5,-140 6340.5,-140"/>
<text text-anchor="start" x="6348.5" y="-158" font-family="Helvetica,sans-Serif" font-size="10.00">src/libs/vpatterndb</text>
<text text-anchor="middle" x="6394" y="-147" font-family="Helvetica,sans-Serif" font-size="10.00">/vnodedetail.cpp</text>
</a>
</g>
</g>
<!-- Node1&#45;&gt;Node59 -->
<g id="edge59" class="edge">
<title>Node1&#45;&gt;Node59</title>
<path fill="none" stroke="midnightblue" d="M6418.72,-269.29C6412.46,-240.61 6402.24,-193.78 6397.13,-170.33"/>
<polygon fill="midnightblue" stroke="midnightblue" points="6415.35,-270.28 6420.9,-279.3 6422.19,-268.79 6415.35,-270.28"/>
</g>
<!-- Node60 -->
<g id="node47" class="node">
<title>Node60</title>
<g id="a_node47"><a xlink:href="../../da/de1/vpiecepath_8cpp.html" target="_top" xlink:title=" ">
<polygon fill="white" stroke="black" points="6465.5,-140 6465.5,-170 6572.5,-170 6572.5,-140 6465.5,-140"/>
<text text-anchor="start" x="6473.5" y="-158" font-family="Helvetica,sans-Serif" font-size="10.00">src/libs/vpatterndb</text>
<text text-anchor="middle" x="6519" y="-147" font-family="Helvetica,sans-Serif" font-size="10.00">/vpiecepath.cpp</text>
</a>
</g>
</g>
<!-- Node1&#45;&gt;Node60 -->
<g id="edge62" class="edge">
<title>Node1&#45;&gt;Node60</title>
<path fill="none" stroke="midnightblue" d="M6439.69,-270.79C6459.4,-242.26 6492.62,-194.19 6509.1,-170.33"/>
<polygon fill="midnightblue" stroke="midnightblue" points="6436.61,-269.09 6433.81,-279.3 6442.37,-273.07 6436.61,-269.09"/>
</g>
<!-- Node63 -->
<g id="node50" class="node">
<title>Node63</title>
<g id="a_node50"><a xlink:href="../../d8/da5/vpiece__p_8h.html" target="_top" xlink:title=" ">
<polygon fill="white" stroke="black" points="6536.5,-212.5 6536.5,-242.5 6643.5,-242.5 6643.5,-212.5 6536.5,-212.5"/>
<text text-anchor="start" x="6544.5" y="-230.5" font-family="Helvetica,sans-Serif" font-size="10.00">src/libs/vpatterndb</text>
<text text-anchor="middle" x="6590" y="-219.5" font-family="Helvetica,sans-Serif" font-size="10.00">/vpiece_p.h</text>
</a>
</g>
</g>
<!-- Node1&#45;&gt;Node63 -->
<g id="edge60" class="edge">
<title>Node1&#45;&gt;Node63</title>
<path fill="none" stroke="midnightblue" d="M6469.51,-275.68C6496.13,-265.26 6529.27,-252.28 6554.05,-242.58"/>
<polygon fill="midnightblue" stroke="midnightblue" points="6468.05,-272.49 6460.02,-279.4 6470.61,-279.01 6468.05,-272.49"/>
</g>
<!-- Node3 -->
<g id="node3" class="node">
<title>Node3</title>
<g id="a_node3"><a xlink:href="../../dc/db7/measurements_8h.html" target="_top" xlink:title=" ">
<polygon fill="white" stroke="black" points="155.5,-145.5 155.5,-164.5 334.5,-164.5 334.5,-145.5 155.5,-145.5"/>
<text text-anchor="middle" x="245" y="-152.5" font-family="Helvetica,sans-Serif" font-size="10.00">src/libs/vformat/measurements.h</text>
</a>
</g>
</g>
<!-- Node2&#45;&gt;Node3 -->
<g id="edge2" class="edge">
<title>Node2&#45;&gt;Node3</title>
<path fill="none" stroke="midnightblue" d="M5588.39,-226.2C5080.54,-223.79 1676.48,-206.61 649,-176 540.9,-172.78 416.66,-166.2 334.82,-161.46"/>
<polygon fill="midnightblue" stroke="midnightblue" points="5588.45,-229.7 5598.47,-226.25 5588.48,-222.7 5588.45,-229.7"/>
</g>
<!-- Node4 -->
<g id="node4" class="node">
<title>Node4</title>
<g id="a_node4"><a xlink:href="../../d9/de3/measurements_8cpp.html" target="_top" xlink:title=" ">
<polygon fill="white" stroke="black" points="0,-73 0,-92 190,-92 190,-73 0,-73"/>
<text text-anchor="middle" x="95" y="-80" font-family="Helvetica,sans-Serif" font-size="10.00">src/libs/vformat/measurements.cpp</text>
</a>
</g>
</g>
<!-- Node2&#45;&gt;Node4 -->
<g id="edge4" class="edge">
<title>Node2&#45;&gt;Node4</title>
<path fill="none" stroke="midnightblue" d="M5588.22,-226.27C5053.72,-224.25 1327.88,-209.05 832,-176 573.05,-158.74 265.77,-111.45 146.18,-92.02"/>
<polygon fill="midnightblue" stroke="midnightblue" points="5588.42,-229.77 5598.44,-226.3 5588.45,-222.77 5588.42,-229.77"/>
</g>
<!-- Node5 -->
<g id="node5" class="node">
<title>Node5</title>
<g id="a_node5"><a xlink:href="../../d6/de0/vlayoutpiece_8h.html" target="_top" xlink:title=" ">
<polygon fill="white" stroke="black" points="841,-145.5 841,-164.5 1007,-164.5 1007,-145.5 841,-145.5"/>
<text text-anchor="middle" x="924" y="-152.5" font-family="Helvetica,sans-Serif" font-size="10.00">src/libs/vlayout/vlayoutpiece.h</text>
</a>
</g>
</g>
<!-- Node2&#45;&gt;Node5 -->
<g id="edge5" class="edge">
<title>Node2&#45;&gt;Node5</title>
<path fill="none" stroke="midnightblue" d="M5588.28,-225.55C5073.02,-217.87 1591.98,-165.96 1007.27,-157.24"/>
<polygon fill="midnightblue" stroke="midnightblue" points="5588.44,-229.05 5598.5,-225.7 5588.55,-222.05 5588.44,-229.05"/>
</g>
<!-- Node15 -->
<g id="node14" class="node">
<title>Node15</title>
<g id="a_node14"><a xlink:href="../../d8/d70/vtextmanager_8cpp.html" target="_top" xlink:title=" ">
<polygon fill="white" stroke="black" points="1530,-73 1530,-92 1712,-92 1712,-73 1530,-73"/>
<text text-anchor="middle" x="1621" y="-80" font-family="Helvetica,sans-Serif" font-size="10.00">src/libs/vlayout/vtextmanager.cpp</text>
</a>
</g>
</g>
<!-- Node2&#45;&gt;Node15 -->
<g id="edge16" class="edge">
<title>Node2&#45;&gt;Node15</title>
<path fill="none" stroke="midnightblue" d="M5587.9,-225.56C5323.24,-221.59 4289.56,-204.97 3440,-176 2675.66,-149.94 2482.36,-170.29 1721,-98 1705.28,-96.51 1688.26,-94.27 1672.78,-92"/>
<polygon fill="midnightblue" stroke="midnightblue" points="5588.04,-229.07 5598.09,-225.72 5588.15,-222.07 5588.04,-229.07"/>
</g>
<!-- Node16 -->
<g id="node15" class="node">
<title>Node16</title>
<g id="a_node15"><a xlink:href="../../d5/d74/vabstractapplication_8h.html" target="_top" xlink:title=" ">
<polygon fill="white" stroke="red" points="3449.5,-145.5 3449.5,-164.5 3644.5,-164.5 3644.5,-145.5 3449.5,-145.5"/>
<text text-anchor="middle" x="3547" y="-152.5" font-family="Helvetica,sans-Serif" font-size="10.00">src/libs/vmisc/vabstractapplication.h</text>
</a>
</g>
</g>
<!-- Node2&#45;&gt;Node16 -->
<g id="edge17" class="edge">
<title>Node2&#45;&gt;Node16</title>
<path fill="none" stroke="midnightblue" d="M5588.09,-224.36C5286.99,-214.28 4009.42,-171.49 3644.63,-159.27"/>
<polygon fill="midnightblue" stroke="midnightblue" points="5588.27,-227.87 5598.38,-224.7 5588.51,-220.87 5588.27,-227.87"/>
</g>
<!-- Node34 -->
<g id="node29" class="node">
<title>Node34</title>
<g id="a_node29"><a xlink:href="../../db/d11/vformula_8cpp.html" target="_top" xlink:title=" ">
<polygon fill="white" stroke="black" points="5503.5,-67.5 5503.5,-97.5 5610.5,-97.5 5610.5,-67.5 5503.5,-67.5"/>
<text text-anchor="start" x="5511.5" y="-85.5" font-family="Helvetica,sans-Serif" font-size="10.00">src/libs/vpatterndb</text>
<text text-anchor="middle" x="5557" y="-74.5" font-family="Helvetica,sans-Serif" font-size="10.00">/vformula.cpp</text>
</a>
</g>
</g>
<!-- Node2&#45;&gt;Node34 -->
<g id="edge51" class="edge">
<title>Node2&#45;&gt;Node34</title>
<path fill="none" stroke="midnightblue" d="M5632.44,-204.68C5625.06,-196.01 5616.8,-185.79 5610,-176 5591.63,-149.55 5573.75,-116.32 5564.18,-97.75"/>
<polygon fill="midnightblue" stroke="midnightblue" points="5629.98,-207.18 5639.18,-212.44 5635.27,-202.59 5629.98,-207.18"/>
</g>
<!-- Node35 -->
<g id="node30" class="node">
<title>Node35</title>
<g id="a_node30"><a xlink:href="../../d6/d46/vcontainer_8cpp.html" target="_top" xlink:title=" ">
<polygon fill="white" stroke="black" points="5628.5,-67.5 5628.5,-97.5 5735.5,-97.5 5735.5,-67.5 5628.5,-67.5"/>
<text text-anchor="start" x="5636.5" y="-85.5" font-family="Helvetica,sans-Serif" font-size="10.00">src/libs/vpatterndb</text>
<text text-anchor="middle" x="5682" y="-74.5" font-family="Helvetica,sans-Serif" font-size="10.00">/vcontainer.cpp</text>
</a>
</g>
</g>
<!-- Node2&#45;&gt;Node35 -->
<g id="edge52" class="edge">
<title>Node2&#45;&gt;Node35</title>
<path fill="none" stroke="midnightblue" d="M5633.41,-204.14C5627.62,-195.83 5621.97,-185.98 5619,-176 5613.67,-158.11 5610.92,-150.83 5619,-134 5626.46,-118.46 5641.3,-106.19 5654.7,-97.64"/>
<polygon fill="midnightblue" stroke="midnightblue" points="5630.61,-206.25 5639.39,-212.19 5636.23,-202.07 5630.61,-206.25"/>
</g>
<!-- Node36 -->
<g id="node31" class="node">
<title>Node36</title>
<g id="a_node31"><a xlink:href="../../df/d7a/vpiece_8cpp.html" target="_top" xlink:title=" ">
<polygon fill="white" stroke="black" points="5753.5,-67.5 5753.5,-97.5 5860.5,-97.5 5860.5,-67.5 5753.5,-67.5"/>
<text text-anchor="start" x="5761.5" y="-85.5" font-family="Helvetica,sans-Serif" font-size="10.00">src/libs/vpatterndb</text>
<text text-anchor="middle" x="5807" y="-74.5" font-family="Helvetica,sans-Serif" font-size="10.00">/vpiece.cpp</text>
</a>
</g>
</g>
<!-- Node2&#45;&gt;Node36 -->
<g id="edge54" class="edge">
<title>Node2&#45;&gt;Node36</title>
<path fill="none" stroke="midnightblue" d="M5646.41,-202.29C5643.2,-182 5642.31,-153.32 5657,-134 5663.32,-125.69 5715.02,-109.44 5755.98,-97.62"/>
<polygon fill="midnightblue" stroke="midnightblue" points="5643.01,-203.13 5648.28,-212.32 5649.89,-201.84 5643.01,-203.13"/>
</g>
<!-- Node38 -->
<g id="node33" class="node">
<title>Node38</title>
<g id="a_node33"><a xlink:href="../../d8/dba/vpiecenode_8cpp.html" target="_top" xlink:title=" ">
<polygon fill="white" stroke="black" points="4695.5,-0.5 4695.5,-30.5 4802.5,-30.5 4802.5,-0.5 4695.5,-0.5"/>
<text text-anchor="start" x="4703.5" y="-18.5" font-family="Helvetica,sans-Serif" font-size="10.00">src/libs/vpatterndb</text>
<text text-anchor="middle" x="4749" y="-7.5" font-family="Helvetica,sans-Serif" font-size="10.00">/vpiecenode.cpp</text>
</a>
</g>
</g>
<!-- Node2&#45;&gt;Node38 -->
<g id="edge55" class="edge">
<title>Node2&#45;&gt;Node38</title>
<path fill="none" stroke="midnightblue" d="M5655.4,-202.6C5659.71,-181.36 5669.26,-151.11 5690,-134 5755.53,-79.95 5927.7,-128.4 5869,-67 5831.76,-28.04 5020.5,-18.69 4802.51,-16.88"/>
<polygon fill="midnightblue" stroke="midnightblue" points="5651.94,-202.02 5653.63,-212.48 5658.84,-203.25 5651.94,-202.02"/>
</g>
<!-- Node55 -->
<g id="node44" class="node">
<title>Node55</title>
<g id="a_node44"><a xlink:href="../../d7/d8a/measurement__variable__p_8h.html" target="_top" xlink:title=" ">
<polygon fill="white" stroke="red" points="5699,-134.5 5699,-175.5 5835,-175.5 5835,-134.5 5699,-134.5"/>
<text text-anchor="start" x="5707" y="-163.5" font-family="Helvetica,sans-Serif" font-size="10.00">src/libs/vpatterndb</text>
<text text-anchor="start" x="5707" y="-152.5" font-family="Helvetica,sans-Serif" font-size="10.00">/variables/measurement</text>
<text text-anchor="middle" x="5767" y="-141.5" font-family="Helvetica,sans-Serif" font-size="10.00">_variable_p.h</text>
</a>
</g>
</g>
<!-- Node2&#45;&gt;Node55 -->
<g id="edge49" class="edge">
<title>Node2&#45;&gt;Node55</title>
<path fill="none" stroke="midnightblue" d="M5683.92,-206.93C5699.82,-197.19 5718.98,-185.44 5734.9,-175.68"/>
<polygon fill="midnightblue" stroke="midnightblue" points="5681.69,-204.19 5675,-212.4 5685.35,-210.16 5681.69,-204.19"/>
</g>
<!-- Node57 -->
<g id="node45" class="node">
<title>Node57</title>
<g id="a_node45"><a xlink:href="../../d1/de1/vincrement__p_8h.html" target="_top" xlink:title=" ">
<polygon fill="white" stroke="red" points="5853.5,-140 5853.5,-170 5996.5,-170 5996.5,-140 5853.5,-140"/>
<text text-anchor="start" x="5861.5" y="-158" font-family="Helvetica,sans-Serif" font-size="10.00">src/libs/vpatterndb</text>
<text text-anchor="middle" x="5925" y="-147" font-family="Helvetica,sans-Serif" font-size="10.00">/variables/vincrement_p.h</text>
</a>
</g>
</g>
<!-- Node2&#45;&gt;Node57 -->
<g id="edge50" class="edge">
<title>Node2&#45;&gt;Node57</title>
<path fill="none" stroke="midnightblue" d="M5715.38,-210.13C5762.4,-197.99 5825.84,-181.61 5870.58,-170.05"/>
<polygon fill="midnightblue" stroke="midnightblue" points="5714.42,-206.77 5705.61,-212.66 5716.17,-213.54 5714.42,-206.77"/>
</g>
<!-- Node2&#45;&gt;Node59 -->
<g id="edge53" class="edge">
<title>Node2&#45;&gt;Node59</title>
<path fill="none" stroke="midnightblue" d="M5716.03,-226.68C5837.22,-225.94 6107.99,-219.08 6331,-176 6338.77,-174.5 6346.93,-172.35 6354.71,-170.02"/>
<polygon fill="midnightblue" stroke="midnightblue" points="5715.8,-223.18 5705.82,-226.73 5715.83,-230.18 5715.8,-223.18"/>
</g>
<!-- Node2&#45;&gt;Node60 -->
<g id="edge56" class="edge">
<title>Node2&#45;&gt;Node60</title>
<path fill="none" stroke="midnightblue" d="M5716.17,-224.5C5880.69,-219.03 6314.51,-202.49 6456,-176 6463.78,-174.54 6471.95,-172.42 6479.72,-170.09"/>
<polygon fill="midnightblue" stroke="midnightblue" points="5715.61,-221.01 5705.73,-224.84 5715.84,-228.01 5715.61,-221.01"/>
</g>
<!-- Node61 -->
<g id="node48" class="node">
<title>Node61</title>
<g id="a_node48"><a xlink:href="../../d1/d3a/abstracttest_8cpp.html" target="_top" xlink:title=" ">
<polygon fill="white" stroke="black" points="6014.5,-145.5 6014.5,-164.5 6175.5,-164.5 6175.5,-145.5 6014.5,-145.5"/>
<text text-anchor="middle" x="6095" y="-152.5" font-family="Helvetica,sans-Serif" font-size="10.00">src/libs/vtest/abstracttest.cpp</text>
</a>
</g>
</g>
<!-- Node2&#45;&gt;Node61 -->
<g id="edge57" class="edge">
<title>Node2&#45;&gt;Node61</title>
<path fill="none" stroke="midnightblue" d="M5715.84,-218.86C5786.73,-210.03 5904.43,-194.34 6005,-176 6023.11,-172.7 6043.11,-168.33 6059.65,-164.51"/>
<polygon fill="midnightblue" stroke="midnightblue" points="5715.22,-215.41 5705.73,-220.11 5716.09,-222.36 5715.22,-215.41"/>
</g>
<!-- Node62 -->
<g id="node49" class="node">
<title>Node62</title>
<g id="a_node49"><a xlink:href="../../da/db4/piece__tablewidgetitem_8cpp.html" target="_top" xlink:title=" ">
<polygon fill="white" stroke="black" points="6194,-140 6194,-170 6322,-170 6322,-140 6194,-140"/>
<text text-anchor="start" x="6202" y="-158" font-family="Helvetica,sans-Serif" font-size="10.00">src/libs/vwidgets/piece</text>
<text text-anchor="middle" x="6258" y="-147" font-family="Helvetica,sans-Serif" font-size="10.00">_tablewidgetitem.cpp</text>
</a>
</g>
</g>
<!-- Node2&#45;&gt;Node62 -->
<g id="edge58" class="edge">
<title>Node2&#45;&gt;Node62</title>
<path fill="none" stroke="midnightblue" d="M5715.92,-223.93C5816.29,-219.11 6016.7,-206.32 6184,-176 6192.77,-174.41 6202.02,-172.28 6210.9,-170.01"/>
<polygon fill="midnightblue" stroke="midnightblue" points="5715.47,-220.45 5705.64,-224.41 5715.8,-227.44 5715.47,-220.45"/>
</g>
<!-- Node3&#45;&gt;Node4 -->
<g id="edge3" class="edge">
<title>Node3&#45;&gt;Node4</title>
<path fill="none" stroke="midnightblue" d="M217.73,-141.18C187.39,-126.92 139.21,-104.28 113.16,-92.03"/>
<polygon fill="midnightblue" stroke="midnightblue" points="216.37,-144.41 226.91,-145.5 219.35,-138.07 216.37,-144.41"/>
</g>
<!-- Node6 -->
<g id="node6" class="node">
<title>Node6</title>
<g id="a_node6"><a xlink:href="../../dd/d66/vdxfengine_8cpp.html" target="_top" xlink:title=" ">
<polygon fill="white" stroke="black" points="208,-73 208,-92 362,-92 362,-73 208,-73"/>
<text text-anchor="middle" x="285" y="-80" font-family="Helvetica,sans-Serif" font-size="10.00">src/libs/vdxf/vdxfengine.cpp</text>
</a>
</g>
</g>
<!-- Node5&#45;&gt;Node6 -->
<g id="edge6" class="edge">
<title>Node5&#45;&gt;Node6</title>
<path fill="none" stroke="midnightblue" d="M830.81,-146.46C720.71,-137.11 532.13,-119.72 371,-98 358.4,-96.3 344.8,-94.16 332.23,-92.04"/>
<polygon fill="midnightblue" stroke="midnightblue" points="830.63,-149.95 840.89,-147.31 831.22,-142.98 830.63,-149.95"/>
</g>
<!-- Node7 -->
<g id="node7" class="node">
<title>Node7</title>
<g id="a_node7"><a xlink:href="../../de/da8/vbank_8cpp.html" target="_top" xlink:title=" ">
<polygon fill="white" stroke="black" points="380,-73 380,-92 524,-92 524,-73 380,-73"/>
<text text-anchor="middle" x="452" y="-80" font-family="Helvetica,sans-Serif" font-size="10.00">src/libs/vlayout/vbank.cpp</text>
</a>
</g>
</g>
<!-- Node5&#45;&gt;Node7 -->
<g id="edge7" class="edge">
<title>Node5&#45;&gt;Node7</title>
<path fill="none" stroke="midnightblue" d="M849.24,-144.08C770.46,-133.45 642.82,-115.69 533,-98 521.72,-96.18 509.58,-94.09 498.21,-92.06"/>
<polygon fill="midnightblue" stroke="midnightblue" points="849.17,-147.6 859.55,-145.47 850.11,-140.67 849.17,-147.6"/>
</g>
<!-- Node8 -->
<g id="node8" class="node">
<title>Node8</title>
<g id="a_node8"><a xlink:href="../../df/d5d/vcontour_8cpp.html" target="_top" xlink:title=" ">
<polygon fill="white" stroke="black" points="542,-73 542,-92 698,-92 698,-73 542,-73"/>
<text text-anchor="middle" x="620" y="-80" font-family="Helvetica,sans-Serif" font-size="10.00">src/libs/vlayout/vcontour.cpp</text>
</a>
</g>
</g>
<!-- Node5&#45;&gt;Node8 -->
<g id="edge8" class="edge">
<title>Node5&#45;&gt;Node8</title>
<path fill="none" stroke="midnightblue" d="M877.27,-143.16C816.64,-129.1 712.11,-104.86 656.8,-92.03"/>
<polygon fill="midnightblue" stroke="midnightblue" points="876.8,-146.65 887.33,-145.5 878.38,-139.83 876.8,-146.65"/>
</g>
<!-- Node9 -->
<g id="node9" class="node">
<title>Node9</title>
<g id="a_node9"><a xlink:href="../../d2/d2d/vlayoutpaper__p_8h.html" target="_top" xlink:title=" ">
<polygon fill="white" stroke="black" points="716.5,-73 716.5,-92 895.5,-92 895.5,-73 716.5,-73"/>
<text text-anchor="middle" x="806" y="-80" font-family="Helvetica,sans-Serif" font-size="10.00">src/libs/vlayout/vlayoutpaper_p.h</text>
</a>
</g>
</g>
<!-- Node5&#45;&gt;Node9 -->
<g id="edge9" class="edge">
<title>Node5&#45;&gt;Node9</title>
<path fill="none" stroke="midnightblue" d="M900.77,-140.12C876.96,-125.89 840.65,-104.2 820.59,-92.22"/>
<polygon fill="midnightblue" stroke="midnightblue" points="899.15,-143.23 909.53,-145.36 902.74,-137.22 899.15,-143.23"/>
</g>
<!-- Node10 -->
<g id="node10" class="node">
<title>Node10</title>
<g id="a_node10"><a xlink:href="../../d1/dd1/vlayoutpaper_8cpp.html" target="_top" xlink:title=" ">
<polygon fill="white" stroke="black" points="835,-6 835,-25 1013,-25 1013,-6 835,-6"/>
<text text-anchor="middle" x="924" y="-13" font-family="Helvetica,sans-Serif" font-size="10.00">src/libs/vlayout/vlayoutpaper.cpp</text>
</a>
</g>
</g>
<!-- Node5&#45;&gt;Node10 -->
<g id="edge12" class="edge">
<title>Node5&#45;&gt;Node10</title>
<path fill="none" stroke="midnightblue" d="M924,-135.36C924,-105.23 924,-46.99 924,-25.1"/>
<polygon fill="midnightblue" stroke="midnightblue" points="920.5,-135.4 924,-145.4 927.5,-135.4 920.5,-135.4"/>
</g>
<!-- Node11 -->
<g id="node11" class="node">
<title>Node11</title>
<g id="a_node11"><a xlink:href="../../d3/d39/vlayoutgenerator_8cpp.html" target="_top" xlink:title=" ">
<polygon fill="white" stroke="black" points="952.5,-73 952.5,-92 1149.5,-92 1149.5,-73 952.5,-73"/>
<text text-anchor="middle" x="1051" y="-80" font-family="Helvetica,sans-Serif" font-size="10.00">src/libs/vlayout/vlayoutgenerator.cpp</text>
</a>
</g>
</g>
<!-- Node5&#45;&gt;Node11 -->
<g id="edge11" class="edge">
<title>Node5&#45;&gt;Node11</title>
<path fill="none" stroke="midnightblue" d="M948.32,-140.5C973.94,-126.28 1013.52,-104.3 1035.3,-92.22"/>
<polygon fill="midnightblue" stroke="midnightblue" points="946.62,-137.44 939.57,-145.36 950.01,-143.56 946.62,-137.44"/>
</g>
<!-- Node12 -->
<g id="node12" class="node">
<title>Node12</title>
<g id="a_node12"><a xlink:href="../../db/d5c/vposition_8h.html" target="_top" xlink:title=" ">
<polygon fill="white" stroke="red" points="1168,-73 1168,-92 1316,-92 1316,-73 1168,-73"/>
<text text-anchor="middle" x="1242" y="-80" font-family="Helvetica,sans-Serif" font-size="10.00">src/libs/vlayout/vposition.h</text>
</a>
</g>
</g>
<!-- Node5&#45;&gt;Node12 -->
<g id="edge13" class="edge">
<title>Node5&#45;&gt;Node12</title>
<path fill="none" stroke="midnightblue" d="M972.49,-143.25C1035.85,-129.2 1145.53,-104.89 1203.51,-92.03"/>
<polygon fill="midnightblue" stroke="midnightblue" points="971.36,-139.91 962.36,-145.5 972.88,-146.75 971.36,-139.91"/>
</g>
<!-- Node14 -->
<g id="node13" class="node">
<title>Node14</title>
<g id="a_node13"><a xlink:href="../../dd/d70/vlayoutpiece_8cpp.html" target="_top" xlink:title=" ">
<polygon fill="white" stroke="black" points="1334.5,-73 1334.5,-92 1511.5,-92 1511.5,-73 1334.5,-73"/>
<text text-anchor="middle" x="1423" y="-80" font-family="Helvetica,sans-Serif" font-size="10.00">src/libs/vlayout/vlayoutpiece.cpp</text>
</a>
</g>
</g>
<!-- Node5&#45;&gt;Node14 -->
<g id="edge15" class="edge">
<title>Node5&#45;&gt;Node14</title>
<path fill="none" stroke="midnightblue" d="M996.2,-144.1C1076.5,-133.04 1210.07,-114.53 1325,-98 1338.28,-96.09 1352.56,-94 1366.01,-92.01"/>
<polygon fill="midnightblue" stroke="midnightblue" points="995.62,-140.64 986.19,-145.47 996.57,-147.58 995.62,-140.64"/>
</g>
<!-- Node9&#45;&gt;Node10 -->
<g id="edge10" class="edge">
<title>Node9&#45;&gt;Node10</title>
<path fill="none" stroke="midnightblue" d="M830.89,-67.79C854.28,-54.9 888.56,-36.02 908.34,-25.13"/>
<polygon fill="midnightblue" stroke="midnightblue" points="828.98,-64.84 821.91,-72.73 832.36,-70.97 828.98,-64.84"/>
</g>
<!-- Node12&#45;&gt;Node10 -->
<g id="edge14" class="edge">
<title>Node12&#45;&gt;Node10</title>
<path fill="none" stroke="midnightblue" d="M1190.04,-70.88C1127.41,-58.08 1023.41,-36.82 965.74,-25.03"/>
<polygon fill="midnightblue" stroke="midnightblue" points="1189.6,-74.36 1200.1,-72.94 1191,-67.5 1189.6,-74.36"/>
</g>
<!-- Node16&#45;&gt;Node14 -->
<g id="edge31" class="edge">
<title>Node16&#45;&gt;Node14</title>
<path fill="none" stroke="midnightblue" d="M3439.24,-152.72C3076.08,-148.14 1898.68,-131.04 1521,-98 1505.24,-96.62 1488.15,-94.36 1472.72,-92.03"/>
<polygon fill="midnightblue" stroke="midnightblue" points="3439.44,-156.22 3449.48,-152.85 3439.53,-149.22 3439.44,-156.22"/>
</g>
<!-- Node16&#45;&gt;Node15 -->
<g id="edge28" class="edge">
<title>Node16&#45;&gt;Node15</title>
<path fill="none" stroke="midnightblue" d="M3439.28,-152.3C3100.28,-146.7 2057.84,-127.49 1721,-98 1705.01,-96.6 1687.67,-94.35 1672,-92.03"/>
<polygon fill="midnightblue" stroke="midnightblue" points="3439.29,-155.8 3449.35,-152.47 3439.41,-148.8 3439.29,-155.8"/>
</g>
<!-- Node17 -->
<g id="node16" class="node">
<title>Node17</title>
<g id="a_node16"><a xlink:href="../../d4/d90/fvupdater_8cpp.html" target="_top" xlink:title=" ">
<polygon fill="white" stroke="black" points="1730.5,-73 1730.5,-92 1883.5,-92 1883.5,-73 1730.5,-73"/>
<text text-anchor="middle" x="1807" y="-80" font-family="Helvetica,sans-Serif" font-size="10.00">src/libs/fervor/fvupdater.cpp</text>
</a>
</g>
</g>
<!-- Node16&#45;&gt;Node17 -->
<g id="edge18" class="edge">
<title>Node16&#45;&gt;Node17</title>
<path fill="none" stroke="midnightblue" d="M3439.35,-152.26C3122.03,-146.83 2193.69,-128.69 1892,-98 1878.3,-96.61 1863.47,-94.34 1850.09,-92.01"/>
<polygon fill="midnightblue" stroke="midnightblue" points="3439.41,-155.76 3449.47,-152.43 3439.53,-148.76 3439.41,-155.76"/>
</g>
<!-- Node18 -->
<g id="node17" class="node">
<title>Node18</title>
<g id="a_node17"><a xlink:href="../../d9/dc8/dxiface_8cpp.html" target="_top" xlink:title=" ">
<polygon fill="white" stroke="black" points="1901.5,-73 1901.5,-92 2036.5,-92 2036.5,-73 1901.5,-73"/>
<text text-anchor="middle" x="1969" y="-80" font-family="Helvetica,sans-Serif" font-size="10.00">src/libs/vdxf/dxiface.cpp</text>
</a>
</g>
</g>
<!-- Node16&#45;&gt;Node18 -->
<g id="edge19" class="edge">
<title>Node16&#45;&gt;Node18</title>
<path fill="none" stroke="midnightblue" d="M3439.09,-152.1C3141.85,-146.52 2315.34,-128.65 2045,-98 2032.72,-96.61 2019.45,-94.34 2007.49,-92.01"/>
<polygon fill="midnightblue" stroke="midnightblue" points="3439.38,-155.6 3449.44,-152.29 3439.51,-148.61 3439.38,-155.6"/>
</g>
<!-- Node19 -->
<g id="node18" class="node">
<title>Node19</title>
<g id="a_node18"><a xlink:href="../../da/d75/vabstractarc__p_8h.html" target="_top" xlink:title=" ">
<polygon fill="white" stroke="red" points="2054.5,-67.5 2054.5,-97.5 2161.5,-97.5 2161.5,-67.5 2054.5,-67.5"/>
<text text-anchor="start" x="2062.5" y="-85.5" font-family="Helvetica,sans-Serif" font-size="10.00">src/libs/vgeometry</text>
<text text-anchor="middle" x="2108" y="-74.5" font-family="Helvetica,sans-Serif" font-size="10.00">/vabstractarc_p.h</text>
</a>
</g>
</g>
<!-- Node16&#45;&gt;Node19 -->
<g id="edge20" class="edge">
<title>Node16&#45;&gt;Node19</title>
<path fill="none" stroke="midnightblue" d="M3439.21,-152.25C3159.37,-147.29 2414.57,-131.27 2170,-98 2167.26,-97.63 2164.47,-97.19 2161.65,-96.7"/>
<polygon fill="midnightblue" stroke="midnightblue" points="3439.31,-155.75 3449.37,-152.43 3439.43,-148.75 3439.31,-155.75"/>
</g>
<!-- Node21 -->
<g id="node19" class="node">
<title>Node21</title>
<g id="a_node19"><a xlink:href="../../dc/da3/varc__p_8h.html" target="_top" xlink:title=" ">
<polygon fill="white" stroke="red" points="2179.5,-67.5 2179.5,-97.5 2286.5,-97.5 2286.5,-67.5 2179.5,-67.5"/>
<text text-anchor="start" x="2187.5" y="-85.5" font-family="Helvetica,sans-Serif" font-size="10.00">src/libs/vgeometry</text>
<text text-anchor="middle" x="2233" y="-74.5" font-family="Helvetica,sans-Serif" font-size="10.00">/varc_p.h</text>
</a>
</g>
</g>
<!-- Node16&#45;&gt;Node21 -->
<g id="edge21" class="edge">
<title>Node16&#45;&gt;Node21</title>
<path fill="none" stroke="midnightblue" d="M3438.9,-151.73C3177.09,-145.83 2514.47,-128.31 2295,-98 2292.26,-97.62 2289.47,-97.18 2286.65,-96.69"/>
<polygon fill="midnightblue" stroke="midnightblue" points="3439.1,-155.24 3449.17,-151.97 3439.25,-148.24 3439.1,-155.24"/>
</g>
<!-- Node23 -->
<g id="node20" class="node">
<title>Node23</title>
<g id="a_node20"><a xlink:href="../../d5/d8e/vcubicbezier__p_8h.html" target="_top" xlink:title=" ">
<polygon fill="white" stroke="red" points="2304.5,-67.5 2304.5,-97.5 2411.5,-97.5 2411.5,-67.5 2304.5,-67.5"/>
<text text-anchor="start" x="2312.5" y="-85.5" font-family="Helvetica,sans-Serif" font-size="10.00">src/libs/vgeometry</text>
<text text-anchor="middle" x="2358" y="-74.5" font-family="Helvetica,sans-Serif" font-size="10.00">/vcubicbezier_p.h</text>
</a>
</g>
</g>
<!-- Node16&#45;&gt;Node23 -->
<g id="edge22" class="edge">
<title>Node16&#45;&gt;Node23</title>
<path fill="none" stroke="midnightblue" d="M3438.91,-151.11C3196.32,-144.23 2614.59,-125.36 2420,-98 2417.26,-97.62 2414.47,-97.17 2411.66,-96.67"/>
<polygon fill="midnightblue" stroke="midnightblue" points="3439.06,-154.62 3449.15,-151.4 3439.25,-147.62 3439.06,-154.62"/>
</g>
<!-- Node25 -->
<g id="node21" class="node">
<title>Node25</title>
<g id="a_node21"><a xlink:href="../../df/dde/vellipticalarc__p_8h.html" target="_top" xlink:title=" ">
<polygon fill="white" stroke="black" points="2429.5,-67.5 2429.5,-97.5 2536.5,-97.5 2536.5,-67.5 2429.5,-67.5"/>
<text text-anchor="start" x="2437.5" y="-85.5" font-family="Helvetica,sans-Serif" font-size="10.00">src/libs/vgeometry</text>
<text text-anchor="middle" x="2483" y="-74.5" font-family="Helvetica,sans-Serif" font-size="10.00">/vellipticalarc_p.h</text>
</a>
</g>
</g>
<!-- Node16&#45;&gt;Node25 -->
<g id="edge23" class="edge">
<title>Node16&#45;&gt;Node25</title>
<path fill="none" stroke="midnightblue" d="M3439.15,-153.36C3255.85,-151.06 2872.15,-141.01 2551,-98 2546.33,-97.38 2541.51,-96.6 2536.69,-95.75"/>
<polygon fill="midnightblue" stroke="midnightblue" points="3439.29,-156.86 3449.33,-153.48 3439.38,-149.86 3439.29,-156.86"/>
</g>
<!-- Node26 -->
<g id="node22" class="node">
<title>Node26</title>
<g id="a_node22"><a xlink:href="../../d6/dfb/vellipticalarc_8cpp.html" target="_top" xlink:title=" ">
<polygon fill="white" stroke="black" points="2470.5,-0.5 2470.5,-30.5 2577.5,-30.5 2577.5,-0.5 2470.5,-0.5"/>
<text text-anchor="start" x="2478.5" y="-18.5" font-family="Helvetica,sans-Serif" font-size="10.00">src/libs/vgeometry</text>
<text text-anchor="middle" x="2524" y="-7.5" font-family="Helvetica,sans-Serif" font-size="10.00">/vellipticalarc.cpp</text>
</a>
</g>
</g>
<!-- Node16&#45;&gt;Node26 -->
<g id="edge25" class="edge">
<title>Node16&#45;&gt;Node26</title>
<path fill="none" stroke="midnightblue" d="M3439.14,-152.86C3203.44,-149.64 2657.56,-137.91 2584,-98 2556.67,-83.17 2538.45,-49.89 2529.81,-30.76"/>
<polygon fill="midnightblue" stroke="midnightblue" points="3439.4,-156.37 3449.44,-153 3439.49,-149.37 3439.4,-156.37"/>
</g>
<!-- Node27 -->
<g id="node23" class="node">
<title>Node27</title>
<g id="a_node23"><a xlink:href="../../d9/d15/vabstractpiece_8cpp.html" target="_top" xlink:title=" ">
<polygon fill="white" stroke="black" points="2593,-73 2593,-92 2779,-92 2779,-73 2593,-73"/>
<text text-anchor="middle" x="2686" y="-80" font-family="Helvetica,sans-Serif" font-size="10.00">src/libs/vlayout/vabstractpiece.cpp</text>
</a>
</g>
</g>
<!-- Node16&#45;&gt;Node27 -->
<g id="edge26" class="edge">
<title>Node16&#45;&gt;Node27</title>
<path fill="none" stroke="midnightblue" d="M3438.92,-148.39C3291.36,-140.19 3018.69,-123.14 2787,-98 2771.85,-96.36 2755.49,-94.18 2740.43,-92.02"/>
<polygon fill="midnightblue" stroke="midnightblue" points="3439.15,-151.91 3449.33,-148.97 3439.54,-144.92 3439.15,-151.91"/>
</g>
<!-- Node28 -->
<g id="node24" class="node">
<title>Node28</title>
<g id="a_node24"><a xlink:href="../../d1/d76/vspline__p_8h.html" target="_top" xlink:title=" ">
<polygon fill="white" stroke="red" points="2796.5,-67.5 2796.5,-97.5 2903.5,-97.5 2903.5,-67.5 2796.5,-67.5"/>
<text text-anchor="start" x="2804.5" y="-85.5" font-family="Helvetica,sans-Serif" font-size="10.00">src/libs/vgeometry</text>
<text text-anchor="middle" x="2850" y="-74.5" font-family="Helvetica,sans-Serif" font-size="10.00">/vspline_p.h</text>
</a>
</g>
</g>
<!-- Node16&#45;&gt;Node28 -->
<g id="edge27" class="edge">
<title>Node16&#45;&gt;Node28</title>
<path fill="none" stroke="midnightblue" d="M3439.28,-149.16C3312.5,-142.39 3095.93,-127.47 2912,-98 2909.27,-97.56 2906.48,-97.07 2903.68,-96.54"/>
<polygon fill="midnightblue" stroke="midnightblue" points="3439.21,-152.66 3449.38,-149.69 3439.58,-145.67 3439.21,-152.66"/>
</g>
<!-- Node30 -->
<g id="node25" class="node">
<title>Node30</title>
<g id="a_node25"><a xlink:href="../../db/d65/dialogexporttocsv_8cpp.html" target="_top" xlink:title=" ">
<polygon fill="white" stroke="black" points="2921.5,-67.5 2921.5,-97.5 3048.5,-97.5 3048.5,-67.5 2921.5,-67.5"/>
<text text-anchor="start" x="2929.5" y="-85.5" font-family="Helvetica,sans-Serif" font-size="10.00">src/libs/vmisc/dialogs</text>
<text text-anchor="middle" x="2985" y="-74.5" font-family="Helvetica,sans-Serif" font-size="10.00">/dialogexporttocsv.cpp</text>
</a>
</g>
</g>
<!-- Node16&#45;&gt;Node30 -->
<g id="edge29" class="edge">
<title>Node16&#45;&gt;Node30</title>
<path fill="none" stroke="midnightblue" d="M3442.46,-144.53C3343.22,-134.96 3190.02,-118.64 3058,-98 3054.94,-97.52 3051.81,-97 3048.65,-96.46"/>
<polygon fill="midnightblue" stroke="midnightblue" points="3442.2,-148.03 3452.49,-145.5 3442.87,-141.06 3442.2,-148.03"/>
</g>
<!-- Node31 -->
<g id="node26" class="node">
<title>Node31</title>
<g id="a_node26"><a xlink:href="../../d6/d0b/def_8cpp.html" target="_top" xlink:title=" ">
<polygon fill="white" stroke="black" points="3067,-73 3067,-92 3189,-92 3189,-73 3067,-73"/>
<text text-anchor="middle" x="3128" y="-80" font-family="Helvetica,sans-Serif" font-size="10.00">src/libs/vmisc/def.cpp</text>
</a>
</g>
</g>
<!-- Node16&#45;&gt;Node31 -->
<g id="edge30" class="edge">
<title>Node16&#45;&gt;Node31</title>
<path fill="none" stroke="midnightblue" d="M3478.73,-143.98C3408.27,-133.42 3295.22,-115.86 3198,-98 3188.11,-96.18 3177.47,-94.07 3167.55,-92.02"/>
<polygon fill="midnightblue" stroke="midnightblue" points="3478.41,-147.47 3488.82,-145.49 3479.44,-140.55 3478.41,-147.47"/>
</g>
<!-- Node32 -->
<g id="node27" class="node">
<title>Node32</title>
<g id="a_node27"><a xlink:href="../../d0/df6/vabstractapplication_8cpp.html" target="_top" xlink:title=" ">
<polygon fill="white" stroke="black" points="3207,-73 3207,-92 3413,-92 3413,-73 3207,-73"/>
<text text-anchor="middle" x="3310" y="-80" font-family="Helvetica,sans-Serif" font-size="10.00">src/libs/vmisc/vabstractapplication.cpp</text>
</a>
</g>
</g>
<!-- Node16&#45;&gt;Node32 -->
<g id="edge32" class="edge">
<title>Node16&#45;&gt;Node32</title>
<path fill="none" stroke="midnightblue" d="M3508.79,-142.63C3461.29,-128.5 3381.28,-104.7 3338.69,-92.03"/>
<polygon fill="midnightblue" stroke="midnightblue" points="3507.83,-146 3518.41,-145.5 3509.83,-139.29 3507.83,-146"/>
</g>
<!-- Node33 -->
<g id="node28" class="node">
<title>Node33</title>
<g id="a_node28"><a xlink:href="../../d4/d4f/pmsystems_8cpp.html" target="_top" xlink:title=" ">
<polygon fill="white" stroke="black" points="3431.5,-67.5 3431.5,-97.5 3538.5,-97.5 3538.5,-67.5 3431.5,-67.5"/>
<text text-anchor="start" x="3439.5" y="-85.5" font-family="Helvetica,sans-Serif" font-size="10.00">src/libs/vpatterndb</text>
<text text-anchor="middle" x="3485" y="-74.5" font-family="Helvetica,sans-Serif" font-size="10.00">/pmsystems.cpp</text>
</a>
</g>
</g>
<!-- Node16&#45;&gt;Node33 -->
<g id="edge33" class="edge">
<title>Node16&#45;&gt;Node33</title>
<path fill="none" stroke="midnightblue" d="M3532.7,-137.74C3522.02,-125.6 3507.57,-109.16 3497.38,-97.58"/>
<polygon fill="midnightblue" stroke="midnightblue" points="3530.17,-140.16 3539.4,-145.36 3535.42,-135.53 3530.17,-140.16"/>
</g>
<!-- Node16&#45;&gt;Node34 -->
<g id="edge34" class="edge">
<title>Node16&#45;&gt;Node34</title>
<path fill="none" stroke="midnightblue" d="M3654.89,-153.7C4009.06,-152.28 5134.04,-144.14 5494,-98 5497.01,-97.61 5500.08,-97.15 5503.17,-96.63"/>
<polygon fill="midnightblue" stroke="midnightblue" points="3654.62,-150.2 3644.64,-153.74 3654.65,-157.2 3654.62,-150.2"/>
</g>
<!-- Node16&#45;&gt;Node35 -->
<g id="edge35" class="edge">
<title>Node16&#45;&gt;Node35</title>
<path fill="none" stroke="midnightblue" d="M3654.83,-153.92C4023.69,-153.2 5233.51,-147.07 5619,-98 5622.01,-97.62 5625.08,-97.15 5628.17,-96.63"/>
<polygon fill="midnightblue" stroke="midnightblue" points="3654.68,-150.42 3644.69,-153.94 3654.69,-157.42 3654.68,-150.42"/>
</g>
<!-- Node16&#45;&gt;Node36 -->
<g id="edge36" class="edge">
<title>Node16&#45;&gt;Node36</title>
<path fill="none" stroke="midnightblue" d="M3655.06,-154.11C4038.54,-154.07 5333.02,-150 5744,-98 5747.01,-97.62 5750.08,-97.16 5753.17,-96.64"/>
<polygon fill="midnightblue" stroke="midnightblue" points="3654.81,-150.61 3644.81,-154.12 3654.81,-157.61 3654.81,-150.61"/>
</g>
<!-- Node37 -->
<g id="node32" class="node">
<title>Node37</title>
<g id="a_node32"><a xlink:href="../../df/dba/vpiecenode__p_8h.html" target="_top" xlink:title=" ">
<polygon fill="white" stroke="black" points="3556.5,-67.5 3556.5,-97.5 3663.5,-97.5 3663.5,-67.5 3556.5,-67.5"/>
<text text-anchor="start" x="3564.5" y="-85.5" font-family="Helvetica,sans-Serif" font-size="10.00">src/libs/vpatterndb</text>
<text text-anchor="middle" x="3610" y="-74.5" font-family="Helvetica,sans-Serif" font-size="10.00">/vpiecenode_p.h</text>
</a>
</g>
</g>
<!-- Node16&#45;&gt;Node37 -->
<g id="edge37" class="edge">
<title>Node16&#45;&gt;Node37</title>
<path fill="none" stroke="midnightblue" d="M3561.53,-137.74C3572.38,-125.6 3587.07,-109.16 3597.42,-97.58"/>
<polygon fill="midnightblue" stroke="midnightblue" points="3558.78,-135.57 3554.73,-145.36 3564,-140.23 3558.78,-135.57"/>
</g>
<!-- Node39 -->
<g id="node34" class="node">
<title>Node39</title>
<g id="a_node34"><a xlink:href="../../de/d3e/vtranslatevars_8cpp.html" target="_top" xlink:title=" ">
<polygon fill="white" stroke="black" points="3682,-67.5 3682,-97.5 3792,-97.5 3792,-67.5 3682,-67.5"/>
<text text-anchor="start" x="3690" y="-85.5" font-family="Helvetica,sans-Serif" font-size="10.00">src/libs/vpatterndb</text>
<text text-anchor="middle" x="3737" y="-74.5" font-family="Helvetica,sans-Serif" font-size="10.00">/vtranslatevars.cpp</text>
</a>
</g>
</g>
<!-- Node16&#45;&gt;Node39 -->
<g id="edge39" class="edge">
<title>Node16&#45;&gt;Node39</title>
<path fill="none" stroke="midnightblue" d="M3579.6,-141.9C3612.82,-129.58 3664.29,-110.48 3699.25,-97.51"/>
<polygon fill="midnightblue" stroke="midnightblue" points="3578.08,-138.74 3569.92,-145.5 3580.51,-145.3 3578.08,-138.74"/>
</g>
<!-- Node40 -->
<g id="node35" class="node">
<title>Node40</title>
<g id="a_node35"><a xlink:href="../../df/d40/export__format__combobox_8cpp.html" target="_top" xlink:title=" ">
<polygon fill="white" stroke="black" points="3810.5,-67.5 3810.5,-97.5 3943.5,-97.5 3943.5,-67.5 3810.5,-67.5"/>
<text text-anchor="start" x="3818.5" y="-85.5" font-family="Helvetica,sans-Serif" font-size="10.00">src/libs/vwidgets/export</text>
<text text-anchor="middle" x="3877" y="-74.5" font-family="Helvetica,sans-Serif" font-size="10.00">_format_combobox.cpp</text>
</a>
</g>
</g>
<!-- Node16&#45;&gt;Node40 -->
<g id="edge40" class="edge">
<title>Node16&#45;&gt;Node40</title>
<path fill="none" stroke="midnightblue" d="M3596.7,-143.38C3653.95,-131.15 3748.23,-111.01 3811.44,-97.51"/>
<polygon fill="midnightblue" stroke="midnightblue" points="3595.85,-139.98 3586.81,-145.5 3597.32,-146.83 3595.85,-139.98"/>
</g>
<!-- Node41 -->
<g id="node36" class="node">
<title>Node41</title>
<g id="a_node36"><a xlink:href="../../d3/d4f/mouse__coordinates_8cpp.html" target="_top" xlink:title=" ">
<polygon fill="white" stroke="black" points="3962,-67.5 3962,-97.5 4096,-97.5 4096,-67.5 3962,-67.5"/>
<text text-anchor="start" x="3970" y="-85.5" font-family="Helvetica,sans-Serif" font-size="10.00">src/libs/vwidgets/mouse</text>
<text text-anchor="middle" x="4029" y="-74.5" font-family="Helvetica,sans-Serif" font-size="10.00">_coordinates.cpp</text>
</a>
</g>
</g>
<!-- Node16&#45;&gt;Node41 -->
<g id="edge41" class="edge">
<title>Node16&#45;&gt;Node41</title>
<path fill="none" stroke="midnightblue" d="M3626.28,-144.2C3708.05,-133.82 3839.19,-116.41 3952,-98 3955.22,-97.47 3958.52,-96.92 3961.84,-96.35"/>
<polygon fill="midnightblue" stroke="midnightblue" points="3625.79,-140.73 3616.31,-145.46 3626.67,-147.68 3625.79,-140.73"/>
</g>
<!-- Node42 -->
<g id="node37" class="node">
<title>Node42</title>
<g id="a_node37"><a xlink:href="../../d2/d28/page__format__combobox_8cpp.html" target="_top" xlink:title=" ">
<polygon fill="white" stroke="black" points="4114.5,-67.5 4114.5,-97.5 4245.5,-97.5 4245.5,-67.5 4114.5,-67.5"/>
<text text-anchor="start" x="4122.5" y="-85.5" font-family="Helvetica,sans-Serif" font-size="10.00">src/libs/vwidgets/page</text>
<text text-anchor="middle" x="4180" y="-74.5" font-family="Helvetica,sans-Serif" font-size="10.00">_format_combobox.cpp</text>
</a>
</g>
</g>
<!-- Node16&#45;&gt;Node42 -->
<g id="edge42" class="edge">
<title>Node16&#45;&gt;Node42</title>
<path fill="none" stroke="midnightblue" d="M3654.61,-146.12C3767.25,-137.19 3949.07,-120.85 4105,-98 4108.02,-97.56 4111.1,-97.08 4114.21,-96.57"/>
<polygon fill="midnightblue" stroke="midnightblue" points="3654.3,-142.63 3644.6,-146.91 3654.85,-149.61 3654.3,-142.63"/>
</g>
<!-- Node43 -->
<g id="node38" class="node">
<title>Node43</title>
<g id="a_node38"><a xlink:href="../../d7/d1b/pen__toolbar_8cpp.html" target="_top" xlink:title=" ">
<polygon fill="white" stroke="black" points="4263.5,-67.5 4263.5,-97.5 4382.5,-97.5 4382.5,-67.5 4263.5,-67.5"/>
<text text-anchor="start" x="4271.5" y="-85.5" font-family="Helvetica,sans-Serif" font-size="10.00">src/libs/vwidgets/pen</text>
<text text-anchor="middle" x="4323" y="-74.5" font-family="Helvetica,sans-Serif" font-size="10.00">_toolbar.cpp</text>
</a>
</g>
</g>
<!-- Node16&#45;&gt;Node43 -->
<g id="edge43" class="edge">
<title>Node16&#45;&gt;Node43</title>
<path fill="none" stroke="midnightblue" d="M3654.88,-149.75C3793.94,-143.3 4042.96,-128.4 4254,-98 4257.03,-97.56 4260.12,-97.07 4263.24,-96.55"/>
<polygon fill="midnightblue" stroke="midnightblue" points="3654.47,-146.27 3644.64,-150.22 3654.79,-153.26 3654.47,-146.27"/>
</g>
<!-- Node44 -->
<g id="node39" class="node">
<title>Node44</title>
<g id="a_node39"><a xlink:href="../../d8/d76/scene__rect_8cpp.html" target="_top" xlink:title=" ">
<polygon fill="white" stroke="black" points="4401,-67.5 4401,-97.5 4531,-97.5 4531,-67.5 4401,-67.5"/>
<text text-anchor="start" x="4409" y="-85.5" font-family="Helvetica,sans-Serif" font-size="10.00">src/libs/vwidgets/scene</text>
<text text-anchor="middle" x="4466" y="-74.5" font-family="Helvetica,sans-Serif" font-size="10.00">_rect.cpp</text>
</a>
</g>
</g>
<!-- Node16&#45;&gt;Node44 -->
<g id="edge44" class="edge">
<title>Node16&#45;&gt;Node44</title>
<path fill="none" stroke="midnightblue" d="M3654.91,-151.15C3815.82,-145.92 4127.89,-132.03 4391,-98 4394.16,-97.59 4397.38,-97.13 4400.63,-96.64"/>
<polygon fill="midnightblue" stroke="midnightblue" points="3654.42,-147.66 3644.53,-151.48 3654.64,-154.66 3654.42,-147.66"/>
</g>
<!-- Node45 -->
<g id="node40" class="node">
<title>Node45</title>
<g id="a_node40"><a xlink:href="../../dd/df6/vabstractmainwindow_8cpp.html" target="_top" xlink:title=" ">
<polygon fill="white" stroke="black" points="4549.5,-73 4549.5,-92 4778.5,-92 4778.5,-73 4549.5,-73"/>
<text text-anchor="middle" x="4664" y="-80" font-family="Helvetica,sans-Serif" font-size="10.00">src/libs/vwidgets/vabstractmainwindow.cpp</text>
</a>
</g>
</g>
<!-- Node16&#45;&gt;Node45 -->
<g id="edge45" class="edge">
<title>Node16&#45;&gt;Node45</title>
<path fill="none" stroke="midnightblue" d="M3654.88,-150.04C3837.38,-142.87 4218.58,-125.83 4540,-98 4558.68,-96.38 4578.89,-94.2 4597.47,-92.03"/>
<polygon fill="midnightblue" stroke="midnightblue" points="3654.6,-146.55 3644.74,-150.44 3654.87,-153.54 3654.6,-146.55"/>
</g>
<!-- Node46 -->
<g id="node41" class="node">
<title>Node46</title>
<g id="a_node41"><a xlink:href="../../de/d45/vcontrolpointspline_8cpp.html" target="_top" xlink:title=" ">
<polygon fill="white" stroke="black" points="4796.5,-73 4796.5,-92 5011.5,-92 5011.5,-73 4796.5,-73"/>
<text text-anchor="middle" x="4904" y="-80" font-family="Helvetica,sans-Serif" font-size="10.00">src/libs/vwidgets/vcontrolpointspline.cpp</text>
</a>
</g>
</g>
<!-- Node16&#45;&gt;Node46 -->
<g id="edge46" class="edge">
<title>Node16&#45;&gt;Node46</title>
<path fill="none" stroke="midnightblue" d="M3654.87,-151.96C3870.36,-147.27 4369.26,-133.26 4787,-98 4805.15,-96.47 4824.82,-94.25 4842.76,-92"/>
<polygon fill="midnightblue" stroke="midnightblue" points="3654.75,-148.47 3644.83,-152.18 3654.9,-155.46 3654.75,-148.47"/>
</g>
<!-- Node47 -->
<g id="node42" class="node">
<title>Node47</title>
<g id="a_node42"><a xlink:href="../../d1/d90/vgrainlineitem_8cpp.html" target="_top" xlink:title=" ">
<polygon fill="white" stroke="black" points="5029.5,-73 5029.5,-92 5222.5,-92 5222.5,-73 5029.5,-73"/>
<text text-anchor="middle" x="5126" y="-80" font-family="Helvetica,sans-Serif" font-size="10.00">src/libs/vwidgets/vgrainlineitem.cpp</text>
</a>
</g>
</g>
<!-- Node16&#45;&gt;Node47 -->
<g id="edge47" class="edge">
<title>Node16&#45;&gt;Node47</title>
<path fill="none" stroke="midnightblue" d="M3654.86,-153.51C3898.61,-151.62 4510.42,-142.43 5020,-98 5036.75,-96.54 5054.9,-94.3 5071.37,-92.01"/>
<polygon fill="midnightblue" stroke="midnightblue" points="3654.56,-150.01 3644.59,-153.59 3654.62,-157.01 3654.56,-150.01"/>
</g>
<!-- Node48 -->
<g id="node43" class="node">
<title>Node48</title>
<g id="a_node43"><a xlink:href="../../de/dec/vgraphicssimpletextitem_8cpp.html" target="_top" xlink:title=" ">
<polygon fill="white" stroke="black" points="5241,-73 5241,-92 5485,-92 5485,-73 5241,-73"/>
<text text-anchor="middle" x="5363" y="-80" font-family="Helvetica,sans-Serif" font-size="10.00">src/libs/vwidgets/vgraphicssimpletextitem.cpp</text>
</a>
</g>
</g>
<!-- Node16&#45;&gt;Node48 -->
<g id="edge48" class="edge">
<title>Node16&#45;&gt;Node48</title>
<path fill="none" stroke="midnightblue" d="M3654.99,-153.26C3922.42,-150.8 4636.85,-140.45 5231,-98 5251.7,-96.52 5274.16,-94.29 5294.58,-92.02"/>
<polygon fill="midnightblue" stroke="midnightblue" points="3654.86,-149.76 3644.89,-153.35 3654.93,-156.76 3654.86,-149.76"/>
</g>
<!-- Node25&#45;&gt;Node26 -->
<g id="edge24" class="edge">
<title>Node25&#45;&gt;Node26</title>
<path fill="none" stroke="midnightblue" d="M2497.28,-58.87C2503.21,-49.46 2509.91,-38.83 2515.12,-30.58"/>
<polygon fill="midnightblue" stroke="midnightblue" points="2494.27,-57.07 2491.9,-67.4 2500.19,-60.81 2494.27,-57.07"/>
</g>
<!-- Node37&#45;&gt;Node38 -->
<g id="edge38" class="edge">
<title>Node37&#45;&gt;Node38</title>
<path fill="none" stroke="midnightblue" d="M3673.99,-67.09C3893.57,-38.86 4509.6,-22.25 4695.36,-17.74"/>
<polygon fill="midnightblue" stroke="midnightblue" points="3673.29,-63.65 3663.84,-68.44 3674.21,-70.59 3673.29,-63.65"/>
</g>
<!-- Node63&#45;&gt;Node36 -->
<g id="edge61" class="edge">
<title>Node63&#45;&gt;Node36</title>
<path fill="none" stroke="midnightblue" d="M6595.65,-202.41C6599.03,-181.31 6599.74,-151.36 6582,-134 6530.66,-83.74 6027.66,-82.16 5860.61,-83.05"/>
<polygon fill="midnightblue" stroke="midnightblue" points="6592.21,-201.77 6593.79,-212.25 6599.09,-203.08 6592.21,-201.77"/>
</g>
</g>
</svg>
