<?xml version="1.0" encoding="UTF-8" standalone="no"?>
<!DOCTYPE svg PUBLIC "-//W3C//DTD SVG 1.1//EN"
 "http://www.w3.org/Graphics/SVG/1.1/DTD/svg11.dtd">
<!-- Generated by graphviz version 2.43.0 (0)
 -->
<!-- Title: src/libs/vpatterndb/vpiecepath.h Pages: 1 -->
<svg width="6005pt" height="307pt"
 viewBox="0.00 0.00 6005.00 307.00" xmlns="http://www.w3.org/2000/svg" xmlns:xlink="http://www.w3.org/1999/xlink">
<g id="graph0" class="graph" transform="scale(1 1) rotate(0) translate(4 303)">
<title>src/libs/vpatterndb/vpiecepath.h</title>
<polygon fill="white" stroke="transparent" points="-4,4 -4,-303 6001,-303 6001,4 -4,4"/>
<!-- Node1 -->
<g id="node1" class="node">
<title>Node1</title>
<g id="a_node1"><a xlink:title=" ">
<polygon fill="#bfbfbf" stroke="black" points="2619.5,-268.5 2619.5,-298.5 2726.5,-298.5 2726.5,-268.5 2619.5,-268.5"/>
<text text-anchor="start" x="2627.5" y="-286.5" font-family="Helvetica,sans-Serif" font-size="10.00">src/libs/vpatterndb</text>
<text text-anchor="middle" x="2673" y="-275.5" font-family="Helvetica,sans-Serif" font-size="10.00">/vpiecepath.h</text>
</a>
</g>
</g>
<!-- Node2 -->
<g id="node2" class="node">
<title>Node2</title>
<g id="a_node2"><a xlink:href="../../d6/d91/vnodedetail_8cpp.html" target="_top" xlink:title=" ">
<polygon fill="white" stroke="black" points="1771.5,-134.5 1771.5,-164.5 1878.5,-164.5 1878.5,-134.5 1771.5,-134.5"/>
<text text-anchor="start" x="1779.5" y="-152.5" font-family="Helvetica,sans-Serif" font-size="10.00">src/libs/vpatterndb</text>
<text text-anchor="middle" x="1825" y="-141.5" font-family="Helvetica,sans-Serif" font-size="10.00">/vnodedetail.cpp</text>
</a>
</g>
</g>
<!-- Node1&#45;&gt;Node2 -->
<g id="edge1" class="edge">
<title>Node1&#45;&gt;Node2</title>
<path fill="none" stroke="midnightblue" d="M2609.27,-274.76C2475.09,-258.07 2153.79,-216.05 1887,-165 1884.29,-164.48 1881.51,-163.92 1878.71,-163.34"/>
<polygon fill="midnightblue" stroke="midnightblue" points="2609.02,-278.26 2619.38,-276.01 2609.88,-271.31 2609.02,-278.26"/>
</g>
<!-- Node3 -->
<g id="node3" class="node">
<title>Node3</title>
<g id="a_node3"><a xlink:href="../../d8/da5/vpiece__p_8h.html" target="_top" xlink:title=" ">
<polygon fill="white" stroke="black" points="3656.5,-201.5 3656.5,-231.5 3763.5,-231.5 3763.5,-201.5 3656.5,-201.5"/>
<text text-anchor="start" x="3664.5" y="-219.5" font-family="Helvetica,sans-Serif" font-size="10.00">src/libs/vpatterndb</text>
<text text-anchor="middle" x="3710" y="-208.5" font-family="Helvetica,sans-Serif" font-size="10.00">/vpiece_p.h</text>
</a>
</g>
</g>
<!-- Node1&#45;&gt;Node3 -->
<g id="edge2" class="edge">
<title>Node1&#45;&gt;Node3</title>
<path fill="none" stroke="midnightblue" d="M2736.62,-278.51C2925.59,-266.67 3481.23,-231.84 3656.44,-220.86"/>
<polygon fill="midnightblue" stroke="midnightblue" points="2736.33,-275.02 2726.57,-279.14 2736.77,-282.01 2736.33,-275.02"/>
</g>
<!-- Node5 -->
<g id="node5" class="node">
<title>Node5</title>
<g id="a_node5"><a xlink:href="../../d3/df7/vcontainer_8h.html" target="_top" xlink:title=" ">
<polygon fill="white" stroke="black" points="2557.5,-201.5 2557.5,-231.5 2664.5,-231.5 2664.5,-201.5 2557.5,-201.5"/>
<text text-anchor="start" x="2565.5" y="-219.5" font-family="Helvetica,sans-Serif" font-size="10.00">src/libs/vpatterndb</text>
<text text-anchor="middle" x="2611" y="-208.5" font-family="Helvetica,sans-Serif" font-size="10.00">/vcontainer.h</text>
</a>
</g>
</g>
<!-- Node1&#45;&gt;Node5 -->
<g id="edge4" class="edge">
<title>Node1&#45;&gt;Node5</title>
<path fill="none" stroke="midnightblue" d="M2652.52,-261.02C2643.28,-251.34 2632.63,-240.17 2624.43,-231.58"/>
<polygon fill="midnightblue" stroke="midnightblue" points="2650.11,-263.58 2659.55,-268.4 2655.18,-258.74 2650.11,-263.58"/>
</g>
<!-- Node60 -->
<g id="node48" class="node">
<title>Node60</title>
<g id="a_node48"><a xlink:href="../../da/de1/vpiecepath_8cpp.html" target="_top" xlink:title=" ">
<polygon fill="white" stroke="black" points="5175.5,-134.5 5175.5,-164.5 5282.5,-164.5 5282.5,-134.5 5175.5,-134.5"/>
<text text-anchor="start" x="5183.5" y="-152.5" font-family="Helvetica,sans-Serif" font-size="10.00">src/libs/vpatterndb</text>
<text text-anchor="middle" x="5229" y="-141.5" font-family="Helvetica,sans-Serif" font-size="10.00">/vpiecepath.cpp</text>
</a>
</g>
</g>
<!-- Node1&#45;&gt;Node60 -->
<g id="edge62" class="edge">
<title>Node1&#45;&gt;Node60</title>
<path fill="none" stroke="midnightblue" d="M2736.96,-279.61C2906.01,-271.95 3378.62,-250.49 3772,-232 4391.59,-202.88 4551.55,-249.79 5166,-165 5169,-164.59 5172.07,-164.1 5175.16,-163.56"/>
<polygon fill="midnightblue" stroke="midnightblue" points="2736.58,-276.12 2726.75,-280.07 2736.9,-283.11 2736.58,-276.12"/>
</g>
<!-- Node4 -->
<g id="node4" class="node">
<title>Node4</title>
<g id="a_node4"><a xlink:href="../../df/d7a/vpiece_8cpp.html" target="_top" xlink:title=" ">
<polygon fill="white" stroke="black" points="4569.5,-67.5 4569.5,-97.5 4676.5,-97.5 4676.5,-67.5 4569.5,-67.5"/>
<text text-anchor="start" x="4577.5" y="-85.5" font-family="Helvetica,sans-Serif" font-size="10.00">src/libs/vpatterndb</text>
<text text-anchor="middle" x="4623" y="-74.5" font-family="Helvetica,sans-Serif" font-size="10.00">/vpiece.cpp</text>
</a>
</g>
</g>
<!-- Node3&#45;&gt;Node4 -->
<g id="edge3" class="edge">
<title>Node3&#45;&gt;Node4</title>
<path fill="none" stroke="midnightblue" d="M3774.25,-208.59C3916.47,-192.88 4268.4,-151.6 4560,-98 4563.09,-97.43 4566.26,-96.81 4569.45,-96.17"/>
<polygon fill="midnightblue" stroke="midnightblue" points="3773.52,-205.15 3763.97,-209.73 3774.29,-212.11 3773.52,-205.15"/>
</g>
<!-- Node5&#45;&gt;Node2 -->
<g id="edge56" class="edge">
<title>Node5&#45;&gt;Node2</title>
<path fill="none" stroke="midnightblue" d="M2546.79,-214.47C2419.99,-211.66 2128.76,-201.46 1887,-165 1884.27,-164.59 1881.48,-164.12 1878.67,-163.61"/>
<polygon fill="midnightblue" stroke="midnightblue" points="2547.02,-217.97 2557.09,-214.68 2547.17,-210.97 2547.02,-217.97"/>
</g>
<!-- Node5&#45;&gt;Node4 -->
<g id="edge57" class="edge">
<title>Node5&#45;&gt;Node4</title>
<path fill="none" stroke="midnightblue" d="M2674.93,-206.81C2716.6,-199.47 2771.34,-186.6 2816,-165 2836.25,-155.21 2834.8,-141.51 2856,-134 3034.52,-70.81 4372.07,-121.36 4560,-98 4563.01,-97.63 4566.08,-97.17 4569.17,-96.65"/>
<polygon fill="midnightblue" stroke="midnightblue" points="2674.17,-203.39 2664.9,-208.52 2675.34,-210.29 2674.17,-203.39"/>
</g>
<!-- Node6 -->
<g id="node6" class="node">
<title>Node6</title>
<g id="a_node6"><a xlink:href="../../d4/dd6/vmeasurements_8h.html" target="_top" xlink:title=" ">
<polygon fill="white" stroke="black" points="2222.5,-140 2222.5,-159 2407.5,-159 2407.5,-140 2222.5,-140"/>
<text text-anchor="middle" x="2315" y="-147" font-family="Helvetica,sans-Serif" font-size="10.00">src/libs/vformat/vmeasurements.h</text>
</a>
</g>
</g>
<!-- Node5&#45;&gt;Node6 -->
<g id="edge5" class="edge">
<title>Node5&#45;&gt;Node6</title>
<path fill="none" stroke="midnightblue" d="M2547.48,-201.55C2488.75,-188.65 2403.32,-169.9 2354.04,-159.07"/>
<polygon fill="midnightblue" stroke="midnightblue" points="2546.88,-205 2557.4,-203.73 2548.38,-198.17 2546.88,-205"/>
</g>
<!-- Node7 -->
<g id="node7" class="node">
<title>Node7</title>
<g id="a_node7"><a xlink:href="../../de/db3/vmeasurements_8cpp.html" target="_top" xlink:title=" ">
<polygon fill="white" stroke="black" points="0,-73 0,-92 196,-92 196,-73 0,-73"/>
<text text-anchor="middle" x="98" y="-80" font-family="Helvetica,sans-Serif" font-size="10.00">src/libs/vformat/vmeasurements.cpp</text>
</a>
</g>
</g>
<!-- Node5&#45;&gt;Node7 -->
<g id="edge7" class="edge">
<title>Node5&#45;&gt;Node7</title>
<path fill="none" stroke="midnightblue" d="M2547.67,-199.16C2519.7,-190.76 2486.9,-179.27 2459,-165 2438.02,-154.27 2438.36,-141.42 2416,-134 2299.67,-95.39 332.25,-106.88 210,-98 191.72,-96.67 171.85,-94.38 153.99,-92"/>
<polygon fill="midnightblue" stroke="midnightblue" points="2546.77,-202.54 2557.35,-202 2548.74,-195.82 2546.77,-202.54"/>
</g>
<!-- Node8 -->
<g id="node8" class="node">
<title>Node8</title>
<g id="a_node8"><a xlink:href="../../d8/d70/vtextmanager_8cpp.html" target="_top" xlink:title=" ">
<polygon fill="white" stroke="black" points="378,-73 378,-92 560,-92 560,-73 378,-73"/>
<text text-anchor="middle" x="469" y="-80" font-family="Helvetica,sans-Serif" font-size="10.00">src/libs/vlayout/vtextmanager.cpp</text>
</a>
</g>
</g>
<!-- Node5&#45;&gt;Node8 -->
<g id="edge8" class="edge">
<title>Node5&#45;&gt;Node8</title>
<path fill="none" stroke="midnightblue" d="M2591.66,-193.91C2571.47,-171.99 2540.6,-140.38 2525,-134 2424.41,-92.83 677.33,-106.82 569,-98 552.65,-96.67 534.91,-94.38 518.96,-92"/>
<polygon fill="midnightblue" stroke="midnightblue" points="2589.25,-196.46 2598.57,-201.49 2594.42,-191.74 2589.25,-196.46"/>
</g>
<!-- Node9 -->
<g id="node9" class="node">
<title>Node9</title>
<g id="a_node9"><a xlink:href="../../d6/de0/vlayoutpiece_8h.html" target="_top" xlink:title=" ">
<polygon fill="white" stroke="black" points="4991,-140 4991,-159 5157,-159 5157,-140 4991,-140"/>
<text text-anchor="middle" x="5074" y="-147" font-family="Helvetica,sans-Serif" font-size="10.00">src/libs/vlayout/vlayoutpiece.h</text>
</a>
</g>
</g>
<!-- Node5&#45;&gt;Node9 -->
<g id="edge9" class="edge">
<title>Node5&#45;&gt;Node9</title>
<path fill="none" stroke="midnightblue" d="M2674.88,-213.81C3014.53,-204.85 4607.38,-162.81 4990.82,-152.7"/>
<polygon fill="midnightblue" stroke="midnightblue" points="2674.64,-210.32 2664.73,-214.08 2674.82,-217.32 2674.64,-210.32"/>
</g>
<!-- Node19 -->
<g id="node18" class="node">
<title>Node19</title>
<g id="a_node18"><a xlink:href="../../d5/d74/vabstractapplication_8h.html" target="_top" xlink:title=" ">
<polygon fill="white" stroke="red" points="2576.5,-140 2576.5,-159 2771.5,-159 2771.5,-140 2576.5,-140"/>
<text text-anchor="middle" x="2674" y="-147" font-family="Helvetica,sans-Serif" font-size="10.00">src/libs/vmisc/vabstractapplication.h</text>
</a>
</g>
</g>
<!-- Node5&#45;&gt;Node19 -->
<g id="edge20" class="edge">
<title>Node5&#45;&gt;Node19</title>
<path fill="none" stroke="midnightblue" d="M2631.84,-194C2643.34,-182.13 2656.99,-168.05 2665.57,-159.19"/>
<polygon fill="midnightblue" stroke="midnightblue" points="2629.12,-191.78 2624.67,-201.4 2634.14,-196.65 2629.12,-191.78"/>
</g>
<!-- Node37 -->
<g id="node32" class="node">
<title>Node37</title>
<g id="a_node32"><a xlink:href="../../db/d11/vformula_8cpp.html" target="_top" xlink:title=" ">
<polygon fill="white" stroke="black" points="4444.5,-67.5 4444.5,-97.5 4551.5,-97.5 4551.5,-67.5 4444.5,-67.5"/>
<text text-anchor="start" x="4452.5" y="-85.5" font-family="Helvetica,sans-Serif" font-size="10.00">src/libs/vpatterndb</text>
<text text-anchor="middle" x="4498" y="-74.5" font-family="Helvetica,sans-Serif" font-size="10.00">/vformula.cpp</text>
</a>
</g>
</g>
<!-- Node5&#45;&gt;Node37 -->
<g id="edge54" class="edge">
<title>Node5&#45;&gt;Node37</title>
<path fill="none" stroke="midnightblue" d="M2674.7,-201.83C2707.19,-193.54 2746.76,-181.36 2780,-165 2801.14,-154.59 2800.66,-141.49 2823,-134 2992.86,-77.05 4257.23,-120.21 4435,-98 4438.01,-97.62 4441.08,-97.17 4444.17,-96.65"/>
<polygon fill="midnightblue" stroke="midnightblue" points="2673.72,-198.47 2664.86,-204.28 2675.41,-205.26 2673.72,-198.47"/>
</g>
<!-- Node38 -->
<g id="node33" class="node">
<title>Node38</title>
<g id="a_node33"><a xlink:href="../../d6/d46/vcontainer_8cpp.html" target="_top" xlink:title=" ">
<polygon fill="white" stroke="black" points="252.5,-67.5 252.5,-97.5 359.5,-97.5 359.5,-67.5 252.5,-67.5"/>
<text text-anchor="start" x="260.5" y="-85.5" font-family="Helvetica,sans-Serif" font-size="10.00">src/libs/vpatterndb</text>
<text text-anchor="middle" x="306" y="-74.5" font-family="Helvetica,sans-Serif" font-size="10.00">/vcontainer.cpp</text>
</a>
</g>
</g>
<!-- Node5&#45;&gt;Node38 -->
<g id="edge55" class="edge">
<title>Node5&#45;&gt;Node38</title>
<path fill="none" stroke="midnightblue" d="M2575.8,-196.45C2559.93,-187.45 2541.16,-176.24 2525,-165 2507.11,-152.56 2507.47,-141.49 2487,-134 2376.48,-93.58 485.81,-112.28 369,-98 365.99,-97.63 362.92,-97.18 359.82,-96.67"/>
<polygon fill="midnightblue" stroke="midnightblue" points="2574.33,-199.64 2584.77,-201.48 2577.76,-193.54 2574.33,-199.64"/>
</g>
<!-- Node40 -->
<g id="node35" class="node">
<title>Node40</title>
<g id="a_node35"><a xlink:href="../../d8/dba/vpiecenode_8cpp.html" target="_top" xlink:title=" ">
<polygon fill="white" stroke="black" points="1131.5,-0.5 1131.5,-30.5 1238.5,-30.5 1238.5,-0.5 1131.5,-0.5"/>
<text text-anchor="start" x="1139.5" y="-18.5" font-family="Helvetica,sans-Serif" font-size="10.00">src/libs/vpatterndb</text>
<text text-anchor="middle" x="1185" y="-7.5" font-family="Helvetica,sans-Serif" font-size="10.00">/vpiecenode.cpp</text>
</a>
</g>
</g>
<!-- Node5&#45;&gt;Node40 -->
<g id="edge58" class="edge">
<title>Node5&#45;&gt;Node40</title>
<path fill="none" stroke="midnightblue" d="M2556.52,-197.87C2534.14,-189.48 2508.5,-178.35 2487,-165 2469.35,-154.04 2471.37,-141.53 2452,-134 2394.8,-111.77 286.04,-141.75 243,-98 233.34,-88.18 233.52,-77 243,-67 273.72,-34.59 935.97,-20.75 1131.26,-17.36"/>
<polygon fill="midnightblue" stroke="midnightblue" points="2555.62,-201.26 2566.21,-201.41 2558.02,-194.69 2555.62,-201.26"/>
</g>
<!-- Node56 -->
<g id="node46" class="node">
<title>Node56</title>
<g id="a_node46"><a xlink:href="../../d1/de1/vincrement__p_8h.html" target="_top" xlink:title=" ">
<polygon fill="white" stroke="red" points="2865.5,-134.5 2865.5,-164.5 3008.5,-164.5 3008.5,-134.5 2865.5,-134.5"/>
<text text-anchor="start" x="2873.5" y="-152.5" font-family="Helvetica,sans-Serif" font-size="10.00">src/libs/vpatterndb</text>
<text text-anchor="middle" x="2937" y="-141.5" font-family="Helvetica,sans-Serif" font-size="10.00">/variables/vincrement_p.h</text>
</a>
</g>
</g>
<!-- Node5&#45;&gt;Node56 -->
<g id="edge52" class="edge">
<title>Node5&#45;&gt;Node56</title>
<path fill="none" stroke="midnightblue" d="M2674.83,-202.77C2729.98,-191.78 2809.56,-175.91 2866.56,-164.55"/>
<polygon fill="midnightblue" stroke="midnightblue" points="2673.95,-199.38 2664.83,-204.77 2675.32,-206.24 2673.95,-199.38"/>
</g>
<!-- Node58 -->
<g id="node47" class="node">
<title>Node58</title>
<g id="a_node47"><a xlink:href="../../d6/dc1/vmeasurement__p_8h.html" target="_top" xlink:title=" ">
<polygon fill="white" stroke="red" points="3027,-134.5 3027,-164.5 3189,-164.5 3189,-134.5 3027,-134.5"/>
<text text-anchor="start" x="3035" y="-152.5" font-family="Helvetica,sans-Serif" font-size="10.00">src/libs/vpatterndb</text>
<text text-anchor="middle" x="3108" y="-141.5" font-family="Helvetica,sans-Serif" font-size="10.00">/variables/vmeasurement_p.h</text>
</a>
</g>
</g>
<!-- Node5&#45;&gt;Node58 -->
<g id="edge53" class="edge">
<title>Node5&#45;&gt;Node58</title>
<path fill="none" stroke="midnightblue" d="M2675.01,-208.22C2755.09,-198.97 2896.36,-182.11 3017,-165 3020.17,-164.55 3023.4,-164.08 3026.66,-163.6"/>
<polygon fill="midnightblue" stroke="midnightblue" points="2674.14,-204.8 2664.6,-209.43 2674.94,-211.76 2674.14,-204.8"/>
</g>
<!-- Node5&#45;&gt;Node60 -->
<g id="edge59" class="edge">
<title>Node5&#45;&gt;Node60</title>
<path fill="none" stroke="midnightblue" d="M2674.68,-214.61C3057.31,-209.24 5038.75,-180.73 5166,-165 5169.01,-164.63 5172.08,-164.17 5175.17,-163.66"/>
<polygon fill="midnightblue" stroke="midnightblue" points="2674.57,-211.11 2664.62,-214.75 2674.67,-218.11 2674.57,-211.11"/>
</g>
<!-- Node61 -->
<g id="node49" class="node">
<title>Node61</title>
<g id="a_node49"><a xlink:href="../../d1/d3a/abstracttest_8cpp.html" target="_top" xlink:title=" ">
<polygon fill="white" stroke="black" points="1896.5,-140 1896.5,-159 2057.5,-159 2057.5,-140 1896.5,-140"/>
<text text-anchor="middle" x="1977" y="-147" font-family="Helvetica,sans-Serif" font-size="10.00">src/libs/vtest/abstracttest.cpp</text>
</a>
</g>
</g>
<!-- Node5&#45;&gt;Node61 -->
<g id="edge60" class="edge">
<title>Node5&#45;&gt;Node61</title>
<path fill="none" stroke="midnightblue" d="M2547.09,-210.97C2445.27,-203.43 2240.08,-186.95 2067,-165 2053.65,-163.31 2039.25,-161.14 2025.96,-159"/>
<polygon fill="midnightblue" stroke="midnightblue" points="2546.98,-214.47 2557.21,-211.71 2547.49,-207.49 2546.98,-214.47"/>
</g>
<!-- Node62 -->
<g id="node50" class="node">
<title>Node62</title>
<g id="a_node50"><a xlink:href="../../da/db4/piece__tablewidgetitem_8cpp.html" target="_top" xlink:title=" ">
<polygon fill="white" stroke="black" points="2076,-134.5 2076,-164.5 2204,-164.5 2204,-134.5 2076,-134.5"/>
<text text-anchor="start" x="2084" y="-152.5" font-family="Helvetica,sans-Serif" font-size="10.00">src/libs/vwidgets/piece</text>
<text text-anchor="middle" x="2140" y="-141.5" font-family="Helvetica,sans-Serif" font-size="10.00">_tablewidgetitem.cpp</text>
</a>
</g>
</g>
<!-- Node5&#45;&gt;Node62 -->
<g id="edge61" class="edge">
<title>Node5&#45;&gt;Node62</title>
<path fill="none" stroke="midnightblue" d="M2547.15,-208.79C2468.37,-200.19 2330.44,-184.09 2213,-165 2210.07,-164.52 2207.07,-164.01 2204.05,-163.48"/>
<polygon fill="midnightblue" stroke="midnightblue" points="2547.08,-212.3 2557.4,-209.9 2547.83,-205.34 2547.08,-212.3"/>
</g>
<!-- Node6&#45;&gt;Node7 -->
<g id="edge6" class="edge">
<title>Node6&#45;&gt;Node7</title>
<path fill="none" stroke="midnightblue" d="M2253.92,-138.57C2240.48,-136.73 2226.28,-135.06 2213,-134 1325.45,-63.21 1097.97,-163.26 210,-98 191.81,-96.66 172.06,-94.38 154.28,-92.02"/>
<polygon fill="midnightblue" stroke="midnightblue" points="2253.64,-142.06 2264.03,-140 2254.62,-135.13 2253.64,-142.06"/>
</g>
<!-- Node10 -->
<g id="node10" class="node">
<title>Node10</title>
<g id="a_node10"><a xlink:href="../../dd/d66/vdxfengine_8cpp.html" target="_top" xlink:title=" ">
<polygon fill="white" stroke="black" points="5681,-73 5681,-92 5835,-92 5835,-73 5681,-73"/>
<text text-anchor="middle" x="5758" y="-80" font-family="Helvetica,sans-Serif" font-size="10.00">src/libs/vdxf/vdxfengine.cpp</text>
</a>
</g>
</g>
<!-- Node9&#45;&gt;Node10 -->
<g id="edge10" class="edge">
<title>Node9&#45;&gt;Node10</title>
<path fill="none" stroke="midnightblue" d="M5133.63,-138.45C5144.7,-136.8 5156.18,-135.23 5167,-134 5390.58,-108.65 5448.58,-124.74 5672,-98 5685.08,-96.43 5699.2,-94.26 5712.15,-92.07"/>
<polygon fill="midnightblue" stroke="midnightblue" points="5132.97,-135.01 5123.61,-139.98 5134.02,-141.93 5132.97,-135.01"/>
</g>
<!-- Node11 -->
<g id="node11" class="node">
<title>Node11</title>
<g id="a_node11"><a xlink:href="../../de/da8/vbank_8cpp.html" target="_top" xlink:title=" ">
<polygon fill="white" stroke="black" points="5853,-73 5853,-92 5997,-92 5997,-73 5853,-73"/>
<text text-anchor="middle" x="5925" y="-80" font-family="Helvetica,sans-Serif" font-size="10.00">src/libs/vlayout/vbank.cpp</text>
</a>
</g>
</g>
<!-- Node9&#45;&gt;Node11 -->
<g id="edge11" class="edge">
<title>Node9&#45;&gt;Node11</title>
<path fill="none" stroke="midnightblue" d="M5132.85,-138.4C5144.16,-136.72 5155.93,-135.15 5167,-134 5466.69,-102.75 5544.68,-132.61 5844,-98 5856.77,-96.52 5870.58,-94.29 5883.11,-92.02"/>
<polygon fill="midnightblue" stroke="midnightblue" points="5131.98,-134.99 5122.63,-139.96 5133.04,-141.91 5131.98,-134.99"/>
</g>
<!-- Node12 -->
<g id="node12" class="node">
<title>Node12</title>
<g id="a_node12"><a xlink:href="../../df/d5d/vcontour_8cpp.html" target="_top" xlink:title=" ">
<polygon fill="white" stroke="black" points="4890,-73 4890,-92 5046,-92 5046,-73 4890,-73"/>
<text text-anchor="middle" x="4968" y="-80" font-family="Helvetica,sans-Serif" font-size="10.00">src/libs/vlayout/vcontour.cpp</text>
</a>
</g>
</g>
<!-- Node9&#45;&gt;Node12 -->
<g id="edge12" class="edge">
<title>Node9&#45;&gt;Node12</title>
<path fill="none" stroke="midnightblue" d="M5051.08,-134.44C5030.08,-121.57 4999.68,-102.93 4982.07,-92.13"/>
<polygon fill="midnightblue" stroke="midnightblue" points="5049.35,-137.49 5059.7,-139.73 5053.01,-131.52 5049.35,-137.49"/>
</g>
<!-- Node13 -->
<g id="node13" class="node">
<title>Node13</title>
<g id="a_node13"><a xlink:href="../../d3/d39/vlayoutgenerator_8cpp.html" target="_top" xlink:title=" ">
<polygon fill="white" stroke="black" points="5102.5,-73 5102.5,-92 5299.5,-92 5299.5,-73 5102.5,-73"/>
<text text-anchor="middle" x="5201" y="-80" font-family="Helvetica,sans-Serif" font-size="10.00">src/libs/vlayout/vlayoutgenerator.cpp</text>
</a>
</g>
</g>
<!-- Node9&#45;&gt;Node13 -->
<g id="edge13" class="edge">
<title>Node9&#45;&gt;Node13</title>
<path fill="none" stroke="midnightblue" d="M5099.84,-135.27C5125,-122.4 5162.49,-103.21 5184.07,-92.17"/>
<polygon fill="midnightblue" stroke="midnightblue" points="5098.17,-132.2 5090.86,-139.87 5101.36,-138.43 5098.17,-132.2"/>
</g>
<!-- Node14 -->
<g id="node14" class="node">
<title>Node14</title>
<g id="a_node14"><a xlink:href="../../d2/d2d/vlayoutpaper__p_8h.html" target="_top" xlink:title=" ">
<polygon fill="white" stroke="black" points="5317.5,-73 5317.5,-92 5496.5,-92 5496.5,-73 5317.5,-73"/>
<text text-anchor="middle" x="5407" y="-80" font-family="Helvetica,sans-Serif" font-size="10.00">src/libs/vlayout/vlayoutpaper_p.h</text>
</a>
</g>
</g>
<!-- Node9&#45;&gt;Node14 -->
<g id="edge14" class="edge">
<title>Node9&#45;&gt;Node14</title>
<path fill="none" stroke="midnightblue" d="M5128.01,-137.96C5193.55,-125.16 5302.78,-103.84 5363.29,-92.03"/>
<polygon fill="midnightblue" stroke="midnightblue" points="5127.02,-134.58 5117.88,-139.94 5128.36,-141.45 5127.02,-134.58"/>
</g>
<!-- Node15 -->
<g id="node15" class="node">
<title>Node15</title>
<g id="a_node15"><a xlink:href="../../d1/dd1/vlayoutpaper_8cpp.html" target="_top" xlink:title=" ">
<polygon fill="white" stroke="black" points="5318,-6 5318,-25 5496,-25 5496,-6 5318,-6"/>
<text text-anchor="middle" x="5407" y="-13" font-family="Helvetica,sans-Serif" font-size="10.00">src/libs/vlayout/vlayoutpaper.cpp</text>
</a>
</g>
</g>
<!-- Node9&#45;&gt;Node15 -->
<g id="edge16" class="edge">
<title>Node9&#45;&gt;Node15</title>
<path fill="none" stroke="midnightblue" d="M5073.1,-129.61C5073.31,-110.92 5076.8,-82.87 5094,-67 5125.86,-37.61 5236.99,-25.27 5317.8,-20.12"/>
<polygon fill="midnightblue" stroke="midnightblue" points="5069.6,-129.92 5073.3,-139.85 5076.6,-129.78 5069.6,-129.92"/>
</g>
<!-- Node16 -->
<g id="node16" class="node">
<title>Node16</title>
<g id="a_node16"><a xlink:href="../../db/d5c/vposition_8h.html" target="_top" xlink:title=" ">
<polygon fill="white" stroke="red" points="5515,-73 5515,-92 5663,-92 5663,-73 5515,-73"/>
<text text-anchor="middle" x="5589" y="-80" font-family="Helvetica,sans-Serif" font-size="10.00">src/libs/vlayout/vposition.h</text>
</a>
</g>
</g>
<!-- Node9&#45;&gt;Node16 -->
<g id="edge17" class="edge">
<title>Node9&#45;&gt;Node16</title>
<path fill="none" stroke="midnightblue" d="M5135.52,-138.47C5146.01,-136.89 5156.81,-135.33 5167,-134 5317.23,-114.32 5355.96,-119.05 5506,-98 5518.17,-96.29 5531.29,-94.15 5543.42,-92.03"/>
<polygon fill="midnightblue" stroke="midnightblue" points="5134.94,-135.02 5125.59,-140 5136,-141.94 5134.94,-135.02"/>
</g>
<!-- Node18 -->
<g id="node17" class="node">
<title>Node18</title>
<g id="a_node17"><a xlink:href="../../dd/d70/vlayoutpiece_8cpp.html" target="_top" xlink:title=" ">
<polygon fill="white" stroke="black" points="4694.5,-73 4694.5,-92 4871.5,-92 4871.5,-73 4694.5,-73"/>
<text text-anchor="middle" x="4783" y="-80" font-family="Helvetica,sans-Serif" font-size="10.00">src/libs/vlayout/vlayoutpiece.cpp</text>
</a>
</g>
</g>
<!-- Node9&#45;&gt;Node18 -->
<g id="edge19" class="edge">
<title>Node9&#45;&gt;Node18</title>
<path fill="none" stroke="midnightblue" d="M5025.75,-137.72C4968.45,-124.92 4874.03,-103.83 4821.43,-92.08"/>
<polygon fill="midnightblue" stroke="midnightblue" points="5025.14,-141.17 5035.66,-139.94 5026.66,-134.34 5025.14,-141.17"/>
</g>
<!-- Node14&#45;&gt;Node15 -->
<g id="edge15" class="edge">
<title>Node14&#45;&gt;Node15</title>
<path fill="none" stroke="midnightblue" d="M5407,-62.54C5407,-50.17 5407,-34.62 5407,-25.13"/>
<polygon fill="midnightblue" stroke="midnightblue" points="5403.5,-62.73 5407,-72.73 5410.5,-62.73 5403.5,-62.73"/>
</g>
<!-- Node16&#45;&gt;Node15 -->
<g id="edge18" class="edge">
<title>Node16&#45;&gt;Node15</title>
<path fill="none" stroke="midnightblue" d="M5555.22,-69.44C5519.12,-56.54 5462.79,-36.42 5430.98,-25.06"/>
<polygon fill="midnightblue" stroke="midnightblue" points="5554.24,-72.8 5564.83,-72.87 5556.59,-66.21 5554.24,-72.8"/>
</g>
<!-- Node19&#45;&gt;Node4 -->
<g id="edge39" class="edge">
<title>Node19&#45;&gt;Node4</title>
<path fill="none" stroke="midnightblue" d="M2760.08,-139C2780.67,-137.03 2802.6,-135.2 2823,-134 3208.41,-111.29 4176.86,-145.55 4560,-98 4563.01,-97.63 4566.08,-97.17 4569.17,-96.65"/>
<polygon fill="midnightblue" stroke="midnightblue" points="2759.71,-135.51 2750.1,-139.97 2760.39,-142.48 2759.71,-135.51"/>
</g>
<!-- Node19&#45;&gt;Node8 -->
<g id="edge32" class="edge">
<title>Node19&#45;&gt;Node8</title>
<path fill="none" stroke="midnightblue" d="M2608.13,-138.66C2593.32,-136.79 2577.65,-135.09 2563,-134 1679.06,-68.49 1452.46,-169.74 569,-98 552.65,-96.67 534.91,-94.38 518.96,-92.01"/>
<polygon fill="midnightblue" stroke="midnightblue" points="2607.86,-142.16 2618.23,-139.98 2608.76,-135.21 2607.86,-142.16"/>
</g>
<!-- Node19&#45;&gt;Node18 -->
<g id="edge31" class="edge">
<title>Node19&#45;&gt;Node18</title>
<path fill="none" stroke="midnightblue" d="M2777.55,-139.17C2803.17,-137.16 2830.57,-135.26 2856,-134 3668.05,-93.7 3874.77,-165.64 4685,-98 4700.94,-96.67 4718.23,-94.39 4733.79,-92.03"/>
<polygon fill="midnightblue" stroke="midnightblue" points="2777.14,-135.69 2767.45,-139.98 2777.7,-142.67 2777.14,-135.69"/>
</g>
<!-- Node20 -->
<g id="node19" class="node">
<title>Node20</title>
<g id="a_node19"><a xlink:href="../../d4/d90/fvupdater_8cpp.html" target="_top" xlink:title=" ">
<polygon fill="white" stroke="black" points="1921.5,-73 1921.5,-92 2074.5,-92 2074.5,-73 1921.5,-73"/>
<text text-anchor="middle" x="1998" y="-80" font-family="Helvetica,sans-Serif" font-size="10.00">src/libs/fervor/fvupdater.cpp</text>
</a>
</g>
</g>
<!-- Node19&#45;&gt;Node20 -->
<g id="edge21" class="edge">
<title>Node19&#45;&gt;Node20</title>
<path fill="none" stroke="midnightblue" d="M2603.45,-138.69C2590.03,-136.99 2576.09,-135.35 2563,-134 2350.19,-112.14 2295.34,-124.02 2083,-98 2070.07,-96.42 2056.11,-94.23 2043.32,-92.04"/>
<polygon fill="midnightblue" stroke="midnightblue" points="2603.22,-142.19 2613.58,-139.99 2604.11,-135.25 2603.22,-142.19"/>
</g>
<!-- Node21 -->
<g id="node20" class="node">
<title>Node21</title>
<g id="a_node20"><a xlink:href="../../d9/dc8/dxiface_8cpp.html" target="_top" xlink:title=" ">
<polygon fill="white" stroke="black" points="2217.5,-73 2217.5,-92 2352.5,-92 2352.5,-73 2217.5,-73"/>
<text text-anchor="middle" x="2285" y="-80" font-family="Helvetica,sans-Serif" font-size="10.00">src/libs/vdxf/dxiface.cpp</text>
</a>
</g>
</g>
<!-- Node19&#45;&gt;Node21 -->
<g id="edge22" class="edge">
<title>Node19&#45;&gt;Node21</title>
<path fill="none" stroke="midnightblue" d="M2607.97,-138.41C2544.56,-128.58 2446.11,-112.98 2361,-98 2350.55,-96.16 2339.31,-94.08 2328.77,-92.07"/>
<polygon fill="midnightblue" stroke="midnightblue" points="2607.81,-141.92 2618.23,-139.99 2608.88,-135.01 2607.81,-141.92"/>
</g>
<!-- Node22 -->
<g id="node21" class="node">
<title>Node22</title>
<g id="a_node21"><a xlink:href="../../da/d75/vabstractarc__p_8h.html" target="_top" xlink:title=" ">
<polygon fill="white" stroke="red" points="2370.5,-67.5 2370.5,-97.5 2477.5,-97.5 2477.5,-67.5 2370.5,-67.5"/>
<text text-anchor="start" x="2378.5" y="-85.5" font-family="Helvetica,sans-Serif" font-size="10.00">src/libs/vgeometry</text>
<text text-anchor="middle" x="2424" y="-74.5" font-family="Helvetica,sans-Serif" font-size="10.00">/vabstractarc_p.h</text>
</a>
</g>
</g>
<!-- Node19&#45;&gt;Node22 -->
<g id="edge23" class="edge">
<title>Node19&#45;&gt;Node22</title>
<path fill="none" stroke="midnightblue" d="M2631.31,-137.4C2588.83,-126.36 2523.54,-109.38 2477.6,-97.44"/>
<polygon fill="midnightblue" stroke="midnightblue" points="2630.5,-140.81 2641.06,-139.94 2632.26,-134.03 2630.5,-140.81"/>
</g>
<!-- Node24 -->
<g id="node22" class="node">
<title>Node24</title>
<g id="a_node22"><a xlink:href="../../dc/da3/varc__p_8h.html" target="_top" xlink:title=" ">
<polygon fill="white" stroke="red" points="2495.5,-67.5 2495.5,-97.5 2602.5,-97.5 2602.5,-67.5 2495.5,-67.5"/>
<text text-anchor="start" x="2503.5" y="-85.5" font-family="Helvetica,sans-Serif" font-size="10.00">src/libs/vgeometry</text>
<text text-anchor="middle" x="2549" y="-74.5" font-family="Helvetica,sans-Serif" font-size="10.00">/varc_p.h</text>
</a>
</g>
</g>
<!-- Node19&#45;&gt;Node24 -->
<g id="edge24" class="edge">
<title>Node19&#45;&gt;Node24</title>
<path fill="none" stroke="midnightblue" d="M2648.41,-135.19C2627.39,-124.26 2597.67,-108.81 2576.21,-97.65"/>
<polygon fill="midnightblue" stroke="midnightblue" points="2646.91,-138.36 2657.4,-139.87 2650.14,-132.15 2646.91,-138.36"/>
</g>
<!-- Node26 -->
<g id="node23" class="node">
<title>Node26</title>
<g id="a_node23"><a xlink:href="../../d5/d8e/vcubicbezier__p_8h.html" target="_top" xlink:title=" ">
<polygon fill="white" stroke="red" points="2620.5,-67.5 2620.5,-97.5 2727.5,-97.5 2727.5,-67.5 2620.5,-67.5"/>
<text text-anchor="start" x="2628.5" y="-85.5" font-family="Helvetica,sans-Serif" font-size="10.00">src/libs/vgeometry</text>
<text text-anchor="middle" x="2674" y="-74.5" font-family="Helvetica,sans-Serif" font-size="10.00">/vcubicbezier_p.h</text>
</a>
</g>
</g>
<!-- Node19&#45;&gt;Node26 -->
<g id="edge25" class="edge">
<title>Node19&#45;&gt;Node26</title>
<path fill="none" stroke="midnightblue" d="M2674,-129.41C2674,-119.22 2674,-106.9 2674,-97.59"/>
<polygon fill="midnightblue" stroke="midnightblue" points="2670.5,-129.73 2674,-139.73 2677.5,-129.73 2670.5,-129.73"/>
</g>
<!-- Node28 -->
<g id="node24" class="node">
<title>Node28</title>
<g id="a_node24"><a xlink:href="../../df/dde/vellipticalarc__p_8h.html" target="_top" xlink:title=" ">
<polygon fill="white" stroke="black" points="3361.5,-67.5 3361.5,-97.5 3468.5,-97.5 3468.5,-67.5 3361.5,-67.5"/>
<text text-anchor="start" x="3369.5" y="-85.5" font-family="Helvetica,sans-Serif" font-size="10.00">src/libs/vgeometry</text>
<text text-anchor="middle" x="3415" y="-74.5" font-family="Helvetica,sans-Serif" font-size="10.00">/vellipticalarc_p.h</text>
</a>
</g>
</g>
<!-- Node19&#45;&gt;Node28 -->
<g id="edge26" class="edge">
<title>Node19&#45;&gt;Node28</title>
<path fill="none" stroke="midnightblue" d="M2743.83,-138.66C2757.47,-136.94 2771.67,-135.29 2785,-134 3036.33,-109.63 3102.14,-134.44 3352,-98 3355.11,-97.55 3358.29,-97.02 3361.5,-96.44"/>
<polygon fill="midnightblue" stroke="midnightblue" points="2743.01,-135.23 2733.54,-139.98 2743.9,-142.18 2743.01,-135.23"/>
</g>
<!-- Node29 -->
<g id="node25" class="node">
<title>Node29</title>
<g id="a_node25"><a xlink:href="../../d6/dfb/vellipticalarc_8cpp.html" target="_top" xlink:title=" ">
<polygon fill="white" stroke="black" points="3514.5,-0.5 3514.5,-30.5 3621.5,-30.5 3621.5,-0.5 3514.5,-0.5"/>
<text text-anchor="start" x="3522.5" y="-18.5" font-family="Helvetica,sans-Serif" font-size="10.00">src/libs/vgeometry</text>
<text text-anchor="middle" x="3568" y="-7.5" font-family="Helvetica,sans-Serif" font-size="10.00">/vellipticalarc.cpp</text>
</a>
</g>
</g>
<!-- Node19&#45;&gt;Node29 -->
<g id="edge28" class="edge">
<title>Node19&#45;&gt;Node29</title>
<path fill="none" stroke="midnightblue" d="M2741.74,-138.66C2756,-136.87 2770.98,-135.19 2785,-134 2835.8,-129.69 3666.66,-134.75 3702,-98 3732.48,-66.3 3671.17,-42.16 3621.76,-28.66"/>
<polygon fill="midnightblue" stroke="midnightblue" points="2740.97,-135.23 2731.5,-139.98 2741.87,-142.17 2740.97,-135.23"/>
</g>
<!-- Node30 -->
<g id="node26" class="node">
<title>Node30</title>
<g id="a_node26"><a xlink:href="../../d1/d76/vspline__p_8h.html" target="_top" xlink:title=" ">
<polygon fill="white" stroke="red" points="2745.5,-67.5 2745.5,-97.5 2852.5,-97.5 2852.5,-67.5 2745.5,-67.5"/>
<text text-anchor="start" x="2753.5" y="-85.5" font-family="Helvetica,sans-Serif" font-size="10.00">src/libs/vgeometry</text>
<text text-anchor="middle" x="2799" y="-74.5" font-family="Helvetica,sans-Serif" font-size="10.00">/vspline_p.h</text>
</a>
</g>
</g>
<!-- Node19&#45;&gt;Node30 -->
<g id="edge29" class="edge">
<title>Node19&#45;&gt;Node30</title>
<path fill="none" stroke="midnightblue" d="M2699.59,-135.19C2720.61,-124.26 2750.33,-108.81 2771.79,-97.65"/>
<polygon fill="midnightblue" stroke="midnightblue" points="2697.86,-132.15 2690.6,-139.87 2701.09,-138.36 2697.86,-132.15"/>
</g>
<!-- Node32 -->
<g id="node27" class="node">
<title>Node32</title>
<g id="a_node27"><a xlink:href="../../d9/d15/vabstractpiece_8cpp.html" target="_top" xlink:title=" ">
<polygon fill="white" stroke="black" points="2871,-73 2871,-92 3057,-92 3057,-73 2871,-73"/>
<text text-anchor="middle" x="2964" y="-80" font-family="Helvetica,sans-Serif" font-size="10.00">src/libs/vlayout/vabstractpiece.cpp</text>
</a>
</g>
</g>
<!-- Node19&#45;&gt;Node32 -->
<g id="edge30" class="edge">
<title>Node19&#45;&gt;Node32</title>
<path fill="none" stroke="midnightblue" d="M2722.08,-137.72C2779.18,-124.92 2873.28,-103.83 2925.7,-92.08"/>
<polygon fill="midnightblue" stroke="midnightblue" points="2721.2,-134.33 2712.21,-139.94 2722.73,-141.16 2721.2,-134.33"/>
</g>
<!-- Node33 -->
<g id="node28" class="node">
<title>Node33</title>
<g id="a_node28"><a xlink:href="../../db/d65/dialogexporttocsv_8cpp.html" target="_top" xlink:title=" ">
<polygon fill="white" stroke="black" points="3075.5,-67.5 3075.5,-97.5 3202.5,-97.5 3202.5,-67.5 3075.5,-67.5"/>
<text text-anchor="start" x="3083.5" y="-85.5" font-family="Helvetica,sans-Serif" font-size="10.00">src/libs/vmisc/dialogs</text>
<text text-anchor="middle" x="3139" y="-74.5" font-family="Helvetica,sans-Serif" font-size="10.00">/dialogexporttocsv.cpp</text>
</a>
</g>
</g>
<!-- Node19&#45;&gt;Node33 -->
<g id="edge33" class="edge">
<title>Node19&#45;&gt;Node33</title>
<path fill="none" stroke="midnightblue" d="M2749.14,-138.66C2761.13,-137.1 2773.41,-135.5 2785,-134 2909.87,-117.85 2941.73,-118.28 3066,-98 3069.06,-97.5 3072.19,-96.97 3075.35,-96.41"/>
<polygon fill="midnightblue" stroke="midnightblue" points="2748.61,-135.2 2739.15,-139.96 2749.52,-142.14 2748.61,-135.2"/>
</g>
<!-- Node34 -->
<g id="node29" class="node">
<title>Node34</title>
<g id="a_node29"><a xlink:href="../../d6/d0b/def_8cpp.html" target="_top" xlink:title=" ">
<polygon fill="white" stroke="black" points="3221,-73 3221,-92 3343,-92 3343,-73 3221,-73"/>
<text text-anchor="middle" x="3282" y="-80" font-family="Helvetica,sans-Serif" font-size="10.00">src/libs/vmisc/def.cpp</text>
</a>
</g>
</g>
<!-- Node19&#45;&gt;Node34 -->
<g id="edge34" class="edge">
<title>Node19&#45;&gt;Node34</title>
<path fill="none" stroke="midnightblue" d="M2745.27,-138.7C2758.47,-137.03 2772.14,-135.38 2785,-134 2973.92,-113.69 3022.93,-125.06 3211,-98 3221.96,-96.42 3233.77,-94.22 3244.56,-92"/>
<polygon fill="midnightblue" stroke="midnightblue" points="2744.77,-135.24 2735.3,-139.98 2745.66,-142.18 2744.77,-135.24"/>
</g>
<!-- Node35 -->
<g id="node30" class="node">
<title>Node35</title>
<g id="a_node30"><a xlink:href="../../d0/df6/vabstractapplication_8cpp.html" target="_top" xlink:title=" ">
<polygon fill="white" stroke="black" points="3487,-73 3487,-92 3693,-92 3693,-73 3487,-73"/>
<text text-anchor="middle" x="3590" y="-80" font-family="Helvetica,sans-Serif" font-size="10.00">src/libs/vmisc/vabstractapplication.cpp</text>
</a>
</g>
</g>
<!-- Node19&#45;&gt;Node35 -->
<g id="edge35" class="edge">
<title>Node19&#45;&gt;Node35</title>
<path fill="none" stroke="midnightblue" d="M2742.7,-138.68C2756.68,-136.92 2771.29,-135.25 2785,-134 3091.7,-106.03 3170.27,-125.62 3477,-98 3494.34,-96.44 3513.11,-94.24 3530.27,-92.02"/>
<polygon fill="midnightblue" stroke="midnightblue" points="2742.14,-135.22 2732.66,-139.97 2743.03,-142.16 2742.14,-135.22"/>
</g>
<!-- Node36 -->
<g id="node31" class="node">
<title>Node36</title>
<g id="a_node31"><a xlink:href="../../d4/d4f/pmsystems_8cpp.html" target="_top" xlink:title=" ">
<polygon fill="white" stroke="black" points="3749.5,-67.5 3749.5,-97.5 3856.5,-97.5 3856.5,-67.5 3749.5,-67.5"/>
<text text-anchor="start" x="3757.5" y="-85.5" font-family="Helvetica,sans-Serif" font-size="10.00">src/libs/vpatterndb</text>
<text text-anchor="middle" x="3803" y="-74.5" font-family="Helvetica,sans-Serif" font-size="10.00">/pmsystems.cpp</text>
</a>
</g>
</g>
<!-- Node19&#45;&gt;Node36 -->
<g id="edge36" class="edge">
<title>Node19&#45;&gt;Node36</title>
<path fill="none" stroke="midnightblue" d="M2741.74,-138.64C2756,-136.85 2770.97,-135.18 2785,-134 3206.04,-98.6 3315.72,-150.25 3735,-98 3739.67,-97.42 3744.5,-96.68 3749.32,-95.84"/>
<polygon fill="midnightblue" stroke="midnightblue" points="2740.97,-135.21 2731.5,-139.96 2741.87,-142.16 2740.97,-135.21"/>
</g>
<!-- Node19&#45;&gt;Node37 -->
<g id="edge37" class="edge">
<title>Node19&#45;&gt;Node37</title>
<path fill="none" stroke="midnightblue" d="M2740.11,-138.67C2754.86,-136.81 2770.44,-135.11 2785,-134 3150.7,-106.21 4071.06,-143.37 4435,-98 4438.01,-97.63 4441.08,-97.17 4444.17,-96.65"/>
<polygon fill="midnightblue" stroke="midnightblue" points="2739.53,-135.22 2730.06,-139.98 2740.43,-142.16 2739.53,-135.22"/>
</g>
<!-- Node19&#45;&gt;Node38 -->
<g id="edge38" class="edge">
<title>Node19&#45;&gt;Node38</title>
<path fill="none" stroke="midnightblue" d="M2588.6,-139C2567.81,-137.02 2545.63,-135.17 2525,-134 2046.6,-106.77 844.65,-156.06 369,-98 365.99,-97.63 362.92,-97.18 359.82,-96.67"/>
<polygon fill="midnightblue" stroke="midnightblue" points="2588.38,-142.5 2598.67,-139.98 2589.06,-135.53 2588.38,-142.5"/>
</g>
<!-- Node39 -->
<g id="node34" class="node">
<title>Node39</title>
<g id="a_node34"><a xlink:href="../../df/dba/vpiecenode__p_8h.html" target="_top" xlink:title=" ">
<polygon fill="white" stroke="black" points="2092.5,-67.5 2092.5,-97.5 2199.5,-97.5 2199.5,-67.5 2092.5,-67.5"/>
<text text-anchor="start" x="2100.5" y="-85.5" font-family="Helvetica,sans-Serif" font-size="10.00">src/libs/vpatterndb</text>
<text text-anchor="middle" x="2146" y="-74.5" font-family="Helvetica,sans-Serif" font-size="10.00">/vpiecenode_p.h</text>
</a>
</g>
</g>
<!-- Node19&#45;&gt;Node39 -->
<g id="edge40" class="edge">
<title>Node19&#45;&gt;Node39</title>
<path fill="none" stroke="midnightblue" d="M2601.14,-138.68C2588.44,-137.05 2575.34,-135.43 2563,-134 2405.47,-115.73 2364.42,-124.11 2208,-98 2205.27,-97.54 2202.49,-97.04 2199.68,-96.5"/>
<polygon fill="midnightblue" stroke="midnightblue" points="2600.86,-142.17 2611.23,-139.98 2601.76,-135.23 2600.86,-142.17"/>
</g>
<!-- Node41 -->
<g id="node36" class="node">
<title>Node41</title>
<g id="a_node36"><a xlink:href="../../de/d3e/vtranslatevars_8cpp.html" target="_top" xlink:title=" ">
<polygon fill="white" stroke="black" points="3875,-67.5 3875,-97.5 3985,-97.5 3985,-67.5 3875,-67.5"/>
<text text-anchor="start" x="3883" y="-85.5" font-family="Helvetica,sans-Serif" font-size="10.00">src/libs/vpatterndb</text>
<text text-anchor="middle" x="3930" y="-74.5" font-family="Helvetica,sans-Serif" font-size="10.00">/vtranslatevars.cpp</text>
</a>
</g>
</g>
<!-- Node19&#45;&gt;Node41 -->
<g id="edge42" class="edge">
<title>Node19&#45;&gt;Node41</title>
<path fill="none" stroke="midnightblue" d="M2741.26,-138.65C2755.66,-136.84 2770.82,-135.16 2785,-134 3263.67,-94.85 3388.57,-158.55 3865,-98 3868.21,-97.59 3871.5,-97.1 3874.81,-96.55"/>
<polygon fill="midnightblue" stroke="midnightblue" points="2740.4,-135.24 2730.93,-139.99 2741.29,-142.18 2740.4,-135.24"/>
</g>
<!-- Node42 -->
<g id="node37" class="node">
<title>Node42</title>
<g id="a_node37"><a xlink:href="../../df/d40/export__format__combobox_8cpp.html" target="_top" xlink:title=" ">
<polygon fill="white" stroke="black" points="4003.5,-67.5 4003.5,-97.5 4136.5,-97.5 4136.5,-67.5 4003.5,-67.5"/>
<text text-anchor="start" x="4011.5" y="-85.5" font-family="Helvetica,sans-Serif" font-size="10.00">src/libs/vwidgets/export</text>
<text text-anchor="middle" x="4070" y="-74.5" font-family="Helvetica,sans-Serif" font-size="10.00">_format_combobox.cpp</text>
</a>
</g>
</g>
<!-- Node19&#45;&gt;Node42 -->
<g id="edge43" class="edge">
<title>Node19&#45;&gt;Node42</title>
<path fill="none" stroke="midnightblue" d="M2740.6,-138.7C2755.2,-136.86 2770.6,-135.15 2785,-134 3320.86,-91.13 3459.63,-156.56 3994,-98 3997.07,-97.66 4000.2,-97.27 4003.36,-96.83"/>
<polygon fill="midnightblue" stroke="midnightblue" points="2740.11,-135.23 2730.64,-139.99 2741.01,-142.18 2740.11,-135.23"/>
</g>
<!-- Node43 -->
<g id="node38" class="node">
<title>Node43</title>
<g id="a_node38"><a xlink:href="../../d3/d4f/mouse__coordinates_8cpp.html" target="_top" xlink:title=" ">
<polygon fill="white" stroke="black" points="4155,-67.5 4155,-97.5 4289,-97.5 4289,-67.5 4155,-67.5"/>
<text text-anchor="start" x="4163" y="-85.5" font-family="Helvetica,sans-Serif" font-size="10.00">src/libs/vwidgets/mouse</text>
<text text-anchor="middle" x="4222" y="-74.5" font-family="Helvetica,sans-Serif" font-size="10.00">_coordinates.cpp</text>
</a>
</g>
</g>
<!-- Node19&#45;&gt;Node43 -->
<g id="edge44" class="edge">
<title>Node19&#45;&gt;Node43</title>
<path fill="none" stroke="midnightblue" d="M2740.36,-138.69C2755.03,-136.84 2770.52,-135.13 2785,-134 3387.81,-86.78 3543.76,-162.15 4145,-98 4148.25,-97.65 4151.56,-97.24 4154.9,-96.79"/>
<polygon fill="midnightblue" stroke="midnightblue" points="2739.82,-135.23 2730.35,-139.99 2740.72,-142.18 2739.82,-135.23"/>
</g>
<!-- Node44 -->
<g id="node39" class="node">
<title>Node44</title>
<g id="a_node39"><a xlink:href="../../d7/d1b/pen__toolbar_8cpp.html" target="_top" xlink:title=" ">
<polygon fill="white" stroke="black" points="4307.5,-67.5 4307.5,-97.5 4426.5,-97.5 4426.5,-67.5 4307.5,-67.5"/>
<text text-anchor="start" x="4315.5" y="-85.5" font-family="Helvetica,sans-Serif" font-size="10.00">src/libs/vwidgets/pen</text>
<text text-anchor="middle" x="4367" y="-74.5" font-family="Helvetica,sans-Serif" font-size="10.00">_toolbar.cpp</text>
</a>
</g>
</g>
<!-- Node19&#45;&gt;Node44 -->
<g id="edge45" class="edge">
<title>Node19&#45;&gt;Node44</title>
<path fill="none" stroke="midnightblue" d="M2740.11,-138.69C2754.86,-136.83 2770.44,-135.12 2785,-134 3455.65,-82.36 3629.84,-175.49 4298,-98 4301.04,-97.65 4304.14,-97.23 4307.27,-96.75"/>
<polygon fill="midnightblue" stroke="midnightblue" points="2739.53,-135.24 2730.06,-140 2740.43,-142.18 2739.53,-135.24"/>
</g>
<!-- Node45 -->
<g id="node40" class="node">
<title>Node45</title>
<g id="a_node40"><a xlink:href="../../dd/df6/vabstractmainwindow_8cpp.html" target="_top" xlink:title=" ">
<polygon fill="white" stroke="black" points="578.5,-73 578.5,-92 807.5,-92 807.5,-73 578.5,-73"/>
<text text-anchor="middle" x="693" y="-80" font-family="Helvetica,sans-Serif" font-size="10.00">src/libs/vwidgets/vabstractmainwindow.cpp</text>
</a>
</g>
</g>
<!-- Node19&#45;&gt;Node45 -->
<g id="edge46" class="edge">
<title>Node19&#45;&gt;Node45</title>
<path fill="none" stroke="midnightblue" d="M2607.89,-138.66C2593.14,-136.8 2577.56,-135.1 2563,-134 1789.03,-75.64 1591.34,-151.13 817,-98 797,-96.63 775.26,-94.35 755.66,-92.01"/>
<polygon fill="midnightblue" stroke="midnightblue" points="2607.57,-142.15 2617.94,-139.97 2608.47,-135.21 2607.57,-142.15"/>
</g>
<!-- Node46 -->
<g id="node41" class="node">
<title>Node46</title>
<g id="a_node41"><a xlink:href="../../d8/d76/scene__rect_8cpp.html" target="_top" xlink:title=" ">
<polygon fill="white" stroke="black" points="826,-67.5 826,-97.5 956,-97.5 956,-67.5 826,-67.5"/>
<text text-anchor="start" x="834" y="-85.5" font-family="Helvetica,sans-Serif" font-size="10.00">src/libs/vwidgets/scene</text>
<text text-anchor="middle" x="891" y="-74.5" font-family="Helvetica,sans-Serif" font-size="10.00">_rect.cpp</text>
</a>
</g>
</g>
<!-- Node19&#45;&gt;Node46 -->
<g id="edge47" class="edge">
<title>Node19&#45;&gt;Node46</title>
<path fill="none" stroke="midnightblue" d="M2607.89,-138.68C2593.14,-136.82 2577.56,-135.11 2563,-134 1854.66,-79.91 1671.26,-174.58 965,-98 962.14,-97.69 959.22,-97.33 956.28,-96.92"/>
<polygon fill="midnightblue" stroke="midnightblue" points="2607.57,-142.17 2617.94,-139.99 2608.47,-135.23 2607.57,-142.17"/>
</g>
<!-- Node47 -->
<g id="node42" class="node">
<title>Node47</title>
<g id="a_node42"><a xlink:href="../../de/d45/vcontrolpointspline_8cpp.html" target="_top" xlink:title=" ">
<polygon fill="white" stroke="black" points="974.5,-73 974.5,-92 1189.5,-92 1189.5,-73 974.5,-73"/>
<text text-anchor="middle" x="1082" y="-80" font-family="Helvetica,sans-Serif" font-size="10.00">src/libs/vwidgets/vcontrolpointspline.cpp</text>
</a>
</g>
</g>
<!-- Node19&#45;&gt;Node47 -->
<g id="edge48" class="edge">
<title>Node19&#45;&gt;Node47</title>
<path fill="none" stroke="midnightblue" d="M2607.64,-138.69C2592.97,-136.84 2577.48,-135.13 2563,-134 1957.97,-86.63 1803.16,-143.69 1198,-98 1179.48,-96.6 1159.38,-94.35 1141.2,-92.04"/>
<polygon fill="midnightblue" stroke="midnightblue" points="2607.28,-142.17 2617.65,-139.99 2608.18,-135.23 2607.28,-142.17"/>
</g>
<!-- Node48 -->
<g id="node43" class="node">
<title>Node48</title>
<g id="a_node43"><a xlink:href="../../d1/d90/vgrainlineitem_8cpp.html" target="_top" xlink:title=" ">
<polygon fill="white" stroke="black" points="1207.5,-73 1207.5,-92 1400.5,-92 1400.5,-73 1207.5,-73"/>
<text text-anchor="middle" x="1304" y="-80" font-family="Helvetica,sans-Serif" font-size="10.00">src/libs/vwidgets/vgrainlineitem.cpp</text>
</a>
</g>
</g>
<!-- Node19&#45;&gt;Node48 -->
<g id="edge49" class="edge">
<title>Node19&#45;&gt;Node48</title>
<path fill="none" stroke="midnightblue" d="M2606.74,-138.63C2592.34,-136.82 2577.19,-135.15 2563,-134 2051.97,-92.75 1920.9,-140.8 1410,-98 1393.06,-96.58 1374.69,-94.32 1358.08,-92.01"/>
<polygon fill="midnightblue" stroke="midnightblue" points="2606.71,-142.16 2617.08,-139.97 2607.61,-135.21 2606.71,-142.16"/>
</g>
<!-- Node49 -->
<g id="node44" class="node">
<title>Node49</title>
<g id="a_node44"><a xlink:href="../../de/dec/vgraphicssimpletextitem_8cpp.html" target="_top" xlink:title=" ">
<polygon fill="white" stroke="black" points="1419,-73 1419,-92 1663,-92 1663,-73 1419,-73"/>
<text text-anchor="middle" x="1541" y="-80" font-family="Helvetica,sans-Serif" font-size="10.00">src/libs/vwidgets/vgraphicssimpletextitem.cpp</text>
</a>
</g>
</g>
<!-- Node19&#45;&gt;Node49 -->
<g id="edge50" class="edge">
<title>Node19&#45;&gt;Node49</title>
<path fill="none" stroke="midnightblue" d="M2606.26,-138.67C2592,-136.88 2577.02,-135.2 2563,-134 2168.11,-100.3 2067.2,-127.82 1672,-98 1651.69,-96.47 1629.67,-94.25 1609.58,-92"/>
<polygon fill="midnightblue" stroke="midnightblue" points="2606.13,-142.18 2616.49,-139.99 2607.03,-135.24 2606.13,-142.18"/>
</g>
<!-- Node50 -->
<g id="node45" class="node">
<title>Node50</title>
<g id="a_node45"><a xlink:href="../../d1/d88/vmaingraphicsscene_8cpp.html" target="_top" xlink:title=" ">
<polygon fill="white" stroke="black" points="1681,-73 1681,-92 1903,-92 1903,-73 1681,-73"/>
<text text-anchor="middle" x="1792" y="-80" font-family="Helvetica,sans-Serif" font-size="10.00">src/libs/vwidgets/vmaingraphicsscene.cpp</text>
</a>
</g>
</g>
<!-- Node19&#45;&gt;Node50 -->
<g id="edge51" class="edge">
<title>Node19&#45;&gt;Node50</title>
<path fill="none" stroke="midnightblue" d="M2605.05,-138.68C2591.15,-136.93 2576.63,-135.26 2563,-134 2274.47,-107.21 2200.66,-123.39 1912,-98 1893.81,-96.4 1874.13,-94.21 1856.06,-92.02"/>
<polygon fill="midnightblue" stroke="midnightblue" points="2604.68,-142.16 2615.05,-139.97 2605.57,-135.22 2604.68,-142.16"/>
</g>
<!-- Node28&#45;&gt;Node29 -->
<g id="edge27" class="edge">
<title>Node28&#45;&gt;Node29</title>
<path fill="none" stroke="midnightblue" d="M3457.59,-63.41C3482.02,-53.03 3512.22,-40.2 3534.87,-30.58"/>
<polygon fill="midnightblue" stroke="midnightblue" points="3456.03,-60.26 3448.2,-67.4 3458.77,-66.71 3456.03,-60.26"/>
</g>
<!-- Node39&#45;&gt;Node40 -->
<g id="edge41" class="edge">
<title>Node39&#45;&gt;Node40</title>
<path fill="none" stroke="midnightblue" d="M2082.41,-67.11C1757.21,-21.71 1377.1,-16.63 1238.7,-16.35"/>
<polygon fill="midnightblue" stroke="midnightblue" points="2082.11,-70.6 2092.5,-68.53 2083.09,-63.67 2082.11,-70.6"/>
</g>
</g>
</svg>
