<?xml version="1.0" encoding="UTF-8" standalone="no"?>
<!DOCTYPE svg PUBLIC "-//W3C//DTD SVG 1.1//EN"
 "http://www.w3.org/Graphics/SVG/1.1/DTD/svg11.dtd">
<!-- Generated by graphviz version 2.43.0 (0)
 -->
<!-- Title: src/libs/vpatterndb/vpiecepath.h Pages: 1 -->
<svg width="6654pt" height="318pt"
 viewBox="0.00 0.00 6653.50 318.00" xmlns="http://www.w3.org/2000/svg" xmlns:xlink="http://www.w3.org/1999/xlink">
<g id="graph0" class="graph" transform="scale(1 1) rotate(0) translate(4 314)">
<title>src/libs/vpatterndb/vpiecepath.h</title>
<polygon fill="white" stroke="transparent" points="-4,4 -4,-314 6649.5,-314 6649.5,4 -4,4"/>
<!-- Node1 -->
<g id="node1" class="node">
<title>Node1</title>
<g id="a_node1"><a xlink:title=" ">
<polygon fill="#bfbfbf" stroke="black" points="6372.5,-279.5 6372.5,-309.5 6479.5,-309.5 6479.5,-279.5 6372.5,-279.5"/>
<text text-anchor="start" x="6380.5" y="-297.5" font-family="Helvetica,sans-Serif" font-size="10.00">src/libs/vpatterndb</text>
<text text-anchor="middle" x="6426" y="-286.5" font-family="Helvetica,sans-Serif" font-size="10.00">/vpiecepath.h</text>
</a>
</g>
</g>
<!-- Node2 -->
<g id="node2" class="node">
<title>Node2</title>
<g id="a_node2"><a xlink:href="../../d3/df7/vcontainer_8h.html" target="_top" xlink:title=" ">
<polygon fill="white" stroke="black" points="5600.5,-212.5 5600.5,-242.5 5707.5,-242.5 5707.5,-212.5 5600.5,-212.5"/>
<text text-anchor="start" x="5608.5" y="-230.5" font-family="Helvetica,sans-Serif" font-size="10.00">src/libs/vpatterndb</text>
<text text-anchor="middle" x="5654" y="-219.5" font-family="Helvetica,sans-Serif" font-size="10.00">/vcontainer.h</text>
</a>
</g>
</g>
<!-- Node1&#45;&gt;Node2 -->
<g id="edge1" class="edge">
<title>Node1&#45;&gt;Node2</title>
<path fill="none" stroke="midnightblue" d="M6361.99,-288.11C6213.08,-275.57 5845.62,-244.63 5707.57,-233.01"/>
<polygon fill="midnightblue" stroke="midnightblue" points="6362.07,-291.63 6372.33,-288.98 6362.66,-284.65 6362.07,-291.63"/>
</g>
<!-- Node59 -->
<g id="node46" class="node">
<title>Node59</title>
<g id="a_node46"><a xlink:href="../../d6/d91/vnodedetail_8cpp.html" target="_top" xlink:title=" ">
<polygon fill="white" stroke="black" points="6342.5,-140 6342.5,-170 6449.5,-170 6449.5,-140 6342.5,-140"/>
<text text-anchor="start" x="6350.5" y="-158" font-family="Helvetica,sans-Serif" font-size="10.00">src/libs/vpatterndb</text>
<text text-anchor="middle" x="6396" y="-147" font-family="Helvetica,sans-Serif" font-size="10.00">/vnodedetail.cpp</text>
</a>
</g>
</g>
<!-- Node1&#45;&gt;Node59 -->
<g id="edge59" class="edge">
<title>Node1&#45;&gt;Node59</title>
<path fill="none" stroke="midnightblue" d="M6420.72,-269.29C6414.46,-240.61 6404.24,-193.78 6399.13,-170.33"/>
<polygon fill="midnightblue" stroke="midnightblue" points="6417.35,-270.28 6422.9,-279.3 6424.19,-268.79 6417.35,-270.28"/>
</g>
<!-- Node60 -->
<g id="node47" class="node">
<title>Node60</title>
<g id="a_node47"><a xlink:href="../../da/de1/vpiecepath_8cpp.html" target="_top" xlink:title=" ">
<polygon fill="white" stroke="black" points="6467.5,-140 6467.5,-170 6574.5,-170 6574.5,-140 6467.5,-140"/>
<text text-anchor="start" x="6475.5" y="-158" font-family="Helvetica,sans-Serif" font-size="10.00">src/libs/vpatterndb</text>
<text text-anchor="middle" x="6521" y="-147" font-family="Helvetica,sans-Serif" font-size="10.00">/vpiecepath.cpp</text>
</a>
</g>
</g>
<!-- Node1&#45;&gt;Node60 -->
<g id="edge62" class="edge">
<title>Node1&#45;&gt;Node60</title>
<path fill="none" stroke="midnightblue" d="M6441.69,-270.79C6461.4,-242.26 6494.62,-194.19 6511.1,-170.33"/>
<polygon fill="midnightblue" stroke="midnightblue" points="6438.61,-269.09 6435.81,-279.3 6444.37,-273.07 6438.61,-269.09"/>
</g>
<!-- Node63 -->
<g id="node50" class="node">
<title>Node63</title>
<g id="a_node50"><a xlink:href="../../d8/da5/vpiece__p_8h.html" target="_top" xlink:title=" ">
<polygon fill="white" stroke="black" points="6538.5,-212.5 6538.5,-242.5 6645.5,-242.5 6645.5,-212.5 6538.5,-212.5"/>
<text text-anchor="start" x="6546.5" y="-230.5" font-family="Helvetica,sans-Serif" font-size="10.00">src/libs/vpatterndb</text>
<text text-anchor="middle" x="6592" y="-219.5" font-family="Helvetica,sans-Serif" font-size="10.00">/vpiece_p.h</text>
</a>
</g>
</g>
<!-- Node1&#45;&gt;Node63 -->
<g id="edge60" class="edge">
<title>Node1&#45;&gt;Node63</title>
<path fill="none" stroke="midnightblue" d="M6471.51,-275.68C6498.13,-265.26 6531.27,-252.28 6556.05,-242.58"/>
<polygon fill="midnightblue" stroke="midnightblue" points="6470.05,-272.49 6462.02,-279.4 6472.61,-279.01 6470.05,-272.49"/>
</g>
<!-- Node3 -->
<g id="node3" class="node">
<title>Node3</title>
<g id="a_node3"><a xlink:href="../../dc/db7/measurements_8h.html" target="_top" xlink:title=" ">
<polygon fill="white" stroke="black" points="160.5,-145.5 160.5,-164.5 339.5,-164.5 339.5,-145.5 160.5,-145.5"/>
<text text-anchor="middle" x="250" y="-152.5" font-family="Helvetica,sans-Serif" font-size="10.00">src/libs/vformat/measurements.h</text>
</a>
</g>
</g>
<!-- Node2&#45;&gt;Node3 -->
<g id="edge2" class="edge">
<title>Node2&#45;&gt;Node3</title>
<path fill="none" stroke="midnightblue" d="M5590.15,-226.19C5082.13,-223.68 1687.77,-205.99 663,-176 551.6,-172.74 423.43,-166.08 339.79,-161.34"/>
<polygon fill="midnightblue" stroke="midnightblue" points="5590.21,-229.69 5600.23,-226.24 5590.24,-222.69 5590.21,-229.69"/>
</g>
<!-- Node4 -->
<g id="node4" class="node">
<title>Node4</title>
<g id="a_node4"><a xlink:href="../../d9/de3/measurements_8cpp.html" target="_top" xlink:title=" ">
<polygon fill="white" stroke="black" points="0,-73 0,-92 190,-92 190,-73 0,-73"/>
<text text-anchor="middle" x="95" y="-80" font-family="Helvetica,sans-Serif" font-size="10.00">src/libs/vformat/measurements.cpp</text>
</a>
</g>
</g>
<!-- Node2&#45;&gt;Node4 -->
<g id="edge4" class="edge">
<title>Node2&#45;&gt;Node4</title>
<path fill="none" stroke="midnightblue" d="M5590.01,-226.25C5055.77,-224.1 1344.16,-208.11 850,-176 584.8,-158.77 269.97,-111.46 147.44,-92.02"/>
<polygon fill="midnightblue" stroke="midnightblue" points="5590.21,-229.75 5600.23,-226.29 5590.24,-222.75 5590.21,-229.75"/>
</g>
<!-- Node5 -->
<g id="node5" class="node">
<title>Node5</title>
<g id="a_node5"><a xlink:href="../../d6/de0/vlayoutpiece_8h.html" target="_top" xlink:title=" ">
<polygon fill="white" stroke="black" points="859,-145.5 859,-164.5 1025,-164.5 1025,-145.5 859,-145.5"/>
<text text-anchor="middle" x="942" y="-152.5" font-family="Helvetica,sans-Serif" font-size="10.00">src/libs/vlayout/vlayoutpiece.h</text>
</a>
</g>
</g>
<!-- Node2&#45;&gt;Node5 -->
<g id="edge5" class="edge">
<title>Node2&#45;&gt;Node5</title>
<path fill="none" stroke="midnightblue" d="M5590.06,-225.54C5075.14,-217.84 1609.25,-165.98 1025.42,-157.25"/>
<polygon fill="midnightblue" stroke="midnightblue" points="5590.22,-229.05 5600.27,-225.7 5590.32,-222.05 5590.22,-229.05"/>
</g>
<!-- Node15 -->
<g id="node14" class="node">
<title>Node15</title>
<g id="a_node14"><a xlink:href="../../d8/d70/vtextmanager_8cpp.html" target="_top" xlink:title=" ">
<polygon fill="white" stroke="black" points="1530,-73 1530,-92 1712,-92 1712,-73 1530,-73"/>
<text text-anchor="middle" x="1621" y="-80" font-family="Helvetica,sans-Serif" font-size="10.00">src/libs/vlayout/vtextmanager.cpp</text>
</a>
</g>
</g>
<!-- Node2&#45;&gt;Node15 -->
<g id="edge16" class="edge">
<title>Node2&#45;&gt;Node15</title>
<path fill="none" stroke="midnightblue" d="M5589.93,-225.56C5325.39,-221.58 4292.17,-204.93 3443,-176 2677.33,-149.92 2483.69,-170.39 1721,-98 1705.28,-96.51 1688.26,-94.27 1672.78,-92"/>
<polygon fill="midnightblue" stroke="midnightblue" points="5590.07,-229.06 5600.12,-225.71 5590.17,-222.07 5590.07,-229.06"/>
</g>
<!-- Node16 -->
<g id="node15" class="node">
<title>Node16</title>
<g id="a_node15"><a xlink:href="../../d5/d74/vabstractapplication_8h.html" target="_top" xlink:title=" ">
<polygon fill="white" stroke="red" points="3452.5,-145.5 3452.5,-164.5 3647.5,-164.5 3647.5,-145.5 3452.5,-145.5"/>
<text text-anchor="middle" x="3550" y="-152.5" font-family="Helvetica,sans-Serif" font-size="10.00">src/libs/vmisc/vabstractapplication.h</text>
</a>
</g>
</g>
<!-- Node2&#45;&gt;Node16 -->
<g id="edge17" class="edge">
<title>Node2&#45;&gt;Node16</title>
<path fill="none" stroke="midnightblue" d="M5590.12,-224.36C5289.16,-214.28 4012.2,-171.49 3647.58,-159.27"/>
<polygon fill="midnightblue" stroke="midnightblue" points="5590.3,-227.87 5600.41,-224.7 5590.53,-220.87 5590.3,-227.87"/>
</g>
<!-- Node34 -->
<g id="node29" class="node">
<title>Node34</title>
<g id="a_node29"><a xlink:href="../../db/d11/vformula_8cpp.html" target="_top" xlink:title=" ">
<polygon fill="white" stroke="black" points="5505.5,-67.5 5505.5,-97.5 5612.5,-97.5 5612.5,-67.5 5505.5,-67.5"/>
<text text-anchor="start" x="5513.5" y="-85.5" font-family="Helvetica,sans-Serif" font-size="10.00">src/libs/vpatterndb</text>
<text text-anchor="middle" x="5559" y="-74.5" font-family="Helvetica,sans-Serif" font-size="10.00">/vformula.cpp</text>
</a>
</g>
</g>
<!-- Node2&#45;&gt;Node34 -->
<g id="edge51" class="edge">
<title>Node2&#45;&gt;Node34</title>
<path fill="none" stroke="midnightblue" d="M5634.44,-204.68C5627.06,-196.01 5618.8,-185.79 5612,-176 5593.63,-149.55 5575.75,-116.32 5566.18,-97.75"/>
<polygon fill="midnightblue" stroke="midnightblue" points="5631.98,-207.18 5641.18,-212.44 5637.27,-202.59 5631.98,-207.18"/>
</g>
<!-- Node35 -->
<g id="node30" class="node">
<title>Node35</title>
<g id="a_node30"><a xlink:href="../../d6/d46/vcontainer_8cpp.html" target="_top" xlink:title=" ">
<polygon fill="white" stroke="black" points="5630.5,-67.5 5630.5,-97.5 5737.5,-97.5 5737.5,-67.5 5630.5,-67.5"/>
<text text-anchor="start" x="5638.5" y="-85.5" font-family="Helvetica,sans-Serif" font-size="10.00">src/libs/vpatterndb</text>
<text text-anchor="middle" x="5684" y="-74.5" font-family="Helvetica,sans-Serif" font-size="10.00">/vcontainer.cpp</text>
</a>
</g>
</g>
<!-- Node2&#45;&gt;Node35 -->
<g id="edge52" class="edge">
<title>Node2&#45;&gt;Node35</title>
<path fill="none" stroke="midnightblue" d="M5635.41,-204.14C5629.62,-195.83 5623.97,-185.98 5621,-176 5615.67,-158.11 5612.92,-150.83 5621,-134 5628.46,-118.46 5643.3,-106.19 5656.7,-97.64"/>
<polygon fill="midnightblue" stroke="midnightblue" points="5632.61,-206.25 5641.39,-212.19 5638.23,-202.07 5632.61,-206.25"/>
</g>
<!-- Node36 -->
<g id="node31" class="node">
<title>Node36</title>
<g id="a_node31"><a xlink:href="../../df/d7a/vpiece_8cpp.html" target="_top" xlink:title=" ">
<polygon fill="white" stroke="black" points="5755.5,-67.5 5755.5,-97.5 5862.5,-97.5 5862.5,-67.5 5755.5,-67.5"/>
<text text-anchor="start" x="5763.5" y="-85.5" font-family="Helvetica,sans-Serif" font-size="10.00">src/libs/vpatterndb</text>
<text text-anchor="middle" x="5809" y="-74.5" font-family="Helvetica,sans-Serif" font-size="10.00">/vpiece.cpp</text>
</a>
</g>
</g>
<!-- Node2&#45;&gt;Node36 -->
<g id="edge55" class="edge">
<title>Node2&#45;&gt;Node36</title>
<path fill="none" stroke="midnightblue" d="M5648.41,-202.29C5645.2,-182 5644.31,-153.32 5659,-134 5665.32,-125.69 5717.02,-109.44 5757.98,-97.62"/>
<polygon fill="midnightblue" stroke="midnightblue" points="5645.01,-203.13 5650.28,-212.32 5651.89,-201.84 5645.01,-203.13"/>
</g>
<!-- Node39 -->
<g id="node34" class="node">
<title>Node39</title>
<g id="a_node34"><a xlink:href="../../d8/dba/vpiecenode_8cpp.html" target="_top" xlink:title=" ">
<polygon fill="white" stroke="black" points="4762.5,-0.5 4762.5,-30.5 4869.5,-30.5 4869.5,-0.5 4762.5,-0.5"/>
<text text-anchor="start" x="4770.5" y="-18.5" font-family="Helvetica,sans-Serif" font-size="10.00">src/libs/vpatterndb</text>
<text text-anchor="middle" x="4816" y="-7.5" font-family="Helvetica,sans-Serif" font-size="10.00">/vpiecenode.cpp</text>
</a>
</g>
</g>
<!-- Node2&#45;&gt;Node39 -->
<g id="edge54" class="edge">
<title>Node2&#45;&gt;Node39</title>
<path fill="none" stroke="midnightblue" d="M5657.4,-202.6C5661.71,-181.36 5671.26,-151.11 5692,-134 5757.53,-79.95 5929.61,-128.48 5871,-67 5836.15,-30.44 5079.5,-19.4 4869.58,-17.04"/>
<polygon fill="midnightblue" stroke="midnightblue" points="5653.94,-202.02 5655.63,-212.48 5660.84,-203.25 5653.94,-202.02"/>
</g>
<!-- Node55 -->
<g id="node44" class="node">
<title>Node55</title>
<g id="a_node44"><a xlink:href="../../d7/d8a/measurement__variable__p_8h.html" target="_top" xlink:title=" ">
<polygon fill="white" stroke="red" points="5701,-134.5 5701,-175.5 5837,-175.5 5837,-134.5 5701,-134.5"/>
<text text-anchor="start" x="5709" y="-163.5" font-family="Helvetica,sans-Serif" font-size="10.00">src/libs/vpatterndb</text>
<text text-anchor="start" x="5709" y="-152.5" font-family="Helvetica,sans-Serif" font-size="10.00">/variables/measurement</text>
<text text-anchor="middle" x="5769" y="-141.5" font-family="Helvetica,sans-Serif" font-size="10.00">_variable_p.h</text>
</a>
</g>
</g>
<!-- Node2&#45;&gt;Node55 -->
<g id="edge49" class="edge">
<title>Node2&#45;&gt;Node55</title>
<path fill="none" stroke="midnightblue" d="M5685.92,-206.93C5701.82,-197.19 5720.98,-185.44 5736.9,-175.68"/>
<polygon fill="midnightblue" stroke="midnightblue" points="5683.69,-204.19 5677,-212.4 5687.35,-210.16 5683.69,-204.19"/>
</g>
<!-- Node57 -->
<g id="node45" class="node">
<title>Node57</title>
<g id="a_node45"><a xlink:href="../../d1/de1/vincrement__p_8h.html" target="_top" xlink:title=" ">
<polygon fill="white" stroke="red" points="5855.5,-140 5855.5,-170 5998.5,-170 5998.5,-140 5855.5,-140"/>
<text text-anchor="start" x="5863.5" y="-158" font-family="Helvetica,sans-Serif" font-size="10.00">src/libs/vpatterndb</text>
<text text-anchor="middle" x="5927" y="-147" font-family="Helvetica,sans-Serif" font-size="10.00">/variables/vincrement_p.h</text>
</a>
</g>
</g>
<!-- Node2&#45;&gt;Node57 -->
<g id="edge50" class="edge">
<title>Node2&#45;&gt;Node57</title>
<path fill="none" stroke="midnightblue" d="M5717.38,-210.13C5764.4,-197.99 5827.84,-181.61 5872.58,-170.05"/>
<polygon fill="midnightblue" stroke="midnightblue" points="5716.42,-206.77 5707.61,-212.66 5718.17,-213.54 5716.42,-206.77"/>
</g>
<!-- Node2&#45;&gt;Node59 -->
<g id="edge53" class="edge">
<title>Node2&#45;&gt;Node59</title>
<path fill="none" stroke="midnightblue" d="M5718.03,-226.68C5839.22,-225.94 6109.99,-219.08 6333,-176 6340.77,-174.5 6348.93,-172.35 6356.71,-170.02"/>
<polygon fill="midnightblue" stroke="midnightblue" points="5717.8,-223.18 5707.82,-226.73 5717.83,-230.18 5717.8,-223.18"/>
</g>
<!-- Node2&#45;&gt;Node60 -->
<g id="edge56" class="edge">
<title>Node2&#45;&gt;Node60</title>
<path fill="none" stroke="midnightblue" d="M5718.17,-224.5C5882.69,-219.03 6316.51,-202.49 6458,-176 6465.78,-174.54 6473.95,-172.42 6481.72,-170.09"/>
<polygon fill="midnightblue" stroke="midnightblue" points="5717.61,-221.01 5707.73,-224.84 5717.84,-228.01 5717.61,-221.01"/>
</g>
<!-- Node61 -->
<g id="node48" class="node">
<title>Node61</title>
<g id="a_node48"><a xlink:href="../../d1/d3a/abstracttest_8cpp.html" target="_top" xlink:title=" ">
<polygon fill="white" stroke="black" points="6016.5,-145.5 6016.5,-164.5 6177.5,-164.5 6177.5,-145.5 6016.5,-145.5"/>
<text text-anchor="middle" x="6097" y="-152.5" font-family="Helvetica,sans-Serif" font-size="10.00">src/libs/vtest/abstracttest.cpp</text>
</a>
</g>
</g>
<!-- Node2&#45;&gt;Node61 -->
<g id="edge57" class="edge">
<title>Node2&#45;&gt;Node61</title>
<path fill="none" stroke="midnightblue" d="M5717.84,-218.86C5788.73,-210.03 5906.43,-194.34 6007,-176 6025.11,-172.7 6045.11,-168.33 6061.65,-164.51"/>
<polygon fill="midnightblue" stroke="midnightblue" points="5717.22,-215.41 5707.73,-220.11 5718.09,-222.36 5717.22,-215.41"/>
</g>
<!-- Node62 -->
<g id="node49" class="node">
<title>Node62</title>
<g id="a_node49"><a xlink:href="../../da/db4/piece__tablewidgetitem_8cpp.html" target="_top" xlink:title=" ">
<polygon fill="white" stroke="black" points="6196,-140 6196,-170 6324,-170 6324,-140 6196,-140"/>
<text text-anchor="start" x="6204" y="-158" font-family="Helvetica,sans-Serif" font-size="10.00">src/libs/vwidgets/piece</text>
<text text-anchor="middle" x="6260" y="-147" font-family="Helvetica,sans-Serif" font-size="10.00">_tablewidgetitem.cpp</text>
</a>
</g>
</g>
<!-- Node2&#45;&gt;Node62 -->
<g id="edge58" class="edge">
<title>Node2&#45;&gt;Node62</title>
<path fill="none" stroke="midnightblue" d="M5717.92,-223.93C5818.29,-219.11 6018.7,-206.32 6186,-176 6194.77,-174.41 6204.02,-172.28 6212.9,-170.01"/>
<polygon fill="midnightblue" stroke="midnightblue" points="5717.47,-220.45 5707.64,-224.41 5717.8,-227.44 5717.47,-220.45"/>
</g>
<!-- Node3&#45;&gt;Node4 -->
<g id="edge3" class="edge">
<title>Node3&#45;&gt;Node4</title>
<path fill="none" stroke="midnightblue" d="M221.82,-141.18C190.47,-126.92 140.68,-104.28 113.76,-92.03"/>
<polygon fill="midnightblue" stroke="midnightblue" points="220.75,-144.54 231.3,-145.5 223.65,-138.17 220.75,-144.54"/>
</g>
<!-- Node6 -->
<g id="node6" class="node">
<title>Node6</title>
<g id="a_node6"><a xlink:href="../../dd/d66/vdxfengine_8cpp.html" target="_top" xlink:title=" ">
<polygon fill="white" stroke="black" points="208,-73 208,-92 362,-92 362,-73 208,-73"/>
<text text-anchor="middle" x="285" y="-80" font-family="Helvetica,sans-Serif" font-size="10.00">src/libs/vdxf/vdxfengine.cpp</text>
</a>
</g>
</g>
<!-- Node5&#45;&gt;Node6 -->
<g id="edge6" class="edge">
<title>Node5&#45;&gt;Node6</title>
<path fill="none" stroke="midnightblue" d="M848.55,-146.83C735.28,-137.69 538.73,-120.34 371,-98 358.39,-96.32 344.8,-94.18 332.23,-92.07"/>
<polygon fill="midnightblue" stroke="midnightblue" points="848.33,-150.33 858.58,-147.64 848.89,-143.35 848.33,-150.33"/>
</g>
<!-- Node7 -->
<g id="node7" class="node">
<title>Node7</title>
<g id="a_node7"><a xlink:href="../../de/da8/vbank_8cpp.html" target="_top" xlink:title=" ">
<polygon fill="white" stroke="black" points="380,-73 380,-92 524,-92 524,-73 380,-73"/>
<text text-anchor="middle" x="452" y="-80" font-family="Helvetica,sans-Serif" font-size="10.00">src/libs/vlayout/vbank.cpp</text>
</a>
</g>
</g>
<!-- Node5&#45;&gt;Node7 -->
<g id="edge7" class="edge">
<title>Node5&#45;&gt;Node7</title>
<path fill="none" stroke="midnightblue" d="M863.44,-144.22C780.99,-133.72 647.68,-116.11 533,-98 521.57,-96.2 509.26,-94.08 497.78,-92.03"/>
<polygon fill="midnightblue" stroke="midnightblue" points="863.13,-147.7 873.49,-145.49 864.01,-140.76 863.13,-147.7"/>
</g>
<!-- Node8 -->
<g id="node8" class="node">
<title>Node8</title>
<g id="a_node8"><a xlink:href="../../df/d5d/vcontour_8cpp.html" target="_top" xlink:title=" ">
<polygon fill="white" stroke="black" points="542,-73 542,-92 698,-92 698,-73 542,-73"/>
<text text-anchor="middle" x="620" y="-80" font-family="Helvetica,sans-Serif" font-size="10.00">src/libs/vlayout/vcontour.cpp</text>
</a>
</g>
</g>
<!-- Node5&#45;&gt;Node8 -->
<g id="edge8" class="edge">
<title>Node5&#45;&gt;Node8</title>
<path fill="none" stroke="midnightblue" d="M893.29,-143.34C829.2,-129.3 717.81,-104.91 658.98,-92.03"/>
<polygon fill="midnightblue" stroke="midnightblue" points="892.64,-146.78 903.16,-145.5 894.14,-139.94 892.64,-146.78"/>
</g>
<!-- Node9 -->
<g id="node9" class="node">
<title>Node9</title>
<g id="a_node9"><a xlink:href="../../d3/d39/vlayoutgenerator_8cpp.html" target="_top" xlink:title=" ">
<polygon fill="white" stroke="black" points="716.5,-73 716.5,-92 913.5,-92 913.5,-73 716.5,-73"/>
<text text-anchor="middle" x="815" y="-80" font-family="Helvetica,sans-Serif" font-size="10.00">src/libs/vlayout/vlayoutgenerator.cpp</text>
</a>
</g>
</g>
<!-- Node5&#45;&gt;Node9 -->
<g id="edge9" class="edge">
<title>Node5&#45;&gt;Node9</title>
<path fill="none" stroke="midnightblue" d="M917.68,-140.5C892.06,-126.28 852.48,-104.3 830.7,-92.22"/>
<polygon fill="midnightblue" stroke="midnightblue" points="915.99,-143.56 926.43,-145.36 919.38,-137.44 915.99,-143.56"/>
</g>
<!-- Node10 -->
<g id="node10" class="node">
<title>Node10</title>
<g id="a_node10"><a xlink:href="../../d1/dd1/vlayoutpaper_8cpp.html" target="_top" xlink:title=" ">
<polygon fill="white" stroke="black" points="971,-6 971,-25 1149,-25 1149,-6 971,-6"/>
<text text-anchor="middle" x="1060" y="-13" font-family="Helvetica,sans-Serif" font-size="10.00">src/libs/vlayout/vlayoutpaper.cpp</text>
</a>
</g>
</g>
<!-- Node5&#45;&gt;Node10 -->
<g id="edge10" class="edge">
<title>Node5&#45;&gt;Node10</title>
<path fill="none" stroke="midnightblue" d="M941.62,-135.24C942.18,-116.19 945.76,-86.76 961,-67 977.5,-45.61 1005.56,-32.51 1027.6,-25.04"/>
<polygon fill="midnightblue" stroke="midnightblue" points="938.12,-135.33 941.58,-145.34 945.12,-135.36 938.12,-135.33"/>
</g>
<!-- Node11 -->
<g id="node11" class="node">
<title>Node11</title>
<g id="a_node11"><a xlink:href="../../d2/d2d/vlayoutpaper__p_8h.html" target="_top" xlink:title=" ">
<polygon fill="white" stroke="black" points="970.5,-73 970.5,-92 1149.5,-92 1149.5,-73 970.5,-73"/>
<text text-anchor="middle" x="1060" y="-80" font-family="Helvetica,sans-Serif" font-size="10.00">src/libs/vlayout/vlayoutpaper_p.h</text>
</a>
</g>
</g>
<!-- Node5&#45;&gt;Node11 -->
<g id="edge11" class="edge">
<title>Node5&#45;&gt;Node11</title>
<path fill="none" stroke="midnightblue" d="M965.23,-140.12C989.04,-125.89 1025.35,-104.2 1045.41,-92.22"/>
<polygon fill="midnightblue" stroke="midnightblue" points="963.26,-137.22 956.47,-145.36 966.85,-143.23 963.26,-137.22"/>
</g>
<!-- Node12 -->
<g id="node12" class="node">
<title>Node12</title>
<g id="a_node12"><a xlink:href="../../dd/d70/vlayoutpiece_8cpp.html" target="_top" xlink:title=" ">
<polygon fill="white" stroke="black" points="1334.5,-73 1334.5,-92 1511.5,-92 1511.5,-73 1334.5,-73"/>
<text text-anchor="middle" x="1423" y="-80" font-family="Helvetica,sans-Serif" font-size="10.00">src/libs/vlayout/vlayoutpiece.cpp</text>
</a>
</g>
</g>
<!-- Node5&#45;&gt;Node12 -->
<g id="edge13" class="edge">
<title>Node5&#45;&gt;Node12</title>
<path fill="none" stroke="midnightblue" d="M1010.41,-144.03C1087.03,-132.86 1214.92,-114.19 1325,-98 1338.1,-96.07 1352.19,-93.99 1365.48,-92.03"/>
<polygon fill="midnightblue" stroke="midnightblue" points="1009.79,-140.59 1000.4,-145.49 1010.8,-147.51 1009.79,-140.59"/>
</g>
<!-- Node13 -->
<g id="node13" class="node">
<title>Node13</title>
<g id="a_node13"><a xlink:href="../../db/d5c/vposition_8h.html" target="_top" xlink:title=" ">
<polygon fill="white" stroke="red" points="1168,-73 1168,-92 1316,-92 1316,-73 1168,-73"/>
<text text-anchor="middle" x="1242" y="-80" font-family="Helvetica,sans-Serif" font-size="10.00">src/libs/vlayout/vposition.h</text>
</a>
</g>
</g>
<!-- Node5&#45;&gt;Node13 -->
<g id="edge14" class="edge">
<title>Node5&#45;&gt;Node13</title>
<path fill="none" stroke="midnightblue" d="M988.12,-143.16C1047.95,-129.1 1151.1,-104.86 1205.68,-92.03"/>
<polygon fill="midnightblue" stroke="midnightblue" points="987.12,-139.8 978.19,-145.5 988.72,-146.62 987.12,-139.8"/>
</g>
<!-- Node11&#45;&gt;Node10 -->
<g id="edge12" class="edge">
<title>Node11&#45;&gt;Node10</title>
<path fill="none" stroke="midnightblue" d="M1060,-62.54C1060,-50.17 1060,-34.62 1060,-25.13"/>
<polygon fill="midnightblue" stroke="midnightblue" points="1056.5,-62.73 1060,-72.73 1063.5,-62.73 1056.5,-62.73"/>
</g>
<!-- Node13&#45;&gt;Node10 -->
<g id="edge15" class="edge">
<title>Node13&#45;&gt;Node10</title>
<path fill="none" stroke="midnightblue" d="M1208.22,-69.44C1172.12,-56.54 1115.79,-36.42 1083.98,-25.06"/>
<polygon fill="midnightblue" stroke="midnightblue" points="1207.24,-72.8 1217.83,-72.87 1209.59,-66.21 1207.24,-72.8"/>
</g>
<!-- Node16&#45;&gt;Node12 -->
<g id="edge28" class="edge">
<title>Node16&#45;&gt;Node12</title>
<path fill="none" stroke="midnightblue" d="M3442.08,-152.72C3078.38,-148.15 1899.24,-131.08 1521,-98 1505.24,-96.62 1488.15,-94.36 1472.72,-92.03"/>
<polygon fill="midnightblue" stroke="midnightblue" points="3442.29,-156.23 3452.34,-152.85 3442.38,-149.23 3442.29,-156.23"/>
</g>
<!-- Node16&#45;&gt;Node15 -->
<g id="edge29" class="edge">
<title>Node16&#45;&gt;Node15</title>
<path fill="none" stroke="midnightblue" d="M3442.4,-152.31C3103.15,-146.73 2058.49,-127.54 1721,-98 1705.01,-96.6 1687.67,-94.35 1672,-92.03"/>
<polygon fill="midnightblue" stroke="midnightblue" points="3442.42,-155.81 3452.47,-152.48 3442.53,-148.81 3442.42,-155.81"/>
</g>
<!-- Node17 -->
<g id="node16" class="node">
<title>Node17</title>
<g id="a_node16"><a xlink:href="../../d4/d90/fvupdater_8cpp.html" target="_top" xlink:title=" ">
<polygon fill="white" stroke="black" points="1730.5,-73 1730.5,-92 1883.5,-92 1883.5,-73 1730.5,-73"/>
<text text-anchor="middle" x="1807" y="-80" font-family="Helvetica,sans-Serif" font-size="10.00">src/libs/fervor/fvupdater.cpp</text>
</a>
</g>
</g>
<!-- Node16&#45;&gt;Node17 -->
<g id="edge18" class="edge">
<title>Node16&#45;&gt;Node17</title>
<path fill="none" stroke="midnightblue" d="M3442.16,-152.26C3124.26,-146.85 2194.23,-128.74 1892,-98 1878.3,-96.61 1863.47,-94.34 1850.09,-92.01"/>
<polygon fill="midnightblue" stroke="midnightblue" points="3442.24,-155.77 3452.29,-152.44 3442.36,-148.77 3442.24,-155.77"/>
</g>
<!-- Node18 -->
<g id="node17" class="node">
<title>Node18</title>
<g id="a_node17"><a xlink:href="../../d9/dc8/dxiface_8cpp.html" target="_top" xlink:title=" ">
<polygon fill="white" stroke="black" points="1901.5,-73 1901.5,-92 2036.5,-92 2036.5,-73 1901.5,-73"/>
<text text-anchor="middle" x="1969" y="-80" font-family="Helvetica,sans-Serif" font-size="10.00">src/libs/vdxf/dxiface.cpp</text>
</a>
</g>
</g>
<!-- Node16&#45;&gt;Node18 -->
<g id="edge19" class="edge">
<title>Node16&#45;&gt;Node18</title>
<path fill="none" stroke="midnightblue" d="M3441.88,-152.1C3144.04,-146.54 2315.88,-128.7 2045,-98 2032.72,-96.61 2019.45,-94.34 2007.49,-92.01"/>
<polygon fill="midnightblue" stroke="midnightblue" points="3442.18,-155.61 3452.25,-152.3 3442.31,-148.61 3442.18,-155.61"/>
</g>
<!-- Node19 -->
<g id="node18" class="node">
<title>Node19</title>
<g id="a_node18"><a xlink:href="../../da/d75/vabstractarc__p_8h.html" target="_top" xlink:title=" ">
<polygon fill="white" stroke="red" points="2054.5,-67.5 2054.5,-97.5 2161.5,-97.5 2161.5,-67.5 2054.5,-67.5"/>
<text text-anchor="start" x="2062.5" y="-85.5" font-family="Helvetica,sans-Serif" font-size="10.00">src/libs/vgeometry</text>
<text text-anchor="middle" x="2108" y="-74.5" font-family="Helvetica,sans-Serif" font-size="10.00">/vabstractarc_p.h</text>
</a>
</g>
</g>
<!-- Node16&#45;&gt;Node19 -->
<g id="edge20" class="edge">
<title>Node16&#45;&gt;Node19</title>
<path fill="none" stroke="midnightblue" d="M3441.97,-152.26C3161.53,-147.31 2415.11,-131.33 2170,-98 2167.26,-97.63 2164.47,-97.19 2161.65,-96.7"/>
<polygon fill="midnightblue" stroke="midnightblue" points="3442.09,-155.76 3452.15,-152.44 3442.22,-148.76 3442.09,-155.76"/>
</g>
<!-- Node21 -->
<g id="node19" class="node">
<title>Node21</title>
<g id="a_node19"><a xlink:href="../../dc/da3/varc__p_8h.html" target="_top" xlink:title=" ">
<polygon fill="white" stroke="red" points="2179.5,-67.5 2179.5,-97.5 2286.5,-97.5 2286.5,-67.5 2179.5,-67.5"/>
<text text-anchor="start" x="2187.5" y="-85.5" font-family="Helvetica,sans-Serif" font-size="10.00">src/libs/vgeometry</text>
<text text-anchor="middle" x="2233" y="-74.5" font-family="Helvetica,sans-Serif" font-size="10.00">/varc_p.h</text>
</a>
</g>
</g>
<!-- Node16&#45;&gt;Node21 -->
<g id="edge21" class="edge">
<title>Node16&#45;&gt;Node21</title>
<path fill="none" stroke="midnightblue" d="M3442.11,-151.75C3180.01,-145.88 2515.13,-128.39 2295,-98 2292.26,-97.62 2289.47,-97.18 2286.65,-96.69"/>
<polygon fill="midnightblue" stroke="midnightblue" points="3442.33,-155.26 3452.4,-151.98 3442.48,-148.26 3442.33,-155.26"/>
</g>
<!-- Node23 -->
<g id="node20" class="node">
<title>Node23</title>
<g id="a_node20"><a xlink:href="../../d5/d8e/vcubicbezier__p_8h.html" target="_top" xlink:title=" ">
<polygon fill="white" stroke="red" points="2304.5,-67.5 2304.5,-97.5 2411.5,-97.5 2411.5,-67.5 2304.5,-67.5"/>
<text text-anchor="start" x="2312.5" y="-85.5" font-family="Helvetica,sans-Serif" font-size="10.00">src/libs/vgeometry</text>
<text text-anchor="middle" x="2358" y="-74.5" font-family="Helvetica,sans-Serif" font-size="10.00">/vcubicbezier_p.h</text>
</a>
</g>
</g>
<!-- Node16&#45;&gt;Node23 -->
<g id="edge22" class="edge">
<title>Node16&#45;&gt;Node23</title>
<path fill="none" stroke="midnightblue" d="M3442.07,-151.13C3199.1,-144.28 2615.23,-125.44 2420,-98 2417.26,-97.62 2414.47,-97.17 2411.66,-96.67"/>
<polygon fill="midnightblue" stroke="midnightblue" points="3442.23,-154.64 3452.33,-151.42 3442.43,-147.64 3442.23,-154.64"/>
</g>
<!-- Node25 -->
<g id="node21" class="node">
<title>Node25</title>
<g id="a_node21"><a xlink:href="../../df/dde/vellipticalarc__p_8h.html" target="_top" xlink:title=" ">
<polygon fill="white" stroke="black" points="2429.5,-67.5 2429.5,-97.5 2536.5,-97.5 2536.5,-67.5 2429.5,-67.5"/>
<text text-anchor="start" x="2437.5" y="-85.5" font-family="Helvetica,sans-Serif" font-size="10.00">src/libs/vgeometry</text>
<text text-anchor="middle" x="2483" y="-74.5" font-family="Helvetica,sans-Serif" font-size="10.00">/vellipticalarc_p.h</text>
</a>
</g>
</g>
<!-- Node16&#45;&gt;Node25 -->
<g id="edge23" class="edge">
<title>Node16&#45;&gt;Node25</title>
<path fill="none" stroke="midnightblue" d="M3442.19,-153.39C3258.48,-151.13 2873.33,-141.14 2551,-98 2546.33,-97.38 2541.51,-96.6 2536.69,-95.75"/>
<polygon fill="midnightblue" stroke="midnightblue" points="3442.35,-156.89 3452.39,-153.51 3442.43,-149.89 3442.35,-156.89"/>
</g>
<!-- Node26 -->
<g id="node22" class="node">
<title>Node26</title>
<g id="a_node22"><a xlink:href="../../d6/dfb/vellipticalarc_8cpp.html" target="_top" xlink:title=" ">
<polygon fill="white" stroke="black" points="2470.5,-0.5 2470.5,-30.5 2577.5,-30.5 2577.5,-0.5 2470.5,-0.5"/>
<text text-anchor="start" x="2478.5" y="-18.5" font-family="Helvetica,sans-Serif" font-size="10.00">src/libs/vgeometry</text>
<text text-anchor="middle" x="2524" y="-7.5" font-family="Helvetica,sans-Serif" font-size="10.00">/vellipticalarc.cpp</text>
</a>
</g>
</g>
<!-- Node16&#45;&gt;Node26 -->
<g id="edge26" class="edge">
<title>Node16&#45;&gt;Node26</title>
<path fill="none" stroke="midnightblue" d="M3441.8,-152.88C3205.37,-149.69 2657.8,-138.03 2584,-98 2556.66,-83.17 2538.45,-49.89 2529.81,-30.76"/>
<polygon fill="midnightblue" stroke="midnightblue" points="3442.1,-156.38 3452.14,-153.01 3442.19,-149.38 3442.1,-156.38"/>
</g>
<!-- Node27 -->
<g id="node23" class="node">
<title>Node27</title>
<g id="a_node23"><a xlink:href="../../d1/d76/vspline__p_8h.html" target="_top" xlink:title=" ">
<polygon fill="white" stroke="red" points="2593.5,-67.5 2593.5,-97.5 2700.5,-97.5 2700.5,-67.5 2593.5,-67.5"/>
<text text-anchor="start" x="2601.5" y="-85.5" font-family="Helvetica,sans-Serif" font-size="10.00">src/libs/vgeometry</text>
<text text-anchor="middle" x="2647" y="-74.5" font-family="Helvetica,sans-Serif" font-size="10.00">/vspline_p.h</text>
</a>
</g>
</g>
<!-- Node16&#45;&gt;Node27 -->
<g id="edge25" class="edge">
<title>Node16&#45;&gt;Node27</title>
<path fill="none" stroke="midnightblue" d="M3442.11,-152.3C3281.66,-148.54 2971.04,-136.49 2710,-98 2706.89,-97.54 2703.71,-97.01 2700.51,-96.43"/>
<polygon fill="midnightblue" stroke="midnightblue" points="3442.38,-155.81 3452.46,-152.54 3442.54,-148.81 3442.38,-155.81"/>
</g>
<!-- Node29 -->
<g id="node24" class="node">
<title>Node29</title>
<g id="a_node24"><a xlink:href="../../d9/d15/vabstractpiece_8cpp.html" target="_top" xlink:title=" ">
<polygon fill="white" stroke="black" points="2719,-73 2719,-92 2905,-92 2905,-73 2719,-73"/>
<text text-anchor="middle" x="2812" y="-80" font-family="Helvetica,sans-Serif" font-size="10.00">src/libs/vlayout/vabstractpiece.cpp</text>
</a>
</g>
</g>
<!-- Node16&#45;&gt;Node29 -->
<g id="edge27" class="edge">
<title>Node16&#45;&gt;Node29</title>
<path fill="none" stroke="midnightblue" d="M3442.23,-146.27C3315.59,-136.79 3099.21,-119.3 2914,-98 2899.07,-96.28 2882.96,-94.13 2868.05,-92.02"/>
<polygon fill="midnightblue" stroke="midnightblue" points="3442.09,-149.77 3452.32,-147.03 3442.61,-142.79 3442.09,-149.77"/>
</g>
<!-- Node30 -->
<g id="node25" class="node">
<title>Node30</title>
<g id="a_node25"><a xlink:href="../../db/d65/dialogexporttocsv_8cpp.html" target="_top" xlink:title=" ">
<polygon fill="white" stroke="black" points="2923.5,-67.5 2923.5,-97.5 3050.5,-97.5 3050.5,-67.5 2923.5,-67.5"/>
<text text-anchor="start" x="2931.5" y="-85.5" font-family="Helvetica,sans-Serif" font-size="10.00">src/libs/vmisc/dialogs</text>
<text text-anchor="middle" x="2987" y="-74.5" font-family="Helvetica,sans-Serif" font-size="10.00">/dialogexporttocsv.cpp</text>
</a>
</g>
</g>
<!-- Node16&#45;&gt;Node30 -->
<g id="edge30" class="edge">
<title>Node16&#45;&gt;Node30</title>
<path fill="none" stroke="midnightblue" d="M3444.78,-144.5C3345.33,-134.93 3192.09,-118.63 3060,-98 3056.94,-97.52 3053.81,-97.01 3050.65,-96.46"/>
<polygon fill="midnightblue" stroke="midnightblue" points="3444.55,-148 3454.84,-145.46 3445.22,-141.03 3444.55,-148"/>
</g>
<!-- Node31 -->
<g id="node26" class="node">
<title>Node31</title>
<g id="a_node26"><a xlink:href="../../d6/d0b/def_8cpp.html" target="_top" xlink:title=" ">
<polygon fill="white" stroke="black" points="3069,-73 3069,-92 3191,-92 3191,-73 3069,-73"/>
<text text-anchor="middle" x="3130" y="-80" font-family="Helvetica,sans-Serif" font-size="10.00">src/libs/vmisc/def.cpp</text>
</a>
</g>
</g>
<!-- Node16&#45;&gt;Node31 -->
<g id="edge31" class="edge">
<title>Node16&#45;&gt;Node31</title>
<path fill="none" stroke="midnightblue" d="M3481.54,-143.99C3410.87,-133.44 3297.49,-115.89 3200,-98 3190.11,-96.19 3179.47,-94.07 3169.55,-92.02"/>
<polygon fill="midnightblue" stroke="midnightblue" points="3481.24,-147.48 3491.65,-145.5 3482.27,-140.56 3481.24,-147.48"/>
</g>
<!-- Node32 -->
<g id="node27" class="node">
<title>Node32</title>
<g id="a_node27"><a xlink:href="../../d0/df6/vabstractapplication_8cpp.html" target="_top" xlink:title=" ">
<polygon fill="white" stroke="black" points="3209,-73 3209,-92 3415,-92 3415,-73 3209,-73"/>
<text text-anchor="middle" x="3312" y="-80" font-family="Helvetica,sans-Serif" font-size="10.00">src/libs/vmisc/vabstractapplication.cpp</text>
</a>
</g>
</g>
<!-- Node16&#45;&gt;Node32 -->
<g id="edge32" class="edge">
<title>Node16&#45;&gt;Node32</title>
<path fill="none" stroke="midnightblue" d="M3511.63,-142.63C3463.93,-128.5 3383.58,-104.7 3340.81,-92.03"/>
<polygon fill="midnightblue" stroke="midnightblue" points="3510.71,-146.01 3521.29,-145.5 3512.7,-139.3 3510.71,-146.01"/>
</g>
<!-- Node33 -->
<g id="node28" class="node">
<title>Node33</title>
<g id="a_node28"><a xlink:href="../../d4/d4f/pmsystems_8cpp.html" target="_top" xlink:title=" ">
<polygon fill="white" stroke="black" points="3433.5,-67.5 3433.5,-97.5 3540.5,-97.5 3540.5,-67.5 3433.5,-67.5"/>
<text text-anchor="start" x="3441.5" y="-85.5" font-family="Helvetica,sans-Serif" font-size="10.00">src/libs/vpatterndb</text>
<text text-anchor="middle" x="3487" y="-74.5" font-family="Helvetica,sans-Serif" font-size="10.00">/pmsystems.cpp</text>
</a>
</g>
</g>
<!-- Node16&#45;&gt;Node33 -->
<g id="edge33" class="edge">
<title>Node16&#45;&gt;Node33</title>
<path fill="none" stroke="midnightblue" d="M3535.47,-137.74C3524.62,-125.6 3509.93,-109.16 3499.58,-97.58"/>
<polygon fill="midnightblue" stroke="midnightblue" points="3533,-140.23 3542.27,-145.36 3538.22,-135.57 3533,-140.23"/>
</g>
<!-- Node16&#45;&gt;Node34 -->
<g id="edge34" class="edge">
<title>Node16&#45;&gt;Node34</title>
<path fill="none" stroke="midnightblue" d="M3657.83,-153.7C4011.82,-152.27 5136.23,-144.12 5496,-98 5499.01,-97.61 5502.08,-97.15 5505.17,-96.63"/>
<polygon fill="midnightblue" stroke="midnightblue" points="3657.57,-150.2 3647.59,-153.74 3657.6,-157.2 3657.57,-150.2"/>
</g>
<!-- Node16&#45;&gt;Node35 -->
<g id="edge35" class="edge">
<title>Node16&#45;&gt;Node35</title>
<path fill="none" stroke="midnightblue" d="M3657.78,-153.92C4026.46,-153.2 5235.7,-147.05 5621,-98 5624.01,-97.62 5627.08,-97.15 5630.17,-96.63"/>
<polygon fill="midnightblue" stroke="midnightblue" points="3657.63,-150.42 3647.64,-153.94 3657.65,-157.42 3657.63,-150.42"/>
</g>
<!-- Node16&#45;&gt;Node36 -->
<g id="edge36" class="edge">
<title>Node16&#45;&gt;Node36</title>
<path fill="none" stroke="midnightblue" d="M3658.01,-154.11C4041.31,-154.07 5335.21,-149.98 5746,-98 5749.01,-97.62 5752.08,-97.16 5755.17,-96.64"/>
<polygon fill="midnightblue" stroke="midnightblue" points="3657.76,-150.61 3647.76,-154.11 3657.76,-157.61 3657.76,-150.61"/>
</g>
<!-- Node37 -->
<g id="node32" class="node">
<title>Node37</title>
<g id="a_node32"><a xlink:href="../../de/d3e/vtranslatevars_8cpp.html" target="_top" xlink:title=" ">
<polygon fill="white" stroke="black" points="3559,-67.5 3559,-97.5 3669,-97.5 3669,-67.5 3559,-67.5"/>
<text text-anchor="start" x="3567" y="-85.5" font-family="Helvetica,sans-Serif" font-size="10.00">src/libs/vpatterndb</text>
<text text-anchor="middle" x="3614" y="-74.5" font-family="Helvetica,sans-Serif" font-size="10.00">/vtranslatevars.cpp</text>
</a>
</g>
</g>
<!-- Node16&#45;&gt;Node37 -->
<g id="edge37" class="edge">
<title>Node16&#45;&gt;Node37</title>
<path fill="none" stroke="midnightblue" d="M3564.76,-137.74C3575.78,-125.6 3590.7,-109.16 3601.22,-97.58"/>
<polygon fill="midnightblue" stroke="midnightblue" points="3561.98,-135.6 3557.85,-145.36 3567.16,-140.3 3561.98,-135.6"/>
</g>
<!-- Node38 -->
<g id="node33" class="node">
<title>Node38</title>
<g id="a_node33"><a xlink:href="../../df/dba/vpiecenode__p_8h.html" target="_top" xlink:title=" ">
<polygon fill="white" stroke="black" points="3687.5,-67.5 3687.5,-97.5 3794.5,-97.5 3794.5,-67.5 3687.5,-67.5"/>
<text text-anchor="start" x="3695.5" y="-85.5" font-family="Helvetica,sans-Serif" font-size="10.00">src/libs/vpatterndb</text>
<text text-anchor="middle" x="3741" y="-74.5" font-family="Helvetica,sans-Serif" font-size="10.00">/vpiecenode_p.h</text>
</a>
</g>
</g>
<!-- Node16&#45;&gt;Node38 -->
<g id="edge38" class="edge">
<title>Node16&#45;&gt;Node38</title>
<path fill="none" stroke="midnightblue" d="M3582.77,-141.9C3616.17,-129.58 3667.91,-110.48 3703.05,-97.51"/>
<polygon fill="midnightblue" stroke="midnightblue" points="3581.21,-138.75 3573.04,-145.5 3583.63,-145.32 3581.21,-138.75"/>
</g>
<!-- Node40 -->
<g id="node35" class="node">
<title>Node40</title>
<g id="a_node35"><a xlink:href="../../df/d40/export__format__combobox_8cpp.html" target="_top" xlink:title=" ">
<polygon fill="white" stroke="black" points="3812.5,-67.5 3812.5,-97.5 3945.5,-97.5 3945.5,-67.5 3812.5,-67.5"/>
<text text-anchor="start" x="3820.5" y="-85.5" font-family="Helvetica,sans-Serif" font-size="10.00">src/libs/vwidgets/export</text>
<text text-anchor="middle" x="3879" y="-74.5" font-family="Helvetica,sans-Serif" font-size="10.00">_format_combobox.cpp</text>
</a>
</g>
</g>
<!-- Node16&#45;&gt;Node40 -->
<g id="edge40" class="edge">
<title>Node16&#45;&gt;Node40</title>
<path fill="none" stroke="midnightblue" d="M3599.55,-143.38C3656.63,-131.15 3750.62,-111.01 3813.64,-97.51"/>
<polygon fill="midnightblue" stroke="midnightblue" points="3598.73,-139.98 3589.69,-145.5 3600.2,-146.82 3598.73,-139.98"/>
</g>
<!-- Node41 -->
<g id="node36" class="node">
<title>Node41</title>
<g id="a_node36"><a xlink:href="../../d3/d4f/mouse__coordinates_8cpp.html" target="_top" xlink:title=" ">
<polygon fill="white" stroke="black" points="3964,-67.5 3964,-97.5 4098,-97.5 4098,-67.5 3964,-67.5"/>
<text text-anchor="start" x="3972" y="-85.5" font-family="Helvetica,sans-Serif" font-size="10.00">src/libs/vwidgets/mouse</text>
<text text-anchor="middle" x="4031" y="-74.5" font-family="Helvetica,sans-Serif" font-size="10.00">_coordinates.cpp</text>
</a>
</g>
</g>
<!-- Node16&#45;&gt;Node41 -->
<g id="edge41" class="edge">
<title>Node16&#45;&gt;Node41</title>
<path fill="none" stroke="midnightblue" d="M3628.97,-144.2C3710.53,-133.81 3841.41,-116.39 3954,-98 3957.22,-97.47 3960.52,-96.92 3963.84,-96.34"/>
<polygon fill="midnightblue" stroke="midnightblue" points="3628.26,-140.76 3618.78,-145.5 3629.14,-147.71 3628.26,-140.76"/>
</g>
<!-- Node42 -->
<g id="node37" class="node">
<title>Node42</title>
<g id="a_node37"><a xlink:href="../../d2/d28/page__format__combobox_8cpp.html" target="_top" xlink:title=" ">
<polygon fill="white" stroke="black" points="4116.5,-67.5 4116.5,-97.5 4247.5,-97.5 4247.5,-67.5 4116.5,-67.5"/>
<text text-anchor="start" x="4124.5" y="-85.5" font-family="Helvetica,sans-Serif" font-size="10.00">src/libs/vwidgets/page</text>
<text text-anchor="middle" x="4182" y="-74.5" font-family="Helvetica,sans-Serif" font-size="10.00">_format_combobox.cpp</text>
</a>
</g>
</g>
<!-- Node16&#45;&gt;Node42 -->
<g id="edge42" class="edge">
<title>Node16&#45;&gt;Node42</title>
<path fill="none" stroke="midnightblue" d="M3657.67,-146.09C3770.12,-137.15 3951.47,-120.81 4107,-98 4110.02,-97.56 4113.1,-97.08 4116.21,-96.57"/>
<polygon fill="midnightblue" stroke="midnightblue" points="3657.37,-142.6 3647.68,-146.88 3657.92,-149.58 3657.37,-142.6"/>
</g>
<!-- Node43 -->
<g id="node38" class="node">
<title>Node43</title>
<g id="a_node38"><a xlink:href="../../d7/d1b/pen__toolbar_8cpp.html" target="_top" xlink:title=" ">
<polygon fill="white" stroke="black" points="4265.5,-67.5 4265.5,-97.5 4384.5,-97.5 4384.5,-67.5 4265.5,-67.5"/>
<text text-anchor="start" x="4273.5" y="-85.5" font-family="Helvetica,sans-Serif" font-size="10.00">src/libs/vwidgets/pen</text>
<text text-anchor="middle" x="4325" y="-74.5" font-family="Helvetica,sans-Serif" font-size="10.00">_toolbar.cpp</text>
</a>
</g>
</g>
<!-- Node16&#45;&gt;Node43 -->
<g id="edge43" class="edge">
<title>Node16&#45;&gt;Node43</title>
<path fill="none" stroke="midnightblue" d="M3657.72,-149.75C3796.59,-143.28 4045.26,-128.37 4256,-98 4259.03,-97.56 4262.12,-97.07 4265.24,-96.55"/>
<polygon fill="midnightblue" stroke="midnightblue" points="3657.34,-146.26 3647.51,-150.21 3657.66,-153.25 3657.34,-146.26"/>
</g>
<!-- Node44 -->
<g id="node39" class="node">
<title>Node44</title>
<g id="a_node39"><a xlink:href="../../d8/d76/scene__rect_8cpp.html" target="_top" xlink:title=" ">
<polygon fill="white" stroke="black" points="4403,-67.5 4403,-97.5 4533,-97.5 4533,-67.5 4403,-67.5"/>
<text text-anchor="start" x="4411" y="-85.5" font-family="Helvetica,sans-Serif" font-size="10.00">src/libs/vwidgets/scene</text>
<text text-anchor="middle" x="4468" y="-74.5" font-family="Helvetica,sans-Serif" font-size="10.00">_rect.cpp</text>
</a>
</g>
</g>
<!-- Node16&#45;&gt;Node44 -->
<g id="edge44" class="edge">
<title>Node16&#45;&gt;Node44</title>
<path fill="none" stroke="midnightblue" d="M3658.11,-151.13C3818.92,-145.88 4130.38,-131.97 4393,-98 4396.16,-97.59 4399.38,-97.13 4402.63,-96.64"/>
<polygon fill="midnightblue" stroke="midnightblue" points="3657.62,-147.64 3647.74,-151.46 3657.85,-154.64 3657.62,-147.64"/>
</g>
<!-- Node45 -->
<g id="node40" class="node">
<title>Node45</title>
<g id="a_node40"><a xlink:href="../../dd/df6/vabstractmainwindow_8cpp.html" target="_top" xlink:title=" ">
<polygon fill="white" stroke="black" points="4551.5,-73 4551.5,-92 4780.5,-92 4780.5,-73 4551.5,-73"/>
<text text-anchor="middle" x="4666" y="-80" font-family="Helvetica,sans-Serif" font-size="10.00">src/libs/vwidgets/vabstractmainwindow.cpp</text>
</a>
</g>
</g>
<!-- Node16&#45;&gt;Node45 -->
<g id="edge45" class="edge">
<title>Node16&#45;&gt;Node45</title>
<path fill="none" stroke="midnightblue" d="M3657.77,-150.04C3840.09,-142.86 4220.91,-125.81 4542,-98 4560.68,-96.38 4580.89,-94.2 4599.47,-92.02"/>
<polygon fill="midnightblue" stroke="midnightblue" points="3657.5,-146.54 3647.65,-150.43 3657.77,-153.54 3657.5,-146.54"/>
</g>
<!-- Node46 -->
<g id="node41" class="node">
<title>Node46</title>
<g id="a_node41"><a xlink:href="../../de/d45/vcontrolpointspline_8cpp.html" target="_top" xlink:title=" ">
<polygon fill="white" stroke="black" points="4798.5,-73 4798.5,-92 5013.5,-92 5013.5,-73 4798.5,-73"/>
<text text-anchor="middle" x="4906" y="-80" font-family="Helvetica,sans-Serif" font-size="10.00">src/libs/vwidgets/vcontrolpointspline.cpp</text>
</a>
</g>
</g>
<!-- Node16&#45;&gt;Node46 -->
<g id="edge46" class="edge">
<title>Node16&#45;&gt;Node46</title>
<path fill="none" stroke="midnightblue" d="M3657.78,-151.96C3873.1,-147.26 4371.6,-133.24 4789,-98 4807.15,-96.47 4826.82,-94.25 4844.76,-92"/>
<polygon fill="midnightblue" stroke="midnightblue" points="3657.67,-148.46 3647.75,-152.18 3657.82,-155.46 3657.67,-148.46"/>
</g>
<!-- Node47 -->
<g id="node42" class="node">
<title>Node47</title>
<g id="a_node42"><a xlink:href="../../d1/d90/vgrainlineitem_8cpp.html" target="_top" xlink:title=" ">
<polygon fill="white" stroke="black" points="5031.5,-73 5031.5,-92 5224.5,-92 5224.5,-73 5031.5,-73"/>
<text text-anchor="middle" x="5128" y="-80" font-family="Helvetica,sans-Serif" font-size="10.00">src/libs/vwidgets/vgrainlineitem.cpp</text>
</a>
</g>
</g>
<!-- Node16&#45;&gt;Node47 -->
<g id="edge47" class="edge">
<title>Node16&#45;&gt;Node47</title>
<path fill="none" stroke="midnightblue" d="M3657.79,-153.51C3901.38,-151.61 4512.76,-142.41 5022,-98 5038.75,-96.54 5056.9,-94.3 5073.37,-92.01"/>
<polygon fill="midnightblue" stroke="midnightblue" points="3657.5,-150.01 3647.52,-153.59 3657.55,-157.01 3657.5,-150.01"/>
</g>
<!-- Node48 -->
<g id="node43" class="node">
<title>Node48</title>
<g id="a_node43"><a xlink:href="../../de/dec/vgraphicssimpletextitem_8cpp.html" target="_top" xlink:title=" ">
<polygon fill="white" stroke="black" points="5243,-73 5243,-92 5487,-92 5487,-73 5243,-73"/>
<text text-anchor="middle" x="5365" y="-80" font-family="Helvetica,sans-Serif" font-size="10.00">src/libs/vwidgets/vgraphicssimpletextitem.cpp</text>
</a>
</g>
</g>
<!-- Node16&#45;&gt;Node48 -->
<g id="edge48" class="edge">
<title>Node16&#45;&gt;Node48</title>
<path fill="none" stroke="midnightblue" d="M3657.92,-153.26C3925.19,-150.79 4639.2,-140.43 5233,-98 5253.7,-96.52 5276.16,-94.29 5296.58,-92.02"/>
<polygon fill="midnightblue" stroke="midnightblue" points="3657.8,-149.76 3647.84,-153.35 3657.87,-156.76 3657.8,-149.76"/>
</g>
<!-- Node25&#45;&gt;Node26 -->
<g id="edge24" class="edge">
<title>Node25&#45;&gt;Node26</title>
<path fill="none" stroke="midnightblue" d="M2497.28,-58.87C2503.21,-49.46 2509.91,-38.83 2515.12,-30.58"/>
<polygon fill="midnightblue" stroke="midnightblue" points="2494.27,-57.07 2491.9,-67.4 2500.19,-60.81 2494.27,-57.07"/>
</g>
<!-- Node38&#45;&gt;Node39 -->
<g id="edge39" class="edge">
<title>Node38&#45;&gt;Node39</title>
<path fill="none" stroke="midnightblue" d="M3804.76,-66.92C4174.99,-15.77 4612.3,-14.53 4762.41,-15.79"/>
<polygon fill="midnightblue" stroke="midnightblue" points="3804.08,-63.48 3794.66,-68.33 3805.04,-70.41 3804.08,-63.48"/>
</g>
<!-- Node63&#45;&gt;Node36 -->
<g id="edge61" class="edge">
<title>Node63&#45;&gt;Node36</title>
<path fill="none" stroke="midnightblue" d="M6597.65,-202.41C6601.03,-181.31 6601.74,-151.36 6584,-134 6532.66,-83.74 6029.66,-82.16 5862.61,-83.05"/>
<polygon fill="midnightblue" stroke="midnightblue" points="6594.21,-201.77 6595.79,-212.25 6601.09,-203.08 6594.21,-201.77"/>
</g>
</g>
</svg>
