<?xml version="1.0" encoding="UTF-8" standalone="no"?>
<!DOCTYPE svg PUBLIC "-//W3C//DTD SVG 1.1//EN"
 "http://www.w3.org/Graphics/SVG/1.1/DTD/svg11.dtd">
<!-- Generated by graphviz version 2.43.0 (0)
 -->
<!-- Title: src/libs/ifc/exception/vexceptionbadid.h Pages: 1 -->
<svg width="6414pt" height="318pt"
 viewBox="0.00 0.00 6414.00 318.00" xmlns="http://www.w3.org/2000/svg" xmlns:xlink="http://www.w3.org/1999/xlink">
<g id="graph0" class="graph" transform="scale(1 1) rotate(0) translate(4 314)">
<title>src/libs/ifc/exception/vexceptionbadid.h</title>
<polygon fill="white" stroke="transparent" points="-4,4 -4,-314 6410,-314 6410,4 -4,4"/>
<!-- Node1 -->
<g id="node1" class="node">
<title>Node1</title>
<g id="a_node1"><a xlink:title=" ">
<polygon fill="#bfbfbf" stroke="black" points="5242.5,-279.5 5242.5,-309.5 5359.5,-309.5 5359.5,-279.5 5242.5,-279.5"/>
<text text-anchor="start" x="5250.5" y="-297.5" font-family="Helvetica,sans-Serif" font-size="10.00">src/libs/ifc/exception</text>
<text text-anchor="middle" x="5301" y="-286.5" font-family="Helvetica,sans-Serif" font-size="10.00">/vexceptionbadid.h</text>
</a>
</g>
</g>
<!-- Node2 -->
<g id="node2" class="node">
<title>Node2</title>
<g id="a_node2"><a xlink:href="../../d5/d85/vexceptionbadid_8cpp.html" target="_top" xlink:title=" ">
<polygon fill="white" stroke="black" points="5067.5,-212.5 5067.5,-242.5 5188.5,-242.5 5188.5,-212.5 5067.5,-212.5"/>
<text text-anchor="start" x="5075.5" y="-230.5" font-family="Helvetica,sans-Serif" font-size="10.00">src/libs/ifc/exception</text>
<text text-anchor="middle" x="5128" y="-219.5" font-family="Helvetica,sans-Serif" font-size="10.00">/vexceptionbadid.cpp</text>
</a>
</g>
</g>
<!-- Node1&#45;&gt;Node2 -->
<g id="edge1" class="edge">
<title>Node1&#45;&gt;Node2</title>
<path fill="none" stroke="midnightblue" d="M5253.94,-275.82C5226.13,-265.37 5191.41,-252.32 5165.47,-242.58"/>
<polygon fill="midnightblue" stroke="midnightblue" points="5252.87,-279.16 5263.46,-279.4 5255.33,-272.6 5252.87,-279.16"/>
</g>
<!-- Node3 -->
<g id="node3" class="node">
<title>Node3</title>
<g id="a_node3"><a xlink:href="../../d7/d49/vdomdocument_8cpp.html" target="_top" xlink:title=" ">
<polygon fill="white" stroke="black" points="5207,-218 5207,-237 5395,-237 5395,-218 5207,-218"/>
<text text-anchor="middle" x="5301" y="-225" font-family="Helvetica,sans-Serif" font-size="10.00">src/libs/ifc/xml/vdomdocument.cpp</text>
</a>
</g>
</g>
<!-- Node1&#45;&gt;Node3 -->
<g id="edge2" class="edge">
<title>Node1&#45;&gt;Node3</title>
<path fill="none" stroke="midnightblue" d="M5301,-269.25C5301,-258.02 5301,-245.38 5301,-237.19"/>
<polygon fill="midnightblue" stroke="midnightblue" points="5297.5,-269.4 5301,-279.4 5304.5,-269.4 5297.5,-269.4"/>
</g>
<!-- Node4 -->
<g id="node4" class="node">
<title>Node4</title>
<g id="a_node4"><a xlink:href="../../d3/df7/vcontainer_8h.html" target="_top" xlink:title=" ">
<polygon fill="white" stroke="black" points="5413.5,-212.5 5413.5,-242.5 5520.5,-242.5 5520.5,-212.5 5413.5,-212.5"/>
<text text-anchor="start" x="5421.5" y="-230.5" font-family="Helvetica,sans-Serif" font-size="10.00">src/libs/vpatterndb</text>
<text text-anchor="middle" x="5467" y="-219.5" font-family="Helvetica,sans-Serif" font-size="10.00">/vcontainer.h</text>
</a>
</g>
</g>
<!-- Node1&#45;&gt;Node4 -->
<g id="edge3" class="edge">
<title>Node1&#45;&gt;Node4</title>
<path fill="none" stroke="midnightblue" d="M5346.51,-275.68C5373.13,-265.26 5406.27,-252.28 5431.05,-242.58"/>
<polygon fill="midnightblue" stroke="midnightblue" points="5345.05,-272.49 5337.02,-279.4 5347.61,-279.01 5345.05,-272.49"/>
</g>
<!-- Node5 -->
<g id="node5" class="node">
<title>Node5</title>
<g id="a_node5"><a xlink:href="../../dc/db7/measurements_8h.html" target="_top" xlink:title=" ">
<polygon fill="white" stroke="black" points="138.5,-145.5 138.5,-164.5 317.5,-164.5 317.5,-145.5 138.5,-145.5"/>
<text text-anchor="middle" x="228" y="-152.5" font-family="Helvetica,sans-Serif" font-size="10.00">src/libs/vformat/measurements.h</text>
</a>
</g>
</g>
<!-- Node4&#45;&gt;Node5 -->
<g id="edge4" class="edge">
<title>Node4&#45;&gt;Node5</title>
<path fill="none" stroke="midnightblue" d="M5402.94,-212.15C4827.95,-150.25 1127.61,-192.36 597,-176 501.61,-173.06 392.49,-166.78 317.8,-162.04"/>
<polygon fill="midnightblue" stroke="midnightblue" points="5402.85,-215.66 5413.18,-213.3 5403.63,-208.7 5402.85,-215.66"/>
</g>
<!-- Node6 -->
<g id="node6" class="node">
<title>Node6</title>
<g id="a_node6"><a xlink:href="../../d9/de3/measurements_8cpp.html" target="_top" xlink:title=" ">
<polygon fill="white" stroke="black" points="0,-73 0,-92 190,-92 190,-73 0,-73"/>
<text text-anchor="middle" x="95" y="-80" font-family="Helvetica,sans-Serif" font-size="10.00">src/libs/vformat/measurements.cpp</text>
</a>
</g>
</g>
<!-- Node4&#45;&gt;Node6 -->
<g id="edge6" class="edge">
<title>Node4&#45;&gt;Node6</title>
<path fill="none" stroke="midnightblue" d="M5402.88,-212.14C4845.96,-152.58 1273.16,-213.23 762,-176 527.35,-158.91 249.42,-111.52 141.28,-92.04"/>
<polygon fill="midnightblue" stroke="midnightblue" points="5402.85,-215.66 5413.18,-213.3 5403.63,-208.71 5402.85,-215.66"/>
</g>
<!-- Node7 -->
<g id="node7" class="node">
<title>Node7</title>
<g id="a_node7"><a xlink:href="../../d6/de0/vlayoutpiece_8h.html" target="_top" xlink:title=" ">
<polygon fill="white" stroke="black" points="771,-145.5 771,-164.5 937,-164.5 937,-145.5 771,-145.5"/>
<text text-anchor="middle" x="854" y="-152.5" font-family="Helvetica,sans-Serif" font-size="10.00">src/libs/vlayout/vlayoutpiece.h</text>
</a>
</g>
</g>
<!-- Node4&#45;&gt;Node7 -->
<g id="edge7" class="edge">
<title>Node4&#45;&gt;Node7</title>
<path fill="none" stroke="midnightblue" d="M5403.16,-212.18C5037.59,-173.41 2797.35,-179.97 2475,-176 1885.77,-168.74 1176.06,-159.98 937.09,-157.03"/>
<polygon fill="midnightblue" stroke="midnightblue" points="5402.85,-215.67 5413.18,-213.32 5403.63,-208.72 5402.85,-215.67"/>
</g>
<!-- Node17 -->
<g id="node16" class="node">
<title>Node17</title>
<g id="a_node16"><a xlink:href="../../d8/d70/vtextmanager_8cpp.html" target="_top" xlink:title=" ">
<polygon fill="white" stroke="black" points="1530,-73 1530,-92 1712,-92 1712,-73 1530,-73"/>
<text text-anchor="middle" x="1621" y="-80" font-family="Helvetica,sans-Serif" font-size="10.00">src/libs/vlayout/vtextmanager.cpp</text>
</a>
</g>
</g>
<!-- Node4&#45;&gt;Node17 -->
<g id="edge18" class="edge">
<title>Node4&#45;&gt;Node17</title>
<path fill="none" stroke="midnightblue" d="M5403.04,-212.11C4940.09,-157.64 3823.2,-190.5 3376,-176 2640.01,-152.13 2454.01,-168.25 1721,-98 1705.37,-96.5 1688.45,-94.28 1673.04,-92.02"/>
<polygon fill="midnightblue" stroke="midnightblue" points="5402.83,-215.62 5413.17,-213.34 5403.66,-208.67 5402.83,-215.62"/>
</g>
<!-- Node18 -->
<g id="node17" class="node">
<title>Node18</title>
<g id="a_node17"><a xlink:href="../../d5/d74/vabstractapplication_8h.html" target="_top" xlink:title=" ">
<polygon fill="white" stroke="red" points="3385.5,-145.5 3385.5,-164.5 3580.5,-164.5 3580.5,-145.5 3385.5,-145.5"/>
<text text-anchor="middle" x="3483" y="-152.5" font-family="Helvetica,sans-Serif" font-size="10.00">src/libs/vmisc/vabstractapplication.h</text>
</a>
</g>
</g>
<!-- Node4&#45;&gt;Node18 -->
<g id="edge19" class="edge">
<title>Node4&#45;&gt;Node18</title>
<path fill="none" stroke="midnightblue" d="M5403.03,-212.1C5025.48,-165.86 3916.46,-157.74 3580.5,-156.3"/>
<polygon fill="midnightblue" stroke="midnightblue" points="5402.81,-215.6 5413.17,-213.38 5403.68,-208.66 5402.81,-215.6"/>
</g>
<!-- Node36 -->
<g id="node31" class="node">
<title>Node36</title>
<g id="a_node31"><a xlink:href="../../d6/d46/vcontainer_8cpp.html" target="_top" xlink:title=" ">
<polygon fill="white" stroke="black" points="5272.5,-67.5 5272.5,-97.5 5379.5,-97.5 5379.5,-67.5 5272.5,-67.5"/>
<text text-anchor="start" x="5280.5" y="-85.5" font-family="Helvetica,sans-Serif" font-size="10.00">src/libs/vpatterndb</text>
<text text-anchor="middle" x="5326" y="-74.5" font-family="Helvetica,sans-Serif" font-size="10.00">/vcontainer.cpp</text>
</a>
</g>
</g>
<!-- Node4&#45;&gt;Node36 -->
<g id="edge52" class="edge">
<title>Node4&#45;&gt;Node36</title>
<path fill="none" stroke="midnightblue" d="M5445.7,-204.9C5416.48,-175.26 5364.75,-122.8 5339.98,-97.68"/>
<polygon fill="midnightblue" stroke="midnightblue" points="5443.45,-207.6 5452.96,-212.27 5448.44,-202.69 5443.45,-207.6"/>
</g>
<!-- Node37 -->
<g id="node32" class="node">
<title>Node37</title>
<g id="a_node32"><a xlink:href="../../db/d11/vformula_8cpp.html" target="_top" xlink:title=" ">
<polygon fill="white" stroke="black" points="5397.5,-67.5 5397.5,-97.5 5504.5,-97.5 5504.5,-67.5 5397.5,-67.5"/>
<text text-anchor="start" x="5405.5" y="-85.5" font-family="Helvetica,sans-Serif" font-size="10.00">src/libs/vpatterndb</text>
<text text-anchor="middle" x="5451" y="-74.5" font-family="Helvetica,sans-Serif" font-size="10.00">/vformula.cpp</text>
</a>
</g>
</g>
<!-- Node4&#45;&gt;Node37 -->
<g id="edge54" class="edge">
<title>Node4&#45;&gt;Node37</title>
<path fill="none" stroke="midnightblue" d="M5459,-202.37C5456.61,-194.1 5454.28,-184.73 5453,-176 5448.96,-148.51 5449.46,-115.93 5450.22,-97.7"/>
<polygon fill="midnightblue" stroke="midnightblue" points="5455.71,-203.58 5461.98,-212.12 5462.4,-201.53 5455.71,-203.58"/>
</g>
<!-- Node38 -->
<g id="node33" class="node">
<title>Node38</title>
<g id="a_node33"><a xlink:href="../../df/d7a/vpiece_8cpp.html" target="_top" xlink:title=" ">
<polygon fill="white" stroke="black" points="5522.5,-67.5 5522.5,-97.5 5629.5,-97.5 5629.5,-67.5 5522.5,-67.5"/>
<text text-anchor="start" x="5530.5" y="-85.5" font-family="Helvetica,sans-Serif" font-size="10.00">src/libs/vpatterndb</text>
<text text-anchor="middle" x="5576" y="-74.5" font-family="Helvetica,sans-Serif" font-size="10.00">/vpiece.cpp</text>
</a>
</g>
</g>
<!-- Node4&#45;&gt;Node38 -->
<g id="edge56" class="edge">
<title>Node4&#45;&gt;Node38</title>
<path fill="none" stroke="midnightblue" d="M5468.28,-202.03C5470.43,-181.99 5476.12,-153.81 5491,-134 5503.17,-117.81 5522.18,-105.81 5539.14,-97.59"/>
<polygon fill="midnightblue" stroke="midnightblue" points="5464.77,-201.96 5467.41,-212.22 5471.74,-202.55 5464.77,-201.96"/>
</g>
<!-- Node40 -->
<g id="node35" class="node">
<title>Node40</title>
<g id="a_node35"><a xlink:href="../../d8/dba/vpiecenode_8cpp.html" target="_top" xlink:title=" ">
<polygon fill="white" stroke="black" points="4231.5,-0.5 4231.5,-30.5 4338.5,-30.5 4338.5,-0.5 4231.5,-0.5"/>
<text text-anchor="start" x="4239.5" y="-18.5" font-family="Helvetica,sans-Serif" font-size="10.00">src/libs/vpatterndb</text>
<text text-anchor="middle" x="4285" y="-7.5" font-family="Helvetica,sans-Serif" font-size="10.00">/vpiecenode.cpp</text>
</a>
</g>
</g>
<!-- Node4&#45;&gt;Node40 -->
<g id="edge55" class="edge">
<title>Node4&#45;&gt;Node40</title>
<path fill="none" stroke="midnightblue" d="M5478.81,-203.4C5491.57,-179.26 5511.71,-143.56 5524,-134 5566.28,-101.12 5607.29,-141.16 5639,-98 5647.16,-86.9 5648.56,-76.92 5639,-67 5593.15,-19.41 4584.2,-16.46 4338.55,-16.45"/>
<polygon fill="midnightblue" stroke="midnightblue" points="5475.68,-201.84 5474.16,-212.32 5481.89,-205.08 5475.68,-201.84"/>
</g>
<!-- Node57 -->
<g id="node45" class="node">
<title>Node57</title>
<g id="a_node45"><a xlink:href="../../d7/d8a/measurement__variable__p_8h.html" target="_top" xlink:title=" ">
<polygon fill="white" stroke="red" points="5533,-134.5 5533,-175.5 5669,-175.5 5669,-134.5 5533,-134.5"/>
<text text-anchor="start" x="5541" y="-163.5" font-family="Helvetica,sans-Serif" font-size="10.00">src/libs/vpatterndb</text>
<text text-anchor="start" x="5541" y="-152.5" font-family="Helvetica,sans-Serif" font-size="10.00">/variables/measurement</text>
<text text-anchor="middle" x="5601" y="-141.5" font-family="Helvetica,sans-Serif" font-size="10.00">_variable_p.h</text>
</a>
</g>
</g>
<!-- Node4&#45;&gt;Node57 -->
<g id="edge50" class="edge">
<title>Node4&#45;&gt;Node57</title>
<path fill="none" stroke="midnightblue" d="M5502.69,-207.72C5521.57,-197.79 5544.75,-185.6 5563.85,-175.55"/>
<polygon fill="midnightblue" stroke="midnightblue" points="5501.02,-204.65 5493.79,-212.4 5504.27,-210.84 5501.02,-204.65"/>
</g>
<!-- Node59 -->
<g id="node46" class="node">
<title>Node59</title>
<g id="a_node46"><a xlink:href="../../d1/de1/vincrement__p_8h.html" target="_top" xlink:title=" ">
<polygon fill="white" stroke="red" points="5687.5,-140 5687.5,-170 5830.5,-170 5830.5,-140 5687.5,-140"/>
<text text-anchor="start" x="5695.5" y="-158" font-family="Helvetica,sans-Serif" font-size="10.00">src/libs/vpatterndb</text>
<text text-anchor="middle" x="5759" y="-147" font-family="Helvetica,sans-Serif" font-size="10.00">/variables/vincrement_p.h</text>
</a>
</g>
</g>
<!-- Node4&#45;&gt;Node59 -->
<g id="edge51" class="edge">
<title>Node4&#45;&gt;Node59</title>
<path fill="none" stroke="midnightblue" d="M5530.59,-211.41C5572.48,-201.43 5628.53,-188.03 5678,-176 5685.88,-174.08 5694.19,-172.05 5702.36,-170.04"/>
<polygon fill="midnightblue" stroke="midnightblue" points="5529.71,-208.02 5520.79,-213.74 5531.33,-214.83 5529.71,-208.02"/>
</g>
<!-- Node61 -->
<g id="node47" class="node">
<title>Node61</title>
<g id="a_node47"><a xlink:href="../../d6/d91/vnodedetail_8cpp.html" target="_top" xlink:title=" ">
<polygon fill="white" stroke="black" points="5848.5,-140 5848.5,-170 5955.5,-170 5955.5,-140 5848.5,-140"/>
<text text-anchor="start" x="5856.5" y="-158" font-family="Helvetica,sans-Serif" font-size="10.00">src/libs/vpatterndb</text>
<text text-anchor="middle" x="5902" y="-147" font-family="Helvetica,sans-Serif" font-size="10.00">/vnodedetail.cpp</text>
</a>
</g>
</g>
<!-- Node4&#45;&gt;Node61 -->
<g id="edge53" class="edge">
<title>Node4&#45;&gt;Node61</title>
<path fill="none" stroke="midnightblue" d="M5530.85,-221.33C5605.62,-214.48 5732.88,-200.33 5840,-176 5847.17,-174.37 5854.69,-172.28 5861.93,-170.07"/>
<polygon fill="midnightblue" stroke="midnightblue" points="5530.3,-217.87 5520.65,-222.25 5530.93,-224.84 5530.3,-217.87"/>
</g>
<!-- Node62 -->
<g id="node48" class="node">
<title>Node62</title>
<g id="a_node48"><a xlink:href="../../da/de1/vpiecepath_8cpp.html" target="_top" xlink:title=" ">
<polygon fill="white" stroke="black" points="5973.5,-140 5973.5,-170 6080.5,-170 6080.5,-140 5973.5,-140"/>
<text text-anchor="start" x="5981.5" y="-158" font-family="Helvetica,sans-Serif" font-size="10.00">src/libs/vpatterndb</text>
<text text-anchor="middle" x="6027" y="-147" font-family="Helvetica,sans-Serif" font-size="10.00">/vpiecepath.cpp</text>
</a>
</g>
</g>
<!-- Node4&#45;&gt;Node62 -->
<g id="edge57" class="edge">
<title>Node4&#45;&gt;Node62</title>
<path fill="none" stroke="midnightblue" d="M5530.69,-224.34C5626.04,-220.13 5811.13,-208.24 5965,-176 5972.42,-174.45 5980.2,-172.34 5987.65,-170.07"/>
<polygon fill="midnightblue" stroke="midnightblue" points="5530.47,-220.84 5520.63,-224.77 5530.77,-227.84 5530.47,-220.84"/>
</g>
<!-- Node63 -->
<g id="node49" class="node">
<title>Node63</title>
<g id="a_node49"><a xlink:href="../../d1/d3a/abstracttest_8cpp.html" target="_top" xlink:title=" ">
<polygon fill="white" stroke="black" points="6098.5,-145.5 6098.5,-164.5 6259.5,-164.5 6259.5,-145.5 6098.5,-145.5"/>
<text text-anchor="middle" x="6179" y="-152.5" font-family="Helvetica,sans-Serif" font-size="10.00">src/libs/vtest/abstracttest.cpp</text>
</a>
</g>
</g>
<!-- Node4&#45;&gt;Node63 -->
<g id="edge58" class="edge">
<title>Node4&#45;&gt;Node63</title>
<path fill="none" stroke="midnightblue" d="M5530.84,-224.28C5644.05,-219.68 5887.14,-206.86 6090,-176 6108.79,-173.14 6129.52,-168.57 6146.24,-164.52"/>
<polygon fill="midnightblue" stroke="midnightblue" points="5530.48,-220.79 5520.63,-224.69 5530.76,-227.78 5530.48,-220.79"/>
</g>
<!-- Node64 -->
<g id="node50" class="node">
<title>Node64</title>
<g id="a_node50"><a xlink:href="../../da/db4/piece__tablewidgetitem_8cpp.html" target="_top" xlink:title=" ">
<polygon fill="white" stroke="black" points="6278,-140 6278,-170 6406,-170 6406,-140 6278,-140"/>
<text text-anchor="start" x="6286" y="-158" font-family="Helvetica,sans-Serif" font-size="10.00">src/libs/vwidgets/piece</text>
<text text-anchor="middle" x="6342" y="-147" font-family="Helvetica,sans-Serif" font-size="10.00">_tablewidgetitem.cpp</text>
</a>
</g>
</g>
<!-- Node4&#45;&gt;Node64 -->
<g id="edge59" class="edge">
<title>Node4&#45;&gt;Node64</title>
<path fill="none" stroke="midnightblue" d="M5531.22,-226.89C5667.92,-226.75 5997.41,-221.27 6269,-176 6277.94,-174.51 6287.37,-172.37 6296.37,-170.04"/>
<polygon fill="midnightblue" stroke="midnightblue" points="5530.93,-223.39 5520.93,-226.89 5530.93,-230.39 5530.93,-223.39"/>
</g>
<!-- Node5&#45;&gt;Node6 -->
<g id="edge5" class="edge">
<title>Node5&#45;&gt;Node6</title>
<path fill="none" stroke="midnightblue" d="M203.12,-140.81C176.18,-126.53 134,-104.17 111.1,-92.03"/>
<polygon fill="midnightblue" stroke="midnightblue" points="201.48,-143.9 211.96,-145.5 204.76,-137.72 201.48,-143.9"/>
</g>
<!-- Node8 -->
<g id="node8" class="node">
<title>Node8</title>
<g id="a_node8"><a xlink:href="../../dd/d66/vdxfengine_8cpp.html" target="_top" xlink:title=" ">
<polygon fill="white" stroke="black" points="610,-73 610,-92 764,-92 764,-73 610,-73"/>
<text text-anchor="middle" x="687" y="-80" font-family="Helvetica,sans-Serif" font-size="10.00">src/libs/vdxf/vdxfengine.cpp</text>
</a>
</g>
</g>
<!-- Node7&#45;&gt;Node8 -->
<g id="edge8" class="edge">
<title>Node7&#45;&gt;Node8</title>
<path fill="none" stroke="midnightblue" d="M824.51,-141.55C790.79,-127.32 736.47,-104.38 707.22,-92.03"/>
<polygon fill="midnightblue" stroke="midnightblue" points="823.28,-144.83 833.86,-145.5 826,-138.38 823.28,-144.83"/>
</g>
<!-- Node9 -->
<g id="node9" class="node">
<title>Node9</title>
<g id="a_node9"><a xlink:href="../../de/da8/vbank_8cpp.html" target="_top" xlink:title=" ">
<polygon fill="white" stroke="black" points="782,-73 782,-92 926,-92 926,-73 782,-73"/>
<text text-anchor="middle" x="854" y="-80" font-family="Helvetica,sans-Serif" font-size="10.00">src/libs/vlayout/vbank.cpp</text>
</a>
</g>
</g>
<!-- Node7&#45;&gt;Node9 -->
<g id="edge9" class="edge">
<title>Node7&#45;&gt;Node9</title>
<path fill="none" stroke="midnightblue" d="M854,-134.94C854,-121.03 854,-102.82 854,-92.22"/>
<polygon fill="midnightblue" stroke="midnightblue" points="850.5,-135.36 854,-145.36 857.5,-135.36 850.5,-135.36"/>
</g>
<!-- Node10 -->
<g id="node10" class="node">
<title>Node10</title>
<g id="a_node10"><a xlink:href="../../d3/d39/vlayoutgenerator_8cpp.html" target="_top" xlink:title=" ">
<polygon fill="white" stroke="black" points="944.5,-73 944.5,-92 1141.5,-92 1141.5,-73 944.5,-73"/>
<text text-anchor="middle" x="1043" y="-80" font-family="Helvetica,sans-Serif" font-size="10.00">src/libs/vlayout/vlayoutgenerator.cpp</text>
</a>
</g>
</g>
<!-- Node7&#45;&gt;Node10 -->
<g id="edge10" class="edge">
<title>Node7&#45;&gt;Node10</title>
<path fill="none" stroke="midnightblue" d="M886.39,-141.92C924.48,-127.71 986.73,-104.49 1020.12,-92.03"/>
<polygon fill="midnightblue" stroke="midnightblue" points="884.94,-138.72 876.8,-145.5 887.39,-145.28 884.94,-138.72"/>
</g>
<!-- Node11 -->
<g id="node11" class="node">
<title>Node11</title>
<g id="a_node11"><a xlink:href="../../df/d5d/vcontour_8cpp.html" target="_top" xlink:title=" ">
<polygon fill="white" stroke="black" points="1160,-73 1160,-92 1316,-92 1316,-73 1160,-73"/>
<text text-anchor="middle" x="1238" y="-80" font-family="Helvetica,sans-Serif" font-size="10.00">src/libs/vlayout/vcontour.cpp</text>
</a>
</g>
</g>
<!-- Node7&#45;&gt;Node11 -->
<g id="edge11" class="edge">
<title>Node7&#45;&gt;Node11</title>
<path fill="none" stroke="midnightblue" d="M910.21,-143.68C986.33,-129.71 1120.78,-105.02 1191.52,-92.03"/>
<polygon fill="midnightblue" stroke="midnightblue" points="909.52,-140.25 900.32,-145.5 910.79,-147.13 909.52,-140.25"/>
</g>
<!-- Node12 -->
<g id="node12" class="node">
<title>Node12</title>
<g id="a_node12"><a xlink:href="../../d1/dd1/vlayoutpaper_8cpp.html" target="_top" xlink:title=" ">
<polygon fill="white" stroke="black" points="391,-6 391,-25 569,-25 569,-6 391,-6"/>
<text text-anchor="middle" x="480" y="-13" font-family="Helvetica,sans-Serif" font-size="10.00">src/libs/vlayout/vlayoutpaper.cpp</text>
</a>
</g>
</g>
<!-- Node7&#45;&gt;Node12 -->
<g id="edge12" class="edge">
<title>Node7&#45;&gt;Node12</title>
<path fill="none" stroke="midnightblue" d="M760.73,-143.94C711.4,-136.05 650.9,-122.17 601,-98 581.38,-88.5 580.8,-79.58 563,-67 540.28,-50.93 512.36,-34.6 495.39,-25.02"/>
<polygon fill="midnightblue" stroke="midnightblue" points="760.34,-147.42 770.75,-145.49 761.41,-140.5 760.34,-147.42"/>
</g>
<!-- Node13 -->
<g id="node13" class="node">
<title>Node13</title>
<g id="a_node13"><a xlink:href="../../d2/d2d/vlayoutpaper__p_8h.html" target="_top" xlink:title=" ">
<polygon fill="white" stroke="black" points="208.5,-73 208.5,-92 387.5,-92 387.5,-73 208.5,-73"/>
<text text-anchor="middle" x="298" y="-80" font-family="Helvetica,sans-Serif" font-size="10.00">src/libs/vlayout/vlayoutpaper_p.h</text>
</a>
</g>
</g>
<!-- Node7&#45;&gt;Node13 -->
<g id="edge13" class="edge">
<title>Node7&#45;&gt;Node13</title>
<path fill="none" stroke="midnightblue" d="M769.86,-144.29C678.12,-133.56 527,-115.48 397,-98 383.23,-96.15 368.39,-94.04 354.51,-92.01"/>
<polygon fill="midnightblue" stroke="midnightblue" points="769.58,-147.78 779.92,-145.47 770.4,-140.83 769.58,-147.78"/>
</g>
<!-- Node14 -->
<g id="node14" class="node">
<title>Node14</title>
<g id="a_node14"><a xlink:href="../../dd/d70/vlayoutpiece_8cpp.html" target="_top" xlink:title=" ">
<polygon fill="white" stroke="black" points="1334.5,-73 1334.5,-92 1511.5,-92 1511.5,-73 1334.5,-73"/>
<text text-anchor="middle" x="1423" y="-80" font-family="Helvetica,sans-Serif" font-size="10.00">src/libs/vlayout/vlayoutpiece.cpp</text>
</a>
</g>
</g>
<!-- Node7&#45;&gt;Node14 -->
<g id="edge15" class="edge">
<title>Node7&#45;&gt;Node14</title>
<path fill="none" stroke="midnightblue" d="M941.7,-144.33C1036.36,-133.72 1191.51,-115.81 1325,-98 1338.72,-96.17 1353.51,-94.06 1367.33,-92.02"/>
<polygon fill="midnightblue" stroke="midnightblue" points="941.14,-140.87 931.6,-145.46 941.92,-147.83 941.14,-140.87"/>
</g>
<!-- Node15 -->
<g id="node15" class="node">
<title>Node15</title>
<g id="a_node15"><a xlink:href="../../db/d5c/vposition_8h.html" target="_top" xlink:title=" ">
<polygon fill="white" stroke="red" points="406,-73 406,-92 554,-92 554,-73 406,-73"/>
<text text-anchor="middle" x="480" y="-80" font-family="Helvetica,sans-Serif" font-size="10.00">src/libs/vlayout/vposition.h</text>
</a>
</g>
</g>
<!-- Node7&#45;&gt;Node15 -->
<g id="edge16" class="edge">
<title>Node7&#45;&gt;Node15</title>
<path fill="none" stroke="midnightblue" d="M798.8,-143.59C724.58,-129.6 594.02,-104.99 525.27,-92.03"/>
<polygon fill="midnightblue" stroke="midnightblue" points="798.41,-147.08 808.89,-145.5 799.71,-140.2 798.41,-147.08"/>
</g>
<!-- Node13&#45;&gt;Node12 -->
<g id="edge14" class="edge">
<title>Node13&#45;&gt;Node12</title>
<path fill="none" stroke="midnightblue" d="M331.78,-69.44C367.88,-56.54 424.21,-36.42 456.02,-25.06"/>
<polygon fill="midnightblue" stroke="midnightblue" points="330.41,-66.21 322.17,-72.87 332.76,-72.8 330.41,-66.21"/>
</g>
<!-- Node15&#45;&gt;Node12 -->
<g id="edge17" class="edge">
<title>Node15&#45;&gt;Node12</title>
<path fill="none" stroke="midnightblue" d="M480,-62.54C480,-50.17 480,-34.62 480,-25.13"/>
<polygon fill="midnightblue" stroke="midnightblue" points="476.5,-62.73 480,-72.73 483.5,-62.73 476.5,-62.73"/>
</g>
<!-- Node18&#45;&gt;Node14 -->
<g id="edge30" class="edge">
<title>Node18&#45;&gt;Node14</title>
<path fill="none" stroke="midnightblue" d="M3375.28,-152.61C3019.75,-147.75 1885.59,-130.06 1521,-98 1505.24,-96.61 1488.15,-94.35 1472.72,-92.02"/>
<polygon fill="midnightblue" stroke="midnightblue" points="3375.27,-156.11 3385.32,-152.74 3375.37,-149.11 3375.27,-156.11"/>
</g>
<!-- Node18&#45;&gt;Node17 -->
<g id="edge31" class="edge">
<title>Node18&#45;&gt;Node17</title>
<path fill="none" stroke="midnightblue" d="M3375.37,-152.16C3044.44,-146.27 2044.82,-126.53 1721,-98 1705.01,-96.59 1687.68,-94.34 1672,-92.02"/>
<polygon fill="midnightblue" stroke="midnightblue" points="3375.38,-155.67 3385.44,-152.34 3375.5,-148.67 3375.38,-155.67"/>
</g>
<!-- Node19 -->
<g id="node18" class="node">
<title>Node19</title>
<g id="a_node18"><a xlink:href="../../d4/d90/fvupdater_8cpp.html" target="_top" xlink:title=" ">
<polygon fill="white" stroke="black" points="4573.5,-73 4573.5,-92 4726.5,-92 4726.5,-73 4573.5,-73"/>
<text text-anchor="middle" x="4650" y="-80" font-family="Helvetica,sans-Serif" font-size="10.00">src/libs/fervor/fvupdater.cpp</text>
</a>
</g>
</g>
<!-- Node18&#45;&gt;Node19 -->
<g id="edge20" class="edge">
<title>Node18&#45;&gt;Node19</title>
<path fill="none" stroke="midnightblue" d="M3590.81,-152.52C3785.64,-148.94 4209.12,-136.98 4564,-98 4577.55,-96.51 4592.2,-94.28 4605.5,-92.01"/>
<polygon fill="midnightblue" stroke="midnightblue" points="3590.51,-149.03 3580.57,-152.71 3590.63,-156.03 3590.51,-149.03"/>
</g>
<!-- Node20 -->
<g id="node19" class="node">
<title>Node20</title>
<g id="a_node19"><a xlink:href="../../d9/dc8/dxiface_8cpp.html" target="_top" xlink:title=" ">
<polygon fill="white" stroke="black" points="4744.5,-73 4744.5,-92 4879.5,-92 4879.5,-73 4744.5,-73"/>
<text text-anchor="middle" x="4812" y="-80" font-family="Helvetica,sans-Serif" font-size="10.00">src/libs/vdxf/dxiface.cpp</text>
</a>
</g>
</g>
<!-- Node18&#45;&gt;Node20 -->
<g id="edge21" class="edge">
<title>Node18&#45;&gt;Node20</title>
<path fill="none" stroke="midnightblue" d="M3590.91,-154.3C3808.21,-153.77 4313.75,-146.84 4735,-98 4747.3,-96.57 4760.58,-94.33 4772.6,-92.03"/>
<polygon fill="midnightblue" stroke="midnightblue" points="3590.77,-150.8 3580.78,-154.32 3590.79,-157.8 3590.77,-150.8"/>
</g>
<!-- Node21 -->
<g id="node20" class="node">
<title>Node21</title>
<g id="a_node20"><a xlink:href="../../da/d75/vabstractarc__p_8h.html" target="_top" xlink:title=" ">
<polygon fill="white" stroke="red" points="4897.5,-67.5 4897.5,-97.5 5004.5,-97.5 5004.5,-67.5 4897.5,-67.5"/>
<text text-anchor="start" x="4905.5" y="-85.5" font-family="Helvetica,sans-Serif" font-size="10.00">src/libs/vgeometry</text>
<text text-anchor="middle" x="4951" y="-74.5" font-family="Helvetica,sans-Serif" font-size="10.00">/vabstractarc_p.h</text>
</a>
</g>
</g>
<!-- Node18&#45;&gt;Node21 -->
<g id="edge22" class="edge">
<title>Node18&#45;&gt;Node21</title>
<path fill="none" stroke="midnightblue" d="M3590.94,-152.3C3874.84,-147.42 4637.79,-131.48 4888,-98 4891,-97.6 4894.07,-97.12 4897.16,-96.59"/>
<polygon fill="midnightblue" stroke="midnightblue" points="3590.57,-148.81 3580.63,-152.48 3590.69,-155.81 3590.57,-148.81"/>
</g>
<!-- Node23 -->
<g id="node21" class="node">
<title>Node23</title>
<g id="a_node21"><a xlink:href="../../dc/da3/varc__p_8h.html" target="_top" xlink:title=" ">
<polygon fill="white" stroke="red" points="5022.5,-67.5 5022.5,-97.5 5129.5,-97.5 5129.5,-67.5 5022.5,-67.5"/>
<text text-anchor="start" x="5030.5" y="-85.5" font-family="Helvetica,sans-Serif" font-size="10.00">src/libs/vgeometry</text>
<text text-anchor="middle" x="5076" y="-74.5" font-family="Helvetica,sans-Serif" font-size="10.00">/varc_p.h</text>
</a>
</g>
</g>
<!-- Node18&#45;&gt;Node23 -->
<g id="edge23" class="edge">
<title>Node18&#45;&gt;Node23</title>
<path fill="none" stroke="midnightblue" d="M3590.66,-152.71C3891.6,-148.7 4737.55,-134.4 5013,-98 5016,-97.6 5019.08,-97.13 5022.17,-96.6"/>
<polygon fill="midnightblue" stroke="midnightblue" points="3590.57,-149.21 3580.62,-152.85 3590.66,-156.21 3590.57,-149.21"/>
</g>
<!-- Node25 -->
<g id="node22" class="node">
<title>Node25</title>
<g id="a_node22"><a xlink:href="../../d5/d8e/vcubicbezier__p_8h.html" target="_top" xlink:title=" ">
<polygon fill="white" stroke="red" points="5147.5,-67.5 5147.5,-97.5 5254.5,-97.5 5254.5,-67.5 5147.5,-67.5"/>
<text text-anchor="start" x="5155.5" y="-85.5" font-family="Helvetica,sans-Serif" font-size="10.00">src/libs/vgeometry</text>
<text text-anchor="middle" x="5201" y="-74.5" font-family="Helvetica,sans-Serif" font-size="10.00">/vcubicbezier_p.h</text>
</a>
</g>
</g>
<!-- Node18&#45;&gt;Node25 -->
<g id="edge24" class="edge">
<title>Node18&#45;&gt;Node25</title>
<path fill="none" stroke="midnightblue" d="M3590.74,-153.06C3908.33,-149.86 4837.32,-137.32 5138,-98 5141,-97.61 5144.08,-97.14 5147.17,-96.61"/>
<polygon fill="midnightblue" stroke="midnightblue" points="3590.58,-149.56 3580.61,-153.16 3590.65,-156.56 3590.58,-149.56"/>
</g>
<!-- Node27 -->
<g id="node23" class="node">
<title>Node27</title>
<g id="a_node23"><a xlink:href="../../df/dde/vellipticalarc__p_8h.html" target="_top" xlink:title=" ">
<polygon fill="white" stroke="black" points="1730.5,-67.5 1730.5,-97.5 1837.5,-97.5 1837.5,-67.5 1730.5,-67.5"/>
<text text-anchor="start" x="1738.5" y="-85.5" font-family="Helvetica,sans-Serif" font-size="10.00">src/libs/vgeometry</text>
<text text-anchor="middle" x="1784" y="-74.5" font-family="Helvetica,sans-Serif" font-size="10.00">/vellipticalarc_p.h</text>
</a>
</g>
</g>
<!-- Node18&#45;&gt;Node27 -->
<g id="edge25" class="edge">
<title>Node18&#45;&gt;Node27</title>
<path fill="none" stroke="midnightblue" d="M3375.32,-151.4C3035.92,-143.06 2002.07,-116.43 1852,-98 1847.33,-97.43 1842.5,-96.69 1837.67,-95.86"/>
<polygon fill="midnightblue" stroke="midnightblue" points="3375.32,-154.9 3385.4,-151.65 3375.49,-147.91 3375.32,-154.9"/>
</g>
<!-- Node28 -->
<g id="node24" class="node">
<title>Node28</title>
<g id="a_node24"><a xlink:href="../../d6/dfb/vellipticalarc_8cpp.html" target="_top" xlink:title=" ">
<polygon fill="white" stroke="black" points="1771.5,-0.5 1771.5,-30.5 1878.5,-30.5 1878.5,-0.5 1771.5,-0.5"/>
<text text-anchor="start" x="1779.5" y="-18.5" font-family="Helvetica,sans-Serif" font-size="10.00">src/libs/vgeometry</text>
<text text-anchor="middle" x="1825" y="-7.5" font-family="Helvetica,sans-Serif" font-size="10.00">/vellipticalarc.cpp</text>
</a>
</g>
</g>
<!-- Node18&#45;&gt;Node28 -->
<g id="edge27" class="edge">
<title>Node18&#45;&gt;Node28</title>
<path fill="none" stroke="midnightblue" d="M3375.11,-151.48C3021.47,-143.05 1917.97,-115.4 1885,-98 1857.34,-83.4 1839.14,-49.7 1830.61,-30.52"/>
<polygon fill="midnightblue" stroke="midnightblue" points="3375.28,-154.98 3385.36,-151.72 3375.44,-147.98 3375.28,-154.98"/>
</g>
<!-- Node29 -->
<g id="node25" class="node">
<title>Node29</title>
<g id="a_node25"><a xlink:href="../../d1/d76/vspline__p_8h.html" target="_top" xlink:title=" ">
<polygon fill="white" stroke="red" points="1894.5,-67.5 1894.5,-97.5 2001.5,-97.5 2001.5,-67.5 1894.5,-67.5"/>
<text text-anchor="start" x="1902.5" y="-85.5" font-family="Helvetica,sans-Serif" font-size="10.00">src/libs/vgeometry</text>
<text text-anchor="middle" x="1948" y="-74.5" font-family="Helvetica,sans-Serif" font-size="10.00">/vspline_p.h</text>
</a>
</g>
</g>
<!-- Node18&#45;&gt;Node29 -->
<g id="edge28" class="edge">
<title>Node18&#45;&gt;Node29</title>
<path fill="none" stroke="midnightblue" d="M3375.1,-152.53C3081.88,-148.11 2274.69,-133.04 2011,-98 2008,-97.6 2004.93,-97.12 2001.83,-96.59"/>
<polygon fill="midnightblue" stroke="midnightblue" points="3375.26,-156.03 3385.32,-152.68 3375.37,-149.03 3375.26,-156.03"/>
</g>
<!-- Node31 -->
<g id="node26" class="node">
<title>Node31</title>
<g id="a_node26"><a xlink:href="../../d9/d15/vabstractpiece_8cpp.html" target="_top" xlink:title=" ">
<polygon fill="white" stroke="black" points="2020,-73 2020,-92 2206,-92 2206,-73 2020,-73"/>
<text text-anchor="middle" x="2113" y="-80" font-family="Helvetica,sans-Serif" font-size="10.00">src/libs/vlayout/vabstractpiece.cpp</text>
</a>
</g>
</g>
<!-- Node18&#45;&gt;Node31 -->
<g id="edge29" class="edge">
<title>Node18&#45;&gt;Node31</title>
<path fill="none" stroke="midnightblue" d="M3375.13,-152.76C3156.05,-149.47 2643.45,-137.82 2215,-98 2198.97,-96.51 2181.61,-94.28 2165.82,-92"/>
<polygon fill="midnightblue" stroke="midnightblue" points="3375.29,-156.27 3385.34,-152.91 3375.39,-149.27 3375.29,-156.27"/>
</g>
<!-- Node32 -->
<g id="node27" class="node">
<title>Node32</title>
<g id="a_node27"><a xlink:href="../../db/d65/dialogexporttocsv_8cpp.html" target="_top" xlink:title=" ">
<polygon fill="white" stroke="black" points="2224.5,-67.5 2224.5,-97.5 2351.5,-97.5 2351.5,-67.5 2224.5,-67.5"/>
<text text-anchor="start" x="2232.5" y="-85.5" font-family="Helvetica,sans-Serif" font-size="10.00">src/libs/vmisc/dialogs</text>
<text text-anchor="middle" x="2288" y="-74.5" font-family="Helvetica,sans-Serif" font-size="10.00">/dialogexporttocsv.cpp</text>
</a>
</g>
</g>
<!-- Node18&#45;&gt;Node32 -->
<g id="edge32" class="edge">
<title>Node18&#45;&gt;Node32</title>
<path fill="none" stroke="midnightblue" d="M3375.18,-153.85C3174.69,-152.4 2731.28,-143.77 2361,-98 2357.92,-97.62 2354.78,-97.18 2351.61,-96.7"/>
<polygon fill="midnightblue" stroke="midnightblue" points="3375.39,-157.35 3385.41,-153.92 3375.43,-150.35 3375.39,-157.35"/>
</g>
<!-- Node33 -->
<g id="node28" class="node">
<title>Node33</title>
<g id="a_node28"><a xlink:href="../../d6/d0b/def_8cpp.html" target="_top" xlink:title=" ">
<polygon fill="white" stroke="black" points="2370,-73 2370,-92 2492,-92 2492,-73 2370,-73"/>
<text text-anchor="middle" x="2431" y="-80" font-family="Helvetica,sans-Serif" font-size="10.00">src/libs/vmisc/def.cpp</text>
</a>
</g>
</g>
<!-- Node18&#45;&gt;Node33 -->
<g id="edge33" class="edge">
<title>Node18&#45;&gt;Node33</title>
<path fill="none" stroke="midnightblue" d="M3375.27,-153.03C3194.02,-150.25 2816.93,-139.5 2501,-98 2489.93,-96.55 2477.99,-94.32 2467.16,-92.05"/>
<polygon fill="midnightblue" stroke="midnightblue" points="3375.29,-156.53 3385.34,-153.18 3375.39,-149.54 3375.29,-156.53"/>
</g>
<!-- Node34 -->
<g id="node29" class="node">
<title>Node34</title>
<g id="a_node29"><a xlink:href="../../d0/df6/vabstractapplication_8cpp.html" target="_top" xlink:title=" ">
<polygon fill="white" stroke="black" points="2510,-73 2510,-92 2716,-92 2716,-73 2510,-73"/>
<text text-anchor="middle" x="2613" y="-80" font-family="Helvetica,sans-Serif" font-size="10.00">src/libs/vmisc/vabstractapplication.cpp</text>
</a>
</g>
</g>
<!-- Node18&#45;&gt;Node34 -->
<g id="edge34" class="edge">
<title>Node18&#45;&gt;Node34</title>
<path fill="none" stroke="midnightblue" d="M3374.95,-147.89C3227.76,-139.14 2956.09,-121.48 2725,-98 2708.42,-96.32 2690.5,-94.15 2673.96,-92.01"/>
<polygon fill="midnightblue" stroke="midnightblue" points="3375.14,-151.41 3385.33,-148.51 3375.55,-144.42 3375.14,-151.41"/>
</g>
<!-- Node35 -->
<g id="node30" class="node">
<title>Node35</title>
<g id="a_node30"><a xlink:href="../../d4/d4f/pmsystems_8cpp.html" target="_top" xlink:title=" ">
<polygon fill="white" stroke="black" points="2734.5,-67.5 2734.5,-97.5 2841.5,-97.5 2841.5,-67.5 2734.5,-67.5"/>
<text text-anchor="start" x="2742.5" y="-85.5" font-family="Helvetica,sans-Serif" font-size="10.00">src/libs/vpatterndb</text>
<text text-anchor="middle" x="2788" y="-74.5" font-family="Helvetica,sans-Serif" font-size="10.00">/pmsystems.cpp</text>
</a>
</g>
</g>
<!-- Node18&#45;&gt;Node35 -->
<g id="edge35" class="edge">
<title>Node18&#45;&gt;Node35</title>
<path fill="none" stroke="midnightblue" d="M3375.35,-149.12C3248.93,-142.33 3033.22,-127.38 2850,-98 2847.27,-97.56 2844.48,-97.07 2841.68,-96.54"/>
<polygon fill="midnightblue" stroke="midnightblue" points="3375.25,-152.62 3385.42,-149.66 3375.62,-145.63 3375.25,-152.62"/>
</g>
<!-- Node18&#45;&gt;Node36 -->
<g id="edge36" class="edge">
<title>Node18&#45;&gt;Node36</title>
<path fill="none" stroke="midnightblue" d="M3590.69,-153.36C3924.18,-150.95 4936.95,-140.24 5263,-98 5266.01,-97.61 5269.08,-97.14 5272.17,-96.62"/>
<polygon fill="midnightblue" stroke="midnightblue" points="3590.52,-149.86 3580.54,-153.43 3590.57,-156.86 3590.52,-149.86"/>
</g>
<!-- Node18&#45;&gt;Node37 -->
<g id="edge37" class="edge">
<title>Node18&#45;&gt;Node37</title>
<path fill="none" stroke="midnightblue" d="M3590.73,-153.67C3939.8,-152.16 5037.42,-143.81 5389,-98 5391.74,-97.64 5394.54,-97.22 5397.35,-96.74"/>
<polygon fill="midnightblue" stroke="midnightblue" points="3590.61,-150.17 3580.62,-153.71 3590.64,-157.17 3590.61,-150.17"/>
</g>
<!-- Node18&#45;&gt;Node38 -->
<g id="edge38" class="edge">
<title>Node18&#45;&gt;Node38</title>
<path fill="none" stroke="midnightblue" d="M3590.57,-153.9C3954.36,-153.12 5136.88,-146.79 5514,-98 5516.74,-97.65 5519.54,-97.22 5522.35,-96.75"/>
<polygon fill="midnightblue" stroke="midnightblue" points="3590.56,-150.4 3580.57,-153.92 3590.58,-157.4 3590.56,-150.4"/>
</g>
<!-- Node39 -->
<g id="node34" class="node">
<title>Node39</title>
<g id="a_node34"><a xlink:href="../../df/dba/vpiecenode__p_8h.html" target="_top" xlink:title=" ">
<polygon fill="white" stroke="black" points="2859.5,-67.5 2859.5,-97.5 2966.5,-97.5 2966.5,-67.5 2859.5,-67.5"/>
<text text-anchor="start" x="2867.5" y="-85.5" font-family="Helvetica,sans-Serif" font-size="10.00">src/libs/vpatterndb</text>
<text text-anchor="middle" x="2913" y="-74.5" font-family="Helvetica,sans-Serif" font-size="10.00">/vpiecenode_p.h</text>
</a>
</g>
</g>
<!-- Node18&#45;&gt;Node39 -->
<g id="edge39" class="edge">
<title>Node18&#45;&gt;Node39</title>
<path fill="none" stroke="midnightblue" d="M3375.24,-145.75C3272.26,-137.01 3112.88,-121.23 2976,-98 2972.9,-97.47 2969.73,-96.89 2966.53,-96.27"/>
<polygon fill="midnightblue" stroke="midnightblue" points="3375.08,-149.25 3385.34,-146.6 3375.67,-142.28 3375.08,-149.25"/>
</g>
<!-- Node41 -->
<g id="node36" class="node">
<title>Node41</title>
<g id="a_node36"><a xlink:href="../../de/d3e/vtranslatevars_8cpp.html" target="_top" xlink:title=" ">
<polygon fill="white" stroke="black" points="2985,-67.5 2985,-97.5 3095,-97.5 3095,-67.5 2985,-67.5"/>
<text text-anchor="start" x="2993" y="-85.5" font-family="Helvetica,sans-Serif" font-size="10.00">src/libs/vpatterndb</text>
<text text-anchor="middle" x="3040" y="-74.5" font-family="Helvetica,sans-Serif" font-size="10.00">/vtranslatevars.cpp</text>
</a>
</g>
</g>
<!-- Node18&#45;&gt;Node41 -->
<g id="edge41" class="edge">
<title>Node18&#45;&gt;Node41</title>
<path fill="none" stroke="midnightblue" d="M3404.53,-144.18C3327.69,-134.14 3207.4,-117.32 3104,-98 3101.09,-97.46 3098.11,-96.87 3095.1,-96.26"/>
<polygon fill="midnightblue" stroke="midnightblue" points="3404.25,-147.67 3414.62,-145.49 3405.15,-140.73 3404.25,-147.67"/>
</g>
<!-- Node42 -->
<g id="node37" class="node">
<title>Node42</title>
<g id="a_node37"><a xlink:href="../../df/d40/export__format__combobox_8cpp.html" target="_top" xlink:title=" ">
<polygon fill="white" stroke="black" points="3113.5,-67.5 3113.5,-97.5 3246.5,-97.5 3246.5,-67.5 3113.5,-67.5"/>
<text text-anchor="start" x="3121.5" y="-85.5" font-family="Helvetica,sans-Serif" font-size="10.00">src/libs/vwidgets/export</text>
<text text-anchor="middle" x="3180" y="-74.5" font-family="Helvetica,sans-Serif" font-size="10.00">_format_combobox.cpp</text>
</a>
</g>
</g>
<!-- Node18&#45;&gt;Node42 -->
<g id="edge42" class="edge">
<title>Node18&#45;&gt;Node42</title>
<path fill="none" stroke="midnightblue" d="M3436.71,-143.23C3384.08,-130.98 3298,-110.96 3240.2,-97.51"/>
<polygon fill="midnightblue" stroke="midnightblue" points="3435.92,-146.64 3446.45,-145.5 3437.5,-139.82 3435.92,-146.64"/>
</g>
<!-- Node43 -->
<g id="node38" class="node">
<title>Node43</title>
<g id="a_node38"><a xlink:href="../../d3/d4f/mouse__coordinates_8cpp.html" target="_top" xlink:title=" ">
<polygon fill="white" stroke="black" points="3265,-67.5 3265,-97.5 3399,-97.5 3399,-67.5 3265,-67.5"/>
<text text-anchor="start" x="3273" y="-85.5" font-family="Helvetica,sans-Serif" font-size="10.00">src/libs/vwidgets/mouse</text>
<text text-anchor="middle" x="3332" y="-74.5" font-family="Helvetica,sans-Serif" font-size="10.00">_coordinates.cpp</text>
</a>
</g>
</g>
<!-- Node18&#45;&gt;Node43 -->
<g id="edge43" class="edge">
<title>Node18&#45;&gt;Node43</title>
<path fill="none" stroke="midnightblue" d="M3455.71,-141.26C3429.28,-128.92 3389.31,-110.26 3362,-97.51"/>
<polygon fill="midnightblue" stroke="midnightblue" points="3454.24,-144.44 3464.79,-145.5 3457.21,-138.09 3454.24,-144.44"/>
</g>
<!-- Node44 -->
<g id="node39" class="node">
<title>Node44</title>
<g id="a_node39"><a xlink:href="../../d2/d28/page__format__combobox_8cpp.html" target="_top" xlink:title=" ">
<polygon fill="white" stroke="black" points="3417.5,-67.5 3417.5,-97.5 3548.5,-97.5 3548.5,-67.5 3417.5,-67.5"/>
<text text-anchor="start" x="3425.5" y="-85.5" font-family="Helvetica,sans-Serif" font-size="10.00">src/libs/vwidgets/page</text>
<text text-anchor="middle" x="3483" y="-74.5" font-family="Helvetica,sans-Serif" font-size="10.00">_format_combobox.cpp</text>
</a>
</g>
</g>
<!-- Node18&#45;&gt;Node44 -->
<g id="edge44" class="edge">
<title>Node18&#45;&gt;Node44</title>
<path fill="none" stroke="midnightblue" d="M3483,-135.24C3483,-123.41 3483,-108.38 3483,-97.58"/>
<polygon fill="midnightblue" stroke="midnightblue" points="3479.5,-135.36 3483,-145.36 3486.5,-135.36 3479.5,-135.36"/>
</g>
<!-- Node45 -->
<g id="node40" class="node">
<title>Node45</title>
<g id="a_node40"><a xlink:href="../../d7/d1b/pen__toolbar_8cpp.html" target="_top" xlink:title=" ">
<polygon fill="white" stroke="black" points="3566.5,-67.5 3566.5,-97.5 3685.5,-97.5 3685.5,-67.5 3566.5,-67.5"/>
<text text-anchor="start" x="3574.5" y="-85.5" font-family="Helvetica,sans-Serif" font-size="10.00">src/libs/vwidgets/pen</text>
<text text-anchor="middle" x="3626" y="-74.5" font-family="Helvetica,sans-Serif" font-size="10.00">_toolbar.cpp</text>
</a>
</g>
</g>
<!-- Node18&#45;&gt;Node45 -->
<g id="edge45" class="edge">
<title>Node18&#45;&gt;Node45</title>
<path fill="none" stroke="midnightblue" d="M3509.5,-140.93C3534.53,-128.59 3571.96,-110.14 3597.59,-97.51"/>
<polygon fill="midnightblue" stroke="midnightblue" points="3507.67,-137.93 3500.25,-145.5 3510.77,-144.21 3507.67,-137.93"/>
</g>
<!-- Node46 -->
<g id="node41" class="node">
<title>Node46</title>
<g id="a_node41"><a xlink:href="../../d8/d76/scene__rect_8cpp.html" target="_top" xlink:title=" ">
<polygon fill="white" stroke="black" points="3704,-67.5 3704,-97.5 3834,-97.5 3834,-67.5 3704,-67.5"/>
<text text-anchor="start" x="3712" y="-85.5" font-family="Helvetica,sans-Serif" font-size="10.00">src/libs/vwidgets/scene</text>
<text text-anchor="middle" x="3769" y="-74.5" font-family="Helvetica,sans-Serif" font-size="10.00">_rect.cpp</text>
</a>
</g>
</g>
<!-- Node18&#45;&gt;Node46 -->
<g id="edge46" class="edge">
<title>Node18&#45;&gt;Node46</title>
<path fill="none" stroke="midnightblue" d="M3527.31,-143.08C3577.04,-130.82 3657.85,-110.9 3712.18,-97.51"/>
<polygon fill="midnightblue" stroke="midnightblue" points="3526.37,-139.7 3517.5,-145.5 3528.05,-146.5 3526.37,-139.7"/>
</g>
<!-- Node47 -->
<g id="node42" class="node">
<title>Node47</title>
<g id="a_node42"><a xlink:href="../../dd/df6/vabstractmainwindow_8cpp.html" target="_top" xlink:title=" ">
<polygon fill="white" stroke="black" points="3852.5,-73 3852.5,-92 4081.5,-92 4081.5,-73 3852.5,-73"/>
<text text-anchor="middle" x="3967" y="-80" font-family="Helvetica,sans-Serif" font-size="10.00">src/libs/vwidgets/vabstractmainwindow.cpp</text>
</a>
</g>
</g>
<!-- Node18&#45;&gt;Node47 -->
<g id="edge47" class="edge">
<title>Node18&#45;&gt;Node47</title>
<path fill="none" stroke="midnightblue" d="M3551.51,-144.02C3647.02,-130.11 3818.53,-105.13 3908.41,-92.03"/>
<polygon fill="midnightblue" stroke="midnightblue" points="3550.77,-140.59 3541.38,-145.5 3551.78,-147.52 3550.77,-140.59"/>
</g>
<!-- Node48 -->
<g id="node43" class="node">
<title>Node48</title>
<g id="a_node43"><a xlink:href="../../d1/d90/vgrainlineitem_8cpp.html" target="_top" xlink:title=" ">
<polygon fill="white" stroke="black" points="4099.5,-73 4099.5,-92 4292.5,-92 4292.5,-73 4099.5,-73"/>
<text text-anchor="middle" x="4196" y="-80" font-family="Helvetica,sans-Serif" font-size="10.00">src/libs/vwidgets/vgrainlineitem.cpp</text>
</a>
</g>
</g>
<!-- Node18&#45;&gt;Node48 -->
<g id="edge48" class="edge">
<title>Node18&#45;&gt;Node48</title>
<path fill="none" stroke="midnightblue" d="M3590.69,-145.5C3712.15,-135.59 3915.51,-117.97 4090,-98 4105.32,-96.25 4121.84,-94.11 4137.19,-92.01"/>
<polygon fill="midnightblue" stroke="midnightblue" points="3590.33,-142.02 3580.64,-146.32 3590.89,-149 3590.33,-142.02"/>
</g>
<!-- Node49 -->
<g id="node44" class="node">
<title>Node49</title>
<g id="a_node44"><a xlink:href="../../de/dec/vgraphicssimpletextitem_8cpp.html" target="_top" xlink:title=" ">
<polygon fill="white" stroke="black" points="4311,-73 4311,-92 4555,-92 4555,-73 4311,-73"/>
<text text-anchor="middle" x="4433" y="-80" font-family="Helvetica,sans-Serif" font-size="10.00">src/libs/vwidgets/vgraphicssimpletextitem.cpp</text>
</a>
</g>
</g>
<!-- Node18&#45;&gt;Node49 -->
<g id="edge49" class="edge">
<title>Node18&#45;&gt;Node49</title>
<path fill="none" stroke="midnightblue" d="M3590.79,-148.03C3747.36,-139.05 4046.76,-120.66 4301,-98 4320.29,-96.28 4341.13,-94.13 4360.43,-92.01"/>
<polygon fill="midnightblue" stroke="midnightblue" points="3590.47,-144.55 3580.69,-148.61 3590.87,-151.54 3590.47,-144.55"/>
</g>
<!-- Node27&#45;&gt;Node28 -->
<g id="edge26" class="edge">
<title>Node27&#45;&gt;Node28</title>
<path fill="none" stroke="midnightblue" d="M1798.28,-58.87C1804.21,-49.46 1810.91,-38.83 1816.12,-30.58"/>
<polygon fill="midnightblue" stroke="midnightblue" points="1795.27,-57.07 1792.9,-67.4 1801.19,-60.81 1795.27,-57.07"/>
</g>
<!-- Node39&#45;&gt;Node40 -->
<g id="edge40" class="edge">
<title>Node39&#45;&gt;Node40</title>
<path fill="none" stroke="midnightblue" d="M2976.91,-67.11C3244.71,-33.54 4019.68,-20.3 4231.17,-17.23"/>
<polygon fill="midnightblue" stroke="midnightblue" points="2976.3,-63.65 2966.83,-68.41 2977.2,-70.6 2976.3,-63.65"/>
</g>
</g>
</svg>
