<?xml version="1.0" encoding="UTF-8" standalone="no"?>
<!DOCTYPE svg PUBLIC "-//W3C//DTD SVG 1.1//EN"
 "http://www.w3.org/Graphics/SVG/1.1/DTD/svg11.dtd">
<!-- Generated by graphviz version 2.43.0 (0)
 -->
<!-- Title: src/libs/ifc/exception/vexceptionbadid.h Pages: 1 -->
<svg width="6381pt" height="318pt"
 viewBox="0.00 0.00 6381.00 318.00" xmlns="http://www.w3.org/2000/svg" xmlns:xlink="http://www.w3.org/1999/xlink">
<g id="graph0" class="graph" transform="scale(1 1) rotate(0) translate(4 314)">
<title>src/libs/ifc/exception/vexceptionbadid.h</title>
<polygon fill="white" stroke="transparent" points="-4,4 -4,-314 6377,-314 6377,4 -4,4"/>
<!-- Node1 -->
<g id="node1" class="node">
<title>Node1</title>
<g id="a_node1"><a xlink:title=" ">
<polygon fill="#bfbfbf" stroke="black" points="5209.5,-279.5 5209.5,-309.5 5326.5,-309.5 5326.5,-279.5 5209.5,-279.5"/>
<text text-anchor="start" x="5217.5" y="-297.5" font-family="Helvetica,sans-Serif" font-size="10.00">src/libs/ifc/exception</text>
<text text-anchor="middle" x="5268" y="-286.5" font-family="Helvetica,sans-Serif" font-size="10.00">/vexceptionbadid.h</text>
</a>
</g>
</g>
<!-- Node2 -->
<g id="node2" class="node">
<title>Node2</title>
<g id="a_node2"><a xlink:href="../../d5/d85/vexceptionbadid_8cpp.html" target="_top" xlink:title=" ">
<polygon fill="white" stroke="black" points="5034.5,-212.5 5034.5,-242.5 5155.5,-242.5 5155.5,-212.5 5034.5,-212.5"/>
<text text-anchor="start" x="5042.5" y="-230.5" font-family="Helvetica,sans-Serif" font-size="10.00">src/libs/ifc/exception</text>
<text text-anchor="middle" x="5095" y="-219.5" font-family="Helvetica,sans-Serif" font-size="10.00">/vexceptionbadid.cpp</text>
</a>
</g>
</g>
<!-- Node1&#45;&gt;Node2 -->
<g id="edge1" class="edge">
<title>Node1&#45;&gt;Node2</title>
<path fill="none" stroke="midnightblue" d="M5220.94,-275.82C5193.13,-265.37 5158.41,-252.32 5132.47,-242.58"/>
<polygon fill="midnightblue" stroke="midnightblue" points="5219.87,-279.16 5230.46,-279.4 5222.33,-272.6 5219.87,-279.16"/>
</g>
<!-- Node3 -->
<g id="node3" class="node">
<title>Node3</title>
<g id="a_node3"><a xlink:href="../../d7/d49/vdomdocument_8cpp.html" target="_top" xlink:title=" ">
<polygon fill="white" stroke="black" points="5174,-218 5174,-237 5362,-237 5362,-218 5174,-218"/>
<text text-anchor="middle" x="5268" y="-225" font-family="Helvetica,sans-Serif" font-size="10.00">src/libs/ifc/xml/vdomdocument.cpp</text>
</a>
</g>
</g>
<!-- Node1&#45;&gt;Node3 -->
<g id="edge2" class="edge">
<title>Node1&#45;&gt;Node3</title>
<path fill="none" stroke="midnightblue" d="M5268,-269.25C5268,-258.02 5268,-245.38 5268,-237.19"/>
<polygon fill="midnightblue" stroke="midnightblue" points="5264.5,-269.4 5268,-279.4 5271.5,-269.4 5264.5,-269.4"/>
</g>
<!-- Node4 -->
<g id="node4" class="node">
<title>Node4</title>
<g id="a_node4"><a xlink:href="../../d3/df7/vcontainer_8h.html" target="_top" xlink:title=" ">
<polygon fill="white" stroke="black" points="5380.5,-212.5 5380.5,-242.5 5487.5,-242.5 5487.5,-212.5 5380.5,-212.5"/>
<text text-anchor="start" x="5388.5" y="-230.5" font-family="Helvetica,sans-Serif" font-size="10.00">src/libs/vpatterndb</text>
<text text-anchor="middle" x="5434" y="-219.5" font-family="Helvetica,sans-Serif" font-size="10.00">/vcontainer.h</text>
</a>
</g>
</g>
<!-- Node1&#45;&gt;Node4 -->
<g id="edge3" class="edge">
<title>Node1&#45;&gt;Node4</title>
<path fill="none" stroke="midnightblue" d="M5313.51,-275.68C5340.13,-265.26 5373.27,-252.28 5398.05,-242.58"/>
<polygon fill="midnightblue" stroke="midnightblue" points="5312.05,-272.49 5304.02,-279.4 5314.61,-279.01 5312.05,-272.49"/>
</g>
<!-- Node5 -->
<g id="node5" class="node">
<title>Node5</title>
<g id="a_node5"><a xlink:href="../../dc/db7/measurements_8h.html" target="_top" xlink:title=" ">
<polygon fill="white" stroke="black" points="142.5,-145.5 142.5,-164.5 321.5,-164.5 321.5,-145.5 142.5,-145.5"/>
<text text-anchor="middle" x="232" y="-152.5" font-family="Helvetica,sans-Serif" font-size="10.00">src/libs/vformat/measurements.h</text>
</a>
</g>
</g>
<!-- Node4&#45;&gt;Node5 -->
<g id="edge4" class="edge">
<title>Node4&#45;&gt;Node5</title>
<path fill="none" stroke="midnightblue" d="M5370.04,-212.16C4800.46,-150.81 1135.55,-191.88 610,-176 511.31,-173.02 398.25,-166.65 321.69,-161.89"/>
<polygon fill="midnightblue" stroke="midnightblue" points="5369.85,-215.66 5380.18,-213.3 5370.63,-208.7 5369.85,-215.66"/>
</g>
<!-- Node6 -->
<g id="node6" class="node">
<title>Node6</title>
<g id="a_node6"><a xlink:href="../../d9/de3/measurements_8cpp.html" target="_top" xlink:title=" ">
<polygon fill="white" stroke="black" points="0,-73 0,-92 190,-92 190,-73 0,-73"/>
<text text-anchor="middle" x="95" y="-80" font-family="Helvetica,sans-Serif" font-size="10.00">src/libs/vformat/measurements.cpp</text>
</a>
</g>
</g>
<!-- Node4&#45;&gt;Node6 -->
<g id="edge6" class="edge">
<title>Node4&#45;&gt;Node6</title>
<path fill="none" stroke="midnightblue" d="M5369.99,-212.15C4819.09,-153.19 1285.62,-211.78 780,-176 539.1,-158.95 253.62,-111.54 142.54,-92.04"/>
<polygon fill="midnightblue" stroke="midnightblue" points="5369.85,-215.66 5380.18,-213.3 5370.63,-208.7 5369.85,-215.66"/>
</g>
<!-- Node7 -->
<g id="node7" class="node">
<title>Node7</title>
<g id="a_node7"><a xlink:href="../../d6/de0/vlayoutpiece_8h.html" target="_top" xlink:title=" ">
<polygon fill="white" stroke="black" points="789,-145.5 789,-164.5 955,-164.5 955,-145.5 789,-145.5"/>
<text text-anchor="middle" x="872" y="-152.5" font-family="Helvetica,sans-Serif" font-size="10.00">src/libs/vlayout/vlayoutpiece.h</text>
</a>
</g>
</g>
<!-- Node4&#45;&gt;Node7 -->
<g id="edge7" class="edge">
<title>Node4&#45;&gt;Node7</title>
<path fill="none" stroke="midnightblue" d="M5369.99,-212.17C5007.38,-173.79 2791.86,-179.97 2473,-176 1892.08,-168.76 1192.6,-160.01 955.34,-157.04"/>
<polygon fill="midnightblue" stroke="midnightblue" points="5369.85,-215.67 5380.18,-213.32 5370.63,-208.72 5369.85,-215.67"/>
</g>
<!-- Node17 -->
<g id="node16" class="node">
<title>Node17</title>
<g id="a_node16"><a xlink:href="../../d8/d70/vtextmanager_8cpp.html" target="_top" xlink:title=" ">
<polygon fill="white" stroke="black" points="1529,-73 1529,-92 1711,-92 1711,-73 1529,-73"/>
<text text-anchor="middle" x="1620" y="-80" font-family="Helvetica,sans-Serif" font-size="10.00">src/libs/vlayout/vtextmanager.cpp</text>
</a>
</g>
</g>
<!-- Node4&#45;&gt;Node17 -->
<g id="edge18" class="edge">
<title>Node4&#45;&gt;Node17</title>
<path fill="none" stroke="midnightblue" d="M5370.18,-212.13C4913.96,-158.38 3813.59,-190.36 3373,-176 2637.91,-152.04 2452.13,-168.19 1720,-98 1704.37,-96.5 1687.45,-94.28 1672.04,-92.02"/>
<polygon fill="midnightblue" stroke="midnightblue" points="5369.83,-215.61 5380.17,-213.34 5370.67,-208.66 5369.83,-215.61"/>
</g>
<!-- Node18 -->
<g id="node17" class="node">
<title>Node18</title>
<g id="a_node17"><a xlink:href="../../d5/d74/vabstractapplication_8h.html" target="_top" xlink:title=" ">
<polygon fill="white" stroke="red" points="3382.5,-145.5 3382.5,-164.5 3577.5,-164.5 3577.5,-145.5 3382.5,-145.5"/>
<text text-anchor="middle" x="3480" y="-152.5" font-family="Helvetica,sans-Serif" font-size="10.00">src/libs/vmisc/vabstractapplication.h</text>
</a>
</g>
</g>
<!-- Node4&#45;&gt;Node18 -->
<g id="edge19" class="edge">
<title>Node4&#45;&gt;Node18</title>
<path fill="none" stroke="midnightblue" d="M5370.2,-212.12C4999.07,-166.57 3910.51,-157.97 3577.72,-156.36"/>
<polygon fill="midnightblue" stroke="midnightblue" points="5369.81,-215.6 5380.17,-213.38 5370.69,-208.66 5369.81,-215.6"/>
</g>
<!-- Node36 -->
<g id="node31" class="node">
<title>Node36</title>
<g id="a_node31"><a xlink:href="../../db/d11/vformula_8cpp.html" target="_top" xlink:title=" ">
<polygon fill="white" stroke="black" points="5239.5,-67.5 5239.5,-97.5 5346.5,-97.5 5346.5,-67.5 5239.5,-67.5"/>
<text text-anchor="start" x="5247.5" y="-85.5" font-family="Helvetica,sans-Serif" font-size="10.00">src/libs/vpatterndb</text>
<text text-anchor="middle" x="5293" y="-74.5" font-family="Helvetica,sans-Serif" font-size="10.00">/vformula.cpp</text>
</a>
</g>
</g>
<!-- Node4&#45;&gt;Node36 -->
<g id="edge52" class="edge">
<title>Node4&#45;&gt;Node36</title>
<path fill="none" stroke="midnightblue" d="M5412.7,-204.9C5383.48,-175.26 5331.75,-122.8 5306.98,-97.68"/>
<polygon fill="midnightblue" stroke="midnightblue" points="5410.45,-207.6 5419.96,-212.27 5415.44,-202.69 5410.45,-207.6"/>
</g>
<!-- Node37 -->
<g id="node32" class="node">
<title>Node37</title>
<g id="a_node32"><a xlink:href="../../d6/d46/vcontainer_8cpp.html" target="_top" xlink:title=" ">
<polygon fill="white" stroke="black" points="5364.5,-67.5 5364.5,-97.5 5471.5,-97.5 5471.5,-67.5 5364.5,-67.5"/>
<text text-anchor="start" x="5372.5" y="-85.5" font-family="Helvetica,sans-Serif" font-size="10.00">src/libs/vpatterndb</text>
<text text-anchor="middle" x="5418" y="-74.5" font-family="Helvetica,sans-Serif" font-size="10.00">/vcontainer.cpp</text>
</a>
</g>
</g>
<!-- Node4&#45;&gt;Node37 -->
<g id="edge53" class="edge">
<title>Node4&#45;&gt;Node37</title>
<path fill="none" stroke="midnightblue" d="M5426,-202.37C5423.61,-194.1 5421.28,-184.73 5420,-176 5415.96,-148.51 5416.46,-115.93 5417.22,-97.7"/>
<polygon fill="midnightblue" stroke="midnightblue" points="5422.71,-203.58 5428.98,-212.12 5429.4,-201.53 5422.71,-203.58"/>
</g>
<!-- Node38 -->
<g id="node33" class="node">
<title>Node38</title>
<g id="a_node33"><a xlink:href="../../df/d7a/vpiece_8cpp.html" target="_top" xlink:title=" ">
<polygon fill="white" stroke="black" points="5489.5,-67.5 5489.5,-97.5 5596.5,-97.5 5596.5,-67.5 5489.5,-67.5"/>
<text text-anchor="start" x="5497.5" y="-85.5" font-family="Helvetica,sans-Serif" font-size="10.00">src/libs/vpatterndb</text>
<text text-anchor="middle" x="5543" y="-74.5" font-family="Helvetica,sans-Serif" font-size="10.00">/vpiece.cpp</text>
</a>
</g>
</g>
<!-- Node4&#45;&gt;Node38 -->
<g id="edge55" class="edge">
<title>Node4&#45;&gt;Node38</title>
<path fill="none" stroke="midnightblue" d="M5435.28,-202.03C5437.43,-181.99 5443.12,-153.81 5458,-134 5470.17,-117.81 5489.18,-105.81 5506.14,-97.59"/>
<polygon fill="midnightblue" stroke="midnightblue" points="5431.77,-201.96 5434.41,-212.22 5438.74,-202.55 5431.77,-201.96"/>
</g>
<!-- Node40 -->
<g id="node35" class="node">
<title>Node40</title>
<g id="a_node35"><a xlink:href="../../d8/dba/vpiecenode_8cpp.html" target="_top" xlink:title=" ">
<polygon fill="white" stroke="black" points="4213.5,-0.5 4213.5,-30.5 4320.5,-30.5 4320.5,-0.5 4213.5,-0.5"/>
<text text-anchor="start" x="4221.5" y="-18.5" font-family="Helvetica,sans-Serif" font-size="10.00">src/libs/vpatterndb</text>
<text text-anchor="middle" x="4267" y="-7.5" font-family="Helvetica,sans-Serif" font-size="10.00">/vpiecenode.cpp</text>
</a>
</g>
</g>
<!-- Node4&#45;&gt;Node40 -->
<g id="edge56" class="edge">
<title>Node4&#45;&gt;Node40</title>
<path fill="none" stroke="midnightblue" d="M5445.81,-203.4C5458.57,-179.26 5478.71,-143.56 5491,-134 5533.28,-101.12 5574.29,-141.16 5606,-98 5614.16,-86.9 5615.56,-76.92 5606,-67 5560.72,-19.98 4565.1,-16.59 4320.77,-16.47"/>
<polygon fill="midnightblue" stroke="midnightblue" points="5442.68,-201.84 5441.16,-212.32 5448.89,-205.08 5442.68,-201.84"/>
</g>
<!-- Node57 -->
<g id="node45" class="node">
<title>Node57</title>
<g id="a_node45"><a xlink:href="../../d7/d8a/measurement__variable__p_8h.html" target="_top" xlink:title=" ">
<polygon fill="white" stroke="red" points="5500,-134.5 5500,-175.5 5636,-175.5 5636,-134.5 5500,-134.5"/>
<text text-anchor="start" x="5508" y="-163.5" font-family="Helvetica,sans-Serif" font-size="10.00">src/libs/vpatterndb</text>
<text text-anchor="start" x="5508" y="-152.5" font-family="Helvetica,sans-Serif" font-size="10.00">/variables/measurement</text>
<text text-anchor="middle" x="5568" y="-141.5" font-family="Helvetica,sans-Serif" font-size="10.00">_variable_p.h</text>
</a>
</g>
</g>
<!-- Node4&#45;&gt;Node57 -->
<g id="edge50" class="edge">
<title>Node4&#45;&gt;Node57</title>
<path fill="none" stroke="midnightblue" d="M5469.69,-207.72C5488.57,-197.79 5511.75,-185.6 5530.85,-175.55"/>
<polygon fill="midnightblue" stroke="midnightblue" points="5468.02,-204.65 5460.79,-212.4 5471.27,-210.84 5468.02,-204.65"/>
</g>
<!-- Node59 -->
<g id="node46" class="node">
<title>Node59</title>
<g id="a_node46"><a xlink:href="../../d1/de1/vincrement__p_8h.html" target="_top" xlink:title=" ">
<polygon fill="white" stroke="red" points="5654.5,-140 5654.5,-170 5797.5,-170 5797.5,-140 5654.5,-140"/>
<text text-anchor="start" x="5662.5" y="-158" font-family="Helvetica,sans-Serif" font-size="10.00">src/libs/vpatterndb</text>
<text text-anchor="middle" x="5726" y="-147" font-family="Helvetica,sans-Serif" font-size="10.00">/variables/vincrement_p.h</text>
</a>
</g>
</g>
<!-- Node4&#45;&gt;Node59 -->
<g id="edge51" class="edge">
<title>Node4&#45;&gt;Node59</title>
<path fill="none" stroke="midnightblue" d="M5497.59,-211.41C5539.48,-201.43 5595.53,-188.03 5645,-176 5652.88,-174.08 5661.19,-172.05 5669.36,-170.04"/>
<polygon fill="midnightblue" stroke="midnightblue" points="5496.71,-208.02 5487.79,-213.74 5498.33,-214.83 5496.71,-208.02"/>
</g>
<!-- Node61 -->
<g id="node47" class="node">
<title>Node61</title>
<g id="a_node47"><a xlink:href="../../d6/d91/vnodedetail_8cpp.html" target="_top" xlink:title=" ">
<polygon fill="white" stroke="black" points="5815.5,-140 5815.5,-170 5922.5,-170 5922.5,-140 5815.5,-140"/>
<text text-anchor="start" x="5823.5" y="-158" font-family="Helvetica,sans-Serif" font-size="10.00">src/libs/vpatterndb</text>
<text text-anchor="middle" x="5869" y="-147" font-family="Helvetica,sans-Serif" font-size="10.00">/vnodedetail.cpp</text>
</a>
</g>
</g>
<!-- Node4&#45;&gt;Node61 -->
<g id="edge54" class="edge">
<title>Node4&#45;&gt;Node61</title>
<path fill="none" stroke="midnightblue" d="M5497.85,-221.33C5572.62,-214.48 5699.88,-200.33 5807,-176 5814.17,-174.37 5821.69,-172.28 5828.93,-170.07"/>
<polygon fill="midnightblue" stroke="midnightblue" points="5497.3,-217.87 5487.65,-222.25 5497.93,-224.84 5497.3,-217.87"/>
</g>
<!-- Node62 -->
<g id="node48" class="node">
<title>Node62</title>
<g id="a_node48"><a xlink:href="../../da/de1/vpiecepath_8cpp.html" target="_top" xlink:title=" ">
<polygon fill="white" stroke="black" points="5940.5,-140 5940.5,-170 6047.5,-170 6047.5,-140 5940.5,-140"/>
<text text-anchor="start" x="5948.5" y="-158" font-family="Helvetica,sans-Serif" font-size="10.00">src/libs/vpatterndb</text>
<text text-anchor="middle" x="5994" y="-147" font-family="Helvetica,sans-Serif" font-size="10.00">/vpiecepath.cpp</text>
</a>
</g>
</g>
<!-- Node4&#45;&gt;Node62 -->
<g id="edge57" class="edge">
<title>Node4&#45;&gt;Node62</title>
<path fill="none" stroke="midnightblue" d="M5497.69,-224.34C5593.04,-220.13 5778.13,-208.24 5932,-176 5939.42,-174.45 5947.2,-172.34 5954.65,-170.07"/>
<polygon fill="midnightblue" stroke="midnightblue" points="5497.47,-220.84 5487.63,-224.77 5497.77,-227.84 5497.47,-220.84"/>
</g>
<!-- Node63 -->
<g id="node49" class="node">
<title>Node63</title>
<g id="a_node49"><a xlink:href="../../d1/d3a/abstracttest_8cpp.html" target="_top" xlink:title=" ">
<polygon fill="white" stroke="black" points="6065.5,-145.5 6065.5,-164.5 6226.5,-164.5 6226.5,-145.5 6065.5,-145.5"/>
<text text-anchor="middle" x="6146" y="-152.5" font-family="Helvetica,sans-Serif" font-size="10.00">src/libs/vtest/abstracttest.cpp</text>
</a>
</g>
</g>
<!-- Node4&#45;&gt;Node63 -->
<g id="edge58" class="edge">
<title>Node4&#45;&gt;Node63</title>
<path fill="none" stroke="midnightblue" d="M5497.84,-224.28C5611.05,-219.68 5854.14,-206.86 6057,-176 6075.79,-173.14 6096.52,-168.57 6113.24,-164.52"/>
<polygon fill="midnightblue" stroke="midnightblue" points="5497.48,-220.79 5487.63,-224.69 5497.76,-227.78 5497.48,-220.79"/>
</g>
<!-- Node64 -->
<g id="node50" class="node">
<title>Node64</title>
<g id="a_node50"><a xlink:href="../../da/db4/piece__tablewidgetitem_8cpp.html" target="_top" xlink:title=" ">
<polygon fill="white" stroke="black" points="6245,-140 6245,-170 6373,-170 6373,-140 6245,-140"/>
<text text-anchor="start" x="6253" y="-158" font-family="Helvetica,sans-Serif" font-size="10.00">src/libs/vwidgets/piece</text>
<text text-anchor="middle" x="6309" y="-147" font-family="Helvetica,sans-Serif" font-size="10.00">_tablewidgetitem.cpp</text>
</a>
</g>
</g>
<!-- Node4&#45;&gt;Node64 -->
<g id="edge59" class="edge">
<title>Node4&#45;&gt;Node64</title>
<path fill="none" stroke="midnightblue" d="M5498.22,-226.89C5634.92,-226.75 5964.41,-221.27 6236,-176 6244.94,-174.51 6254.37,-172.37 6263.37,-170.04"/>
<polygon fill="midnightblue" stroke="midnightblue" points="5497.93,-223.39 5487.93,-226.89 5497.93,-230.39 5497.93,-223.39"/>
</g>
<!-- Node5&#45;&gt;Node6 -->
<g id="edge5" class="edge">
<title>Node5&#45;&gt;Node6</title>
<path fill="none" stroke="midnightblue" d="M206.37,-140.81C178.62,-126.53 135.17,-104.17 111.58,-92.03"/>
<polygon fill="midnightblue" stroke="midnightblue" points="204.98,-144.03 215.47,-145.5 208.18,-137.81 204.98,-144.03"/>
</g>
<!-- Node8 -->
<g id="node8" class="node">
<title>Node8</title>
<g id="a_node8"><a xlink:href="../../dd/d66/vdxfengine_8cpp.html" target="_top" xlink:title=" ">
<polygon fill="white" stroke="black" points="628,-73 628,-92 782,-92 782,-73 628,-73"/>
<text text-anchor="middle" x="705" y="-80" font-family="Helvetica,sans-Serif" font-size="10.00">src/libs/vdxf/vdxfengine.cpp</text>
</a>
</g>
</g>
<!-- Node7&#45;&gt;Node8 -->
<g id="edge8" class="edge">
<title>Node7&#45;&gt;Node8</title>
<path fill="none" stroke="midnightblue" d="M842.51,-141.55C808.79,-127.32 754.47,-104.38 725.22,-92.03"/>
<polygon fill="midnightblue" stroke="midnightblue" points="841.28,-144.83 851.86,-145.5 844,-138.38 841.28,-144.83"/>
</g>
<!-- Node9 -->
<g id="node9" class="node">
<title>Node9</title>
<g id="a_node9"><a xlink:href="../../de/da8/vbank_8cpp.html" target="_top" xlink:title=" ">
<polygon fill="white" stroke="black" points="800,-73 800,-92 944,-92 944,-73 800,-73"/>
<text text-anchor="middle" x="872" y="-80" font-family="Helvetica,sans-Serif" font-size="10.00">src/libs/vlayout/vbank.cpp</text>
</a>
</g>
</g>
<!-- Node7&#45;&gt;Node9 -->
<g id="edge9" class="edge">
<title>Node7&#45;&gt;Node9</title>
<path fill="none" stroke="midnightblue" d="M872,-134.94C872,-121.03 872,-102.82 872,-92.22"/>
<polygon fill="midnightblue" stroke="midnightblue" points="868.5,-135.36 872,-145.36 875.5,-135.36 868.5,-135.36"/>
</g>
<!-- Node10 -->
<g id="node10" class="node">
<title>Node10</title>
<g id="a_node10"><a xlink:href="../../df/d5d/vcontour_8cpp.html" target="_top" xlink:title=" ">
<polygon fill="white" stroke="black" points="962,-73 962,-92 1118,-92 1118,-73 962,-73"/>
<text text-anchor="middle" x="1040" y="-80" font-family="Helvetica,sans-Serif" font-size="10.00">src/libs/vlayout/vcontour.cpp</text>
</a>
</g>
</g>
<!-- Node7&#45;&gt;Node10 -->
<g id="edge10" class="edge">
<title>Node7&#45;&gt;Node10</title>
<path fill="none" stroke="midnightblue" d="M901.66,-141.55C935.59,-127.32 990.23,-104.38 1019.66,-92.03"/>
<polygon fill="midnightblue" stroke="midnightblue" points="900.13,-138.4 892.26,-145.5 902.84,-144.85 900.13,-138.4"/>
</g>
<!-- Node11 -->
<g id="node11" class="node">
<title>Node11</title>
<g id="a_node11"><a xlink:href="../../d2/d2d/vlayoutpaper__p_8h.html" target="_top" xlink:title=" ">
<polygon fill="white" stroke="black" points="1136.5,-73 1136.5,-92 1315.5,-92 1315.5,-73 1136.5,-73"/>
<text text-anchor="middle" x="1226" y="-80" font-family="Helvetica,sans-Serif" font-size="10.00">src/libs/vlayout/vlayoutpaper_p.h</text>
</a>
</g>
</g>
<!-- Node7&#45;&gt;Node11 -->
<g id="edge11" class="edge">
<title>Node7&#45;&gt;Node11</title>
<path fill="none" stroke="midnightblue" d="M924.68,-143.51C995,-129.5 1118.21,-104.97 1183.15,-92.03"/>
<polygon fill="midnightblue" stroke="midnightblue" points="923.82,-140.11 914.7,-145.5 925.19,-146.98 923.82,-140.11"/>
</g>
<!-- Node12 -->
<g id="node12" class="node">
<title>Node12</title>
<g id="a_node12"><a xlink:href="../../d1/dd1/vlayoutpaper_8cpp.html" target="_top" xlink:title=" ">
<polygon fill="white" stroke="black" points="295,-6 295,-25 473,-25 473,-6 295,-6"/>
<text text-anchor="middle" x="384" y="-13" font-family="Helvetica,sans-Serif" font-size="10.00">src/libs/vlayout/vlayoutpaper.cpp</text>
</a>
</g>
</g>
<!-- Node7&#45;&gt;Node12 -->
<g id="edge14" class="edge">
<title>Node7&#45;&gt;Node12</title>
<path fill="none" stroke="midnightblue" d="M778.72,-145.62C645.94,-133.29 416.83,-110.39 403,-98 382,-79.2 381.92,-42.09 383.11,-25.22"/>
<polygon fill="midnightblue" stroke="midnightblue" points="778.62,-149.12 788.9,-146.56 779.27,-142.15 778.62,-149.12"/>
</g>
<!-- Node13 -->
<g id="node13" class="node">
<title>Node13</title>
<g id="a_node13"><a xlink:href="../../d3/d39/vlayoutgenerator_8cpp.html" target="_top" xlink:title=" ">
<polygon fill="white" stroke="black" points="412.5,-73 412.5,-92 609.5,-92 609.5,-73 412.5,-73"/>
<text text-anchor="middle" x="511" y="-80" font-family="Helvetica,sans-Serif" font-size="10.00">src/libs/vlayout/vlayoutgenerator.cpp</text>
</a>
</g>
</g>
<!-- Node7&#45;&gt;Node13 -->
<g id="edge13" class="edge">
<title>Node7&#45;&gt;Node13</title>
<path fill="none" stroke="midnightblue" d="M818.28,-143.51C746.57,-129.5 620.93,-104.97 554.7,-92.03"/>
<polygon fill="midnightblue" stroke="midnightblue" points="817.97,-147.01 828.45,-145.5 819.31,-140.14 817.97,-147.01"/>
</g>
<!-- Node14 -->
<g id="node14" class="node">
<title>Node14</title>
<g id="a_node14"><a xlink:href="../../db/d5c/vposition_8h.html" target="_top" xlink:title=" ">
<polygon fill="white" stroke="red" points="208,-73 208,-92 356,-92 356,-73 208,-73"/>
<text text-anchor="middle" x="282" y="-80" font-family="Helvetica,sans-Serif" font-size="10.00">src/libs/vlayout/vposition.h</text>
</a>
</g>
</g>
<!-- Node7&#45;&gt;Node14 -->
<g id="edge15" class="edge">
<title>Node7&#45;&gt;Node14</title>
<path fill="none" stroke="midnightblue" d="M778.61,-145.05C677.67,-135.04 512.14,-117.63 370,-98 357.27,-96.24 343.54,-94.1 330.81,-92.01"/>
<polygon fill="midnightblue" stroke="midnightblue" points="778.49,-148.56 788.78,-146.06 779.18,-141.59 778.49,-148.56"/>
</g>
<!-- Node16 -->
<g id="node15" class="node">
<title>Node16</title>
<g id="a_node15"><a xlink:href="../../dd/d70/vlayoutpiece_8cpp.html" target="_top" xlink:title=" ">
<polygon fill="white" stroke="black" points="1333.5,-73 1333.5,-92 1510.5,-92 1510.5,-73 1333.5,-73"/>
<text text-anchor="middle" x="1422" y="-80" font-family="Helvetica,sans-Serif" font-size="10.00">src/libs/vlayout/vlayoutpiece.cpp</text>
</a>
</g>
</g>
<!-- Node7&#45;&gt;Node16 -->
<g id="edge17" class="edge">
<title>Node7&#45;&gt;Node16</title>
<path fill="none" stroke="midnightblue" d="M955.22,-144.29C1045.96,-133.56 1195.43,-115.47 1324,-98 1337.63,-96.15 1352.32,-94.04 1366.06,-92.01"/>
<polygon fill="midnightblue" stroke="midnightblue" points="954.79,-140.81 945.27,-145.46 955.61,-147.77 954.79,-140.81"/>
</g>
<!-- Node11&#45;&gt;Node12 -->
<g id="edge12" class="edge">
<title>Node11&#45;&gt;Node12</title>
<path fill="none" stroke="midnightblue" d="M1163.23,-71.56C1151.22,-69.87 1138.74,-68.26 1127,-67 891.58,-41.8 612.77,-26.81 473.12,-20.32"/>
<polygon fill="midnightblue" stroke="midnightblue" points="1162.78,-75.03 1173.18,-72.99 1163.78,-68.1 1162.78,-75.03"/>
</g>
<!-- Node14&#45;&gt;Node12 -->
<g id="edge16" class="edge">
<title>Node14&#45;&gt;Node12</title>
<path fill="none" stroke="midnightblue" d="M304.33,-67.27C324.52,-54.4 353.59,-35.88 370.46,-25.13"/>
<polygon fill="midnightblue" stroke="midnightblue" points="302.31,-64.41 295.76,-72.73 306.07,-70.31 302.31,-64.41"/>
</g>
<!-- Node18&#45;&gt;Node16 -->
<g id="edge33" class="edge">
<title>Node18&#45;&gt;Node16</title>
<path fill="none" stroke="midnightblue" d="M3372.39,-152.61C3017.22,-147.74 1884.22,-130.03 1520,-98 1504.24,-96.61 1487.15,-94.35 1471.72,-92.02"/>
<polygon fill="midnightblue" stroke="midnightblue" points="3372.37,-156.11 3382.42,-152.74 3372.47,-149.11 3372.37,-156.11"/>
</g>
<!-- Node18&#45;&gt;Node17 -->
<g id="edge30" class="edge">
<title>Node18&#45;&gt;Node17</title>
<path fill="none" stroke="midnightblue" d="M3372.2,-152.16C3041.36,-146.25 2043.35,-126.5 1720,-98 1704.01,-96.59 1686.68,-94.34 1671,-92.02"/>
<polygon fill="midnightblue" stroke="midnightblue" points="3372.21,-155.66 3382.27,-152.34 3372.33,-148.66 3372.21,-155.66"/>
</g>
<!-- Node19 -->
<g id="node18" class="node">
<title>Node19</title>
<g id="a_node18"><a xlink:href="../../d4/d90/fvupdater_8cpp.html" target="_top" xlink:title=" ">
<polygon fill="white" stroke="black" points="4540.5,-73 4540.5,-92 4693.5,-92 4693.5,-73 4540.5,-73"/>
<text text-anchor="middle" x="4617" y="-80" font-family="Helvetica,sans-Serif" font-size="10.00">src/libs/fervor/fvupdater.cpp</text>
</a>
</g>
</g>
<!-- Node18&#45;&gt;Node19 -->
<g id="edge20" class="edge">
<title>Node18&#45;&gt;Node19</title>
<path fill="none" stroke="midnightblue" d="M3587.77,-152.3C3778.5,-148.39 4187.76,-135.96 4531,-98 4544.39,-96.52 4558.87,-94.32 4572.06,-92.07"/>
<polygon fill="midnightblue" stroke="midnightblue" points="3587.67,-148.8 3577.75,-152.5 3587.81,-155.8 3587.67,-148.8"/>
</g>
<!-- Node20 -->
<g id="node19" class="node">
<title>Node20</title>
<g id="a_node19"><a xlink:href="../../d9/dc8/dxiface_8cpp.html" target="_top" xlink:title=" ">
<polygon fill="white" stroke="black" points="4711.5,-73 4711.5,-92 4846.5,-92 4846.5,-73 4711.5,-73"/>
<text text-anchor="middle" x="4779" y="-80" font-family="Helvetica,sans-Serif" font-size="10.00">src/libs/vdxf/dxiface.cpp</text>
</a>
</g>
</g>
<!-- Node18&#45;&gt;Node20 -->
<g id="edge21" class="edge">
<title>Node18&#45;&gt;Node20</title>
<path fill="none" stroke="midnightblue" d="M3588.06,-154.13C3801.64,-153.26 4292.61,-145.69 4702,-98 4714.3,-96.57 4727.58,-94.32 4739.6,-92.02"/>
<polygon fill="midnightblue" stroke="midnightblue" points="3587.78,-150.63 3577.79,-154.16 3587.81,-157.63 3587.78,-150.63"/>
</g>
<!-- Node21 -->
<g id="node20" class="node">
<title>Node21</title>
<g id="a_node20"><a xlink:href="../../da/d75/vabstractarc__p_8h.html" target="_top" xlink:title=" ">
<polygon fill="white" stroke="red" points="4864.5,-67.5 4864.5,-97.5 4971.5,-97.5 4971.5,-67.5 4864.5,-67.5"/>
<text text-anchor="start" x="4872.5" y="-85.5" font-family="Helvetica,sans-Serif" font-size="10.00">src/libs/vgeometry</text>
<text text-anchor="middle" x="4918" y="-74.5" font-family="Helvetica,sans-Serif" font-size="10.00">/vabstractarc_p.h</text>
</a>
</g>
</g>
<!-- Node18&#45;&gt;Node21 -->
<g id="edge22" class="edge">
<title>Node18&#45;&gt;Node21</title>
<path fill="none" stroke="midnightblue" d="M3588.13,-152.19C3867.93,-147.08 4610.87,-130.78 4855,-98 4858,-97.6 4861.07,-97.12 4864.16,-96.58"/>
<polygon fill="midnightblue" stroke="midnightblue" points="3587.91,-148.69 3577.97,-152.37 3588.04,-155.69 3587.91,-148.69"/>
</g>
<!-- Node23 -->
<g id="node21" class="node">
<title>Node23</title>
<g id="a_node21"><a xlink:href="../../dc/da3/varc__p_8h.html" target="_top" xlink:title=" ">
<polygon fill="white" stroke="red" points="4989.5,-67.5 4989.5,-97.5 5096.5,-97.5 5096.5,-67.5 4989.5,-67.5"/>
<text text-anchor="start" x="4997.5" y="-85.5" font-family="Helvetica,sans-Serif" font-size="10.00">src/libs/vgeometry</text>
<text text-anchor="middle" x="5043" y="-74.5" font-family="Helvetica,sans-Serif" font-size="10.00">/varc_p.h</text>
</a>
</g>
</g>
<!-- Node18&#45;&gt;Node23 -->
<g id="edge23" class="edge">
<title>Node18&#45;&gt;Node23</title>
<path fill="none" stroke="midnightblue" d="M3588.09,-152.62C3885.33,-148.39 4710.73,-133.69 4980,-98 4983,-97.6 4986.08,-97.13 4989.17,-96.59"/>
<polygon fill="midnightblue" stroke="midnightblue" points="3587.69,-149.12 3577.74,-152.76 3587.79,-156.12 3587.69,-149.12"/>
</g>
<!-- Node25 -->
<g id="node22" class="node">
<title>Node25</title>
<g id="a_node22"><a xlink:href="../../d5/d8e/vcubicbezier__p_8h.html" target="_top" xlink:title=" ">
<polygon fill="white" stroke="red" points="5114.5,-67.5 5114.5,-97.5 5221.5,-97.5 5221.5,-67.5 5114.5,-67.5"/>
<text text-anchor="start" x="5122.5" y="-85.5" font-family="Helvetica,sans-Serif" font-size="10.00">src/libs/vgeometry</text>
<text text-anchor="middle" x="5168" y="-74.5" font-family="Helvetica,sans-Serif" font-size="10.00">/vcubicbezier_p.h</text>
</a>
</g>
</g>
<!-- Node18&#45;&gt;Node25 -->
<g id="edge24" class="edge">
<title>Node18&#45;&gt;Node25</title>
<path fill="none" stroke="midnightblue" d="M3587.72,-152.98C3901.36,-149.59 4810.38,-136.62 5105,-98 5108,-97.61 5111.08,-97.13 5114.17,-96.6"/>
<polygon fill="midnightblue" stroke="midnightblue" points="3587.67,-149.48 3577.71,-153.09 3587.75,-156.48 3587.67,-149.48"/>
</g>
<!-- Node27 -->
<g id="node23" class="node">
<title>Node27</title>
<g id="a_node23"><a xlink:href="../../df/dde/vellipticalarc__p_8h.html" target="_top" xlink:title=" ">
<polygon fill="white" stroke="black" points="1729.5,-67.5 1729.5,-97.5 1836.5,-97.5 1836.5,-67.5 1729.5,-67.5"/>
<text text-anchor="start" x="1737.5" y="-85.5" font-family="Helvetica,sans-Serif" font-size="10.00">src/libs/vgeometry</text>
<text text-anchor="middle" x="1783" y="-74.5" font-family="Helvetica,sans-Serif" font-size="10.00">/vellipticalarc_p.h</text>
</a>
</g>
</g>
<!-- Node18&#45;&gt;Node27 -->
<g id="edge25" class="edge">
<title>Node18&#45;&gt;Node27</title>
<path fill="none" stroke="midnightblue" d="M3372.16,-151.39C3032.87,-143.04 2000.85,-116.41 1851,-98 1846.33,-97.43 1841.5,-96.69 1836.67,-95.86"/>
<polygon fill="midnightblue" stroke="midnightblue" points="3372.15,-154.89 3382.23,-151.64 3372.32,-147.9 3372.15,-154.89"/>
</g>
<!-- Node28 -->
<g id="node24" class="node">
<title>Node28</title>
<g id="a_node24"><a xlink:href="../../d6/dfb/vellipticalarc_8cpp.html" target="_top" xlink:title=" ">
<polygon fill="white" stroke="black" points="1770.5,-0.5 1770.5,-30.5 1877.5,-30.5 1877.5,-0.5 1770.5,-0.5"/>
<text text-anchor="start" x="1778.5" y="-18.5" font-family="Helvetica,sans-Serif" font-size="10.00">src/libs/vgeometry</text>
<text text-anchor="middle" x="1824" y="-7.5" font-family="Helvetica,sans-Serif" font-size="10.00">/vellipticalarc.cpp</text>
</a>
</g>
</g>
<!-- Node18&#45;&gt;Node28 -->
<g id="edge27" class="edge">
<title>Node18&#45;&gt;Node28</title>
<path fill="none" stroke="midnightblue" d="M3372.25,-151.48C3019.05,-143.04 1916.93,-115.38 1884,-98 1856.34,-83.4 1838.14,-49.7 1829.61,-30.52"/>
<polygon fill="midnightblue" stroke="midnightblue" points="3372.4,-154.98 3382.48,-151.72 3372.56,-147.98 3372.4,-154.98"/>
</g>
<!-- Node29 -->
<g id="node25" class="node">
<title>Node29</title>
<g id="a_node25"><a xlink:href="../../d9/d15/vabstractpiece_8cpp.html" target="_top" xlink:title=" ">
<polygon fill="white" stroke="black" points="1893,-73 1893,-92 2079,-92 2079,-73 1893,-73"/>
<text text-anchor="middle" x="1986" y="-80" font-family="Helvetica,sans-Serif" font-size="10.00">src/libs/vlayout/vabstractpiece.cpp</text>
</a>
</g>
</g>
<!-- Node18&#45;&gt;Node29 -->
<g id="edge28" class="edge">
<title>Node18&#45;&gt;Node29</title>
<path fill="none" stroke="midnightblue" d="M3372.01,-153.42C3137.58,-151.33 2564.66,-141.77 2087,-98 2071.04,-96.54 2053.74,-94.3 2038.04,-92.01"/>
<polygon fill="midnightblue" stroke="midnightblue" points="3372.21,-156.92 3382.24,-153.51 3372.27,-149.92 3372.21,-156.92"/>
</g>
<!-- Node30 -->
<g id="node26" class="node">
<title>Node30</title>
<g id="a_node26"><a xlink:href="../../d1/d76/vspline__p_8h.html" target="_top" xlink:title=" ">
<polygon fill="white" stroke="red" points="2096.5,-67.5 2096.5,-97.5 2203.5,-97.5 2203.5,-67.5 2096.5,-67.5"/>
<text text-anchor="start" x="2104.5" y="-85.5" font-family="Helvetica,sans-Serif" font-size="10.00">src/libs/vgeometry</text>
<text text-anchor="middle" x="2150" y="-74.5" font-family="Helvetica,sans-Serif" font-size="10.00">/vspline_p.h</text>
</a>
</g>
</g>
<!-- Node18&#45;&gt;Node30 -->
<g id="edge29" class="edge">
<title>Node18&#45;&gt;Node30</title>
<path fill="none" stroke="midnightblue" d="M3371.96,-151.81C3107.81,-146.03 2434.68,-128.69 2212,-98 2209.26,-97.62 2206.47,-97.18 2203.65,-96.69"/>
<polygon fill="midnightblue" stroke="midnightblue" points="3372.25,-155.31 3382.32,-152.03 3372.4,-148.32 3372.25,-155.31"/>
</g>
<!-- Node32 -->
<g id="node27" class="node">
<title>Node32</title>
<g id="a_node27"><a xlink:href="../../db/d65/dialogexporttocsv_8cpp.html" target="_top" xlink:title=" ">
<polygon fill="white" stroke="black" points="2221.5,-67.5 2221.5,-97.5 2348.5,-97.5 2348.5,-67.5 2221.5,-67.5"/>
<text text-anchor="start" x="2229.5" y="-85.5" font-family="Helvetica,sans-Serif" font-size="10.00">src/libs/vmisc/dialogs</text>
<text text-anchor="middle" x="2285" y="-74.5" font-family="Helvetica,sans-Serif" font-size="10.00">/dialogexporttocsv.cpp</text>
</a>
</g>
</g>
<!-- Node18&#45;&gt;Node32 -->
<g id="edge31" class="edge">
<title>Node18&#45;&gt;Node32</title>
<path fill="none" stroke="midnightblue" d="M3372.18,-153.85C3171.69,-152.4 2728.28,-143.77 2358,-98 2354.92,-97.62 2351.78,-97.18 2348.61,-96.7"/>
<polygon fill="midnightblue" stroke="midnightblue" points="3372.39,-157.35 3382.41,-153.92 3372.43,-150.35 3372.39,-157.35"/>
</g>
<!-- Node33 -->
<g id="node28" class="node">
<title>Node33</title>
<g id="a_node28"><a xlink:href="../../d6/d0b/def_8cpp.html" target="_top" xlink:title=" ">
<polygon fill="white" stroke="black" points="2367,-73 2367,-92 2489,-92 2489,-73 2367,-73"/>
<text text-anchor="middle" x="2428" y="-80" font-family="Helvetica,sans-Serif" font-size="10.00">src/libs/vmisc/def.cpp</text>
</a>
</g>
</g>
<!-- Node18&#45;&gt;Node33 -->
<g id="edge32" class="edge">
<title>Node18&#45;&gt;Node33</title>
<path fill="none" stroke="midnightblue" d="M3372.27,-153.03C3191.02,-150.25 2813.93,-139.5 2498,-98 2486.93,-96.55 2474.99,-94.32 2464.16,-92.05"/>
<polygon fill="midnightblue" stroke="midnightblue" points="3372.29,-156.53 3382.34,-153.18 3372.39,-149.54 3372.29,-156.53"/>
</g>
<!-- Node34 -->
<g id="node29" class="node">
<title>Node34</title>
<g id="a_node29"><a xlink:href="../../d0/df6/vabstractapplication_8cpp.html" target="_top" xlink:title=" ">
<polygon fill="white" stroke="black" points="2507,-73 2507,-92 2713,-92 2713,-73 2507,-73"/>
<text text-anchor="middle" x="2610" y="-80" font-family="Helvetica,sans-Serif" font-size="10.00">src/libs/vmisc/vabstractapplication.cpp</text>
</a>
</g>
</g>
<!-- Node18&#45;&gt;Node34 -->
<g id="edge34" class="edge">
<title>Node18&#45;&gt;Node34</title>
<path fill="none" stroke="midnightblue" d="M3371.95,-147.89C3224.76,-139.14 2953.09,-121.48 2722,-98 2705.42,-96.32 2687.5,-94.15 2670.96,-92.01"/>
<polygon fill="midnightblue" stroke="midnightblue" points="3372.14,-151.41 3382.33,-148.51 3372.55,-144.42 3372.14,-151.41"/>
</g>
<!-- Node35 -->
<g id="node30" class="node">
<title>Node35</title>
<g id="a_node30"><a xlink:href="../../d4/d4f/pmsystems_8cpp.html" target="_top" xlink:title=" ">
<polygon fill="white" stroke="black" points="2731.5,-67.5 2731.5,-97.5 2838.5,-97.5 2838.5,-67.5 2731.5,-67.5"/>
<text text-anchor="start" x="2739.5" y="-85.5" font-family="Helvetica,sans-Serif" font-size="10.00">src/libs/vpatterndb</text>
<text text-anchor="middle" x="2785" y="-74.5" font-family="Helvetica,sans-Serif" font-size="10.00">/pmsystems.cpp</text>
</a>
</g>
</g>
<!-- Node18&#45;&gt;Node35 -->
<g id="edge35" class="edge">
<title>Node18&#45;&gt;Node35</title>
<path fill="none" stroke="midnightblue" d="M3372.35,-149.12C3245.93,-142.33 3030.22,-127.38 2847,-98 2844.27,-97.56 2841.48,-97.07 2838.68,-96.54"/>
<polygon fill="midnightblue" stroke="midnightblue" points="3372.25,-152.62 3382.42,-149.66 3372.62,-145.63 3372.25,-152.62"/>
</g>
<!-- Node18&#45;&gt;Node36 -->
<g id="edge36" class="edge">
<title>Node18&#45;&gt;Node36</title>
<path fill="none" stroke="midnightblue" d="M3587.6,-153.29C3917.22,-150.7 4910.02,-139.54 5230,-98 5233.01,-97.61 5236.08,-97.14 5239.17,-96.61"/>
<polygon fill="midnightblue" stroke="midnightblue" points="3587.54,-149.79 3577.57,-153.37 3587.6,-156.79 3587.54,-149.79"/>
</g>
<!-- Node18&#45;&gt;Node37 -->
<g id="edge37" class="edge">
<title>Node18&#45;&gt;Node37</title>
<path fill="none" stroke="midnightblue" d="M3587.79,-153.61C3933.26,-151.93 5010.55,-143.09 5356,-98 5358.74,-97.64 5361.54,-97.22 5364.35,-96.74"/>
<polygon fill="midnightblue" stroke="midnightblue" points="3587.52,-150.11 3577.53,-153.66 3587.55,-157.11 3587.52,-150.11"/>
</g>
<!-- Node18&#45;&gt;Node38 -->
<g id="edge38" class="edge">
<title>Node18&#45;&gt;Node38</title>
<path fill="none" stroke="midnightblue" d="M3587.8,-153.85C3948.32,-152.89 5110.08,-146.06 5481,-98 5483.74,-97.64 5486.54,-97.22 5489.35,-96.74"/>
<polygon fill="midnightblue" stroke="midnightblue" points="3587.62,-150.35 3577.63,-153.87 3587.64,-157.35 3587.62,-150.35"/>
</g>
<!-- Node39 -->
<g id="node34" class="node">
<title>Node39</title>
<g id="a_node34"><a xlink:href="../../df/dba/vpiecenode__p_8h.html" target="_top" xlink:title=" ">
<polygon fill="white" stroke="black" points="2856.5,-67.5 2856.5,-97.5 2963.5,-97.5 2963.5,-67.5 2856.5,-67.5"/>
<text text-anchor="start" x="2864.5" y="-85.5" font-family="Helvetica,sans-Serif" font-size="10.00">src/libs/vpatterndb</text>
<text text-anchor="middle" x="2910" y="-74.5" font-family="Helvetica,sans-Serif" font-size="10.00">/vpiecenode_p.h</text>
</a>
</g>
</g>
<!-- Node18&#45;&gt;Node39 -->
<g id="edge39" class="edge">
<title>Node18&#45;&gt;Node39</title>
<path fill="none" stroke="midnightblue" d="M3372.24,-145.75C3269.26,-137.01 3109.88,-121.23 2973,-98 2969.9,-97.47 2966.73,-96.89 2963.53,-96.27"/>
<polygon fill="midnightblue" stroke="midnightblue" points="3372.08,-149.25 3382.34,-146.6 3372.67,-142.28 3372.08,-149.25"/>
</g>
<!-- Node41 -->
<g id="node36" class="node">
<title>Node41</title>
<g id="a_node36"><a xlink:href="../../de/d3e/vtranslatevars_8cpp.html" target="_top" xlink:title=" ">
<polygon fill="white" stroke="black" points="2982,-67.5 2982,-97.5 3092,-97.5 3092,-67.5 2982,-67.5"/>
<text text-anchor="start" x="2990" y="-85.5" font-family="Helvetica,sans-Serif" font-size="10.00">src/libs/vpatterndb</text>
<text text-anchor="middle" x="3037" y="-74.5" font-family="Helvetica,sans-Serif" font-size="10.00">/vtranslatevars.cpp</text>
</a>
</g>
</g>
<!-- Node18&#45;&gt;Node41 -->
<g id="edge41" class="edge">
<title>Node18&#45;&gt;Node41</title>
<path fill="none" stroke="midnightblue" d="M3401.53,-144.18C3324.69,-134.14 3204.4,-117.32 3101,-98 3098.09,-97.46 3095.11,-96.87 3092.1,-96.26"/>
<polygon fill="midnightblue" stroke="midnightblue" points="3401.25,-147.67 3411.62,-145.49 3402.15,-140.73 3401.25,-147.67"/>
</g>
<!-- Node42 -->
<g id="node37" class="node">
<title>Node42</title>
<g id="a_node37"><a xlink:href="../../df/d40/export__format__combobox_8cpp.html" target="_top" xlink:title=" ">
<polygon fill="white" stroke="black" points="3110.5,-67.5 3110.5,-97.5 3243.5,-97.5 3243.5,-67.5 3110.5,-67.5"/>
<text text-anchor="start" x="3118.5" y="-85.5" font-family="Helvetica,sans-Serif" font-size="10.00">src/libs/vwidgets/export</text>
<text text-anchor="middle" x="3177" y="-74.5" font-family="Helvetica,sans-Serif" font-size="10.00">_format_combobox.cpp</text>
</a>
</g>
</g>
<!-- Node18&#45;&gt;Node42 -->
<g id="edge42" class="edge">
<title>Node18&#45;&gt;Node42</title>
<path fill="none" stroke="midnightblue" d="M3433.71,-143.23C3381.08,-130.98 3295,-110.96 3237.2,-97.51"/>
<polygon fill="midnightblue" stroke="midnightblue" points="3432.92,-146.64 3443.45,-145.5 3434.5,-139.82 3432.92,-146.64"/>
</g>
<!-- Node43 -->
<g id="node38" class="node">
<title>Node43</title>
<g id="a_node38"><a xlink:href="../../d3/d4f/mouse__coordinates_8cpp.html" target="_top" xlink:title=" ">
<polygon fill="white" stroke="black" points="3262,-67.5 3262,-97.5 3396,-97.5 3396,-67.5 3262,-67.5"/>
<text text-anchor="start" x="3270" y="-85.5" font-family="Helvetica,sans-Serif" font-size="10.00">src/libs/vwidgets/mouse</text>
<text text-anchor="middle" x="3329" y="-74.5" font-family="Helvetica,sans-Serif" font-size="10.00">_coordinates.cpp</text>
</a>
</g>
</g>
<!-- Node18&#45;&gt;Node43 -->
<g id="edge43" class="edge">
<title>Node18&#45;&gt;Node43</title>
<path fill="none" stroke="midnightblue" d="M3452.71,-141.26C3426.28,-128.92 3386.31,-110.26 3359,-97.51"/>
<polygon fill="midnightblue" stroke="midnightblue" points="3451.24,-144.44 3461.79,-145.5 3454.21,-138.09 3451.24,-144.44"/>
</g>
<!-- Node44 -->
<g id="node39" class="node">
<title>Node44</title>
<g id="a_node39"><a xlink:href="../../d2/d28/page__format__combobox_8cpp.html" target="_top" xlink:title=" ">
<polygon fill="white" stroke="black" points="3414.5,-67.5 3414.5,-97.5 3545.5,-97.5 3545.5,-67.5 3414.5,-67.5"/>
<text text-anchor="start" x="3422.5" y="-85.5" font-family="Helvetica,sans-Serif" font-size="10.00">src/libs/vwidgets/page</text>
<text text-anchor="middle" x="3480" y="-74.5" font-family="Helvetica,sans-Serif" font-size="10.00">_format_combobox.cpp</text>
</a>
</g>
</g>
<!-- Node18&#45;&gt;Node44 -->
<g id="edge44" class="edge">
<title>Node18&#45;&gt;Node44</title>
<path fill="none" stroke="midnightblue" d="M3480,-135.24C3480,-123.41 3480,-108.38 3480,-97.58"/>
<polygon fill="midnightblue" stroke="midnightblue" points="3476.5,-135.36 3480,-145.36 3483.5,-135.36 3476.5,-135.36"/>
</g>
<!-- Node45 -->
<g id="node40" class="node">
<title>Node45</title>
<g id="a_node40"><a xlink:href="../../d7/d1b/pen__toolbar_8cpp.html" target="_top" xlink:title=" ">
<polygon fill="white" stroke="black" points="3563.5,-67.5 3563.5,-97.5 3682.5,-97.5 3682.5,-67.5 3563.5,-67.5"/>
<text text-anchor="start" x="3571.5" y="-85.5" font-family="Helvetica,sans-Serif" font-size="10.00">src/libs/vwidgets/pen</text>
<text text-anchor="middle" x="3623" y="-74.5" font-family="Helvetica,sans-Serif" font-size="10.00">_toolbar.cpp</text>
</a>
</g>
</g>
<!-- Node18&#45;&gt;Node45 -->
<g id="edge45" class="edge">
<title>Node18&#45;&gt;Node45</title>
<path fill="none" stroke="midnightblue" d="M3506.5,-140.93C3531.53,-128.59 3568.96,-110.14 3594.59,-97.51"/>
<polygon fill="midnightblue" stroke="midnightblue" points="3504.67,-137.93 3497.25,-145.5 3507.77,-144.21 3504.67,-137.93"/>
</g>
<!-- Node46 -->
<g id="node41" class="node">
<title>Node46</title>
<g id="a_node41"><a xlink:href="../../d8/d76/scene__rect_8cpp.html" target="_top" xlink:title=" ">
<polygon fill="white" stroke="black" points="3701,-67.5 3701,-97.5 3831,-97.5 3831,-67.5 3701,-67.5"/>
<text text-anchor="start" x="3709" y="-85.5" font-family="Helvetica,sans-Serif" font-size="10.00">src/libs/vwidgets/scene</text>
<text text-anchor="middle" x="3766" y="-74.5" font-family="Helvetica,sans-Serif" font-size="10.00">_rect.cpp</text>
</a>
</g>
</g>
<!-- Node18&#45;&gt;Node46 -->
<g id="edge46" class="edge">
<title>Node18&#45;&gt;Node46</title>
<path fill="none" stroke="midnightblue" d="M3524.31,-143.08C3574.04,-130.82 3654.85,-110.9 3709.18,-97.51"/>
<polygon fill="midnightblue" stroke="midnightblue" points="3523.37,-139.7 3514.5,-145.5 3525.05,-146.5 3523.37,-139.7"/>
</g>
<!-- Node47 -->
<g id="node42" class="node">
<title>Node47</title>
<g id="a_node42"><a xlink:href="../../dd/df6/vabstractmainwindow_8cpp.html" target="_top" xlink:title=" ">
<polygon fill="white" stroke="black" points="3849.5,-73 3849.5,-92 4078.5,-92 4078.5,-73 3849.5,-73"/>
<text text-anchor="middle" x="3964" y="-80" font-family="Helvetica,sans-Serif" font-size="10.00">src/libs/vwidgets/vabstractmainwindow.cpp</text>
</a>
</g>
</g>
<!-- Node18&#45;&gt;Node47 -->
<g id="edge47" class="edge">
<title>Node18&#45;&gt;Node47</title>
<path fill="none" stroke="midnightblue" d="M3548.51,-144.02C3644.02,-130.11 3815.53,-105.13 3905.41,-92.03"/>
<polygon fill="midnightblue" stroke="midnightblue" points="3547.77,-140.59 3538.38,-145.5 3548.78,-147.52 3547.77,-140.59"/>
</g>
<!-- Node48 -->
<g id="node43" class="node">
<title>Node48</title>
<g id="a_node43"><a xlink:href="../../de/d45/vcontrolpointspline_8cpp.html" target="_top" xlink:title=" ">
<polygon fill="white" stroke="black" points="4096.5,-73 4096.5,-92 4311.5,-92 4311.5,-73 4096.5,-73"/>
<text text-anchor="middle" x="4204" y="-80" font-family="Helvetica,sans-Serif" font-size="10.00">src/libs/vwidgets/vcontrolpointspline.cpp</text>
</a>
</g>
</g>
<!-- Node18&#45;&gt;Node48 -->
<g id="edge48" class="edge">
<title>Node18&#45;&gt;Node48</title>
<path fill="none" stroke="midnightblue" d="M3587.65,-145.09C3709.07,-134.81 3912.38,-116.87 4087,-98 4103.58,-96.21 4121.47,-94.09 4138.14,-92.03"/>
<polygon fill="midnightblue" stroke="midnightblue" points="3587.27,-141.61 3577.6,-145.94 3587.86,-148.59 3587.27,-141.61"/>
</g>
<!-- Node49 -->
<g id="node44" class="node">
<title>Node49</title>
<g id="a_node44"><a xlink:href="../../d1/d90/vgrainlineitem_8cpp.html" target="_top" xlink:title=" ">
<polygon fill="white" stroke="black" points="4329.5,-73 4329.5,-92 4522.5,-92 4522.5,-73 4329.5,-73"/>
<text text-anchor="middle" x="4426" y="-80" font-family="Helvetica,sans-Serif" font-size="10.00">src/libs/vwidgets/vgrainlineitem.cpp</text>
</a>
</g>
</g>
<!-- Node18&#45;&gt;Node49 -->
<g id="edge49" class="edge">
<title>Node18&#45;&gt;Node49</title>
<path fill="none" stroke="midnightblue" d="M3587.83,-149.21C3747.89,-141.55 4057.66,-124.65 4320,-98 4335.98,-96.38 4353.27,-94.19 4369.15,-92.02"/>
<polygon fill="midnightblue" stroke="midnightblue" points="3587.33,-145.73 3577.51,-149.7 3587.67,-152.72 3587.33,-145.73"/>
</g>
<!-- Node27&#45;&gt;Node28 -->
<g id="edge26" class="edge">
<title>Node27&#45;&gt;Node28</title>
<path fill="none" stroke="midnightblue" d="M1797.28,-58.87C1803.21,-49.46 1809.91,-38.83 1815.12,-30.58"/>
<polygon fill="midnightblue" stroke="midnightblue" points="1794.27,-57.07 1791.9,-67.4 1800.19,-60.81 1794.27,-57.07"/>
</g>
<!-- Node39&#45;&gt;Node40 -->
<g id="edge40" class="edge">
<title>Node39&#45;&gt;Node40</title>
<path fill="none" stroke="midnightblue" d="M2973.79,-67.12C3238.47,-33.88 4003.84,-20.4 4213.42,-17.25"/>
<polygon fill="midnightblue" stroke="midnightblue" points="2973.3,-63.65 2963.83,-68.41 2974.2,-70.6 2973.3,-63.65"/>
</g>
</g>
</svg>
