<?xml version="1.0" encoding="UTF-8" standalone="no"?>
<!DOCTYPE svg PUBLIC "-//W3C//DTD SVG 1.1//EN"
 "http://www.w3.org/Graphics/SVG/1.1/DTD/svg11.dtd">
<!-- Generated by graphviz version 2.43.0 (0)
 -->
<!-- Title: src/libs/vtools/dialogs/support/edit_formula_dialog.h Pages: 1 -->
<!--zoomable 128 -->
<svg id="main" version="1.1" xmlns="http://www.w3.org/2000/svg" xmlns:xlink="http://www.w3.org/1999/xlink" xml:space="preserve" onload="init(evt)">
<style type="text/css"><![CDATA[
.edge:hover path { stroke: red; }
.edge:hover polygon { stroke: red; fill: red; }
]]></style>
<script type="text/javascript"><![CDATA[
var edges = document.getElementsByTagName('g');
if (edges && edges.length) {
  for (var i=0;i<edges.length;i++) {
    if (edges[i].id.substr(0,4)=='edge') {
      edges[i].setAttribute('class','edge');
    }
  }
}
]]></script>
        <defs>
                <circle id="rim" cx="0" cy="0" r="7"/>
                <circle id="rim2" cx="0" cy="0" r="3.5"/>
                <g id="zoomPlus">
                        <use xlink:href="#rim" fill="#404040">
                                <set attributeName="fill" to="#808080" begin="zoomplus.mouseover" end="zoomplus.mouseout"/>
                        </use>
                        <path d="M-4,0h8M0,-4v8" fill="none" stroke="white" stroke-width="1.5" pointer-events="none"/>
                </g>
                <g id="zoomMin">
                        <use xlink:href="#rim" fill="#404040">
                                <set attributeName="fill" to="#808080" begin="zoomminus.mouseover" end="zoomminus.mouseout"/>
                        </use>
                        <path d="M-4,0h8" fill="none" stroke="white" stroke-width="1.5" pointer-events="none"/>
                </g>
                <g id="dirArrow">
                        <path fill="none" stroke="white" stroke-width="1.5" d="M0,-3.0v7 M-2.5,-0.5L0,-3.0L2.5,-0.5"/>
                </g>
               <g id="resetDef">
                       <use xlink:href="#rim2" fill="#404040">
                               <set attributeName="fill" to="#808080" begin="reset.mouseover" end="reset.mouseout"/>
                       </use>
               </g>
        </defs>

<script type="text/javascript">
var viewWidth = 4052;
var viewHeight = 128;
var sectionId = 'dynsection-1';
</script>
<script xlink:href="../../svgpan.js"/>
<svg id="graph" class="graph">
<g id="viewport">
<title>src/libs/vtools/dialogs/support/edit_formula_dialog.h</title>
<polygon fill="white" stroke="transparent" points="-4,4 -4,-124 4047.5,-124 4047.5,4 -4,4"/>
<!-- Node1 -->
<g id="node1" class="node">
<title>Node1</title>
<g id="a_node1"><a xlink:title=" ">
<polygon fill="#bfbfbf" stroke="black" points="1981,-78.5 1981,-119.5 2103,-119.5 2103,-78.5 1981,-78.5"/>
<text text-anchor="start" x="1989" y="-107.5" font-family="Helvetica,sans-Serif" font-size="10.00">src/libs/vtools/dialogs</text>
<text text-anchor="start" x="1989" y="-96.5" font-family="Helvetica,sans-Serif" font-size="10.00">/support/edit_formula</text>
<text text-anchor="middle" x="2042" y="-85.5" font-family="Helvetica,sans-Serif" font-size="10.00">_dialog.h</text>
</a>
</g>
</g>
<!-- Node2 -->
<g id="node2" class="node">
<title>Node2</title>
<g id="a_node2"><a xlink:href="../../d6/d5d/dialogalongline_8cpp.html" target="_top" xlink:title=" ">
<polygon fill="white" stroke="black" points="0,-6 0,-36 142,-36 142,-6 0,-6"/>
<text text-anchor="start" x="8" y="-24" font-family="Helvetica,sans-Serif" font-size="10.00">src/libs/vtools/dialogs</text>
<text text-anchor="middle" x="71" y="-13" font-family="Helvetica,sans-Serif" font-size="10.00">/tools/dialogalongline.cpp</text>
</a>
</g>
</g>
<!-- Node1&#45;&gt;Node2 -->
<g id="edge1" class="edge">
<title>Node1&#45;&gt;Node2</title>
<path fill="none" stroke="midnightblue" d="M1970.38,-97.94C1670.2,-97.37 512.33,-91.92 151,-42 140.93,-40.61 130.29,-38.45 120.18,-36.06"/>
<polygon fill="midnightblue" stroke="midnightblue" points="1970.68,-101.44 1980.69,-97.96 1970.7,-94.44 1970.68,-101.44"/>
</g>
<!-- Node3 -->
<g id="node3" class="node">
<title>Node3</title>
<g id="a_node3"><a xlink:href="../../d7/d8d/edit__formula__dialog_8cpp.html" target="_top" xlink:title=" ">
<polygon fill="white" stroke="black" points="160,-0.5 160,-41.5 282,-41.5 282,-0.5 160,-0.5"/>
<text text-anchor="start" x="168" y="-29.5" font-family="Helvetica,sans-Serif" font-size="10.00">src/libs/vtools/dialogs</text>
<text text-anchor="start" x="168" y="-18.5" font-family="Helvetica,sans-Serif" font-size="10.00">/support/edit_formula</text>
<text text-anchor="middle" x="221" y="-7.5" font-family="Helvetica,sans-Serif" font-size="10.00">_dialog.cpp</text>
</a>
</g>
</g>
<!-- Node1&#45;&gt;Node3 -->
<g id="edge2" class="edge">
<title>Node1&#45;&gt;Node3</title>
<path fill="none" stroke="midnightblue" d="M1970.5,-98.06C1684.54,-97.93 622.7,-93.88 291,-42 288.13,-41.55 285.21,-41.02 282.27,-40.43"/>
<polygon fill="midnightblue" stroke="midnightblue" points="1970.74,-101.56 1980.74,-98.06 1970.74,-94.56 1970.74,-101.56"/>
</g>
<!-- Node4 -->
<g id="node4" class="node">
<title>Node4</title>
<g id="a_node4"><a xlink:href="../../d2/d29/dialogarcwithlength_8cpp.html" target="_top" xlink:title=" ">
<polygon fill="white" stroke="black" points="300,-6 300,-36 464,-36 464,-6 300,-6"/>
<text text-anchor="start" x="308" y="-24" font-family="Helvetica,sans-Serif" font-size="10.00">src/libs/vtools/dialogs</text>
<text text-anchor="middle" x="382" y="-13" font-family="Helvetica,sans-Serif" font-size="10.00">/tools/dialogarcwithlength.cpp</text>
</a>
</g>
</g>
<!-- Node1&#45;&gt;Node4 -->
<g id="edge3" class="edge">
<title>Node1&#45;&gt;Node4</title>
<path fill="none" stroke="midnightblue" d="M1970.62,-97.17C1704.29,-93.79 768.7,-79.46 473,-42 461.77,-40.58 449.87,-38.44 438.52,-36.08"/>
<polygon fill="midnightblue" stroke="midnightblue" points="1970.89,-100.67 1980.94,-97.3 1970.98,-93.67 1970.89,-100.67"/>
</g>
<!-- Node5 -->
<g id="node5" class="node">
<title>Node5</title>
<g id="a_node5"><a xlink:href="../../d1/d37/dialogarc_8cpp.html" target="_top" xlink:title=" ">
<polygon fill="white" stroke="black" points="482,-6 482,-36 604,-36 604,-6 482,-6"/>
<text text-anchor="start" x="490" y="-24" font-family="Helvetica,sans-Serif" font-size="10.00">src/libs/vtools/dialogs</text>
<text text-anchor="middle" x="543" y="-13" font-family="Helvetica,sans-Serif" font-size="10.00">/tools/dialogarc.cpp</text>
</a>
</g>
</g>
<!-- Node1&#45;&gt;Node5 -->
<g id="edge4" class="edge">
<title>Node1&#45;&gt;Node5</title>
<path fill="none" stroke="midnightblue" d="M1970.68,-97.46C1719.8,-95.2 878.84,-84.56 613,-42 604.14,-40.58 594.81,-38.41 585.95,-36.02"/>
<polygon fill="midnightblue" stroke="midnightblue" points="1970.73,-100.96 1980.77,-97.55 1970.8,-93.96 1970.73,-100.96"/>
</g>
<!-- Node6 -->
<g id="node6" class="node">
<title>Node6</title>
<g id="a_node6"><a xlink:href="../../da/dfa/dialogbisector_8cpp.html" target="_top" xlink:title=" ">
<polygon fill="white" stroke="black" points="622.5,-6 622.5,-36 757.5,-36 757.5,-6 622.5,-6"/>
<text text-anchor="start" x="630.5" y="-24" font-family="Helvetica,sans-Serif" font-size="10.00">src/libs/vtools/dialogs</text>
<text text-anchor="middle" x="690" y="-13" font-family="Helvetica,sans-Serif" font-size="10.00">/tools/dialogbisector.cpp</text>
</a>
</g>
</g>
<!-- Node1&#45;&gt;Node6 -->
<g id="edge5" class="edge">
<title>Node1&#45;&gt;Node6</title>
<path fill="none" stroke="midnightblue" d="M1970.61,-96.87C1737.63,-92.87 1001.06,-77.67 766,-42 756.56,-40.57 746.6,-38.42 737.11,-36.06"/>
<polygon fill="midnightblue" stroke="midnightblue" points="1970.6,-100.37 1980.66,-97.04 1970.72,-93.37 1970.6,-100.37"/>
</g>
<!-- Node7 -->
<g id="node7" class="node">
<title>Node7</title>
<g id="a_node7"><a xlink:href="../../dd/d39/dialogcurveintersectaxis_8cpp.html" target="_top" xlink:title=" ">
<polygon fill="white" stroke="black" points="775.5,-6 775.5,-36 962.5,-36 962.5,-6 775.5,-6"/>
<text text-anchor="start" x="783.5" y="-24" font-family="Helvetica,sans-Serif" font-size="10.00">src/libs/vtools/dialogs</text>
<text text-anchor="middle" x="869" y="-13" font-family="Helvetica,sans-Serif" font-size="10.00">/tools/dialogcurveintersectaxis.cpp</text>
</a>
</g>
</g>
<!-- Node1&#45;&gt;Node7 -->
<g id="edge6" class="edge">
<title>Node1&#45;&gt;Node7</title>
<path fill="none" stroke="midnightblue" d="M1970.61,-97.7C1798.27,-96.22 1346.09,-87.88 972,-42 959.61,-40.48 946.48,-38.34 933.89,-36.03"/>
<polygon fill="midnightblue" stroke="midnightblue" points="1970.79,-101.2 1980.82,-97.78 1970.85,-94.2 1970.79,-101.2"/>
</g>
<!-- Node8 -->
<g id="node8" class="node">
<title>Node8</title>
<g id="a_node8"><a xlink:href="../../df/ded/tooldialogs_8h.html" target="_top" xlink:title=" ">
<polygon fill="white" stroke="black" points="981,-6 981,-36 1103,-36 1103,-6 981,-6"/>
<text text-anchor="start" x="989" y="-24" font-family="Helvetica,sans-Serif" font-size="10.00">src/libs/vtools/dialogs</text>
<text text-anchor="middle" x="1042" y="-13" font-family="Helvetica,sans-Serif" font-size="10.00">/tooldialogs.h</text>
</a>
</g>
</g>
<!-- Node1&#45;&gt;Node8 -->
<g id="edge7" class="edge">
<title>Node1&#45;&gt;Node8</title>
<path fill="none" stroke="midnightblue" d="M1970.81,-95.72C1782.95,-89.4 1276.97,-70.19 1112,-42 1103.4,-40.53 1094.36,-38.4 1085.72,-36.07"/>
<polygon fill="midnightblue" stroke="midnightblue" points="1970.74,-99.22 1980.85,-96.06 1970.97,-92.23 1970.74,-99.22"/>
</g>
<!-- Node9 -->
<g id="node9" class="node">
<title>Node9</title>
<g id="a_node9"><a xlink:href="../../d3/d2e/dialogcutspline_8cpp.html" target="_top" xlink:title=" ">
<polygon fill="white" stroke="black" points="1121.5,-6 1121.5,-36 1262.5,-36 1262.5,-6 1121.5,-6"/>
<text text-anchor="start" x="1129.5" y="-24" font-family="Helvetica,sans-Serif" font-size="10.00">src/libs/vtools/dialogs</text>
<text text-anchor="middle" x="1192" y="-13" font-family="Helvetica,sans-Serif" font-size="10.00">/tools/dialogcutspline.cpp</text>
</a>
</g>
</g>
<!-- Node1&#45;&gt;Node9 -->
<g id="edge8" class="edge">
<title>Node1&#45;&gt;Node9</title>
<path fill="none" stroke="midnightblue" d="M1970.27,-96.98C1833.43,-94.11 1526.02,-83.22 1271,-42 1261.5,-40.47 1251.48,-38.33 1241.87,-36.03"/>
<polygon fill="midnightblue" stroke="midnightblue" points="1970.54,-100.49 1980.61,-97.19 1970.68,-93.49 1970.54,-100.49"/>
</g>
<!-- Node10 -->
<g id="node10" class="node">
<title>Node10</title>
<g id="a_node10"><a xlink:href="../../d9/d90/dialogcutarc_8cpp.html" target="_top" xlink:title=" ">
<polygon fill="white" stroke="black" points="1280.5,-6 1280.5,-36 1407.5,-36 1407.5,-6 1280.5,-6"/>
<text text-anchor="start" x="1288.5" y="-24" font-family="Helvetica,sans-Serif" font-size="10.00">src/libs/vtools/dialogs</text>
<text text-anchor="middle" x="1344" y="-13" font-family="Helvetica,sans-Serif" font-size="10.00">/tools/dialogcutarc.cpp</text>
</a>
</g>
</g>
<!-- Node1&#45;&gt;Node10 -->
<g id="edge9" class="edge">
<title>Node1&#45;&gt;Node10</title>
<path fill="none" stroke="midnightblue" d="M1970.39,-95.82C1853.49,-91.32 1614.77,-78.19 1416,-42 1407.45,-40.44 1398.44,-38.33 1389.8,-36.06"/>
<polygon fill="midnightblue" stroke="midnightblue" points="1970.51,-99.33 1980.64,-96.21 1970.77,-92.33 1970.51,-99.33"/>
</g>
<!-- Node11 -->
<g id="node11" class="node">
<title>Node11</title>
<g id="a_node11"><a xlink:href="../../df/d30/dialogcutsplinepath_8cpp.html" target="_top" xlink:title=" ">
<polygon fill="white" stroke="black" points="1425.5,-6 1425.5,-36 1588.5,-36 1588.5,-6 1425.5,-6"/>
<text text-anchor="start" x="1433.5" y="-24" font-family="Helvetica,sans-Serif" font-size="10.00">src/libs/vtools/dialogs</text>
<text text-anchor="middle" x="1507" y="-13" font-family="Helvetica,sans-Serif" font-size="10.00">/tools/dialogcutsplinepath.cpp</text>
</a>
</g>
</g>
<!-- Node1&#45;&gt;Node11 -->
<g id="edge10" class="edge">
<title>Node1&#45;&gt;Node11</title>
<path fill="none" stroke="midnightblue" d="M1970.56,-91.01C1882.58,-81.94 1728.72,-64.56 1598,-42 1587.96,-40.27 1577.35,-38.18 1567.06,-36.01"/>
<polygon fill="midnightblue" stroke="midnightblue" points="1970.39,-94.51 1980.69,-92.05 1971.1,-87.55 1970.39,-94.51"/>
</g>
<!-- Node12 -->
<g id="node12" class="node">
<title>Node12</title>
<g id="a_node12"><a xlink:href="../../d9/d68/dialogellipticalarc_8cpp.html" target="_top" xlink:title=" ">
<polygon fill="white" stroke="black" points="1607,-6 1607,-36 1761,-36 1761,-6 1607,-6"/>
<text text-anchor="start" x="1615" y="-24" font-family="Helvetica,sans-Serif" font-size="10.00">src/libs/vtools/dialogs</text>
<text text-anchor="middle" x="1684" y="-13" font-family="Helvetica,sans-Serif" font-size="10.00">/tools/dialogellipticalarc.cpp</text>
</a>
</g>
</g>
<!-- Node1&#45;&gt;Node12 -->
<g id="edge11" class="edge">
<title>Node1&#45;&gt;Node12</title>
<path fill="none" stroke="midnightblue" d="M1970.89,-83.87C1915.95,-72.84 1838.05,-56.92 1770,-42 1761.47,-40.13 1752.47,-38.1 1743.64,-36.08"/>
<polygon fill="midnightblue" stroke="midnightblue" points="1970.38,-87.34 1980.87,-85.88 1971.75,-80.48 1970.38,-87.34"/>
</g>
<!-- Node13 -->
<g id="node13" class="node">
<title>Node13</title>
<g id="a_node13"><a xlink:href="../../de/d3c/dialoglineintersectaxis_8cpp.html" target="_top" xlink:title=" ">
<polygon fill="white" stroke="black" points="1779,-6 1779,-36 1957,-36 1957,-6 1779,-6"/>
<text text-anchor="start" x="1787" y="-24" font-family="Helvetica,sans-Serif" font-size="10.00">src/libs/vtools/dialogs</text>
<text text-anchor="middle" x="1868" y="-13" font-family="Helvetica,sans-Serif" font-size="10.00">/tools/dialoglineintersectaxis.cpp</text>
</a>
</g>
</g>
<!-- Node1&#45;&gt;Node13 -->
<g id="edge12" class="edge">
<title>Node1&#45;&gt;Node13</title>
<path fill="none" stroke="midnightblue" d="M1987.7,-74.28C1959.02,-61.76 1924.79,-46.81 1900.3,-36.11"/>
<polygon fill="midnightblue" stroke="midnightblue" points="1986.63,-77.63 1997.19,-78.43 1989.43,-71.22 1986.63,-77.63"/>
</g>
<!-- Node14 -->
<g id="node14" class="node">
<title>Node14</title>
<g id="a_node14"><a xlink:href="../../d3/d15/dialogendline_8cpp.html" target="_top" xlink:title=" ">
<polygon fill="white" stroke="black" points="1975.5,-6 1975.5,-36 2108.5,-36 2108.5,-6 1975.5,-6"/>
<text text-anchor="start" x="1983.5" y="-24" font-family="Helvetica,sans-Serif" font-size="10.00">src/libs/vtools/dialogs</text>
<text text-anchor="middle" x="2042" y="-13" font-family="Helvetica,sans-Serif" font-size="10.00">/tools/dialogendline.cpp</text>
</a>
</g>
</g>
<!-- Node1&#45;&gt;Node14 -->
<g id="edge13" class="edge">
<title>Node1&#45;&gt;Node14</title>
<path fill="none" stroke="midnightblue" d="M2042,-68.28C2042,-57.25 2042,-45.25 2042,-36.23"/>
<polygon fill="midnightblue" stroke="midnightblue" points="2038.5,-68.43 2042,-78.43 2045.5,-68.43 2038.5,-68.43"/>
</g>
<!-- Node15 -->
<g id="node15" class="node">
<title>Node15</title>
<g id="a_node15"><a xlink:href="../../da/df4/dialognormal_8cpp.html" target="_top" xlink:title=" ">
<polygon fill="white" stroke="black" points="2126.5,-6 2126.5,-36 2257.5,-36 2257.5,-6 2126.5,-6"/>
<text text-anchor="start" x="2134.5" y="-24" font-family="Helvetica,sans-Serif" font-size="10.00">src/libs/vtools/dialogs</text>
<text text-anchor="middle" x="2192" y="-13" font-family="Helvetica,sans-Serif" font-size="10.00">/tools/dialognormal.cpp</text>
</a>
</g>
</g>
<!-- Node1&#45;&gt;Node15 -->
<g id="edge14" class="edge">
<title>Node1&#45;&gt;Node15</title>
<path fill="none" stroke="midnightblue" d="M2089.75,-73.81C2114.19,-61.43 2143.09,-46.78 2163.92,-36.23"/>
<polygon fill="midnightblue" stroke="midnightblue" points="2087.97,-70.79 2080.63,-78.43 2091.13,-77.03 2087.97,-70.79"/>
</g>
<!-- Node16 -->
<g id="node16" class="node">
<title>Node16</title>
<g id="a_node16"><a xlink:href="../../d2/d51/dialogmove_8cpp.html" target="_top" xlink:title=" ">
<polygon fill="white" stroke="black" points="2275.5,-6 2275.5,-36 2400.5,-36 2400.5,-6 2275.5,-6"/>
<text text-anchor="start" x="2283.5" y="-24" font-family="Helvetica,sans-Serif" font-size="10.00">src/libs/vtools/dialogs</text>
<text text-anchor="middle" x="2338" y="-13" font-family="Helvetica,sans-Serif" font-size="10.00">/tools/dialogmove.cpp</text>
</a>
</g>
</g>
<!-- Node1&#45;&gt;Node16 -->
<g id="edge15" class="edge">
<title>Node1&#45;&gt;Node16</title>
<path fill="none" stroke="midnightblue" d="M2113.06,-80.9C2157.41,-70.09 2215.63,-55.62 2267,-42 2274.06,-40.13 2281.49,-38.1 2288.78,-36.07"/>
<polygon fill="midnightblue" stroke="midnightblue" points="2112.14,-77.53 2103.25,-83.29 2113.79,-84.33 2112.14,-77.53"/>
</g>
<!-- Node17 -->
<g id="node17" class="node">
<title>Node17</title>
<g id="a_node17"><a xlink:href="../../d9/df4/dialogpointofcontact_8cpp.html" target="_top" xlink:title=" ">
<polygon fill="white" stroke="black" points="2418.5,-6 2418.5,-36 2585.5,-36 2585.5,-6 2418.5,-6"/>
<text text-anchor="start" x="2426.5" y="-24" font-family="Helvetica,sans-Serif" font-size="10.00">src/libs/vtools/dialogs</text>
<text text-anchor="middle" x="2502" y="-13" font-family="Helvetica,sans-Serif" font-size="10.00">/tools/dialogpointofcontact.cpp</text>
</a>
</g>
</g>
<!-- Node1&#45;&gt;Node17 -->
<g id="edge16" class="edge">
<title>Node1&#45;&gt;Node17</title>
<path fill="none" stroke="midnightblue" d="M2113.26,-88.51C2187.55,-78.31 2307.27,-60.96 2410,-42 2419.64,-40.22 2429.82,-38.18 2439.75,-36.09"/>
<polygon fill="midnightblue" stroke="midnightblue" points="2112.51,-85.08 2103.08,-89.91 2113.46,-92.02 2112.51,-85.08"/>
</g>
<!-- Node18 -->
<g id="node18" class="node">
<title>Node18</title>
<g id="a_node18"><a xlink:href="../../dc/d64/dialogrotation_8cpp.html" target="_top" xlink:title=" ">
<polygon fill="white" stroke="black" points="2603.5,-6 2603.5,-36 2738.5,-36 2738.5,-6 2603.5,-6"/>
<text text-anchor="start" x="2611.5" y="-24" font-family="Helvetica,sans-Serif" font-size="10.00">src/libs/vtools/dialogs</text>
<text text-anchor="middle" x="2671" y="-13" font-family="Helvetica,sans-Serif" font-size="10.00">/tools/dialogrotation.cpp</text>
</a>
</g>
</g>
<!-- Node1&#45;&gt;Node18 -->
<g id="edge17" class="edge">
<title>Node1&#45;&gt;Node18</title>
<path fill="none" stroke="midnightblue" d="M2113.65,-94.33C2219.56,-88.1 2423.85,-72.99 2595,-42 2603.86,-40.4 2613.2,-38.29 2622.19,-36.05"/>
<polygon fill="midnightblue" stroke="midnightblue" points="2113.18,-90.85 2103.4,-94.93 2113.59,-97.84 2113.18,-90.85"/>
</g>
<!-- Node19 -->
<g id="node19" class="node">
<title>Node19</title>
<g id="a_node19"><a xlink:href="../../d3/d23/dialogshoulderpoint_8cpp.html" target="_top" xlink:title=" ">
<polygon fill="white" stroke="black" points="2757,-6 2757,-36 2921,-36 2921,-6 2757,-6"/>
<text text-anchor="start" x="2765" y="-24" font-family="Helvetica,sans-Serif" font-size="10.00">src/libs/vtools/dialogs</text>
<text text-anchor="middle" x="2839" y="-13" font-family="Helvetica,sans-Serif" font-size="10.00">/tools/dialogshoulderpoint.cpp</text>
</a>
</g>
</g>
<!-- Node1&#45;&gt;Node19 -->
<g id="edge18" class="edge">
<title>Node1&#45;&gt;Node19</title>
<path fill="none" stroke="midnightblue" d="M2113.28,-95.58C2241.08,-90.52 2517.4,-76.32 2748,-42 2758.56,-40.43 2769.72,-38.34 2780.48,-36.1"/>
<polygon fill="midnightblue" stroke="midnightblue" points="2113.09,-92.08 2103.23,-95.97 2113.36,-99.08 2113.09,-92.08"/>
</g>
<!-- Node20 -->
<g id="node20" class="node">
<title>Node20</title>
<g id="a_node20"><a xlink:href="../../df/de5/dialogspline_8cpp.html" target="_top" xlink:title=" ">
<polygon fill="white" stroke="black" points="2939,-6 2939,-36 3065,-36 3065,-6 2939,-6"/>
<text text-anchor="start" x="2947" y="-24" font-family="Helvetica,sans-Serif" font-size="10.00">src/libs/vtools/dialogs</text>
<text text-anchor="middle" x="3002" y="-13" font-family="Helvetica,sans-Serif" font-size="10.00">/tools/dialogspline.cpp</text>
</a>
</g>
</g>
<!-- Node1&#45;&gt;Node20 -->
<g id="edge19" class="edge">
<title>Node1&#45;&gt;Node20</title>
<path fill="none" stroke="midnightblue" d="M2113.16,-98.51C2264.57,-98.49 2629.4,-92.66 2930,-42 2938.83,-40.51 2948.13,-38.37 2957,-36.04"/>
<polygon fill="midnightblue" stroke="midnightblue" points="2113.06,-95.01 2103.06,-98.5 2113.06,-102.01 2113.06,-95.01"/>
</g>
<!-- Node21 -->
<g id="node21" class="node">
<title>Node21</title>
<g id="a_node21"><a xlink:href="../../dc/dc2/dialogsplinepath_8cpp.html" target="_top" xlink:title=" ">
<polygon fill="white" stroke="black" points="3083,-6 3083,-36 3231,-36 3231,-6 3083,-6"/>
<text text-anchor="start" x="3091" y="-24" font-family="Helvetica,sans-Serif" font-size="10.00">src/libs/vtools/dialogs</text>
<text text-anchor="middle" x="3157" y="-13" font-family="Helvetica,sans-Serif" font-size="10.00">/tools/dialogsplinepath.cpp</text>
</a>
</g>
</g>
<!-- Node1&#45;&gt;Node21 -->
<g id="edge20" class="edge">
<title>Node1&#45;&gt;Node21</title>
<path fill="none" stroke="midnightblue" d="M2113.38,-98.58C2281.66,-99 2715.99,-94.4 3074,-42 3084.12,-40.52 3094.81,-38.38 3105.04,-36.05"/>
<polygon fill="midnightblue" stroke="midnightblue" points="2113.17,-95.08 2103.16,-98.55 2113.15,-102.08 2113.17,-95.08"/>
</g>
<!-- Node22 -->
<g id="node22" class="node">
<title>Node22</title>
<g id="a_node22"><a xlink:href="../../d5/de8/intersect__circles__dialog_8cpp.html" target="_top" xlink:title=" ">
<polygon fill="white" stroke="black" points="3249,-0.5 3249,-41.5 3375,-41.5 3375,-0.5 3249,-0.5"/>
<text text-anchor="start" x="3257" y="-29.5" font-family="Helvetica,sans-Serif" font-size="10.00">src/libs/vtools/dialogs</text>
<text text-anchor="start" x="3257" y="-18.5" font-family="Helvetica,sans-Serif" font-size="10.00">/tools/intersect_circles</text>
<text text-anchor="middle" x="3312" y="-7.5" font-family="Helvetica,sans-Serif" font-size="10.00">_dialog.cpp</text>
</a>
</g>
</g>
<!-- Node1&#45;&gt;Node22 -->
<g id="edge21" class="edge">
<title>Node1&#45;&gt;Node22</title>
<path fill="none" stroke="midnightblue" d="M2113.53,-96.76C2337.14,-92.55 3021.05,-77.07 3240,-42 3242.95,-41.53 3245.94,-40.98 3248.96,-40.37"/>
<polygon fill="midnightblue" stroke="midnightblue" points="2113.17,-93.27 2103.23,-96.95 2113.3,-100.26 2113.17,-93.27"/>
</g>
<!-- Node23 -->
<g id="node23" class="node">
<title>Node23</title>
<g id="a_node23"><a xlink:href="../../d5/d5a/intersect__circletangent__dialog_8cpp.html" target="_top" xlink:title=" ">
<polygon fill="white" stroke="black" points="3393,-0.5 3393,-41.5 3551,-41.5 3551,-0.5 3393,-0.5"/>
<text text-anchor="start" x="3401" y="-29.5" font-family="Helvetica,sans-Serif" font-size="10.00">src/libs/vtools/dialogs</text>
<text text-anchor="start" x="3401" y="-18.5" font-family="Helvetica,sans-Serif" font-size="10.00">/tools/intersect_circletangent</text>
<text text-anchor="middle" x="3472" y="-7.5" font-family="Helvetica,sans-Serif" font-size="10.00">_dialog.cpp</text>
</a>
</g>
</g>
<!-- Node1&#45;&gt;Node23 -->
<g id="edge22" class="edge">
<title>Node1&#45;&gt;Node23</title>
<path fill="none" stroke="midnightblue" d="M2113.34,-96.73C2354.01,-92.2 3134.91,-75.22 3384,-42 3386.95,-41.61 3389.95,-41.16 3392.97,-40.67"/>
<polygon fill="midnightblue" stroke="midnightblue" points="2113.24,-93.24 2103.3,-96.92 2113.37,-100.23 2113.24,-93.24"/>
</g>
<!-- Node24 -->
<g id="node24" class="node">
<title>Node24</title>
<g id="a_node24"><a xlink:href="../../dc/d82/dialoginternalpath_8cpp.html" target="_top" xlink:title=" ">
<polygon fill="white" stroke="black" points="3568.5,-6 3568.5,-36 3753.5,-36 3753.5,-6 3568.5,-6"/>
<text text-anchor="start" x="3576.5" y="-24" font-family="Helvetica,sans-Serif" font-size="10.00">src/libs/vtools/dialogs</text>
<text text-anchor="middle" x="3661" y="-13" font-family="Helvetica,sans-Serif" font-size="10.00">/tools/piece/dialoginternalpath.cpp</text>
</a>
</g>
</g>
<!-- Node1&#45;&gt;Node24 -->
<g id="edge23" class="edge">
<title>Node1&#45;&gt;Node24</title>
<path fill="none" stroke="midnightblue" d="M2113.23,-96.87C2373.73,-92.52 3274.37,-75.34 3560,-42 3572.43,-40.55 3585.61,-38.4 3598.21,-36.03"/>
<polygon fill="midnightblue" stroke="midnightblue" points="2113.07,-93.37 2103.13,-97.04 2113.19,-100.37 2113.07,-93.37"/>
</g>
<!-- Node25 -->
<g id="node25" class="node">
<title>Node25</title>
<g id="a_node25"><a xlink:href="../../de/d46/pattern__piece__dialog_8cpp.html" target="_top" xlink:title=" ">
<polygon fill="white" stroke="black" points="3771.5,-0.5 3771.5,-41.5 3914.5,-41.5 3914.5,-0.5 3771.5,-0.5"/>
<text text-anchor="start" x="3779.5" y="-29.5" font-family="Helvetica,sans-Serif" font-size="10.00">src/libs/vtools/dialogs</text>
<text text-anchor="start" x="3779.5" y="-18.5" font-family="Helvetica,sans-Serif" font-size="10.00">/tools/piece/pattern_piece</text>
<text text-anchor="middle" x="3843" y="-7.5" font-family="Helvetica,sans-Serif" font-size="10.00">_dialog.cpp</text>
</a>
</g>
</g>
<!-- Node1&#45;&gt;Node25 -->
<g id="edge24" class="edge">
<title>Node1&#45;&gt;Node25</title>
<path fill="none" stroke="midnightblue" d="M2113.18,-97.7C2395.45,-96.19 3436.55,-87.59 3763,-42 3765.69,-41.62 3768.43,-41.19 3771.18,-40.72"/>
<polygon fill="midnightblue" stroke="midnightblue" points="2113.05,-94.2 2103.06,-97.75 2113.08,-101.2 2113.05,-94.2"/>
</g>
<!-- Node26 -->
<g id="node26" class="node">
<title>Node26</title>
<g id="a_node26"><a xlink:href="../../d9/d4e/vabstracttool_8cpp.html" target="_top" xlink:title=" ">
<polygon fill="white" stroke="black" points="3932.5,-6 3932.5,-36 4043.5,-36 4043.5,-6 3932.5,-6"/>
<text text-anchor="start" x="3940.5" y="-24" font-family="Helvetica,sans-Serif" font-size="10.00">src/libs/vtools/tools</text>
<text text-anchor="middle" x="3988" y="-13" font-family="Helvetica,sans-Serif" font-size="10.00">/vabstracttool.cpp</text>
</a>
</g>
</g>
<!-- Node1&#45;&gt;Node26 -->
<g id="edge25" class="edge">
<title>Node1&#45;&gt;Node26</title>
<path fill="none" stroke="midnightblue" d="M2113.32,-97.03C2435.02,-92.5 3743.27,-72.34 3924,-42 3932.15,-40.63 3940.7,-38.48 3948.81,-36.09"/>
<polygon fill="midnightblue" stroke="midnightblue" points="2113.14,-93.53 2103.19,-97.17 2113.23,-100.53 2113.14,-93.53"/>
</g>
</g>
</svg>
        <g id="navigator" transform="translate(0 0)" fill="#404254">
                <rect fill="#f2f5e9" fill-opacity="0.5" stroke="#606060" stroke-width=".5" x="0" y="0" width="60" height="60"/>
                <use id="zoomplus" xlink:href="#zoomPlus" x="17" y="9" onmousedown="handleZoom(evt,'in')"/>
                <use id="zoomminus" xlink:href="#zoomMin" x="42" y="9" onmousedown="handleZoom(evt,'out')"/>
                <use id="reset" xlink:href="#resetDef" x="30" y="36" onmousedown="handleReset()"/>
                <g id="arrowUp" xlink:href="#dirArrow" transform="translate(30 24)" onmousedown="handlePan(0,-1)">
                  <use xlink:href="#rim" fill="#404040">
                        <set attributeName="fill" to="#808080" begin="arrowUp.mouseover" end="arrowUp.mouseout"/>
                  </use>
                  <path fill="none" stroke="white" stroke-width="1.5" d="M0,-3.0v7 M-2.5,-0.5L0,-3.0L2.5,-0.5"/>
                </g>
                <g id="arrowRight" xlink:href="#dirArrow" transform="rotate(90) translate(36 -43)" onmousedown="handlePan(1,0)">
                  <use xlink:href="#rim" fill="#404040">
                        <set attributeName="fill" to="#808080" begin="arrowRight.mouseover" end="arrowRight.mouseout"/>
                  </use>
                  <path fill="none" stroke="white" stroke-width="1.5" d="M0,-3.0v7 M-2.5,-0.5L0,-3.0L2.5,-0.5"/>
                </g>
                <g id="arrowDown" xlink:href="#dirArrow" transform="rotate(180) translate(-30 -48)" onmousedown="handlePan(0,1)">
                  <use xlink:href="#rim" fill="#404040">
                        <set attributeName="fill" to="#808080" begin="arrowDown.mouseover" end="arrowDown.mouseout"/>
                  </use>
                  <path fill="none" stroke="white" stroke-width="1.5" d="M0,-3.0v7 M-2.5,-0.5L0,-3.0L2.5,-0.5"/>
                </g>
                <g id="arrowLeft" xlink:href="#dirArrow" transform="rotate(270) translate(-36 17)" onmousedown="handlePan(-1,0)">
                  <use xlink:href="#rim" fill="#404040">
                        <set attributeName="fill" to="#808080" begin="arrowLeft.mouseover" end="arrowLeft.mouseout"/>
                  </use>
                  <path fill="none" stroke="white" stroke-width="1.5" d="M0,-3.0v7 M-2.5,-0.5L0,-3.0L2.5,-0.5"/>
                </g>
        </g>
        <svg viewBox="0 0 15 15" width="100%" height="30px" preserveAspectRatio="xMaxYMin meet">
         <g id="arrow_out" transform="scale(0.3 0.3)">
          <a xlink:href="edit__formula__dialog_8h__dep__incl_org.svg" target="_base">
           <rect id="button" ry="5" rx="5" y="6" x="6" height="38" width="38"
                fill="#f2f5e9" fill-opacity="0.5" stroke="#606060" stroke-width="1.0"/>
           <path id="arrow"
             d="M 11.500037,31.436501 C 11.940474,20.09759 22.043105,11.32322 32.158766,21.979434 L 37.068811,17.246167 C 37.068811,17.246167 37.088388,32 37.088388,32 L 22.160133,31.978069 C 22.160133,31.978069 26.997745,27.140456 26.997745,27.140456 C 18.528582,18.264221 13.291696,25.230495 11.500037,31.436501 z"
             style="fill:#404040;"/>
          </a>
         </g>
        </svg>
</svg>
