<?xml version="1.0" encoding="UTF-8" standalone="no"?>
<!DOCTYPE svg PUBLIC "-//W3C//DTD SVG 1.1//EN"
 "http://www.w3.org/Graphics/SVG/1.1/DTD/svg11.dtd">
<!-- Generated by graphviz version 2.43.0 (0)
 -->
<!-- Title: src/libs/vtools/undocommands/label/moveabstractlabel.h Pages: 1 -->
<!--zoomable 184 -->
<svg id="main" version="1.1" xmlns="http://www.w3.org/2000/svg" xmlns:xlink="http://www.w3.org/1999/xlink" xml:space="preserve" onload="init(evt)">
<style type="text/css"><![CDATA[
.edge:hover path { stroke: red; }
.edge:hover polygon { stroke: red; fill: red; }
]]></style>
<script type="text/javascript"><![CDATA[
var edges = document.getElementsByTagName('g');
if (edges && edges.length) {
  for (var i=0;i<edges.length;i++) {
    if (edges[i].id.substr(0,4)=='edge') {
      edges[i].setAttribute('class','edge');
    }
  }
}
]]></script>
        <defs>
                <circle id="rim" cx="0" cy="0" r="7"/>
                <circle id="rim2" cx="0" cy="0" r="3.5"/>
                <g id="zoomPlus">
                        <use xlink:href="#rim" fill="#404040">
                                <set attributeName="fill" to="#808080" begin="zoomplus.mouseover" end="zoomplus.mouseout"/>
                        </use>
                        <path d="M-4,0h8M0,-4v8" fill="none" stroke="white" stroke-width="1.5" pointer-events="none"/>
                </g>
                <g id="zoomMin">
                        <use xlink:href="#rim" fill="#404040">
                                <set attributeName="fill" to="#808080" begin="zoomminus.mouseover" end="zoomminus.mouseout"/>
                        </use>
                        <path d="M-4,0h8" fill="none" stroke="white" stroke-width="1.5" pointer-events="none"/>
                </g>
                <g id="dirArrow">
                        <path fill="none" stroke="white" stroke-width="1.5" d="M0,-3.0v7 M-2.5,-0.5L0,-3.0L2.5,-0.5"/>
                </g>
               <g id="resetDef">
                       <use xlink:href="#rim2" fill="#404040">
                               <set attributeName="fill" to="#808080" begin="reset.mouseover" end="reset.mouseout"/>
                       </use>
               </g>
        </defs>

<script type="text/javascript">
var viewWidth = 1298;
var viewHeight = 184;
var sectionId = 'dynsection-1';
</script>
<script xlink:href="../../svgpan.js"/>
<svg id="graph" class="graph">
<g id="viewport">
<title>src/libs/vtools/undocommands/label/moveabstractlabel.h</title>
<polygon fill="white" stroke="transparent" points="-4,4 -4,-180 1293.5,-180 1293.5,4 -4,4"/>
<!-- Node1 -->
<g id="node1" class="node">
<title>Node1</title>
<g id="a_node1"><a xlink:title=" ">
<polygon fill="#bfbfbf" stroke="black" points="542,-145.5 542,-175.5 707,-175.5 707,-145.5 542,-145.5"/>
<text text-anchor="start" x="550" y="-163.5" font-family="Helvetica,sans-Serif" font-size="10.00">src/libs/vtools/undocommands</text>
<text text-anchor="middle" x="624.5" y="-152.5" font-family="Helvetica,sans-Serif" font-size="10.00">/label/moveabstractlabel.h</text>
</a>
</g>
</g>
<!-- Node2 -->
<g id="node2" class="node">
<title>Node2</title>
<g id="a_node2"><a xlink:href="../../dc/d0e/movedoublelabel_8cpp.html" target="_top" xlink:title=" ">
<polygon fill="white" stroke="black" points="0,-6 0,-36 165,-36 165,-6 0,-6"/>
<text text-anchor="start" x="8" y="-24" font-family="Helvetica,sans-Serif" font-size="10.00">src/libs/vtools/undocommands</text>
<text text-anchor="middle" x="82.5" y="-13" font-family="Helvetica,sans-Serif" font-size="10.00">/label/movedoublelabel.cpp</text>
</a>
</g>
</g>
<!-- Node1&#45;&gt;Node2 -->
<g id="edge1" class="edge">
<title>Node1&#45;&gt;Node2</title>
<path fill="none" stroke="midnightblue" d="M531.56,-154.58C423.36,-147.82 251.89,-133.6 192.5,-109 152.01,-92.23 114.08,-56.03 95.12,-36.02"/>
<polygon fill="midnightblue" stroke="midnightblue" points="531.64,-158.09 541.83,-155.21 532.07,-151.1 531.64,-158.09"/>
</g>
<!-- Node3 -->
<g id="node3" class="node">
<title>Node3</title>
<g id="a_node3"><a xlink:href="../../d8/d94/movedoublelabel_8h.html" target="_top" xlink:title=" ">
<polygon fill="white" stroke="black" points="202,-78.5 202,-108.5 367,-108.5 367,-78.5 202,-78.5"/>
<text text-anchor="start" x="210" y="-96.5" font-family="Helvetica,sans-Serif" font-size="10.00">src/libs/vtools/undocommands</text>
<text text-anchor="middle" x="284.5" y="-85.5" font-family="Helvetica,sans-Serif" font-size="10.00">/label/movedoublelabel.h</text>
</a>
</g>
</g>
<!-- Node1&#45;&gt;Node3 -->
<g id="edge2" class="edge">
<title>Node1&#45;&gt;Node3</title>
<path fill="none" stroke="midnightblue" d="M541.24,-143.58C485.18,-132.86 411.92,-118.86 358.02,-108.55"/>
<polygon fill="midnightblue" stroke="midnightblue" points="540.66,-147.04 551.14,-145.48 541.98,-140.16 540.66,-147.04"/>
</g>
<!-- Node5 -->
<g id="node5" class="node">
<title>Node5</title>
<g id="a_node5"><a xlink:href="../../df/db0/movelabel_8cpp.html" target="_top" xlink:title=" ">
<polygon fill="white" stroke="black" points="404,-6 404,-36 569,-36 569,-6 404,-6"/>
<text text-anchor="start" x="412" y="-24" font-family="Helvetica,sans-Serif" font-size="10.00">src/libs/vtools/undocommands</text>
<text text-anchor="middle" x="486.5" y="-13" font-family="Helvetica,sans-Serif" font-size="10.00">/label/movelabel.cpp</text>
</a>
</g>
</g>
<!-- Node1&#45;&gt;Node5 -->
<g id="edge5" class="edge">
<title>Node1&#45;&gt;Node5</title>
<path fill="none" stroke="midnightblue" d="M578.82,-141.04C562.79,-132.95 545.54,-122.24 532.5,-109 511.52,-87.69 497.73,-54.86 491.1,-36.22"/>
<polygon fill="midnightblue" stroke="midnightblue" points="577.56,-144.31 588.09,-145.5 580.59,-138 577.56,-144.31"/>
</g>
<!-- Node6 -->
<g id="node6" class="node">
<title>Node6</title>
<g id="a_node6"><a xlink:href="../../d3/d46/movelabel_8h.html" target="_top" xlink:title=" ">
<polygon fill="white" stroke="black" points="542,-78.5 542,-108.5 707,-108.5 707,-78.5 542,-78.5"/>
<text text-anchor="start" x="550" y="-96.5" font-family="Helvetica,sans-Serif" font-size="10.00">src/libs/vtools/undocommands</text>
<text text-anchor="middle" x="624.5" y="-85.5" font-family="Helvetica,sans-Serif" font-size="10.00">/label/movelabel.h</text>
</a>
</g>
</g>
<!-- Node1&#45;&gt;Node6 -->
<g id="edge6" class="edge">
<title>Node1&#45;&gt;Node6</title>
<path fill="none" stroke="midnightblue" d="M624.5,-135.11C624.5,-126.15 624.5,-116.32 624.5,-108.58"/>
<polygon fill="midnightblue" stroke="midnightblue" points="621,-135.4 624.5,-145.4 628,-135.4 621,-135.4"/>
</g>
<!-- Node9 -->
<g id="node9" class="node">
<title>Node9</title>
<g id="a_node9"><a xlink:href="../../db/d5b/moveoperationlabel_8cpp.html" target="_top" xlink:title=" ">
<polygon fill="white" stroke="black" points="974,-6 974,-36 1139,-36 1139,-6 974,-6"/>
<text text-anchor="start" x="982" y="-24" font-family="Helvetica,sans-Serif" font-size="10.00">src/libs/vtools/undocommands</text>
<text text-anchor="middle" x="1056.5" y="-13" font-family="Helvetica,sans-Serif" font-size="10.00">/label/moveoperationlabel.cpp</text>
</a>
</g>
</g>
<!-- Node1&#45;&gt;Node9 -->
<g id="edge10" class="edge">
<title>Node1&#45;&gt;Node9</title>
<path fill="none" stroke="midnightblue" d="M661.67,-140.67C678.49,-131.69 698.39,-120.44 715.5,-109 733.91,-96.7 734.29,-87.04 754.5,-78 840.94,-39.33 871.54,-60.06 964.5,-42 973.97,-40.16 983.96,-38.11 993.73,-36.03"/>
<polygon fill="midnightblue" stroke="midnightblue" points="659.89,-137.64 652.68,-145.4 663.16,-143.84 659.89,-137.64"/>
</g>
<!-- Node10 -->
<g id="node10" class="node">
<title>Node10</title>
<g id="a_node10"><a xlink:href="../../d1/d58/moveabstractlabel_8cpp.html" target="_top" xlink:title=" ">
<polygon fill="white" stroke="black" points="764,-78.5 764,-108.5 929,-108.5 929,-78.5 764,-78.5"/>
<text text-anchor="start" x="772" y="-96.5" font-family="Helvetica,sans-Serif" font-size="10.00">src/libs/vtools/undocommands</text>
<text text-anchor="middle" x="846.5" y="-85.5" font-family="Helvetica,sans-Serif" font-size="10.00">/label/moveabstractlabel.cpp</text>
</a>
</g>
</g>
<!-- Node1&#45;&gt;Node10 -->
<g id="edge11" class="edge">
<title>Node1&#45;&gt;Node10</title>
<path fill="none" stroke="midnightblue" d="M682.29,-142.58C718.35,-132.02 764.22,-118.59 798.31,-108.61"/>
<polygon fill="midnightblue" stroke="midnightblue" points="681.01,-139.31 672.4,-145.48 682.98,-146.02 681.01,-139.31"/>
</g>
<!-- Node11 -->
<g id="node11" class="node">
<title>Node11</title>
<g id="a_node11"><a xlink:href="../../da/d5d/moveoperationlabel_8h.html" target="_top" xlink:title=" ">
<polygon fill="white" stroke="black" points="974,-78.5 974,-108.5 1139,-108.5 1139,-78.5 974,-78.5"/>
<text text-anchor="start" x="982" y="-96.5" font-family="Helvetica,sans-Serif" font-size="10.00">src/libs/vtools/undocommands</text>
<text text-anchor="middle" x="1056.5" y="-85.5" font-family="Helvetica,sans-Serif" font-size="10.00">/label/moveoperationlabel.h</text>
</a>
</g>
</g>
<!-- Node1&#45;&gt;Node11 -->
<g id="edge12" class="edge">
<title>Node1&#45;&gt;Node11</title>
<path fill="none" stroke="midnightblue" d="M717.11,-145.57C793.37,-134.09 900.51,-117.97 973.9,-106.93"/>
<polygon fill="midnightblue" stroke="midnightblue" points="716.4,-142.13 707.03,-147.08 717.44,-149.06 716.4,-142.13"/>
</g>
<!-- Node3&#45;&gt;Node2 -->
<g id="edge4" class="edge">
<title>Node3&#45;&gt;Node2</title>
<path fill="none" stroke="midnightblue" d="M234.26,-74.96C199.87,-62.96 154.87,-47.26 122.82,-36.07"/>
<polygon fill="midnightblue" stroke="midnightblue" points="233.51,-78.41 244.11,-78.4 235.82,-71.8 233.51,-78.41"/>
</g>
<!-- Node4 -->
<g id="node4" class="node">
<title>Node4</title>
<g id="a_node4"><a xlink:href="../../de/d21/vtooldoublepoint_8cpp.html" target="_top" xlink:title=" ">
<polygon fill="white" stroke="black" points="183.5,-0.5 183.5,-41.5 385.5,-41.5 385.5,-0.5 183.5,-0.5"/>
<text text-anchor="start" x="191.5" y="-29.5" font-family="Helvetica,sans-Serif" font-size="10.00">src/libs/vtools/tools</text>
<text text-anchor="start" x="191.5" y="-18.5" font-family="Helvetica,sans-Serif" font-size="10.00">/drawTools/toolpoint</text>
<text text-anchor="middle" x="284.5" y="-7.5" font-family="Helvetica,sans-Serif" font-size="10.00">/tooldoublepoint/vtooldoublepoint.cpp</text>
</a>
</g>
</g>
<!-- Node3&#45;&gt;Node4 -->
<g id="edge3" class="edge">
<title>Node3&#45;&gt;Node4</title>
<path fill="none" stroke="midnightblue" d="M284.5,-67.98C284.5,-59.35 284.5,-49.76 284.5,-41.59"/>
<polygon fill="midnightblue" stroke="midnightblue" points="281,-68.23 284.5,-78.23 288,-68.23 281,-68.23"/>
</g>
<!-- Node6&#45;&gt;Node5 -->
<g id="edge9" class="edge">
<title>Node6&#45;&gt;Node5</title>
<path fill="none" stroke="midnightblue" d="M587.73,-73.72C564.58,-61.89 535.19,-46.87 514.05,-36.07"/>
<polygon fill="midnightblue" stroke="midnightblue" points="586.41,-76.97 596.91,-78.4 589.59,-70.74 586.41,-76.97"/>
</g>
<!-- Node7 -->
<g id="node7" class="node">
<title>Node7</title>
<g id="a_node7"><a xlink:href="../../dd/d37/vtoolsinglepoint_8cpp.html" target="_top" xlink:title=" ">
<polygon fill="white" stroke="black" points="587.5,-0.5 587.5,-41.5 781.5,-41.5 781.5,-0.5 587.5,-0.5"/>
<text text-anchor="start" x="595.5" y="-29.5" font-family="Helvetica,sans-Serif" font-size="10.00">src/libs/vtools/tools</text>
<text text-anchor="start" x="595.5" y="-18.5" font-family="Helvetica,sans-Serif" font-size="10.00">/drawTools/toolpoint</text>
<text text-anchor="middle" x="684.5" y="-7.5" font-family="Helvetica,sans-Serif" font-size="10.00">/toolsinglepoint/vtoolsinglepoint.cpp</text>
</a>
</g>
</g>
<!-- Node6&#45;&gt;Node7 -->
<g id="edge7" class="edge">
<title>Node6&#45;&gt;Node7</title>
<path fill="none" stroke="midnightblue" d="M643.19,-70.54C651.07,-61.28 660.18,-50.58 667.83,-41.59"/>
<polygon fill="midnightblue" stroke="midnightblue" points="640.46,-68.35 636.64,-78.23 645.79,-72.89 640.46,-68.35"/>
</g>
<!-- Node8 -->
<g id="node8" class="node">
<title>Node8</title>
<g id="a_node8"><a xlink:href="../../d4/d7b/vnodepoint_8cpp.html" target="_top" xlink:title=" ">
<polygon fill="white" stroke="black" points="799.5,-6 799.5,-36 955.5,-36 955.5,-6 799.5,-6"/>
<text text-anchor="start" x="807.5" y="-24" font-family="Helvetica,sans-Serif" font-size="10.00">src/libs/vtools/tools</text>
<text text-anchor="middle" x="877.5" y="-13" font-family="Helvetica,sans-Serif" font-size="10.00">/nodeDetails/vnodepoint.cpp</text>
</a>
</g>
</g>
<!-- Node6&#45;&gt;Node8 -->
<g id="edge8" class="edge">
<title>Node6&#45;&gt;Node8</title>
<path fill="none" stroke="midnightblue" d="M684.64,-75.74C728,-63.66 785.87,-47.53 826.88,-36.11"/>
<polygon fill="midnightblue" stroke="midnightblue" points="683.48,-72.43 674.79,-78.49 685.36,-79.17 683.48,-72.43"/>
</g>
<!-- Node11&#45;&gt;Node9 -->
<g id="edge14" class="edge">
<title>Node11&#45;&gt;Node9</title>
<path fill="none" stroke="midnightblue" d="M1056.5,-68.23C1056.5,-57.57 1056.5,-45.41 1056.5,-36.25"/>
<polygon fill="midnightblue" stroke="midnightblue" points="1053,-68.23 1056.5,-78.23 1060,-68.23 1053,-68.23"/>
</g>
<!-- Node12 -->
<g id="node12" class="node">
<title>Node12</title>
<g id="a_node12"><a xlink:href="../../d8/de3/vabstractoperation_8cpp.html" target="_top" xlink:title=" ">
<polygon fill="white" stroke="black" points="1157.5,-0.5 1157.5,-41.5 1289.5,-41.5 1289.5,-0.5 1157.5,-0.5"/>
<text text-anchor="start" x="1165.5" y="-29.5" font-family="Helvetica,sans-Serif" font-size="10.00">src/libs/vtools/tools</text>
<text text-anchor="start" x="1165.5" y="-18.5" font-family="Helvetica,sans-Serif" font-size="10.00">/drawTools/operation</text>
<text text-anchor="middle" x="1223.5" y="-7.5" font-family="Helvetica,sans-Serif" font-size="10.00">/vabstractoperation.cpp</text>
</a>
</g>
</g>
<!-- Node11&#45;&gt;Node12 -->
<g id="edge13" class="edge">
<title>Node11&#45;&gt;Node12</title>
<path fill="none" stroke="midnightblue" d="M1099.38,-74.4C1123.2,-64.34 1152.85,-51.83 1177.2,-41.55"/>
<polygon fill="midnightblue" stroke="midnightblue" points="1097.75,-71.29 1089.89,-78.4 1100.47,-77.74 1097.75,-71.29"/>
</g>
</g>
</svg>
        <g id="navigator" transform="translate(0 0)" fill="#404254">
                <rect fill="#f2f5e9" fill-opacity="0.5" stroke="#606060" stroke-width=".5" x="0" y="0" width="60" height="60"/>
                <use id="zoomplus" xlink:href="#zoomPlus" x="17" y="9" onmousedown="handleZoom(evt,'in')"/>
                <use id="zoomminus" xlink:href="#zoomMin" x="42" y="9" onmousedown="handleZoom(evt,'out')"/>
                <use id="reset" xlink:href="#resetDef" x="30" y="36" onmousedown="handleReset()"/>
                <g id="arrowUp" xlink:href="#dirArrow" transform="translate(30 24)" onmousedown="handlePan(0,-1)">
                  <use xlink:href="#rim" fill="#404040">
                        <set attributeName="fill" to="#808080" begin="arrowUp.mouseover" end="arrowUp.mouseout"/>
                  </use>
                  <path fill="none" stroke="white" stroke-width="1.5" d="M0,-3.0v7 M-2.5,-0.5L0,-3.0L2.5,-0.5"/>
                </g>
                <g id="arrowRight" xlink:href="#dirArrow" transform="rotate(90) translate(36 -43)" onmousedown="handlePan(1,0)">
                  <use xlink:href="#rim" fill="#404040">
                        <set attributeName="fill" to="#808080" begin="arrowRight.mouseover" end="arrowRight.mouseout"/>
                  </use>
                  <path fill="none" stroke="white" stroke-width="1.5" d="M0,-3.0v7 M-2.5,-0.5L0,-3.0L2.5,-0.5"/>
                </g>
                <g id="arrowDown" xlink:href="#dirArrow" transform="rotate(180) translate(-30 -48)" onmousedown="handlePan(0,1)">
                  <use xlink:href="#rim" fill="#404040">
                        <set attributeName="fill" to="#808080" begin="arrowDown.mouseover" end="arrowDown.mouseout"/>
                  </use>
                  <path fill="none" stroke="white" stroke-width="1.5" d="M0,-3.0v7 M-2.5,-0.5L0,-3.0L2.5,-0.5"/>
                </g>
                <g id="arrowLeft" xlink:href="#dirArrow" transform="rotate(270) translate(-36 17)" onmousedown="handlePan(-1,0)">
                  <use xlink:href="#rim" fill="#404040">
                        <set attributeName="fill" to="#808080" begin="arrowLeft.mouseover" end="arrowLeft.mouseout"/>
                  </use>
                  <path fill="none" stroke="white" stroke-width="1.5" d="M0,-3.0v7 M-2.5,-0.5L0,-3.0L2.5,-0.5"/>
                </g>
        </g>
        <svg viewBox="0 0 15 15" width="100%" height="30px" preserveAspectRatio="xMaxYMin meet">
         <g id="arrow_out" transform="scale(0.3 0.3)">
          <a xlink:href="moveabstractlabel_8h__dep__incl_org.svg" target="_base">
           <rect id="button" ry="5" rx="5" y="6" x="6" height="38" width="38"
                fill="#f2f5e9" fill-opacity="0.5" stroke="#606060" stroke-width="1.0"/>
           <path id="arrow"
             d="M 11.500037,31.436501 C 11.940474,20.09759 22.043105,11.32322 32.158766,21.979434 L 37.068811,17.246167 C 37.068811,17.246167 37.088388,32 37.088388,32 L 22.160133,31.978069 C 22.160133,31.978069 26.997745,27.140456 26.997745,27.140456 C 18.528582,18.264221 13.291696,25.230495 11.500037,31.436501 z"
             style="fill:#404040;"/>
          </a>
         </g>
        </svg>
</svg>
