<?xml version="1.0" encoding="UTF-8" standalone="no"?>
<!DOCTYPE svg PUBLIC "-//W3C//DTD SVG 1.1//EN"
 "http://www.w3.org/Graphics/SVG/1.1/DTD/svg11.dtd">
<!-- Generated by graphviz version 2.43.0 (0)
 -->
<!-- Title: src/libs/ifc/xml/vdomdocument.h Pages: 1 -->
<svg width="3040pt" height="274pt"
 viewBox="0.00 0.00 3040.07 274.00" xmlns="http://www.w3.org/2000/svg" xmlns:xlink="http://www.w3.org/1999/xlink">
<g id="graph0" class="graph" transform="scale(1 1) rotate(0) translate(4 270)">
<title>src/libs/ifc/xml/vdomdocument.h</title>
<polygon fill="white" stroke="transparent" points="-4,4 -4,-270 3036.07,-270 3036.07,4 -4,4"/>
<!-- Node1 -->
<g id="node1" class="node">
<title>Node1</title>
<g id="a_node1"><a xlink:title=" ">
<polygon fill="#bfbfbf" stroke="black" points="1335.57,-246.5 1335.57,-265.5 1511.57,-265.5 1511.57,-246.5 1335.57,-246.5"/>
<text text-anchor="middle" x="1423.57" y="-253.5" font-family="Helvetica,sans-Serif" font-size="10.00">src/libs/ifc/xml/vdomdocument.h</text>
</a>
</g>
</g>
<!-- Node2 -->
<g id="node2" class="node">
<title>Node2</title>
<g id="a_node2"><a xlink:href="../../df/de4/vabstractconverter_8h.html" target="_top" xlink:title=" ">
<polygon fill="white" stroke="black" points="892.07,-190.5 892.07,-209.5 1083.07,-209.5 1083.07,-190.5 892.07,-190.5"/>
<text text-anchor="middle" x="987.57" y="-197.5" font-family="Helvetica,sans-Serif" font-size="10.00">src/libs/ifc/xml/vabstractconverter.h</text>
</a>
</g>
</g>
<!-- Node1&#45;&gt;Node2 -->
<g id="edge1" class="edge">
<title>Node1&#45;&gt;Node2</title>
<path fill="none" stroke="midnightblue" d="M1344.43,-245.2C1262.12,-235 1134.57,-219.21 1056.33,-209.52"/>
<polygon fill="midnightblue" stroke="midnightblue" points="1344.13,-248.69 1354.48,-246.44 1344.99,-241.74 1344.13,-248.69"/>
</g>
<!-- Node11 -->
<g id="node11" class="node">
<title>Node11</title>
<g id="a_node11"><a xlink:href="../../d4/d9f/vabstractconverter_8cpp.html" target="_top" xlink:title=" ">
<polygon fill="white" stroke="black" points="1322.07,-129 1322.07,-148 1525.07,-148 1525.07,-129 1322.07,-129"/>
<text text-anchor="middle" x="1423.57" y="-136" font-family="Helvetica,sans-Serif" font-size="10.00">src/libs/ifc/xml/vabstractconverter.cpp</text>
</a>
</g>
</g>
<!-- Node1&#45;&gt;Node11 -->
<g id="edge24" class="edge">
<title>Node1&#45;&gt;Node11</title>
<path fill="none" stroke="midnightblue" d="M1423.57,-236.16C1423.57,-210.87 1423.57,-166.94 1423.57,-148.28"/>
<polygon fill="midnightblue" stroke="midnightblue" points="1420.07,-236.32 1423.57,-246.32 1427.07,-236.32 1420.07,-236.32"/>
</g>
<!-- Node17 -->
<g id="node17" class="node">
<title>Node17</title>
<g id="a_node17"><a xlink:href="../../de/d7d/vabstractpattern_8cpp.html" target="_top" xlink:title=" ">
<polygon fill="white" stroke="black" points="1367.57,-62 1367.57,-81 1559.57,-81 1559.57,-62 1367.57,-62"/>
<text text-anchor="middle" x="1463.57" y="-69" font-family="Helvetica,sans-Serif" font-size="10.00">src/libs/ifc/xml/vabstractpattern.cpp</text>
</a>
</g>
</g>
<!-- Node1&#45;&gt;Node17 -->
<g id="edge25" class="edge">
<title>Node1&#45;&gt;Node17</title>
<path fill="none" stroke="midnightblue" d="M1448.41,-241.11C1475.41,-224.42 1517.04,-193.65 1534.57,-154 1540.14,-141.4 1540.89,-135.24 1534.57,-123 1524.24,-102.97 1501.88,-89.15 1485,-81.09"/>
<polygon fill="midnightblue" stroke="midnightblue" points="1446.32,-238.28 1439.53,-246.42 1449.91,-244.29 1446.32,-238.28"/>
</g>
<!-- Node18 -->
<g id="node18" class="node">
<title>Node18</title>
<g id="a_node18"><a xlink:href="../../d0/d89/vabstractpattern_8h.html" target="_top" xlink:title=" ">
<polygon fill="white" stroke="black" points="1983.07,-190.5 1983.07,-209.5 2164.07,-209.5 2164.07,-190.5 1983.07,-190.5"/>
<text text-anchor="middle" x="2073.57" y="-197.5" font-family="Helvetica,sans-Serif" font-size="10.00">src/libs/ifc/xml/vabstractpattern.h</text>
</a>
</g>
</g>
<!-- Node1&#45;&gt;Node18 -->
<g id="edge26" class="edge">
<title>Node1&#45;&gt;Node18</title>
<path fill="none" stroke="midnightblue" d="M1522.25,-246.8C1647.42,-236.4 1861.53,-218.62 1982.81,-208.54"/>
<polygon fill="midnightblue" stroke="midnightblue" points="1521.58,-243.35 1511.91,-247.66 1522.16,-250.32 1521.58,-243.35"/>
</g>
<!-- Node34 -->
<g id="node34" class="node">
<title>Node34</title>
<g id="a_node34"><a xlink:href="../../d7/d49/vdomdocument_8cpp.html" target="_top" xlink:title=" ">
<polygon fill="white" stroke="black" points="2182.57,-190.5 2182.57,-209.5 2370.57,-209.5 2370.57,-190.5 2182.57,-190.5"/>
<text text-anchor="middle" x="2276.57" y="-197.5" font-family="Helvetica,sans-Serif" font-size="10.00">src/libs/ifc/xml/vdomdocument.cpp</text>
</a>
</g>
</g>
<!-- Node1&#45;&gt;Node34 -->
<g id="edge45" class="edge">
<title>Node1&#45;&gt;Node34</title>
<path fill="none" stroke="midnightblue" d="M1521.75,-249.96C1665.08,-242.42 1939.97,-227.21 2173.57,-210 2176.52,-209.78 2179.52,-209.56 2182.55,-209.32"/>
<polygon fill="midnightblue" stroke="midnightblue" points="1521.46,-246.47 1511.66,-250.49 1521.83,-253.46 1521.46,-246.47"/>
</g>
<!-- Node35 -->
<g id="node35" class="node">
<title>Node35</title>
<g id="a_node35"><a xlink:href="../../d2/d8a/vlabeltemplate_8h.html" target="_top" xlink:title=" ">
<polygon fill="white" stroke="black" points="531.07,-190.5 531.07,-209.5 710.07,-209.5 710.07,-190.5 531.07,-190.5"/>
<text text-anchor="middle" x="620.57" y="-197.5" font-family="Helvetica,sans-Serif" font-size="10.00">src/libs/vformat/vlabeltemplate.h</text>
</a>
</g>
</g>
<!-- Node1&#45;&gt;Node35 -->
<g id="edge46" class="edge">
<title>Node1&#45;&gt;Node35</title>
<path fill="none" stroke="midnightblue" d="M1325.19,-248.38C1167.82,-237.8 861.81,-217.22 710.17,-207.03"/>
<polygon fill="midnightblue" stroke="midnightblue" points="1325.13,-251.89 1335.34,-249.07 1325.6,-244.9 1325.13,-251.89"/>
</g>
<!-- Node36 -->
<g id="node36" class="node">
<title>Node36</title>
<g id="a_node36"><a xlink:href="../../d4/dd6/vmeasurements_8h.html" target="_top" xlink:title=" ">
<polygon fill="white" stroke="black" points="0.07,-190.5 0.07,-209.5 185.07,-209.5 185.07,-190.5 0.07,-190.5"/>
<text text-anchor="middle" x="92.57" y="-197.5" font-family="Helvetica,sans-Serif" font-size="10.00">src/libs/vformat/vmeasurements.h</text>
</a>
</g>
</g>
<!-- Node1&#45;&gt;Node36 -->
<g id="edge48" class="edge">
<title>Node1&#45;&gt;Node36</title>
<path fill="none" stroke="midnightblue" d="M1325.38,-251.02C1077.24,-240.95 427.55,-214.59 185.35,-204.76"/>
<polygon fill="midnightblue" stroke="midnightblue" points="1325.33,-254.52 1335.47,-251.43 1325.62,-247.52 1325.33,-254.52"/>
</g>
<!-- Node3 -->
<g id="node3" class="node">
<title>Node3</title>
<g id="a_node3"><a xlink:href="../../d4/d90/fvupdater_8cpp.html" target="_top" xlink:title=" ">
<polygon fill="white" stroke="black" points="651.07,-129 651.07,-148 804.07,-148 804.07,-129 651.07,-129"/>
<text text-anchor="middle" x="727.57" y="-136" font-family="Helvetica,sans-Serif" font-size="10.00">src/libs/fervor/fvupdater.cpp</text>
</a>
</g>
</g>
<!-- Node2&#45;&gt;Node3 -->
<g id="edge2" class="edge">
<title>Node2&#45;&gt;Node3</title>
<path fill="none" stroke="midnightblue" d="M940.32,-188.19C889.86,-176.64 810.96,-158.58 764.75,-148.01"/>
<polygon fill="midnightblue" stroke="midnightblue" points="939.79,-191.66 950.32,-190.48 941.35,-184.83 939.79,-191.66"/>
</g>
<!-- Node4 -->
<g id="node4" class="node">
<title>Node4</title>
<g id="a_node4"><a xlink:href="../../dd/d2b/vabstractmconverter_8cpp.html" target="_top" xlink:title=" ">
<polygon fill="white" stroke="black" points="663.57,-62 663.57,-81 875.57,-81 875.57,-62 663.57,-62"/>
<text text-anchor="middle" x="769.57" y="-69" font-family="Helvetica,sans-Serif" font-size="10.00">src/libs/ifc/xml/vabstractmconverter.cpp</text>
</a>
</g>
</g>
<!-- Node2&#45;&gt;Node4 -->
<g id="edge3" class="edge">
<title>Node2&#45;&gt;Node4</title>
<path fill="none" stroke="midnightblue" d="M881.94,-192.22C786.1,-184.97 657.4,-172.02 641.57,-154 610.88,-119.07 683.36,-93.56 731.33,-81.09"/>
<polygon fill="midnightblue" stroke="midnightblue" points="881.75,-195.72 891.98,-192.97 882.27,-188.74 881.75,-195.72"/>
</g>
<!-- Node5 -->
<g id="node5" class="node">
<title>Node5</title>
<g id="a_node5"><a xlink:href="../../d6/d2d/vabstractmconverter_8h.html" target="_top" xlink:title=" ">
<polygon fill="white" stroke="black" points="822.07,-129 822.07,-148 1023.07,-148 1023.07,-129 822.07,-129"/>
<text text-anchor="middle" x="922.57" y="-136" font-family="Helvetica,sans-Serif" font-size="10.00">src/libs/ifc/xml/vabstractmconverter.h</text>
</a>
</g>
</g>
<!-- Node2&#45;&gt;Node5 -->
<g id="edge4" class="edge">
<title>Node2&#45;&gt;Node5</title>
<path fill="none" stroke="midnightblue" d="M970.8,-183.65C958.41,-172.31 941.99,-157.28 931.87,-148.01"/>
<polygon fill="midnightblue" stroke="midnightblue" points="968.52,-186.3 978.26,-190.48 973.24,-181.14 968.52,-186.3"/>
</g>
<!-- Node7 -->
<g id="node7" class="node">
<title>Node7</title>
<g id="a_node7"><a xlink:href="../../d1/d8f/vvitconverter_8h.html" target="_top" xlink:title=" ">
<polygon fill="white" stroke="black" points="969.57,-62 969.57,-81 1133.57,-81 1133.57,-62 969.57,-62"/>
<text text-anchor="middle" x="1051.57" y="-69" font-family="Helvetica,sans-Serif" font-size="10.00">src/libs/ifc/xml/vvitconverter.h</text>
</a>
</g>
</g>
<!-- Node2&#45;&gt;Node7 -->
<g id="edge22" class="edge">
<title>Node2&#45;&gt;Node7</title>
<path fill="none" stroke="midnightblue" d="M1006.7,-183.67C1015.48,-175.69 1025.31,-165.26 1031.57,-154 1045.02,-129.81 1049.52,-96.63 1050.95,-81.13"/>
<polygon fill="midnightblue" stroke="midnightblue" points="1004.35,-181.08 999.06,-190.27 1008.92,-186.38 1004.35,-181.08"/>
</g>
<!-- Node9 -->
<g id="node9" class="node">
<title>Node9</title>
<g id="a_node9"><a xlink:href="../../d2/d10/vvstconverter_8h.html" target="_top" xlink:title=" ">
<polygon fill="white" stroke="black" points="479.07,-62 479.07,-81 646.07,-81 646.07,-62 479.07,-62"/>
<text text-anchor="middle" x="562.57" y="-69" font-family="Helvetica,sans-Serif" font-size="10.00">src/libs/ifc/xml/vvstconverter.h</text>
</a>
</g>
</g>
<!-- Node2&#45;&gt;Node9 -->
<g id="edge23" class="edge">
<title>Node2&#45;&gt;Node9</title>
<path fill="none" stroke="midnightblue" d="M881.66,-194.18C792.36,-188.58 672.59,-176.98 630.57,-154 599.04,-136.76 576.09,-98.5 566.94,-81.24"/>
<polygon fill="midnightblue" stroke="midnightblue" points="881.65,-197.69 891.84,-194.8 882.07,-190.7 881.65,-197.69"/>
</g>
<!-- Node2&#45;&gt;Node11 -->
<g id="edge14" class="edge">
<title>Node2&#45;&gt;Node11</title>
<path fill="none" stroke="midnightblue" d="M1060.03,-189.11C1144.19,-177.63 1281.63,-158.87 1361.22,-148.01"/>
<polygon fill="midnightblue" stroke="midnightblue" points="1059.47,-185.66 1050.04,-190.48 1060.42,-192.59 1059.47,-185.66"/>
</g>
<!-- Node12 -->
<g id="node12" class="node">
<title>Node12</title>
<g id="a_node12"><a xlink:href="../../d5/d35/vlabeltemplateconverter_8h.html" target="_top" xlink:title=" ">
<polygon fill="white" stroke="black" points="235.57,-129 235.57,-148 455.57,-148 455.57,-129 235.57,-129"/>
<text text-anchor="middle" x="345.57" y="-136" font-family="Helvetica,sans-Serif" font-size="10.00">src/libs/ifc/xml/vlabeltemplateconverter.h</text>
</a>
</g>
</g>
<!-- Node2&#45;&gt;Node12 -->
<g id="edge15" class="edge">
<title>Node2&#45;&gt;Node12</title>
<path fill="none" stroke="midnightblue" d="M885.37,-189.53C761.9,-178.08 556.01,-159 437.38,-148.01"/>
<polygon fill="midnightblue" stroke="midnightblue" points="885.31,-193.04 895.59,-190.48 885.95,-186.07 885.31,-193.04"/>
</g>
<!-- Node15 -->
<g id="node15" class="node">
<title>Node15</title>
<g id="a_node15"><a xlink:href="../../d5/d2c/vpatternconverter_8cpp.html" target="_top" xlink:title=" ">
<polygon fill="white" stroke="black" points="1151.57,-62 1151.57,-81 1349.57,-81 1349.57,-62 1151.57,-62"/>
<text text-anchor="middle" x="1250.57" y="-69" font-family="Helvetica,sans-Serif" font-size="10.00">src/libs/ifc/xml/vpatternconverter.cpp</text>
</a>
</g>
</g>
<!-- Node2&#45;&gt;Node15 -->
<g id="edge18" class="edge">
<title>Node2&#45;&gt;Node15</title>
<path fill="none" stroke="midnightblue" d="M1007.63,-184.31C1030.82,-167.8 1070.56,-140.97 1107.57,-123 1144.99,-104.83 1190.69,-89.85 1220.2,-81.05"/>
<polygon fill="midnightblue" stroke="midnightblue" points="1005.38,-181.61 999.31,-190.29 1009.47,-187.29 1005.38,-181.61"/>
</g>
<!-- Node16 -->
<g id="node16" class="node">
<title>Node16</title>
<g id="a_node16"><a xlink:href="../../df/d2f/vpatternconverter_8h.html" target="_top" xlink:title=" ">
<polygon fill="white" stroke="black" points="1117.07,-129 1117.07,-148 1304.07,-148 1304.07,-129 1117.07,-129"/>
<text text-anchor="middle" x="1210.57" y="-136" font-family="Helvetica,sans-Serif" font-size="10.00">src/libs/ifc/xml/vpatternconverter.h</text>
</a>
</g>
</g>
<!-- Node2&#45;&gt;Node16 -->
<g id="edge19" class="edge">
<title>Node2&#45;&gt;Node16</title>
<path fill="none" stroke="midnightblue" d="M1029.19,-187.9C1072.5,-176.34 1139.38,-158.5 1178.68,-148.01"/>
<polygon fill="midnightblue" stroke="midnightblue" points="1028.28,-184.52 1019.52,-190.48 1030.08,-191.28 1028.28,-184.52"/>
</g>
<!-- Node5&#45;&gt;Node4 -->
<g id="edge5" class="edge">
<title>Node5&#45;&gt;Node4</title>
<path fill="none" stroke="midnightblue" d="M893.03,-124.95C862.73,-112.08 816.42,-92.4 789.97,-81.17"/>
<polygon fill="midnightblue" stroke="midnightblue" points="891.68,-128.18 902.25,-128.87 894.42,-121.74 891.68,-128.18"/>
</g>
<!-- Node6 -->
<g id="node6" class="node">
<title>Node6</title>
<g id="a_node6"><a xlink:href="../../d5/dba/vvitconverter_8cpp.html" target="_top" xlink:title=" ">
<polygon fill="white" stroke="black" points="919.57,-0.5 919.57,-19.5 1095.57,-19.5 1095.57,-0.5 919.57,-0.5"/>
<text text-anchor="middle" x="1007.57" y="-7.5" font-family="Helvetica,sans-Serif" font-size="10.00">src/libs/ifc/xml/vvitconverter.cpp</text>
</a>
</g>
</g>
<!-- Node5&#45;&gt;Node6 -->
<g id="edge6" class="edge">
<title>Node5&#45;&gt;Node6</title>
<path fill="none" stroke="midnightblue" d="M928.78,-119.41C935.19,-102.18 946.26,-75.97 960.57,-56 970.83,-41.67 986.04,-28.1 996.36,-19.68"/>
<polygon fill="midnightblue" stroke="midnightblue" points="925.47,-118.26 925.4,-128.85 932.06,-120.61 925.47,-118.26"/>
</g>
<!-- Node5&#45;&gt;Node7 -->
<g id="edge7" class="edge">
<title>Node5&#45;&gt;Node7</title>
<path fill="none" stroke="midnightblue" d="M948.82,-124.27C974.37,-111.4 1012.46,-92.21 1034.37,-81.17"/>
<polygon fill="midnightblue" stroke="midnightblue" points="947.06,-121.24 939.7,-128.87 950.21,-127.49 947.06,-121.24"/>
</g>
<!-- Node5&#45;&gt;Node9 -->
<g id="edge10" class="edge">
<title>Node5&#45;&gt;Node9</title>
<path fill="none" stroke="midnightblue" d="M865.06,-127.12C794.3,-114.34 675.51,-92.89 609.82,-81.03"/>
<polygon fill="midnightblue" stroke="midnightblue" points="864.67,-130.6 875.14,-128.94 865.92,-123.71 864.67,-130.6"/>
</g>
<!-- Node10 -->
<g id="node10" class="node">
<title>Node10</title>
<g id="a_node10"><a xlink:href="../../d0/dd6/vvstconverter_8cpp.html" target="_top" xlink:title=" ">
<polygon fill="white" stroke="black" points="701.57,-0.5 701.57,-19.5 879.57,-19.5 879.57,-0.5 701.57,-0.5"/>
<text text-anchor="middle" x="790.57" y="-7.5" font-family="Helvetica,sans-Serif" font-size="10.00">src/libs/ifc/xml/vvstconverter.cpp</text>
</a>
</g>
</g>
<!-- Node5&#45;&gt;Node10 -->
<g id="edge13" class="edge">
<title>Node5&#45;&gt;Node10</title>
<path fill="none" stroke="midnightblue" d="M917.93,-119.12C912.56,-101.06 902.11,-73.72 884.57,-56 867,-38.25 841.06,-26.56 820.88,-19.56"/>
<polygon fill="midnightblue" stroke="midnightblue" points="914.56,-120.05 920.59,-128.76 921.31,-118.19 914.56,-120.05"/>
</g>
<!-- Node7&#45;&gt;Node6 -->
<g id="edge8" class="edge">
<title>Node7&#45;&gt;Node6</title>
<path fill="none" stroke="midnightblue" d="M1039.25,-53.84C1030.99,-42.67 1020.46,-28.43 1013.86,-19.51"/>
<polygon fill="midnightblue" stroke="midnightblue" points="1036.51,-56.02 1045.27,-61.98 1042.13,-51.85 1036.51,-56.02"/>
</g>
<!-- Node8 -->
<g id="node8" class="node">
<title>Node8</title>
<g id="a_node8"><a xlink:href="../../de/db3/vmeasurements_8cpp.html" target="_top" xlink:title=" ">
<polygon fill="white" stroke="black" points="464.57,-0.5 464.57,-19.5 660.57,-19.5 660.57,-0.5 464.57,-0.5"/>
<text text-anchor="middle" x="562.57" y="-7.5" font-family="Helvetica,sans-Serif" font-size="10.00">src/libs/vformat/vmeasurements.cpp</text>
</a>
</g>
</g>
<!-- Node7&#45;&gt;Node8 -->
<g id="edge9" class="edge">
<title>Node7&#45;&gt;Node8</title>
<path fill="none" stroke="midnightblue" d="M971.45,-60.75C877.16,-49.28 722.13,-30.41 632.5,-19.51"/>
<polygon fill="midnightblue" stroke="midnightblue" points="971.16,-64.24 981.51,-61.98 972,-57.29 971.16,-64.24"/>
</g>
<!-- Node9&#45;&gt;Node8 -->
<g id="edge12" class="edge">
<title>Node9&#45;&gt;Node8</title>
<path fill="none" stroke="midnightblue" d="M562.57,-51.82C562.57,-41 562.57,-27.9 562.57,-19.51"/>
<polygon fill="midnightblue" stroke="midnightblue" points="559.07,-51.98 562.57,-61.98 566.07,-51.98 559.07,-51.98"/>
</g>
<!-- Node9&#45;&gt;Node10 -->
<g id="edge11" class="edge">
<title>Node9&#45;&gt;Node10</title>
<path fill="none" stroke="midnightblue" d="M605.12,-59.4C649.4,-47.84 717.78,-30 757.96,-19.51"/>
<polygon fill="midnightblue" stroke="midnightblue" points="604.03,-56.06 595.24,-61.98 605.8,-62.84 604.03,-56.06"/>
</g>
<!-- Node13 -->
<g id="node13" class="node">
<title>Node13</title>
<g id="a_node13"><a xlink:href="../../d7/d63/vlabeltemplateconverter_8cpp.html" target="_top" xlink:title=" ">
<polygon fill="white" stroke="black" points="230.07,-62 230.07,-81 461.07,-81 461.07,-62 230.07,-62"/>
<text text-anchor="middle" x="345.57" y="-69" font-family="Helvetica,sans-Serif" font-size="10.00">src/libs/ifc/xml/vlabeltemplateconverter.cpp</text>
</a>
</g>
</g>
<!-- Node12&#45;&gt;Node13 -->
<g id="edge16" class="edge">
<title>Node12&#45;&gt;Node13</title>
<path fill="none" stroke="midnightblue" d="M345.57,-118.54C345.57,-106.17 345.57,-90.62 345.57,-81.13"/>
<polygon fill="midnightblue" stroke="midnightblue" points="342.07,-118.73 345.57,-128.73 349.07,-118.73 342.07,-118.73"/>
</g>
<!-- Node14 -->
<g id="node14" class="node">
<title>Node14</title>
<g id="a_node14"><a xlink:href="../../d9/daf/vlabeltemplate_8cpp.html" target="_top" xlink:title=" ">
<polygon fill="white" stroke="black" points="21.07,-62 21.07,-81 212.07,-81 212.07,-62 21.07,-62"/>
<text text-anchor="middle" x="116.57" y="-69" font-family="Helvetica,sans-Serif" font-size="10.00">src/libs/vformat/vlabeltemplate.cpp</text>
</a>
</g>
</g>
<!-- Node12&#45;&gt;Node14 -->
<g id="edge17" class="edge">
<title>Node12&#45;&gt;Node14</title>
<path fill="none" stroke="midnightblue" d="M305.38,-126.09C260.07,-113.23 187.45,-92.62 146.74,-81.06"/>
<polygon fill="midnightblue" stroke="midnightblue" points="304.58,-129.5 315.16,-128.87 306.5,-122.77 304.58,-129.5"/>
</g>
<!-- Node16&#45;&gt;Node15 -->
<g id="edge21" class="edge">
<title>Node16&#45;&gt;Node15</title>
<path fill="none" stroke="midnightblue" d="M1221.32,-120.03C1229.06,-107.45 1239.18,-91.01 1245.26,-81.13"/>
<polygon fill="midnightblue" stroke="midnightblue" points="1218.22,-118.38 1215.96,-128.73 1224.19,-122.05 1218.22,-118.38"/>
</g>
<!-- Node16&#45;&gt;Node17 -->
<g id="edge20" class="edge">
<title>Node16&#45;&gt;Node17</title>
<path fill="none" stroke="midnightblue" d="M1253.76,-126.4C1303.69,-113.58 1384.8,-92.74 1430.16,-81.08"/>
<polygon fill="midnightblue" stroke="midnightblue" points="1252.72,-123.06 1243.91,-128.94 1254.46,-129.84 1252.72,-123.06"/>
</g>
<!-- Node18&#45;&gt;Node17 -->
<g id="edge27" class="edge">
<title>Node18&#45;&gt;Node17</title>
<path fill="none" stroke="midnightblue" d="M2022.2,-188.35C1903.58,-163.75 1612.55,-103.39 1504.67,-81.02"/>
<polygon fill="midnightblue" stroke="midnightblue" points="2021.62,-191.8 2032.12,-190.4 2023.04,-184.95 2021.62,-191.8"/>
</g>
<!-- Node19 -->
<g id="node19" class="node">
<title>Node19</title>
<g id="a_node19"><a xlink:href="../../d6/de0/vlayoutpiece_8h.html" target="_top" xlink:title=" ">
<polygon fill="white" stroke="black" points="1894.57,-129 1894.57,-148 2060.57,-148 2060.57,-129 1894.57,-129"/>
<text text-anchor="middle" x="1977.57" y="-136" font-family="Helvetica,sans-Serif" font-size="10.00">src/libs/vlayout/vlayoutpiece.h</text>
</a>
</g>
</g>
<!-- Node18&#45;&gt;Node19 -->
<g id="edge28" class="edge">
<title>Node18&#45;&gt;Node19</title>
<path fill="none" stroke="midnightblue" d="M2051.12,-185.09C2032.6,-173.6 2006.9,-157.68 1991.3,-148.01"/>
<polygon fill="midnightblue" stroke="midnightblue" points="2049.47,-188.18 2059.82,-190.48 2053.16,-182.23 2049.47,-188.18"/>
</g>
<!-- Node29 -->
<g id="node29" class="node">
<title>Node29</title>
<g id="a_node29"><a xlink:href="../../d8/d70/vtextmanager_8cpp.html" target="_top" xlink:title=" ">
<polygon fill="white" stroke="black" points="2078.57,-129 2078.57,-148 2260.57,-148 2260.57,-129 2078.57,-129"/>
<text text-anchor="middle" x="2169.57" y="-136" font-family="Helvetica,sans-Serif" font-size="10.00">src/libs/vlayout/vtextmanager.cpp</text>
</a>
</g>
</g>
<!-- Node18&#45;&gt;Node29 -->
<g id="edge40" class="edge">
<title>Node18&#45;&gt;Node29</title>
<path fill="none" stroke="midnightblue" d="M2096.02,-185.09C2114.54,-173.6 2140.24,-157.68 2155.84,-148.01"/>
<polygon fill="midnightblue" stroke="midnightblue" points="2093.98,-182.23 2087.32,-190.48 2097.67,-188.18 2093.98,-182.23"/>
</g>
<!-- Node30 -->
<g id="node30" class="node">
<title>Node30</title>
<g id="a_node30"><a xlink:href="../../d0/da5/export__format__combobox_8h.html" target="_top" xlink:title=" ">
<polygon fill="white" stroke="black" points="2279.07,-123.5 2279.07,-153.5 2412.07,-153.5 2412.07,-123.5 2279.07,-123.5"/>
<text text-anchor="start" x="2287.07" y="-141.5" font-family="Helvetica,sans-Serif" font-size="10.00">src/libs/vwidgets/export</text>
<text text-anchor="middle" x="2345.57" y="-130.5" font-family="Helvetica,sans-Serif" font-size="10.00">_format_combobox.h</text>
</a>
</g>
</g>
<!-- Node18&#45;&gt;Node30 -->
<g id="edge41" class="edge">
<title>Node18&#45;&gt;Node30</title>
<path fill="none" stroke="midnightblue" d="M2122.52,-188.29C2166.97,-178.57 2232.83,-164.16 2281.46,-153.52"/>
<polygon fill="midnightblue" stroke="midnightblue" points="2121.56,-184.92 2112.54,-190.48 2123.06,-191.76 2121.56,-184.92"/>
</g>
<!-- Node32 -->
<g id="node32" class="node">
<title>Node32</title>
<g id="a_node32"><a xlink:href="../../d7/df4/group__tablewidgetitem_8cpp.html" target="_top" xlink:title=" ">
<polygon fill="white" stroke="black" points="2430.07,-123.5 2430.07,-153.5 2559.07,-153.5 2559.07,-123.5 2430.07,-123.5"/>
<text text-anchor="start" x="2438.07" y="-141.5" font-family="Helvetica,sans-Serif" font-size="10.00">src/libs/vwidgets/group</text>
<text text-anchor="middle" x="2494.57" y="-130.5" font-family="Helvetica,sans-Serif" font-size="10.00">_tablewidgetitem.cpp</text>
</a>
</g>
</g>
<!-- Node18&#45;&gt;Node32 -->
<g id="edge43" class="edge">
<title>Node18&#45;&gt;Node32</title>
<path fill="none" stroke="midnightblue" d="M2161.36,-189.31C2231.87,-181.13 2333.33,-168.45 2421.57,-154 2424.25,-153.56 2426.98,-153.1 2429.73,-152.61"/>
<polygon fill="midnightblue" stroke="midnightblue" points="2160.72,-185.86 2151.19,-190.48 2161.53,-192.81 2160.72,-185.86"/>
</g>
<!-- Node33 -->
<g id="node33" class="node">
<title>Node33</title>
<g id="a_node33"><a xlink:href="../../de/d22/vsimplecurve_8cpp.html" target="_top" xlink:title=" ">
<polygon fill="white" stroke="black" points="2577.57,-129 2577.57,-148 2765.57,-148 2765.57,-129 2577.57,-129"/>
<text text-anchor="middle" x="2671.57" y="-136" font-family="Helvetica,sans-Serif" font-size="10.00">src/libs/vwidgets/vsimplecurve.cpp</text>
</a>
</g>
</g>
<!-- Node18&#45;&gt;Node33 -->
<g id="edge44" class="edge">
<title>Node18&#45;&gt;Node33</title>
<path fill="none" stroke="midnightblue" d="M2174.14,-189.92C2316.02,-177.1 2558.88,-155.12 2568.57,-154 2583.55,-152.27 2599.71,-150.12 2614.7,-148.02"/>
<polygon fill="midnightblue" stroke="midnightblue" points="2173.75,-186.44 2164.1,-190.83 2174.38,-193.41 2173.75,-186.44"/>
</g>
<!-- Node20 -->
<g id="node20" class="node">
<title>Node20</title>
<g id="a_node20"><a xlink:href="../../dd/d66/vdxfengine_8cpp.html" target="_top" xlink:title=" ">
<polygon fill="white" stroke="black" points="2175.57,-62 2175.57,-81 2329.57,-81 2329.57,-62 2175.57,-62"/>
<text text-anchor="middle" x="2252.57" y="-69" font-family="Helvetica,sans-Serif" font-size="10.00">src/libs/vdxf/vdxfengine.cpp</text>
</a>
</g>
</g>
<!-- Node19&#45;&gt;Node20 -->
<g id="edge29" class="edge">
<title>Node19&#45;&gt;Node20</title>
<path fill="none" stroke="midnightblue" d="M2023.84,-126.56C2078.05,-113.75 2166.75,-92.78 2216.26,-81.08"/>
<polygon fill="midnightblue" stroke="midnightblue" points="2022.73,-123.23 2013.8,-128.94 2024.34,-130.04 2022.73,-123.23"/>
</g>
<!-- Node21 -->
<g id="node21" class="node">
<title>Node21</title>
<g id="a_node21"><a xlink:href="../../de/da8/vbank_8cpp.html" target="_top" xlink:title=" ">
<polygon fill="white" stroke="black" points="2347.57,-62 2347.57,-81 2491.57,-81 2491.57,-62 2347.57,-62"/>
<text text-anchor="middle" x="2419.57" y="-69" font-family="Helvetica,sans-Serif" font-size="10.00">src/libs/vlayout/vbank.cpp</text>
</a>
</g>
</g>
<!-- Node19&#45;&gt;Node21 -->
<g id="edge30" class="edge">
<title>Node19&#45;&gt;Node21</title>
<path fill="none" stroke="midnightblue" d="M2040.57,-127.37C2050.28,-125.87 2060.19,-124.37 2069.57,-123 2188.93,-105.61 2219.4,-105.63 2338.57,-87 2350,-85.21 2362.31,-83.1 2373.79,-81.06"/>
<polygon fill="midnightblue" stroke="midnightblue" points="2039.91,-123.93 2030.57,-128.93 2040.99,-130.85 2039.91,-123.93"/>
</g>
<!-- Node22 -->
<g id="node22" class="node">
<title>Node22</title>
<g id="a_node22"><a xlink:href="../../df/d5d/vcontour_8cpp.html" target="_top" xlink:title=" ">
<polygon fill="white" stroke="black" points="2509.57,-62 2509.57,-81 2665.57,-81 2665.57,-62 2509.57,-62"/>
<text text-anchor="middle" x="2587.57" y="-69" font-family="Helvetica,sans-Serif" font-size="10.00">src/libs/vlayout/vcontour.cpp</text>
</a>
</g>
</g>
<!-- Node19&#45;&gt;Node22 -->
<g id="edge31" class="edge">
<title>Node19&#45;&gt;Node22</title>
<path fill="none" stroke="midnightblue" d="M2037.65,-127.38C2048.27,-125.78 2059.23,-124.25 2069.57,-123 2260.41,-100.02 2309.83,-110.82 2500.57,-87 2513.64,-85.37 2527.74,-83.2 2540.72,-81.03"/>
<polygon fill="midnightblue" stroke="midnightblue" points="2036.96,-123.95 2027.61,-128.93 2038.03,-130.87 2036.96,-123.95"/>
</g>
<!-- Node23 -->
<g id="node23" class="node">
<title>Node23</title>
<g id="a_node23"><a xlink:href="../../d3/d39/vlayoutgenerator_8cpp.html" target="_top" xlink:title=" ">
<polygon fill="white" stroke="black" points="2684.07,-62 2684.07,-81 2881.07,-81 2881.07,-62 2684.07,-62"/>
<text text-anchor="middle" x="2782.57" y="-69" font-family="Helvetica,sans-Serif" font-size="10.00">src/libs/vlayout/vlayoutgenerator.cpp</text>
</a>
</g>
</g>
<!-- Node19&#45;&gt;Node23 -->
<g id="edge32" class="edge">
<title>Node19&#45;&gt;Node23</title>
<path fill="none" stroke="midnightblue" d="M2036.17,-127.39C2047.24,-125.73 2058.74,-124.17 2069.57,-123 2337.37,-94 2406.46,-112.94 2674.57,-87 2691.05,-85.41 2708.88,-83.21 2725.21,-81"/>
<polygon fill="midnightblue" stroke="midnightblue" points="2035.5,-123.96 2026.15,-128.94 2036.57,-130.87 2035.5,-123.96"/>
</g>
<!-- Node24 -->
<g id="node24" class="node">
<title>Node24</title>
<g id="a_node24"><a xlink:href="../../d2/d2d/vlayoutpaper__p_8h.html" target="_top" xlink:title=" ">
<polygon fill="white" stroke="black" points="1616.07,-62 1616.07,-81 1795.07,-81 1795.07,-62 1616.07,-62"/>
<text text-anchor="middle" x="1705.57" y="-69" font-family="Helvetica,sans-Serif" font-size="10.00">src/libs/vlayout/vlayoutpaper_p.h</text>
</a>
</g>
</g>
<!-- Node19&#45;&gt;Node24 -->
<g id="edge33" class="edge">
<title>Node19&#45;&gt;Node24</title>
<path fill="none" stroke="midnightblue" d="M1931.81,-126.56C1878.18,-113.75 1790.45,-92.78 1741.49,-81.08"/>
<polygon fill="midnightblue" stroke="midnightblue" points="1931.19,-130.02 1941.73,-128.94 1932.82,-123.21 1931.19,-130.02"/>
</g>
<!-- Node25 -->
<g id="node25" class="node">
<title>Node25</title>
<g id="a_node25"><a xlink:href="../../d1/dd1/vlayoutpaper_8cpp.html" target="_top" xlink:title=" ">
<polygon fill="white" stroke="black" points="1614.57,-0.5 1614.57,-19.5 1792.57,-19.5 1792.57,-0.5 1614.57,-0.5"/>
<text text-anchor="middle" x="1703.57" y="-7.5" font-family="Helvetica,sans-Serif" font-size="10.00">src/libs/vlayout/vlayoutpaper.cpp</text>
</a>
</g>
</g>
<!-- Node19&#45;&gt;Node25 -->
<g id="edge35" class="edge">
<title>Node19&#45;&gt;Node25</title>
<path fill="none" stroke="midnightblue" d="M1883.98,-131.06C1780.39,-122.97 1625.54,-107.59 1607.57,-87 1598.51,-76.62 1600.18,-67.63 1607.57,-56 1619.62,-37.05 1641.98,-25.94 1662.1,-19.5"/>
<polygon fill="midnightblue" stroke="midnightblue" points="1883.92,-134.57 1894.16,-131.85 1884.45,-127.59 1883.92,-134.57"/>
</g>
<!-- Node26 -->
<g id="node26" class="node">
<title>Node26</title>
<g id="a_node26"><a xlink:href="../../dd/d70/vlayoutpiece_8cpp.html" target="_top" xlink:title=" ">
<polygon fill="white" stroke="black" points="1980.07,-62 1980.07,-81 2157.07,-81 2157.07,-62 1980.07,-62"/>
<text text-anchor="middle" x="2068.57" y="-69" font-family="Helvetica,sans-Serif" font-size="10.00">src/libs/vlayout/vlayoutpiece.cpp</text>
</a>
</g>
</g>
<!-- Node19&#45;&gt;Node26 -->
<g id="edge36" class="edge">
<title>Node19&#45;&gt;Node26</title>
<path fill="none" stroke="midnightblue" d="M1997.98,-122.92C2015.97,-110.07 2041.57,-91.78 2056.49,-81.13"/>
<polygon fill="midnightblue" stroke="midnightblue" points="1995.95,-120.07 1989.84,-128.73 2000.01,-125.77 1995.95,-120.07"/>
</g>
<!-- Node27 -->
<g id="node27" class="node">
<title>Node27</title>
<g id="a_node27"><a xlink:href="../../db/d5c/vposition_8h.html" target="_top" xlink:title=" ">
<polygon fill="white" stroke="black" points="1813.57,-62 1813.57,-81 1961.57,-81 1961.57,-62 1813.57,-62"/>
<text text-anchor="middle" x="1887.57" y="-69" font-family="Helvetica,sans-Serif" font-size="10.00">src/libs/vlayout/vposition.h</text>
</a>
</g>
</g>
<!-- Node19&#45;&gt;Node27 -->
<g id="edge37" class="edge">
<title>Node19&#45;&gt;Node27</title>
<path fill="none" stroke="midnightblue" d="M1956.89,-122.57C1939.13,-109.74 1914.13,-91.69 1899.52,-81.13"/>
<polygon fill="midnightblue" stroke="midnightblue" points="1955.28,-125.72 1965.43,-128.73 1959.37,-120.04 1955.28,-125.72"/>
</g>
<!-- Node24&#45;&gt;Node25 -->
<g id="edge34" class="edge">
<title>Node24&#45;&gt;Node25</title>
<path fill="none" stroke="midnightblue" d="M1704.94,-51.82C1704.58,-41 1704.14,-27.9 1703.86,-19.51"/>
<polygon fill="midnightblue" stroke="midnightblue" points="1701.45,-52.1 1705.28,-61.98 1708.45,-51.86 1701.45,-52.1"/>
</g>
<!-- Node27&#45;&gt;Node25 -->
<g id="edge38" class="edge">
<title>Node27&#45;&gt;Node25</title>
<path fill="none" stroke="midnightblue" d="M1851.64,-58.88C1815.87,-47.32 1761.83,-29.84 1729.88,-19.51"/>
<polygon fill="midnightblue" stroke="midnightblue" points="1850.62,-62.23 1861.21,-61.98 1852.77,-55.57 1850.62,-62.23"/>
</g>
<!-- Node28 -->
<g id="node28" class="node">
<title>Node28</title>
<g id="a_node28"><a xlink:href="../../df/d76/vposition_8cpp.html" target="_top" xlink:title=" ">
<polygon fill="white" stroke="black" points="1810.07,-0.5 1810.07,-19.5 1969.07,-19.5 1969.07,-0.5 1810.07,-0.5"/>
<text text-anchor="middle" x="1889.57" y="-7.5" font-family="Helvetica,sans-Serif" font-size="10.00">src/libs/vlayout/vposition.cpp</text>
</a>
</g>
</g>
<!-- Node27&#45;&gt;Node28 -->
<g id="edge39" class="edge">
<title>Node27&#45;&gt;Node28</title>
<path fill="none" stroke="midnightblue" d="M1888.2,-51.82C1888.56,-41 1889,-27.9 1889.28,-19.51"/>
<polygon fill="midnightblue" stroke="midnightblue" points="1884.69,-51.86 1887.86,-61.98 1891.69,-52.1 1884.69,-51.86"/>
</g>
<!-- Node31 -->
<g id="node31" class="node">
<title>Node31</title>
<g id="a_node31"><a xlink:href="../../df/d40/export__format__combobox_8cpp.html" target="_top" xlink:title=" ">
<polygon fill="white" stroke="black" points="2899.07,-56.5 2899.07,-86.5 3032.07,-86.5 3032.07,-56.5 2899.07,-56.5"/>
<text text-anchor="start" x="2907.07" y="-74.5" font-family="Helvetica,sans-Serif" font-size="10.00">src/libs/vwidgets/export</text>
<text text-anchor="middle" x="2965.57" y="-63.5" font-family="Helvetica,sans-Serif" font-size="10.00">_format_combobox.cpp</text>
</a>
</g>
</g>
<!-- Node30&#45;&gt;Node31 -->
<g id="edge42" class="edge">
<title>Node30&#45;&gt;Node31</title>
<path fill="none" stroke="midnightblue" d="M2422.26,-123.02C2630.54,-95.97 2686.62,-114.45 2890.57,-87 2893.33,-86.63 2896.14,-86.22 2898.98,-85.78"/>
<polygon fill="midnightblue" stroke="midnightblue" points="2421.69,-119.57 2412.23,-124.34 2422.6,-126.51 2421.69,-119.57"/>
</g>
<!-- Node35&#45;&gt;Node14 -->
<g id="edge47" class="edge">
<title>Node35&#45;&gt;Node14</title>
<path fill="none" stroke="midnightblue" d="M520.64,-193.49C421.91,-187 278.35,-174.42 226.57,-154 183.23,-136.91 141.78,-98.21 124.72,-81.02"/>
<polygon fill="midnightblue" stroke="midnightblue" points="520.45,-196.99 530.65,-194.14 520.9,-190 520.45,-196.99"/>
</g>
<!-- Node36&#45;&gt;Node8 -->
<g id="edge49" class="edge">
<title>Node36&#45;&gt;Node8</title>
<path fill="none" stroke="midnightblue" d="M72.82,-184.1C38.4,-156.42 -25.51,-96.23 11.57,-56 41.55,-23.47 314.16,-14.45 464.35,-11.96"/>
<polygon fill="midnightblue" stroke="midnightblue" points="70.82,-186.99 80.85,-190.41 75.15,-181.48 70.82,-186.99"/>
</g>
</g>
</svg>
