<?xml version="1.0" encoding="UTF-8" standalone="no"?>
<!DOCTYPE svg PUBLIC "-//W3C//DTD SVG 1.1//EN"
 "http://www.w3.org/Graphics/SVG/1.1/DTD/svg11.dtd">
<!-- Generated by graphviz version 2.43.0 (0)
 -->
<!-- Title: src/app/seamlyme/mapplication.h Pages: 1 -->
<svg width="1886pt" height="95pt"
 viewBox="0.00 0.00 1886.00 95.00" xmlns="http://www.w3.org/2000/svg" xmlns:xlink="http://www.w3.org/1999/xlink">
<g id="graph0" class="graph" transform="scale(1 1) rotate(0) translate(4 91)">
<title>src/app/seamlyme/mapplication.h</title>
<polygon fill="white" stroke="transparent" points="-4,4 -4,-91 1882,-91 1882,4 -4,4"/>
<!-- Node1 -->
<g id="node1" class="node">
<title>Node1</title>
<g id="a_node1"><a xlink:title=" ">
<polygon fill="#bfbfbf" stroke="black" points="953.5,-67.5 953.5,-86.5 1135.5,-86.5 1135.5,-67.5 953.5,-67.5"/>
<text text-anchor="middle" x="1044.5" y="-74.5" font-family="Helvetica,sans-Serif" font-size="10.00">src/app/seamlyme/mapplication.h</text>
</a>
</g>
</g>
<!-- Node2 -->
<g id="node2" class="node">
<title>Node2</title>
<g id="a_node2"><a xlink:href="../../d9/d23/seamlymepreferencesconfigurationpage_8cpp.html" target="_top" xlink:title=" ">
<polygon fill="white" stroke="black" points="0,-0.5 0,-30.5 299,-30.5 299,-0.5 0,-0.5"/>
<text text-anchor="start" x="8" y="-18.5" font-family="Helvetica,sans-Serif" font-size="10.00">src/app/seamlyme/dialogs</text>
<text text-anchor="middle" x="149.5" y="-7.5" font-family="Helvetica,sans-Serif" font-size="10.00">/configpages/seamlymepreferencesconfigurationpage.cpp</text>
</a>
</g>
</g>
<!-- Node1&#45;&gt;Node2 -->
<g id="edge1" class="edge">
<title>Node1&#45;&gt;Node2</title>
<path fill="none" stroke="midnightblue" d="M943.37,-70.8C801.29,-63.28 534.52,-48.34 307.5,-31 304.75,-30.79 301.98,-30.57 299.19,-30.35"/>
<polygon fill="midnightblue" stroke="midnightblue" points="943.21,-74.3 953.38,-71.33 943.58,-67.31 943.21,-74.3"/>
</g>
<!-- Node3 -->
<g id="node3" class="node">
<title>Node3</title>
<g id="a_node3"><a xlink:href="../../d8/dcc/seamlymepreferencespathpage_8cpp.html" target="_top" xlink:title=" ">
<polygon fill="white" stroke="black" points="317,-0.5 317,-30.5 574,-30.5 574,-0.5 317,-0.5"/>
<text text-anchor="start" x="325" y="-18.5" font-family="Helvetica,sans-Serif" font-size="10.00">src/app/seamlyme/dialogs</text>
<text text-anchor="middle" x="445.5" y="-7.5" font-family="Helvetica,sans-Serif" font-size="10.00">/configpages/seamlymepreferencespathpage.cpp</text>
</a>
</g>
</g>
<!-- Node1&#45;&gt;Node3 -->
<g id="edge2" class="edge">
<title>Node1&#45;&gt;Node3</title>
<path fill="none" stroke="midnightblue" d="M945.24,-66.52C851.87,-57.56 708.17,-43.63 583.5,-31 580.38,-30.68 577.23,-30.36 574.05,-30.04"/>
<polygon fill="midnightblue" stroke="midnightblue" points="944.95,-70.01 955.24,-67.48 945.62,-63.04 944.95,-70.01"/>
</g>
<!-- Node4 -->
<g id="node4" class="node">
<title>Node4</title>
<g id="a_node4"><a xlink:href="../../de/d0a/dialognewmeasurements_8cpp.html" target="_top" xlink:title=" ">
<polygon fill="white" stroke="black" points="592.5,-0.5 592.5,-30.5 756.5,-30.5 756.5,-0.5 592.5,-0.5"/>
<text text-anchor="start" x="600.5" y="-18.5" font-family="Helvetica,sans-Serif" font-size="10.00">src/app/seamlyme/dialogs</text>
<text text-anchor="middle" x="674.5" y="-7.5" font-family="Helvetica,sans-Serif" font-size="10.00">/dialognewmeasurements.cpp</text>
</a>
</g>
</g>
<!-- Node1&#45;&gt;Node4 -->
<g id="edge3" class="edge">
<title>Node1&#45;&gt;Node4</title>
<path fill="none" stroke="midnightblue" d="M981.46,-65.86C919.5,-55.9 824.62,-40.64 756.75,-29.73"/>
<polygon fill="midnightblue" stroke="midnightblue" points="981.06,-69.34 991.49,-67.48 982.17,-62.43 981.06,-69.34"/>
</g>
<!-- Node5 -->
<g id="node5" class="node">
<title>Node5</title>
<g id="a_node5"><a xlink:href="../../dd/db1/dialogseamlymepreferences_8cpp.html" target="_top" xlink:title=" ">
<polygon fill="white" stroke="black" points="775,-0.5 775,-30.5 954,-30.5 954,-0.5 775,-0.5"/>
<text text-anchor="start" x="783" y="-18.5" font-family="Helvetica,sans-Serif" font-size="10.00">src/app/seamlyme/dialogs</text>
<text text-anchor="middle" x="864.5" y="-7.5" font-family="Helvetica,sans-Serif" font-size="10.00">/dialogseamlymepreferences.cpp</text>
</a>
</g>
</g>
<!-- Node1&#45;&gt;Node5 -->
<g id="edge4" class="edge">
<title>Node1&#45;&gt;Node5</title>
<path fill="none" stroke="midnightblue" d="M1008.89,-64.23C979.58,-54.54 937.96,-40.78 906.92,-30.52"/>
<polygon fill="midnightblue" stroke="midnightblue" points="1008.12,-67.66 1018.71,-67.48 1010.31,-61.01 1008.12,-67.66"/>
</g>
<!-- Node6 -->
<g id="node6" class="node">
<title>Node6</title>
<g id="a_node6"><a xlink:href="../../d1/d42/dialogmdatabase_8cpp.html" target="_top" xlink:title=" ">
<polygon fill="white" stroke="black" points="972,-0.5 972,-30.5 1117,-30.5 1117,-0.5 972,-0.5"/>
<text text-anchor="start" x="980" y="-18.5" font-family="Helvetica,sans-Serif" font-size="10.00">src/app/seamlyme/dialogs</text>
<text text-anchor="middle" x="1044.5" y="-7.5" font-family="Helvetica,sans-Serif" font-size="10.00">/dialogmdatabase.cpp</text>
</a>
</g>
</g>
<!-- Node1&#45;&gt;Node6 -->
<g id="edge5" class="edge">
<title>Node1&#45;&gt;Node6</title>
<path fill="none" stroke="midnightblue" d="M1044.5,-57.23C1044.5,-48.59 1044.5,-38.5 1044.5,-30.52"/>
<polygon fill="midnightblue" stroke="midnightblue" points="1041,-57.48 1044.5,-67.48 1048,-57.48 1041,-57.48"/>
</g>
<!-- Node7 -->
<g id="node7" class="node">
<title>Node7</title>
<g id="a_node7"><a xlink:href="../../d6/d8e/me__shortcuts__dialog_8cpp.html" target="_top" xlink:title=" ">
<polygon fill="white" stroke="black" points="1135,-0.5 1135,-30.5 1280,-30.5 1280,-0.5 1135,-0.5"/>
<text text-anchor="start" x="1143" y="-18.5" font-family="Helvetica,sans-Serif" font-size="10.00">src/app/seamlyme/dialogs</text>
<text text-anchor="middle" x="1207.5" y="-7.5" font-family="Helvetica,sans-Serif" font-size="10.00">/me_shortcuts_dialog.cpp</text>
</a>
</g>
</g>
<!-- Node1&#45;&gt;Node7 -->
<g id="edge6" class="edge">
<title>Node1&#45;&gt;Node7</title>
<path fill="none" stroke="midnightblue" d="M1077.44,-63.98C1103.94,-54.3 1141.23,-40.69 1169.08,-30.52"/>
<polygon fill="midnightblue" stroke="midnightblue" points="1076.05,-60.76 1067.85,-67.48 1078.45,-67.33 1076.05,-60.76"/>
</g>
<!-- Node8 -->
<g id="node8" class="node">
<title>Node8</title>
<g id="a_node8"><a xlink:href="../../db/de0/app_2seamlyme_2main_8cpp.html" target="_top" xlink:title=" ">
<polygon fill="white" stroke="black" points="1298,-6 1298,-25 1453,-25 1453,-6 1298,-6"/>
<text text-anchor="middle" x="1375.5" y="-13" font-family="Helvetica,sans-Serif" font-size="10.00">src/app/seamlyme/main.cpp</text>
</a>
</g>
</g>
<!-- Node1&#45;&gt;Node8 -->
<g id="edge7" class="edge">
<title>Node1&#45;&gt;Node8</title>
<path fill="none" stroke="midnightblue" d="M1101.87,-65.69C1165.94,-54.17 1268.48,-35.74 1328.16,-25.01"/>
<polygon fill="midnightblue" stroke="midnightblue" points="1101.15,-62.26 1091.92,-67.48 1102.39,-69.15 1101.15,-62.26"/>
</g>
<!-- Node9 -->
<g id="node9" class="node">
<title>Node9</title>
<g id="a_node9"><a xlink:href="../../da/dfb/mapplication_8cpp.html" target="_top" xlink:title=" ">
<polygon fill="white" stroke="black" points="1471.5,-6 1471.5,-25 1665.5,-25 1665.5,-6 1471.5,-6"/>
<text text-anchor="middle" x="1568.5" y="-13" font-family="Helvetica,sans-Serif" font-size="10.00">src/app/seamlyme/mapplication.cpp</text>
</a>
</g>
</g>
<!-- Node1&#45;&gt;Node9 -->
<g id="edge8" class="edge">
<title>Node1&#45;&gt;Node9</title>
<path fill="none" stroke="midnightblue" d="M1140.37,-66.47C1225.15,-57.85 1352.15,-44.48 1462.5,-31 1477.43,-29.18 1493.53,-27.05 1508.56,-25.01"/>
<polygon fill="midnightblue" stroke="midnightblue" points="1139.84,-63 1130.24,-67.5 1140.54,-69.97 1139.84,-63"/>
</g>
<!-- Node10 -->
<g id="node10" class="node">
<title>Node10</title>
<g id="a_node10"><a xlink:href="../../dc/de1/tmainwindow_8cpp.html" target="_top" xlink:title=" ">
<polygon fill="white" stroke="black" points="1683,-6 1683,-25 1878,-25 1878,-6 1683,-6"/>
<text text-anchor="middle" x="1780.5" y="-13" font-family="Helvetica,sans-Serif" font-size="10.00">src/app/seamlyme/tmainwindow.cpp</text>
</a>
</g>
</g>
<!-- Node1&#45;&gt;Node10 -->
<g id="edge9" class="edge">
<title>Node1&#45;&gt;Node10</title>
<path fill="none" stroke="midnightblue" d="M1145.98,-70.78C1270.63,-63.89 1488.46,-50.35 1674.5,-31 1690.39,-29.35 1707.56,-27.17 1723.37,-25"/>
<polygon fill="midnightblue" stroke="midnightblue" points="1145.48,-67.3 1135.69,-71.34 1145.87,-74.29 1145.48,-67.3"/>
</g>
</g>
</svg>
