<?xml version="1.0" encoding="UTF-8" standalone="no"?>
<!DOCTYPE svg PUBLIC "-//W3C//DTD SVG 1.1//EN"
 "http://www.w3.org/Graphics/SVG/1.1/DTD/svg11.dtd">
<!-- Generated by graphviz version 2.43.0 (0)
 -->
<!-- Title: src/libs/vtools/tools/drawTools/toolpoint/toolsinglepoint/toollinepoint/vtoollinepoint.h Pages: 1 -->
<!--zoomable 306 -->
<svg id="main" version="1.1" xmlns="http://www.w3.org/2000/svg" xmlns:xlink="http://www.w3.org/1999/xlink" xml:space="preserve" onload="init(evt)">
<style type="text/css"><![CDATA[
.edge:hover path { stroke: red; }
.edge:hover polygon { stroke: red; fill: red; }
]]></style>
<script type="text/javascript"><![CDATA[
var edges = document.getElementsByTagName('g');
if (edges && edges.length) {
  for (var i=0;i<edges.length;i++) {
    if (edges[i].id.substr(0,4)=='edge') {
      edges[i].setAttribute('class','edge');
    }
  }
}
]]></script>
        <defs>
                <circle id="rim" cx="0" cy="0" r="7"/>
                <circle id="rim2" cx="0" cy="0" r="3.5"/>
                <g id="zoomPlus">
                        <use xlink:href="#rim" fill="#404040">
                                <set attributeName="fill" to="#808080" begin="zoomplus.mouseover" end="zoomplus.mouseout"/>
                        </use>
                        <path d="M-4,0h8M0,-4v8" fill="none" stroke="white" stroke-width="1.5" pointer-events="none"/>
                </g>
                <g id="zoomMin">
                        <use xlink:href="#rim" fill="#404040">
                                <set attributeName="fill" to="#808080" begin="zoomminus.mouseover" end="zoomminus.mouseout"/>
                        </use>
                        <path d="M-4,0h8" fill="none" stroke="white" stroke-width="1.5" pointer-events="none"/>
                </g>
                <g id="dirArrow">
                        <path fill="none" stroke="white" stroke-width="1.5" d="M0,-3.0v7 M-2.5,-0.5L0,-3.0L2.5,-0.5"/>
                </g>
               <g id="resetDef">
                       <use xlink:href="#rim2" fill="#404040">
                               <set attributeName="fill" to="#808080" begin="reset.mouseover" end="reset.mouseout"/>
                       </use>
               </g>
        </defs>

<script type="text/javascript">
var viewWidth = 2612;
var viewHeight = 306;
var sectionId = 'dynsection-1';
</script>
<script xlink:href="../../svgpan.js"/>
<svg id="graph" class="graph">
<g id="viewport">
<title>src/libs/vtools/tools/drawTools/toolpoint/toolsinglepoint/toollinepoint/vtoollinepoint.h</title>
<polygon fill="white" stroke="transparent" points="-4,4 -4,-302 2608,-302 2608,4 -4,4"/>
<!-- Node1 -->
<g id="node1" class="node">
<title>Node1</title>
<g id="a_node1"><a xlink:title=" ">
<polygon fill="#bfbfbf" stroke="black" points="1227,-245.5 1227,-297.5 1384,-297.5 1384,-245.5 1227,-245.5"/>
<text text-anchor="start" x="1235" y="-285.5" font-family="Helvetica,sans-Serif" font-size="10.00">src/libs/vtools/tools</text>
<text text-anchor="start" x="1235" y="-274.5" font-family="Helvetica,sans-Serif" font-size="10.00">/drawTools/toolpoint</text>
<text text-anchor="start" x="1235" y="-263.5" font-family="Helvetica,sans-Serif" font-size="10.00">/toolsinglepoint/toollinepoint</text>
<text text-anchor="middle" x="1305.5" y="-252.5" font-family="Helvetica,sans-Serif" font-size="10.00">/vtoollinepoint.h</text>
</a>
</g>
</g>
<!-- Node2 -->
<g id="node2" class="node">
<title>Node2</title>
<g id="a_node2"><a xlink:href="../../d5/d9f/vtoolalongline_8h.html" target="_top" xlink:title=" ">
<polygon fill="white" stroke="black" points="624,-156.5 624,-208.5 781,-208.5 781,-156.5 624,-156.5"/>
<text text-anchor="start" x="632" y="-196.5" font-family="Helvetica,sans-Serif" font-size="10.00">src/libs/vtools/tools</text>
<text text-anchor="start" x="632" y="-185.5" font-family="Helvetica,sans-Serif" font-size="10.00">/drawTools/toolpoint</text>
<text text-anchor="start" x="632" y="-174.5" font-family="Helvetica,sans-Serif" font-size="10.00">/toolsinglepoint/toollinepoint</text>
<text text-anchor="middle" x="702.5" y="-163.5" font-family="Helvetica,sans-Serif" font-size="10.00">/vtoolalongline.h</text>
</a>
</g>
</g>
<!-- Node1&#45;&gt;Node2 -->
<g id="edge1" class="edge">
<title>Node1&#45;&gt;Node2</title>
<path fill="none" stroke="midnightblue" d="M1216.76,-263.8C1114.53,-255.15 941.81,-237.72 795.5,-209 790.82,-208.08 786.03,-207.05 781.21,-205.94"/>
<polygon fill="midnightblue" stroke="midnightblue" points="1216.48,-267.29 1226.74,-264.63 1217.07,-260.31 1216.48,-267.29"/>
</g>
<!-- Node5 -->
<g id="node5" class="node">
<title>Node5</title>
<g id="a_node5"><a xlink:href="../../d8/d68/vtoolalongline_8cpp.html" target="_top" xlink:title=" ">
<polygon fill="white" stroke="black" points="342,-67.5 342,-119.5 499,-119.5 499,-67.5 342,-67.5"/>
<text text-anchor="start" x="350" y="-107.5" font-family="Helvetica,sans-Serif" font-size="10.00">src/libs/vtools/tools</text>
<text text-anchor="start" x="350" y="-96.5" font-family="Helvetica,sans-Serif" font-size="10.00">/drawTools/toolpoint</text>
<text text-anchor="start" x="350" y="-85.5" font-family="Helvetica,sans-Serif" font-size="10.00">/toolsinglepoint/toollinepoint</text>
<text text-anchor="middle" x="420.5" y="-74.5" font-family="Helvetica,sans-Serif" font-size="10.00">/vtoolalongline.cpp</text>
</a>
</g>
</g>
<!-- Node1&#45;&gt;Node5 -->
<g id="edge5" class="edge">
<title>Node1&#45;&gt;Node5</title>
<path fill="none" stroke="midnightblue" d="M1216.41,-267.46C1055.79,-261.16 724.17,-244.25 614.5,-209 552.69,-189.13 489.47,-146.89 452.66,-119.64"/>
<polygon fill="midnightblue" stroke="midnightblue" points="1216.61,-270.97 1226.74,-267.85 1216.88,-263.97 1216.61,-270.97"/>
</g>
<!-- Node6 -->
<g id="node6" class="node">
<title>Node6</title>
<g id="a_node6"><a xlink:href="../../d9/d45/vtoolbisector_8h.html" target="_top" xlink:title=" ">
<polygon fill="white" stroke="black" points="246,-156.5 246,-208.5 403,-208.5 403,-156.5 246,-156.5"/>
<text text-anchor="start" x="254" y="-196.5" font-family="Helvetica,sans-Serif" font-size="10.00">src/libs/vtools/tools</text>
<text text-anchor="start" x="254" y="-185.5" font-family="Helvetica,sans-Serif" font-size="10.00">/drawTools/toolpoint</text>
<text text-anchor="start" x="254" y="-174.5" font-family="Helvetica,sans-Serif" font-size="10.00">/toolsinglepoint/toollinepoint</text>
<text text-anchor="middle" x="324.5" y="-163.5" font-family="Helvetica,sans-Serif" font-size="10.00">/vtoolbisector.h</text>
</a>
</g>
</g>
<!-- Node1&#45;&gt;Node6 -->
<g id="edge6" class="edge">
<title>Node1&#45;&gt;Node6</title>
<path fill="none" stroke="midnightblue" d="M1216.78,-265.98C1067.11,-257.86 755.1,-238.82 492.5,-209 463.33,-205.69 431.46,-201.1 403.39,-196.72"/>
<polygon fill="midnightblue" stroke="midnightblue" points="1216.66,-269.47 1226.83,-266.52 1217.04,-262.48 1216.66,-269.47"/>
</g>
<!-- Node7 -->
<g id="node7" class="node">
<title>Node7</title>
<g id="a_node7"><a xlink:href="../../d6/d07/vtoolbisector_8cpp.html" target="_top" xlink:title=" ">
<polygon fill="white" stroke="black" points="0,-67.5 0,-119.5 157,-119.5 157,-67.5 0,-67.5"/>
<text text-anchor="start" x="8" y="-107.5" font-family="Helvetica,sans-Serif" font-size="10.00">src/libs/vtools/tools</text>
<text text-anchor="start" x="8" y="-96.5" font-family="Helvetica,sans-Serif" font-size="10.00">/drawTools/toolpoint</text>
<text text-anchor="start" x="8" y="-85.5" font-family="Helvetica,sans-Serif" font-size="10.00">/toolsinglepoint/toollinepoint</text>
<text text-anchor="middle" x="78.5" y="-74.5" font-family="Helvetica,sans-Serif" font-size="10.00">/vtoolbisector.cpp</text>
</a>
</g>
</g>
<!-- Node1&#45;&gt;Node7 -->
<g id="edge10" class="edge">
<title>Node1&#45;&gt;Node7</title>
<path fill="none" stroke="midnightblue" d="M1216.92,-268.26C977.2,-261.79 327.62,-241.47 236.5,-209 183.21,-190.01 132.21,-147.07 103.19,-119.51"/>
<polygon fill="midnightblue" stroke="midnightblue" points="1216.9,-271.76 1226.99,-268.53 1217.09,-264.76 1216.9,-271.76"/>
</g>
<!-- Node9 -->
<g id="node9" class="node">
<title>Node9</title>
<g id="a_node9"><a xlink:href="../../d5/de5/vtoolendline_8h.html" target="_top" xlink:title=" ">
<polygon fill="white" stroke="black" points="838,-156.5 838,-208.5 995,-208.5 995,-156.5 838,-156.5"/>
<text text-anchor="start" x="846" y="-196.5" font-family="Helvetica,sans-Serif" font-size="10.00">src/libs/vtools/tools</text>
<text text-anchor="start" x="846" y="-185.5" font-family="Helvetica,sans-Serif" font-size="10.00">/drawTools/toolpoint</text>
<text text-anchor="start" x="846" y="-174.5" font-family="Helvetica,sans-Serif" font-size="10.00">/toolsinglepoint/toollinepoint</text>
<text text-anchor="middle" x="916.5" y="-163.5" font-family="Helvetica,sans-Serif" font-size="10.00">/vtoolendline.h</text>
</a>
</g>
</g>
<!-- Node1&#45;&gt;Node9 -->
<g id="edge11" class="edge">
<title>Node1&#45;&gt;Node9</title>
<path fill="none" stroke="midnightblue" d="M1216.96,-253.61C1157.97,-241.99 1078.84,-225.69 1009.5,-209 1004.78,-207.86 999.94,-206.66 995.06,-205.41"/>
<polygon fill="midnightblue" stroke="midnightblue" points="1216.5,-257.09 1226.99,-255.58 1217.85,-250.22 1216.5,-257.09"/>
</g>
<!-- Node10 -->
<g id="node10" class="node">
<title>Node10</title>
<g id="a_node10"><a xlink:href="../../d7/d91/vtoolendline_8cpp.html" target="_top" xlink:title=" ">
<polygon fill="white" stroke="black" points="517,-67.5 517,-119.5 674,-119.5 674,-67.5 517,-67.5"/>
<text text-anchor="start" x="525" y="-107.5" font-family="Helvetica,sans-Serif" font-size="10.00">src/libs/vtools/tools</text>
<text text-anchor="start" x="525" y="-96.5" font-family="Helvetica,sans-Serif" font-size="10.00">/drawTools/toolpoint</text>
<text text-anchor="start" x="525" y="-85.5" font-family="Helvetica,sans-Serif" font-size="10.00">/toolsinglepoint/toollinepoint</text>
<text text-anchor="middle" x="595.5" y="-74.5" font-family="Helvetica,sans-Serif" font-size="10.00">/vtoolendline.cpp</text>
</a>
</g>
</g>
<!-- Node1&#45;&gt;Node10 -->
<g id="edge20" class="edge">
<title>Node1&#45;&gt;Node10</title>
<path fill="none" stroke="midnightblue" d="M1216.61,-267.31C1097.15,-261.64 892.38,-246.63 828.5,-209 803.3,-194.16 813.27,-173.03 789.5,-156 784.42,-152.36 725.69,-133.95 674.16,-118.22"/>
<polygon fill="midnightblue" stroke="midnightblue" points="1216.69,-270.82 1226.84,-267.79 1217.01,-263.83 1216.69,-270.82"/>
</g>
<!-- Node11 -->
<g id="node11" class="node">
<title>Node11</title>
<g id="a_node11"><a xlink:href="../../d7/d6b/vtoolcurveintersectaxis_8h.html" target="_top" xlink:title=" ">
<polygon fill="white" stroke="black" points="1052,-156.5 1052,-208.5 1209,-208.5 1209,-156.5 1052,-156.5"/>
<text text-anchor="start" x="1060" y="-196.5" font-family="Helvetica,sans-Serif" font-size="10.00">src/libs/vtools/tools</text>
<text text-anchor="start" x="1060" y="-185.5" font-family="Helvetica,sans-Serif" font-size="10.00">/drawTools/toolpoint</text>
<text text-anchor="start" x="1060" y="-174.5" font-family="Helvetica,sans-Serif" font-size="10.00">/toolsinglepoint/toollinepoint</text>
<text text-anchor="middle" x="1130.5" y="-163.5" font-family="Helvetica,sans-Serif" font-size="10.00">/vtoolcurveintersectaxis.h</text>
</a>
</g>
</g>
<!-- Node1&#45;&gt;Node11 -->
<g id="edge14" class="edge">
<title>Node1&#45;&gt;Node11</title>
<path fill="none" stroke="midnightblue" d="M1245.71,-240.78C1224.66,-230.31 1201.22,-218.66 1181,-208.61"/>
<polygon fill="midnightblue" stroke="midnightblue" points="1244.37,-244.02 1254.88,-245.34 1247.49,-237.75 1244.37,-244.02"/>
</g>
<!-- Node12 -->
<g id="node12" class="node">
<title>Node12</title>
<g id="a_node12"><a xlink:href="../../da/d99/vtoolcurveintersectaxis_8cpp.html" target="_top" xlink:title=" ">
<polygon fill="white" stroke="black" points="692,-67.5 692,-119.5 849,-119.5 849,-67.5 692,-67.5"/>
<text text-anchor="start" x="700" y="-107.5" font-family="Helvetica,sans-Serif" font-size="10.00">src/libs/vtools/tools</text>
<text text-anchor="start" x="700" y="-96.5" font-family="Helvetica,sans-Serif" font-size="10.00">/drawTools/toolpoint</text>
<text text-anchor="start" x="700" y="-85.5" font-family="Helvetica,sans-Serif" font-size="10.00">/toolsinglepoint/toollinepoint</text>
<text text-anchor="middle" x="770.5" y="-74.5" font-family="Helvetica,sans-Serif" font-size="10.00">/vtoolcurveintersectaxis.cpp</text>
</a>
</g>
</g>
<!-- Node1&#45;&gt;Node12 -->
<g id="edge18" class="edge">
<title>Node1&#45;&gt;Node12</title>
<path fill="none" stroke="midnightblue" d="M1216.52,-265.18C1162.47,-258.36 1094.17,-243.08 1042.5,-209 1018.09,-192.9 1027.8,-172.27 1003.5,-156 948.32,-119.06 922.62,-137.24 858.5,-120 855.43,-119.17 852.3,-118.32 849.14,-117.45"/>
<polygon fill="midnightblue" stroke="midnightblue" points="1216.44,-268.69 1226.79,-266.39 1217.27,-261.74 1216.44,-268.69"/>
</g>
<!-- Node14 -->
<g id="node14" class="node">
<title>Node14</title>
<g id="a_node14"><a xlink:href="../../d1/d35/vtoolheight_8cpp.html" target="_top" xlink:title=" ">
<polygon fill="white" stroke="black" points="1751,-67.5 1751,-119.5 1908,-119.5 1908,-67.5 1751,-67.5"/>
<text text-anchor="start" x="1759" y="-107.5" font-family="Helvetica,sans-Serif" font-size="10.00">src/libs/vtools/tools</text>
<text text-anchor="start" x="1759" y="-96.5" font-family="Helvetica,sans-Serif" font-size="10.00">/drawTools/toolpoint</text>
<text text-anchor="start" x="1759" y="-85.5" font-family="Helvetica,sans-Serif" font-size="10.00">/toolsinglepoint/toollinepoint</text>
<text text-anchor="middle" x="1829.5" y="-74.5" font-family="Helvetica,sans-Serif" font-size="10.00">/vtoolheight.cpp</text>
</a>
</g>
</g>
<!-- Node1&#45;&gt;Node14 -->
<g id="edge19" class="edge">
<title>Node1&#45;&gt;Node14</title>
<path fill="none" stroke="midnightblue" d="M1394.21,-268.99C1457.74,-264.15 1542.95,-249.64 1606.5,-209 1631.14,-193.24 1621.86,-173.22 1645.5,-156 1654.67,-149.32 1705.17,-132.63 1750.94,-118.32"/>
<polygon fill="midnightblue" stroke="midnightblue" points="1393.94,-265.5 1384.21,-269.69 1394.43,-272.49 1393.94,-265.5"/>
</g>
<!-- Node15 -->
<g id="node15" class="node">
<title>Node15</title>
<g id="a_node15"><a xlink:href="../../db/d82/vtoollineintersectaxis_8cpp.html" target="_top" xlink:title=" ">
<polygon fill="white" stroke="black" points="1409,-67.5 1409,-119.5 1566,-119.5 1566,-67.5 1409,-67.5"/>
<text text-anchor="start" x="1417" y="-107.5" font-family="Helvetica,sans-Serif" font-size="10.00">src/libs/vtools/tools</text>
<text text-anchor="start" x="1417" y="-96.5" font-family="Helvetica,sans-Serif" font-size="10.00">/drawTools/toolpoint</text>
<text text-anchor="start" x="1417" y="-85.5" font-family="Helvetica,sans-Serif" font-size="10.00">/toolsinglepoint/toollinepoint</text>
<text text-anchor="middle" x="1487.5" y="-74.5" font-family="Helvetica,sans-Serif" font-size="10.00">/vtoollineintersectaxis.cpp</text>
</a>
</g>
</g>
<!-- Node1&#45;&gt;Node15 -->
<g id="edge21" class="edge">
<title>Node1&#45;&gt;Node15</title>
<path fill="none" stroke="midnightblue" d="M1354.93,-239.68C1367.82,-230.57 1381.24,-220.05 1392.5,-209 1413.38,-188.52 1412.96,-178.62 1431.5,-156 1441.57,-143.71 1453.32,-130.63 1463.46,-119.71"/>
<polygon fill="midnightblue" stroke="midnightblue" points="1352.81,-236.89 1346.57,-245.45 1356.79,-242.65 1352.81,-236.89"/>
</g>
<!-- Node16 -->
<g id="node16" class="node">
<title>Node16</title>
<g id="a_node16"><a xlink:href="../../de/d1f/vtoollineintersectaxis_8h.html" target="_top" xlink:title=" ">
<polygon fill="white" stroke="black" points="1227,-156.5 1227,-208.5 1384,-208.5 1384,-156.5 1227,-156.5"/>
<text text-anchor="start" x="1235" y="-196.5" font-family="Helvetica,sans-Serif" font-size="10.00">src/libs/vtools/tools</text>
<text text-anchor="start" x="1235" y="-185.5" font-family="Helvetica,sans-Serif" font-size="10.00">/drawTools/toolpoint</text>
<text text-anchor="start" x="1235" y="-174.5" font-family="Helvetica,sans-Serif" font-size="10.00">/toolsinglepoint/toollinepoint</text>
<text text-anchor="middle" x="1305.5" y="-163.5" font-family="Helvetica,sans-Serif" font-size="10.00">/vtoollineintersectaxis.h</text>
</a>
</g>
</g>
<!-- Node1&#45;&gt;Node16 -->
<g id="edge22" class="edge">
<title>Node1&#45;&gt;Node16</title>
<path fill="none" stroke="midnightblue" d="M1305.5,-235.19C1305.5,-226.28 1305.5,-216.9 1305.5,-208.61"/>
<polygon fill="midnightblue" stroke="midnightblue" points="1302,-235.34 1305.5,-245.34 1309,-235.34 1302,-235.34"/>
</g>
<!-- Node18 -->
<g id="node18" class="node">
<title>Node18</title>
<g id="a_node18"><a xlink:href="../../d8/d3f/vtoolheight_8h.html" target="_top" xlink:title=" ">
<polygon fill="white" stroke="black" points="1441,-156.5 1441,-208.5 1598,-208.5 1598,-156.5 1441,-156.5"/>
<text text-anchor="start" x="1449" y="-196.5" font-family="Helvetica,sans-Serif" font-size="10.00">src/libs/vtools/tools</text>
<text text-anchor="start" x="1449" y="-185.5" font-family="Helvetica,sans-Serif" font-size="10.00">/drawTools/toolpoint</text>
<text text-anchor="start" x="1449" y="-174.5" font-family="Helvetica,sans-Serif" font-size="10.00">/toolsinglepoint/toollinepoint</text>
<text text-anchor="middle" x="1519.5" y="-163.5" font-family="Helvetica,sans-Serif" font-size="10.00">/vtoolheight.h</text>
</a>
</g>
</g>
<!-- Node1&#45;&gt;Node18 -->
<g id="edge26" class="edge">
<title>Node1&#45;&gt;Node18</title>
<path fill="none" stroke="midnightblue" d="M1376.65,-241.58C1402.97,-230.88 1432.56,-218.85 1457.95,-208.52"/>
<polygon fill="midnightblue" stroke="midnightblue" points="1375.06,-238.44 1367.11,-245.45 1377.69,-244.93 1375.06,-238.44"/>
</g>
<!-- Node20 -->
<g id="node20" class="node">
<title>Node20</title>
<g id="a_node20"><a xlink:href="../../da/d73/vtoolnormal_8h.html" target="_top" xlink:title=" ">
<polygon fill="white" stroke="black" points="1655,-156.5 1655,-208.5 1812,-208.5 1812,-156.5 1655,-156.5"/>
<text text-anchor="start" x="1663" y="-196.5" font-family="Helvetica,sans-Serif" font-size="10.00">src/libs/vtools/tools</text>
<text text-anchor="start" x="1663" y="-185.5" font-family="Helvetica,sans-Serif" font-size="10.00">/drawTools/toolpoint</text>
<text text-anchor="start" x="1663" y="-174.5" font-family="Helvetica,sans-Serif" font-size="10.00">/toolsinglepoint/toollinepoint</text>
<text text-anchor="middle" x="1733.5" y="-163.5" font-family="Helvetica,sans-Serif" font-size="10.00">/vtoolnormal.h</text>
</a>
</g>
</g>
<!-- Node1&#45;&gt;Node20 -->
<g id="edge30" class="edge">
<title>Node1&#45;&gt;Node20</title>
<path fill="none" stroke="midnightblue" d="M1394.28,-256.34C1462.05,-245.02 1557.57,-227.95 1640.5,-209 1645.23,-207.92 1650.09,-206.76 1654.97,-205.54"/>
<polygon fill="midnightblue" stroke="midnightblue" points="1393.36,-252.95 1384.07,-258.04 1394.51,-259.85 1393.36,-252.95"/>
</g>
<!-- Node21 -->
<g id="node21" class="node">
<title>Node21</title>
<g id="a_node21"><a xlink:href="../../d4/ddb/vtoolnormal_8cpp.html" target="_top" xlink:title=" ">
<polygon fill="white" stroke="black" points="2093,-67.5 2093,-119.5 2250,-119.5 2250,-67.5 2093,-67.5"/>
<text text-anchor="start" x="2101" y="-107.5" font-family="Helvetica,sans-Serif" font-size="10.00">src/libs/vtools/tools</text>
<text text-anchor="start" x="2101" y="-96.5" font-family="Helvetica,sans-Serif" font-size="10.00">/drawTools/toolpoint</text>
<text text-anchor="start" x="2101" y="-85.5" font-family="Helvetica,sans-Serif" font-size="10.00">/toolsinglepoint/toollinepoint</text>
<text text-anchor="middle" x="2171.5" y="-74.5" font-family="Helvetica,sans-Serif" font-size="10.00">/vtoolnormal.cpp</text>
</a>
</g>
</g>
<!-- Node1&#45;&gt;Node21 -->
<g id="edge40" class="edge">
<title>Node1&#45;&gt;Node21</title>
<path fill="none" stroke="midnightblue" d="M1394.39,-268.31C1522.17,-263.76 1750.15,-250 1820.5,-209 1845.77,-194.28 1834.54,-171.23 1859.5,-156 1945.57,-103.48 1985.11,-142.07 2083.5,-120 2086.6,-119.3 2089.76,-118.56 2092.94,-117.78"/>
<polygon fill="midnightblue" stroke="midnightblue" points="1394.11,-264.82 1384.24,-268.66 1394.35,-271.81 1394.11,-264.82"/>
</g>
<!-- Node23 -->
<g id="node23" class="node">
<title>Node23</title>
<g id="a_node23"><a xlink:href="../../d7/df1/vtoollinepoint_8cpp.html" target="_top" xlink:title=" ">
<polygon fill="white" stroke="black" points="1869,-156.5 1869,-208.5 2026,-208.5 2026,-156.5 1869,-156.5"/>
<text text-anchor="start" x="1877" y="-196.5" font-family="Helvetica,sans-Serif" font-size="10.00">src/libs/vtools/tools</text>
<text text-anchor="start" x="1877" y="-185.5" font-family="Helvetica,sans-Serif" font-size="10.00">/drawTools/toolpoint</text>
<text text-anchor="start" x="1877" y="-174.5" font-family="Helvetica,sans-Serif" font-size="10.00">/toolsinglepoint/toollinepoint</text>
<text text-anchor="middle" x="1947.5" y="-163.5" font-family="Helvetica,sans-Serif" font-size="10.00">/vtoollinepoint.cpp</text>
</a>
</g>
</g>
<!-- Node1&#45;&gt;Node23 -->
<g id="edge34" class="edge">
<title>Node1&#45;&gt;Node23</title>
<path fill="none" stroke="midnightblue" d="M1394.24,-264.84C1503.32,-256.9 1693.74,-239.85 1854.5,-209 1859.19,-208.1 1863.98,-207.09 1868.8,-205.99"/>
<polygon fill="midnightblue" stroke="midnightblue" points="1393.99,-261.35 1384.26,-265.56 1394.49,-268.33 1393.99,-261.35"/>
</g>
<!-- Node24 -->
<g id="node24" class="node">
<title>Node24</title>
<g id="a_node24"><a xlink:href="../../d5/deb/vtoolshoulderpoint_8h.html" target="_top" xlink:title=" ">
<polygon fill="white" stroke="black" points="2158,-156.5 2158,-208.5 2315,-208.5 2315,-156.5 2158,-156.5"/>
<text text-anchor="start" x="2166" y="-196.5" font-family="Helvetica,sans-Serif" font-size="10.00">src/libs/vtools/tools</text>
<text text-anchor="start" x="2166" y="-185.5" font-family="Helvetica,sans-Serif" font-size="10.00">/drawTools/toolpoint</text>
<text text-anchor="start" x="2166" y="-174.5" font-family="Helvetica,sans-Serif" font-size="10.00">/toolsinglepoint/toollinepoint</text>
<text text-anchor="middle" x="2236.5" y="-163.5" font-family="Helvetica,sans-Serif" font-size="10.00">/vtoolshoulderpoint.h</text>
</a>
</g>
</g>
<!-- Node1&#45;&gt;Node24 -->
<g id="edge35" class="edge">
<title>Node1&#45;&gt;Node24</title>
<path fill="none" stroke="midnightblue" d="M1394.14,-264.21C1531.47,-254.2 1803.9,-233.27 2034.5,-209 2075.28,-204.71 2120.58,-199.07 2157.93,-194.19"/>
<polygon fill="midnightblue" stroke="midnightblue" points="1393.8,-260.73 1384.08,-264.94 1394.31,-267.71 1393.8,-260.73"/>
</g>
<!-- Node25 -->
<g id="node25" class="node">
<title>Node25</title>
<g id="a_node25"><a xlink:href="../../dd/dab/vtoolshoulderpoint_8cpp.html" target="_top" xlink:title=" ">
<polygon fill="white" stroke="black" points="2447,-67.5 2447,-119.5 2604,-119.5 2604,-67.5 2447,-67.5"/>
<text text-anchor="start" x="2455" y="-107.5" font-family="Helvetica,sans-Serif" font-size="10.00">src/libs/vtools/tools</text>
<text text-anchor="start" x="2455" y="-96.5" font-family="Helvetica,sans-Serif" font-size="10.00">/drawTools/toolpoint</text>
<text text-anchor="start" x="2455" y="-85.5" font-family="Helvetica,sans-Serif" font-size="10.00">/toolsinglepoint/toollinepoint</text>
<text text-anchor="middle" x="2525.5" y="-74.5" font-family="Helvetica,sans-Serif" font-size="10.00">/vtoolshoulderpoint.cpp</text>
</a>
</g>
</g>
<!-- Node1&#45;&gt;Node25 -->
<g id="edge39" class="edge">
<title>Node1&#45;&gt;Node25</title>
<path fill="none" stroke="midnightblue" d="M1394.55,-270.29C1609.48,-268.95 2151.61,-260.41 2324.5,-209 2388.59,-189.94 2454.34,-147.24 2492.48,-119.71"/>
<polygon fill="midnightblue" stroke="midnightblue" points="1394.24,-266.79 1384.26,-270.35 1394.28,-273.79 1394.24,-266.79"/>
</g>
<!-- Node3 -->
<g id="node3" class="node">
<title>Node3</title>
<g id="a_node3"><a xlink:href="../../d4/d56/drawtools_8h.html" target="_top" xlink:title=" ">
<polygon fill="white" stroke="black" points="1069.5,-78.5 1069.5,-108.5 1197.5,-108.5 1197.5,-78.5 1069.5,-78.5"/>
<text text-anchor="start" x="1077.5" y="-96.5" font-family="Helvetica,sans-Serif" font-size="10.00">src/libs/vtools/tools</text>
<text text-anchor="middle" x="1133.5" y="-85.5" font-family="Helvetica,sans-Serif" font-size="10.00">/drawTools/drawtools.h</text>
</a>
</g>
</g>
<!-- Node2&#45;&gt;Node3 -->
<g id="edge2" class="edge">
<title>Node2&#45;&gt;Node3</title>
<path fill="none" stroke="midnightblue" d="M791.04,-163.05C803.6,-160.59 816.36,-158.17 828.5,-156 931.22,-137.65 959.27,-145.31 1060.5,-120 1072.74,-116.94 1085.84,-112.69 1097.51,-108.53"/>
<polygon fill="midnightblue" stroke="midnightblue" points="790.16,-159.66 781.03,-165.03 791.52,-166.52 790.16,-159.66"/>
</g>
<!-- Node2&#45;&gt;Node5 -->
<g id="edge4" class="edge">
<title>Node2&#45;&gt;Node5</title>
<path fill="none" stroke="midnightblue" d="M614.21,-154.26C577.35,-142.89 534.88,-129.79 499.12,-118.76"/>
<polygon fill="midnightblue" stroke="midnightblue" points="613.36,-157.66 623.95,-157.27 615.42,-150.97 613.36,-157.66"/>
</g>
<!-- Node4 -->
<g id="node4" class="node">
<title>Node4</title>
<g id="a_node4"><a xlink:href="../../d5/da5/tools_8h.html" target="_top" xlink:title=" ">
<polygon fill="white" stroke="black" points="1078,-0.5 1078,-30.5 1189,-30.5 1189,-0.5 1078,-0.5"/>
<text text-anchor="start" x="1086" y="-18.5" font-family="Helvetica,sans-Serif" font-size="10.00">src/libs/vtools/tools</text>
<text text-anchor="middle" x="1133.5" y="-7.5" font-family="Helvetica,sans-Serif" font-size="10.00">/tools.h</text>
</a>
</g>
</g>
<!-- Node3&#45;&gt;Node4 -->
<g id="edge3" class="edge">
<title>Node3&#45;&gt;Node4</title>
<path fill="none" stroke="midnightblue" d="M1133.5,-68.09C1133.5,-55.76 1133.5,-41.22 1133.5,-30.73"/>
<polygon fill="midnightblue" stroke="midnightblue" points="1130,-68.2 1133.5,-78.2 1137,-68.21 1130,-68.2"/>
</g>
<!-- Node6&#45;&gt;Node3 -->
<g id="edge7" class="edge">
<title>Node6&#45;&gt;Node3</title>
<path fill="none" stroke="midnightblue" d="M413.39,-173.52C470.77,-168.41 547.04,-161.69 614.5,-156 812.66,-139.29 865.93,-161.13 1060.5,-120 1073.37,-117.28 1087.09,-112.9 1099.11,-108.54"/>
<polygon fill="midnightblue" stroke="midnightblue" points="412.91,-170.05 403.26,-174.42 413.53,-177.02 412.91,-170.05"/>
</g>
<!-- Node6&#45;&gt;Node7 -->
<g id="edge8" class="edge">
<title>Node6&#45;&gt;Node7</title>
<path fill="none" stroke="midnightblue" d="M243.91,-153C213.36,-142.19 178.83,-129.98 149.25,-119.52"/>
<polygon fill="midnightblue" stroke="midnightblue" points="243.08,-156.42 253.68,-156.45 245.42,-149.82 243.08,-156.42"/>
</g>
<!-- Node8 -->
<g id="node8" class="node">
<title>Node8</title>
<g id="a_node8"><a xlink:href="../../df/d33/vistoolbisector_8cpp.html" target="_top" xlink:title=" ">
<polygon fill="white" stroke="black" points="175,-78.5 175,-108.5 324,-108.5 324,-78.5 175,-78.5"/>
<text text-anchor="start" x="183" y="-96.5" font-family="Helvetica,sans-Serif" font-size="10.00">src/libs/vtools/visualization</text>
<text text-anchor="middle" x="249.5" y="-85.5" font-family="Helvetica,sans-Serif" font-size="10.00">/line/vistoolbisector.cpp</text>
</a>
</g>
</g>
<!-- Node6&#45;&gt;Node8 -->
<g id="edge9" class="edge">
<title>Node6&#45;&gt;Node8</title>
<path fill="none" stroke="midnightblue" d="M296.02,-148.47C284.19,-134.74 271.08,-119.53 261.8,-108.77"/>
<polygon fill="midnightblue" stroke="midnightblue" points="293.63,-151.05 302.81,-156.34 298.93,-146.48 293.63,-151.05"/>
</g>
<!-- Node9&#45;&gt;Node3 -->
<g id="edge12" class="edge">
<title>Node9&#45;&gt;Node3</title>
<path fill="none" stroke="midnightblue" d="M988.71,-152.55C1025.63,-137.75 1068.89,-120.4 1098.45,-108.55"/>
<polygon fill="midnightblue" stroke="midnightblue" points="986.95,-149.48 978.97,-156.45 989.56,-155.98 986.95,-149.48"/>
</g>
<!-- Node9&#45;&gt;Node10 -->
<g id="edge13" class="edge">
<title>Node9&#45;&gt;Node10</title>
<path fill="none" stroke="midnightblue" d="M827.94,-157.18C826.45,-156.78 824.97,-156.39 823.5,-156 760.98,-139.45 744.88,-137.1 682.5,-120 679.77,-119.25 676.99,-118.48 674.19,-117.7"/>
<polygon fill="midnightblue" stroke="midnightblue" points="827.32,-160.63 837.88,-159.84 829.13,-153.87 827.32,-160.63"/>
</g>
<!-- Node11&#45;&gt;Node3 -->
<g id="edge15" class="edge">
<title>Node11&#45;&gt;Node3</title>
<path fill="none" stroke="midnightblue" d="M1131.72,-146.15C1132.17,-133.05 1132.66,-118.93 1133.01,-108.77"/>
<polygon fill="midnightblue" stroke="midnightblue" points="1128.21,-146.22 1131.37,-156.34 1135.21,-146.46 1128.21,-146.22"/>
</g>
<!-- Node11&#45;&gt;Node12 -->
<g id="edge16" class="edge">
<title>Node11&#45;&gt;Node12</title>
<path fill="none" stroke="midnightblue" d="M1041.96,-157.07C1040.46,-156.71 1038.98,-156.35 1037.5,-156 958.55,-137.26 937.32,-139.31 858.5,-120 855.41,-119.24 852.27,-118.45 849.09,-117.63"/>
<polygon fill="midnightblue" stroke="midnightblue" points="1041.4,-160.54 1051.95,-159.55 1043.09,-153.75 1041.4,-160.54"/>
</g>
<!-- Node13 -->
<g id="node13" class="node">
<title>Node13</title>
<g id="a_node13"><a xlink:href="../../db/dd5/vistoolcurveintersectaxis_8cpp.html" target="_top" xlink:title=" ">
<polygon fill="white" stroke="black" points="867.5,-78.5 867.5,-108.5 1051.5,-108.5 1051.5,-78.5 867.5,-78.5"/>
<text text-anchor="start" x="875.5" y="-96.5" font-family="Helvetica,sans-Serif" font-size="10.00">src/libs/vtools/visualization</text>
<text text-anchor="middle" x="959.5" y="-85.5" font-family="Helvetica,sans-Serif" font-size="10.00">/line/vistoolcurveintersectaxis.cpp</text>
</a>
</g>
</g>
<!-- Node11&#45;&gt;Node13 -->
<g id="edge17" class="edge">
<title>Node11&#45;&gt;Node13</title>
<path fill="none" stroke="midnightblue" d="M1071.88,-151.68C1043.14,-137.05 1009.88,-120.13 987.05,-108.52"/>
<polygon fill="midnightblue" stroke="midnightblue" points="1070.54,-154.92 1081.04,-156.34 1073.71,-148.68 1070.54,-154.92"/>
</g>
<!-- Node16&#45;&gt;Node3 -->
<g id="edge23" class="edge">
<title>Node16&#45;&gt;Node3</title>
<path fill="none" stroke="midnightblue" d="M1246.54,-151.68C1217.63,-137.05 1184.18,-120.13 1161.21,-108.52"/>
<polygon fill="midnightblue" stroke="midnightblue" points="1245.25,-154.95 1255.75,-156.34 1248.41,-148.7 1245.25,-154.95"/>
</g>
<!-- Node16&#45;&gt;Node15 -->
<g id="edge24" class="edge">
<title>Node16&#45;&gt;Node15</title>
<path fill="none" stroke="midnightblue" d="M1367.39,-151.92C1389.36,-141.41 1413.86,-129.7 1434.98,-119.61"/>
<polygon fill="midnightblue" stroke="midnightblue" points="1365.65,-148.87 1358.14,-156.34 1368.67,-155.18 1365.65,-148.87"/>
</g>
<!-- Node17 -->
<g id="node17" class="node">
<title>Node17</title>
<g id="a_node17"><a xlink:href="../../d0/ddf/vistoollineintersectaxis_8cpp.html" target="_top" xlink:title=" ">
<polygon fill="white" stroke="black" points="1216,-78.5 1216,-108.5 1391,-108.5 1391,-78.5 1216,-78.5"/>
<text text-anchor="start" x="1224" y="-96.5" font-family="Helvetica,sans-Serif" font-size="10.00">src/libs/vtools/visualization</text>
<text text-anchor="middle" x="1303.5" y="-85.5" font-family="Helvetica,sans-Serif" font-size="10.00">/line/vistoollineintersectaxis.cpp</text>
</a>
</g>
</g>
<!-- Node16&#45;&gt;Node17 -->
<g id="edge25" class="edge">
<title>Node16&#45;&gt;Node17</title>
<path fill="none" stroke="midnightblue" d="M1304.69,-146.15C1304.39,-133.05 1304.06,-118.93 1303.83,-108.77"/>
<polygon fill="midnightblue" stroke="midnightblue" points="1301.19,-146.42 1304.92,-156.34 1308.19,-146.26 1301.19,-146.42"/>
</g>
<!-- Node18&#45;&gt;Node3 -->
<g id="edge27" class="edge">
<title>Node18&#45;&gt;Node3</title>
<path fill="none" stroke="midnightblue" d="M1431.09,-163.67C1418.15,-161.08 1404.98,-158.46 1392.5,-156 1309.89,-139.71 1287.79,-141.94 1206.5,-120 1194.58,-116.78 1181.79,-112.58 1170.31,-108.52"/>
<polygon fill="midnightblue" stroke="midnightblue" points="1430.44,-167.1 1440.93,-165.64 1431.81,-160.24 1430.44,-167.1"/>
</g>
<!-- Node18&#45;&gt;Node14 -->
<g id="edge28" class="edge">
<title>Node18&#45;&gt;Node14</title>
<path fill="none" stroke="midnightblue" d="M1608.05,-157.23C1648.73,-146.01 1697.6,-132.44 1741.5,-120 1744.56,-119.13 1747.68,-118.25 1750.83,-117.35"/>
<polygon fill="midnightblue" stroke="midnightblue" points="1606.87,-153.92 1598.16,-159.95 1608.73,-160.67 1606.87,-153.92"/>
</g>
<!-- Node19 -->
<g id="node19" class="node">
<title>Node19</title>
<g id="a_node19"><a xlink:href="../../d5/dc6/vistoolheight_8cpp.html" target="_top" xlink:title=" ">
<polygon fill="white" stroke="black" points="1584,-78.5 1584,-108.5 1733,-108.5 1733,-78.5 1584,-78.5"/>
<text text-anchor="start" x="1592" y="-96.5" font-family="Helvetica,sans-Serif" font-size="10.00">src/libs/vtools/visualization</text>
<text text-anchor="middle" x="1658.5" y="-85.5" font-family="Helvetica,sans-Serif" font-size="10.00">/line/vistoolheight.cpp</text>
</a>
</g>
</g>
<!-- Node18&#45;&gt;Node19 -->
<g id="edge29" class="edge">
<title>Node18&#45;&gt;Node19</title>
<path fill="none" stroke="midnightblue" d="M1568.36,-150.92C1591.44,-136.47 1617.87,-119.93 1636.11,-108.52"/>
<polygon fill="midnightblue" stroke="midnightblue" points="1566.32,-148.06 1559.7,-156.34 1570.04,-154 1566.32,-148.06"/>
</g>
<!-- Node20&#45;&gt;Node3 -->
<g id="edge31" class="edge">
<title>Node20&#45;&gt;Node3</title>
<path fill="none" stroke="midnightblue" d="M1644.64,-162.39C1631.88,-160.01 1618.88,-157.79 1606.5,-156 1429.85,-130.39 1380.97,-157.72 1206.5,-120 1193.77,-117.25 1180.21,-112.92 1168.27,-108.61"/>
<polygon fill="midnightblue" stroke="midnightblue" points="1644.33,-165.89 1654.81,-164.32 1645.63,-159.01 1644.33,-165.89"/>
</g>
<!-- Node20&#45;&gt;Node21 -->
<g id="edge32" class="edge">
<title>Node20&#45;&gt;Node21</title>
<path fill="none" stroke="midnightblue" d="M1822.09,-156.93C1823.57,-156.61 1825.04,-156.3 1826.5,-156 1939.46,-132.7 1970.71,-144.11 2083.5,-120 2086.61,-119.33 2089.77,-118.62 2092.96,-117.86"/>
<polygon fill="midnightblue" stroke="midnightblue" points="1821.21,-153.54 1812.23,-159.16 1822.75,-160.37 1821.21,-153.54"/>
</g>
<!-- Node22 -->
<g id="node22" class="node">
<title>Node22</title>
<g id="a_node22"><a xlink:href="../../db/ded/vistoolnormal_8cpp.html" target="_top" xlink:title=" ">
<polygon fill="white" stroke="black" points="1926,-78.5 1926,-108.5 2075,-108.5 2075,-78.5 1926,-78.5"/>
<text text-anchor="start" x="1934" y="-96.5" font-family="Helvetica,sans-Serif" font-size="10.00">src/libs/vtools/visualization</text>
<text text-anchor="middle" x="2000.5" y="-85.5" font-family="Helvetica,sans-Serif" font-size="10.00">/line/vistoolnormal.cpp</text>
</a>
</g>
</g>
<!-- Node20&#45;&gt;Node22 -->
<g id="edge33" class="edge">
<title>Node20&#45;&gt;Node22</title>
<path fill="none" stroke="midnightblue" d="M1820.03,-153.3C1865.96,-138.34 1920.38,-120.61 1957.37,-108.55"/>
<polygon fill="midnightblue" stroke="midnightblue" points="1818.79,-150.03 1810.37,-156.45 1820.96,-156.68 1818.79,-150.03"/>
</g>
<!-- Node24&#45;&gt;Node3 -->
<g id="edge36" class="edge">
<title>Node24&#45;&gt;Node3</title>
<path fill="none" stroke="midnightblue" d="M2147.75,-168.7C2112.56,-164.04 2071.69,-159.15 2034.5,-156 1667.47,-124.91 1568.24,-189.48 1206.5,-120 1193.32,-117.47 1179.29,-113.02 1167.1,-108.55"/>
<polygon fill="midnightblue" stroke="midnightblue" points="2147.62,-172.21 2158,-170.07 2148.55,-165.27 2147.62,-172.21"/>
</g>
<!-- Node24&#45;&gt;Node25 -->
<g id="edge37" class="edge">
<title>Node24&#45;&gt;Node25</title>
<path fill="none" stroke="midnightblue" d="M2324.84,-154.91C2363.79,-143.18 2409.18,-129.52 2446.93,-118.15"/>
<polygon fill="midnightblue" stroke="midnightblue" points="2323.66,-151.61 2315.09,-157.84 2325.67,-158.31 2323.66,-151.61"/>
</g>
<!-- Node26 -->
<g id="node26" class="node">
<title>Node26</title>
<g id="a_node26"><a xlink:href="../../d8/db4/vistoolshoulderpoint_8cpp.html" target="_top" xlink:title=" ">
<polygon fill="white" stroke="black" points="2268,-78.5 2268,-108.5 2429,-108.5 2429,-78.5 2268,-78.5"/>
<text text-anchor="start" x="2276" y="-96.5" font-family="Helvetica,sans-Serif" font-size="10.00">src/libs/vtools/visualization</text>
<text text-anchor="middle" x="2348.5" y="-85.5" font-family="Helvetica,sans-Serif" font-size="10.00">/line/vistoolshoulderpoint.cpp</text>
</a>
</g>
</g>
<!-- Node24&#45;&gt;Node26 -->
<g id="edge38" class="edge">
<title>Node24&#45;&gt;Node26</title>
<path fill="none" stroke="midnightblue" d="M2277.1,-149.96C2295.4,-135.74 2316.08,-119.68 2330.46,-108.52"/>
<polygon fill="midnightblue" stroke="midnightblue" points="2274.65,-147.44 2268.9,-156.34 2278.94,-152.97 2274.65,-147.44"/>
</g>
</g>
</svg>
        <g id="navigator" transform="translate(0 0)" fill="#404254">
                <rect fill="#f2f5e9" fill-opacity="0.5" stroke="#606060" stroke-width=".5" x="0" y="0" width="60" height="60"/>
                <use id="zoomplus" xlink:href="#zoomPlus" x="17" y="9" onmousedown="handleZoom(evt,'in')"/>
                <use id="zoomminus" xlink:href="#zoomMin" x="42" y="9" onmousedown="handleZoom(evt,'out')"/>
                <use id="reset" xlink:href="#resetDef" x="30" y="36" onmousedown="handleReset()"/>
                <g id="arrowUp" xlink:href="#dirArrow" transform="translate(30 24)" onmousedown="handlePan(0,-1)">
                  <use xlink:href="#rim" fill="#404040">
                        <set attributeName="fill" to="#808080" begin="arrowUp.mouseover" end="arrowUp.mouseout"/>
                  </use>
                  <path fill="none" stroke="white" stroke-width="1.5" d="M0,-3.0v7 M-2.5,-0.5L0,-3.0L2.5,-0.5"/>
                </g>
                <g id="arrowRight" xlink:href="#dirArrow" transform="rotate(90) translate(36 -43)" onmousedown="handlePan(1,0)">
                  <use xlink:href="#rim" fill="#404040">
                        <set attributeName="fill" to="#808080" begin="arrowRight.mouseover" end="arrowRight.mouseout"/>
                  </use>
                  <path fill="none" stroke="white" stroke-width="1.5" d="M0,-3.0v7 M-2.5,-0.5L0,-3.0L2.5,-0.5"/>
                </g>
                <g id="arrowDown" xlink:href="#dirArrow" transform="rotate(180) translate(-30 -48)" onmousedown="handlePan(0,1)">
                  <use xlink:href="#rim" fill="#404040">
                        <set attributeName="fill" to="#808080" begin="arrowDown.mouseover" end="arrowDown.mouseout"/>
                  </use>
                  <path fill="none" stroke="white" stroke-width="1.5" d="M0,-3.0v7 M-2.5,-0.5L0,-3.0L2.5,-0.5"/>
                </g>
                <g id="arrowLeft" xlink:href="#dirArrow" transform="rotate(270) translate(-36 17)" onmousedown="handlePan(-1,0)">
                  <use xlink:href="#rim" fill="#404040">
                        <set attributeName="fill" to="#808080" begin="arrowLeft.mouseover" end="arrowLeft.mouseout"/>
                  </use>
                  <path fill="none" stroke="white" stroke-width="1.5" d="M0,-3.0v7 M-2.5,-0.5L0,-3.0L2.5,-0.5"/>
                </g>
        </g>
        <svg viewBox="0 0 15 15" width="100%" height="30px" preserveAspectRatio="xMaxYMin meet">
         <g id="arrow_out" transform="scale(0.3 0.3)">
          <a xlink:href="vtoollinepoint_8h__dep__incl_org.svg" target="_base">
           <rect id="button" ry="5" rx="5" y="6" x="6" height="38" width="38"
                fill="#f2f5e9" fill-opacity="0.5" stroke="#606060" stroke-width="1.0"/>
           <path id="arrow"
             d="M 11.500037,31.436501 C 11.940474,20.09759 22.043105,11.32322 32.158766,21.979434 L 37.068811,17.246167 C 37.068811,17.246167 37.088388,32 37.088388,32 L 22.160133,31.978069 C 22.160133,31.978069 26.997745,27.140456 26.997745,27.140456 C 18.528582,18.264221 13.291696,25.230495 11.500037,31.436501 z"
             style="fill:#404040;"/>
          </a>
         </g>
        </svg>
</svg>
