<?xml version="1.0" encoding="UTF-8" standalone="no"?>
<!DOCTYPE svg PUBLIC "-//W3C//DTD SVG 1.1//EN"
 "http://www.w3.org/Graphics/SVG/1.1/DTD/svg11.dtd">
<!-- Generated by graphviz version 2.43.0 (0)
 -->
<!-- Title: src/libs/vtools/tools/drawTools/toolpoint/toolsinglepoint/toollinepoint/vtoollinepoint.h Pages: 1 -->
<!--zoomable 306 -->
<svg id="main" version="1.1" xmlns="http://www.w3.org/2000/svg" xmlns:xlink="http://www.w3.org/1999/xlink" xml:space="preserve" onload="init(evt)">
<style type="text/css"><![CDATA[
.edge:hover path { stroke: red; }
.edge:hover polygon { stroke: red; fill: red; }
]]></style>
<script type="text/javascript"><![CDATA[
var edges = document.getElementsByTagName('g');
if (edges && edges.length) {
  for (var i=0;i<edges.length;i++) {
    if (edges[i].id.substr(0,4)=='edge') {
      edges[i].setAttribute('class','edge');
    }
  }
}
]]></script>
        <defs>
                <circle id="rim" cx="0" cy="0" r="7"/>
                <circle id="rim2" cx="0" cy="0" r="3.5"/>
                <g id="zoomPlus">
                        <use xlink:href="#rim" fill="#404040">
                                <set attributeName="fill" to="#808080" begin="zoomplus.mouseover" end="zoomplus.mouseout"/>
                        </use>
                        <path d="M-4,0h8M0,-4v8" fill="none" stroke="white" stroke-width="1.5" pointer-events="none"/>
                </g>
                <g id="zoomMin">
                        <use xlink:href="#rim" fill="#404040">
                                <set attributeName="fill" to="#808080" begin="zoomminus.mouseover" end="zoomminus.mouseout"/>
                        </use>
                        <path d="M-4,0h8" fill="none" stroke="white" stroke-width="1.5" pointer-events="none"/>
                </g>
                <g id="dirArrow">
                        <path fill="none" stroke="white" stroke-width="1.5" d="M0,-3.0v7 M-2.5,-0.5L0,-3.0L2.5,-0.5"/>
                </g>
               <g id="resetDef">
                       <use xlink:href="#rim2" fill="#404040">
                               <set attributeName="fill" to="#808080" begin="reset.mouseover" end="reset.mouseout"/>
                       </use>
               </g>
        </defs>

<script type="text/javascript">
var viewWidth = 2613;
var viewHeight = 306;
var sectionId = 'dynsection-1';
</script>
<script xlink:href="../../svgpan.js"/>
<svg id="graph" class="graph">
<g id="viewport">
<title>src/libs/vtools/tools/drawTools/toolpoint/toolsinglepoint/toollinepoint/vtoollinepoint.h</title>
<polygon fill="white" stroke="transparent" points="-4,4 -4,-302 2609,-302 2609,4 -4,4"/>
<!-- Node1 -->
<g id="node1" class="node">
<title>Node1</title>
<g id="a_node1"><a xlink:title=" ">
<polygon fill="#bfbfbf" stroke="black" points="1294,-245.5 1294,-297.5 1451,-297.5 1451,-245.5 1294,-245.5"/>
<text text-anchor="start" x="1302" y="-285.5" font-family="Helvetica,sans-Serif" font-size="10.00">src/libs/vtools/tools</text>
<text text-anchor="start" x="1302" y="-274.5" font-family="Helvetica,sans-Serif" font-size="10.00">/drawTools/toolpoint</text>
<text text-anchor="start" x="1302" y="-263.5" font-family="Helvetica,sans-Serif" font-size="10.00">/toolsinglepoint/toollinepoint</text>
<text text-anchor="middle" x="1372.5" y="-252.5" font-family="Helvetica,sans-Serif" font-size="10.00">/vtoollinepoint.h</text>
</a>
</g>
</g>
<!-- Node2 -->
<g id="node2" class="node">
<title>Node2</title>
<g id="a_node2"><a xlink:href="../../d5/d9f/vtoolalongline_8h.html" target="_top" xlink:title=" ">
<polygon fill="white" stroke="black" points="1508,-156.5 1508,-208.5 1665,-208.5 1665,-156.5 1508,-156.5"/>
<text text-anchor="start" x="1516" y="-196.5" font-family="Helvetica,sans-Serif" font-size="10.00">src/libs/vtools/tools</text>
<text text-anchor="start" x="1516" y="-185.5" font-family="Helvetica,sans-Serif" font-size="10.00">/drawTools/toolpoint</text>
<text text-anchor="start" x="1516" y="-174.5" font-family="Helvetica,sans-Serif" font-size="10.00">/toolsinglepoint/toollinepoint</text>
<text text-anchor="middle" x="1586.5" y="-163.5" font-family="Helvetica,sans-Serif" font-size="10.00">/vtoolalongline.h</text>
</a>
</g>
</g>
<!-- Node1&#45;&gt;Node2 -->
<g id="edge1" class="edge">
<title>Node1&#45;&gt;Node2</title>
<path fill="none" stroke="midnightblue" d="M1443.65,-241.58C1469.97,-230.88 1499.56,-218.85 1524.95,-208.52"/>
<polygon fill="midnightblue" stroke="midnightblue" points="1442.06,-238.44 1434.11,-245.45 1444.69,-244.93 1442.06,-238.44"/>
</g>
<!-- Node5 -->
<g id="node5" class="node">
<title>Node5</title>
<g id="a_node5"><a xlink:href="../../d8/d68/vtoolalongline_8cpp.html" target="_top" xlink:title=" ">
<polygon fill="white" stroke="black" points="1716,-67.5 1716,-119.5 1873,-119.5 1873,-67.5 1716,-67.5"/>
<text text-anchor="start" x="1724" y="-107.5" font-family="Helvetica,sans-Serif" font-size="10.00">src/libs/vtools/tools</text>
<text text-anchor="start" x="1724" y="-96.5" font-family="Helvetica,sans-Serif" font-size="10.00">/drawTools/toolpoint</text>
<text text-anchor="start" x="1724" y="-85.5" font-family="Helvetica,sans-Serif" font-size="10.00">/toolsinglepoint/toollinepoint</text>
<text text-anchor="middle" x="1794.5" y="-74.5" font-family="Helvetica,sans-Serif" font-size="10.00">/vtoolalongline.cpp</text>
</a>
</g>
</g>
<!-- Node1&#45;&gt;Node5 -->
<g id="edge5" class="edge">
<title>Node1&#45;&gt;Node5</title>
<path fill="none" stroke="midnightblue" d="M1461.21,-268.99C1524.74,-264.15 1609.95,-249.64 1673.5,-209 1698.14,-193.24 1691.91,-176.77 1712.5,-156 1725.65,-142.73 1741.81,-130 1756.3,-119.6"/>
<polygon fill="midnightblue" stroke="midnightblue" points="1460.94,-265.5 1451.21,-269.69 1461.43,-272.49 1460.94,-265.5"/>
</g>
<!-- Node6 -->
<g id="node6" class="node">
<title>Node6</title>
<g id="a_node6"><a xlink:href="../../d9/d45/vtoolbisector_8h.html" target="_top" xlink:title=" ">
<polygon fill="white" stroke="black" points="268,-156.5 268,-208.5 425,-208.5 425,-156.5 268,-156.5"/>
<text text-anchor="start" x="276" y="-196.5" font-family="Helvetica,sans-Serif" font-size="10.00">src/libs/vtools/tools</text>
<text text-anchor="start" x="276" y="-185.5" font-family="Helvetica,sans-Serif" font-size="10.00">/drawTools/toolpoint</text>
<text text-anchor="start" x="276" y="-174.5" font-family="Helvetica,sans-Serif" font-size="10.00">/toolsinglepoint/toollinepoint</text>
<text text-anchor="middle" x="346.5" y="-163.5" font-family="Helvetica,sans-Serif" font-size="10.00">/vtoolbisector.h</text>
</a>
</g>
</g>
<!-- Node1&#45;&gt;Node6 -->
<g id="edge6" class="edge">
<title>Node1&#45;&gt;Node6</title>
<path fill="none" stroke="midnightblue" d="M1283.53,-267.54C1123.66,-261.51 777.44,-245.18 487.5,-209 467.26,-206.47 445.52,-202.95 425.31,-199.33"/>
<polygon fill="midnightblue" stroke="midnightblue" points="1283.66,-271.05 1293.79,-267.93 1283.93,-264.05 1283.66,-271.05"/>
</g>
<!-- Node7 -->
<g id="node7" class="node">
<title>Node7</title>
<g id="a_node7"><a xlink:href="../../d6/d07/vtoolbisector_8cpp.html" target="_top" xlink:title=" ">
<polygon fill="white" stroke="black" points="0,-67.5 0,-119.5 157,-119.5 157,-67.5 0,-67.5"/>
<text text-anchor="start" x="8" y="-107.5" font-family="Helvetica,sans-Serif" font-size="10.00">src/libs/vtools/tools</text>
<text text-anchor="start" x="8" y="-96.5" font-family="Helvetica,sans-Serif" font-size="10.00">/drawTools/toolpoint</text>
<text text-anchor="start" x="8" y="-85.5" font-family="Helvetica,sans-Serif" font-size="10.00">/toolsinglepoint/toollinepoint</text>
<text text-anchor="middle" x="78.5" y="-74.5" font-family="Helvetica,sans-Serif" font-size="10.00">/vtoolbisector.cpp</text>
</a>
</g>
</g>
<!-- Node1&#45;&gt;Node7 -->
<g id="edge10" class="edge">
<title>Node1&#45;&gt;Node7</title>
<path fill="none" stroke="midnightblue" d="M1283.74,-268.18C1037.05,-261.38 354.9,-239.97 258.5,-209 199.61,-190.08 140.96,-147.12 107.29,-119.53"/>
<polygon fill="midnightblue" stroke="midnightblue" points="1283.66,-271.68 1293.75,-268.46 1283.85,-264.68 1283.66,-271.68"/>
</g>
<!-- Node9 -->
<g id="node9" class="node">
<title>Node9</title>
<g id="a_node9"><a xlink:href="../../da/d99/vtoolcurveintersectaxis_8cpp.html" target="_top" xlink:title=" ">
<polygon fill="white" stroke="black" points="2448,-67.5 2448,-119.5 2605,-119.5 2605,-67.5 2448,-67.5"/>
<text text-anchor="start" x="2456" y="-107.5" font-family="Helvetica,sans-Serif" font-size="10.00">src/libs/vtools/tools</text>
<text text-anchor="start" x="2456" y="-96.5" font-family="Helvetica,sans-Serif" font-size="10.00">/drawTools/toolpoint</text>
<text text-anchor="start" x="2456" y="-85.5" font-family="Helvetica,sans-Serif" font-size="10.00">/toolsinglepoint/toollinepoint</text>
<text text-anchor="middle" x="2526.5" y="-74.5" font-family="Helvetica,sans-Serif" font-size="10.00">/vtoolcurveintersectaxis.cpp</text>
</a>
</g>
</g>
<!-- Node1&#45;&gt;Node9 -->
<g id="edge11" class="edge">
<title>Node1&#45;&gt;Node9</title>
<path fill="none" stroke="midnightblue" d="M1461.34,-267.05C1643.45,-259.4 2046.66,-239.26 2101.5,-209 2127.34,-194.74 2115.93,-170.73 2141.5,-156 2256.73,-89.65 2308.22,-146.59 2438.5,-120 2441.62,-119.36 2444.78,-118.67 2447.97,-117.94"/>
<polygon fill="midnightblue" stroke="midnightblue" points="1461.1,-263.56 1451.25,-267.47 1461.39,-270.55 1461.1,-263.56"/>
</g>
<!-- Node10 -->
<g id="node10" class="node">
<title>Node10</title>
<g id="a_node10"><a xlink:href="../../d5/de5/vtoolendline_8h.html" target="_top" xlink:title=" ">
<polygon fill="white" stroke="black" points="905,-156.5 905,-208.5 1062,-208.5 1062,-156.5 905,-156.5"/>
<text text-anchor="start" x="913" y="-196.5" font-family="Helvetica,sans-Serif" font-size="10.00">src/libs/vtools/tools</text>
<text text-anchor="start" x="913" y="-185.5" font-family="Helvetica,sans-Serif" font-size="10.00">/drawTools/toolpoint</text>
<text text-anchor="start" x="913" y="-174.5" font-family="Helvetica,sans-Serif" font-size="10.00">/toolsinglepoint/toollinepoint</text>
<text text-anchor="middle" x="983.5" y="-163.5" font-family="Helvetica,sans-Serif" font-size="10.00">/vtoolendline.h</text>
</a>
</g>
</g>
<!-- Node1&#45;&gt;Node10 -->
<g id="edge12" class="edge">
<title>Node1&#45;&gt;Node10</title>
<path fill="none" stroke="midnightblue" d="M1283.96,-253.61C1224.97,-241.99 1145.84,-225.69 1076.5,-209 1071.78,-207.86 1066.94,-206.66 1062.06,-205.41"/>
<polygon fill="midnightblue" stroke="midnightblue" points="1283.5,-257.09 1293.99,-255.58 1284.85,-250.22 1283.5,-257.09"/>
</g>
<!-- Node11 -->
<g id="node11" class="node">
<title>Node11</title>
<g id="a_node11"><a xlink:href="../../d7/d91/vtoolendline_8cpp.html" target="_top" xlink:title=" ">
<polygon fill="white" stroke="black" points="684,-67.5 684,-119.5 841,-119.5 841,-67.5 684,-67.5"/>
<text text-anchor="start" x="692" y="-107.5" font-family="Helvetica,sans-Serif" font-size="10.00">src/libs/vtools/tools</text>
<text text-anchor="start" x="692" y="-96.5" font-family="Helvetica,sans-Serif" font-size="10.00">/drawTools/toolpoint</text>
<text text-anchor="start" x="692" y="-85.5" font-family="Helvetica,sans-Serif" font-size="10.00">/toolsinglepoint/toollinepoint</text>
<text text-anchor="middle" x="762.5" y="-74.5" font-family="Helvetica,sans-Serif" font-size="10.00">/vtoolendline.cpp</text>
</a>
</g>
</g>
<!-- Node1&#45;&gt;Node11 -->
<g id="edge15" class="edge">
<title>Node1&#45;&gt;Node11</title>
<path fill="none" stroke="midnightblue" d="M1283.72,-265.16C1165.38,-256.99 963.02,-239.11 895.5,-209 849.59,-188.52 807.61,-146.88 783.56,-119.86"/>
<polygon fill="midnightblue" stroke="midnightblue" points="1283.63,-268.66 1293.85,-265.84 1284.11,-261.67 1283.63,-268.66"/>
</g>
<!-- Node12 -->
<g id="node12" class="node">
<title>Node12</title>
<g id="a_node12"><a xlink:href="../../d8/d3f/vtoolheight_8h.html" target="_top" xlink:title=" ">
<polygon fill="white" stroke="black" points="554,-156.5 554,-208.5 711,-208.5 711,-156.5 554,-156.5"/>
<text text-anchor="start" x="562" y="-196.5" font-family="Helvetica,sans-Serif" font-size="10.00">src/libs/vtools/tools</text>
<text text-anchor="start" x="562" y="-185.5" font-family="Helvetica,sans-Serif" font-size="10.00">/drawTools/toolpoint</text>
<text text-anchor="start" x="562" y="-174.5" font-family="Helvetica,sans-Serif" font-size="10.00">/toolsinglepoint/toollinepoint</text>
<text text-anchor="middle" x="632.5" y="-163.5" font-family="Helvetica,sans-Serif" font-size="10.00">/vtoolheight.h</text>
</a>
</g>
</g>
<!-- Node1&#45;&gt;Node12 -->
<g id="edge16" class="edge">
<title>Node1&#45;&gt;Node12</title>
<path fill="none" stroke="midnightblue" d="M1283.84,-263.87C1165.68,-254.5 950.24,-235.5 767.5,-209 749.21,-206.35 729.62,-202.96 711.19,-199.53"/>
<polygon fill="midnightblue" stroke="midnightblue" points="1283.68,-267.37 1293.92,-264.67 1284.23,-260.39 1283.68,-267.37"/>
</g>
<!-- Node13 -->
<g id="node13" class="node">
<title>Node13</title>
<g id="a_node13"><a xlink:href="../../d1/d35/vtoolheight_8cpp.html" target="_top" xlink:title=" ">
<polygon fill="white" stroke="black" points="342,-67.5 342,-119.5 499,-119.5 499,-67.5 342,-67.5"/>
<text text-anchor="start" x="350" y="-107.5" font-family="Helvetica,sans-Serif" font-size="10.00">src/libs/vtools/tools</text>
<text text-anchor="start" x="350" y="-96.5" font-family="Helvetica,sans-Serif" font-size="10.00">/drawTools/toolpoint</text>
<text text-anchor="start" x="350" y="-85.5" font-family="Helvetica,sans-Serif" font-size="10.00">/toolsinglepoint/toollinepoint</text>
<text text-anchor="middle" x="420.5" y="-74.5" font-family="Helvetica,sans-Serif" font-size="10.00">/vtoolheight.cpp</text>
</a>
</g>
</g>
<!-- Node1&#45;&gt;Node13 -->
<g id="edge20" class="edge">
<title>Node1&#45;&gt;Node13</title>
<path fill="none" stroke="midnightblue" d="M1283.67,-271.22C1098,-271.54 675.21,-265.79 544.5,-209 499.89,-189.62 460.99,-147.23 439.16,-119.82"/>
<polygon fill="midnightblue" stroke="midnightblue" points="1283.68,-274.72 1293.67,-271.19 1283.66,-267.72 1283.68,-274.72"/>
</g>
<!-- Node15 -->
<g id="node15" class="node">
<title>Node15</title>
<g id="a_node15"><a xlink:href="../../de/d1f/vtoollineintersectaxis_8h.html" target="_top" xlink:title=" ">
<polygon fill="white" stroke="black" points="1119,-156.5 1119,-208.5 1276,-208.5 1276,-156.5 1119,-156.5"/>
<text text-anchor="start" x="1127" y="-196.5" font-family="Helvetica,sans-Serif" font-size="10.00">src/libs/vtools/tools</text>
<text text-anchor="start" x="1127" y="-185.5" font-family="Helvetica,sans-Serif" font-size="10.00">/drawTools/toolpoint</text>
<text text-anchor="start" x="1127" y="-174.5" font-family="Helvetica,sans-Serif" font-size="10.00">/toolsinglepoint/toollinepoint</text>
<text text-anchor="middle" x="1197.5" y="-163.5" font-family="Helvetica,sans-Serif" font-size="10.00">/vtoollineintersectaxis.h</text>
</a>
</g>
</g>
<!-- Node1&#45;&gt;Node15 -->
<g id="edge21" class="edge">
<title>Node1&#45;&gt;Node15</title>
<path fill="none" stroke="midnightblue" d="M1312.71,-240.78C1291.66,-230.31 1268.22,-218.66 1248,-208.61"/>
<polygon fill="midnightblue" stroke="midnightblue" points="1311.37,-244.02 1321.88,-245.34 1314.49,-237.75 1311.37,-244.02"/>
</g>
<!-- Node16 -->
<g id="node16" class="node">
<title>Node16</title>
<g id="a_node16"><a xlink:href="../../db/d82/vtoollineintersectaxis_8cpp.html" target="_top" xlink:title=" ">
<polygon fill="white" stroke="black" points="859,-67.5 859,-119.5 1016,-119.5 1016,-67.5 859,-67.5"/>
<text text-anchor="start" x="867" y="-107.5" font-family="Helvetica,sans-Serif" font-size="10.00">src/libs/vtools/tools</text>
<text text-anchor="start" x="867" y="-96.5" font-family="Helvetica,sans-Serif" font-size="10.00">/drawTools/toolpoint</text>
<text text-anchor="start" x="867" y="-85.5" font-family="Helvetica,sans-Serif" font-size="10.00">/toolsinglepoint/toollinepoint</text>
<text text-anchor="middle" x="937.5" y="-74.5" font-family="Helvetica,sans-Serif" font-size="10.00">/vtoollineintersectaxis.cpp</text>
</a>
</g>
</g>
<!-- Node1&#45;&gt;Node16 -->
<g id="edge25" class="edge">
<title>Node1&#45;&gt;Node16</title>
<path fill="none" stroke="midnightblue" d="M1283.52,-265.18C1229.47,-258.36 1161.17,-243.08 1109.5,-209 1085.09,-192.9 1093.15,-174.5 1070.5,-156 1052.27,-141.12 1029.85,-128.96 1008.65,-119.5"/>
<polygon fill="midnightblue" stroke="midnightblue" points="1283.44,-268.69 1293.79,-266.39 1284.27,-261.74 1283.44,-268.69"/>
</g>
<!-- Node18 -->
<g id="node18" class="node">
<title>Node18</title>
<g id="a_node18"><a xlink:href="../../d7/df1/vtoollinepoint_8cpp.html" target="_top" xlink:title=" ">
<polygon fill="white" stroke="black" points="2150,-156.5 2150,-208.5 2307,-208.5 2307,-156.5 2150,-156.5"/>
<text text-anchor="start" x="2158" y="-196.5" font-family="Helvetica,sans-Serif" font-size="10.00">src/libs/vtools/tools</text>
<text text-anchor="start" x="2158" y="-185.5" font-family="Helvetica,sans-Serif" font-size="10.00">/drawTools/toolpoint</text>
<text text-anchor="start" x="2158" y="-174.5" font-family="Helvetica,sans-Serif" font-size="10.00">/toolsinglepoint/toollinepoint</text>
<text text-anchor="middle" x="2228.5" y="-163.5" font-family="Helvetica,sans-Serif" font-size="10.00">/vtoollinepoint.cpp</text>
</a>
</g>
</g>
<!-- Node1&#45;&gt;Node18 -->
<g id="edge26" class="edge">
<title>Node1&#45;&gt;Node18</title>
<path fill="none" stroke="midnightblue" d="M1461.13,-268.73C1604.07,-264.67 1893.92,-251.47 2135.5,-209 2140.2,-208.17 2145,-207.22 2149.84,-206.16"/>
<polygon fill="midnightblue" stroke="midnightblue" points="1461,-265.23 1451.1,-269 1461.19,-272.23 1461,-265.23"/>
</g>
<!-- Node19 -->
<g id="node19" class="node">
<title>Node19</title>
<g id="a_node19"><a xlink:href="../../da/d73/vtoolnormal_8h.html" target="_top" xlink:title=" ">
<polygon fill="white" stroke="black" points="1294,-156.5 1294,-208.5 1451,-208.5 1451,-156.5 1294,-156.5"/>
<text text-anchor="start" x="1302" y="-196.5" font-family="Helvetica,sans-Serif" font-size="10.00">src/libs/vtools/tools</text>
<text text-anchor="start" x="1302" y="-185.5" font-family="Helvetica,sans-Serif" font-size="10.00">/drawTools/toolpoint</text>
<text text-anchor="start" x="1302" y="-174.5" font-family="Helvetica,sans-Serif" font-size="10.00">/toolsinglepoint/toollinepoint</text>
<text text-anchor="middle" x="1372.5" y="-163.5" font-family="Helvetica,sans-Serif" font-size="10.00">/vtoolnormal.h</text>
</a>
</g>
</g>
<!-- Node1&#45;&gt;Node19 -->
<g id="edge27" class="edge">
<title>Node1&#45;&gt;Node19</title>
<path fill="none" stroke="midnightblue" d="M1372.5,-235.19C1372.5,-226.28 1372.5,-216.9 1372.5,-208.61"/>
<polygon fill="midnightblue" stroke="midnightblue" points="1369,-235.34 1372.5,-245.34 1376,-235.34 1369,-235.34"/>
</g>
<!-- Node20 -->
<g id="node20" class="node">
<title>Node20</title>
<g id="a_node20"><a xlink:href="../../d4/ddb/vtoolnormal_8cpp.html" target="_top" xlink:title=" ">
<polygon fill="white" stroke="black" points="1541,-67.5 1541,-119.5 1698,-119.5 1698,-67.5 1541,-67.5"/>
<text text-anchor="start" x="1549" y="-107.5" font-family="Helvetica,sans-Serif" font-size="10.00">src/libs/vtools/tools</text>
<text text-anchor="start" x="1549" y="-96.5" font-family="Helvetica,sans-Serif" font-size="10.00">/drawTools/toolpoint</text>
<text text-anchor="start" x="1549" y="-85.5" font-family="Helvetica,sans-Serif" font-size="10.00">/toolsinglepoint/toollinepoint</text>
<text text-anchor="middle" x="1619.5" y="-74.5" font-family="Helvetica,sans-Serif" font-size="10.00">/vtoolnormal.cpp</text>
</a>
</g>
</g>
<!-- Node1&#45;&gt;Node20 -->
<g id="edge31" class="edge">
<title>Node1&#45;&gt;Node20</title>
<path fill="none" stroke="midnightblue" d="M1421.93,-239.68C1434.82,-230.57 1448.24,-220.05 1459.5,-209 1480.38,-188.52 1476.19,-174.91 1498.5,-156 1515.66,-141.45 1536.86,-129.19 1556.69,-119.55"/>
<polygon fill="midnightblue" stroke="midnightblue" points="1419.81,-236.89 1413.57,-245.45 1423.79,-242.65 1419.81,-236.89"/>
</g>
<!-- Node22 -->
<g id="node22" class="node">
<title>Node22</title>
<g id="a_node22"><a xlink:href="../../d5/deb/vtoolshoulderpoint_8h.html" target="_top" xlink:title=" ">
<polygon fill="white" stroke="black" points="1722,-156.5 1722,-208.5 1879,-208.5 1879,-156.5 1722,-156.5"/>
<text text-anchor="start" x="1730" y="-196.5" font-family="Helvetica,sans-Serif" font-size="10.00">src/libs/vtools/tools</text>
<text text-anchor="start" x="1730" y="-185.5" font-family="Helvetica,sans-Serif" font-size="10.00">/drawTools/toolpoint</text>
<text text-anchor="start" x="1730" y="-174.5" font-family="Helvetica,sans-Serif" font-size="10.00">/toolsinglepoint/toollinepoint</text>
<text text-anchor="middle" x="1800.5" y="-163.5" font-family="Helvetica,sans-Serif" font-size="10.00">/vtoolshoulderpoint.h</text>
</a>
</g>
</g>
<!-- Node1&#45;&gt;Node22 -->
<g id="edge32" class="edge">
<title>Node1&#45;&gt;Node22</title>
<path fill="none" stroke="midnightblue" d="M1461.28,-256.34C1529.05,-245.02 1624.57,-227.95 1707.5,-209 1712.23,-207.92 1717.09,-206.76 1721.97,-205.54"/>
<polygon fill="midnightblue" stroke="midnightblue" points="1460.36,-252.95 1451.07,-258.04 1461.51,-259.85 1460.36,-252.95"/>
</g>
<!-- Node23 -->
<g id="node23" class="node">
<title>Node23</title>
<g id="a_node23"><a xlink:href="../../dd/dab/vtoolshoulderpoint_8cpp.html" target="_top" xlink:title=" ">
<polygon fill="white" stroke="black" points="2070,-67.5 2070,-119.5 2227,-119.5 2227,-67.5 2070,-67.5"/>
<text text-anchor="start" x="2078" y="-107.5" font-family="Helvetica,sans-Serif" font-size="10.00">src/libs/vtools/tools</text>
<text text-anchor="start" x="2078" y="-96.5" font-family="Helvetica,sans-Serif" font-size="10.00">/drawTools/toolpoint</text>
<text text-anchor="start" x="2078" y="-85.5" font-family="Helvetica,sans-Serif" font-size="10.00">/toolsinglepoint/toollinepoint</text>
<text text-anchor="middle" x="2148.5" y="-74.5" font-family="Helvetica,sans-Serif" font-size="10.00">/vtoolshoulderpoint.cpp</text>
</a>
</g>
</g>
<!-- Node1&#45;&gt;Node23 -->
<g id="edge36" class="edge">
<title>Node1&#45;&gt;Node23</title>
<path fill="none" stroke="midnightblue" d="M1461.39,-268.31C1589.17,-263.76 1817.15,-250 1887.5,-209 1912.77,-194.28 1902.35,-172.5 1926.5,-156 1977.42,-121.21 2001.1,-136.58 2060.5,-120 2063.56,-119.14 2066.69,-118.27 2069.84,-117.38"/>
<polygon fill="midnightblue" stroke="midnightblue" points="1461.11,-264.82 1451.24,-268.66 1461.35,-271.81 1461.11,-264.82"/>
</g>
<!-- Node25 -->
<g id="node25" class="node">
<title>Node25</title>
<g id="a_node25"><a xlink:href="../../d7/d6b/vtoolcurveintersectaxis_8h.html" target="_top" xlink:title=" ">
<polygon fill="white" stroke="black" points="1936,-156.5 1936,-208.5 2093,-208.5 2093,-156.5 1936,-156.5"/>
<text text-anchor="start" x="1944" y="-196.5" font-family="Helvetica,sans-Serif" font-size="10.00">src/libs/vtools/tools</text>
<text text-anchor="start" x="1944" y="-185.5" font-family="Helvetica,sans-Serif" font-size="10.00">/drawTools/toolpoint</text>
<text text-anchor="start" x="1944" y="-174.5" font-family="Helvetica,sans-Serif" font-size="10.00">/toolsinglepoint/toollinepoint</text>
<text text-anchor="middle" x="2014.5" y="-163.5" font-family="Helvetica,sans-Serif" font-size="10.00">/vtoolcurveintersectaxis.h</text>
</a>
</g>
</g>
<!-- Node1&#45;&gt;Node25 -->
<g id="edge37" class="edge">
<title>Node1&#45;&gt;Node25</title>
<path fill="none" stroke="midnightblue" d="M1461.24,-264.84C1570.32,-256.9 1760.74,-239.85 1921.5,-209 1926.19,-208.1 1930.98,-207.09 1935.8,-205.99"/>
<polygon fill="midnightblue" stroke="midnightblue" points="1460.99,-261.35 1451.26,-265.56 1461.49,-268.33 1460.99,-261.35"/>
</g>
<!-- Node3 -->
<g id="node3" class="node">
<title>Node3</title>
<g id="a_node3"><a xlink:href="../../d4/d56/drawtools_8h.html" target="_top" xlink:title=" ">
<polygon fill="white" stroke="black" points="1227.5,-78.5 1227.5,-108.5 1355.5,-108.5 1355.5,-78.5 1227.5,-78.5"/>
<text text-anchor="start" x="1235.5" y="-96.5" font-family="Helvetica,sans-Serif" font-size="10.00">src/libs/vtools/tools</text>
<text text-anchor="middle" x="1291.5" y="-85.5" font-family="Helvetica,sans-Serif" font-size="10.00">/drawTools/drawtools.h</text>
</a>
</g>
</g>
<!-- Node2&#45;&gt;Node3 -->
<g id="edge2" class="edge">
<title>Node2&#45;&gt;Node3</title>
<path fill="none" stroke="midnightblue" d="M1498.13,-158.45C1457.28,-147.43 1408.23,-133.68 1364.5,-120 1353.35,-116.51 1341.35,-112.45 1330.36,-108.61"/>
<polygon fill="midnightblue" stroke="midnightblue" points="1497.23,-161.83 1507.79,-161.05 1499.04,-155.07 1497.23,-161.83"/>
</g>
<!-- Node2&#45;&gt;Node5 -->
<g id="edge4" class="edge">
<title>Node2&#45;&gt;Node5</title>
<path fill="none" stroke="midnightblue" d="M1655.65,-152.58C1681.23,-141.88 1710,-129.85 1734.68,-119.52"/>
<polygon fill="midnightblue" stroke="midnightblue" points="1654.26,-149.36 1646.38,-156.45 1656.96,-155.82 1654.26,-149.36"/>
</g>
<!-- Node4 -->
<g id="node4" class="node">
<title>Node4</title>
<g id="a_node4"><a xlink:href="../../d5/da5/tools_8h.html" target="_top" xlink:title=" ">
<polygon fill="white" stroke="black" points="1236,-0.5 1236,-30.5 1347,-30.5 1347,-0.5 1236,-0.5"/>
<text text-anchor="start" x="1244" y="-18.5" font-family="Helvetica,sans-Serif" font-size="10.00">src/libs/vtools/tools</text>
<text text-anchor="middle" x="1291.5" y="-7.5" font-family="Helvetica,sans-Serif" font-size="10.00">/tools.h</text>
</a>
</g>
</g>
<!-- Node3&#45;&gt;Node4 -->
<g id="edge3" class="edge">
<title>Node3&#45;&gt;Node4</title>
<path fill="none" stroke="midnightblue" d="M1291.5,-68.09C1291.5,-55.76 1291.5,-41.22 1291.5,-30.73"/>
<polygon fill="midnightblue" stroke="midnightblue" points="1288,-68.2 1291.5,-78.2 1295,-68.21 1288,-68.2"/>
</g>
<!-- Node6&#45;&gt;Node3 -->
<g id="edge7" class="edge">
<title>Node6&#45;&gt;Node3</title>
<path fill="none" stroke="midnightblue" d="M435.29,-168.63C469.38,-164.07 508.69,-159.26 544.5,-156 842.81,-128.85 923.5,-177.35 1217.5,-120 1230.7,-117.42 1244.76,-113.03 1257.04,-108.6"/>
<polygon fill="midnightblue" stroke="midnightblue" points="434.8,-165.16 425.36,-169.97 435.74,-172.1 434.8,-165.16"/>
</g>
<!-- Node6&#45;&gt;Node7 -->
<g id="edge8" class="edge">
<title>Node6&#45;&gt;Node7</title>
<path fill="none" stroke="midnightblue" d="M259.56,-153.28C226.07,-142.4 188.08,-130.07 155.58,-119.52"/>
<polygon fill="midnightblue" stroke="midnightblue" points="258.75,-156.69 269.34,-156.45 260.91,-150.04 258.75,-156.69"/>
</g>
<!-- Node8 -->
<g id="node8" class="node">
<title>Node8</title>
<g id="a_node8"><a xlink:href="../../df/d33/vistoolbisector_8cpp.html" target="_top" xlink:title=" ">
<polygon fill="white" stroke="black" points="175,-78.5 175,-108.5 324,-108.5 324,-78.5 175,-78.5"/>
<text text-anchor="start" x="183" y="-96.5" font-family="Helvetica,sans-Serif" font-size="10.00">src/libs/vtools/visualization</text>
<text text-anchor="middle" x="249.5" y="-85.5" font-family="Helvetica,sans-Serif" font-size="10.00">/line/vistoolbisector.cpp</text>
</a>
</g>
</g>
<!-- Node6&#45;&gt;Node8 -->
<g id="edge9" class="edge">
<title>Node6&#45;&gt;Node8</title>
<path fill="none" stroke="midnightblue" d="M310.9,-149.57C295.16,-135.45 277.46,-119.58 265.13,-108.52"/>
<polygon fill="midnightblue" stroke="midnightblue" points="308.66,-152.26 318.44,-156.34 313.34,-147.05 308.66,-152.26"/>
</g>
<!-- Node10&#45;&gt;Node3 -->
<g id="edge13" class="edge">
<title>Node10&#45;&gt;Node3</title>
<path fill="none" stroke="midnightblue" d="M1071.98,-159.91C1115.95,-148.76 1169.76,-134.48 1217.5,-120 1228.94,-116.53 1241.26,-112.43 1252.51,-108.55"/>
<polygon fill="midnightblue" stroke="midnightblue" points="1071.02,-156.54 1062.18,-162.38 1072.73,-163.33 1071.02,-156.54"/>
</g>
<!-- Node10&#45;&gt;Node11 -->
<g id="edge14" class="edge">
<title>Node10&#45;&gt;Node11</title>
<path fill="none" stroke="midnightblue" d="M910.38,-152.72C883.11,-141.98 852.4,-129.89 826.06,-119.52"/>
<polygon fill="midnightblue" stroke="midnightblue" points="909.29,-156.05 919.87,-156.45 911.85,-149.53 909.29,-156.05"/>
</g>
<!-- Node12&#45;&gt;Node3 -->
<g id="edge17" class="edge">
<title>Node12&#45;&gt;Node3</title>
<path fill="none" stroke="midnightblue" d="M721.45,-172.68C879.19,-156.97 1193.67,-125.29 1217.5,-120 1230.24,-117.17 1243.83,-112.88 1255.84,-108.62"/>
<polygon fill="midnightblue" stroke="midnightblue" points="720.89,-169.22 711.29,-173.7 721.59,-176.19 720.89,-169.22"/>
</g>
<!-- Node12&#45;&gt;Node13 -->
<g id="edge18" class="edge">
<title>Node12&#45;&gt;Node13</title>
<path fill="none" stroke="midnightblue" d="M562.02,-152.58C535.95,-141.88 506.63,-129.85 481.47,-119.52"/>
<polygon fill="midnightblue" stroke="midnightblue" points="560.89,-155.89 571.47,-156.45 563.54,-149.42 560.89,-155.89"/>
</g>
<!-- Node14 -->
<g id="node14" class="node">
<title>Node14</title>
<g id="a_node14"><a xlink:href="../../d5/dc6/vistoolheight_8cpp.html" target="_top" xlink:title=" ">
<polygon fill="white" stroke="black" points="517,-78.5 517,-108.5 666,-108.5 666,-78.5 517,-78.5"/>
<text text-anchor="start" x="525" y="-96.5" font-family="Helvetica,sans-Serif" font-size="10.00">src/libs/vtools/visualization</text>
<text text-anchor="middle" x="591.5" y="-85.5" font-family="Helvetica,sans-Serif" font-size="10.00">/line/vistoolheight.cpp</text>
</a>
</g>
</g>
<!-- Node12&#45;&gt;Node14 -->
<g id="edge19" class="edge">
<title>Node12&#45;&gt;Node14</title>
<path fill="none" stroke="midnightblue" d="M616.2,-146.92C609.93,-133.61 603.11,-119.13 598.22,-108.77"/>
<polygon fill="midnightblue" stroke="midnightblue" points="613.21,-148.78 620.64,-156.34 619.54,-145.8 613.21,-148.78"/>
</g>
<!-- Node15&#45;&gt;Node3 -->
<g id="edge22" class="edge">
<title>Node15&#45;&gt;Node3</title>
<path fill="none" stroke="midnightblue" d="M1232.41,-149.19C1247.56,-135.17 1264.51,-119.48 1276.36,-108.52"/>
<polygon fill="midnightblue" stroke="midnightblue" points="1229.65,-146.97 1224.69,-156.34 1234.41,-152.11 1229.65,-146.97"/>
</g>
<!-- Node15&#45;&gt;Node16 -->
<g id="edge23" class="edge">
<title>Node15&#45;&gt;Node16</title>
<path fill="none" stroke="midnightblue" d="M1113.16,-153.28C1080.66,-142.4 1043.81,-130.07 1012.28,-119.52"/>
<polygon fill="midnightblue" stroke="midnightblue" points="1112.05,-156.6 1122.65,-156.45 1114.27,-149.96 1112.05,-156.6"/>
</g>
<!-- Node17 -->
<g id="node17" class="node">
<title>Node17</title>
<g id="a_node17"><a xlink:href="../../d0/ddf/vistoollineintersectaxis_8cpp.html" target="_top" xlink:title=" ">
<polygon fill="white" stroke="black" points="1034,-78.5 1034,-108.5 1209,-108.5 1209,-78.5 1034,-78.5"/>
<text text-anchor="start" x="1042" y="-96.5" font-family="Helvetica,sans-Serif" font-size="10.00">src/libs/vtools/visualization</text>
<text text-anchor="middle" x="1121.5" y="-85.5" font-family="Helvetica,sans-Serif" font-size="10.00">/line/vistoollineintersectaxis.cpp</text>
</a>
</g>
</g>
<!-- Node15&#45;&gt;Node17 -->
<g id="edge24" class="edge">
<title>Node15&#45;&gt;Node17</title>
<path fill="none" stroke="midnightblue" d="M1168.64,-148.47C1156.65,-134.74 1143.36,-119.53 1133.96,-108.77"/>
<polygon fill="midnightblue" stroke="midnightblue" points="1166.3,-151.11 1175.52,-156.34 1171.57,-146.5 1166.3,-151.11"/>
</g>
<!-- Node19&#45;&gt;Node3 -->
<g id="edge28" class="edge">
<title>Node19&#45;&gt;Node3</title>
<path fill="none" stroke="midnightblue" d="M1342.1,-148.85C1329.23,-135.02 1314.9,-119.63 1304.78,-108.77"/>
<polygon fill="midnightblue" stroke="midnightblue" points="1339.7,-151.4 1349.07,-156.34 1344.82,-146.63 1339.7,-151.4"/>
</g>
<!-- Node19&#45;&gt;Node20 -->
<g id="edge29" class="edge">
<title>Node19&#45;&gt;Node20</title>
<path fill="none" stroke="midnightblue" d="M1453.42,-153C1484.1,-142.19 1518.76,-129.98 1548.46,-119.52"/>
<polygon fill="midnightblue" stroke="midnightblue" points="1451.88,-149.83 1443.61,-156.45 1454.21,-156.43 1451.88,-149.83"/>
</g>
<!-- Node21 -->
<g id="node21" class="node">
<title>Node21</title>
<g id="a_node21"><a xlink:href="../../db/ded/vistoolnormal_8cpp.html" target="_top" xlink:title=" ">
<polygon fill="white" stroke="black" points="1374,-78.5 1374,-108.5 1523,-108.5 1523,-78.5 1374,-78.5"/>
<text text-anchor="start" x="1382" y="-96.5" font-family="Helvetica,sans-Serif" font-size="10.00">src/libs/vtools/visualization</text>
<text text-anchor="middle" x="1448.5" y="-85.5" font-family="Helvetica,sans-Serif" font-size="10.00">/line/vistoolnormal.cpp</text>
</a>
</g>
</g>
<!-- Node19&#45;&gt;Node21 -->
<g id="edge30" class="edge">
<title>Node19&#45;&gt;Node21</title>
<path fill="none" stroke="midnightblue" d="M1401.36,-148.47C1413.35,-134.74 1426.64,-119.53 1436.04,-108.77"/>
<polygon fill="midnightblue" stroke="midnightblue" points="1398.43,-146.5 1394.48,-156.34 1403.7,-151.11 1398.43,-146.5"/>
</g>
<!-- Node22&#45;&gt;Node3 -->
<g id="edge33" class="edge">
<title>Node22&#45;&gt;Node3</title>
<path fill="none" stroke="midnightblue" d="M1711.59,-162.69C1698.84,-160.27 1685.86,-157.96 1673.5,-156 1536.94,-134.37 1499.25,-150.99 1364.5,-120 1351.94,-117.11 1338.53,-112.8 1326.68,-108.55"/>
<polygon fill="midnightblue" stroke="midnightblue" points="1711.27,-166.19 1721.76,-164.64 1712.6,-159.31 1711.27,-166.19"/>
</g>
<!-- Node22&#45;&gt;Node23 -->
<g id="edge34" class="edge">
<title>Node22&#45;&gt;Node23</title>
<path fill="none" stroke="midnightblue" d="M1889.04,-157.1C1890.54,-156.73 1892.03,-156.36 1893.5,-156 1967.25,-137.95 1986.88,-138.58 2060.5,-120 2063.58,-119.22 2066.72,-118.41 2069.89,-117.57"/>
<polygon fill="midnightblue" stroke="midnightblue" points="1887.9,-153.78 1879.07,-159.63 1889.62,-160.57 1887.9,-153.78"/>
</g>
<!-- Node24 -->
<g id="node24" class="node">
<title>Node24</title>
<g id="a_node24"><a xlink:href="../../d8/db4/vistoolshoulderpoint_8cpp.html" target="_top" xlink:title=" ">
<polygon fill="white" stroke="black" points="1891,-78.5 1891,-108.5 2052,-108.5 2052,-78.5 1891,-78.5"/>
<text text-anchor="start" x="1899" y="-96.5" font-family="Helvetica,sans-Serif" font-size="10.00">src/libs/vtools/visualization</text>
<text text-anchor="middle" x="1971.5" y="-85.5" font-family="Helvetica,sans-Serif" font-size="10.00">/line/vistoolshoulderpoint.cpp</text>
</a>
</g>
</g>
<!-- Node22&#45;&gt;Node24 -->
<g id="edge35" class="edge">
<title>Node22&#45;&gt;Node24</title>
<path fill="none" stroke="midnightblue" d="M1859.12,-151.68C1887.86,-137.05 1921.12,-120.13 1943.95,-108.52"/>
<polygon fill="midnightblue" stroke="midnightblue" points="1857.29,-148.68 1849.96,-156.34 1860.46,-154.92 1857.29,-148.68"/>
</g>
<!-- Node25&#45;&gt;Node3 -->
<g id="edge38" class="edge">
<title>Node25&#45;&gt;Node3</title>
<path fill="none" stroke="midnightblue" d="M1925.67,-162.15C1912.91,-159.81 1899.9,-157.66 1887.5,-156 1656.58,-125 1592.74,-166.84 1364.5,-120 1351.61,-117.36 1337.89,-113 1325.87,-108.63"/>
<polygon fill="midnightblue" stroke="midnightblue" points="1925.37,-165.65 1935.84,-164.06 1926.66,-158.77 1925.37,-165.65"/>
</g>
<!-- Node25&#45;&gt;Node9 -->
<g id="edge39" class="edge">
<title>Node25&#45;&gt;Node9</title>
<path fill="none" stroke="midnightblue" d="M2103.08,-156.87C2104.56,-156.57 2106.04,-156.28 2107.5,-156 2252.87,-128.35 2293.33,-148.7 2438.5,-120 2441.62,-119.38 2444.79,-118.71 2447.98,-117.98"/>
<polygon fill="midnightblue" stroke="midnightblue" points="2102.24,-153.47 2093.19,-158.99 2103.71,-160.31 2102.24,-153.47"/>
</g>
<!-- Node26 -->
<g id="node26" class="node">
<title>Node26</title>
<g id="a_node26"><a xlink:href="../../db/dd5/vistoolcurveintersectaxis_8cpp.html" target="_top" xlink:title=" ">
<polygon fill="white" stroke="black" points="2245.5,-78.5 2245.5,-108.5 2429.5,-108.5 2429.5,-78.5 2245.5,-78.5"/>
<text text-anchor="start" x="2253.5" y="-96.5" font-family="Helvetica,sans-Serif" font-size="10.00">src/libs/vtools/visualization</text>
<text text-anchor="middle" x="2337.5" y="-85.5" font-family="Helvetica,sans-Serif" font-size="10.00">/line/vistoolcurveintersectaxis.cpp</text>
</a>
</g>
</g>
<!-- Node25&#45;&gt;Node26 -->
<g id="edge40" class="edge">
<title>Node25&#45;&gt;Node26</title>
<path fill="none" stroke="midnightblue" d="M2103.07,-157.2C2104.56,-156.8 2106.04,-156.4 2107.5,-156 2168.14,-139.58 2237.86,-120.98 2284.49,-108.57"/>
<polygon fill="midnightblue" stroke="midnightblue" points="2101.87,-153.9 2093.14,-159.9 2103.7,-160.66 2101.87,-153.9"/>
</g>
</g>
</svg>
        <g id="navigator" transform="translate(0 0)" fill="#404254">
                <rect fill="#f2f5e9" fill-opacity="0.5" stroke="#606060" stroke-width=".5" x="0" y="0" width="60" height="60"/>
                <use id="zoomplus" xlink:href="#zoomPlus" x="17" y="9" onmousedown="handleZoom(evt,'in')"/>
                <use id="zoomminus" xlink:href="#zoomMin" x="42" y="9" onmousedown="handleZoom(evt,'out')"/>
                <use id="reset" xlink:href="#resetDef" x="30" y="36" onmousedown="handleReset()"/>
                <g id="arrowUp" xlink:href="#dirArrow" transform="translate(30 24)" onmousedown="handlePan(0,-1)">
                  <use xlink:href="#rim" fill="#404040">
                        <set attributeName="fill" to="#808080" begin="arrowUp.mouseover" end="arrowUp.mouseout"/>
                  </use>
                  <path fill="none" stroke="white" stroke-width="1.5" d="M0,-3.0v7 M-2.5,-0.5L0,-3.0L2.5,-0.5"/>
                </g>
                <g id="arrowRight" xlink:href="#dirArrow" transform="rotate(90) translate(36 -43)" onmousedown="handlePan(1,0)">
                  <use xlink:href="#rim" fill="#404040">
                        <set attributeName="fill" to="#808080" begin="arrowRight.mouseover" end="arrowRight.mouseout"/>
                  </use>
                  <path fill="none" stroke="white" stroke-width="1.5" d="M0,-3.0v7 M-2.5,-0.5L0,-3.0L2.5,-0.5"/>
                </g>
                <g id="arrowDown" xlink:href="#dirArrow" transform="rotate(180) translate(-30 -48)" onmousedown="handlePan(0,1)">
                  <use xlink:href="#rim" fill="#404040">
                        <set attributeName="fill" to="#808080" begin="arrowDown.mouseover" end="arrowDown.mouseout"/>
                  </use>
                  <path fill="none" stroke="white" stroke-width="1.5" d="M0,-3.0v7 M-2.5,-0.5L0,-3.0L2.5,-0.5"/>
                </g>
                <g id="arrowLeft" xlink:href="#dirArrow" transform="rotate(270) translate(-36 17)" onmousedown="handlePan(-1,0)">
                  <use xlink:href="#rim" fill="#404040">
                        <set attributeName="fill" to="#808080" begin="arrowLeft.mouseover" end="arrowLeft.mouseout"/>
                  </use>
                  <path fill="none" stroke="white" stroke-width="1.5" d="M0,-3.0v7 M-2.5,-0.5L0,-3.0L2.5,-0.5"/>
                </g>
        </g>
        <svg viewBox="0 0 15 15" width="100%" height="30px" preserveAspectRatio="xMaxYMin meet">
         <g id="arrow_out" transform="scale(0.3 0.3)">
          <a xlink:href="vtoollinepoint_8h__dep__incl_org.svg" target="_base">
           <rect id="button" ry="5" rx="5" y="6" x="6" height="38" width="38"
                fill="#f2f5e9" fill-opacity="0.5" stroke="#606060" stroke-width="1.0"/>
           <path id="arrow"
             d="M 11.500037,31.436501 C 11.940474,20.09759 22.043105,11.32322 32.158766,21.979434 L 37.068811,17.246167 C 37.068811,17.246167 37.088388,32 37.088388,32 L 22.160133,31.978069 C 22.160133,31.978069 26.997745,27.140456 26.997745,27.140456 C 18.528582,18.264221 13.291696,25.230495 11.500037,31.436501 z"
             style="fill:#404040;"/>
          </a>
         </g>
        </svg>
</svg>
