<?xml version="1.0" encoding="UTF-8" standalone="no"?>
<!DOCTYPE svg PUBLIC "-//W3C//DTD SVG 1.1//EN"
 "http://www.w3.org/Graphics/SVG/1.1/DTD/svg11.dtd">
<!-- Generated by graphviz version 2.43.0 (0)
 -->
<!-- Title: src/libs/vpatterndb/variables/vincrement.h Pages: 1 -->
<svg width="5910pt" height="374pt"
 viewBox="0.00 0.00 5909.82 374.00" xmlns="http://www.w3.org/2000/svg" xmlns:xlink="http://www.w3.org/1999/xlink">
<g id="graph0" class="graph" transform="scale(1 1) rotate(0) translate(4 370)">
<title>src/libs/vpatterndb/variables/vincrement.h</title>
<polygon fill="white" stroke="transparent" points="-4,4 -4,-370 5905.82,-370 5905.82,4 -4,4"/>
<!-- Node1 -->
<g id="node1" class="node">
<title>Node1</title>
<g id="a_node1"><a xlink:title=" ">
<polygon fill="#bfbfbf" stroke="black" points="4889.5,-335.5 4889.5,-365.5 5021.5,-365.5 5021.5,-335.5 4889.5,-335.5"/>
<text text-anchor="start" x="4897.5" y="-353.5" font-family="Helvetica,sans-Serif" font-size="10.00">src/libs/vpatterndb</text>
<text text-anchor="middle" x="4955.5" y="-342.5" font-family="Helvetica,sans-Serif" font-size="10.00">/variables/vincrement.h</text>
</a>
</g>
</g>
<!-- Node2 -->
<g id="node2" class="node">
<title>Node2</title>
<g id="a_node2"><a xlink:href="../../d6/de6/vincrement_8cpp.html" target="_top" xlink:title=" ">
<polygon fill="white" stroke="black" points="0,-67.5 0,-97.5 143,-97.5 143,-67.5 0,-67.5"/>
<text text-anchor="start" x="8" y="-85.5" font-family="Helvetica,sans-Serif" font-size="10.00">src/libs/vpatterndb</text>
<text text-anchor="middle" x="71.5" y="-74.5" font-family="Helvetica,sans-Serif" font-size="10.00">/variables/vincrement.cpp</text>
</a>
</g>
</g>
<!-- Node1&#45;&gt;Node2 -->
<g id="edge1" class="edge">
<title>Node1&#45;&gt;Node2</title>
<path fill="none" stroke="midnightblue" d="M4879.18,-347.89C4364.67,-336.78 1395.94,-268.96 497.5,-165 364.92,-149.66 211.71,-116.49 130,-97.54"/>
<polygon fill="midnightblue" stroke="midnightblue" points="4879.38,-351.39 4889.45,-348.11 4879.53,-344.39 4879.38,-351.39"/>
</g>
<!-- Node3 -->
<g id="node3" class="node">
<title>Node3</title>
<g id="a_node3"><a xlink:href="../../de/dca/variables_8h.html" target="_top" xlink:title=" ">
<polygon fill="white" stroke="black" points="4902,-268.5 4902,-298.5 5009,-298.5 5009,-268.5 4902,-268.5"/>
<text text-anchor="start" x="4910" y="-286.5" font-family="Helvetica,sans-Serif" font-size="10.00">src/libs/vpatterndb</text>
<text text-anchor="middle" x="4955.5" y="-275.5" font-family="Helvetica,sans-Serif" font-size="10.00">/variables.h</text>
</a>
</g>
</g>
<!-- Node1&#45;&gt;Node3 -->
<g id="edge2" class="edge">
<title>Node1&#45;&gt;Node3</title>
<path fill="none" stroke="midnightblue" d="M4955.5,-325.11C4955.5,-316.15 4955.5,-306.32 4955.5,-298.58"/>
<polygon fill="midnightblue" stroke="midnightblue" points="4952,-325.4 4955.5,-335.4 4959,-325.4 4952,-325.4"/>
</g>
<!-- Node37 -->
<g id="node32" class="node">
<title>Node37</title>
<g id="a_node32"><a xlink:href="../../d6/d46/vcontainer_8cpp.html" target="_top" xlink:title=" ">
<polygon fill="white" stroke="black" points="5772,-67.5 5772,-97.5 5879,-97.5 5879,-67.5 5772,-67.5"/>
<text text-anchor="start" x="5780" y="-85.5" font-family="Helvetica,sans-Serif" font-size="10.00">src/libs/vpatterndb</text>
<text text-anchor="middle" x="5825.5" y="-74.5" font-family="Helvetica,sans-Serif" font-size="10.00">/vcontainer.cpp</text>
</a>
</g>
</g>
<!-- Node1&#45;&gt;Node37 -->
<g id="edge61" class="edge">
<title>Node1&#45;&gt;Node37</title>
<path fill="none" stroke="midnightblue" d="M5031.62,-343.27C5219.19,-326.36 5696.36,-273.44 5806.5,-165 5824.51,-147.26 5826.82,-115.99 5826.45,-97.77"/>
<polygon fill="midnightblue" stroke="midnightblue" points="5031.22,-339.79 5021.57,-344.16 5031.84,-346.76 5031.22,-339.79"/>
</g>
<!-- Node4 -->
<g id="node4" class="node">
<title>Node4</title>
<g id="a_node4"><a xlink:href="../../d3/df7/vcontainer_8h.html" target="_top" xlink:title=" ">
<polygon fill="white" stroke="black" points="4902,-201.5 4902,-231.5 5009,-231.5 5009,-201.5 4902,-201.5"/>
<text text-anchor="start" x="4910" y="-219.5" font-family="Helvetica,sans-Serif" font-size="10.00">src/libs/vpatterndb</text>
<text text-anchor="middle" x="4955.5" y="-208.5" font-family="Helvetica,sans-Serif" font-size="10.00">/vcontainer.h</text>
</a>
</g>
</g>
<!-- Node3&#45;&gt;Node4 -->
<g id="edge3" class="edge">
<title>Node3&#45;&gt;Node4</title>
<path fill="none" stroke="midnightblue" d="M4955.5,-258.11C4955.5,-249.15 4955.5,-239.32 4955.5,-231.58"/>
<polygon fill="midnightblue" stroke="midnightblue" points="4952,-258.4 4955.5,-268.4 4959,-258.4 4952,-258.4"/>
</g>
<!-- Node5 -->
<g id="node5" class="node">
<title>Node5</title>
<g id="a_node5"><a xlink:href="../../d4/dd6/vmeasurements_8h.html" target="_top" xlink:title=" ">
<polygon fill="white" stroke="black" points="859,-140 859,-159 1044,-159 1044,-140 859,-140"/>
<text text-anchor="middle" x="951.5" y="-147" font-family="Helvetica,sans-Serif" font-size="10.00">src/libs/vformat/vmeasurements.h</text>
</a>
</g>
</g>
<!-- Node4&#45;&gt;Node5 -->
<g id="edge4" class="edge">
<title>Node4&#45;&gt;Node5</title>
<path fill="none" stroke="midnightblue" d="M4891.67,-215.16C4456.81,-212.79 1924.25,-197.75 1153.5,-165 1117.76,-163.48 1078.52,-160.88 1044.2,-158.29"/>
<polygon fill="midnightblue" stroke="midnightblue" points="4891.83,-218.66 4901.85,-215.22 4891.87,-211.66 4891.83,-218.66"/>
</g>
<!-- Node6 -->
<g id="node6" class="node">
<title>Node6</title>
<g id="a_node6"><a xlink:href="../../de/db3/vmeasurements_8cpp.html" target="_top" xlink:title=" ">
<polygon fill="white" stroke="black" points="161.5,-73 161.5,-92 357.5,-92 357.5,-73 161.5,-73"/>
<text text-anchor="middle" x="259.5" y="-80" font-family="Helvetica,sans-Serif" font-size="10.00">src/libs/vformat/vmeasurements.cpp</text>
</a>
</g>
</g>
<!-- Node4&#45;&gt;Node6 -->
<g id="edge6" class="edge">
<title>Node4&#45;&gt;Node6</title>
<path fill="none" stroke="midnightblue" d="M4891.68,-215.5C4426.4,-215.41 1563.62,-212.86 1181.5,-165 1122.99,-157.67 1110.85,-142.47 1052.5,-134 750.36,-90.15 670.47,-126.52 366.5,-98 349.98,-96.45 332.1,-94.24 315.76,-92.01"/>
<polygon fill="midnightblue" stroke="midnightblue" points="4891.9,-219 4901.9,-215.5 4891.9,-212 4891.9,-219"/>
</g>
<!-- Node7 -->
<g id="node7" class="node">
<title>Node7</title>
<g id="a_node7"><a xlink:href="../../d8/d70/vtextmanager_8cpp.html" target="_top" xlink:title=" ">
<polygon fill="white" stroke="black" points="375.5,-73 375.5,-92 557.5,-92 557.5,-73 375.5,-73"/>
<text text-anchor="middle" x="466.5" y="-80" font-family="Helvetica,sans-Serif" font-size="10.00">src/libs/vlayout/vtextmanager.cpp</text>
</a>
</g>
</g>
<!-- Node4&#45;&gt;Node7 -->
<g id="edge7" class="edge">
<title>Node4&#45;&gt;Node7</title>
<path fill="none" stroke="midnightblue" d="M4891.81,-215.58C4435.09,-216.01 1665.81,-216.5 1296.5,-165 1244.07,-157.69 1233.75,-142.48 1181.5,-134 911.23,-90.14 838.9,-125.67 566.5,-98 551.14,-96.44 534.53,-94.24 519.33,-92.02"/>
<polygon fill="midnightblue" stroke="midnightblue" points="4891.86,-219.08 4901.86,-215.57 4891.85,-212.08 4891.86,-219.08"/>
</g>
<!-- Node8 -->
<g id="node8" class="node">
<title>Node8</title>
<g id="a_node8"><a xlink:href="../../d6/de0/vlayoutpiece_8h.html" target="_top" xlink:title=" ">
<polygon fill="white" stroke="black" points="1305.5,-140 1305.5,-159 1471.5,-159 1471.5,-140 1305.5,-140"/>
<text text-anchor="middle" x="1388.5" y="-147" font-family="Helvetica,sans-Serif" font-size="10.00">src/libs/vlayout/vlayoutpiece.h</text>
</a>
</g>
</g>
<!-- Node4&#45;&gt;Node8 -->
<g id="edge8" class="edge">
<title>Node4&#45;&gt;Node8</title>
<path fill="none" stroke="midnightblue" d="M4891.84,-214.34C4459.93,-206.47 1961.56,-160.94 1471.79,-152.02"/>
<polygon fill="midnightblue" stroke="midnightblue" points="4891.9,-217.84 4901.96,-214.52 4892.02,-210.84 4891.9,-217.84"/>
</g>
<!-- Node18 -->
<g id="node17" class="node">
<title>Node18</title>
<g id="a_node17"><a xlink:href="../../d5/d74/vabstractapplication_8h.html" target="_top" xlink:title=" ">
<polygon fill="white" stroke="red" points="3555,-140 3555,-159 3750,-159 3750,-140 3555,-140"/>
<text text-anchor="middle" x="3652.5" y="-147" font-family="Helvetica,sans-Serif" font-size="10.00">src/libs/vmisc/vabstractapplication.h</text>
</a>
</g>
</g>
<!-- Node4&#45;&gt;Node18 -->
<g id="edge19" class="edge">
<title>Node4&#45;&gt;Node18</title>
<path fill="none" stroke="midnightblue" d="M4891.7,-212.32C4680.65,-201.79 4004.02,-168.04 3750.05,-155.37"/>
<polygon fill="midnightblue" stroke="midnightblue" points="4891.83,-215.83 4901.99,-212.83 4892.18,-208.84 4891.83,-215.83"/>
</g>
<!-- Node36 -->
<g id="node31" class="node">
<title>Node36</title>
<g id="a_node31"><a xlink:href="../../db/d11/vformula_8cpp.html" target="_top" xlink:title=" ">
<polygon fill="white" stroke="black" points="5522,-67.5 5522,-97.5 5629,-97.5 5629,-67.5 5522,-67.5"/>
<text text-anchor="start" x="5530" y="-85.5" font-family="Helvetica,sans-Serif" font-size="10.00">src/libs/vpatterndb</text>
<text text-anchor="middle" x="5575.5" y="-74.5" font-family="Helvetica,sans-Serif" font-size="10.00">/vformula.cpp</text>
</a>
</g>
</g>
<!-- Node4&#45;&gt;Node36 -->
<g id="edge53" class="edge">
<title>Node4&#45;&gt;Node36</title>
<path fill="none" stroke="midnightblue" d="M4942.16,-192.05C4933.8,-173.91 4927.07,-149.37 4941.5,-134 4985.01,-87.66 5449.59,-107.16 5512.5,-98 5515.61,-97.55 5518.79,-97.02 5522,-96.44"/>
<polygon fill="midnightblue" stroke="midnightblue" points="4939.23,-194.02 4946.85,-201.38 4945.48,-190.87 4939.23,-194.02"/>
</g>
<!-- Node4&#45;&gt;Node37 -->
<g id="edge54" class="edge">
<title>Node4&#45;&gt;Node37</title>
<path fill="none" stroke="midnightblue" d="M4966.16,-192.08C4976.35,-172.75 4993.68,-146.54 5017.5,-134 5090.84,-95.41 5680.41,-109.34 5762.5,-98 5765.5,-97.59 5768.57,-97.1 5771.66,-96.55"/>
<polygon fill="midnightblue" stroke="midnightblue" points="4962.95,-190.68 4961.61,-201.19 4969.21,-193.81 4962.95,-190.68"/>
</g>
<!-- Node38 -->
<g id="node33" class="node">
<title>Node38</title>
<g id="a_node33"><a xlink:href="../../df/d7a/vpiece_8cpp.html" target="_top" xlink:title=" ">
<polygon fill="white" stroke="black" points="5647,-67.5 5647,-97.5 5754,-97.5 5754,-67.5 5647,-67.5"/>
<text text-anchor="start" x="5655" y="-85.5" font-family="Helvetica,sans-Serif" font-size="10.00">src/libs/vpatterndb</text>
<text text-anchor="middle" x="5700.5" y="-74.5" font-family="Helvetica,sans-Serif" font-size="10.00">/vpiece.cpp</text>
</a>
</g>
</g>
<!-- Node4&#45;&gt;Node38 -->
<g id="edge56" class="edge">
<title>Node4&#45;&gt;Node38</title>
<path fill="none" stroke="midnightblue" d="M4955.6,-191.12C4957.1,-172.37 4962.48,-147.47 4979.5,-134 5036.91,-88.56 5565,-108.25 5637.5,-98 5640.5,-97.58 5643.57,-97.08 5646.66,-96.53"/>
<polygon fill="midnightblue" stroke="midnightblue" points="4952.09,-191.16 4955.1,-201.32 4959.08,-191.5 4952.09,-191.16"/>
</g>
<!-- Node40 -->
<g id="node35" class="node">
<title>Node40</title>
<g id="a_node35"><a xlink:href="../../d8/dba/vpiecenode_8cpp.html" target="_top" xlink:title=" ">
<polygon fill="white" stroke="black" points="4789,-0.5 4789,-30.5 4896,-30.5 4896,-0.5 4789,-0.5"/>
<text text-anchor="start" x="4797" y="-18.5" font-family="Helvetica,sans-Serif" font-size="10.00">src/libs/vpatterndb</text>
<text text-anchor="middle" x="4842.5" y="-7.5" font-family="Helvetica,sans-Serif" font-size="10.00">/vpiecenode.cpp</text>
</a>
</g>
</g>
<!-- Node4&#45;&gt;Node40 -->
<g id="edge57" class="edge">
<title>Node4&#45;&gt;Node40</title>
<path fill="none" stroke="midnightblue" d="M4980.27,-194.89C4991.13,-185.79 5004,-174.93 5015.5,-165 5031.23,-151.42 5031.23,-141.78 5050.5,-134 5223.51,-64.11 6016.22,-202.09 5887.5,-67 5853.02,-30.82 5105.2,-19.52 4896.28,-17.07"/>
<polygon fill="midnightblue" stroke="midnightblue" points="4977.83,-192.36 4972.41,-201.46 4982.32,-197.74 4977.83,-192.36"/>
</g>
<!-- Node56 -->
<g id="node45" class="node">
<title>Node56</title>
<g id="a_node45"><a xlink:href="../../d1/de1/vincrement__p_8h.html" target="_top" xlink:title=" ">
<polygon fill="white" stroke="black" points="507,-134.5 507,-164.5 650,-164.5 650,-134.5 507,-134.5"/>
<text text-anchor="start" x="515" y="-152.5" font-family="Helvetica,sans-Serif" font-size="10.00">src/libs/vpatterndb</text>
<text text-anchor="middle" x="578.5" y="-141.5" font-family="Helvetica,sans-Serif" font-size="10.00">/variables/vincrement_p.h</text>
</a>
</g>
</g>
<!-- Node4&#45;&gt;Node56 -->
<g id="edge50" class="edge">
<title>Node4&#45;&gt;Node56</title>
<path fill="none" stroke="midnightblue" d="M4891.94,-215.7C4511.26,-216.69 2494.22,-219.09 849.5,-165 781.81,-162.77 704.69,-158.48 650.07,-155.13"/>
<polygon fill="midnightblue" stroke="midnightblue" points="4891.95,-219.2 4901.94,-215.67 4891.93,-212.2 4891.95,-219.2"/>
</g>
<!-- Node57 -->
<g id="node46" class="node">
<title>Node57</title>
<g id="a_node46"><a xlink:href="../../d6/dc1/vmeasurement__p_8h.html" target="_top" xlink:title=" ">
<polygon fill="white" stroke="red" points="5059.5,-134.5 5059.5,-164.5 5221.5,-164.5 5221.5,-134.5 5059.5,-134.5"/>
<text text-anchor="start" x="5067.5" y="-152.5" font-family="Helvetica,sans-Serif" font-size="10.00">src/libs/vpatterndb</text>
<text text-anchor="middle" x="5140.5" y="-141.5" font-family="Helvetica,sans-Serif" font-size="10.00">/variables/vmeasurement_p.h</text>
</a>
</g>
</g>
<!-- Node4&#45;&gt;Node57 -->
<g id="edge52" class="edge">
<title>Node4&#45;&gt;Node57</title>
<path fill="none" stroke="midnightblue" d="M5005.44,-197.96C5035.24,-187.48 5072.57,-174.37 5100.44,-164.58"/>
<polygon fill="midnightblue" stroke="midnightblue" points="5003.92,-194.78 4995.64,-201.4 5006.24,-201.38 5003.92,-194.78"/>
</g>
<!-- Node59 -->
<g id="node47" class="node">
<title>Node59</title>
<g id="a_node47"><a xlink:href="../../d6/d91/vnodedetail_8cpp.html" target="_top" xlink:title=" ">
<polygon fill="white" stroke="black" points="5240,-134.5 5240,-164.5 5347,-164.5 5347,-134.5 5240,-134.5"/>
<text text-anchor="start" x="5248" y="-152.5" font-family="Helvetica,sans-Serif" font-size="10.00">src/libs/vpatterndb</text>
<text text-anchor="middle" x="5293.5" y="-141.5" font-family="Helvetica,sans-Serif" font-size="10.00">/vnodedetail.cpp</text>
</a>
</g>
</g>
<!-- Node4&#45;&gt;Node59 -->
<g id="edge55" class="edge">
<title>Node4&#45;&gt;Node59</title>
<path fill="none" stroke="midnightblue" d="M5019.23,-204.63C5075.06,-194.9 5158.34,-179.92 5230.5,-165 5233.58,-164.36 5236.74,-163.69 5239.92,-163"/>
<polygon fill="midnightblue" stroke="midnightblue" points="5018.38,-201.22 5009.13,-206.38 5019.58,-208.12 5018.38,-201.22"/>
</g>
<!-- Node60 -->
<g id="node48" class="node">
<title>Node60</title>
<g id="a_node48"><a xlink:href="../../da/de1/vpiecepath_8cpp.html" target="_top" xlink:title=" ">
<polygon fill="white" stroke="black" points="5365,-134.5 5365,-164.5 5472,-164.5 5472,-134.5 5365,-134.5"/>
<text text-anchor="start" x="5373" y="-152.5" font-family="Helvetica,sans-Serif" font-size="10.00">src/libs/vpatterndb</text>
<text text-anchor="middle" x="5418.5" y="-141.5" font-family="Helvetica,sans-Serif" font-size="10.00">/vpiecepath.cpp</text>
</a>
</g>
</g>
<!-- Node4&#45;&gt;Node60 -->
<g id="edge58" class="edge">
<title>Node4&#45;&gt;Node60</title>
<path fill="none" stroke="midnightblue" d="M5019.44,-209.43C5098.66,-201.45 5237.61,-185.95 5355.5,-165 5358.59,-164.45 5361.76,-163.85 5364.96,-163.21"/>
<polygon fill="midnightblue" stroke="midnightblue" points="5018.74,-205.98 5009.14,-210.46 5019.43,-212.95 5018.74,-205.98"/>
</g>
<!-- Node61 -->
<g id="node49" class="node">
<title>Node61</title>
<g id="a_node49"><a xlink:href="../../d1/d3a/abstracttest_8cpp.html" target="_top" xlink:title=" ">
<polygon fill="white" stroke="black" points="5490,-140 5490,-159 5651,-159 5651,-140 5490,-140"/>
<text text-anchor="middle" x="5570.5" y="-147" font-family="Helvetica,sans-Serif" font-size="10.00">src/libs/vtest/abstracttest.cpp</text>
</a>
</g>
</g>
<!-- Node4&#45;&gt;Node61 -->
<g id="edge59" class="edge">
<title>Node4&#45;&gt;Node61</title>
<path fill="none" stroke="midnightblue" d="M5019.43,-210.67C5118.43,-202.9 5314.72,-186.31 5480.5,-165 5493.69,-163.31 5507.91,-161.16 5521.07,-159.05"/>
<polygon fill="midnightblue" stroke="midnightblue" points="5018.98,-207.2 5009.29,-211.47 5019.53,-214.18 5018.98,-207.2"/>
</g>
<!-- Node62 -->
<g id="node50" class="node">
<title>Node62</title>
<g id="a_node50"><a xlink:href="../../da/db4/piece__tablewidgetitem_8cpp.html" target="_top" xlink:title=" ">
<polygon fill="white" stroke="black" points="5669.5,-134.5 5669.5,-164.5 5797.5,-164.5 5797.5,-134.5 5669.5,-134.5"/>
<text text-anchor="start" x="5677.5" y="-152.5" font-family="Helvetica,sans-Serif" font-size="10.00">src/libs/vwidgets/piece</text>
<text text-anchor="middle" x="5733.5" y="-141.5" font-family="Helvetica,sans-Serif" font-size="10.00">_tablewidgetitem.cpp</text>
</a>
</g>
</g>
<!-- Node4&#45;&gt;Node62 -->
<g id="edge60" class="edge">
<title>Node4&#45;&gt;Node62</title>
<path fill="none" stroke="midnightblue" d="M5019.22,-213.53C5143.07,-209.13 5424.7,-196.31 5659.5,-165 5662.74,-164.57 5666.06,-164.08 5669.4,-163.56"/>
<polygon fill="midnightblue" stroke="midnightblue" points="5019.03,-210.04 5009.16,-213.88 5019.27,-217.03 5019.03,-210.04"/>
</g>
<!-- Node5&#45;&gt;Node6 -->
<g id="edge5" class="edge">
<title>Node5&#45;&gt;Node6</title>
<path fill="none" stroke="midnightblue" d="M848.89,-141.16C731.97,-132.44 535.22,-116.7 366.5,-98 350.94,-96.28 334.15,-94.13 318.58,-92.03"/>
<polygon fill="midnightblue" stroke="midnightblue" points="848.68,-144.65 858.91,-141.9 849.2,-137.67 848.68,-144.65"/>
</g>
<!-- Node9 -->
<g id="node9" class="node">
<title>Node9</title>
<g id="a_node9"><a xlink:href="../../dd/d66/vdxfengine_8cpp.html" target="_top" xlink:title=" ">
<polygon fill="white" stroke="black" points="575.5,-73 575.5,-92 729.5,-92 729.5,-73 575.5,-73"/>
<text text-anchor="middle" x="652.5" y="-80" font-family="Helvetica,sans-Serif" font-size="10.00">src/libs/vdxf/vdxfengine.cpp</text>
</a>
</g>
</g>
<!-- Node8&#45;&gt;Node9 -->
<g id="edge9" class="edge">
<title>Node8&#45;&gt;Node9</title>
<path fill="none" stroke="midnightblue" d="M1312.44,-138.78C1297.55,-137.05 1282.05,-135.37 1267.5,-134 1032.88,-111.97 972.53,-125.62 738.5,-98 725.27,-96.44 710.97,-94.24 697.9,-92.02"/>
<polygon fill="midnightblue" stroke="midnightblue" points="1312.29,-142.29 1322.63,-139.98 1313.11,-135.34 1312.29,-142.29"/>
</g>
<!-- Node10 -->
<g id="node10" class="node">
<title>Node10</title>
<g id="a_node10"><a xlink:href="../../de/da8/vbank_8cpp.html" target="_top" xlink:title=" ">
<polygon fill="white" stroke="black" points="747.5,-73 747.5,-92 891.5,-92 891.5,-73 747.5,-73"/>
<text text-anchor="middle" x="819.5" y="-80" font-family="Helvetica,sans-Serif" font-size="10.00">src/libs/vlayout/vbank.cpp</text>
</a>
</g>
</g>
<!-- Node8&#45;&gt;Node10 -->
<g id="edge10" class="edge">
<title>Node8&#45;&gt;Node10</title>
<path fill="none" stroke="midnightblue" d="M1309.37,-138.77C1295.42,-137.13 1281.04,-135.48 1267.5,-134 1104.57,-116.25 1062.85,-120.46 900.5,-98 888.47,-96.34 875.5,-94.18 863.54,-92.04"/>
<polygon fill="midnightblue" stroke="midnightblue" points="1309.08,-142.26 1319.42,-139.96 1309.91,-135.31 1309.08,-142.26"/>
</g>
<!-- Node11 -->
<g id="node11" class="node">
<title>Node11</title>
<g id="a_node11"><a xlink:href="../../df/d5d/vcontour_8cpp.html" target="_top" xlink:title=" ">
<polygon fill="white" stroke="black" points="909.5,-73 909.5,-92 1065.5,-92 1065.5,-73 909.5,-73"/>
<text text-anchor="middle" x="987.5" y="-80" font-family="Helvetica,sans-Serif" font-size="10.00">src/libs/vlayout/vcontour.cpp</text>
</a>
</g>
</g>
<!-- Node8&#45;&gt;Node11 -->
<g id="edge11" class="edge">
<title>Node8&#45;&gt;Node11</title>
<path fill="none" stroke="midnightblue" d="M1324.62,-138.34C1261.16,-128.21 1161.08,-112.18 1074.5,-98 1062.86,-96.09 1050.36,-94.02 1038.56,-92.06"/>
<polygon fill="midnightblue" stroke="midnightblue" points="1324.44,-141.85 1334.87,-139.97 1325.55,-134.94 1324.44,-141.85"/>
</g>
<!-- Node12 -->
<g id="node12" class="node">
<title>Node12</title>
<g id="a_node12"><a xlink:href="../../d3/d39/vlayoutgenerator_8cpp.html" target="_top" xlink:title=" ">
<polygon fill="white" stroke="black" points="1084,-73 1084,-92 1281,-92 1281,-73 1084,-73"/>
<text text-anchor="middle" x="1182.5" y="-80" font-family="Helvetica,sans-Serif" font-size="10.00">src/libs/vlayout/vlayoutgenerator.cpp</text>
</a>
</g>
</g>
<!-- Node8&#45;&gt;Node12 -->
<g id="edge12" class="edge">
<title>Node8&#45;&gt;Node12</title>
<path fill="none" stroke="midnightblue" d="M1351.57,-136.85C1310.77,-123.97 1246.03,-103.55 1209.64,-92.06"/>
<polygon fill="midnightblue" stroke="midnightblue" points="1350.56,-140.2 1361.14,-139.87 1352.66,-133.52 1350.56,-140.2"/>
</g>
<!-- Node13 -->
<g id="node13" class="node">
<title>Node13</title>
<g id="a_node13"><a xlink:href="../../d2/d2d/vlayoutpaper__p_8h.html" target="_top" xlink:title=" ">
<polygon fill="white" stroke="black" points="1299,-73 1299,-92 1478,-92 1478,-73 1299,-73"/>
<text text-anchor="middle" x="1388.5" y="-80" font-family="Helvetica,sans-Serif" font-size="10.00">src/libs/vlayout/vlayoutpaper_p.h</text>
</a>
</g>
</g>
<!-- Node8&#45;&gt;Node13 -->
<g id="edge13" class="edge">
<title>Node8&#45;&gt;Node13</title>
<path fill="none" stroke="midnightblue" d="M1388.5,-129.54C1388.5,-117.17 1388.5,-101.62 1388.5,-92.13"/>
<polygon fill="midnightblue" stroke="midnightblue" points="1385,-129.73 1388.5,-139.73 1392,-129.73 1385,-129.73"/>
</g>
<!-- Node14 -->
<g id="node14" class="node">
<title>Node14</title>
<g id="a_node14"><a xlink:href="../../d1/dd1/vlayoutpaper_8cpp.html" target="_top" xlink:title=" ">
<polygon fill="white" stroke="black" points="1417.5,-6 1417.5,-25 1595.5,-25 1595.5,-6 1417.5,-6"/>
<text text-anchor="middle" x="1506.5" y="-13" font-family="Helvetica,sans-Serif" font-size="10.00">src/libs/vlayout/vlayoutpaper.cpp</text>
</a>
</g>
</g>
<!-- Node8&#45;&gt;Node14 -->
<g id="edge15" class="edge">
<title>Node8&#45;&gt;Node14</title>
<path fill="none" stroke="midnightblue" d="M1429.47,-136.39C1449.42,-128.5 1472.14,-116.21 1486.5,-98 1503.82,-76.04 1506.41,-41.17 1506.62,-25.12"/>
<polygon fill="midnightblue" stroke="midnightblue" points="1428.11,-133.16 1419.94,-139.91 1430.54,-139.72 1428.11,-133.16"/>
</g>
<!-- Node15 -->
<g id="node15" class="node">
<title>Node15</title>
<g id="a_node15"><a xlink:href="../../db/d5c/vposition_8h.html" target="_top" xlink:title=" ">
<polygon fill="white" stroke="red" points="1534.5,-73 1534.5,-92 1682.5,-92 1682.5,-73 1534.5,-73"/>
<text text-anchor="middle" x="1608.5" y="-80" font-family="Helvetica,sans-Serif" font-size="10.00">src/libs/vlayout/vposition.h</text>
</a>
</g>
</g>
<!-- Node8&#45;&gt;Node15 -->
<g id="edge16" class="edge">
<title>Node8&#45;&gt;Node15</title>
<path fill="none" stroke="midnightblue" d="M1427.39,-137.01C1470.93,-124.15 1540.49,-103.59 1579.52,-92.06"/>
<polygon fill="midnightblue" stroke="midnightblue" points="1426.31,-133.68 1417.71,-139.87 1428.3,-140.39 1426.31,-133.68"/>
</g>
<!-- Node17 -->
<g id="node16" class="node">
<title>Node17</title>
<g id="a_node16"><a xlink:href="../../dd/d70/vlayoutpiece_8cpp.html" target="_top" xlink:title=" ">
<polygon fill="white" stroke="black" points="1701,-73 1701,-92 1878,-92 1878,-73 1701,-73"/>
<text text-anchor="middle" x="1789.5" y="-80" font-family="Helvetica,sans-Serif" font-size="10.00">src/libs/vlayout/vlayoutpiece.cpp</text>
</a>
</g>
</g>
<!-- Node8&#45;&gt;Node17 -->
<g id="edge18" class="edge">
<title>Node8&#45;&gt;Node17</title>
<path fill="none" stroke="midnightblue" d="M1451.6,-138.27C1530.29,-125.52 1663.4,-103.94 1736.87,-92.03"/>
<polygon fill="midnightblue" stroke="midnightblue" points="1450.65,-134.88 1441.34,-139.94 1451.77,-141.79 1450.65,-134.88"/>
</g>
<!-- Node13&#45;&gt;Node14 -->
<g id="edge14" class="edge">
<title>Node13&#45;&gt;Node14</title>
<path fill="none" stroke="midnightblue" d="M1413.39,-67.79C1436.78,-54.9 1471.06,-36.02 1490.84,-25.13"/>
<polygon fill="midnightblue" stroke="midnightblue" points="1411.48,-64.84 1404.41,-72.73 1414.86,-70.97 1411.48,-64.84"/>
</g>
<!-- Node15&#45;&gt;Node14 -->
<g id="edge17" class="edge">
<title>Node15&#45;&gt;Node14</title>
<path fill="none" stroke="midnightblue" d="M1586.17,-67.27C1565.98,-54.4 1536.91,-35.88 1520.04,-25.13"/>
<polygon fill="midnightblue" stroke="midnightblue" points="1584.43,-70.31 1594.74,-72.73 1588.19,-64.41 1584.43,-70.31"/>
</g>
<!-- Node18&#45;&gt;Node7 -->
<g id="edge31" class="edge">
<title>Node18&#45;&gt;Node7</title>
<path fill="none" stroke="midnightblue" d="M3544.62,-148.58C3069.83,-148.67 1163.31,-145.95 566.5,-98 550.15,-96.69 532.4,-94.4 516.46,-92.02"/>
<polygon fill="midnightblue" stroke="midnightblue" points="3544.9,-152.08 3554.9,-148.58 3544.9,-145.08 3544.9,-152.08"/>
</g>
<!-- Node18&#45;&gt;Node17 -->
<g id="edge30" class="edge">
<title>Node18&#45;&gt;Node17</title>
<path fill="none" stroke="midnightblue" d="M3544.91,-147.11C3213.51,-142.58 2211.1,-126.8 1886.5,-98 1870.9,-96.62 1853.98,-94.35 1838.71,-92.02"/>
<polygon fill="midnightblue" stroke="midnightblue" points="3544.95,-150.62 3554.99,-147.25 3545.04,-143.62 3544.95,-150.62"/>
</g>
<!-- Node19 -->
<g id="node18" class="node">
<title>Node19</title>
<g id="a_node18"><a xlink:href="../../d4/d90/fvupdater_8cpp.html" target="_top" xlink:title=" ">
<polygon fill="white" stroke="black" points="1896,-73 1896,-92 2049,-92 2049,-73 1896,-73"/>
<text text-anchor="middle" x="1972.5" y="-80" font-family="Helvetica,sans-Serif" font-size="10.00">src/libs/fervor/fvupdater.cpp</text>
</a>
</g>
</g>
<!-- Node18&#45;&gt;Node19 -->
<g id="edge20" class="edge">
<title>Node18&#45;&gt;Node19</title>
<path fill="none" stroke="midnightblue" d="M3544.5,-147.02C3234.73,-142.45 2346.92,-127.13 2057.5,-98 2043.8,-96.62 2028.96,-94.36 2015.59,-92.03"/>
<polygon fill="midnightblue" stroke="midnightblue" points="3544.78,-150.52 3554.83,-147.17 3544.88,-143.52 3544.78,-150.52"/>
</g>
<!-- Node20 -->
<g id="node19" class="node">
<title>Node20</title>
<g id="a_node19"><a xlink:href="../../d9/dc8/dxiface_8cpp.html" target="_top" xlink:title=" ">
<polygon fill="white" stroke="black" points="2067,-73 2067,-92 2202,-92 2202,-73 2067,-73"/>
<text text-anchor="middle" x="2134.5" y="-80" font-family="Helvetica,sans-Serif" font-size="10.00">src/libs/vdxf/dxiface.cpp</text>
</a>
</g>
</g>
<!-- Node18&#45;&gt;Node20 -->
<g id="edge21" class="edge">
<title>Node18&#45;&gt;Node20</title>
<path fill="none" stroke="midnightblue" d="M3544.81,-146.87C3256.03,-142.17 2468.82,-126.99 2210.5,-98 2198.22,-96.62 2184.95,-94.36 2172.99,-92.03"/>
<polygon fill="midnightblue" stroke="midnightblue" points="3544.82,-150.37 3554.87,-147.04 3544.93,-143.37 3544.82,-150.37"/>
</g>
<!-- Node21 -->
<g id="node20" class="node">
<title>Node21</title>
<g id="a_node20"><a xlink:href="../../da/d75/vabstractarc__p_8h.html" target="_top" xlink:title=" ">
<polygon fill="white" stroke="red" points="2220,-67.5 2220,-97.5 2327,-97.5 2327,-67.5 2220,-67.5"/>
<text text-anchor="start" x="2228" y="-85.5" font-family="Helvetica,sans-Serif" font-size="10.00">src/libs/vgeometry</text>
<text text-anchor="middle" x="2273.5" y="-74.5" font-family="Helvetica,sans-Serif" font-size="10.00">/vabstractarc_p.h</text>
</a>
</g>
</g>
<!-- Node18&#45;&gt;Node21 -->
<g id="edge22" class="edge">
<title>Node18&#45;&gt;Node21</title>
<path fill="none" stroke="midnightblue" d="M3544.64,-147.02C3273.41,-142.89 2568.06,-129.36 2335.5,-98 2332.76,-97.63 2329.97,-97.2 2327.15,-96.71"/>
<polygon fill="midnightblue" stroke="midnightblue" points="3544.83,-150.53 3554.88,-147.18 3544.94,-143.53 3544.83,-150.53"/>
</g>
<!-- Node23 -->
<g id="node21" class="node">
<title>Node23</title>
<g id="a_node21"><a xlink:href="../../dc/da3/varc__p_8h.html" target="_top" xlink:title=" ">
<polygon fill="white" stroke="red" points="2345,-67.5 2345,-97.5 2452,-97.5 2452,-67.5 2345,-67.5"/>
<text text-anchor="start" x="2353" y="-85.5" font-family="Helvetica,sans-Serif" font-size="10.00">src/libs/vgeometry</text>
<text text-anchor="middle" x="2398.5" y="-74.5" font-family="Helvetica,sans-Serif" font-size="10.00">/varc_p.h</text>
</a>
</g>
</g>
<!-- Node18&#45;&gt;Node23 -->
<g id="edge23" class="edge">
<title>Node18&#45;&gt;Node23</title>
<path fill="none" stroke="midnightblue" d="M3544.63,-146.52C3292.08,-141.46 2668.1,-126.42 2460.5,-98 2457.76,-97.63 2454.97,-97.19 2452.15,-96.7"/>
<polygon fill="midnightblue" stroke="midnightblue" points="3544.85,-150.02 3554.92,-146.72 3544.99,-143.02 3544.85,-150.02"/>
</g>
<!-- Node25 -->
<g id="node22" class="node">
<title>Node25</title>
<g id="a_node22"><a xlink:href="../../d5/d8e/vcubicbezier__p_8h.html" target="_top" xlink:title=" ">
<polygon fill="white" stroke="red" points="2470,-67.5 2470,-97.5 2577,-97.5 2577,-67.5 2470,-67.5"/>
<text text-anchor="start" x="2478" y="-85.5" font-family="Helvetica,sans-Serif" font-size="10.00">src/libs/vgeometry</text>
<text text-anchor="middle" x="2523.5" y="-74.5" font-family="Helvetica,sans-Serif" font-size="10.00">/vcubicbezier_p.h</text>
</a>
</g>
</g>
<!-- Node18&#45;&gt;Node25 -->
<g id="edge24" class="edge">
<title>Node18&#45;&gt;Node25</title>
<path fill="none" stroke="midnightblue" d="M3544.69,-145.9C3311.86,-139.87 2768.29,-123.48 2585.5,-98 2582.76,-97.62 2579.97,-97.17 2577.16,-96.68"/>
<polygon fill="midnightblue" stroke="midnightblue" points="3544.78,-149.4 3554.86,-146.16 3544.96,-142.4 3544.78,-149.4"/>
</g>
<!-- Node27 -->
<g id="node23" class="node">
<title>Node27</title>
<g id="a_node23"><a xlink:href="../../df/dde/vellipticalarc__p_8h.html" target="_top" xlink:title=" ">
<polygon fill="white" stroke="black" points="2595,-67.5 2595,-97.5 2702,-97.5 2702,-67.5 2595,-67.5"/>
<text text-anchor="start" x="2603" y="-85.5" font-family="Helvetica,sans-Serif" font-size="10.00">src/libs/vgeometry</text>
<text text-anchor="middle" x="2648.5" y="-74.5" font-family="Helvetica,sans-Serif" font-size="10.00">/vellipticalarc_p.h</text>
</a>
</g>
</g>
<!-- Node18&#45;&gt;Node27 -->
<g id="edge25" class="edge">
<title>Node18&#45;&gt;Node27</title>
<path fill="none" stroke="midnightblue" d="M3544.45,-148.14C3369.68,-146.32 3014.45,-137.56 2716.5,-98 2711.83,-97.38 2707.01,-96.61 2702.19,-95.76"/>
<polygon fill="midnightblue" stroke="midnightblue" points="3544.65,-151.64 3554.68,-148.24 3544.71,-144.64 3544.65,-151.64"/>
</g>
<!-- Node28 -->
<g id="node24" class="node">
<title>Node28</title>
<g id="a_node24"><a xlink:href="../../d6/dfb/vellipticalarc_8cpp.html" target="_top" xlink:title=" ">
<polygon fill="white" stroke="black" points="2636,-0.5 2636,-30.5 2743,-30.5 2743,-0.5 2636,-0.5"/>
<text text-anchor="start" x="2644" y="-18.5" font-family="Helvetica,sans-Serif" font-size="10.00">src/libs/vgeometry</text>
<text text-anchor="middle" x="2689.5" y="-7.5" font-family="Helvetica,sans-Serif" font-size="10.00">/vellipticalarc.cpp</text>
</a>
</g>
</g>
<!-- Node18&#45;&gt;Node28 -->
<g id="edge27" class="edge">
<title>Node18&#45;&gt;Node28</title>
<path fill="none" stroke="midnightblue" d="M3544.83,-147.59C3320.44,-144.97 2817.84,-134.98 2749.5,-98 2722.15,-83.2 2703.94,-49.9 2695.3,-30.77"/>
<polygon fill="midnightblue" stroke="midnightblue" points="3544.94,-151.09 3554.98,-147.71 3545.02,-144.09 3544.94,-151.09"/>
</g>
<!-- Node29 -->
<g id="node25" class="node">
<title>Node29</title>
<g id="a_node25"><a xlink:href="../../d1/d76/vspline__p_8h.html" target="_top" xlink:title=" ">
<polygon fill="white" stroke="red" points="2759,-67.5 2759,-97.5 2866,-97.5 2866,-67.5 2759,-67.5"/>
<text text-anchor="start" x="2767" y="-85.5" font-family="Helvetica,sans-Serif" font-size="10.00">src/libs/vgeometry</text>
<text text-anchor="middle" x="2812.5" y="-74.5" font-family="Helvetica,sans-Serif" font-size="10.00">/vspline_p.h</text>
</a>
</g>
</g>
<!-- Node18&#45;&gt;Node29 -->
<g id="edge28" class="edge">
<title>Node18&#45;&gt;Node29</title>
<path fill="none" stroke="midnightblue" d="M3544.59,-146.97C3394.01,-143.6 3112.64,-132.76 2875.5,-98 2872.39,-97.54 2869.21,-97.01 2866,-96.43"/>
<polygon fill="midnightblue" stroke="midnightblue" points="3544.69,-150.48 3554.76,-147.19 3544.84,-143.48 3544.69,-150.48"/>
</g>
<!-- Node31 -->
<g id="node26" class="node">
<title>Node31</title>
<g id="a_node26"><a xlink:href="../../d9/d15/vabstractpiece_8cpp.html" target="_top" xlink:title=" ">
<polygon fill="white" stroke="black" points="2884.5,-73 2884.5,-92 3070.5,-92 3070.5,-73 2884.5,-73"/>
<text text-anchor="middle" x="2977.5" y="-80" font-family="Helvetica,sans-Serif" font-size="10.00">src/libs/vlayout/vabstractpiece.cpp</text>
</a>
</g>
</g>
<!-- Node18&#45;&gt;Node31 -->
<g id="edge29" class="edge">
<title>Node18&#45;&gt;Node31</title>
<path fill="none" stroke="midnightblue" d="M3544.51,-140.71C3429.19,-131.98 3241.17,-116.6 3079.5,-98 3064.57,-96.28 3048.46,-94.13 3033.55,-92.02"/>
<polygon fill="midnightblue" stroke="midnightblue" points="3544.52,-144.22 3554.75,-141.48 3545.05,-137.24 3544.52,-144.22"/>
</g>
<!-- Node32 -->
<g id="node27" class="node">
<title>Node32</title>
<g id="a_node27"><a xlink:href="../../db/d65/dialogexporttocsv_8cpp.html" target="_top" xlink:title=" ">
<polygon fill="white" stroke="black" points="3089,-67.5 3089,-97.5 3216,-97.5 3216,-67.5 3089,-67.5"/>
<text text-anchor="start" x="3097" y="-85.5" font-family="Helvetica,sans-Serif" font-size="10.00">src/libs/vmisc/dialogs</text>
<text text-anchor="middle" x="3152.5" y="-74.5" font-family="Helvetica,sans-Serif" font-size="10.00">/dialogexporttocsv.cpp</text>
</a>
</g>
</g>
<!-- Node18&#45;&gt;Node32 -->
<g id="edge32" class="edge">
<title>Node18&#45;&gt;Node32</title>
<path fill="none" stroke="midnightblue" d="M3552.98,-138.96C3466.24,-130.11 3337.2,-115.67 3225.5,-98 3222.44,-97.52 3219.31,-96.99 3216.15,-96.45"/>
<polygon fill="midnightblue" stroke="midnightblue" points="3552.77,-142.46 3563.08,-139.98 3553.48,-135.49 3552.77,-142.46"/>
</g>
<!-- Node33 -->
<g id="node28" class="node">
<title>Node33</title>
<g id="a_node28"><a xlink:href="../../d6/d0b/def_8cpp.html" target="_top" xlink:title=" ">
<polygon fill="white" stroke="black" points="3234.5,-73 3234.5,-92 3356.5,-92 3356.5,-73 3234.5,-73"/>
<text text-anchor="middle" x="3295.5" y="-80" font-family="Helvetica,sans-Serif" font-size="10.00">src/libs/vmisc/def.cpp</text>
</a>
</g>
</g>
<!-- Node18&#45;&gt;Node33 -->
<g id="edge33" class="edge">
<title>Node18&#45;&gt;Node33</title>
<path fill="none" stroke="midnightblue" d="M3591.22,-138.27C3533.05,-128.42 3443.19,-112.88 3365.5,-98 3355.87,-96.16 3345.52,-94.07 3335.81,-92.07"/>
<polygon fill="midnightblue" stroke="midnightblue" points="3590.91,-141.76 3601.35,-139.98 3592.07,-134.86 3590.91,-141.76"/>
</g>
<!-- Node34 -->
<g id="node29" class="node">
<title>Node34</title>
<g id="a_node29"><a xlink:href="../../d0/df6/vabstractapplication_8cpp.html" target="_top" xlink:title=" ">
<polygon fill="white" stroke="black" points="3374.5,-73 3374.5,-92 3580.5,-92 3580.5,-73 3374.5,-73"/>
<text text-anchor="middle" x="3477.5" y="-80" font-family="Helvetica,sans-Serif" font-size="10.00">src/libs/vmisc/vabstractapplication.cpp</text>
</a>
</g>
</g>
<!-- Node18&#45;&gt;Node34 -->
<g id="edge34" class="edge">
<title>Node18&#45;&gt;Node34</title>
<path fill="none" stroke="midnightblue" d="M3619.57,-136.27C3584.84,-123.37 3531.01,-103.38 3500.56,-92.06"/>
<polygon fill="midnightblue" stroke="midnightblue" points="3618.67,-139.67 3629.26,-139.87 3621.11,-133.11 3618.67,-139.67"/>
</g>
<!-- Node35 -->
<g id="node30" class="node">
<title>Node35</title>
<g id="a_node30"><a xlink:href="../../d4/d4f/pmsystems_8cpp.html" target="_top" xlink:title=" ">
<polygon fill="white" stroke="black" points="3599,-67.5 3599,-97.5 3706,-97.5 3706,-67.5 3599,-67.5"/>
<text text-anchor="start" x="3607" y="-85.5" font-family="Helvetica,sans-Serif" font-size="10.00">src/libs/vpatterndb</text>
<text text-anchor="middle" x="3652.5" y="-74.5" font-family="Helvetica,sans-Serif" font-size="10.00">/pmsystems.cpp</text>
</a>
</g>
</g>
<!-- Node18&#45;&gt;Node35 -->
<g id="edge35" class="edge">
<title>Node18&#45;&gt;Node35</title>
<path fill="none" stroke="midnightblue" d="M3652.5,-129.41C3652.5,-119.22 3652.5,-106.9 3652.5,-97.59"/>
<polygon fill="midnightblue" stroke="midnightblue" points="3649,-129.73 3652.5,-139.73 3656,-129.73 3649,-129.73"/>
</g>
<!-- Node18&#45;&gt;Node36 -->
<g id="edge36" class="edge">
<title>Node18&#45;&gt;Node36</title>
<path fill="none" stroke="midnightblue" d="M3760.25,-148.39C4103.71,-147.6 5170.18,-141.6 5512.5,-98 5515.51,-97.62 5518.58,-97.15 5521.67,-96.63"/>
<polygon fill="midnightblue" stroke="midnightblue" points="3760.05,-144.89 3750.06,-148.41 3760.06,-151.89 3760.05,-144.89"/>
</g>
<!-- Node18&#45;&gt;Node37 -->
<g id="edge37" class="edge">
<title>Node18&#45;&gt;Node37</title>
<path fill="none" stroke="midnightblue" d="M3760.26,-147.2C4162.55,-142.17 5563.57,-123.01 5762.5,-98 5765.51,-97.62 5768.58,-97.16 5771.67,-96.64"/>
<polygon fill="midnightblue" stroke="midnightblue" points="3760.04,-143.7 3750.09,-147.33 3760.13,-150.7 3760.04,-143.7"/>
</g>
<!-- Node18&#45;&gt;Node38 -->
<g id="edge38" class="edge">
<title>Node18&#45;&gt;Node38</title>
<path fill="none" stroke="midnightblue" d="M3760.36,-147.02C4147.13,-141.55 5451.42,-121.54 5637.5,-98 5640.51,-97.62 5643.58,-97.16 5646.67,-96.64"/>
<polygon fill="midnightblue" stroke="midnightblue" points="3760.23,-143.52 3750.28,-147.17 3760.33,-150.52 3760.23,-143.52"/>
</g>
<!-- Node39 -->
<g id="node34" class="node">
<title>Node39</title>
<g id="a_node34"><a xlink:href="../../df/dba/vpiecenode__p_8h.html" target="_top" xlink:title=" ">
<polygon fill="white" stroke="black" points="3724,-67.5 3724,-97.5 3831,-97.5 3831,-67.5 3724,-67.5"/>
<text text-anchor="start" x="3732" y="-85.5" font-family="Helvetica,sans-Serif" font-size="10.00">src/libs/vpatterndb</text>
<text text-anchor="middle" x="3777.5" y="-74.5" font-family="Helvetica,sans-Serif" font-size="10.00">/vpiecenode_p.h</text>
</a>
</g>
</g>
<!-- Node18&#45;&gt;Node39 -->
<g id="edge39" class="edge">
<title>Node18&#45;&gt;Node39</title>
<path fill="none" stroke="midnightblue" d="M3678.09,-135.19C3699.11,-124.26 3728.83,-108.81 3750.29,-97.65"/>
<polygon fill="midnightblue" stroke="midnightblue" points="3676.36,-132.15 3669.1,-139.87 3679.59,-138.36 3676.36,-132.15"/>
</g>
<!-- Node41 -->
<g id="node36" class="node">
<title>Node41</title>
<g id="a_node36"><a xlink:href="../../de/d3e/vtranslatevars_8cpp.html" target="_top" xlink:title=" ">
<polygon fill="white" stroke="black" points="3849.5,-67.5 3849.5,-97.5 3959.5,-97.5 3959.5,-67.5 3849.5,-67.5"/>
<text text-anchor="start" x="3857.5" y="-85.5" font-family="Helvetica,sans-Serif" font-size="10.00">src/libs/vpatterndb</text>
<text text-anchor="middle" x="3904.5" y="-74.5" font-family="Helvetica,sans-Serif" font-size="10.00">/vtranslatevars.cpp</text>
</a>
</g>
</g>
<!-- Node18&#45;&gt;Node41 -->
<g id="edge41" class="edge">
<title>Node18&#45;&gt;Node41</title>
<path fill="none" stroke="midnightblue" d="M3695.5,-137.41C3738.17,-126.4 3803.7,-109.5 3849.99,-97.56"/>
<polygon fill="midnightblue" stroke="midnightblue" points="3694.51,-134.05 3685.7,-139.94 3696.26,-140.83 3694.51,-134.05"/>
</g>
<!-- Node42 -->
<g id="node37" class="node">
<title>Node42</title>
<g id="a_node37"><a xlink:href="../../df/d40/export__format__combobox_8cpp.html" target="_top" xlink:title=" ">
<polygon fill="white" stroke="black" points="3978,-67.5 3978,-97.5 4111,-97.5 4111,-67.5 3978,-67.5"/>
<text text-anchor="start" x="3986" y="-85.5" font-family="Helvetica,sans-Serif" font-size="10.00">src/libs/vwidgets/export</text>
<text text-anchor="middle" x="4044.5" y="-74.5" font-family="Helvetica,sans-Serif" font-size="10.00">_format_combobox.cpp</text>
</a>
</g>
</g>
<!-- Node18&#45;&gt;Node42 -->
<g id="edge42" class="edge">
<title>Node18&#45;&gt;Node42</title>
<path fill="none" stroke="midnightblue" d="M3719.06,-138.46C3783.08,-128.66 3882.53,-113.07 3968.5,-98 3971.54,-97.47 3974.65,-96.91 3977.79,-96.34"/>
<polygon fill="midnightblue" stroke="midnightblue" points="3718.45,-135.01 3709.1,-139.98 3719.51,-141.93 3718.45,-135.01"/>
</g>
<!-- Node43 -->
<g id="node38" class="node">
<title>Node43</title>
<g id="a_node38"><a xlink:href="../../d3/d4f/mouse__coordinates_8cpp.html" target="_top" xlink:title=" ">
<polygon fill="white" stroke="black" points="4129.5,-67.5 4129.5,-97.5 4263.5,-97.5 4263.5,-67.5 4129.5,-67.5"/>
<text text-anchor="start" x="4137.5" y="-85.5" font-family="Helvetica,sans-Serif" font-size="10.00">src/libs/vwidgets/mouse</text>
<text text-anchor="middle" x="4196.5" y="-74.5" font-family="Helvetica,sans-Serif" font-size="10.00">_coordinates.cpp</text>
</a>
</g>
</g>
<!-- Node18&#45;&gt;Node43 -->
<g id="edge43" class="edge">
<title>Node18&#45;&gt;Node43</title>
<path fill="none" stroke="midnightblue" d="M3760.46,-139.25C3855.31,-130.54 3996.91,-116.14 4119.5,-98 4122.73,-97.52 4126.03,-97.01 4129.36,-96.46"/>
<polygon fill="midnightblue" stroke="midnightblue" points="3759.92,-135.78 3750.28,-140.18 3760.55,-142.75 3759.92,-135.78"/>
</g>
<!-- Node44 -->
<g id="node39" class="node">
<title>Node44</title>
<g id="a_node39"><a xlink:href="../../d7/d1b/pen__toolbar_8cpp.html" target="_top" xlink:title=" ">
<polygon fill="white" stroke="black" points="4282,-67.5 4282,-97.5 4401,-97.5 4401,-67.5 4282,-67.5"/>
<text text-anchor="start" x="4290" y="-85.5" font-family="Helvetica,sans-Serif" font-size="10.00">src/libs/vwidgets/pen</text>
<text text-anchor="middle" x="4341.5" y="-74.5" font-family="Helvetica,sans-Serif" font-size="10.00">_toolbar.cpp</text>
</a>
</g>
</g>
<!-- Node18&#45;&gt;Node44 -->
<g id="edge44" class="edge">
<title>Node18&#45;&gt;Node44</title>
<path fill="none" stroke="midnightblue" d="M3760.37,-143.84C3884.42,-137.52 4093.96,-123.93 4272.5,-98 4275.53,-97.56 4278.62,-97.07 4281.74,-96.54"/>
<polygon fill="midnightblue" stroke="midnightblue" points="3759.92,-140.35 3750.11,-144.35 3760.27,-147.35 3759.92,-140.35"/>
</g>
<!-- Node45 -->
<g id="node40" class="node">
<title>Node45</title>
<g id="a_node40"><a xlink:href="../../dd/df6/vabstractmainwindow_8cpp.html" target="_top" xlink:title=" ">
<polygon fill="white" stroke="black" points="4419,-73 4419,-92 4648,-92 4648,-73 4419,-73"/>
<text text-anchor="middle" x="4533.5" y="-80" font-family="Helvetica,sans-Serif" font-size="10.00">src/libs/vwidgets/vabstractmainwindow.cpp</text>
</a>
</g>
</g>
<!-- Node18&#45;&gt;Node45 -->
<g id="edge45" class="edge">
<title>Node18&#45;&gt;Node45</title>
<path fill="none" stroke="midnightblue" d="M3760.38,-143C3907.34,-135.11 4178.62,-119.19 4409.5,-98 4427.85,-96.32 4447.68,-94.15 4465.99,-92.01"/>
<polygon fill="midnightblue" stroke="midnightblue" points="3759.81,-139.52 3750.01,-143.55 3760.19,-146.51 3759.81,-139.52"/>
</g>
<!-- Node46 -->
<g id="node41" class="node">
<title>Node46</title>
<g id="a_node41"><a xlink:href="../../d8/d76/scene__rect_8cpp.html" target="_top" xlink:title=" ">
<polygon fill="white" stroke="black" points="4666.5,-67.5 4666.5,-97.5 4796.5,-97.5 4796.5,-67.5 4666.5,-67.5"/>
<text text-anchor="start" x="4674.5" y="-85.5" font-family="Helvetica,sans-Serif" font-size="10.00">src/libs/vwidgets/scene</text>
<text text-anchor="middle" x="4731.5" y="-74.5" font-family="Helvetica,sans-Serif" font-size="10.00">_rect.cpp</text>
</a>
</g>
</g>
<!-- Node18&#45;&gt;Node46 -->
<g id="edge46" class="edge">
<title>Node18&#45;&gt;Node46</title>
<path fill="none" stroke="midnightblue" d="M3760.4,-148.04C3944.75,-146.15 4331.93,-137.34 4656.5,-98 4659.66,-97.62 4662.89,-97.18 4666.14,-96.7"/>
<polygon fill="midnightblue" stroke="midnightblue" points="3760.13,-144.54 3750.16,-148.14 3760.19,-151.54 3760.13,-144.54"/>
</g>
<!-- Node47 -->
<g id="node42" class="node">
<title>Node47</title>
<g id="a_node42"><a xlink:href="../../de/d45/vcontrolpointspline_8cpp.html" target="_top" xlink:title=" ">
<polygon fill="white" stroke="black" points="4815,-73 4815,-92 5030,-92 5030,-73 4815,-73"/>
<text text-anchor="middle" x="4922.5" y="-80" font-family="Helvetica,sans-Serif" font-size="10.00">src/libs/vwidgets/vcontrolpointspline.cpp</text>
</a>
</g>
</g>
<!-- Node18&#45;&gt;Node47 -->
<g id="edge47" class="edge">
<title>Node18&#45;&gt;Node47</title>
<path fill="none" stroke="midnightblue" d="M3760.36,-146.64C3964.63,-142.47 4421.88,-130.12 4805.5,-98 4823.65,-96.48 4843.33,-94.26 4861.27,-92.02"/>
<polygon fill="midnightblue" stroke="midnightblue" points="3760.16,-143.14 3750.23,-146.84 3760.3,-150.14 3760.16,-143.14"/>
</g>
<!-- Node48 -->
<g id="node43" class="node">
<title>Node48</title>
<g id="a_node43"><a xlink:href="../../d1/d90/vgrainlineitem_8cpp.html" target="_top" xlink:title=" ">
<polygon fill="white" stroke="black" points="5048,-73 5048,-92 5241,-92 5241,-73 5048,-73"/>
<text text-anchor="middle" x="5144.5" y="-80" font-family="Helvetica,sans-Serif" font-size="10.00">src/libs/vwidgets/vgrainlineitem.cpp</text>
</a>
</g>
</g>
<!-- Node18&#45;&gt;Node48 -->
<g id="edge48" class="edge">
<title>Node18&#45;&gt;Node48</title>
<path fill="none" stroke="midnightblue" d="M3760.35,-148.22C3993.84,-146.81 4563.38,-139.05 5038.5,-98 5055.25,-96.55 5073.4,-94.32 5089.87,-92.03"/>
<polygon fill="midnightblue" stroke="midnightblue" points="3760.15,-144.72 3750.17,-148.28 3760.19,-151.72 3760.15,-144.72"/>
</g>
<!-- Node49 -->
<g id="node44" class="node">
<title>Node49</title>
<g id="a_node44"><a xlink:href="../../de/dec/vgraphicssimpletextitem_8cpp.html" target="_top" xlink:title=" ">
<polygon fill="white" stroke="black" points="5259.5,-73 5259.5,-92 5503.5,-92 5503.5,-73 5259.5,-73"/>
<text text-anchor="middle" x="5381.5" y="-80" font-family="Helvetica,sans-Serif" font-size="10.00">src/libs/vwidgets/vgraphicssimpletextitem.cpp</text>
</a>
</g>
</g>
<!-- Node18&#45;&gt;Node49 -->
<g id="edge49" class="edge">
<title>Node18&#45;&gt;Node49</title>
<path fill="none" stroke="midnightblue" d="M3760.42,-147.98C4018.21,-146.11 4690.07,-137.51 5249.5,-98 5270.31,-96.53 5292.91,-94.29 5313.42,-92"/>
<polygon fill="midnightblue" stroke="midnightblue" points="3760.29,-144.48 3750.31,-148.05 3760.33,-151.48 3760.29,-144.48"/>
</g>
<!-- Node27&#45;&gt;Node28 -->
<g id="edge26" class="edge">
<title>Node27&#45;&gt;Node28</title>
<path fill="none" stroke="midnightblue" d="M2662.78,-58.87C2668.71,-49.46 2675.41,-38.83 2680.62,-30.58"/>
<polygon fill="midnightblue" stroke="midnightblue" points="2659.77,-57.07 2657.4,-67.4 2665.69,-60.81 2659.77,-57.07"/>
</g>
<!-- Node39&#45;&gt;Node40 -->
<g id="edge40" class="edge">
<title>Node39&#45;&gt;Node40</title>
<path fill="none" stroke="midnightblue" d="M3841.35,-67.07C4208.09,-16.9 4640,-14.93 4788.96,-15.9"/>
<polygon fill="midnightblue" stroke="midnightblue" points="3840.77,-63.62 3831.34,-68.45 3841.73,-70.55 3840.77,-63.62"/>
</g>
<!-- Node56&#45;&gt;Node2 -->
<g id="edge51" class="edge">
<title>Node56&#45;&gt;Node2</title>
<path fill="none" stroke="midnightblue" d="M496.77,-140.26C410.87,-131.27 271.9,-115.75 152.5,-98 149.39,-97.54 146.22,-97.05 143.02,-96.54"/>
<polygon fill="midnightblue" stroke="midnightblue" points="496.41,-143.74 506.72,-141.3 497.14,-136.78 496.41,-143.74"/>
</g>
</g>
</svg>
