<?xml version="1.0" encoding="UTF-8" standalone="no"?>
<!DOCTYPE svg PUBLIC "-//W3C//DTD SVG 1.1//EN"
 "http://www.w3.org/Graphics/SVG/1.1/DTD/svg11.dtd">
<!-- Generated by graphviz version 2.43.0 (0)
 -->
<!-- Title: src/libs/vlayout/vbank.h Pages: 1 -->
<svg width="6158pt" height="341pt"
 viewBox="0.00 0.00 6157.50 341.00" xmlns="http://www.w3.org/2000/svg" xmlns:xlink="http://www.w3.org/1999/xlink">
<g id="graph0" class="graph" transform="scale(1 1) rotate(0) translate(4 337)">
<title>src/libs/vlayout/vbank.h</title>
<polygon fill="white" stroke="transparent" points="-4,4 -4,-337 6153.5,-337 6153.5,4 -4,4"/>
<!-- Node1 -->
<g id="node1" class="node">
<title>Node1</title>
<g id="a_node1"><a xlink:title=" ">
<polygon fill="#bfbfbf" stroke="black" points="836,-313.5 836,-332.5 969,-332.5 969,-313.5 836,-313.5"/>
<text text-anchor="middle" x="902.5" y="-320.5" font-family="Helvetica,sans-Serif" font-size="10.00">src/libs/vlayout/vbank.h</text>
</a>
</g>
</g>
<!-- Node2 -->
<g id="node2" class="node">
<title>Node2</title>
<g id="a_node2"><a xlink:href="../../de/da8/vbank_8cpp.html" target="_top" xlink:title=" ">
<polygon fill="white" stroke="black" points="546.5,-257.5 546.5,-276.5 690.5,-276.5 690.5,-257.5 546.5,-257.5"/>
<text text-anchor="middle" x="618.5" y="-264.5" font-family="Helvetica,sans-Serif" font-size="10.00">src/libs/vlayout/vbank.cpp</text>
</a>
</g>
</g>
<!-- Node1&#45;&gt;Node2 -->
<g id="edge1" class="edge">
<title>Node1&#45;&gt;Node2</title>
<path fill="none" stroke="midnightblue" d="M847.47,-311.54C793.8,-301.33 713.16,-286 663.29,-276.52"/>
<polygon fill="midnightblue" stroke="midnightblue" points="847.02,-315.01 857.5,-313.44 848.33,-308.14 847.02,-315.01"/>
</g>
<!-- Node3 -->
<g id="node3" class="node">
<title>Node3</title>
<g id="a_node3"><a xlink:href="../../dc/d3c/vlayoutgenerator_8h.html" target="_top" xlink:title=" ">
<polygon fill="white" stroke="black" points="708.5,-257.5 708.5,-276.5 894.5,-276.5 894.5,-257.5 708.5,-257.5"/>
<text text-anchor="middle" x="801.5" y="-264.5" font-family="Helvetica,sans-Serif" font-size="10.00">src/libs/vlayout/vlayoutgenerator.h</text>
</a>
</g>
</g>
<!-- Node1&#45;&gt;Node3 -->
<g id="edge2" class="edge">
<title>Node1&#45;&gt;Node3</title>
<path fill="none" stroke="midnightblue" d="M877.42,-308.59C858.74,-298.61 833.8,-285.27 817.69,-276.65"/>
<polygon fill="midnightblue" stroke="midnightblue" points="875.8,-311.7 886.27,-313.32 879.1,-305.52 875.8,-311.7"/>
</g>
<!-- Node5 -->
<g id="node5" class="node">
<title>Node5</title>
<g id="a_node5"><a xlink:href="../../d4/d5c/vcommonsettings_8h.html" target="_top" xlink:title=" ">
<polygon fill="white" stroke="black" points="913,-257.5 913,-276.5 1096,-276.5 1096,-257.5 913,-257.5"/>
<text text-anchor="middle" x="1004.5" y="-264.5" font-family="Helvetica,sans-Serif" font-size="10.00">src/libs/vmisc/vcommonsettings.h</text>
</a>
</g>
</g>
<!-- Node1&#45;&gt;Node5 -->
<g id="edge4" class="edge">
<title>Node1&#45;&gt;Node5</title>
<path fill="none" stroke="midnightblue" d="M927.83,-308.59C946.69,-298.61 971.88,-285.27 988.15,-276.65"/>
<polygon fill="midnightblue" stroke="midnightblue" points="926.09,-305.55 918.89,-313.32 929.36,-311.74 926.09,-305.55"/>
</g>
<!-- Node50 -->
<g id="node46" class="node">
<title>Node50</title>
<g id="a_node46"><a xlink:href="../../dd/db2/vsettings_8h.html" target="_top" xlink:title=" ">
<polygon fill="white" stroke="black" points="5259.5,-201.5 5259.5,-220.5 5399.5,-220.5 5399.5,-201.5 5259.5,-201.5"/>
<text text-anchor="middle" x="5329.5" y="-208.5" font-family="Helvetica,sans-Serif" font-size="10.00">src/libs/vmisc/vsettings.h</text>
</a>
</g>
</g>
<!-- Node1&#45;&gt;Node50 -->
<g id="edge63" class="edge">
<title>Node1&#45;&gt;Node50</title>
<path fill="none" stroke="midnightblue" d="M979.45,-320.89C1399.83,-314.67 3461.38,-282.22 5145.5,-221 5183.05,-219.63 5224.9,-217.63 5259.18,-215.85"/>
<polygon fill="midnightblue" stroke="midnightblue" points="979.19,-317.39 969.24,-321.04 979.29,-324.39 979.19,-317.39"/>
</g>
<!-- Node4 -->
<g id="node4" class="node">
<title>Node4</title>
<g id="a_node4"><a xlink:href="../../d3/d39/vlayoutgenerator_8cpp.html" target="_top" xlink:title=" ">
<polygon fill="white" stroke="black" points="186,-201.5 186,-220.5 383,-220.5 383,-201.5 186,-201.5"/>
<text text-anchor="middle" x="284.5" y="-208.5" font-family="Helvetica,sans-Serif" font-size="10.00">src/libs/vlayout/vlayoutgenerator.cpp</text>
</a>
</g>
</g>
<!-- Node3&#45;&gt;Node4 -->
<g id="edge3" class="edge">
<title>Node3&#45;&gt;Node4</title>
<path fill="none" stroke="midnightblue" d="M709.73,-256.41C612.24,-246.23 459.57,-230.29 366.13,-220.53"/>
<polygon fill="midnightblue" stroke="midnightblue" points="709.56,-259.92 719.87,-257.47 710.28,-252.95 709.56,-259.92"/>
</g>
<!-- Node6 -->
<g id="node6" class="node">
<title>Node6</title>
<g id="a_node6"><a xlink:href="../../d4/d90/fvupdater_8cpp.html" target="_top" xlink:title=" ">
<polygon fill="white" stroke="black" points="229,-73 229,-92 382,-92 382,-73 229,-73"/>
<text text-anchor="middle" x="305.5" y="-80" font-family="Helvetica,sans-Serif" font-size="10.00">src/libs/fervor/fvupdater.cpp</text>
</a>
</g>
</g>
<!-- Node5&#45;&gt;Node6 -->
<g id="edge5" class="edge">
<title>Node5&#45;&gt;Node6</title>
<path fill="none" stroke="midnightblue" d="M902.8,-256.77C814.02,-247.93 696.6,-234.05 678.5,-221 643.51,-195.78 670.38,-159.37 635.5,-134 546.49,-69.26 499.2,-115.25 390.5,-98 378.82,-96.15 366.25,-94.06 354.46,-92.05"/>
<polygon fill="midnightblue" stroke="midnightblue" points="902.63,-260.27 912.93,-257.77 903.32,-253.3 902.63,-260.27"/>
</g>
<!-- Node7 -->
<g id="node7" class="node">
<title>Node7</title>
<g id="a_node7"><a xlink:href="../../dd/d70/vlayoutpiece_8cpp.html" target="_top" xlink:title=" ">
<polygon fill="white" stroke="black" points="400,-73 400,-92 577,-92 577,-73 400,-73"/>
<text text-anchor="middle" x="488.5" y="-80" font-family="Helvetica,sans-Serif" font-size="10.00">src/libs/vlayout/vlayoutpiece.cpp</text>
</a>
</g>
</g>
<!-- Node5&#45;&gt;Node7 -->
<g id="edge6" class="edge">
<title>Node5&#45;&gt;Node7</title>
<path fill="none" stroke="midnightblue" d="M982.96,-251.81C960.57,-237.53 924.16,-215.58 890.5,-201 763.9,-146.15 604.12,-108.06 529.9,-92.01"/>
<polygon fill="midnightblue" stroke="midnightblue" points="981.35,-254.94 991.65,-257.42 985.14,-249.06 981.35,-254.94"/>
</g>
<!-- Node8 -->
<g id="node8" class="node">
<title>Node8</title>
<g id="a_node8"><a xlink:href="../../d5/d74/vabstractapplication_8h.html" target="_top" xlink:title=" ">
<polygon fill="white" stroke="black" points="2817,-140 2817,-159 3012,-159 3012,-140 2817,-140"/>
<text text-anchor="middle" x="2914.5" y="-147" font-family="Helvetica,sans-Serif" font-size="10.00">src/libs/vmisc/vabstractapplication.h</text>
</a>
</g>
</g>
<!-- Node5&#45;&gt;Node8 -->
<g id="edge7" class="edge">
<title>Node5&#45;&gt;Node8</title>
<path fill="none" stroke="midnightblue" d="M1106.41,-259.84C1439.01,-239.72 2490.21,-176.16 2816.75,-156.41"/>
<polygon fill="midnightblue" stroke="midnightblue" points="1106.07,-256.35 1096.3,-260.45 1106.49,-263.34 1106.07,-256.35"/>
</g>
<!-- Node26 -->
<g id="node22" class="node">
<title>Node26</title>
<g id="a_node22"><a xlink:href="../../db/d11/vformula_8cpp.html" target="_top" xlink:title=" ">
<polygon fill="white" stroke="black" points="595,-67.5 595,-97.5 702,-97.5 702,-67.5 595,-67.5"/>
<text text-anchor="start" x="603" y="-85.5" font-family="Helvetica,sans-Serif" font-size="10.00">src/libs/vpatterndb</text>
<text text-anchor="middle" x="648.5" y="-74.5" font-family="Helvetica,sans-Serif" font-size="10.00">/vformula.cpp</text>
</a>
</g>
</g>
<!-- Node5&#45;&gt;Node26 -->
<g id="edge55" class="edge">
<title>Node5&#45;&gt;Node26</title>
<path fill="none" stroke="midnightblue" d="M998.83,-247.75C988.75,-218.57 964.8,-161.88 923.5,-134 843.93,-80.27 804.62,-116.94 710.5,-98 707.79,-97.45 705.02,-96.88 702.22,-96.28"/>
<polygon fill="midnightblue" stroke="midnightblue" points="995.58,-249.06 1002.02,-257.47 1002.23,-246.87 995.58,-249.06"/>
</g>
<!-- Node29 -->
<g id="node25" class="node">
<title>Node29</title>
<g id="a_node25"><a xlink:href="../../df/dba/vpiecenode__p_8h.html" target="_top" xlink:title=" ">
<polygon fill="white" stroke="black" points="720,-67.5 720,-97.5 827,-97.5 827,-67.5 720,-67.5"/>
<text text-anchor="start" x="728" y="-85.5" font-family="Helvetica,sans-Serif" font-size="10.00">src/libs/vpatterndb</text>
<text text-anchor="middle" x="773.5" y="-74.5" font-family="Helvetica,sans-Serif" font-size="10.00">/vpiecenode_p.h</text>
</a>
</g>
</g>
<!-- Node5&#45;&gt;Node29 -->
<g id="edge56" class="edge">
<title>Node5&#45;&gt;Node29</title>
<path fill="none" stroke="midnightblue" d="M1003.8,-247.24C1001.7,-218.65 993.46,-164.33 961.5,-134 956.49,-129.25 881.19,-109.97 827.43,-96.65"/>
<polygon fill="midnightblue" stroke="midnightblue" points="1000.32,-247.67 1004.37,-257.46 1007.31,-247.28 1000.32,-247.67"/>
</g>
<!-- Node32 -->
<g id="node28" class="node">
<title>Node32</title>
<g id="a_node28"><a xlink:href="../../df/d40/export__format__combobox_8cpp.html" target="_top" xlink:title=" ">
<polygon fill="white" stroke="black" points="845,-67.5 845,-97.5 978,-97.5 978,-67.5 845,-67.5"/>
<text text-anchor="start" x="853" y="-85.5" font-family="Helvetica,sans-Serif" font-size="10.00">src/libs/vwidgets/export</text>
<text text-anchor="middle" x="911.5" y="-74.5" font-family="Helvetica,sans-Serif" font-size="10.00">_format_combobox.cpp</text>
</a>
</g>
</g>
<!-- Node5&#45;&gt;Node32 -->
<g id="edge57" class="edge">
<title>Node5&#45;&gt;Node32</title>
<path fill="none" stroke="midnightblue" d="M1009.06,-247.46C1014.64,-220.37 1020.89,-169.37 999.5,-134 989.38,-117.27 971.5,-105.55 954.48,-97.65"/>
<polygon fill="midnightblue" stroke="midnightblue" points="1005.59,-246.96 1006.8,-257.49 1012.42,-248.5 1005.59,-246.96"/>
</g>
<!-- Node34 -->
<g id="node30" class="node">
<title>Node34</title>
<g id="a_node30"><a xlink:href="../../d2/d28/page__format__combobox_8cpp.html" target="_top" xlink:title=" ">
<polygon fill="white" stroke="black" points="996,-67.5 996,-97.5 1127,-97.5 1127,-67.5 996,-67.5"/>
<text text-anchor="start" x="1004" y="-85.5" font-family="Helvetica,sans-Serif" font-size="10.00">src/libs/vwidgets/page</text>
<text text-anchor="middle" x="1061.5" y="-74.5" font-family="Helvetica,sans-Serif" font-size="10.00">_format_combobox.cpp</text>
</a>
</g>
</g>
<!-- Node5&#45;&gt;Node34 -->
<g id="edge58" class="edge">
<title>Node5&#45;&gt;Node34</title>
<path fill="none" stroke="midnightblue" d="M1019.36,-249.63C1025.9,-241.55 1033.09,-231.34 1037.5,-221 1055.55,-178.64 1060.03,-123.42 1061.14,-97.76"/>
<polygon fill="midnightblue" stroke="midnightblue" points="1016.5,-247.58 1012.67,-257.46 1021.82,-252.13 1016.5,-247.58"/>
</g>
<!-- Node39 -->
<g id="node35" class="node">
<title>Node39</title>
<g id="a_node35"><a xlink:href="../../d1/d90/vgrainlineitem_8cpp.html" target="_top" xlink:title=" ">
<polygon fill="white" stroke="black" points="5172,-73 5172,-92 5365,-92 5365,-73 5172,-73"/>
<text text-anchor="middle" x="5268.5" y="-80" font-family="Helvetica,sans-Serif" font-size="10.00">src/libs/vwidgets/vgrainlineitem.cpp</text>
</a>
</g>
</g>
<!-- Node5&#45;&gt;Node39 -->
<g id="edge59" class="edge">
<title>Node5&#45;&gt;Node39</title>
<path fill="none" stroke="midnightblue" d="M1106.53,-262.01C1735.08,-237.43 5058.26,-107.21 5162.5,-98 5179.15,-96.53 5197.2,-94.3 5213.6,-92.03"/>
<polygon fill="midnightblue" stroke="midnightblue" points="1105.99,-258.53 1096.14,-262.42 1106.27,-265.53 1105.99,-258.53"/>
</g>
<!-- Node41 -->
<g id="node37" class="node">
<title>Node41</title>
<g id="a_node37"><a xlink:href="../../d2/d31/vmaingraphicsview_8cpp.html" target="_top" xlink:title=" ">
<polygon fill="white" stroke="black" points="5623.5,-73 5623.5,-92 5839.5,-92 5839.5,-73 5623.5,-73"/>
<text text-anchor="middle" x="5731.5" y="-80" font-family="Helvetica,sans-Serif" font-size="10.00">src/libs/vwidgets/vmaingraphicsview.cpp</text>
</a>
</g>
</g>
<!-- Node5&#45;&gt;Node41 -->
<g id="edge60" class="edge">
<title>Node5&#45;&gt;Node41</title>
<path fill="none" stroke="midnightblue" d="M1106.42,-264.04C1518.19,-255.88 3099.02,-222.39 4398.5,-165 4939.24,-141.12 5075.39,-146.2 5614.5,-98 5632.34,-96.41 5651.65,-94.21 5669.35,-92"/>
<polygon fill="midnightblue" stroke="midnightblue" points="1106.26,-260.54 1096.33,-264.24 1106.4,-267.54 1106.26,-260.54"/>
</g>
<!-- Node45 -->
<g id="node41" class="node">
<title>Node45</title>
<g id="a_node41"><a xlink:href="../../d1/d88/vmaingraphicsscene_8cpp.html" target="_top" xlink:title=" ">
<polygon fill="white" stroke="black" points="5383.5,-73 5383.5,-92 5605.5,-92 5605.5,-73 5383.5,-73"/>
<text text-anchor="middle" x="5494.5" y="-80" font-family="Helvetica,sans-Serif" font-size="10.00">src/libs/vwidgets/vmaingraphicsscene.cpp</text>
</a>
</g>
</g>
<!-- Node5&#45;&gt;Node45 -->
<g id="edge61" class="edge">
<title>Node5&#45;&gt;Node45</title>
<path fill="none" stroke="midnightblue" d="M1106.31,-262.9C1337.9,-255.82 1921.98,-237.76 2410.5,-221 3090.11,-197.68 3260.08,-193.3 3939.5,-165 4577.42,-138.43 4738.25,-151.22 5374.5,-98 5393.01,-96.45 5413.06,-94.24 5431.38,-92.01"/>
<polygon fill="midnightblue" stroke="midnightblue" points="1106.1,-259.41 1096.21,-263.21 1106.31,-266.4 1106.1,-259.41"/>
</g>
<!-- Node46 -->
<g id="node42" class="node">
<title>Node46</title>
<g id="a_node42"><a xlink:href="../../df/df5/vtextgraphicsitem_8cpp.html" target="_top" xlink:title=" ">
<polygon fill="white" stroke="black" points="0,-73 0,-92 211,-92 211,-73 0,-73"/>
<text text-anchor="middle" x="105.5" y="-80" font-family="Helvetica,sans-Serif" font-size="10.00">src/libs/vwidgets/vtextgraphicsitem.cpp</text>
</a>
</g>
</g>
<!-- Node5&#45;&gt;Node46 -->
<g id="edge62" class="edge">
<title>Node5&#45;&gt;Node46</title>
<path fill="none" stroke="midnightblue" d="M916.55,-256.36C817.97,-245.28 670.36,-227.75 659.5,-221 620.03,-196.46 641.4,-157.83 601.5,-134 528.3,-90.28 304.25,-107.38 219.5,-98 203.34,-96.21 185.91,-94.09 169.67,-92.03"/>
<polygon fill="midnightblue" stroke="midnightblue" points="916.2,-259.84 926.53,-257.48 916.98,-252.89 916.2,-259.84"/>
</g>
<!-- Node47 -->
<g id="node43" class="node">
<title>Node47</title>
<g id="a_node43"><a xlink:href="../../d4/d11/vcommonsettings_8cpp.html" target="_top" xlink:title=" ">
<polygon fill="white" stroke="black" points="687.5,-201.5 687.5,-220.5 881.5,-220.5 881.5,-201.5 687.5,-201.5"/>
<text text-anchor="middle" x="784.5" y="-208.5" font-family="Helvetica,sans-Serif" font-size="10.00">src/libs/vmisc/vcommonsettings.cpp</text>
</a>
</g>
</g>
<!-- Node5&#45;&gt;Node47 -->
<g id="edge45" class="edge">
<title>Node5&#45;&gt;Node47</title>
<path fill="none" stroke="midnightblue" d="M959.78,-255.02C918.22,-244.82 857.19,-229.84 819.2,-220.52"/>
<polygon fill="midnightblue" stroke="midnightblue" points="959.09,-258.46 969.64,-257.44 960.76,-251.66 959.09,-258.46"/>
</g>
<!-- Node48 -->
<g id="node44" class="node">
<title>Node48</title>
<g id="a_node44"><a xlink:href="../../df/da4/vseamlymesettings_8h.html" target="_top" xlink:title=" ">
<polygon fill="white" stroke="black" points="401.5,-201.5 401.5,-220.5 593.5,-220.5 593.5,-201.5 401.5,-201.5"/>
<text text-anchor="middle" x="497.5" y="-208.5" font-family="Helvetica,sans-Serif" font-size="10.00">src/libs/vmisc/vseamlymesettings.h</text>
</a>
</g>
</g>
<!-- Node5&#45;&gt;Node48 -->
<g id="edge46" class="edge">
<title>Node5&#45;&gt;Node48</title>
<path fill="none" stroke="midnightblue" d="M914.21,-256.38C818.6,-246.2 669.09,-230.28 577.55,-220.53"/>
<polygon fill="midnightblue" stroke="midnightblue" points="914.13,-259.89 924.44,-257.47 914.87,-252.93 914.13,-259.89"/>
</g>
<!-- Node5&#45;&gt;Node50 -->
<g id="edge48" class="edge">
<title>Node5&#45;&gt;Node50</title>
<path fill="none" stroke="midnightblue" d="M1106.6,-265.42C1661.84,-262.17 4323.19,-245.57 5145.5,-221 5183.06,-219.88 5224.91,-217.89 5259.19,-216.07"/>
<polygon fill="midnightblue" stroke="midnightblue" points="1106.2,-261.92 1096.22,-265.48 1106.24,-268.92 1106.2,-261.92"/>
</g>
<!-- Node8&#45;&gt;Node6 -->
<g id="edge8" class="edge">
<title>Node8&#45;&gt;Node6</title>
<path fill="none" stroke="midnightblue" d="M2806.4,-148.48C2387.42,-148.08 870.13,-143.45 390.5,-98 376.64,-96.69 361.63,-94.41 348.14,-92.05"/>
<polygon fill="midnightblue" stroke="midnightblue" points="2806.69,-151.98 2816.69,-148.49 2806.69,-144.98 2806.69,-151.98"/>
</g>
<!-- Node8&#45;&gt;Node7 -->
<g id="edge18" class="edge">
<title>Node8&#45;&gt;Node7</title>
<path fill="none" stroke="midnightblue" d="M2806.84,-147.98C2409.46,-145.77 1025.48,-135.5 585.5,-98 569.72,-96.66 552.61,-94.37 537.21,-92.01"/>
<polygon fill="midnightblue" stroke="midnightblue" points="2806.87,-151.48 2816.89,-148.03 2806.91,-144.48 2806.87,-151.48"/>
</g>
<!-- Node9 -->
<g id="node9" class="node">
<title>Node9</title>
<g id="a_node9"><a xlink:href="../../d9/dc8/dxiface_8cpp.html" target="_top" xlink:title=" ">
<polygon fill="white" stroke="black" points="3664,-73 3664,-92 3799,-92 3799,-73 3664,-73"/>
<text text-anchor="middle" x="3731.5" y="-80" font-family="Helvetica,sans-Serif" font-size="10.00">src/libs/vdxf/dxiface.cpp</text>
</a>
</g>
</g>
<!-- Node8&#45;&gt;Node9 -->
<g id="edge9" class="edge">
<title>Node8&#45;&gt;Node9</title>
<path fill="none" stroke="midnightblue" d="M3022.47,-145.22C3167.09,-139.89 3431.48,-126.9 3655.5,-98 3667.36,-96.47 3680.15,-94.25 3691.81,-92.01"/>
<polygon fill="midnightblue" stroke="midnightblue" points="3022.13,-141.73 3012.26,-145.59 3022.38,-148.72 3022.13,-141.73"/>
</g>
<!-- Node10 -->
<g id="node10" class="node">
<title>Node10</title>
<g id="a_node10"><a xlink:href="../../da/d75/vabstractarc__p_8h.html" target="_top" xlink:title=" ">
<polygon fill="white" stroke="red" points="3817,-67.5 3817,-97.5 3924,-97.5 3924,-67.5 3817,-67.5"/>
<text text-anchor="start" x="3825" y="-85.5" font-family="Helvetica,sans-Serif" font-size="10.00">src/libs/vgeometry</text>
<text text-anchor="middle" x="3870.5" y="-74.5" font-family="Helvetica,sans-Serif" font-size="10.00">/vabstractarc_p.h</text>
</a>
</g>
</g>
<!-- Node8&#45;&gt;Node10 -->
<g id="edge10" class="edge">
<title>Node8&#45;&gt;Node10</title>
<path fill="none" stroke="midnightblue" d="M3022.41,-148.42C3191.04,-146.94 3526.91,-138.57 3808.5,-98 3811.24,-97.61 3814.03,-97.15 3816.84,-96.65"/>
<polygon fill="midnightblue" stroke="midnightblue" points="3022.25,-144.92 3012.28,-148.5 3022.31,-151.92 3022.25,-144.92"/>
</g>
<!-- Node12 -->
<g id="node11" class="node">
<title>Node12</title>
<g id="a_node11"><a xlink:href="../../dc/da3/varc__p_8h.html" target="_top" xlink:title=" ">
<polygon fill="white" stroke="red" points="3942,-67.5 3942,-97.5 4049,-97.5 4049,-67.5 3942,-67.5"/>
<text text-anchor="start" x="3950" y="-85.5" font-family="Helvetica,sans-Serif" font-size="10.00">src/libs/vgeometry</text>
<text text-anchor="middle" x="3995.5" y="-74.5" font-family="Helvetica,sans-Serif" font-size="10.00">/varc_p.h</text>
</a>
</g>
</g>
<!-- Node8&#45;&gt;Node12 -->
<g id="edge11" class="edge">
<title>Node8&#45;&gt;Node12</title>
<path fill="none" stroke="midnightblue" d="M3022.38,-145.62C3247.38,-139.2 3760.21,-122.35 3933.5,-98 3936.24,-97.62 3939.03,-97.17 3941.84,-96.67"/>
<polygon fill="midnightblue" stroke="midnightblue" points="3022.11,-142.12 3012.21,-145.9 3022.31,-149.12 3022.11,-142.12"/>
</g>
<!-- Node14 -->
<g id="node12" class="node">
<title>Node14</title>
<g id="a_node12"><a xlink:href="../../d5/d8e/vcubicbezier__p_8h.html" target="_top" xlink:title=" ">
<polygon fill="white" stroke="red" points="4067,-67.5 4067,-97.5 4174,-97.5 4174,-67.5 4067,-67.5"/>
<text text-anchor="start" x="4075" y="-85.5" font-family="Helvetica,sans-Serif" font-size="10.00">src/libs/vgeometry</text>
<text text-anchor="middle" x="4120.5" y="-74.5" font-family="Helvetica,sans-Serif" font-size="10.00">/vcubicbezier_p.h</text>
</a>
</g>
</g>
<!-- Node8&#45;&gt;Node14 -->
<g id="edge12" class="edge">
<title>Node8&#45;&gt;Node14</title>
<path fill="none" stroke="midnightblue" d="M3022.41,-146.29C3267.55,-140.87 3860.46,-125.29 4058.5,-98 4061.24,-97.62 4064.03,-97.18 4066.85,-96.69"/>
<polygon fill="midnightblue" stroke="midnightblue" points="3021.98,-142.8 3012.06,-146.52 3022.14,-149.8 3021.98,-142.8"/>
</g>
<!-- Node16 -->
<g id="node13" class="node">
<title>Node16</title>
<g id="a_node13"><a xlink:href="../../df/dde/vellipticalarc__p_8h.html" target="_top" xlink:title=" ">
<polygon fill="white" stroke="black" points="4192,-67.5 4192,-97.5 4299,-97.5 4299,-67.5 4192,-67.5"/>
<text text-anchor="start" x="4200" y="-85.5" font-family="Helvetica,sans-Serif" font-size="10.00">src/libs/vgeometry</text>
<text text-anchor="middle" x="4245.5" y="-74.5" font-family="Helvetica,sans-Serif" font-size="10.00">/vellipticalarc_p.h</text>
</a>
</g>
</g>
<!-- Node8&#45;&gt;Node16 -->
<g id="edge13" class="edge">
<title>Node8&#45;&gt;Node16</title>
<path fill="none" stroke="midnightblue" d="M3022.63,-146.84C3286.98,-142.35 3960.62,-128.22 4183.5,-98 4186.24,-97.63 4189.03,-97.19 4191.85,-96.71"/>
<polygon fill="midnightblue" stroke="midnightblue" points="3022.19,-143.34 3012.25,-147.01 3022.31,-150.34 3022.19,-143.34"/>
</g>
<!-- Node17 -->
<g id="node14" class="node">
<title>Node17</title>
<g id="a_node14"><a xlink:href="../../d6/dfb/vellipticalarc_8cpp.html" target="_top" xlink:title=" ">
<polygon fill="white" stroke="black" points="4233,-0.5 4233,-30.5 4340,-30.5 4340,-0.5 4233,-0.5"/>
<text text-anchor="start" x="4241" y="-18.5" font-family="Helvetica,sans-Serif" font-size="10.00">src/libs/vgeometry</text>
<text text-anchor="middle" x="4286.5" y="-7.5" font-family="Helvetica,sans-Serif" font-size="10.00">/vellipticalarc.cpp</text>
</a>
</g>
</g>
<!-- Node8&#45;&gt;Node17 -->
<g id="edge15" class="edge">
<title>Node8&#45;&gt;Node17</title>
<path fill="none" stroke="midnightblue" d="M3022.4,-148.63C3341.96,-148.49 4264.06,-144.07 4308.5,-98 4326.2,-79.64 4309.68,-48.59 4297.27,-30.58"/>
<polygon fill="midnightblue" stroke="midnightblue" points="3022.2,-145.13 3012.21,-148.63 3022.21,-152.13 3022.2,-145.13"/>
</g>
<!-- Node18 -->
<g id="node15" class="node">
<title>Node18</title>
<g id="a_node15"><a xlink:href="../../d1/d76/vspline__p_8h.html" target="_top" xlink:title=" ">
<polygon fill="white" stroke="red" points="4356,-67.5 4356,-97.5 4463,-97.5 4463,-67.5 4356,-67.5"/>
<text text-anchor="start" x="4364" y="-85.5" font-family="Helvetica,sans-Serif" font-size="10.00">src/libs/vgeometry</text>
<text text-anchor="middle" x="4409.5" y="-74.5" font-family="Helvetica,sans-Serif" font-size="10.00">/vspline_p.h</text>
</a>
</g>
</g>
<!-- Node8&#45;&gt;Node18 -->
<g id="edge16" class="edge">
<title>Node8&#45;&gt;Node18</title>
<path fill="none" stroke="midnightblue" d="M3022.55,-147.12C3309.59,-143.07 4086.62,-129.44 4341.5,-98 4346.17,-97.42 4351,-96.69 4355.83,-95.85"/>
<polygon fill="midnightblue" stroke="midnightblue" points="3022.08,-143.63 3012.13,-147.27 3022.18,-150.63 3022.08,-143.63"/>
</g>
<!-- Node20 -->
<g id="node16" class="node">
<title>Node20</title>
<g id="a_node16"><a xlink:href="../../d9/d15/vabstractpiece_8cpp.html" target="_top" xlink:title=" ">
<polygon fill="white" stroke="black" points="4481.5,-73 4481.5,-92 4667.5,-92 4667.5,-73 4481.5,-73"/>
<text text-anchor="middle" x="4574.5" y="-80" font-family="Helvetica,sans-Serif" font-size="10.00">src/libs/vlayout/vabstractpiece.cpp</text>
</a>
</g>
</g>
<!-- Node8&#45;&gt;Node20 -->
<g id="edge17" class="edge">
<title>Node8&#45;&gt;Node20</title>
<path fill="none" stroke="midnightblue" d="M3022.57,-149.04C3276.22,-149.41 3929.35,-145.27 4472.5,-98 4488.8,-96.58 4506.48,-94.32 4522.47,-92.01"/>
<polygon fill="midnightblue" stroke="midnightblue" points="3022.26,-145.54 3012.25,-149.02 3022.24,-152.54 3022.26,-145.54"/>
</g>
<!-- Node21 -->
<g id="node17" class="node">
<title>Node21</title>
<g id="a_node17"><a xlink:href="../../d8/d70/vtextmanager_8cpp.html" target="_top" xlink:title=" ">
<polygon fill="white" stroke="black" points="4685.5,-73 4685.5,-92 4867.5,-92 4867.5,-73 4685.5,-73"/>
<text text-anchor="middle" x="4776.5" y="-80" font-family="Helvetica,sans-Serif" font-size="10.00">src/libs/vlayout/vtextmanager.cpp</text>
</a>
</g>
</g>
<!-- Node8&#45;&gt;Node21 -->
<g id="edge19" class="edge">
<title>Node8&#45;&gt;Node21</title>
<path fill="none" stroke="midnightblue" d="M3022.13,-147.04C3353.05,-142.31 4352.67,-126.02 4676.5,-98 4692.58,-96.61 4710.02,-94.34 4725.76,-92.01"/>
<polygon fill="midnightblue" stroke="midnightblue" points="3022.01,-143.55 3012.06,-147.19 3022.11,-150.54 3022.01,-143.55"/>
</g>
<!-- Node22 -->
<g id="node18" class="node">
<title>Node22</title>
<g id="a_node18"><a xlink:href="../../db/d65/dialogexporttocsv_8cpp.html" target="_top" xlink:title=" ">
<polygon fill="white" stroke="black" points="4886,-67.5 4886,-97.5 5013,-97.5 5013,-67.5 4886,-67.5"/>
<text text-anchor="start" x="4894" y="-85.5" font-family="Helvetica,sans-Serif" font-size="10.00">src/libs/vmisc/dialogs</text>
<text text-anchor="middle" x="4949.5" y="-74.5" font-family="Helvetica,sans-Serif" font-size="10.00">/dialogexporttocsv.cpp</text>
</a>
</g>
</g>
<!-- Node8&#45;&gt;Node22 -->
<g id="edge20" class="edge">
<title>Node8&#45;&gt;Node22</title>
<path fill="none" stroke="midnightblue" d="M3022.29,-148.14C3378.03,-146.59 4512.78,-138.5 4876.5,-98 4879.58,-97.66 4882.73,-97.25 4885.9,-96.8"/>
<polygon fill="midnightblue" stroke="midnightblue" points="3022.23,-144.64 3012.24,-148.19 3022.26,-151.64 3022.23,-144.64"/>
</g>
<!-- Node23 -->
<g id="node19" class="node">
<title>Node23</title>
<g id="a_node19"><a xlink:href="../../d6/d0b/def_8cpp.html" target="_top" xlink:title=" ">
<polygon fill="white" stroke="black" points="5031.5,-73 5031.5,-92 5153.5,-92 5153.5,-73 5031.5,-73"/>
<text text-anchor="middle" x="5092.5" y="-80" font-family="Helvetica,sans-Serif" font-size="10.00">src/libs/vmisc/def.cpp</text>
</a>
</g>
</g>
<!-- Node8&#45;&gt;Node23 -->
<g id="edge21" class="edge">
<title>Node8&#45;&gt;Node23</title>
<path fill="none" stroke="midnightblue" d="M3022.49,-147.06C3424.79,-141.52 4823.56,-120.8 5022.5,-98 5033.97,-96.69 5046.34,-94.41 5057.45,-92.05"/>
<polygon fill="midnightblue" stroke="midnightblue" points="3022.26,-143.56 3012.31,-147.2 3022.36,-150.56 3022.26,-143.56"/>
</g>
<!-- Node24 -->
<g id="node20" class="node">
<title>Node24</title>
<g id="a_node20"><a xlink:href="../../d0/df6/vabstractapplication_8cpp.html" target="_top" xlink:title=" ">
<polygon fill="white" stroke="black" points="1145.5,-73 1145.5,-92 1351.5,-92 1351.5,-73 1145.5,-73"/>
<text text-anchor="middle" x="1248.5" y="-80" font-family="Helvetica,sans-Serif" font-size="10.00">src/libs/vmisc/vabstractapplication.cpp</text>
</a>
</g>
</g>
<!-- Node8&#45;&gt;Node24 -->
<g id="edge22" class="edge">
<title>Node8&#45;&gt;Node24</title>
<path fill="none" stroke="midnightblue" d="M2806.36,-148.52C2553.28,-147.79 1902.88,-141.44 1361.5,-98 1343.56,-96.56 1324.09,-94.31 1306.46,-92.01"/>
<polygon fill="midnightblue" stroke="midnightblue" points="2806.64,-152.02 2816.65,-148.54 2806.66,-145.02 2806.64,-152.02"/>
</g>
<!-- Node25 -->
<g id="node21" class="node">
<title>Node25</title>
<g id="a_node21"><a xlink:href="../../d4/d4f/pmsystems_8cpp.html" target="_top" xlink:title=" ">
<polygon fill="white" stroke="black" points="1370,-67.5 1370,-97.5 1477,-97.5 1477,-67.5 1370,-67.5"/>
<text text-anchor="start" x="1378" y="-85.5" font-family="Helvetica,sans-Serif" font-size="10.00">src/libs/vpatterndb</text>
<text text-anchor="middle" x="1423.5" y="-74.5" font-family="Helvetica,sans-Serif" font-size="10.00">/pmsystems.cpp</text>
</a>
</g>
</g>
<!-- Node8&#45;&gt;Node25 -->
<g id="edge23" class="edge">
<title>Node8&#45;&gt;Node25</title>
<path fill="none" stroke="midnightblue" d="M2806.77,-147.35C2519.8,-143.87 1741.42,-131.53 1486.5,-98 1483.5,-97.6 1480.42,-97.13 1477.33,-96.6"/>
<polygon fill="midnightblue" stroke="midnightblue" points="2806.73,-150.85 2816.77,-147.47 2806.81,-143.85 2806.73,-150.85"/>
</g>
<!-- Node8&#45;&gt;Node26 -->
<g id="edge24" class="edge">
<title>Node8&#45;&gt;Node26</title>
<path fill="none" stroke="midnightblue" d="M2806.42,-148.98C2422.12,-150.23 1122.86,-150.37 710.5,-98 707.76,-97.65 704.96,-97.23 702.14,-96.76"/>
<polygon fill="midnightblue" stroke="midnightblue" points="2806.71,-152.48 2816.7,-148.95 2806.69,-145.48 2806.71,-152.48"/>
</g>
<!-- Node27 -->
<g id="node23" class="node">
<title>Node27</title>
<g id="a_node23"><a xlink:href="../../d6/d46/vcontainer_8cpp.html" target="_top" xlink:title=" ">
<polygon fill="white" stroke="black" points="1495,-67.5 1495,-97.5 1602,-97.5 1602,-67.5 1495,-67.5"/>
<text text-anchor="start" x="1503" y="-85.5" font-family="Helvetica,sans-Serif" font-size="10.00">src/libs/vpatterndb</text>
<text text-anchor="middle" x="1548.5" y="-74.5" font-family="Helvetica,sans-Serif" font-size="10.00">/vcontainer.cpp</text>
</a>
</g>
</g>
<!-- Node8&#45;&gt;Node27 -->
<g id="edge25" class="edge">
<title>Node8&#45;&gt;Node27</title>
<path fill="none" stroke="midnightblue" d="M2806.82,-146.93C2537.78,-142.58 1841.36,-128.63 1611.5,-98 1608.5,-97.6 1605.43,-97.12 1602.33,-96.59"/>
<polygon fill="midnightblue" stroke="midnightblue" points="2806.93,-150.43 2816.99,-147.09 2807.04,-143.43 2806.93,-150.43"/>
</g>
<!-- Node28 -->
<g id="node24" class="node">
<title>Node28</title>
<g id="a_node24"><a xlink:href="../../df/d7a/vpiece_8cpp.html" target="_top" xlink:title=" ">
<polygon fill="white" stroke="black" points="1620,-67.5 1620,-97.5 1727,-97.5 1727,-67.5 1620,-67.5"/>
<text text-anchor="start" x="1628" y="-85.5" font-family="Helvetica,sans-Serif" font-size="10.00">src/libs/vpatterndb</text>
<text text-anchor="middle" x="1673.5" y="-74.5" font-family="Helvetica,sans-Serif" font-size="10.00">/vpiece.cpp</text>
</a>
</g>
</g>
<!-- Node8&#45;&gt;Node28 -->
<g id="edge26" class="edge">
<title>Node8&#45;&gt;Node28</title>
<path fill="none" stroke="midnightblue" d="M2806.53,-146.4C2556.08,-141.13 1941.33,-125.72 1736.5,-98 1733.5,-97.59 1730.43,-97.11 1727.34,-96.57"/>
<polygon fill="midnightblue" stroke="midnightblue" points="2806.67,-149.91 2816.74,-146.62 2806.81,-142.91 2806.67,-149.91"/>
</g>
<!-- Node8&#45;&gt;Node29 -->
<g id="edge27" class="edge">
<title>Node8&#45;&gt;Node29</title>
<path fill="none" stroke="midnightblue" d="M2806.62,-148.8C2436.88,-149.39 1222.36,-147.4 835.5,-98 832.76,-97.65 829.96,-97.23 827.15,-96.76"/>
<polygon fill="midnightblue" stroke="midnightblue" points="2806.79,-152.3 2816.79,-148.79 2806.78,-145.3 2806.79,-152.3"/>
</g>
<!-- Node31 -->
<g id="node27" class="node">
<title>Node31</title>
<g id="a_node27"><a xlink:href="../../de/d3e/vtranslatevars_8cpp.html" target="_top" xlink:title=" ">
<polygon fill="white" stroke="black" points="1745.5,-67.5 1745.5,-97.5 1855.5,-97.5 1855.5,-67.5 1745.5,-67.5"/>
<text text-anchor="start" x="1753.5" y="-85.5" font-family="Helvetica,sans-Serif" font-size="10.00">src/libs/vpatterndb</text>
<text text-anchor="middle" x="1800.5" y="-74.5" font-family="Helvetica,sans-Serif" font-size="10.00">/vtranslatevars.cpp</text>
</a>
</g>
</g>
<!-- Node8&#45;&gt;Node31 -->
<g id="edge29" class="edge">
<title>Node8&#45;&gt;Node31</title>
<path fill="none" stroke="midnightblue" d="M2806.71,-145.71C2576.68,-139.36 2044.02,-122.46 1864.5,-98 1861.57,-97.6 1858.57,-97.13 1855.55,-96.61"/>
<polygon fill="midnightblue" stroke="midnightblue" points="2806.68,-149.21 2816.77,-145.98 2806.87,-142.21 2806.68,-149.21"/>
</g>
<!-- Node8&#45;&gt;Node32 -->
<g id="edge30" class="edge">
<title>Node8&#45;&gt;Node32</title>
<path fill="none" stroke="midnightblue" d="M2806.57,-147.98C2454.89,-145.91 1344.17,-136.44 987.5,-98 984.43,-97.67 981.3,-97.28 978.14,-96.85"/>
<polygon fill="midnightblue" stroke="midnightblue" points="2806.73,-151.48 2816.75,-148.04 2806.77,-144.48 2806.73,-151.48"/>
</g>
<!-- Node33 -->
<g id="node29" class="node">
<title>Node33</title>
<g id="a_node29"><a xlink:href="../../d3/d4f/mouse__coordinates_8cpp.html" target="_top" xlink:title=" ">
<polygon fill="white" stroke="black" points="1873.5,-67.5 1873.5,-97.5 2007.5,-97.5 2007.5,-67.5 1873.5,-67.5"/>
<text text-anchor="start" x="1881.5" y="-85.5" font-family="Helvetica,sans-Serif" font-size="10.00">src/libs/vwidgets/mouse</text>
<text text-anchor="middle" x="1940.5" y="-74.5" font-family="Helvetica,sans-Serif" font-size="10.00">_coordinates.cpp</text>
</a>
</g>
</g>
<!-- Node8&#45;&gt;Node33 -->
<g id="edge31" class="edge">
<title>Node8&#45;&gt;Node33</title>
<path fill="none" stroke="midnightblue" d="M2806.77,-146.95C2637.95,-143.5 2301.05,-132.53 2017.5,-98 2014.26,-97.61 2010.95,-97.16 2007.61,-96.67"/>
<polygon fill="midnightblue" stroke="midnightblue" points="2806.84,-150.45 2816.9,-147.15 2806.98,-143.45 2806.84,-150.45"/>
</g>
<!-- Node8&#45;&gt;Node34 -->
<g id="edge32" class="edge">
<title>Node8&#45;&gt;Node34</title>
<path fill="none" stroke="midnightblue" d="M2806.7,-147.74C2473.47,-145.01 1462.8,-133.94 1136.5,-98 1133.47,-97.67 1130.38,-97.28 1127.26,-96.84"/>
<polygon fill="midnightblue" stroke="midnightblue" points="2806.81,-151.24 2816.84,-147.82 2806.87,-144.24 2806.81,-151.24"/>
</g>
<!-- Node35 -->
<g id="node31" class="node">
<title>Node35</title>
<g id="a_node31"><a xlink:href="../../d7/d1b/pen__toolbar_8cpp.html" target="_top" xlink:title=" ">
<polygon fill="white" stroke="black" points="2026,-67.5 2026,-97.5 2145,-97.5 2145,-67.5 2026,-67.5"/>
<text text-anchor="start" x="2034" y="-85.5" font-family="Helvetica,sans-Serif" font-size="10.00">src/libs/vwidgets/pen</text>
<text text-anchor="middle" x="2085.5" y="-74.5" font-family="Helvetica,sans-Serif" font-size="10.00">_toolbar.cpp</text>
</a>
</g>
</g>
<!-- Node8&#45;&gt;Node35 -->
<g id="edge33" class="edge">
<title>Node8&#45;&gt;Node35</title>
<path fill="none" stroke="midnightblue" d="M2806.46,-146.1C2658.66,-141.73 2385.41,-129.77 2154.5,-98 2151.47,-97.58 2148.37,-97.11 2145.25,-96.59"/>
<polygon fill="midnightblue" stroke="midnightblue" points="2806.78,-149.61 2816.88,-146.4 2806.98,-142.62 2806.78,-149.61"/>
</g>
<!-- Node36 -->
<g id="node32" class="node">
<title>Node36</title>
<g id="a_node32"><a xlink:href="../../d8/d76/scene__rect_8cpp.html" target="_top" xlink:title=" ">
<polygon fill="white" stroke="black" points="2163.5,-67.5 2163.5,-97.5 2293.5,-97.5 2293.5,-67.5 2163.5,-67.5"/>
<text text-anchor="start" x="2171.5" y="-85.5" font-family="Helvetica,sans-Serif" font-size="10.00">src/libs/vwidgets/scene</text>
<text text-anchor="middle" x="2228.5" y="-74.5" font-family="Helvetica,sans-Serif" font-size="10.00">_rect.cpp</text>
</a>
</g>
</g>
<!-- Node8&#45;&gt;Node36 -->
<g id="edge34" class="edge">
<title>Node8&#45;&gt;Node36</title>
<path fill="none" stroke="midnightblue" d="M2806.67,-143.13C2684.28,-136.22 2478.88,-122.13 2303.5,-98 2300.35,-97.57 2297.13,-97.09 2293.88,-96.57"/>
<polygon fill="midnightblue" stroke="midnightblue" points="2806.61,-146.64 2816.79,-143.7 2807,-139.65 2806.61,-146.64"/>
</g>
<!-- Node37 -->
<g id="node33" class="node">
<title>Node37</title>
<g id="a_node33"><a xlink:href="../../dd/df6/vabstractmainwindow_8cpp.html" target="_top" xlink:title=" ">
<polygon fill="white" stroke="black" points="2312,-73 2312,-92 2541,-92 2541,-73 2312,-73"/>
<text text-anchor="middle" x="2426.5" y="-80" font-family="Helvetica,sans-Serif" font-size="10.00">src/libs/vwidgets/vabstractmainwindow.cpp</text>
</a>
</g>
</g>
<!-- Node8&#45;&gt;Node37 -->
<g id="edge35" class="edge">
<title>Node8&#45;&gt;Node37</title>
<path fill="none" stroke="midnightblue" d="M2840.31,-138.62C2744.92,-125.91 2580.86,-104.06 2490.63,-92.04"/>
<polygon fill="midnightblue" stroke="midnightblue" points="2840.08,-142.12 2850.45,-139.97 2841,-135.18 2840.08,-142.12"/>
</g>
<!-- Node38 -->
<g id="node34" class="node">
<title>Node38</title>
<g id="a_node34"><a xlink:href="../../de/d45/vcontrolpointspline_8cpp.html" target="_top" xlink:title=" ">
<polygon fill="white" stroke="black" points="2559,-73 2559,-92 2774,-92 2774,-73 2559,-73"/>
<text text-anchor="middle" x="2666.5" y="-80" font-family="Helvetica,sans-Serif" font-size="10.00">src/libs/vwidgets/vcontrolpointspline.cpp</text>
</a>
</g>
</g>
<!-- Node8&#45;&gt;Node38 -->
<g id="edge36" class="edge">
<title>Node8&#45;&gt;Node38</title>
<path fill="none" stroke="midnightblue" d="M2871.86,-137.32C2822.89,-124.49 2743.62,-103.71 2699.25,-92.08"/>
<polygon fill="midnightblue" stroke="midnightblue" points="2871.26,-140.79 2881.82,-139.94 2873.04,-134.01 2871.26,-140.79"/>
</g>
<!-- Node8&#45;&gt;Node39 -->
<g id="edge37" class="edge">
<title>Node8&#45;&gt;Node39</title>
<path fill="none" stroke="midnightblue" d="M3022.31,-147.7C3410.9,-144.57 4739.04,-131.61 5162.5,-98 5179.63,-96.64 5198.22,-94.37 5214.98,-92.03"/>
<polygon fill="midnightblue" stroke="midnightblue" points="3022.17,-144.2 3012.2,-147.78 3022.22,-151.2 3022.17,-144.2"/>
</g>
<!-- Node40 -->
<g id="node36" class="node">
<title>Node40</title>
<g id="a_node36"><a xlink:href="../../de/dec/vgraphicssimpletextitem_8cpp.html" target="_top" xlink:title=" ">
<polygon fill="white" stroke="black" points="2792.5,-73 2792.5,-92 3036.5,-92 3036.5,-73 2792.5,-73"/>
<text text-anchor="middle" x="2914.5" y="-80" font-family="Helvetica,sans-Serif" font-size="10.00">src/libs/vwidgets/vgraphicssimpletextitem.cpp</text>
</a>
</g>
</g>
<!-- Node8&#45;&gt;Node40 -->
<g id="edge38" class="edge">
<title>Node8&#45;&gt;Node40</title>
<path fill="none" stroke="midnightblue" d="M2914.5,-129.54C2914.5,-117.17 2914.5,-101.62 2914.5,-92.13"/>
<polygon fill="midnightblue" stroke="midnightblue" points="2911,-129.73 2914.5,-139.73 2918,-129.73 2911,-129.73"/>
</g>
<!-- Node8&#45;&gt;Node41 -->
<g id="edge39" class="edge">
<title>Node8&#45;&gt;Node41</title>
<path fill="none" stroke="midnightblue" d="M3022.33,-147.99C3459.03,-145.7 5097.43,-134.77 5614.5,-98 5633.49,-96.65 5654.12,-94.37 5672.7,-92.01"/>
<polygon fill="midnightblue" stroke="midnightblue" points="3022.22,-144.49 3012.24,-148.04 3022.26,-151.49 3022.22,-144.49"/>
</g>
<!-- Node42 -->
<g id="node38" class="node">
<title>Node42</title>
<g id="a_node38"><a xlink:href="../../d0/d5d/vscenepoint_8cpp.html" target="_top" xlink:title=" ">
<polygon fill="white" stroke="black" points="3055,-73 3055,-92 3236,-92 3236,-73 3055,-73"/>
<text text-anchor="middle" x="3145.5" y="-80" font-family="Helvetica,sans-Serif" font-size="10.00">src/libs/vwidgets/vscenepoint.cpp</text>
</a>
</g>
</g>
<!-- Node8&#45;&gt;Node42 -->
<g id="edge40" class="edge">
<title>Node8&#45;&gt;Node42</title>
<path fill="none" stroke="midnightblue" d="M2955.05,-137.09C3000.74,-124.23 3074,-103.62 3115.07,-92.06"/>
<polygon fill="midnightblue" stroke="midnightblue" points="2953.85,-133.79 2945.18,-139.87 2955.75,-140.53 2953.85,-133.79"/>
</g>
<!-- Node43 -->
<g id="node39" class="node">
<title>Node43</title>
<g id="a_node39"><a xlink:href="../../de/d22/vsimplecurve_8cpp.html" target="_top" xlink:title=" ">
<polygon fill="white" stroke="black" points="3254.5,-73 3254.5,-92 3442.5,-92 3442.5,-73 3254.5,-73"/>
<text text-anchor="middle" x="3348.5" y="-80" font-family="Helvetica,sans-Serif" font-size="10.00">src/libs/vwidgets/vsimplecurve.cpp</text>
</a>
</g>
</g>
<!-- Node8&#45;&gt;Node43 -->
<g id="edge41" class="edge">
<title>Node8&#45;&gt;Node43</title>
<path fill="none" stroke="midnightblue" d="M2981.75,-138.43C3066.78,-125.69 3211.69,-103.99 3291.53,-92.03"/>
<polygon fill="midnightblue" stroke="midnightblue" points="2981.06,-134.99 2971.68,-139.94 2982.09,-141.92 2981.06,-134.99"/>
</g>
<!-- Node44 -->
<g id="node40" class="node">
<title>Node44</title>
<g id="a_node40"><a xlink:href="../../df/d38/vsimplepoint_8cpp.html" target="_top" xlink:title=" ">
<polygon fill="white" stroke="black" points="3461,-73 3461,-92 3646,-92 3646,-73 3461,-73"/>
<text text-anchor="middle" x="3553.5" y="-80" font-family="Helvetica,sans-Serif" font-size="10.00">src/libs/vwidgets/vsimplepoint.cpp</text>
</a>
</g>
</g>
<!-- Node8&#45;&gt;Node44 -->
<g id="edge42" class="edge">
<title>Node8&#45;&gt;Node44</title>
<path fill="none" stroke="midnightblue" d="M3022.12,-139.89C3130.65,-130.85 3302.93,-115.54 3451.5,-98 3466.24,-96.26 3482.15,-94.12 3496.91,-92.03"/>
<polygon fill="midnightblue" stroke="midnightblue" points="3021.82,-136.4 3012.15,-140.72 3022.4,-143.38 3021.82,-136.4"/>
</g>
<!-- Node8&#45;&gt;Node45 -->
<g id="edge43" class="edge">
<title>Node8&#45;&gt;Node45</title>
<path fill="none" stroke="midnightblue" d="M3022.23,-147.72C3433.78,-144.52 4907.02,-130.96 5374.5,-98 5393.86,-96.63 5414.9,-94.36 5433.87,-92.02"/>
<polygon fill="midnightblue" stroke="midnightblue" points="3022.09,-144.22 3012.12,-147.8 3022.15,-151.22 3022.09,-144.22"/>
</g>
<!-- Node8&#45;&gt;Node46 -->
<g id="edge44" class="edge">
<title>Node8&#45;&gt;Node46</title>
<path fill="none" stroke="midnightblue" d="M2806.86,-148.03C2370.96,-145.91 735.55,-135.54 219.5,-98 200.99,-96.65 180.89,-94.37 162.79,-92.01"/>
<polygon fill="midnightblue" stroke="midnightblue" points="2806.92,-151.53 2816.94,-148.08 2806.95,-144.53 2806.92,-151.53"/>
</g>
<!-- Node16&#45;&gt;Node17 -->
<g id="edge14" class="edge">
<title>Node16&#45;&gt;Node17</title>
<path fill="none" stroke="midnightblue" d="M4259.78,-58.87C4265.71,-49.46 4272.41,-38.83 4277.62,-30.58"/>
<polygon fill="midnightblue" stroke="midnightblue" points="4256.77,-57.07 4254.4,-67.4 4262.69,-60.81 4256.77,-57.07"/>
</g>
<!-- Node30 -->
<g id="node26" class="node">
<title>Node30</title>
<g id="a_node26"><a xlink:href="../../d8/dba/vpiecenode_8cpp.html" target="_top" xlink:title=" ">
<polygon fill="white" stroke="black" points="720,-0.5 720,-30.5 827,-30.5 827,-0.5 720,-0.5"/>
<text text-anchor="start" x="728" y="-18.5" font-family="Helvetica,sans-Serif" font-size="10.00">src/libs/vpatterndb</text>
<text text-anchor="middle" x="773.5" y="-7.5" font-family="Helvetica,sans-Serif" font-size="10.00">/vpiecenode.cpp</text>
</a>
</g>
</g>
<!-- Node29&#45;&gt;Node30 -->
<g id="edge28" class="edge">
<title>Node29&#45;&gt;Node30</title>
<path fill="none" stroke="midnightblue" d="M773.5,-57.11C773.5,-48.15 773.5,-38.32 773.5,-30.58"/>
<polygon fill="midnightblue" stroke="midnightblue" points="770,-57.4 773.5,-67.4 777,-57.4 770,-57.4"/>
</g>
<!-- Node49 -->
<g id="node45" class="node">
<title>Node49</title>
<g id="a_node45"><a xlink:href="../../df/dba/vseamlymesettings_8cpp.html" target="_top" xlink:title=" ">
<polygon fill="white" stroke="black" points="390,-140 390,-159 593,-159 593,-140 390,-140"/>
<text text-anchor="middle" x="491.5" y="-147" font-family="Helvetica,sans-Serif" font-size="10.00">src/libs/vmisc/vseamlymesettings.cpp</text>
</a>
</g>
</g>
<!-- Node48&#45;&gt;Node49 -->
<g id="edge47" class="edge">
<title>Node48&#45;&gt;Node49</title>
<path fill="none" stroke="midnightblue" d="M495.62,-191.32C494.52,-180.5 493.2,-167.4 492.36,-159.01"/>
<polygon fill="midnightblue" stroke="midnightblue" points="492.15,-191.88 496.64,-201.48 499.12,-191.17 492.15,-191.88"/>
</g>
<!-- Node50&#45;&gt;Node8 -->
<g id="edge52" class="edge">
<title>Node50&#45;&gt;Node8</title>
<path fill="none" stroke="midnightblue" d="M5249.05,-208.02C4886.76,-199.09 3407.4,-162.64 3012.04,-152.9"/>
<polygon fill="midnightblue" stroke="midnightblue" points="5249.1,-211.52 5259.18,-208.27 5249.27,-204.52 5249.1,-211.52"/>
</g>
<!-- Node50&#45;&gt;Node41 -->
<g id="edge54" class="edge">
<title>Node50&#45;&gt;Node41</title>
<path fill="none" stroke="midnightblue" d="M5366.48,-198.36C5446.52,-173.18 5634.25,-114.1 5704.41,-92.02"/>
<polygon fill="midnightblue" stroke="midnightblue" points="5365.3,-195.06 5356.82,-201.4 5367.4,-201.74 5365.3,-195.06"/>
</g>
<!-- Node51 -->
<g id="node47" class="node">
<title>Node51</title>
<g id="a_node47"><a xlink:href="../../d9/d02/vapplication_8h.html" target="_top" xlink:title=" ">
<polygon fill="white" stroke="red" points="5808,-134.5 5808,-164.5 5935,-164.5 5935,-134.5 5808,-134.5"/>
<text text-anchor="start" x="5816" y="-152.5" font-family="Helvetica,sans-Serif" font-size="10.00">src/app/seamly2d/core</text>
<text text-anchor="middle" x="5871.5" y="-141.5" font-family="Helvetica,sans-Serif" font-size="10.00">/vapplication.h</text>
</a>
</g>
</g>
<!-- Node50&#45;&gt;Node51 -->
<g id="edge49" class="edge">
<title>Node50&#45;&gt;Node51</title>
<path fill="none" stroke="midnightblue" d="M5409.75,-201.19C5518.11,-189.3 5709.01,-168.34 5807.99,-157.47"/>
<polygon fill="midnightblue" stroke="midnightblue" points="5409.08,-197.74 5399.52,-202.31 5409.85,-204.7 5409.08,-197.74"/>
</g>
<!-- Node74 -->
<g id="node50" class="node">
<title>Node74</title>
<g id="a_node50"><a xlink:href="../../db/d28/vsettings_8cpp.html" target="_top" xlink:title=" ">
<polygon fill="white" stroke="black" points="5953.5,-140 5953.5,-159 6105.5,-159 6105.5,-140 5953.5,-140"/>
<text text-anchor="middle" x="6029.5" y="-147" font-family="Helvetica,sans-Serif" font-size="10.00">src/libs/vmisc/vsettings.cpp</text>
</a>
</g>
</g>
<!-- Node50&#45;&gt;Node74 -->
<g id="edge53" class="edge">
<title>Node50&#45;&gt;Node74</title>
<path fill="none" stroke="midnightblue" d="M5409.82,-206.58C5527.48,-201.02 5753.46,-188.23 5944.5,-165 5957.43,-163.43 5971.39,-161.25 5984.18,-159.06"/>
<polygon fill="midnightblue" stroke="midnightblue" points="5409.63,-203.09 5399.81,-207.05 5409.96,-210.08 5409.63,-203.09"/>
</g>
<!-- Node52 -->
<g id="node48" class="node">
<title>Node52</title>
<g id="a_node48"><a xlink:href="../../d3/dd8/vapplication_8cpp.html" target="_top" xlink:title=" ">
<polygon fill="white" stroke="black" points="5858,-67.5 5858,-97.5 5985,-97.5 5985,-67.5 5858,-67.5"/>
<text text-anchor="start" x="5866" y="-85.5" font-family="Helvetica,sans-Serif" font-size="10.00">src/app/seamly2d/core</text>
<text text-anchor="middle" x="5921.5" y="-74.5" font-family="Helvetica,sans-Serif" font-size="10.00">/vapplication.cpp</text>
</a>
</g>
</g>
<!-- Node51&#45;&gt;Node52 -->
<g id="edge50" class="edge">
<title>Node51&#45;&gt;Node52</title>
<path fill="none" stroke="midnightblue" d="M5888.46,-126.45C5895.81,-116.9 5904.19,-106 5910.67,-97.58"/>
<polygon fill="midnightblue" stroke="midnightblue" points="5885.67,-124.34 5882.35,-134.4 5891.22,-128.6 5885.67,-124.34"/>
</g>
<!-- Node53 -->
<g id="node49" class="node">
<title>Node53</title>
<g id="a_node49"><a xlink:href="../../dd/db4/abstractlayout__dialog_8cpp.html" target="_top" xlink:title=" ">
<polygon fill="white" stroke="black" points="6003.5,-67.5 6003.5,-97.5 6149.5,-97.5 6149.5,-67.5 6003.5,-67.5"/>
<text text-anchor="start" x="6011.5" y="-85.5" font-family="Helvetica,sans-Serif" font-size="10.00">src/app/seamly2d/dialogs</text>
<text text-anchor="middle" x="6076.5" y="-74.5" font-family="Helvetica,sans-Serif" font-size="10.00">/abstractlayout_dialog.cpp</text>
</a>
</g>
</g>
<!-- Node51&#45;&gt;Node53 -->
<g id="edge51" class="edge">
<title>Node51&#45;&gt;Node53</title>
<path fill="none" stroke="midnightblue" d="M5925.29,-131.44C5958.52,-120.91 6000.65,-107.55 6032,-97.61"/>
<polygon fill="midnightblue" stroke="midnightblue" points="5924.2,-128.12 5915.73,-134.48 5926.32,-134.79 5924.2,-128.12"/>
</g>
</g>
</svg>
