<?xml version="1.0" encoding="UTF-8" standalone="no"?>
<!DOCTYPE svg PUBLIC "-//W3C//DTD SVG 1.1//EN"
 "http://www.w3.org/Graphics/SVG/1.1/DTD/svg11.dtd">
<!-- Generated by graphviz version 2.43.0 (0)
 -->
<!-- Title: src/libs/vpatterndb/vpiece.h Pages: 1 -->
<svg width="5341pt" height="318pt"
 viewBox="0.00 0.00 5340.50 318.00" xmlns="http://www.w3.org/2000/svg" xmlns:xlink="http://www.w3.org/1999/xlink">
<g id="graph0" class="graph" transform="scale(1 1) rotate(0) translate(4 314)">
<title>src/libs/vpatterndb/vpiece.h</title>
<polygon fill="white" stroke="transparent" points="-4,4 -4,-314 5336.5,-314 5336.5,4 -4,4"/>
<!-- Node1 -->
<g id="node1" class="node">
<title>Node1</title>
<g id="a_node1"><a xlink:title=" ">
<polygon fill="#bfbfbf" stroke="black" points="4210.5,-279.5 4210.5,-309.5 4317.5,-309.5 4317.5,-279.5 4210.5,-279.5"/>
<text text-anchor="start" x="4218.5" y="-297.5" font-family="Helvetica,sans-Serif" font-size="10.00">src/libs/vpatterndb</text>
<text text-anchor="middle" x="4264" y="-286.5" font-family="Helvetica,sans-Serif" font-size="10.00">/vpiece.h</text>
</a>
</g>
</g>
<!-- Node2 -->
<g id="node2" class="node">
<title>Node2</title>
<g id="a_node2"><a xlink:href="../../d3/df7/vcontainer_8h.html" target="_top" xlink:title=" ">
<polygon fill="white" stroke="black" points="2687.5,-212.5 2687.5,-242.5 2794.5,-242.5 2794.5,-212.5 2687.5,-212.5"/>
<text text-anchor="start" x="2695.5" y="-230.5" font-family="Helvetica,sans-Serif" font-size="10.00">src/libs/vpatterndb</text>
<text text-anchor="middle" x="2741" y="-219.5" font-family="Helvetica,sans-Serif" font-size="10.00">/vcontainer.h</text>
</a>
</g>
</g>
<!-- Node1&#45;&gt;Node2 -->
<g id="edge1" class="edge">
<title>Node1&#45;&gt;Node2</title>
<path fill="none" stroke="midnightblue" d="M4200.17,-290.78C3948.47,-280.03 3027.2,-240.71 2794.61,-230.79"/>
<polygon fill="midnightblue" stroke="midnightblue" points="4200.1,-294.28 4210.24,-291.21 4200.4,-287.28 4200.1,-294.28"/>
</g>
<!-- Node36 -->
<g id="node31" class="node">
<title>Node36</title>
<g id="a_node31"><a xlink:href="../../df/d7a/vpiece_8cpp.html" target="_top" xlink:title=" ">
<polygon fill="white" stroke="black" points="4210.5,-67.5 4210.5,-97.5 4317.5,-97.5 4317.5,-67.5 4210.5,-67.5"/>
<text text-anchor="start" x="4218.5" y="-85.5" font-family="Helvetica,sans-Serif" font-size="10.00">src/libs/vpatterndb</text>
<text text-anchor="middle" x="4264" y="-74.5" font-family="Helvetica,sans-Serif" font-size="10.00">/vpiece.cpp</text>
</a>
</g>
</g>
<!-- Node1&#45;&gt;Node36 -->
<g id="edge51" class="edge">
<title>Node1&#45;&gt;Node36</title>
<path fill="none" stroke="midnightblue" d="M4264,-269.26C4264,-225.08 4264,-132.74 4264,-97.54"/>
<polygon fill="midnightblue" stroke="midnightblue" points="4260.5,-269.4 4264,-279.4 4267.5,-269.4 4260.5,-269.4"/>
</g>
<!-- Node61 -->
<g id="node40" class="node">
<title>Node61</title>
<g id="a_node40"><a xlink:href="../../d1/d3a/abstracttest_8cpp.html" target="_top" xlink:title=" ">
<polygon fill="white" stroke="black" points="3928.5,-145.5 3928.5,-164.5 4089.5,-164.5 4089.5,-145.5 3928.5,-145.5"/>
<text text-anchor="middle" x="4009" y="-152.5" font-family="Helvetica,sans-Serif" font-size="10.00">src/libs/vtest/abstracttest.cpp</text>
</a>
</g>
</g>
<!-- Node1&#45;&gt;Node61 -->
<g id="edge52" class="edge">
<title>Node1&#45;&gt;Node61</title>
<path fill="none" stroke="midnightblue" d="M4228.8,-274.52C4172.68,-244.26 4065.18,-186.29 4024.83,-164.53"/>
<polygon fill="midnightblue" stroke="midnightblue" points="4227.21,-277.64 4237.67,-279.3 4230.53,-271.48 4227.21,-277.64"/>
</g>
<!-- Node62 -->
<g id="node41" class="node">
<title>Node62</title>
<g id="a_node41"><a xlink:href="../../da/db4/piece__tablewidgetitem_8cpp.html" target="_top" xlink:title=" ">
<polygon fill="white" stroke="black" points="4108,-140 4108,-170 4236,-170 4236,-140 4108,-140"/>
<text text-anchor="start" x="4116" y="-158" font-family="Helvetica,sans-Serif" font-size="10.00">src/libs/vwidgets/piece</text>
<text text-anchor="middle" x="4172" y="-147" font-family="Helvetica,sans-Serif" font-size="10.00">_tablewidgetitem.cpp</text>
</a>
</g>
</g>
<!-- Node1&#45;&gt;Node62 -->
<g id="edge64" class="edge">
<title>Node1&#45;&gt;Node62</title>
<path fill="none" stroke="midnightblue" d="M4248.8,-270.79C4229.72,-242.26 4197.55,-194.19 4181.59,-170.33"/>
<polygon fill="midnightblue" stroke="midnightblue" points="4246.03,-272.94 4254.5,-279.3 4251.85,-269.05 4246.03,-272.94"/>
</g>
<!-- Node63 -->
<g id="node42" class="node">
<title>Node63</title>
<g id="a_node42"><a xlink:href="../../d2/de0/addpiece_8h.html" target="_top" xlink:title=" ">
<polygon fill="white" stroke="black" points="4292.5,-212.5 4292.5,-242.5 4457.5,-242.5 4457.5,-212.5 4292.5,-212.5"/>
<text text-anchor="start" x="4300.5" y="-230.5" font-family="Helvetica,sans-Serif" font-size="10.00">src/libs/vtools/undocommands</text>
<text text-anchor="middle" x="4375" y="-219.5" font-family="Helvetica,sans-Serif" font-size="10.00">/addpiece.h</text>
</a>
</g>
</g>
<!-- Node1&#45;&gt;Node63 -->
<g id="edge53" class="edge">
<title>Node1&#45;&gt;Node63</title>
<path fill="none" stroke="midnightblue" d="M4296.8,-274.3C4314.16,-264.12 4335.12,-251.85 4350.96,-242.58"/>
<polygon fill="midnightblue" stroke="midnightblue" points="4294.95,-271.32 4288.09,-279.4 4298.48,-277.36 4294.95,-271.32"/>
</g>
<!-- Node66 -->
<g id="node45" class="node">
<title>Node66</title>
<g id="a_node45"><a xlink:href="../../da/d10/deletepiece_8h.html" target="_top" xlink:title=" ">
<polygon fill="white" stroke="black" points="4475.5,-212.5 4475.5,-242.5 4640.5,-242.5 4640.5,-212.5 4475.5,-212.5"/>
<text text-anchor="start" x="4483.5" y="-230.5" font-family="Helvetica,sans-Serif" font-size="10.00">src/libs/vtools/undocommands</text>
<text text-anchor="middle" x="4558" y="-219.5" font-family="Helvetica,sans-Serif" font-size="10.00">/deletepiece.h</text>
</a>
</g>
</g>
<!-- Node1&#45;&gt;Node66 -->
<g id="edge56" class="edge">
<title>Node1&#45;&gt;Node66</title>
<path fill="none" stroke="midnightblue" d="M4327.51,-279.46C4376.93,-268.53 4445.17,-253.45 4494.56,-242.53"/>
<polygon fill="midnightblue" stroke="midnightblue" points="4326.59,-276.08 4317.58,-281.65 4328.1,-282.91 4326.59,-276.08"/>
</g>
<!-- Node68 -->
<g id="node47" class="node">
<title>Node68</title>
<g id="a_node47"><a xlink:href="../../d2/d6b/savepieceoptions_8h.html" target="_top" xlink:title=" ">
<polygon fill="white" stroke="black" points="4817.5,-212.5 4817.5,-242.5 4982.5,-242.5 4982.5,-212.5 4817.5,-212.5"/>
<text text-anchor="start" x="4825.5" y="-230.5" font-family="Helvetica,sans-Serif" font-size="10.00">src/libs/vtools/undocommands</text>
<text text-anchor="middle" x="4900" y="-219.5" font-family="Helvetica,sans-Serif" font-size="10.00">/savepieceoptions.h</text>
</a>
</g>
</g>
<!-- Node1&#45;&gt;Node68 -->
<g id="edge59" class="edge">
<title>Node1&#45;&gt;Node68</title>
<path fill="none" stroke="midnightblue" d="M4327.81,-286.98C4443.76,-275.13 4688.85,-250.08 4817.38,-236.94"/>
<polygon fill="midnightblue" stroke="midnightblue" points="4327.27,-283.52 4317.68,-288.01 4327.98,-290.48 4327.27,-283.52"/>
</g>
<!-- Node3 -->
<g id="node3" class="node">
<title>Node3</title>
<g id="a_node3"><a xlink:href="../../dc/db7/measurements_8h.html" target="_top" xlink:title=" ">
<polygon fill="white" stroke="black" points="925.5,-145.5 925.5,-164.5 1104.5,-164.5 1104.5,-145.5 925.5,-145.5"/>
<text text-anchor="middle" x="1015" y="-152.5" font-family="Helvetica,sans-Serif" font-size="10.00">src/libs/vformat/measurements.h</text>
</a>
</g>
</g>
<!-- Node2&#45;&gt;Node3 -->
<g id="edge2" class="edge">
<title>Node2&#45;&gt;Node3</title>
<path fill="none" stroke="midnightblue" d="M2677.17,-225.87C2416.12,-223.08 1429,-210.41 1119,-176 1096.52,-173.5 1071.64,-168.79 1051.84,-164.57"/>
<polygon fill="midnightblue" stroke="midnightblue" points="2677.2,-229.37 2687.24,-225.97 2677.28,-222.37 2677.2,-229.37"/>
</g>
<!-- Node4 -->
<g id="node4" class="node">
<title>Node4</title>
<g id="a_node4"><a xlink:href="../../d9/de3/measurements_8cpp.html" target="_top" xlink:title=" ">
<polygon fill="white" stroke="black" points="0,-73 0,-92 190,-92 190,-73 0,-73"/>
<text text-anchor="middle" x="95" y="-80" font-family="Helvetica,sans-Serif" font-size="10.00">src/libs/vformat/measurements.cpp</text>
</a>
</g>
</g>
<!-- Node2&#45;&gt;Node4 -->
<g id="edge4" class="edge">
<title>Node2&#45;&gt;Node4</title>
<path fill="none" stroke="midnightblue" d="M2676.91,-225.84C2388.54,-222.7 1222.41,-208.05 1152,-176 1128.81,-165.45 1136.14,-144.64 1113,-134 1020.66,-91.55 300.23,-107.03 199,-98 182.57,-96.53 164.76,-94.29 148.59,-92.01"/>
<polygon fill="midnightblue" stroke="midnightblue" points="2677.15,-229.34 2687.19,-225.95 2677.23,-222.34 2677.15,-229.34"/>
</g>
<!-- Node5 -->
<g id="node5" class="node">
<title>Node5</title>
<g id="a_node5"><a xlink:href="../../d6/de0/vlayoutpiece_8h.html" target="_top" xlink:title=" ">
<polygon fill="white" stroke="black" points="1161,-145.5 1161,-164.5 1327,-164.5 1327,-145.5 1161,-145.5"/>
<text text-anchor="middle" x="1244" y="-152.5" font-family="Helvetica,sans-Serif" font-size="10.00">src/libs/vlayout/vlayoutpiece.h</text>
</a>
</g>
</g>
<!-- Node2&#45;&gt;Node5 -->
<g id="edge5" class="edge">
<title>Node2&#45;&gt;Node5</title>
<path fill="none" stroke="midnightblue" d="M2677.02,-223.49C2437.84,-212.22 1596.33,-172.59 1327.34,-159.92"/>
<polygon fill="midnightblue" stroke="midnightblue" points="2677.13,-227 2687.28,-223.97 2677.46,-220 2677.13,-227"/>
</g>
<!-- Node15 -->
<g id="node14" class="node">
<title>Node15</title>
<g id="a_node14"><a xlink:href="../../d8/d70/vtextmanager_8cpp.html" target="_top" xlink:title=" ">
<polygon fill="white" stroke="black" points="1530,-73 1530,-92 1712,-92 1712,-73 1530,-73"/>
<text text-anchor="middle" x="1621" y="-80" font-family="Helvetica,sans-Serif" font-size="10.00">src/libs/vlayout/vtextmanager.cpp</text>
</a>
</g>
</g>
<!-- Node2&#45;&gt;Node15 -->
<g id="edge16" class="edge">
<title>Node2&#45;&gt;Node15</title>
<path fill="none" stroke="midnightblue" d="M2677.13,-218.87C2516.42,-199.59 2082.28,-146.95 1721,-98 1707.18,-96.13 1692.3,-94.02 1678.35,-92"/>
<polygon fill="midnightblue" stroke="midnightblue" points="2676.97,-222.38 2687.32,-220.1 2677.8,-215.43 2676.97,-222.38"/>
</g>
<!-- Node16 -->
<g id="node15" class="node">
<title>Node16</title>
<g id="a_node15"><a xlink:href="../../d5/d74/vabstractapplication_8h.html" target="_top" xlink:title=" ">
<polygon fill="white" stroke="red" points="2705.5,-145.5 2705.5,-164.5 2900.5,-164.5 2900.5,-145.5 2705.5,-145.5"/>
<text text-anchor="middle" x="2803" y="-152.5" font-family="Helvetica,sans-Serif" font-size="10.00">src/libs/vmisc/vabstractapplication.h</text>
</a>
</g>
</g>
<!-- Node2&#45;&gt;Node16 -->
<g id="edge17" class="edge">
<title>Node2&#45;&gt;Node16</title>
<path fill="none" stroke="midnightblue" d="M2760.45,-204.38C2772.19,-191.04 2786.51,-174.76 2795.18,-164.89"/>
<polygon fill="midnightblue" stroke="midnightblue" points="2757.52,-202.41 2753.55,-212.23 2762.78,-207.04 2757.52,-202.41"/>
</g>
<!-- Node34 -->
<g id="node29" class="node">
<title>Node34</title>
<g id="a_node29"><a xlink:href="../../db/d11/vformula_8cpp.html" target="_top" xlink:title=" ">
<polygon fill="white" stroke="black" points="3960.5,-67.5 3960.5,-97.5 4067.5,-97.5 4067.5,-67.5 3960.5,-67.5"/>
<text text-anchor="start" x="3968.5" y="-85.5" font-family="Helvetica,sans-Serif" font-size="10.00">src/libs/vpatterndb</text>
<text text-anchor="middle" x="4014" y="-74.5" font-family="Helvetica,sans-Serif" font-size="10.00">/vformula.cpp</text>
</a>
</g>
</g>
<!-- Node2&#45;&gt;Node34 -->
<g id="edge43" class="edge">
<title>Node2&#45;&gt;Node34</title>
<path fill="none" stroke="midnightblue" d="M2804.55,-217.37C2931.41,-199.39 3225.13,-158.98 3473,-134 3684.97,-112.64 3740.37,-129.98 3951,-98 3954.11,-97.53 3957.29,-96.99 3960.49,-96.39"/>
<polygon fill="midnightblue" stroke="midnightblue" points="2804.03,-213.91 2794.62,-218.78 2805.01,-220.84 2804.03,-213.91"/>
</g>
<!-- Node35 -->
<g id="node30" class="node">
<title>Node35</title>
<g id="a_node30"><a xlink:href="../../d6/d46/vcontainer_8cpp.html" target="_top" xlink:title=" ">
<polygon fill="white" stroke="black" points="4085.5,-67.5 4085.5,-97.5 4192.5,-97.5 4192.5,-67.5 4085.5,-67.5"/>
<text text-anchor="start" x="4093.5" y="-85.5" font-family="Helvetica,sans-Serif" font-size="10.00">src/libs/vpatterndb</text>
<text text-anchor="middle" x="4139" y="-74.5" font-family="Helvetica,sans-Serif" font-size="10.00">/vcontainer.cpp</text>
</a>
</g>
</g>
<!-- Node2&#45;&gt;Node35 -->
<g id="edge44" class="edge">
<title>Node2&#45;&gt;Node35</title>
<path fill="none" stroke="midnightblue" d="M2804.98,-221.05C2909.87,-212.05 3124.99,-193.35 3307,-176 3349.75,-171.93 4033.63,-105 4076,-98 4079.1,-97.49 4082.28,-96.91 4085.47,-96.3"/>
<polygon fill="midnightblue" stroke="midnightblue" points="2804.53,-217.57 2794.87,-221.91 2805.13,-224.55 2804.53,-217.57"/>
</g>
<!-- Node2&#45;&gt;Node36 -->
<g id="edge46" class="edge">
<title>Node2&#45;&gt;Node36</title>
<path fill="none" stroke="midnightblue" d="M2804.85,-223.5C2938.59,-216.98 3257.9,-200.12 3525,-176 3685.87,-161.47 3725.54,-152.5 3886,-134 4025.98,-117.86 4062.12,-121.84 4201,-98 4204.1,-97.47 4207.27,-96.88 4210.47,-96.25"/>
<polygon fill="midnightblue" stroke="midnightblue" points="2804.6,-220.01 2794.78,-223.99 2804.94,-227 2804.6,-220.01"/>
</g>
<!-- Node38 -->
<g id="node33" class="node">
<title>Node38</title>
<g id="a_node33"><a xlink:href="../../d8/dba/vpiecenode_8cpp.html" target="_top" xlink:title=" ">
<polygon fill="white" stroke="black" points="4063.5,-0.5 4063.5,-30.5 4170.5,-30.5 4170.5,-0.5 4063.5,-0.5"/>
<text text-anchor="start" x="4071.5" y="-18.5" font-family="Helvetica,sans-Serif" font-size="10.00">src/libs/vpatterndb</text>
<text text-anchor="middle" x="4117" y="-7.5" font-family="Helvetica,sans-Serif" font-size="10.00">/vpiecenode.cpp</text>
</a>
</g>
</g>
<!-- Node2&#45;&gt;Node38 -->
<g id="edge47" class="edge">
<title>Node2&#45;&gt;Node38</title>
<path fill="none" stroke="midnightblue" d="M2804.98,-226.65C2961.71,-226.28 3377.07,-220.75 3720,-176 3809.63,-164.3 3829.6,-147.34 3919,-134 3963.9,-127.3 4295.35,-131.49 4326,-98 4373.99,-45.57 4247.34,-26.48 4170.66,-19.83"/>
<polygon fill="midnightblue" stroke="midnightblue" points="2804.59,-223.15 2794.59,-226.67 2804.6,-230.15 2804.59,-223.15"/>
</g>
<!-- Node55 -->
<g id="node36" class="node">
<title>Node55</title>
<g id="a_node36"><a xlink:href="../../d7/d8a/measurement__variable__p_8h.html" target="_top" xlink:title=" ">
<polygon fill="white" stroke="red" points="360,-134.5 360,-175.5 496,-175.5 496,-134.5 360,-134.5"/>
<text text-anchor="start" x="368" y="-163.5" font-family="Helvetica,sans-Serif" font-size="10.00">src/libs/vpatterndb</text>
<text text-anchor="start" x="368" y="-152.5" font-family="Helvetica,sans-Serif" font-size="10.00">/variables/measurement</text>
<text text-anchor="middle" x="428" y="-141.5" font-family="Helvetica,sans-Serif" font-size="10.00">_variable_p.h</text>
</a>
</g>
</g>
<!-- Node2&#45;&gt;Node55 -->
<g id="edge41" class="edge">
<title>Node2&#45;&gt;Node55</title>
<path fill="none" stroke="midnightblue" d="M2677.05,-225.94C2334.59,-222.82 724.76,-206.6 505,-176 502.13,-175.6 499.21,-175.13 496.27,-174.61"/>
<polygon fill="midnightblue" stroke="midnightblue" points="2677.26,-229.44 2687.29,-226.03 2677.32,-222.44 2677.26,-229.44"/>
</g>
<!-- Node57 -->
<g id="node37" class="node">
<title>Node57</title>
<g id="a_node37"><a xlink:href="../../d1/de1/vincrement__p_8h.html" target="_top" xlink:title=" ">
<polygon fill="white" stroke="red" points="514.5,-140 514.5,-170 657.5,-170 657.5,-140 514.5,-140"/>
<text text-anchor="start" x="522.5" y="-158" font-family="Helvetica,sans-Serif" font-size="10.00">src/libs/vpatterndb</text>
<text text-anchor="middle" x="586" y="-147" font-family="Helvetica,sans-Serif" font-size="10.00">/variables/vincrement_p.h</text>
</a>
</g>
</g>
<!-- Node2&#45;&gt;Node57 -->
<g id="edge42" class="edge">
<title>Node2&#45;&gt;Node57</title>
<path fill="none" stroke="midnightblue" d="M2676.61,-226.84C2371.4,-228.18 1068.53,-230.53 666,-176 655.93,-174.64 645.29,-172.49 635.17,-170.1"/>
<polygon fill="midnightblue" stroke="midnightblue" points="2677.06,-230.34 2687.04,-226.8 2677.02,-223.34 2677.06,-230.34"/>
</g>
<!-- Node59 -->
<g id="node38" class="node">
<title>Node59</title>
<g id="a_node38"><a xlink:href="../../d6/d91/vnodedetail_8cpp.html" target="_top" xlink:title=" ">
<polygon fill="white" stroke="black" points="675.5,-140 675.5,-170 782.5,-170 782.5,-140 675.5,-140"/>
<text text-anchor="start" x="683.5" y="-158" font-family="Helvetica,sans-Serif" font-size="10.00">src/libs/vpatterndb</text>
<text text-anchor="middle" x="729" y="-147" font-family="Helvetica,sans-Serif" font-size="10.00">/vnodedetail.cpp</text>
</a>
</g>
</g>
<!-- Node2&#45;&gt;Node59 -->
<g id="edge45" class="edge">
<title>Node2&#45;&gt;Node59</title>
<path fill="none" stroke="midnightblue" d="M2677.03,-225.93C2361.68,-222.97 980.08,-208.26 791,-176 782.97,-174.63 774.56,-172.45 766.61,-170.02"/>
<polygon fill="midnightblue" stroke="midnightblue" points="2677.33,-229.43 2687.36,-226.03 2677.4,-222.43 2677.33,-229.43"/>
</g>
<!-- Node60 -->
<g id="node39" class="node">
<title>Node60</title>
<g id="a_node39"><a xlink:href="../../da/de1/vpiecepath_8cpp.html" target="_top" xlink:title=" ">
<polygon fill="white" stroke="black" points="800.5,-140 800.5,-170 907.5,-170 907.5,-140 800.5,-140"/>
<text text-anchor="start" x="808.5" y="-158" font-family="Helvetica,sans-Serif" font-size="10.00">src/libs/vpatterndb</text>
<text text-anchor="middle" x="854" y="-147" font-family="Helvetica,sans-Serif" font-size="10.00">/vpiecepath.cpp</text>
</a>
</g>
</g>
<!-- Node2&#45;&gt;Node60 -->
<g id="edge48" class="edge">
<title>Node2&#45;&gt;Node60</title>
<path fill="none" stroke="midnightblue" d="M2676.76,-225.8C2373.46,-222.37 1092.08,-206.2 916,-176 907.97,-174.62 899.56,-172.44 891.61,-170.01"/>
<polygon fill="midnightblue" stroke="midnightblue" points="2677.1,-229.31 2687.14,-225.92 2677.18,-222.31 2677.1,-229.31"/>
</g>
<!-- Node2&#45;&gt;Node61 -->
<g id="edge49" class="edge">
<title>Node2&#45;&gt;Node61</title>
<path fill="none" stroke="midnightblue" d="M2804.59,-225.14C3016.36,-220.4 3696.49,-203.39 3914,-176 3934.4,-173.43 3956.93,-168.77 3974.93,-164.59"/>
<polygon fill="midnightblue" stroke="midnightblue" points="2804.49,-221.64 2794.57,-225.37 2804.65,-228.64 2804.49,-221.64"/>
</g>
<!-- Node2&#45;&gt;Node62 -->
<g id="edge50" class="edge">
<title>Node2&#45;&gt;Node62</title>
<path fill="none" stroke="midnightblue" d="M2804.6,-226.04C3037.56,-224.08 3843.78,-214.57 4098,-176 4107.34,-174.58 4117.19,-172.41 4126.55,-170.02"/>
<polygon fill="midnightblue" stroke="midnightblue" points="2804.57,-222.54 2794.6,-226.13 2804.63,-229.54 2804.57,-222.54"/>
</g>
<!-- Node3&#45;&gt;Node4 -->
<g id="edge3" class="edge">
<title>Node3&#45;&gt;Node4</title>
<path fill="none" stroke="midnightblue" d="M969.41,-143.31C952.7,-139.78 933.58,-136.2 916,-134 599.41,-94.3 516.65,-128.06 199,-98 182.85,-96.47 165.36,-94.25 149.41,-92.01"/>
<polygon fill="midnightblue" stroke="midnightblue" points="968.96,-146.79 979.47,-145.49 970.44,-139.95 968.96,-146.79"/>
</g>
<!-- Node6 -->
<g id="node6" class="node">
<title>Node6</title>
<g id="a_node6"><a xlink:href="../../dd/d66/vdxfengine_8cpp.html" target="_top" xlink:title=" ">
<polygon fill="white" stroke="black" points="1000,-73 1000,-92 1154,-92 1154,-73 1000,-73"/>
<text text-anchor="middle" x="1077" y="-80" font-family="Helvetica,sans-Serif" font-size="10.00">src/libs/vdxf/vdxfengine.cpp</text>
</a>
</g>
</g>
<!-- Node5&#45;&gt;Node6 -->
<g id="edge6" class="edge">
<title>Node5&#45;&gt;Node6</title>
<path fill="none" stroke="midnightblue" d="M1214.51,-141.55C1180.79,-127.32 1126.47,-104.38 1097.22,-92.03"/>
<polygon fill="midnightblue" stroke="midnightblue" points="1213.28,-144.83 1223.86,-145.5 1216,-138.38 1213.28,-144.83"/>
</g>
<!-- Node7 -->
<g id="node7" class="node">
<title>Node7</title>
<g id="a_node7"><a xlink:href="../../de/da8/vbank_8cpp.html" target="_top" xlink:title=" ">
<polygon fill="white" stroke="black" points="1172,-73 1172,-92 1316,-92 1316,-73 1172,-73"/>
<text text-anchor="middle" x="1244" y="-80" font-family="Helvetica,sans-Serif" font-size="10.00">src/libs/vlayout/vbank.cpp</text>
</a>
</g>
</g>
<!-- Node5&#45;&gt;Node7 -->
<g id="edge7" class="edge">
<title>Node5&#45;&gt;Node7</title>
<path fill="none" stroke="midnightblue" d="M1244,-134.94C1244,-121.03 1244,-102.82 1244,-92.22"/>
<polygon fill="midnightblue" stroke="midnightblue" points="1240.5,-135.36 1244,-145.36 1247.5,-135.36 1240.5,-135.36"/>
</g>
<!-- Node8 -->
<g id="node8" class="node">
<title>Node8</title>
<g id="a_node8"><a xlink:href="../../df/d5d/vcontour_8cpp.html" target="_top" xlink:title=" ">
<polygon fill="white" stroke="black" points="208,-73 208,-92 364,-92 364,-73 208,-73"/>
<text text-anchor="middle" x="286" y="-80" font-family="Helvetica,sans-Serif" font-size="10.00">src/libs/vlayout/vcontour.cpp</text>
</a>
</g>
</g>
<!-- Node5&#45;&gt;Node8 -->
<g id="edge8" class="edge">
<title>Node5&#45;&gt;Node8</title>
<path fill="none" stroke="midnightblue" d="M1199.35,-143.27C1182.98,-139.74 1164.24,-136.16 1147,-134 805.31,-91.1 715.45,-134.37 373,-98 359.3,-96.54 344.47,-94.32 331.02,-92.05"/>
<polygon fill="midnightblue" stroke="midnightblue" points="1198.68,-146.7 1209.2,-145.45 1200.19,-139.87 1198.68,-146.7"/>
</g>
<!-- Node9 -->
<g id="node9" class="node">
<title>Node9</title>
<g id="a_node9"><a xlink:href="../../d2/d2d/vlayoutpaper__p_8h.html" target="_top" xlink:title=" ">
<polygon fill="white" stroke="black" points="382.5,-73 382.5,-92 561.5,-92 561.5,-73 382.5,-73"/>
<text text-anchor="middle" x="472" y="-80" font-family="Helvetica,sans-Serif" font-size="10.00">src/libs/vlayout/vlayoutpaper_p.h</text>
</a>
</g>
</g>
<!-- Node5&#45;&gt;Node9 -->
<g id="edge9" class="edge">
<title>Node5&#45;&gt;Node9</title>
<path fill="none" stroke="midnightblue" d="M1198.92,-143.34C1182.65,-139.85 1164.08,-136.29 1147,-134 894.97,-100.24 828.99,-123.57 576,-98 560.22,-96.4 543.15,-94.22 527.5,-92.03"/>
<polygon fill="midnightblue" stroke="midnightblue" points="1198.21,-146.76 1208.73,-145.48 1199.71,-139.92 1198.21,-146.76"/>
</g>
<!-- Node10 -->
<g id="node10" class="node">
<title>Node10</title>
<g id="a_node10"><a xlink:href="../../d1/dd1/vlayoutpaper_8cpp.html" target="_top" xlink:title=" ">
<polygon fill="white" stroke="black" points="501,-6 501,-25 679,-25 679,-6 501,-6"/>
<text text-anchor="middle" x="590" y="-13" font-family="Helvetica,sans-Serif" font-size="10.00">src/libs/vlayout/vlayoutpaper.cpp</text>
</a>
</g>
</g>
<!-- Node5&#45;&gt;Node10 -->
<g id="edge12" class="edge">
<title>Node5&#45;&gt;Node10</title>
<path fill="none" stroke="midnightblue" d="M1198.06,-143.19C1181.99,-139.76 1163.77,-136.28 1147,-134 1087.63,-125.93 654.66,-136.79 609,-98 587.41,-79.66 587.69,-41.97 589.04,-25.05"/>
<polygon fill="midnightblue" stroke="midnightblue" points="1197.75,-146.7 1208.27,-145.42 1199.25,-139.86 1197.75,-146.7"/>
</g>
<!-- Node11 -->
<g id="node11" class="node">
<title>Node11</title>
<g id="a_node11"><a xlink:href="../../d3/d39/vlayoutgenerator_8cpp.html" target="_top" xlink:title=" ">
<polygon fill="white" stroke="black" points="618.5,-73 618.5,-92 815.5,-92 815.5,-73 618.5,-73"/>
<text text-anchor="middle" x="717" y="-80" font-family="Helvetica,sans-Serif" font-size="10.00">src/libs/vlayout/vlayoutgenerator.cpp</text>
</a>
</g>
</g>
<!-- Node5&#45;&gt;Node11 -->
<g id="edge11" class="edge">
<title>Node5&#45;&gt;Node11</title>
<path fill="none" stroke="midnightblue" d="M1196.38,-143.27C1180.71,-139.98 1163.16,-136.56 1147,-134 1004.78,-111.44 967.93,-115.58 825,-98 809.98,-96.15 793.8,-94.04 778.65,-92.02"/>
<polygon fill="midnightblue" stroke="midnightblue" points="1195.86,-146.74 1206.37,-145.4 1197.32,-139.89 1195.86,-146.74"/>
</g>
<!-- Node12 -->
<g id="node12" class="node">
<title>Node12</title>
<g id="a_node12"><a xlink:href="../../db/d5c/vposition_8h.html" target="_top" xlink:title=" ">
<polygon fill="white" stroke="red" points="834,-73 834,-92 982,-92 982,-73 834,-73"/>
<text text-anchor="middle" x="908" y="-80" font-family="Helvetica,sans-Serif" font-size="10.00">src/libs/vlayout/vposition.h</text>
</a>
</g>
</g>
<!-- Node5&#45;&gt;Node12 -->
<g id="edge13" class="edge">
<title>Node5&#45;&gt;Node12</title>
<path fill="none" stroke="midnightblue" d="M1193.59,-143.42C1126.77,-129.4 1010.19,-104.94 948.67,-92.03"/>
<polygon fill="midnightblue" stroke="midnightblue" points="1192.96,-146.87 1203.47,-145.5 1194.4,-140.02 1192.96,-146.87"/>
</g>
<!-- Node14 -->
<g id="node13" class="node">
<title>Node14</title>
<g id="a_node13"><a xlink:href="../../dd/d70/vlayoutpiece_8cpp.html" target="_top" xlink:title=" ">
<polygon fill="white" stroke="black" points="1334.5,-73 1334.5,-92 1511.5,-92 1511.5,-73 1334.5,-73"/>
<text text-anchor="middle" x="1423" y="-80" font-family="Helvetica,sans-Serif" font-size="10.00">src/libs/vlayout/vlayoutpiece.cpp</text>
</a>
</g>
</g>
<!-- Node5&#45;&gt;Node14 -->
<g id="edge15" class="edge">
<title>Node5&#45;&gt;Node14</title>
<path fill="none" stroke="midnightblue" d="M1275.14,-141.74C1311.25,-127.51 1369.84,-104.44 1401.33,-92.03"/>
<polygon fill="midnightblue" stroke="midnightblue" points="1273.61,-138.57 1265.59,-145.5 1276.18,-145.09 1273.61,-138.57"/>
</g>
<!-- Node9&#45;&gt;Node10 -->
<g id="edge10" class="edge">
<title>Node9&#45;&gt;Node10</title>
<path fill="none" stroke="midnightblue" d="M496.89,-67.79C520.28,-54.9 554.56,-36.02 574.34,-25.13"/>
<polygon fill="midnightblue" stroke="midnightblue" points="494.98,-64.84 487.91,-72.73 498.36,-70.97 494.98,-64.84"/>
</g>
<!-- Node12&#45;&gt;Node10 -->
<g id="edge14" class="edge">
<title>Node12&#45;&gt;Node10</title>
<path fill="none" stroke="midnightblue" d="M856.04,-70.88C793.41,-58.08 689.41,-36.82 631.74,-25.03"/>
<polygon fill="midnightblue" stroke="midnightblue" points="855.6,-74.36 866.1,-72.94 857,-67.5 855.6,-74.36"/>
</g>
<!-- Node16&#45;&gt;Node14 -->
<g id="edge31" class="edge">
<title>Node16&#45;&gt;Node14</title>
<path fill="none" stroke="midnightblue" d="M2695.17,-153.04C2474.35,-150.26 1954.88,-139.46 1521,-98 1505.59,-96.53 1488.9,-94.3 1473.74,-92.03"/>
<polygon fill="midnightblue" stroke="midnightblue" points="2695.42,-156.55 2705.46,-153.17 2695.51,-149.55 2695.42,-156.55"/>
</g>
<!-- Node16&#45;&gt;Node15 -->
<g id="edge28" class="edge">
<title>Node16&#45;&gt;Node15</title>
<path fill="none" stroke="midnightblue" d="M2695.18,-151.71C2500.3,-146.85 2076.63,-132.91 1721,-98 1705.46,-96.47 1688.64,-94.26 1673.31,-92.01"/>
<polygon fill="midnightblue" stroke="midnightblue" points="2695.33,-155.22 2705.42,-151.97 2695.51,-148.22 2695.33,-155.22"/>
</g>
<!-- Node17 -->
<g id="node16" class="node">
<title>Node17</title>
<g id="a_node16"><a xlink:href="../../d4/d90/fvupdater_8cpp.html" target="_top" xlink:title=" ">
<polygon fill="white" stroke="black" points="2009.5,-73 2009.5,-92 2162.5,-92 2162.5,-73 2009.5,-73"/>
<text text-anchor="middle" x="2086" y="-80" font-family="Helvetica,sans-Serif" font-size="10.00">src/libs/fervor/fvupdater.cpp</text>
</a>
</g>
</g>
<!-- Node16&#45;&gt;Node17 -->
<g id="edge18" class="edge">
<title>Node16&#45;&gt;Node17</title>
<path fill="none" stroke="midnightblue" d="M2695.25,-147.11C2569.23,-138.43 2354.47,-121.74 2171,-98 2158.23,-96.35 2144.45,-94.17 2131.78,-92"/>
<polygon fill="midnightblue" stroke="midnightblue" points="2695.08,-150.6 2705.29,-147.79 2695.56,-143.62 2695.08,-150.6"/>
</g>
<!-- Node18 -->
<g id="node17" class="node">
<title>Node18</title>
<g id="a_node17"><a xlink:href="../../d9/dc8/dxiface_8cpp.html" target="_top" xlink:title=" ">
<polygon fill="white" stroke="black" points="2180.5,-73 2180.5,-92 2315.5,-92 2315.5,-73 2180.5,-73"/>
<text text-anchor="middle" x="2248" y="-80" font-family="Helvetica,sans-Serif" font-size="10.00">src/libs/vdxf/dxiface.cpp</text>
</a>
</g>
</g>
<!-- Node16&#45;&gt;Node18 -->
<g id="edge19" class="edge">
<title>Node16&#45;&gt;Node18</title>
<path fill="none" stroke="midnightblue" d="M2703.48,-144.48C2606.4,-134.69 2454.68,-118.08 2324,-98 2312.85,-96.29 2300.83,-94.14 2289.72,-92.02"/>
<polygon fill="midnightblue" stroke="midnightblue" points="2703.28,-147.98 2713.58,-145.49 2703.98,-141.01 2703.28,-147.98"/>
</g>
<!-- Node19 -->
<g id="node18" class="node">
<title>Node19</title>
<g id="a_node18"><a xlink:href="../../da/d75/vabstractarc__p_8h.html" target="_top" xlink:title=" ">
<polygon fill="white" stroke="red" points="2333.5,-67.5 2333.5,-97.5 2440.5,-97.5 2440.5,-67.5 2333.5,-67.5"/>
<text text-anchor="start" x="2341.5" y="-85.5" font-family="Helvetica,sans-Serif" font-size="10.00">src/libs/vgeometry</text>
<text text-anchor="middle" x="2387" y="-74.5" font-family="Helvetica,sans-Serif" font-size="10.00">/vabstractarc_p.h</text>
</a>
</g>
</g>
<!-- Node16&#45;&gt;Node19 -->
<g id="edge20" class="edge">
<title>Node16&#45;&gt;Node19</title>
<path fill="none" stroke="midnightblue" d="M2729.8,-144.01C2658.02,-133.84 2545.61,-116.91 2449,-98 2446.29,-97.47 2443.51,-96.9 2440.72,-96.32"/>
<polygon fill="midnightblue" stroke="midnightblue" points="2729.7,-147.53 2740.09,-145.46 2730.68,-140.6 2729.7,-147.53"/>
</g>
<!-- Node21 -->
<g id="node19" class="node">
<title>Node21</title>
<g id="a_node19"><a xlink:href="../../dc/da3/varc__p_8h.html" target="_top" xlink:title=" ">
<polygon fill="white" stroke="red" points="2458.5,-67.5 2458.5,-97.5 2565.5,-97.5 2565.5,-67.5 2458.5,-67.5"/>
<text text-anchor="start" x="2466.5" y="-85.5" font-family="Helvetica,sans-Serif" font-size="10.00">src/libs/vgeometry</text>
<text text-anchor="middle" x="2512" y="-74.5" font-family="Helvetica,sans-Serif" font-size="10.00">/varc_p.h</text>
</a>
</g>
</g>
<!-- Node16&#45;&gt;Node21 -->
<g id="edge21" class="edge">
<title>Node16&#45;&gt;Node21</title>
<path fill="none" stroke="midnightblue" d="M2757.98,-143.09C2706.06,-130.51 2620.77,-109.85 2565.5,-96.46"/>
<polygon fill="midnightblue" stroke="midnightblue" points="2757.36,-146.54 2767.9,-145.5 2759,-139.74 2757.36,-146.54"/>
</g>
<!-- Node23 -->
<g id="node20" class="node">
<title>Node23</title>
<g id="a_node20"><a xlink:href="../../d5/d8e/vcubicbezier__p_8h.html" target="_top" xlink:title=" ">
<polygon fill="white" stroke="red" points="2583.5,-67.5 2583.5,-97.5 2690.5,-97.5 2690.5,-67.5 2583.5,-67.5"/>
<text text-anchor="start" x="2591.5" y="-85.5" font-family="Helvetica,sans-Serif" font-size="10.00">src/libs/vgeometry</text>
<text text-anchor="middle" x="2637" y="-74.5" font-family="Helvetica,sans-Serif" font-size="10.00">/vcubicbezier_p.h</text>
</a>
</g>
</g>
<!-- Node16&#45;&gt;Node23 -->
<g id="edge22" class="edge">
<title>Node16&#45;&gt;Node23</title>
<path fill="none" stroke="midnightblue" d="M2773.76,-141.58C2744.72,-129.25 2700.26,-110.37 2669.98,-97.51"/>
<polygon fill="midnightblue" stroke="midnightblue" points="2772.4,-144.81 2782.98,-145.5 2775.14,-138.37 2772.4,-144.81"/>
</g>
<!-- Node25 -->
<g id="node21" class="node">
<title>Node25</title>
<g id="a_node21"><a xlink:href="../../df/dde/vellipticalarc__p_8h.html" target="_top" xlink:title=" ">
<polygon fill="white" stroke="black" points="2708.5,-67.5 2708.5,-97.5 2815.5,-97.5 2815.5,-67.5 2708.5,-67.5"/>
<text text-anchor="start" x="2716.5" y="-85.5" font-family="Helvetica,sans-Serif" font-size="10.00">src/libs/vgeometry</text>
<text text-anchor="middle" x="2762" y="-74.5" font-family="Helvetica,sans-Serif" font-size="10.00">/vellipticalarc_p.h</text>
</a>
</g>
</g>
<!-- Node16&#45;&gt;Node25 -->
<g id="edge23" class="edge">
<title>Node16&#45;&gt;Node25</title>
<path fill="none" stroke="midnightblue" d="M2792.93,-136.68C2785.93,-124.65 2776.73,-108.83 2770.19,-97.58"/>
<polygon fill="midnightblue" stroke="midnightblue" points="2789.92,-138.47 2797.97,-145.36 2795.97,-134.95 2789.92,-138.47"/>
</g>
<!-- Node26 -->
<g id="node22" class="node">
<title>Node26</title>
<g id="a_node22"><a xlink:href="../../d6/dfb/vellipticalarc_8cpp.html" target="_top" xlink:title=" ">
<polygon fill="white" stroke="black" points="2749.5,-0.5 2749.5,-30.5 2856.5,-30.5 2856.5,-0.5 2749.5,-0.5"/>
<text text-anchor="start" x="2757.5" y="-18.5" font-family="Helvetica,sans-Serif" font-size="10.00">src/libs/vgeometry</text>
<text text-anchor="middle" x="2803" y="-7.5" font-family="Helvetica,sans-Serif" font-size="10.00">/vellipticalarc.cpp</text>
</a>
</g>
</g>
<!-- Node16&#45;&gt;Node26 -->
<g id="edge25" class="edge">
<title>Node16&#45;&gt;Node26</title>
<path fill="none" stroke="midnightblue" d="M2811.63,-136.02C2816.31,-125.26 2821.61,-111.16 2824,-98 2826.46,-84.44 2826.7,-80.51 2824,-67 2821.43,-54.15 2815.53,-40.48 2810.64,-30.61"/>
<polygon fill="midnightblue" stroke="midnightblue" points="2808.42,-134.62 2807.45,-145.17 2814.79,-137.53 2808.42,-134.62"/>
</g>
<!-- Node27 -->
<g id="node23" class="node">
<title>Node27</title>
<g id="a_node23"><a xlink:href="../../d9/d15/vabstractpiece_8cpp.html" target="_top" xlink:title=" ">
<polygon fill="white" stroke="black" points="2872,-73 2872,-92 3058,-92 3058,-73 2872,-73"/>
<text text-anchor="middle" x="2965" y="-80" font-family="Helvetica,sans-Serif" font-size="10.00">src/libs/vlayout/vabstractpiece.cpp</text>
</a>
</g>
</g>
<!-- Node16&#45;&gt;Node27 -->
<g id="edge26" class="edge">
<title>Node16&#45;&gt;Node27</title>
<path fill="none" stroke="midnightblue" d="M2832.02,-141.37C2864.77,-127.12 2917.13,-104.33 2945.39,-92.03"/>
<polygon fill="midnightblue" stroke="midnightblue" points="2830.31,-138.3 2822.54,-145.5 2833.11,-144.71 2830.31,-138.3"/>
</g>
<!-- Node28 -->
<g id="node24" class="node">
<title>Node28</title>
<g id="a_node24"><a xlink:href="../../d1/d76/vspline__p_8h.html" target="_top" xlink:title=" ">
<polygon fill="white" stroke="red" points="3075.5,-67.5 3075.5,-97.5 3182.5,-97.5 3182.5,-67.5 3075.5,-67.5"/>
<text text-anchor="start" x="3083.5" y="-85.5" font-family="Helvetica,sans-Serif" font-size="10.00">src/libs/vgeometry</text>
<text text-anchor="middle" x="3129" y="-74.5" font-family="Helvetica,sans-Serif" font-size="10.00">/vspline_p.h</text>
</a>
</g>
</g>
<!-- Node16&#45;&gt;Node28 -->
<g id="edge27" class="edge">
<title>Node16&#45;&gt;Node28</title>
<path fill="none" stroke="midnightblue" d="M2854.55,-143.39C2907.81,-132.36 2993.32,-114.43 3067,-98 3069.7,-97.4 3072.46,-96.78 3075.25,-96.14"/>
<polygon fill="midnightblue" stroke="midnightblue" points="2853.75,-139.99 2844.67,-145.44 2855.17,-146.84 2853.75,-139.99"/>
</g>
<!-- Node30 -->
<g id="node25" class="node">
<title>Node30</title>
<g id="a_node25"><a xlink:href="../../db/d65/dialogexporttocsv_8cpp.html" target="_top" xlink:title=" ">
<polygon fill="white" stroke="black" points="3200.5,-67.5 3200.5,-97.5 3327.5,-97.5 3327.5,-67.5 3200.5,-67.5"/>
<text text-anchor="start" x="3208.5" y="-85.5" font-family="Helvetica,sans-Serif" font-size="10.00">src/libs/vmisc/dialogs</text>
<text text-anchor="middle" x="3264" y="-74.5" font-family="Helvetica,sans-Serif" font-size="10.00">/dialogexporttocsv.cpp</text>
</a>
</g>
</g>
<!-- Node16&#45;&gt;Node30 -->
<g id="edge29" class="edge">
<title>Node16&#45;&gt;Node30</title>
<path fill="none" stroke="midnightblue" d="M2879.69,-144.15C2958.09,-133.79 3083.31,-116.45 3191,-98 3194.06,-97.48 3197.18,-96.92 3200.34,-96.35"/>
<polygon fill="midnightblue" stroke="midnightblue" points="2878.88,-140.72 2869.42,-145.5 2879.79,-147.66 2878.88,-140.72"/>
</g>
<!-- Node31 -->
<g id="node26" class="node">
<title>Node31</title>
<g id="a_node26"><a xlink:href="../../d6/d0b/def_8cpp.html" target="_top" xlink:title=" ">
<polygon fill="white" stroke="black" points="3346,-73 3346,-92 3468,-92 3468,-73 3346,-73"/>
<text text-anchor="middle" x="3407" y="-80" font-family="Helvetica,sans-Serif" font-size="10.00">src/libs/vmisc/def.cpp</text>
</a>
</g>
</g>
<!-- Node16&#45;&gt;Node31 -->
<g id="edge30" class="edge">
<title>Node16&#45;&gt;Node31</title>
<path fill="none" stroke="midnightblue" d="M2890.14,-144.36C2920.47,-141.04 2954.73,-137.32 2986,-134 3141.5,-117.51 3181.43,-121.67 3336,-98 3346.69,-96.36 3358.22,-94.19 3368.8,-92.02"/>
<polygon fill="midnightblue" stroke="midnightblue" points="2889.57,-140.9 2880.01,-145.47 2890.33,-147.86 2889.57,-140.9"/>
</g>
<!-- Node32 -->
<g id="node27" class="node">
<title>Node32</title>
<g id="a_node27"><a xlink:href="../../d0/df6/vabstractapplication_8cpp.html" target="_top" xlink:title=" ">
<polygon fill="white" stroke="black" points="3486,-73 3486,-92 3692,-92 3692,-73 3486,-73"/>
<text text-anchor="middle" x="3589" y="-80" font-family="Helvetica,sans-Serif" font-size="10.00">src/libs/vmisc/vabstractapplication.cpp</text>
</a>
</g>
</g>
<!-- Node16&#45;&gt;Node32 -->
<g id="edge32" class="edge">
<title>Node16&#45;&gt;Node32</title>
<path fill="none" stroke="midnightblue" d="M2885.55,-144.35C2916.97,-140.84 2953.12,-137 2986,-134 3203.9,-114.11 3259.31,-120.06 3477,-98 3493.58,-96.32 3511.5,-94.16 3528.04,-92.02"/>
<polygon fill="midnightblue" stroke="midnightblue" points="2885.07,-140.88 2875.52,-145.47 2885.85,-147.83 2885.07,-140.88"/>
</g>
<!-- Node33 -->
<g id="node28" class="node">
<title>Node33</title>
<g id="a_node28"><a xlink:href="../../d4/d4f/pmsystems_8cpp.html" target="_top" xlink:title=" ">
<polygon fill="white" stroke="black" points="3710.5,-67.5 3710.5,-97.5 3817.5,-97.5 3817.5,-67.5 3710.5,-67.5"/>
<text text-anchor="start" x="3718.5" y="-85.5" font-family="Helvetica,sans-Serif" font-size="10.00">src/libs/vpatterndb</text>
<text text-anchor="middle" x="3764" y="-74.5" font-family="Helvetica,sans-Serif" font-size="10.00">/pmsystems.cpp</text>
</a>
</g>
</g>
<!-- Node16&#45;&gt;Node33 -->
<g id="edge33" class="edge">
<title>Node16&#45;&gt;Node33</title>
<path fill="none" stroke="midnightblue" d="M2882.24,-144.32C2914.4,-140.65 2951.93,-136.72 2986,-134 3303.17,-108.71 3385.86,-141.85 3701,-98 3704,-97.58 3707.07,-97.09 3710.16,-96.55"/>
<polygon fill="midnightblue" stroke="midnightblue" points="2881.53,-140.87 2871.99,-145.49 2882.33,-147.83 2881.53,-140.87"/>
</g>
<!-- Node16&#45;&gt;Node34 -->
<g id="edge34" class="edge">
<title>Node16&#45;&gt;Node34</title>
<path fill="none" stroke="midnightblue" d="M2880.6,-144.28C2913.11,-140.53 2951.34,-136.54 2986,-134 3414.04,-102.67 3525.53,-154.38 3951,-98 3954,-97.6 3957.08,-97.13 3960.17,-96.59"/>
<polygon fill="midnightblue" stroke="midnightblue" points="2879.78,-140.85 2870.25,-145.49 2880.59,-147.8 2879.78,-140.85"/>
</g>
<!-- Node16&#45;&gt;Node35 -->
<g id="edge35" class="edge">
<title>Node16&#45;&gt;Node35</title>
<path fill="none" stroke="midnightblue" d="M2911.29,-150.37C3197.95,-140.6 3962.39,-113.44 4076,-98 4079,-97.59 4082.07,-97.11 4085.16,-96.57"/>
<polygon fill="midnightblue" stroke="midnightblue" points="2910.76,-146.89 2900.88,-150.72 2911,-153.88 2910.76,-146.89"/>
</g>
<!-- Node16&#45;&gt;Node36 -->
<g id="edge36" class="edge">
<title>Node16&#45;&gt;Node36</title>
<path fill="none" stroke="midnightblue" d="M2910.91,-152.28C3193.8,-147.34 3952.19,-131.32 4201,-98 4204,-97.6 4207.07,-97.12 4210.16,-96.58"/>
<polygon fill="midnightblue" stroke="midnightblue" points="2910.58,-148.78 2900.64,-152.45 2910.7,-155.78 2910.58,-148.78"/>
</g>
<!-- Node37 -->
<g id="node32" class="node">
<title>Node37</title>
<g id="a_node32"><a xlink:href="../../df/dba/vpiecenode__p_8h.html" target="_top" xlink:title=" ">
<polygon fill="white" stroke="black" points="3835.5,-67.5 3835.5,-97.5 3942.5,-97.5 3942.5,-67.5 3835.5,-67.5"/>
<text text-anchor="start" x="3843.5" y="-85.5" font-family="Helvetica,sans-Serif" font-size="10.00">src/libs/vpatterndb</text>
<text text-anchor="middle" x="3889" y="-74.5" font-family="Helvetica,sans-Serif" font-size="10.00">/vpiecenode_p.h</text>
</a>
</g>
</g>
<!-- Node16&#45;&gt;Node37 -->
<g id="edge37" class="edge">
<title>Node16&#45;&gt;Node37</title>
<path fill="none" stroke="midnightblue" d="M2881.41,-144.28C2913.75,-140.57 2951.64,-136.61 2986,-134 3358.6,-105.69 3455.7,-148.12 3826,-98 3829,-97.59 3832.07,-97.11 3835.16,-96.57"/>
<polygon fill="midnightblue" stroke="midnightblue" points="2880.65,-140.85 2871.12,-145.47 2881.46,-147.8 2880.65,-140.85"/>
</g>
<!-- Node39 -->
<g id="node34" class="node">
<title>Node39</title>
<g id="a_node34"><a xlink:href="../../de/d3e/vtranslatevars_8cpp.html" target="_top" xlink:title=" ">
<polygon fill="white" stroke="black" points="1730,-67.5 1730,-97.5 1840,-97.5 1840,-67.5 1730,-67.5"/>
<text text-anchor="start" x="1738" y="-85.5" font-family="Helvetica,sans-Serif" font-size="10.00">src/libs/vpatterndb</text>
<text text-anchor="middle" x="1785" y="-74.5" font-family="Helvetica,sans-Serif" font-size="10.00">/vtranslatevars.cpp</text>
</a>
</g>
</g>
<!-- Node16&#45;&gt;Node39 -->
<g id="edge39" class="edge">
<title>Node16&#45;&gt;Node39</title>
<path fill="none" stroke="midnightblue" d="M2695.19,-153.42C2517.83,-151.18 2153.76,-141.17 1849,-98 1846.07,-97.58 1843.07,-97.1 1840.05,-96.58"/>
<polygon fill="midnightblue" stroke="midnightblue" points="2695.27,-156.92 2705.31,-153.54 2695.35,-149.92 2695.27,-156.92"/>
</g>
<!-- Node40 -->
<g id="node35" class="node">
<title>Node40</title>
<g id="a_node35"><a xlink:href="../../df/d40/export__format__combobox_8cpp.html" target="_top" xlink:title=" ">
<polygon fill="white" stroke="black" points="1858.5,-67.5 1858.5,-97.5 1991.5,-97.5 1991.5,-67.5 1858.5,-67.5"/>
<text text-anchor="start" x="1866.5" y="-85.5" font-family="Helvetica,sans-Serif" font-size="10.00">src/libs/vwidgets/export</text>
<text text-anchor="middle" x="1925" y="-74.5" font-family="Helvetica,sans-Serif" font-size="10.00">_format_combobox.cpp</text>
</a>
</g>
</g>
<!-- Node16&#45;&gt;Node40 -->
<g id="edge40" class="edge">
<title>Node16&#45;&gt;Node40</title>
<path fill="none" stroke="midnightblue" d="M2694.84,-150.62C2540.23,-144.85 2247.37,-130.42 2000,-98 1997.24,-97.64 1994.43,-97.24 1991.59,-96.81"/>
<polygon fill="midnightblue" stroke="midnightblue" points="2695.16,-154.14 2705.28,-151.01 2695.41,-147.14 2695.16,-154.14"/>
</g>
<!-- Node25&#45;&gt;Node26 -->
<g id="edge24" class="edge">
<title>Node25&#45;&gt;Node26</title>
<path fill="none" stroke="midnightblue" d="M2776.28,-58.87C2782.21,-49.46 2788.91,-38.83 2794.12,-30.58"/>
<polygon fill="midnightblue" stroke="midnightblue" points="2773.27,-57.07 2770.9,-67.4 2779.19,-60.81 2773.27,-57.07"/>
</g>
<!-- Node37&#45;&gt;Node38 -->
<g id="edge38" class="edge">
<title>Node37&#45;&gt;Node38</title>
<path fill="none" stroke="midnightblue" d="M3947.88,-64.71C3984.98,-54.14 4032.34,-40.63 4067.5,-30.61"/>
<polygon fill="midnightblue" stroke="midnightblue" points="3946.85,-61.37 3938.19,-67.48 3948.77,-68.1 3946.85,-61.37"/>
</g>
<!-- Node64 -->
<g id="node43" class="node">
<title>Node64</title>
<g id="a_node43"><a xlink:href="../../d8/dea/pattern__piece__tool_8cpp.html" target="_top" xlink:title=" ">
<polygon fill="white" stroke="black" points="4475.5,-140 4475.5,-170 4606.5,-170 4606.5,-140 4475.5,-140"/>
<text text-anchor="start" x="4483.5" y="-158" font-family="Helvetica,sans-Serif" font-size="10.00">src/libs/vtools/tools</text>
<text text-anchor="middle" x="4541" y="-147" font-family="Helvetica,sans-Serif" font-size="10.00">/pattern_piece_tool.cpp</text>
</a>
</g>
</g>
<!-- Node63&#45;&gt;Node64 -->
<g id="edge54" class="edge">
<title>Node63&#45;&gt;Node64</title>
<path fill="none" stroke="midnightblue" d="M4417.75,-208.34C4445.82,-196.42 4481.98,-181.07 4507.86,-170.07"/>
<polygon fill="midnightblue" stroke="midnightblue" points="4416.03,-205.27 4408.19,-212.4 4418.77,-211.72 4416.03,-205.27"/>
</g>
<!-- Node65 -->
<g id="node44" class="node">
<title>Node65</title>
<g id="a_node44"><a xlink:href="../../dd/d33/addpiece_8cpp.html" target="_top" xlink:title=" ">
<polygon fill="white" stroke="black" points="4292.5,-140 4292.5,-170 4457.5,-170 4457.5,-140 4292.5,-140"/>
<text text-anchor="start" x="4300.5" y="-158" font-family="Helvetica,sans-Serif" font-size="10.00">src/libs/vtools/undocommands</text>
<text text-anchor="middle" x="4375" y="-147" font-family="Helvetica,sans-Serif" font-size="10.00">/addpiece.cpp</text>
</a>
</g>
</g>
<!-- Node63&#45;&gt;Node65 -->
<g id="edge55" class="edge">
<title>Node63&#45;&gt;Node65</title>
<path fill="none" stroke="midnightblue" d="M4375,-202.23C4375,-191.57 4375,-179.41 4375,-170.25"/>
<polygon fill="midnightblue" stroke="midnightblue" points="4371.5,-202.23 4375,-212.23 4378.5,-202.23 4371.5,-202.23"/>
</g>
<!-- Node66&#45;&gt;Node64 -->
<g id="edge57" class="edge">
<title>Node66&#45;&gt;Node64</title>
<path fill="none" stroke="midnightblue" d="M4552.15,-202.23C4549.58,-191.57 4546.65,-179.41 4544.44,-170.25"/>
<polygon fill="midnightblue" stroke="midnightblue" points="4548.81,-203.33 4554.56,-212.23 4555.62,-201.69 4548.81,-203.33"/>
</g>
<!-- Node67 -->
<g id="node46" class="node">
<title>Node67</title>
<g id="a_node46"><a xlink:href="../../da/d5c/deletepiece_8cpp.html" target="_top" xlink:title=" ">
<polygon fill="white" stroke="black" points="4624.5,-140 4624.5,-170 4789.5,-170 4789.5,-140 4624.5,-140"/>
<text text-anchor="start" x="4632.5" y="-158" font-family="Helvetica,sans-Serif" font-size="10.00">src/libs/vtools/undocommands</text>
<text text-anchor="middle" x="4707" y="-147" font-family="Helvetica,sans-Serif" font-size="10.00">/deletepiece.cpp</text>
</a>
</g>
</g>
<!-- Node66&#45;&gt;Node67 -->
<g id="edge58" class="edge">
<title>Node66&#45;&gt;Node67</title>
<path fill="none" stroke="midnightblue" d="M4597.04,-208.03C4622.13,-196.16 4654.23,-180.97 4677.26,-170.07"/>
<polygon fill="midnightblue" stroke="midnightblue" points="4595.34,-204.96 4587.79,-212.4 4598.33,-211.29 4595.34,-204.96"/>
</g>
<!-- Node68&#45;&gt;Node64 -->
<g id="edge62" class="edge">
<title>Node68&#45;&gt;Node64</title>
<path fill="none" stroke="midnightblue" d="M4807.41,-212.23C4751.46,-203.07 4678.85,-190.25 4615,-176 4607.08,-174.23 4598.73,-172.17 4590.61,-170.06"/>
<polygon fill="midnightblue" stroke="midnightblue" points="4806.87,-215.68 4817.3,-213.83 4807.99,-208.77 4806.87,-215.68"/>
</g>
<!-- Node69 -->
<g id="node48" class="node">
<title>Node69</title>
<g id="a_node48"><a xlink:href="../../d9/d3a/anchorpoint__tool_8cpp.html" target="_top" xlink:title=" ">
<polygon fill="white" stroke="black" points="5193.5,-134.5 5193.5,-175.5 5332.5,-175.5 5332.5,-134.5 5193.5,-134.5"/>
<text text-anchor="start" x="5201.5" y="-163.5" font-family="Helvetica,sans-Serif" font-size="10.00">src/libs/vtools/tools</text>
<text text-anchor="start" x="5201.5" y="-152.5" font-family="Helvetica,sans-Serif" font-size="10.00">/nodeDetails/anchorpoint</text>
<text text-anchor="middle" x="5263" y="-141.5" font-family="Helvetica,sans-Serif" font-size="10.00">_tool.cpp</text>
</a>
</g>
</g>
<!-- Node68&#45;&gt;Node69 -->
<g id="edge60" class="edge">
<title>Node68&#45;&gt;Node69</title>
<path fill="none" stroke="midnightblue" d="M4992.52,-211.93C5048.45,-202.66 5121.06,-189.84 5185,-176 5187.73,-175.41 5190.51,-174.79 5193.32,-174.14"/>
<polygon fill="midnightblue" stroke="midnightblue" points="4991.93,-208.48 4982.64,-213.55 4993.07,-215.38 4991.93,-208.48"/>
</g>
<!-- Node70 -->
<g id="node49" class="node">
<title>Node70</title>
<g id="a_node49"><a xlink:href="../../d3/dd9/vtoolinternalpath_8cpp.html" target="_top" xlink:title=" ">
<polygon fill="white" stroke="black" points="4807.5,-140 4807.5,-170 4992.5,-170 4992.5,-140 4807.5,-140"/>
<text text-anchor="start" x="4815.5" y="-158" font-family="Helvetica,sans-Serif" font-size="10.00">src/libs/vtools/tools</text>
<text text-anchor="middle" x="4900" y="-147" font-family="Helvetica,sans-Serif" font-size="10.00">/nodeDetails/vtoolinternalpath.cpp</text>
</a>
</g>
</g>
<!-- Node68&#45;&gt;Node70 -->
<g id="edge61" class="edge">
<title>Node68&#45;&gt;Node70</title>
<path fill="none" stroke="midnightblue" d="M4900,-202.23C4900,-191.57 4900,-179.41 4900,-170.25"/>
<polygon fill="midnightblue" stroke="midnightblue" points="4896.5,-202.23 4900,-212.23 4903.5,-202.23 4896.5,-202.23"/>
</g>
<!-- Node71 -->
<g id="node50" class="node">
<title>Node71</title>
<g id="a_node50"><a xlink:href="../../d1/d05/savepieceoptions_8cpp.html" target="_top" xlink:title=" ">
<polygon fill="white" stroke="black" points="5010.5,-140 5010.5,-170 5175.5,-170 5175.5,-140 5010.5,-140"/>
<text text-anchor="start" x="5018.5" y="-158" font-family="Helvetica,sans-Serif" font-size="10.00">src/libs/vtools/undocommands</text>
<text text-anchor="middle" x="5093" y="-147" font-family="Helvetica,sans-Serif" font-size="10.00">/savepieceoptions.cpp</text>
</a>
</g>
</g>
<!-- Node68&#45;&gt;Node71 -->
<g id="edge63" class="edge">
<title>Node68&#45;&gt;Node71</title>
<path fill="none" stroke="midnightblue" d="M4948,-208.96C4980.86,-196.96 5023.86,-181.26 5054.47,-170.07"/>
<polygon fill="midnightblue" stroke="midnightblue" points="4946.78,-205.68 4938.59,-212.4 4949.19,-212.26 4946.78,-205.68"/>
</g>
</g>
</svg>
