<?xml version="1.0" encoding="UTF-8" standalone="no"?>
<!DOCTYPE svg PUBLIC "-//W3C//DTD SVG 1.1//EN"
 "http://www.w3.org/Graphics/SVG/1.1/DTD/svg11.dtd">
<!-- Generated by graphviz version 2.43.0 (0)
 -->
<!-- Title: src/libs/vpatterndb/vpiece.h Pages: 1 -->
<svg width="6137pt" height="318pt"
 viewBox="0.00 0.00 6136.50 318.00" xmlns="http://www.w3.org/2000/svg" xmlns:xlink="http://www.w3.org/1999/xlink">
<g id="graph0" class="graph" transform="scale(1 1) rotate(0) translate(4 314)">
<title>src/libs/vpatterndb/vpiece.h</title>
<polygon fill="white" stroke="transparent" points="-4,4 -4,-314 6132.5,-314 6132.5,4 -4,4"/>
<!-- Node1 -->
<g id="node1" class="node">
<title>Node1</title>
<g id="a_node1"><a xlink:title=" ">
<polygon fill="#bfbfbf" stroke="black" points="5006.5,-279.5 5006.5,-309.5 5113.5,-309.5 5113.5,-279.5 5006.5,-279.5"/>
<text text-anchor="start" x="5014.5" y="-297.5" font-family="Helvetica,sans-Serif" font-size="10.00">src/libs/vpatterndb</text>
<text text-anchor="middle" x="5060" y="-286.5" font-family="Helvetica,sans-Serif" font-size="10.00">/vpiece.h</text>
</a>
</g>
</g>
<!-- Node2 -->
<g id="node2" class="node">
<title>Node2</title>
<g id="a_node2"><a xlink:href="../../d3/df7/vcontainer_8h.html" target="_top" xlink:title=" ">
<polygon fill="white" stroke="black" points="4058.5,-212.5 4058.5,-242.5 4165.5,-242.5 4165.5,-212.5 4058.5,-212.5"/>
<text text-anchor="start" x="4066.5" y="-230.5" font-family="Helvetica,sans-Serif" font-size="10.00">src/libs/vpatterndb</text>
<text text-anchor="middle" x="4112" y="-219.5" font-family="Helvetica,sans-Serif" font-size="10.00">/vcontainer.h</text>
</a>
</g>
</g>
<!-- Node1&#45;&gt;Node2 -->
<g id="edge1" class="edge">
<title>Node1&#45;&gt;Node2</title>
<path fill="none" stroke="midnightblue" d="M4996.17,-289.12C4819.97,-277.04 4329.09,-243.38 4165.68,-232.18"/>
<polygon fill="midnightblue" stroke="midnightblue" points="4996.1,-292.63 5006.32,-289.82 4996.58,-285.64 4996.1,-292.63"/>
</g>
<!-- Node36 -->
<g id="node31" class="node">
<title>Node36</title>
<g id="a_node31"><a xlink:href="../../df/d7a/vpiece_8cpp.html" target="_top" xlink:title=" ">
<polygon fill="white" stroke="black" points="4213.5,-67.5 4213.5,-97.5 4320.5,-97.5 4320.5,-67.5 4213.5,-67.5"/>
<text text-anchor="start" x="4221.5" y="-85.5" font-family="Helvetica,sans-Serif" font-size="10.00">src/libs/vpatterndb</text>
<text text-anchor="middle" x="4267" y="-74.5" font-family="Helvetica,sans-Serif" font-size="10.00">/vpiece.cpp</text>
</a>
</g>
</g>
<!-- Node1&#45;&gt;Node36 -->
<g id="edge51" class="edge">
<title>Node1&#45;&gt;Node36</title>
<path fill="none" stroke="midnightblue" d="M5065.47,-269.54C5071.95,-234.26 5077.68,-168.77 5041,-134 4988.96,-84.67 4487.7,-82.47 4320.77,-83.12"/>
<polygon fill="midnightblue" stroke="midnightblue" points="5062.02,-268.96 5063.48,-279.45 5068.88,-270.33 5062.02,-268.96"/>
</g>
<!-- Node61 -->
<g id="node40" class="node">
<title>Node61</title>
<g id="a_node40"><a xlink:href="../../d1/d3a/abstracttest_8cpp.html" target="_top" xlink:title=" ">
<polygon fill="white" stroke="black" points="4724.5,-145.5 4724.5,-164.5 4885.5,-164.5 4885.5,-145.5 4724.5,-145.5"/>
<text text-anchor="middle" x="4805" y="-152.5" font-family="Helvetica,sans-Serif" font-size="10.00">src/libs/vtest/abstracttest.cpp</text>
</a>
</g>
</g>
<!-- Node1&#45;&gt;Node61 -->
<g id="edge52" class="edge">
<title>Node1&#45;&gt;Node61</title>
<path fill="none" stroke="midnightblue" d="M5024.8,-274.52C4968.68,-244.26 4861.18,-186.29 4820.83,-164.53"/>
<polygon fill="midnightblue" stroke="midnightblue" points="5023.21,-277.64 5033.67,-279.3 5026.53,-271.48 5023.21,-277.64"/>
</g>
<!-- Node62 -->
<g id="node41" class="node">
<title>Node62</title>
<g id="a_node41"><a xlink:href="../../da/db4/piece__tablewidgetitem_8cpp.html" target="_top" xlink:title=" ">
<polygon fill="white" stroke="black" points="4904,-140 4904,-170 5032,-170 5032,-140 4904,-140"/>
<text text-anchor="start" x="4912" y="-158" font-family="Helvetica,sans-Serif" font-size="10.00">src/libs/vwidgets/piece</text>
<text text-anchor="middle" x="4968" y="-147" font-family="Helvetica,sans-Serif" font-size="10.00">_tablewidgetitem.cpp</text>
</a>
</g>
</g>
<!-- Node1&#45;&gt;Node62 -->
<g id="edge64" class="edge">
<title>Node1&#45;&gt;Node62</title>
<path fill="none" stroke="midnightblue" d="M5044.8,-270.79C5025.72,-242.26 4993.55,-194.19 4977.59,-170.33"/>
<polygon fill="midnightblue" stroke="midnightblue" points="5042.03,-272.94 5050.5,-279.3 5047.85,-269.05 5042.03,-272.94"/>
</g>
<!-- Node63 -->
<g id="node42" class="node">
<title>Node63</title>
<g id="a_node42"><a xlink:href="../../d2/de0/addpiece_8h.html" target="_top" xlink:title=" ">
<polygon fill="white" stroke="black" points="5088.5,-212.5 5088.5,-242.5 5253.5,-242.5 5253.5,-212.5 5088.5,-212.5"/>
<text text-anchor="start" x="5096.5" y="-230.5" font-family="Helvetica,sans-Serif" font-size="10.00">src/libs/vtools/undocommands</text>
<text text-anchor="middle" x="5171" y="-219.5" font-family="Helvetica,sans-Serif" font-size="10.00">/addpiece.h</text>
</a>
</g>
</g>
<!-- Node1&#45;&gt;Node63 -->
<g id="edge53" class="edge">
<title>Node1&#45;&gt;Node63</title>
<path fill="none" stroke="midnightblue" d="M5092.8,-274.3C5110.16,-264.12 5131.12,-251.85 5146.96,-242.58"/>
<polygon fill="midnightblue" stroke="midnightblue" points="5090.95,-271.32 5084.09,-279.4 5094.48,-277.36 5090.95,-271.32"/>
</g>
<!-- Node66 -->
<g id="node45" class="node">
<title>Node66</title>
<g id="a_node45"><a xlink:href="../../da/d10/deletepiece_8h.html" target="_top" xlink:title=" ">
<polygon fill="white" stroke="black" points="5271.5,-212.5 5271.5,-242.5 5436.5,-242.5 5436.5,-212.5 5271.5,-212.5"/>
<text text-anchor="start" x="5279.5" y="-230.5" font-family="Helvetica,sans-Serif" font-size="10.00">src/libs/vtools/undocommands</text>
<text text-anchor="middle" x="5354" y="-219.5" font-family="Helvetica,sans-Serif" font-size="10.00">/deletepiece.h</text>
</a>
</g>
</g>
<!-- Node1&#45;&gt;Node66 -->
<g id="edge56" class="edge">
<title>Node1&#45;&gt;Node66</title>
<path fill="none" stroke="midnightblue" d="M5123.51,-279.46C5172.93,-268.53 5241.17,-253.45 5290.56,-242.53"/>
<polygon fill="midnightblue" stroke="midnightblue" points="5122.59,-276.08 5113.58,-281.65 5124.1,-282.91 5122.59,-276.08"/>
</g>
<!-- Node68 -->
<g id="node47" class="node">
<title>Node68</title>
<g id="a_node47"><a xlink:href="../../d2/d6b/savepieceoptions_8h.html" target="_top" xlink:title=" ">
<polygon fill="white" stroke="black" points="5590.5,-212.5 5590.5,-242.5 5755.5,-242.5 5755.5,-212.5 5590.5,-212.5"/>
<text text-anchor="start" x="5598.5" y="-230.5" font-family="Helvetica,sans-Serif" font-size="10.00">src/libs/vtools/undocommands</text>
<text text-anchor="middle" x="5673" y="-219.5" font-family="Helvetica,sans-Serif" font-size="10.00">/savepieceoptions.h</text>
</a>
</g>
</g>
<!-- Node1&#45;&gt;Node68 -->
<g id="edge59" class="edge">
<title>Node1&#45;&gt;Node68</title>
<path fill="none" stroke="midnightblue" d="M5123.7,-286.75C5235.41,-274.9 5466.51,-250.4 5590.36,-237.26"/>
<polygon fill="midnightblue" stroke="midnightblue" points="5123.17,-283.28 5113.59,-287.82 5123.91,-290.24 5123.17,-283.28"/>
</g>
<!-- Node3 -->
<g id="node3" class="node">
<title>Node3</title>
<g id="a_node3"><a xlink:href="../../dc/db7/measurements_8h.html" target="_top" xlink:title=" ">
<polygon fill="white" stroke="black" points="155.5,-145.5 155.5,-164.5 334.5,-164.5 334.5,-145.5 155.5,-145.5"/>
<text text-anchor="middle" x="245" y="-152.5" font-family="Helvetica,sans-Serif" font-size="10.00">src/libs/vformat/measurements.h</text>
</a>
</g>
</g>
<!-- Node2&#45;&gt;Node3 -->
<g id="edge2" class="edge">
<title>Node2&#45;&gt;Node3</title>
<path fill="none" stroke="midnightblue" d="M4048.25,-226.4C3703.02,-225.68 2022.23,-219.99 649,-176 540.91,-172.54 416.67,-166 334.82,-161.35"/>
<polygon fill="midnightblue" stroke="midnightblue" points="4048.3,-229.9 4058.31,-226.42 4048.32,-222.9 4048.3,-229.9"/>
</g>
<!-- Node4 -->
<g id="node4" class="node">
<title>Node4</title>
<g id="a_node4"><a xlink:href="../../d9/de3/measurements_8cpp.html" target="_top" xlink:title=" ">
<polygon fill="white" stroke="black" points="0,-73 0,-92 190,-92 190,-73 0,-73"/>
<text text-anchor="middle" x="95" y="-80" font-family="Helvetica,sans-Serif" font-size="10.00">src/libs/vformat/measurements.cpp</text>
</a>
</g>
</g>
<!-- Node2&#45;&gt;Node4 -->
<g id="edge4" class="edge">
<title>Node2&#45;&gt;Node4</title>
<path fill="none" stroke="midnightblue" d="M4048.01,-226.45C3648.35,-226.01 1490.9,-221.54 832,-176 573.74,-158.15 267.31,-111.41 147.08,-92.07"/>
<polygon fill="midnightblue" stroke="midnightblue" points="4048.22,-229.95 4058.22,-226.46 4048.22,-222.95 4048.22,-229.95"/>
</g>
<!-- Node5 -->
<g id="node5" class="node">
<title>Node5</title>
<g id="a_node5"><a xlink:href="../../d6/de0/vlayoutpiece_8h.html" target="_top" xlink:title=" ">
<polygon fill="white" stroke="black" points="841,-145.5 841,-164.5 1007,-164.5 1007,-145.5 841,-145.5"/>
<text text-anchor="middle" x="924" y="-152.5" font-family="Helvetica,sans-Serif" font-size="10.00">src/libs/vlayout/vlayoutpiece.h</text>
</a>
</g>
</g>
<!-- Node2&#45;&gt;Node5 -->
<g id="edge5" class="edge">
<title>Node2&#45;&gt;Node5</title>
<path fill="none" stroke="midnightblue" d="M4048.05,-225.09C3645.33,-216.18 1462.57,-167.91 1007.26,-157.84"/>
<polygon fill="midnightblue" stroke="midnightblue" points="4048.26,-228.59 4058.34,-225.31 4048.42,-221.59 4048.26,-228.59"/>
</g>
<!-- Node15 -->
<g id="node14" class="node">
<title>Node15</title>
<g id="a_node14"><a xlink:href="../../d8/d70/vtextmanager_8cpp.html" target="_top" xlink:title=" ">
<polygon fill="white" stroke="black" points="1530,-73 1530,-92 1712,-92 1712,-73 1530,-73"/>
<text text-anchor="middle" x="1621" y="-80" font-family="Helvetica,sans-Serif" font-size="10.00">src/libs/vlayout/vtextmanager.cpp</text>
</a>
</g>
</g>
<!-- Node2&#45;&gt;Node15 -->
<g id="edge16" class="edge">
<title>Node2&#45;&gt;Node15</title>
<path fill="none" stroke="midnightblue" d="M4048.1,-225.63C3770.47,-221.3 2641.59,-198.14 1721,-98 1706,-96.37 1689.8,-94.2 1674.88,-92.03"/>
<polygon fill="midnightblue" stroke="midnightblue" points="4048.33,-229.13 4058.39,-225.79 4048.44,-222.13 4048.33,-229.13"/>
</g>
<!-- Node16 -->
<g id="node15" class="node">
<title>Node16</title>
<g id="a_node15"><a xlink:href="../../d5/d74/vabstractapplication_8h.html" target="_top" xlink:title=" ">
<polygon fill="white" stroke="red" points="2801.5,-145.5 2801.5,-164.5 2996.5,-164.5 2996.5,-145.5 2801.5,-145.5"/>
<text text-anchor="middle" x="2899" y="-152.5" font-family="Helvetica,sans-Serif" font-size="10.00">src/libs/vmisc/vabstractapplication.h</text>
</a>
</g>
</g>
<!-- Node2&#45;&gt;Node16 -->
<g id="edge17" class="edge">
<title>Node2&#45;&gt;Node16</title>
<path fill="none" stroke="midnightblue" d="M4048.3,-222.8C3849.03,-211.22 3236.6,-175.62 2996.76,-161.68"/>
<polygon fill="midnightblue" stroke="midnightblue" points="4048.13,-226.29 4058.31,-223.38 4048.53,-219.31 4048.13,-226.29"/>
</g>
<!-- Node34 -->
<g id="node29" class="node">
<title>Node34</title>
<g id="a_node29"><a xlink:href="../../db/d11/vformula_8cpp.html" target="_top" xlink:title=" ">
<polygon fill="white" stroke="black" points="3963.5,-67.5 3963.5,-97.5 4070.5,-97.5 4070.5,-67.5 3963.5,-67.5"/>
<text text-anchor="start" x="3971.5" y="-85.5" font-family="Helvetica,sans-Serif" font-size="10.00">src/libs/vpatterndb</text>
<text text-anchor="middle" x="4017" y="-74.5" font-family="Helvetica,sans-Serif" font-size="10.00">/vformula.cpp</text>
</a>
</g>
</g>
<!-- Node2&#45;&gt;Node34 -->
<g id="edge43" class="edge">
<title>Node2&#45;&gt;Node34</title>
<path fill="none" stroke="midnightblue" d="M4092.44,-204.68C4085.06,-196.01 4076.8,-185.79 4070,-176 4051.63,-149.55 4033.75,-116.32 4024.18,-97.75"/>
<polygon fill="midnightblue" stroke="midnightblue" points="4089.98,-207.18 4099.18,-212.44 4095.27,-202.59 4089.98,-207.18"/>
</g>
<!-- Node35 -->
<g id="node30" class="node">
<title>Node35</title>
<g id="a_node30"><a xlink:href="../../d6/d46/vcontainer_8cpp.html" target="_top" xlink:title=" ">
<polygon fill="white" stroke="black" points="4088.5,-67.5 4088.5,-97.5 4195.5,-97.5 4195.5,-67.5 4088.5,-67.5"/>
<text text-anchor="start" x="4096.5" y="-85.5" font-family="Helvetica,sans-Serif" font-size="10.00">src/libs/vpatterndb</text>
<text text-anchor="middle" x="4142" y="-74.5" font-family="Helvetica,sans-Serif" font-size="10.00">/vcontainer.cpp</text>
</a>
</g>
</g>
<!-- Node2&#45;&gt;Node35 -->
<g id="edge44" class="edge">
<title>Node2&#45;&gt;Node35</title>
<path fill="none" stroke="midnightblue" d="M4093.41,-204.14C4087.62,-195.83 4081.97,-185.98 4079,-176 4073.67,-158.11 4070.92,-150.83 4079,-134 4086.46,-118.46 4101.3,-106.19 4114.7,-97.64"/>
<polygon fill="midnightblue" stroke="midnightblue" points="4090.61,-206.25 4099.39,-212.19 4096.23,-202.07 4090.61,-206.25"/>
</g>
<!-- Node2&#45;&gt;Node36 -->
<g id="edge46" class="edge">
<title>Node2&#45;&gt;Node36</title>
<path fill="none" stroke="midnightblue" d="M4106.41,-202.29C4103.2,-182 4102.31,-153.32 4117,-134 4123.32,-125.69 4175.02,-109.44 4215.98,-97.62"/>
<polygon fill="midnightblue" stroke="midnightblue" points="4103.01,-203.13 4108.28,-212.32 4109.89,-201.84 4103.01,-203.13"/>
</g>
<!-- Node39 -->
<g id="node34" class="node">
<title>Node39</title>
<g id="a_node34"><a xlink:href="../../d8/dba/vpiecenode_8cpp.html" target="_top" xlink:title=" ">
<polygon fill="white" stroke="black" points="3991.5,-0.5 3991.5,-30.5 4098.5,-30.5 4098.5,-0.5 3991.5,-0.5"/>
<text text-anchor="start" x="3999.5" y="-18.5" font-family="Helvetica,sans-Serif" font-size="10.00">src/libs/vpatterndb</text>
<text text-anchor="middle" x="4045" y="-7.5" font-family="Helvetica,sans-Serif" font-size="10.00">/vpiecenode.cpp</text>
</a>
</g>
</g>
<!-- Node2&#45;&gt;Node39 -->
<g id="edge47" class="edge">
<title>Node2&#45;&gt;Node39</title>
<path fill="none" stroke="midnightblue" d="M4115.4,-202.6C4119.71,-181.36 4129.26,-151.11 4150,-134 4215.53,-79.95 4383.56,-132.11 4329,-67 4300.17,-32.6 4172.48,-21.61 4098.5,-18.12"/>
<polygon fill="midnightblue" stroke="midnightblue" points="4111.94,-202.02 4113.63,-212.48 4118.84,-203.25 4111.94,-202.02"/>
</g>
<!-- Node55 -->
<g id="node36" class="node">
<title>Node55</title>
<g id="a_node36"><a xlink:href="../../d7/d8a/measurement__variable__p_8h.html" target="_top" xlink:title=" ">
<polygon fill="white" stroke="red" points="4159,-134.5 4159,-175.5 4295,-175.5 4295,-134.5 4159,-134.5"/>
<text text-anchor="start" x="4167" y="-163.5" font-family="Helvetica,sans-Serif" font-size="10.00">src/libs/vpatterndb</text>
<text text-anchor="start" x="4167" y="-152.5" font-family="Helvetica,sans-Serif" font-size="10.00">/variables/measurement</text>
<text text-anchor="middle" x="4227" y="-141.5" font-family="Helvetica,sans-Serif" font-size="10.00">_variable_p.h</text>
</a>
</g>
</g>
<!-- Node2&#45;&gt;Node55 -->
<g id="edge41" class="edge">
<title>Node2&#45;&gt;Node55</title>
<path fill="none" stroke="midnightblue" d="M4143.92,-206.93C4159.82,-197.19 4178.98,-185.44 4194.9,-175.68"/>
<polygon fill="midnightblue" stroke="midnightblue" points="4141.69,-204.19 4135,-212.4 4145.35,-210.16 4141.69,-204.19"/>
</g>
<!-- Node57 -->
<g id="node37" class="node">
<title>Node57</title>
<g id="a_node37"><a xlink:href="../../d1/de1/vincrement__p_8h.html" target="_top" xlink:title=" ">
<polygon fill="white" stroke="red" points="4313.5,-140 4313.5,-170 4456.5,-170 4456.5,-140 4313.5,-140"/>
<text text-anchor="start" x="4321.5" y="-158" font-family="Helvetica,sans-Serif" font-size="10.00">src/libs/vpatterndb</text>
<text text-anchor="middle" x="4385" y="-147" font-family="Helvetica,sans-Serif" font-size="10.00">/variables/vincrement_p.h</text>
</a>
</g>
</g>
<!-- Node2&#45;&gt;Node57 -->
<g id="edge42" class="edge">
<title>Node2&#45;&gt;Node57</title>
<path fill="none" stroke="midnightblue" d="M4175.38,-210.13C4222.4,-197.99 4285.84,-181.61 4330.58,-170.05"/>
<polygon fill="midnightblue" stroke="midnightblue" points="4174.42,-206.77 4165.61,-212.66 4176.17,-213.54 4174.42,-206.77"/>
</g>
<!-- Node59 -->
<g id="node38" class="node">
<title>Node59</title>
<g id="a_node38"><a xlink:href="../../d6/d91/vnodedetail_8cpp.html" target="_top" xlink:title=" ">
<polygon fill="white" stroke="black" points="4474.5,-140 4474.5,-170 4581.5,-170 4581.5,-140 4474.5,-140"/>
<text text-anchor="start" x="4482.5" y="-158" font-family="Helvetica,sans-Serif" font-size="10.00">src/libs/vpatterndb</text>
<text text-anchor="middle" x="4528" y="-147" font-family="Helvetica,sans-Serif" font-size="10.00">/vnodedetail.cpp</text>
</a>
</g>
</g>
<!-- Node2&#45;&gt;Node59 -->
<g id="edge45" class="edge">
<title>Node2&#45;&gt;Node59</title>
<path fill="none" stroke="midnightblue" d="M4175.88,-220.57C4247.04,-213.23 4365.2,-198.82 4465,-176 4472.27,-174.34 4479.91,-172.23 4487.27,-170.01"/>
<polygon fill="midnightblue" stroke="midnightblue" points="4175.32,-217.11 4165.73,-221.6 4176.03,-224.07 4175.32,-217.11"/>
</g>
<!-- Node60 -->
<g id="node39" class="node">
<title>Node60</title>
<g id="a_node39"><a xlink:href="../../da/de1/vpiecepath_8cpp.html" target="_top" xlink:title=" ">
<polygon fill="white" stroke="black" points="4599.5,-140 4599.5,-170 4706.5,-170 4706.5,-140 4599.5,-140"/>
<text text-anchor="start" x="4607.5" y="-158" font-family="Helvetica,sans-Serif" font-size="10.00">src/libs/vpatterndb</text>
<text text-anchor="middle" x="4653" y="-147" font-family="Helvetica,sans-Serif" font-size="10.00">/vpiecepath.cpp</text>
</a>
</g>
</g>
<!-- Node2&#45;&gt;Node60 -->
<g id="edge48" class="edge">
<title>Node2&#45;&gt;Node60</title>
<path fill="none" stroke="midnightblue" d="M4175.61,-223.87C4267.8,-219.14 4443.57,-206.65 4590,-176 4597.53,-174.42 4605.43,-172.3 4612.99,-170.03"/>
<polygon fill="midnightblue" stroke="midnightblue" points="4175.41,-220.38 4165.6,-224.37 4175.76,-227.37 4175.41,-220.38"/>
</g>
<!-- Node2&#45;&gt;Node61 -->
<g id="edge49" class="edge">
<title>Node2&#45;&gt;Node61</title>
<path fill="none" stroke="midnightblue" d="M4175.82,-223.99C4286.23,-219.02 4519.81,-205.72 4715,-176 4733.83,-173.13 4754.6,-168.61 4771.44,-164.59"/>
<polygon fill="midnightblue" stroke="midnightblue" points="4175.36,-220.51 4165.52,-224.45 4175.67,-227.5 4175.36,-220.51"/>
</g>
<!-- Node2&#45;&gt;Node62 -->
<g id="edge50" class="edge">
<title>Node2&#45;&gt;Node62</title>
<path fill="none" stroke="midnightblue" d="M4175.59,-226.67C4309.46,-226.09 4629.77,-219.79 4894,-176 4903.06,-174.5 4912.61,-172.35 4921.73,-170.02"/>
<polygon fill="midnightblue" stroke="midnightblue" points="4175.5,-223.17 4165.52,-226.7 4175.53,-230.17 4175.5,-223.17"/>
</g>
<!-- Node3&#45;&gt;Node4 -->
<g id="edge3" class="edge">
<title>Node3&#45;&gt;Node4</title>
<path fill="none" stroke="midnightblue" d="M217.73,-141.18C187.39,-126.92 139.21,-104.28 113.16,-92.03"/>
<polygon fill="midnightblue" stroke="midnightblue" points="216.37,-144.41 226.91,-145.5 219.35,-138.07 216.37,-144.41"/>
</g>
<!-- Node6 -->
<g id="node6" class="node">
<title>Node6</title>
<g id="a_node6"><a xlink:href="../../dd/d66/vdxfengine_8cpp.html" target="_top" xlink:title=" ">
<polygon fill="white" stroke="black" points="208,-73 208,-92 362,-92 362,-73 208,-73"/>
<text text-anchor="middle" x="285" y="-80" font-family="Helvetica,sans-Serif" font-size="10.00">src/libs/vdxf/vdxfengine.cpp</text>
</a>
</g>
</g>
<!-- Node5&#45;&gt;Node6 -->
<g id="edge6" class="edge">
<title>Node5&#45;&gt;Node6</title>
<path fill="none" stroke="midnightblue" d="M830.81,-146.46C720.71,-137.11 532.13,-119.72 371,-98 358.4,-96.3 344.8,-94.16 332.23,-92.04"/>
<polygon fill="midnightblue" stroke="midnightblue" points="830.63,-149.95 840.89,-147.31 831.22,-142.98 830.63,-149.95"/>
</g>
<!-- Node7 -->
<g id="node7" class="node">
<title>Node7</title>
<g id="a_node7"><a xlink:href="../../de/da8/vbank_8cpp.html" target="_top" xlink:title=" ">
<polygon fill="white" stroke="black" points="380,-73 380,-92 524,-92 524,-73 380,-73"/>
<text text-anchor="middle" x="452" y="-80" font-family="Helvetica,sans-Serif" font-size="10.00">src/libs/vlayout/vbank.cpp</text>
</a>
</g>
</g>
<!-- Node5&#45;&gt;Node7 -->
<g id="edge7" class="edge">
<title>Node5&#45;&gt;Node7</title>
<path fill="none" stroke="midnightblue" d="M849.24,-144.08C770.46,-133.45 642.82,-115.69 533,-98 521.72,-96.18 509.58,-94.09 498.21,-92.06"/>
<polygon fill="midnightblue" stroke="midnightblue" points="849.17,-147.6 859.55,-145.47 850.11,-140.67 849.17,-147.6"/>
</g>
<!-- Node8 -->
<g id="node8" class="node">
<title>Node8</title>
<g id="a_node8"><a xlink:href="../../df/d5d/vcontour_8cpp.html" target="_top" xlink:title=" ">
<polygon fill="white" stroke="black" points="542,-73 542,-92 698,-92 698,-73 542,-73"/>
<text text-anchor="middle" x="620" y="-80" font-family="Helvetica,sans-Serif" font-size="10.00">src/libs/vlayout/vcontour.cpp</text>
</a>
</g>
</g>
<!-- Node5&#45;&gt;Node8 -->
<g id="edge8" class="edge">
<title>Node5&#45;&gt;Node8</title>
<path fill="none" stroke="midnightblue" d="M877.27,-143.16C816.64,-129.1 712.11,-104.86 656.8,-92.03"/>
<polygon fill="midnightblue" stroke="midnightblue" points="876.8,-146.65 887.33,-145.5 878.38,-139.83 876.8,-146.65"/>
</g>
<!-- Node9 -->
<g id="node9" class="node">
<title>Node9</title>
<g id="a_node9"><a xlink:href="../../d2/d2d/vlayoutpaper__p_8h.html" target="_top" xlink:title=" ">
<polygon fill="white" stroke="black" points="716.5,-73 716.5,-92 895.5,-92 895.5,-73 716.5,-73"/>
<text text-anchor="middle" x="806" y="-80" font-family="Helvetica,sans-Serif" font-size="10.00">src/libs/vlayout/vlayoutpaper_p.h</text>
</a>
</g>
</g>
<!-- Node5&#45;&gt;Node9 -->
<g id="edge9" class="edge">
<title>Node5&#45;&gt;Node9</title>
<path fill="none" stroke="midnightblue" d="M900.77,-140.12C876.96,-125.89 840.65,-104.2 820.59,-92.22"/>
<polygon fill="midnightblue" stroke="midnightblue" points="899.15,-143.23 909.53,-145.36 902.74,-137.22 899.15,-143.23"/>
</g>
<!-- Node10 -->
<g id="node10" class="node">
<title>Node10</title>
<g id="a_node10"><a xlink:href="../../d1/dd1/vlayoutpaper_8cpp.html" target="_top" xlink:title=" ">
<polygon fill="white" stroke="black" points="835,-6 835,-25 1013,-25 1013,-6 835,-6"/>
<text text-anchor="middle" x="924" y="-13" font-family="Helvetica,sans-Serif" font-size="10.00">src/libs/vlayout/vlayoutpaper.cpp</text>
</a>
</g>
</g>
<!-- Node5&#45;&gt;Node10 -->
<g id="edge12" class="edge">
<title>Node5&#45;&gt;Node10</title>
<path fill="none" stroke="midnightblue" d="M924,-135.36C924,-105.23 924,-46.99 924,-25.1"/>
<polygon fill="midnightblue" stroke="midnightblue" points="920.5,-135.4 924,-145.4 927.5,-135.4 920.5,-135.4"/>
</g>
<!-- Node11 -->
<g id="node11" class="node">
<title>Node11</title>
<g id="a_node11"><a xlink:href="../../d3/d39/vlayoutgenerator_8cpp.html" target="_top" xlink:title=" ">
<polygon fill="white" stroke="black" points="952.5,-73 952.5,-92 1149.5,-92 1149.5,-73 952.5,-73"/>
<text text-anchor="middle" x="1051" y="-80" font-family="Helvetica,sans-Serif" font-size="10.00">src/libs/vlayout/vlayoutgenerator.cpp</text>
</a>
</g>
</g>
<!-- Node5&#45;&gt;Node11 -->
<g id="edge11" class="edge">
<title>Node5&#45;&gt;Node11</title>
<path fill="none" stroke="midnightblue" d="M948.32,-140.5C973.94,-126.28 1013.52,-104.3 1035.3,-92.22"/>
<polygon fill="midnightblue" stroke="midnightblue" points="946.62,-137.44 939.57,-145.36 950.01,-143.56 946.62,-137.44"/>
</g>
<!-- Node12 -->
<g id="node12" class="node">
<title>Node12</title>
<g id="a_node12"><a xlink:href="../../db/d5c/vposition_8h.html" target="_top" xlink:title=" ">
<polygon fill="white" stroke="red" points="1168,-73 1168,-92 1316,-92 1316,-73 1168,-73"/>
<text text-anchor="middle" x="1242" y="-80" font-family="Helvetica,sans-Serif" font-size="10.00">src/libs/vlayout/vposition.h</text>
</a>
</g>
</g>
<!-- Node5&#45;&gt;Node12 -->
<g id="edge13" class="edge">
<title>Node5&#45;&gt;Node12</title>
<path fill="none" stroke="midnightblue" d="M972.49,-143.25C1035.85,-129.2 1145.53,-104.89 1203.51,-92.03"/>
<polygon fill="midnightblue" stroke="midnightblue" points="971.36,-139.91 962.36,-145.5 972.88,-146.75 971.36,-139.91"/>
</g>
<!-- Node14 -->
<g id="node13" class="node">
<title>Node14</title>
<g id="a_node13"><a xlink:href="../../dd/d70/vlayoutpiece_8cpp.html" target="_top" xlink:title=" ">
<polygon fill="white" stroke="black" points="1334.5,-73 1334.5,-92 1511.5,-92 1511.5,-73 1334.5,-73"/>
<text text-anchor="middle" x="1423" y="-80" font-family="Helvetica,sans-Serif" font-size="10.00">src/libs/vlayout/vlayoutpiece.cpp</text>
</a>
</g>
</g>
<!-- Node5&#45;&gt;Node14 -->
<g id="edge15" class="edge">
<title>Node5&#45;&gt;Node14</title>
<path fill="none" stroke="midnightblue" d="M996.2,-144.1C1076.5,-133.04 1210.07,-114.53 1325,-98 1338.28,-96.09 1352.56,-94 1366.01,-92.01"/>
<polygon fill="midnightblue" stroke="midnightblue" points="995.62,-140.64 986.19,-145.47 996.57,-147.58 995.62,-140.64"/>
</g>
<!-- Node9&#45;&gt;Node10 -->
<g id="edge10" class="edge">
<title>Node9&#45;&gt;Node10</title>
<path fill="none" stroke="midnightblue" d="M830.89,-67.79C854.28,-54.9 888.56,-36.02 908.34,-25.13"/>
<polygon fill="midnightblue" stroke="midnightblue" points="828.98,-64.84 821.91,-72.73 832.36,-70.97 828.98,-64.84"/>
</g>
<!-- Node12&#45;&gt;Node10 -->
<g id="edge14" class="edge">
<title>Node12&#45;&gt;Node10</title>
<path fill="none" stroke="midnightblue" d="M1190.04,-70.88C1127.41,-58.08 1023.41,-36.82 965.74,-25.03"/>
<polygon fill="midnightblue" stroke="midnightblue" points="1189.6,-74.36 1200.1,-72.94 1191,-67.5 1189.6,-74.36"/>
</g>
<!-- Node16&#45;&gt;Node14 -->
<g id="edge29" class="edge">
<title>Node16&#45;&gt;Node14</title>
<path fill="none" stroke="midnightblue" d="M2791.3,-153.51C2558.81,-151.6 1992.84,-142.37 1521,-98 1505.5,-96.54 1488.72,-94.3 1473.49,-92.02"/>
<polygon fill="midnightblue" stroke="midnightblue" points="2791.41,-157.01 2801.44,-153.59 2791.47,-150.01 2791.41,-157.01"/>
</g>
<!-- Node16&#45;&gt;Node15 -->
<g id="edge28" class="edge">
<title>Node16&#45;&gt;Node15</title>
<path fill="none" stroke="midnightblue" d="M2791.13,-152.35C2583.51,-148.41 2114.08,-135.75 1721,-98 1705.37,-96.5 1688.45,-94.28 1673.05,-92.02"/>
<polygon fill="midnightblue" stroke="midnightblue" points="2791.36,-155.86 2801.42,-152.54 2791.49,-148.86 2791.36,-155.86"/>
</g>
<!-- Node17 -->
<g id="node16" class="node">
<title>Node17</title>
<g id="a_node16"><a xlink:href="../../d4/d90/fvupdater_8cpp.html" target="_top" xlink:title=" ">
<polygon fill="white" stroke="black" points="1730.5,-73 1730.5,-92 1883.5,-92 1883.5,-73 1730.5,-73"/>
<text text-anchor="middle" x="1807" y="-80" font-family="Helvetica,sans-Serif" font-size="10.00">src/libs/fervor/fvupdater.cpp</text>
</a>
</g>
</g>
<!-- Node16&#45;&gt;Node17 -->
<g id="edge18" class="edge">
<title>Node16&#45;&gt;Node17</title>
<path fill="none" stroke="midnightblue" d="M2791.23,-152.01C2606.6,-147.72 2218.16,-134.77 1892,-98 1878.76,-96.51 1864.45,-94.3 1851.42,-92.06"/>
<polygon fill="midnightblue" stroke="midnightblue" points="2791.4,-155.52 2801.48,-152.25 2791.56,-148.52 2791.4,-155.52"/>
</g>
<!-- Node18 -->
<g id="node17" class="node">
<title>Node18</title>
<g id="a_node17"><a xlink:href="../../d9/dc8/dxiface_8cpp.html" target="_top" xlink:title=" ">
<polygon fill="white" stroke="black" points="1901.5,-73 1901.5,-92 2036.5,-92 2036.5,-73 1901.5,-73"/>
<text text-anchor="middle" x="1969" y="-80" font-family="Helvetica,sans-Serif" font-size="10.00">src/libs/vdxf/dxiface.cpp</text>
</a>
</g>
</g>
<!-- Node16&#45;&gt;Node18 -->
<g id="edge19" class="edge">
<title>Node16&#45;&gt;Node18</title>
<path fill="none" stroke="midnightblue" d="M2790.81,-151.17C2628.31,-145.96 2311.81,-132.07 2045,-98 2033.14,-96.49 2020.34,-94.27 2008.69,-92.03"/>
<polygon fill="midnightblue" stroke="midnightblue" points="2791.18,-154.68 2801.29,-151.5 2791.4,-147.69 2791.18,-154.68"/>
</g>
<!-- Node19 -->
<g id="node18" class="node">
<title>Node19</title>
<g id="a_node18"><a xlink:href="../../da/d75/vabstractarc__p_8h.html" target="_top" xlink:title=" ">
<polygon fill="white" stroke="red" points="2054.5,-67.5 2054.5,-97.5 2161.5,-97.5 2161.5,-67.5 2054.5,-67.5"/>
<text text-anchor="start" x="2062.5" y="-85.5" font-family="Helvetica,sans-Serif" font-size="10.00">src/libs/vgeometry</text>
<text text-anchor="middle" x="2108" y="-74.5" font-family="Helvetica,sans-Serif" font-size="10.00">/vabstractarc_p.h</text>
</a>
</g>
</g>
<!-- Node16&#45;&gt;Node19 -->
<g id="edge20" class="edge">
<title>Node16&#45;&gt;Node19</title>
<path fill="none" stroke="midnightblue" d="M2791.4,-150.88C2648.64,-145.57 2389.14,-131.84 2170,-98 2167.27,-97.58 2164.48,-97.1 2161.67,-96.58"/>
<polygon fill="midnightblue" stroke="midnightblue" points="2791.35,-154.38 2801.47,-151.25 2791.6,-147.39 2791.35,-154.38"/>
</g>
<!-- Node21 -->
<g id="node19" class="node">
<title>Node21</title>
<g id="a_node19"><a xlink:href="../../dc/da3/varc__p_8h.html" target="_top" xlink:title=" ">
<polygon fill="white" stroke="red" points="2179.5,-67.5 2179.5,-97.5 2286.5,-97.5 2286.5,-67.5 2179.5,-67.5"/>
<text text-anchor="start" x="2187.5" y="-85.5" font-family="Helvetica,sans-Serif" font-size="10.00">src/libs/vgeometry</text>
<text text-anchor="middle" x="2233" y="-74.5" font-family="Helvetica,sans-Serif" font-size="10.00">/varc_p.h</text>
</a>
</g>
</g>
<!-- Node16&#45;&gt;Node21 -->
<g id="edge21" class="edge">
<title>Node16&#45;&gt;Node21</title>
<path fill="none" stroke="midnightblue" d="M2791.43,-148.49C2670.19,-141.25 2467.51,-126.03 2295,-98 2292.27,-97.56 2289.49,-97.06 2286.68,-96.53"/>
<polygon fill="midnightblue" stroke="midnightblue" points="2791.27,-151.99 2801.45,-149.09 2791.68,-145 2791.27,-151.99"/>
</g>
<!-- Node23 -->
<g id="node20" class="node">
<title>Node23</title>
<g id="a_node20"><a xlink:href="../../d5/d8e/vcubicbezier__p_8h.html" target="_top" xlink:title=" ">
<polygon fill="white" stroke="red" points="2304.5,-67.5 2304.5,-97.5 2411.5,-97.5 2411.5,-67.5 2304.5,-67.5"/>
<text text-anchor="start" x="2312.5" y="-85.5" font-family="Helvetica,sans-Serif" font-size="10.00">src/libs/vgeometry</text>
<text text-anchor="middle" x="2358" y="-74.5" font-family="Helvetica,sans-Serif" font-size="10.00">/vcubicbezier_p.h</text>
</a>
</g>
</g>
<!-- Node16&#45;&gt;Node23 -->
<g id="edge22" class="edge">
<title>Node16&#45;&gt;Node23</title>
<path fill="none" stroke="midnightblue" d="M2791.13,-144.91C2693.72,-135.87 2546.65,-120.14 2420,-98 2417.28,-97.52 2414.5,-97 2411.69,-96.45"/>
<polygon fill="midnightblue" stroke="midnightblue" points="2791.01,-148.41 2801.29,-145.85 2791.65,-141.44 2791.01,-148.41"/>
</g>
<!-- Node25 -->
<g id="node21" class="node">
<title>Node25</title>
<g id="a_node21"><a xlink:href="../../df/dde/vellipticalarc__p_8h.html" target="_top" xlink:title=" ">
<polygon fill="white" stroke="black" points="2429.5,-67.5 2429.5,-97.5 2536.5,-97.5 2536.5,-67.5 2429.5,-67.5"/>
<text text-anchor="start" x="2437.5" y="-85.5" font-family="Helvetica,sans-Serif" font-size="10.00">src/libs/vgeometry</text>
<text text-anchor="middle" x="2483" y="-74.5" font-family="Helvetica,sans-Serif" font-size="10.00">/vellipticalarc_p.h</text>
</a>
</g>
</g>
<!-- Node16&#45;&gt;Node25 -->
<g id="edge23" class="edge">
<title>Node16&#45;&gt;Node25</title>
<path fill="none" stroke="midnightblue" d="M2830.29,-143.99C2759.96,-133.5 2647.6,-116.06 2551,-98 2546.37,-97.13 2541.58,-96.2 2536.77,-95.23"/>
<polygon fill="midnightblue" stroke="midnightblue" points="2829.94,-147.48 2840.35,-145.49 2830.97,-140.55 2829.94,-147.48"/>
</g>
<!-- Node26 -->
<g id="node22" class="node">
<title>Node26</title>
<g id="a_node22"><a xlink:href="../../d6/dfb/vellipticalarc_8cpp.html" target="_top" xlink:title=" ">
<polygon fill="white" stroke="black" points="2470.5,-0.5 2470.5,-30.5 2577.5,-30.5 2577.5,-0.5 2470.5,-0.5"/>
<text text-anchor="start" x="2478.5" y="-18.5" font-family="Helvetica,sans-Serif" font-size="10.00">src/libs/vgeometry</text>
<text text-anchor="middle" x="2524" y="-7.5" font-family="Helvetica,sans-Serif" font-size="10.00">/vellipticalarc.cpp</text>
</a>
</g>
</g>
<!-- Node16&#45;&gt;Node26 -->
<g id="edge25" class="edge">
<title>Node16&#45;&gt;Node26</title>
<path fill="none" stroke="midnightblue" d="M2798.42,-144.29C2720.17,-135.24 2619.16,-119.85 2584,-98 2557.74,-81.68 2539.23,-49.28 2530.22,-30.62"/>
<polygon fill="midnightblue" stroke="midnightblue" points="2798.49,-147.82 2808.82,-145.47 2799.28,-140.86 2798.49,-147.82"/>
</g>
<!-- Node27 -->
<g id="node23" class="node">
<title>Node27</title>
<g id="a_node23"><a xlink:href="../../d1/d76/vspline__p_8h.html" target="_top" xlink:title=" ">
<polygon fill="white" stroke="red" points="2593.5,-67.5 2593.5,-97.5 2700.5,-97.5 2700.5,-67.5 2593.5,-67.5"/>
<text text-anchor="start" x="2601.5" y="-85.5" font-family="Helvetica,sans-Serif" font-size="10.00">src/libs/vgeometry</text>
<text text-anchor="middle" x="2647" y="-74.5" font-family="Helvetica,sans-Serif" font-size="10.00">/vspline_p.h</text>
</a>
</g>
</g>
<!-- Node16&#45;&gt;Node27 -->
<g id="edge26" class="edge">
<title>Node16&#45;&gt;Node27</title>
<path fill="none" stroke="midnightblue" d="M2858.85,-142.77C2814.95,-130.49 2744.54,-110.79 2697.06,-97.51"/>
<polygon fill="midnightblue" stroke="midnightblue" points="2858.03,-146.17 2868.6,-145.5 2859.92,-139.43 2858.03,-146.17"/>
</g>
<!-- Node29 -->
<g id="node24" class="node">
<title>Node29</title>
<g id="a_node24"><a xlink:href="../../d9/d15/vabstractpiece_8cpp.html" target="_top" xlink:title=" ">
<polygon fill="white" stroke="black" points="2719,-73 2719,-92 2905,-92 2905,-73 2719,-73"/>
<text text-anchor="middle" x="2812" y="-80" font-family="Helvetica,sans-Serif" font-size="10.00">src/libs/vlayout/vabstractpiece.cpp</text>
</a>
</g>
</g>
<!-- Node16&#45;&gt;Node29 -->
<g id="edge27" class="edge">
<title>Node16&#45;&gt;Node29</title>
<path fill="none" stroke="midnightblue" d="M2880.46,-138.97C2862.9,-124.75 2837.15,-103.88 2822.76,-92.22"/>
<polygon fill="midnightblue" stroke="midnightblue" points="2878.36,-141.78 2888.33,-145.36 2882.77,-136.34 2878.36,-141.78"/>
</g>
<!-- Node30 -->
<g id="node25" class="node">
<title>Node30</title>
<g id="a_node25"><a xlink:href="../../db/d65/dialogexporttocsv_8cpp.html" target="_top" xlink:title=" ">
<polygon fill="white" stroke="black" points="2923.5,-67.5 2923.5,-97.5 3050.5,-97.5 3050.5,-67.5 2923.5,-67.5"/>
<text text-anchor="start" x="2931.5" y="-85.5" font-family="Helvetica,sans-Serif" font-size="10.00">src/libs/vmisc/dialogs</text>
<text text-anchor="middle" x="2987" y="-74.5" font-family="Helvetica,sans-Serif" font-size="10.00">/dialogexporttocsv.cpp</text>
</a>
</g>
</g>
<!-- Node16&#45;&gt;Node30 -->
<g id="edge30" class="edge">
<title>Node16&#45;&gt;Node30</title>
<path fill="none" stroke="midnightblue" d="M2917.99,-138.78C2933.26,-126.55 2954.55,-109.5 2969.43,-97.58"/>
<polygon fill="midnightblue" stroke="midnightblue" points="2915.41,-136.37 2909.79,-145.36 2919.78,-141.83 2915.41,-136.37"/>
</g>
<!-- Node31 -->
<g id="node26" class="node">
<title>Node31</title>
<g id="a_node26"><a xlink:href="../../d6/d0b/def_8cpp.html" target="_top" xlink:title=" ">
<polygon fill="white" stroke="black" points="3069,-73 3069,-92 3191,-92 3191,-73 3069,-73"/>
<text text-anchor="middle" x="3130" y="-80" font-family="Helvetica,sans-Serif" font-size="10.00">src/libs/vmisc/def.cpp</text>
</a>
</g>
</g>
<!-- Node16&#45;&gt;Node31 -->
<g id="edge31" class="edge">
<title>Node16&#45;&gt;Node31</title>
<path fill="none" stroke="midnightblue" d="M2936.53,-142.55C2982.87,-128.4 3060.62,-104.68 3102.04,-92.03"/>
<polygon fill="midnightblue" stroke="midnightblue" points="2935.41,-139.23 2926.86,-145.5 2937.45,-145.92 2935.41,-139.23"/>
</g>
<!-- Node32 -->
<g id="node27" class="node">
<title>Node32</title>
<g id="a_node27"><a xlink:href="../../d0/df6/vabstractapplication_8cpp.html" target="_top" xlink:title=" ">
<polygon fill="white" stroke="black" points="3209,-73 3209,-92 3415,-92 3415,-73 3209,-73"/>
<text text-anchor="middle" x="3312" y="-80" font-family="Helvetica,sans-Serif" font-size="10.00">src/libs/vmisc/vabstractapplication.cpp</text>
</a>
</g>
</g>
<!-- Node16&#45;&gt;Node32 -->
<g id="edge32" class="edge">
<title>Node16&#45;&gt;Node32</title>
<path fill="none" stroke="midnightblue" d="M2958.7,-143.81C3040.44,-129.86 3185.7,-105.06 3262.01,-92.03"/>
<polygon fill="midnightblue" stroke="midnightblue" points="2958.09,-140.36 2948.82,-145.5 2959.26,-147.26 2958.09,-140.36"/>
</g>
<!-- Node33 -->
<g id="node28" class="node">
<title>Node33</title>
<g id="a_node28"><a xlink:href="../../d4/d4f/pmsystems_8cpp.html" target="_top" xlink:title=" ">
<polygon fill="white" stroke="black" points="3433.5,-67.5 3433.5,-97.5 3540.5,-97.5 3540.5,-67.5 3433.5,-67.5"/>
<text text-anchor="start" x="3441.5" y="-85.5" font-family="Helvetica,sans-Serif" font-size="10.00">src/libs/vpatterndb</text>
<text text-anchor="middle" x="3487" y="-74.5" font-family="Helvetica,sans-Serif" font-size="10.00">/pmsystems.cpp</text>
</a>
</g>
</g>
<!-- Node16&#45;&gt;Node33 -->
<g id="edge33" class="edge">
<title>Node16&#45;&gt;Node33</title>
<path fill="none" stroke="midnightblue" d="M3006.83,-146.3C3113.33,-137.81 3280.6,-122.06 3424,-98 3427.1,-97.48 3430.27,-96.9 3433.47,-96.28"/>
<polygon fill="midnightblue" stroke="midnightblue" points="3006.41,-142.82 2996.72,-147.1 3006.97,-149.8 3006.41,-142.82"/>
</g>
<!-- Node16&#45;&gt;Node34 -->
<g id="edge34" class="edge">
<title>Node16&#45;&gt;Node34</title>
<path fill="none" stroke="midnightblue" d="M3006.7,-154.42C3198.23,-153.8 3610.28,-146.31 3954,-98 3957,-97.58 3960.07,-97.08 3963.16,-96.54"/>
<polygon fill="midnightblue" stroke="midnightblue" points="3006.62,-150.92 2996.63,-154.44 3006.64,-157.92 3006.62,-150.92"/>
</g>
<!-- Node16&#45;&gt;Node35 -->
<g id="edge35" class="edge">
<title>Node16&#45;&gt;Node35</title>
<path fill="none" stroke="midnightblue" d="M3007.15,-151.34C3258.04,-144.78 3873.84,-126.25 4079,-98 4082,-97.59 4085.07,-97.1 4088.16,-96.56"/>
<polygon fill="midnightblue" stroke="midnightblue" points="3006.84,-147.85 2996.93,-151.61 3007.02,-154.85 3006.84,-147.85"/>
</g>
<!-- Node16&#45;&gt;Node36 -->
<g id="edge36" class="edge">
<title>Node16&#45;&gt;Node36</title>
<path fill="none" stroke="midnightblue" d="M3006.85,-151.92C3276.31,-146.31 3973.81,-129.16 4204,-98 4207,-97.59 4210.07,-97.11 4213.16,-96.57"/>
<polygon fill="midnightblue" stroke="midnightblue" points="3006.59,-148.42 2996.67,-152.13 3006.74,-155.42 3006.59,-148.42"/>
</g>
<!-- Node37 -->
<g id="node32" class="node">
<title>Node37</title>
<g id="a_node32"><a xlink:href="../../de/d3e/vtranslatevars_8cpp.html" target="_top" xlink:title=" ">
<polygon fill="white" stroke="black" points="3559,-67.5 3559,-97.5 3669,-97.5 3669,-67.5 3559,-67.5"/>
<text text-anchor="start" x="3567" y="-85.5" font-family="Helvetica,sans-Serif" font-size="10.00">src/libs/vpatterndb</text>
<text text-anchor="middle" x="3614" y="-74.5" font-family="Helvetica,sans-Serif" font-size="10.00">/vtranslatevars.cpp</text>
</a>
</g>
</g>
<!-- Node16&#45;&gt;Node37 -->
<g id="edge37" class="edge">
<title>Node16&#45;&gt;Node37</title>
<path fill="none" stroke="midnightblue" d="M3006.97,-149.12C3136.37,-142.25 3359.48,-127.17 3549,-98 3552.2,-97.51 3555.48,-96.95 3558.78,-96.35"/>
<polygon fill="midnightblue" stroke="midnightblue" points="3006.47,-145.64 2996.67,-149.66 3006.84,-152.63 3006.47,-145.64"/>
</g>
<!-- Node38 -->
<g id="node33" class="node">
<title>Node38</title>
<g id="a_node33"><a xlink:href="../../df/dba/vpiecenode__p_8h.html" target="_top" xlink:title=" ">
<polygon fill="white" stroke="black" points="3687.5,-67.5 3687.5,-97.5 3794.5,-97.5 3794.5,-67.5 3687.5,-67.5"/>
<text text-anchor="start" x="3695.5" y="-85.5" font-family="Helvetica,sans-Serif" font-size="10.00">src/libs/vpatterndb</text>
<text text-anchor="middle" x="3741" y="-74.5" font-family="Helvetica,sans-Serif" font-size="10.00">/vpiecenode_p.h</text>
</a>
</g>
</g>
<!-- Node16&#45;&gt;Node38 -->
<g id="edge38" class="edge">
<title>Node16&#45;&gt;Node38</title>
<path fill="none" stroke="midnightblue" d="M3006.88,-151.5C3157.78,-146.82 3440.09,-133.71 3678,-98 3681.11,-97.53 3684.29,-97 3687.49,-96.41"/>
<polygon fill="midnightblue" stroke="midnightblue" points="3006.58,-148.01 2996.69,-151.81 3006.79,-155.01 3006.58,-148.01"/>
</g>
<!-- Node40 -->
<g id="node35" class="node">
<title>Node40</title>
<g id="a_node35"><a xlink:href="../../df/d40/export__format__combobox_8cpp.html" target="_top" xlink:title=" ">
<polygon fill="white" stroke="black" points="3812.5,-67.5 3812.5,-97.5 3945.5,-97.5 3945.5,-67.5 3812.5,-67.5"/>
<text text-anchor="start" x="3820.5" y="-85.5" font-family="Helvetica,sans-Serif" font-size="10.00">src/libs/vwidgets/export</text>
<text text-anchor="middle" x="3879" y="-74.5" font-family="Helvetica,sans-Serif" font-size="10.00">_format_combobox.cpp</text>
</a>
</g>
</g>
<!-- Node16&#45;&gt;Node40 -->
<g id="edge40" class="edge">
<title>Node16&#45;&gt;Node40</title>
<path fill="none" stroke="midnightblue" d="M3006.9,-151.73C3176.82,-147.16 3516.9,-134.01 3803,-98 3806.07,-97.61 3809.19,-97.18 3812.35,-96.71"/>
<polygon fill="midnightblue" stroke="midnightblue" points="3006.6,-148.24 2996.7,-152 3006.79,-155.23 3006.6,-148.24"/>
</g>
<!-- Node25&#45;&gt;Node26 -->
<g id="edge24" class="edge">
<title>Node25&#45;&gt;Node26</title>
<path fill="none" stroke="midnightblue" d="M2497.28,-58.87C2503.21,-49.46 2509.91,-38.83 2515.12,-30.58"/>
<polygon fill="midnightblue" stroke="midnightblue" points="2494.27,-57.07 2491.9,-67.4 2500.19,-60.81 2494.27,-57.07"/>
</g>
<!-- Node38&#45;&gt;Node39 -->
<g id="edge39" class="edge">
<title>Node38&#45;&gt;Node39</title>
<path fill="none" stroke="midnightblue" d="M3804.57,-66.68C3874.17,-51.35 3944.21,-36.9 3991.1,-27.36"/>
<polygon fill="midnightblue" stroke="midnightblue" points="3803.76,-63.27 3794.75,-68.85 3805.27,-70.11 3803.76,-63.27"/>
</g>
<!-- Node64 -->
<g id="node43" class="node">
<title>Node64</title>
<g id="a_node43"><a xlink:href="../../d8/dea/pattern__piece__tool_8cpp.html" target="_top" xlink:title=" ">
<polygon fill="white" stroke="black" points="5271.5,-140 5271.5,-170 5402.5,-170 5402.5,-140 5271.5,-140"/>
<text text-anchor="start" x="5279.5" y="-158" font-family="Helvetica,sans-Serif" font-size="10.00">src/libs/vtools/tools</text>
<text text-anchor="middle" x="5337" y="-147" font-family="Helvetica,sans-Serif" font-size="10.00">/pattern_piece_tool.cpp</text>
</a>
</g>
</g>
<!-- Node63&#45;&gt;Node64 -->
<g id="edge54" class="edge">
<title>Node63&#45;&gt;Node64</title>
<path fill="none" stroke="midnightblue" d="M5213.75,-208.34C5241.82,-196.42 5277.98,-181.07 5303.86,-170.07"/>
<polygon fill="midnightblue" stroke="midnightblue" points="5212.03,-205.27 5204.19,-212.4 5214.77,-211.72 5212.03,-205.27"/>
</g>
<!-- Node65 -->
<g id="node44" class="node">
<title>Node65</title>
<g id="a_node44"><a xlink:href="../../dd/d33/addpiece_8cpp.html" target="_top" xlink:title=" ">
<polygon fill="white" stroke="black" points="5088.5,-140 5088.5,-170 5253.5,-170 5253.5,-140 5088.5,-140"/>
<text text-anchor="start" x="5096.5" y="-158" font-family="Helvetica,sans-Serif" font-size="10.00">src/libs/vtools/undocommands</text>
<text text-anchor="middle" x="5171" y="-147" font-family="Helvetica,sans-Serif" font-size="10.00">/addpiece.cpp</text>
</a>
</g>
</g>
<!-- Node63&#45;&gt;Node65 -->
<g id="edge55" class="edge">
<title>Node63&#45;&gt;Node65</title>
<path fill="none" stroke="midnightblue" d="M5171,-202.23C5171,-191.57 5171,-179.41 5171,-170.25"/>
<polygon fill="midnightblue" stroke="midnightblue" points="5167.5,-202.23 5171,-212.23 5174.5,-202.23 5167.5,-202.23"/>
</g>
<!-- Node66&#45;&gt;Node64 -->
<g id="edge57" class="edge">
<title>Node66&#45;&gt;Node64</title>
<path fill="none" stroke="midnightblue" d="M5348.15,-202.23C5345.58,-191.57 5342.65,-179.41 5340.44,-170.25"/>
<polygon fill="midnightblue" stroke="midnightblue" points="5344.81,-203.33 5350.56,-212.23 5351.62,-201.69 5344.81,-203.33"/>
</g>
<!-- Node67 -->
<g id="node46" class="node">
<title>Node67</title>
<g id="a_node46"><a xlink:href="../../da/d5c/deletepiece_8cpp.html" target="_top" xlink:title=" ">
<polygon fill="white" stroke="black" points="5420.5,-140 5420.5,-170 5585.5,-170 5585.5,-140 5420.5,-140"/>
<text text-anchor="start" x="5428.5" y="-158" font-family="Helvetica,sans-Serif" font-size="10.00">src/libs/vtools/undocommands</text>
<text text-anchor="middle" x="5503" y="-147" font-family="Helvetica,sans-Serif" font-size="10.00">/deletepiece.cpp</text>
</a>
</g>
</g>
<!-- Node66&#45;&gt;Node67 -->
<g id="edge58" class="edge">
<title>Node66&#45;&gt;Node67</title>
<path fill="none" stroke="midnightblue" d="M5393.04,-208.03C5418.13,-196.16 5450.23,-180.97 5473.26,-170.07"/>
<polygon fill="midnightblue" stroke="midnightblue" points="5391.34,-204.96 5383.79,-212.4 5394.33,-211.29 5391.34,-204.96"/>
</g>
<!-- Node68&#45;&gt;Node64 -->
<g id="edge62" class="edge">
<title>Node68&#45;&gt;Node64</title>
<path fill="none" stroke="midnightblue" d="M5582.19,-210.69C5531.6,-201.47 5467.59,-189.08 5411,-176 5403.22,-174.2 5395.02,-172.15 5387.03,-170.06"/>
<polygon fill="midnightblue" stroke="midnightblue" points="5581.65,-214.15 5592.12,-212.5 5582.91,-207.27 5581.65,-214.15"/>
</g>
<!-- Node69 -->
<g id="node48" class="node">
<title>Node69</title>
<g id="a_node48"><a xlink:href="../../d9/d3a/anchorpoint__tool_8cpp.html" target="_top" xlink:title=" ">
<polygon fill="white" stroke="black" points="5603.5,-134.5 5603.5,-175.5 5742.5,-175.5 5742.5,-134.5 5603.5,-134.5"/>
<text text-anchor="start" x="5611.5" y="-163.5" font-family="Helvetica,sans-Serif" font-size="10.00">src/libs/vtools/tools</text>
<text text-anchor="start" x="5611.5" y="-152.5" font-family="Helvetica,sans-Serif" font-size="10.00">/nodeDetails/anchorpoint</text>
<text text-anchor="middle" x="5673" y="-141.5" font-family="Helvetica,sans-Serif" font-size="10.00">_tool.cpp</text>
</a>
</g>
</g>
<!-- Node68&#45;&gt;Node69 -->
<g id="edge60" class="edge">
<title>Node68&#45;&gt;Node69</title>
<path fill="none" stroke="midnightblue" d="M5673,-201.98C5673,-193.35 5673,-183.76 5673,-175.59"/>
<polygon fill="midnightblue" stroke="midnightblue" points="5669.5,-202.23 5673,-212.23 5676.5,-202.23 5669.5,-202.23"/>
</g>
<!-- Node70 -->
<g id="node49" class="node">
<title>Node70</title>
<g id="a_node49"><a xlink:href="../../d3/dd9/vtoolinternalpath_8cpp.html" target="_top" xlink:title=" ">
<polygon fill="white" stroke="black" points="5760.5,-140 5760.5,-170 5945.5,-170 5945.5,-140 5760.5,-140"/>
<text text-anchor="start" x="5768.5" y="-158" font-family="Helvetica,sans-Serif" font-size="10.00">src/libs/vtools/tools</text>
<text text-anchor="middle" x="5853" y="-147" font-family="Helvetica,sans-Serif" font-size="10.00">/nodeDetails/vtoolinternalpath.cpp</text>
</a>
</g>
</g>
<!-- Node68&#45;&gt;Node70 -->
<g id="edge61" class="edge">
<title>Node68&#45;&gt;Node70</title>
<path fill="none" stroke="midnightblue" d="M5718.56,-208.65C5749.1,-196.69 5788.76,-181.16 5817.07,-170.07"/>
<polygon fill="midnightblue" stroke="midnightblue" points="5717.03,-205.5 5708.99,-212.4 5719.58,-212.01 5717.03,-205.5"/>
</g>
<!-- Node71 -->
<g id="node50" class="node">
<title>Node71</title>
<g id="a_node50"><a xlink:href="../../d1/d05/savepieceoptions_8cpp.html" target="_top" xlink:title=" ">
<polygon fill="white" stroke="black" points="5963.5,-140 5963.5,-170 6128.5,-170 6128.5,-140 5963.5,-140"/>
<text text-anchor="start" x="5971.5" y="-158" font-family="Helvetica,sans-Serif" font-size="10.00">src/libs/vtools/undocommands</text>
<text text-anchor="middle" x="6046" y="-147" font-family="Helvetica,sans-Serif" font-size="10.00">/savepieceoptions.cpp</text>
</a>
</g>
</g>
<!-- Node68&#45;&gt;Node71 -->
<g id="edge63" class="edge">
<title>Node68&#45;&gt;Node71</title>
<path fill="none" stroke="midnightblue" d="M5765.62,-210.85C5820.73,-201.31 5891.98,-188.56 5955,-176 5964.2,-174.17 5973.9,-172.14 5983.41,-170.09"/>
<polygon fill="midnightblue" stroke="midnightblue" points="5764.79,-207.45 5755.53,-212.6 5765.98,-214.34 5764.79,-207.45"/>
</g>
</g>
</svg>
